<?xml version="1.0" encoding="UTF-8" standalone="no"?>
<svg
   id="svg30"
   version="1.1"
   height="49.538002"
   width="49.538002"
   xmlns:xlink="http://www.w3.org/1999/xlink"
   xmlns="http://www.w3.org/2000/svg"
   xmlns:svg="http://www.w3.org/2000/svg"
   xmlns:rdf="http://www.w3.org/1999/02/22-rdf-syntax-ns#"
   xmlns:cc="http://creativecommons.org/ns#"
   xmlns:dc="http://purl.org/dc/elements/1.1/">
  <metadata
     id="metadata2">
    <rdf:RDF>
      <cc:Work
         rdf:about="">
        <dc:format>image/svg+xml</dc:format>
        <dc:type
           rdf:resource="http://purl.org/dc/dcmitype/StillImage" />
        <dc:title />
      </cc:Work>
    </rdf:RDF>
  </metadata>
  <defs
     id="defs12">
    <linearGradient
       id="linearGradient1">
      <stop
         style="stop-color:#00abff;stop-opacity:0;"
         offset="0"
         id="stop2" />
      <stop
         style="stop-color:#00abff;stop-opacity:1;"
         offset="1"
         id="stop1" />
    </linearGradient>
    <style
       id="style4"
       type="text/css" />
    <style
       id="style6"
       type="text/css" />
    <style
       id="style8"
       type="text/css" />
    <style
       type="text/css"
       id="style1078" />
    <style
       type="text/css"
       id="style1080" />
    <style
       id="style14"
       type="text/css" />
    <style
       id="style16"
       type="text/css" />
    <linearGradient
       xlink:href="#linearGradient1"
       id="linearGradient2"
       x1="33.910446"
       y1="57.307648"
       x2="33.910446"
       y2="27.064337"
       gradientUnits="userSpaceOnUse" />
    <filter
       style="color-interpolation-filters:sRGB"
       id="filter2"
       x="-0.027"
       y="-0.027"
       width="1.054"
       height="1.054">
      <feGaussianBlur
         stdDeviation="0.52875"
         id="feGaussianBlur2" />
    </filter>
  </defs>
  <g
     id="g4"
     transform="translate(0.52681213,0.52681254)">
    <path
       id="path3"
       style="display:inline;opacity:0.6;fill:#00abff;fill-opacity:1;stroke-linecap:round;filter:url(#filter2)"
       d="M 10.500188,8.5001876 V 31.500188 h 23 V 8.5001876 Z m 24,0 V 31.500188 h 23 V 8.5001876 Z m -22,2.0000004 h 19 v 19 h -19 z m 24,0 h 19 v 19 h -19 z m -16.5,1.5 v 6 h -6 v 4 h 6 v 6 h 4 v -6 h 6 v -4 h -6 v -6 z m 18,6 v 4 h 16 v -4 z m -27.5,14.5 v 23 h 23 v -23 z m 24,0 v 23 h 23 v -23 z m -22,2 h 19 v 19 h -19 z m 24,0 h 19 v 19 h -19 z M 17.758,36.929875 14.929875,39.758 19.172063,44.000188 14.929875,48.242375 17.758,51.0705 22.000188,46.828313 26.242375,51.0705 29.0705,48.242375 24.828313,44.000188 29.0705,39.758 26.242375,36.929875 22.000188,41.172063 Z m 20.242188,2.087891 v 4 h 16 v -4 z m 0,5.964843 v 4 h 16 v -4 z"
       transform="translate(-9.7580001,-7.7580001)" />
    <path
       id="path1"
       style="fill:url(#linearGradient2);fill-opacity:1;stroke-linecap:round"
       d="M 10.500188,8.5001876 V 31.500188 h 23 V 8.5001876 Z m 24,0 V 31.500188 h 23 V 8.5001876 Z m -22,2.0000004 h 19 v 19 h -19 z m 24,0 h 19 v 19 h -19 z m -16.5,1.5 v 6 h -6 v 4 h 6 v 6 h 4 v -6 h 6 v -4 h -6 v -6 z m 18,6 v 4 h 16 v -4 z m -27.5,14.5 v 23 h 23 v -23 z m 24,0 v 23 h 23 v -23 z m -22,2 h 19 v 19 h -19 z m 24,0 h 19 v 19 h -19 z M 17.758,36.929875 14.929875,39.758 19.172063,44.000188 14.929875,48.242375 17.758,51.0705 22.000188,46.828313 26.242375,51.0705 29.0705,48.242375 24.828313,44.000188 29.0705,39.758 26.242375,36.929875 22.000188,41.172063 Z m 20.242188,2.087891 v 4 h 16 v -4 z m 0,5.964843 v 4 h 16 v -4 z"
       transform="translate(-9.7580001,-7.7580001)" />
  </g>
</svg>
