<?xml version="1.0" encoding="UTF-8" standalone="no"?>
<svg
   width="32.802975"
   height="45.124794"
   version="1.1"
   viewBox="0 0 32.802975 45.124794"
   id="svg11"
   xmlns:xlink="http://www.w3.org/1999/xlink"
   xmlns="http://www.w3.org/2000/svg"
   xmlns:svg="http://www.w3.org/2000/svg"
   xmlns:rdf="http://www.w3.org/1999/02/22-rdf-syntax-ns#"
   xmlns:cc="http://creativecommons.org/ns#"
   xmlns:dc="http://purl.org/dc/elements/1.1/">
  <metadata
     id="metadata1">
    <rdf:RDF>
      <cc:Work
         rdf:about="">
        <dc:format>image/svg+xml</dc:format>
        <dc:type
           rdf:resource="http://purl.org/dc/dcmitype/StillImage" />
      </cc:Work>
    </rdf:RDF>
  </metadata>
  <defs
     id="defs5">
    <linearGradient
       id="linearGradient2">
      <stop
         style="stop-color:#00abff;stop-opacity:0;"
         offset="0"
         id="stop3" />
      <stop
         style="stop-color:#00abff;stop-opacity:1;"
         offset="1"
         id="stop2" />
    </linearGradient>
    <linearGradient
       xlink:href="#linearGradient2"
       id="linearGradient3"
       x1="11.670694"
       y1="20.424068"
       x2="11.670694"
       y2="9.8456001"
       gradientUnits="userSpaceOnUse" />
    <filter
       style="color-interpolation-filters:sRGB"
       id="filter3"
       x="-0.032399618"
       y="-0.023143051"
       width="1.0647992"
       height="1.0462861">
      <feGaussianBlur
         stdDeviation="0.14270664"
         id="feGaussianBlur3" />
    </filter>
  </defs>
  <filter
     id="i"
     x="-0.069932997"
     y="-0.054405998"
     width="1.1399"
     height="1.1088001"
     color-interpolation-filters="sRGB">
    <feGaussianBlur
       stdDeviation="1.9764485"
       id="feGaussianBlur5" />
  </filter>
  <g
     transform="matrix(2.9142713,0,0,2.9142713,-17.737798,-12.408549)"
     class="ColorScheme-Text"
     fill="currentColor"
     id="g2"
     style="color:#ffffff">
    <path
       id="path1"
       d="m 11.714854,4.6003524 c -1.7569001,0 -3.1717806,1.4141723 -3.1717806,3.171072 v 4.2288046 c 0,1.7569 1.4148805,3.171072 3.1717806,3.171072 1.756899,0 3.171072,-1.414172 3.171072,-3.171072 V 7.7714244 c 0,-1.7568997 -1.414173,-3.171072 -3.171072,-3.171072 z m 0,1.057024 c 1.171266,0 2.114048,0.9427815 2.114048,2.114048 v 4.2288046 c 0,1.171267 -0.942782,2.114047 -2.114048,2.114047 -1.171267,0 -2.1147566,-0.94278 -2.1147566,-2.114047 V 7.7714244 c 0,-1.1712665 0.9434896,-2.114048 2.1147566,-2.114048 z m -4.7573165,4.228096 c -0.2928167,0 -0.5285121,0.2364036 -0.5285121,0.5292206 v 1.585536 c 0,2.748459 2.0789744,4.993215 4.7566086,5.25749 v 1.084654 H 9.0715855 a 0.52854987,0.52854987 0 1 0 0,1.057024 h 5.2858285 a 0.52854987,0.52854987 0 1 0 0,-1.057024 h -2.114049 v -1.083238 a 5.2728135,5.2728135 0 0 0 4.756609,-5.258906 v -1.585536 a 0.52854987,0.52854987 0 1 0 -1.057024,0 v 1.585536 c 0,2.342533 -1.885563,4.228096 -4.228096,4.228096 -2.3425332,0 -4.2288046,-1.885563 -4.2288046,-4.228096 v -1.585536 c 0,-0.292817 -0.2356953,-0.5292206 -0.5285119,-0.5292206 z"
       style="display:inline;opacity:0.6;fill:#00abff;fill-opacity:1;stroke-width:1.0571;filter:url(#filter3)" />
    <path
       id="path2"
       d="m 11.714854,4.6003524 c -1.7569001,0 -3.1717806,1.4141723 -3.1717806,3.171072 v 4.2288046 c 0,1.7569 1.4148805,3.171072 3.1717806,3.171072 1.756899,0 3.171072,-1.414172 3.171072,-3.171072 V 7.7714244 c 0,-1.7568997 -1.414173,-3.171072 -3.171072,-3.171072 z m 0,1.057024 c 1.171266,0 2.114048,0.9427815 2.114048,2.114048 v 4.2288046 c 0,1.171267 -0.942782,2.114047 -2.114048,2.114047 -1.171267,0 -2.1147566,-0.94278 -2.1147566,-2.114047 V 7.7714244 c 0,-1.1712665 0.9434896,-2.114048 2.1147566,-2.114048 z m -4.7573165,4.228096 c -0.2928167,0 -0.5285121,0.2364036 -0.5285121,0.5292206 v 1.585536 c 0,2.748459 2.0789744,4.993215 4.7566086,5.25749 v 1.084654 H 9.0715855 a 0.52854987,0.52854987 0 1 0 0,1.057024 h 5.2858285 a 0.52854987,0.52854987 0 1 0 0,-1.057024 h -2.114049 v -1.083238 a 5.2728135,5.2728135 0 0 0 4.756609,-5.258906 v -1.585536 a 0.52854987,0.52854987 0 1 0 -1.057024,0 v 1.585536 c 0,2.342533 -1.885563,4.228096 -4.228096,4.228096 -2.3425332,0 -4.2288046,-1.885563 -4.2288046,-4.228096 v -1.585536 c 0,-0.292817 -0.2356953,-0.5292206 -0.5285119,-0.5292206 z"
       style="fill:url(#linearGradient3);fill-opacity:1;stroke-width:1.0571" />
  </g>
</svg>
