<?xml version="1.0" encoding="UTF-8" standalone="no"?>
<svg
   width="44.856537"
   height="39.129974"
   version="1.1"
   viewBox="0 0 11.868058 10.352935"
   id="svg16"
   xmlns:xlink="http://www.w3.org/1999/xlink"
   xmlns="http://www.w3.org/2000/svg"
   xmlns:svg="http://www.w3.org/2000/svg"
   xmlns:rdf="http://www.w3.org/1999/02/22-rdf-syntax-ns#"
   xmlns:cc="http://creativecommons.org/ns#"
   xmlns:dc="http://purl.org/dc/elements/1.1/">
  <metadata
     id="metadata2">
    <rdf:RDF>
      <cc:Work
         rdf:about="">
        <dc:format>image/svg+xml</dc:format>
        <dc:type
           rdf:resource="http://purl.org/dc/dcmitype/StillImage" />
        <dc:title />
      </cc:Work>
    </rdf:RDF>
  </metadata>
  <defs
     id="defs8">
    <linearGradient
       id="linearGradient2">
      <stop
         style="stop-color:#00abff;stop-opacity:0;"
         offset="0"
         id="stop3" />
      <stop
         style="stop-color:#00abff;stop-opacity:1;"
         offset="1"
         id="stop2" />
    </linearGradient>
    <style
       type="text/css"
       id="style4" />
    <style
       type="text/css"
       id="style6" />
    <linearGradient
       xlink:href="#linearGradient2"
       id="linearGradient3"
       x1="8.4006662"
       y1="17.871658"
       x2="8.4006662"
       y2="7.2080636"
       gradientUnits="userSpaceOnUse" />
    <filter
       style="color-interpolation-filters:sRGB"
       id="filter3"
       x="-0.02518971"
       y="-0.029090636"
       width="1.0503794"
       height="1.0581813">
      <feGaussianBlur
         stdDeviation="0.16793276"
         id="feGaussianBlur3" />
    </filter>
  </defs>
  <g
     transform="matrix(0.70617112,0,0,0.70617112,0.28479634,-1.1275026)"
     fill="#dedede"
     font-family="sans-serif"
     font-weight="400"
     id="g3">
    <path
       id="path1"
       style="font-variant-ligatures:normal;font-variant-position:normal;font-variant-caps:normal;font-variant-numeric:normal;font-variant-alternates:normal;font-feature-settings:normal;text-indent:0;text-decoration-line:none;text-decoration-style:solid;text-decoration-color:#000000;text-transform:none;text-orientation:mixed;white-space:normal;shape-padding:0;display:inline;opacity:0.6;isolation:auto;mix-blend-mode:normal;fill:#00abff;fill-opacity:1;filter:url(#filter3)"
       d="m 3.9937374,1.9996808 c -1.258,0.015 -2.1787349,-0.029358 -2.9307349,0.3856423 A 1.88,1.88 0 0 0 0.225127,3.3827243 c -0.165,0.437 -0.22538485711,0.9602095 -0.22538485711,1.6172095 v 7.0001022 c 0,0.658 0.0603848571,1.17921 0.22538485711,1.61721 0.164,0.439 0.46087552,0.789401 0.8378755,0.997401 0.752,0.416 1.6727349,0.370642 2.9307349,0.385642 H 5.4960592 A 6.04,6.04 0 0 1 3.3000204,12.000036 h -2.29995 V 4.9999338 c 0,-0.592 0.063257,-1.0059604 0.1602574,-1.2659604 0.098,-0.26 0.2019105,-0.370991 0.3849105,-0.471991 0.365,-0.202 1.195085,-0.2469733 2.455085,-0.2619733 h 7.9996987 c 1.259,0.015 2.08689,0.059973 2.45289,0.2619733 0.184,0.1 0.290106,0.211991 0.387106,0.471991 0.097,0.26 0.160257,0.6739604 0.160257,1.2659604 V 12.000036 H 14.63 c -0.148,0.389 -0.325655,0.764607 -0.535655,1.119607 l 1.212541,1.212541 c 0.2,-0.194 0.363333,-0.433938 0.468333,-0.714938 0.165,-0.438 0.224653,-0.96021 0.224653,-1.61721 V 4.9999338 c 0,-0.658 -0.05965,-1.1792095 -0.224653,-1.6172095 A 1.88,1.88 0 0 0 14.938075,2.3853231 c -0.753,-0.416 -1.674199,-0.3706423 -2.932199,-0.3856423 H 3.998128 Z m 5.0060319,3.000253 c -2.755,0 -4.999446,2.2451777 -4.999446,5.0001772 0,2.755 2.244446,5.000178 4.999446,5.000178 1.1976677,0 2.2988827,-0.42531 3.1612417,-1.131315 l 1.98529,1.98529 0.706889,-0.708353 -1.984558,-1.983826 c 0.706598,-0.862539 1.131315,-1.963746 1.131315,-3.161974 0,-2.7549995 -2.245178,-5.0001772 -5.0001777,-5.0001772 z m 0,1.0398438 A 3.954,3.954 0 0 1 12.960103,10.000111 3.954,3.954 0 0 1 8.9997693,13.959714 3.952,3.952 0 0 1 5.0408989,10.000111 3.952,3.952 0 0 1 8.9997693,6.0397776 Z M 6.6946969,12.000036 a 2.932,2.932 0 0 0 2.3050724,1.104971 c 0.946,0 1.7660727,-0.431971 2.3050727,-1.104971 H 6.9588655 Z" />
    <path
       id="path2"
       style="font-variant-ligatures:normal;font-variant-position:normal;font-variant-caps:normal;font-variant-numeric:normal;font-variant-alternates:normal;font-feature-settings:normal;text-indent:0;text-decoration-line:none;text-decoration-style:solid;text-decoration-color:#000000;text-transform:none;text-orientation:mixed;white-space:normal;shape-padding:0;isolation:auto;mix-blend-mode:normal;fill:url(#linearGradient3);fill-opacity:1"
       d="m 3.9937374,1.9996808 c -1.258,0.015 -2.1787349,-0.029358 -2.9307349,0.3856423 A 1.88,1.88 0 0 0 0.225127,3.3827243 c -0.165,0.437 -0.22538485711,0.9602095 -0.22538485711,1.6172095 v 7.0001022 c 0,0.658 0.0603848571,1.17921 0.22538485711,1.61721 0.164,0.439 0.46087552,0.789401 0.8378755,0.997401 0.752,0.416 1.6727349,0.370642 2.9307349,0.385642 H 5.4960592 A 6.04,6.04 0 0 1 3.3000204,12.000036 h -2.29995 V 4.9999338 c 0,-0.592 0.063257,-1.0059604 0.1602574,-1.2659604 0.098,-0.26 0.2019105,-0.370991 0.3849105,-0.471991 0.365,-0.202 1.195085,-0.2469733 2.455085,-0.2619733 h 7.9996987 c 1.259,0.015 2.08689,0.059973 2.45289,0.2619733 0.184,0.1 0.290106,0.211991 0.387106,0.471991 0.097,0.26 0.160257,0.6739604 0.160257,1.2659604 V 12.000036 H 14.63 c -0.148,0.389 -0.325655,0.764607 -0.535655,1.119607 l 1.212541,1.212541 c 0.2,-0.194 0.363333,-0.433938 0.468333,-0.714938 0.165,-0.438 0.224653,-0.96021 0.224653,-1.61721 V 4.9999338 c 0,-0.658 -0.05965,-1.1792095 -0.224653,-1.6172095 A 1.88,1.88 0 0 0 14.938075,2.3853231 c -0.753,-0.416 -1.674199,-0.3706423 -2.932199,-0.3856423 H 3.998128 Z m 5.0060319,3.000253 c -2.755,0 -4.999446,2.2451777 -4.999446,5.0001772 0,2.755 2.244446,5.000178 4.999446,5.000178 1.1976677,0 2.2988827,-0.42531 3.1612417,-1.131315 l 1.98529,1.98529 0.706889,-0.708353 -1.984558,-1.983826 c 0.706598,-0.862539 1.131315,-1.963746 1.131315,-3.161974 0,-2.7549995 -2.245178,-5.0001772 -5.0001777,-5.0001772 z m 0,1.0398438 A 3.954,3.954 0 0 1 12.960103,10.000111 3.954,3.954 0 0 1 8.9997693,13.959714 3.952,3.952 0 0 1 5.0408989,10.000111 3.952,3.952 0 0 1 8.9997693,6.0397776 Z M 6.6946969,12.000036 a 2.932,2.932 0 0 0 2.3050724,1.104971 c 0.946,0 1.7660727,-0.431971 2.3050727,-1.104971 H 6.9588655 Z" />
  </g>
</svg>
