<?xml version="1.0" encoding="UTF-8" standalone="no"?>
<svg
   width="59.50116"
   height="48.778084"
   version="1.1"
   viewBox="0 0 15.742705 12.905614"
   id="svg16"
   xmlns:xlink="http://www.w3.org/1999/xlink"
   xmlns="http://www.w3.org/2000/svg"
   xmlns:svg="http://www.w3.org/2000/svg"
   xmlns:rdf="http://www.w3.org/1999/02/22-rdf-syntax-ns#"
   xmlns:cc="http://creativecommons.org/ns#"
   xmlns:dc="http://purl.org/dc/elements/1.1/">
  <defs
     id="defs5">
    <linearGradient
       id="linearGradient17">
      <stop
         style="stop-color:#ff3dfb;stop-opacity:0;"
         offset="0"
         id="stop18" />
      <stop
         style="stop-color:#ff3dfb;stop-opacity:1;"
         offset="1"
         id="stop17" />
    </linearGradient>
    <linearGradient
       xlink:href="#linearGradient17"
       id="linearGradient18"
       x1="8.4358244"
       y1="16.933001"
       x2="8.4358244"
       y2="7.4542012"
       gradientUnits="userSpaceOnUse" />
    <filter
       style="color-interpolation-filters:sRGB"
       id="filter18"
       x="-0.024448119"
       y="-0.030146694"
       width="1.0488962"
       height="1.0602934">
      <feGaussianBlur
         stdDeviation="0.1528907"
         id="feGaussianBlur18" />
    </filter>
  </defs>
  <metadata
     id="metadata5">
    <rdf:RDF>
      <cc:Work
         rdf:about="">
        <dc:format>image/svg+xml</dc:format>
        <dc:type
           rdf:resource="http://purl.org/dc/dcmitype/StillImage" />
      </cc:Work>
    </rdf:RDF>
  </metadata>
  <g
     fill="none"
     stroke="#c96ef7"
     stroke-width="0.26633"
     id="g13"
     transform="translate(-0.59586564,-2.0141807)">
    <path
       id="path9"
       style="display:inline;opacity:0.6;fill:#ff3dfb;fill-opacity:1;stroke:none;filter:url(#filter18)"
       d="M 3.644667,2.3822366 C 3.4121815,2.3669533 3.1880604,2.5094647 3.1268794,2.7403473 L 2.83543,3.8281147 H 2.3357288 c -0.2742042,0 -0.5095196,0.217403 -0.5095196,0.4903997 V 7.5947357 L 0.97873236,10.757788 c -0.0700546,0.261744 0.0980678,0.529784 0.36482844,0.601502 l 0.4826484,0.129188 v 1.128591 c 0,0.270999 0.2335358,0.488333 0.5095196,0.488333 h 5.5215181 l 5.3339361,1.429859 c 0.264846,0.07062 0.544456,-0.07708 0.615454,-0.340024 l 0.292483,-1.091902 h 0.500735 c 0.273904,0 0.507453,-0.213259 0.507453,-0.486266 V 9.3418815 L 15.955301,6.1777959 C 16.026833,5.9155036 15.85585,5.6460567 15.589956,5.574227 L 15.109375,5.4455552 V 4.3185144 c 0,-0.2705589 -0.23261,-0.4903997 -0.50952,-0.4903997 H 9.0773034 L 3.7438838,2.398256 C 3.7107659,2.3894247 3.6778792,2.38442 3.644667,2.3822366 Z M 3.578522,2.6488818 c 0.031115,-0.00368 0.064065,-0.00159 0.09715,0.00723 l 5.351506,1.4350263 v 5.168e-4 l 2.294905,0.6144251 4.199145,1.1260073 c 0.133286,0.036006 0.206841,0.1631222 0.176213,0.27543 v 0.00207 l -0.850578,3.1754543 h -0.001 l -1.021623,3.8182964 -0.273363,1.021623 c -0.03116,0.115414 -0.158499,0.187757 -0.290933,0.152442 L 7.9084055,12.843924 7.2609126,12.670295 1.8262092,11.213048 v 0.0016 L 1.4122891,11.103496 C 1.2779697,11.067384 1.2043203,10.938855 1.2345257,10.825999 L 2.9899395,4.2802746 3.1113767,3.8281147 3.3847397,2.8085588 C 3.4074984,2.7226731 3.4851765,2.6599266 3.578522,2.6488818 Z M 2.3357288,4.0957934 H 2.7636012 L 2.238579,6.0553251 2.0938878,6.59585 V 4.3185144 c 0,-0.1186033 0.1055052,-0.222721 0.241841,-0.222721 z m 7.7399432,0 h 4.524183 c 0.139311,0 0.243908,0.1054599 0.243908,0.222721 v 1.0557288 z m -4.1226642,0.931191 c -0.073289,0 -0.1322891,0.059 -0.1322891,0.132289 V 6.349875 H 4.6218491 c -0.073289,0 -0.132289,0.059 -0.132289,0.1322891 0,0.073289 0.059,0.132289 0.132289,0.132289 h 1.1988696 v 3.7061609 c -0.066119,0.0075 -0.1173031,0.06256 -0.1173031,0.130739 0,0.07329 0.059,0.132289 0.132289,0.132289 h 5.2760594 v 1.190085 c 0,0.07329 0.059,0.132289 0.13229,0.132289 0.07329,0 0.132289,-0.059 0.132289,-0.132289 v -1.190085 h 0.92654 c 0.07329,0 0.132289,-0.059 0.132289,-0.132289 0,-0.07329 -0.059,-0.132289 -0.132289,-0.132289 h -0.92654 V 6.5286719 c 0.0054,-0.014483 0.0088,-0.030087 0.0088,-0.046508 0,-0.073289 -0.059,-0.1322891 -0.132289,-0.1322891 H 6.0852969 V 5.1592734 c 0,-0.073289 -0.059,-0.132289 -0.1322891,-0.132289 z M 6.0852969,6.6144531 H 11.111764 V 10.319064 H 6.0852969 Z m 8.7563991,3.7185629 v 2.284053 c 0,0.118612 -0.105224,0.220654 -0.241841,0.220654 h -0.429423 z m -12.7478082,1.227291 4.76499,1.277416 h -4.523149 c -0.1383362,0 -0.241841,-0.103814 -0.241841,-0.220654 z" />
    <path
       id="path17"
       style="fill:url(#linearGradient18);fill-opacity:1;stroke:none"
       d="M 3.644667,2.3822366 C 3.4121815,2.3669533 3.1880604,2.5094647 3.1268794,2.7403473 L 2.83543,3.8281147 H 2.3357288 c -0.2742042,0 -0.5095196,0.217403 -0.5095196,0.4903997 V 7.5947357 L 0.97873236,10.757788 c -0.0700546,0.261744 0.0980678,0.529784 0.36482844,0.601502 l 0.4826484,0.129188 v 1.128591 c 0,0.270999 0.2335358,0.488333 0.5095196,0.488333 h 5.5215181 l 5.3339361,1.429859 c 0.264846,0.07062 0.544456,-0.07708 0.615454,-0.340024 l 0.292483,-1.091902 h 0.500735 c 0.273904,0 0.507453,-0.213259 0.507453,-0.486266 V 9.3418815 L 15.955301,6.1777959 C 16.026833,5.9155036 15.85585,5.6460567 15.589956,5.574227 L 15.109375,5.4455552 V 4.3185144 c 0,-0.2705589 -0.23261,-0.4903997 -0.50952,-0.4903997 H 9.0773034 L 3.7438838,2.398256 C 3.7107659,2.3894247 3.6778792,2.38442 3.644667,2.3822366 Z M 3.578522,2.6488818 c 0.031115,-0.00368 0.064065,-0.00159 0.09715,0.00723 l 5.351506,1.4350263 v 5.168e-4 l 2.294905,0.6144251 4.199145,1.1260073 c 0.133286,0.036006 0.206841,0.1631222 0.176213,0.27543 v 0.00207 l -0.850578,3.1754543 h -0.001 l -1.021623,3.8182964 -0.273363,1.021623 c -0.03116,0.115414 -0.158499,0.187757 -0.290933,0.152442 L 7.9084055,12.843924 7.2609126,12.670295 1.8262092,11.213048 v 0.0016 L 1.4122891,11.103496 C 1.2779697,11.067384 1.2043203,10.938855 1.2345257,10.825999 L 2.9899395,4.2802746 3.1113767,3.8281147 3.3847397,2.8085588 C 3.4074984,2.7226731 3.4851765,2.6599266 3.578522,2.6488818 Z M 2.3357288,4.0957934 H 2.7636012 L 2.238579,6.0553251 2.0938878,6.59585 V 4.3185144 c 0,-0.1186033 0.1055052,-0.222721 0.241841,-0.222721 z m 7.7399432,0 h 4.524183 c 0.139311,0 0.243908,0.1054599 0.243908,0.222721 v 1.0557288 z m -4.1226642,0.931191 c -0.073289,0 -0.1322891,0.059 -0.1322891,0.132289 V 6.349875 H 4.6218491 c -0.073289,0 -0.132289,0.059 -0.132289,0.1322891 0,0.073289 0.059,0.132289 0.132289,0.132289 h 1.1988696 v 3.7061609 c -0.066119,0.0075 -0.1173031,0.06256 -0.1173031,0.130739 0,0.07329 0.059,0.132289 0.132289,0.132289 h 5.2760594 v 1.190085 c 0,0.07329 0.059,0.132289 0.13229,0.132289 0.07329,0 0.132289,-0.059 0.132289,-0.132289 v -1.190085 h 0.92654 c 0.07329,0 0.132289,-0.059 0.132289,-0.132289 0,-0.07329 -0.059,-0.132289 -0.132289,-0.132289 h -0.92654 V 6.5286719 c 0.0054,-0.014483 0.0088,-0.030087 0.0088,-0.046508 0,-0.073289 -0.059,-0.1322891 -0.132289,-0.1322891 H 6.0852969 V 5.1592734 c 0,-0.073289 -0.059,-0.132289 -0.1322891,-0.132289 z M 6.0852969,6.6144531 H 11.111764 V 10.319064 H 6.0852969 Z m 8.7563991,3.7185629 v 2.284053 c 0,0.118612 -0.105224,0.220654 -0.241841,0.220654 h -0.429423 z m -12.7478082,1.227291 4.76499,1.277416 h -4.523149 c -0.1383362,0 -0.241841,-0.103814 -0.241841,-0.220654 z" />
  </g>
</svg>
