<?xml version="1.0" encoding="UTF-8" standalone="no"?>
<svg
   width="48.325912"
   height="42.318096"
   version="1.1"
   viewBox="0 0 12.785979 11.196443"
   id="svg99"
   xmlns:xlink="http://www.w3.org/1999/xlink"
   xmlns="http://www.w3.org/2000/svg"
   xmlns:svg="http://www.w3.org/2000/svg"
   xmlns:rdf="http://www.w3.org/1999/02/22-rdf-syntax-ns#"
   xmlns:cc="http://creativecommons.org/ns#"
   xmlns:dc="http://purl.org/dc/elements/1.1/">
  <defs
     id="defs57">
    <linearGradient
       id="linearGradient2">
      <stop
         style="stop-color:#ff3dfb;stop-opacity:0;"
         offset="0"
         id="stop6" />
      <stop
         style="stop-color:#ff3dfb;stop-opacity:1;"
         offset="1"
         id="stop3" />
    </linearGradient>
    <style
       type="text/css"
       id="style937" />
    <style
       type="text/css"
       id="style913" />
    <linearGradient
       xlink:href="#linearGradient2"
       id="linearGradient6"
       x1="24.351671"
       y1="17"
       x2="24.351671"
       y2="6.5205293"
       gradientUnits="userSpaceOnUse" />
    <filter
       style="color-interpolation-filters:sRGB"
       id="filter6"
       x="-0.025236985"
       y="-0.029027835"
       width="1.050474"
       height="1.0580557">
      <feGaussianBlur
         stdDeviation="0.12798967"
         id="feGaussianBlur6" />
    </filter>
  </defs>
  <metadata
     id="metadata59">
    <rdf:RDF>
      <cc:Work
         rdf:about="">
        <dc:format>image/svg+xml</dc:format>
        <dc:type
           rdf:resource="http://purl.org/dc/dcmitype/StillImage" />
        <dc:title />
      </cc:Work>
    </rdf:RDF>
  </metadata>
  <g
     id="g1170"
     transform="translate(-17.948494,-3.6614967)">
    <path
       id="path1"
       style="color:#000000;font-style:normal;font-variant:normal;font-weight:normal;font-stretch:normal;font-size:medium;line-height:normal;font-family:sans-serif;font-variant-ligatures:normal;font-variant-position:normal;font-variant-caps:normal;font-variant-numeric:normal;font-variant-alternates:normal;font-variant-east-asian:normal;font-feature-settings:normal;font-variation-settings:normal;text-indent:0;text-align:start;text-decoration:none;text-decoration-line:none;text-decoration-style:solid;text-decoration-color:#000000;letter-spacing:normal;word-spacing:normal;text-transform:none;writing-mode:lr-tb;direction:ltr;text-orientation:mixed;dominant-baseline:auto;baseline-shift:baseline;text-anchor:start;white-space:normal;shape-padding:0;shape-margin:0;inline-size:0;clip-rule:nonzero;display:inline;overflow:visible;visibility:visible;opacity:0.6;isolation:auto;mix-blend-mode:normal;color-interpolation:sRGB;color-interpolation-filters:linearRGB;solid-color:#000000;solid-opacity:1;vector-effect:none;fill:#ff3dfb;fill-opacity:1;fill-rule:nonzero;stroke:none;stroke-linecap:butt;stroke-linejoin:miter;stroke-miterlimit:4;stroke-dasharray:none;stroke-dashoffset:0;stroke-opacity:1;filter:url(#filter6);color-rendering:auto;image-rendering:auto;shape-rendering:auto;text-rendering:auto;enable-background:accumulate;stop-color:#000000"
       d="m 21.959763,3.9686719 c -0.587851,0 -0.909615,0.3297603 -1.150295,0.6211385 -0.12034,0.1456891 -0.227065,0.2812489 -0.341574,0.3751635 -0.114509,0.093915 -0.230786,0.1503754 -0.402552,0.1503754 h -0.594784 c -0.673565,0 -1.215039,0.5761411 -1.214889,1.2768995 V 13.27128 c -2e-4,0.700753 0.541327,1.279697 1.214889,1.279483 h 9.74185 c 0.673565,1.61e-4 1.214889,-0.578724 1.214889,-1.279483 V 6.3922488 c 0,-0.7007908 -0.541297,-1.2768994 -1.214889,-1.2768995 V 5.378894 c 0.522135,0 0.949277,0.4475476 0.949277,1.0133548 V 13.27128 c 0,0.565756 -0.427192,1.016064 -0.949277,1.015939 h -9.74185 C 18.948512,14.287385 18.52112,13.836997 18.521281,13.27128 V 6.3922488 C 18.52116,5.8264934 18.948473,5.378894 19.470558,5.378894 h 0.594784 c 0.23405,0 0.422913,-0.088244 0.570497,-0.2092855 0.147583,-0.1210409 0.260315,-0.2709348 0.376714,-0.411853 0.232799,-0.2818364 0.452776,-0.525539 0.94721,-0.525539 h 0.793734 c 0.494568,0 0.712869,0.2437112 0.945661,0.525539 0.116395,0.1409138 0.229163,0.2908118 0.376713,0.411853 0.147549,0.1210411 0.3365,0.2092855 0.570497,0.2092855 h 4.564489 V 5.1153493 h -4.564489 c -0.171695,0 -0.28807,-0.056461 -0.402552,-0.1503754 C 24.129335,4.8710599 24.024652,4.7355039 23.904309,4.5898104 23.663621,4.2984235 23.34146,3.9686719 22.753497,3.9686719 Z m 6.350392,2.6468147 c -0.436801,0 -0.794768,0.3559005 -0.794768,0.7927009 0,0.4368005 0.357967,0.7932176 0.794768,0.7932176 0.4368,0 0.793217,-0.3564171 0.793217,-0.7932176 0,-0.4368004 -0.356417,-0.7927009 -0.793217,-0.7927009 z m 0,0.2635446 c 0.293812,0 0.529156,0.2353444 0.529156,0.5291563 0,0.2938119 -0.235344,0.5291563 -0.529156,0.5291562 -0.293812,0 -0.529156,-0.2353443 -0.529156,-0.5291562 0,-0.2938119 0.235344,-0.5291563 0.529156,-0.5291563 z m -3.968672,0.5291563 c -1.459658,0 -2.646298,1.1866399 -2.646298,2.6462985 0,1.459657 1.18664,2.644747 2.646298,2.644747 1.459657,0 2.644748,-1.18509 2.644748,-2.644747 0,-1.4596586 -1.185091,-2.6462985 -2.644748,-2.6462985 z m 0,0.2635446 c 1.316669,0 2.380686,1.0660838 2.380686,2.3827539 0,1.316669 -1.064017,2.381203 -2.380686,2.381203 -1.316669,0 -2.380686,-1.064534 -2.380686,-2.381203 0,-1.3166701 1.064017,-2.3827539 2.380686,-2.3827539 z m 0,1.0588293 c -0.729046,0 -1.322374,0.5948782 -1.322374,1.3239246 0,0.729045 0.593328,1.322373 1.322374,1.322373 0.729045,0 1.322374,-0.593328 1.322374,-1.322373 0,-0.7290464 -0.593329,-1.3239246 -1.322374,-1.3239246 z m 3.968155,5.167e-4 A 0.26457813,0.26457813 0 0 0 28.04506,8.9956562 0.26457813,0.26457813 0 0 0 28.309638,9.2602344 0.26457813,0.26457813 0 0 0 28.574216,8.9956562 0.26457813,0.26457813 0 0 0 28.309638,8.7310781 Z M 24.341483,8.996173 c 0.586057,0 1.058829,0.4722552 1.058829,1.058313 0,0.586056 -0.472772,1.056762 -1.058829,1.056762 -0.586057,0 -1.058829,-0.470706 -1.058829,-1.056762 0,-0.5860578 0.472772,-1.0583131 1.058829,-1.058313 z" />
    <path
       id="path2"
       style="color:#000000;font-style:normal;font-variant:normal;font-weight:normal;font-stretch:normal;font-size:medium;line-height:normal;font-family:sans-serif;font-variant-ligatures:normal;font-variant-position:normal;font-variant-caps:normal;font-variant-numeric:normal;font-variant-alternates:normal;font-variant-east-asian:normal;font-feature-settings:normal;font-variation-settings:normal;text-indent:0;text-align:start;text-decoration:none;text-decoration-line:none;text-decoration-style:solid;text-decoration-color:#000000;letter-spacing:normal;word-spacing:normal;text-transform:none;writing-mode:lr-tb;direction:ltr;text-orientation:mixed;dominant-baseline:auto;baseline-shift:baseline;text-anchor:start;white-space:normal;shape-padding:0;shape-margin:0;inline-size:0;clip-rule:nonzero;display:inline;overflow:visible;visibility:visible;isolation:auto;mix-blend-mode:normal;color-interpolation:sRGB;color-interpolation-filters:linearRGB;solid-color:#000000;solid-opacity:1;vector-effect:none;fill:url(#linearGradient6);fill-opacity:1;fill-rule:nonzero;stroke:none;stroke-linecap:butt;stroke-linejoin:miter;stroke-miterlimit:4;stroke-dasharray:none;stroke-dashoffset:0;stroke-opacity:1;color-rendering:auto;image-rendering:auto;shape-rendering:auto;text-rendering:auto;enable-background:accumulate;stop-color:#000000"
       d="m 21.959763,3.9686719 c -0.587851,0 -0.909615,0.3297603 -1.150295,0.6211385 -0.12034,0.1456891 -0.227065,0.2812489 -0.341574,0.3751635 -0.114509,0.093915 -0.230786,0.1503754 -0.402552,0.1503754 h -0.594784 c -0.673565,0 -1.215039,0.5761411 -1.214889,1.2768995 V 13.27128 c -2e-4,0.700753 0.541327,1.279697 1.214889,1.279483 h 9.74185 c 0.673565,1.61e-4 1.214889,-0.578724 1.214889,-1.279483 V 6.3922488 c 0,-0.7007908 -0.541297,-1.2768994 -1.214889,-1.2768995 V 5.378894 c 0.522135,0 0.949277,0.4475476 0.949277,1.0133548 V 13.27128 c 0,0.565756 -0.427192,1.016064 -0.949277,1.015939 h -9.74185 C 18.948512,14.287385 18.52112,13.836997 18.521281,13.27128 V 6.3922488 C 18.52116,5.8264934 18.948473,5.378894 19.470558,5.378894 h 0.594784 c 0.23405,0 0.422913,-0.088244 0.570497,-0.2092855 0.147583,-0.1210409 0.260315,-0.2709348 0.376714,-0.411853 0.232799,-0.2818364 0.452776,-0.525539 0.94721,-0.525539 h 0.793734 c 0.494568,0 0.712869,0.2437112 0.945661,0.525539 0.116395,0.1409138 0.229163,0.2908118 0.376713,0.411853 0.147549,0.1210411 0.3365,0.2092855 0.570497,0.2092855 h 4.564489 V 5.1153493 h -4.564489 c -0.171695,0 -0.28807,-0.056461 -0.402552,-0.1503754 C 24.129335,4.8710599 24.024652,4.7355039 23.904309,4.5898104 23.663621,4.2984235 23.34146,3.9686719 22.753497,3.9686719 Z m 6.350392,2.6468147 c -0.436801,0 -0.794768,0.3559005 -0.794768,0.7927009 0,0.4368005 0.357967,0.7932176 0.794768,0.7932176 0.4368,0 0.793217,-0.3564171 0.793217,-0.7932176 0,-0.4368004 -0.356417,-0.7927009 -0.793217,-0.7927009 z m 0,0.2635446 c 0.293812,0 0.529156,0.2353444 0.529156,0.5291563 0,0.2938119 -0.235344,0.5291563 -0.529156,0.5291562 -0.293812,0 -0.529156,-0.2353443 -0.529156,-0.5291562 0,-0.2938119 0.235344,-0.5291563 0.529156,-0.5291563 z m -3.968672,0.5291563 c -1.459658,0 -2.646298,1.1866399 -2.646298,2.6462985 0,1.459657 1.18664,2.644747 2.646298,2.644747 1.459657,0 2.644748,-1.18509 2.644748,-2.644747 0,-1.4596586 -1.185091,-2.6462985 -2.644748,-2.6462985 z m 0,0.2635446 c 1.316669,0 2.380686,1.0660838 2.380686,2.3827539 0,1.316669 -1.064017,2.381203 -2.380686,2.381203 -1.316669,0 -2.380686,-1.064534 -2.380686,-2.381203 0,-1.3166701 1.064017,-2.3827539 2.380686,-2.3827539 z m 0,1.0588293 c -0.729046,0 -1.322374,0.5948782 -1.322374,1.3239246 0,0.729045 0.593328,1.322373 1.322374,1.322373 0.729045,0 1.322374,-0.593328 1.322374,-1.322373 0,-0.7290464 -0.593329,-1.3239246 -1.322374,-1.3239246 z m 3.968155,5.167e-4 A 0.26457813,0.26457813 0 0 0 28.04506,8.9956562 0.26457813,0.26457813 0 0 0 28.309638,9.2602344 0.26457813,0.26457813 0 0 0 28.574216,8.9956562 0.26457813,0.26457813 0 0 0 28.309638,8.7310781 Z M 24.341483,8.996173 c 0.586057,0 1.058829,0.4722552 1.058829,1.058313 0,0.586056 -0.472772,1.056762 -1.058829,1.056762 -0.586057,0 -1.058829,-0.470706 -1.058829,-1.056762 0,-0.5860578 0.472772,-1.0583131 1.058829,-1.058313 z" />
  </g>
</svg>
