<?xml version="1.0" encoding="UTF-8" standalone="no"?>
<svg
   width="48.484001"
   height="48.484001"
   version="1.1"
   viewBox="0 0 12.827806 12.827806"
   id="svg12"
   xmlns:xlink="http://www.w3.org/1999/xlink"
   xmlns="http://www.w3.org/2000/svg"
   xmlns:svg="http://www.w3.org/2000/svg"
   xmlns:rdf="http://www.w3.org/1999/02/22-rdf-syntax-ns#"
   xmlns:cc="http://creativecommons.org/ns#"
   xmlns:dc="http://purl.org/dc/elements/1.1/">
  <metadata
     id="metadata1">
    <rdf:RDF>
      <cc:Work
         rdf:about="">
        <dc:format>image/svg+xml</dc:format>
        <dc:type
           rdf:resource="http://purl.org/dc/dcmitype/StillImage" />
      </cc:Work>
    </rdf:RDF>
  </metadata>
  <defs
     id="defs5">
    <linearGradient
       id="linearGradient12">
      <stop
         style="stop-color:#ff3dfb;stop-opacity:0;"
         offset="0"
         id="stop13" />
      <stop
         style="stop-color:#ff3dfb;stop-opacity:1;"
         offset="1"
         id="stop12" />
    </linearGradient>
    <linearGradient
       xlink:href="#linearGradient12"
       id="linearGradient13"
       x1="8.3437967"
       y1="16.933001"
       x2="8.3437967"
       y2="7.1894336"
       gradientUnits="userSpaceOnUse" />
    <filter
       style="color-interpolation-filters:sRGB"
       id="filter13"
       x="-0.027000001"
       y="-0.027000001"
       width="1.054"
       height="1.054">
      <feGaussianBlur
         stdDeviation="0.13691918"
         id="feGaussianBlur13" />
    </filter>
  </defs>
  <g
     id="g13"
     transform="translate(-2.0525971,-2.0525971)">
    <path
       id="path11"
       d="m 3.7040937,2.3812031 c -0.73288,0 -1.3228906,0.5900006 -1.3228906,1.3228906 v 9.5248123 c 0,0.73288 0.5900006,1.322891 1.3228906,1.322891 h 9.5248123 c 0.73288,0 1.322891,-0.590001 1.322891,-1.322891 V 3.7040937 c 0,-0.73288 -0.590001,-1.3228906 -1.322891,-1.3228906 z m 0,0.2645781 h 9.5248123 c 0.5863,0 1.058313,0.4720225 1.058313,1.0583125 v 9.5248123 c 0,0.5863 -0.472023,1.058313 -1.058313,1.058313 H 3.7040937 c -0.5863,0 -1.0583125,-0.472023 -1.0583125,-1.058313 V 3.7040937 c 0,-0.58631 0.4720226,-1.0583125 1.0583125,-1.0583125 z m 4.0942432,1.4836012 c -0.075993,0.00385 -0.1514696,0.065144 -0.2315059,0.2015341 -0.14636,0.24823 -0.2141325,0.9431662 -0.093532,1.6117562 0.04074,0.22849 0.128095,0.5609297 0.245975,0.9234397 -0.09329,0.33957 -0.1977828,0.6993922 -0.3116028,1.0567622 -0.44963,1.4121 -1.4156092,2.8918744 -1.9249092,3.6880744 -0.32199,0.50115 -1.0960633,1.089875 -1.1616633,0.975115 -0.0644,-0.11475 0.1536487,-0.371756 0.4252887,-0.783916 0.27047,-0.40983 0.9632297,-0.835075 0.9632297,-0.835075 0,0 -0.295595,-0.01165 -1.053145,0.655761 -0.75757,0.67091 -0.5286322,1.002504 -0.3482922,1.104304 0.17914,0.1042 0.6824649,0.502239 2.3920549,-2.465951 0.62423,-1.0842998 0.9864694,-2.0704388 1.1973194,-2.8881388 0.21593,0.55939 0.4950762,1.1245007 0.8045862,1.4805007 0.18044,0.20868 0.4173952,0.4074135 0.6805652,0.5916835 -0.20722,0.037751 -0.4453667,0.084013 -0.7678967,0.1431409 -1.1811,0.2142 -1.7687683,0.6784537 -1.7817683,0.6888337 0.0095,-0.0031 1.3825311,-0.4371153 2.8416311,-0.6392253 0.5738903,0.34916 1.2335683,0.6176363 1.7786683,0.7265563 0.8505,0.17207 1.082071,-0.139571 1.109471,-0.181381 -0.03315,0.02744 -0.14377,0.07845 -0.49505,0.04857 -0.28224,-0.02328 -1.053611,-0.2411716 -1.835511,-0.6604116 1.619,-0.1496 2.17851,0.014523 2.32281,0.1297053 0.14402,0.11592 0.143657,0.2439079 0.143657,0.2439079 0,0 0.185341,-0.1791944 0.06356,-0.3606944 -0.10304,-0.1885 -0.260994,-0.3451917 -1.559564,-0.3054017 -0.64384,0.019108 -0.990934,0.041172 -1.3223741,0.085265 C 9.4869694,9.119382 9.1082448,8.8277813 8.8096248,8.4742513 8.4092548,8.0003313 8.1646485,7.4545878 8.0050385,6.9177878 c 0.23916,-1.1517 0.1646011,-1.8642835 0.1638111,-1.8716835 0,0 -0.1214022,0.5516033 -0.3085022,1.2794833 -0.10735,-0.55013 -0.1445597,-1.0570567 -0.1751797,-1.4174567 -0.06557,-0.82665 0.3043971,-0.5973399 0.3570771,-0.4919499 0.0843,0.067912 0.1255713,0.2940331 0.1255713,0.2940331 0,0 -0.0292,-0.3374484 -0.1767299,-0.4826484 -0.05489,-0.054006 -0.1074771,-0.088275 -0.1596771,-0.096633 l -5.167e-4,5.167e-4 c -0.010877,-0.00174 -0.021699,-0.00262 -0.032555,-0.00207 z m -0.9658135,6.1483406 -0.00362,10e-4 -0.00103,0.0026 c 0,0 0.00455,-0.0035 0.00465,-0.0036 z"
       style="display:inline;opacity:0.6;fill:#ff3dfb;fill-opacity:1;filter:url(#filter13)" />
    <path
       id="path12"
       d="m 3.7040937,2.3812031 c -0.73288,0 -1.3228906,0.5900006 -1.3228906,1.3228906 v 9.5248123 c 0,0.73288 0.5900006,1.322891 1.3228906,1.322891 h 9.5248123 c 0.73288,0 1.322891,-0.590001 1.322891,-1.322891 V 3.7040937 c 0,-0.73288 -0.590001,-1.3228906 -1.322891,-1.3228906 z m 0,0.2645781 h 9.5248123 c 0.5863,0 1.058313,0.4720225 1.058313,1.0583125 v 9.5248123 c 0,0.5863 -0.472023,1.058313 -1.058313,1.058313 H 3.7040937 c -0.5863,0 -1.0583125,-0.472023 -1.0583125,-1.058313 V 3.7040937 c 0,-0.58631 0.4720226,-1.0583125 1.0583125,-1.0583125 z m 4.0942432,1.4836012 c -0.075993,0.00385 -0.1514696,0.065144 -0.2315059,0.2015341 -0.14636,0.24823 -0.2141325,0.9431662 -0.093532,1.6117562 0.04074,0.22849 0.128095,0.5609297 0.245975,0.9234397 -0.09329,0.33957 -0.1977828,0.6993922 -0.3116028,1.0567622 -0.44963,1.4121 -1.4156092,2.8918744 -1.9249092,3.6880744 -0.32199,0.50115 -1.0960633,1.089875 -1.1616633,0.975115 -0.0644,-0.11475 0.1536487,-0.371756 0.4252887,-0.783916 0.27047,-0.40983 0.9632297,-0.835075 0.9632297,-0.835075 0,0 -0.295595,-0.01165 -1.053145,0.655761 -0.75757,0.67091 -0.5286322,1.002504 -0.3482922,1.104304 0.17914,0.1042 0.6824649,0.502239 2.3920549,-2.465951 0.62423,-1.0842998 0.9864694,-2.0704388 1.1973194,-2.8881388 0.21593,0.55939 0.4950762,1.1245007 0.8045862,1.4805007 0.18044,0.20868 0.4173952,0.4074135 0.6805652,0.5916835 -0.20722,0.037751 -0.4453667,0.084013 -0.7678967,0.1431409 -1.1811,0.2142 -1.7687683,0.6784537 -1.7817683,0.6888337 0.0095,-0.0031 1.3825311,-0.4371153 2.8416311,-0.6392253 0.5738903,0.34916 1.2335683,0.6176363 1.7786683,0.7265563 0.8505,0.17207 1.082071,-0.139571 1.109471,-0.181381 -0.03315,0.02744 -0.14377,0.07845 -0.49505,0.04857 -0.28224,-0.02328 -1.053611,-0.2411716 -1.835511,-0.6604116 1.619,-0.1496 2.17851,0.014523 2.32281,0.1297053 0.14402,0.11592 0.143657,0.2439079 0.143657,0.2439079 0,0 0.185341,-0.1791944 0.06356,-0.3606944 -0.10304,-0.1885 -0.260994,-0.3451917 -1.559564,-0.3054017 -0.64384,0.019108 -0.990934,0.041172 -1.3223741,0.085265 C 9.4869694,9.119382 9.1082448,8.8277813 8.8096248,8.4742513 8.4092548,8.0003313 8.1646485,7.4545878 8.0050385,6.9177878 c 0.23916,-1.1517 0.1646011,-1.8642835 0.1638111,-1.8716835 0,0 -0.1214022,0.5516033 -0.3085022,1.2794833 -0.10735,-0.55013 -0.1445597,-1.0570567 -0.1751797,-1.4174567 -0.06557,-0.82665 0.3043971,-0.5973399 0.3570771,-0.4919499 0.0843,0.067912 0.1255713,0.2940331 0.1255713,0.2940331 0,0 -0.0292,-0.3374484 -0.1767299,-0.4826484 -0.05489,-0.054006 -0.1074771,-0.088275 -0.1596771,-0.096633 l -5.167e-4,5.167e-4 c -0.010877,-0.00174 -0.021699,-0.00262 -0.032555,-0.00207 z m -0.9658135,6.1483406 -0.00362,10e-4 -0.00103,0.0026 c 0,0 0.00455,-0.0035 0.00465,-0.0036 z"
       style="fill:url(#linearGradient13);fill-opacity:1" />
  </g>
</svg>
