<?xml version="1.0" encoding="UTF-8" standalone="no"?>
<svg
   version="1.1"
   viewBox="0 0 49.538002 49.538002"
   id="svg23"
   width="49.538002"
   height="49.538002"
   xmlns:xlink="http://www.w3.org/1999/xlink"
   xmlns="http://www.w3.org/2000/svg"
   xmlns:svg="http://www.w3.org/2000/svg"
   xmlns:rdf="http://www.w3.org/1999/02/22-rdf-syntax-ns#"
   xmlns:cc="http://creativecommons.org/ns#"
   xmlns:dc="http://purl.org/dc/elements/1.1/">
  <metadata
     id="metadata2">
    <rdf:RDF>
      <cc:Work
         rdf:about="">
        <dc:format>image/svg+xml</dc:format>
        <dc:type
           rdf:resource="http://purl.org/dc/dcmitype/StillImage" />
        <dc:title />
      </cc:Work>
    </rdf:RDF>
  </metadata>
  <defs
     id="defs9">
    <linearGradient
       id="linearGradient2">
      <stop
         style="stop-color:#00abff;stop-opacity:0;"
         offset="0"
         id="stop3" />
      <stop
         style="stop-color:#00abff;stop-opacity:1;"
         offset="1"
         id="stop2" />
    </linearGradient>
    <style
       id="style4"
       type="text/css" />
    <style
       id="style6"
       type="text/css" />
    <style
       id="style8"
       type="text/css" />
    <style
       type="text/css"
       id="style1078" />
    <style
       type="text/css"
       id="style1080" />
    <style
       id="style14"
       type="text/css" />
    <style
       id="style16"
       type="text/css" />
    <linearGradient
       xlink:href="#linearGradient2"
       id="linearGradient3"
       x1="32.648666"
       y1="58.350002"
       x2="32.648666"
       y2="26.378668"
       gradientUnits="userSpaceOnUse" />
    <filter
       style="color-interpolation-filters:sRGB"
       id="filter3"
       x="-0.027"
       y="-0.027"
       width="1.054"
       height="1.054">
      <feGaussianBlur
         stdDeviation="0.52875"
         id="feGaussianBlur3" />
    </filter>
  </defs>
  <g
     id="path10"
     transform="translate(-8.2311876,-7.2311876)">
    <path
       id="path1"
       style="display:inline;opacity:0.6;fill:#00abff;fill-opacity:1;stroke:none;stroke-linecap:round;paint-order:stroke fill markers;filter:url(#filter3)"
       d="M 9.5001876,8.5001876 V 30.500188 H 31.500188 V 8.5001876 Z m 25.0000004,0 V 30.500188 h 22 V 8.5001876 Z m -23,2.0000004 h 18 v 18 h -18 z m 25,0 h 18 v 18 h -18 z m -27.0000004,23 v 22 H 31.500188 v -22 z m 25.0000004,0 v 22 h 22 v -22 z m -23,2 h 18 v 18 h -18 z m 25,0 h 18 v 18 h -18 z" />
    <path
       id="path2"
       style="fill:url(#linearGradient3);fill-opacity:1;stroke:none;stroke-linecap:round;paint-order:stroke fill markers"
       d="M 9.5001876,8.5001876 V 30.500188 H 31.500188 V 8.5001876 Z m 25.0000004,0 V 30.500188 h 22 V 8.5001876 Z m -23,2.0000004 h 18 v 18 h -18 z m 25,0 h 18 v 18 h -18 z m -27.0000004,23 v 22 H 31.500188 v -22 z m 25.0000004,0 v 22 h 22 v -22 z m -23,2 h 18 v 18 h -18 z m 25,0 h 18 v 18 h -18 z" />
  </g>
</svg>
