<?xml version="1.0" encoding="UTF-8" standalone="no"?>
<svg
   width="42.897305"
   height="46.493008"
   version="1.1"
   viewBox="0 0 11.349689 12.301032"
   id="svg71"
   xmlns:xlink="http://www.w3.org/1999/xlink"
   xmlns="http://www.w3.org/2000/svg"
   xmlns:svg="http://www.w3.org/2000/svg"
   xmlns:rdf="http://www.w3.org/1999/02/22-rdf-syntax-ns#"
   xmlns:cc="http://creativecommons.org/ns#"
   xmlns:dc="http://purl.org/dc/elements/1.1/">
  <metadata
     id="metadata2">
    <rdf:RDF>
      <cc:Work
         rdf:about="">
        <dc:format>image/svg+xml</dc:format>
        <dc:type
           rdf:resource="http://purl.org/dc/dcmitype/StillImage" />
        <dc:title />
      </cc:Work>
    </rdf:RDF>
  </metadata>
  <defs
     id="defs31">
    <linearGradient
       id="linearGradient3">
      <stop
         style="stop-color:#00abff;stop-opacity:0;"
         offset="0"
         id="stop4" />
      <stop
         style="stop-color:#00abff;stop-opacity:1;"
         offset="1"
         id="stop3" />
    </linearGradient>
    <style
       type="text/css"
       id="style7" />
    <style
       type="text/css"
       id="style17" />
    <style
       type="text/css"
       id="style19" />
    <style
       type="text/css"
       id="style21" />
    <style
       type="text/css"
       id="style23" />
    <style
       type="text/css"
       id="style25" />
    <style
       type="text/css"
       id="style27" />
    <style
       type="text/css"
       id="style29" />
    <linearGradient
       xlink:href="#linearGradient3"
       id="linearGradient4"
       x1="8.1669197"
       y1="15.053315"
       x2="8.1669197"
       y2="7.5159254"
       gradientUnits="userSpaceOnUse" />
    <filter
       style="color-interpolation-filters:sRGB"
       id="filter4"
       x="-0.028195399"
       y="-0.025901845"
       width="1.0563908"
       height="1.0518037">
      <feGaussianBlur
         stdDeviation="0.12621946"
         id="feGaussianBlur4" />
    </filter>
  </defs>
  <g
     id="g4"
     transform="translate(-0.27428767,-0.43603168)">
    <path
       id="path2"
       style="display:inline;opacity:0.6;fill:#00abff;fill-opacity:1;filter:url(#filter4)"
       d="m 10.390833,2.8047716 -0.203085,0.054776 -7.1720303,1.900105 v 7.7869684 l 7.3730483,1.95333 3.370787,-1.521324 -0.04082,-8.5900039 z m 0.118853,0.6232055 2.699524,1.2908519 0.03514,7.925458 -2.734663,1.23866 z M 9.9980997,3.4414127 V 13.86331 L 3.5293713,12.152337 V 5.1523857 Z M 8.265423,6.0546384 4.8476111,6.5233345 l 0.00413,0.226855 0.013436,4.2244655 3.4002422,0.548793 z M 7.7517694,6.6447717 V 10.921946 L 5.3767674,10.536964 5.3633318,6.9708435 Z"
       transform="translate(-2.4385033,-2.0658132)" />
    <path
       id="path3"
       style="fill:url(#linearGradient4);fill-opacity:1"
       d="m 10.390833,2.8047716 -0.203085,0.054776 -7.1720303,1.900105 v 7.7869684 l 7.3730483,1.95333 3.370787,-1.521324 -0.04082,-8.5900039 z m 0.118853,0.6232055 2.699524,1.2908519 0.03514,7.925458 -2.734663,1.23866 z M 9.9980997,3.4414127 V 13.86331 L 3.5293713,12.152337 V 5.1523857 Z M 8.265423,6.0546384 4.8476111,6.5233345 l 0.00413,0.226855 0.013436,4.2244655 3.4002422,0.548793 z M 7.7517694,6.6447717 V 10.921946 L 5.3767674,10.536964 5.3633318,6.9708435 Z"
       transform="translate(-2.4385033,-2.0658132)" />
  </g>
</svg>
