<?xml version="1.0" encoding="UTF-8" standalone="no"?>
<svg
   width="48.482151"
   height="48.48996"
   version="1.1"
   viewBox="0 0 12.827317 12.829383"
   id="svg12"
   xmlns:xlink="http://www.w3.org/1999/xlink"
   xmlns="http://www.w3.org/2000/svg"
   xmlns:svg="http://www.w3.org/2000/svg"
   xmlns:rdf="http://www.w3.org/1999/02/22-rdf-syntax-ns#"
   xmlns:cc="http://creativecommons.org/ns#"
   xmlns:dc="http://purl.org/dc/elements/1.1/">
  <metadata
     id="metadata18">
    <rdf:RDF>
      <cc:Work
         rdf:about="">
        <dc:format>image/svg+xml</dc:format>
        <dc:type
           rdf:resource="http://purl.org/dc/dcmitype/StillImage" />
        <dc:title />
      </cc:Work>
    </rdf:RDF>
  </metadata>
  <defs
     id="defs16">
    <linearGradient
       id="linearGradient1">
      <stop
         style="stop-color:#ff3dfb;stop-opacity:0;"
         offset="0"
         id="stop2" />
      <stop
         style="stop-color:#ff3dfb;stop-opacity:1;"
         offset="1"
         id="stop1" />
    </linearGradient>
    <linearGradient
       xlink:href="#linearGradient1"
       id="linearGradient2"
       x1="9.000001"
       y1="17"
       x2="9.000001"
       y2="7"
       gradientUnits="userSpaceOnUse" />
    <filter
       style="color-interpolation-filters:sRGB"
       id="filter2"
       x="-0.027002294"
       y="-0.026997709"
       width="1.0540046"
       height="1.0539954">
      <feGaussianBlur
         stdDeviation="0.13692499"
         id="feGaussianBlur2" />
    </filter>
  </defs>
  <g
     id="g2"
     transform="translate(-2.0525841,-2.0520664)">
    <path
       id="circle1051"
       style="display:inline;opacity:0.6;fill:#ff3dfb;fill-opacity:1;stroke-linecap:round;stroke-linejoin:round;paint-order:stroke fill markers;filter:url(#filter2)"
       d="m 3.173905,2.3806864 c -0.437441,0 -0.7927009,0.357844 -0.7927009,0.7952846 v 10.582091 c 0,0.43744 0.3552599,0.794768 0.7927009,0.794768 h 10.584158 c 0.437441,0 0.793218,-0.357329 0.793218,-0.794768 V 3.175971 c 0,-0.4374405 -0.355777,-0.7952846 -0.793218,-0.7952846 z m 0,0.2656116 h 10.584158 c 0.295441,0 0.529157,0.2342322 0.529157,0.529673 v 10.582091 c 0,0.29544 -0.233716,0.529157 -0.529157,0.529157 H 3.173905 c -0.29544,0 -0.5270892,-0.233718 -0.5270892,-0.529157 V 3.175971 c 0,-0.2954407 0.2316492,-0.529673 0.5270892,-0.529673 z m 2.7791038,1.3223739 c -0.6109158,0 -1.1166746,0.4646482 -1.183367,1.0583125 H 4.1009619 c -0.073288,0 -0.132289,0.059001 -0.132289,0.132289 0,0.073288 0.059001,0.1322891 0.132289,0.1322891 h 0.6681632 c 0.065774,0.5943958 0.5722787,1.0577957 1.1838837,1.0577957 0.6116093,0 1.1186321,-0.4633939 1.1844005,-1.0577957 h 5.4300527 c 0.07329,0 0.132289,-0.059001 0.132289,-0.1322891 0,-0.073288 -0.059,-0.132289 -0.132289,-0.132289 H 7.1368926 C 7.0702057,4.4333143 6.5639288,3.9686719 5.9530088,3.9686719 Z m 0,0.2635446 c 0.5129956,0 0.9260234,0.4150949 0.9260234,0.9280904 1e-7,0.5129957 -0.4130278,0.9255067 -0.9260234,0.9255067 -0.5129956,0 -0.9255067,-0.412511 -0.9255067,-0.9255067 0,-0.5129955 0.4125111,-0.9280904 0.9255067,-0.9280904 z m 4.7624062,3.175971 c -0.61092,0 -1.1171969,0.4646425 -1.1838837,1.0583125 H 4.1009619 c -0.07329,0 -0.132289,0.059001 -0.132289,0.1322891 0,0.073288 0.059,0.132289 0.132289,0.132289 h 5.4300526 c 0.065769,0.5944018 0.5727915,1.0577958 1.1844005,1.0577958 0.611605,0 1.11811,-0.4633999 1.183884,-1.0577958 h 0.668163 c 0.07329,0 0.132289,-0.059001 0.132289,-0.132289 0,-0.073288 -0.059,-0.1322891 -0.132289,-0.1322891 h -0.66868 C 11.83209,7.8728357 11.326331,7.4081875 10.715415,7.4081875 Z m 0,0.2635446 c 0.512996,0 0.925507,0.415095 0.925507,0.9280905 0,0.5129957 -0.412511,0.9255067 -0.925507,0.9255067 -0.512996,0 -0.9260235,-0.412511 -0.9260234,-0.9255067 0,-0.5129955 0.4130274,-0.9280905 0.9260234,-0.9280905 z M 5.9530088,10.847703 c -0.6109158,0 -1.1166746,0.464648 -1.183367,1.058313 H 4.1009619 c -0.073288,0 -0.132289,0.059 -0.132289,0.132289 0,0.07329 0.059001,0.132289 0.132289,0.132289 h 0.6681632 c 0.065774,0.594396 0.5722787,1.057795 1.1838837,1.057795 0.6116093,0 1.1186321,-0.463393 1.1844005,-1.057795 h 5.4300527 c 0.07329,0 0.132289,-0.059 0.132289,-0.132289 0,-0.07329 -0.059,-0.132289 -0.132289,-0.132289 H 7.1368926 C 7.0702057,11.312346 6.5639288,10.847703 5.9530088,10.847703 Z m 0,0.263545 c 0.5129956,0 0.9260234,0.415095 0.9260234,0.92809 1e-7,0.512996 -0.4130278,0.925507 -0.9260234,0.925507 -0.5129956,0 -0.9255067,-0.412511 -0.9255067,-0.925507 0,-0.512995 0.4125111,-0.92809 0.9255067,-0.92809 z" />
    <path
       id="path1"
       style="fill:url(#linearGradient2);fill-opacity:1;stroke-linecap:round;stroke-linejoin:round;paint-order:stroke fill markers"
       d="m 3.173905,2.3806864 c -0.437441,0 -0.7927009,0.357844 -0.7927009,0.7952846 v 10.582091 c 0,0.43744 0.3552599,0.794768 0.7927009,0.794768 h 10.584158 c 0.437441,0 0.793218,-0.357329 0.793218,-0.794768 V 3.175971 c 0,-0.4374405 -0.355777,-0.7952846 -0.793218,-0.7952846 z m 0,0.2656116 h 10.584158 c 0.295441,0 0.529157,0.2342322 0.529157,0.529673 v 10.582091 c 0,0.29544 -0.233716,0.529157 -0.529157,0.529157 H 3.173905 c -0.29544,0 -0.5270892,-0.233718 -0.5270892,-0.529157 V 3.175971 c 0,-0.2954407 0.2316492,-0.529673 0.5270892,-0.529673 z m 2.7791038,1.3223739 c -0.6109158,0 -1.1166746,0.4646482 -1.183367,1.0583125 H 4.1009619 c -0.073288,0 -0.132289,0.059001 -0.132289,0.132289 0,0.073288 0.059001,0.1322891 0.132289,0.1322891 h 0.6681632 c 0.065774,0.5943958 0.5722787,1.0577957 1.1838837,1.0577957 0.6116093,0 1.1186321,-0.4633939 1.1844005,-1.0577957 h 5.4300527 c 0.07329,0 0.132289,-0.059001 0.132289,-0.1322891 0,-0.073288 -0.059,-0.132289 -0.132289,-0.132289 H 7.1368926 C 7.0702057,4.4333143 6.5639288,3.9686719 5.9530088,3.9686719 Z m 0,0.2635446 c 0.5129956,0 0.9260234,0.4150949 0.9260234,0.9280904 1e-7,0.5129957 -0.4130278,0.9255067 -0.9260234,0.9255067 -0.5129956,0 -0.9255067,-0.412511 -0.9255067,-0.9255067 0,-0.5129955 0.4125111,-0.9280904 0.9255067,-0.9280904 z m 4.7624062,3.175971 c -0.61092,0 -1.1171969,0.4646425 -1.1838837,1.0583125 H 4.1009619 c -0.07329,0 -0.132289,0.059001 -0.132289,0.1322891 0,0.073288 0.059,0.132289 0.132289,0.132289 h 5.4300526 c 0.065769,0.5944018 0.5727915,1.0577958 1.1844005,1.0577958 0.611605,0 1.11811,-0.4633999 1.183884,-1.0577958 h 0.668163 c 0.07329,0 0.132289,-0.059001 0.132289,-0.132289 0,-0.073288 -0.059,-0.1322891 -0.132289,-0.1322891 h -0.66868 C 11.83209,7.8728357 11.326331,7.4081875 10.715415,7.4081875 Z m 0,0.2635446 c 0.512996,0 0.925507,0.415095 0.925507,0.9280905 0,0.5129957 -0.412511,0.9255067 -0.925507,0.9255067 -0.512996,0 -0.9260235,-0.412511 -0.9260234,-0.9255067 0,-0.5129955 0.4130274,-0.9280905 0.9260234,-0.9280905 z M 5.9530088,10.847703 c -0.6109158,0 -1.1166746,0.464648 -1.183367,1.058313 H 4.1009619 c -0.073288,0 -0.132289,0.059 -0.132289,0.132289 0,0.07329 0.059001,0.132289 0.132289,0.132289 h 0.6681632 c 0.065774,0.594396 0.5722787,1.057795 1.1838837,1.057795 0.6116093,0 1.1186321,-0.463393 1.1844005,-1.057795 h 5.4300527 c 0.07329,0 0.132289,-0.059 0.132289,-0.132289 0,-0.07329 -0.059,-0.132289 -0.132289,-0.132289 H 7.1368926 C 7.0702057,11.312346 6.5639288,10.847703 5.9530088,10.847703 Z m 0,0.263545 c 0.5129956,0 0.9260234,0.415095 0.9260234,0.92809 1e-7,0.512996 -0.4130278,0.925507 -0.9260234,0.925507 -0.5129956,0 -0.9255067,-0.412511 -0.9255067,-0.925507 0,-0.512995 0.4125111,-0.92809 0.9255067,-0.92809 z" />
  </g>
</svg>
