<?xml version="1.0" encoding="UTF-8" standalone="no"?>
<svg
   width="48.245312"
   height="48.47805"
   version="1.1"
   viewBox="0 0 12.764654 12.826232"
   id="svg54"
   xmlns:xlink="http://www.w3.org/1999/xlink"
   xmlns="http://www.w3.org/2000/svg"
   xmlns:svg="http://www.w3.org/2000/svg"
   xmlns:rdf="http://www.w3.org/1999/02/22-rdf-syntax-ns#"
   xmlns:cc="http://creativecommons.org/ns#"
   xmlns:dc="http://purl.org/dc/elements/1.1/">
  <metadata
     id="metadata2">
    <rdf:RDF>
      <cc:Work
         rdf:about="">
        <dc:format>image/svg+xml</dc:format>
        <dc:type
           rdf:resource="http://purl.org/dc/dcmitype/StillImage" />
        <dc:title />
      </cc:Work>
    </rdf:RDF>
  </metadata>
  <defs
     id="defs24">
    <linearGradient
       id="linearGradient1">
      <stop
         style="stop-color:#ff3dfb;stop-opacity:0;"
         offset="0"
         id="stop2" />
      <stop
         style="stop-color:#ff3dfb;stop-opacity:1;"
         offset="1"
         id="stop1" />
    </linearGradient>
    <style
       type="text/css"
       id="style4" />
    <style
       id="style4-6"
       type="text/css" />
    <style
       id="style4-7"
       type="text/css" />
    <style
       id="style14"
       type="text/css" />
    <style
       id="style16"
       type="text/css" />
    <style
       type="text/css"
       id="style899" />
    <linearGradient
       xlink:href="#linearGradient1"
       id="linearGradient2"
       x1="-7.4376078"
       y1="16.889463"
       x2="-7.4376078"
       y2="6.988286"
       gradientUnits="userSpaceOnUse" />
    <filter
       style="color-interpolation-filters:sRGB"
       id="filter2"
       x="-0.02706865"
       y="-0.026931695"
       width="1.0541373"
       height="1.0538634">
      <feGaussianBlur
         stdDeviation="0.13485824"
         id="feGaussianBlur3" />
    </filter>
  </defs>
  <g
     id="g3"
     transform="translate(-2.0839149,-2.0538587)">
    <path
       id="path996"
       style="display:inline;opacity:0.6;fill:#ff3dfb;fill-opacity:1;stroke:none;stroke-width:0.261339;stroke-miterlimit:4;stroke-dasharray:none;stroke-opacity:1;filter:url(#filter2)"
       d="m -8.3277138,2.4548044 c -0.057779,-4.444e-4 -0.1155829,8.908e-4 -0.1724689,0.00408 -0.4550885,0.025531 -0.8783444,0.1635895 -1.2378985,0.3342224 -0.7191078,0.3412656 -1.2011598,0.8184622 -1.2011598,0.8184622 l -3.003919,3.0034091 1.773164,1.7716339 1.062368,-1.062368 1.074615,0.9746027 0.1755302,-0.1933898 -1.2598402,-1.1424793 -1.052673,1.0547141 -1.404244,-1.4027136 2.818184,-2.8181836 c 0,0 0.454536,-0.4472562 1.1292121,-0.7674358 0.5900063,-0.2799981 1.3362643,-0.3781226 2.095651,-0.082152 -0.2277841,0.07238 -0.5061962,0.1293701 -1.025629,0.4725037 -0.699543,0.462113 -1.4330291,1.2277758 -1.5093581,2.3926241 l -0.0041,0.064804 1.2537171,1.0996172 0.1719587,-0.1954309 -1.1424793,-1.0041979 c 0.090964,-1.028593 0.7282684,-1.7111817 1.3751593,-2.1385131 0.6598578,-0.4358973 1.3006609,-0.6016003 1.3006609,-0.6016003 l 0.31024,-0.080111 -0.2770729,-0.1602226 C -7.4988587,2.5537436 -7.9232619,2.4579154 -8.3277138,2.4548044 Z m 5.1521275,0.3245274 c -1.0081386,0 -1.7101153,0.1838 -2.1956625,0.4725037 -0.4855473,0.2887038 -0.7470897,0.6846112 -0.8710193,1.0741041 -0.2311894,0.7265951 -9.051e-4,1.3435999 0.031126,1.4358806 l -4.1754839,4.1754837 c -0.821713,-0.1083127 -1.458017,-0.019132 -1.902261,0.2347211 -0.464792,0.265596 -0.740025,0.676142 -0.896532,1.093494 -0.313014,0.834704 -0.171959,1.719077 -0.171959,1.719077 l 0.03878,0.253601 1.504256,-1.503746 0.173489,-0.171959 0.873061,0.873061 -1.675705,1.673663 0.25207,0.04337 c 0,0 0.821525,0.139678 1.623148,-0.174 0.400811,-0.15684 0.7991286,-0.430757 1.0761445,-0.89245 0.2655476,-0.44258 0.3930256,-1.078411 0.3454482,-1.902771 l 4.1800761,-4.1816073 c 0.084691,0.021851 0.7131432,0.197778 1.4394525,-0.066334 0.3868017,-0.1406552 0.7794145,-0.4085148 1.0679808,-0.8807142 0.2885694,-0.4722006 0.473014,-1.1428211 0.473014,-2.085956 V 3.6523921 L -3.7031984,5.3709586 -4.5782998,4.4978983 -2.8592231,2.7793318 Z M -3.5741019,3.12478 -4.9472201,4.4978983 -3.7031984,5.7403891 -2.3397752,4.3769659 c -0.05564,0.6258307 -0.1406548,1.2083834 -0.3439174,1.5409948 -0.257126,0.4207518 -0.5924832,0.6475951 -0.9332714,0.771518 -0.6815763,0.2478459 -1.3751593,0.064293 -1.3751593,0.064293 l -0.074498,-0.021431 -4.3280524,4.3300933 0.00408,0.06072 c 0.064631,0.840208 -0.080144,1.421819 -0.3240171,1.828273 -0.2438722,0.406454 -0.5897492,0.643973 -0.9496002,0.784784 -0.561536,0.219732 -0.926325,0.145398 -1.158297,0.122974 l 1.424144,-1.423634 -1.242491,-1.244022 -0.357184,0.357184 -1.068491,1.06645 c -0.02261,-0.243628 -0.09859,-0.661528 0.125014,-1.257799 0.141143,-0.376383 0.377859,-0.728297 0.781213,-0.958784 0.403354,-0.230488 0.983312,-0.343952 1.822661,-0.214821 l 0.06429,0.0097 4.3397884,-4.3397885 -0.029085,-0.07807 c 0,0 -0.2467889,-0.6948833 -0.031636,-1.3710772 0.1075763,-0.338097 0.3255327,-0.6711802 0.7577409,-0.9281688 0.3486439,-0.2073402 0.972493,-0.2986824 1.6624374,-0.3515713 z m -2.6834741,6.3068531 -0.1836947,0.1857358 3.6111326,3.6111331 -0.8730603,0.87306 -3.6131737,-3.611133 -0.1836948,0.185226 3.7968685,3.796868 1.2424908,-1.244021 z"
       transform="matrix(1.0127208,0,0,1.0127208,16.53222,-0.10431162)" />
    <path
       id="path1"
       style="fill:url(#linearGradient2);fill-opacity:1;stroke:none;stroke-width:0.261339;stroke-miterlimit:4;stroke-dasharray:none;stroke-opacity:1"
       d="m -8.3277138,2.4548044 c -0.057779,-4.444e-4 -0.1155829,8.908e-4 -0.1724689,0.00408 -0.4550885,0.025531 -0.8783444,0.1635895 -1.2378985,0.3342224 -0.7191078,0.3412656 -1.2011598,0.8184622 -1.2011598,0.8184622 l -3.003919,3.0034091 1.773164,1.7716339 1.062368,-1.062368 1.074615,0.9746027 0.1755302,-0.1933898 -1.2598402,-1.1424793 -1.052673,1.0547141 -1.404244,-1.4027136 2.818184,-2.8181836 c 0,0 0.454536,-0.4472562 1.1292121,-0.7674358 0.5900063,-0.2799981 1.3362643,-0.3781226 2.095651,-0.082152 -0.2277841,0.07238 -0.5061962,0.1293701 -1.025629,0.4725037 -0.699543,0.462113 -1.4330291,1.2277758 -1.5093581,2.3926241 l -0.0041,0.064804 1.2537171,1.0996172 0.1719587,-0.1954309 -1.1424793,-1.0041979 c 0.090964,-1.028593 0.7282684,-1.7111817 1.3751593,-2.1385131 0.6598578,-0.4358973 1.3006609,-0.6016003 1.3006609,-0.6016003 l 0.31024,-0.080111 -0.2770729,-0.1602226 C -7.4988587,2.5537436 -7.9232619,2.4579154 -8.3277138,2.4548044 Z m 5.1521275,0.3245274 c -1.0081386,0 -1.7101153,0.1838 -2.1956625,0.4725037 -0.4855473,0.2887038 -0.7470897,0.6846112 -0.8710193,1.0741041 -0.2311894,0.7265951 -9.051e-4,1.3435999 0.031126,1.4358806 l -4.1754839,4.1754837 c -0.821713,-0.1083127 -1.458017,-0.019132 -1.902261,0.2347211 -0.464792,0.265596 -0.740025,0.676142 -0.896532,1.093494 -0.313014,0.834704 -0.171959,1.719077 -0.171959,1.719077 l 0.03878,0.253601 1.504256,-1.503746 0.173489,-0.171959 0.873061,0.873061 -1.675705,1.673663 0.25207,0.04337 c 0,0 0.821525,0.139678 1.623148,-0.174 0.400811,-0.15684 0.7991286,-0.430757 1.0761445,-0.89245 0.2655476,-0.44258 0.3930256,-1.078411 0.3454482,-1.902771 l 4.1800761,-4.1816073 c 0.084691,0.021851 0.7131432,0.197778 1.4394525,-0.066334 0.3868017,-0.1406552 0.7794145,-0.4085148 1.0679808,-0.8807142 0.2885694,-0.4722006 0.473014,-1.1428211 0.473014,-2.085956 V 3.6523921 L -3.7031984,5.3709586 -4.5782998,4.4978983 -2.8592231,2.7793318 Z M -3.5741019,3.12478 -4.9472201,4.4978983 -3.7031984,5.7403891 -2.3397752,4.3769659 c -0.05564,0.6258307 -0.1406548,1.2083834 -0.3439174,1.5409948 -0.257126,0.4207518 -0.5924832,0.6475951 -0.9332714,0.771518 -0.6815763,0.2478459 -1.3751593,0.064293 -1.3751593,0.064293 l -0.074498,-0.021431 -4.3280524,4.3300933 0.00408,0.06072 c 0.064631,0.840208 -0.080144,1.421819 -0.3240171,1.828273 -0.2438722,0.406454 -0.5897492,0.643973 -0.9496002,0.784784 -0.561536,0.219732 -0.926325,0.145398 -1.158297,0.122974 l 1.424144,-1.423634 -1.242491,-1.244022 -0.357184,0.357184 -1.068491,1.06645 c -0.02261,-0.243628 -0.09859,-0.661528 0.125014,-1.257799 0.141143,-0.376383 0.377859,-0.728297 0.781213,-0.958784 0.403354,-0.230488 0.983312,-0.343952 1.822661,-0.214821 l 0.06429,0.0097 4.3397884,-4.3397885 -0.029085,-0.07807 c 0,0 -0.2467889,-0.6948833 -0.031636,-1.3710772 0.1075763,-0.338097 0.3255327,-0.6711802 0.7577409,-0.9281688 0.3486439,-0.2073402 0.972493,-0.2986824 1.6624374,-0.3515713 z m -2.6834741,6.3068531 -0.1836947,0.1857358 3.6111326,3.6111331 -0.8730603,0.87306 -3.6131737,-3.611133 -0.1836948,0.185226 3.7968685,3.796868 1.2424908,-1.244021 z"
       transform="matrix(1.0127208,0,0,1.0127208,16.53222,-0.10431162)" />
  </g>
</svg>
