<?xml version="1.0" encoding="UTF-8" standalone="no"?>
<svg
   width="45.404716"
   height="45.418388"
   version="1.1"
   viewBox="0 0 12.013095 12.016712"
   id="svg12"
   xmlns:xlink="http://www.w3.org/1999/xlink"
   xmlns="http://www.w3.org/2000/svg"
   xmlns:svg="http://www.w3.org/2000/svg"
   xmlns:rdf="http://www.w3.org/1999/02/22-rdf-syntax-ns#"
   xmlns:cc="http://creativecommons.org/ns#"
   xmlns:dc="http://purl.org/dc/elements/1.1/">
  <metadata
     id="metadata18">
    <rdf:RDF>
      <cc:Work
         rdf:about="">
        <dc:format>image/svg+xml</dc:format>
        <dc:type
           rdf:resource="http://purl.org/dc/dcmitype/StillImage" />
        <dc:title />
      </cc:Work>
    </rdf:RDF>
  </metadata>
  <defs
     id="defs16">
    <linearGradient
       id="linearGradient3">
      <stop
         style="stop-color:#00abff;stop-opacity:0;"
         offset="0"
         id="stop4" />
      <stop
         style="stop-color:#00abff;stop-opacity:1;"
         offset="1"
         id="stop3" />
    </linearGradient>
    <linearGradient
       xlink:href="#linearGradient3"
       id="linearGradient4"
       x1="8.3638105"
       y1="15.66575"
       x2="8.3638105"
       y2="7.4568272"
       gradientUnits="userSpaceOnUse" />
    <filter
       style="color-interpolation-filters:sRGB"
       id="filter4"
       x="-0.027004287"
       y="-0.026995719"
       width="1.0540086"
       height="1.0539914">
      <feGaussianBlur
         stdDeviation="0.1428869"
         id="feGaussianBlur4" />
    </filter>
  </defs>
  <g
     id="g4"
     transform="translate(-0.45391348,-0.47613394)">
    <path
       id="path2"
       style="display:inline;opacity:0.6;fill:#00abff;fill-opacity:1;stroke-linecap:round;stroke-linejoin:round;paint-order:stroke fill markers;filter:url(#filter4)"
       d="m 3.173603,2.1153034 c -0.5817311,0 -1.0565262,0.4798675 -1.0565262,1.0605565 V 13.757819 c 0,0.580688 0.4750031,1.060557 1.0565262,1.060557 h 10.584262 c 0.581523,0 1.058254,-0.479661 1.058254,-1.060557 V 3.1758599 c 0,-0.5808974 -0.476523,-1.0605565 -1.058254,-1.0605565 z m 0,0.7951295 h 10.584262 c 0.155598,0 0.265427,0.1095203 0.265427,0.265427 V 13.757819 c 0,0.155905 -0.109521,0.265427 -0.265427,0.265427 H 3.173603 c -0.1559043,0 -0.2613967,-0.10829 -0.2613967,-0.265427 V 3.1758599 c 0,-0.1571405 0.1057995,-0.2654271 0.2613967,-0.265427 z m 2.7797866,0.7928265 c -0.6495035,0 -1.1410506,0.4667549 -1.3265593,1.0582535 H 4.1017339 c -0.2152882,0 -0.3984284,0.1831402 -0.3984284,0.3984284 0,0.2152883 0.1831399,0.3967011 0.3984284,0.3967011 h 0.5250964 c 0.1850738,0.5920104 0.6769006,1.0565263 1.3265593,1.0565262 0.6496601,0 1.1408047,-0.4644416 1.3259836,-1.0565262 h 5.2889648 c 0.215287,0 0.396701,-0.1814177 0.396701,-0.3967011 0,-0.2152858 -0.181413,-0.3984284 -0.396701,-0.3984284 H 7.2793732 C 7.0937592,4.1699401 6.6028945,3.7032594 5.9533896,3.7032594 Z m 0,0.7928264 c 0.3702718,0 0.6621282,0.2928731 0.6621282,0.6638555 0,0.3709827 -0.2909679,0.6604008 -0.6621282,0.6604008 -0.3711603,0 -0.6604008,-0.2892404 -0.6604008,-0.6604008 0,-0.3711601 0.290129,-0.6638555 0.6604008,-0.6638555 z m 4.7615654,2.6485126 c -0.649505,0 -1.1386428,0.4649533 -1.3242567,1.0565262 H 4.1017339 c -0.2152863,0 -0.3984284,0.1831451 -0.3984284,0.3984284 0,0.2152858 0.1831411,0.3967011 0.3984284,0.3967011 h 5.2866613 c 0.1851792,0.5920844 0.6768998,1.0565259 1.3265598,1.0565259 0.649658,0 1.140909,-0.4645155 1.325983,-1.0565259 h 0.5274 c 0.215287,-10e-8 0.396701,-0.1814177 0.396701,-0.3967011 0,-0.2152858 -0.181413,-0.3984284 -0.396701,-0.3984284 h -0.5274 C 11.855429,7.6096258 11.364458,7.1445984 10.714955,7.1445984 Z m 0,0.7910992 c 0.370272,0 0.662128,0.2926952 0.662128,0.6638554 0,0.3711604 -0.290967,0.6621281 -0.662128,0.6621281 -0.371161,0 -0.660402,-0.2911453 -0.660401,-0.6621281 0,-0.3709826 0.290128,-0.6638554 0.660401,-0.6638554 z M 5.9533896,10.58421 c -0.6495035,0 -1.1410506,0.465027 -1.3265593,1.056526 H 4.1017339 c -0.2152858,0 -0.3984284,0.183141 -0.3984284,0.398429 0,0.215286 0.183145,0.396125 0.3984284,0.396125 h 0.5250964 c 0.1850739,0.59201 0.6769008,1.057102 1.3265593,1.057102 0.6496599,0 1.1408046,-0.465018 1.3259836,-1.057102 h 5.2889648 c 0.215284,0 0.396701,-0.180843 0.396701,-0.396125 0,-0.215284 -0.181418,-0.398429 -0.396701,-0.398429 H 7.2793732 C 7.0937593,11.049163 6.6028947,10.58421 5.9533896,10.58421 Z m 0,0.790524 c 0.3702718,0 0.6621282,0.293449 0.6621282,0.664431 0,0.370983 -0.2909679,0.662128 -0.6621282,0.662128 -0.3711603,0 -0.6604007,-0.290968 -0.6604008,-0.662128 0,-0.37116 0.290129,-0.664431 0.6604008,-0.664431 z"
       transform="matrix(0.89751102,0,0,0.89751102,-1.1384041,-1.114592)" />
    <path
       id="path3"
       style="fill:url(#linearGradient4);fill-opacity:1;stroke-linecap:round;stroke-linejoin:round;paint-order:stroke fill markers"
       d="m 3.173603,2.1153034 c -0.5817311,0 -1.0565262,0.4798675 -1.0565262,1.0605565 V 13.757819 c 0,0.580688 0.4750031,1.060557 1.0565262,1.060557 h 10.584262 c 0.581523,0 1.058254,-0.479661 1.058254,-1.060557 V 3.1758599 c 0,-0.5808974 -0.476523,-1.0605565 -1.058254,-1.0605565 z m 0,0.7951295 h 10.584262 c 0.155598,0 0.265427,0.1095203 0.265427,0.265427 V 13.757819 c 0,0.155905 -0.109521,0.265427 -0.265427,0.265427 H 3.173603 c -0.1559043,0 -0.2613967,-0.10829 -0.2613967,-0.265427 V 3.1758599 c 0,-0.1571405 0.1057995,-0.2654271 0.2613967,-0.265427 z m 2.7797866,0.7928265 c -0.6495035,0 -1.1410506,0.4667549 -1.3265593,1.0582535 H 4.1017339 c -0.2152882,0 -0.3984284,0.1831402 -0.3984284,0.3984284 0,0.2152883 0.1831399,0.3967011 0.3984284,0.3967011 h 0.5250964 c 0.1850738,0.5920104 0.6769006,1.0565263 1.3265593,1.0565262 0.6496601,0 1.1408047,-0.4644416 1.3259836,-1.0565262 h 5.2889648 c 0.215287,0 0.396701,-0.1814177 0.396701,-0.3967011 0,-0.2152858 -0.181413,-0.3984284 -0.396701,-0.3984284 H 7.2793732 C 7.0937592,4.1699401 6.6028945,3.7032594 5.9533896,3.7032594 Z m 0,0.7928264 c 0.3702718,0 0.6621282,0.2928731 0.6621282,0.6638555 0,0.3709827 -0.2909679,0.6604008 -0.6621282,0.6604008 -0.3711603,0 -0.6604008,-0.2892404 -0.6604008,-0.6604008 0,-0.3711601 0.290129,-0.6638555 0.6604008,-0.6638555 z m 4.7615654,2.6485126 c -0.649505,0 -1.1386428,0.4649533 -1.3242567,1.0565262 H 4.1017339 c -0.2152863,0 -0.3984284,0.1831451 -0.3984284,0.3984284 0,0.2152858 0.1831411,0.3967011 0.3984284,0.3967011 h 5.2866613 c 0.1851792,0.5920844 0.6768998,1.0565259 1.3265598,1.0565259 0.649658,0 1.140909,-0.4645155 1.325983,-1.0565259 h 0.5274 c 0.215287,-10e-8 0.396701,-0.1814177 0.396701,-0.3967011 0,-0.2152858 -0.181413,-0.3984284 -0.396701,-0.3984284 h -0.5274 C 11.855429,7.6096258 11.364458,7.1445984 10.714955,7.1445984 Z m 0,0.7910992 c 0.370272,0 0.662128,0.2926952 0.662128,0.6638554 0,0.3711604 -0.290967,0.6621281 -0.662128,0.6621281 -0.371161,0 -0.660402,-0.2911453 -0.660401,-0.6621281 0,-0.3709826 0.290128,-0.6638554 0.660401,-0.6638554 z M 5.9533896,10.58421 c -0.6495035,0 -1.1410506,0.465027 -1.3265593,1.056526 H 4.1017339 c -0.2152858,0 -0.3984284,0.183141 -0.3984284,0.398429 0,0.215286 0.183145,0.396125 0.3984284,0.396125 h 0.5250964 c 0.1850739,0.59201 0.6769008,1.057102 1.3265593,1.057102 0.6496599,0 1.1408046,-0.465018 1.3259836,-1.057102 h 5.2889648 c 0.215284,0 0.396701,-0.180843 0.396701,-0.396125 0,-0.215284 -0.181418,-0.398429 -0.396701,-0.398429 H 7.2793732 C 7.0937593,11.049163 6.6028947,10.58421 5.9533896,10.58421 Z m 0,0.790524 c 0.3702718,0 0.6621282,0.293449 0.6621282,0.664431 0,0.370983 -0.2909679,0.662128 -0.6621282,0.662128 -0.3711603,0 -0.6604007,-0.290968 -0.6604008,-0.662128 0,-0.37116 0.290129,-0.664431 0.6604008,-0.664431 z"
       transform="matrix(0.89751102,0,0,0.89751102,-1.1384041,-1.114592)" />
  </g>
</svg>
