<?xml version="1.0" encoding="UTF-8" standalone="no"?>
<svg
   width="49.150631"
   height="32.135002"
   version="1.1"
   viewBox="0 0 13.004182 8.5022186"
   id="svg12"
   xmlns:xlink="http://www.w3.org/1999/xlink"
   xmlns="http://www.w3.org/2000/svg"
   xmlns:svg="http://www.w3.org/2000/svg"
   xmlns:rdf="http://www.w3.org/1999/02/22-rdf-syntax-ns#"
   xmlns:cc="http://creativecommons.org/ns#"
   xmlns:dc="http://purl.org/dc/elements/1.1/">
  <defs
     id="defs5">
    <linearGradient
       id="linearGradient13">
      <stop
         style="stop-color:#ff3dfb;stop-opacity:0;"
         offset="0"
         id="stop14" />
      <stop
         style="stop-color:#ff3dfb;stop-opacity:1;"
         offset="1"
         id="stop13" />
    </linearGradient>
    <linearGradient
       xlink:href="#linearGradient13"
       id="linearGradient14"
       x1="17.015369"
       y1="18.4184"
       x2="17.015369"
       y2="9.0316286"
       gradientUnits="userSpaceOnUse" />
    <filter
       style="color-interpolation-filters:sRGB"
       id="filter14"
       x="-0.022119631"
       y="-0.034643598"
       width="1.0442393"
       height="1.0692872">
      <feGaussianBlur
         stdDeviation="0.11477562"
         id="feGaussianBlur14" />
    </filter>
  </defs>
  <metadata
     id="metadata5">
    <rdf:RDF>
      <cc:Work
         rdf:about="">
        <dc:format>image/svg+xml</dc:format>
        <dc:type
           rdf:resource="http://purl.org/dc/dcmitype/StillImage" />
      </cc:Work>
    </rdf:RDF>
  </metadata>
  <g
     id="g14"
     transform="translate(-1.9646674,-4.2156488)">
    <path
       id="path13"
       style="display:inline;opacity:0.6;fill:#ff3dfb;fill-opacity:1;filter:url(#filter14)"
       d="m 14.337827,5.9765103 -1.71304,0.5704966 -1.621058,5.6734441 0.853678,1.707355 h 1.443295 l 2.910359,-1.853597 h 2.039112 l 2.909842,1.853597 H 22.60331 L 23.456988,12.220451 21.83593,6.5470069 20.12289,5.9765103 17.986111,7.3123198 h -1.511505 z m -0.03514,0.2909326 2.095955,1.3089383 h 1.663948 l 2.095438,-1.3089383 1.462931,0.4862657 1.552846,5.4398714 -0.734307,1.468615 h -1.201454 l -2.909842,-1.85153 H 16.13303 l -2.910359,1.85153 H 12.019668 L 11.286911,12.19358 12.839757,6.7537086 Z m 0.281114,1.8324102 v 1.0583125 h -1.057796 v 0.2645781 h 1.057796 V 10.481056 H 14.84838 V 9.4227437 h 1.058829 V 9.1581656 H 14.84838 V 8.0998531 Z M 19.87588,8.3644312 A 0.26458001,0.26458001 0 0 0 19.611302,8.6290094 0.26458001,0.26458001 0 0 0 19.87588,8.8935875 0.26458001,0.26458001 0 0 0 20.140458,8.6290094 0.26458001,0.26458001 0 0 0 19.87588,8.3644312 Z m -0.793734,0.7937344 a 0.26458001,0.26458001 0 0 0 -0.264578,0.2645781 0.26458001,0.26458001 0 0 0 0.264578,0.2645782 0.26458001,0.26458001 0 0 0 0.264578,-0.2645782 0.26458001,0.26458001 0 0 0 -0.264578,-0.2645781 z m 1.587985,0 A 0.26458001,0.26458001 0 0 0 20.405553,9.4227437 0.26458001,0.26458001 0 0 0 20.670131,9.6873219 0.26458001,0.26458001 0 0 0 20.93471,9.4227437 0.26458001,0.26458001 0 0 0 20.670131,9.1581656 Z M 19.87588,9.9513832 a 0.26458001,0.26458001 0 0 0 -0.264578,0.2645778 0.26458001,0.26458001 0 0 0 0.264578,0.264578 0.26458001,0.26458001 0 0 0 0.264578,-0.264578 0.26458001,0.26458001 0 0 0 -0.264578,-0.2645778 z"
       transform="translate(-8.7636001,-1.4854)" />
    <path
       id="path6"
       style="fill:url(#linearGradient14);fill-opacity:1"
       d="m 14.337827,5.9765103 -1.71304,0.5704966 -1.621058,5.6734441 0.853678,1.707355 h 1.443295 l 2.910359,-1.853597 h 2.039112 l 2.909842,1.853597 H 22.60331 L 23.456988,12.220451 21.83593,6.5470069 20.12289,5.9765103 17.986111,7.3123198 h -1.511505 z m -0.03514,0.2909326 2.095955,1.3089383 h 1.663948 l 2.095438,-1.3089383 1.462931,0.4862657 1.552846,5.4398714 -0.734307,1.468615 h -1.201454 l -2.909842,-1.85153 H 16.13303 l -2.910359,1.85153 H 12.019668 L 11.286911,12.19358 12.839757,6.7537086 Z m 0.281114,1.8324102 v 1.0583125 h -1.057796 v 0.2645781 h 1.057796 V 10.481056 H 14.84838 V 9.4227437 h 1.058829 V 9.1581656 H 14.84838 V 8.0998531 Z M 19.87588,8.3644312 A 0.26458001,0.26458001 0 0 0 19.611302,8.6290094 0.26458001,0.26458001 0 0 0 19.87588,8.8935875 0.26458001,0.26458001 0 0 0 20.140458,8.6290094 0.26458001,0.26458001 0 0 0 19.87588,8.3644312 Z m -0.793734,0.7937344 a 0.26458001,0.26458001 0 0 0 -0.264578,0.2645781 0.26458001,0.26458001 0 0 0 0.264578,0.2645782 0.26458001,0.26458001 0 0 0 0.264578,-0.2645782 0.26458001,0.26458001 0 0 0 -0.264578,-0.2645781 z m 1.587985,0 A 0.26458001,0.26458001 0 0 0 20.405553,9.4227437 0.26458001,0.26458001 0 0 0 20.670131,9.6873219 0.26458001,0.26458001 0 0 0 20.93471,9.4227437 0.26458001,0.26458001 0 0 0 20.670131,9.1581656 Z M 19.87588,9.9513832 a 0.26458001,0.26458001 0 0 0 -0.264578,0.2645778 0.26458001,0.26458001 0 0 0 0.264578,0.264578 0.26458001,0.26458001 0 0 0 0.264578,-0.264578 0.26458001,0.26458001 0 0 0 -0.264578,-0.2645778 z"
       transform="translate(-8.7636001,-1.4854)" />
  </g>
</svg>
