<?xml version="1.0" encoding="UTF-8" standalone="no"?>
<svg
   width="41.310261"
   height="43.919636"
   version="1.1"
   viewBox="0 0 10.929791 11.620175"
   id="svg54"
   xmlns:xlink="http://www.w3.org/1999/xlink"
   xmlns="http://www.w3.org/2000/svg"
   xmlns:svg="http://www.w3.org/2000/svg"
   xmlns:rdf="http://www.w3.org/1999/02/22-rdf-syntax-ns#"
   xmlns:cc="http://creativecommons.org/ns#"
   xmlns:dc="http://purl.org/dc/elements/1.1/">
  <metadata
     id="metadata2">
    <rdf:RDF>
      <cc:Work
         rdf:about="">
        <dc:format>image/svg+xml</dc:format>
        <dc:type
           rdf:resource="http://purl.org/dc/dcmitype/StillImage" />
        <dc:title />
      </cc:Work>
    </rdf:RDF>
  </metadata>
  <defs
     id="defs24">
    <linearGradient
       id="linearGradient3">
      <stop
         style="stop-color:#00abff;stop-opacity:0;"
         offset="0"
         id="stop4" />
      <stop
         style="stop-color:#00abff;stop-opacity:1;"
         offset="1"
         id="stop3" />
    </linearGradient>
    <style
       type="text/css"
       id="style4" />
    <style
       id="style4-6"
       type="text/css" />
    <style
       id="style4-7"
       type="text/css" />
    <style
       id="style14"
       type="text/css" />
    <style
       id="style16"
       type="text/css" />
    <style
       type="text/css"
       id="style899" />
    <linearGradient
       xlink:href="#linearGradient3"
       id="linearGradient4"
       x1="7.5553918"
       y1="17.306627"
       x2="7.5553918"
       y2="5.7353177"
       gradientUnits="userSpaceOnUse" />
    <filter
       style="color-interpolation-filters:sRGB"
       id="filter4"
       x="-0.027900315"
       y="-0.026155974"
       width="1.0558006"
       height="1.0523119">
      <feGaussianBlur
         stdDeviation="0.17439301"
         id="feGaussianBlur4" />
    </filter>
  </defs>
  <g
     transform="matrix(0.69007891,0,0,0.69007891,-560.05507,-306.07018)"
     fill="#dedede"
     id="g2">
    <path
       id="path1"
       d="m 5.4078246,-0.00221252 c 0.878,0.713 1.4692112,1.79257552 1.4692112,3.00057552 v 0.9996927 h 2.1251893 c -0.074,-1.093 1.2491339,-2.0001341 2.0001339,-2.0001341 0.68,0 0.999693,0.011441 0.999693,1.0004414 v 0.9996927 h 1.219101 c 1.228,-0.6 1.779977,-1.9703121 1.779977,-2.6883121 0,-0.73599995 -2.385256,-1.31195612 -3.687256,-1.31195612 z M 2.933679,3.3983951e-5 C 1.308279,3.3983951e-5 -2.5037351e-4,1.3321817 -2.5037351e-4,2.9863817 V 13.013261 c 0,1.6542 1.30852937351,2.986348 2.93392937351,2.986348 h 0.1325435 c 1.6254,0 2.9339294,-1.332148 2.9339294,-2.986348 V 2.9863817 c 0,-1.6542 -1.3085294,-2.986347716049 -2.9339294,-2.986347716049 z M 3.0003252,0.99972661 c 1.108,0 1.9993852,0.89213409 1.9993852,2.00013409 v 9.9999213 c 0,1.108 -0.8913852,2.000134 -1.9993852,2.000134 -1.108,0 -2.0001341,-0.892134 -2.0001341,-2.000134 V 2.9998607 c 0,-1.108 0.8921341,-2.00013409 2.0001341,-2.00013409 z M 7.002091,4.9977483 v 4.3132805 c 2.766,2.6610002 6.124709,2.4060022 6.124709,2.4060022 0,0 0.353219,-1.519971 -1.905781,-4.0309707 L 8.8457189,4.9977483 H 7.0642442 c -0.02,0.002 -0.040153,-0.002 -0.062153,0 z M 9.9772062,7.5303029 11.659835,9.2668476 C 9.8608349,9.4318476 9.5102062,8.4113029 9.9772062,7.5303029 Z"
       transform="translate(812,443.95)"
       style="display:inline;opacity:0.6;fill:#00abff;fill-opacity:1;filter:url(#filter4)" />
    <path
       id="path2"
       d="m 5.4078246,-0.00221252 c 0.878,0.713 1.4692112,1.79257552 1.4692112,3.00057552 v 0.9996927 h 2.1251893 c -0.074,-1.093 1.2491339,-2.0001341 2.0001339,-2.0001341 0.68,0 0.999693,0.011441 0.999693,1.0004414 v 0.9996927 h 1.219101 c 1.228,-0.6 1.779977,-1.9703121 1.779977,-2.6883121 0,-0.73599995 -2.385256,-1.31195612 -3.687256,-1.31195612 z M 2.933679,3.3983951e-5 C 1.308279,3.3983951e-5 -2.5037351e-4,1.3321817 -2.5037351e-4,2.9863817 V 13.013261 c 0,1.6542 1.30852937351,2.986348 2.93392937351,2.986348 h 0.1325435 c 1.6254,0 2.9339294,-1.332148 2.9339294,-2.986348 V 2.9863817 c 0,-1.6542 -1.3085294,-2.986347716049 -2.9339294,-2.986347716049 z M 3.0003252,0.99972661 c 1.108,0 1.9993852,0.89213409 1.9993852,2.00013409 v 9.9999213 c 0,1.108 -0.8913852,2.000134 -1.9993852,2.000134 -1.108,0 -2.0001341,-0.892134 -2.0001341,-2.000134 V 2.9998607 c 0,-1.108 0.8921341,-2.00013409 2.0001341,-2.00013409 z M 7.002091,4.9977483 v 4.3132805 c 2.766,2.6610002 6.124709,2.4060022 6.124709,2.4060022 0,0 0.353219,-1.519971 -1.905781,-4.0309707 L 8.8457189,4.9977483 H 7.0642442 c -0.02,0.002 -0.040153,-0.002 -0.062153,0 z M 9.9772062,7.5303029 11.659835,9.2668476 C 9.8608349,9.4318476 9.5102062,8.4113029 9.9772062,7.5303029 Z"
       transform="translate(812,443.95)"
       style="fill:url(#linearGradient4);fill-opacity:1" />
  </g>
</svg>
