<?xml version="1.0" encoding="UTF-8" standalone="no"?>
<svg
   width="44.381962"
   height="48.450325"
   version="1.1"
   id="svg4126"
   xmlns:xlink="http://www.w3.org/1999/xlink"
   xmlns="http://www.w3.org/2000/svg"
   xmlns:svg="http://www.w3.org/2000/svg"
   xmlns:rdf="http://www.w3.org/1999/02/22-rdf-syntax-ns#"
   xmlns:cc="http://creativecommons.org/ns#"
   xmlns:dc="http://purl.org/dc/elements/1.1/">
  <metadata
     id="metadata2">
    <rdf:RDF>
      <cc:Work
         rdf:about="">
        <dc:format>image/svg+xml</dc:format>
        <dc:type
           rdf:resource="http://purl.org/dc/dcmitype/StillImage" />
        <dc:title />
      </cc:Work>
    </rdf:RDF>
  </metadata>
  <defs
     id="defs1194">
    <linearGradient
       id="linearGradient1">
      <stop
         style="stop-color:#ff3dfb;stop-opacity:0;"
         offset="0"
         id="stop2" />
      <stop
         style="stop-color:#ff3dfb;stop-opacity:1;"
         offset="1"
         id="stop1" />
    </linearGradient>
    <linearGradient
       xlink:href="#linearGradient1"
       id="linearGradient2"
       x1="30"
       y1="65"
       x2="30"
       y2="25"
       gradientUnits="userSpaceOnUse" />
    <filter
       style="color-interpolation-filters:sRGB"
       id="filter2"
       x="-0.028307566"
       y="-0.025807898"
       width="1.0566151"
       height="1.0516158">
      <feGaussianBlur
         stdDeviation="0.49542846"
         id="feGaussianBlur2" />
    </filter>
  </defs>
  <g
     id="g5638"
     transform="translate(-9.8090186,-7.8090186)">
    <path
       id="path5616"
       style="display:inline;opacity:0.6;fill:#ff3dfb;fill-opacity:1;filter:url(#filter2)"
       d="M 10.998047,8.9980469 V 55.070312 H 53 V 25.939453 L 33.484375,8.9980469 Z m 27.984375,0.00586 14.019531,11.5410161 V 9.0039062 Z m -26.984375,0.99414 H 33.111328 L 52,26.396484 V 54.070312 H 11.998047 Z m 29.794922,0.013672 h 10.201172 v 8.398437 z M 17,26 v 1 H 27 V 26 Z M 35.412109,27.285156 31,33.804688 V 35 H 46 V 33.804688 L 42.875,30.220703 39.75,32.611328 Z M 17,30 v 1 h 10 v -1 z m 0,5 v 1 h 10 v -1 z m 0,5 v 1 h 30 v -1 z m 0,5 v 1 h 30 v -1 z m 0,4 v 1 h 22 v -1 z" />
    <path
       id="path1"
       style="fill:url(#linearGradient2);fill-opacity:1"
       d="M 10.998047,8.9980469 V 55.070312 H 53 V 25.939453 L 33.484375,8.9980469 Z m 27.984375,0.00586 14.019531,11.5410161 V 9.0039062 Z m -26.984375,0.99414 H 33.111328 L 52,26.396484 V 54.070312 H 11.998047 Z m 29.794922,0.013672 h 10.201172 v 8.398437 z M 17,26 v 1 H 27 V 26 Z M 35.412109,27.285156 31,33.804688 V 35 H 46 V 33.804688 L 42.875,30.220703 39.75,32.611328 Z M 17,30 v 1 h 10 v -1 z m 0,5 v 1 h 10 v -1 z m 0,5 v 1 h 30 v -1 z m 0,5 v 1 h 30 v -1 z m 0,4 v 1 h 22 v -1 z" />
  </g>
</svg>
