<?xml version="1.0" encoding="UTF-8" standalone="no"?>
<svg
   id="svg46"
   viewBox="0 0 12.314087 12.814502"
   version="1.1"
   height="48.433716"
   width="46.542347"
   xmlns:xlink="http://www.w3.org/1999/xlink"
   xmlns="http://www.w3.org/2000/svg"
   xmlns:svg="http://www.w3.org/2000/svg"
   xmlns:rdf="http://www.w3.org/1999/02/22-rdf-syntax-ns#"
   xmlns:cc="http://creativecommons.org/ns#"
   xmlns:dc="http://purl.org/dc/elements/1.1/">
  <metadata
     id="metadata2">
    <rdf:RDF>
      <cc:Work
         rdf:about="">
        <dc:format>image/svg+xml</dc:format>
        <dc:type
           rdf:resource="http://purl.org/dc/dcmitype/StillImage" />
        <dc:title />
      </cc:Work>
    </rdf:RDF>
  </metadata>
  <defs
     id="defs14">
    <linearGradient
       id="linearGradient1">
      <stop
         style="stop-color:#ff3dfb;stop-opacity:0;"
         offset="0"
         id="stop3" />
      <stop
         style="stop-color:#ff3dfb;stop-opacity:1;"
         offset="1"
         id="stop1" />
    </linearGradient>
    <style
       id="style4"
       type="text/css" />
    <style
       id="style4-6"
       type="text/css" />
    <style
       id="style6"
       type="text/css" />
    <style
       id="style8"
       type="text/css" />
    <style
       type="text/css"
       id="style872" />
    <style
       type="text/css"
       id="style874" />
    <style
       type="text/css"
       id="style876" />
    <style
       type="text/css"
       id="style886" />
    <linearGradient
       xlink:href="#linearGradient1"
       id="linearGradient3"
       x1="9"
       y1="17"
       x2="9"
       y2="6.7818308"
       gradientUnits="userSpaceOnUse" />
    <filter
       style="color-interpolation-filters:sRGB"
       id="filter3"
       x="-0.027578864"
       y="-0.026444933"
       width="1.0551577"
       height="1.0528899">
      <feGaussianBlur
         stdDeviation="0.13410655"
         id="feGaussianBlur3" />
    </filter>
  </defs>
  <g
     id="g1056"
     style="fill:#01ed3a;fill-opacity:1"
     transform="translate(-2.3094564,-2.059152)">
    <path
       id="path1052"
       style="color:#000000;font-style:normal;font-variant:normal;font-weight:normal;font-stretch:normal;font-size:medium;line-height:normal;font-family:sans-serif;font-variant-ligatures:normal;font-variant-position:normal;font-variant-caps:normal;font-variant-numeric:normal;font-variant-alternates:normal;font-variant-east-asian:normal;font-feature-settings:normal;font-variation-settings:normal;text-indent:0;text-align:start;text-decoration:none;text-decoration-line:none;text-decoration-style:solid;text-decoration-color:#000000;letter-spacing:normal;word-spacing:normal;text-transform:none;writing-mode:lr-tb;direction:ltr;text-orientation:mixed;dominant-baseline:auto;baseline-shift:baseline;text-anchor:start;white-space:normal;shape-padding:0;shape-margin:0;inline-size:0;clip-rule:nonzero;display:inline;overflow:visible;visibility:visible;opacity:0.6;isolation:auto;mix-blend-mode:normal;color-interpolation:sRGB;color-interpolation-filters:linearRGB;solid-color:#000000;solid-opacity:1;vector-effect:none;fill:#ff3dfb;fill-opacity:1;fill-rule:nonzero;stroke:none;stroke-width:0;stroke-linecap:butt;stroke-linejoin:miter;stroke-miterlimit:4;stroke-dasharray:none;stroke-dashoffset:0;stroke-opacity:1;filter:url(#filter3);color-rendering:auto;image-rendering:auto;shape-rendering:auto;text-rendering:auto;enable-background:accumulate;stop-color:#000000"
       d="m 3.6007429,2.3812031 c -0.5266598,0.00418 -0.8485103,0.061494 -0.8485103,0.061494 L 2.6313121,2.4638838 V 2.587388 6.6692291 H 2.9243117 V 2.7289787 c 0.089959,-0.014603 0.664976,-0.1175089 1.6298426,-0.0062 1.020614,0.1177324 2.3532648,0.48634 3.6214131,1.4381268 l -0.00207,9.8441665 C 7.8496968,13.76412 5.6412767,12.200018 2.9243117,12.648591 v -0.72914 H 2.6313121 v 1.052112 L 2.805975,12.93694 c 2.8360131,-0.567203 5.4233348,1.431926 5.4233348,1.431926 L 8.4665,14.551797 8.7036902,14.368866 c 0,0 2.5873208,-1.999129 5.4233348,-1.431926 l 0.174663,0.03462 v -1.052112 h -0.293 v 0.72914 c -2.716965,-0.448573 -4.9253736,1.115534 -5.2491884,1.35648 L 8.7574326,4.1609044 C 10.025581,3.2091176 11.358232,2.84051 12.378846,2.7227776 c 0.964867,-0.1113078 1.539892,-0.0084 1.629842,0.0062 V 6.669228 h 0.293 V 2.587388 2.4638838 l -0.120921,-0.021187 c 0,0 -0.420144,-0.074394 -1.086217,-0.059427 -0.222023,0.00499 -0.47089,0.019728 -0.741025,0.050642 -1.080537,0.1236576 -2.4940824,0.5023627 -3.8306988,1.526492 L 8.4665,4.0043279 8.4101738,3.9604038 C 7.073558,2.9362709 5.6600123,2.5575693 4.5794753,2.433912 4.3093411,2.4029975 4.0604736,2.3882588 3.8384498,2.3832701 3.7551909,2.3813991 3.67598,2.3806064 3.6007429,2.3812031 Z M 2.6313121,7.8360599 V 10.75262 H 2.9243117 V 7.8360599 Z m 11.3773759,0 V 10.75262 h 0.293 V 7.8360599 Z" />
    <path
       id="path1"
       style="color:#000000;font-style:normal;font-variant:normal;font-weight:normal;font-stretch:normal;font-size:medium;line-height:normal;font-family:sans-serif;font-variant-ligatures:normal;font-variant-position:normal;font-variant-caps:normal;font-variant-numeric:normal;font-variant-alternates:normal;font-variant-east-asian:normal;font-feature-settings:normal;font-variation-settings:normal;text-indent:0;text-align:start;text-decoration:none;text-decoration-line:none;text-decoration-style:solid;text-decoration-color:#000000;letter-spacing:normal;word-spacing:normal;text-transform:none;writing-mode:lr-tb;direction:ltr;text-orientation:mixed;dominant-baseline:auto;baseline-shift:baseline;text-anchor:start;white-space:normal;shape-padding:0;shape-margin:0;inline-size:0;clip-rule:nonzero;display:inline;overflow:visible;visibility:visible;isolation:auto;mix-blend-mode:normal;color-interpolation:sRGB;color-interpolation-filters:linearRGB;solid-color:#000000;solid-opacity:1;vector-effect:none;fill:url(#linearGradient3);fill-opacity:1;fill-rule:nonzero;stroke:none;stroke-width:0;stroke-linecap:butt;stroke-linejoin:miter;stroke-miterlimit:4;stroke-dasharray:none;stroke-dashoffset:0;stroke-opacity:1;color-rendering:auto;image-rendering:auto;shape-rendering:auto;text-rendering:auto;enable-background:accumulate;stop-color:#000000"
       d="m 3.6007429,2.3812031 c -0.5266598,0.00418 -0.8485103,0.061494 -0.8485103,0.061494 L 2.6313121,2.4638838 V 2.587388 6.6692291 H 2.9243117 V 2.7289787 c 0.089959,-0.014603 0.664976,-0.1175089 1.6298426,-0.0062 1.020614,0.1177324 2.3532648,0.48634 3.6214131,1.4381268 l -0.00207,9.8441665 C 7.8496968,13.76412 5.6412767,12.200018 2.9243117,12.648591 v -0.72914 H 2.6313121 v 1.052112 L 2.805975,12.93694 c 2.8360131,-0.567203 5.4233348,1.431926 5.4233348,1.431926 L 8.4665,14.551797 8.7036902,14.368866 c 0,0 2.5873208,-1.999129 5.4233348,-1.431926 l 0.174663,0.03462 v -1.052112 h -0.293 v 0.72914 c -2.716965,-0.448573 -4.9253736,1.115534 -5.2491884,1.35648 L 8.7574326,4.1609044 C 10.025581,3.2091176 11.358232,2.84051 12.378846,2.7227776 c 0.964867,-0.1113078 1.539892,-0.0084 1.629842,0.0062 V 6.669228 h 0.293 V 2.587388 2.4638838 l -0.120921,-0.021187 c 0,0 -0.420144,-0.074394 -1.086217,-0.059427 -0.222023,0.00499 -0.47089,0.019728 -0.741025,0.050642 -1.080537,0.1236576 -2.4940824,0.5023627 -3.8306988,1.526492 L 8.4665,4.0043279 8.4101738,3.9604038 C 7.073558,2.9362709 5.6600123,2.5575693 4.5794753,2.433912 4.3093411,2.4029975 4.0604736,2.3882588 3.8384498,2.3832701 3.7551909,2.3813991 3.67598,2.3806064 3.6007429,2.3812031 Z M 2.6313121,7.8360599 V 10.75262 H 2.9243117 V 7.8360599 Z m 11.3773759,0 V 10.75262 h 0.293 V 7.8360599 Z" />
  </g>
</svg>
