<?xml version="1.0" encoding="UTF-8" standalone="no"?>
<svg
   width="48.490173"
   height="48.490173"
   version="1.1"
   viewBox="0 0 12.829439 12.829439"
   id="svg7"
   xmlns:xlink="http://www.w3.org/1999/xlink"
   xmlns="http://www.w3.org/2000/svg"
   xmlns:svg="http://www.w3.org/2000/svg"
   xmlns:rdf="http://www.w3.org/1999/02/22-rdf-syntax-ns#"
   xmlns:cc="http://creativecommons.org/ns#"
   xmlns:dc="http://purl.org/dc/elements/1.1/">
  <defs
     id="defs5">
    <linearGradient
       id="linearGradient8">
      <stop
         style="stop-color:#00abff;stop-opacity:0;"
         offset="0"
         id="stop9" />
      <stop
         style="stop-color:#00abff;stop-opacity:1;"
         offset="1"
         id="stop8" />
    </linearGradient>
    <linearGradient
       xlink:href="#linearGradient8"
       id="linearGradient9"
       x1="8.4358244"
       y1="16.933001"
       x2="8.4358244"
       y2="7.2616158"
       gradientUnits="userSpaceOnUse" />
    <filter
       style="color-interpolation-filters:sRGB"
       id="filter9"
       x="-0.027000001"
       y="-0.027000001"
       width="1.054"
       height="1.054">
      <feGaussianBlur
         stdDeviation="0.13693662"
         id="feGaussianBlur9" />
    </filter>
  </defs>
  <metadata
     id="metadata5">
    <rdf:RDF>
      <cc:Work
         rdf:about="">
        <dc:format>image/svg+xml</dc:format>
        <dc:type
           rdf:resource="http://purl.org/dc/dcmitype/StillImage" />
      </cc:Work>
    </rdf:RDF>
  </metadata>
  <g
     id="g9"
     transform="translate(-2.0520385,-2.0520385)">
    <path
       id="rect7"
       style="display:inline;opacity:0.6;fill:#00abff;fill-opacity:1;stroke-linecap:round;stroke-linejoin:round;paint-order:stroke fill markers;filter:url(#filter9)"
       d="m 3.8358661,2.3806864 c -0.803887,0 -1.4551797,0.6512927 -1.4551797,1.4551797 v 9.2597179 c 0,0.803887 0.6512927,1.457246 1.4551797,1.457246 h 9.2597179 c 0.803887,0 1.457246,-0.653359 1.457246,-1.457246 V 3.8358661 c 0,-0.803887 -0.653359,-1.4551797 -1.457246,-1.4551797 z m 0,0.2656116 h 9.2597179 c 0.661886,0 1.191635,0.5276819 1.191635,1.1895681 v 9.2597179 c 0,0.661886 -0.529749,1.191635 -1.191635,1.191635 H 3.8358661 c -0.6618862,0 -1.1895681,-0.529749 -1.1895681,-1.191635 V 3.8358661 c 0,-0.6618862 0.5276819,-1.1895681 1.1895681,-1.1895681 z m 4.6192653,2.6623174 c -2.0945892,0.0082 -3.8976049,1.250703 -4.7205492,3.0369641 -0.040601,0.088393 -0.041135,0.1916532 0,0.279564 h 0.00155 c 0.836805,1.7797045 2.647664,3.0079605 4.7422528,2.9997575 2.09459,-0.0082 3.898121,-1.250703 4.721066,-3.0369638 0.04147,-0.088821 0.0394,-0.1910391 -0.0021,-0.279564 C 12.360582,6.5286686 10.54972,5.3004118 8.4551314,5.3086154 Z m 0,0.2635446 c 1.9906106,-0.0078 3.7098316,1.1587367 4.5040296,2.8478321 0.0087,0.018555 0.0078,0.039645 0,0.056326 -0.781055,1.6953389 -2.490165,2.8751749 -4.4807757,2.8829719 -1.9906112,0.0078 -3.709831,-1.158737 -4.5040291,-2.8478326 -0.00868,-0.018554 -0.00779,-0.037579 0,-0.054259 v -0.00207 C 4.7554119,6.7597884 6.4645207,5.5799564 8.4551314,5.57216 Z m 0.00207,0.6759144 c -1.223881,0.00478 -2.2159698,1.0033635 -2.211191,2.2282439 0.00478,1.2238842 1.0038803,2.2159697 2.2287607,2.2111907 C 9.6987287,10.682729 10.690221,9.6826917 10.685442,8.4587487 10.680663,7.2348646 9.6820801,6.2432849 8.4571984,6.2480744 Z m 0.00155,0.2635446 C 9.5406759,6.507389 10.41768,7.3778128 10.421901,8.4587487 10.426101,9.5396057 9.5556301,10.417677 8.4747708,10.421898 7.3928485,10.426119 6.51584,9.555704 6.511619,8.4747681 6.5073979,7.3928485 7.3778128,6.5158399 8.4587487,6.511619 Z m -0.020153,0.4862657 c -0.073665,0.00142 -0.1484646,0.00823 -0.2232378,0.021187 C 7.4177765,7.1572249 6.8809184,7.9195447 7.0190716,8.7171258 7.1572249,9.5147068 7.9195448,10.051565 8.7171258,9.9134116 9.5147068,9.7752584 10.051565,9.0129385 9.9134116,8.2153575 9.7882102,7.4925496 9.1506935,6.9841191 8.4385953,6.9978847 Z m 0.00517,0.2635446 C 9.0293187,7.2495661 9.5503995,7.6657071 9.6534843,8.2608318 9.7672329,8.9175209 9.3283407,9.5381854 8.6716514,9.651934 8.014962,9.7656827 7.3942978,9.3283404 7.2805492,8.6716514 7.1668006,8.014962 7.6036257,7.3927476 8.2603151,7.278999 8.3218801,7.268335 8.3831881,7.262657 8.4437628,7.261429 Z" />
    <path
       id="path8"
       style="fill:url(#linearGradient9);fill-opacity:1;stroke-linecap:round;stroke-linejoin:round;paint-order:stroke fill markers"
       d="m 3.8358661,2.3806864 c -0.803887,0 -1.4551797,0.6512927 -1.4551797,1.4551797 v 9.2597179 c 0,0.803887 0.6512927,1.457246 1.4551797,1.457246 h 9.2597179 c 0.803887,0 1.457246,-0.653359 1.457246,-1.457246 V 3.8358661 c 0,-0.803887 -0.653359,-1.4551797 -1.457246,-1.4551797 z m 0,0.2656116 h 9.2597179 c 0.661886,0 1.191635,0.5276819 1.191635,1.1895681 v 9.2597179 c 0,0.661886 -0.529749,1.191635 -1.191635,1.191635 H 3.8358661 c -0.6618862,0 -1.1895681,-0.529749 -1.1895681,-1.191635 V 3.8358661 c 0,-0.6618862 0.5276819,-1.1895681 1.1895681,-1.1895681 z m 4.6192653,2.6623174 c -2.0945892,0.0082 -3.8976049,1.250703 -4.7205492,3.0369641 -0.040601,0.088393 -0.041135,0.1916532 0,0.279564 h 0.00155 c 0.836805,1.7797045 2.647664,3.0079605 4.7422528,2.9997575 2.09459,-0.0082 3.898121,-1.250703 4.721066,-3.0369638 0.04147,-0.088821 0.0394,-0.1910391 -0.0021,-0.279564 C 12.360582,6.5286686 10.54972,5.3004118 8.4551314,5.3086154 Z m 0,0.2635446 c 1.9906106,-0.0078 3.7098316,1.1587367 4.5040296,2.8478321 0.0087,0.018555 0.0078,0.039645 0,0.056326 -0.781055,1.6953389 -2.490165,2.8751749 -4.4807757,2.8829719 -1.9906112,0.0078 -3.709831,-1.158737 -4.5040291,-2.8478326 -0.00868,-0.018554 -0.00779,-0.037579 0,-0.054259 v -0.00207 C 4.7554119,6.7597884 6.4645207,5.5799564 8.4551314,5.57216 Z m 0.00207,0.6759144 c -1.223881,0.00478 -2.2159698,1.0033635 -2.211191,2.2282439 0.00478,1.2238842 1.0038803,2.2159697 2.2287607,2.2111907 C 9.6987287,10.682729 10.690221,9.6826917 10.685442,8.4587487 10.680663,7.2348646 9.6820801,6.2432849 8.4571984,6.2480744 Z m 0.00155,0.2635446 C 9.5406759,6.507389 10.41768,7.3778128 10.421901,8.4587487 10.426101,9.5396057 9.5556301,10.417677 8.4747708,10.421898 7.3928485,10.426119 6.51584,9.555704 6.511619,8.4747681 6.5073979,7.3928485 7.3778128,6.5158399 8.4587487,6.511619 Z m -0.020153,0.4862657 c -0.073665,0.00142 -0.1484646,0.00823 -0.2232378,0.021187 C 7.4177765,7.1572249 6.8809184,7.9195447 7.0190716,8.7171258 7.1572249,9.5147068 7.9195448,10.051565 8.7171258,9.9134116 9.5147068,9.7752584 10.051565,9.0129385 9.9134116,8.2153575 9.7882102,7.4925496 9.1506935,6.9841191 8.4385953,6.9978847 Z m 0.00517,0.2635446 C 9.0293187,7.2495661 9.5503995,7.6657071 9.6534843,8.2608318 9.7672329,8.9175209 9.3283407,9.5381854 8.6716514,9.651934 8.014962,9.7656827 7.3942978,9.3283404 7.2805492,8.6716514 7.1668006,8.014962 7.6036257,7.3927476 8.2603151,7.278999 8.3218801,7.268335 8.3831881,7.262657 8.4437628,7.261429 Z" />
  </g>
</svg>
