<?xml version="1.0" encoding="UTF-8" standalone="no"?>
<!-- Generator: Adobe Illustrator 22.0.1, SVG Export Plug-In . SVG Version: 6.00 Build 0)  -->

<svg
   version="1.1"
   id="Layer_1"
   x="0px"
   y="0px"
   viewBox="0 0 1692.2717 1578.0043"
   xml:space="preserve"
   width="1692.2717"
   height="1578.0043"
   xmlns:xlink="http://www.w3.org/1999/xlink"
   xmlns="http://www.w3.org/2000/svg"
   xmlns:svg="http://www.w3.org/2000/svg"><defs
   id="defs5"><linearGradient
     id="linearGradient10"><stop
       style="stop-color:#ff3dfb;stop-opacity:0;"
       offset="0"
       id="stop11" /><stop
       style="stop-color:#ff3dfb;stop-opacity:1;"
       offset="1"
       id="stop10" /></linearGradient><linearGradient
     id="linearGradient8"><stop
       style="stop-color:#00abff;stop-opacity:0;"
       offset="0"
       id="stop9" /><stop
       style="stop-color:#00abff;stop-opacity:1;"
       offset="1"
       id="stop8" /></linearGradient><linearGradient
     xlink:href="#linearGradient8"
     id="linearGradient9"
     x1="827.3623"
     y1="1921.8551"
     x2="827.3623"
     y2="808.81158"
     gradientUnits="userSpaceOnUse" /><linearGradient
     xlink:href="#linearGradient10"
     id="linearGradient11"
     x1="786.55072"
     y1="1884.7537"
     x2="786.55072"
     y2="801.3913"
     gradientUnits="userSpaceOnUse" /><filter
     style="color-interpolation-filters:sRGB"
     id="filter11"
     x="-0.03646509"
     y="-0.021435958"
     width="1.0729302"
     height="1.0428719"><feGaussianBlur
       stdDeviation="3.1834631"
       id="feGaussianBlur11" /></filter><filter
     style="color-interpolation-filters:sRGB"
     id="filter12"
     x="-0.026040963"
     y="-0.02803238"
     width="1.0520819"
     height="1.0560648"><feGaussianBlur
       stdDeviation="17.452848"
       id="feGaussianBlur12" /></filter></defs>

<g
   id="g12"
   transform="translate(-154.11316,-258.74789)"><g
     id="path2"
     style="display:inline"><path
       id="path5"
       style="opacity:0.6;fill:#00abff;fill-opacity:1;filter:url(#filter12)"
       d="m 1416.8848,300.63477 c -52.2493,0 -103.0876,10.2674 -150.8985,30.49023 -46.1429,19.5169 -87.6379,47.49144 -123.1875,83.04102 -35.5486,35.54861 -63.5212,77.04171 -83.039,123.18554 -20.2218,47.80971 -30.4903,98.64904 -30.4903,150.89844 V 869.39453 H 296 c -54.51869,0 -100,45.48132 -100,100 v 725.47067 c 0,54.5187 45.48131,100 100,100 h 974.2852 c 54.5168,0 100,-45.4817 100,-100 V 969.39453 c 0,-54.51868 -45.4814,-100 -100,-100 h -99.5274 V 690.27148 c 0,-135.62314 110.9556,-248.32818 246.461,-248.14648 135.6721,0.18192 245.7929,110.41015 245.7929,246.125 v 76.07617 c 0,38.92263 31.8215,70.74414 70.7442,70.74414 38.9226,0 70.7421,-31.82151 70.7421,-70.74414 V 688.25 c 0,-52.24826 -10.2664,-103.08853 -30.4882,-150.89844 -19.517,-46.14302 -47.4897,-87.63514 -83.0391,-123.18554 v -0.002 c -35.5504,-35.54929 -77.0422,-63.52304 -123.1855,-83.03906 -47.81,-20.22291 -98.6503,-30.49023 -150.8985,-30.49023 z M 316,989.39453 h 934.2852 V 1674.8652 H 316 Z" /><path
       style="opacity:0.6;fill:#ff3dfb;fill-opacity:1;filter:url(#filter11)"
       d="m 832.62,1351.039 v 159.303 h -98.955 v -159.303 c -32.911,-17.655 -55.285,-52.398 -55.285,-92.36 0,-57.861 46.902,-104.762 104.762,-104.762 57.861,0 104.762,46.901 104.762,104.762 10e-4,39.962 -22.373,74.706 -55.284,92.36 z"
       id="path3" /></g><g
     id="g8"><path
       id="path7"
       style="fill:url(#linearGradient9);fill-opacity:1"
       d="m 1416.8848,300.63477 c -52.2493,0 -103.0876,10.2674 -150.8985,30.49023 -46.1429,19.5169 -87.6379,47.49144 -123.1875,83.04102 -35.5486,35.54861 -63.5212,77.04171 -83.039,123.18554 -20.2218,47.80971 -30.4903,98.64904 -30.4903,150.89844 V 869.39453 H 296 c -54.51869,0 -100,45.48132 -100,100 v 725.47067 c 0,54.5187 45.48131,100 100,100 h 974.2852 c 54.5168,0 100,-45.4817 100,-100 V 969.39453 c 0,-54.51868 -45.4814,-100 -100,-100 h -99.5274 V 690.27148 c 0,-135.62314 110.9556,-248.32818 246.461,-248.14648 135.6721,0.18192 245.7929,110.41015 245.7929,246.125 v 76.07617 c 0,38.92263 31.8215,70.74414 70.7442,70.74414 38.9226,0 70.7421,-31.82151 70.7421,-70.74414 V 688.25 c 0,-52.24826 -10.2664,-103.08853 -30.4882,-150.89844 -19.517,-46.14302 -47.4897,-87.63514 -83.0391,-123.18554 v -0.002 c -35.5504,-35.54929 -77.0422,-63.52304 -123.1855,-83.03906 -47.81,-20.22291 -98.6503,-30.49023 -150.8985,-30.49023 z M 316,989.39453 h 934.2852 V 1674.8652 H 316 Z" /><path
       style="fill:url(#linearGradient11);fill-opacity:1"
       d="m 832.62,1351.039 v 159.303 h -98.955 v -159.303 c -32.911,-17.655 -55.285,-52.398 -55.285,-92.36 0,-57.861 46.902,-104.762 104.762,-104.762 57.861,0 104.762,46.901 104.762,104.762 10e-4,39.962 -22.373,74.706 -55.284,92.36 z"
       id="path8" /></g></g></svg>
