<?xml version="1.0" encoding="UTF-8" standalone="no"?>
<svg
   width="48.490173"
   height="48.490173"
   version="1.1"
   viewBox="0 0 12.829439 12.829439"
   id="svg13"
   xmlns:xlink="http://www.w3.org/1999/xlink"
   xmlns="http://www.w3.org/2000/svg"
   xmlns:svg="http://www.w3.org/2000/svg"
   xmlns:rdf="http://www.w3.org/1999/02/22-rdf-syntax-ns#"
   xmlns:cc="http://creativecommons.org/ns#"
   xmlns:dc="http://purl.org/dc/elements/1.1/">
  <defs
     id="defs5">
    <linearGradient
       id="linearGradient14">
      <stop
         style="stop-color:#ff3dfb;stop-opacity:0;"
         offset="0"
         id="stop15" />
      <stop
         style="stop-color:#ff3dfb;stop-opacity:1;"
         offset="1"
         id="stop14" />
    </linearGradient>
    <linearGradient
       xlink:href="#linearGradient14"
       id="linearGradient15"
       x1="8.4358244"
       y1="16.933001"
       x2="8.4358244"
       y2="6.779335"
       gradientUnits="userSpaceOnUse" />
    <filter
       style="color-interpolation-filters:sRGB"
       id="filter15"
       x="-0.027000001"
       y="-0.027000001"
       width="1.054"
       height="1.054">
      <feGaussianBlur
         stdDeviation="0.13693662"
         id="feGaussianBlur15" />
    </filter>
  </defs>
  <metadata
     id="metadata5">
    <rdf:RDF>
      <cc:Work
         rdf:about="">
        <dc:format>image/svg+xml</dc:format>
        <dc:type
           rdf:resource="http://purl.org/dc/dcmitype/StillImage" />
      </cc:Work>
    </rdf:RDF>
  </metadata>
  <g
     id="g15"
     transform="translate(-2.0520385,-2.0520385)">
    <path
       id="path14"
       style="display:inline;opacity:0.6;fill:#ff3dfb;fill-opacity:1;stroke-linecap:round;paint-order:stroke fill markers;filter:url(#filter15)"
       d="m 3.175971,2.3806864 c -0.4374438,0 -0.7952846,0.3578408 -0.7952846,0.7952846 v 10.582091 c 0,0.437443 0.3578408,0.794768 0.7952846,0.794768 h 10.582091 c 0.437443,0 0.794768,-0.357325 0.794768,-0.794768 V 3.175971 c 0,-0.4374438 -0.357325,-0.7952846 -0.794768,-0.7952846 z m 0,0.2656116 h 10.582091 c 0.295442,0 0.529157,0.2342301 0.529157,0.529673 v 10.582091 c 0,0.295442 -0.233715,0.529157 -0.529157,0.529157 H 3.175971 c -0.2954429,0 -0.529673,-0.233715 -0.529673,-0.529157 V 3.175971 c 0,-0.2954429 0.2342301,-0.529673 0.529673,-0.529673 z m 7.204586,1.8515301 C 10.182932,4.4979572 10.02692,4.5708174 9.9216797,4.6466533 9.816346,4.7225563 9.7600629,4.7963306 9.740299,4.825967 L 9.4178444,5.2941463 c -0.00817,-0.00157 -0.016683,-0.00258 -0.025321,-0.00258 H 4.6301172 c -0.073289,0 -0.1322891,0.059 -0.1322891,0.1322891 0,0.073289 0.059,0.132289 0.1322891,0.132289 H 9.2431815 L 7.5792331,8.2081229 c -0.012283,-0.00375 -0.025216,-0.0062 -0.038756,-0.0062 H 4.6301172 c -0.073289,0 -0.1322891,0.059 -0.1322891,0.132289 0,0.073289 0.059,0.1322891 0.1322891,0.1322891 h 2.7868551 l -1.1105046,1.769883 -0.00155,0.0057 c -0.014865,0.0297 -0.021403,0.04745 -0.025838,0.05891 l -0.011369,0.01137 -0.2914494,0.802002 c -0.00754,-0.0013 -0.015324,-0.0026 -0.023254,-0.0026 H 4.6301172 c -0.073289,0 -0.1322891,0.059 -0.1322891,0.13229 0,0.07329 0.059,0.132289 0.1322891,0.132289 H 5.881179 l -0.2191038,0.602018 -0.00207,0.0078 c -0.033368,0.15018 0.028744,0.30723 0.1622608,0.390666 0.125099,0.07818 0.2851997,0.07818 0.4103028,0 l 0.011369,-0.0078 1.0831167,-0.992684 H 12.30288 c 0.07329,0 0.132289,-0.059 0.132289,-0.132289 0,-0.07329 -0.059,-0.13229 -0.132289,-0.13229 H 7.6035206 L 9.3568674,8.4613325 c 0.011356,0.00316 0.023267,0.00517 0.035656,0.00517 h 2.9103596 c 0.07329,0 0.132289,-0.059 0.132289,-0.1322891 0,-0.073289 -0.059,-0.132289 -0.132289,-0.132289 H 9.5284298 L 10.750037,6.3555593 c 0.101802,-0.152712 0.345583,-0.5071195 0.439241,-0.6702301 v -0.00155 c 0.02496,-0.041932 0.04322,-0.084768 0.05736,-0.1276383 h 1.055729 c 0.07329,0 0.132289,-0.059 0.132289,-0.132289 0,-0.073289 -0.059,-0.1322891 -0.132289,-0.1322891 h -1.02369 c -0.0042,-0.061954 -0.01492,-0.1209036 -0.03049,-0.1741461 -0.02357,-0.080587 -0.05506,-0.150846 -0.08785,-0.2072185 -0.02258,-0.038825 -0.04651,-0.062811 -0.07028,-0.089915 -5.6e-5,-1.107e-4 -0.0015,-0.00324 -0.0021,-0.00413 -0.0025,-0.00431 -0.0087,-0.013247 -0.01189,-0.01757 -0.0039,-0.00521 -0.0067,-0.010093 -0.0098,-0.013436 -0.0027,-0.00292 -0.0055,-0.00337 -0.0078,-0.00568 -0.003,-0.00297 -0.005,-0.00731 -0.0078,-0.00982 -0.0099,-0.00892 -0.02083,-0.015657 -0.03152,-0.023771 -0.02138,-0.016229 -0.04585,-0.03448 -0.0739,-0.052709 C 10.89,4.6571722 10.826163,4.6202144 10.767606,4.5939444 10.641419,4.5365899 10.511224,4.4979287 10.381074,4.4978281 Z m 0,0.2640614 h 5.17e-4 c 0.07742,0 0.174813,0.025908 0.27698,0.072346 0.03428,0.015237 0.09485,0.048525 0.142624,0.07958 0.02063,0.013409 0.03709,0.025676 0.05064,0.035656 0.0021,0.00158 0.0064,0.00426 0.0083,0.00568 0.0068,0.00519 0.01245,0.010989 0.01344,0.011885 l 0.01344,0.013436 c -0.0053,-0.0045 0.02225,0.023471 0.04496,0.062527 0.02272,0.039056 0.04585,0.091271 0.06253,0.1483084 0.03336,0.1140759 0.03912,0.2407102 -0.03101,0.3575939 l -0.0021,0.00207 c -0.07368,0.1289366 -0.326122,0.4997668 -0.431489,0.657828 l -3.1408322,4.7463872 -0.021187,0.02119 0.00258,-0.0016 c -0.00756,0.008 -0.012802,0.01583 -0.018603,0.02325 l -0.00775,0.0036 -1.2536455,1.150811 c -0.040241,0.02343 -0.087267,0.02491 -0.1271216,0 -0.031479,-0.01967 -0.04876,-0.06903 -0.042891,-0.105417 l 0.5761809,-1.590053 0.00362,-0.0041 0.00982,-0.01912 c 0.017875,-0.03575 0.028754,-0.0643 0.031522,-0.07028 6.45e-5,-1.39e-4 -5.63e-5,-0.0019 0,-0.0021 L 9.5253293,5.6072993 9.958886,4.9747922 l 0.00207,-0.00207 c 0.00102,-0.00152 0.043995,-0.060283 0.115236,-0.1116189 0.07124,-0.051336 0.169866,-0.099217 0.304368,-0.099217 z" />
    <path
       id="rect7"
       style="fill:url(#linearGradient15);fill-opacity:1;stroke-linecap:round;paint-order:stroke fill markers"
       d="m 3.175971,2.3806864 c -0.4374438,0 -0.7952846,0.3578408 -0.7952846,0.7952846 v 10.582091 c 0,0.437443 0.3578408,0.794768 0.7952846,0.794768 h 10.582091 c 0.437443,0 0.794768,-0.357325 0.794768,-0.794768 V 3.175971 c 0,-0.4374438 -0.357325,-0.7952846 -0.794768,-0.7952846 z m 0,0.2656116 h 10.582091 c 0.295442,0 0.529157,0.2342301 0.529157,0.529673 v 10.582091 c 0,0.295442 -0.233715,0.529157 -0.529157,0.529157 H 3.175971 c -0.2954429,0 -0.529673,-0.233715 -0.529673,-0.529157 V 3.175971 c 0,-0.2954429 0.2342301,-0.529673 0.529673,-0.529673 z m 7.204586,1.8515301 C 10.182932,4.4979572 10.02692,4.5708174 9.9216797,4.6466533 9.816346,4.7225563 9.7600629,4.7963306 9.740299,4.825967 L 9.4178444,5.2941463 c -0.00817,-0.00157 -0.016683,-0.00258 -0.025321,-0.00258 H 4.6301172 c -0.073289,0 -0.1322891,0.059 -0.1322891,0.1322891 0,0.073289 0.059,0.132289 0.1322891,0.132289 H 9.2431815 L 7.5792331,8.2081229 c -0.012283,-0.00375 -0.025216,-0.0062 -0.038756,-0.0062 H 4.6301172 c -0.073289,0 -0.1322891,0.059 -0.1322891,0.132289 0,0.073289 0.059,0.1322891 0.1322891,0.1322891 h 2.7868551 l -1.1105046,1.769883 -0.00155,0.0057 c -0.014865,0.0297 -0.021403,0.04745 -0.025838,0.05891 l -0.011369,0.01137 -0.2914494,0.802002 c -0.00754,-0.0013 -0.015324,-0.0026 -0.023254,-0.0026 H 4.6301172 c -0.073289,0 -0.1322891,0.059 -0.1322891,0.13229 0,0.07329 0.059,0.132289 0.1322891,0.132289 H 5.881179 l -0.2191038,0.602018 -0.00207,0.0078 c -0.033368,0.15018 0.028744,0.30723 0.1622608,0.390666 0.125099,0.07818 0.2851997,0.07818 0.4103028,0 l 0.011369,-0.0078 1.0831167,-0.992684 H 12.30288 c 0.07329,0 0.132289,-0.059 0.132289,-0.132289 0,-0.07329 -0.059,-0.13229 -0.132289,-0.13229 H 7.6035206 L 9.3568674,8.4613325 c 0.011356,0.00316 0.023267,0.00517 0.035656,0.00517 h 2.9103596 c 0.07329,0 0.132289,-0.059 0.132289,-0.1322891 0,-0.073289 -0.059,-0.132289 -0.132289,-0.132289 H 9.5284298 L 10.750037,6.3555593 c 0.101802,-0.152712 0.345583,-0.5071195 0.439241,-0.6702301 v -0.00155 c 0.02496,-0.041932 0.04322,-0.084768 0.05736,-0.1276383 h 1.055729 c 0.07329,0 0.132289,-0.059 0.132289,-0.132289 0,-0.073289 -0.059,-0.1322891 -0.132289,-0.1322891 h -1.02369 c -0.0042,-0.061954 -0.01492,-0.1209036 -0.03049,-0.1741461 -0.02357,-0.080587 -0.05506,-0.150846 -0.08785,-0.2072185 -0.02258,-0.038825 -0.04651,-0.062811 -0.07028,-0.089915 -5.6e-5,-1.107e-4 -0.0015,-0.00324 -0.0021,-0.00413 -0.0025,-0.00431 -0.0087,-0.013247 -0.01189,-0.01757 -0.0039,-0.00521 -0.0067,-0.010093 -0.0098,-0.013436 -0.0027,-0.00292 -0.0055,-0.00337 -0.0078,-0.00568 -0.003,-0.00297 -0.005,-0.00731 -0.0078,-0.00982 -0.0099,-0.00892 -0.02083,-0.015657 -0.03152,-0.023771 -0.02138,-0.016229 -0.04585,-0.03448 -0.0739,-0.052709 C 10.89,4.6571722 10.826163,4.6202144 10.767606,4.5939444 10.641419,4.5365899 10.511224,4.4979287 10.381074,4.4978281 Z m 0,0.2640614 h 5.17e-4 c 0.07742,0 0.174813,0.025908 0.27698,0.072346 0.03428,0.015237 0.09485,0.048525 0.142624,0.07958 0.02063,0.013409 0.03709,0.025676 0.05064,0.035656 0.0021,0.00158 0.0064,0.00426 0.0083,0.00568 0.0068,0.00519 0.01245,0.010989 0.01344,0.011885 l 0.01344,0.013436 c -0.0053,-0.0045 0.02225,0.023471 0.04496,0.062527 0.02272,0.039056 0.04585,0.091271 0.06253,0.1483084 0.03336,0.1140759 0.03912,0.2407102 -0.03101,0.3575939 l -0.0021,0.00207 c -0.07368,0.1289366 -0.326122,0.4997668 -0.431489,0.657828 l -3.1408322,4.7463872 -0.021187,0.02119 0.00258,-0.0016 c -0.00756,0.008 -0.012802,0.01583 -0.018603,0.02325 l -0.00775,0.0036 -1.2536455,1.150811 c -0.040241,0.02343 -0.087267,0.02491 -0.1271216,0 -0.031479,-0.01967 -0.04876,-0.06903 -0.042891,-0.105417 l 0.5761809,-1.590053 0.00362,-0.0041 0.00982,-0.01912 c 0.017875,-0.03575 0.028754,-0.0643 0.031522,-0.07028 6.45e-5,-1.39e-4 -5.63e-5,-0.0019 0,-0.0021 L 9.5253293,5.6072993 9.958886,4.9747922 l 0.00207,-0.00207 c 0.00102,-0.00152 0.043995,-0.060283 0.115236,-0.1116189 0.07124,-0.051336 0.169866,-0.099217 0.304368,-0.099217 z" />
  </g>
</svg>
