<?xml version="1.0" encoding="UTF-8" standalone="no"?>
<!-- Creator: CorelDRAW -->

<svg
   xml:space="preserve"
   width="4.8637767in"
   height="6.0090652in"
   style="clip-rule:evenodd;fill-rule:evenodd;image-rendering:optimizeQuality;shape-rendering:geometricPrecision;text-rendering:geometricPrecision"
   viewBox="0 0 4.8637766 6.009065"
   version="1.1"
   id="svg61"
   xmlns:xlink="http://www.w3.org/1999/xlink"
   xmlns="http://www.w3.org/2000/svg"
   xmlns:svg="http://www.w3.org/2000/svg">
 <defs
   id="defs1"><linearGradient
     id="linearGradient77"><stop
       style="stop-color:#ff3dfb;stop-opacity:0;"
       offset="0"
       id="stop77" /><stop
       style="stop-color:#ff3dfb;stop-opacity:1;"
       offset="1"
       id="stop76" /></linearGradient><linearGradient
     id="linearGradient74"><stop
       style="stop-color:#ff3dfb;stop-opacity:0;"
       offset="0"
       id="stop75" /><stop
       style="stop-color:#ff3dfb;stop-opacity:1;"
       offset="1"
       id="stop74" /></linearGradient><linearGradient
     id="linearGradient73"><stop
       style="stop-color:#00abff;stop-opacity:0;"
       offset="0"
       id="stop73" /><stop
       style="stop-color:#00abff;stop-opacity:1;"
       offset="1"
       id="stop72" /></linearGradient><linearGradient
     id="linearGradient70"><stop
       style="stop-color:#00abff;stop-opacity:0;"
       offset="0"
       id="stop71" /><stop
       style="stop-color:#00abff;stop-opacity:1;"
       offset="1"
       id="stop70" /></linearGradient><style
     type="text/css"
     id="style1">
   <![CDATA[
    .fil2 {fill:none}
    .fil8 {fill:#1E2524}
    .fil1 {fill:#424242}
    .fil7 {fill:#532511}
    .fil0 {fill:#616161}
    .fil14 {fill:#95CD5B}
    .fil9 {fill:#E1E9E7}
    .fil6 {fill:#4E811C;fill-rule:nonzero}
    .fil10 {fill:#588A27;fill-rule:nonzero}
    .fil13 {fill:#659932;fill-rule:nonzero}
    .fil12 {fill:#6CA333;fill-rule:nonzero}
    .fil3 {fill:#76AF3C;fill-rule:nonzero}
    .fil5 {fill:#95CD5B;fill-rule:nonzero}
    .fil15 {fill:#A52120;fill-rule:nonzero}
    .fil4 {fill:#CBD31C;fill-rule:nonzero}
    .fil11 {fill:#E6EBE0;fill-rule:nonzero}
   ]]>
  </style><linearGradient
     xlink:href="#linearGradient70"
     id="linearGradient71"
     x1="3.2335978"
     y1="5.6425729"
     x2="3.2335978"
     y2="2.5561929"
     gradientUnits="userSpaceOnUse" /><linearGradient
     xlink:href="#linearGradient73"
     id="linearGradient72"
     x1="-2.3678825"
     y1="1.5195901"
     x2="-0.68822193"
     y2="-0.10858202"
     gradientUnits="userSpaceOnUse" /><linearGradient
     xlink:href="#linearGradient74"
     id="linearGradient75"
     x1="-3.8800683"
     y1="2.5477109"
     x2="-0.94885635"
     y2="-0.29364562"
     gradientUnits="userSpaceOnUse" /><linearGradient
     xlink:href="#linearGradient77"
     id="linearGradient76"
     x1="189.71844"
     y1="495.88538"
     x2="189.71844"
     y2="44.406368"
     gradientUnits="userSpaceOnUse" /><filter
     style="color-interpolation-filters:sRGB"
     id="filter77"
     x="-0.075646017"
     y="-0.037787727"
     width="1.151292"
     height="1.0755755"><feGaussianBlur
       stdDeviation="2.2318034"
       id="feGaussianBlur77" /></filter><filter
     style="color-interpolation-filters:sRGB"
     id="filter78"
     x="-0.65818844"
     y="-0.65818844"
     width="2.3163769"
     height="2.3163769"><feGaussianBlur
       stdDeviation="0.020180182"
       id="feGaussianBlur78" /></filter><filter
     style="color-interpolation-filters:sRGB"
     id="filter79"
     x="-0.030371988"
     y="-0.024301931"
     width="1.060744"
     height="1.0486039"><feGaussianBlur
       stdDeviation="0.038300423"
       id="feGaussianBlur79" /></filter><filter
     style="color-interpolation-filters:sRGB"
     id="filter80"
     x="-0.73443956"
     y="-0.73443956"
     width="2.4688791"
     height="2.4688791"><feGaussianBlur
       stdDeviation="0.029029232"
       id="feGaussianBlur80" /></filter></defs>
 
<style
   type="text/css"
   id="style1-6">
	.st0{display:none;}
	.st1{display:inline;}
	.st2{fill:#0F0F0F;}
	.st3{display:inline;fill-rule:evenodd;clip-rule:evenodd;fill:#0F0F0F;}
</style><g
   id="g80"
   transform="translate(-0.86942958,-0.46919394)"><g
     id="g60"
     transform="matrix(0.0110528,0,0,0.0110528,1.2137079,1.4303162)"
     style="clip-rule:evenodd;display:inline;fill:none;fill-rule:evenodd;stroke:#000000;stroke-width:0.05;stroke-dasharray:none;stroke-opacity:1;image-rendering:optimizeQuality;shape-rendering:geometricPrecision;text-rendering:geometricPrecision">
			
		<circle
   class="fil7"
   transform="matrix(125.87401,-129.85472,129.85458,125.87414,286.0749,-8.3382672)"
   r="0.0603307"
   id="circle58"
   style="clip-rule:evenodd;opacity:0.6;fill:none;fill-opacity:1;fill-rule:evenodd;stroke:#00abff;stroke-width:0.0378967;stroke-dasharray:none;stroke-opacity:1;filter:url(#filter80);image-rendering:optimizeQuality;shape-rendering:geometricPrecision;text-rendering:geometricPrecision"
   cx="0"
   cy="0" /><circle
   class="fil8"
   transform="matrix(76.975036,-79.409299,79.409299,76.975036,286.0749,-8.3382672)"
   r="0.0603307"
   id="circle59"
   style="clip-rule:evenodd;opacity:0.6;fill:none;fill-opacity:1;fill-rule:evenodd;stroke:#ff3dfb;stroke-width:0.061971;stroke-dasharray:none;stroke-opacity:1;filter:url(#filter78);image-rendering:optimizeQuality;shape-rendering:geometricPrecision;text-rendering:geometricPrecision"
   cx="0"
   cy="0" /><path
   id="path60"
   style="clip-rule:evenodd;opacity:0.6;fill:#00abff;fill-opacity:1;fill-rule:evenodd;stroke:none;stroke-width:0.05;stroke-dasharray:none;stroke-opacity:1;filter:url(#filter79);image-rendering:optimizeQuality;shape-rendering:geometricPrecision;text-rendering:geometricPrecision"
   d="M 4.0361104,1.522296 C 3.973947,1.5228711 3.9235012,1.5397803 3.9003855,1.5449235 3.7498412,1.5783986 3.5613387,1.5946634 3.390628,1.6601561 3.2199173,1.7256489 3.0647796,1.84339 2.9902347,2.0722593 c -0.069165,0.2123132 -0.036439,0.4186243 0.037104,0.6230563 0.076997,0.2140047 0.1438074,0.3732212 0.3007918,0.5605452 0.1579471,0.1884759 0.3569895,0.3130486 0.5039026,0.4374971 0.070195,0.059468 0.1285072,0.150661 0.1679675,0.2382807 0.03946,0.08762 0.059249,0.1748244 0.056643,0.2128868 -0.0032,0.046717 -0.00828,0.091404 -0.035157,0.1406265 -0.00643,0.01177 -0.014353,0.023894 -0.023688,0.036258 1.925e-4,-8.784e-4 3.488e-4,-0.00183 5.372e-4,-0.00271 0.01028,-0.041171 0.01604,-0.093557 0.00557,-0.1546327 C 3.9777693,4.0116008 3.8055244,3.8849581 3.6015677,3.9453091 3.4071125,4.0028632 3.1769256,4.1118879 2.8808571,4.0859356 2.8007335,4.0789142 2.7243847,4.062478 2.6520034,4.0431514 c 9.4e-5,-7.18e-5 2.504e-4,-7.29e-5 3.357e-4,-1.612e-4 0.002,-0.00208 0.00331,-0.00478 0.00587,-0.00782 0.00512,-0.00608 0.011709,-0.014577 0.019525,-0.02538 0.015633,-0.021605 0.035582,-0.052686 0.056643,-0.091799 C 2.7764989,3.8397469 2.8227873,3.727568 2.8378849,3.5957036 2.8679865,3.3328669 2.7763022,3.130266 2.6679702,3.0117251 2.6252537,2.9649776 2.5580255,2.9186824 2.4908443,2.8723072 a 0.25729201,0.25729201 0 0 1 -0.07684,0.012046 0.25729201,0.25729201 0 0 1 -0.1903399,-0.084696 c 0.016761,0.022323 0.035529,0.04435 0.057878,0.065841 0.00252,0.00251 0.0049,0.00506 0.00752,0.00755 0.00142,0.00134 0.00247,0.00258 0.00391,0.00392 l 0.015631,0.013671 c 0.002,0.00176 0.00382,0.00409 0.00585,0.00585 0.016473,0.014262 0.033998,0.027177 0.052735,0.041012 0.00616,0.00455 0.01154,0.00911 0.017578,0.01367 l 0.019539,0.015631 c 0.00778,0.00603 0.015197,0.011625 0.022695,0.01731 0.043207,0.035349 0.080943,0.071107 0.1101027,0.1096327 0.020645,0.027276 0.037065,0.055579 0.048478,0.086562 5.864e-4,0.00167 0.00123,0.00331 0.00179,0.005 0.00118,0.0034 0.00218,0.00691 0.00324,0.010381 0.00183,0.00628 0.00363,0.012576 0.00509,0.019096 6.3e-6,2.79e-5 2.06e-5,5.26e-5 2.69e-5,8.05e-5 0.00513,0.022405 0.00799,0.0462 0.00779,0.072247 -2.42e-5,0.00313 -3.444e-4,0.00635 -4.029e-4,0.00949 -3.741e-4,0.011136 -9.405e-4,0.022702 -0.00152,0.033505 v 0.00234 c -0.00805,0.1379326 -0.047204,0.2816007 -0.1067859,0.387327 l -6.312e-4,9.535e-4 -1.208e-4,3.491e-4 c -0.00514,0.00907 -0.0101,0.018509 -0.015537,0.026978 -0.057286,0.089219 -0.107344,0.1388617 -0.1298028,0.1589702 -0.00377,0.00318 -0.00865,0.00754 -0.00964,0.00831 -5.99e-4,4.729e-4 -0.00313,0.00263 -0.00313,0.00263 l -0.037117,0.029302 5.37e-5,1.34e-5 -1.34e-5,1.35e-5 0.027341,0.00976 c -0.037941,-0.00909 -0.08412,-0.029321 -0.1171797,-0.029288 -0.010926,1.08e-5 -0.020829,5.069e-4 -0.031249,0.00195 -0.078251,0.01084 -0.1329859,0.044406 -0.1640597,0.089839 -0.013252,0.019376 -0.0219,0.040717 -0.026898,0.06286 l -0.00244,-3.894e-4 c -4.475e-4,0.00188 3.903e-4,0.00397 0,0.00587 -0.00598,0.029068 -0.00605,0.060178 0,0.089839 0.010078,0.049405 0.019863,0.093484 0.032645,0.1334823 -0.039569,0.00678 -0.132854,0.033608 -0.1986657,0.1419022 -0.00561,0.00922 -0.010439,0.018619 -0.015618,0.027932 l -0.00196,-5.774e-4 c -0.00105,0.0019 -0.00107,0.00414 -0.00126,0.00634 -0.030873,0.05678 -0.052979,0.1157675 -0.05342,0.1831152 -2.051e-4,0.031365 0.00417,0.064075 0.013483,0.098581 l 1.88e-4,0.00102 v 0.00195 l -0.00585,0.019539 h 0.01171 l 0.00782,0.042972 0.00391,-0.013039 c 0.010149,0.025553 0.024339,0.052758 0.040031,0.0806 0.00769,0.014715 0.016064,0.029746 0.026374,0.045712 0.00921,0.014245 0.019679,0.028073 0.031249,0.041025 l 0.00782,0.0078 v 0.00195 l 0.0078,0.00587 0.025394,0.029302 V 5.02797 c 0.082701,0.070733 0.2008498,0.1224044 0.3281329,0.1614814 0.044649,0.013708 0.090561,0.025677 0.1367187,0.036392 v 7.117e-4 l 0.00862,0.00107 c 0.00673,0.00154 0.013419,0.00269 0.020157,0.00416 l 0.010286,0.00258 v -4.565e-4 c 0.075257,0.016175 0.1502731,0.029489 0.2207024,0.039185 v 3.223e-4 c 8.344e-4,1.154e-4 0.00176,5.62e-5 0.0027,0 0.039132,0.00535 0.077106,0.00997 0.1125334,0.013684 6.449e-4,6.76e-5 0.0015,1.072e-4 0.00215,1.745e-4 0.032681,0.0034 0.069613,0.00635 0.1084376,0.00898 0.011689,7.931e-4 0.023569,0.00144 0.035734,0.00215 0.013226,7.613e-4 0.025502,0.00173 0.039226,0.00236 0.00289,1.341e-4 0.00491,-1.286e-4 0.00782,0 l 0.027341,0.00195 v -0.00102 c 0.081979,0.00321 0.1704468,0.004 0.2636746,0.0018 v 0.00117 l 0.017337,-0.00173 c 0.1036623,-0.00288 0.2103123,-0.00922 0.3158858,-0.02162 l 7.654e-4,-6.72e-5 -2.68e-5,-2.68e-5 c 0.1029858,-0.012127 0.2041561,-0.029171 0.2978509,-0.053071 0.00225,-5.677e-4 0.00463,-0.00101 0.00686,-0.00158 l 0.01367,-0.00391 h 0.00195 c 0.00935,-0.00252 0.018155,-0.00516 0.027341,-0.00782 0.00466,-0.00135 0.00901,-0.00314 0.013671,-0.00455 0.029551,-0.00887 0.058452,-0.018249 0.085944,-0.028644 0.041013,-0.015506 0.078316,-0.030838 0.1141315,-0.046249 C 4.148084,5.1300564 4.16,5.1245804 4.17192,5.1192014 4.18351,5.1139614 4.195847,5.1088334 4.207063,5.1035164 l 0.00585,-0.00391 0.00782,-0.00196 0.00585,-0.00391 0.025394,-0.01171 -9.534e-4,-6.312e-4 c 0.1337195,-0.068686 0.232755,-0.1446758 0.3139923,-0.2444714 4.154e-4,-3.807e-4 0.00106,-5.741e-4 0.00141,-0.00101 l 0.00978,-0.01171 0.00976,-0.00392 v -0.00976 l 0.025394,-0.031249 -0.00383,9.535e-4 c 0.034081,-0.049125 0.06551,-0.1033922 0.095613,-0.1649997 l 1.34e-5,-2.69e-5 c 6.917e-4,-0.00141 0.00119,-0.00287 0.00187,-0.00428 0.016595,-0.034546 0.029756,-0.068968 0.039843,-0.1031332 h 0.00125 l 0.00195,-0.00976 v -0.00191 c 1.72e-5,-6.24e-5 2.3e-5,-1.255e-4 4.02e-5,-1.88e-4 l 0.011683,-0.035022 -0.00357,0.00179 c 0.023076,-0.1042451 0.019662,-0.2052795 0.00285,-0.2990863 -5.35e-4,-0.00306 -6.442e-4,-0.00629 -0.00122,-0.00933 l -0.00171,-0.00681 c -0.00149,-0.00755 -0.00304,-0.015029 -0.00469,-0.02248 l -0.00142,-0.0078 -3.223e-4,3.223e-4 C 4.7369355,4.0617225 4.7200857,4.0097424 4.7021792,3.9609402 h 9.4e-4 l -0.00355,-0.00709 C 4.6844364,3.9131391 4.6688818,3.8742845 4.6542921,3.8398393 4.6083888,3.7314699 4.5057326,3.6296635 4.3811099,3.5373688 l -0.0022,-0.00222 -0.010649,-0.00709 C 4.3192027,3.492427 4.2676056,3.4581193 4.213975,3.4257218 4.210355,3.4231318 4.206945,3.4202918 4.203111,3.4179718 L 4.186647,3.4097218 C 4.137826,3.3809718 4.088481,3.3533288 4.0395076,3.3276178 l -0.00242,-0.00145 -0.00195,-0.00195 -0.00391,-0.00195 C 3.9962024,3.3039246 3.9617635,3.285107 3.9277534,3.2655161 3.9062835,3.2529162 3.885217,3.2399727 3.86445,3.2268277 3.8519718,3.2190447 3.8402271,3.2109761 3.8281922,3.2031662 3.6610072,3.0922302 3.5250652,2.9653749 3.4805741,2.8401184 c -3.06e-5,-8.89e-5 -6.38e-5,-2.1e-4 -9.4e-5,-2.954e-4 -2.08e-5,-5.89e-5 -3.28e-5,-1.158e-4 -5.37e-5,-1.746e-4 -0.00442,-0.012603 -0.016154,-0.074469 -0.023393,-0.1502012 -0.00725,-0.07588 -0.011348,-0.1680143 -0.00585,-0.2538984 5.866e-4,-0.00917 0.00176,-0.017817 0.00258,-0.026804 0.00306,-0.013929 0.00568,-0.028935 0.00915,-0.041576 l 0.011723,-0.044919 -0.00586,0.00195 c 0.00911,-0.040472 0.01993,-0.07933 0.035143,-0.1047178 0.012786,-0.019653 0.026286,-0.033855 0.042959,-0.03979 0.018315,-0.00652 0.042562,-0.00489 0.074221,0.0078 0.011843,0.00476 0.020556,0.00838 0.029302,0.013684 0.042228,0.025591 0.065891,0.066073 0.1484286,0.1171798 0.098576,0.061042 0.1774818,0.080627 0.2519647,0.082037 0.00918,1.733e-4 0.02564,0.00692 0.042959,0.019525 0.017318,0.012597 0.035096,0.029708 0.052735,0.048827 0.017639,0.019119 0.034844,0.039442 0.048827,0.056643 0.013983,0.017201 0.023572,0.031668 0.033209,0.041012 0.021457,0.020797 0.055668,0.030619 0.093746,0.027354 0.038078,-0.00326 0.080604,-0.022277 0.1132854,-0.064458 0.017121,-0.022097 0.02569,-0.046072 0.025394,-0.068366 -2.962e-4,-0.022295 -0.00935,-0.042075 -0.019539,-0.05859 -0.011577,-0.018763 -0.02561,-0.033677 -0.038433,-0.04598 -2.285e-4,-2.77e-4 -3.997e-4,-6.269e-4 -6.312e-4,-8.997e-4 l -0.00195,-0.00195 c -0.00882,-0.00827 -0.00556,-0.00409 -0.021486,-0.019525 -0.011212,-0.010865 -0.027205,-0.021668 -0.050788,-0.037117 -0.023583,-0.015449 -0.052361,-0.033687 -0.080076,-0.050774 -0.010078,-0.00621 -0.00996,-0.00589 -0.019525,-0.011723 0.055659,0.00462 0.096356,0.00897 0.1894536,0.00978 0.072745,6.286e-4 0.1272576,-0.00468 0.1757831,-0.025394 0.048526,-0.020713 0.088958,-0.056552 0.1308503,-0.107417 0.044742,-0.054326 0.053174,-0.1131321 0.033209,-0.1601654 -0.019967,-0.047036 -0.0643,-0.081043 -0.1152326,-0.101562 C 4.5718029,1.8210921 4.4395102,1.7466811 4.32393,1.6618347 L 4.32225,1.6601547 C 4.309649,1.6508547 4.297623,1.6417837 4.285348,1.6327597 4.27052,1.6211337 4.255895,1.6094367 4.242188,1.5976567 4.1721613,1.5374804 4.0982738,1.5217208 4.0361104,1.522296 Z m 0.0011,0.049042 c 0.052724,-6.21e-4 0.113228,0.013394 0.1737284,0.065385 0.0043,0.0037 0.00904,0.00728 0.013442,0.010958 0.010947,0.023364 0.026355,0.046776 0.045148,0.071065 0.066014,0.085311 0.1017238,0.128076 0.1230482,0.1503891 0.010662,0.011157 0.018169,0.017507 0.023433,0.021486 0.00263,0.00199 0.00715,0.00358 0.00782,0.00391 3.359e-4,1.621e-4 0.00376,0.00192 0.00391,0.00196 1.432e-4,3.94e-5 0.00782,0.00195 0.00782,0.00195 L 4.488295,1.8964911 4.455086,1.8574271 C 4.427613,1.8248441 4.404901,1.7944661 4.385404,1.7656281 c 0.091182,0.059244 0.1809133,0.1072143 0.2396101,0.1308637 0.041984,0.016914 0.073106,0.043995 0.085931,0.074208 0.012825,0.030213 0.010952,0.065247 -0.025394,0.1093776 -0.03919,0.047584 -0.072096,0.075054 -0.1113248,0.091799 -0.03923,0.016745 -0.086643,0.024035 -0.1562442,0.023433 C 4.2792884,2.194115 4.1376474,2.178432 4.1334961,2.1779708 l -6.849e-4,-2.283e-4 h -0.0018 l -1.477e-4,-1.34e-5 v 1.34e-5 h -0.00391 c -0.1216987,-0.00373 -0.1815021,-0.017619 -0.2050847,-0.021486 -0.00285,-4.647e-4 -0.00489,2.225e-4 -0.0078,0 l -0.082036,-0.00782 0.064445,0.050774 c 0,0 0.1270768,0.099018 0.2247445,0.1785091 C 4.1000354,2.3626754 4.0761251,2.3520436 4.0507747,2.351565 3.9842907,2.3503068 3.9170111,2.3328585 3.8242173,2.2753968 3.7482665,2.228369 3.7311863,2.1905963 3.6777359,2.1582036 c -0.011096,-0.00672 -0.024867,-0.011876 -0.039064,-0.017578 -0.039671,-0.015911 -0.075803,-0.019069 -0.107417,-0.00782 -0.017417,0.0062 -0.032518,0.016965 -0.045752,0.030121 C 3.4458119,2.1558366 3.4057749,2.1432066 3.365248,2.1288846 3.344191,2.1214546 3.312855,2.1138876 3.281264,2.1054516 3.249672,2.0970116 3.21824,2.0864286 3.207043,2.0800576 L 3.179689,2.0644536 3.169929,2.0937416 C 3.152797,2.1526736 3.139688,2.216134 3.130865,2.281248 3.129155,2.293877 3.126475,2.306198 3.124995,2.318352 l -0.00195,0.019539 0.019539,0.0078 c 0.00897,0.00324 0.023455,0.00523 0.035157,0.00782 -0.0076,-7.465e-4 -0.015955,-8.277e-4 -0.023447,-0.00195 l -0.031249,-0.00392 0.00391,0.031262 c 0.00524,0.061143 0.014082,0.1235659 0.029302,0.187493 0.00172,0.0072 0.00412,0.014488 0.00585,0.021486 0.00125,0.00506 0.00267,0.010647 0.00392,0.015618 l 0.00391,0.013684 v 0.00585 h 0.00195 C 3.184485,2.67113 3.197109,2.715039 3.210951,2.7558449 h -0.00195 l 0.00585,0.013671 0.00585,0.015631 v 0.00391 h 0.00196 c 0.023011,0.063166 0.048196,0.1175435 0.076168,0.1679675 h -0.00195 l 0.00585,0.00978 0.00782,0.013671 c 0.0015,0.00255 0.00239,0.00528 0.00391,0.0078 0.014279,0.023822 0.02914,0.046206 0.044919,0.068366 l 0.00782,0.00976 0.00976,0.01367 0.00391,0.00392 c 0.028359,0.037426 0.058142,0.072866 0.091799,0.1093642 0.0023,0.00249 0.00354,0.00532 0.00587,0.00782 l 0.00976,0.00976 0.00782,0.00782 c 0.00152,0.00161 0.00235,0.00422 0.00391,0.00585 0.023333,0.024439 0.049232,0.046598 0.074221,0.068366 0.00205,0.00179 0.00379,0.00408 0.00585,0.00585 l 0.011723,0.00978 0.0078,0.0078 v -0.00195 c 0.031387,0.025992 0.064754,0.050174 0.097654,0.074221 v 0.00195 c 0.00304,0.00222 0.00673,0.00366 0.00978,0.00587 l 0.011683,0.00975 c 0.00263,0.00189 0.00518,0.00396 0.00782,0.00585 0.03749,0.026874 0.075163,0.052643 0.113272,0.080089 0.00268,0.00193 0.00514,0.00392 0.00782,0.00585 l 0.011723,0.0078 0.0078,0.00587 c 0.037441,0.027472 0.074485,0.056942 0.1113383,0.087892 l 0.00585,0.00585 0.00585,0.00391 0.00587,0.00392 c 0.027257,0.023529 0.053685,0.049413 0.080076,0.076168 0.00644,0.00652 0.013284,0.012812 0.019526,0.019525 0.0025,0.00269 0.00536,0.00511 0.00782,0.00782 l 0.0078,0.00976 0.00782,0.00978 c 0.039676,0.046264 0.076052,0.096073 0.1054698,0.148442 4.404e-4,7.841e-4 0.00152,0.00117 0.00195,0.00195 l 0.00782,0.015618 c 0.033027,0.061856 0.057783,0.1267906 0.074221,0.1933613 6.348e-4,0.00257 0.00134,0.00525 0.00195,0.00782 l 0.00391,0.01367 0.00195,0.013671 c 0.010042,0.050901 0.014633,0.1028133 0.01367,0.1542969 -3.62e-5,0.00194 5.26e-5,0.00392 0,0.00585 v 0.015631 c -0.00145,0.029784 -0.00625,0.058362 -0.01171,0.087892 -0.010031,0.054199 -0.025911,0.1052343 -0.048827,0.1523363 -2.667e-4,5.483e-4 2.685e-4,0.00142 0,0.00196 l -0.0078,0.013657 C 4.224738,4.632973 4.1742698,4.6944438 4.109378,4.7480428 l -0.00195,0.00196 -0.00978,0.0078 c -0.030964,0.024478 -0.066785,0.047804 -0.1035092,0.068366 -0.00465,0.00261 -0.00894,0.00526 -0.013684,0.0078 l -0.01171,0.00587 c -0.054713,0.028212 -0.1157788,0.052845 -0.181638,0.07226 -0.00954,0.00281 -0.019197,0.00516 -0.029302,0.00782 -0.00411,0.00108 -0.00752,0.00285 -0.011723,0.00391 l -0.01367,0.00195 -0.0078,0.00195 c -0.06835,0.016031 -0.1485941,0.029074 -0.2324257,0.039064 l -0.015631,0.00195 -0.019526,0.00195 c -0.070927,0.00761 -0.1455933,0.013516 -0.2207024,0.017578 l -0.021486,0.00196 c -0.088974,0.00443 -0.1790442,0.0054 -0.2656217,0.00585 -0.00191,9.9e-6 -0.00396,-8.2e-6 -0.00587,0 H 2.927731 c -0.00485,1.03e-5 -0.00884,6e-7 -0.013671,0 -0.079335,-8.3e-6 -0.155056,-0.00138 -0.2246102,-0.00391 h -0.015631 c -0.00134,-5.16e-5 -0.00257,5.25e-5 -0.00391,0 -0.025457,-9.993e-4 -0.050829,-0.00263 -0.074221,-0.00391 -0.058508,-0.00318 -0.1129307,-0.00953 -0.1660069,-0.019539 l -0.011723,-0.00195 -0.015631,-0.00391 c -0.068295,-0.014424 -0.1325747,-0.03277 -0.1894455,-0.05468 -0.00178,-6.857e-4 -0.00408,-0.00127 -0.00585,-0.00196 l -0.01367,-0.00585 C 2.1078886,4.8656204 2.0373305,4.8232917 1.9863241,4.7851601 l -0.01171,-0.00782 c -8.236e-4,-6.455e-4 -0.00115,-0.00131 -0.00196,-0.00195 -0.017904,-0.014196 -0.032983,-0.028424 -0.044919,-0.041025 -0.023159,-0.024417 -0.040083,-0.052296 -0.052735,-0.082023 l -0.00585,-0.013684 c -0.017727,-0.047342 -0.023786,-0.096656 -0.021728,-0.1352415 0.00462,-0.00829 0.00881,-0.016511 0.013912,-0.02491 0.069363,-0.1141385 0.1550978,-0.1129805 0.1660204,-0.1132854 0.00267,0.00457 0.00243,0.00424 0.00585,0.00978 0.01025,0.016613 0.021294,0.035574 0.035157,0.048827 0.00735,0.00702 0.017912,0.014514 0.031235,0.022466 0.00919,0.00572 0.020072,0.0112 0.031987,0.016705 0.00406,0.00199 0.00656,0.00369 0.010998,0.00575 0.036958,0.017127 0.0872,0.035151 0.1562442,0.056643 0.1388551,0.04322 0.5305315,0.1445301 0.8632842,0.1386793 0.3294515,-0.00581 0.5134127,-0.052114 0.712895,-0.1738359 0.041408,-0.02527 0.073836,-0.050206 0.1017367,-0.074946 l 0.00177,-0.00122 -1.477e-4,-1.477e-4 c 0.039089,-0.03493 0.067552,-0.06942 0.086092,-0.1033749 0.031909,-0.058441 0.037707,-0.113853 0.041012,-0.1621126 0.0039,-0.056914 -0.018858,-0.1437431 -0.06055,-0.2363201 C 4.0032268,3.819536 3.942056,3.722991 3.8632817,3.6562541 3.7122427,3.5283106 3.5188802,3.4036714 3.3671813,3.2226514 3.2145277,3.0404953 3.1507564,2.8924117 3.0742185,2.6796844 3.0027454,2.4810063 2.9742353,2.2868851 3.0390619,2.0878904 3.108978,1.8732327 3.246419,1.7691053 3.4082063,1.707036 3.5699936,1.6449668 3.7546309,1.6283345 3.9101616,1.5937506 c 0.029382,-0.00654 0.074326,-0.021792 0.12705,-0.022413 z M 3.9023449,1.771481 C 3.7088272,1.771338 3.6217486,1.8955694 3.6093686,1.9121074 c -8.86e-5,3.56e-5 -2.199e-4,5.9e-6 -3.357e-4,0 l -0.043536,0.069118 0.00423,-0.00169 0.1955771,-0.1236391 0.0089,-0.00404 c 0.027311,-0.016952 0.065089,-0.02963 0.1281377,-0.029584 0.042169,3.12e-5 0.089514,0.00596 0.1425736,0.023433 0.1098229,0.036178 0.1495914,0.054667 0.1933614,0.07226 -0.00146,-3.73e-4 -0.00284,-6.526e-4 -0.00426,-9.803e-4 L 4.3913754,1.972607 4.3789004,1.933596 c 0,0 -0.00378,-0.00765 -0.00391,-0.00782 -1.23e-4,-1.764e-4 -0.00267,-0.00268 -0.00391,-0.00391 -0.00247,-0.00244 -0.00425,-0.0035 -0.00782,-0.00585 C 4.3561364,1.9113051 4.344273,1.903544 4.324212,1.894529 4.2840974,1.8764991 4.2087339,1.847637 4.0605508,1.7988219 4.0028088,1.7798011 3.950004,1.7715161 3.9023461,1.7714809 Z M 3.2128843,2.1328098 c 0.018007,0.00665 0.03568,0.013941 0.056643,0.019539 0.032416,0.00866 0.064625,0.017978 0.080076,0.023433 0.032784,0.011586 0.067535,0.022663 0.1033347,0.031074 -0.018563,0.033248 -0.03074,0.073639 -0.039132,0.1177438 -0.032038,0.00422 -0.064253,0.0061 -0.095452,0.00157 -0.018647,-0.00271 -0.050196,-0.00666 -0.082023,-0.011723 -0.02387,-0.00379 -0.042483,-0.00766 -0.05859,-0.011723 6.181e-4,-0.00477 0.0013,-0.00883 0.00195,-0.01367 0.00733,-0.054088 0.019518,-0.1060428 0.033196,-0.1562441 z m 0.7812611,0.080076 c 0.033712,0.00492 0.052989,0.010993 0.1241627,0.013603 6.81e-4,4.122e-4 0.019234,0.011775 0.024723,0.015107 0.017196,0.010845 0.040039,0.025322 0.08158,0.051365 0.028369,0.017786 0.057442,0.036082 0.080076,0.050788 0.011317,0.00735 0.0201,0.012602 0.027341,0.017578 0.00724,0.00498 0.0134,0.011384 0.011723,0.00976 0.00608,0.0059 0.013935,0.012774 0.021567,0.0197 0.0039,0.00606 0.00828,0.015343 0.00772,0.023272 -6.581e-4,0.00939 -0.0046,0.01917 -0.023433,0.029302 -0.00995,0.00535 -0.027954,0.00493 -0.050774,-0.00195 -0.022821,-0.00688 -0.048507,-0.02055 -0.072274,-0.041025 C 4.1564057,2.3399631 4.0535189,2.2593861 3.994132,2.2128992 Z m 0.1462263,0.1807115 c 0.018757,0.015413 0.0391,0.031934 0.05299,0.043899 0.028564,0.024608 0.060819,0.043393 0.091799,0.052735 0.03098,0.00934 0.061237,0.01043 0.087892,-0.00391 0.015778,-0.00849 0.027621,-0.019656 0.035788,-0.031907 3.66e-4,0.00217 0.00129,0.00439 0.00132,0.00653 1.426e-4,0.01073 -0.00221,0.02231 -0.01367,0.037104 -0.024485,0.031602 -0.052708,0.04274 -0.078129,0.044919 -0.025421,0.00218 -0.049002,-0.00817 -0.054682,-0.013671 -0.00393,-0.00381 -0.015184,-0.017791 -0.029302,-0.035157 -0.014118,-0.017367 -0.031856,-0.038085 -0.050774,-0.05859 -0.01368,-0.014828 -0.02821,-0.028959 -0.043227,-0.041952 z m -0.7365163,0.00133 c -0.00119,0.012216 -0.00266,0.024201 -0.00346,0.036714 -5.71e-5,8.932e-4 -5.22e-5,0.00181 -1.074e-4,0.0027 -0.00514,0.026817 -0.00966,0.05444 -0.011616,0.085192 -0.029969,0.016779 -0.06109,0.031628 -0.093746,0.039064 -0.028258,0.00644 -0.057335,0.00976 -0.085944,0.01171 -0.00124,-0.00507 -0.00268,-0.010459 -0.00391,-0.015618 C 3.192857,2.5033833 3.185019,2.4524474 3.179678,2.4023395 c 0.029777,0.00257 0.058764,0.00476 0.087892,0.00392 0.043785,-0.00126 0.090275,-0.00215 0.136289,-0.011334 z m -0.017135,0.1949191 c 4.743e-4,0.028761 0.00225,0.057684 0.00585,0.087892 -0.025709,0.018607 -0.057374,0.034293 -0.087892,0.042972 -0.015615,0.00445 -0.032387,0.00853 -0.048827,0.01171 -0.010298,-0.03086 -0.021601,-0.064277 -0.031249,-0.099601 0.028349,-0.00243 0.056547,-0.00513 0.083984,-0.011723 0.026846,-0.00643 0.052412,-0.01958 0.078129,-0.031249 z m 0.017578,0.1562442 c 0.00618,0.030548 0.013966,0.061272 0.023997,0.09235 0.00105,0.00413 0.0021,0.00787 0.00316,0.011307 -0.013364,0.010311 -0.028241,0.019887 -0.038876,0.027207 -0.019509,0.013419 -0.03759,0.027879 -0.056643,0.041012 -0.020364,-0.037998 -0.038971,-0.079227 -0.056643,-0.1249953 0.019335,-0.00416 0.038664,-0.00777 0.056643,-0.013671 0.022412,-0.00735 0.045352,-0.02045 0.068366,-0.033209 z m 0.05256,0.1637643 c 0.00977,0.01898 0.020651,0.037755 0.03329,0.056199 -0.016817,0.010151 -0.033488,0.020783 -0.050694,0.03004 -0.01383,0.00744 -0.028457,0.015504 -0.042972,0.023433 -0.010698,-0.015306 -0.021325,-0.030802 -0.031249,-0.046867 0.027005,-0.017604 0.054362,-0.034574 0.076168,-0.050788 0.00393,-0.00292 0.010073,-0.00794 0.015457,-0.012019 z m -0.9516995,0.034123 c 0.050927,0.035773 0.097713,0.070323 0.1256936,0.1009443 0.09855,0.107837 0.184714,0.2984034 0.1562576,0.5468747 -0.014173,0.1237926 -0.055863,0.2287435 -0.095707,0.302739 -0.019922,0.036998 -0.038364,0.066069 -0.052735,0.085931 -0.00608,0.00841 -0.011657,0.012739 -0.015618,0.017578 l -0.095224,-0.030107 c 0.00622,-0.0072 0.012471,-0.0145 0.019042,-0.022628 l 0.00392,-0.00391 0.00976,-0.011723 c 7.809e-4,-0.00104 0.00117,-0.00285 0.00195,-0.00391 l 0.00782,-0.00976 h -0.00195 c 0.020173,-0.028266 0.040281,-0.05985 0.056643,-0.097654 0.0017,-0.00392 0.00224,-0.0077 0.00391,-0.011723 h 0.00195 l 0.00195,-0.00978 0.00391,-0.00976 0.00196,-0.00391 0.00585,-0.011723 h -0.00195 c 0.014242,-0.037387 0.026888,-0.079288 0.039064,-0.1230482 h 0.00195 c 9.318e-4,-0.00335 0.00104,-0.00638 0.00195,-0.00976 l 0.00391,-0.015631 0.00391,-0.00978 c 0.00898,-0.035837 0.015384,-0.072377 0.021486,-0.1093642 l 0.00195,-0.00587 0.00196,-0.015618 c 7.876e-4,-0.00535 0.00124,-0.01029 0.00195,-0.015631 0.00566,-0.042552 0.00806,-0.084449 0.0078,-0.1249953 h 0.00196 l -0.00196,-0.021486 c -2.009e-4,-0.00531 3.322e-4,-0.010388 0,-0.015631 -4.59e-4,-0.00724 -0.00123,-0.014381 -0.00195,-0.021473 -0.00203,-0.019864 -0.00776,-0.039488 -0.01367,-0.058603 h 0.00195 l -0.00391,-0.01171 -0.00195,-0.00587 -0.00585,-0.015618 c -3.408e-4,-8.163e-4 -0.00162,-0.00114 -0.00196,-0.00195 -0.014066,-0.033071 -0.033482,-0.064092 -0.054682,-0.09376 h 0.00195 l -0.00976,-0.013671 -0.00196,-0.00195 -0.00976,-0.011723 c -8.978e-4,-0.00113 -0.00105,-0.00278 -0.00195,-0.00391 h -0.00196 C 2.6036859,3.040389 2.5833635,3.0188206 2.5625004,2.9980411 l 0.00195,-0.00195 -0.01367,-0.01171 -0.00976,-0.00978 c -0.00147,-0.00137 -0.00245,-0.00255 -0.00392,-0.00391 -0.010645,-0.0098 -0.021379,-0.018457 -0.031934,-0.026723 z m 1.0240539,0.072865 c 0.01493,0.017784 0.030773,0.035357 0.047968,0.052574 -0.00934,0.010643 -0.018445,0.021819 -0.028348,0.032149 -0.014846,0.015485 -0.031767,0.031224 -0.048827,0.046866 -0.023493,-0.025855 -0.044023,-0.052234 -0.064458,-0.078115 0.015121,-0.00805 0.031071,-0.015943 0.04688,-0.025394 0.015597,-0.00932 0.031024,-0.018493 0.046785,-0.02808 z m 0.09701,0.097251 c 0.021046,0.018539 0.043128,0.036651 0.066271,0.05444 -0.00371,0.00233 -0.00718,0.00485 -0.01085,0.00724 v -0.00585 l -0.039064,0.031249 c -0.017049,0.013 -0.031939,0.028758 -0.04688,0.044919 -0.018423,-0.016406 -0.035457,-0.033006 -0.052735,-0.050774 0.021193,-0.019475 0.043814,-0.038629 0.064458,-0.060551 0.00634,-0.00675 0.012588,-0.013653 0.0188,-0.020667 z m 0.1218261,0.096848 c 0.010265,0.00725 0.021339,0.013785 0.032095,0.020506 0.012453,0.00834 0.024449,0.01693 0.037225,0.025072 -0.02118,0.014001 -0.042411,0.026846 -0.061504,0.046209 -0.01155,0.011716 -0.02446,0.026612 -0.037117,0.041025 -0.024879,-0.018312 -0.048612,-0.037517 -0.07226,-0.056643 0.010512,-0.011787 0.020072,-0.023351 0.033196,-0.033209 0.022016,-0.016526 0.04508,-0.030819 0.068366,-0.042959 z m -1.0820395,0.031249 c 0.00451,0.015222 0.00823,0.029771 0.00978,0.044919 4.412e-4,0.00432 0.00162,0.00925 0.00195,0.01367 -0.00516,7.185e-4 -0.010457,0.00134 -0.015618,0.00195 -0.00252,2.959e-4 -0.00531,-2.804e-4 -0.00782,0 1.058e-4,-0.00461 -3.6e-5,-0.00908 0,-0.01367 1.205e-4,-0.015515 -9.874e-4,-0.030429 -0.00263,-0.045081 0.00467,-5.264e-4 0.0094,-0.00138 0.014342,-0.00179 z m 1.2109426,0.050774 c 0.00288,0.00173 0.00594,0.00325 0.00884,0.00496 0.029144,0.017165 0.058632,0.033778 0.088563,0.049928 -0.0247,0.017687 -0.04974,0.034516 -0.072005,0.052547 -0.016809,0.013603 -0.029651,0.029466 -0.042972,0.044919 -0.030636,-0.021962 -0.060055,-0.043231 -0.089839,-0.064458 0.012549,-0.01377 0.026625,-0.025951 0.039064,-0.039064 0.019004,-0.020039 0.0436,-0.034913 0.068353,-0.048827 z m -1.199219,0.070313 c -6.249e-4,0.02917 -0.00202,0.059068 -0.00585,0.089852 -0.011179,-2.726e-4 -0.02164,-0.00309 -0.031987,-0.00559 0.00443,-0.026706 0.00799,-0.053504 0.010327,-0.080358 0.00201,1.57e-5 0.004,2.248e-4 0.00603,0 0.00706,-7.797e-4 0.014414,-0.003 0.021486,-0.00391 z m 1.3593711,0.019539 c 0.028678,0.015337 0.057332,0.032377 0.085944,0.048827 -0.021625,0.016375 -0.045864,0.032543 -0.062498,0.048827 -0.023017,0.02252 -0.044386,0.045198 -0.066405,0.066405 -0.027108,-0.022175 -0.054912,-0.042339 -0.082037,-0.062498 0.011192,-0.01242 0.021647,-0.02499 0.035157,-0.035157 0.030476,-0.022915 0.059606,-0.046372 0.089839,-0.066406 z m 0.1464949,0.083984 c 0.040493,0.024635 0.07927,0.049798 0.1171798,0.076168 -0.032511,0.016306 -0.06424,0.032418 -0.093746,0.054682 -0.027354,0.020654 -0.056508,0.044369 -0.083984,0.068366 -0.00374,-0.00392 -0.00791,-0.00786 -0.011723,-0.011723 -0.022549,-0.02286 -0.045318,-0.044047 -0.068353,-0.064445 0.020083,-0.01969 0.039307,-0.03974 0.05859,-0.058603 0.024414,-0.023902 0.053195,-0.047698 0.082036,-0.064445 z m -1.5559957,0.043053 c 0.011509,0.00249 0.022796,0.00314 0.034512,0.00383 -0.00456,0.025261 -0.00966,0.049433 -0.015631,0.074208 -0.00719,-0.00213 -0.01482,-0.00332 -0.021486,-0.00585 -0.00537,-0.00203 -0.00999,-0.00477 -0.014557,-0.00726 0.0064,-0.021301 0.012123,-0.042919 0.017162,-0.064915 z m 1.7317653,0.076088 c 0.054328,0.041182 0.1017849,0.083803 0.1425871,0.126956 -0.00314,0.00122 -0.00665,0.00276 -0.00978,0.00391 -0.042163,0.015432 -0.089709,0.027746 -0.134758,0.050774 -0.038134,0.019489 -0.070767,0.047196 -0.1035227,0.074221 C 4.227733,3.7977988 4.19914,3.7545778 4.166004,3.7148468 4.192488,3.6915178 4.221158,3.6698998 4.249988,3.6484418 4.286395,3.6213168 4.321521,3.6000598 4.3593656,3.5859438 Z m -1.7695137,0.049727 c 0.00632,0.00311 0.012494,0.00648 0.019525,0.00886 0.00605,0.00204 0.013092,0.00403 0.019525,0.00587 -0.00924,0.03186 -0.018966,0.061728 -0.029302,0.089839 -0.00402,-0.00191 -0.00789,-0.00377 -0.01171,-0.00585 -0.011136,-0.00605 -0.021742,-0.013145 -0.03192,-0.020586 0.012444,-0.024792 0.023647,-0.050993 0.033881,-0.078129 z M 4.546875,3.7636711 c 0.018832,0.024085 0.035356,0.047245 0.048209,0.070582 0.00442,0.00839 0.00881,0.01678 0.012341,0.025125 0.00998,0.023552 0.020936,0.050097 0.031249,0.076168 -0.00867,0.00427 -0.016658,0.00976 -0.025394,0.013671 -0.048242,0.021557 -0.1002289,0.041079 -0.1503892,0.064458 -0.038539,0.017973 -0.075285,0.035178 -0.1132854,0.050774 -0.015581,-0.057102 -0.037419,-0.112483 -0.064445,-0.1660069 0.031489,-0.027013 0.063753,-0.052981 0.097654,-0.070313 0.03939,-0.020138 0.084449,-0.033297 0.1308503,-0.050788 0.011561,-0.00437 0.022252,-0.00907 0.033209,-0.013671 z m -2.0214784,0.00585 c 0.010768,0.00729 0.020885,0.016133 0.031249,0.021486 0.0068,0.00351 0.014263,0.0066 0.021473,0.00978 -0.013734,0.031385 -0.031846,0.055735 -0.048827,0.080076 -0.00939,-0.00533 -0.019062,-0.011398 -0.027341,-0.017578 -0.00927,-0.00692 -0.016505,-0.016233 -0.024588,-0.024521 0.00557,-0.00731 0.012461,-0.018028 0.018559,-0.026656 0.00836,-0.011293 0.01687,-0.023163 0.025568,-0.036714 0.00125,-0.00195 0.00267,-0.00388 0.00391,-0.00585 z m -0.089275,0.1177975 c 0.00786,0.00764 0.014871,0.016627 0.022856,0.022829 0.010632,0.00826 0.021808,0.014722 0.033209,0.021486 -0.0061,0.00685 -0.011868,0.013712 -0.017525,0.019485 l -0.0043,-0.00136 -0.071925,-0.023984 c 0.00779,-0.00704 0.015832,-0.015733 0.026858,-0.027851 0.00354,-0.0034 0.00683,-0.00645 0.010824,-0.010609 z m -0.2271348,0.091195 c 0.067005,-6.61e-5 0.1620306,0.03185 0.2753845,0.068353 0.1133539,0.036503 0.2452164,0.077109 0.3906305,0.089852 0.3104595,0.027214 0.5541345,-0.086929 0.7421833,-0.142587 0.164902,-0.048795 0.2955118,0.041184 0.3308723,0.1503354 l -7.923e-4,6.72e-5 c 0,0 -3.064e-4,0.01288 -0.017578,0.039064 -0.017274,0.026186 -0.051117,0.062649 -0.1191403,0.097654 l -0.013671,0.0078 -0.00976,0.00392 c -0.010636,0.00489 -0.021114,0.00893 -0.033209,0.01367 -0.034788,0.013636 -0.084622,0.028681 -0.1445343,0.041012 -0.0015,3.091e-4 -0.00239,-3.073e-4 -0.00391,0 h -0.00585 l -0.00978,0.00195 -0.017578,0.00391 c -0.046526,0.00866 -0.096016,0.01646 -0.1503892,0.023447 l -0.01367,0.00195 -0.015618,0.00195 c -0.044411,0.00533 -0.091687,0.00974 -0.1386793,0.01367 l -0.023433,0.00195 c -0.061287,0.00476 -0.1239466,0.00788 -0.1855458,0.00978 -0.00323,9.97e-5 -0.00655,-9.12e-5 -0.00978,0 l -0.013671,0.00195 c -0.004,9.77e-5 -0.00772,-8.41e-5 -0.011723,0 -0.057269,0.00121 -0.1144742,-1.636e-4 -0.1679675,-0.00195 h -0.015618 c -0.00142,-5.61e-5 -0.00249,5.84e-5 -0.00391,0 -0.068065,-0.0028 -0.1308409,-0.0091 -0.1855458,-0.017578 -0.00906,-0.0014 -0.018415,-0.00243 -0.027354,-0.00391 h -0.00585 l -0.00975,-0.00196 C 2.5191065,4.3700653 2.4562032,4.3553355 2.3984407,4.3398474 l -0.00976,-0.00196 -0.013684,-0.00391 C 2.2882443,4.3094495 2.2208902,4.2835039 2.1718699,4.2578109 l -0.00391,-0.00195 -0.01171,-0.00782 c -0.032352,-0.018242 -0.055891,-0.035966 -0.070313,-0.050774 -0.028106,-0.028838 -0.040967,-0.055839 -0.04688,-0.076168 -0.00439,-0.015075 -0.00472,-0.019736 -0.00494,-0.023071 0.00345,-0.018565 0.010187,-0.035978 0.020573,-0.051164 0.022113,-0.032331 0.060792,-0.05697 0.1289031,-0.066406 0.00788,-0.00109 0.01646,-0.00194 0.025394,-0.00195 z m 2.4511734,0.019526 c 0.015178,0.042921 0.030344,0.087452 0.041011,0.1347715 -0.00892,0.00583 -0.01802,0.012136 -0.027341,0.017578 -0.050065,0.029189 -0.1041945,0.04999 -0.1601654,0.070313 -0.045226,0.016427 -0.090512,0.02909 -0.1367187,0.039064 -7.893e-4,-0.044454 -0.00335,-0.089071 -0.01171,-0.1328244 0.041067,-0.016323 0.080861,-0.034876 0.1191404,-0.052721 0.047759,-0.02226 0.100086,-0.040028 0.1503892,-0.062511 0.00888,-0.00396 0.016627,-0.00947 0.025394,-0.013671 z m 0.046867,0.2070319 c 0.012417,0.086629 0.016886,0.1757368 -0.0078,0.2695296 -0.0013,5.9e-4 -0.00262,0.00139 -0.00391,0.00196 -0.03764,0.016785 -0.078325,0.028118 -0.1191404,0.039051 -0.061554,0.01649 -0.1225422,0.026435 -0.1855592,0.025394 -0.021387,-3.485e-4 -0.042982,-0.00221 -0.064445,-0.00391 0.017994,-0.042559 0.03423,-0.085577 0.042972,-0.1328109 0.0048,-0.025947 0.0059,-0.052058 0.0078,-0.078129 0.049108,-0.00979 0.097632,-0.022303 0.1445343,-0.039064 0.055863,-0.019959 0.1141263,-0.040479 0.1679675,-0.070313 0.00617,-0.00342 0.011529,-0.00811 0.017578,-0.01171 z m -0.7636693,0.029302 c -0.00518,0.069051 -0.016612,0.1441907 -0.025112,0.1611859 -0.00288,0.0019 -0.017519,0.010708 -0.03944,0.023017 -0.00159,-0.01662 -0.00145,-0.033357 -0.00576,-0.049445 -0.00505,-0.018836 -0.013426,-0.037661 -0.021486,-0.056643 0.045088,-0.026553 0.071249,-0.05327 0.091799,-0.078115 z m -1.8867204,0.00195 c 0.015885,0.015451 0.036571,0.031219 0.062498,0.04688 -0.003,0.036265 0.00115,0.073321 0.00392,0.1015621 3.267e-4,0.00333 9.076e-4,0.00669 0.00142,0.010045 -0.0097,-0.00605 -0.016273,-0.010833 -0.017055,-0.012005 -0.00855,-0.012818 -0.016002,-0.026664 -0.022722,-0.041549 -0.011028,-0.031851 -0.019027,-0.068772 -0.028066,-0.1049327 z m 0.1269559,0.078129 c 0.043121,0.020361 0.093352,0.041605 0.1562442,0.060537 -0.0024,0.014481 -0.0069,0.030225 -0.0078,0.039064 -0.00207,0.020231 4.341e-4,0.040587 0.00169,0.060819 -0.053266,-0.014903 -0.098999,-0.030304 -0.1358727,-0.044731 -0.00449,-0.016144 -0.00822,-0.032978 -0.010354,-0.051244 -0.00252,-0.02153 -0.00294,-0.042995 -0.00391,-0.064445 z m 1.6093753,0.029288 c 0.00745,0.017917 0.015712,0.035922 0.019525,0.054696 0.0036,0.017756 0.00391,0.035165 0.00388,0.052641 -0.034213,0.017009 -0.073841,0.035761 -0.1249685,0.056737 -0.010167,0.00417 -0.021387,0.00821 -0.033196,0.012167 0.00118,-0.015777 9.413e-4,-0.031246 0,-0.047323 h 0.00585 l -0.00585,-0.027355 c -0.003,-0.019592 -0.010407,-0.037964 -0.017578,-0.056629 0.050399,-0.011168 0.09714,-0.021944 0.1308503,-0.035157 0.00779,-0.00306 0.014231,-0.00664 0.021486,-0.00978 z M 2.402335,4.3925689 h 1.35e-5 c 0.048405,0.012526 0.1012201,0.02254 0.1601519,0.033209 -0.00489,0.022293 -0.00957,0.045642 -0.00978,0.066405 -1.076e-4,0.011418 0.00102,0.022094 0.00176,0.033209 -0.054897,-0.010486 -0.1064158,-0.021791 -0.1545924,-0.033679 -0.00262,-0.020421 -0.0054,-0.040794 -0.00342,-0.062028 8.212e-4,-0.00883 0.00397,-0.023602 0.00587,-0.037117 z m 1.175786,0.011723 c 0.00861,0.020008 0.016126,0.039766 0.017578,0.06055 0.00177,0.025369 -0.00162,0.050456 -0.00563,0.074543 -0.045421,0.010996 -0.09917,0.020101 -0.1578556,0.027516 0.013344,-0.030756 0.028522,-0.063549 0.026764,-0.1020589 -5.761e-4,-0.012654 -0.00344,-0.027264 -0.00585,-0.041012 0.044015,-0.00602 0.08612,-0.012364 0.1249953,-0.019539 z m -0.1894536,0.025394 c 0.0034,0.017113 0.00707,0.033892 0.00587,0.04688 -0.003,0.032426 -0.016863,0.064955 -0.032726,0.098473 -0.032946,0.00296 -0.067557,0.0052 -0.1033481,0.0068 0.00413,-0.023885 0.00894,-0.048172 0.011079,-0.070112 0.00178,-0.018347 0.00213,-0.043899 0.00195,-0.068366 0.03967,-0.00345 0.079302,-0.00922 0.1171798,-0.013671 z m -0.7617087,0.00976 c 6.522e-4,1.014e-4 0.0013,-1.009e-4 0.00195,0 0.049683,0.0077 0.1067947,0.012518 0.1660069,0.015631 -4.923e-4,0.00264 -0.00152,0.00515 -0.00195,0.00782 -0.00399,0.024744 -0.00635,0.049691 -0.00585,0.076168 1.423e-4,0.008 9.961e-4,0.015502 0.00165,0.023232 -0.058073,-0.00702 -0.1146798,-0.01575 -0.1697939,-0.025179 -0.00101,-0.013162 -0.00191,-0.026061 -0.00179,-0.039064 1.966e-4,-0.020625 0.00541,-0.039828 0.00978,-0.058603 z m 0.5781235,0.00978 c -2.273e-4,0.020723 -2.37e-5,0.042275 -0.00196,0.06055 -0.00261,0.024614 -0.00645,0.050145 -0.011119,0.074194 -0.042907,7.833e-4 -0.087459,5.055e-4 -0.1333614,-8.997e-4 -3.201e-4,-0.041516 0.00197,-0.083666 0.00191,-0.1279766 0.048192,-0.00166 0.096475,-0.00248 0.1445342,-0.00587 z m -0.343764,0.0078 1.34e-5,1.34e-5 c 0.043776,0.00112 0.088802,7.9e-4 0.1347581,0 -1.01e-5,0.039695 -0.00372,0.080201 -0.00385,0.1232227 -0.0427,-0.0023 -0.086355,-0.00554 -0.130904,-0.00995 -0.00208,-2.054e-4 -0.00413,-4.756e-4 -0.0062,-6.849e-4 -0.00172,-0.019761 -0.00307,-0.039064 -0.00161,-0.057918 v -0.00195 c 0.00144,-0.017604 0.00423,-0.035669 0.0078,-0.052735 z m 1.81446,0.09376 c -0.00574,0.014287 -0.010556,0.028598 -0.017578,0.042959 -0.014488,0.02965 -0.029273,0.056548 -0.044248,0.082815 -0.021435,0.037069 -0.043549,0.071249 -0.067077,0.1027304 -0.05458,0.013705 -0.111715,0.020231 -0.1699281,0.019539 -0.064564,-7.85e-4 -0.1272438,-0.015446 -0.1894536,-0.037117 -0.00632,-0.00221 -0.012955,-0.00382 -0.019525,-0.00585 0.050304,-0.046814 0.094254,-0.09806 0.1269559,-0.1562441 0.034262,0.00343 0.068608,0.00589 0.1035092,0.00585 0.069535,-1.02e-4 0.1368234,-0.010962 0.2031241,-0.029302 0.024993,-0.00692 0.04918,-0.016318 0.074221,-0.02538 z m -2.82812,0.1523364 c 0.012645,0.022895 0.023985,0.046387 0.042972,0.066405 0.0097,0.010237 0.022737,0.020612 0.035157,0.031249 -0.00615,0.00824 -0.01549,0.015946 -0.019539,0.023447 -0.013472,0.024977 -0.02156,0.052123 -0.027341,0.080076 -0.015788,-0.025721 -0.029574,-0.049914 -0.040998,-0.072892 -0.00725,-0.015496 -0.01427,-0.030886 -0.019405,-0.045295 -9.946e-4,-0.00272 -0.00205,-0.00546 -0.00295,-0.00814 -0.00114,-0.00339 -0.00203,-0.00667 -0.00305,-0.010004 -10e-7,-1.285e-4 2.82e-5,-2.954e-4 0,-3.894e-4 0.00831,-0.025038 0.019715,-0.046725 0.035157,-0.064458 z m 2.2675747,0.101562 c 0.011506,0.00389 0.023496,0.00793 0.03321,0.011723 0.06703,0.026072 0.141205,0.044913 0.214834,0.046867 0.033813,8.94e-4 0.066297,-0.00642 0.099615,-0.00976 -0.069206,0.070351 -0.1416025,0.1354355 -0.2500041,0.1894536 -0.027953,-0.015541 -0.055573,-0.033723 -0.080076,-0.054682 -0.041274,-0.035315 -0.082995,-0.080762 -0.1054698,-0.126956 0.0308,-0.017786 0.060752,-0.03598 0.087891,-0.056643 z m -2.138685,0.031249 h 1.34e-5 c 0.046742,0.033112 0.1050562,0.065604 0.1738359,0.095707 -0.018873,0.025336 -0.037375,0.052408 -0.04688,0.080076 -0.00675,0.019655 -0.00701,0.041162 -0.00978,0.062498 -0.06158,-0.029177 -0.1183574,-0.062016 -0.1582048,-0.099601 7.517e-4,-0.013678 -7.18e-5,-0.027645 0.00196,-0.041025 0.0033,-0.021474 0.00925,-0.042271 0.017578,-0.060537 0.00323,-0.00709 0.00796,-0.017806 0.01367,-0.027355 0.00303,-0.00507 0.00485,-0.00638 0.0078,-0.00976 z m 1.9980586,0.056643 c 0.028393,0.055018 0.069949,0.1032766 0.1113248,0.1386793 0.018628,0.015938 0.041407,0.028625 0.062511,0.042959 -0.021554,0.00967 -0.043359,0.019288 -0.066003,0.028912 -0.025708,0.010511 -0.050357,0.020985 -0.078532,0.031638 -0.033492,0.012663 -0.069508,0.023735 -0.1065575,0.034069 -0.035479,-0.033798 -0.068112,-0.070134 -0.086804,-0.1121977 -0.012475,-0.028083 -0.022871,-0.058034 -0.029302,-0.087891 -2.598e-4,-0.00121 2.654e-4,-0.00266 0,-0.00391 0.00701,-0.00191 0.014701,-0.00385 0.021486,-0.00585 0.062147,-0.018321 0.1186071,-0.040228 0.1718753,-0.066405 z m -1.7636588,0.064458 c 0.048248,0.017923 0.100443,0.033908 0.1562441,0.046867 -0.00571,0.024644 -0.012045,0.052404 -0.01367,0.064458 -0.00442,0.032639 0.00149,0.066285 0.00584,0.099534 -0.00222,-5.492e-4 -0.00437,-0.0012 -0.00658,-0.00176 -0.069009,-0.017411 -0.1367884,-0.038359 -0.1984911,-0.062618 -6.1e-4,-0.023472 7.286e-4,-0.047423 0.00978,-0.072274 0.010031,-0.027576 0.027731,-0.053049 0.04688,-0.074208 z m 1.5077997,0.021486 c 0.00699,0.033452 0.016145,0.06661 0.029302,0.097654 0.018094,0.042697 0.050096,0.075025 0.080076,0.107417 -0.084225,0.01987 -0.1733612,0.036187 -0.2656218,0.04688 -0.00893,-0.014868 -0.017371,-0.029955 -0.023447,-0.04688 -0.01142,-0.031838 -0.021474,-0.064771 -0.027341,-0.097654 -0.00418,-0.02343 -0.00583,-0.047021 -0.00585,-0.070313 0.076004,-0.00925 0.1482407,-0.022676 0.2128868,-0.037104 z M 2.4316367,5.019533 c 0.051943,0.00935 0.1052696,0.01644 0.1621125,0.019526 0.015555,8.481e-4 0.03236,0.00123 0.048827,0.00196 -0.00516,0.023145 -0.011201,0.04748 -0.013671,0.0703 -0.00351,0.032604 -0.00601,0.065766 -0.00585,0.099615 1.05e-5,0.00265 -3.8e-5,0.00518 0,0.00782 -0.044977,-0.00655 -0.09167,-0.01452 -0.1386659,-0.023406 -0.020205,-0.00389 -0.040409,-0.00811 -0.060671,-0.012516 -0.00668,-0.032388 -0.00946,-0.065682 -0.00575,-0.096902 0.00273,-0.022924 0.00769,-0.045143 0.01367,-0.066392 z m 1.0117262,0.00195 c 4.518e-4,0.023867 -6.2e-6,0.047378 0.00391,0.070313 0.00755,0.044248 0.026795,0.09737 0.050345,0.145528 -0.073314,0.0068 -0.1463514,0.010949 -0.2185941,0.013375 -0.00718,-0.030111 -0.014041,-0.06032 -0.017296,-0.090537 -0.00434,-0.040198 -6.555e-4,-0.081169 0.00195,-0.1230482 0.061083,-0.0036 0.1211726,-0.00968 0.1796908,-0.015631 z M 3.1972666,5.039061 c -0.00289,0.044663 -0.00482,0.090246 0.00195,0.1367187 0.00375,0.025687 0.00985,0.051571 0.015403,0.077014 -0.079731,0.00146 -0.1553147,6.177e-4 -0.2264231,-0.00187 -0.00309,-0.068241 -0.011137,-0.1365423 -0.019445,-0.2040507 0.074928,-6.047e-4 0.1516936,-0.00428 0.228518,-0.00782 z m -0.4902454,0.00391 h 1.34e-5 c 0.062087,0.00205 0.1278639,0.00379 0.1972558,0.00391 0.00841,0.066956 0.01619,0.1342016 0.019405,0.2012843 -0.060125,-0.00309 -0.1167528,-0.00689 -0.1639254,-0.011831 -0.022143,-0.00232 -0.046596,-0.00561 -0.070313,-0.00857 -5.975e-4,-0.030186 -7.928e-4,-0.06046 0.00195,-0.091034 0.00278,-0.030881 0.00639,-0.061403 0.013671,-0.089839 3.414e-4,-0.00133 0.00161,-0.00257 0.00195,-0.00392 z"
   transform="matrix(137.07211,0,0,137.07211,-257.89028,-283.01981)" /><path
   class="st2"
   d="M 103.79106,94.524744 C 113.54109,77.637274 107.80787,55.96744 90.833774,46.16744 89.707942,45.517443 87.269672,44.340646 87.269672,44.340646 l -1.843196,-59.607488 -11.285829,-14.252369 -14.202372,11.199229 9.991344,9.6944824 -12.552372,8.34134203 9.991345,9.69448897 -12.552374,8.3413426 9.991348,9.694487 -8.031091,6.910254 c 0,0 -0.267949,4.464102 0.04974,11.113842 -5.781089,3.01314 -10.849738,7.59231 -14.349746,13.654482 -9.750005,16.887508 -4.016798,38.557315 12.957303,48.357291 16.887494,9.74999 38.5573,4.01678 48.357278,-12.957306 z M 63.309162,77.041471 c 2.799998,-4.849746 8.947112,-6.496858 13.796854,-3.696856 4.849743,2.799997 6.496856,8.947139 3.69685,13.796859 -2.799999,4.84975 -8.947093,6.49686 -13.796854,3.69684 -4.849752,-2.79998 -6.496851,-8.9471 -3.69685,-13.796843 z"
   id="path59"
   style="clip-rule:evenodd;opacity:0.6;fill:#ff3dfb;fill-opacity:1;fill-rule:evenodd;stroke:none;stroke-width:0.0904748;stroke-dasharray:none;stroke-opacity:1;filter:url(#filter77);image-rendering:optimizeQuality;shape-rendering:geometricPrecision;text-rendering:geometricPrecision"
   transform="translate(1.0932373e-5)" /></g><g
     id="g70"
     transform="matrix(0.0110528,0,0,0.0110528,1.2137079,1.4303162)"
     style="clip-rule:evenodd;fill:none;fill-rule:evenodd;stroke:#000000;stroke-width:0.05;stroke-dasharray:none;stroke-opacity:1;image-rendering:optimizeQuality;shape-rendering:geometricPrecision;text-rendering:geometricPrecision">
			
		<circle
   class="fil7"
   transform="matrix(125.87401,-129.85472,129.85458,125.87414,286.0749,-8.3382672)"
   r="0.0603307"
   id="circle68"
   style="clip-rule:evenodd;fill:url(#linearGradient72);fill-opacity:1;fill-rule:evenodd;stroke:#00abff;stroke-width:0.0378967;stroke-dasharray:none;stroke-opacity:1;image-rendering:optimizeQuality;shape-rendering:geometricPrecision;text-rendering:geometricPrecision"
   cx="0"
   cy="0" /><circle
   class="fil8"
   transform="matrix(76.975036,-79.409299,79.409299,76.975036,286.0749,-8.3382672)"
   r="0.0603307"
   id="circle69"
   style="clip-rule:evenodd;fill:url(#linearGradient75);fill-opacity:1;fill-rule:evenodd;stroke:#ff3dfb;stroke-width:0.061971;stroke-dasharray:none;stroke-opacity:1;image-rendering:optimizeQuality;shape-rendering:geometricPrecision;text-rendering:geometricPrecision"
   cx="0"
   cy="0" /><path
   id="path69"
   style="clip-rule:evenodd;fill:url(#linearGradient71);fill-opacity:1;fill-rule:evenodd;stroke:none;stroke-width:0.05;stroke-dasharray:none;stroke-opacity:1;image-rendering:optimizeQuality;shape-rendering:geometricPrecision;text-rendering:geometricPrecision"
   d="M 4.0361104,1.522296 C 3.973947,1.5228711 3.9235012,1.5397803 3.9003855,1.5449235 3.7498412,1.5783986 3.5613387,1.5946634 3.390628,1.6601561 3.2199173,1.7256489 3.0647796,1.84339 2.9902347,2.0722593 c -0.069165,0.2123132 -0.036439,0.4186243 0.037104,0.6230563 0.076997,0.2140047 0.1438074,0.3732212 0.3007918,0.5605452 0.1579471,0.1884759 0.3569895,0.3130486 0.5039026,0.4374971 0.070195,0.059468 0.1285072,0.150661 0.1679675,0.2382807 0.03946,0.08762 0.059249,0.1748244 0.056643,0.2128868 -0.0032,0.046717 -0.00828,0.091404 -0.035157,0.1406265 -0.00643,0.01177 -0.014353,0.023894 -0.023688,0.036258 1.925e-4,-8.784e-4 3.488e-4,-0.00183 5.372e-4,-0.00271 0.01028,-0.041171 0.01604,-0.093557 0.00557,-0.1546327 C 3.9777693,4.0116008 3.8055244,3.8849581 3.6015677,3.9453091 3.4071125,4.0028632 3.1769256,4.1118879 2.8808571,4.0859356 2.8007335,4.0789142 2.7243847,4.062478 2.6520034,4.0431514 c 9.4e-5,-7.18e-5 2.504e-4,-7.29e-5 3.357e-4,-1.612e-4 0.002,-0.00208 0.00331,-0.00478 0.00587,-0.00782 0.00512,-0.00608 0.011709,-0.014577 0.019525,-0.02538 0.015633,-0.021605 0.035582,-0.052686 0.056643,-0.091799 C 2.7764989,3.8397469 2.8227873,3.727568 2.8378849,3.5957036 2.8679865,3.3328669 2.7763022,3.130266 2.6679702,3.0117251 2.6252537,2.9649776 2.5580255,2.9186824 2.4908443,2.8723072 a 0.25729201,0.25729201 0 0 1 -0.07684,0.012046 0.25729201,0.25729201 0 0 1 -0.1903399,-0.084696 c 0.016761,0.022323 0.035529,0.04435 0.057878,0.065841 0.00252,0.00251 0.0049,0.00506 0.00752,0.00755 0.00142,0.00134 0.00247,0.00258 0.00391,0.00392 l 0.015631,0.013671 c 0.002,0.00176 0.00382,0.00409 0.00585,0.00585 0.016473,0.014262 0.033998,0.027177 0.052735,0.041012 0.00616,0.00455 0.01154,0.00911 0.017578,0.01367 l 0.019539,0.015631 c 0.00778,0.00603 0.015197,0.011625 0.022695,0.01731 0.043207,0.035349 0.080943,0.071107 0.1101027,0.1096327 0.020645,0.027276 0.037065,0.055579 0.048478,0.086562 5.864e-4,0.00167 0.00123,0.00331 0.00179,0.005 0.00118,0.0034 0.00218,0.00691 0.00324,0.010381 0.00183,0.00628 0.00363,0.012576 0.00509,0.019096 6.3e-6,2.79e-5 2.06e-5,5.26e-5 2.69e-5,8.05e-5 0.00513,0.022405 0.00799,0.0462 0.00779,0.072247 -2.42e-5,0.00313 -3.444e-4,0.00635 -4.029e-4,0.00949 -3.741e-4,0.011136 -9.405e-4,0.022702 -0.00152,0.033505 v 0.00234 c -0.00805,0.1379326 -0.047204,0.2816007 -0.1067859,0.387327 l -6.312e-4,9.535e-4 -1.208e-4,3.491e-4 c -0.00514,0.00907 -0.0101,0.018509 -0.015537,0.026978 -0.057286,0.089219 -0.107344,0.1388617 -0.1298028,0.1589702 -0.00377,0.00318 -0.00865,0.00754 -0.00964,0.00831 -5.99e-4,4.729e-4 -0.00313,0.00263 -0.00313,0.00263 l -0.037117,0.029302 5.37e-5,1.34e-5 -1.34e-5,1.35e-5 0.027341,0.00976 c -0.037941,-0.00909 -0.08412,-0.029321 -0.1171797,-0.029288 -0.010926,1.08e-5 -0.020829,5.069e-4 -0.031249,0.00195 -0.078251,0.01084 -0.1329859,0.044406 -0.1640597,0.089839 -0.013252,0.019376 -0.0219,0.040717 -0.026898,0.06286 l -0.00244,-3.894e-4 c -4.475e-4,0.00188 3.903e-4,0.00397 0,0.00587 -0.00598,0.029068 -0.00605,0.060178 0,0.089839 0.010078,0.049405 0.019863,0.093484 0.032645,0.1334823 -0.039569,0.00678 -0.132854,0.033608 -0.1986657,0.1419022 -0.00561,0.00922 -0.010439,0.018619 -0.015618,0.027932 l -0.00196,-5.774e-4 c -0.00105,0.0019 -0.00107,0.00414 -0.00126,0.00634 -0.030873,0.05678 -0.052979,0.1157675 -0.05342,0.1831152 -2.051e-4,0.031365 0.00417,0.064075 0.013483,0.098581 l 1.88e-4,0.00102 v 0.00195 l -0.00585,0.019539 h 0.01171 l 0.00782,0.042972 0.00391,-0.013039 c 0.010149,0.025553 0.024339,0.052758 0.040031,0.0806 0.00769,0.014715 0.016064,0.029746 0.026374,0.045712 0.00921,0.014245 0.019679,0.028073 0.031249,0.041025 l 0.00782,0.0078 v 0.00195 l 0.0078,0.00587 0.025394,0.029302 V 5.02797 c 0.082701,0.070733 0.2008498,0.1224044 0.3281329,0.1614814 0.044649,0.013708 0.090561,0.025677 0.1367187,0.036392 v 7.117e-4 l 0.00862,0.00107 c 0.00673,0.00154 0.013419,0.00269 0.020157,0.00416 l 0.010286,0.00258 v -4.565e-4 c 0.075257,0.016175 0.1502731,0.029489 0.2207024,0.039185 v 3.223e-4 c 8.344e-4,1.154e-4 0.00176,5.62e-5 0.0027,0 0.039132,0.00535 0.077106,0.00997 0.1125334,0.013684 6.449e-4,6.76e-5 0.0015,1.072e-4 0.00215,1.745e-4 0.032681,0.0034 0.069613,0.00635 0.1084376,0.00898 0.011689,7.931e-4 0.023569,0.00144 0.035734,0.00215 0.013226,7.613e-4 0.025502,0.00173 0.039226,0.00236 0.00289,1.341e-4 0.00491,-1.286e-4 0.00782,0 l 0.027341,0.00195 v -0.00102 c 0.081979,0.00321 0.1704468,0.004 0.2636746,0.0018 v 0.00117 l 0.017337,-0.00173 c 0.1036623,-0.00288 0.2103123,-0.00922 0.3158858,-0.02162 l 7.654e-4,-6.72e-5 -2.68e-5,-2.68e-5 c 0.1029858,-0.012127 0.2041561,-0.029171 0.2978509,-0.053071 0.00225,-5.677e-4 0.00463,-0.00101 0.00686,-0.00158 l 0.01367,-0.00391 h 0.00195 c 0.00935,-0.00252 0.018155,-0.00516 0.027341,-0.00782 0.00466,-0.00135 0.00901,-0.00314 0.013671,-0.00455 0.029551,-0.00887 0.058452,-0.018249 0.085944,-0.028644 0.041013,-0.015506 0.078316,-0.030838 0.1141315,-0.046249 C 4.148084,5.1300564 4.16,5.1245804 4.17192,5.1192014 4.18351,5.1139614 4.195847,5.1088334 4.207063,5.1035164 l 0.00585,-0.00391 0.00782,-0.00196 0.00585,-0.00391 0.025394,-0.01171 -9.534e-4,-6.312e-4 c 0.1337195,-0.068686 0.232755,-0.1446758 0.3139923,-0.2444714 4.154e-4,-3.807e-4 0.00106,-5.741e-4 0.00141,-0.00101 l 0.00978,-0.01171 0.00976,-0.00392 v -0.00976 l 0.025394,-0.031249 -0.00383,9.535e-4 c 0.034081,-0.049125 0.06551,-0.1033922 0.095613,-0.1649997 l 1.34e-5,-2.69e-5 c 6.917e-4,-0.00141 0.00119,-0.00287 0.00187,-0.00428 0.016595,-0.034546 0.029756,-0.068968 0.039843,-0.1031332 h 0.00125 l 0.00195,-0.00976 v -0.00191 c 1.72e-5,-6.24e-5 2.3e-5,-1.255e-4 4.02e-5,-1.88e-4 l 0.011683,-0.035022 -0.00357,0.00179 c 0.023076,-0.1042451 0.019662,-0.2052795 0.00285,-0.2990863 -5.35e-4,-0.00306 -6.442e-4,-0.00629 -0.00122,-0.00933 l -0.00171,-0.00681 c -0.00149,-0.00755 -0.00304,-0.015029 -0.00469,-0.02248 l -0.00142,-0.0078 -3.223e-4,3.223e-4 C 4.7369355,4.0617225 4.7200857,4.0097424 4.7021792,3.9609402 h 9.4e-4 l -0.00355,-0.00709 C 4.6844364,3.9131391 4.6688818,3.8742845 4.6542921,3.8398393 4.6083888,3.7314699 4.5057326,3.6296635 4.3811099,3.5373688 l -0.0022,-0.00222 -0.010649,-0.00709 C 4.3192027,3.492427 4.2676056,3.4581193 4.213975,3.4257218 4.210355,3.4231318 4.206945,3.4202918 4.203111,3.4179718 L 4.186647,3.4097218 C 4.137826,3.3809718 4.088481,3.3533288 4.0395076,3.3276178 l -0.00242,-0.00145 -0.00195,-0.00195 -0.00391,-0.00195 C 3.9962024,3.3039246 3.9617635,3.285107 3.9277534,3.2655161 3.9062835,3.2529162 3.885217,3.2399727 3.86445,3.2268277 3.8519718,3.2190447 3.8402271,3.2109761 3.8281922,3.2031662 3.6610072,3.0922302 3.5250652,2.9653749 3.4805741,2.8401184 c -3.06e-5,-8.89e-5 -6.38e-5,-2.1e-4 -9.4e-5,-2.954e-4 -2.08e-5,-5.89e-5 -3.28e-5,-1.158e-4 -5.37e-5,-1.746e-4 -0.00442,-0.012603 -0.016154,-0.074469 -0.023393,-0.1502012 -0.00725,-0.07588 -0.011348,-0.1680143 -0.00585,-0.2538984 5.866e-4,-0.00917 0.00176,-0.017817 0.00258,-0.026804 0.00306,-0.013929 0.00568,-0.028935 0.00915,-0.041576 l 0.011723,-0.044919 -0.00586,0.00195 c 0.00911,-0.040472 0.01993,-0.07933 0.035143,-0.1047178 0.012786,-0.019653 0.026286,-0.033855 0.042959,-0.03979 0.018315,-0.00652 0.042562,-0.00489 0.074221,0.0078 0.011843,0.00476 0.020556,0.00838 0.029302,0.013684 0.042228,0.025591 0.065891,0.066073 0.1484286,0.1171798 0.098576,0.061042 0.1774818,0.080627 0.2519647,0.082037 0.00918,1.733e-4 0.02564,0.00692 0.042959,0.019525 0.017318,0.012597 0.035096,0.029708 0.052735,0.048827 0.017639,0.019119 0.034844,0.039442 0.048827,0.056643 0.013983,0.017201 0.023572,0.031668 0.033209,0.041012 0.021457,0.020797 0.055668,0.030619 0.093746,0.027354 0.038078,-0.00326 0.080604,-0.022277 0.1132854,-0.064458 0.017121,-0.022097 0.02569,-0.046072 0.025394,-0.068366 -2.962e-4,-0.022295 -0.00935,-0.042075 -0.019539,-0.05859 -0.011577,-0.018763 -0.02561,-0.033677 -0.038433,-0.04598 -2.285e-4,-2.77e-4 -3.997e-4,-6.269e-4 -6.312e-4,-8.997e-4 l -0.00195,-0.00195 c -0.00882,-0.00827 -0.00556,-0.00409 -0.021486,-0.019525 -0.011212,-0.010865 -0.027205,-0.021668 -0.050788,-0.037117 -0.023583,-0.015449 -0.052361,-0.033687 -0.080076,-0.050774 -0.010078,-0.00621 -0.00996,-0.00589 -0.019525,-0.011723 0.055659,0.00462 0.096356,0.00897 0.1894536,0.00978 0.072745,6.286e-4 0.1272576,-0.00468 0.1757831,-0.025394 0.048526,-0.020713 0.088958,-0.056552 0.1308503,-0.107417 0.044742,-0.054326 0.053174,-0.1131321 0.033209,-0.1601654 -0.019967,-0.047036 -0.0643,-0.081043 -0.1152326,-0.101562 C 4.5718029,1.8210921 4.4395102,1.7466811 4.32393,1.6618347 L 4.32225,1.6601547 C 4.309649,1.6508547 4.297623,1.6417837 4.285348,1.6327597 4.27052,1.6211337 4.255895,1.6094367 4.242188,1.5976567 4.1721613,1.5374804 4.0982738,1.5217208 4.0361104,1.522296 Z m 0.0011,0.049042 c 0.052724,-6.21e-4 0.113228,0.013394 0.1737284,0.065385 0.0043,0.0037 0.00904,0.00728 0.013442,0.010958 0.010947,0.023364 0.026355,0.046776 0.045148,0.071065 0.066014,0.085311 0.1017238,0.128076 0.1230482,0.1503891 0.010662,0.011157 0.018169,0.017507 0.023433,0.021486 0.00263,0.00199 0.00715,0.00358 0.00782,0.00391 3.359e-4,1.621e-4 0.00376,0.00192 0.00391,0.00196 1.432e-4,3.94e-5 0.00782,0.00195 0.00782,0.00195 L 4.488295,1.8964911 4.455086,1.8574271 C 4.427613,1.8248441 4.404901,1.7944661 4.385404,1.7656281 c 0.091182,0.059244 0.1809133,0.1072143 0.2396101,0.1308637 0.041984,0.016914 0.073106,0.043995 0.085931,0.074208 0.012825,0.030213 0.010952,0.065247 -0.025394,0.1093776 -0.03919,0.047584 -0.072096,0.075054 -0.1113248,0.091799 -0.03923,0.016745 -0.086643,0.024035 -0.1562442,0.023433 C 4.2792884,2.194115 4.1376474,2.178432 4.1334961,2.1779708 l -6.849e-4,-2.283e-4 h -0.0018 l -1.477e-4,-1.34e-5 v 1.34e-5 h -0.00391 c -0.1216987,-0.00373 -0.1815021,-0.017619 -0.2050847,-0.021486 -0.00285,-4.647e-4 -0.00489,2.225e-4 -0.0078,0 l -0.082036,-0.00782 0.064445,0.050774 c 0,0 0.1270768,0.099018 0.2247445,0.1785091 C 4.1000354,2.3626754 4.0761251,2.3520436 4.0507747,2.351565 3.9842907,2.3503068 3.9170111,2.3328585 3.8242173,2.2753968 3.7482665,2.228369 3.7311863,2.1905963 3.6777359,2.1582036 c -0.011096,-0.00672 -0.024867,-0.011876 -0.039064,-0.017578 -0.039671,-0.015911 -0.075803,-0.019069 -0.107417,-0.00782 -0.017417,0.0062 -0.032518,0.016965 -0.045752,0.030121 C 3.4458119,2.1558366 3.4057749,2.1432066 3.365248,2.1288846 3.344191,2.1214546 3.312855,2.1138876 3.281264,2.1054516 3.249672,2.0970116 3.21824,2.0864286 3.207043,2.0800576 L 3.179689,2.0644536 3.169929,2.0937416 C 3.152797,2.1526736 3.139688,2.216134 3.130865,2.281248 3.129155,2.293877 3.126475,2.306198 3.124995,2.318352 l -0.00195,0.019539 0.019539,0.0078 c 0.00897,0.00324 0.023455,0.00523 0.035157,0.00782 -0.0076,-7.465e-4 -0.015955,-8.277e-4 -0.023447,-0.00195 l -0.031249,-0.00392 0.00391,0.031262 c 0.00524,0.061143 0.014082,0.1235659 0.029302,0.187493 0.00172,0.0072 0.00412,0.014488 0.00585,0.021486 0.00125,0.00506 0.00267,0.010647 0.00392,0.015618 l 0.00391,0.013684 v 0.00585 h 0.00195 C 3.184485,2.67113 3.197109,2.715039 3.210951,2.7558449 h -0.00195 l 0.00585,0.013671 0.00585,0.015631 v 0.00391 h 0.00196 c 0.023011,0.063166 0.048196,0.1175435 0.076168,0.1679675 h -0.00195 l 0.00585,0.00978 0.00782,0.013671 c 0.0015,0.00255 0.00239,0.00528 0.00391,0.0078 0.014279,0.023822 0.02914,0.046206 0.044919,0.068366 l 0.00782,0.00976 0.00976,0.01367 0.00391,0.00392 c 0.028359,0.037426 0.058142,0.072866 0.091799,0.1093642 0.0023,0.00249 0.00354,0.00532 0.00587,0.00782 l 0.00976,0.00976 0.00782,0.00782 c 0.00152,0.00161 0.00235,0.00422 0.00391,0.00585 0.023333,0.024439 0.049232,0.046598 0.074221,0.068366 0.00205,0.00179 0.00379,0.00408 0.00585,0.00585 l 0.011723,0.00978 0.0078,0.0078 v -0.00195 c 0.031387,0.025992 0.064754,0.050174 0.097654,0.074221 v 0.00195 c 0.00304,0.00222 0.00673,0.00366 0.00978,0.00587 l 0.011683,0.00975 c 0.00263,0.00189 0.00518,0.00396 0.00782,0.00585 0.03749,0.026874 0.075163,0.052643 0.113272,0.080089 0.00268,0.00193 0.00514,0.00392 0.00782,0.00585 l 0.011723,0.0078 0.0078,0.00587 c 0.037441,0.027472 0.074485,0.056942 0.1113383,0.087892 l 0.00585,0.00585 0.00585,0.00391 0.00587,0.00392 c 0.027257,0.023529 0.053685,0.049413 0.080076,0.076168 0.00644,0.00652 0.013284,0.012812 0.019526,0.019525 0.0025,0.00269 0.00536,0.00511 0.00782,0.00782 l 0.0078,0.00976 0.00782,0.00978 c 0.039676,0.046264 0.076052,0.096073 0.1054698,0.148442 4.404e-4,7.841e-4 0.00152,0.00117 0.00195,0.00195 l 0.00782,0.015618 c 0.033027,0.061856 0.057783,0.1267906 0.074221,0.1933613 6.348e-4,0.00257 0.00134,0.00525 0.00195,0.00782 l 0.00391,0.01367 0.00195,0.013671 c 0.010042,0.050901 0.014633,0.1028133 0.01367,0.1542969 -3.62e-5,0.00194 5.26e-5,0.00392 0,0.00585 v 0.015631 c -0.00145,0.029784 -0.00625,0.058362 -0.01171,0.087892 -0.010031,0.054199 -0.025911,0.1052343 -0.048827,0.1523363 -2.667e-4,5.483e-4 2.685e-4,0.00142 0,0.00196 l -0.0078,0.013657 C 4.224738,4.632973 4.1742698,4.6944438 4.109378,4.7480428 l -0.00195,0.00196 -0.00978,0.0078 c -0.030964,0.024478 -0.066785,0.047804 -0.1035092,0.068366 -0.00465,0.00261 -0.00894,0.00526 -0.013684,0.0078 l -0.01171,0.00587 c -0.054713,0.028212 -0.1157788,0.052845 -0.181638,0.07226 -0.00954,0.00281 -0.019197,0.00516 -0.029302,0.00782 -0.00411,0.00108 -0.00752,0.00285 -0.011723,0.00391 l -0.01367,0.00195 -0.0078,0.00195 c -0.06835,0.016031 -0.1485941,0.029074 -0.2324257,0.039064 l -0.015631,0.00195 -0.019526,0.00195 c -0.070927,0.00761 -0.1455933,0.013516 -0.2207024,0.017578 l -0.021486,0.00196 c -0.088974,0.00443 -0.1790442,0.0054 -0.2656217,0.00585 -0.00191,9.9e-6 -0.00396,-8.2e-6 -0.00587,0 H 2.927731 c -0.00485,1.03e-5 -0.00884,6e-7 -0.013671,0 -0.079335,-8.3e-6 -0.155056,-0.00138 -0.2246102,-0.00391 h -0.015631 c -0.00134,-5.16e-5 -0.00257,5.25e-5 -0.00391,0 -0.025457,-9.993e-4 -0.050829,-0.00263 -0.074221,-0.00391 -0.058508,-0.00318 -0.1129307,-0.00953 -0.1660069,-0.019539 l -0.011723,-0.00195 -0.015631,-0.00391 c -0.068295,-0.014424 -0.1325747,-0.03277 -0.1894455,-0.05468 -0.00178,-6.857e-4 -0.00408,-0.00127 -0.00585,-0.00196 l -0.01367,-0.00585 C 2.1078886,4.8656204 2.0373305,4.8232917 1.9863241,4.7851601 l -0.01171,-0.00782 c -8.236e-4,-6.455e-4 -0.00115,-0.00131 -0.00196,-0.00195 -0.017904,-0.014196 -0.032983,-0.028424 -0.044919,-0.041025 -0.023159,-0.024417 -0.040083,-0.052296 -0.052735,-0.082023 l -0.00585,-0.013684 c -0.017727,-0.047342 -0.023786,-0.096656 -0.021728,-0.1352415 0.00462,-0.00829 0.00881,-0.016511 0.013912,-0.02491 0.069363,-0.1141385 0.1550978,-0.1129805 0.1660204,-0.1132854 0.00267,0.00457 0.00243,0.00424 0.00585,0.00978 0.01025,0.016613 0.021294,0.035574 0.035157,0.048827 0.00735,0.00702 0.017912,0.014514 0.031235,0.022466 0.00919,0.00572 0.020072,0.0112 0.031987,0.016705 0.00406,0.00199 0.00656,0.00369 0.010998,0.00575 0.036958,0.017127 0.0872,0.035151 0.1562442,0.056643 0.1388551,0.04322 0.5305315,0.1445301 0.8632842,0.1386793 0.3294515,-0.00581 0.5134127,-0.052114 0.712895,-0.1738359 0.041408,-0.02527 0.073836,-0.050206 0.1017367,-0.074946 l 0.00177,-0.00122 -1.477e-4,-1.477e-4 c 0.039089,-0.03493 0.067552,-0.06942 0.086092,-0.1033749 0.031909,-0.058441 0.037707,-0.113853 0.041012,-0.1621126 0.0039,-0.056914 -0.018858,-0.1437431 -0.06055,-0.2363201 C 4.0032268,3.819536 3.942056,3.722991 3.8632817,3.6562541 3.7122427,3.5283106 3.5188802,3.4036714 3.3671813,3.2226514 3.2145277,3.0404953 3.1507564,2.8924117 3.0742185,2.6796844 3.0027454,2.4810063 2.9742353,2.2868851 3.0390619,2.0878904 3.108978,1.8732327 3.246419,1.7691053 3.4082063,1.707036 3.5699936,1.6449668 3.7546309,1.6283345 3.9101616,1.5937506 c 0.029382,-0.00654 0.074326,-0.021792 0.12705,-0.022413 z M 3.9023449,1.771481 C 3.7088272,1.771338 3.6217486,1.8955694 3.6093686,1.9121074 c -8.86e-5,3.56e-5 -2.199e-4,5.9e-6 -3.357e-4,0 l -0.043536,0.069118 0.00423,-0.00169 0.1955771,-0.1236391 0.0089,-0.00404 c 0.027311,-0.016952 0.065089,-0.02963 0.1281377,-0.029584 0.042169,3.12e-5 0.089514,0.00596 0.1425736,0.023433 0.1098229,0.036178 0.1495914,0.054667 0.1933614,0.07226 -0.00146,-3.73e-4 -0.00284,-6.526e-4 -0.00426,-9.803e-4 L 4.3913754,1.972607 4.3789004,1.933596 c 0,0 -0.00378,-0.00765 -0.00391,-0.00782 -1.23e-4,-1.764e-4 -0.00267,-0.00268 -0.00391,-0.00391 -0.00247,-0.00244 -0.00425,-0.0035 -0.00782,-0.00585 C 4.3561364,1.9113051 4.344273,1.903544 4.324212,1.894529 4.2840974,1.8764991 4.2087339,1.847637 4.0605508,1.7988219 4.0028088,1.7798011 3.950004,1.7715161 3.9023461,1.7714809 Z M 3.2128843,2.1328098 c 0.018007,0.00665 0.03568,0.013941 0.056643,0.019539 0.032416,0.00866 0.064625,0.017978 0.080076,0.023433 0.032784,0.011586 0.067535,0.022663 0.1033347,0.031074 -0.018563,0.033248 -0.03074,0.073639 -0.039132,0.1177438 -0.032038,0.00422 -0.064253,0.0061 -0.095452,0.00157 -0.018647,-0.00271 -0.050196,-0.00666 -0.082023,-0.011723 -0.02387,-0.00379 -0.042483,-0.00766 -0.05859,-0.011723 6.181e-4,-0.00477 0.0013,-0.00883 0.00195,-0.01367 0.00733,-0.054088 0.019518,-0.1060428 0.033196,-0.1562441 z m 0.7812611,0.080076 c 0.033712,0.00492 0.052989,0.010993 0.1241627,0.013603 6.81e-4,4.122e-4 0.019234,0.011775 0.024723,0.015107 0.017196,0.010845 0.040039,0.025322 0.08158,0.051365 0.028369,0.017786 0.057442,0.036082 0.080076,0.050788 0.011317,0.00735 0.0201,0.012602 0.027341,0.017578 0.00724,0.00498 0.0134,0.011384 0.011723,0.00976 0.00608,0.0059 0.013935,0.012774 0.021567,0.0197 0.0039,0.00606 0.00828,0.015343 0.00772,0.023272 -6.581e-4,0.00939 -0.0046,0.01917 -0.023433,0.029302 -0.00995,0.00535 -0.027954,0.00493 -0.050774,-0.00195 -0.022821,-0.00688 -0.048507,-0.02055 -0.072274,-0.041025 C 4.1564057,2.3399631 4.0535189,2.2593861 3.994132,2.2128992 Z m 0.1462263,0.1807115 c 0.018757,0.015413 0.0391,0.031934 0.05299,0.043899 0.028564,0.024608 0.060819,0.043393 0.091799,0.052735 0.03098,0.00934 0.061237,0.01043 0.087892,-0.00391 0.015778,-0.00849 0.027621,-0.019656 0.035788,-0.031907 3.66e-4,0.00217 0.00129,0.00439 0.00132,0.00653 1.426e-4,0.01073 -0.00221,0.02231 -0.01367,0.037104 -0.024485,0.031602 -0.052708,0.04274 -0.078129,0.044919 -0.025421,0.00218 -0.049002,-0.00817 -0.054682,-0.013671 -0.00393,-0.00381 -0.015184,-0.017791 -0.029302,-0.035157 -0.014118,-0.017367 -0.031856,-0.038085 -0.050774,-0.05859 -0.01368,-0.014828 -0.02821,-0.028959 -0.043227,-0.041952 z m -0.7365163,0.00133 c -0.00119,0.012216 -0.00266,0.024201 -0.00346,0.036714 -5.71e-5,8.932e-4 -5.22e-5,0.00181 -1.074e-4,0.0027 -0.00514,0.026817 -0.00966,0.05444 -0.011616,0.085192 -0.029969,0.016779 -0.06109,0.031628 -0.093746,0.039064 -0.028258,0.00644 -0.057335,0.00976 -0.085944,0.01171 -0.00124,-0.00507 -0.00268,-0.010459 -0.00391,-0.015618 C 3.192857,2.5033833 3.185019,2.4524474 3.179678,2.4023395 c 0.029777,0.00257 0.058764,0.00476 0.087892,0.00392 0.043785,-0.00126 0.090275,-0.00215 0.136289,-0.011334 z m -0.017135,0.1949191 c 4.743e-4,0.028761 0.00225,0.057684 0.00585,0.087892 -0.025709,0.018607 -0.057374,0.034293 -0.087892,0.042972 -0.015615,0.00445 -0.032387,0.00853 -0.048827,0.01171 -0.010298,-0.03086 -0.021601,-0.064277 -0.031249,-0.099601 0.028349,-0.00243 0.056547,-0.00513 0.083984,-0.011723 0.026846,-0.00643 0.052412,-0.01958 0.078129,-0.031249 z m 0.017578,0.1562442 c 0.00618,0.030548 0.013966,0.061272 0.023997,0.09235 0.00105,0.00413 0.0021,0.00787 0.00316,0.011307 -0.013364,0.010311 -0.028241,0.019887 -0.038876,0.027207 -0.019509,0.013419 -0.03759,0.027879 -0.056643,0.041012 -0.020364,-0.037998 -0.038971,-0.079227 -0.056643,-0.1249953 0.019335,-0.00416 0.038664,-0.00777 0.056643,-0.013671 0.022412,-0.00735 0.045352,-0.02045 0.068366,-0.033209 z m 0.05256,0.1637643 c 0.00977,0.01898 0.020651,0.037755 0.03329,0.056199 -0.016817,0.010151 -0.033488,0.020783 -0.050694,0.03004 -0.01383,0.00744 -0.028457,0.015504 -0.042972,0.023433 -0.010698,-0.015306 -0.021325,-0.030802 -0.031249,-0.046867 0.027005,-0.017604 0.054362,-0.034574 0.076168,-0.050788 0.00393,-0.00292 0.010073,-0.00794 0.015457,-0.012019 z m -0.9516995,0.034123 c 0.050927,0.035773 0.097713,0.070323 0.1256936,0.1009443 0.09855,0.107837 0.184714,0.2984034 0.1562576,0.5468747 -0.014173,0.1237926 -0.055863,0.2287435 -0.095707,0.302739 -0.019922,0.036998 -0.038364,0.066069 -0.052735,0.085931 -0.00608,0.00841 -0.011657,0.012739 -0.015618,0.017578 l -0.095224,-0.030107 c 0.00622,-0.0072 0.012471,-0.0145 0.019042,-0.022628 l 0.00392,-0.00391 0.00976,-0.011723 c 7.809e-4,-0.00104 0.00117,-0.00285 0.00195,-0.00391 l 0.00782,-0.00976 h -0.00195 c 0.020173,-0.028266 0.040281,-0.05985 0.056643,-0.097654 0.0017,-0.00392 0.00224,-0.0077 0.00391,-0.011723 h 0.00195 l 0.00195,-0.00978 0.00391,-0.00976 0.00196,-0.00391 0.00585,-0.011723 h -0.00195 c 0.014242,-0.037387 0.026888,-0.079288 0.039064,-0.1230482 h 0.00195 c 9.318e-4,-0.00335 0.00104,-0.00638 0.00195,-0.00976 l 0.00391,-0.015631 0.00391,-0.00978 c 0.00898,-0.035837 0.015384,-0.072377 0.021486,-0.1093642 l 0.00195,-0.00587 0.00196,-0.015618 c 7.876e-4,-0.00535 0.00124,-0.01029 0.00195,-0.015631 0.00566,-0.042552 0.00806,-0.084449 0.0078,-0.1249953 h 0.00196 l -0.00196,-0.021486 c -2.009e-4,-0.00531 3.322e-4,-0.010388 0,-0.015631 -4.59e-4,-0.00724 -0.00123,-0.014381 -0.00195,-0.021473 -0.00203,-0.019864 -0.00776,-0.039488 -0.01367,-0.058603 h 0.00195 l -0.00391,-0.01171 -0.00195,-0.00587 -0.00585,-0.015618 c -3.408e-4,-8.163e-4 -0.00162,-0.00114 -0.00196,-0.00195 -0.014066,-0.033071 -0.033482,-0.064092 -0.054682,-0.09376 h 0.00195 l -0.00976,-0.013671 -0.00196,-0.00195 -0.00976,-0.011723 c -8.978e-4,-0.00113 -0.00105,-0.00278 -0.00195,-0.00391 h -0.00196 C 2.6036859,3.040389 2.5833635,3.0188206 2.5625004,2.9980411 l 0.00195,-0.00195 -0.01367,-0.01171 -0.00976,-0.00978 c -0.00147,-0.00137 -0.00245,-0.00255 -0.00392,-0.00391 -0.010645,-0.0098 -0.021379,-0.018457 -0.031934,-0.026723 z m 1.0240539,0.072865 c 0.01493,0.017784 0.030773,0.035357 0.047968,0.052574 -0.00934,0.010643 -0.018445,0.021819 -0.028348,0.032149 -0.014846,0.015485 -0.031767,0.031224 -0.048827,0.046866 -0.023493,-0.025855 -0.044023,-0.052234 -0.064458,-0.078115 0.015121,-0.00805 0.031071,-0.015943 0.04688,-0.025394 0.015597,-0.00932 0.031024,-0.018493 0.046785,-0.02808 z m 0.09701,0.097251 c 0.021046,0.018539 0.043128,0.036651 0.066271,0.05444 -0.00371,0.00233 -0.00718,0.00485 -0.01085,0.00724 v -0.00585 l -0.039064,0.031249 c -0.017049,0.013 -0.031939,0.028758 -0.04688,0.044919 -0.018423,-0.016406 -0.035457,-0.033006 -0.052735,-0.050774 0.021193,-0.019475 0.043814,-0.038629 0.064458,-0.060551 0.00634,-0.00675 0.012588,-0.013653 0.0188,-0.020667 z m 0.1218261,0.096848 c 0.010265,0.00725 0.021339,0.013785 0.032095,0.020506 0.012453,0.00834 0.024449,0.01693 0.037225,0.025072 -0.02118,0.014001 -0.042411,0.026846 -0.061504,0.046209 -0.01155,0.011716 -0.02446,0.026612 -0.037117,0.041025 -0.024879,-0.018312 -0.048612,-0.037517 -0.07226,-0.056643 0.010512,-0.011787 0.020072,-0.023351 0.033196,-0.033209 0.022016,-0.016526 0.04508,-0.030819 0.068366,-0.042959 z m -1.0820395,0.031249 c 0.00451,0.015222 0.00823,0.029771 0.00978,0.044919 4.412e-4,0.00432 0.00162,0.00925 0.00195,0.01367 -0.00516,7.185e-4 -0.010457,0.00134 -0.015618,0.00195 -0.00252,2.959e-4 -0.00531,-2.804e-4 -0.00782,0 1.058e-4,-0.00461 -3.6e-5,-0.00908 0,-0.01367 1.205e-4,-0.015515 -9.874e-4,-0.030429 -0.00263,-0.045081 0.00467,-5.264e-4 0.0094,-0.00138 0.014342,-0.00179 z m 1.2109426,0.050774 c 0.00288,0.00173 0.00594,0.00325 0.00884,0.00496 0.029144,0.017165 0.058632,0.033778 0.088563,0.049928 -0.0247,0.017687 -0.04974,0.034516 -0.072005,0.052547 -0.016809,0.013603 -0.029651,0.029466 -0.042972,0.044919 -0.030636,-0.021962 -0.060055,-0.043231 -0.089839,-0.064458 0.012549,-0.01377 0.026625,-0.025951 0.039064,-0.039064 0.019004,-0.020039 0.0436,-0.034913 0.068353,-0.048827 z m -1.199219,0.070313 c -6.249e-4,0.02917 -0.00202,0.059068 -0.00585,0.089852 -0.011179,-2.726e-4 -0.02164,-0.00309 -0.031987,-0.00559 0.00443,-0.026706 0.00799,-0.053504 0.010327,-0.080358 0.00201,1.57e-5 0.004,2.248e-4 0.00603,0 0.00706,-7.797e-4 0.014414,-0.003 0.021486,-0.00391 z m 1.3593711,0.019539 c 0.028678,0.015337 0.057332,0.032377 0.085944,0.048827 -0.021625,0.016375 -0.045864,0.032543 -0.062498,0.048827 -0.023017,0.02252 -0.044386,0.045198 -0.066405,0.066405 -0.027108,-0.022175 -0.054912,-0.042339 -0.082037,-0.062498 0.011192,-0.01242 0.021647,-0.02499 0.035157,-0.035157 0.030476,-0.022915 0.059606,-0.046372 0.089839,-0.066406 z m 0.1464949,0.083984 c 0.040493,0.024635 0.07927,0.049798 0.1171798,0.076168 -0.032511,0.016306 -0.06424,0.032418 -0.093746,0.054682 -0.027354,0.020654 -0.056508,0.044369 -0.083984,0.068366 -0.00374,-0.00392 -0.00791,-0.00786 -0.011723,-0.011723 -0.022549,-0.02286 -0.045318,-0.044047 -0.068353,-0.064445 0.020083,-0.01969 0.039307,-0.03974 0.05859,-0.058603 0.024414,-0.023902 0.053195,-0.047698 0.082036,-0.064445 z m -1.5559957,0.043053 c 0.011509,0.00249 0.022796,0.00314 0.034512,0.00383 -0.00456,0.025261 -0.00966,0.049433 -0.015631,0.074208 -0.00719,-0.00213 -0.01482,-0.00332 -0.021486,-0.00585 -0.00537,-0.00203 -0.00999,-0.00477 -0.014557,-0.00726 0.0064,-0.021301 0.012123,-0.042919 0.017162,-0.064915 z m 1.7317653,0.076088 c 0.054328,0.041182 0.1017849,0.083803 0.1425871,0.126956 -0.00314,0.00122 -0.00665,0.00276 -0.00978,0.00391 -0.042163,0.015432 -0.089709,0.027746 -0.134758,0.050774 -0.038134,0.019489 -0.070767,0.047196 -0.1035227,0.074221 C 4.227733,3.7977988 4.19914,3.7545778 4.166004,3.7148468 4.192488,3.6915178 4.221158,3.6698998 4.249988,3.6484418 4.286395,3.6213168 4.321521,3.6000598 4.3593656,3.5859438 Z m -1.7695137,0.049727 c 0.00632,0.00311 0.012494,0.00648 0.019525,0.00886 0.00605,0.00204 0.013092,0.00403 0.019525,0.00587 -0.00924,0.03186 -0.018966,0.061728 -0.029302,0.089839 -0.00402,-0.00191 -0.00789,-0.00377 -0.01171,-0.00585 -0.011136,-0.00605 -0.021742,-0.013145 -0.03192,-0.020586 0.012444,-0.024792 0.023647,-0.050993 0.033881,-0.078129 z M 4.546875,3.7636711 c 0.018832,0.024085 0.035356,0.047245 0.048209,0.070582 0.00442,0.00839 0.00881,0.01678 0.012341,0.025125 0.00998,0.023552 0.020936,0.050097 0.031249,0.076168 -0.00867,0.00427 -0.016658,0.00976 -0.025394,0.013671 -0.048242,0.021557 -0.1002289,0.041079 -0.1503892,0.064458 -0.038539,0.017973 -0.075285,0.035178 -0.1132854,0.050774 -0.015581,-0.057102 -0.037419,-0.112483 -0.064445,-0.1660069 0.031489,-0.027013 0.063753,-0.052981 0.097654,-0.070313 0.03939,-0.020138 0.084449,-0.033297 0.1308503,-0.050788 0.011561,-0.00437 0.022252,-0.00907 0.033209,-0.013671 z m -2.0214784,0.00585 c 0.010768,0.00729 0.020885,0.016133 0.031249,0.021486 0.0068,0.00351 0.014263,0.0066 0.021473,0.00978 -0.013734,0.031385 -0.031846,0.055735 -0.048827,0.080076 -0.00939,-0.00533 -0.019062,-0.011398 -0.027341,-0.017578 -0.00927,-0.00692 -0.016505,-0.016233 -0.024588,-0.024521 0.00557,-0.00731 0.012461,-0.018028 0.018559,-0.026656 0.00836,-0.011293 0.01687,-0.023163 0.025568,-0.036714 0.00125,-0.00195 0.00267,-0.00388 0.00391,-0.00585 z m -0.089275,0.1177975 c 0.00786,0.00764 0.014871,0.016627 0.022856,0.022829 0.010632,0.00826 0.021808,0.014722 0.033209,0.021486 -0.0061,0.00685 -0.011868,0.013712 -0.017525,0.019485 l -0.0043,-0.00136 -0.071925,-0.023984 c 0.00779,-0.00704 0.015832,-0.015733 0.026858,-0.027851 0.00354,-0.0034 0.00683,-0.00645 0.010824,-0.010609 z m -0.2271348,0.091195 c 0.067005,-6.61e-5 0.1620306,0.03185 0.2753845,0.068353 0.1133539,0.036503 0.2452164,0.077109 0.3906305,0.089852 0.3104595,0.027214 0.5541345,-0.086929 0.7421833,-0.142587 0.164902,-0.048795 0.2955118,0.041184 0.3308723,0.1503354 l -7.923e-4,6.72e-5 c 0,0 -3.064e-4,0.01288 -0.017578,0.039064 -0.017274,0.026186 -0.051117,0.062649 -0.1191403,0.097654 l -0.013671,0.0078 -0.00976,0.00392 c -0.010636,0.00489 -0.021114,0.00893 -0.033209,0.01367 -0.034788,0.013636 -0.084622,0.028681 -0.1445343,0.041012 -0.0015,3.091e-4 -0.00239,-3.073e-4 -0.00391,0 h -0.00585 l -0.00978,0.00195 -0.017578,0.00391 c -0.046526,0.00866 -0.096016,0.01646 -0.1503892,0.023447 l -0.01367,0.00195 -0.015618,0.00195 c -0.044411,0.00533 -0.091687,0.00974 -0.1386793,0.01367 l -0.023433,0.00195 c -0.061287,0.00476 -0.1239466,0.00788 -0.1855458,0.00978 -0.00323,9.97e-5 -0.00655,-9.12e-5 -0.00978,0 l -0.013671,0.00195 c -0.004,9.77e-5 -0.00772,-8.41e-5 -0.011723,0 -0.057269,0.00121 -0.1144742,-1.636e-4 -0.1679675,-0.00195 h -0.015618 c -0.00142,-5.61e-5 -0.00249,5.84e-5 -0.00391,0 -0.068065,-0.0028 -0.1308409,-0.0091 -0.1855458,-0.017578 -0.00906,-0.0014 -0.018415,-0.00243 -0.027354,-0.00391 h -0.00585 l -0.00975,-0.00196 C 2.5191065,4.3700653 2.4562032,4.3553355 2.3984407,4.3398474 l -0.00976,-0.00196 -0.013684,-0.00391 C 2.2882443,4.3094495 2.2208902,4.2835039 2.1718699,4.2578109 l -0.00391,-0.00195 -0.01171,-0.00782 c -0.032352,-0.018242 -0.055891,-0.035966 -0.070313,-0.050774 -0.028106,-0.028838 -0.040967,-0.055839 -0.04688,-0.076168 -0.00439,-0.015075 -0.00472,-0.019736 -0.00494,-0.023071 0.00345,-0.018565 0.010187,-0.035978 0.020573,-0.051164 0.022113,-0.032331 0.060792,-0.05697 0.1289031,-0.066406 0.00788,-0.00109 0.01646,-0.00194 0.025394,-0.00195 z m 2.4511734,0.019526 c 0.015178,0.042921 0.030344,0.087452 0.041011,0.1347715 -0.00892,0.00583 -0.01802,0.012136 -0.027341,0.017578 -0.050065,0.029189 -0.1041945,0.04999 -0.1601654,0.070313 -0.045226,0.016427 -0.090512,0.02909 -0.1367187,0.039064 -7.893e-4,-0.044454 -0.00335,-0.089071 -0.01171,-0.1328244 0.041067,-0.016323 0.080861,-0.034876 0.1191404,-0.052721 0.047759,-0.02226 0.100086,-0.040028 0.1503892,-0.062511 0.00888,-0.00396 0.016627,-0.00947 0.025394,-0.013671 z m 0.046867,0.2070319 c 0.012417,0.086629 0.016886,0.1757368 -0.0078,0.2695296 -0.0013,5.9e-4 -0.00262,0.00139 -0.00391,0.00196 -0.03764,0.016785 -0.078325,0.028118 -0.1191404,0.039051 -0.061554,0.01649 -0.1225422,0.026435 -0.1855592,0.025394 -0.021387,-3.485e-4 -0.042982,-0.00221 -0.064445,-0.00391 0.017994,-0.042559 0.03423,-0.085577 0.042972,-0.1328109 0.0048,-0.025947 0.0059,-0.052058 0.0078,-0.078129 0.049108,-0.00979 0.097632,-0.022303 0.1445343,-0.039064 0.055863,-0.019959 0.1141263,-0.040479 0.1679675,-0.070313 0.00617,-0.00342 0.011529,-0.00811 0.017578,-0.01171 z m -0.7636693,0.029302 c -0.00518,0.069051 -0.016612,0.1441907 -0.025112,0.1611859 -0.00288,0.0019 -0.017519,0.010708 -0.03944,0.023017 -0.00159,-0.01662 -0.00145,-0.033357 -0.00576,-0.049445 -0.00505,-0.018836 -0.013426,-0.037661 -0.021486,-0.056643 0.045088,-0.026553 0.071249,-0.05327 0.091799,-0.078115 z m -1.8867204,0.00195 c 0.015885,0.015451 0.036571,0.031219 0.062498,0.04688 -0.003,0.036265 0.00115,0.073321 0.00392,0.1015621 3.267e-4,0.00333 9.076e-4,0.00669 0.00142,0.010045 -0.0097,-0.00605 -0.016273,-0.010833 -0.017055,-0.012005 -0.00855,-0.012818 -0.016002,-0.026664 -0.022722,-0.041549 -0.011028,-0.031851 -0.019027,-0.068772 -0.028066,-0.1049327 z m 0.1269559,0.078129 c 0.043121,0.020361 0.093352,0.041605 0.1562442,0.060537 -0.0024,0.014481 -0.0069,0.030225 -0.0078,0.039064 -0.00207,0.020231 4.341e-4,0.040587 0.00169,0.060819 -0.053266,-0.014903 -0.098999,-0.030304 -0.1358727,-0.044731 -0.00449,-0.016144 -0.00822,-0.032978 -0.010354,-0.051244 -0.00252,-0.02153 -0.00294,-0.042995 -0.00391,-0.064445 z m 1.6093753,0.029288 c 0.00745,0.017917 0.015712,0.035922 0.019525,0.054696 0.0036,0.017756 0.00391,0.035165 0.00388,0.052641 -0.034213,0.017009 -0.073841,0.035761 -0.1249685,0.056737 -0.010167,0.00417 -0.021387,0.00821 -0.033196,0.012167 0.00118,-0.015777 9.413e-4,-0.031246 0,-0.047323 h 0.00585 l -0.00585,-0.027355 c -0.003,-0.019592 -0.010407,-0.037964 -0.017578,-0.056629 0.050399,-0.011168 0.09714,-0.021944 0.1308503,-0.035157 0.00779,-0.00306 0.014231,-0.00664 0.021486,-0.00978 z M 2.402335,4.3925689 h 1.35e-5 c 0.048405,0.012526 0.1012201,0.02254 0.1601519,0.033209 -0.00489,0.022293 -0.00957,0.045642 -0.00978,0.066405 -1.076e-4,0.011418 0.00102,0.022094 0.00176,0.033209 -0.054897,-0.010486 -0.1064158,-0.021791 -0.1545924,-0.033679 -0.00262,-0.020421 -0.0054,-0.040794 -0.00342,-0.062028 8.212e-4,-0.00883 0.00397,-0.023602 0.00587,-0.037117 z m 1.175786,0.011723 c 0.00861,0.020008 0.016126,0.039766 0.017578,0.06055 0.00177,0.025369 -0.00162,0.050456 -0.00563,0.074543 -0.045421,0.010996 -0.09917,0.020101 -0.1578556,0.027516 0.013344,-0.030756 0.028522,-0.063549 0.026764,-0.1020589 -5.761e-4,-0.012654 -0.00344,-0.027264 -0.00585,-0.041012 0.044015,-0.00602 0.08612,-0.012364 0.1249953,-0.019539 z m -0.1894536,0.025394 c 0.0034,0.017113 0.00707,0.033892 0.00587,0.04688 -0.003,0.032426 -0.016863,0.064955 -0.032726,0.098473 -0.032946,0.00296 -0.067557,0.0052 -0.1033481,0.0068 0.00413,-0.023885 0.00894,-0.048172 0.011079,-0.070112 0.00178,-0.018347 0.00213,-0.043899 0.00195,-0.068366 0.03967,-0.00345 0.079302,-0.00922 0.1171798,-0.013671 z m -0.7617087,0.00976 c 6.522e-4,1.014e-4 0.0013,-1.009e-4 0.00195,0 0.049683,0.0077 0.1067947,0.012518 0.1660069,0.015631 -4.923e-4,0.00264 -0.00152,0.00515 -0.00195,0.00782 -0.00399,0.024744 -0.00635,0.049691 -0.00585,0.076168 1.423e-4,0.008 9.961e-4,0.015502 0.00165,0.023232 -0.058073,-0.00702 -0.1146798,-0.01575 -0.1697939,-0.025179 -0.00101,-0.013162 -0.00191,-0.026061 -0.00179,-0.039064 1.966e-4,-0.020625 0.00541,-0.039828 0.00978,-0.058603 z m 0.5781235,0.00978 c -2.273e-4,0.020723 -2.37e-5,0.042275 -0.00196,0.06055 -0.00261,0.024614 -0.00645,0.050145 -0.011119,0.074194 -0.042907,7.833e-4 -0.087459,5.055e-4 -0.1333614,-8.997e-4 -3.201e-4,-0.041516 0.00197,-0.083666 0.00191,-0.1279766 0.048192,-0.00166 0.096475,-0.00248 0.1445342,-0.00587 z m -0.343764,0.0078 1.34e-5,1.34e-5 c 0.043776,0.00112 0.088802,7.9e-4 0.1347581,0 -1.01e-5,0.039695 -0.00372,0.080201 -0.00385,0.1232227 -0.0427,-0.0023 -0.086355,-0.00554 -0.130904,-0.00995 -0.00208,-2.054e-4 -0.00413,-4.756e-4 -0.0062,-6.849e-4 -0.00172,-0.019761 -0.00307,-0.039064 -0.00161,-0.057918 v -0.00195 c 0.00144,-0.017604 0.00423,-0.035669 0.0078,-0.052735 z m 1.81446,0.09376 c -0.00574,0.014287 -0.010556,0.028598 -0.017578,0.042959 -0.014488,0.02965 -0.029273,0.056548 -0.044248,0.082815 -0.021435,0.037069 -0.043549,0.071249 -0.067077,0.1027304 -0.05458,0.013705 -0.111715,0.020231 -0.1699281,0.019539 -0.064564,-7.85e-4 -0.1272438,-0.015446 -0.1894536,-0.037117 -0.00632,-0.00221 -0.012955,-0.00382 -0.019525,-0.00585 0.050304,-0.046814 0.094254,-0.09806 0.1269559,-0.1562441 0.034262,0.00343 0.068608,0.00589 0.1035092,0.00585 0.069535,-1.02e-4 0.1368234,-0.010962 0.2031241,-0.029302 0.024993,-0.00692 0.04918,-0.016318 0.074221,-0.02538 z m -2.82812,0.1523364 c 0.012645,0.022895 0.023985,0.046387 0.042972,0.066405 0.0097,0.010237 0.022737,0.020612 0.035157,0.031249 -0.00615,0.00824 -0.01549,0.015946 -0.019539,0.023447 -0.013472,0.024977 -0.02156,0.052123 -0.027341,0.080076 -0.015788,-0.025721 -0.029574,-0.049914 -0.040998,-0.072892 -0.00725,-0.015496 -0.01427,-0.030886 -0.019405,-0.045295 -9.946e-4,-0.00272 -0.00205,-0.00546 -0.00295,-0.00814 -0.00114,-0.00339 -0.00203,-0.00667 -0.00305,-0.010004 -10e-7,-1.285e-4 2.82e-5,-2.954e-4 0,-3.894e-4 0.00831,-0.025038 0.019715,-0.046725 0.035157,-0.064458 z m 2.2675747,0.101562 c 0.011506,0.00389 0.023496,0.00793 0.03321,0.011723 0.06703,0.026072 0.141205,0.044913 0.214834,0.046867 0.033813,8.94e-4 0.066297,-0.00642 0.099615,-0.00976 -0.069206,0.070351 -0.1416025,0.1354355 -0.2500041,0.1894536 -0.027953,-0.015541 -0.055573,-0.033723 -0.080076,-0.054682 -0.041274,-0.035315 -0.082995,-0.080762 -0.1054698,-0.126956 0.0308,-0.017786 0.060752,-0.03598 0.087891,-0.056643 z m -2.138685,0.031249 h 1.34e-5 c 0.046742,0.033112 0.1050562,0.065604 0.1738359,0.095707 -0.018873,0.025336 -0.037375,0.052408 -0.04688,0.080076 -0.00675,0.019655 -0.00701,0.041162 -0.00978,0.062498 -0.06158,-0.029177 -0.1183574,-0.062016 -0.1582048,-0.099601 7.517e-4,-0.013678 -7.18e-5,-0.027645 0.00196,-0.041025 0.0033,-0.021474 0.00925,-0.042271 0.017578,-0.060537 0.00323,-0.00709 0.00796,-0.017806 0.01367,-0.027355 0.00303,-0.00507 0.00485,-0.00638 0.0078,-0.00976 z m 1.9980586,0.056643 c 0.028393,0.055018 0.069949,0.1032766 0.1113248,0.1386793 0.018628,0.015938 0.041407,0.028625 0.062511,0.042959 -0.021554,0.00967 -0.043359,0.019288 -0.066003,0.028912 -0.025708,0.010511 -0.050357,0.020985 -0.078532,0.031638 -0.033492,0.012663 -0.069508,0.023735 -0.1065575,0.034069 -0.035479,-0.033798 -0.068112,-0.070134 -0.086804,-0.1121977 -0.012475,-0.028083 -0.022871,-0.058034 -0.029302,-0.087891 -2.598e-4,-0.00121 2.654e-4,-0.00266 0,-0.00391 0.00701,-0.00191 0.014701,-0.00385 0.021486,-0.00585 0.062147,-0.018321 0.1186071,-0.040228 0.1718753,-0.066405 z m -1.7636588,0.064458 c 0.048248,0.017923 0.100443,0.033908 0.1562441,0.046867 -0.00571,0.024644 -0.012045,0.052404 -0.01367,0.064458 -0.00442,0.032639 0.00149,0.066285 0.00584,0.099534 -0.00222,-5.492e-4 -0.00437,-0.0012 -0.00658,-0.00176 -0.069009,-0.017411 -0.1367884,-0.038359 -0.1984911,-0.062618 -6.1e-4,-0.023472 7.286e-4,-0.047423 0.00978,-0.072274 0.010031,-0.027576 0.027731,-0.053049 0.04688,-0.074208 z m 1.5077997,0.021486 c 0.00699,0.033452 0.016145,0.06661 0.029302,0.097654 0.018094,0.042697 0.050096,0.075025 0.080076,0.107417 -0.084225,0.01987 -0.1733612,0.036187 -0.2656218,0.04688 -0.00893,-0.014868 -0.017371,-0.029955 -0.023447,-0.04688 -0.01142,-0.031838 -0.021474,-0.064771 -0.027341,-0.097654 -0.00418,-0.02343 -0.00583,-0.047021 -0.00585,-0.070313 0.076004,-0.00925 0.1482407,-0.022676 0.2128868,-0.037104 z M 2.4316367,5.019533 c 0.051943,0.00935 0.1052696,0.01644 0.1621125,0.019526 0.015555,8.481e-4 0.03236,0.00123 0.048827,0.00196 -0.00516,0.023145 -0.011201,0.04748 -0.013671,0.0703 -0.00351,0.032604 -0.00601,0.065766 -0.00585,0.099615 1.05e-5,0.00265 -3.8e-5,0.00518 0,0.00782 -0.044977,-0.00655 -0.09167,-0.01452 -0.1386659,-0.023406 -0.020205,-0.00389 -0.040409,-0.00811 -0.060671,-0.012516 -0.00668,-0.032388 -0.00946,-0.065682 -0.00575,-0.096902 0.00273,-0.022924 0.00769,-0.045143 0.01367,-0.066392 z m 1.0117262,0.00195 c 4.518e-4,0.023867 -6.2e-6,0.047378 0.00391,0.070313 0.00755,0.044248 0.026795,0.09737 0.050345,0.145528 -0.073314,0.0068 -0.1463514,0.010949 -0.2185941,0.013375 -0.00718,-0.030111 -0.014041,-0.06032 -0.017296,-0.090537 -0.00434,-0.040198 -6.555e-4,-0.081169 0.00195,-0.1230482 0.061083,-0.0036 0.1211726,-0.00968 0.1796908,-0.015631 z M 3.1972666,5.039061 c -0.00289,0.044663 -0.00482,0.090246 0.00195,0.1367187 0.00375,0.025687 0.00985,0.051571 0.015403,0.077014 -0.079731,0.00146 -0.1553147,6.177e-4 -0.2264231,-0.00187 -0.00309,-0.068241 -0.011137,-0.1365423 -0.019445,-0.2040507 0.074928,-6.047e-4 0.1516936,-0.00428 0.228518,-0.00782 z m -0.4902454,0.00391 h 1.34e-5 c 0.062087,0.00205 0.1278639,0.00379 0.1972558,0.00391 0.00841,0.066956 0.01619,0.1342016 0.019405,0.2012843 -0.060125,-0.00309 -0.1167528,-0.00689 -0.1639254,-0.011831 -0.022143,-0.00232 -0.046596,-0.00561 -0.070313,-0.00857 -5.975e-4,-0.030186 -7.928e-4,-0.06046 0.00195,-0.091034 0.00278,-0.030881 0.00639,-0.061403 0.013671,-0.089839 3.414e-4,-0.00133 0.00161,-0.00257 0.00195,-0.00392 z"
   transform="matrix(137.07211,0,0,137.07211,-257.89028,-283.01981)" /><path
   class="st2"
   d="M 103.79106,94.524744 C 113.54109,77.637274 107.80787,55.96744 90.833774,46.16744 89.707942,45.517443 87.269672,44.340646 87.269672,44.340646 l -1.843196,-59.607488 -11.285829,-14.252369 -14.202372,11.199229 9.991344,9.6944824 -12.552372,8.34134203 9.991345,9.69448897 -12.552374,8.3413426 9.991348,9.694487 -8.031091,6.910254 c 0,0 -0.267949,4.464102 0.04974,11.113842 -5.781089,3.01314 -10.849738,7.59231 -14.349746,13.654482 -9.750005,16.887508 -4.016798,38.557315 12.957303,48.357291 16.887494,9.74999 38.5573,4.01678 48.357278,-12.957306 z M 63.309162,77.041471 c 2.799998,-4.849746 8.947112,-6.496858 13.796854,-3.696856 4.849743,2.799997 6.496856,8.947139 3.69685,13.796859 -2.799999,4.84975 -8.947093,6.49686 -13.796854,3.69684 -4.849752,-2.79998 -6.496851,-8.9471 -3.69685,-13.796843 z"
   id="path70"
   style="clip-rule:evenodd;opacity:1;fill:url(#linearGradient76);fill-opacity:1;fill-rule:evenodd;stroke:none;stroke-width:0.0904748;stroke-dasharray:none;stroke-opacity:1;image-rendering:optimizeQuality;shape-rendering:geometricPrecision;text-rendering:geometricPrecision"
   transform="translate(1.0932373e-5)" /></g></g></svg>
