<?xml version="1.0" encoding="UTF-8" standalone="no"?>
<svg
   viewBox="0 0 38.504471 42.312877"
   version="1.1"
   id="svg5"
   xml:space="preserve"
   width="38.504471"
   height="42.312878"
   xmlns:xlink="http://www.w3.org/1999/xlink"
   xmlns="http://www.w3.org/2000/svg"
   xmlns:svg="http://www.w3.org/2000/svg"
   xmlns:rdf="http://www.w3.org/1999/02/22-rdf-syntax-ns#"
   xmlns:cc="http://creativecommons.org/ns#"
   xmlns:dc="http://purl.org/dc/elements/1.1/"><defs
     id="defs1"><linearGradient
       id="linearGradient16"><stop
         style="stop-color:#ff3dfb;stop-opacity:0;"
         offset="0"
         id="stop16" /><stop
         style="stop-color:#ff3dfb;stop-opacity:1;"
         offset="1"
         id="stop15" /></linearGradient><linearGradient
       id="linearGradient13"><stop
         style="stop-color:#ff3dfb;stop-opacity:0;"
         offset="0"
         id="stop14" /><stop
         style="stop-color:#ff3dfb;stop-opacity:1;"
         offset="1"
         id="stop13" /></linearGradient><linearGradient
       id="linearGradient11"><stop
         style="stop-color:#00abff;stop-opacity:0;"
         offset="0"
         id="stop12" /><stop
         style="stop-color:#00abff;stop-opacity:1;"
         offset="1"
         id="stop11" /></linearGradient><style
       id="style1">.cls-1{fill:#424242;}.cls-2{fill:#42a5f5;}</style><linearGradient
       xlink:href="#linearGradient11"
       id="linearGradient12"
       x1="63.700565"
       y1="125.42032"
       x2="63.700565"
       y2="43.528854"
       gradientUnits="userSpaceOnUse" /><linearGradient
       xlink:href="#linearGradient13"
       id="linearGradient14"
       x1="63.91721"
       y1="125.42032"
       x2="63.91721"
       y2="41.57906"
       gradientUnits="userSpaceOnUse" /><linearGradient
       xlink:href="#linearGradient16"
       id="linearGradient15"
       x1="63.91721"
       y1="125.42032"
       x2="63.91721"
       y2="41.57906"
       gradientUnits="userSpaceOnUse" /><filter
       style="color-interpolation-filters:sRGB"
       id="filter16"
       x="-0.03169014"
       y="-0.023519163"
       width="1.0633803"
       height="1.0470383"><feGaussianBlur
         stdDeviation="0.50561668"
         id="feGaussianBlur16" /></filter><filter
       style="color-interpolation-filters:sRGB"
       id="filter17"
       x="-0.093082294"
       y="-0.064814862"
       width="1.1861646"
       height="1.1296297"><feGaussianBlur
         stdDeviation="0.50561668"
         id="feGaussianBlur17" /></filter><filter
       style="color-interpolation-filters:sRGB"
       id="filter18"
       x="-0.028411133"
       y="-0.02572241"
       width="1.0568223"
       height="1.0514448"><feGaussianBlur
         stdDeviation="1.1342722"
         id="feGaussianBlur18" /></filter></defs><title
     id="title1">VPN</title><metadata
     id="metadata1"><rdf:RDF><cc:Work
         rdf:about=""><dc:title>VPN</dc:title></cc:Work></rdf:RDF></metadata><g
     id="g18"
     transform="translate(-2.1149447,-2.1152536)"><g
       id="path2"
       transform="matrix(0.38025,0,0,0.38025,-2.9683795,-1.0646112)"
       style="display:inline"><path
         id="path6"
         style="opacity:0.6;fill:#ff3dfb;filter:url(#filter16)"
         d="m 63.998861,33.75699 c -7.089503,0 -12.841058,5.751552 -12.841058,12.841059 v 4.345414 c -3.696079,1.041531 -6.296051,4.381507 -6.302392,8.24396 v 17.551158 c 0.0052,4.749374 3.864409,8.60863 8.613782,8.613782 h 21.069609 c 4.749374,-0.0052 8.603494,-3.864408 8.608646,-8.613782 V 59.187423 c -0.0068,-3.863694 -2.604596,-7.203972 -6.302392,-8.24396 v -4.345414 c 0,-7.089507 -5.756692,-12.841059 -12.846195,-12.841059 z m 0,4.155367 c 4.799915,0.0053 8.68144,3.885777 8.685692,8.685692 v 3.970455 H 55.313169 v -3.970455 c 0.0043,-4.799915 3.885777,-8.680375 8.685692,-8.685692 z m -10.534804,16.81665 h 21.074745 c 2.462473,0.0036 4.450197,1.990805 4.453279,4.453279 v 17.556295 c -0.0031,2.462287 -1.990992,4.450196 -4.453279,4.453279 H 53.464057 C 51.00177,81.18876 49.013861,79.200868 49.010778,76.738581 V 59.187423 c 10e-4,-2.463938 1.989343,-4.454815 4.453279,-4.458416 z" /><path
         id="path1"
         style="opacity:0.6;fill:#ff3dfb;filter:url(#filter17)"
         d="m 64.065635,58.956284 c -3.165596,-0.0093 -6.216277,2.296647 -6.559213,5.90175 h 0.0051 c -0.205923,2.084841 0.608322,4.13544 2.188116,5.511382 l 0.0051,0.0051 0.01027,0.01027 c 0.02575,0.0202 0.04005,0.05029 0.04623,0.08218 v 2.97399 c 0,1.385849 0.529243,2.462229 1.330334,3.174309 0.801091,0.712081 1.856414,1.06324 2.907215,1.06324 1.050801,0 2.106125,-0.351159 2.907216,-1.06324 0.801091,-0.71208 1.33547,-1.78846 1.33547,-3.174309 v -2.953444 c 0.0057,-0.04673 0.02521,-0.08811 0.06164,-0.118138 l 0.0051,-0.0051 0.0051,-0.0051 c 2.923356,-2.578027 2.940281,-7.144353 0.03596,-9.743796 -0.992335,-0.888536 -2.134732,-1.398516 -3.297584,-1.582018 -0.327052,-0.05161 -0.658718,-0.07609 -0.986193,-0.07705 z m -0.06677,4.155366 h 0.0051 c 0.580808,-0.0022 1.140613,0.211773 1.571745,0.600962 1.057458,0.945943 1.048131,2.590283 -0.01541,3.528723 -0.930388,0.810095 -1.468712,1.981803 -1.47929,3.215401 v 2.984262 c 0,0.05482 -0.0061,0.05339 -0.01541,0.06164 -0.0093,0.0083 -0.03707,0.02054 -0.06677,0.02054 -0.0297,0 -0.05236,-0.01229 -0.06164,-0.02054 -0.0093,-0.0083 -0.02054,-0.0068 -0.02054,-0.06164 v -3.009945 -0.0051 c -0.01184,-1.223116 -0.547866,-2.380744 -1.474154,-3.179446 h -0.0051 c -0.5707,-0.500496 -0.862428,-1.247883 -0.785873,-2.003205 0.117038,-1.104077 0.97836,-1.978745 2.080251,-2.116207 0.0897,-0.01013 0.176818,-0.01527 0.267094,-0.01541 z" /><path
         id="path8"
         style="opacity:0.6;fill:#00abff;filter:url(#filter18)"
         d="m 63.998861,11.084817 c -0.43063,0 -0.857552,0.09123 -1.258423,0.272231 l 0.01541,-0.01027 C 48.366053,17.551207 33.628317,22.908126 18.613424,27.392962 v 0.0051 h -0.0051 c -1.174067,0.35511 -2.026679,1.384546 -2.157298,2.604167 v 0.01541 l -0.0051,0.02055 c -0.962654,12.199055 0.03438,24.475765 2.948307,36.360741 v 0.0051 c 6.340633,25.463868 21.48978,43.00804 43.639054,50.35749 0.62531,0.20702 1.305985,0.20702 1.931295,0 C 87.113752,109.4121 102.263,91.870905 108.60363,66.40403 v -0.0051 c 2.91461,-11.884866 3.91031,-24.161578 2.94831,-36.360741 v -0.02055 l -0.005,-0.01541 c -0.13062,-1.219621 -0.98324,-2.249057 -2.1573,-2.604167 l -0.005,-0.0051 C 94.377007,22.910313 79.645542,17.557595 65.262421,11.357048 c -0.400869,-0.181042 -0.83293,-0.272232 -1.26356,-0.272231 z m 0,6.389711 c 13.576991,5.78148 27.456733,10.829809 41.569079,15.142176 0.59356,10.852927 -0.36817,21.737736 -2.91236,32.308104 v 0.0051 0.0051 C 96.793062,88.466115 83.855907,103.64715 63.998861,110.58761 44.166654,103.65905 31.241779,88.503299 25.367821,65.017263 22.810823,54.417251 21.843226,43.501616 22.434923,32.616704 36.547103,28.304694 50.421744,23.255056 63.998861,17.474528 Z" /></g><g
       id="g11"
       transform="matrix(0.38025,0,0,0.38025,-2.9683795,-1.0646112)"><path
         id="path9"
         style="fill:url(#linearGradient15);fill-opacity:1"
         d="m 63.998861,33.75699 c -7.089503,0 -12.841058,5.751552 -12.841058,12.841059 v 4.345414 c -3.696079,1.041531 -6.296051,4.381507 -6.302392,8.24396 v 17.551158 c 0.0052,4.749374 3.864409,8.60863 8.613782,8.613782 h 21.069609 c 4.749374,-0.0052 8.603494,-3.864408 8.608646,-8.613782 V 59.187423 c -0.0068,-3.863694 -2.604596,-7.203972 -6.302392,-8.24396 v -4.345414 c 0,-7.089507 -5.756692,-12.841059 -12.846195,-12.841059 z m 0,4.155367 c 4.799915,0.0053 8.68144,3.885777 8.685692,8.685692 v 3.970455 H 55.313169 v -3.970455 c 0.0043,-4.799915 3.885777,-8.680375 8.685692,-8.685692 z m -10.534804,16.81665 h 21.074745 c 2.462473,0.0036 4.450197,1.990805 4.453279,4.453279 v 17.556295 c -0.0031,2.462287 -1.990992,4.450196 -4.453279,4.453279 H 53.464057 C 51.00177,81.18876 49.013861,79.200868 49.010778,76.738581 V 59.187423 c 10e-4,-2.463938 1.989343,-4.454815 4.453279,-4.458416 z" /><path
         id="path10"
         style="fill:url(#linearGradient14);fill-opacity:1"
         d="m 64.065635,58.956284 c -3.165596,-0.0093 -6.216277,2.296647 -6.559213,5.90175 h 0.0051 c -0.205923,2.084841 0.608322,4.13544 2.188116,5.511382 l 0.0051,0.0051 0.01027,0.01027 c 0.02575,0.0202 0.04005,0.05029 0.04623,0.08218 v 2.97399 c 0,1.385849 0.529243,2.462229 1.330334,3.174309 0.801091,0.712081 1.856414,1.06324 2.907215,1.06324 1.050801,0 2.106125,-0.351159 2.907216,-1.06324 0.801091,-0.71208 1.33547,-1.78846 1.33547,-3.174309 v -2.953444 c 0.0057,-0.04673 0.02521,-0.08811 0.06164,-0.118138 l 0.0051,-0.0051 0.0051,-0.0051 c 2.923356,-2.578027 2.940281,-7.144353 0.03596,-9.743796 -0.992335,-0.888536 -2.134732,-1.398516 -3.297584,-1.582018 -0.327052,-0.05161 -0.658718,-0.07609 -0.986193,-0.07705 z m -0.06677,4.155366 h 0.0051 c 0.580808,-0.0022 1.140613,0.211773 1.571745,0.600962 1.057458,0.945943 1.048131,2.590283 -0.01541,3.528723 -0.930388,0.810095 -1.468712,1.981803 -1.47929,3.215401 v 2.984262 c 0,0.05482 -0.0061,0.05339 -0.01541,0.06164 -0.0093,0.0083 -0.03707,0.02054 -0.06677,0.02054 -0.0297,0 -0.05236,-0.01229 -0.06164,-0.02054 -0.0093,-0.0083 -0.02054,-0.0068 -0.02054,-0.06164 v -3.009945 -0.0051 c -0.01184,-1.223116 -0.547866,-2.380744 -1.474154,-3.179446 h -0.0051 c -0.5707,-0.500496 -0.862428,-1.247883 -0.785873,-2.003205 0.117038,-1.104077 0.97836,-1.978745 2.080251,-2.116207 0.0897,-0.01013 0.176818,-0.01527 0.267094,-0.01541 z" /><path
         id="path11"
         style="fill:url(#linearGradient12);fill-opacity:1"
         d="m 63.998861,11.084817 c -0.43063,0 -0.857552,0.09123 -1.258423,0.272231 l 0.01541,-0.01027 C 48.366053,17.551207 33.628317,22.908126 18.613424,27.392962 v 0.0051 h -0.0051 c -1.174067,0.35511 -2.026679,1.384546 -2.157298,2.604167 v 0.01541 l -0.0051,0.02055 c -0.962654,12.199055 0.03438,24.475765 2.948307,36.360741 v 0.0051 c 6.340633,25.463868 21.48978,43.00804 43.639054,50.35749 0.62531,0.20702 1.305985,0.20702 1.931295,0 C 87.113752,109.4121 102.263,91.870905 108.60363,66.40403 v -0.0051 c 2.91461,-11.884866 3.91031,-24.161578 2.94831,-36.360741 v -0.02055 l -0.005,-0.01541 c -0.13062,-1.219621 -0.98324,-2.249057 -2.1573,-2.604167 l -0.005,-0.0051 C 94.377007,22.910313 79.645542,17.557595 65.262421,11.357048 c -0.400869,-0.181042 -0.83293,-0.272232 -1.26356,-0.272231 z m 0,6.389711 c 13.576991,5.78148 27.456733,10.829809 41.569079,15.142176 0.59356,10.852927 -0.36817,21.737736 -2.91236,32.308104 v 0.0051 0.0051 C 96.793062,88.466115 83.855907,103.64715 63.998861,110.58761 44.166654,103.65905 31.241779,88.503299 25.367821,65.017263 22.810823,54.417251 21.843226,43.501616 22.434923,32.616704 36.547103,28.304694 50.421744,23.255056 63.998861,17.474528 Z" /></g></g></svg>
