<?xml version="1.0" encoding="UTF-8" standalone="no"?>
<!-- Generator: Adobe Illustrator 19.2.0, SVG Export Plug-In . SVG Version: 6.00 Build 0)  -->

<svg
   version="1.1"
   id="Layer_1"
   x="0px"
   y="0px"
   viewBox="0 0 419.11322 419.11322"
   xml:space="preserve"
   width="419.11322"
   height="419.11322"
   xmlns:xlink="http://www.w3.org/1999/xlink"
   xmlns="http://www.w3.org/2000/svg"
   xmlns:svg="http://www.w3.org/2000/svg"><defs
   id="defs63"><linearGradient
     id="linearGradient10"><stop
       style="stop-color:#ff3dfb;stop-opacity:0;"
       offset="0"
       id="stop11" /><stop
       style="stop-color:#ff3dfb;stop-opacity:1;"
       offset="1"
       id="stop10" /></linearGradient><linearGradient
     id="linearGradient9"><stop
       style="stop-color:#00abff;stop-opacity:0;"
       offset="0"
       id="stop9" /><stop
       style="stop-color:#00abff;stop-opacity:1;"
       offset="1"
       id="stop8" /></linearGradient><linearGradient
     id="linearGradient6"><stop
       style="stop-color:#00abff;stop-opacity:0;"
       offset="0"
       id="stop7" /><stop
       style="stop-color:#00abff;stop-opacity:1;"
       offset="1"
       id="stop6" /></linearGradient><linearGradient
     xlink:href="#linearGradient6"
     id="linearGradient7"
     x1="251.61621"
     y1="545.76355"
     x2="251.61621"
     y2="162.18678"
     gradientUnits="userSpaceOnUse" /><linearGradient
     xlink:href="#linearGradient9"
     id="linearGradient8"
     x1="251.61621"
     y1="545.76355"
     x2="251.61621"
     y2="162.18678"
     gradientUnits="userSpaceOnUse" /><linearGradient
     xlink:href="#linearGradient10"
     id="linearGradient11"
     x1="248.38382"
     y1="553.30579"
     x2="248.38382"
     y2="174.03888"
     gradientUnits="userSpaceOnUse" /><filter
     style="color-interpolation-filters:sRGB"
     id="filter11"
     x="-0.028076448"
     y="-0.026003046"
     width="1.0561529"
     height="1.0520061"><feGaussianBlur
       stdDeviation="5.1351562"
       id="feGaussianBlur11" /></filter><filter
     style="color-interpolation-filters:sRGB"
     id="filter12"
     x="-0.026999999"
     y="-0.026999999"
     width="1.054"
     height="1.054"><feGaussianBlur
       stdDeviation="5.7258002"
       id="feGaussianBlur12" /></filter><filter
     style="color-interpolation-filters:sRGB"
     id="filter13"
     x="-0.015495436"
     y="-0.10483342"
     width="1.0309909"
     height="1.2096668"><feGaussianBlur
       stdDeviation="2.3281886"
       id="feGaussianBlur13" /></filter></defs>
<style
   type="text/css"
   id="style1">
	.st0{fill:#ECF4F7;}
	.st1{fill:#1C1D21;}
	.st2{fill:#83E1E5;}
	.st3{fill:#AAB1BA;}
	.st4{fill:none;stroke:#1C1D21;stroke-width:10;stroke-linecap:round;stroke-linejoin:round;stroke-miterlimit:10;}
	.st5{fill:#FDDF7F;}
	.st6{fill:#FFFFFF;}
</style>

<g
   id="g13"
   transform="translate(-28.251985,-31.619173)"><g
     id="path67"
     class="st1"
     transform="matrix(0.78128067,0,0,0.78128067,42.488584,45.855788)"
     style="display:inline"><path
       id="path66"
       style="opacity:0.6;fill:#ff3dfb;fill-opacity:1;filter:url(#filter13)"
       class="st6"
       d="m 79.700485,368.29986 c -5.5,0 -10.000433,4.50043 -10.000433,10.00043 v 33.29943 c 0,5.5 4.500433,10.00044 10.000433,10.00044 h 48.699355 c 5.5,0 10.00044,-4.50044 10.00044,-10.00044 v -33.29943 c -0.1,-5.5 -4.49999,-10.00043 -10.09999,-10.00043 z m 97.299165,0 c -5.5,0 -10.00043,4.50043 -10.00043,10.00043 v 33.29943 c 0,5.5 4.50043,10.00044 10.00043,10.00044 h 48.69936 c 5.5,0 10.00044,-4.50044 10.00044,-10.00044 v -33.29943 c 0,-5.5 -4.50044,-10.00043 -10.00044,-10.00043 z m 97.30134,0 c -5.5,0 -10.00044,4.50043 -10.00044,10.00043 v 33.29943 c 0,5.5 4.50044,10.00044 10.00044,10.00044 h 48.69936 c 5.5,0 10.00043,-4.50044 10.00043,-10.00044 v -33.29943 c 0,-5.5 -4.50043,-10.00043 -10.00043,-10.00043 z m 97.29917,0 c -5.5,0 -10.00044,4.50043 -10.00044,10.00043 v 33.29943 c 0,5.5 4.50044,10.00044 10.00044,10.00044 h 48.69936 c 5.5,0 10.00043,-4.50044 10.00043,-10.00044 v -33.29943 c 0,-5.5 -4.40043,-10.00043 -10.00043,-10.00043 z" /><path
       id="path1"
       style="opacity:0.6;fill:#00abff;filter:url(#filter12)"
       d="m 35.000739,-4.4802323 c -21.729473,0 -39.4809502,17.7514773 -39.4809502,39.4809503 V 464.99884 c 0,21.72947 17.7514772,39.48095 39.4809502,39.48095 H 464.99886 c 21.72947,0 39.48095,-17.75148 39.48095,-39.48095 V 35.000718 c 0,-21.729473 -17.75148,-39.4809503 -39.48095,-39.4809503 z m 0,18.9617553 H 464.99886 c 11.37613,0 20.52169,9.143061 20.52169,20.519195 V 464.99884 c 0,11.37613 -9.14556,20.52169 -20.52169,20.52169 H 35.000739 c -11.376134,0 -20.519195,-9.14556 -20.519195,-20.52169 V 35.000718 c 0,-11.376134 9.143061,-20.519195 20.519195,-20.519195 z" /><path
       id="path3"
       style="opacity:0.6;fill:#00abff;filter:url(#filter11)"
       d="m 249.9998,-4.4802323 c -5.14565,0 -9.47713,4.3339813 -9.47713,9.4796279 V 29.800922 c 0,5.145647 4.33148,9.477128 9.47713,9.477128 5.25231,0 9.47963,-4.344605 9.47963,-9.477128 V 4.9993956 c 0,-5.1456466 -4.33398,-9.4796279 -9.47963,-9.4796279 z M 59.999758,32.9208 c -16.223866,0 -29.478843,13.254975 -29.478843,29.478842 v 30.301311 c 0,5.145651 4.333976,9.479627 9.479628,9.479627 5.252314,0 9.479628,-4.344706 9.479628,-9.479627 V 62.399642 c 0,-5.889327 4.63026,-10.519587 10.519587,-10.519587 h 4.299831 c 5.14796,0 9.479628,-4.333978 9.479628,-9.479628 0,-5.145651 -4.333977,-9.479627 -9.479628,-9.479627 z m 29.001361,0 c -5.145651,0 -9.479628,4.333976 -9.479628,9.479627 0,5.14565 4.331668,9.479628 9.479628,9.479628 h 14.999411 c 5.14796,0 9.47963,-4.331667 9.47963,-9.479628 0,-5.147961 -4.33398,-9.479627 -9.47963,-9.479627 z M 249.9998,45.420309 c -5.14565,0 -9.47713,4.333981 -9.47713,9.479628 v 40.628405 c -8.91315,4.130614 -15.6715,13.618278 -20.51919,26.086478 -4.90287,12.6101 -7.75396,28.68878 -8.27218,46.63567 -1.46343,-1.02209 -2.51478,-2.15162 -3.03988,-3.18238 l -0.002,-0.005 -0.002,-0.005 c -9.81496,-19.15346 -11.77048,-39.53716 -5.70727,-59.34267 l 0.002,-0.005 3.19987,-10.39209 c 1.52886,-4.968808 -1.31931,-10.277863 -6.26475,-11.799537 -4.96664,-1.528198 -10.27766,1.316144 -11.79954,6.262255 l -3.19988,10.404592 v 0.002 c -7.31655,23.8804 -5.14225,48.63951 5.97227,71.52969 h -1.58994 c -8.01602,0 -14.8317,-3.79943 -16.69184,-7.5197 l -0.01,-0.02 -0.007,-0.0175 C 161.87683,143.2113 159.811,120.92703 166.38558,99.200698 v -0.0025 l 3.39487,-11.179561 c 1.52886,-4.968808 -1.31682,-10.280363 -6.26226,-11.802037 -4.96882,-1.528866 -10.28036,1.31931 -11.80203,6.264754 l -0.002,0.01 -3.40237,11.20706 c -8.02783,26.378816 -5.38196,53.797866 7.49721,79.036896 5.77842,11.31606 19.03367,17.8443 33.59118,17.8443 h 22.9941 c 0.0524,0.54962 0.11005,1.09396 0.16749,1.63994 h -23.16159 c -14.55751,0 -27.81276,6.52574 -33.59118,17.8418 -12.88422,25.14873 -15.52603,52.66398 -7.49721,79.04439 l 3.41987,11.25456 0.02,0.055 c 1.32072,3.96216 4.95696,6.56224 9.04714,6.56224 1.14365,0 1.39821,-0.0975 1.50244,-0.0975 h 0.67498 l 0.64247,-0.1975 c 4.94483,-1.52148 7.78778,-6.8315 6.26225,-11.79703 l -3.39486,-11.18206 v -0.005 c -6.57391,-21.72575 -4.50892,-44.00838 6.20475,-64.95745 l 0.008,-0.0175 0.01,-0.02 c 1.86033,-3.72065 8.67653,-7.52471 16.69185,-7.52471 h 2.32741 c -0.0683,0.14962 -0.16668,0.28143 -0.23249,0.43249 l -0.005,0.007 -0.002,0.008 c -11.68244,27.08673 -13.96901,56.54378 -6.72724,84.78668 l 0.002,0.007 3.20237,12.30951 -0.0425,-0.17749 c 0.96724,4.44928 4.94058,7.32971 9.17714,7.32971 0.46054,0 1.64447,-0.094 2.79239,-0.47748 4.81878,-1.42087 7.8169,-6.52014 6.54474,-11.42705 v -0.002 l -3.19738,-12.29202 -0.002,-0.01 c -6.24941,-24.23722 -4.24614,-49.26071 5.76727,-72.57715 l 0.005,-0.005 c 1.14882,-2.62058 3.69139,-4.98275 6.98472,-6.47474 0.93023,3.81729 1.95108,7.53325 3.18488,10.97956 2.05993,5.81194 1.61353,11.96723 -0.99746,17.50932 -1.84274,0.96373 -3.37526,2.49422 -4.26483,4.45732 -6.1e-4,10e-4 -0.002,0.004 -0.002,0.005 -2.37493,5.20381 -3.50237,10.75906 -3.50237,16.35436 0,13.46744 6.80195,25.53534 17.20683,32.81621 0.12342,0.0885 0.27658,0.20308 0.48248,0.34499 l 0.015,0.01 0.015,0.01 c 0.67234,0.455 1.34763,0.87625 2.01492,1.27245 l 0.007,0.005 c 0.004,0.002 0.009,0.004 0.0125,0.007 0.84631,0.50683 1.6863,0.95522 2.5074,1.36744 h 0.005 c 0.0814,0.0407 0.24245,0.13025 0.48998,0.24999 0.81601,0.39498 1.63634,0.75121 2.4574,1.07996 0.35066,0.14153 0.73638,0.29672 1.16746,0.45498 l 0.01,0.002 0.007,0.002 c 0.40342,0.14623 0.86241,0.31474 1.37744,0.47998 0.005,0.002 0.01,5e-4 0.015,0.002 0.004,0.001 0.006,0.004 0.01,0.005 0.93712,0.30441 1.87484,0.56434 2.80239,0.79247 l 0.0175,0.005 0.0175,0.005 c 0.0557,0.0132 0.16737,0.0405 0.31749,0.075 2.06851,0.48882 4.21028,0.82857 6.41225,0.98246 l 0.15749,0.01 h 0.45748 c 0.17212,0 0.32577,-0.016 0.48998,-0.025 0.0456,0.004 -0.13841,0.005 0.1175,0.005 h 0.99996 c 0.74002,0 1.24343,-0.0504 1.64243,-0.075 0.3153,0.0345 0.60496,0.095 0.94747,0.095 0.0425,0 0.31849,0.048 1.05496,-0.0975 0.074,-0.0146 0.26384,-0.1284 0.35248,-0.14749 20.44743,-1.85818 36.47107,-19.16291 36.47107,-39.83344 0,-5.59598 -1.12844,-11.15208 -3.50236,-16.35435 -1.06563,-2.35559 -3.05168,-4.10444 -5.40729,-4.96481 -2.35917,-5.38526 -2.72344,-11.30094 -0.73997,-16.90184 l 0.002,-0.007 c 1.23722,-3.48042 2.26223,-7.21949 3.19487,-11.05706 3.33997,1.46527 5.90436,3.82942 7.06973,6.53474 10.02349,23.32623 12.02931,48.36126 5.77477,72.60965 l -3.19737,12.29202 v 0.002 c -1.29788,5.00613 1.81824,10.26546 6.80973,11.55955 l 0.12249,0.03 0.125,0.025 c 0.38099,0.0762 1.02387,0.28999 2.17991,0.28999 4.23656,0 8.13613,-2.99854 9.07715,-7.32721 l -0.0425,0.17499 3.19737,-12.30201 c 7.34743,-28.25309 4.959,-57.70952 -6.71223,-84.78168 l -0.002,-0.002 c -0.0837,-0.19662 -0.20697,-0.36824 -0.29499,-0.56247 h 2.4749 c 8.01532,0 14.83402,3.80154 16.69435,7.5222 l 0.01,0.02 0.007,0.0175 c 10.71428,20.95025 12.77751,43.23554 6.20226,64.96245 l -3.39237,11.17956 c -4e-4,0.001 4e-4,0.004 0,0.005 -1.52553,4.96553 1.31493,10.27306 6.25976,11.79454 l 0.21749,0.0675 0.22249,0.045 c 0.50721,0.10144 1.29048,0.28499 2.38241,0.28499 4.09972,0 7.92913,-2.62417 9.10714,-6.74723 l 3.37737,-11.22706 0.002,-0.005 c 8.02698,-26.37812 5.38159,-53.7986 -7.49721,-79.0369 -5.77842,-11.31606 -19.03617,-17.8418 -33.59368,-17.8418 h -23.15159 c 0.0539,-0.513 0.10801,-1.02367 0.15749,-1.53994 h 23.0941 c 14.54702,0 27.83,-6.53268 33.50368,-17.97179 12.8718,-25.14032 15.50933,-52.64197 7.48471,-79.011902 v -0.0025 l -3.40237,-11.20456 v -0.0075 c -1.33211,-4.329381 -5.51904,-7.050061 -9.92211,-6.639739 -0.63259,0.05895 -1.26542,0.185901 -1.87993,0.374985 -4.94544,1.521674 -7.79361,6.830729 -6.26475,11.799537 l 3.39487,11.182061 c 6.57391,21.725738 4.51141,44.010888 -6.20226,64.959948 l -0.007,0.0175 -0.01,0.0175 c -1.86033,3.72066 -8.67902,7.5247 -16.69434,7.5247 h -1.54744 c 11.07403,-22.88069 13.13836,-47.67824 5.93476,-71.41969 l -0.002,-0.007 -3.19987,-10.412092 c -1.52188,-4.946111 -6.8354,-7.787953 -11.80204,-6.259755 -4.94544,1.521674 -7.79111,6.828229 -6.26225,11.797037 l 3.19237,10.37459 c 5.97703,19.82858 4.1108,40.22277 -5.69977,59.36767 l -0.002,0.002 v 0.005 c -0.51628,1.01344 -1.57464,2.13948 -3.04238,3.16238 -0.52067,-17.90125 -3.37266,-33.96299 -8.27218,-46.57317 -4.84768,-12.47678 -11.6001,-21.981169 -20.51669,-26.121478 V 54.899937 c 0,-5.145647 -4.33398,-9.479628 -9.47963,-9.479628 z m -6.85723,72.674651 c 1.74265,1.86634 4.16576,3.08487 6.85723,3.08487 2.69147,0 5.11458,-1.21853 6.85723,-3.08487 2.43562,3.49549 4.99239,8.41353 7.04472,14.87691 3.20088,10.08047 5.34675,23.38538 5.54479,38.64848 h -1.08996 l 1.05246,5.3448 c 0.20313,1.03122 0.32554,2.07657 0.36748,3.12737 l 0.01,0.63248 c -0.014,1.65913 -0.22889,3.30974 -0.64247,4.9148 l -0.0975,0.37999 -0.03,0.38748 c -0.14965,1.91581 -0.39645,3.75143 -0.60997,5.61478 h -0.66248 l 0.0825,5.1573 c -0.003,3.28941 -0.63123,6.5367 -1.81743,9.46963 l -0.12749,0.31499 -0.08,0.33498 c -0.83617,3.54448 -1.75944,6.90651 -2.82239,9.90212 -3.18528,8.96911 -3.02968,18.58757 -0.0675,27.43642 -4.79819,2.5594 -9.08428,5.9159 -12.50701,10.0546 -3.59259,-4.33499 -8.11823,-7.81986 -13.21198,-10.39459 2.84992,-8.75329 2.97524,-18.24014 -0.16999,-27.09643 -1.05939,-2.98555 -1.98282,-6.3386 -2.81739,-9.87212 l -0.0775,-0.33248 -0.13249,-0.31999 c -1.14316,-2.81921 -1.76429,-5.92949 -1.81493,-9.09214 0.009,-0.26402 0.0203,-0.52906 0.0375,-0.79247 l 0.30999,-4.76982 h -0.93247 c -0.14618,-1.37019 -0.32092,-2.68876 -0.44748,-4.10483 l -0.045,-0.49999 -0.15249,-0.47748 c -0.61002,-1.88997 -0.93751,-3.86115 -0.97746,-5.84977 -0.004,-1.44991 0.14253,-2.8953 0.44498,-4.31233 l 0.10749,-0.50498 -0.01,-0.51498 c -0.0136,-0.73068 -0.035,-1.37789 -0.035,-1.95742 0,-16.2115 2.26035,-30.25647 5.61728,-40.8284 2.05233,-6.46338 4.6091,-11.38142 7.04472,-14.87691 z M 230.57056,262.2893 c 5.86036,3.74221 9.88116,9.96452 10.37709,17.18932 -0.0134,0.35537 -0.0207,0.71381 -0.025,1.07496 -6.24791,-3.22289 -10.44209,-9.60024 -10.44209,-17.25182 0,-0.33792 0.0704,-0.67474 0.09,-1.01246 z m 38.86348,0.49248 c 0.005,0.17431 0.085,0.34564 0.085,0.51998 0,5.30557 -2.07661,10.20126 -5.95226,13.99445 -1.0751,1.05222 -2.27491,1.8897 -3.51237,2.64489 0.34121,-7.04003 3.92701,-13.28965 9.37964,-17.15932 z m 190.56502,137.4396 c -5.14566,0 -9.47963,4.32917 -9.47963,9.47713 v 30.30131 c 0,5.88933 -4.63026,10.51959 -10.51959,10.51959 h -4.29983 c -5.14796,0 -9.47963,4.33396 -9.47963,9.47962 0,5.14566 4.33397,9.47963 9.47963,9.47963 h 4.29983 c 16.22387,0 29.47884,-13.25497 29.47884,-29.47884 v -30.30131 c 0,-5.14566 -4.33396,-9.47713 -9.47962,-9.47713 z m -63.99999,50.29803 c -5.14796,0 -9.47963,4.33166 -9.47963,9.47962 0,5.14796 4.33397,9.47963 9.47963,9.47963 h 15.00191 c 5.14566,0 9.47713,-4.33398 9.47713,-9.47963 0,-5.14565 -4.32917,-9.47962 -9.47713,-9.47962 z" /></g><g
     id="g6"
     class="st1"
     transform="matrix(0.78128067,0,0,0.78128067,42.488584,45.855788)"><path
       id="path4"
       style="fill:url(#linearGradient11);fill-opacity:1"
       class="st6"
       d="m 79.700485,368.29986 c -5.5,0 -10.000433,4.50043 -10.000433,10.00043 v 33.29943 c 0,5.5 4.500433,10.00044 10.000433,10.00044 h 48.699355 c 5.5,0 10.00044,-4.50044 10.00044,-10.00044 v -33.29943 c -0.1,-5.5 -4.49999,-10.00043 -10.09999,-10.00043 z m 97.299165,0 c -5.5,0 -10.00043,4.50043 -10.00043,10.00043 v 33.29943 c 0,5.5 4.50043,10.00044 10.00043,10.00044 h 48.69936 c 5.5,0 10.00044,-4.50044 10.00044,-10.00044 v -33.29943 c 0,-5.5 -4.50044,-10.00043 -10.00044,-10.00043 z m 97.30134,0 c -5.5,0 -10.00044,4.50043 -10.00044,10.00043 v 33.29943 c 0,5.5 4.50044,10.00044 10.00044,10.00044 h 48.69936 c 5.5,0 10.00043,-4.50044 10.00043,-10.00044 v -33.29943 c 0,-5.5 -4.50043,-10.00043 -10.00043,-10.00043 z m 97.29917,0 c -5.5,0 -10.00044,4.50043 -10.00044,10.00043 v 33.29943 c 0,5.5 4.50044,10.00044 10.00044,10.00044 h 48.69936 c 5.5,0 10.00043,-4.50044 10.00043,-10.00044 v -33.29943 c 0,-5.5 -4.40043,-10.00043 -10.00043,-10.00043 z" /><path
       id="path5"
       style="fill:url(#linearGradient8);fill-opacity:1"
       d="m 35.000739,-4.4802323 c -21.729473,0 -39.4809502,17.7514773 -39.4809502,39.4809503 V 464.99884 c 0,21.72947 17.7514772,39.48095 39.4809502,39.48095 H 464.99886 c 21.72947,0 39.48095,-17.75148 39.48095,-39.48095 V 35.000718 c 0,-21.729473 -17.75148,-39.4809503 -39.48095,-39.4809503 z m 0,18.9617553 H 464.99886 c 11.37613,0 20.52169,9.143061 20.52169,20.519195 V 464.99884 c 0,11.37613 -9.14556,20.52169 -20.52169,20.52169 H 35.000739 c -11.376134,0 -20.519195,-9.14556 -20.519195,-20.52169 V 35.000718 c 0,-11.376134 9.143061,-20.519195 20.519195,-20.519195 z" /><path
       id="path6"
       style="fill:url(#linearGradient7);fill-opacity:1"
       d="m 249.9998,-4.4802323 c -5.14565,0 -9.47713,4.3339813 -9.47713,9.4796279 V 29.800922 c 0,5.145647 4.33148,9.477128 9.47713,9.477128 5.25231,0 9.47963,-4.344605 9.47963,-9.477128 V 4.9993956 c 0,-5.1456466 -4.33398,-9.4796279 -9.47963,-9.4796279 z M 59.999758,32.9208 c -16.223866,0 -29.478843,13.254975 -29.478843,29.478842 v 30.301311 c 0,5.145651 4.333976,9.479627 9.479628,9.479627 5.252314,0 9.479628,-4.344706 9.479628,-9.479627 V 62.399642 c 0,-5.889327 4.63026,-10.519587 10.519587,-10.519587 h 4.299831 c 5.14796,0 9.479628,-4.333978 9.479628,-9.479628 0,-5.145651 -4.333977,-9.479627 -9.479628,-9.479627 z m 29.001361,0 c -5.145651,0 -9.479628,4.333976 -9.479628,9.479627 0,5.14565 4.331668,9.479628 9.479628,9.479628 h 14.999411 c 5.14796,0 9.47963,-4.331667 9.47963,-9.479628 0,-5.147961 -4.33398,-9.479627 -9.47963,-9.479627 z M 249.9998,45.420309 c -5.14565,0 -9.47713,4.333981 -9.47713,9.479628 v 40.628405 c -8.91315,4.130614 -15.6715,13.618278 -20.51919,26.086478 -4.90287,12.6101 -7.75396,28.68878 -8.27218,46.63567 -1.46343,-1.02209 -2.51478,-2.15162 -3.03988,-3.18238 l -0.002,-0.005 -0.002,-0.005 c -9.81496,-19.15346 -11.77048,-39.53716 -5.70727,-59.34267 l 0.002,-0.005 3.19987,-10.39209 c 1.52886,-4.968808 -1.31931,-10.277863 -6.26475,-11.799537 -4.96664,-1.528198 -10.27766,1.316144 -11.79954,6.262255 l -3.19988,10.404592 v 0.002 c -7.31655,23.8804 -5.14225,48.63951 5.97227,71.52969 h -1.58994 c -8.01602,0 -14.8317,-3.79943 -16.69184,-7.5197 l -0.01,-0.02 -0.007,-0.0175 C 161.87683,143.2113 159.811,120.92703 166.38558,99.200698 v -0.0025 l 3.39487,-11.179561 c 1.52886,-4.968808 -1.31682,-10.280363 -6.26226,-11.802037 -4.96882,-1.528866 -10.28036,1.31931 -11.80203,6.264754 l -0.002,0.01 -3.40237,11.20706 c -8.02783,26.378816 -5.38196,53.797866 7.49721,79.036896 5.77842,11.31606 19.03367,17.8443 33.59118,17.8443 h 22.9941 c 0.0524,0.54962 0.11005,1.09396 0.16749,1.63994 h -23.16159 c -14.55751,0 -27.81276,6.52574 -33.59118,17.8418 -12.88422,25.14873 -15.52603,52.66398 -7.49721,79.04439 l 3.41987,11.25456 0.02,0.055 c 1.32072,3.96216 4.95696,6.56224 9.04714,6.56224 1.14365,0 1.39821,-0.0975 1.50244,-0.0975 h 0.67498 l 0.64247,-0.1975 c 4.94483,-1.52148 7.78778,-6.8315 6.26225,-11.79703 l -3.39486,-11.18206 v -0.005 c -6.57391,-21.72575 -4.50892,-44.00838 6.20475,-64.95745 l 0.008,-0.0175 0.01,-0.02 c 1.86033,-3.72065 8.67653,-7.52471 16.69185,-7.52471 h 2.32741 c -0.0683,0.14962 -0.16668,0.28143 -0.23249,0.43249 l -0.005,0.007 -0.002,0.008 c -11.68244,27.08673 -13.96901,56.54378 -6.72724,84.78668 l 0.002,0.007 3.20237,12.30951 -0.0425,-0.17749 c 0.96724,4.44928 4.94058,7.32971 9.17714,7.32971 0.46054,0 1.64447,-0.094 2.79239,-0.47748 4.81878,-1.42087 7.8169,-6.52014 6.54474,-11.42705 v -0.002 l -3.19738,-12.29202 -0.002,-0.01 c -6.24941,-24.23722 -4.24614,-49.26071 5.76727,-72.57715 l 0.005,-0.005 c 1.14882,-2.62058 3.69139,-4.98275 6.98472,-6.47474 0.93023,3.81729 1.95108,7.53325 3.18488,10.97956 2.05993,5.81194 1.61353,11.96723 -0.99746,17.50932 -1.84274,0.96373 -3.37526,2.49422 -4.26483,4.45732 -6.1e-4,10e-4 -0.002,0.004 -0.002,0.005 -2.37493,5.20381 -3.50237,10.75906 -3.50237,16.35436 0,13.46744 6.80195,25.53534 17.20683,32.81621 0.12342,0.0885 0.27658,0.20308 0.48248,0.34499 l 0.015,0.01 0.015,0.01 c 0.67234,0.455 1.34763,0.87625 2.01492,1.27245 l 0.007,0.005 c 0.004,0.002 0.009,0.004 0.0125,0.007 0.84631,0.50683 1.6863,0.95522 2.5074,1.36744 h 0.005 c 0.0814,0.0407 0.24245,0.13025 0.48998,0.24999 0.81601,0.39498 1.63634,0.75121 2.4574,1.07996 0.35066,0.14153 0.73638,0.29672 1.16746,0.45498 l 0.01,0.002 0.007,0.002 c 0.40342,0.14623 0.86241,0.31474 1.37744,0.47998 0.005,0.002 0.01,5e-4 0.015,0.002 0.004,0.001 0.006,0.004 0.01,0.005 0.93712,0.30441 1.87484,0.56434 2.80239,0.79247 l 0.0175,0.005 0.0175,0.005 c 0.0557,0.0132 0.16737,0.0405 0.31749,0.075 2.06851,0.48882 4.21028,0.82857 6.41225,0.98246 l 0.15749,0.01 h 0.45748 c 0.17212,0 0.32577,-0.016 0.48998,-0.025 0.0456,0.004 -0.13841,0.005 0.1175,0.005 h 0.99996 c 0.74002,0 1.24343,-0.0504 1.64243,-0.075 0.3153,0.0345 0.60496,0.095 0.94747,0.095 0.0425,0 0.31849,0.048 1.05496,-0.0975 0.074,-0.0146 0.26384,-0.1284 0.35248,-0.14749 20.44743,-1.85818 36.47107,-19.16291 36.47107,-39.83344 0,-5.59598 -1.12844,-11.15208 -3.50236,-16.35435 -1.06563,-2.35559 -3.05168,-4.10444 -5.40729,-4.96481 -2.35917,-5.38526 -2.72344,-11.30094 -0.73997,-16.90184 l 0.002,-0.007 c 1.23722,-3.48042 2.26223,-7.21949 3.19487,-11.05706 3.33997,1.46527 5.90436,3.82942 7.06973,6.53474 10.02349,23.32623 12.02931,48.36126 5.77477,72.60965 l -3.19737,12.29202 v 0.002 c -1.29788,5.00613 1.81824,10.26546 6.80973,11.55955 l 0.12249,0.03 0.125,0.025 c 0.38099,0.0762 1.02387,0.28999 2.17991,0.28999 4.23656,0 8.13613,-2.99854 9.07715,-7.32721 l -0.0425,0.17499 3.19737,-12.30201 c 7.34743,-28.25309 4.959,-57.70952 -6.71223,-84.78168 l -0.002,-0.002 c -0.0837,-0.19662 -0.20697,-0.36824 -0.29499,-0.56247 h 2.4749 c 8.01532,0 14.83402,3.80154 16.69435,7.5222 l 0.01,0.02 0.007,0.0175 c 10.71428,20.95025 12.77751,43.23554 6.20226,64.96245 l -3.39237,11.17956 c -4e-4,0.001 4e-4,0.004 0,0.005 -1.52553,4.96553 1.31493,10.27306 6.25976,11.79454 l 0.21749,0.0675 0.22249,0.045 c 0.50721,0.10144 1.29048,0.28499 2.38241,0.28499 4.09972,0 7.92913,-2.62417 9.10714,-6.74723 l 3.37737,-11.22706 0.002,-0.005 c 8.02698,-26.37812 5.38159,-53.7986 -7.49721,-79.0369 -5.77842,-11.31606 -19.03617,-17.8418 -33.59368,-17.8418 h -23.15159 c 0.0539,-0.513 0.10801,-1.02367 0.15749,-1.53994 h 23.0941 c 14.54702,0 27.83,-6.53268 33.50368,-17.97179 12.8718,-25.14032 15.50933,-52.64197 7.48471,-79.011902 v -0.0025 l -3.40237,-11.20456 v -0.0075 c -1.33211,-4.329381 -5.51904,-7.050061 -9.92211,-6.639739 -0.63259,0.05895 -1.26542,0.185901 -1.87993,0.374985 -4.94544,1.521674 -7.79361,6.830729 -6.26475,11.799537 l 3.39487,11.182061 c 6.57391,21.725738 4.51141,44.010888 -6.20226,64.959948 l -0.007,0.0175 -0.01,0.0175 c -1.86033,3.72066 -8.67902,7.5247 -16.69434,7.5247 h -1.54744 c 11.07403,-22.88069 13.13836,-47.67824 5.93476,-71.41969 l -0.002,-0.007 -3.19987,-10.412092 c -1.52188,-4.946111 -6.8354,-7.787953 -11.80204,-6.259755 -4.94544,1.521674 -7.79111,6.828229 -6.26225,11.797037 l 3.19237,10.37459 c 5.97703,19.82858 4.1108,40.22277 -5.69977,59.36767 l -0.002,0.002 v 0.005 c -0.51628,1.01344 -1.57464,2.13948 -3.04238,3.16238 -0.52067,-17.90125 -3.37266,-33.96299 -8.27218,-46.57317 -4.84768,-12.47678 -11.6001,-21.981169 -20.51669,-26.121478 V 54.899937 c 0,-5.145647 -4.33398,-9.479628 -9.47963,-9.479628 z m -6.85723,72.674651 c 1.74265,1.86634 4.16576,3.08487 6.85723,3.08487 2.69147,0 5.11458,-1.21853 6.85723,-3.08487 2.43562,3.49549 4.99239,8.41353 7.04472,14.87691 3.20088,10.08047 5.34675,23.38538 5.54479,38.64848 h -1.08996 l 1.05246,5.3448 c 0.20313,1.03122 0.32554,2.07657 0.36748,3.12737 l 0.01,0.63248 c -0.014,1.65913 -0.22889,3.30974 -0.64247,4.9148 l -0.0975,0.37999 -0.03,0.38748 c -0.14965,1.91581 -0.39645,3.75143 -0.60997,5.61478 h -0.66248 l 0.0825,5.1573 c -0.003,3.28941 -0.63123,6.5367 -1.81743,9.46963 l -0.12749,0.31499 -0.08,0.33498 c -0.83617,3.54448 -1.75944,6.90651 -2.82239,9.90212 -3.18528,8.96911 -3.02968,18.58757 -0.0675,27.43642 -4.79819,2.5594 -9.08428,5.9159 -12.50701,10.0546 -3.59259,-4.33499 -8.11823,-7.81986 -13.21198,-10.39459 2.84992,-8.75329 2.97524,-18.24014 -0.16999,-27.09643 -1.05939,-2.98555 -1.98282,-6.3386 -2.81739,-9.87212 l -0.0775,-0.33248 -0.13249,-0.31999 c -1.14316,-2.81921 -1.76429,-5.92949 -1.81493,-9.09214 0.009,-0.26402 0.0203,-0.52906 0.0375,-0.79247 l 0.30999,-4.76982 h -0.93247 c -0.14618,-1.37019 -0.32092,-2.68876 -0.44748,-4.10483 l -0.045,-0.49999 -0.15249,-0.47748 c -0.61002,-1.88997 -0.93751,-3.86115 -0.97746,-5.84977 -0.004,-1.44991 0.14253,-2.8953 0.44498,-4.31233 l 0.10749,-0.50498 -0.01,-0.51498 c -0.0136,-0.73068 -0.035,-1.37789 -0.035,-1.95742 0,-16.2115 2.26035,-30.25647 5.61728,-40.8284 2.05233,-6.46338 4.6091,-11.38142 7.04472,-14.87691 z M 230.57056,262.2893 c 5.86036,3.74221 9.88116,9.96452 10.37709,17.18932 -0.0134,0.35537 -0.0207,0.71381 -0.025,1.07496 -6.24791,-3.22289 -10.44209,-9.60024 -10.44209,-17.25182 0,-0.33792 0.0704,-0.67474 0.09,-1.01246 z m 38.86348,0.49248 c 0.005,0.17431 0.085,0.34564 0.085,0.51998 0,5.30557 -2.07661,10.20126 -5.95226,13.99445 -1.0751,1.05222 -2.27491,1.8897 -3.51237,2.64489 0.34121,-7.04003 3.92701,-13.28965 9.37964,-17.15932 z m 190.56502,137.4396 c -5.14566,0 -9.47963,4.32917 -9.47963,9.47713 v 30.30131 c 0,5.88933 -4.63026,10.51959 -10.51959,10.51959 h -4.29983 c -5.14796,0 -9.47963,4.33396 -9.47963,9.47962 0,5.14566 4.33397,9.47963 9.47963,9.47963 h 4.29983 c 16.22387,0 29.47884,-13.25497 29.47884,-29.47884 v -30.30131 c 0,-5.14566 -4.33396,-9.47713 -9.47962,-9.47713 z m -63.99999,50.29803 c -5.14796,0 -9.47963,4.33166 -9.47963,9.47962 0,5.14796 4.33397,9.47963 9.47963,9.47963 h 15.00191 c 5.14566,0 9.47713,-4.33398 9.47713,-9.47963 0,-5.14565 -4.32917,-9.47962 -9.47713,-9.47962 z" /></g></g></svg>
