<?xml version="1.0" encoding="UTF-8" standalone="no"?>
<svg
   viewBox="0 0 40.973194 40.979355"
   version="1.1"
   id="svg21"
   width="40.973194"
   height="40.979355"
   xmlns:xlink="http://www.w3.org/1999/xlink"
   xmlns="http://www.w3.org/2000/svg"
   xmlns:svg="http://www.w3.org/2000/svg"
   xmlns:rdf="http://www.w3.org/1999/02/22-rdf-syntax-ns#"
   xmlns:cc="http://creativecommons.org/ns#"
   xmlns:dc="http://purl.org/dc/elements/1.1/">
  <defs
     id="defs1">
    <linearGradient
       id="linearGradient26">
      <stop
         style="stop-color:#ff3dfb;stop-opacity:0;"
         offset="0"
         id="stop27" />
      <stop
         style="stop-color:#ff3dfb;stop-opacity:1;"
         offset="1"
         id="stop26" />
    </linearGradient>
    <linearGradient
       id="linearGradient24">
      <stop
         style="stop-color:#00abff;stop-opacity:0;"
         offset="0"
         id="stop25" />
      <stop
         style="stop-color:#00abff;stop-opacity:1;"
         offset="1"
         id="stop24" />
    </linearGradient>
    <style
       id="style1">.cls-1{fill:#42a5f5;}.cls-2{fill:#424242;}</style>
    <linearGradient
       xlink:href="#linearGradient24"
       id="linearGradient25"
       x1="24.333492"
       y1="53.849846"
       x2="24.333492"
       y2="13.801322"
       gradientUnits="userSpaceOnUse" />
    <linearGradient
       xlink:href="#linearGradient26"
       id="linearGradient27"
       x1="23.14687"
       y1="54.443157"
       x2="23.14687"
       y2="13.801322"
       gradientUnits="userSpaceOnUse" />
    <filter
       style="color-interpolation-filters:sRGB"
       id="filter27"
       x="-0.027002141"
       y="-0.026997861"
       width="1.0540043"
       height="1.0539957">
      <feGaussianBlur
         stdDeviation="0.53995721"
         id="feGaussianBlur27" />
    </filter>
    <filter
       style="color-interpolation-filters:sRGB"
       id="filter28"
       x="-0.024868533"
       y="-0.029531091"
       width="1.0497371"
       height="1.0590622">
      <feGaussianBlur
         stdDeviation="0.39375178"
         id="feGaussianBlur28" />
    </filter>
  </defs>
  <title
     id="title1">Server Infection</title>
  <metadata
     id="metadata21">
    <rdf:RDF>
      <cc:Work
         rdf:about="">
        <dc:title>Server Infection</dc:title>
      </cc:Work>
    </rdf:RDF>
  </metadata>
  <g
     id="g28"
     transform="translate(-3.5096005,-3.5103232)">
    <g
       id="Server_Infection"
       data-name="Server Infection"
       transform="matrix(0.81,0,0,0.81,4.5592773,4.56)"
       style="display:inline">
      <path
         id="circle1"
         class="cls-1"
         d="M 6,4 A 2,2 0 0 0 4,6 2,2 0 0 0 6,8 2,2 0 0 0 8,6 2,2 0 0 0 6,4 Z m 6,0 A 2,2 0 0 0 10,6 2,2 0 0 0 12,8 2,2 0 0 0 14,6 2,2 0 0 0 12,4 Z M 22.908203,4.00391 A 1,1 0 0 0 22,5 v 2 a 1,1 0 0 0 2,0 V 5 A 1,1 0 0 0 22.908203,4.0039062 Z m 4,0 A 1,1 0 0 0 26,5 v 2 a 1,1 0 0 0 2,0 V 5 A 1,1 0 0 0 26.908203,4.0039062 Z m 4,0 A 1,1 0 0 0 30,5 v 2 a 1,1 0 0 0 2,0 V 5 A 1,1 0 0 0 30.908203,4.0039062 Z M 6,18 a 2,2 0 0 0 -2,2 2,2 0 0 0 2,2 2,2 0 0 0 2,-2 2,2 0 0 0 -2,-2 z m 6,0 a 2,2 0 0 0 -2,2 2,2 0 0 0 2,2 2,2 0 0 0 2,-2 2,2 0 0 0 -2,-2 z m 10.908203,0.0039 A 1,1 0 0 0 22,19 v 2 a 1,1 0 0 0 2,0 v -2 a 1,1 0 0 0 -1.091797,-0.996094 z m 11.978516,2.998047 a 1.0040916,1.0040916 0 0 0 -0.597657,1.708985 c 0.293762,0.293761 0.544451,0.549512 0.775391,0.787109 A 2,2 0 0 0 35,24 v 1 a 1,1 0 0 0 -1,1 h -1 a 1,1 0 0 0 0,2 h 1 v 2 h -1 a 1,1 0 0 0 0,2 h 1.181641 A 3,3 0 0 0 36,33.820312 V 25 h 0.837891 c 0.10778,0.02582 0.212791,0.02515 0.320312,0 H 38 v 8.820312 A 3,3 0 0 0 39.818359,32 H 41 a 1,1 0 0 0 0,-2 h -1 v -2 h 1 a 1,1 0 0 0 0,-2 h -1 a 1,1 0 0 0 -1,-1 v -1 a 2,2 0 0 0 -0.06445,-0.503906 c 0.230652,-0.23718 0.481768,-0.492487 0.775391,-0.785156 a 1.0054182,1.0054182 0 0 0 -1.421876,-1.421876 l -0.771484,0.779297 A 2,2 0 0 0 37,22 2,2 0 0 0 36.482422,22.068359 L 35.710938,21.289062 A 1.0040916,1.0040916 0 0 0 34.886719,21.001953 Z M 6,32 a 2,2 0 0 0 -2,2 2,2 0 0 0 2,2 2,2 0 0 0 2,-2 2,2 0 0 0 -2,-2 z m 6,0 a 2,2 0 0 0 -2,2 2,2 0 0 0 2,2 2,2 0 0 0 2,-2 2,2 0 0 0 -2,-2 z m 10.908203,0.0039 A 1,1 0 0 0 22,33 v 2 a 1,1 0 0 0 2,0 v -2 a 1,1 0 0 0 -1.091797,-0.996094 z"
         style="opacity:0.6;fill:#ff3dfb;fill-opacity:1;filter:url(#filter28)" />
      <path
         id="path10"
         class="cls-2"
         d="M 3,0 A 3,3 0 0 0 0,3 v 6 a 3,3 0 0 0 3,3 v 2 a 3,3 0 0 0 -3,3 v 6 a 3,3 0 0 0 3,3 v 2 a 3,3 0 0 0 -3,3 v 6 a 3,3 0 0 0 3,3 h 14 v 2 a 1,1 0 0 0 -1,1 v 1 h -3 a 1,1 0 0 0 -1,1 H 1 a 1,1 0 0 0 0,2 h 11 a 1,1 0 0 0 1,1 h 10 a 1,1 0 0 0 1,-1 h 11 a 1,1 0 0 0 0,-2 H 24 a 1,1 0 0 0 -1,-1 h -3 v -1 a 1,1 0 0 0 -1,-1 v -2 h 14 a 3,3 0 0 0 2.839844,-2.060547 11,11 0 1 0 0,-21.878906 A 3,3 0 0 0 33,14 V 12 A 3,3 0 0 0 36,9 V 3 A 3,3 0 0 0 33,0 Z m 0,2 h 30 a 1,1 0 0 1 1,1 v 6 a 1,1 0 0 1 -1,1 H 3 A 1,1 0 0 1 2,9 V 3 A 1,1 0 0 1 3,2 Z m 2,10 h 26 v 2 H 5 Z m 16.591797,3.976562 c 13.177969,-0.02953 11.900781,-0.02336 12.238281,0.494141 A 11,11 0 0 0 26.429688,24 H 3 A 1,1 0 0 1 2,23 v -6 a 1,1 0 0 1 1,-1 c 8.2,0 14.199141,-0.01359 18.591797,-0.02344 z m 17.410156,2.25 A 9,9 0 0 1 46,27 9,9 0 0 1 37,36 9,9 0 1 1 39.001953,18.226562 Z M 5,26 h 21.050781 a 9.55,9.55 0 0 0 0,2 H 5 Z m -2,4 h 23.429688 a 11,11 0 0 0 7.40039,7.529297 C 33.380078,38.219297 35.31,38 3,38 A 1,1 0 0 1 2,37 v -6 a 1,1 0 0 1 1,-1 z"
         style="display:inline;opacity:0.6;fill:#00abff;fill-opacity:1;filter:url(#filter27)" />
    </g>
    <g
       id="g24"
       data-name="Server Infection"
       transform="matrix(0.81,0,0,0.81,4.5592773,4.56)">
      <path
         id="path23"
         class="cls-1"
         d="M 6,4 A 2,2 0 0 0 4,6 2,2 0 0 0 6,8 2,2 0 0 0 8,6 2,2 0 0 0 6,4 Z m 6,0 A 2,2 0 0 0 10,6 2,2 0 0 0 12,8 2,2 0 0 0 14,6 2,2 0 0 0 12,4 Z M 22.908203,4.00391 A 1,1 0 0 0 22,5 v 2 a 1,1 0 0 0 2,0 V 5 A 1,1 0 0 0 22.908203,4.0039062 Z m 4,0 A 1,1 0 0 0 26,5 v 2 a 1,1 0 0 0 2,0 V 5 A 1,1 0 0 0 26.908203,4.0039062 Z m 4,0 A 1,1 0 0 0 30,5 v 2 a 1,1 0 0 0 2,0 V 5 A 1,1 0 0 0 30.908203,4.0039062 Z M 6,18 a 2,2 0 0 0 -2,2 2,2 0 0 0 2,2 2,2 0 0 0 2,-2 2,2 0 0 0 -2,-2 z m 6,0 a 2,2 0 0 0 -2,2 2,2 0 0 0 2,2 2,2 0 0 0 2,-2 2,2 0 0 0 -2,-2 z m 10.908203,0.0039 A 1,1 0 0 0 22,19 v 2 a 1,1 0 0 0 2,0 v -2 a 1,1 0 0 0 -1.091797,-0.996094 z m 11.978516,2.998047 a 1.0040916,1.0040916 0 0 0 -0.597657,1.708985 c 0.293762,0.293761 0.544451,0.549512 0.775391,0.787109 A 2,2 0 0 0 35,24 v 1 a 1,1 0 0 0 -1,1 h -1 a 1,1 0 0 0 0,2 h 1 v 2 h -1 a 1,1 0 0 0 0,2 h 1.181641 A 3,3 0 0 0 36,33.820312 V 25 h 0.837891 c 0.10778,0.02582 0.212791,0.02515 0.320312,0 H 38 v 8.820312 A 3,3 0 0 0 39.818359,32 H 41 a 1,1 0 0 0 0,-2 h -1 v -2 h 1 a 1,1 0 0 0 0,-2 h -1 a 1,1 0 0 0 -1,-1 v -1 a 2,2 0 0 0 -0.06445,-0.503906 c 0.230652,-0.23718 0.481768,-0.492487 0.775391,-0.785156 a 1.0054182,1.0054182 0 0 0 -1.421876,-1.421876 l -0.771484,0.779297 A 2,2 0 0 0 37,22 2,2 0 0 0 36.482422,22.068359 L 35.710938,21.289062 A 1.0040916,1.0040916 0 0 0 34.886719,21.001953 Z M 6,32 a 2,2 0 0 0 -2,2 2,2 0 0 0 2,2 2,2 0 0 0 2,-2 2,2 0 0 0 -2,-2 z m 6,0 a 2,2 0 0 0 -2,2 2,2 0 0 0 2,2 2,2 0 0 0 2,-2 2,2 0 0 0 -2,-2 z m 10.908203,0.0039 A 1,1 0 0 0 22,33 v 2 a 1,1 0 0 0 2,0 v -2 a 1,1 0 0 0 -1.091797,-0.996094 z"
         style="fill:url(#linearGradient27);fill-opacity:1" />
      <path
         id="path24"
         class="cls-2"
         d="M 3,0 A 3,3 0 0 0 0,3 v 6 a 3,3 0 0 0 3,3 v 2 a 3,3 0 0 0 -3,3 v 6 a 3,3 0 0 0 3,3 v 2 a 3,3 0 0 0 -3,3 v 6 a 3,3 0 0 0 3,3 h 14 v 2 a 1,1 0 0 0 -1,1 v 1 h -3 a 1,1 0 0 0 -1,1 H 1 a 1,1 0 0 0 0,2 h 11 a 1,1 0 0 0 1,1 h 10 a 1,1 0 0 0 1,-1 h 11 a 1,1 0 0 0 0,-2 H 24 a 1,1 0 0 0 -1,-1 h -3 v -1 a 1,1 0 0 0 -1,-1 v -2 h 14 a 3,3 0 0 0 2.839844,-2.060547 11,11 0 1 0 0,-21.878906 A 3,3 0 0 0 33,14 V 12 A 3,3 0 0 0 36,9 V 3 A 3,3 0 0 0 33,0 Z m 0,2 h 30 a 1,1 0 0 1 1,1 v 6 a 1,1 0 0 1 -1,1 H 3 A 1,1 0 0 1 2,9 V 3 A 1,1 0 0 1 3,2 Z m 2,10 h 26 v 2 H 5 Z m 16.591797,3.976562 c 13.177969,-0.02953 11.900781,-0.02336 12.238281,0.494141 A 11,11 0 0 0 26.429688,24 H 3 A 1,1 0 0 1 2,23 v -6 a 1,1 0 0 1 1,-1 c 8.2,0 14.199141,-0.01359 18.591797,-0.02344 z m 17.410156,2.25 A 9,9 0 0 1 46,27 9,9 0 0 1 37,36 9,9 0 1 1 39.001953,18.226562 Z M 5,26 h 21.050781 a 9.55,9.55 0 0 0 0,2 H 5 Z m -2,4 h 23.429688 a 11,11 0 0 0 7.40039,7.529297 C 33.380078,38.219297 35.31,38 3,38 A 1,1 0 0 1 2,37 v -6 a 1,1 0 0 1 1,-1 z"
         style="fill:url(#linearGradient25);fill-opacity:1" />
    </g>
  </g>
</svg>
