<?xml version="1.0" encoding="UTF-8" standalone="no"?>
<svg
   width="117.76416"
   height="132.65656"
   viewBox="0 0 117.76416 132.65656"
   version="1.1"
   id="svg9"
   xml:space="preserve"
   xmlns:xlink="http://www.w3.org/1999/xlink"
   xmlns="http://www.w3.org/2000/svg"
   xmlns:svg="http://www.w3.org/2000/svg"><defs
     id="defs9"><linearGradient
       id="linearGradient87"><stop
         style="stop-color:#ff3dfb;stop-opacity:0;"
         offset="0"
         id="stop87" /><stop
         style="stop-color:#ff3dfb;stop-opacity:1;"
         offset="1"
         id="stop86" /></linearGradient><linearGradient
       id="linearGradient85"><stop
         style="stop-color:#ff3dfb;stop-opacity:0;"
         offset="0"
         id="stop85" /><stop
         style="stop-color:#ff3dfb;stop-opacity:1;"
         offset="1"
         id="stop84" /></linearGradient><linearGradient
       id="linearGradient83"><stop
         style="stop-color:#ff3dfb;stop-opacity:0;"
         offset="0"
         id="stop83" /><stop
         style="stop-color:#ff3dfb;stop-opacity:1;"
         offset="1"
         id="stop82" /></linearGradient><linearGradient
       id="linearGradient81"><stop
         style="stop-color:#ff3dfb;stop-opacity:0;"
         offset="0"
         id="stop81" /><stop
         style="stop-color:#ff3dfb;stop-opacity:1;"
         offset="1"
         id="stop80" /></linearGradient><linearGradient
       id="linearGradient75"><stop
         style="stop-color:#ff3dfb;stop-opacity:0;"
         offset="0"
         id="stop76" /><stop
         style="stop-color:#ff3dfb;stop-opacity:1;"
         offset="1"
         id="stop75" /></linearGradient><linearGradient
       id="linearGradient74"><stop
         style="stop-color:#00abff;stop-opacity:0;"
         offset="0"
         id="stop74" /><stop
         style="stop-color:#00abff;stop-opacity:1;"
         offset="1"
         id="stop73" /></linearGradient><linearGradient
       id="linearGradient72"><stop
         style="stop-color:#00abff;stop-opacity:0;"
         offset="0"
         id="stop72" /><stop
         style="stop-color:#00abff;stop-opacity:1;"
         offset="1"
         id="stop71" /></linearGradient><linearGradient
       id="linearGradient70"><stop
         style="stop-color:#00abff;stop-opacity:0;"
         offset="0"
         id="stop70" /><stop
         style="stop-color:#00abff;stop-opacity:1;"
         offset="1"
         id="stop69" /></linearGradient><linearGradient
       id="linearGradient68"><stop
         style="stop-color:#00abff;stop-opacity:0;"
         offset="0"
         id="stop68" /><stop
         style="stop-color:#00abff;stop-opacity:1;"
         offset="1"
         id="stop67" /></linearGradient><linearGradient
       id="linearGradient66"><stop
         style="stop-color:#00abff;stop-opacity:0;"
         offset="0"
         id="stop66" /><stop
         style="stop-color:#00abff;stop-opacity:1;"
         offset="1"
         id="stop65" /></linearGradient><linearGradient
       id="linearGradient64"><stop
         style="stop-color:#00abff;stop-opacity:0;"
         offset="0"
         id="stop64" /><stop
         style="stop-color:#00abff;stop-opacity:1;"
         offset="1"
         id="stop63" /></linearGradient><linearGradient
       id="linearGradient56"><stop
         style="stop-color:#00abff;stop-opacity:0;"
         offset="0"
         id="stop57" /><stop
         style="stop-color:#00abff;stop-opacity:1;"
         offset="1"
         id="stop56" /></linearGradient><style
       id="style1">.cls-1{fill:#42a5f5;}.cls-2{fill:#424242;}</style><linearGradient
       xlink:href="#linearGradient56"
       id="linearGradient57"
       x1="-2.7639117"
       y1="197.60294"
       x2="94.58065"
       y2="68.422348"
       gradientUnits="userSpaceOnUse" /><linearGradient
       xlink:href="#linearGradient74"
       id="linearGradient58"
       x1="-2.7639117"
       y1="197.60294"
       x2="94.58065"
       y2="68.422348"
       gradientUnits="userSpaceOnUse" /><linearGradient
       xlink:href="#linearGradient72"
       id="linearGradient59"
       x1="-2.7639117"
       y1="197.60294"
       x2="94.58065"
       y2="68.422348"
       gradientUnits="userSpaceOnUse" /><linearGradient
       xlink:href="#linearGradient70"
       id="linearGradient60"
       x1="-2.7639117"
       y1="197.60294"
       x2="94.58065"
       y2="68.422348"
       gradientUnits="userSpaceOnUse" /><linearGradient
       xlink:href="#linearGradient68"
       id="linearGradient61"
       x1="-2.7639117"
       y1="197.60294"
       x2="94.58065"
       y2="68.422348"
       gradientUnits="userSpaceOnUse" /><linearGradient
       xlink:href="#linearGradient66"
       id="linearGradient62"
       x1="-2.7639117"
       y1="197.60294"
       x2="94.58065"
       y2="68.422348"
       gradientUnits="userSpaceOnUse" /><linearGradient
       xlink:href="#linearGradient64"
       id="linearGradient63"
       x1="22.434498"
       y1="58.451752"
       x2="22.434498"
       y2="-21.955025"
       gradientUnits="userSpaceOnUse" /><linearGradient
       xlink:href="#linearGradient75"
       id="linearGradient76"
       x1="22.051788"
       y1="60.764339"
       x2="22.051788"
       y2="-22.488699"
       gradientUnits="userSpaceOnUse" /><linearGradient
       xlink:href="#linearGradient87"
       id="linearGradient77"
       x1="22.051788"
       y1="60.764339"
       x2="22.051788"
       y2="-22.488699"
       gradientUnits="userSpaceOnUse" /><linearGradient
       xlink:href="#linearGradient85"
       id="linearGradient78"
       x1="22.051788"
       y1="60.764339"
       x2="22.051788"
       y2="-22.488699"
       gradientUnits="userSpaceOnUse" /><linearGradient
       xlink:href="#linearGradient83"
       id="linearGradient79"
       x1="22.051788"
       y1="60.764339"
       x2="22.051788"
       y2="-22.488699"
       gradientUnits="userSpaceOnUse" /><linearGradient
       xlink:href="#linearGradient81"
       id="linearGradient80"
       x1="22.051788"
       y1="60.764339"
       x2="22.051788"
       y2="-22.488699"
       gradientUnits="userSpaceOnUse" /><filter
       style="color-interpolation-filters:sRGB"
       id="filter87"
       x="-0.40232044"
       y="-0.40232044"
       width="1.8046409"
       height="1.8046409"><feGaussianBlur
         stdDeviation="0.67053409"
         id="feGaussianBlur87" /></filter><filter
       style="color-interpolation-filters:sRGB"
       id="filter88"
       x="-0.050290056"
       y="-0.20116022"
       width="1.1005801"
       height="1.4023204"><feGaussianBlur
         stdDeviation="0.67053409"
         id="feGaussianBlur88" /></filter><filter
       style="color-interpolation-filters:sRGB"
       id="filter89"
       x="-0.40232044"
       y="-0.40232044"
       width="1.8046409"
       height="1.8046409"><feGaussianBlur
         stdDeviation="0.67053409"
         id="feGaussianBlur89" /></filter><filter
       style="color-interpolation-filters:sRGB"
       id="filter90"
       x="-0.40232044"
       y="-0.40232044"
       width="1.8046409"
       height="1.8046409"><feGaussianBlur
         stdDeviation="0.67053409"
         id="feGaussianBlur90" /></filter><filter
       style="color-interpolation-filters:sRGB"
       id="filter91"
       x="-0.40232044"
       y="-0.40232044"
       width="1.8046409"
       height="1.8046409"><feGaussianBlur
         stdDeviation="0.67053409"
         id="feGaussianBlur91" /></filter><filter
       style="color-interpolation-filters:sRGB"
       id="filter92"
       x="-0.16383325"
       y="-0.066997636"
       width="1.3276665"
       height="1.1339953"><feGaussianBlur
         stdDeviation="1.5928688"
         id="feGaussianBlur92" /></filter><filter
       style="color-interpolation-filters:sRGB"
       id="filter93"
       x="-0.31735722"
       y="-0.29447582"
       width="1.6347144"
       height="1.5889516"><feGaussianBlur
         stdDeviation="1.5928688"
         id="feGaussianBlur93" /></filter><filter
       style="color-interpolation-filters:sRGB"
       id="filter130"
       x="-0.046585"
       y="-0.052588899"
       width="1.09317"
       height="1.1051778"><feGaussianBlur
         stdDeviation="0.69877499"
         id="feGaussianBlur130" /></filter><filter
       style="color-interpolation-filters:sRGB"
       id="filter131"
       x="-0.10449578"
       y="-0.033508793"
       width="1.2089916"
       height="1.0670176"><feGaussianBlur
         stdDeviation="1.6599557"
         id="feGaussianBlur131" /></filter><filter
       style="color-interpolation-filters:sRGB"
       id="filter132"
       x="-0.5115426"
       y="-1.1382554"
       width="2.0230852"
       height="3.2765107"><feGaussianBlur
         stdDeviation="1.6599557"
         id="feGaussianBlur132" /></filter><filter
       style="color-interpolation-filters:sRGB"
       id="filter133"
       x="-0.5115426"
       y="-1.1382554"
       width="2.0230852"
       height="3.2765107"><feGaussianBlur
         stdDeviation="1.6599557"
         id="feGaussianBlur133" /></filter><filter
       style="color-interpolation-filters:sRGB"
       id="filter134"
       x="-0.5115426"
       y="-1.1382554"
       width="2.0230852"
       height="3.2765107"><feGaussianBlur
         stdDeviation="1.6599557"
         id="feGaussianBlur134" /></filter><filter
       style="color-interpolation-filters:sRGB"
       id="filter135"
       x="-0.5115426"
       y="-1.1382554"
       width="2.0230852"
       height="3.2765107"><feGaussianBlur
         stdDeviation="1.6599557"
         id="feGaussianBlur135" /></filter><filter
       style="color-interpolation-filters:sRGB"
       id="filter136"
       x="-1.1382554"
       y="-0.49798672"
       width="3.2765107"
       height="1.9959734"><feGaussianBlur
         stdDeviation="1.6599557"
         id="feGaussianBlur136" /></filter></defs><title
     id="title1">SYRINGE</title><g
     id="g136"><g
       id="g37"
       style="display:inline"><g
         id="g26"
         data-name="Data Connection"
         transform="matrix(1.8404853,0,0,1.3198544,19.52034,67.483057)"><rect
           class="cls-1"
           y="34"
           width="4"
           height="4"
           rx="1"
           id="rect2"
           x="0"
           style="opacity:0.6;fill:#ff3dfb;fill-opacity:1;filter:url(#filter87)" /><rect
           class="cls-1"
           x="44"
           y="34"
           width="4"
           height="4"
           rx="1"
           id="rect3"
           style="opacity:0.6;fill:#ff3dfb;fill-opacity:1;filter:url(#filter91)" /><rect
           class="cls-1"
           x="6"
           y="40"
           width="4"
           height="4"
           rx="1"
           id="rect4"
           style="opacity:0.6;fill:#ff3dfb;fill-opacity:1;filter:url(#filter90)" /><rect
           class="cls-1"
           x="38"
           y="40"
           width="4"
           height="4"
           rx="1"
           id="rect8"
           style="opacity:0.6;fill:#ff3dfb;fill-opacity:1;filter:url(#filter89)" /><ellipse
           class="cls-1"
           cx="24"
           cy="8"
           rx="16"
           ry="4"
           id="ellipse8"
           style="opacity:0.6;fill:#ff3dfb;fill-opacity:1;filter:url(#filter88)" /><path
           class="cls-2"
           d="m 37,35 v -6.47 c 1.77,-0.58 3,-1.4 3,-2.53 V 11.11 a 10.06,10.06 0 0 1 -2,1 v 1.8 c -0.64,0.74 -5.37,2.11 -14,2.11 -8.63,0 -13.36,-1.37 -14,-2.11 v -1.8 a 10.06,10.06 0 0 1 -2,-1 V 26 c 0,1.13 1.23,1.95 3,2.53 V 35 H 6 v 2 h 6 a 1,1 0 0 0 1,-1 v -6.95 a 47.11,47.11 0 0 0 6,0.77 V 41 h -7 v 2 h 8 a 1,1 0 0 0 1,-1 V 29.93 c 1.48,0.06 2.61,0.07 3,0.07 0.39,0 1.52,0 3,-0.07 V 42 a 1,1 0 0 0 1,1 h 8 V 41 H 29 V 29.82 a 47.11,47.11 0 0 0 6,-0.77 v 7 a 1,1 0 0 0 1,1 h 6 V 35 Z M 10,16.15 c 4,1.78 12.74,1.85 14,1.85 1.26,0 10,-0.07 14,-1.85 v 3.74 C 37.36,20.63 32.63,22 24,22 15.37,22 10.64,20.63 10,19.89 Z M 24,28 C 15.37,28 10.64,26.63 10,25.89 v -3.74 c 4,1.78 12.74,1.85 14,1.85 1.26,0 10,-0.07 14,-1.85 v 3.74 C 37.36,26.63 32.63,28 24,28 Z"
           id="path8"
           style="opacity:0.6;fill:#00abff;fill-opacity:1;filter:url(#filter130)" /><g
           id="g25"><g
             id="g24"
             transform="matrix(0.28469923,-0.29916243,0.21453627,0.39700193,-19.171615,-20.823853)"><path
               d="m 75.667,34.326 v 52.06 a 5,5 0 0 1 -5,5 H 57.333 a 5,5 0 0 1 -5,-5 v -52.06 z"
               fill="#dff6fd"
               id="path17"
               style="opacity:0.6;fill:#ff3dfb;fill-opacity:1;filter:url(#filter92)" /><polygon
               points="68.596,104.368 59.404,104.368 57.977,91.386 70.023,91.386 "
               fill="#99e6fc"
               id="polygon17"
               style="opacity:0.6;fill:#ff3dfb;fill-opacity:1;filter:url(#filter93)" /><g
               id="g23"><path
                 d="m 52.333,76.689 a 1.751,1.751 0 0 0 1.75,-1.75 v -4.5 a 1.75,1.75 0 0 0 -3.5,0 v 4.5 a 1.751,1.751 0 0 0 1.75,1.75 z"
                 id="path18"
                 style="opacity:0.6;fill:#00abff;fill-opacity:1;filter:url(#filter136)" /><path
                 d="m 61.856,81.724 h 4.288 a 1.75,1.75 0 0 0 0,-3.5 h -4.288 a 1.75,1.75 0 0 0 0,3.5 z"
                 id="path19"
                 style="opacity:0.6;fill:#00abff;fill-opacity:1;filter:url(#filter135)" /><path
                 d="m 61.856,70.312 h 4.288 a 1.75,1.75 0 0 0 0,-3.5 h -4.288 a 1.75,1.75 0 0 0 0,3.5 z"
                 id="path20"
                 style="opacity:0.6;fill:#00abff;fill-opacity:1;filter:url(#filter134)" /><path
                 d="m 61.856,58.9 h 4.288 a 1.75,1.75 0 0 0 0,-3.5 h -4.288 a 1.75,1.75 0 0 0 0,3.5 z"
                 id="path21"
                 style="opacity:0.6;fill:#00abff;fill-opacity:1;filter:url(#filter133)" /><path
                 d="m 61.856,47.488 h 4.288 a 1.75,1.75 0 0 0 0,-3.5 h -4.288 a 1.75,1.75 0 1 0 0,3.5 z"
                 id="path22"
                 style="opacity:0.6;fill:#00abff;fill-opacity:1;filter:url(#filter132)" /><path
                 d="M 82.886,26.469 C 82.593957,25.864238 81.981585,25.479952 81.31,25.48 H 70.121 V 14.426 h 4.624 c 0.96627,-5.52e-4 1.749448,-0.78373 1.75,-1.75 V 8.807 c -0.0028,-2.346068 -1.903932,-4.2472448 -4.25,-4.25 -2.333332,0 -2.333332,3.5 0,3.5 0.413985,5.509e-4 0.749449,0.3360148 0.75,0.75 v 2.119 H 55.005 V 8.807 c 5.51e-4,-0.4139852 0.336015,-0.7494491 0.75,-0.75 h 7.127 c 2.333332,0 2.333332,-3.5 0,-3.5 h -7.127 c -2.346068,0.00276 -4.247245,1.903932 -4.25,4.25 v 3.869 c 5.52e-4,0.96627 0.78373,1.749448 1.75,1.75 h 4.624 V 25.48 H 46.69 c -1.465559,-9.98e-4 -2.282356,1.692857 -1.369,2.839 l 5.262,6.618 v 25.847 c 0,2.333332 3.5,2.333332 3.5,0 V 36.076 h 19.834 v 50.31 c -0.0022,1.794012 -1.455988,3.247796 -3.25,3.25 H 57.333 c -1.794012,-0.0022 -3.247796,-1.455988 -3.25,-3.25 v -2.209 c 0,-2.333332 -3.5,-2.333332 -3.5,0 v 2.209 c 0.0058,3.363874 2.48571,6.210896 5.817,6.678 l 1.264,11.5 c 0.0974,0.88704 0.846631,1.55872 1.739,1.559 h 2.847 v 15.575 c 0,2.33333 3.5,2.33333 3.5,0 v -15.58 h 2.85 c 0.892369,-2.8e-4 1.641604,-0.67196 1.739,-1.559 l 1.264,-11.5 c 3.331687,-0.466651 5.812173,-3.313796 5.818,-6.678 V 34.937 l 5.262,-6.618 c 0.41738,-0.52649 0.49628,-1.245529 0.203,-1.85 z M 60.973,102.618 59.93,93.136 h 8.14 l -1.043,9.482 z m 0.406,-88.192 h 5.242 V 25.48 h -5.242 z m 13.444,18.15 H 53.177 l -2.86,-3.6 h 27.366 z"
                 id="path23"
                 style="opacity:0.6;fill:#00abff;fill-opacity:1;filter:url(#filter131)" /></g></g></g></g></g><g
       id="g19"><g
         id="g18"
         data-name="Data Connection"
         transform="matrix(1.8404853,0,0,1.3198544,19.52034,67.483057)"><rect
           class="cls-1"
           y="34"
           width="4"
           height="4"
           rx="1"
           id="rect1"
           x="0"
           style="fill:url(#linearGradient76);fill-opacity:1" /><rect
           class="cls-1"
           x="44"
           y="34"
           width="4"
           height="4"
           rx="1"
           id="rect5"
           style="fill:url(#linearGradient77);fill-opacity:1" /><rect
           class="cls-1"
           x="6"
           y="40"
           width="4"
           height="4"
           rx="1"
           id="rect6"
           style="fill:url(#linearGradient78);fill-opacity:1" /><rect
           class="cls-1"
           x="38"
           y="40"
           width="4"
           height="4"
           rx="1"
           id="rect7"
           style="fill:url(#linearGradient79);fill-opacity:1" /><ellipse
           class="cls-1"
           cx="24"
           cy="8"
           rx="16"
           ry="4"
           id="ellipse7"
           style="fill:url(#linearGradient80);fill-opacity:1" /><path
           class="cls-2"
           d="m 37,35 v -6.47 c 1.77,-0.58 3,-1.4 3,-2.53 V 11.11 a 10.06,10.06 0 0 1 -2,1 v 1.8 c -0.64,0.74 -5.37,2.11 -14,2.11 -8.63,0 -13.36,-1.37 -14,-2.11 v -1.8 a 10.06,10.06 0 0 1 -2,-1 V 26 c 0,1.13 1.23,1.95 3,2.53 V 35 H 6 v 2 h 6 a 1,1 0 0 0 1,-1 v -6.95 a 47.11,47.11 0 0 0 6,0.77 V 41 h -7 v 2 h 8 a 1,1 0 0 0 1,-1 V 29.93 c 1.48,0.06 2.61,0.07 3,0.07 0.39,0 1.52,0 3,-0.07 V 42 a 1,1 0 0 0 1,1 h 8 V 41 H 29 V 29.82 a 47.11,47.11 0 0 0 6,-0.77 v 7 a 1,1 0 0 0 1,1 h 6 V 35 Z M 10,16.15 c 4,1.78 12.74,1.85 14,1.85 1.26,0 10,-0.07 14,-1.85 v 3.74 C 37.36,20.63 32.63,22 24,22 15.37,22 10.64,20.63 10,19.89 Z M 24,28 C 15.37,28 10.64,26.63 10,25.89 v -3.74 c 4,1.78 12.74,1.85 14,1.85 1.26,0 10,-0.07 14,-1.85 v 3.74 C 37.36,26.63 32.63,28 24,28 Z"
           id="path7"
           style="fill:url(#linearGradient63);fill-opacity:1" /><g
           id="g17"><g
             id="g16"
             transform="matrix(0.28469923,-0.29916243,0.21453627,0.39700193,-19.171615,-20.823853)"><path
               d="m 75.667,34.326 v 52.06 a 5,5 0 0 1 -5,5 H 57.333 a 5,5 0 0 1 -5,-5 v -52.06 z"
               fill="#dff6fd"
               id="path9"
               style="fill:#ff3dfb;fill-opacity:1" /><polygon
               points="57.977,91.386 70.023,91.386 68.596,104.368 59.404,104.368 "
               fill="#99e6fc"
               id="polygon9"
               style="fill:#ff3dfb;fill-opacity:1" /><g
               id="g15"><path
                 d="m 52.333,76.689 a 1.751,1.751 0 0 0 1.75,-1.75 v -4.5 a 1.75,1.75 0 0 0 -3.5,0 v 4.5 a 1.751,1.751 0 0 0 1.75,1.75 z"
                 id="path10"
                 style="fill:url(#linearGradient62);fill-opacity:1" /><path
                 d="m 61.856,81.724 h 4.288 a 1.75,1.75 0 0 0 0,-3.5 h -4.288 a 1.75,1.75 0 0 0 0,3.5 z"
                 id="path11"
                 style="fill:url(#linearGradient61);fill-opacity:1" /><path
                 d="m 61.856,70.312 h 4.288 a 1.75,1.75 0 0 0 0,-3.5 h -4.288 a 1.75,1.75 0 0 0 0,3.5 z"
                 id="path12"
                 style="fill:url(#linearGradient60);fill-opacity:1" /><path
                 d="m 61.856,58.9 h 4.288 a 1.75,1.75 0 0 0 0,-3.5 h -4.288 a 1.75,1.75 0 0 0 0,3.5 z"
                 id="path13"
                 style="fill:url(#linearGradient58);fill-opacity:1" /><path
                 d="m 61.856,47.488 h 4.288 a 1.75,1.75 0 0 0 0,-3.5 h -4.288 a 1.75,1.75 0 1 0 0,3.5 z"
                 id="path14"
                 style="fill:url(#linearGradient59);fill-opacity:1" /><path
                 d="M 82.886,26.469 C 82.593957,25.864238 81.981585,25.479952 81.31,25.48 H 70.121 V 14.426 h 4.624 c 0.96627,-5.52e-4 1.749448,-0.78373 1.75,-1.75 V 8.807 c -0.0028,-2.346068 -1.903932,-4.2472448 -4.25,-4.25 -2.333332,0 -2.333332,3.5 0,3.5 0.413985,5.509e-4 0.749449,0.3360148 0.75,0.75 v 2.119 H 55.005 V 8.807 c 5.51e-4,-0.4139852 0.336015,-0.7494491 0.75,-0.75 h 7.127 c 2.333332,0 2.333332,-3.5 0,-3.5 h -7.127 c -2.346068,0.00276 -4.247245,1.903932 -4.25,4.25 v 3.869 c 5.52e-4,0.96627 0.78373,1.749448 1.75,1.75 h 4.624 V 25.48 H 46.69 c -1.465559,-9.98e-4 -2.282356,1.692857 -1.369,2.839 l 5.262,6.618 v 25.847 c 0,2.333332 3.5,2.333332 3.5,0 V 36.076 h 19.834 v 50.31 c -0.0022,1.794012 -1.455988,3.247796 -3.25,3.25 H 57.333 c -1.794012,-0.0022 -3.247796,-1.455988 -3.25,-3.25 v -2.209 c 0,-2.333332 -3.5,-2.333332 -3.5,0 v 2.209 c 0.0058,3.363874 2.48571,6.210896 5.817,6.678 l 1.264,11.5 c 0.0974,0.88704 0.846631,1.55872 1.739,1.559 h 2.847 v 15.575 c 0,2.33333 3.5,2.33333 3.5,0 v -15.58 h 2.85 c 0.892369,-2.8e-4 1.641604,-0.67196 1.739,-1.559 l 1.264,-11.5 c 3.331687,-0.466651 5.812173,-3.313796 5.818,-6.678 V 34.937 l 5.262,-6.618 c 0.41738,-0.52649 0.49628,-1.245529 0.203,-1.85 z M 60.973,102.618 59.93,93.136 h 8.14 l -1.043,9.482 z m 0.406,-88.192 h 5.242 V 25.48 h -5.242 z m 13.444,18.15 H 53.177 l -2.86,-3.6 h 27.366 z"
                 id="path15"
                 style="fill:url(#linearGradient57);fill-opacity:1" /></g></g></g></g></g></g></svg>
