<?xml version="1.0" encoding="UTF-8" standalone="no"?>
<svg
   id="Layer_1"
   data-name="Layer 1"
   viewBox="0 0 108.66183 110.70114"
   version="1.1"
   xml:space="preserve"
   width="108.66183"
   height="110.70114"
   xmlns:xlink="http://www.w3.org/1999/xlink"
   xmlns="http://www.w3.org/2000/svg"
   xmlns:svg="http://www.w3.org/2000/svg"><defs
     id="defs3"><linearGradient
       id="linearGradient8"><stop
         style="stop-color:#ff3dfb;stop-opacity:0;"
         offset="0"
         id="stop15" /><stop
         style="stop-color:#ff3dfb;stop-opacity:1;"
         offset="1"
         id="stop8" /></linearGradient><linearGradient
       id="linearGradient6"><stop
         style="stop-color:#00abff;stop-opacity:0;"
         offset="0"
         id="stop7" /><stop
         style="stop-color:#00abff;stop-opacity:1;"
         offset="1"
         id="stop6" /></linearGradient><linearGradient
       xlink:href="#linearGradient6"
       id="linearGradient7"
       x1="62.751961"
       y1="129.23425"
       x2="62.751961"
       y2="51.294594"
       gradientUnits="userSpaceOnUse" /><linearGradient
       xlink:href="#linearGradient8"
       id="linearGradient15"
       x1="35.175358"
       y1="215.85176"
       x2="35.175358"
       y2="76.913353"
       gradientUnits="userSpaceOnUse" /><filter
       style="color-interpolation-filters:sRGB"
       id="filter17"
       x="-0.026436707"
       y="-0.02758782"
       width="1.0528734"
       height="1.0551756"><feGaussianBlur
         stdDeviation="1.1648495"
         id="feGaussianBlur17" /></filter><filter
       style="color-interpolation-filters:sRGB"
       id="filter18"
       x="-0.01889176"
       y="-0.047301578"
       width="1.0377835"
       height="1.0946032"><feGaussianBlur
         stdDeviation="0.82419783"
         id="feGaussianBlur18" /></filter></defs><title
     id="title1">HANDS</title><g
     id="g18"
     transform="translate(-8.7113784,-6.3843588)"><g
       id="g5"
       style="display:inline"><path
         id="path4"
         d="m 108.43453,78.549122 c -2.94833,0.0017 -5.84791,0.757493 -8.42188,2.195312 L 88.05562,87.429981 H 85.338823 C 84.180155,82.871287 80.146881,79.578858 75.387651,79.572559 H 53.526323 c -0.735592,2.4e-4 -1.433492,0.324808 -1.908203,0.886719 v 0.002 l -6.273438,7.433594 C 44.998947,87.718339 44.701946,87.430491 44.30562,87.429981 H 11.905229 c -0.770833,0 -1.443926,0.316066 -1.873047,0.798828 -0.4291207,0.482761 -0.6269528,1.097006 -0.6269528,1.701172 0,0.604167 0.1978321,1.218411 0.6269528,1.701172 0.429121,0.482762 1.102214,0.798829 1.873047,0.798828 H 32.014604 V 115.36748 H 11.903276 c -0.770833,0 -1.443926,0.31606 -1.873047,0.79883 -0.429121,0.48276 -0.6269529,1.097 -0.6269529,1.70117 0,0.60416 0.197832,1.21841 0.6269529,1.70117 0.429121,0.48276 1.102214,0.79883 1.873047,0.79883 h 32.400391 c 1.372361,7.8e-4 2.500785,-1.12764 2.5,-2.5 v -7.44922 l 34.134765,-1.5664 h -0.03516 c 0.03026,0 0.116432,-0.001 0.236328,-0.0234 5.641023,-0.61319 10.916964,-3.0889 14.986328,-7.04492 L 112.89546,85.429981 c 1.1708,-1.135005 1.53379,-2.873863 0.91602,-4.382812 -0.61161,-1.510293 -2.0834,-2.501575 -3.71289,-2.498047 z m -0.89258,5.11914 -14.910158,14.535157 c -3.262539,3.171671 -7.490748,5.163191 -12.013672,5.658201 l -33.8125,1.55274 V 93.918262 l 7.884765,-9.345703 h 20.69336 c 2.253898,0.0037 4.161722,1.441149 4.939453,3.5 l -16.462891,4.041016 c -0.748768,0.183669 -1.327103,0.649523 -1.628906,1.220703 -0.301804,0.571181 -0.349034,1.215866 -0.205078,1.802734 0.143955,0.586868 0.483768,1.137219 1.015625,1.503907 0.531857,0.366688 1.260998,0.511793 2.009766,0.328125 l 18.484375,-4.53711 h 5.164062 c 0.427417,-1.7e-5 0.847845,-0.109404 1.220703,-0.318359 l 12.525386,-7 c 1.56668,-0.874547 3.31355,-1.313567 5.09571,-1.445313 z m -70.529299,8.761719 h 4.792969 v 22.937499 h -4.792969 z"
         transform="translate(1.286177,-5.2600593)"
         style="opacity:0.6;fill:#00abff;fill-opacity:1;filter:url(#filter18)" /><path
         id="path1"
         style="opacity:0.6;fill:#ff3dfb;fill-opacity:1;filter:url(#filter17)"
         d="m 25.134798,13.33295 c -0.81817,-7.52e-4 -1.603741,0.331902 -2.173116,0.919522 l -11.123574,11.543644 -0.043,0.086 c -0.422303,0.529933 -0.666737,1.182838 -0.668143,1.865505 v 0.0033 16.6804 c 0.0012,1.651848 1.368023,3.018681 3.019871,3.01987 h 0.896368 v 64.197869 c 2.45e-4,1.65259 1.36728,3.01962 3.019871,3.01987 h 91.872855 c 1.65259,-2.5e-4 3.01962,-1.36728 3.01987,-3.01987 V 47.451198 h 0.89967 c 1.65185,-0.0012 3.01868,-1.368021 3.01987,-3.01987 V 27.74762 27.74432 c -0.002,-0.690285 -0.25016,-1.349488 -0.68137,-1.882044 l -0.0661,-0.109152 -11.0905,-11.500645 c -0.56938,-0.587621 -1.35495,-0.920275 -2.17312,-0.919522 H 25.138105 Z m 45.479972,6.036433 h 30.96938 l 5.16322,5.361675 H 72.02713 Z m -44.193302,0.0033 H 57.384233 L 55.97518,24.731058 H 21.254943 Z m 37.207578,0 h 0.744218 l 1.405745,5.358368 H 62.219994 Z M 17.170014,30.770798 h 38.110563 v 10.64066 H 17.170014 Z m 44.153611,0 h 5.358368 v 10.64066 h -5.358368 z m 11.3948,0 h 38.110565 v 10.64066 H 72.718425 Z m -51.635479,16.6804 h 34.197631 v 11.38157 c -0.0015,1.336584 0.885007,2.428036 1.964735,2.831335 1.078949,0.403009 2.462228,0.158407 3.337403,-0.850062 l 3.416786,-3.92947 3.420094,3.92947 c 0.57353,0.659506 1.404966,1.039374 2.27896,1.038597 1.653306,0.0015 3.021395,-1.366563 3.01987,-3.01987 v -0.0033 -11.378262 h 34.197635 l 0.003,61.178004 H 21.082946 Z m 40.240679,0 h 5.358368 v 3.304327 l -0.413455,-0.472992 -0.01323,-0.01654 c -1.204364,-1.288132 -3.294019,-1.288132 -4.498383,0 l -0.01654,0.01654 -0.413454,0.476299 z m -14.011139,16.98801 c -1.651849,0.0012 -3.01868,1.368022 -3.01987,3.01987 V 78.0402 c 0.0012,1.651849 1.368021,3.018682 3.01987,3.019871 h 33.37403 c 1.651849,-0.0012 3.018682,-1.368022 3.019871,-3.019871 V 67.459078 c -0.0012,-1.651848 -1.368022,-3.018681 -3.019871,-3.01987 z m 3.023178,6.03974 H 77.666646 V 75.02033 H 50.335664 Z"
         transform="matrix(0.59049,0,0,0.59049,43.951122,0.1621827)" /></g><g
       id="g6"><path
         id="path5"
         d="m 108.43453,78.549122 c -2.94833,0.0017 -5.84791,0.757493 -8.42188,2.195312 L 88.05562,87.429981 H 85.338823 C 84.180155,82.871287 80.146881,79.578858 75.387651,79.572559 H 53.526323 c -0.735592,2.4e-4 -1.433492,0.324808 -1.908203,0.886719 v 0.002 l -6.273438,7.433594 C 44.998947,87.718339 44.701946,87.430491 44.30562,87.429981 H 11.905229 c -0.770833,0 -1.443926,0.316066 -1.873047,0.798828 -0.4291207,0.482761 -0.6269528,1.097006 -0.6269528,1.701172 0,0.604167 0.1978321,1.218411 0.6269528,1.701172 0.429121,0.482762 1.102214,0.798829 1.873047,0.798828 H 32.014604 V 115.36748 H 11.903276 c -0.770833,0 -1.443926,0.31606 -1.873047,0.79883 -0.429121,0.48276 -0.6269529,1.097 -0.6269529,1.70117 0,0.60416 0.197832,1.21841 0.6269529,1.70117 0.429121,0.48276 1.102214,0.79883 1.873047,0.79883 h 32.400391 c 1.372361,7.8e-4 2.500785,-1.12764 2.5,-2.5 v -7.44922 l 34.134765,-1.5664 h -0.03516 c 0.03026,0 0.116432,-0.001 0.236328,-0.0234 5.641023,-0.61319 10.916964,-3.0889 14.986328,-7.04492 L 112.89546,85.429981 c 1.1708,-1.135005 1.53379,-2.873863 0.91602,-4.382812 -0.61161,-1.510293 -2.0834,-2.501575 -3.71289,-2.498047 z m -0.89258,5.11914 -14.910158,14.535157 c -3.262539,3.171671 -7.490748,5.163191 -12.013672,5.658201 l -33.8125,1.55274 V 93.918262 l 7.884765,-9.345703 h 20.69336 c 2.253898,0.0037 4.161722,1.441149 4.939453,3.5 l -16.462891,4.041016 c -0.748768,0.183669 -1.327103,0.649523 -1.628906,1.220703 -0.301804,0.571181 -0.349034,1.215866 -0.205078,1.802734 0.143955,0.586868 0.483768,1.137219 1.015625,1.503907 0.531857,0.366688 1.260998,0.511793 2.009766,0.328125 l 18.484375,-4.53711 h 5.164062 c 0.427417,-1.7e-5 0.847845,-0.109404 1.220703,-0.318359 l 12.525386,-7 c 1.56668,-0.874547 3.31355,-1.313567 5.09571,-1.445313 z m -70.529299,8.761719 h 4.792969 v 22.937499 h -4.792969 z"
         transform="translate(1.286177,-5.2600593)"
         style="fill:url(#linearGradient7);fill-opacity:1" /><path
         id="path6"
         style="fill:url(#linearGradient15);fill-opacity:1"
         d="m 25.134798,13.33295 c -0.81817,-7.52e-4 -1.603741,0.331902 -2.173116,0.919522 l -11.123574,11.543644 -0.043,0.086 c -0.422303,0.529933 -0.666737,1.182838 -0.668143,1.865505 v 0.0033 16.6804 c 0.0012,1.651848 1.368023,3.018681 3.019871,3.01987 h 0.896368 v 64.197869 c 2.45e-4,1.65259 1.36728,3.01962 3.019871,3.01987 h 91.872855 c 1.65259,-2.5e-4 3.01962,-1.36728 3.01987,-3.01987 V 47.451198 h 0.89967 c 1.65185,-0.0012 3.01868,-1.368021 3.01987,-3.01987 V 27.74762 27.74432 c -0.002,-0.690285 -0.25016,-1.349488 -0.68137,-1.882044 l -0.0661,-0.109152 -11.0905,-11.500645 c -0.56938,-0.587621 -1.35495,-0.920275 -2.17312,-0.919522 H 25.138105 Z m 45.479972,6.036433 h 30.96938 l 5.16322,5.361675 H 72.02713 Z m -44.193302,0.0033 H 57.384233 L 55.97518,24.731058 H 21.254943 Z m 37.207578,0 h 0.744218 l 1.405745,5.358368 H 62.219994 Z M 17.170014,30.770798 h 38.110563 v 10.64066 H 17.170014 Z m 44.153611,0 h 5.358368 v 10.64066 h -5.358368 z m 11.3948,0 h 38.110565 v 10.64066 H 72.718425 Z m -51.635479,16.6804 h 34.197631 v 11.38157 c -0.0015,1.336584 0.885007,2.428036 1.964735,2.831335 1.078949,0.403009 2.462228,0.158407 3.337403,-0.850062 l 3.416786,-3.92947 3.420094,3.92947 c 0.57353,0.659506 1.404966,1.039374 2.27896,1.038597 1.653306,0.0015 3.021395,-1.366563 3.01987,-3.01987 v -0.0033 -11.378262 h 34.197635 l 0.003,61.178004 H 21.082946 Z m 40.240679,0 h 5.358368 v 3.304327 l -0.413455,-0.472992 -0.01323,-0.01654 c -1.204364,-1.288132 -3.294019,-1.288132 -4.498383,0 l -0.01654,0.01654 -0.413454,0.476299 z m -14.011139,16.98801 c -1.651849,0.0012 -3.01868,1.368022 -3.01987,3.01987 V 78.0402 c 0.0012,1.651849 1.368021,3.018682 3.01987,3.019871 h 33.37403 c 1.651849,-0.0012 3.018682,-1.368022 3.019871,-3.019871 V 67.459078 c -0.0012,-1.651848 -1.368022,-3.018681 -3.019871,-3.01987 z m 3.023178,6.03974 H 77.666646 V 75.02033 H 50.335664 Z"
         transform="matrix(0.59049,0,0,0.59049,43.951122,0.1621827)" /></g></g></svg>
