<?xml version="1.0" encoding="UTF-8" standalone="no"?>
<svg
   width="114.3837"
   height="114.38371"
   viewBox="0 0 114.3837 114.38371"
   version="1.1"
   id="svg4"
   xmlns:xlink="http://www.w3.org/1999/xlink"
   xmlns="http://www.w3.org/2000/svg"
   xmlns:svg="http://www.w3.org/2000/svg"
   xmlns:rdf="http://www.w3.org/1999/02/22-rdf-syntax-ns#"
   xmlns:cc="http://creativecommons.org/ns#"
   xmlns:dc="http://purl.org/dc/elements/1.1/">
  <defs
     id="defs4">
    <linearGradient
       id="linearGradient18">
      <stop
         style="stop-color:#ff3dfb;stop-opacity:0;"
         offset="0"
         id="stop18" />
      <stop
         style="stop-color:#ff3dfb;stop-opacity:1;"
         offset="1"
         id="stop17" />
    </linearGradient>
    <linearGradient
       id="linearGradient16">
      <stop
         style="stop-color:#ff3dfb;stop-opacity:0;"
         offset="0"
         id="stop16" />
      <stop
         style="stop-color:#ff3dfb;stop-opacity:1;"
         offset="1"
         id="stop15" />
    </linearGradient>
    <linearGradient
       id="linearGradient14">
      <stop
         style="stop-color:#ff3dfb;stop-opacity:0;"
         offset="0"
         id="stop14" />
      <stop
         style="stop-color:#ff3dfb;stop-opacity:1;"
         offset="1"
         id="stop13" />
    </linearGradient>
    <linearGradient
       id="linearGradient9">
      <stop
         style="stop-color:#ff3dfb;stop-opacity:0;"
         offset="0"
         id="stop10" />
      <stop
         style="stop-color:#ff3dfb;stop-opacity:1;"
         offset="1"
         id="stop9" />
    </linearGradient>
    <linearGradient
       id="linearGradient7">
      <stop
         style="stop-color:#00abff;stop-opacity:0;"
         offset="0"
         id="stop8" />
      <stop
         style="stop-color:#00abff;stop-opacity:1;"
         offset="1"
         id="stop7" />
    </linearGradient>
    <linearGradient
       xlink:href="#linearGradient7"
       id="linearGradient8"
       x1="64.90271"
       y1="114.21399"
       x2="64.90271"
       y2="54.950863"
       gradientUnits="userSpaceOnUse" />
    <linearGradient
       xlink:href="#linearGradient9"
       id="linearGradient10"
       x1="65.137878"
       y1="112.80296"
       x2="65.137878"
       y2="58.008091"
       gradientUnits="userSpaceOnUse" />
    <linearGradient
       xlink:href="#linearGradient18"
       id="linearGradient11"
       x1="65.137878"
       y1="112.80296"
       x2="65.137878"
       y2="58.008091"
       gradientUnits="userSpaceOnUse" />
    <linearGradient
       xlink:href="#linearGradient16"
       id="linearGradient12"
       x1="65.137878"
       y1="112.80296"
       x2="65.137878"
       y2="58.008091"
       gradientUnits="userSpaceOnUse" />
    <linearGradient
       xlink:href="#linearGradient14"
       id="linearGradient13"
       x1="65.137878"
       y1="112.80296"
       x2="65.137878"
       y2="58.008091"
       gradientUnits="userSpaceOnUse" />
    <filter
       style="color-interpolation-filters:sRGB"
       id="filter18"
       x="-0.027"
       y="-0.026999999"
       width="1.054"
       height="1.054">
      <feGaussianBlur
         stdDeviation="0.99346801"
         id="feGaussianBlur18" />
    </filter>
    <filter
       style="color-interpolation-filters:sRGB"
       id="filter19"
       x="-0.12480696"
       y="-0.12480696"
       width="1.2496139"
       height="1.2496139">
      <feGaussianBlur
         stdDeviation="0.77537137"
         id="feGaussianBlur19" />
    </filter>
    <filter
       style="color-interpolation-filters:sRGB"
       id="filter20"
       x="-0.0565077"
       y="-0.054141171"
       width="1.1130154"
       height="1.1082823">
      <feGaussianBlur
         stdDeviation="0.77537137"
         id="feGaussianBlur20" />
    </filter>
    <filter
       style="color-interpolation-filters:sRGB"
       id="filter21"
       x="-0.046934795"
       y="-0.064298579"
       width="1.0938696"
       height="1.1285972">
      <feGaussianBlur
         stdDeviation="0.77537137"
         id="feGaussianBlur21" />
    </filter>
    <filter
       style="color-interpolation-filters:sRGB"
       id="filter22"
       x="-0.056507758"
       y="-0.054138021"
       width="1.1130155"
       height="1.108276">
      <feGaussianBlur
         stdDeviation="0.77537137"
         id="feGaussianBlur22" />
    </filter>
  </defs>
  <title
     id="title1">NUCLEAR ENERGY</title>
  <metadata
     id="metadata4">
    <rdf:RDF>
      <cc:Work
         rdf:about="">
        <dc:title>NUCLEAR ENERGY</dc:title>
      </cc:Work>
    </rdf:RDF>
  </metadata>
  <g
     id="g22"
     transform="translate(0.78950773,0.78950781)">
    <g
       id="g35"
       transform="translate(-8.276895,-8.4548549)"
       style="display:inline">
      <g
         id="g17"
         transform="matrix(1.2289159,0,0,1.2289159,-13.970971,-14.568284)">
        <path
           id="path1"
           style="opacity:0.6;fill:#00abff;filter:url(#filter18)"
           d="m 63.999668,20.476392 c -24.350361,1e-6 -44.154135,19.803775 -44.154135,44.154135 0,24.350362 19.803774,44.154133 44.154135,44.154133 24.350361,0 44.154132,-19.803771 44.154132,-44.154133 0,-24.35036 -19.803771,-44.154133 -44.154132,-44.154135 z m 0,6.21896 c 20.988623,1e-6 37.935172,16.946552 37.935172,37.935175 0,20.988625 -16.946549,37.935173 -37.935172,37.935173 -20.988623,0 -37.935176,-16.946548 -37.935176,-37.935173 0,-20.988623 16.946553,-37.935175 37.935176,-37.935175 z" />
        <path
           style="opacity:0.6;fill:#ff3dfb;fill-opacity:1;filter:url(#filter19)"
           d="m 64,57.09375 c -4.087671,0 -7.455078,3.367407 -7.455078,7.455078 0,4.087671 3.367407,7.455078 7.455078,7.455078 4.087671,0 7.455078,-3.367407 7.455078,-7.455078 0,-4.087671 -3.367407,-7.455078 -7.455078,-7.455078 z m 0,5 c 1.385471,0 2.455078,1.069608 2.455078,2.455078 0,1.385471 -1.069607,2.455078 -2.455078,2.455078 -1.385471,0 -2.455078,-1.069607 -2.455078,-2.455078 0,-1.38547 1.069607,-2.455078 2.455078,-2.455078 z"
           id="path14" />
        <path
           style="opacity:0.6;fill:#ff3dfb;fill-opacity:1;filter:url(#filter22)"
           d="m 99.332031,61.855469 -26.386719,0.002 v 2.5 c 10e-7,0.295769 0.0098,0.357175 0.0098,0.191406 -8.32e-4,3.174061 -1.676713,6.100302 -4.414062,7.707031 l -2.140625,1.25586 13.117187,22.716797 2.166016,-1.251954 C 92.604775,88.662506 99.335006,76.993956 99.332031,64.378906 Z m -5.164062,5 C 93.42896,75.887156 88.706527,84.084208 81.263672,89.251953 L 73.048828,75.027344 c 2.449819,-2.114359 4.057776,-4.97641 4.601563,-8.169922 z"
           id="path15" />
        <path
           style="opacity:0.6;fill:#ff3dfb;fill-opacity:1;filter:url(#filter21)"
           d="m 64,29.048828 c -6.097836,0 -12.195788,1.573955 -17.658203,4.724609 l -2.166016,1.25 13.259766,22.966797 2.160156,-1.230468 C 60.937663,55.995444 62.455641,55.593213 64,55.59375 c 1.544359,-5.37e-4 3.062337,0.401694 4.404297,1.166016 l 2.160156,1.230468 13.259766,-22.966797 -2.166016,-1.25 C 76.195788,30.622783 70.097836,29.048828 64,29.048828 Z m 0,4.996094 c 4.418815,0 8.816797,1.025457 12.910156,2.955078 L 68.556641,51.464844 C 67.086901,50.950958 65.568823,50.593204 64,50.59375 c -1.568823,-5.46e-4 -3.086901,0.357208 -4.556641,0.871094 L 51.089844,37 C 55.183203,35.070379 59.581185,34.044922 64,34.044922 Z"
           id="path16" />
        <path
           style="opacity:0.6;fill:#ff3dfb;fill-opacity:1;filter:url(#filter20)"
           d="m 28.667969,61.857422 v 2.523437 c -0.0027,12.614468 6.727453,24.282273 17.648437,30.595703 l 2.164063,1.251954 13.11914,-22.714844 -2.140625,-1.25586 c -2.73729,-1.607067 -4.413671,-4.534803 -4.414062,-7.708984 0,0.140128 0.004,0.09131 0.0078,-0.154297 l 0.03906,-2.537109 z m 5.162109,5 h 16.519531 c 0.543357,3.193542 2.150132,6.055248 4.59961,8.169922 L 46.736328,89.251953 C 39.292809,84.084438 34.568837,75.889512 33.830078,66.857422 Z"
           id="path17" />
      </g>
    </g>
    <g
       id="g7"
       transform="translate(-8.276895,-8.4548549)">
      <g
         id="g6"
         transform="matrix(1.2289159,0,0,1.2289159,-13.970971,-14.568284)">
        <path
           id="path2"
           style="fill:url(#linearGradient8);fill-opacity:1"
           d="m 63.999668,20.476392 c -24.350361,1e-6 -44.154135,19.803775 -44.154135,44.154135 0,24.350362 19.803774,44.154133 44.154135,44.154133 24.350361,0 44.154132,-19.803771 44.154132,-44.154133 0,-24.35036 -19.803771,-44.154133 -44.154132,-44.154135 z m 0,6.21896 c 20.988623,1e-6 37.935172,16.946552 37.935172,37.935175 0,20.988625 -16.946549,37.935173 -37.935172,37.935173 -20.988623,0 -37.935176,-16.946548 -37.935176,-37.935173 0,-20.988623 16.946553,-37.935175 37.935176,-37.935175 z" />
        <path
           style="fill:url(#linearGradient10);fill-opacity:1"
           d="m 64,57.09375 c -4.087671,0 -7.455078,3.367407 -7.455078,7.455078 0,4.087671 3.367407,7.455078 7.455078,7.455078 4.087671,0 7.455078,-3.367407 7.455078,-7.455078 0,-4.087671 -3.367407,-7.455078 -7.455078,-7.455078 z m 0,5 c 1.385471,0 2.455078,1.069608 2.455078,2.455078 0,1.385471 -1.069607,2.455078 -2.455078,2.455078 -1.385471,0 -2.455078,-1.069607 -2.455078,-2.455078 0,-1.38547 1.069607,-2.455078 2.455078,-2.455078 z"
           id="path3" />
        <path
           style="fill:url(#linearGradient13);fill-opacity:1"
           d="m 99.332031,61.855469 -26.386719,0.002 v 2.5 c 10e-7,0.295769 0.0098,0.357175 0.0098,0.191406 -8.32e-4,3.174061 -1.676713,6.100302 -4.414062,7.707031 l -2.140625,1.25586 13.117187,22.716797 2.166016,-1.251954 C 92.604775,88.662506 99.335006,76.993956 99.332031,64.378906 Z m -5.164062,5 C 93.42896,75.887156 88.706527,84.084208 81.263672,89.251953 L 73.048828,75.027344 c 2.449819,-2.114359 4.057776,-4.97641 4.601563,-8.169922 z"
           id="path4" />
        <path
           style="fill:url(#linearGradient12);fill-opacity:1"
           d="m 64,29.048828 c -6.097836,0 -12.195788,1.573955 -17.658203,4.724609 l -2.166016,1.25 13.259766,22.966797 2.160156,-1.230468 C 60.937663,55.995444 62.455641,55.593213 64,55.59375 c 1.544359,-5.37e-4 3.062337,0.401694 4.404297,1.166016 l 2.160156,1.230468 13.259766,-22.966797 -2.166016,-1.25 C 76.195788,30.622783 70.097836,29.048828 64,29.048828 Z m 0,4.996094 c 4.418815,0 8.816797,1.025457 12.910156,2.955078 L 68.556641,51.464844 C 67.086901,50.950958 65.568823,50.593204 64,50.59375 c -1.568823,-5.46e-4 -3.086901,0.357208 -4.556641,0.871094 L 51.089844,37 C 55.183203,35.070379 59.581185,34.044922 64,34.044922 Z"
           id="path5" />
        <path
           style="fill:url(#linearGradient11);fill-opacity:1"
           d="m 28.667969,61.857422 v 2.523437 c -0.0027,12.614468 6.727453,24.282273 17.648437,30.595703 l 2.164063,1.251954 13.11914,-22.714844 -2.140625,-1.25586 c -2.73729,-1.607067 -4.413671,-4.534803 -4.414062,-7.708984 0,0.140128 0.004,0.09131 0.0078,-0.154297 l 0.03906,-2.537109 z m 5.162109,5 h 16.519531 c 0.543357,3.193542 2.150132,6.055248 4.59961,8.169922 L 46.736328,89.251953 C 39.292809,84.084438 34.568837,75.889512 33.830078,66.857422 Z"
           id="path6" />
      </g>
    </g>
  </g>
</svg>
