<?xml version="1.0" encoding="UTF-8" standalone="no"?>
<!-- Generator: Adobe Illustrator 21.0.2, SVG Export Plug-In . SVG Version: 6.00 Build 0)  -->

<svg
   version="1.1"
   x="0px"
   y="0px"
   viewBox="0 0 61.448868 59.147408"
   xml:space="preserve"
   id="svg6"
   width="61.448868"
   height="59.147408"
   xmlns:xlink="http://www.w3.org/1999/xlink"
   xmlns="http://www.w3.org/2000/svg"
   xmlns:svg="http://www.w3.org/2000/svg"><defs
   id="defs6"><linearGradient
     id="linearGradient26"><stop
       style="stop-color:#00abff;stop-opacity:0;"
       offset="0"
       id="stop27" /><stop
       style="stop-color:#00abff;stop-opacity:1;"
       offset="1"
       id="stop26" /></linearGradient><linearGradient
     id="linearGradient25"><stop
       style="stop-color:#ff3dfb;stop-opacity:0;"
       offset="0"
       id="stop25" /><stop
       style="stop-color:#ff3dfb;stop-opacity:1;"
       offset="1"
       id="stop24" /></linearGradient><linearGradient
     id="linearGradient23"><stop
       style="stop-color:#ff3dfb;stop-opacity:0;"
       offset="0"
       id="stop23" /><stop
       style="stop-color:#ff3dfb;stop-opacity:1;"
       offset="1"
       id="stop22" /></linearGradient><linearGradient
     id="linearGradient21"><stop
       style="stop-color:#ff3dfb;stop-opacity:0;"
       offset="0"
       id="stop21" /><stop
       style="stop-color:#ff3dfb;stop-opacity:1;"
       offset="1"
       id="stop20" /></linearGradient><linearGradient
     id="linearGradient19"><stop
       style="stop-color:#ff3dfb;stop-opacity:0;"
       offset="0"
       id="stop19" /><stop
       style="stop-color:#ff3dfb;stop-opacity:1;"
       offset="1"
       id="stop18" /></linearGradient><linearGradient
     id="linearGradient13"><stop
       style="stop-color:#ff3dfb;stop-opacity:0;"
       offset="0"
       id="stop14" /><stop
       style="stop-color:#ff3dfb;stop-opacity:1;"
       offset="1"
       id="stop13" /></linearGradient><linearGradient
     xlink:href="#linearGradient13"
     id="linearGradient14"
     x1="12.393902"
     y1="31.145756"
     x2="12.393902"
     y2="-4.7719445"
     gradientUnits="userSpaceOnUse" /><linearGradient
     xlink:href="#linearGradient25"
     id="linearGradient15"
     x1="12.393902"
     y1="31.145756"
     x2="12.393902"
     y2="-4.7719445"
     gradientUnits="userSpaceOnUse" /><linearGradient
     xlink:href="#linearGradient23"
     id="linearGradient16"
     x1="12.393902"
     y1="31.145756"
     x2="12.393902"
     y2="-4.7719445"
     gradientUnits="userSpaceOnUse" /><linearGradient
     xlink:href="#linearGradient21"
     id="linearGradient17"
     x1="12.393902"
     y1="31.145756"
     x2="12.393902"
     y2="-4.7719445"
     gradientUnits="userSpaceOnUse" /><linearGradient
     xlink:href="#linearGradient19"
     id="linearGradient18"
     x1="12.393902"
     y1="31.145756"
     x2="12.393902"
     y2="-4.7719445"
     gradientUnits="userSpaceOnUse" /><linearGradient
     xlink:href="#linearGradient26"
     id="linearGradient27"
     x1="32.065575"
     y1="67.477509"
     x2="32.065575"
     y2="9.5772839"
     gradientUnits="userSpaceOnUse" /><filter
     style="color-interpolation-filters:sRGB"
     id="filter27"
     x="-0.072000003"
     y="-0.21600001"
     width="1.144"
     height="1.432"><feGaussianBlur
       stdDeviation="0.18"
       id="feGaussianBlur27" /></filter><filter
     style="color-interpolation-filters:sRGB"
     id="filter28"
     x="-0.072000003"
     y="-0.21600001"
     width="1.144"
     height="1.432"><feGaussianBlur
       stdDeviation="0.18"
       id="feGaussianBlur28" /></filter><filter
     style="color-interpolation-filters:sRGB"
     id="filter29"
     x="-0.21600001"
     y="-0.072000003"
     width="1.432"
     height="1.144"><feGaussianBlur
       stdDeviation="0.18"
       id="feGaussianBlur29" /></filter><filter
     style="color-interpolation-filters:sRGB"
     id="filter30"
     x="-0.21600001"
     y="-0.072000003"
     width="1.432"
     height="1.144"><feGaussianBlur
       stdDeviation="0.18"
       id="feGaussianBlur30" /></filter><filter
     style="color-interpolation-filters:sRGB"
     id="filter31"
     x="-0.036000001"
     y="-0.036000001"
     width="1.072"
     height="1.072"><feGaussianBlur
       stdDeviation="0.18"
       id="feGaussianBlur31" /></filter><filter
     style="color-interpolation-filters:sRGB"
     id="filter32"
     x="-0.25415498"
     y="-0.25428933"
     width="1.50831"
     height="1.5085787"><feGaussianBlur
       stdDeviation="0.68151656"
       id="feGaussianBlur32" /></filter><filter
     style="color-interpolation-filters:sRGB"
     id="filter33"
     x="-0.25415498"
     y="-0.25428933"
     width="1.50831"
     height="1.5085787"><feGaussianBlur
       stdDeviation="0.68151656"
       id="feGaussianBlur33" /></filter><filter
     style="color-interpolation-filters:sRGB"
     id="filter34"
     x="-0.25415498"
     y="-0.25428933"
     width="1.50831"
     height="1.5085787"><feGaussianBlur
       stdDeviation="0.68151656"
       id="feGaussianBlur34" /></filter><filter
     style="color-interpolation-filters:sRGB"
     id="filter35"
     x="-0.02638133"
     y="-0.027648386"
     width="1.0527627"
     height="1.0552968"><feGaussianBlur
       stdDeviation="0.68151656"
       id="feGaussianBlur35" /></filter><linearGradient
     xlink:href="#linearGradient26"
     id="linearGradient2"
     gradientUnits="userSpaceOnUse"
     x1="32.065575"
     y1="67.477509"
     x2="32.065575"
     y2="9.5772839" /><linearGradient
     xlink:href="#linearGradient26"
     id="linearGradient3"
     gradientUnits="userSpaceOnUse"
     x1="32.065575"
     y1="67.477509"
     x2="32.065575"
     y2="9.5772839" /><linearGradient
     xlink:href="#linearGradient26"
     id="linearGradient4"
     gradientUnits="userSpaceOnUse"
     x1="32.065575"
     y1="67.477509"
     x2="32.065575"
     y2="9.5772839" /><linearGradient
     xlink:href="#linearGradient26"
     id="linearGradient5"
     gradientUnits="userSpaceOnUse"
     x1="32.065575"
     y1="67.477509"
     x2="32.065575"
     y2="9.5772839" /></defs>






























<g
   id="g35"><g
     id="g17"
     transform="matrix(0.9,0,0,0.9,1.9244773,0.77307608)"
     style="display:inline"><g
       id="g5"
       transform="matrix(0.9,0,0,0.9,3.199995,3.20007)"
       style="fill:#00abff;fill-opacity:1">
	<g
   id="g4"
   style="fill:#00abff;fill-opacity:1">
		<path
   d="M 58.4922,2.4214 H 5.5078 C 3.0225,2.4214 1,4.4434 1,6.9292 v 43.2397 c 0,2.4854 2.0225,4.5078 4.5078,4.5078 h 0.2137 c -1.5609,1.5596 -1.5886,4.0971 -0.0477,5.6826 0.792,0.8125 1.8438,1.2207 2.8984,1.2207 1.0166,0 2.0352,-0.3799 2.8203,-1.1426 l 5.9164,-5.7607 h 41.1832 c 2.4854,0 4.5078,-2.0225 4.5078,-4.5078 V 6.9292 C 63,4.4434 60.9775,2.4214 58.4922,2.4214 Z m -52.9844,2 H 58.4922 C 59.875,4.4214 61,5.5464 61,6.9292 v 6.8882 H 3 V 6.9292 C 3,5.5464 4.125,4.4214 5.5078,4.4214 Z m 6.2243,47.1896 2.8499,2.929 -1.6328,1.5898 -2.8516,-2.9277 z m 1.4328,-1.3946 1.5177,-1.4772 c 0.3809,-0.3711 0.8857,-0.5752 1.4238,-0.5752 0.0088,0 0.0186,0 0.0273,0 0.5488,0.0068 1.0596,0.2256 1.4385,0.6143 0.7852,0.8066 0.7676,2.1025 -0.0381,2.8877 l -1.5192,1.4792 z M 9.998,59.0039 C 9.1904,59.79 7.8916,59.7705 7.1074,58.9648 6.3232,58.1582 6.3418,56.8603 7.1465,56.0742 l 1.5178,-1.4773 2.8523,2.9284 z M 58.4922,52.6768 H 19.3066 c -0.0016,-0.0081 -0.002,-0.0156 -0.0036,-0.0237 0.9957,-1.2987 1.1002,-3.0587 0.2994,-4.4556 l 1.6895,-1.6464 c 3.0555,2.771 6.9249,4.1804 10.8086,4.1804 4.0518,0 8.1064,-1.5146 11.2314,-4.5557 6.3594,-6.1953 6.4971,-16.4121 0.3066,-22.7744 0,-5e-4 0,-5e-4 -10e-4,-5e-4 -6.1943,-6.3589 -16.4111,-6.499 -22.7754,-0.3062 -6.1175,5.9606 -6.4589,15.6317 -0.9661,22.0239 l -1.6895,1.6464 c -0.6118,-0.3732 -1.3088,-0.5909 -2.0466,-0.601 -1.0811,-0.0078 -2.1035,0.3916 -2.873,1.1426 L 7.7695,52.6767 H 5.5078 C 4.125,52.6768 3,51.5518 3,50.1689 V 15.8174 H 61 V 50.169 c 0,1.3828 -1.125,2.5078 -2.5078,2.5078 z m -36.502,-8.2012 c -5.4219,-5.5723 -5.3018,-14.521 0.2676,-19.9478 2.7373,-2.6631 6.2881,-3.9893 9.8369,-3.9893 3.6758,0 7.3496,1.4233 10.1104,4.2573 5.4219,5.5723 5.3018,14.5205 -0.2686,19.9473 -5.5722,5.4239 -14.5195,5.3028 -19.9463,-0.2675 z"
   id="path1"
   style="opacity:0.4;fill:#00abff;fill-opacity:1;filter:url(#filter35)" />
		<path
   d="m 46.7236,12.334 c 1.7744,0 3.2178,-1.4419 3.2178,-3.2144 0,-1.7744 -1.4434,-3.2178 -3.2178,-3.2178 -1.7744,0 -3.2178,1.4434 -3.2178,3.2178 10e-5,1.7725 1.4434,3.2144 3.2178,3.2144 z m 0,-4.4321 c 0.6719,0 1.2178,0.5464 1.2178,1.2178 0,0.6694 -0.5459,1.2144 -1.2178,1.2144 -0.6719,0 -1.2178,-0.5449 -1.2178,-1.2144 10e-5,-0.6715 0.546,-1.2178 1.2178,-1.2178 z"
   id="path2"
   style="opacity:0.4;fill:#00abff;fill-opacity:1;filter:url(#filter34)" />
		<path
   d="m 37.9287,12.334 c 1.7744,0 3.2178,-1.4419 3.2178,-3.2144 0,-1.7744 -1.4434,-3.2178 -3.2178,-3.2178 -1.7744,0 -3.2178,1.4434 -3.2178,3.2178 0,1.7725 1.4434,3.2144 3.2178,3.2144 z m 0,-4.4321 c 0.6719,0 1.2178,0.5464 1.2178,1.2178 0,0.6694 -0.5459,1.2144 -1.2178,1.2144 -0.6719,0 -1.2178,-0.5449 -1.2178,-1.2144 0,-0.6715 0.5459,-1.2178 1.2178,-1.2178 z"
   id="path3"
   style="opacity:0.4;fill:#00abff;fill-opacity:1;filter:url(#filter33)" />
		<path
   d="m 55.5186,12.334 c 1.7744,0 3.2178,-1.4419 3.2178,-3.2144 0,-1.7744 -1.4434,-3.2178 -3.2178,-3.2178 -1.7744,0 -3.2178,1.4434 -3.2178,3.2178 0,1.7725 1.4433,3.2144 3.2178,3.2144 z m 0,-4.4321 c 0.6719,0 1.2178,0.5464 1.2178,1.2178 0,0.6694 -0.5459,1.2144 -1.2178,1.2144 -0.6719,0 -1.2178,-0.5449 -1.2178,-1.2144 0,-0.6715 0.5459,-1.2178 1.2178,-1.2178 z"
   id="path4"
   style="opacity:0.4;fill:#00abff;fill-opacity:1;filter:url(#filter32)" />
		
		
	</g>
</g><g
       id="g16"
       data-name="48.Target"
       transform="matrix(1.331,0,0,1.331,16.028,18.520036)"
       style="fill:#ff3dfb;fill-opacity:1"><path
         d="m 12,18 a 6,6 0 1 1 6,-6 6.006,6.006 0 0 1 -6,6 z M 12,8 a 4,4 0 1 0 4,4 4,4 0 0 0 -4,-4 z"
         id="path10"
         style="opacity:0.4;fill:#ff3dfb;fill-opacity:1;filter:url(#filter31)" /><rect
         x="11"
         y="4"
         width="2"
         height="6"
         id="rect13"
         style="opacity:0.4;fill:#ff3dfb;fill-opacity:1;filter:url(#filter30)" /><rect
         x="11"
         y="14"
         width="2"
         height="6"
         id="rect14"
         style="opacity:0.4;fill:#ff3dfb;fill-opacity:1;filter:url(#filter29)" /><rect
         x="14"
         y="11"
         width="6"
         height="2"
         id="rect15"
         style="opacity:0.4;fill:#ff3dfb;fill-opacity:1;filter:url(#filter28)" /><rect
         x="4"
         y="11"
         width="6"
         height="2"
         id="rect16"
         style="opacity:0.4;fill:#ff3dfb;fill-opacity:1;filter:url(#filter27)" /></g></g><g
     id="g13"
     transform="matrix(0.9,0,0,0.9,1.9244773,0.77307608)"><g
       id="g9"
       transform="matrix(0.9,0,0,0.9,3.199995,3.20007)"
       style="fill:#00abff;fill-opacity:1">
	<g
   id="g8"
   style="fill:url(#linearGradient27);fill-opacity:1">
		<path
   d="M 58.4922,2.4214 H 5.5078 C 3.0225,2.4214 1,4.4434 1,6.9292 v 43.2397 c 0,2.4854 2.0225,4.5078 4.5078,4.5078 h 0.2137 c -1.5609,1.5596 -1.5886,4.0971 -0.0477,5.6826 0.792,0.8125 1.8438,1.2207 2.8984,1.2207 1.0166,0 2.0352,-0.3799 2.8203,-1.1426 l 5.9164,-5.7607 h 41.1832 c 2.4854,0 4.5078,-2.0225 4.5078,-4.5078 V 6.9292 C 63,4.4434 60.9775,2.4214 58.4922,2.4214 Z m -52.9844,2 H 58.4922 C 59.875,4.4214 61,5.5464 61,6.9292 v 6.8882 H 3 V 6.9292 C 3,5.5464 4.125,4.4214 5.5078,4.4214 Z m 6.2243,47.1896 2.8499,2.929 -1.6328,1.5898 -2.8516,-2.9277 z m 1.4328,-1.3946 1.5177,-1.4772 c 0.3809,-0.3711 0.8857,-0.5752 1.4238,-0.5752 0.0088,0 0.0186,0 0.0273,0 0.5488,0.0068 1.0596,0.2256 1.4385,0.6143 0.7852,0.8066 0.7676,2.1025 -0.0381,2.8877 l -1.5192,1.4792 z M 9.998,59.0039 C 9.1904,59.79 7.8916,59.7705 7.1074,58.9648 6.3232,58.1582 6.3418,56.8603 7.1465,56.0742 l 1.5178,-1.4773 2.8523,2.9284 z M 58.4922,52.6768 H 19.3066 c -0.0016,-0.0081 -0.002,-0.0156 -0.0036,-0.0237 0.9957,-1.2987 1.1002,-3.0587 0.2994,-4.4556 l 1.6895,-1.6464 c 3.0555,2.771 6.9249,4.1804 10.8086,4.1804 4.0518,0 8.1064,-1.5146 11.2314,-4.5557 6.3594,-6.1953 6.4971,-16.4121 0.3066,-22.7744 0,-5e-4 0,-5e-4 -10e-4,-5e-4 -6.1943,-6.3589 -16.4111,-6.499 -22.7754,-0.3062 -6.1175,5.9606 -6.4589,15.6317 -0.9661,22.0239 l -1.6895,1.6464 c -0.6118,-0.3732 -1.3088,-0.5909 -2.0466,-0.601 -1.0811,-0.0078 -2.1035,0.3916 -2.873,1.1426 L 7.7695,52.6767 H 5.5078 C 4.125,52.6768 3,51.5518 3,50.1689 V 15.8174 H 61 V 50.169 c 0,1.3828 -1.125,2.5078 -2.5078,2.5078 z m -36.502,-8.2012 c -5.4219,-5.5723 -5.3018,-14.521 0.2676,-19.9478 2.7373,-2.6631 6.2881,-3.9893 9.8369,-3.9893 3.6758,0 7.3496,1.4233 10.1104,4.2573 5.4219,5.5723 5.3018,14.5205 -0.2686,19.9473 -5.5722,5.4239 -14.5195,5.3028 -19.9463,-0.2675 z"
   id="path5"
   style="fill:url(#linearGradient2);fill-opacity:1" />
		<path
   d="m 46.7236,12.334 c 1.7744,0 3.2178,-1.4419 3.2178,-3.2144 0,-1.7744 -1.4434,-3.2178 -3.2178,-3.2178 -1.7744,0 -3.2178,1.4434 -3.2178,3.2178 10e-5,1.7725 1.4434,3.2144 3.2178,3.2144 z m 0,-4.4321 c 0.6719,0 1.2178,0.5464 1.2178,1.2178 0,0.6694 -0.5459,1.2144 -1.2178,1.2144 -0.6719,0 -1.2178,-0.5449 -1.2178,-1.2144 10e-5,-0.6715 0.546,-1.2178 1.2178,-1.2178 z"
   id="path6"
   style="fill:url(#linearGradient3);fill-opacity:1" />
		<path
   d="m 37.9287,12.334 c 1.7744,0 3.2178,-1.4419 3.2178,-3.2144 0,-1.7744 -1.4434,-3.2178 -3.2178,-3.2178 -1.7744,0 -3.2178,1.4434 -3.2178,3.2178 0,1.7725 1.4434,3.2144 3.2178,3.2144 z m 0,-4.4321 c 0.6719,0 1.2178,0.5464 1.2178,1.2178 0,0.6694 -0.5459,1.2144 -1.2178,1.2144 -0.6719,0 -1.2178,-0.5449 -1.2178,-1.2144 0,-0.6715 0.5459,-1.2178 1.2178,-1.2178 z"
   id="path7"
   style="fill:url(#linearGradient4);fill-opacity:1" />
		<path
   d="m 55.5186,12.334 c 1.7744,0 3.2178,-1.4419 3.2178,-3.2144 0,-1.7744 -1.4434,-3.2178 -3.2178,-3.2178 -1.7744,0 -3.2178,1.4434 -3.2178,3.2178 0,1.7725 1.4433,3.2144 3.2178,3.2144 z m 0,-4.4321 c 0.6719,0 1.2178,0.5464 1.2178,1.2178 0,0.6694 -0.5459,1.2144 -1.2178,1.2144 -0.6719,0 -1.2178,-0.5449 -1.2178,-1.2144 0,-0.6715 0.5459,-1.2178 1.2178,-1.2178 z"
   id="path8"
   style="fill:url(#linearGradient5);fill-opacity:1" />
		
		
	</g>
</g><g
       id="g12"
       data-name="48.Target"
       transform="matrix(1.331,0,0,1.331,16.028,18.520036)"
       style="fill:#ff3dfb;fill-opacity:1"><path
         d="m 12,18 a 6,6 0 1 1 6,-6 6.006,6.006 0 0 1 -6,6 z M 12,8 a 4,4 0 1 0 4,4 4,4 0 0 0 -4,-4 z"
         id="path9"
         style="fill:url(#linearGradient18);fill-opacity:1" /><rect
         x="11"
         y="4"
         width="2"
         height="6"
         id="rect9"
         style="fill:url(#linearGradient17);fill-opacity:1" /><rect
         x="11"
         y="14"
         width="2"
         height="6"
         id="rect10"
         style="fill:url(#linearGradient16);fill-opacity:1" /><rect
         x="14"
         y="11"
         width="6"
         height="2"
         id="rect11"
         style="fill:url(#linearGradient15);fill-opacity:1" /><rect
         x="4"
         y="11"
         width="6"
         height="2"
         id="rect12"
         style="fill:url(#linearGradient14);fill-opacity:1" /></g></g></g></svg>
