<?xml version="1.0" encoding="UTF-8" standalone="no"?>
<svg
   viewBox="0 0 480.93628 472.80457"
   version="1.1"
   id="svg11"
   width="480.93628"
   height="472.80457"
   xmlns:xlink="http://www.w3.org/1999/xlink"
   xmlns="http://www.w3.org/2000/svg"
   xmlns:svg="http://www.w3.org/2000/svg"
   xmlns:rdf="http://www.w3.org/1999/02/22-rdf-syntax-ns#"
   xmlns:cc="http://creativecommons.org/ns#"
   xmlns:dc="http://purl.org/dc/elements/1.1/">
  <defs
     id="defs11">
    <linearGradient
       id="linearGradient16">
      <stop
         style="stop-color:#ff3dfb;stop-opacity:0;"
         offset="0"
         id="stop17" />
      <stop
         style="stop-color:#ff3dfb;stop-opacity:1;"
         offset="1"
         id="stop16" />
    </linearGradient>
    <linearGradient
       id="linearGradient14">
      <stop
         style="stop-color:#00abff;stop-opacity:0;"
         offset="0"
         id="stop15" />
      <stop
         style="stop-color:#00abff;stop-opacity:1;"
         offset="1"
         id="stop14" />
    </linearGradient>
    <linearGradient
       xlink:href="#linearGradient14"
       id="linearGradient15"
       x1="247.33969"
       y1="515.1842"
       x2="247.33969"
       y2="143.53392"
       gradientUnits="userSpaceOnUse" />
    <linearGradient
       xlink:href="#linearGradient16"
       id="linearGradient17"
       x1="249.9028"
       y1="515.1842"
       x2="249.9028"
       y2="146.09702"
       gradientUnits="userSpaceOnUse" />
    <filter
       style="color-interpolation-filters:sRGB"
       id="filter17"
       x="-0.031095119"
       y="-0.023857984"
       width="1.0621902"
       height="1.047716">
      <feGaussianBlur
         stdDeviation="4.4224255"
         id="feGaussianBlur17" />
    </filter>
    <filter
       style="color-interpolation-filters:sRGB"
       id="filter18"
       x="-0.026525952"
       y="-0.027491301"
       width="1.0530519"
       height="1.0549826">
      <feGaussianBlur
         stdDeviation="5.0477456"
         id="feGaussianBlur18" />
    </filter>
  </defs>
  <title
     id="title1">Artboard 125</title>
  <metadata
     id="metadata11">
    <rdf:RDF>
      <cc:Work
         rdf:about="">
        <dc:title>Artboard 125</dc:title>
      </cc:Work>
    </rdf:RDF>
  </metadata>
  <g
     id="g18"
     transform="translate(-9.2193943,-10.720163)">
    <g
       id="Onion"
       style="display:inline">
      <path
         id="path2"
         style="opacity:0.6;fill:#00abff;fill-opacity:1;filter:url(#filter18)"
         d="M 234.125,30.740234 C 228.9375,74.146484 186.43815,103.54102 141.39648,134.69727 85.125654,173.61393 21.333984,217.7181 21.333984,298.66602 c 0,168.45833 184.145186,170.65755 191.978516,170.66796 L 213.35352,448 c -6.97917,-0.0104 -170.687504,-1.93815 -170.687504,-149.33398 0,-69.76042 53.855468,-106.9987 110.917964,-146.45704 41.25804,-28.539 80.48518,-55.796694 95.70704,-95.222652 14.62161,40.557584 54.51851,68.259412 96.5,97.298832 57.0625,39.45834 110.91601,76.69856 110.91601,146.45898 0,147.39583 -163.70833,149.32356 -170.6875,149.33398 l 0.043,21.33204 c 7.83333,-0.0104 191.97852,-2.20769 191.97852,-170.66602 0,-80.94792 -63.79167,-125.05209 -120.0625,-163.96875 C 312.93685,105.61914 270.4375,76.224609 265.25,32.818359 l -10.08789,1.201172 c 0.0328,-0.258488 0.098,-0.500276 0.12891,-0.759765 z" />
      <path
         id="path4"
         style="opacity:0.6;fill:#ff3dfb;fill-opacity:1;filter:url(#filter17)"
         d="m 234.66602,21.333984 c 0,3.170814 -0.13908,6.283274 -0.31641,9.378907 l 21.08008,2.447265 -2.08203,11.052735 -3.44532,11.535156 -7.36914,15.699219 -8.00976,11.693359 -8.49024,10.732422 -4.0039,4.326172 -10.67578,10.222661 c -11.7496,22.48388 -26.54595,43.47286 -41.16602,64.14062 -32.66667,46.16667 -63.52148,89.76042 -63.52148,147.4375 0,44.37231 15.19132,85.94489 41.875,117.31445 l 5.5664,1.69727 3.12305,0.88086 5.6875,1.36133 9.13086,2.08398 2.72265,0.56055 4.08594,0.7207 5.04492,0.7207 5.45313,0.86133 C 150.92217,418.34838 128,371.39419 128,320 128,269.10417 156.93685,228.19727 187.66602,184.79102 221.27018,137.31185 256,88.219404 256,21.333984 Z m 21.33398,0 c 0,4.293812 0.1529,8.508696 0.42969,12.660157 L 265.12109,33 l 0.32032,2.082031 1.4414,7.529297 1.60157,6.087891 4.64648,9.93164 6.4082,11.052735 8.16992,10.09375 0.33594,0.271484 C 281.43161,61.818824 277.33398,42.442799 277.33398,21.333984 Z m 13.15625,69.56836 c 0.6589,1.725811 1.42284,3.393575 2.12109,5.097656 H 256 c 0,44.92708 55.6875,145.00977 58.375,149.75977 18.89583,29.77083 26.95898,51.9694 26.95898,74.24023 0,33.20833 -12.29166,56.68685 -22.625,70.54102 l 17.125,12.75 C 353.37565,379.70768 362.66602,350.90625 362.66602,320 c 0,-33.45833 -15.31185,-62.08268 -29.97852,-85.16602 -12.78249,-22.84935 -42.44157,-80.84615 -52.15625,-118.61718 12.48411,24.29032 28.28079,46.64624 43.86523,68.66797 C 355.06315,228.19727 384,269.10417 384,320 c 0,47.58333 -19.39648,91.27083 -53.20898,119.875 l 3.36328,3.97266 3.51562,-0.71875 9.51563,-2.71875 17.67187,-5.77735 1.26758,-0.57617 C 391.2826,402.97534 405.33398,362.84212 405.33398,320 c 0,-57.67708 -30.85481,-101.27083 -63.58398,-147.53125 -9.45095,-13.35879 -18.98018,-26.86299 -27.72461,-40.81836 l -9.77148,-7.27539 -10.87305,-8.83594 -9.85547,-8.94726 -5.9375,-6.01563 c -0.01,-0.10586 -0.028,-0.22101 -0.0371,-0.32617 l -0.0293,-0.002 -1.95898,-1.724612 -0.64648,-0.654297 z m -34.49023,26.431636 c 0,28.09375 -9.02084,57.22787 -18.5625,88.08204 C 204.81185,241.93685 192,283.32227 192,330.66602 c 0,88.72916 43.91602,133.67838 45.79102,135.54296 l 15.10546,-15.05273 c -0.39583,-0.40625 -39.5625,-41.0944 -39.5625,-120.49023 0,-44.11459 11.76954,-82.15625 23.14454,-118.9375 C 246.52018,179.29102 256,148.64648 256,117.33398 Z m -83.54102,36.75 C 138.0625,173.66732 124.75,189.4681 113,203.41602 85.625,235.88477 64,261.52148 64,309.33398 c 0,67.63542 43.91602,112.34245 45.79102,114.20704 L 124.875,408.45898 c -0.39583,-0.39583 -39.541016,-40.22916 -39.541016,-99.125 0,-40.02083 18.436196,-61.89713 43.957036,-92.16796 12.125,-14.375 25.85481,-30.66667 39.58398,-51.25 z" />
    </g>
    <g
       id="g14">
      <path
         id="path13"
         style="opacity:1;fill:url(#linearGradient15);fill-opacity:1"
         d="M 234.125,30.740234 C 228.9375,74.146484 186.43815,103.54102 141.39648,134.69727 85.125654,173.61393 21.333984,217.7181 21.333984,298.66602 c 0,168.45833 184.145186,170.65755 191.978516,170.66796 L 213.35352,448 c -6.97917,-0.0104 -170.687504,-1.93815 -170.687504,-149.33398 0,-69.76042 53.855468,-106.9987 110.917964,-146.45704 41.25804,-28.539 80.48518,-55.796694 95.70704,-95.222652 14.62161,40.557584 54.51851,68.259412 96.5,97.298832 57.0625,39.45834 110.91601,76.69856 110.91601,146.45898 0,147.39583 -163.70833,149.32356 -170.6875,149.33398 l 0.043,21.33204 c 7.83333,-0.0104 191.97852,-2.20769 191.97852,-170.66602 0,-80.94792 -63.79167,-125.05209 -120.0625,-163.96875 C 312.93685,105.61914 270.4375,76.224609 265.25,32.818359 l -10.08789,1.201172 c 0.0328,-0.258488 0.098,-0.500276 0.12891,-0.759765 z" />
      <path
         id="path14"
         style="opacity:1;fill:url(#linearGradient17);fill-opacity:1"
         d="m 234.66602,21.333984 c 0,3.170814 -0.13908,6.283274 -0.31641,9.378907 l 21.08008,2.447265 -2.08203,11.052735 -3.44532,11.535156 -7.36914,15.699219 -8.00976,11.693359 -8.49024,10.732422 -4.0039,4.326172 -10.67578,10.222661 c -11.7496,22.48388 -26.54595,43.47286 -41.16602,64.14062 -32.66667,46.16667 -63.52148,89.76042 -63.52148,147.4375 0,44.37231 15.19132,85.94489 41.875,117.31445 l 5.5664,1.69727 3.12305,0.88086 5.6875,1.36133 9.13086,2.08398 2.72265,0.56055 4.08594,0.7207 5.04492,0.7207 5.45313,0.86133 C 150.92217,418.34838 128,371.39419 128,320 128,269.10417 156.93685,228.19727 187.66602,184.79102 221.27018,137.31185 256,88.219404 256,21.333984 Z m 21.33398,0 c 0,4.293812 0.1529,8.508696 0.42969,12.660157 L 265.12109,33 l 0.32032,2.082031 1.4414,7.529297 1.60157,6.087891 4.64648,9.93164 6.4082,11.052735 8.16992,10.09375 0.33594,0.271484 C 281.43161,61.818824 277.33398,42.442799 277.33398,21.333984 Z m 13.15625,69.56836 c 0.6589,1.725811 1.42284,3.393575 2.12109,5.097656 H 256 c 0,44.92708 55.6875,145.00977 58.375,149.75977 18.89583,29.77083 26.95898,51.9694 26.95898,74.24023 0,33.20833 -12.29166,56.68685 -22.625,70.54102 l 17.125,12.75 C 353.37565,379.70768 362.66602,350.90625 362.66602,320 c 0,-33.45833 -15.31185,-62.08268 -29.97852,-85.16602 -12.78249,-22.84935 -42.44157,-80.84615 -52.15625,-118.61718 12.48411,24.29032 28.28079,46.64624 43.86523,68.66797 C 355.06315,228.19727 384,269.10417 384,320 c 0,47.58333 -19.39648,91.27083 -53.20898,119.875 l 3.36328,3.97266 3.51562,-0.71875 9.51563,-2.71875 17.67187,-5.77735 1.26758,-0.57617 C 391.2826,402.97534 405.33398,362.84212 405.33398,320 c 0,-57.67708 -30.85481,-101.27083 -63.58398,-147.53125 -9.45095,-13.35879 -18.98018,-26.86299 -27.72461,-40.81836 l -9.77148,-7.27539 -10.87305,-8.83594 -9.85547,-8.94726 -5.9375,-6.01563 c -0.01,-0.10586 -0.028,-0.22101 -0.0371,-0.32617 l -0.0293,-0.002 -1.95898,-1.724612 -0.64648,-0.654297 z m -34.49023,26.431636 c 0,28.09375 -9.02084,57.22787 -18.5625,88.08204 C 204.81185,241.93685 192,283.32227 192,330.66602 c 0,88.72916 43.91602,133.67838 45.79102,135.54296 l 15.10546,-15.05273 c -0.39583,-0.40625 -39.5625,-41.0944 -39.5625,-120.49023 0,-44.11459 11.76954,-82.15625 23.14454,-118.9375 C 246.52018,179.29102 256,148.64648 256,117.33398 Z m -83.54102,36.75 C 138.0625,173.66732 124.75,189.4681 113,203.41602 85.625,235.88477 64,261.52148 64,309.33398 c 0,67.63542 43.91602,112.34245 45.79102,114.20704 L 124.875,408.45898 c -0.39583,-0.39583 -39.541016,-40.22916 -39.541016,-99.125 0,-40.02083 18.436196,-61.89713 43.957036,-92.16796 12.125,-14.375 25.85481,-30.66667 39.58398,-51.25 z" />
    </g>
  </g>
</svg>
