<?xml version="1.0" encoding="UTF-8" standalone="no"?>
<!-- Generator: Adobe Illustrator 22.0.1, SVG Export Plug-In . SVG Version: 6.00 Build 0)  -->

<svg
   version="1.1"
   id="Layer_1"
   x="0px"
   y="0px"
   viewBox="0 0 1336.379 1683.3556"
   xml:space="preserve"
   width="1336.379"
   height="1683.3556"
   xmlns:xlink="http://www.w3.org/1999/xlink"
   xmlns="http://www.w3.org/2000/svg"
   xmlns:svg="http://www.w3.org/2000/svg"><defs
   id="defs4"><linearGradient
     id="linearGradient22"><stop
       style="stop-color:#ff3dfb;stop-opacity:0;"
       offset="0"
       id="stop23" /><stop
       style="stop-color:#ff3dfb;stop-opacity:1;"
       offset="1"
       id="stop22" /></linearGradient><linearGradient
     id="linearGradient20"><stop
       style="stop-color:#00abff;stop-opacity:0;"
       offset="0"
       id="stop21" /><stop
       style="stop-color:#00abff;stop-opacity:1;"
       offset="1"
       id="stop20" /></linearGradient><linearGradient
     xlink:href="#linearGradient20"
     id="linearGradient21"
     x1="1044.1405"
     y1="1988.5892"
     x2="1044.1405"
     y2="781.79364"
     gradientUnits="userSpaceOnUse" /><linearGradient
     xlink:href="#linearGradient22"
     id="linearGradient23"
     x1="1023.1528"
     y1="1925.626"
     x2="1023.1528"
     y2="802.78143"
     gradientUnits="userSpaceOnUse" /><filter
     style="color-interpolation-filters:sRGB"
     id="filter23"
     x="-0.03072049"
     y="-0.024083323"
     width="1.061441"
     height="1.0481666"><feGaussianBlur
       stdDeviation="16.115757"
       id="feGaussianBlur23" /></filter><filter
     style="color-interpolation-filters:sRGB"
     id="filter24"
     x="-0.0364651"
     y="-0.021435955"
     width="1.0729302"
     height="1.0428719"><feGaussianBlur
       stdDeviation="3.4393275"
       id="feGaussianBlur24" /></filter></defs>

<g
   id="g24"
   transform="translate(-355.81046,-207.32218)"><g
     id="path1"
     style="display:inline"><path
       style="opacity:0.6;fill:#ff3dfb;fill-opacity:1;filter:url(#filter24)"
       d="m 1077.454,1377.325 v 172.107 H 970.546 v -172.107 c -35.556,-19.074 -59.728,-56.609 -59.728,-99.783 0,-62.511 50.671,-113.182 113.182,-113.182 62.511,0 113.182,50.671 113.182,113.182 0,43.173 -24.172,80.709 -59.728,99.783 z"
       id="path3" /><path
       id="path12"
       d="m 1023.998,246 c -55.99022,0 -110.43661,10.99743 -161.66206,32.66406 -49.43946,20.91075 -93.87987,50.86917 -131.97461,88.96289 v 0.002 c -38.09275,38.09376 -68.05117,82.53229 -88.96289,131.97265 v 0.002 c -21.66563,51.22447 -32.66406,105.67071 -32.66406,161.66015 v 82.19141 c 0,40.15742 32.76835,72.92578 72.92578,72.92578 40.15742,0 72.92773,-32.76836 72.92773,-72.92578 v -82.19141 c 0,-148.52273 120.56907,-269.21336 269.04491,-269.41211 148.3403,-0.19857 269.7793,123.16298 269.7793,271.59766 V 861.7911 H 494.48828 c -54.51868,0 -100,45.48131 -100,100 V 1752 c 0,54.5187 45.48132,100 100,100 H 1553.5117 c 54.5182,0 100,-45.4831 100,-100 V 961.79102 c 0,-54.51869 -45.4813,-100 -100,-100 H 1439.2656 V 661.26367 c 0,-55.99139 -10.9974,-110.43764 -32.664,-161.66211 -20.9127,-49.44127 -50.8721,-93.87982 -88.9649,-131.97265 v -0.002 C 1279.543,329.53425 1235.1016,299.57483 1185.6621,278.66406 1134.4367,256.99743 1079.9885,246 1023.998,246 Z M 514.48828,981.79102 H 1533.5117 V 1732 H 514.48828 Z"
       style="opacity:0.6;fill:#00abff;fill-opacity:1;filter:url(#filter23)" /></g><g
     id="g20"><path
       style="fill:url(#linearGradient23);fill-opacity:1"
       d="m 1077.454,1377.325 v 172.107 H 970.546 v -172.107 c -35.556,-19.074 -59.728,-56.609 -59.728,-99.783 0,-62.511 50.671,-113.182 113.182,-113.182 62.511,0 113.182,50.671 113.182,113.182 0,43.173 -24.172,80.709 -59.728,99.783 z"
       id="path19" /><path
       id="path20"
       d="m 1023.998,246 c -55.99022,0 -110.43661,10.99743 -161.66206,32.66406 -49.43946,20.91075 -93.87987,50.86917 -131.97461,88.96289 v 0.002 c -38.09275,38.09376 -68.05117,82.53229 -88.96289,131.97265 v 0.002 c -21.66563,51.22447 -32.66406,105.67071 -32.66406,161.66015 v 82.19141 c 0,40.15742 32.76835,72.92578 72.92578,72.92578 40.15742,0 72.92773,-32.76836 72.92773,-72.92578 v -82.19141 c 0,-148.52273 120.56907,-269.21336 269.04491,-269.41211 148.3403,-0.19857 269.7793,123.16298 269.7793,271.59766 V 861.7911 H 494.48828 c -54.51868,0 -100,45.48131 -100,100 V 1752 c 0,54.5187 45.48132,100 100,100 H 1553.5117 c 54.5182,0 100,-45.4831 100,-100 V 961.79102 c 0,-54.51869 -45.4813,-100 -100,-100 H 1439.2656 V 661.26367 c 0,-55.99139 -10.9974,-110.43764 -32.664,-161.66211 -20.9127,-49.44127 -50.8721,-93.87982 -88.9649,-131.97265 v -0.002 C 1279.543,329.53425 1235.1016,299.57483 1185.6621,278.66406 1134.4367,256.99743 1079.9885,246 1023.998,246 Z M 514.48828,981.79102 H 1533.5117 V 1732 H 514.48828 Z"
       style="fill:url(#linearGradient21);fill-opacity:1" /></g></g></svg>
