<?xml version="1.0" encoding="UTF-8" standalone="no"?>
<svg
   viewBox="0 0 38.320763 38.455021"
   version="1.1"
   id="svg10"
   width="38.320763"
   height="38.455021"
   xmlns:xlink="http://www.w3.org/1999/xlink"
   xmlns="http://www.w3.org/2000/svg"
   xmlns:svg="http://www.w3.org/2000/svg"
   xmlns:rdf="http://www.w3.org/1999/02/22-rdf-syntax-ns#"
   xmlns:cc="http://creativecommons.org/ns#"
   xmlns:dc="http://purl.org/dc/elements/1.1/">
  <defs
     id="defs10">
    <linearGradient
       id="linearGradient93">
      <stop
         style="stop-color:#00abff;stop-opacity:0;"
         offset="0"
         id="stop93" />
      <stop
         style="stop-color:#00abff;stop-opacity:1;"
         offset="1"
         id="stop92" />
    </linearGradient>
    <linearGradient
       id="linearGradient91">
      <stop
         style="stop-color:#00abff;stop-opacity:0;"
         offset="0"
         id="stop91" />
      <stop
         style="stop-color:#00abff;stop-opacity:1;"
         offset="1"
         id="stop90" />
    </linearGradient>
    <linearGradient
       id="linearGradient89">
      <stop
         style="stop-color:#00abff;stop-opacity:0;"
         offset="0"
         id="stop89" />
      <stop
         style="stop-color:#00abff;stop-opacity:1;"
         offset="1"
         id="stop88" />
    </linearGradient>
    <linearGradient
       id="linearGradient84">
      <stop
         style="stop-color:#00abff;stop-opacity:0;"
         offset="0"
         id="stop85" />
      <stop
         style="stop-color:#00abff;stop-opacity:1;"
         offset="1"
         id="stop84" />
    </linearGradient>
    <linearGradient
       id="linearGradient83">
      <stop
         style="stop-color:#ff3dfb;stop-opacity:0;"
         offset="0"
         id="stop83" />
      <stop
         style="stop-color:#ff3dfb;stop-opacity:1;"
         offset="1"
         id="stop82" />
    </linearGradient>
    <linearGradient
       id="linearGradient81">
      <stop
         style="stop-color:#ff3dfb;stop-opacity:0;"
         offset="0"
         id="stop81" />
      <stop
         style="stop-color:#ff3dfb;stop-opacity:1;"
         offset="1"
         id="stop80" />
    </linearGradient>
    <linearGradient
       id="linearGradient79">
      <stop
         style="stop-color:#ff3dfb;stop-opacity:0;"
         offset="0"
         id="stop79" />
      <stop
         style="stop-color:#ff3dfb;stop-opacity:1;"
         offset="1"
         id="stop78" />
    </linearGradient>
    <linearGradient
       id="linearGradient77">
      <stop
         style="stop-color:#ff3dfb;stop-opacity:0;"
         offset="0"
         id="stop77" />
      <stop
         style="stop-color:#ff3dfb;stop-opacity:1;"
         offset="1"
         id="stop76" />
    </linearGradient>
    <linearGradient
       id="linearGradient75">
      <stop
         style="stop-color:#ff3dfb;stop-opacity:0;"
         offset="0"
         id="stop75" />
      <stop
         style="stop-color:#ff3dfb;stop-opacity:1;"
         offset="1"
         id="stop74" />
    </linearGradient>
    <linearGradient
       id="linearGradient73">
      <stop
         style="stop-color:#ff3dfb;stop-opacity:0;"
         offset="0"
         id="stop73" />
      <stop
         style="stop-color:#ff3dfb;stop-opacity:1;"
         offset="1"
         id="stop72" />
    </linearGradient>
    <linearGradient
       id="linearGradient71">
      <stop
         style="stop-color:#ff3dfb;stop-opacity:0;"
         offset="0"
         id="stop71" />
      <stop
         style="stop-color:#ff3dfb;stop-opacity:1;"
         offset="1"
         id="stop70" />
    </linearGradient>
    <linearGradient
       id="linearGradient62">
      <stop
         style="stop-color:#ff3dfb;stop-opacity:0;"
         offset="0"
         id="stop63" />
      <stop
         style="stop-color:#ff3dfb;stop-opacity:1;"
         offset="1"
         id="stop62" />
    </linearGradient>
    <linearGradient
       xlink:href="#linearGradient62"
       id="linearGradient63"
       x1="21.664753"
       y1="51.348324"
       x2="21.664753"
       y2="18.343513"
       gradientUnits="userSpaceOnUse" />
    <linearGradient
       xlink:href="#linearGradient83"
       id="linearGradient64"
       x1="21.664753"
       y1="51.348324"
       x2="21.664753"
       y2="18.343513"
       gradientUnits="userSpaceOnUse" />
    <linearGradient
       xlink:href="#linearGradient81"
       id="linearGradient65"
       x1="21.664753"
       y1="51.348324"
       x2="21.664753"
       y2="18.343513"
       gradientUnits="userSpaceOnUse" />
    <linearGradient
       xlink:href="#linearGradient79"
       id="linearGradient66"
       x1="21.664753"
       y1="51.348324"
       x2="21.664753"
       y2="18.343513"
       gradientUnits="userSpaceOnUse" />
    <linearGradient
       xlink:href="#linearGradient77"
       id="linearGradient67"
       x1="21.664753"
       y1="51.348324"
       x2="21.664753"
       y2="18.343513"
       gradientUnits="userSpaceOnUse" />
    <linearGradient
       xlink:href="#linearGradient75"
       id="linearGradient68"
       x1="21.664753"
       y1="51.348324"
       x2="21.664753"
       y2="18.343513"
       gradientUnits="userSpaceOnUse" />
    <linearGradient
       xlink:href="#linearGradient73"
       id="linearGradient69"
       x1="21.664753"
       y1="51.348324"
       x2="21.664753"
       y2="18.343513"
       gradientUnits="userSpaceOnUse" />
    <linearGradient
       xlink:href="#linearGradient71"
       id="linearGradient70"
       x1="21.664753"
       y1="51.348324"
       x2="21.664753"
       y2="18.343513"
       gradientUnits="userSpaceOnUse" />
    <linearGradient
       xlink:href="#linearGradient84"
       id="linearGradient85"
       x1="19.796555"
       y1="50.518013"
       x2="19.796555"
       y2="18.032146"
       gradientUnits="userSpaceOnUse" />
    <linearGradient
       xlink:href="#linearGradient93"
       id="linearGradient86"
       x1="19.796555"
       y1="50.518013"
       x2="19.796555"
       y2="18.032146"
       gradientUnits="userSpaceOnUse" />
    <linearGradient
       xlink:href="#linearGradient91"
       id="linearGradient87"
       x1="19.796555"
       y1="50.518013"
       x2="19.796555"
       y2="18.032146"
       gradientUnits="userSpaceOnUse" />
    <linearGradient
       xlink:href="#linearGradient89"
       id="linearGradient88"
       x1="19.796555"
       y1="50.518013"
       x2="19.796555"
       y2="18.032146"
       gradientUnits="userSpaceOnUse" />
    <filter
       style="color-interpolation-filters:sRGB"
       id="filter105"
       x="-0.567"
       y="-0.567"
       width="2.134"
       height="2.134">
      <feGaussianBlur
         stdDeviation="0.4725"
         id="feGaussianBlur105" />
    </filter>
    <filter
       style="color-interpolation-filters:sRGB"
       id="filter106"
       x="-0.2268"
       y="-0.2268"
       width="1.4536"
       height="1.4536">
      <feGaussianBlur
         stdDeviation="0.4725"
         id="feGaussianBlur106" />
    </filter>
    <filter
       style="color-interpolation-filters:sRGB"
       id="filter107"
       x="-0.0315"
       y="-0.023625"
       width="1.063"
       height="1.04725">
      <feGaussianBlur
         stdDeviation="0.4725"
         id="feGaussianBlur107" />
    </filter>
    <filter
       style="color-interpolation-filters:sRGB"
       id="filter108"
       x="-0.2268"
       y="-0.126"
       width="1.4536"
       height="1.252">
      <feGaussianBlur
         stdDeviation="0.4725"
         id="feGaussianBlur108" />
    </filter>
    <filter
       style="color-interpolation-filters:sRGB"
       id="filter109"
       x="-0.47924999"
       y="-0.47924999"
       width="1.9585"
       height="1.9585">
      <feGaussianBlur
         stdDeviation="0.399375"
         id="feGaussianBlur109" />
    </filter>
    <filter
       style="color-interpolation-filters:sRGB"
       id="filter110"
       x="-0.1198125"
       y="-0.47924999"
       width="1.239625"
       height="1.9585">
      <feGaussianBlur
         stdDeviation="0.399375"
         id="feGaussianBlur110" />
    </filter>
    <filter
       style="color-interpolation-filters:sRGB"
       id="filter111"
       x="-0.47924999"
       y="-0.47924999"
       width="1.9585"
       height="1.9585">
      <feGaussianBlur
         stdDeviation="0.399375"
         id="feGaussianBlur111" />
    </filter>
    <filter
       style="color-interpolation-filters:sRGB"
       id="filter112"
       x="-0.1198125"
       y="-0.47924999"
       width="1.239625"
       height="1.9585">
      <feGaussianBlur
         stdDeviation="0.399375"
         id="feGaussianBlur112" />
    </filter>
    <filter
       style="color-interpolation-filters:sRGB"
       id="filter113"
       x="-0.47924999"
       y="-0.47924999"
       width="1.9585"
       height="1.9585">
      <feGaussianBlur
         stdDeviation="0.399375"
         id="feGaussianBlur113" />
    </filter>
    <filter
       style="color-interpolation-filters:sRGB"
       id="filter114"
       x="-0.1065"
       y="-0.47924999"
       width="1.213"
       height="1.9585">
      <feGaussianBlur
         stdDeviation="0.399375"
         id="feGaussianBlur114" />
    </filter>
    <filter
       style="color-interpolation-filters:sRGB"
       id="filter115"
       x="-0.034232142"
       y="-0.034232142"
       width="1.0684643"
       height="1.0684643">
      <feGaussianBlur
         stdDeviation="0.399375"
         id="feGaussianBlur115" />
    </filter>
    <filter
       style="color-interpolation-filters:sRGB"
       id="filter116"
       x="-0.095849998"
       y="-0.095849998"
       width="1.1917"
       height="1.1917">
      <feGaussianBlur
         stdDeviation="0.399375"
         id="feGaussianBlur116" />
    </filter>
  </defs>
  <title
     id="title1">11-development</title>
  <g
     id="g116"
     transform="translate(-3.2025297,-3.2025302)">
    <g
       id="g33"
       transform="translate(-1.0299603,-1.0299599)"
       style="display:inline">
      <g
         id="g32"
         transform="matrix(0.9,0,0,0.9,1.86,1.8600001)">
        <g
           id="g31"
           data-name="11-development"
           transform="matrix(0.85,0,0,0.85,3.6,3.6)">
          <path
             d="m 37,38 h -6 a 1,1 0 0 1 -1,-1 v -2.753 c -0.139,-0.056 -0.277,-0.114 -0.416,-0.175 l -1.948,1.949 a 1,1 0 0 1 -1.414,0 l -4.243,-4.243 a 1,1 0 0 1 0,-1.414 l 1.949,-1.948 C 23.866,28.277 23.809,28.139 23.754,28 H 21 a 1,1 0 0 1 -1,-1 v -6 a 1,1 0 0 1 1,-1 h 2.754 c 0.055,-0.139 0.112,-0.277 0.174,-0.416 l -1.949,-1.948 a 1,1 0 0 1 0,-1.414 l 4.243,-4.243 a 1,1 0 0 1 1.414,0 l 1.948,1.949 C 29.723,13.867 29.861,13.809 30,13.753 V 11 a 1,1 0 0 1 1,-1 h 6 a 1,1 0 0 1 1,1 v 2.753 c 0.139,0.056 0.277,0.114 0.416,0.175 l 1.948,-1.949 a 1,1 0 0 1 1.414,0 l 4.243,4.243 a 1,1 0 0 1 0,1.414 l -1.949,1.948 c 0.062,0.139 0.119,0.277 0.174,0.416 H 47 a 1,1 0 0 1 1,1 v 6 a 1,1 0 0 1 -1,1 h -2.754 c -0.055,0.139 -0.112,0.277 -0.174,0.416 l 1.949,1.948 a 1,1 0 0 1 0,1.414 l -4.243,4.243 a 1,1 0 0 1 -1.414,0 L 38.416,34.072 C 38.277,34.133 38.139,34.191 38,34.247 V 37 a 1,1 0 0 1 -1,1 z m -5,-2 h 4 v -2.459 a 1,1 0 0 1 0.7,-0.954 8.953,8.953 0 0 0 1.459,-0.61 1,1 0 0 1 1.17,0.179 L 41.071,33.9 43.9,31.071 42.157,29.328 A 1,1 0 0 1 41.978,28.158 9.078,9.078 0 0 0 42.588,26.7 1,1 0 0 1 43.542,26 H 46 v -4 h -2.459 a 1,1 0 0 1 -0.954,-0.7 9.078,9.078 0 0 0 -0.61,-1.458 1,1 0 0 1 0.179,-1.17 L 43.9,16.929 41.071,14.1 39.328,15.843 a 1,1 0 0 1 -1.17,0.179 8.953,8.953 0 0 0 -1.459,-0.61 1,1 0 0 1 -0.7,-0.954 V 12 H 32 v 2.459 a 1,1 0 0 1 -0.7,0.954 8.953,8.953 0 0 0 -1.459,0.61 1,1 0 0 1 -1.17,-0.179 L 26.929,14.1 24.1,16.929 l 1.743,1.743 a 1,1 0 0 1 0.179,1.17 9.078,9.078 0 0 0 -0.61,1.458 1,1 0 0 1 -0.954,0.7 H 22 v 4 h 2.459 a 1,1 0 0 1 0.954,0.7 9.078,9.078 0 0 0 0.61,1.458 1,1 0 0 1 -0.179,1.17 l -1.744,1.743 2.829,2.829 1.743,-1.743 a 1,1 0 0 1 1.17,-0.179 8.953,8.953 0 0 0 1.459,0.61 1,1 0 0 1 0.7,0.954 z"
             id="path22"
             style="opacity:0.4;fill:#ff3dfb;fill-opacity:1;filter:url(#filter115)" />
          <path
             d="m 34,29 a 5,5 0 1 1 5,-5 5.006,5.006 0 0 1 -5,5 z m 0,-8 a 3,3 0 1 0 3,3 3,3 0 0 0 -3,-3 z"
             id="path23"
             style="opacity:0.4;fill:#ff3dfb;fill-opacity:1;filter:url(#filter116)" />
          <path
             d="M 31,48 H 5 A 5.006,5.006 0 0 1 0,43 V 9 A 1,1 0 0 1 0.293,8.293 l 8,-8 A 1,1 0 0 1 9,0 h 22 a 5.006,5.006 0 0 1 5,5 V 8 H 34 V 5 A 3,3 0 0 0 31,2 H 9.414 L 2,9.414 V 43 a 3,3 0 0 0 3,3 h 26 a 3,3 0 0 0 3,-3 v -3 h 2 v 3 a 5.006,5.006 0 0 1 -5,5 z"
             id="path24"
             style="opacity:0.4;fill:#00abff;fill-opacity:1;filter:url(#filter107)" />
          <path
             d="M 7,10 H 5 V 8 H 7 A 1,1 0 0 0 8,7 V 1 h 2 v 6 a 3,3 0 0 1 -3,3 z"
             id="path25"
             style="opacity:0.4;fill:#00abff;fill-opacity:1;filter:url(#filter108)" />
          <rect
             x="9"
             y="23"
             width="9"
             height="2"
             id="rect25"
             style="opacity:0.4;fill:#ff3dfb;fill-opacity:1;filter:url(#filter114)" />
          <rect
             x="5"
             y="23"
             width="2"
             height="2"
             id="rect26"
             style="opacity:0.4;fill:#ff3dfb;fill-opacity:1;filter:url(#filter113)" />
          <rect
             x="11"
             y="30"
             width="8"
             height="2"
             id="rect27"
             style="opacity:0.4;fill:#ff3dfb;fill-opacity:1;filter:url(#filter112)" />
          <rect
             x="7"
             y="30"
             width="2"
             height="2"
             id="rect28"
             style="opacity:0.4;fill:#ff3dfb;fill-opacity:1;filter:url(#filter111)" />
          <rect
             x="11"
             y="16"
             width="8"
             height="2"
             id="rect29"
             style="opacity:0.4;fill:#ff3dfb;fill-opacity:1;filter:url(#filter110)" />
          <rect
             x="7"
             y="16"
             width="2"
             height="2"
             id="rect30"
             style="opacity:0.4;fill:#ff3dfb;fill-opacity:1;filter:url(#filter109)" />
          <path
             d="M 9,44 H 7 A 3,3 0 0 1 4,41 v -2 h 2 v 2 a 1,1 0 0 0 1,1 h 2 z"
             id="path30"
             style="opacity:0.4;fill:#00abff;fill-opacity:1;filter:url(#filter106)" />
          <rect
             x="11"
             y="42"
             width="2"
             height="2"
             id="rect31"
             style="opacity:0.4;fill:#00abff;fill-opacity:1;filter:url(#filter105)" />
        </g>
      </g>
    </g>
    <g
       id="g62"
       transform="translate(-1.0299603,-1.0299599)">
      <g
         id="g61"
         transform="matrix(0.9,0,0,0.9,1.86,1.8600001)">
        <g
           id="g60"
           data-name="11-development"
           transform="matrix(0.85,0,0,0.85,3.6,3.6)">
          <path
             d="m 37,38 h -6 a 1,1 0 0 1 -1,-1 v -2.753 c -0.139,-0.056 -0.277,-0.114 -0.416,-0.175 l -1.948,1.949 a 1,1 0 0 1 -1.414,0 l -4.243,-4.243 a 1,1 0 0 1 0,-1.414 l 1.949,-1.948 C 23.866,28.277 23.809,28.139 23.754,28 H 21 a 1,1 0 0 1 -1,-1 v -6 a 1,1 0 0 1 1,-1 h 2.754 c 0.055,-0.139 0.112,-0.277 0.174,-0.416 l -1.949,-1.948 a 1,1 0 0 1 0,-1.414 l 4.243,-4.243 a 1,1 0 0 1 1.414,0 l 1.948,1.949 C 29.723,13.867 29.861,13.809 30,13.753 V 11 a 1,1 0 0 1 1,-1 h 6 a 1,1 0 0 1 1,1 v 2.753 c 0.139,0.056 0.277,0.114 0.416,0.175 l 1.948,-1.949 a 1,1 0 0 1 1.414,0 l 4.243,4.243 a 1,1 0 0 1 0,1.414 l -1.949,1.948 c 0.062,0.139 0.119,0.277 0.174,0.416 H 47 a 1,1 0 0 1 1,1 v 6 a 1,1 0 0 1 -1,1 h -2.754 c -0.055,0.139 -0.112,0.277 -0.174,0.416 l 1.949,1.948 a 1,1 0 0 1 0,1.414 l -4.243,4.243 a 1,1 0 0 1 -1.414,0 L 38.416,34.072 C 38.277,34.133 38.139,34.191 38,34.247 V 37 a 1,1 0 0 1 -1,1 z m -5,-2 h 4 v -2.459 a 1,1 0 0 1 0.7,-0.954 8.953,8.953 0 0 0 1.459,-0.61 1,1 0 0 1 1.17,0.179 L 41.071,33.9 43.9,31.071 42.157,29.328 A 1,1 0 0 1 41.978,28.158 9.078,9.078 0 0 0 42.588,26.7 1,1 0 0 1 43.542,26 H 46 v -4 h -2.459 a 1,1 0 0 1 -0.954,-0.7 9.078,9.078 0 0 0 -0.61,-1.458 1,1 0 0 1 0.179,-1.17 L 43.9,16.929 41.071,14.1 39.328,15.843 a 1,1 0 0 1 -1.17,0.179 8.953,8.953 0 0 0 -1.459,-0.61 1,1 0 0 1 -0.7,-0.954 V 12 H 32 v 2.459 a 1,1 0 0 1 -0.7,0.954 8.953,8.953 0 0 0 -1.459,0.61 1,1 0 0 1 -1.17,-0.179 L 26.929,14.1 24.1,16.929 l 1.743,1.743 a 1,1 0 0 1 0.179,1.17 9.078,9.078 0 0 0 -0.61,1.458 1,1 0 0 1 -0.954,0.7 H 22 v 4 h 2.459 a 1,1 0 0 1 0.954,0.7 9.078,9.078 0 0 0 0.61,1.458 1,1 0 0 1 -0.179,1.17 l -1.744,1.743 2.829,2.829 1.743,-1.743 a 1,1 0 0 1 1.17,-0.179 8.953,8.953 0 0 0 1.459,0.61 1,1 0 0 1 0.7,0.954 z"
             id="path51"
             style="fill:url(#linearGradient63);fill-opacity:1" />
          <path
             d="m 34,29 a 5,5 0 1 1 5,-5 5.006,5.006 0 0 1 -5,5 z m 0,-8 a 3,3 0 1 0 3,3 3,3 0 0 0 -3,-3 z"
             id="path52"
             style="fill:url(#linearGradient64);fill-opacity:1" />
          <path
             d="M 31,48 H 5 A 5.006,5.006 0 0 1 0,43 V 9 A 1,1 0 0 1 0.293,8.293 l 8,-8 A 1,1 0 0 1 9,0 h 22 a 5.006,5.006 0 0 1 5,5 V 8 H 34 V 5 A 3,3 0 0 0 31,2 H 9.414 L 2,9.414 V 43 a 3,3 0 0 0 3,3 h 26 a 3,3 0 0 0 3,-3 v -3 h 2 v 3 a 5.006,5.006 0 0 1 -5,5 z"
             id="path53"
             style="fill:url(#linearGradient85);fill-opacity:1" />
          <path
             d="M 7,10 H 5 V 8 H 7 A 1,1 0 0 0 8,7 V 1 h 2 v 6 a 3,3 0 0 1 -3,3 z"
             id="path54"
             style="fill:url(#linearGradient86);fill-opacity:1" />
          <rect
             x="9"
             y="23"
             width="9"
             height="2"
             id="rect54"
             style="fill:url(#linearGradient65);fill-opacity:1" />
          <rect
             x="5"
             y="23"
             width="2"
             height="2"
             id="rect55"
             style="fill:url(#linearGradient66);fill-opacity:1" />
          <rect
             x="11"
             y="30"
             width="8"
             height="2"
             id="rect56"
             style="fill:url(#linearGradient67);fill-opacity:1" />
          <rect
             x="7"
             y="30"
             width="2"
             height="2"
             id="rect57"
             style="fill:url(#linearGradient68);fill-opacity:1" />
          <rect
             x="11"
             y="16"
             width="8"
             height="2"
             id="rect58"
             style="fill:url(#linearGradient69);fill-opacity:1" />
          <rect
             x="7"
             y="16"
             width="2"
             height="2"
             id="rect59"
             style="fill:url(#linearGradient70);fill-opacity:1" />
          <path
             d="M 9,44 H 7 A 3,3 0 0 1 4,41 v -2 h 2 v 2 a 1,1 0 0 0 1,1 h 2 z"
             id="path59"
             style="fill:url(#linearGradient87);fill-opacity:1" />
          <rect
             x="11"
             y="42"
             width="2"
             height="2"
             id="rect60"
             style="fill:url(#linearGradient88);fill-opacity:1" />
        </g>
      </g>
    </g>
  </g>
  <metadata
     id="metadata1">
    <rdf:RDF>
      <cc:Work
         rdf:about="">
        <dc:title>11-development</dc:title>
      </cc:Work>
    </rdf:RDF>
  </metadata>
</svg>
