<?xml version="1.0" encoding="UTF-8" standalone="no"?>
<!-- Generator: Adobe Illustrator 21.0.2, SVG Export Plug-In . SVG Version: 6.00 Build 0)  -->

<svg
   version="1.1"
   x="0px"
   y="0px"
   viewBox="0 0 47.446899 40.343376"
   xml:space="preserve"
   id="svg19"
   width="47.446899"
   height="40.343376"
   xmlns:xlink="http://www.w3.org/1999/xlink"
   xmlns="http://www.w3.org/2000/svg"
   xmlns:svg="http://www.w3.org/2000/svg"><defs
   id="defs19"><linearGradient
     id="linearGradient77"><stop
       style="stop-color:#00abff;stop-opacity:0;"
       offset="0"
       id="stop77" /><stop
       style="stop-color:#00abff;stop-opacity:1;"
       offset="1"
       id="stop76" /></linearGradient><linearGradient
     id="linearGradient75"><stop
       style="stop-color:#00abff;stop-opacity:0;"
       offset="0"
       id="stop75" /><stop
       style="stop-color:#00abff;stop-opacity:1;"
       offset="1"
       id="stop74" /></linearGradient><linearGradient
     id="linearGradient73"><stop
       style="stop-color:#00abff;stop-opacity:0;"
       offset="0"
       id="stop73" /><stop
       style="stop-color:#00abff;stop-opacity:1;"
       offset="1"
       id="stop72" /></linearGradient><linearGradient
     id="linearGradient71"><stop
       style="stop-color:#00abff;stop-opacity:0;"
       offset="0"
       id="stop71" /><stop
       style="stop-color:#00abff;stop-opacity:1;"
       offset="1"
       id="stop70" /></linearGradient><linearGradient
     id="linearGradient65"><stop
       style="stop-color:#00abff;stop-opacity:0;"
       offset="0"
       id="stop66" /><stop
       style="stop-color:#00abff;stop-opacity:1;"
       offset="1"
       id="stop65" /></linearGradient><linearGradient
     id="linearGradient64"><stop
       style="stop-color:#ff3dfb;stop-opacity:0;"
       offset="0"
       id="stop64" /><stop
       style="stop-color:#ff3dfb;stop-opacity:1;"
       offset="1"
       id="stop63" /></linearGradient><linearGradient
     id="linearGradient62"><stop
       style="stop-color:#ff3dfb;stop-opacity:0;"
       offset="0"
       id="stop62" /><stop
       style="stop-color:#ff3dfb;stop-opacity:1;"
       offset="1"
       id="stop61" /></linearGradient><linearGradient
     id="linearGradient60"><stop
       style="stop-color:#ff3dfb;stop-opacity:0;"
       offset="0"
       id="stop60" /><stop
       style="stop-color:#ff3dfb;stop-opacity:1;"
       offset="1"
       id="stop59" /></linearGradient><linearGradient
     id="linearGradient58"><stop
       style="stop-color:#ff3dfb;stop-opacity:0;"
       offset="0"
       id="stop58" /><stop
       style="stop-color:#ff3dfb;stop-opacity:1;"
       offset="1"
       id="stop57" /></linearGradient><linearGradient
     id="linearGradient56"><stop
       style="stop-color:#ff3dfb;stop-opacity:0;"
       offset="0"
       id="stop56" /><stop
       style="stop-color:#ff3dfb;stop-opacity:1;"
       offset="1"
       id="stop55" /></linearGradient><linearGradient
     id="linearGradient54"><stop
       style="stop-color:#ff3dfb;stop-opacity:0;"
       offset="0"
       id="stop54" /><stop
       style="stop-color:#ff3dfb;stop-opacity:1;"
       offset="1"
       id="stop53" /></linearGradient><linearGradient
     id="linearGradient52"><stop
       style="stop-color:#ff3dfb;stop-opacity:0;"
       offset="0"
       id="stop52" /><stop
       style="stop-color:#ff3dfb;stop-opacity:1;"
       offset="1"
       id="stop51" /></linearGradient><linearGradient
     id="linearGradient50"><stop
       style="stop-color:#ff3dfb;stop-opacity:0;"
       offset="0"
       id="stop50" /><stop
       style="stop-color:#ff3dfb;stop-opacity:1;"
       offset="1"
       id="stop49" /></linearGradient><linearGradient
     id="linearGradient48"><stop
       style="stop-color:#ff3dfb;stop-opacity:0;"
       offset="0"
       id="stop48" /><stop
       style="stop-color:#ff3dfb;stop-opacity:1;"
       offset="1"
       id="stop47" /></linearGradient><linearGradient
     id="linearGradient46"><stop
       style="stop-color:#ff3dfb;stop-opacity:0;"
       offset="0"
       id="stop46" /><stop
       style="stop-color:#ff3dfb;stop-opacity:1;"
       offset="1"
       id="stop45" /></linearGradient><linearGradient
     id="linearGradient34"><stop
       style="stop-color:#ff3dfb;stop-opacity:0;"
       offset="0"
       id="stop35" /><stop
       style="stop-color:#ff3dfb;stop-opacity:1;"
       offset="1"
       id="stop34" /></linearGradient><style
     id="style1">.cls-1,.cls-2,.cls-3{fill:none;stroke:#333;stroke-linecap:round;}.cls-1,.cls-2{stroke-miterlimit:10;}.cls-1{stroke-width:4px;}.cls-2,.cls-3{stroke-width:2px;}.cls-3{stroke-linejoin:round;}.cls-4{fill:#333;}</style><linearGradient
     xlink:href="#linearGradient34"
     id="linearGradient35"
     x1="32.374287"
     y1="63.043289"
     x2="32.374287"
     y2="14.169105"
     gradientUnits="userSpaceOnUse" /><linearGradient
     xlink:href="#linearGradient64"
     id="linearGradient36"
     x1="32.374287"
     y1="63.043289"
     x2="32.374287"
     y2="14.169105"
     gradientUnits="userSpaceOnUse" /><linearGradient
     xlink:href="#linearGradient62"
     id="linearGradient37"
     x1="32.374287"
     y1="63.043289"
     x2="32.374287"
     y2="14.169105"
     gradientUnits="userSpaceOnUse" /><linearGradient
     xlink:href="#linearGradient60"
     id="linearGradient38"
     x1="32.374287"
     y1="63.043289"
     x2="32.374287"
     y2="14.169105"
     gradientUnits="userSpaceOnUse" /><linearGradient
     xlink:href="#linearGradient58"
     id="linearGradient39"
     x1="32.374287"
     y1="63.043289"
     x2="32.374287"
     y2="14.169105"
     gradientUnits="userSpaceOnUse" /><linearGradient
     xlink:href="#linearGradient56"
     id="linearGradient40"
     x1="32.374287"
     y1="63.043289"
     x2="32.374287"
     y2="14.169105"
     gradientUnits="userSpaceOnUse" /><linearGradient
     xlink:href="#linearGradient54"
     id="linearGradient41"
     x1="32.374287"
     y1="63.043289"
     x2="32.374287"
     y2="14.169105"
     gradientUnits="userSpaceOnUse" /><linearGradient
     xlink:href="#linearGradient52"
     id="linearGradient42"
     x1="32.374287"
     y1="63.043289"
     x2="32.374287"
     y2="14.169105"
     gradientUnits="userSpaceOnUse" /><linearGradient
     xlink:href="#linearGradient50"
     id="linearGradient43"
     x1="32.374287"
     y1="63.043289"
     x2="32.374287"
     y2="14.169105"
     gradientUnits="userSpaceOnUse" /><linearGradient
     xlink:href="#linearGradient48"
     id="linearGradient44"
     x1="32.374287"
     y1="63.043289"
     x2="32.374287"
     y2="14.169105"
     gradientUnits="userSpaceOnUse" /><linearGradient
     xlink:href="#linearGradient46"
     id="linearGradient45"
     x1="32.374287"
     y1="63.043289"
     x2="32.374287"
     y2="14.169105"
     gradientUnits="userSpaceOnUse" /><linearGradient
     xlink:href="#linearGradient65"
     id="linearGradient66"
     x1="31.789667"
     y1="63.160213"
     x2="31.789667"
     y2="11.947551"
     gradientUnits="userSpaceOnUse" /><linearGradient
     xlink:href="#linearGradient77"
     id="linearGradient67"
     x1="31.789667"
     y1="63.160213"
     x2="31.789667"
     y2="11.947551"
     gradientUnits="userSpaceOnUse" /><linearGradient
     xlink:href="#linearGradient75"
     id="linearGradient68"
     x1="31.789667"
     y1="63.160213"
     x2="31.789667"
     y2="11.947551"
     gradientUnits="userSpaceOnUse" /><linearGradient
     xlink:href="#linearGradient73"
     id="linearGradient69"
     x1="31.789667"
     y1="63.160213"
     x2="31.789667"
     y2="11.947551"
     gradientUnits="userSpaceOnUse" /><linearGradient
     xlink:href="#linearGradient71"
     id="linearGradient70"
     x1="31.789667"
     y1="63.160213"
     x2="31.789667"
     y2="11.947551"
     gradientUnits="userSpaceOnUse" /><filter
     style="color-interpolation-filters:sRGB"
     id="filter92"
     x="-0.065389517"
     y="-0.51516477"
     width="1.130779"
     height="2.0303295"><feGaussianBlur
       stdDeviation="0.42930397"
       id="feGaussianBlur92" /></filter><filter
     style="color-interpolation-filters:sRGB"
     id="filter93"
     x="-0.065389517"
     y="-0.51516477"
     width="1.130779"
     height="2.0303295"><feGaussianBlur
       stdDeviation="0.42930397"
       id="feGaussianBlur93" /></filter><filter
     style="color-interpolation-filters:sRGB"
     id="filter94"
     x="-0.065389517"
     y="-0.51516477"
     width="1.130779"
     height="2.0303295"><feGaussianBlur
       stdDeviation="0.42930397"
       id="feGaussianBlur94" /></filter><filter
     style="color-interpolation-filters:sRGB"
     id="filter95"
     x="-0.065389517"
     y="-0.51516477"
     width="1.130779"
     height="2.0303295"><feGaussianBlur
       stdDeviation="0.42930397"
       id="feGaussianBlur95" /></filter><filter
     style="color-interpolation-filters:sRGB"
     id="filter96"
     x="-0.076916094"
     y="-0.51516477"
     width="1.1538322"
     height="2.0303295"><feGaussianBlur
       stdDeviation="0.42930397"
       id="feGaussianBlur96" /></filter><filter
     style="color-interpolation-filters:sRGB"
     id="filter97"
     x="-0.046952035"
     y="-0.51516477"
     width="1.0939041"
     height="2.0303295"><feGaussianBlur
       stdDeviation="0.42930397"
       id="feGaussianBlur97" /></filter><filter
     style="color-interpolation-filters:sRGB"
     id="filter98"
     x="-0.065389517"
     y="-0.51516477"
     width="1.130779"
     height="2.0303295"><feGaussianBlur
       stdDeviation="0.42930397"
       id="feGaussianBlur98" /></filter><filter
     style="color-interpolation-filters:sRGB"
     id="filter99"
     x="-0.20432481"
     y="-0.14894897"
     width="1.4086496"
     height="1.2978979"><feGaussianBlur
       stdDeviation="0.42930397"
       id="feGaussianBlur99" /></filter><filter
     style="color-interpolation-filters:sRGB"
     id="filter100"
     x="-0.51465994"
     y="-0.51269388"
     width="2.0293199"
     height="2.0253878"><feGaussianBlur
       stdDeviation="0.42930397"
       id="feGaussianBlur100" /></filter><filter
     style="color-interpolation-filters:sRGB"
     id="filter101"
     x="-0.20434508"
     y="-0.14895241"
     width="1.4086902"
     height="1.2979048"><feGaussianBlur
       stdDeviation="0.42930397"
       id="feGaussianBlur101" /></filter><filter
     style="color-interpolation-filters:sRGB"
     id="filter102"
     x="-0.51473179"
     y="-0.51233142"
     width="2.0294636"
     height="2.0246628"><feGaussianBlur
       stdDeviation="0.42930397"
       id="feGaussianBlur102" /></filter><filter
     style="color-interpolation-filters:sRGB"
     id="filter103"
     x="-0.41105227"
     y="-0.22298491"
     width="1.8221045"
     height="1.4459698"><feGaussianBlur
       stdDeviation="0.64268887"
       id="feGaussianBlur103" /></filter><filter
     style="color-interpolation-filters:sRGB"
     id="filter104"
     x="-0.23969376"
     y="-0.23982047"
     width="1.4793875"
     height="1.4796409"><feGaussianBlur
       stdDeviation="0.64268887"
       id="feGaussianBlur104" /></filter><filter
     style="color-interpolation-filters:sRGB"
     id="filter105"
     x="-0.23969376"
     y="-0.23982047"
     width="1.4793875"
     height="1.4796409"><feGaussianBlur
       stdDeviation="0.64268887"
       id="feGaussianBlur105" /></filter><filter
     style="color-interpolation-filters:sRGB"
     id="filter106"
     x="-0.23967513"
     y="-0.23982047"
     width="1.4793503"
     height="1.4796409"><feGaussianBlur
       stdDeviation="0.64268887"
       id="feGaussianBlur106" /></filter><filter
     style="color-interpolation-filters:sRGB"
     id="filter107"
     x="-0.024878279"
     y="-0.029517361"
     width="1.0497566"
     height="1.0590347"><feGaussianBlur
       stdDeviation="0.64268887"
       id="feGaussianBlur107" /></filter></defs>






























<g
   id="g107"
   transform="translate(-4.3025516,-3.9079116)"><g
     id="g18"
     transform="matrix(0.9,0,0,0.9,2.8026,2.40796)"
     style="display:inline"><g
       id="g17"
       transform="matrix(0.81,0,0,0.81,2.106,-1.8404009)">
	<g
   id="g16">
		<path
   d="M 58.4922,5.8721 H 5.5078 C 3.022,5.8721 1,7.8945 1,10.3799 v 43.2402 c 0,2.4854 2.022,4.5078 4.5078,4.5078 H 58.4922 C 60.978,58.1279 63,56.1054 63,53.6201 V 10.3799 C 63,7.8945 60.978,5.8721 58.4922,5.8721 Z m -52.9844,2 H 58.4922 C 59.875,7.8721 61,8.9971 61,10.3799 v 6.8887 H 3 V 10.3799 C 3,8.9971 4.125,7.8721 5.5078,7.8721 Z M 58.4922,56.1279 H 5.5078 C 4.125,56.1279 3,55.0029 3,53.6201 V 19.2686 h 58 v 34.3516 c 0,1.3827 -1.125,2.5077 -2.5078,2.5077 z"
   id="path1"
   style="opacity:0.6;fill:#00abff;fill-opacity:1;filter:url(#filter107)" />
		<path
   d="m 46.7236,15.7842 c 1.7744,0 3.2178,-1.4414 3.2178,-3.2139 0,-1.7744 -1.4434,-3.2178 -3.2178,-3.2178 -1.7744,0 -3.2178,1.4434 -3.2178,3.2178 10e-5,1.7725 1.4434,3.2139 3.2178,3.2139 z m 0,-4.4317 c 0.6714,0 1.2178,0.5459 1.2178,1.2178 0,0.6689 -0.5464,1.2139 -1.2178,1.2139 -0.6714,0 -1.2178,-0.5449 -1.2178,-1.2139 10e-5,-0.6719 0.5464,-1.2178 1.2178,-1.2178 z"
   id="path2"
   style="opacity:0.6;fill:#00abff;fill-opacity:1;filter:url(#filter106)" />
		<path
   d="m 37.9287,15.7842 c 1.7744,0 3.2178,-1.4414 3.2178,-3.2139 0,-1.7744 -1.4434,-3.2178 -3.2178,-3.2178 -1.7739,0 -3.2173,1.4434 -3.2173,3.2178 0,1.7725 1.4434,3.2139 3.2173,3.2139 z m 0,-4.4317 c 0.6714,0 1.2178,0.5459 1.2178,1.2178 0,0.6689 -0.5464,1.2139 -1.2178,1.2139 -0.6714,0 -1.2173,-0.5449 -1.2173,-1.2139 0,-0.6719 0.5459,-1.2178 1.2173,-1.2178 z"
   id="path3"
   style="opacity:0.6;fill:#00abff;fill-opacity:1;filter:url(#filter105)" />
		<path
   d="m 55.5186,15.7842 c 1.7739,0 3.2173,-1.4414 3.2173,-3.2139 0,-1.7744 -1.4434,-3.2178 -3.2173,-3.2178 -1.7744,0 -3.2178,1.4434 -3.2178,3.2178 0,1.7725 1.4433,3.2139 3.2178,3.2139 z m 0,-4.4317 c 0.6714,0 1.2173,0.5459 1.2173,1.2178 0,0.6689 -0.5459,1.2139 -1.2173,1.2139 -0.6714,0 -1.2178,-0.5449 -1.2178,-1.2139 0,-0.6719 0.5464,-1.2178 1.2178,-1.2178 z"
   id="path4"
   style="opacity:0.6;fill:#00abff;fill-opacity:1;filter:url(#filter104)" />
		
		
		
		<path
   d="m 6.4839,43.9219 c 0.1948,0.2607 0.4907,0.3965 0.791,0.3965 0.2095,0 0.4219,-0.0664 0.6035,-0.2031 C 8.3203,43.7842 8.4048,43.1505 8.0732,42.709 7.7421,42.2666 7.1171,42.1777 6.6733,42.5088 6.2314,42.8399 6.142,43.4668 6.4736,43.9082 Z"
   id="path5"
   style="opacity:0.6;fill:#ff3dfb;fill-opacity:1;filter:url(#filter100)" />
		<path
   d="m 6.7695,48.4775 c -0.4771,0.2783 -0.6382,0.8906 -0.3599,1.3682 l 0.0103,0.0176 c 0.1846,0.3164 0.5137,0.4902 0.8535,0.4902 0.1724,0 0.3481,-0.0449 0.5088,-0.1387 0.4771,-0.2783 0.6333,-0.8994 0.355,-1.377 C 7.8589,48.3623 7.248,48.2012 6.7695,48.4775 Z"
   id="path6"
   style="opacity:0.6;fill:#ff3dfb;fill-opacity:1;filter:url(#filter102)" />
		<path
   d="m 44.0615,44.3398 c -0.3467,-0.4297 -0.9766,-0.4961 -1.4063,-0.1484 l -3.042,2.46 c -0.2349,0.1895 -0.3711,0.4756 -0.3711,0.7773 0,0.3027 0.1367,0.5879 0.3716,0.7783 l 3.042,2.457 c 0.1851,0.1494 0.4072,0.2217 0.6279,0.2217 0.2915,0 0.5811,-0.127 0.7783,-0.3721 0.3472,-0.4297 0.2803,-1.0586 -0.1494,-1.4063 L 41.8329,47.4286 43.913,45.746 c 0.4293,-0.3466 0.4962,-0.9765 0.1485,-1.4062 z"
   id="path7"
   style="opacity:0.6;fill:#ff3dfb;fill-opacity:1;filter:url(#filter101)" />
		<path
   d="m 48.3013,44.0264 c -0.522,-0.1846 -1.0928,0.0859 -1.2773,0.6064 l -1.752,4.917 c -0.1855,0.5205 0.0859,1.0928 0.6064,1.2783 0.1108,0.0391 0.2241,0.0576 0.3354,0.0576 0.4111,0 0.7964,-0.2549 0.9419,-0.6641 l 1.752,-4.917 c 0.1856,-0.5204 -0.0859,-1.0927 -0.6064,-1.2782 z"
   id="path8"
   style="opacity:0.6;fill:#00abff;fill-opacity:1;filter:url(#filter103)" />
		<path
   d="m 51.5103,44.1914 c -0.4292,-0.3486 -1.0586,-0.2803 -1.4067,0.1484 -0.3472,0.4297 -0.2803,1.0596 0.1489,1.4063 l 2.0801,1.6826 -2.0796,1.6787 c -0.4297,0.3477 -0.4966,0.9766 -0.1494,1.4063 0.1973,0.2451 0.4868,0.3721 0.7783,0.3721 0.2207,0 0.4429,-0.0723 0.6279,-0.2217 l 3.0425,-2.457 c 0.2349,-0.1904 0.3716,-0.4756 0.3716,-0.7783 0,-0.3018 -0.1362,-0.5879 -0.3711,-0.7773 z"
   id="path9"
   style="opacity:0.6;fill:#ff3dfb;fill-opacity:1;filter:url(#filter99)" />
		<path
   d="m 13.7686,37.7793 h 13.7568 c 0.5522,0 1,-0.4473 1,-1 0,-0.5527 -0.4478,-1 -1,-1 H 13.7686 c -0.5522,0 -1,0.4473 -1,1 0,0.5527 0.4477,1 1,1 z"
   id="path10"
   style="opacity:0.6;fill:#ff3dfb;fill-opacity:1;filter:url(#filter98)" />
		<path
   d="M 33.7129,42.0625 H 13.7686 c -0.5522,0 -1,0.4473 -1,1 0,0.5527 0.4478,1 1,1 h 19.9443 c 0.5522,0 1,-0.4473 1,-1 0,-0.5527 -0.4478,-1 -1,-1 z"
   id="path11"
   style="opacity:0.6;fill:#ff3dfb;fill-opacity:1;filter:url(#filter97)" />
		<path
   d="M 25.1641,48.3418 H 13.7686 c -0.5522,0 -1,0.4473 -1,1 0,0.5527 0.4478,1 1,1 h 11.3955 c 0.5522,0 1,-0.4473 1,-1 0,-0.5527 -0.4478,-1 -1,-1 z"
   id="path12"
   style="opacity:0.6;fill:#ff3dfb;fill-opacity:1;filter:url(#filter96)" />
		<path
   d="m 13.7686,31.4961 h 13.7568 c 0.5522,0 1,-0.4473 1,-1 0,-0.5527 -0.4478,-1 -1,-1 H 13.7686 c -0.5522,0 -1,0.4473 -1,1 0,0.5527 0.4477,1 1,1 z"
   id="path13"
   style="opacity:0.6;fill:#ff3dfb;fill-opacity:1;filter:url(#filter95)" />
		<path
   d="m 13.7686,25.2158 h 13.7568 c 0.5522,0 1,-0.4473 1,-1 0,-0.5527 -0.4478,-1 -1,-1 H 13.7686 c -0.5522,0 -1,0.4473 -1,1 0,0.5527 0.4477,1 1,1 z"
   id="path14"
   style="opacity:0.6;fill:#ff3dfb;fill-opacity:1;filter:url(#filter94)" />
		<path
   d="M 47.9658,23.2158 H 34.209 c -0.5522,0 -1,0.4473 -1,1 0,0.5527 0.4478,1 1,1 h 13.7568 c 0.5522,0 1,-0.4473 1,-1 0,-0.5527 -0.4477,-1 -1,-1 z"
   id="path15"
   style="opacity:0.6;fill:#ff3dfb;fill-opacity:1;filter:url(#filter93)" />
		<path
   d="M 47.9658,35.7793 H 34.209 c -0.5522,0 -1,0.4473 -1,1 0,0.5527 0.4478,1 1,1 h 13.7568 c 0.5522,0 1,-0.4473 1,-1 0,-0.5527 -0.4477,-1 -1,-1 z"
   id="path16"
   style="opacity:0.6;fill:#ff3dfb;fill-opacity:1;filter:url(#filter92)" />
	</g>
</g></g><g
     id="g34"
     transform="matrix(0.9,0,0,0.9,2.8026,2.40796)"
     style="display:inline"><g
       id="g33"
       transform="matrix(0.81,0,0,0.81,2.106,-1.8404009)">
	<g
   id="g32">
		<path
   d="M 58.4922,5.8721 H 5.5078 C 3.022,5.8721 1,7.8945 1,10.3799 v 43.2402 c 0,2.4854 2.022,4.5078 4.5078,4.5078 H 58.4922 C 60.978,58.1279 63,56.1054 63,53.6201 V 10.3799 C 63,7.8945 60.978,5.8721 58.4922,5.8721 Z m -52.9844,2 H 58.4922 C 59.875,7.8721 61,8.9971 61,10.3799 v 6.8887 H 3 V 10.3799 C 3,8.9971 4.125,7.8721 5.5078,7.8721 Z M 58.4922,56.1279 H 5.5078 C 4.125,56.1279 3,55.0029 3,53.6201 V 19.2686 h 58 v 34.3516 c 0,1.3827 -1.125,2.5077 -2.5078,2.5077 z"
   id="path17"
   style="fill:url(#linearGradient70);fill-opacity:1" />
		<path
   d="m 46.7236,15.7842 c 1.7744,0 3.2178,-1.4414 3.2178,-3.2139 0,-1.7744 -1.4434,-3.2178 -3.2178,-3.2178 -1.7744,0 -3.2178,1.4434 -3.2178,3.2178 10e-5,1.7725 1.4434,3.2139 3.2178,3.2139 z m 0,-4.4317 c 0.6714,0 1.2178,0.5459 1.2178,1.2178 0,0.6689 -0.5464,1.2139 -1.2178,1.2139 -0.6714,0 -1.2178,-0.5449 -1.2178,-1.2139 10e-5,-0.6719 0.5464,-1.2178 1.2178,-1.2178 z"
   id="path18"
   style="fill:url(#linearGradient69);fill-opacity:1" />
		<path
   d="m 37.9287,15.7842 c 1.7744,0 3.2178,-1.4414 3.2178,-3.2139 0,-1.7744 -1.4434,-3.2178 -3.2178,-3.2178 -1.7739,0 -3.2173,1.4434 -3.2173,3.2178 0,1.7725 1.4434,3.2139 3.2173,3.2139 z m 0,-4.4317 c 0.6714,0 1.2178,0.5459 1.2178,1.2178 0,0.6689 -0.5464,1.2139 -1.2178,1.2139 -0.6714,0 -1.2173,-0.5449 -1.2173,-1.2139 0,-0.6719 0.5459,-1.2178 1.2173,-1.2178 z"
   id="path19"
   style="fill:url(#linearGradient68);fill-opacity:1" />
		<path
   d="m 55.5186,15.7842 c 1.7739,0 3.2173,-1.4414 3.2173,-3.2139 0,-1.7744 -1.4434,-3.2178 -3.2173,-3.2178 -1.7744,0 -3.2178,1.4434 -3.2178,3.2178 0,1.7725 1.4433,3.2139 3.2178,3.2139 z m 0,-4.4317 c 0.6714,0 1.2173,0.5459 1.2173,1.2178 0,0.6689 -0.5459,1.2139 -1.2173,1.2139 -0.6714,0 -1.2178,-0.5449 -1.2178,-1.2139 0,-0.6719 0.5464,-1.2178 1.2178,-1.2178 z"
   id="path20"
   style="fill:url(#linearGradient67);fill-opacity:1" />
		
		
		
		<path
   d="m 6.4839,43.9219 c 0.1948,0.2607 0.4907,0.3965 0.791,0.3965 0.2095,0 0.4219,-0.0664 0.6035,-0.2031 C 8.3203,43.7842 8.4048,43.1505 8.0732,42.709 7.7421,42.2666 7.1171,42.1777 6.6733,42.5088 6.2314,42.8399 6.142,43.4668 6.4736,43.9082 Z"
   id="path21"
   style="fill:url(#linearGradient44);fill-opacity:1" />
		<path
   d="m 6.7695,48.4775 c -0.4771,0.2783 -0.6382,0.8906 -0.3599,1.3682 l 0.0103,0.0176 c 0.1846,0.3164 0.5137,0.4902 0.8535,0.4902 0.1724,0 0.3481,-0.0449 0.5088,-0.1387 0.4771,-0.2783 0.6333,-0.8994 0.355,-1.377 C 7.8589,48.3623 7.248,48.2012 6.7695,48.4775 Z"
   id="path22"
   style="fill:url(#linearGradient45);fill-opacity:1" />
		<path
   d="m 44.0615,44.3398 c -0.3467,-0.4297 -0.9766,-0.4961 -1.4063,-0.1484 l -3.042,2.46 c -0.2349,0.1895 -0.3711,0.4756 -0.3711,0.7773 0,0.3027 0.1367,0.5879 0.3716,0.7783 l 3.042,2.457 c 0.1851,0.1494 0.4072,0.2217 0.6279,0.2217 0.2915,0 0.5811,-0.127 0.7783,-0.3721 0.3472,-0.4297 0.2803,-1.0586 -0.1494,-1.4063 L 41.8329,47.4286 43.913,45.746 c 0.4293,-0.3466 0.4962,-0.9765 0.1485,-1.4062 z"
   id="path23"
   style="fill:url(#linearGradient42);fill-opacity:1" />
		<path
   d="m 48.3013,44.0264 c -0.522,-0.1846 -1.0928,0.0859 -1.2773,0.6064 l -1.752,4.917 c -0.1855,0.5205 0.0859,1.0928 0.6064,1.2783 0.1108,0.0391 0.2241,0.0576 0.3354,0.0576 0.4111,0 0.7964,-0.2549 0.9419,-0.6641 l 1.752,-4.917 c 0.1856,-0.5204 -0.0859,-1.0927 -0.6064,-1.2782 z"
   id="path24"
   style="fill:url(#linearGradient66);fill-opacity:1" />
		<path
   d="m 51.5103,44.1914 c -0.4292,-0.3486 -1.0586,-0.2803 -1.4067,0.1484 -0.3472,0.4297 -0.2803,1.0596 0.1489,1.4063 l 2.0801,1.6826 -2.0796,1.6787 c -0.4297,0.3477 -0.4966,0.9766 -0.1494,1.4063 0.1973,0.2451 0.4868,0.3721 0.7783,0.3721 0.2207,0 0.4429,-0.0723 0.6279,-0.2217 l 3.0425,-2.457 c 0.2349,-0.1904 0.3716,-0.4756 0.3716,-0.7783 0,-0.3018 -0.1362,-0.5879 -0.3711,-0.7773 z"
   id="path25"
   style="fill:url(#linearGradient43);fill-opacity:1" />
		<path
   d="m 13.7686,37.7793 h 13.7568 c 0.5522,0 1,-0.4473 1,-1 0,-0.5527 -0.4478,-1 -1,-1 H 13.7686 c -0.5522,0 -1,0.4473 -1,1 0,0.5527 0.4477,1 1,1 z"
   id="path26"
   style="fill:url(#linearGradient40);fill-opacity:1" />
		<path
   d="M 33.7129,42.0625 H 13.7686 c -0.5522,0 -1,0.4473 -1,1 0,0.5527 0.4478,1 1,1 h 19.9443 c 0.5522,0 1,-0.4473 1,-1 0,-0.5527 -0.4478,-1 -1,-1 z"
   id="path27"
   style="fill:url(#linearGradient39);fill-opacity:1" />
		<path
   d="M 25.1641,48.3418 H 13.7686 c -0.5522,0 -1,0.4473 -1,1 0,0.5527 0.4478,1 1,1 h 11.3955 c 0.5522,0 1,-0.4473 1,-1 0,-0.5527 -0.4478,-1 -1,-1 z"
   id="path28"
   style="fill:url(#linearGradient38);fill-opacity:1" />
		<path
   d="m 13.7686,31.4961 h 13.7568 c 0.5522,0 1,-0.4473 1,-1 0,-0.5527 -0.4478,-1 -1,-1 H 13.7686 c -0.5522,0 -1,0.4473 -1,1 0,0.5527 0.4477,1 1,1 z"
   id="path29"
   style="fill:url(#linearGradient41);fill-opacity:1" />
		<path
   d="m 13.7686,25.2158 h 13.7568 c 0.5522,0 1,-0.4473 1,-1 0,-0.5527 -0.4478,-1 -1,-1 H 13.7686 c -0.5522,0 -1,0.4473 -1,1 0,0.5527 0.4477,1 1,1 z"
   id="path30"
   style="fill:url(#linearGradient37);fill-opacity:1" />
		<path
   d="M 47.9658,23.2158 H 34.209 c -0.5522,0 -1,0.4473 -1,1 0,0.5527 0.4478,1 1,1 h 13.7568 c 0.5522,0 1,-0.4473 1,-1 0,-0.5527 -0.4477,-1 -1,-1 z"
   id="path31"
   style="fill:url(#linearGradient36);fill-opacity:1" />
		<path
   d="M 47.9658,35.7793 H 34.209 c -0.5522,0 -1,0.4473 -1,1 0,0.5527 0.4478,1 1,1 h 13.7568 c 0.5522,0 1,-0.4473 1,-1 0,-0.5527 -0.4477,-1 -1,-1 z"
   id="path32"
   style="fill:url(#linearGradient35);fill-opacity:1" />
	</g>
</g></g></g></svg>
