<?xml version="1.0" encoding="UTF-8" standalone="no"?>
<!-- Creator: CorelDRAW -->

<svg
   xml:space="preserve"
   width="6.846014in"
   height="6.2227731in"
   style="clip-rule:evenodd;fill-rule:evenodd;image-rendering:optimizeQuality;shape-rendering:geometricPrecision;text-rendering:geometricPrecision"
   viewBox="0 0 6.8460139 6.2227729"
   version="1.1"
   id="svg5"
   xmlns:xlink="http://www.w3.org/1999/xlink"
   xmlns="http://www.w3.org/2000/svg"
   xmlns:svg="http://www.w3.org/2000/svg">
 <defs
   id="defs1"><linearGradient
     id="linearGradient89"><stop
       style="stop-color:#00abff;stop-opacity:0;"
       offset="0"
       id="stop89" /><stop
       style="stop-color:#00abff;stop-opacity:1;"
       offset="1"
       id="stop88" /></linearGradient><linearGradient
     id="linearGradient87"><stop
       style="stop-color:#00abff;stop-opacity:0;"
       offset="0"
       id="stop87" /><stop
       style="stop-color:#00abff;stop-opacity:1;"
       offset="1"
       id="stop86" /></linearGradient><linearGradient
     id="linearGradient85"><stop
       style="stop-color:#00abff;stop-opacity:0;"
       offset="0"
       id="stop85" /><stop
       style="stop-color:#00abff;stop-opacity:1;"
       offset="1"
       id="stop84" /></linearGradient><linearGradient
     id="linearGradient83"><stop
       style="stop-color:#00abff;stop-opacity:0;"
       offset="0"
       id="stop83" /><stop
       style="stop-color:#00abff;stop-opacity:1;"
       offset="1"
       id="stop82" /></linearGradient><linearGradient
     id="linearGradient81"><stop
       style="stop-color:#00abff;stop-opacity:0;"
       offset="0"
       id="stop81" /><stop
       style="stop-color:#00abff;stop-opacity:1;"
       offset="1"
       id="stop80" /></linearGradient><linearGradient
     id="linearGradient79"><stop
       style="stop-color:#00abff;stop-opacity:0;"
       offset="0"
       id="stop79" /><stop
       style="stop-color:#00abff;stop-opacity:1;"
       offset="1"
       id="stop78" /></linearGradient><linearGradient
     id="linearGradient77"><stop
       style="stop-color:#00abff;stop-opacity:0;"
       offset="0"
       id="stop77" /><stop
       style="stop-color:#00abff;stop-opacity:1;"
       offset="1"
       id="stop76" /></linearGradient><linearGradient
     id="linearGradient75"><stop
       style="stop-color:#00abff;stop-opacity:0;"
       offset="0"
       id="stop75" /><stop
       style="stop-color:#00abff;stop-opacity:1;"
       offset="1"
       id="stop74" /></linearGradient><linearGradient
     id="linearGradient73"><stop
       style="stop-color:#00abff;stop-opacity:0;"
       offset="0"
       id="stop73" /><stop
       style="stop-color:#00abff;stop-opacity:1;"
       offset="1"
       id="stop72" /></linearGradient><linearGradient
     id="linearGradient71"><stop
       style="stop-color:#00abff;stop-opacity:0;"
       offset="0"
       id="stop71" /><stop
       style="stop-color:#00abff;stop-opacity:1;"
       offset="1"
       id="stop70" /></linearGradient><linearGradient
     id="linearGradient69"><stop
       style="stop-color:#00abff;stop-opacity:0;"
       offset="0"
       id="stop69" /><stop
       style="stop-color:#00abff;stop-opacity:1;"
       offset="1"
       id="stop68" /></linearGradient><linearGradient
     id="linearGradient67"><stop
       style="stop-color:#00abff;stop-opacity:0;"
       offset="0"
       id="stop67" /><stop
       style="stop-color:#00abff;stop-opacity:1;"
       offset="1"
       id="stop66" /></linearGradient><linearGradient
     id="linearGradient65"><stop
       style="stop-color:#00abff;stop-opacity:0;"
       offset="0"
       id="stop65" /><stop
       style="stop-color:#00abff;stop-opacity:1;"
       offset="1"
       id="stop64" /></linearGradient><linearGradient
     id="linearGradient63"><stop
       style="stop-color:#00abff;stop-opacity:0;"
       offset="0"
       id="stop63" /><stop
       style="stop-color:#00abff;stop-opacity:1;"
       offset="1"
       id="stop62" /></linearGradient><linearGradient
     id="linearGradient47"><stop
       style="stop-color:#00abff;stop-opacity:0;"
       offset="0"
       id="stop48" /><stop
       style="stop-color:#00abff;stop-opacity:1;"
       offset="1"
       id="stop47" /></linearGradient><linearGradient
     id="linearGradient33"><stop
       style="stop-color:#ff3dfb;stop-opacity:0;"
       offset="0"
       id="stop33" /><stop
       style="stop-color:#ff3dfb;stop-opacity:1;"
       offset="1"
       id="stop32" /></linearGradient><linearGradient
     id="linearGradient31"><stop
       style="stop-color:#ff3dfb;stop-opacity:0;"
       offset="0"
       id="stop31" /><stop
       style="stop-color:#ff3dfb;stop-opacity:1;"
       offset="1"
       id="stop30" /></linearGradient><linearGradient
     id="linearGradient29"><stop
       style="stop-color:#ff3dfb;stop-opacity:0;"
       offset="0"
       id="stop29" /><stop
       style="stop-color:#ff3dfb;stop-opacity:1;"
       offset="1"
       id="stop28" /></linearGradient><linearGradient
     id="linearGradient24"><stop
       style="stop-color:#ff3dfb;stop-opacity:0;"
       offset="0"
       id="stop25" /><stop
       style="stop-color:#ff3dfb;stop-opacity:1;"
       offset="1"
       id="stop24" /></linearGradient><style
     type="text/css"
     id="style1">
   <![CDATA[
    .fil2 {fill:none}
    .fil0 {fill:#212121;fill-rule:nonzero}
    .fil1 {fill:#66BB6A;fill-rule:nonzero}
   ]]>
  </style><style
     type="text/css"
     id="style1-7">
   <![CDATA[
    .fil0 {fill:none}
    .fil3 {fill:#414141}
    .fil2 {fill:#6A6A6A;fill-rule:nonzero}
    .fil1 {fill:#7E7E7E;fill-rule:nonzero}
   ]]>
  </style><linearGradient
     xlink:href="#linearGradient24"
     id="linearGradient25"
     x1="3.419138"
     y1="6.9048109"
     x2="3.419138"
     y2="1.8751948"
     gradientUnits="userSpaceOnUse" /><linearGradient
     xlink:href="#linearGradient33"
     id="linearGradient26"
     x1="3.419138"
     y1="6.9048109"
     x2="3.419138"
     y2="1.8751948"
     gradientUnits="userSpaceOnUse" /><linearGradient
     xlink:href="#linearGradient31"
     id="linearGradient27"
     x1="179.60754"
     y1="1943.207"
     x2="179.60754"
     y2="-210.28758"
     gradientUnits="userSpaceOnUse" /><linearGradient
     xlink:href="#linearGradient29"
     id="linearGradient28"
     x1="179.60754"
     y1="1943.207"
     x2="179.60754"
     y2="-210.28758"
     gradientUnits="userSpaceOnUse" /><linearGradient
     xlink:href="#linearGradient47"
     id="linearGradient48"
     x1="179.60753"
     y1="1917.0088"
     x2="179.60753"
     y2="-372.71661"
     gradientUnits="userSpaceOnUse" /><linearGradient
     xlink:href="#linearGradient89"
     id="linearGradient49"
     x1="3.419138"
     y1="6.8436232"
     x2="3.419138"
     y2="1.4958321"
     gradientUnits="userSpaceOnUse" /><linearGradient
     xlink:href="#linearGradient87"
     id="linearGradient50"
     x1="3.419138"
     y1="6.8436232"
     x2="3.419138"
     y2="1.4958321"
     gradientUnits="userSpaceOnUse" /><linearGradient
     xlink:href="#linearGradient85"
     id="linearGradient51"
     x1="3.419138"
     y1="6.8436232"
     x2="3.419138"
     y2="1.4958321"
     gradientUnits="userSpaceOnUse" /><linearGradient
     xlink:href="#linearGradient83"
     id="linearGradient52"
     x1="3.419138"
     y1="6.8436232"
     x2="3.419138"
     y2="1.4958321"
     gradientUnits="userSpaceOnUse" /><linearGradient
     xlink:href="#linearGradient81"
     id="linearGradient53"
     x1="3.419138"
     y1="6.8436232"
     x2="3.419138"
     y2="1.4958321"
     gradientUnits="userSpaceOnUse" /><linearGradient
     xlink:href="#linearGradient79"
     id="linearGradient54"
     x1="3.419138"
     y1="6.8436232"
     x2="3.419138"
     y2="1.4958321"
     gradientUnits="userSpaceOnUse" /><linearGradient
     xlink:href="#linearGradient77"
     id="linearGradient55"
     x1="3.419138"
     y1="6.8436232"
     x2="3.419138"
     y2="1.4958321"
     gradientUnits="userSpaceOnUse" /><linearGradient
     xlink:href="#linearGradient75"
     id="linearGradient56"
     x1="3.419138"
     y1="6.8436232"
     x2="3.419138"
     y2="1.4958321"
     gradientUnits="userSpaceOnUse" /><linearGradient
     xlink:href="#linearGradient73"
     id="linearGradient57"
     x1="3.419138"
     y1="6.8436232"
     x2="3.419138"
     y2="1.4958321"
     gradientUnits="userSpaceOnUse" /><linearGradient
     xlink:href="#linearGradient71"
     id="linearGradient58"
     x1="3.419138"
     y1="6.8436232"
     x2="3.419138"
     y2="1.4958321"
     gradientUnits="userSpaceOnUse" /><linearGradient
     xlink:href="#linearGradient69"
     id="linearGradient59"
     x1="3.419138"
     y1="6.8436232"
     x2="3.419138"
     y2="1.4958321"
     gradientUnits="userSpaceOnUse" /><linearGradient
     xlink:href="#linearGradient67"
     id="linearGradient60"
     x1="3.419138"
     y1="6.8436232"
     x2="3.419138"
     y2="1.4958321"
     gradientUnits="userSpaceOnUse" /><linearGradient
     xlink:href="#linearGradient65"
     id="linearGradient61"
     x1="3.419138"
     y1="6.8436232"
     x2="3.419138"
     y2="1.4958321"
     gradientUnits="userSpaceOnUse" /><linearGradient
     xlink:href="#linearGradient63"
     id="linearGradient62"
     x1="3.419138"
     y1="6.8436232"
     x2="3.419138"
     y2="1.4958321"
     gradientUnits="userSpaceOnUse" /><filter
     style="color-interpolation-filters:sRGB"
     id="filter89"
     x="-0.077201666"
     y="-0.18020349"
     width="1.1544033"
     height="1.360407"><feGaussianBlur
       stdDeviation="0.058122083"
       id="feGaussianBlur89" /></filter><filter
     style="color-interpolation-filters:sRGB"
     id="filter90"
     x="-0.03306018"
     y="-0.033907414"
     width="1.0661204"
     height="1.0678148"><feGaussianBlur
       stdDeviation="0.058122083"
       id="feGaussianBlur90" /></filter><filter
     style="color-interpolation-filters:sRGB"
     id="filter91"
     x="-0.15471065"
     y="-0.16586643"
     width="1.3094213"
     height="1.3317329"><feGaussianBlur
       stdDeviation="0.058122083"
       id="feGaussianBlur91" /></filter><filter
     style="color-interpolation-filters:sRGB"
     id="filter92"
     x="-0.026689419"
     y="-0.12328242"
     width="1.0533788"
     height="1.2465648"><feGaussianBlur
       stdDeviation="0.058122083"
       id="feGaussianBlur92" /></filter><filter
     style="color-interpolation-filters:sRGB"
     id="filter93"
     x="-0.02862699"
     y="-0.066162575"
     width="1.057254"
     height="1.1323251"><feGaussianBlur
       stdDeviation="0.058122083"
       id="feGaussianBlur93" /></filter><filter
     style="color-interpolation-filters:sRGB"
     id="filter94"
     x="-0.15056896"
     y="-0.15056904"
     width="1.3011379"
     height="1.3011381"><feGaussianBlur
       stdDeviation="24.885716"
       id="feGaussianBlur94" /></filter><filter
     style="color-interpolation-filters:sRGB"
     id="filter95"
     x="-0.041898391"
     y="-0.12537524"
     width="1.0837968"
     height="1.2507505"><feGaussianBlur
       stdDeviation="0.04747466"
       id="feGaussianBlur95" /></filter><filter
     style="color-interpolation-filters:sRGB"
     id="filter96"
     x="-0.12196497"
     y="-0.5424915"
     width="1.2439299"
     height="2.084983"><feGaussianBlur
       stdDeviation="20.326885"
       id="feGaussianBlur96" /></filter><filter
     style="color-interpolation-filters:sRGB"
     id="filter97"
     x="-0.041132988"
     y="-0.043861631"
     width="1.082266"
     height="1.0877233"><feGaussianBlur
       stdDeviation="20.326885"
       id="feGaussianBlur97" /></filter></defs>
 
 
<g
   id="g97"><g
     id="g73"
     style="display:inline"><g
       id="g66"
       transform="translate(-0.49991119,-0.55321929)"
       style="clip-rule:evenodd;fill-rule:evenodd;image-rendering:optimizeQuality;shape-rendering:geometricPrecision;text-rendering:geometricPrecision"><g
         id="g65"
         transform="matrix(0.9,0,0,0.9,0.34133277,0.34138746)"
         style="fill:#00abff;fill-opacity:1">
  <metadata
   id="metadata44" />
  <g
   id="g45"
   style="opacity:0.6;fill:#00abff;fill-opacity:1;filter:url(#filter89)">
   <path
   id="path44"
   class="fil0"
   d="m 3.30666,5.12654 c 0,-0.058909 0.04776,-0.106669 0.106669,-0.106669 0.058909,0 0.106669,0.04776 0.106669,0.106669 0,0.184287 -0.074709,0.351142 -0.195492,0.471925 C 3.20373,5.719248 3.036872,5.793957 2.852585,5.793957 2.805313,5.793957 2.757057,5.788517 2.708703,5.777839 2.6610061,5.7673035 2.615081,5.7518783 2.57179,5.731768 2.5184042,5.707146 2.4950853,5.6439058 2.5197073,5.59052 c 0.024622,-0.053386 0.087862,-0.076705 0.141248,-0.052083 0.030705,0.014264 0.062091,0.024941 0.093583,0.031898 0.03085,0.00681 0.063721,0.010283 0.098047,0.010283 0.125402,0 0.238925,-0.050827 0.321087,-0.132988 C 3.2558376,5.365465 3.3066602,5.2519414 3.30666,5.12654 Z"
   style="fill:#00abff;fill-opacity:1" />
   <path
   id="path45"
   class="fil0"
   d="m 3.30666,5.12654 c 0,-0.058909 0.04776,-0.106669 0.106669,-0.106669 0.058909,0 0.106669,0.04776 0.106669,0.106669 0,0.125402 0.050823,0.238925 0.132988,0.321091 0.082161,0.082161 0.195685,0.132988 0.321087,0.132988 0.034327,0 0.067197,-0.00347 0.098047,-0.010284 C 4.103612,5.563375 4.134998,5.552701 4.165703,5.538437 4.219089,5.513815 4.282329,5.537137 4.306951,5.59052 4.331573,5.643906 4.308251,5.707146 4.254868,5.731768 4.211577,5.751878 4.165651,5.767303 4.117955,5.777839 4.069601,5.788516 4.021345,5.793957 3.974073,5.793957 3.789786,5.793957 3.622927,5.719248 3.502152,5.598465 3.3813692,5.4776826 3.3066602,5.3108276 3.30666,5.12654 Z"
   style="fill:#00abff;fill-opacity:1" />
  </g>
  <path
   class="fil0"
   d="m 3.41333,1.85308 c 0.587075,0 1.11912,0.195189 1.50181,0.527535 0.376067,0.326579 0.607866,0.784039 0.607866,1.31859 0,0.55589 -0.253213,1.14565 -0.658783,1.58323 -0.377378,0.407169 -0.887606,0.684583 -1.4509,0.684583 -0.563291,0 -1.07352,-0.277413 -1.4509,-0.684583 C 1.556852,4.844852 1.30364,4.255095 1.30364,3.699205 1.30364,3.164654 1.535439,2.707193 1.911506,2.380615 2.294203,2.048269 2.826246,1.85308 3.413316,1.85308 Z M 4.77598,2.54145 C 4.43137,2.242182 3.94874,2.066419 3.41333,2.066419 c -0.535409,0 -1.01804,0.175764 -1.36265,0.475031 -0.330177,0.286728 -0.533693,0.68839 -0.533693,1.15776 0,0.503031 0.23111,1.03884 0.60128,1.43823 0.339705,0.366524 0.795594,0.616244 1.29506,0.616244 0.499469,0 0.955358,-0.24972 1.29506,-0.616244 0.370169,-0.39939 0.60128,-0.935197 0.60128,-1.43823 0,-0.469366 -0.203516,-0.871028 -0.533693,-1.15776 z"
   id="path46"
   style="opacity:0.6;fill:#00abff;fill-opacity:1;filter:url(#filter90)" />
  <path
   class="fil1"
   d="M 3.72573,4.46541 C 3.643604,4.4039572 3.532702,4.3733234 3.413336,4.3733234 c -0.11937,0 -0.23028,0.030638 -0.312402,0.092087 -0.085878,0.064264 -0.138421,0.157075 -0.138421,0.278366 0,0.115898 0.052457,0.237685 0.136465,0.326882 0.080449,0.085417 0.190776,0.143661 0.314358,0.143661 0.123571,0 0.233902,-0.058244 0.31435,-0.143661 0.084008,-0.089197 0.136465,-0.210988 0.136465,-0.326882 0,-0.121291 -0.052543,-0.214102 -0.138421,-0.2783664 z"
   id="path47"
   style="opacity:0.6;fill:#00abff;fill-opacity:1;filter:url(#filter91)" />
  <g
   id="g49"
   style="opacity:0.6;fill:#e619a2;fill-opacity:1;filter:url(#filter95)">
   <path
   id="path48"
   class="fil1"
   d="M 3.0493,3.7518 C 3.067591,3.791839 3.0499654,3.839135 3.009926,3.857426 2.969887,3.875717 2.922591,3.8580914 2.9043,3.818052 2.86667,3.735682 2.828119,3.661052 2.785769,3.593426 2.703541,3.632544 2.624403,3.650969 2.550273,3.651776 2.462198,3.6527288 2.382249,3.628859 2.313131,3.585138 2.245312,3.542244 2.188662,3.480669 2.145765,3.405248 2.088407,3.304402 2.055466,3.177846 2.053663,3.038114 2.0533913,3.029654 2.054478,3.021 2.057073,3.012445 2.069845,2.970335 2.114341,2.946547 2.156451,2.959319 2.407443,3.035984 2.585073,3.134669 2.72366,3.264886 2.86192,3.394795 2.958778,3.553658 3.049302,3.751799 Z M 2.690198,3.461371 C 2.666375,3.433127 2.641178,3.406414 2.614281,3.381139 2.514769,3.287639 2.390198,3.21219 2.223332,3.149993 2.23486,3.21617 2.255726,3.275883 2.284513,3.326501 2.314517,3.379253 2.352993,3.421592 2.398131,3.450139 2.44197,3.477867 2.492832,3.493009 2.549021,3.492399 2.592556,3.4919266 2.63982,3.482041 2.6901982,3.461372 Z"
   style="fill:#ff3dfb;fill-opacity:1" />
   <path
   id="path49"
   class="fil1"
   d="M 3.92236,3.81805 C 3.9040687,3.8580894 3.8567734,3.8757154 3.816734,3.857424 3.7766946,3.8391327 3.7590686,3.7918374 3.77736,3.751798 3.8678836,3.553656 3.964742,3.394794 4.103002,3.264885 4.241589,3.134668 4.419219,3.035983 4.670211,2.959318 4.712321,2.946546 4.756817,2.970334 4.769589,3.012444 4.772179,3.021004 4.773269,3.029649 4.772999,3.038113 4.771199,3.177845 4.738255,3.3044 4.680897,3.405247 4.637999,3.480668 4.58135,3.542243 4.5135309,3.585137 4.4444129,3.628858 4.364464,3.652728 4.2763889,3.651775 4.2022589,3.6509679 4.1231209,3.632543 4.0408929,3.593425 3.9985429,3.661055 3.9599909,3.735681 3.9223619,3.818051 Z M 4.21238,3.381137 C 4.185482,3.406413 4.160289,3.433129 4.136463,3.461369 4.186841,3.482038 4.234105,3.491924 4.27764,3.492397 4.333829,3.4930072 4.384691,3.477866 4.42853,3.450137 4.473668,3.42159 4.512144,3.379251 4.542148,3.326499 4.570935,3.275881 4.591801,3.216168 4.603329,3.149991 4.4364628,3.212188 4.3118918,3.2876371 4.21238,3.381137 Z"
   style="fill:#ff3dfb;fill-opacity:1" />
  </g>
  <g
   id="g56"
   style="opacity:0.6;fill:#00abff;fill-opacity:1;filter:url(#filter92)">
   <g
   id="g52"
   style="fill:#00abff;fill-opacity:1">
    <path
   id="path50"
   class="fil1"
   d="M 3.11248,4.48357 C 3.140555,4.49208 3.156409,4.521747 3.147897,4.549822 3.139387,4.577897 3.10972,4.593751 3.081645,4.585239 2.697279,4.468066 2.280334,4.388763 1.871115,4.387794 1.525276,4.3869751 1.184902,4.442129 0.874572,4.577829 0.8476507,4.589561 0.8163082,4.5772503 0.8045759,4.550329 c -0.0117323,-0.026921 5.7874e-4,-0.058264 0.0275,-0.069996 0.324614,-0.141949 0.679374,-0.199646 1.03904,-0.198791 0.420705,9.961e-4 0.848091,0.082142 1.24136,0.202028 z"
   style="fill:#00abff;fill-opacity:1" />
    <path
   id="path51"
   class="fil1"
   d="M 3.10457,4.57129 C 3.133676,4.57543 3.15392,4.602392 3.149779,4.631499 3.145639,4.660605 3.118677,4.680849 3.08957,4.676708 2.705322,4.621736 2.288523,4.609889 1.87946,4.675088 1.533015,4.730308 1.191881,4.84082 0.880621,5.027281 0.8554241,5.042352 0.8227745,5.034141 0.8077037,5.008946 0.7926328,4.983749 0.8008417,4.951099 0.8260383,4.936029 c 0.323689,-0.193906 0.677693,-0.308709 1.03675,-0.365941 0.420858,-0.067083 0.848382,-0.055083 1.24178,0.0012 z"
   style="fill:#00abff;fill-opacity:1" />
    <path
   id="path52"
   class="fil1"
   d="M 3.0979,4.6666 C 3.127239,4.6670606 3.150652,4.691222 3.150191,4.720561 3.1497304,4.7499 3.125569,4.773313 3.09623,4.772852 2.712384,4.766242 2.295553,4.806943 1.8857,4.923856 1.538519,5.022891 1.196613,5.176691 0.88457,5.402891 0.860755,5.420147 0.8274519,5.414828 0.810196,5.391013 0.7929401,5.367198 0.798259,5.333895 0.822074,5.316639 1.14498,5.08256 1.498208,4.923572 1.856534,4.821359 2.276605,4.701528 2.704093,4.659824 3.097894,4.666599 Z"
   style="fill:#00abff;fill-opacity:1" />
   </g>
   <g
   id="g55"
   style="fill:#00abff;fill-opacity:1">
    <path
   id="path53"
   class="fil1"
   d="M 3.74501,4.58524 C 3.716935,4.59375 3.68727,4.5779 3.678758,4.549823 3.670248,4.521748 3.686098,4.492083 3.714175,4.483571 4.107447,4.363685 4.534832,4.28254 4.955535,4.281543 5.3152,4.2806887 5.66996,4.338386 5.994575,4.480334 6.021496,4.492066 6.033807,4.523409 6.022075,4.55033 6.010343,4.577251 5.979,4.589562 5.952079,4.57783 5.641748,4.442129 5.301374,4.386976 4.955536,4.387795 4.546319,4.3887635 4.129375,4.468067 3.745006,4.58524 Z"
   style="fill:#00abff;fill-opacity:1" />
    <path
   id="path54"
   class="fil1"
   d="M 3.73709,4.6767 C 3.707984,4.68084 3.681023,4.660598 3.676881,4.631491 3.672741,4.602385 3.692983,4.575424 3.72209,4.571282 4.115484,4.514998 4.543007,4.502999 4.96387,4.570082 5.322929,4.627314 5.676933,4.742117 6.00062,4.936023 6.025817,4.951094 6.034026,4.983744 6.018955,5.00894 6.003884,5.034137 5.971235,5.042345 5.946038,5.027275 5.634778,4.840814 5.293644,4.730303 4.947199,4.675082 4.53814,4.609881 4.121341,4.621728 3.737089,4.676702 Z"
   style="fill:#00abff;fill-opacity:1" />
    <path
   id="path55"
   class="fil1"
   d="M 3.73043,4.77285 C 3.701091,4.7733106 3.67693,4.749897 3.676469,4.720559 3.6760084,4.69122 3.699422,4.667059 3.72876,4.666598 4.122563,4.659818 4.550051,4.701527 4.97012,4.821358 5.328443,4.923571 5.681671,5.082559 6.00458,5.316638 6.028395,5.333894 6.033714,5.367197 6.016458,5.391012 5.999202,5.414827 5.965899,5.420146 5.942084,5.40289 5.630045,5.176689 5.288139,5.02289 4.940954,4.923855 4.531104,4.806942 4.114273,4.766245 3.730424,4.772851 Z"
   style="fill:#00abff;fill-opacity:1" />
   </g>
  </g>
  <g
   id="g60"
   style="opacity:0.6;fill:#00abff;fill-opacity:1;filter:url(#filter93)">
   <g
   id="g57"
   style="fill:#00abff;fill-opacity:1">
    <path
   id="path56"
   class="fil0"
   d="M 1.6575,2.79053 C 1.697307,2.83379 1.694508,2.90114 1.65125,2.940947 1.60799,2.980754 1.54064,2.977955 1.500833,2.934697 1.233158,2.64325 1.056654,2.251782 0.99826003,1.880805 0.93941353,1.506986 1.0002994,1.149557 1.207055,0.92430503 c 0.021398,-0.023315 0.048299,-0.0402402 0.079976,-0.0509724 0.089067,-0.030189 0.230591,-0.005547 0.38826,0.0676024 C 1.817649,1.0069783 1.98122,1.113797 2.134933,1.254892 2.340012,1.443128 2.529405,1.693884 2.630713,1.992786 2.649579,2.048475 2.619733,2.10892 2.564044,2.127786 2.508355,2.146652 2.44791,2.116806 2.429044,2.061117 2.340473,1.79979 2.172843,1.57868 1.990768,1.411562 1.854067,1.286082 1.710256,1.191853 1.586126,1.134267 1.480472,1.085251 1.39811,1.063464 1.358783,1.073976 1.202752,1.248976 1.159496,1.538539 1.208259,1.848303 1.260475,2.180035 1.418251,2.530031 1.657499,2.790527 Z"
   style="fill:#00abff;fill-opacity:1" />
    <path
   id="path57"
   class="fil0"
   d="M 1.36646,1.06121 C 1.315838,1.031525 1.2988616,0.9664147 1.3285466,0.915793 c 0.029685,-0.050622 0.094795,-0.0675984 0.145417,-0.0379134 0.131626,0.0771575 0.315051,0.294283 0.467087,0.588075 0.118902,0.22976 0.221925,0.510354 0.269461,0.811579 0.00897,0.057988 -0.03076,0.11228 -0.088748,0.121252 -0.057988,0.00897 -0.11228,-0.03076 -0.121252,-0.088748 C 1.9570195,2.0344316 1.8618896,1.7760296 1.7518856,1.5634586 1.6182126,1.3051476 1.4679606,1.1207106 1.36646,1.06121 Z"
   style="fill:#00abff;fill-opacity:1" />
   </g>
   <g
   id="g59"
   style="fill:#00abff;fill-opacity:1">
    <path
   id="path58"
   class="fil0"
   d="M 5.32583,2.9347 C 5.286023,2.97796 5.218673,2.980759 5.175413,2.94095 5.132153,2.901143 5.129354,2.833793 5.169163,2.790533 5.408411,2.530037 5.566187,2.180041 5.618403,1.848309 5.667167,1.538545 5.623913,1.248982 5.467879,1.073982 5.428552,1.06347 5.34619,1.085258 5.240536,1.134273 5.116406,1.19186 4.972595,1.286088 4.835894,1.411568 4.653819,1.578686 4.486189,1.799796 4.397618,2.061123 4.378752,2.116812 4.318307,2.146658 4.262618,2.127792 4.206929,2.108926 4.177083,2.048481 4.195949,1.992792 4.297256,1.69389 4.48665,1.443135 4.691729,1.254898 4.845442,1.113804 5.009012,1.006985 5.151371,0.94094097 5.30904,0.86779137 5.450564,0.84314967 5.539631,0.87333857 5.571308,0.88407087 5.59821,0.90099607 5.619607,0.92431097 5.826363,1.149563 5.887249,1.506992 5.828402,1.880811 5.770008,2.251783 5.593504,2.643252 5.325831,2.934701 Z"
   style="fill:#00abff;fill-opacity:1" />
    <path
   id="path59"
   class="fil0"
   d="m 5.3527,0.877878 c 0.050622,-0.029685 0.115732,-0.0127087 0.145417,0.0379134 0.029685,0.050622 0.012709,0.115732 -0.037913,0.145417 -0.1015,0.0595 -0.251752,0.243937 -0.385425,0.502248 -0.110004,0.212571 -0.205134,0.470972 -0.248626,0.746579 -0.00897,0.057988 -0.063264,0.097721 -0.121252,0.088748 C 4.646913,2.3898134 4.60718,2.3355194 4.616153,2.2775314 4.663688,1.9763074 4.766712,1.6957124 4.885614,1.4659524 5.0376486,1.1721614 5.2210746,0.9550354 5.3527,0.877878 Z"
   style="fill:#00abff;fill-opacity:1" />
   </g>
  </g>
 <g
   style="clip-rule:evenodd;fill-rule:evenodd;image-rendering:optimizeQuality;shape-rendering:geometricPrecision;text-rendering:geometricPrecision"
   id="g64"
   transform="matrix(0.00233556,0,0,0.00233556,2.9996538,2.3663341)"><g
     id="g63">
  <metadata
   id="metadata60" />
  <rect
   class="fil0"
   width="2048"
   height="2048"
   id="rect60"
   x="0"
   y="0" />
  <rect
   class="fil0"
   x="255.99899"
   y="255.99899"
   width="1536"
   height="1536"
   id="rect61" />
  <path
   class="fil1"
   d="m 424.021,260.388 h 254.537 c 20.0351,0 38.2264,8.17205 51.391,21.3343 13.1622,13.1646 21.3343,31.3547 21.3343,51.391 v 254.538 c 0,20.0351 -8.17205,38.2252 -21.3343,51.3898 -13.1646,13.1622 -31.3559,21.3343 -51.391,21.3343 H 424.021 c -20.0362,0 -38.2264,-8.17205 -51.391,-21.3343 -13.1622,-13.1646 -21.3343,-31.3547 -21.3343,-51.3898 v -254.538 c 0,-20.0362 8.17205,-38.2264 21.3343,-51.391 13.1646,-13.1622 31.3547,-21.3343 51.391,-21.3343 z"
   id="path61"
   style="opacity:0.6;fill:#00abff;fill-opacity:1;stroke:#00abff;stroke-opacity:1;filter:url(#filter94)" />
  <path
   class="fil2"
   d="m 751.283,447.998 v 25.9264 H 351.295 V 447.998 Z m 0,64.0004 v 25.9264 H 351.295 v -25.9264 z"
   id="path62"
   style="opacity:0.6;fill:#ff3dfb;fill-opacity:1;filter:url(#filter96)" />
  <path
   class="fil3"
   d="m 1493.08,1772.61 v -42.7288 H 673.838 c -32.9811,0 -64.3241,-13.1693 -87.619,-36.4642 -32.5689,-32.5689 -40.7398,-96.9261 -40.624,-140.835 0.11339,-42.9709 8.74135,-111.612 40.6252,-143.495 23.2949,-23.2949 54.6355,-36.4642 87.6178,-36.4642 h 841.049 c 37.6441,0 72.0367,-11.1189 100.772,-35.7685 46.2697,-39.691 67.3134,-104.991 71.83,-164.069 4.8,-62.7981 -8.3162,-147.435 -54.7748,-193.892 -31.3441,-31.3453 -73.4623,-48.9863 -117.827,-48.9863 h -618.161 c -88.5367,0 -226.59,21.378 -295.114,-47.1449 -30.1252,-30.1264 -47.1449,-70.6524 -47.1449,-113.301 v -109.088 h -42.7288 v 109.088 c 0,54.0343 21.4925,105.333 59.6682,143.508 18.6579,18.6591 40.3229,32.4933 64.8201,42.1973 50.0363,19.8225 107.998,21.0555 161.147,19.9512 33.1146,-0.68858 66.228,-2.48032 99.352,-2.48032 h 618.161 c 32.9811,0 64.3241,13.1681 87.6201,36.46302 35.289,35.2902 44.3823,110.093 41.8949,157.494 -4.0736,77.6032 -39.4099,163.301 -129.515,163.301 h -841.049 c -44.3658,0 -86.4816,17.641 -117.826,48.9863 -40.6559,40.6571 -53.7036,119.376 -53.6115,174.445 0.0933,55.1339 12.9756,129.664 53.6103,170.297 31.3441,31.3453 73.4623,48.9863 117.827,48.9863 h 819.242 z"
   id="path63"
   style="opacity:0.6;fill:#ff3dfb;fill-opacity:1;filter:url(#filter97)" />
 </g></g></g></g></g><g
     id="g24"><g
       id="g23"
       transform="translate(-0.49991119,-0.55321929)"
       style="clip-rule:evenodd;fill-rule:evenodd;image-rendering:optimizeQuality;shape-rendering:geometricPrecision;text-rendering:geometricPrecision"><g
         id="g22"
         transform="matrix(0.9,0,0,0.9,0.34133277,0.34138746)"
         style="fill:#00abff;fill-opacity:1">
  <metadata
   id="metadata1" />
  <g
   id="g2"
   style="fill:#00abff;fill-opacity:1">
   <path
   id="path1"
   class="fil0"
   d="m 3.30666,5.12654 c 0,-0.058909 0.04776,-0.106669 0.106669,-0.106669 0.058909,0 0.106669,0.04776 0.106669,0.106669 0,0.184287 -0.074709,0.351142 -0.195492,0.471925 C 3.20373,5.719248 3.036872,5.793957 2.852585,5.793957 2.805313,5.793957 2.757057,5.788517 2.708703,5.777839 2.6610061,5.7673035 2.615081,5.7518783 2.57179,5.731768 2.5184042,5.707146 2.4950853,5.6439058 2.5197073,5.59052 c 0.024622,-0.053386 0.087862,-0.076705 0.141248,-0.052083 0.030705,0.014264 0.062091,0.024941 0.093583,0.031898 0.03085,0.00681 0.063721,0.010283 0.098047,0.010283 0.125402,0 0.238925,-0.050827 0.321087,-0.132988 C 3.2558376,5.365465 3.3066602,5.2519414 3.30666,5.12654 Z"
   style="fill:url(#linearGradient62);fill-opacity:1" />
   <path
   id="path2"
   class="fil0"
   d="m 3.30666,5.12654 c 0,-0.058909 0.04776,-0.106669 0.106669,-0.106669 0.058909,0 0.106669,0.04776 0.106669,0.106669 0,0.125402 0.050823,0.238925 0.132988,0.321091 0.082161,0.082161 0.195685,0.132988 0.321087,0.132988 0.034327,0 0.067197,-0.00347 0.098047,-0.010284 C 4.103612,5.563375 4.134998,5.552701 4.165703,5.538437 4.219089,5.513815 4.282329,5.537137 4.306951,5.59052 4.331573,5.643906 4.308251,5.707146 4.254868,5.731768 4.211577,5.751878 4.165651,5.767303 4.117955,5.777839 4.069601,5.788516 4.021345,5.793957 3.974073,5.793957 3.789786,5.793957 3.622927,5.719248 3.502152,5.598465 3.3813692,5.4776826 3.3066602,5.3108276 3.30666,5.12654 Z"
   style="fill:url(#linearGradient61);fill-opacity:1" />
  </g>
  <path
   class="fil0"
   d="m 3.41333,1.85308 c 0.587075,0 1.11912,0.195189 1.50181,0.527535 0.376067,0.326579 0.607866,0.784039 0.607866,1.31859 0,0.55589 -0.253213,1.14565 -0.658783,1.58323 -0.377378,0.407169 -0.887606,0.684583 -1.4509,0.684583 -0.563291,0 -1.07352,-0.277413 -1.4509,-0.684583 C 1.556852,4.844852 1.30364,4.255095 1.30364,3.699205 1.30364,3.164654 1.535439,2.707193 1.911506,2.380615 2.294203,2.048269 2.826246,1.85308 3.413316,1.85308 Z M 4.77598,2.54145 C 4.43137,2.242182 3.94874,2.066419 3.41333,2.066419 c -0.535409,0 -1.01804,0.175764 -1.36265,0.475031 -0.330177,0.286728 -0.533693,0.68839 -0.533693,1.15776 0,0.503031 0.23111,1.03884 0.60128,1.43823 0.339705,0.366524 0.795594,0.616244 1.29506,0.616244 0.499469,0 0.955358,-0.24972 1.29506,-0.616244 0.370169,-0.39939 0.60128,-0.935197 0.60128,-1.43823 0,-0.469366 -0.203516,-0.871028 -0.533693,-1.15776 z"
   id="path3"
   style="fill:url(#linearGradient60);fill-opacity:1" />
  <path
   class="fil1"
   d="M 3.72573,4.46541 C 3.643604,4.4039572 3.532702,4.3733234 3.413336,4.3733234 c -0.11937,0 -0.23028,0.030638 -0.312402,0.092087 -0.085878,0.064264 -0.138421,0.157075 -0.138421,0.278366 0,0.115898 0.052457,0.237685 0.136465,0.326882 0.080449,0.085417 0.190776,0.143661 0.314358,0.143661 0.123571,0 0.233902,-0.058244 0.31435,-0.143661 0.084008,-0.089197 0.136465,-0.210988 0.136465,-0.326882 0,-0.121291 -0.052543,-0.214102 -0.138421,-0.2783664 z"
   id="path4"
   style="fill:url(#linearGradient59);fill-opacity:1" />
  <g
   id="g6"
   style="fill:#e619a2;fill-opacity:1">
   <path
   id="path5"
   class="fil1"
   d="M 3.0493,3.7518 C 3.067591,3.791839 3.0499654,3.839135 3.009926,3.857426 2.969887,3.875717 2.922591,3.8580914 2.9043,3.818052 2.86667,3.735682 2.828119,3.661052 2.785769,3.593426 2.703541,3.632544 2.624403,3.650969 2.550273,3.651776 2.462198,3.6527288 2.382249,3.628859 2.313131,3.585138 2.245312,3.542244 2.188662,3.480669 2.145765,3.405248 2.088407,3.304402 2.055466,3.177846 2.053663,3.038114 2.0533913,3.029654 2.054478,3.021 2.057073,3.012445 2.069845,2.970335 2.114341,2.946547 2.156451,2.959319 2.407443,3.035984 2.585073,3.134669 2.72366,3.264886 2.86192,3.394795 2.958778,3.553658 3.049302,3.751799 Z M 2.690198,3.461371 C 2.666375,3.433127 2.641178,3.406414 2.614281,3.381139 2.514769,3.287639 2.390198,3.21219 2.223332,3.149993 2.23486,3.21617 2.255726,3.275883 2.284513,3.326501 2.314517,3.379253 2.352993,3.421592 2.398131,3.450139 2.44197,3.477867 2.492832,3.493009 2.549021,3.492399 2.592556,3.4919266 2.63982,3.482041 2.6901982,3.461372 Z"
   style="fill:url(#linearGradient25);fill-opacity:1" />
   <path
   id="path6"
   class="fil1"
   d="M 3.92236,3.81805 C 3.9040687,3.8580894 3.8567734,3.8757154 3.816734,3.857424 3.7766946,3.8391327 3.7590686,3.7918374 3.77736,3.751798 3.8678836,3.553656 3.964742,3.394794 4.103002,3.264885 4.241589,3.134668 4.419219,3.035983 4.670211,2.959318 4.712321,2.946546 4.756817,2.970334 4.769589,3.012444 4.772179,3.021004 4.773269,3.029649 4.772999,3.038113 4.771199,3.177845 4.738255,3.3044 4.680897,3.405247 4.637999,3.480668 4.58135,3.542243 4.5135309,3.585137 4.4444129,3.628858 4.364464,3.652728 4.2763889,3.651775 4.2022589,3.6509679 4.1231209,3.632543 4.0408929,3.593425 3.9985429,3.661055 3.9599909,3.735681 3.9223619,3.818051 Z M 4.21238,3.381137 C 4.185482,3.406413 4.160289,3.433129 4.136463,3.461369 4.186841,3.482038 4.234105,3.491924 4.27764,3.492397 4.333829,3.4930072 4.384691,3.477866 4.42853,3.450137 4.473668,3.42159 4.512144,3.379251 4.542148,3.326499 4.570935,3.275881 4.591801,3.216168 4.603329,3.149991 4.4364628,3.212188 4.3118918,3.2876371 4.21238,3.381137 Z"
   style="fill:url(#linearGradient26);fill-opacity:1" />
  </g>
  <g
   id="g13"
   style="fill:#00abff;fill-opacity:1">
   <g
   id="g9"
   style="fill:#00abff;fill-opacity:1">
    <path
   id="path7"
   class="fil1"
   d="M 3.11248,4.48357 C 3.140555,4.49208 3.156409,4.521747 3.147897,4.549822 3.139387,4.577897 3.10972,4.593751 3.081645,4.585239 2.697279,4.468066 2.280334,4.388763 1.871115,4.387794 1.525276,4.3869751 1.184902,4.442129 0.874572,4.577829 0.8476507,4.589561 0.8163082,4.5772503 0.8045759,4.550329 c -0.0117323,-0.026921 5.7874e-4,-0.058264 0.0275,-0.069996 0.324614,-0.141949 0.679374,-0.199646 1.03904,-0.198791 0.420705,9.961e-4 0.848091,0.082142 1.24136,0.202028 z"
   style="fill:url(#linearGradient58);fill-opacity:1" />
    <path
   id="path8"
   class="fil1"
   d="M 3.10457,4.57129 C 3.133676,4.57543 3.15392,4.602392 3.149779,4.631499 3.145639,4.660605 3.118677,4.680849 3.08957,4.676708 2.705322,4.621736 2.288523,4.609889 1.87946,4.675088 1.533015,4.730308 1.191881,4.84082 0.880621,5.027281 0.8554241,5.042352 0.8227745,5.034141 0.8077037,5.008946 0.7926328,4.983749 0.8008417,4.951099 0.8260383,4.936029 c 0.323689,-0.193906 0.677693,-0.308709 1.03675,-0.365941 0.420858,-0.067083 0.848382,-0.055083 1.24178,0.0012 z"
   style="fill:url(#linearGradient57);fill-opacity:1" />
    <path
   id="path9"
   class="fil1"
   d="M 3.0979,4.6666 C 3.127239,4.6670606 3.150652,4.691222 3.150191,4.720561 3.1497304,4.7499 3.125569,4.773313 3.09623,4.772852 2.712384,4.766242 2.295553,4.806943 1.8857,4.923856 1.538519,5.022891 1.196613,5.176691 0.88457,5.402891 0.860755,5.420147 0.8274519,5.414828 0.810196,5.391013 0.7929401,5.367198 0.798259,5.333895 0.822074,5.316639 1.14498,5.08256 1.498208,4.923572 1.856534,4.821359 2.276605,4.701528 2.704093,4.659824 3.097894,4.666599 Z"
   style="fill:url(#linearGradient56);fill-opacity:1" />
   </g>
   <g
   id="g12"
   style="fill:#00abff;fill-opacity:1">
    <path
   id="path10"
   class="fil1"
   d="M 3.74501,4.58524 C 3.716935,4.59375 3.68727,4.5779 3.678758,4.549823 3.670248,4.521748 3.686098,4.492083 3.714175,4.483571 4.107447,4.363685 4.534832,4.28254 4.955535,4.281543 5.3152,4.2806887 5.66996,4.338386 5.994575,4.480334 6.021496,4.492066 6.033807,4.523409 6.022075,4.55033 6.010343,4.577251 5.979,4.589562 5.952079,4.57783 5.641748,4.442129 5.301374,4.386976 4.955536,4.387795 4.546319,4.3887635 4.129375,4.468067 3.745006,4.58524 Z"
   style="fill:url(#linearGradient55);fill-opacity:1" />
    <path
   id="path11"
   class="fil1"
   d="M 3.73709,4.6767 C 3.707984,4.68084 3.681023,4.660598 3.676881,4.631491 3.672741,4.602385 3.692983,4.575424 3.72209,4.571282 4.115484,4.514998 4.543007,4.502999 4.96387,4.570082 5.322929,4.627314 5.676933,4.742117 6.00062,4.936023 6.025817,4.951094 6.034026,4.983744 6.018955,5.00894 6.003884,5.034137 5.971235,5.042345 5.946038,5.027275 5.634778,4.840814 5.293644,4.730303 4.947199,4.675082 4.53814,4.609881 4.121341,4.621728 3.737089,4.676702 Z"
   style="fill:url(#linearGradient54);fill-opacity:1" />
    <path
   id="path12"
   class="fil1"
   d="M 3.73043,4.77285 C 3.701091,4.7733106 3.67693,4.749897 3.676469,4.720559 3.6760084,4.69122 3.699422,4.667059 3.72876,4.666598 4.122563,4.659818 4.550051,4.701527 4.97012,4.821358 5.328443,4.923571 5.681671,5.082559 6.00458,5.316638 6.028395,5.333894 6.033714,5.367197 6.016458,5.391012 5.999202,5.414827 5.965899,5.420146 5.942084,5.40289 5.630045,5.176689 5.288139,5.02289 4.940954,4.923855 4.531104,4.806942 4.114273,4.766245 3.730424,4.772851 Z"
   style="fill:url(#linearGradient53);fill-opacity:1" />
   </g>
  </g>
  <g
   id="g17"
   style="fill:#00abff;fill-opacity:1">
   <g
   id="g14"
   style="fill:#00abff;fill-opacity:1">
    <path
   id="path13"
   class="fil0"
   d="M 1.6575,2.79053 C 1.697307,2.83379 1.694508,2.90114 1.65125,2.940947 1.60799,2.980754 1.54064,2.977955 1.500833,2.934697 1.233158,2.64325 1.056654,2.251782 0.99826003,1.880805 0.93941353,1.506986 1.0002994,1.149557 1.207055,0.92430503 c 0.021398,-0.023315 0.048299,-0.0402402 0.079976,-0.0509724 0.089067,-0.030189 0.230591,-0.005547 0.38826,0.0676024 C 1.817649,1.0069783 1.98122,1.113797 2.134933,1.254892 2.340012,1.443128 2.529405,1.693884 2.630713,1.992786 2.649579,2.048475 2.619733,2.10892 2.564044,2.127786 2.508355,2.146652 2.44791,2.116806 2.429044,2.061117 2.340473,1.79979 2.172843,1.57868 1.990768,1.411562 1.854067,1.286082 1.710256,1.191853 1.586126,1.134267 1.480472,1.085251 1.39811,1.063464 1.358783,1.073976 1.202752,1.248976 1.159496,1.538539 1.208259,1.848303 1.260475,2.180035 1.418251,2.530031 1.657499,2.790527 Z"
   style="fill:url(#linearGradient52);fill-opacity:1" />
    <path
   id="path14"
   class="fil0"
   d="M 1.36646,1.06121 C 1.315838,1.031525 1.2988616,0.9664147 1.3285466,0.915793 c 0.029685,-0.050622 0.094795,-0.0675984 0.145417,-0.0379134 0.131626,0.0771575 0.315051,0.294283 0.467087,0.588075 0.118902,0.22976 0.221925,0.510354 0.269461,0.811579 0.00897,0.057988 -0.03076,0.11228 -0.088748,0.121252 -0.057988,0.00897 -0.11228,-0.03076 -0.121252,-0.088748 C 1.9570195,2.0344316 1.8618896,1.7760296 1.7518856,1.5634586 1.6182126,1.3051476 1.4679606,1.1207106 1.36646,1.06121 Z"
   style="fill:url(#linearGradient51);fill-opacity:1" />
   </g>
   <g
   id="g16"
   style="fill:#00abff;fill-opacity:1">
    <path
   id="path15"
   class="fil0"
   d="M 5.32583,2.9347 C 5.286023,2.97796 5.218673,2.980759 5.175413,2.94095 5.132153,2.901143 5.129354,2.833793 5.169163,2.790533 5.408411,2.530037 5.566187,2.180041 5.618403,1.848309 5.667167,1.538545 5.623913,1.248982 5.467879,1.073982 5.428552,1.06347 5.34619,1.085258 5.240536,1.134273 5.116406,1.19186 4.972595,1.286088 4.835894,1.411568 4.653819,1.578686 4.486189,1.799796 4.397618,2.061123 4.378752,2.116812 4.318307,2.146658 4.262618,2.127792 4.206929,2.108926 4.177083,2.048481 4.195949,1.992792 4.297256,1.69389 4.48665,1.443135 4.691729,1.254898 4.845442,1.113804 5.009012,1.006985 5.151371,0.94094097 5.30904,0.86779137 5.450564,0.84314967 5.539631,0.87333857 5.571308,0.88407087 5.59821,0.90099607 5.619607,0.92431097 5.826363,1.149563 5.887249,1.506992 5.828402,1.880811 5.770008,2.251783 5.593504,2.643252 5.325831,2.934701 Z"
   style="fill:url(#linearGradient50);fill-opacity:1" />
    <path
   id="path16"
   class="fil0"
   d="m 5.3527,0.877878 c 0.050622,-0.029685 0.115732,-0.0127087 0.145417,0.0379134 0.029685,0.050622 0.012709,0.115732 -0.037913,0.145417 -0.1015,0.0595 -0.251752,0.243937 -0.385425,0.502248 -0.110004,0.212571 -0.205134,0.470972 -0.248626,0.746579 -0.00897,0.057988 -0.063264,0.097721 -0.121252,0.088748 C 4.646913,2.3898134 4.60718,2.3355194 4.616153,2.2775314 4.663688,1.9763074 4.766712,1.6957124 4.885614,1.4659524 5.0376486,1.1721614 5.2210746,0.9550354 5.3527,0.877878 Z"
   style="fill:url(#linearGradient49);fill-opacity:1" />
   </g>
  </g>
 <g
   style="clip-rule:evenodd;fill-rule:evenodd;image-rendering:optimizeQuality;shape-rendering:geometricPrecision;text-rendering:geometricPrecision"
   id="g21"
   transform="matrix(0.00233556,0,0,0.00233556,2.9996538,2.3663341)"><g
     id="g20">
  <metadata
   id="metadata17" />
  <rect
   class="fil0"
   width="2048"
   height="2048"
   id="rect17"
   x="0"
   y="0" />
  <rect
   class="fil0"
   x="255.99899"
   y="255.99899"
   width="1536"
   height="1536"
   id="rect18" />
  <path
   class="fil1"
   d="m 424.021,260.388 h 254.537 c 20.0351,0 38.2264,8.17205 51.391,21.3343 13.1622,13.1646 21.3343,31.3547 21.3343,51.391 v 254.538 c 0,20.0351 -8.17205,38.2252 -21.3343,51.3898 -13.1646,13.1622 -31.3559,21.3343 -51.391,21.3343 H 424.021 c -20.0362,0 -38.2264,-8.17205 -51.391,-21.3343 -13.1622,-13.1646 -21.3343,-31.3547 -21.3343,-51.3898 v -254.538 c 0,-20.0362 8.17205,-38.2264 21.3343,-51.391 13.1646,-13.1622 31.3547,-21.3343 51.391,-21.3343 z"
   id="path18"
   style="fill:url(#linearGradient48);fill-opacity:1;stroke:#00abff;stroke-opacity:1" />
  <path
   class="fil2"
   d="m 751.283,447.998 v 25.9264 H 351.295 V 447.998 Z m 0,64.0004 v 25.9264 H 351.295 v -25.9264 z"
   id="path19"
   style="fill:url(#linearGradient28);fill-opacity:1" />
  <path
   class="fil3"
   d="m 1493.08,1772.61 v -42.7288 H 673.838 c -32.9811,0 -64.3241,-13.1693 -87.619,-36.4642 -32.5689,-32.5689 -40.7398,-96.9261 -40.624,-140.835 0.11339,-42.9709 8.74135,-111.612 40.6252,-143.495 23.2949,-23.2949 54.6355,-36.4642 87.6178,-36.4642 h 841.049 c 37.6441,0 72.0367,-11.1189 100.772,-35.7685 46.2697,-39.691 67.3134,-104.991 71.83,-164.069 4.8,-62.7981 -8.3162,-147.435 -54.7748,-193.892 -31.3441,-31.3453 -73.4623,-48.9863 -117.827,-48.9863 h -618.161 c -88.5367,0 -226.59,21.378 -295.114,-47.1449 -30.1252,-30.1264 -47.1449,-70.6524 -47.1449,-113.301 v -109.088 h -42.7288 v 109.088 c 0,54.0343 21.4925,105.333 59.6682,143.508 18.6579,18.6591 40.3229,32.4933 64.8201,42.1973 50.0363,19.8225 107.998,21.0555 161.147,19.9512 33.1146,-0.68858 66.228,-2.48032 99.352,-2.48032 h 618.161 c 32.9811,0 64.3241,13.1681 87.6201,36.46302 35.289,35.2902 44.3823,110.093 41.8949,157.494 -4.0736,77.6032 -39.4099,163.301 -129.515,163.301 h -841.049 c -44.3658,0 -86.4816,17.641 -117.826,48.9863 -40.6559,40.6571 -53.7036,119.376 -53.6115,174.445 0.0933,55.1339 12.9756,129.664 53.6103,170.297 31.3441,31.3453 73.4623,48.9863 117.827,48.9863 h 819.242 z"
   id="path20"
   style="fill:url(#linearGradient27);fill-opacity:1" />
 </g></g></g></g></g></g></svg>
