<?xml version="1.0" encoding="UTF-8" standalone="no"?>
<svg
   width="48.299469"
   height="48.473137"
   version="1.1"
   id="svg29"
   xmlns:xlink="http://www.w3.org/1999/xlink"
   xmlns="http://www.w3.org/2000/svg"
   xmlns:svg="http://www.w3.org/2000/svg"
   xmlns:rdf="http://www.w3.org/1999/02/22-rdf-syntax-ns#"
   xmlns:cc="http://creativecommons.org/ns#"
   xmlns:dc="http://purl.org/dc/elements/1.1/">
  <metadata
     id="metadata1">
    <rdf:RDF>
      <cc:Work
         rdf:about="">
        <dc:format>image/svg+xml</dc:format>
        <dc:type
           rdf:resource="http://purl.org/dc/dcmitype/StillImage" />
      </cc:Work>
    </rdf:RDF>
  </metadata>
  <defs
     id="defs12">
    <linearGradient
       id="linearGradient30">
      <stop
         style="stop-color:#ff3dfb;stop-opacity:0;"
         offset="0"
         id="stop31" />
      <stop
         style="stop-color:#ff3dfb;stop-opacity:1;"
         offset="1"
         id="stop30" />
    </linearGradient>
    <style
       type="text/css"
       id="style1" />
    <style
       type="text/css"
       id="style2" />
    <style
       type="text/css"
       id="style3" />
    <style
       type="text/css"
       id="style4" />
    <style
       type="text/css"
       id="style5" />
    <style
       type="text/css"
       id="style6" />
    <style
       type="text/css"
       id="style7" />
    <style
       type="text/css"
       id="style8" />
    <linearGradient
       xlink:href="#linearGradient30"
       id="linearGradient31"
       x1="2.6363497"
       y1="55.303238"
       x2="2.6363497"
       y2="26.992182"
       gradientUnits="userSpaceOnUse" />
    <filter
       style="color-interpolation-filters:sRGB"
       id="filter31"
       x="-0.027051167"
       y="-0.026949027"
       width="1.0541023"
       height="1.0538981">
      <feGaussianBlur
         stdDeviation="0.37243616"
         id="feGaussianBlur31" />
    </filter>
  </defs>
  <g
     id="g31"
     transform="translate(-7.8542521,-7.7585491)">
    <path
       id="path23"
       style="display:inline;opacity:0.6;fill:#ff3dfb;fill-opacity:1;stroke:none;filter:url(#filter31)"
       d="m -0.23000874,15.639321 c -0.38087733,0 -0.70098032,0.179878 -0.97466106,0.335216 -0.2494552,0.141588 -0.4093676,0.259164 -0.4422595,0.283103 h -0.00141 c -0.00299,0.0022 -0.040846,0.02817 -0.040846,0.02817 l 0.00282,0.0042 c -0.055288,0.03958 -0.1117461,0.08118 -0.1676079,0.128171 l -0.047888,0.03944 -4.7676701,8.108561 6.04233519,3.498638 3.47892031,-6.026842 1.5704437,2.718347 -3.2127195,1.853546 9.9254866,2.659191 2.662007,-9.919852 -3.212719,1.847912 C 10.301561,20.707701 8.1770024,17.028015 7.8729177,16.501305 7.6437505,16.104361 7.2590242,15.908445 6.9517785,15.792845 6.6445327,15.677244 6.3785313,15.642138 6.3785313,15.642138 l -0.022536,-0.0028 z m 0.54789473,0.722545 H 6.2968401 c 0.011848,0.0017 0.1815507,0.02485 0.4000054,0.107044 0.2259468,0.08501 0.4554488,0.229366 0.5507117,0.394372 0.3245574,0.562171 2.8929968,5.007109 2.8929968,5.007109 l 0.167608,0.294371 0.315497,-0.15634 2.026788,-1.166213 -2.025379,7.545172 -7.5493982,-2.023971 2.3310174,-1.34368 -4.94372883,-8.556454 -0.0295779,-0.0338 c 0,0 -0.0991063,-0.0527 -0.11549448,-0.06761 z m -0.9732526,0.349301 c 0.004901,1.88e-4 0.009249,0.0011 0.0140847,0.0014 0.0348301,0.01467 0.0689671,0.03213 0.10281829,0.05634 0.17441205,0.124708 0.29014477,0.367611 0.29014477,0.367611 l 0.008451,0.02394 2.53806255,4.395834 -3.18736711,5.524018 -4.79302249,-2.773277 4.3282275,-7.357846 c 0.051506,-0.04083 0.099974,-0.07509 0.1464809,-0.105635 0.22042708,-0.105232 0.40216437,-0.138147 0.55212007,-0.132396 z m -3.55497769,10.597326 -9.9226697,2.654966 3.207086,1.857771 c -0.28139,0.487504 -2.405684,4.170333 -2.709896,4.697247 -0.229174,0.396937 -0.205624,0.828246 -0.152115,1.152128 0.05351,0.323882 0.153524,0.57043 0.153524,0.57043 l 0.0099,0.02254 0.01127,0.01972 c 0,0 3.049673,5.281233 3.281734,5.683176 0.190432,0.329861 0.5061095,0.516719 0.7774755,0.676065 0.249475,0.146491 0.4347234,0.227046 0.4690204,0.242257 0.003,0.0013 0.040846,0.02113 0.040846,0.02113 l 0.00141,-0.0042 c 0.062299,0.02837 0.1265727,0.0566 0.1957773,0.08169 l 0.057747,0.02113 9.40857791,0.07606 0.005634,-6.984601 H -6.3300912 l 1.5690353,-2.716938 3.211311,1.856363 z m -0.509866,0.883111 2.023971,7.549398 -2.3282005,-1.346498 -4.9423203,8.559271 -0.011268,0.04225 c 0,0 0.00349,0.114066 -0.00141,0.136622 -0.6014999,-1.041827 -2.9563449,-5.118551 -2.9887729,-5.174718 -0.0026,-0.0064 -0.07126,-0.17054 -0.109861,-0.404231 -0.03935,-0.238182 -0.02907,-0.509653 0.0662,-0.674657 0.304316,-0.527094 2.428849,-4.207893 2.711305,-4.697246 l 0.154931,0.09014 0.07042,-0.535219 -0.538036,-0.181693 0.361977,-0.177467 -2.01552,-1.166213 z M 14.201172,28.473298 8.1489778,31.957852 11.62649,37.983285 H 8.4926444 v -3.709909 l -7.2662954,7.267704 7.2578446,7.266295 0.00563,-3.707092 c 0.56361,-6.4e-5 4.8156544,0 5.4240164,0 0.458343,0 0.820923,-0.235385 1.074663,-0.443668 0.25373,-0.208283 0.415498,-0.421132 0.415498,-0.421132 l 0.01549,-0.01831 0.01268,-0.02113 c 0,0 3.048246,-5.27979 3.280326,-5.681766 0.19043,-0.329851 0.194876,-0.696598 0.197186,-1.011282 0.002,-0.289003 -0.02135,-0.490489 -0.02535,-0.528176 -3.6e-4,-0.0033 -0.0014,-0.04648 -0.0014,-0.04648 h -0.0056 c -0.0066,-0.06786 -0.01534,-0.13769 -0.02817,-0.209862 l -0.0099,-0.06197 z m -0.269017,0.988745 4.207099,7.421228 c 0.01001,0.06691 0.01506,0.127775 0.01831,0.184509 -0.01976,0.249176 -0.0849,0.424568 -0.167608,0.55212 -0.03088,0.02404 -0.0639,0.04429 -0.102818,0.06197 -0.1952,0.08869 -0.463387,0.0662 -0.463387,0.0662 l -0.02253,-0.0014 H 12.323682 L 9.1349066,32.222644 Z m -6.1606471,6.552202 -0.00141,2.688768 h 9.8818231 l 0.04366,-0.01127 c 0,0 0.09647,-0.05919 0.118311,-0.0662 -0.60141,1.041673 -2.954944,5.12138 -2.987364,5.177534 -0.006,0.0074 -0.113999,0.145152 -0.295779,0.294371 -0.1866,0.153172 -0.426383,0.280285 -0.61691,0.280285 -0.608552,0 -4.8549571,0.0013 -5.4211991,0.0014 v -0.02535 l -0.3845122,0.02535 0.022536,0.695784 -0.3591598,-0.336625 -0.00423,2.331018 -5.5212014,-5.528244 z m -14.2438546,2.802854 h 6.37755105 l -0.0070424,5.536695 -8.53110135,-0.07042 c -0.063328,-0.02487 -0.1180811,-0.05051 -0.1690163,-0.07606 -0.2066316,-0.142127 -0.325704,-0.285652 -0.3943716,-0.421132 -0.0051,-0.03785 -0.00689,-0.07647 -0.00282,-0.118312 0.02079,-0.213394 0.1746502,-0.435217 0.1746502,-0.435217 l 0.012676,-0.01972 z"
       transform="matrix(1.3867,0,0,1.3867,28.692,-12.689)" />
    <path
       id="path30"
       style="fill:url(#linearGradient31);fill-opacity:1;stroke:none"
       d="m -0.23000874,15.639321 c -0.38087733,0 -0.70098032,0.179878 -0.97466106,0.335216 -0.2494552,0.141588 -0.4093676,0.259164 -0.4422595,0.283103 h -0.00141 c -0.00299,0.0022 -0.040846,0.02817 -0.040846,0.02817 l 0.00282,0.0042 c -0.055288,0.03958 -0.1117461,0.08118 -0.1676079,0.128171 l -0.047888,0.03944 -4.7676701,8.108561 6.04233519,3.498638 3.47892031,-6.026842 1.5704437,2.718347 -3.2127195,1.853546 9.9254866,2.659191 2.662007,-9.919852 -3.212719,1.847912 C 10.301561,20.707701 8.1770024,17.028015 7.8729177,16.501305 7.6437505,16.104361 7.2590242,15.908445 6.9517785,15.792845 6.6445327,15.677244 6.3785313,15.642138 6.3785313,15.642138 l -0.022536,-0.0028 z m 0.54789473,0.722545 H 6.2968401 c 0.011848,0.0017 0.1815507,0.02485 0.4000054,0.107044 0.2259468,0.08501 0.4554488,0.229366 0.5507117,0.394372 0.3245574,0.562171 2.8929968,5.007109 2.8929968,5.007109 l 0.167608,0.294371 0.315497,-0.15634 2.026788,-1.166213 -2.025379,7.545172 -7.5493982,-2.023971 2.3310174,-1.34368 -4.94372883,-8.556454 -0.0295779,-0.0338 c 0,0 -0.0991063,-0.0527 -0.11549448,-0.06761 z m -0.9732526,0.349301 c 0.004901,1.88e-4 0.009249,0.0011 0.0140847,0.0014 0.0348301,0.01467 0.0689671,0.03213 0.10281829,0.05634 0.17441205,0.124708 0.29014477,0.367611 0.29014477,0.367611 l 0.008451,0.02394 2.53806255,4.395834 -3.18736711,5.524018 -4.79302249,-2.773277 4.3282275,-7.357846 c 0.051506,-0.04083 0.099974,-0.07509 0.1464809,-0.105635 0.22042708,-0.105232 0.40216437,-0.138147 0.55212007,-0.132396 z m -3.55497769,10.597326 -9.9226697,2.654966 3.207086,1.857771 c -0.28139,0.487504 -2.405684,4.170333 -2.709896,4.697247 -0.229174,0.396937 -0.205624,0.828246 -0.152115,1.152128 0.05351,0.323882 0.153524,0.57043 0.153524,0.57043 l 0.0099,0.02254 0.01127,0.01972 c 0,0 3.049673,5.281233 3.281734,5.683176 0.190432,0.329861 0.5061095,0.516719 0.7774755,0.676065 0.249475,0.146491 0.4347234,0.227046 0.4690204,0.242257 0.003,0.0013 0.040846,0.02113 0.040846,0.02113 l 0.00141,-0.0042 c 0.062299,0.02837 0.1265727,0.0566 0.1957773,0.08169 l 0.057747,0.02113 9.40857791,0.07606 0.005634,-6.984601 H -6.3300912 l 1.5690353,-2.716938 3.211311,1.856363 z m -0.509866,0.883111 2.023971,7.549398 -2.3282005,-1.346498 -4.9423203,8.559271 -0.011268,0.04225 c 0,0 0.00349,0.114066 -0.00141,0.136622 -0.6014999,-1.041827 -2.9563449,-5.118551 -2.9887729,-5.174718 -0.0026,-0.0064 -0.07126,-0.17054 -0.109861,-0.404231 -0.03935,-0.238182 -0.02907,-0.509653 0.0662,-0.674657 0.304316,-0.527094 2.428849,-4.207893 2.711305,-4.697246 l 0.154931,0.09014 0.07042,-0.535219 -0.538036,-0.181693 0.361977,-0.177467 -2.01552,-1.166213 z M 14.201172,28.473298 8.1489778,31.957852 11.62649,37.983285 H 8.4926444 v -3.709909 l -7.2662954,7.267704 7.2578446,7.266295 0.00563,-3.707092 c 0.56361,-6.4e-5 4.8156544,0 5.4240164,0 0.458343,0 0.820923,-0.235385 1.074663,-0.443668 0.25373,-0.208283 0.415498,-0.421132 0.415498,-0.421132 l 0.01549,-0.01831 0.01268,-0.02113 c 0,0 3.048246,-5.27979 3.280326,-5.681766 0.19043,-0.329851 0.194876,-0.696598 0.197186,-1.011282 0.002,-0.289003 -0.02135,-0.490489 -0.02535,-0.528176 -3.6e-4,-0.0033 -0.0014,-0.04648 -0.0014,-0.04648 h -0.0056 c -0.0066,-0.06786 -0.01534,-0.13769 -0.02817,-0.209862 l -0.0099,-0.06197 z m -0.269017,0.988745 4.207099,7.421228 c 0.01001,0.06691 0.01506,0.127775 0.01831,0.184509 -0.01976,0.249176 -0.0849,0.424568 -0.167608,0.55212 -0.03088,0.02404 -0.0639,0.04429 -0.102818,0.06197 -0.1952,0.08869 -0.463387,0.0662 -0.463387,0.0662 l -0.02253,-0.0014 H 12.323682 L 9.1349066,32.222644 Z m -6.1606471,6.552202 -0.00141,2.688768 h 9.8818231 l 0.04366,-0.01127 c 0,0 0.09647,-0.05919 0.118311,-0.0662 -0.60141,1.041673 -2.954944,5.12138 -2.987364,5.177534 -0.006,0.0074 -0.113999,0.145152 -0.295779,0.294371 -0.1866,0.153172 -0.426383,0.280285 -0.61691,0.280285 -0.608552,0 -4.8549571,0.0013 -5.4211991,0.0014 v -0.02535 l -0.3845122,0.02535 0.022536,0.695784 -0.3591598,-0.336625 -0.00423,2.331018 -5.5212014,-5.528244 z m -14.2438546,2.802854 h 6.37755105 l -0.0070424,5.536695 -8.53110135,-0.07042 c -0.063328,-0.02487 -0.1180811,-0.05051 -0.1690163,-0.07606 -0.2066316,-0.142127 -0.325704,-0.285652 -0.3943716,-0.421132 -0.0051,-0.03785 -0.00689,-0.07647 -0.00282,-0.118312 0.02079,-0.213394 0.1746502,-0.435217 0.1746502,-0.435217 l 0.012676,-0.01972 z"
       transform="matrix(1.3867,0,0,1.3867,28.692,-12.689)" />
  </g>
</svg>
