<?xml version="1.0" encoding="UTF-8" standalone="no"?>
<svg
   width="38.614567"
   height="38.611958"
   version="1.1"
   viewBox="0 0 10.21657 10.215879"
   id="svg71"
   xmlns:xlink="http://www.w3.org/1999/xlink"
   xmlns="http://www.w3.org/2000/svg"
   xmlns:svg="http://www.w3.org/2000/svg"
   xmlns:rdf="http://www.w3.org/1999/02/22-rdf-syntax-ns#"
   xmlns:cc="http://creativecommons.org/ns#"
   xmlns:dc="http://purl.org/dc/elements/1.1/">
  <metadata
     id="metadata2">
    <rdf:RDF>
      <cc:Work
         rdf:about="">
        <dc:format>image/svg+xml</dc:format>
        <dc:type
           rdf:resource="http://purl.org/dc/dcmitype/StillImage" />
        <dc:title />
      </cc:Work>
    </rdf:RDF>
  </metadata>
  <defs
     id="defs31">
    <linearGradient
       id="linearGradient2">
      <stop
         style="stop-color:#00abff;stop-opacity:0;"
         offset="0"
         id="stop5" />
      <stop
         style="stop-color:#00abff;stop-opacity:1;"
         offset="1"
         id="stop2" />
    </linearGradient>
    <style
       type="text/css"
       id="style7" />
    <style
       type="text/css"
       id="style17" />
    <style
       type="text/css"
       id="style19" />
    <style
       type="text/css"
       id="style21" />
    <style
       type="text/css"
       id="style23" />
    <style
       type="text/css"
       id="style25" />
    <style
       type="text/css"
       id="style27" />
    <style
       type="text/css"
       id="style29" />
    <linearGradient
       xlink:href="#linearGradient2"
       id="linearGradient5"
       x1="5.5934043"
       y1="11.877627"
       x2="5.5934043"
       y2="4.8134475"
       gradientUnits="userSpaceOnUse" />
    <filter
       style="color-interpolation-filters:sRGB"
       id="filter5"
       x="-0.02699904"
       y="-0.027000962"
       width="1.0539981"
       height="1.0540019">
      <feGaussianBlur
         stdDeviation="0.10904414"
         id="feGaussianBlur5" />
    </filter>
  </defs>
  <g
     id="g5"
     transform="translate(-0.45910319,-0.87720072)">
    <path
       style="color:#dedede;display:inline;opacity:0.6;fill:#00abff;fill-opacity:1;stroke:none;stroke-width:0.605792;filter:url(#filter5)"
       d="M 10.118872,1.1434292 A 1.2115846,5.4521306 45 0 0 5.6085586,4.23155 1.2115846,5.4521306 45 0 0 3.4622558,6.7233441 C 4.1141246,6.9309126 4.6224524,7.4392354 4.8300212,8.0911092 A 1.2115846,5.4521306 45 0 0 7.3218151,5.9448065 1.2115846,5.4521306 45 0 0 10.320014,1.2333514 1.2115846,5.4521306 45 0 0 10.118872,1.1434292 Z M 3.1439784,7.598903 c -2.42317557,0.6492893 -0.6057925,2.1832077 -2.42316927,3.232471 2.42522277,0 3.63475367,-1.2120814 3.63475367,-2.0208865 0,-0.4027792 0.040953,-1.1446082 -1.2115844,-1.2115845 z"
       class="ColorScheme-Text"
       id="path1" />
    <path
       style="color:#dedede;fill:url(#linearGradient5);fill-opacity:1;stroke:none;stroke-width:0.605792"
       d="M 10.118872,1.1434292 A 1.2115846,5.4521306 45 0 0 5.6085586,4.23155 1.2115846,5.4521306 45 0 0 3.4622558,6.7233441 C 4.1141246,6.9309126 4.6224524,7.4392354 4.8300212,8.0911092 A 1.2115846,5.4521306 45 0 0 7.3218151,5.9448065 1.2115846,5.4521306 45 0 0 10.320014,1.2333514 1.2115846,5.4521306 45 0 0 10.118872,1.1434292 Z M 3.1439784,7.598903 c -2.42317557,0.6492893 -0.6057925,2.1832077 -2.42316927,3.232471 2.42522277,0 3.63475367,-1.2120814 3.63475367,-2.0208865 0,-0.4027792 0.040953,-1.1446082 -1.2115844,-1.2115845 z"
       class="ColorScheme-Text"
       id="path2" />
  </g>
</svg>
