<?xml version="1.0" encoding="UTF-8" standalone="no"?>
<svg
   width="47.64838"
   height="46.571777"
   version="1.1"
   viewBox="0 0 12.606719 12.321874"
   id="svg43"
   xmlns:xlink="http://www.w3.org/1999/xlink"
   xmlns="http://www.w3.org/2000/svg"
   xmlns:svg="http://www.w3.org/2000/svg"
   xmlns:rdf="http://www.w3.org/1999/02/22-rdf-syntax-ns#"
   xmlns:cc="http://creativecommons.org/ns#"
   xmlns:dc="http://purl.org/dc/elements/1.1/">
  <defs
     id="defs21">
    <linearGradient
       id="linearGradient2">
      <stop
         style="stop-color:#00abff;stop-opacity:0;"
         offset="0"
         id="stop3" />
      <stop
         style="stop-color:#00abff;stop-opacity:1;"
         offset="1"
         id="stop2" />
    </linearGradient>
    <style
       type="text/css"
       id="style864" />
    <linearGradient
       xlink:href="#linearGradient2"
       id="linearGradient3"
       x1="24.106855"
       y1="17"
       x2="24.106855"
       y2="7.0503225"
       gradientUnits="userSpaceOnUse" />
    <filter
       style="color-interpolation-filters:sRGB"
       id="filter3"
       x="-0.026678695"
       y="-0.02732914"
       width="1.0533574"
       height="1.0546583">
      <feGaussianBlur
         stdDeviation="0.13303922"
         id="feGaussianBlur3" />
    </filter>
  </defs>
  <metadata
     id="metadata23">
    <rdf:RDF>
      <cc:Work
         rdf:about="">
        <dc:format>image/svg+xml</dc:format>
        <dc:type
           rdf:resource="http://purl.org/dc/dcmitype/StillImage" />
        <dc:title />
      </cc:Work>
    </rdf:RDF>
  </metadata>
  <g
     id="g3"
     transform="translate(-2.1633725,-2.3058248)">
    <path
       id="circle1047"
       style="display:inline;opacity:0.6;fill:#00abff;fill-opacity:1;stroke:none;stroke-linecap:round;stroke-opacity:1;paint-order:stroke fill markers;filter:url(#filter3)"
       d="m 20.17615,2.6256278 c -0.09116,-0.00167 -0.191215,6.042e-4 -0.295584,0.0093 -0.417475,0.03479 -0.928143,0.1762915 -1.224707,0.6211385 -0.294684,0.4420245 -0.419864,1.2042261 -0.148309,2.2225596 0.09501,0.3562709 0.242749,0.7454191 0.446993,1.1616633 -0.194697,0.5736418 -0.302301,1.1876344 -0.302301,1.826726 0,3.1400658 2.549397,5.6873958 5.689463,5.6873958 0.711684,0 1.392468,-0.132072 2.020508,-0.37103 0.700552,0.334391 1.352684,0.525022 1.928527,0.525023 0.6158,0 1.061736,-0.1561 1.373016,-0.399968 0.311279,-0.243868 0.48348,-0.569451 0.572047,-0.88675 0.177134,-0.634597 0.03721,-1.25623 0.03721,-1.25623 a 0.13228901,0.13228901 0 0 0 -0.158127,-0.09922 0.13228901,0.13228901 0 0 0 -0.09973,0.158126 c 0,0 0.120061,0.568969 -0.03514,1.124974 -0.0776,0.278002 -0.2199,0.547203 -0.478514,0.749811 -0.258613,0.202607 -0.639171,0.343641 -1.210755,0.343641 -0.461043,0 -1.001965,-0.141655 -1.59367,-0.399968 1.964869,-0.896058 3.332031,-2.876092 3.332031,-5.1758088 0,-3.1400659 -2.54733,-5.6894632 -5.687396,-5.6894632 -2.370545,0 -4.403465,1.4533338 -5.257974,3.516512 C 18.942421,5.9793797 18.833953,5.6824361 18.761277,5.4098992 18.503676,4.4438969 18.642039,3.754019 18.876513,3.4023093 19.109104,3.0534218 19.526011,2.9298289 19.90227,2.898474 20.278529,2.867119 20.593687,2.929479 20.593687,2.929479 A 0.13228901,0.13228901 0 0 0 20.74768,2.8240614 0.13228901,0.13228901 0 0 0 20.644329,2.6700687 c 0,0 -0.194689,-0.039445 -0.468179,-0.044441 z m 4.165555,0.4175374 c 2.997077,0 5.423851,2.4267742 5.423851,5.4238516 0,2.2768452 -1.401195,4.2228812 -3.388357,5.0275012 C 25.924551,13.271603 25.446631,12.986809 24.953025,12.644457 23.67683,11.759325 22.299778,10.510009 20.982286,9.0607673 20.167472,8.1644721 19.608294,7.346594 19.239274,6.6237547 19.993126,4.5348205 21.991787,3.0431652 24.341705,3.0431652 Z m 0,1.5874687 a 0.13228901,0.13228901 0 0 0 -0.132806,0.1312556 0.13228901,0.13228901 0 0 0 0.132806,0.1328058 c 1.110547,0 2.157822,0.5172807 2.83388,1.3983367 0.676058,0.8810561 0.902884,2.0247186 0.615454,3.0974244 a 0.13228901,0.13228901 0 0 0 0.09353,0.1622608 0.13228901,0.13228901 0 0 0 0.162261,-0.093533 C 28.355495,8.3072383 28.110869,7.0769106 27.38487,6.1307712 26.658871,5.1846317 25.534288,4.6306339 24.341705,4.6306339 Z m -5.213533,2.3403796 c 0.377709,0.6889689 0.910725,1.4469295 1.656714,2.2675172 1.328289,1.4611173 2.719023,2.7237443 4.017763,3.6245133 0.423457,0.293698 0.83496,0.545099 1.234009,0.756528 -0.533384,0.175202 -1.102702,0.271296 -1.694953,0.271296 -2.997077,0 -5.423852,-2.426774 -5.423852,-5.4238512 0,-0.5190728 0.07438,-1.0207896 0.210319,-1.4960033 z"
       transform="translate(-15.874688)" />
    <path
       id="path2"
       style="fill:url(#linearGradient3);fill-opacity:1;stroke:none;stroke-linecap:round;stroke-opacity:1;paint-order:stroke fill markers"
       d="m 20.17615,2.6256278 c -0.09116,-0.00167 -0.191215,6.042e-4 -0.295584,0.0093 -0.417475,0.03479 -0.928143,0.1762915 -1.224707,0.6211385 -0.294684,0.4420245 -0.419864,1.2042261 -0.148309,2.2225596 0.09501,0.3562709 0.242749,0.7454191 0.446993,1.1616633 -0.194697,0.5736418 -0.302301,1.1876344 -0.302301,1.826726 0,3.1400658 2.549397,5.6873958 5.689463,5.6873958 0.711684,0 1.392468,-0.132072 2.020508,-0.37103 0.700552,0.334391 1.352684,0.525022 1.928527,0.525023 0.6158,0 1.061736,-0.1561 1.373016,-0.399968 0.311279,-0.243868 0.48348,-0.569451 0.572047,-0.88675 0.177134,-0.634597 0.03721,-1.25623 0.03721,-1.25623 a 0.13228901,0.13228901 0 0 0 -0.158127,-0.09922 0.13228901,0.13228901 0 0 0 -0.09973,0.158126 c 0,0 0.120061,0.568969 -0.03514,1.124974 -0.0776,0.278002 -0.2199,0.547203 -0.478514,0.749811 -0.258613,0.202607 -0.639171,0.343641 -1.210755,0.343641 -0.461043,0 -1.001965,-0.141655 -1.59367,-0.399968 1.964869,-0.896058 3.332031,-2.876092 3.332031,-5.1758088 0,-3.1400659 -2.54733,-5.6894632 -5.687396,-5.6894632 -2.370545,0 -4.403465,1.4533338 -5.257974,3.516512 C 18.942421,5.9793797 18.833953,5.6824361 18.761277,5.4098992 18.503676,4.4438969 18.642039,3.754019 18.876513,3.4023093 19.109104,3.0534218 19.526011,2.9298289 19.90227,2.898474 20.278529,2.867119 20.593687,2.929479 20.593687,2.929479 A 0.13228901,0.13228901 0 0 0 20.74768,2.8240614 0.13228901,0.13228901 0 0 0 20.644329,2.6700687 c 0,0 -0.194689,-0.039445 -0.468179,-0.044441 z m 4.165555,0.4175374 c 2.997077,0 5.423851,2.4267742 5.423851,5.4238516 0,2.2768452 -1.401195,4.2228812 -3.388357,5.0275012 C 25.924551,13.271603 25.446631,12.986809 24.953025,12.644457 23.67683,11.759325 22.299778,10.510009 20.982286,9.0607673 20.167472,8.1644721 19.608294,7.346594 19.239274,6.6237547 19.993126,4.5348205 21.991787,3.0431652 24.341705,3.0431652 Z m 0,1.5874687 a 0.13228901,0.13228901 0 0 0 -0.132806,0.1312556 0.13228901,0.13228901 0 0 0 0.132806,0.1328058 c 1.110547,0 2.157822,0.5172807 2.83388,1.3983367 0.676058,0.8810561 0.902884,2.0247186 0.615454,3.0974244 a 0.13228901,0.13228901 0 0 0 0.09353,0.1622608 0.13228901,0.13228901 0 0 0 0.162261,-0.093533 C 28.355495,8.3072383 28.110869,7.0769106 27.38487,6.1307712 26.658871,5.1846317 25.534288,4.6306339 24.341705,4.6306339 Z m -5.213533,2.3403796 c 0.377709,0.6889689 0.910725,1.4469295 1.656714,2.2675172 1.328289,1.4611173 2.719023,2.7237443 4.017763,3.6245133 0.423457,0.293698 0.83496,0.545099 1.234009,0.756528 -0.533384,0.175202 -1.102702,0.271296 -1.694953,0.271296 -2.997077,0 -5.423852,-2.426774 -5.423852,-5.4238512 0,-0.5190728 0.07438,-1.0207896 0.210319,-1.4960033 z"
       transform="translate(-15.874688)" />
  </g>
</svg>
