<?xml version="1.0" encoding="UTF-8" standalone="no"?>
<svg
   viewBox="0 0 40.429291 48.27224"
   version="1.1"
   image-rendering="optimizeSpeed"
   enable-background="new 0 0 1024 1024"
   height="48.27224"
   width="40.429291"
   id="Apps-Visual-Studio-Code"
   xmlns:xlink="http://www.w3.org/1999/xlink"
   xmlns="http://www.w3.org/2000/svg"
   xmlns:svg="http://www.w3.org/2000/svg"
   xmlns:rdf="http://www.w3.org/1999/02/22-rdf-syntax-ns#"
   xmlns:cc="http://creativecommons.org/ns#"
   xmlns:dc="http://purl.org/dc/elements/1.1/">
  <metadata
     id="metadata98">
    <rdf:RDF>
      <cc:Work
         rdf:about="">
        <dc:format>image/svg+xml</dc:format>
        <dc:type
           rdf:resource="http://purl.org/dc/dcmitype/StillImage" />
        <dc:title />
      </cc:Work>
    </rdf:RDF>
  </metadata>
  <defs
     id="defs57">
    <linearGradient
       id="linearGradient8">
      <stop
         style="stop-color:#ff3dfb;stop-opacity:0;"
         offset="0"
         id="stop10" />
      <stop
         style="stop-color:#ff3dfb;stop-opacity:1;"
         offset="1"
         id="stop8" />
    </linearGradient>
    <style
       id="style4"
       type="text/css" />
    <style
       type="text/css"
       id="style872" />
    <style
       id="style4-5"
       type="text/css" />
    <style
       id="style6"
       type="text/css" />
    <style
       id="style8"
       type="text/css" />
    <style
       type="text/css"
       id="style872-0" />
    <style
       type="text/css"
       id="style874" />
    <style
       type="text/css"
       id="style876" />
    <style
       id="style4-7"
       type="text/css" />
    <style
       type="text/css"
       id="style872-4" />
    <style
       id="style4-5-4"
       type="text/css" />
    <style
       id="style6-5"
       type="text/css" />
    <style
       id="style8-0"
       type="text/css" />
    <style
       type="text/css"
       id="style872-0-2" />
    <style
       type="text/css"
       id="style874-0" />
    <style
       type="text/css"
       id="style876-6" />
    <style
       type="text/css"
       id="style867" />
    <style
       type="text/css"
       id="style877" />
    <style
       type="text/css"
       id="style879" />
    <style
       type="text/css"
       id="style881" />
    <style
       type="text/css"
       id="style883" />
    <style
       type="text/css"
       id="style885" />
    <style
       type="text/css"
       id="style887" />
    <style
       type="text/css"
       id="style889" />
    <style
       type="text/css"
       id="style839" />
    <linearGradient
       xlink:href="#linearGradient8"
       id="linearGradient10"
       x1="-43.265507"
       y1="64"
       x2="-43.265507"
       y2="27.176933"
       gradientUnits="userSpaceOnUse" />
    <filter
       style="color-interpolation-filters:sRGB"
       id="filter10"
       x="-0.029774843"
       y="-0.024698266"
       width="1.0595497"
       height="1.0493965">
      <feGaussianBlur
         stdDeviation="0.47338342"
         id="feGaussianBlur11" />
    </filter>
  </defs>
  <g
     id="g1399"
     transform="translate(64.193126,-7.8638797)">
    <path
       id="path1359"
       style="color:#000000;font-style:normal;font-variant:normal;font-weight:normal;font-stretch:normal;font-size:medium;line-height:normal;font-family:sans-serif;font-variant-ligatures:normal;font-variant-position:normal;font-variant-caps:normal;font-variant-numeric:normal;font-variant-alternates:normal;font-variant-east-asian:normal;font-feature-settings:normal;font-variation-settings:normal;text-indent:0;text-align:start;text-decoration:none;text-decoration-line:none;text-decoration-style:solid;text-decoration-color:#000000;letter-spacing:normal;word-spacing:normal;text-transform:none;writing-mode:lr-tb;direction:ltr;text-orientation:mixed;dominant-baseline:auto;baseline-shift:baseline;text-anchor:start;white-space:normal;shape-padding:0;shape-margin:0;inline-size:0;clip-rule:nonzero;display:inline;overflow:visible;visibility:visible;opacity:0.6;isolation:auto;mix-blend-mode:normal;color-interpolation:sRGB;color-interpolation-filters:linearRGB;solid-color:#000000;solid-opacity:1;vector-effect:none;fill:#ff3dfb;fill-opacity:1;fill-rule:nonzero;stroke:none;stroke-width:1.00018;stroke-linecap:butt;stroke-linejoin:miter;stroke-miterlimit:4;stroke-dasharray:none;stroke-dashoffset:0;stroke-opacity:1;filter:url(#filter10);color-rendering:auto;image-rendering:auto;shape-rendering:auto;text-rendering:auto;enable-background:accumulate;stop-color:#000000"
       d="m -43.97848,9 -0.15625,0.052734 -18.921875,6.1875 v 0.363282 c 0,12.791024 -0.08532,19.849258 2.234375,25.083984 2.320346,5.237198 7.059236,8.64541 16.591797,14.167969 L -43.97848,55 l 0.251953,-0.144531 c 9.532561,-5.522558 14.27145,-8.93077 16.591797,-14.167969 2.319761,-5.23349 2.234375,-12.29296 2.234375,-25.083984 v -0.363282 z m 0,1.052734 18.072266,5.91211 c 3.8e-4,12.50826 0.01058,19.460662 -2.142579,24.318359 -2.155653,4.865473 -6.651772,8.152198 -15.929687,13.542969 -9.277916,-5.390771 -13.774035,-8.677496 -15.929688,-13.542969 -2.153248,-4.859099 -2.142959,-11.810131 -2.142578,-24.318359 z m 0,2.814454 -0.166016,0.05664 -15.8125,5.53711 V 18.8125 c 0,10.421622 -0.179894,16.084942 1.751953,20.414062 1.931845,4.329122 5.925629,7.107648 13.978516,11.757813 l 0.248047,0.146484 0.251953,-0.146484 c 7.986523,-4.616324 11.973525,-7.395214 13.921875,-11.730469 1.948348,-4.335253 1.804688,-10.014742 1.804688,-20.441406 v -0.351562 z m 0,1.05664 14.972656,5.244141 c 0.0021,10.148981 0.06742,15.720726 -1.710937,19.677734 -1.779389,3.959301 -5.526127,6.627169 -13.263672,11.113281 -7.800796,-4.518436 -11.547643,-7.192044 -13.310547,-11.142578 -1.761903,-3.948289 -1.663173,-9.502924 -1.660156,-19.648437 z m 0.388672,9.035156 c -2.622545,-8.18e-4 -4.75863,2.137222 -4.757813,4.759766 -0.0057,1.738953 1.019944,3.237324 2.519532,4.066406 l -2.689454,9.203125 h 9.84961 l -2.685547,-9.203125 c 1.498958,-0.829788 2.525548,-2.331447 2.519531,-4.070312 -8.5e-5,-0.160903 -0.0094,-0.318328 -0.02539,-0.47461 -3.31e-4,-0.0032 3.36e-4,-0.0065 0,-0.0098 -0.0049,-0.04768 -0.01521,-0.09337 -0.02148,-0.140625 -0.01297,-0.09558 -0.02622,-0.191639 -0.04492,-0.285156 -0.02478,-0.126724 -0.05518,-0.252053 -0.08984,-0.375 -0.0027,-0.0097 -0.005,-0.01965 -0.0078,-0.0293 -4.13e-4,-0.0014 -0.0015,-0.0025 -0.002,-0.0039 -0.529724,-1.827574 -2.123743,-3.207059 -4.066406,-3.410156 v -0.02734 z m -0.0078,1.001954 h 0.0078 c 1.040428,0 1.979415,0.41822 2.658203,1.097656 0.254156,0.254398 0.473584,0.54431 0.646484,0.863281 2.66e-4,4.89e-4 -2.65e-4,0.0015 0,0.002 0.115352,0.213032 0.210276,0.440188 0.283203,0.675781 0.109392,0.353391 0.167969,0.72898 0.167969,1.119141 0.0052,1.506464 -0.893765,2.864361 -2.28125,3.451172 l -0.410156,0.173828 2.525391,8.646484 h -7.181641 l 2.523437,-8.642578 -0.412109,-0.173828 c -1.388493,-0.586339 -2.285099,-1.947871 -2.279297,-3.455078 v -0.0039 c -1.21e-4,-0.390592 0.05832,-0.765601 0.167969,-1.119141 0.0363,-0.117239 0.07787,-0.231793 0.125,-0.34375 2.29e-4,-5.42e-4 -2.29e-4,-0.0014 0,-0.002 0.04719,-0.111947 0.100805,-0.220125 0.158203,-0.326172 2.66e-4,-4.9e-4 -2.66e-4,-0.0015 0,-0.002 0.05746,-0.106041 0.120441,-0.209072 0.1875,-0.308594 2.94e-4,-4.35e-4 -2.94e-4,-0.0015 0,-0.002 0.06661,-0.09876 0.139376,-0.193422 0.214844,-0.285156 8.9e-4,-0.0011 0.0011,-0.0028 0.002,-0.0039 0.06854,-0.08312 0.141447,-0.161418 0.216797,-0.238282 0.008,-0.0082 0.01532,-0.01727 0.02344,-0.02539 l 0.002,-0.002 c 0.678316,-0.677446 1.615856,-1.094347 2.654297,-1.095703 z" />
    <path
       id="path8"
       style="color:#000000;font-style:normal;font-variant:normal;font-weight:normal;font-stretch:normal;font-size:medium;line-height:normal;font-family:sans-serif;font-variant-ligatures:normal;font-variant-position:normal;font-variant-caps:normal;font-variant-numeric:normal;font-variant-alternates:normal;font-variant-east-asian:normal;font-feature-settings:normal;font-variation-settings:normal;text-indent:0;text-align:start;text-decoration:none;text-decoration-line:none;text-decoration-style:solid;text-decoration-color:#000000;letter-spacing:normal;word-spacing:normal;text-transform:none;writing-mode:lr-tb;direction:ltr;text-orientation:mixed;dominant-baseline:auto;baseline-shift:baseline;text-anchor:start;white-space:normal;shape-padding:0;shape-margin:0;inline-size:0;clip-rule:nonzero;display:inline;overflow:visible;visibility:visible;opacity:1;isolation:auto;mix-blend-mode:normal;color-interpolation:sRGB;color-interpolation-filters:linearRGB;solid-color:#000000;solid-opacity:1;vector-effect:none;fill:url(#linearGradient10);fill-opacity:1;fill-rule:nonzero;stroke:none;stroke-width:1.00018;stroke-linecap:butt;stroke-linejoin:miter;stroke-miterlimit:4;stroke-dasharray:none;stroke-dashoffset:0;stroke-opacity:1;color-rendering:auto;image-rendering:auto;shape-rendering:auto;text-rendering:auto;enable-background:accumulate;stop-color:#000000"
       d="m -43.97848,9 -0.15625,0.052734 -18.921875,6.1875 v 0.363282 c 0,12.791024 -0.08532,19.849258 2.234375,25.083984 2.320346,5.237198 7.059236,8.64541 16.591797,14.167969 L -43.97848,55 l 0.251953,-0.144531 c 9.532561,-5.522558 14.27145,-8.93077 16.591797,-14.167969 2.319761,-5.23349 2.234375,-12.29296 2.234375,-25.083984 v -0.363282 z m 0,1.052734 18.072266,5.91211 c 3.8e-4,12.50826 0.01058,19.460662 -2.142579,24.318359 -2.155653,4.865473 -6.651772,8.152198 -15.929687,13.542969 -9.277916,-5.390771 -13.774035,-8.677496 -15.929688,-13.542969 -2.153248,-4.859099 -2.142959,-11.810131 -2.142578,-24.318359 z m 0,2.814454 -0.166016,0.05664 -15.8125,5.53711 V 18.8125 c 0,10.421622 -0.179894,16.084942 1.751953,20.414062 1.931845,4.329122 5.925629,7.107648 13.978516,11.757813 l 0.248047,0.146484 0.251953,-0.146484 c 7.986523,-4.616324 11.973525,-7.395214 13.921875,-11.730469 1.948348,-4.335253 1.804688,-10.014742 1.804688,-20.441406 v -0.351562 z m 0,1.05664 14.972656,5.244141 c 0.0021,10.148981 0.06742,15.720726 -1.710937,19.677734 -1.779389,3.959301 -5.526127,6.627169 -13.263672,11.113281 -7.800796,-4.518436 -11.547643,-7.192044 -13.310547,-11.142578 -1.761903,-3.948289 -1.663173,-9.502924 -1.660156,-19.648437 z m 0.388672,9.035156 c -2.622545,-8.18e-4 -4.75863,2.137222 -4.757813,4.759766 -0.0057,1.738953 1.019944,3.237324 2.519532,4.066406 l -2.689454,9.203125 h 9.84961 l -2.685547,-9.203125 c 1.498958,-0.829788 2.525548,-2.331447 2.519531,-4.070312 -8.5e-5,-0.160903 -0.0094,-0.318328 -0.02539,-0.47461 -3.31e-4,-0.0032 3.36e-4,-0.0065 0,-0.0098 -0.0049,-0.04768 -0.01521,-0.09337 -0.02148,-0.140625 -0.01297,-0.09558 -0.02622,-0.191639 -0.04492,-0.285156 -0.02478,-0.126724 -0.05518,-0.252053 -0.08984,-0.375 -0.0027,-0.0097 -0.005,-0.01965 -0.0078,-0.0293 -4.13e-4,-0.0014 -0.0015,-0.0025 -0.002,-0.0039 -0.529724,-1.827574 -2.123743,-3.207059 -4.066406,-3.410156 v -0.02734 z m -0.0078,1.001954 h 0.0078 c 1.040428,0 1.979415,0.41822 2.658203,1.097656 0.254156,0.254398 0.473584,0.54431 0.646484,0.863281 2.66e-4,4.89e-4 -2.65e-4,0.0015 0,0.002 0.115352,0.213032 0.210276,0.440188 0.283203,0.675781 0.109392,0.353391 0.167969,0.72898 0.167969,1.119141 0.0052,1.506464 -0.893765,2.864361 -2.28125,3.451172 l -0.410156,0.173828 2.525391,8.646484 h -7.181641 l 2.523437,-8.642578 -0.412109,-0.173828 c -1.388493,-0.586339 -2.285099,-1.947871 -2.279297,-3.455078 v -0.0039 c -1.21e-4,-0.390592 0.05832,-0.765601 0.167969,-1.119141 0.0363,-0.117239 0.07787,-0.231793 0.125,-0.34375 2.29e-4,-5.42e-4 -2.29e-4,-0.0014 0,-0.002 0.04719,-0.111947 0.100805,-0.220125 0.158203,-0.326172 2.66e-4,-4.9e-4 -2.66e-4,-0.0015 0,-0.002 0.05746,-0.106041 0.120441,-0.209072 0.1875,-0.308594 2.94e-4,-4.35e-4 -2.94e-4,-0.0015 0,-0.002 0.06661,-0.09876 0.139376,-0.193422 0.214844,-0.285156 8.9e-4,-0.0011 0.0011,-0.0028 0.002,-0.0039 0.06854,-0.08312 0.141447,-0.161418 0.216797,-0.238282 0.008,-0.0082 0.01532,-0.01727 0.02344,-0.02539 l 0.002,-0.002 c 0.678316,-0.677446 1.615856,-1.094347 2.654297,-1.095703 z" />
  </g>
</svg>
