<?xml version="1.0" encoding="UTF-8" standalone="no"?>
<svg
   width="44.204708"
   height="42.907318"
   version="1.1"
   viewBox="0 0 11.695598 11.352338"
   id="svg10"
   xmlns:xlink="http://www.w3.org/1999/xlink"
   xmlns="http://www.w3.org/2000/svg"
   xmlns:svg="http://www.w3.org/2000/svg"
   xmlns:rdf="http://www.w3.org/1999/02/22-rdf-syntax-ns#"
   xmlns:cc="http://creativecommons.org/ns#"
   xmlns:dc="http://purl.org/dc/elements/1.1/">
  <defs
     id="defs4">
    <linearGradient
       id="linearGradient5">
      <stop
         style="stop-color:#00abff;stop-opacity:0;"
         offset="0"
         id="stop6" />
      <stop
         style="stop-color:#00abff;stop-opacity:1;"
         offset="1"
         id="stop5" />
    </linearGradient>
    <style
       type="text/css"
       id="style2" />
    <style
       type="text/css"
       id="style918" />
    <linearGradient
       xlink:href="#linearGradient5"
       id="linearGradient6"
       x1="8.5342855"
       y1="14.767025"
       x2="8.5342855"
       y2="7.1420369"
       gradientUnits="userSpaceOnUse" />
    <filter
       style="color-interpolation-filters:sRGB"
       id="filter6"
       x="-0.026582717"
       y="-0.027430594"
       width="1.0531654"
       height="1.0548612">
      <feGaussianBlur
         stdDeviation="0.13239921"
         id="feGaussianBlur6" />
    </filter>
  </defs>
  <metadata
     id="metadata6">
    <rdf:RDF>
      <cc:Work
         rdf:about="">
        <dc:format>image/svg+xml</dc:format>
        <dc:type
           rdf:resource="http://purl.org/dc/dcmitype/StillImage" />
        <dc:title />
      </cc:Work>
    </rdf:RDF>
  </metadata>
  <g
     id="g6"
     transform="matrix(0.92902748,0,0,0.92902748,0.09021231,0.0902123)">
    <path
       id="path2"
       style="display:inline;opacity:0.6;fill:#00abff;fill-opacity:1;stroke:none;stroke-linecap:round;stroke-linejoin:round;stroke-opacity:1;paint-order:stroke fill markers;filter:url(#filter6)"
       d="m 3.7967302,2.8748409 c -0.6657403,0 -1.2071377,0.5413975 -1.2071376,1.2071376 v 7.1875335 c 0,0.665741 0.5413975,1.207138 1.2071376,1.207138 h 4.6838595 c 0.095095,0.0017 0.1745367,-0.05861 0.2051514,-0.134873 0.030615,-0.07626 0.015124,-0.175793 -0.054776,-0.240291 -0.067368,-0.06469 -0.1268932,-0.136037 -0.1798304,-0.212903 -0.040807,-0.05813 -0.1088795,-0.09197 -0.1798305,-0.09147 h -4.474574 c -0.296437,0 -0.5270892,-0.231168 -0.5270892,-0.527606 V 4.0819785 c 0,-0.2964366 0.2306526,-0.5255389 0.5270892,-0.5255389 h 9.4162938 c 0.296436,0 0.527089,0.2291946 0.527089,0.5255389 v 3.8751393 c 3.95e-4,0.06845 0.03265,0.1331522 0.08785,0.1736294 0.02625,0.019752 0.04744,0.033963 0.05684,0.04134 0.05406,0.042349 0.103929,0.094304 0.154509,0.1539928 0.06187,0.074219 0.161571,0.092998 0.239774,0.064594 0.0782,-0.028404 0.142807,-0.1064609 0.142624,-0.2030844 V 4.0819785 c 2e-6,-0.6657921 -0.542949,-1.2071376 -1.208688,-1.2071376 z m 1.9827857,2.4788696 c -0.254452,0 -0.4671458,0.2074171 -0.4671458,0.4624949 v 4.4611386 c 0,0.255077 0.2120673,0.466629 0.4671458,0.466629 0.2550783,0 0.4624949,-0.212178 0.4624949,-0.466629 V 5.8162054 c 0,-0.2544518 -0.2080431,-0.4624949 -0.4624949,-0.4624949 z m -1.24021,0.9921679 c -0.2544519,0 -0.4630116,0.2080432 -0.4630117,0.462495 v 3.4689706 c 0,0.254451 0.2079334,0.466629 0.4630117,0.466629 0.2550785,0 0.464562,-0.211552 0.464562,-0.466629 V 6.8083734 c 0,-0.2550778 -0.2101099,-0.462495 -0.464562,-0.462495 z m 2.4783529,1.4861849 c -0.2544518,0 -0.4650787,0.2084032 -0.4650787,0.4630117 v 1.982269 c 0,0.254608 0.2100003,0.466629 0.4650787,0.466629 0.2550783,0 0.4645619,-0.211708 0.4645619,-0.466629 V 8.295075 c 0,-0.2549218 -0.2101102,-0.4630116 -0.4645619,-0.4630117 z m 3.9102782,0.4356238 c -0.0909,8.6e-6 -0.182369,0.015726 -0.267678,0.050642 -0.240799,0.098596 -0.466,0.2326362 -0.6702304,0.3927331 -0.2184058,0.1711284 -0.3214565,0.4589936 -0.241841,0.7322406 0.03093,0.1061664 0.022454,0.2170524 -0.037206,0.3203876 -0.059289,0.102689 -0.1491651,0.1686027 -0.2521763,0.195333 -0.2752005,0.071422 -0.4862046,0.3021096 -0.5250222,0.5880666 -0.017305,0.127644 -0.023798,0.255399 -0.023771,0.382398 0,0.128502 0.00657,0.254647 0.023771,0.380847 0.038815,0.285959 0.2495153,0.518624 0.5250222,0.590134 0.1039134,0.02696 0.1931109,0.09096 0.2521761,0.193266 0.060131,0.104145 0.068326,0.211504 0.037206,0.31832 -0.079641,0.273388 0.022818,0.562674 0.241841,0.734308 0.1985146,0.155536 0.4191306,0.286327 0.6562776,0.384982 H 5.5314739 c -0.2544515,0 -0.4630117,0.208558 -0.4630117,0.463011 0,0.254451 0.2079339,0.464561 0.4630117,0.464562 h 5.9468071 c 0.255078,0 0.463011,-0.210111 0.463011,-0.464562 0,-0.254453 -0.20856,-0.463011 -0.463011,-0.463011 h -0.411854 c 0.132205,-0.02958 0.269813,-0.05538 0.367413,-0.15451 0.07575,-0.07693 0.175313,-0.122987 0.292482,-0.122987 0.117374,0 0.214958,0.04527 0.29145,0.122987 0.135304,0.137425 0.319005,0.212903 0.507452,0.212903 0.09167,7e-6 0.182883,-0.01593 0.267679,-0.05064 0.241048,-0.09869 0.466324,-0.232872 0.67023,-0.392733 0.218693,-0.17132 0.321618,-0.46035 0.241841,-0.734308 -0.03105,-0.106584 -0.02301,-0.213982 0.03721,-0.31832 0.05918,-0.102491 0.148311,-0.166317 0.252176,-0.193266 0.275572,-0.07151 0.486163,-0.304269 0.525023,-0.590134 0.01726,-0.127294 0.02379,-0.25361 0.02377,-0.380847 0,-0.129018 -0.0067,-0.256774 -0.02377,-0.382398 -0.03887,-0.285846 -0.249747,-0.51665 -0.525027,-0.5880686 C 13.891411,9.9323134 13.801584,9.8665688 13.74218,9.7636903 13.68242,9.6601568 13.674114,9.5491914 13.704974,9.4433027 13.784704,9.1694953 13.68119,8.881885 13.463133,8.7110621 13.259229,8.5512085 13.033949,8.4170228 12.792903,8.318329 12.707463,8.283365 12.616143,8.267691 12.525224,8.267687 c -0.152667,0 -0.276856,0.073761 -0.382398,0.1493419 -0.04712,0.00704 -0.09154,0.029341 -0.125054,0.063561 -0.07575,0.07695 -0.172559,0.1188534 -0.29145,0.1188534 -0.118698,0 -0.217493,-0.042688 -0.292482,-0.1188534 C 11.299169,8.3437645 11.116311,8.2676871 10.927937,8.2676871 Z m 0,0.6774646 c 8.92e-4,0 0.01322,0.0038 0.02119,0.011885 0.19765,0.2007471 0.473946,0.3260718 0.777198,0.3260718 0.303245,0 0.581818,-0.1249674 0.779782,-0.3260718 0.0099,-0.010028 0.01817,-0.011885 0.01912,-0.011885 -0.0026,-10e-8 0.0044,0.00193 0.0098,0.00413 0.182334,0.074654 0.355124,0.1736215 0.510036,0.2950666 0.0082,0.00639 0.006,0.00872 0.0057,0.00982 -0.0804,0.2759029 -0.05247,0.5838138 0.101801,0.8510947 0.151219,0.261889 0.395965,0.441076 0.669713,0.512103 0.01912,0.005 0.01995,0.0063 0.0217,0.01912 0.013,0.09595 0.01912,0.195247 0.01912,0.293 2.1e-5,0.09623 -0.0059,0.194131 -0.01912,0.291449 -0.0018,0.01313 -0.002,0.01402 -0.0217,0.01912 -0.273741,0.07103 -0.518492,0.250205 -0.669713,0.512103 -0.153846,0.266539 -0.181376,0.574417 -0.101801,0.849544 3.27e-4,0.0011 0.0025,0.0034 -0.0057,0.0098 a 0.0926116,0.0926116 0 0 0 0,0.0021 c -4.45e-4,3.49e-4 -0.0016,-3.48e-4 -0.0021,0 -0.154175,0.120659 -0.325629,0.218344 -0.507969,0.293 -0.0054,0.0022 -0.01158,0.0036 -0.0098,0.0036 -0.0081,0 -0.01192,-0.0019 -0.01964,-0.0098 -0.198253,-0.201403 -0.476543,-0.324005 -0.779266,-0.324005 -0.302735,0 -0.579263,0.12297 -0.777198,0.324005 -0.0059,0.006 -0.0129,0.0098 -0.02119,0.0098 0.0016,0 -0.0048,-0.0016 -0.0098,-0.0036 -0.183538,-0.07509 -0.356082,-0.174444 -0.510036,-0.295067 -0.0095,-0.0075 -0.0044,-0.0052 -0.0036,-0.0078 0.08036,-0.275859 0.05034,-0.584532 -0.103867,-0.851611 -0.151214,-0.261917 -0.3959785,-0.440561 -0.6697135,-0.511586 -0.019169,-0.005 -0.020031,-0.0073 -0.021704,-0.01964 -0.012993,-0.09535 -0.021187,-0.192718 -0.021187,-0.290933 -2.08e-5,-0.09663 0.00804,-0.194587 0.021187,-0.291449 0.00163,-0.01201 0.00306,-0.01636 0.021704,-0.02119 0.2738487,-0.07106 0.5185255,-0.249727 0.6697135,-0.511586 0.154292,-0.2672434 0.184265,-0.5756566 0.103867,-0.8516117 -5.62e-4,-0.00193 -0.0046,-0.0034 0.0036,-0.00982 0.155028,-0.1215264 0.327828,-0.2204612 0.510036,-0.2950666 0.0053,-0.00217 0.01231,-0.00413 0.0098,-0.00413 z m 0.798385,0.7053694 c -0.70312,0 -1.276899,0.5760899 -1.276899,1.2789669 0,0.70285 0.573968,1.277416 1.276899,1.277416 0.702945,0 1.279484,-0.574315 1.279484,-1.277416 -10e-7,-0.703128 -0.576351,-1.2789669 -1.279484,-1.2789669 z m 0,0.6774649 c 0.333814,0 0.599952,0.267351 0.599952,0.601502 0,0.334153 -0.265089,0.597884 -0.599952,0.597884 -0.334837,0 -0.599434,-0.263647 -0.599434,-0.597884 0,-0.334235 0.265647,-0.601502 0.599434,-0.601502 z"
       transform="translate(-2.3689385,-2.6541868)" />
    <path
       id="path4"
       style="fill:url(#linearGradient6);fill-opacity:1;stroke:none;stroke-linecap:round;stroke-linejoin:round;stroke-opacity:1;paint-order:stroke fill markers"
       d="m 3.7967302,2.8748409 c -0.6657403,0 -1.2071377,0.5413975 -1.2071376,1.2071376 v 7.1875335 c 0,0.665741 0.5413975,1.207138 1.2071376,1.207138 h 4.6838595 c 0.095095,0.0017 0.1745367,-0.05861 0.2051514,-0.134873 0.030615,-0.07626 0.015124,-0.175793 -0.054776,-0.240291 -0.067368,-0.06469 -0.1268932,-0.136037 -0.1798304,-0.212903 -0.040807,-0.05813 -0.1088795,-0.09197 -0.1798305,-0.09147 h -4.474574 c -0.296437,0 -0.5270892,-0.231168 -0.5270892,-0.527606 V 4.0819785 c 0,-0.2964366 0.2306526,-0.5255389 0.5270892,-0.5255389 h 9.4162938 c 0.296436,0 0.527089,0.2291946 0.527089,0.5255389 v 3.8751393 c 3.95e-4,0.06845 0.03265,0.1331522 0.08785,0.1736294 0.02625,0.019752 0.04744,0.033963 0.05684,0.04134 0.05406,0.042349 0.103929,0.094304 0.154509,0.1539928 0.06187,0.074219 0.161571,0.092998 0.239774,0.064594 0.0782,-0.028404 0.142807,-0.1064609 0.142624,-0.2030844 V 4.0819785 c 2e-6,-0.6657921 -0.542949,-1.2071376 -1.208688,-1.2071376 z m 1.9827857,2.4788696 c -0.254452,0 -0.4671458,0.2074171 -0.4671458,0.4624949 v 4.4611386 c 0,0.255077 0.2120673,0.466629 0.4671458,0.466629 0.2550783,0 0.4624949,-0.212178 0.4624949,-0.466629 V 5.8162054 c 0,-0.2544518 -0.2080431,-0.4624949 -0.4624949,-0.4624949 z m -1.24021,0.9921679 c -0.2544519,0 -0.4630116,0.2080432 -0.4630117,0.462495 v 3.4689706 c 0,0.254451 0.2079334,0.466629 0.4630117,0.466629 0.2550785,0 0.464562,-0.211552 0.464562,-0.466629 V 6.8083734 c 0,-0.2550778 -0.2101099,-0.462495 -0.464562,-0.462495 z m 2.4783529,1.4861849 c -0.2544518,0 -0.4650787,0.2084032 -0.4650787,0.4630117 v 1.982269 c 0,0.254608 0.2100003,0.466629 0.4650787,0.466629 0.2550783,0 0.4645619,-0.211708 0.4645619,-0.466629 V 8.295075 c 0,-0.2549218 -0.2101102,-0.4630116 -0.4645619,-0.4630117 z m 3.9102782,0.4356238 c -0.0909,8.6e-6 -0.182369,0.015726 -0.267678,0.050642 -0.240799,0.098596 -0.466,0.2326362 -0.6702304,0.3927331 -0.2184058,0.1711284 -0.3214565,0.4589936 -0.241841,0.7322406 0.03093,0.1061664 0.022454,0.2170524 -0.037206,0.3203876 -0.059289,0.102689 -0.1491651,0.1686027 -0.2521763,0.195333 -0.2752005,0.071422 -0.4862046,0.3021096 -0.5250222,0.5880666 -0.017305,0.127644 -0.023798,0.255399 -0.023771,0.382398 0,0.128502 0.00657,0.254647 0.023771,0.380847 0.038815,0.285959 0.2495153,0.518624 0.5250222,0.590134 0.1039134,0.02696 0.1931109,0.09096 0.2521761,0.193266 0.060131,0.104145 0.068326,0.211504 0.037206,0.31832 -0.079641,0.273388 0.022818,0.562674 0.241841,0.734308 0.1985146,0.155536 0.4191306,0.286327 0.6562776,0.384982 H 5.5314739 c -0.2544515,0 -0.4630117,0.208558 -0.4630117,0.463011 0,0.254451 0.2079339,0.464561 0.4630117,0.464562 h 5.9468071 c 0.255078,0 0.463011,-0.210111 0.463011,-0.464562 0,-0.254453 -0.20856,-0.463011 -0.463011,-0.463011 h -0.411854 c 0.132205,-0.02958 0.269813,-0.05538 0.367413,-0.15451 0.07575,-0.07693 0.175313,-0.122987 0.292482,-0.122987 0.117374,0 0.214958,0.04527 0.29145,0.122987 0.135304,0.137425 0.319005,0.212903 0.507452,0.212903 0.09167,7e-6 0.182883,-0.01593 0.267679,-0.05064 0.241048,-0.09869 0.466324,-0.232872 0.67023,-0.392733 0.218693,-0.17132 0.321618,-0.46035 0.241841,-0.734308 -0.03105,-0.106584 -0.02301,-0.213982 0.03721,-0.31832 0.05918,-0.102491 0.148311,-0.166317 0.252176,-0.193266 0.275572,-0.07151 0.486163,-0.304269 0.525023,-0.590134 0.01726,-0.127294 0.02379,-0.25361 0.02377,-0.380847 0,-0.129018 -0.0067,-0.256774 -0.02377,-0.382398 -0.03887,-0.285846 -0.249747,-0.51665 -0.525027,-0.5880686 C 13.891411,9.9323134 13.801584,9.8665688 13.74218,9.7636903 13.68242,9.6601568 13.674114,9.5491914 13.704974,9.4433027 13.784704,9.1694953 13.68119,8.881885 13.463133,8.7110621 13.259229,8.5512085 13.033949,8.4170228 12.792903,8.318329 12.707463,8.283365 12.616143,8.267691 12.525224,8.267687 c -0.152667,0 -0.276856,0.073761 -0.382398,0.1493419 -0.04712,0.00704 -0.09154,0.029341 -0.125054,0.063561 -0.07575,0.07695 -0.172559,0.1188534 -0.29145,0.1188534 -0.118698,0 -0.217493,-0.042688 -0.292482,-0.1188534 C 11.299169,8.3437645 11.116311,8.2676871 10.927937,8.2676871 Z m 0,0.6774646 c 8.92e-4,0 0.01322,0.0038 0.02119,0.011885 0.19765,0.2007471 0.473946,0.3260718 0.777198,0.3260718 0.303245,0 0.581818,-0.1249674 0.779782,-0.3260718 0.0099,-0.010028 0.01817,-0.011885 0.01912,-0.011885 -0.0026,-10e-8 0.0044,0.00193 0.0098,0.00413 0.182334,0.074654 0.355124,0.1736215 0.510036,0.2950666 0.0082,0.00639 0.006,0.00872 0.0057,0.00982 -0.0804,0.2759029 -0.05247,0.5838138 0.101801,0.8510947 0.151219,0.261889 0.395965,0.441076 0.669713,0.512103 0.01912,0.005 0.01995,0.0063 0.0217,0.01912 0.013,0.09595 0.01912,0.195247 0.01912,0.293 2.1e-5,0.09623 -0.0059,0.194131 -0.01912,0.291449 -0.0018,0.01313 -0.002,0.01402 -0.0217,0.01912 -0.273741,0.07103 -0.518492,0.250205 -0.669713,0.512103 -0.153846,0.266539 -0.181376,0.574417 -0.101801,0.849544 3.27e-4,0.0011 0.0025,0.0034 -0.0057,0.0098 a 0.0926116,0.0926116 0 0 0 0,0.0021 c -4.45e-4,3.49e-4 -0.0016,-3.48e-4 -0.0021,0 -0.154175,0.120659 -0.325629,0.218344 -0.507969,0.293 -0.0054,0.0022 -0.01158,0.0036 -0.0098,0.0036 -0.0081,0 -0.01192,-0.0019 -0.01964,-0.0098 -0.198253,-0.201403 -0.476543,-0.324005 -0.779266,-0.324005 -0.302735,0 -0.579263,0.12297 -0.777198,0.324005 -0.0059,0.006 -0.0129,0.0098 -0.02119,0.0098 0.0016,0 -0.0048,-0.0016 -0.0098,-0.0036 -0.183538,-0.07509 -0.356082,-0.174444 -0.510036,-0.295067 -0.0095,-0.0075 -0.0044,-0.0052 -0.0036,-0.0078 0.08036,-0.275859 0.05034,-0.584532 -0.103867,-0.851611 -0.151214,-0.261917 -0.3959785,-0.440561 -0.6697135,-0.511586 -0.019169,-0.005 -0.020031,-0.0073 -0.021704,-0.01964 -0.012993,-0.09535 -0.021187,-0.192718 -0.021187,-0.290933 -2.08e-5,-0.09663 0.00804,-0.194587 0.021187,-0.291449 0.00163,-0.01201 0.00306,-0.01636 0.021704,-0.02119 0.2738487,-0.07106 0.5185255,-0.249727 0.6697135,-0.511586 0.154292,-0.2672434 0.184265,-0.5756566 0.103867,-0.8516117 -5.62e-4,-0.00193 -0.0046,-0.0034 0.0036,-0.00982 0.155028,-0.1215264 0.327828,-0.2204612 0.510036,-0.2950666 0.0053,-0.00217 0.01231,-0.00413 0.0098,-0.00413 z m 0.798385,0.7053694 c -0.70312,0 -1.276899,0.5760899 -1.276899,1.2789669 0,0.70285 0.573968,1.277416 1.276899,1.277416 0.702945,0 1.279484,-0.574315 1.279484,-1.277416 -10e-7,-0.703128 -0.576351,-1.2789669 -1.279484,-1.2789669 z m 0,0.6774649 c 0.333814,0 0.599952,0.267351 0.599952,0.601502 0,0.334153 -0.265089,0.597884 -0.599952,0.597884 -0.334837,0 -0.599434,-0.263647 -0.599434,-0.597884 0,-0.334235 0.265647,-0.601502 0.599434,-0.601502 z"
       transform="translate(-2.3689385,-2.6541868)" />
  </g>
</svg>
