<?xml version="1.0" encoding="UTF-8" standalone="no"?>
<svg
   width="48.482151"
   height="48.48996"
   version="1.1"
   viewBox="0 0 12.827317 12.829383"
   id="svg11"
   xmlns:xlink="http://www.w3.org/1999/xlink"
   xmlns="http://www.w3.org/2000/svg"
   xmlns:svg="http://www.w3.org/2000/svg"
   xmlns:rdf="http://www.w3.org/1999/02/22-rdf-syntax-ns#"
   xmlns:cc="http://creativecommons.org/ns#"
   xmlns:dc="http://purl.org/dc/elements/1.1/">
  <defs
     id="defs5">
    <linearGradient
       id="linearGradient12">
      <stop
         style="stop-color:#ff3dfb;stop-opacity:0;"
         offset="0"
         id="stop13" />
      <stop
         style="stop-color:#ff3dfb;stop-opacity:1;"
         offset="1"
         id="stop12" />
    </linearGradient>
    <linearGradient
       xlink:href="#linearGradient12"
       id="linearGradient13"
       x1="-9.8312569"
       y1="16.933001"
       x2="-9.8312569"
       y2="7.362174"
       gradientUnits="userSpaceOnUse" />
    <filter
       style="color-interpolation-filters:sRGB"
       id="filter13"
       x="-0.027002294"
       y="-0.026997709"
       width="1.0540046"
       height="1.0539954">
      <feGaussianBlur
         stdDeviation="0.13692499"
         id="feGaussianBlur13" />
    </filter>
  </defs>
  <metadata
     id="metadata5">
    <rdf:RDF>
      <cc:Work
         rdf:about="">
        <dc:format>image/svg+xml</dc:format>
        <dc:type
           rdf:resource="http://purl.org/dc/dcmitype/StillImage" />
      </cc:Work>
    </rdf:RDF>
  </metadata>
  <g
     id="g13"
     transform="translate(-2.0531,-2.0520664)">
    <path
       id="rect10"
       style="display:inline;opacity:0.6;fill:#ff3dfb;fill-opacity:1;stroke-linecap:round;paint-order:stroke fill markers;filter:url(#filter13)"
       d="m -14.816579,2.3806864 c -0.437444,0 -0.792701,0.3578408 -0.792701,0.7952846 v 10.582091 c 0,0.437443 0.355257,0.794768 0.792701,0.794768 h 10.5820912 c 0.4374438,0 0.7952847,-0.357325 0.7952847,-0.794768 V 3.175971 c 0,-0.4374438 -0.357841,-0.7952846 -0.7952847,-0.7952846 z m 0,0.2656116 h 10.5820912 c 0.2954429,0 0.5291563,0.2342301 0.5291563,0.529673 v 10.582091 c 0,0.295442 -0.2337135,0.529157 -0.5291563,0.529157 H -14.816579 c -0.295443,0 -0.529157,-0.233715 -0.529157,-0.529157 V 3.175971 c 0,-0.2954429 0.233714,-0.529673 0.529157,-0.529673 z m 3.70461,3.4389989 c -1.319196,0 -2.381203,1.0620072 -2.381203,2.3812031 0,1.3191959 1.062007,2.381203 2.381203,2.381203 h 3.1749378 c 1.3191958,0 2.3812031,-1.0620071 2.3812031,-2.381203 0,-1.3191959 -1.0620073,-2.3812031 -2.3812031,-2.3812031 z m 0,0.2645781 h 3.1749378 c 1.1726185,0 2.116625,0.9440064 2.116625,2.116625 0,1.1726186 -0.9440065,2.116625 -2.116625,2.116625 h -3.1749378 c -1.172618,0 -2.116625,-0.9440064 -2.116625,-2.116625 0,-1.1726186 0.944007,-2.116625 2.116625,-2.116625 z m 3.1749378,0.2645781 A 1.852,1.852 0 0 0 -9.7890781,8.4665 1.852,1.852 0 0 0 -7.9370312,10.318547 1.852,1.852 0 0 0 -6.0849844,8.4665 1.852,1.852 0 0 0 -7.9370312,6.6144531 Z"
       transform="translate(17.991)" />
    <path
       id="path12"
       style="fill:url(#linearGradient13);fill-opacity:1;stroke-linecap:round;paint-order:stroke fill markers"
       d="m -14.816579,2.3806864 c -0.437444,0 -0.792701,0.3578408 -0.792701,0.7952846 v 10.582091 c 0,0.437443 0.355257,0.794768 0.792701,0.794768 h 10.5820912 c 0.4374438,0 0.7952847,-0.357325 0.7952847,-0.794768 V 3.175971 c 0,-0.4374438 -0.357841,-0.7952846 -0.7952847,-0.7952846 z m 0,0.2656116 h 10.5820912 c 0.2954429,0 0.5291563,0.2342301 0.5291563,0.529673 v 10.582091 c 0,0.295442 -0.2337135,0.529157 -0.5291563,0.529157 H -14.816579 c -0.295443,0 -0.529157,-0.233715 -0.529157,-0.529157 V 3.175971 c 0,-0.2954429 0.233714,-0.529673 0.529157,-0.529673 z m 3.70461,3.4389989 c -1.319196,0 -2.381203,1.0620072 -2.381203,2.3812031 0,1.3191959 1.062007,2.381203 2.381203,2.381203 h 3.1749378 c 1.3191958,0 2.3812031,-1.0620071 2.3812031,-2.381203 0,-1.3191959 -1.0620073,-2.3812031 -2.3812031,-2.3812031 z m 0,0.2645781 h 3.1749378 c 1.1726185,0 2.116625,0.9440064 2.116625,2.116625 0,1.1726186 -0.9440065,2.116625 -2.116625,2.116625 h -3.1749378 c -1.172618,0 -2.116625,-0.9440064 -2.116625,-2.116625 0,-1.1726186 0.944007,-2.116625 2.116625,-2.116625 z m 3.1749378,0.2645781 A 1.852,1.852 0 0 0 -9.7890781,8.4665 1.852,1.852 0 0 0 -7.9370312,10.318547 1.852,1.852 0 0 0 -6.0849844,8.4665 1.852,1.852 0 0 0 -7.9370312,6.6144531 Z"
       transform="translate(17.991)" />
  </g>
</svg>
