<?xml version="1.0" encoding="UTF-8" standalone="no"?>
<svg
   width="48.490177"
   height="48.490177"
   version="1.1"
   id="svg61"
   xmlns:xlink="http://www.w3.org/1999/xlink"
   xmlns="http://www.w3.org/2000/svg"
   xmlns:svg="http://www.w3.org/2000/svg"
   xmlns:rdf="http://www.w3.org/1999/02/22-rdf-syntax-ns#"
   xmlns:cc="http://creativecommons.org/ns#"
   xmlns:dc="http://purl.org/dc/elements/1.1/">
  <metadata
     id="metadata2">
    <rdf:RDF>
      <cc:Work
         rdf:about="">
        <dc:format>image/svg+xml</dc:format>
        <dc:type
           rdf:resource="http://purl.org/dc/dcmitype/StillImage" />
        <dc:title />
      </cc:Work>
    </rdf:RDF>
  </metadata>
  <defs
     id="defs21">
    <linearGradient
       id="linearGradient1">
      <stop
         style="stop-color:#ff3dfb;stop-opacity:0;"
         offset="0"
         id="stop3" />
      <stop
         style="stop-color:#ff3dfb;stop-opacity:1;"
         offset="1"
         id="stop1" />
    </linearGradient>
    <style
       type="text/css"
       id="style4" />
    <style
       id="style872"
       type="text/css" />
    <style
       type="text/css"
       id="style4-5" />
    <style
       type="text/css"
       id="style6" />
    <style
       type="text/css"
       id="style8" />
    <style
       id="style872-0"
       type="text/css" />
    <style
       id="style874"
       type="text/css" />
    <style
       id="style876"
       type="text/css" />
    <style
       id="style4-9"
       type="text/css" />
    <style
       type="text/css"
       id="style872-2" />
    <style
       id="style4-5-5"
       type="text/css" />
    <style
       id="style6-9"
       type="text/css" />
    <style
       id="style8-2"
       type="text/css" />
    <style
       type="text/css"
       id="style872-0-29" />
    <style
       type="text/css"
       id="style874-3" />
    <style
       type="text/css"
       id="style876-1" />
    <style
       type="text/css"
       id="style872-06" />
    <style
       id="style4-8"
       type="text/css" />
    <style
       id="style6-7"
       type="text/css" />
    <style
       id="style8-9"
       type="text/css" />
    <style
       type="text/css"
       id="style872-0-2" />
    <style
       type="text/css"
       id="style874-2" />
    <style
       type="text/css"
       id="style876-8" />
    <style
       type="text/css"
       id="style853" />
    <style
       type="text/css"
       id="style863" />
    <style
       type="text/css"
       id="style865" />
    <style
       type="text/css"
       id="style867" />
    <style
       type="text/css"
       id="style869" />
    <style
       type="text/css"
       id="style871" />
    <style
       type="text/css"
       id="style873" />
    <style
       type="text/css"
       id="style875" />
    <style
       type="text/css"
       id="current-color-scheme">.ColorScheme-Text {
        color:#4d4d4d;
      }</style>
    <style
       id="style862"
       type="text/css">.ColorScheme-Text {
        color:#4d4d4d;
      }</style>
    <linearGradient
       xlink:href="#linearGradient1"
       id="linearGradient3"
       x1="8.599534"
       y1="16.933001"
       x2="8.599534"
       y2="7.3441277"
       gradientUnits="userSpaceOnUse" />
    <filter
       style="color-interpolation-filters:sRGB"
       id="filter3"
       x="-0.027000001"
       y="-0.027000001"
       width="1.054"
       height="1.054">
      <feGaussianBlur
         stdDeviation="0.13693662"
         id="feGaussianBlur3" />
    </filter>
  </defs>
  <g
     id="g1"
     transform="translate(-7.7558885,-7.7558885)">
    <path
       id="rect1193"
       style="display:inline;opacity:0.6;fill:#ff3dfb;fill-opacity:1;stroke:none;stroke-linecap:round;stroke-opacity:1;paint-order:stroke fill markers;filter:url(#filter3)"
       d="m 3.175971,2.3806863 c -0.4374405,0 -0.7952847,0.3578442 -0.7952847,0.7952847 v 10.582091 c 0,0.43744 0.3578441,0.794768 0.7952847,0.794768 h 10.582091 c 0.43744,0 0.794768,-0.357328 0.794768,-0.794768 V 3.175971 c 0,-0.4374406 -0.357328,-0.7952847 -0.794768,-0.7952847 z m 0,0.2656117 h 10.582091 c 0.295439,0 0.529157,0.2342323 0.529157,0.529673 v 10.582091 c 0,0.295439 -0.233718,0.529157 -0.529157,0.529157 H 3.175971 c -0.2954407,0 -0.529673,-0.233718 -0.529673,-0.529157 V 3.175971 c 0,-0.2954408 0.2342322,-0.529673 0.529673,-0.529673 z m 5.2905289,2.1161082 c -0.073288,0 -0.132289,0.059001 -0.132289,0.1322891 V 6.482164 c 0,0.073288 0.059001,0.1322891 0.132289,0.1322891 0.073288,0 0.1322891,-0.059001 0.1322891,-0.1322891 V 4.8946953 c 0,-0.073288 -0.059001,-0.1322891 -0.1322891,-0.1322891 z M 9.4586679,5.292596 A 0.13228906,0.13228906 0 0 0 9.3439485,5.358741 0.13228906,0.13228906 0 0 0 9.3925235,5.5396049 C 10.11902,5.9590475 10.472622,6.8128554 10.255503,7.6231571 10.038383,8.4334589 9.3053861,8.9956562 8.4664999,8.9956562 7.6276137,8.9956562 6.8946167,8.4334589 6.6774971,7.6231571 6.4603774,6.8128554 6.8139796,5.9590475 7.5404765,5.5396044 A 0.13228906,0.13228906 0 0 0 7.5890514,5.3587405 0.13228906,0.13228906 0 0 0 7.5084377,5.2972467 0.13228906,0.13228906 0 0 0 7.4081874,5.3106823 C 6.5790917,5.7893608 6.1744383,6.7666327 6.4222205,7.6913687 c 0.2477825,0.9247362 1.086922,1.5688656 2.0442794,1.5688656 0.9573574,0 1.7964971,-0.6441294 2.0442791,-1.5688656 C 10.758562,6.7666327 10.353908,5.7893608 9.5248124,5.3106823 A 0.13228906,0.13228906 0 0 0 9.4586679,5.292596 Z m -6.0191523,6.083747 v 2.117141 h 2.1171417 v -2.117141 z m 2.646298,0 v 2.117141 H 8.201405 v -2.117141 z m 2.6447477,0 v 2.117141 h 2.1171417 v -2.117141 z m 2.6462977,0 v 2.117141 h 2.117142 v -2.117141 z m -7.6737988,0.265611 h 1.5879855 v 1.585919 H 3.7030602 Z m 2.646298,0 h 1.5879855 v 1.585919 H 6.3493582 Z m 2.6468147,0 h 1.5879851 v 1.585919 H 8.9961729 Z m 2.6442311,0 h 1.587985 v 1.585919 h -1.587985 z"
       transform="scale(3.779602)" />
    <path
       id="path1"
       style="fill:url(#linearGradient3);fill-opacity:1;stroke:none;stroke-linecap:round;stroke-opacity:1;paint-order:stroke fill markers"
       d="m 3.175971,2.3806863 c -0.4374405,0 -0.7952847,0.3578442 -0.7952847,0.7952847 v 10.582091 c 0,0.43744 0.3578441,0.794768 0.7952847,0.794768 h 10.582091 c 0.43744,0 0.794768,-0.357328 0.794768,-0.794768 V 3.175971 c 0,-0.4374406 -0.357328,-0.7952847 -0.794768,-0.7952847 z m 0,0.2656117 h 10.582091 c 0.295439,0 0.529157,0.2342323 0.529157,0.529673 v 10.582091 c 0,0.295439 -0.233718,0.529157 -0.529157,0.529157 H 3.175971 c -0.2954407,0 -0.529673,-0.233718 -0.529673,-0.529157 V 3.175971 c 0,-0.2954408 0.2342322,-0.529673 0.529673,-0.529673 z m 5.2905289,2.1161082 c -0.073288,0 -0.132289,0.059001 -0.132289,0.1322891 V 6.482164 c 0,0.073288 0.059001,0.1322891 0.132289,0.1322891 0.073288,0 0.1322891,-0.059001 0.1322891,-0.1322891 V 4.8946953 c 0,-0.073288 -0.059001,-0.1322891 -0.1322891,-0.1322891 z M 9.4586679,5.292596 A 0.13228906,0.13228906 0 0 0 9.3439485,5.358741 0.13228906,0.13228906 0 0 0 9.3925235,5.5396049 C 10.11902,5.9590475 10.472622,6.8128554 10.255503,7.6231571 10.038383,8.4334589 9.3053861,8.9956562 8.4664999,8.9956562 7.6276137,8.9956562 6.8946167,8.4334589 6.6774971,7.6231571 6.4603774,6.8128554 6.8139796,5.9590475 7.5404765,5.5396044 A 0.13228906,0.13228906 0 0 0 7.5890514,5.3587405 0.13228906,0.13228906 0 0 0 7.5084377,5.2972467 0.13228906,0.13228906 0 0 0 7.4081874,5.3106823 C 6.5790917,5.7893608 6.1744383,6.7666327 6.4222205,7.6913687 c 0.2477825,0.9247362 1.086922,1.5688656 2.0442794,1.5688656 0.9573574,0 1.7964971,-0.6441294 2.0442791,-1.5688656 C 10.758562,6.7666327 10.353908,5.7893608 9.5248124,5.3106823 A 0.13228906,0.13228906 0 0 0 9.4586679,5.292596 Z m -6.0191523,6.083747 v 2.117141 h 2.1171417 v -2.117141 z m 2.646298,0 v 2.117141 H 8.201405 v -2.117141 z m 2.6447477,0 v 2.117141 h 2.1171417 v -2.117141 z m 2.6462977,0 v 2.117141 h 2.117142 v -2.117141 z m -7.6737988,0.265611 h 1.5879855 v 1.585919 H 3.7030602 Z m 2.646298,0 h 1.5879855 v 1.585919 H 6.3493582 Z m 2.6468147,0 h 1.5879851 v 1.585919 H 8.9961729 Z m 2.6442311,0 h 1.587985 v 1.585919 h -1.587985 z"
       transform="scale(3.779602)" />
  </g>
</svg>
