<?xml version="1.0" encoding="UTF-8" standalone="no"?>
<svg
   width="48.484001"
   height="48.484001"
   version="1.1"
   id="svg70"
   xmlns:xlink="http://www.w3.org/1999/xlink"
   xmlns="http://www.w3.org/2000/svg"
   xmlns:svg="http://www.w3.org/2000/svg"
   xmlns:rdf="http://www.w3.org/1999/02/22-rdf-syntax-ns#"
   xmlns:cc="http://creativecommons.org/ns#"
   xmlns:dc="http://purl.org/dc/elements/1.1/">
  <metadata
     id="metadata16">
    <rdf:RDF>
      <cc:Work
         rdf:about="">
        <dc:format>image/svg+xml</dc:format>
        <dc:type
           rdf:resource="http://purl.org/dc/dcmitype/StillImage" />
        <dc:title />
      </cc:Work>
    </rdf:RDF>
  </metadata>
  <defs
     id="defs60">
    <linearGradient
       id="linearGradient1">
      <stop
         style="stop-color:#ff3dfb;stop-opacity:0;"
         offset="0"
         id="stop2" />
      <stop
         style="stop-color:#ff3dfb;stop-opacity:1;"
         offset="1"
         id="stop1" />
    </linearGradient>
    <style
       type="text/css"
       id="style28" />
    <style
       type="text/css"
       id="style30" />
    <style
       type="text/css"
       id="style32" />
    <style
       type="text/css"
       id="style34" />
    <style
       type="text/css"
       id="style36" />
    <style
       type="text/css"
       id="style46" />
    <style
       type="text/css"
       id="style48" />
    <style
       type="text/css"
       id="style50" />
    <style
       type="text/css"
       id="style52" />
    <style
       type="text/css"
       id="style54" />
    <style
       type="text/css"
       id="style56" />
    <style
       type="text/css"
       id="style58" />
    <style
       type="text/css"
       id="style897" />
    <style
       type="text/css"
       id="style863" />
    <style
       type="text/css"
       id="style7" />
    <style
       type="text/css"
       id="style17" />
    <style
       type="text/css"
       id="style19" />
    <style
       type="text/css"
       id="style21" />
    <style
       type="text/css"
       id="style23" />
    <style
       type="text/css"
       id="style25" />
    <style
       type="text/css"
       id="style27" />
    <style
       type="text/css"
       id="style29" />
    <linearGradient
       xlink:href="#linearGradient1"
       id="linearGradient2"
       x1="-41.575214"
       y1="64"
       x2="-41.575214"
       y2="25"
       gradientUnits="userSpaceOnUse" />
    <filter
       style="color-interpolation-filters:sRGB"
       id="filter2"
       x="-0.026999999"
       y="-0.026999999"
       width="1.054"
       height="1.054">
      <feGaussianBlur
         stdDeviation="0.5175"
         id="feGaussianBlur3" />
    </filter>
  </defs>
  <g
     id="g3"
     transform="translate(-7.7580001,-7.7580001)">
    <path
       id="rect1035"
       style="display:inline;opacity:0.6;fill:#ff3dfb;fill-opacity:1;stroke-linecap:round;paint-order:stroke fill markers;filter:url(#filter2)"
       d="m -62.000004,9 c -2.207377,0 -4,1.792624 -4,4 v 38 c 0,2.207377 1.792623,4 4,4 h 24.302734 13.697266 c 2.207376,0 4,-1.792623 4,-4 V 13 c 0,-2.207376 -1.792624,-4 -4,-4 z m 0,1 h 38 c 1.670636,0 3,1.329364 3,3 v 38 c 0,1.670637 -1.329364,3 -3,3 H -37.10352 c -0.133279,-0.217533 -0.371572,-0.411295 -0.634765,-0.523438 l -5.242188,-2.138671 -2.042969,-3.22461 c -0.30656,-0.448177 -0.520631,-0.934162 -0.65039,-1.4375 -0.129761,-0.503338 -0.175183,-1.024501 -0.136719,-1.537109 0.03846,-0.512608 0.159311,-1.018152 0.357422,-1.494141 0.198111,-0.475988 0.475038,-0.922927 0.824219,-1.316406 l 0.283203,-0.345703 2.517578,4.357422 0.878906,-0.507813 -7.691406,-13.324219 c -0.325563,-0.563687 -0.362052,-1.189434 -0.179688,-1.753906 0.182366,-0.564472 0.58456,-1.067553 1.13086,-1.382812 0.555111,-0.320345 1.185287,-0.385418 1.757812,-0.232422 0.572524,0.152995 1.08583,0.524836 1.40625,1.080078 l 3.427735,5.9375 c 0.120861,0.209223 0.294558,0.352671 0.498047,0.435547 0.203489,0.08288 0.43539,0.103827 0.677734,0.06445 l 1.830078,-0.431641 -0.275391,-0.96875 -0.541015,0.109375 c -0.394972,0.10475 -0.804115,0.06483 -1.169922,-0.09375 -0.375449,-0.16276 -0.704192,-0.448853 -0.921875,-0.826172 L -41.833988,33 h 5.333984 c 0.277,0 0.5,-0.223 0.5,-0.5 0,-0.277 -0.223,-0.5 -0.5,-0.5 h -5.912109 l -1.335938,-2.316406 C -43.895972,29.427372 -44.071629,29.200389 -44.265629,29 h 3.765625 c 0.277,0 0.5,-0.223 0.5,-0.5 0,-0.277 -0.223,-0.5 -0.5,-0.5 h -16.792969 l 2.681641,-2.681641 c 0.195868,-0.195868 0.195868,-0.511162 0,-0.707031 -0.195869,-0.195868 -0.511163,-0.195868 -0.707031,0 l -3.535157,3.535156 c -0.04371,0.04371 -0.07736,0.09352 -0.101562,0.146485 -0.0049,0.0107 -0.0076,0.02211 -0.01172,0.0332 -0.0061,0.0163 -0.01131,0.0321 -0.01563,0.04883 -0.0032,0.01237 -0.0075,0.02438 -0.0098,0.03711 -0.01073,0.06046 -0.0098,0.123282 0.002,0.183594 0.0019,0.0101 0.0053,0.01942 0.0078,0.0293 0.0055,0.02137 0.01113,0.04185 0.01953,0.0625 0.0026,0.0066 0.0049,0.0131 0.0078,0.01953 0.0242,0.05296 0.05785,0.102772 0.101562,0.146485 l 3.535157,3.535156 c 0.195868,0.195868 0.511162,0.195868 0.707031,0 0.195868,-0.195869 0.195868,-0.511163 0,-0.707031 L -57.292973,29 h 8.291016 c -0.110968,0.109152 -0.21569,0.222906 -0.308594,0.34375 -0.264186,0.343639 -0.455029,0.730246 -0.564453,1.138672 -0.109425,0.408426 -0.139068,0.837901 -0.08203,1.267578 0.05704,0.429678 0.200352,0.860189 0.435547,1.267578 l 4.638671,8.03125 -0.521484,0.587891 -0.002,0.002 c -0.426353,0.49124 -0.759745,1.039333 -0.996094,1.617187 -0.236348,0.577853 -0.376994,1.186933 -0.419922,1.802735 -0.04293,0.615801 0.01211,1.238666 0.166016,1.84375 0.153909,0.605084 0.407557,1.19258 0.761719,1.738281 l 0.002,0.002 2.019531,3.195313 0.0059,0.0059 c 0.126267,0.218693 0.325708,0.359037 0.591797,0.535156 L -39.070317,54 h -22.929687 c -1.670637,0 -3,-1.329363 -3,-3 V 13 c 0,-1.670636 1.329363,-3 3,-3 z m 12.5,14 c -0.277,0 -0.5,0.223 -0.5,0.5 0,0.277 0.223,0.5 0.5,0.5 h 10 c 0.277,0 0.5,-0.223 0.5,-0.5 0,-0.277 -0.223,-0.5 -0.5,-0.5 z m 14,0 c -0.277,0 -0.5,0.223 -0.5,0.5 0,0.277 0.223,0.5 0.5,0.5 h 6 c 0.277,0 0.5,-0.223 0.5,-0.5 0,-0.277 -0.223,-0.5 -0.5,-0.5 z m 7.240234,8.863281 c -0.05928,0.0025 -0.120883,0.0095 -0.18164,0.01953 h -0.002 l -2.285157,0.529297 0.298828,1.013672 0.945313,-0.24414 c 0.404796,-0.115876 0.827753,-0.07694 1.203125,0.08594 0.375373,0.162874 0.704192,0.450808 0.921875,0.828125 l 2.898437,5.021485 c 0.217018,0.375869 0.341447,0.801146 0.285157,1.267578 l -0.002,0.0098 -0.695313,4.25586 0.01367,-0.04883 0.859375,1.490235 0.554687,-0.320313 -0.123046,-0.210937 c -0.217452,-0.376579 -0.339485,-0.80219 -0.283204,-1.267578 v -0.0059 l 0.673829,-4.335937 c -0.01986,-0.320088 -0.03966,-0.564325 -0.166016,-0.783203 l -3.916016,-6.783203 c -0.121222,-0.210117 -0.295925,-0.356628 -0.5,-0.439454 -0.153056,-0.06212 -0.322153,-0.08945 -0.5,-0.08203 z m -5.464843,1.279297 -1.619141,0.363281 0.242187,0.986329 1.619141,-0.363282 z"
       transform="translate(75.000004)" />
    <path
       id="path1"
       style="fill:url(#linearGradient2);fill-opacity:1;stroke-linecap:round;paint-order:stroke fill markers"
       d="m -62.000004,9 c -2.207377,0 -4,1.792624 -4,4 v 38 c 0,2.207377 1.792623,4 4,4 h 24.302734 13.697266 c 2.207376,0 4,-1.792623 4,-4 V 13 c 0,-2.207376 -1.792624,-4 -4,-4 z m 0,1 h 38 c 1.670636,0 3,1.329364 3,3 v 38 c 0,1.670637 -1.329364,3 -3,3 H -37.10352 c -0.133279,-0.217533 -0.371572,-0.411295 -0.634765,-0.523438 l -5.242188,-2.138671 -2.042969,-3.22461 c -0.30656,-0.448177 -0.520631,-0.934162 -0.65039,-1.4375 -0.129761,-0.503338 -0.175183,-1.024501 -0.136719,-1.537109 0.03846,-0.512608 0.159311,-1.018152 0.357422,-1.494141 0.198111,-0.475988 0.475038,-0.922927 0.824219,-1.316406 l 0.283203,-0.345703 2.517578,4.357422 0.878906,-0.507813 -7.691406,-13.324219 c -0.325563,-0.563687 -0.362052,-1.189434 -0.179688,-1.753906 0.182366,-0.564472 0.58456,-1.067553 1.13086,-1.382812 0.555111,-0.320345 1.185287,-0.385418 1.757812,-0.232422 0.572524,0.152995 1.08583,0.524836 1.40625,1.080078 l 3.427735,5.9375 c 0.120861,0.209223 0.294558,0.352671 0.498047,0.435547 0.203489,0.08288 0.43539,0.103827 0.677734,0.06445 l 1.830078,-0.431641 -0.275391,-0.96875 -0.541015,0.109375 c -0.394972,0.10475 -0.804115,0.06483 -1.169922,-0.09375 -0.375449,-0.16276 -0.704192,-0.448853 -0.921875,-0.826172 L -41.833988,33 h 5.333984 c 0.277,0 0.5,-0.223 0.5,-0.5 0,-0.277 -0.223,-0.5 -0.5,-0.5 h -5.912109 l -1.335938,-2.316406 C -43.895972,29.427372 -44.071629,29.200389 -44.265629,29 h 3.765625 c 0.277,0 0.5,-0.223 0.5,-0.5 0,-0.277 -0.223,-0.5 -0.5,-0.5 h -16.792969 l 2.681641,-2.681641 c 0.195868,-0.195868 0.195868,-0.511162 0,-0.707031 -0.195869,-0.195868 -0.511163,-0.195868 -0.707031,0 l -3.535157,3.535156 c -0.04371,0.04371 -0.07736,0.09352 -0.101562,0.146485 -0.0049,0.0107 -0.0076,0.02211 -0.01172,0.0332 -0.0061,0.0163 -0.01131,0.0321 -0.01563,0.04883 -0.0032,0.01237 -0.0075,0.02438 -0.0098,0.03711 -0.01073,0.06046 -0.0098,0.123282 0.002,0.183594 0.0019,0.0101 0.0053,0.01942 0.0078,0.0293 0.0055,0.02137 0.01113,0.04185 0.01953,0.0625 0.0026,0.0066 0.0049,0.0131 0.0078,0.01953 0.0242,0.05296 0.05785,0.102772 0.101562,0.146485 l 3.535157,3.535156 c 0.195868,0.195868 0.511162,0.195868 0.707031,0 0.195868,-0.195869 0.195868,-0.511163 0,-0.707031 L -57.292973,29 h 8.291016 c -0.110968,0.109152 -0.21569,0.222906 -0.308594,0.34375 -0.264186,0.343639 -0.455029,0.730246 -0.564453,1.138672 -0.109425,0.408426 -0.139068,0.837901 -0.08203,1.267578 0.05704,0.429678 0.200352,0.860189 0.435547,1.267578 l 4.638671,8.03125 -0.521484,0.587891 -0.002,0.002 c -0.426353,0.49124 -0.759745,1.039333 -0.996094,1.617187 -0.236348,0.577853 -0.376994,1.186933 -0.419922,1.802735 -0.04293,0.615801 0.01211,1.238666 0.166016,1.84375 0.153909,0.605084 0.407557,1.19258 0.761719,1.738281 l 0.002,0.002 2.019531,3.195313 0.0059,0.0059 c 0.126267,0.218693 0.325708,0.359037 0.591797,0.535156 L -39.070317,54 h -22.929687 c -1.670637,0 -3,-1.329363 -3,-3 V 13 c 0,-1.670636 1.329363,-3 3,-3 z m 12.5,14 c -0.277,0 -0.5,0.223 -0.5,0.5 0,0.277 0.223,0.5 0.5,0.5 h 10 c 0.277,0 0.5,-0.223 0.5,-0.5 0,-0.277 -0.223,-0.5 -0.5,-0.5 z m 14,0 c -0.277,0 -0.5,0.223 -0.5,0.5 0,0.277 0.223,0.5 0.5,0.5 h 6 c 0.277,0 0.5,-0.223 0.5,-0.5 0,-0.277 -0.223,-0.5 -0.5,-0.5 z m 7.240234,8.863281 c -0.05928,0.0025 -0.120883,0.0095 -0.18164,0.01953 h -0.002 l -2.285157,0.529297 0.298828,1.013672 0.945313,-0.24414 c 0.404796,-0.115876 0.827753,-0.07694 1.203125,0.08594 0.375373,0.162874 0.704192,0.450808 0.921875,0.828125 l 2.898437,5.021485 c 0.217018,0.375869 0.341447,0.801146 0.285157,1.267578 l -0.002,0.0098 -0.695313,4.25586 0.01367,-0.04883 0.859375,1.490235 0.554687,-0.320313 -0.123046,-0.210937 c -0.217452,-0.376579 -0.339485,-0.80219 -0.283204,-1.267578 v -0.0059 l 0.673829,-4.335937 c -0.01986,-0.320088 -0.03966,-0.564325 -0.166016,-0.783203 l -3.916016,-6.783203 c -0.121222,-0.210117 -0.295925,-0.356628 -0.5,-0.439454 -0.153056,-0.06212 -0.322153,-0.08945 -0.5,-0.08203 z m -5.464843,1.279297 -1.619141,0.363281 0.242187,0.986329 1.619141,-0.363282 z"
       transform="translate(75.000004)" />
  </g>
</svg>
