<?xml version="1.0" encoding="UTF-8" standalone="no"?>
<svg
   width="46.047321"
   height="46.047321"
   version="1.1"
   id="svg34"
   xmlns:xlink="http://www.w3.org/1999/xlink"
   xmlns="http://www.w3.org/2000/svg"
   xmlns:svg="http://www.w3.org/2000/svg"
   xmlns:rdf="http://www.w3.org/1999/02/22-rdf-syntax-ns#"
   xmlns:cc="http://creativecommons.org/ns#"
   xmlns:dc="http://purl.org/dc/elements/1.1/">
  <metadata
     id="metadata38">
    <rdf:RDF>
      <cc:Work
         rdf:about="">
        <dc:format>image/svg+xml</dc:format>
        <dc:type
           rdf:resource="http://purl.org/dc/dcmitype/StillImage" />
        <dc:title />
      </cc:Work>
    </rdf:RDF>
  </metadata>
  <defs
     id="defs18">
    <linearGradient
       id="linearGradient2">
      <stop
         style="stop-color:#00abff;stop-opacity:0;"
         offset="0"
         id="stop4" />
      <stop
         style="stop-color:#00abff;stop-opacity:1;"
         offset="1"
         id="stop2" />
    </linearGradient>
    <style
       id="style4"
       type="text/css" />
    <style
       id="style6"
       type="text/css" />
    <style
       id="style8"
       type="text/css" />
    <style
       type="text/css"
       id="style1078" />
    <style
       type="text/css"
       id="style1080" />
    <style
       id="style14"
       type="text/css" />
    <style
       id="style16"
       type="text/css" />
    <linearGradient
       xlink:href="#linearGradient2"
       id="linearGradient4"
       x1="23.725082"
       y1="48.319672"
       x2="23.725082"
       y2="20.495491"
       gradientUnits="userSpaceOnUse" />
    <filter
       style="color-interpolation-filters:sRGB"
       id="filter4"
       x="-0.026999999"
       y="-0.027"
       width="1.054"
       height="1.054">
      <feGaussianBlur
         stdDeviation="0.4914918"
         id="feGaussianBlur4" />
    </filter>
  </defs>
  <g
     id="g4"
     transform="translate(-0.71308601,-0.84064396)">
    <path
       color="#bebebe"
       d="m 23.736745,2.0202243 c -12.079776,0 -21.8440787,9.7643037 -21.8440787,21.8440787 0,12.079778 9.7643027,21.844081 21.8440787,21.844081 12.079778,0 21.844082,-9.764303 21.844082,-21.844081 0,-12.079775 -9.764304,-21.8440787 -21.844082,-21.8440787 z m 0,2.7305099 c 10.567074,0 19.113572,8.5464968 19.113572,19.1135688 0,10.567075 -8.546498,19.113572 -19.113572,19.113572 -10.567073,0 -19.1135687,-8.546497 -19.1135687,-19.113572 0,-10.567072 8.5464957,-19.1135688 19.1135687,-19.1135688 z M 23.911496,8.8465 c -1.946854,0 -3.495054,1.515432 -3.495054,3.413137 0,1.897706 1.5482,3.497784 3.495054,3.497784 1.946853,0 3.500516,-1.600078 3.500516,-3.497784 0,-1.897705 -1.553663,-3.413137 -3.500516,-3.413137 z M 11.19824,15.929443 a 0.84645808,0.84645808 0 0 0 -0.510604,0.08464 0.9857141,0.9857141 0 0 0 -0.600712,0.85192 c -0.0027,0.36862 0.259393,0.68263 0.600712,0.85465 l 9.384763,2.899802 -0.08464,6.744359 -3.328493,9.980017 c -0.319469,0.455994 -0.221179,0.977523 0.256675,1.283339 0.477837,0.300355 1.217807,0.196592 1.534546,-0.256674 l 5.291727,-10.752745 5.288996,10.752751 a 1.0020972,1.0020972 0 0 0 1.365257,0.341313 c 0.496952,-0.273047 0.70993,-0.810961 0.428689,-1.283339 L 27.581311,27.362085 27.412027,21.13379 36.968812,17.720653 a 1.0048277,1.0048277 0 0 0 0.341315,-1.195963 c -0.166578,-0.415035 -0.644414,-0.647126 -0.876509,-0.622552 l -12.691411,2.075187 z"
       fill="#dedede"
       overflow="visible"
       style="display:inline;opacity:0.6;fill:#00abff;fill-opacity:1;stroke-width:2.73051;marker:none;filter:url(#filter4)"
       id="path1" />
    <path
       color="#bebebe"
       d="m 23.736745,2.0202243 c -12.079776,0 -21.8440787,9.7643037 -21.8440787,21.8440787 0,12.079778 9.7643027,21.844081 21.8440787,21.844081 12.079778,0 21.844082,-9.764303 21.844082,-21.844081 0,-12.079775 -9.764304,-21.8440787 -21.844082,-21.8440787 z m 0,2.7305099 c 10.567074,0 19.113572,8.5464968 19.113572,19.1135688 0,10.567075 -8.546498,19.113572 -19.113572,19.113572 -10.567073,0 -19.1135687,-8.546497 -19.1135687,-19.113572 0,-10.567072 8.5464957,-19.1135688 19.1135687,-19.1135688 z M 23.911496,8.8465 c -1.946854,0 -3.495054,1.515432 -3.495054,3.413137 0,1.897706 1.5482,3.497784 3.495054,3.497784 1.946853,0 3.500516,-1.600078 3.500516,-3.497784 0,-1.897705 -1.553663,-3.413137 -3.500516,-3.413137 z M 11.19824,15.929443 a 0.84645808,0.84645808 0 0 0 -0.510604,0.08464 0.9857141,0.9857141 0 0 0 -0.600712,0.85192 c -0.0027,0.36862 0.259393,0.68263 0.600712,0.85465 l 9.384763,2.899802 -0.08464,6.744359 -3.328493,9.980017 c -0.319469,0.455994 -0.221179,0.977523 0.256675,1.283339 0.477837,0.300355 1.217807,0.196592 1.534546,-0.256674 l 5.291727,-10.752745 5.288996,10.752751 a 1.0020972,1.0020972 0 0 0 1.365257,0.341313 c 0.496952,-0.273047 0.70993,-0.810961 0.428689,-1.283339 L 27.581311,27.362085 27.412027,21.13379 36.968812,17.720653 a 1.0048277,1.0048277 0 0 0 0.341315,-1.195963 c -0.166578,-0.415035 -0.644414,-0.647126 -0.876509,-0.622552 l -12.691411,2.075187 z"
       fill="#dedede"
       overflow="visible"
       style="fill:url(#linearGradient4);fill-opacity:1;stroke-width:2.73051;marker:none"
       id="path2" />
  </g>
</svg>
