<?xml version="1.0" encoding="UTF-8" standalone="no"?>
<svg
   id="svg59"
   version="1.1"
   height="47.897301"
   width="47.895298"
   xmlns:xlink="http://www.w3.org/1999/xlink"
   xmlns="http://www.w3.org/2000/svg"
   xmlns:svg="http://www.w3.org/2000/svg"
   xmlns:rdf="http://www.w3.org/1999/02/22-rdf-syntax-ns#"
   xmlns:cc="http://creativecommons.org/ns#"
   xmlns:dc="http://purl.org/dc/elements/1.1/">
  <metadata
     id="metadata63">
    <rdf:RDF>
      <cc:Work
         rdf:about="">
        <dc:format>image/svg+xml</dc:format>
        <dc:type
           rdf:resource="http://purl.org/dc/dcmitype/StillImage" />
        <dc:title />
      </cc:Work>
    </rdf:RDF>
  </metadata>
  <defs
     id="defs19">
    <linearGradient
       id="linearGradient4">
      <stop
         style="stop-color:#00abff;stop-opacity:0;"
         offset="0"
         id="stop6" />
      <stop
         style="stop-color:#00abff;stop-opacity:1;"
         offset="1"
         id="stop4" />
    </linearGradient>
    <style
       id="style2"
       type="text/css" />
    <style
       id="style4"
       type="text/css" />
    <style
       type="text/css"
       id="style872" />
    <style
       id="style4-3"
       type="text/css" />
    <style
       id="style6"
       type="text/css" />
    <style
       id="style8"
       type="text/css" />
    <style
       type="text/css"
       id="style872-0" />
    <style
       type="text/css"
       id="style874" />
    <style
       type="text/css"
       id="style876" />
    <style
       type="text/css"
       id="style872-8" />
    <style
       id="style4-2"
       type="text/css" />
    <style
       id="style6-3"
       type="text/css" />
    <style
       id="style8-7"
       type="text/css" />
    <style
       type="text/css"
       id="style872-0-3" />
    <style
       type="text/css"
       id="style874-6" />
    <style
       type="text/css"
       id="style876-1" />
    <style
       type="text/css"
       id="style853" />
    <style
       type="text/css"
       id="style863" />
    <style
       type="text/css"
       id="style865" />
    <style
       type="text/css"
       id="style867" />
    <style
       type="text/css"
       id="style869" />
    <style
       type="text/css"
       id="style871" />
    <style
       type="text/css"
       id="style873" />
    <style
       type="text/css"
       id="style875" />
    <style
       type="text/css"
       id="current-color-scheme">.ColorScheme-Text {
        color:#4d4d4d;
      }</style>
    <style
       id="style862"
       type="text/css">.ColorScheme-Text {
        color:#4d4d4d;
      }</style>
    <style
       id="style2-2"
       type="text/css" />
    <style
       id="style4-37"
       type="text/css" />
    <style
       type="text/css"
       id="style872-7" />
    <style
       id="style4-3-4"
       type="text/css" />
    <style
       id="style6-7"
       type="text/css" />
    <style
       id="style8-4"
       type="text/css" />
    <style
       type="text/css"
       id="style872-0-8" />
    <style
       type="text/css"
       id="style874-8" />
    <style
       type="text/css"
       id="style876-4" />
    <style
       type="text/css"
       id="style872-76" />
    <style
       id="style4-39"
       type="text/css" />
    <style
       id="style6-4"
       type="text/css" />
    <style
       id="style8-8"
       type="text/css" />
    <style
       type="text/css"
       id="style872-0-88" />
    <style
       type="text/css"
       id="style874-5" />
    <style
       type="text/css"
       id="style876-0" />
    <style
       type="text/css"
       id="style4-3-8" />
    <style
       type="text/css"
       id="style6-6" />
    <style
       type="text/css"
       id="style913" />
    <linearGradient
       xlink:href="#linearGradient4"
       id="linearGradient6"
       x1="31.912167"
       y1="56.329834"
       x2="31.912167"
       y2="28.574501"
       gradientUnits="userSpaceOnUse" />
    <filter
       style="color-interpolation-filters:sRGB"
       id="filter6"
       x="-0.027000594"
       y="-0.026999404"
       width="1.0540012"
       height="1.0539988">
      <feGaussianBlur
         stdDeviation="0.51122709"
         id="feGaussianBlur6" />
    </filter>
  </defs>
  <g
     id="g6"
     transform="translate(-0.20665189,-0.64414878)">
    <path
       id="path2"
       style="display:inline;opacity:0.6;fill:#00abff;fill-opacity:1;stroke-linecap:round;stroke-linejoin:round;paint-order:stroke fill markers;filter:url(#filter6)"
       d="m 15.133,9.6290939 c -3.263298,0 -5.9262784,2.6598931 -5.939453,5.9199221 a 0.90008998,0.90008998 0 0 0 0,0.002 v 0.162109 c -1.819e-4,-0.04033 -0.00195,-0.04951 -0.00195,0.03516 v 33.207032 c 0,3.368794 2.748394,6.117187 6.117187,6.117187 h 31.933594 1.273438 0.177734 c 0.106868,0 0.209318,-0.0029 0.304687,-0.0078 0.907296,-0.04587 1.76472,-0.296944 2.521485,-0.707032 1.009002,-0.546773 1.83906,-1.37468 2.388672,-2.380859 0.457902,-0.838281 0.72049,-1.80296 0.724609,-2.822266 a 0.90008998,0.90008998 0 0 0 0,-0.002 0.90008998,0.90008998 0 0 0 0,-0.002 V 48.955266 46.625188 41.881047 37.138859 15.748234 c 0,-3.368794 -2.748394,-6.1191401 -6.117187,-6.1191401 H 26.150578 15.308781 Z m 2.410156,2.7500001 h 1.992188 c -0.230724,4.294067 -3.419038,7.613235 -7.59375,8.269531 v -1.919922 c 3.062372,-0.627067 5.38135,-3.164807 5.601562,-6.349609 z m 4.740235,0 h 2.041015 c -0.235453,6.944812 -5.560383,12.484238 -12.382812,13.167969 v -2.048829 c 5.681961,-0.685542 10.101748,-5.316439 10.341797,-11.11914 z m 4.787109,0 h 21.445313 c 1.894187,0 3.36914,1.474954 3.36914,3.36914 V 36.363469 C 43.564245,37.061604 36.996972,43.885706 36.756047,52.324406 H 15.308781 c -1.894205,-7.5e-5 -3.36914,-1.474954 -3.36914,-3.36914 V 28.340031 C 20.261206,27.64277 26.82954,20.818406 27.0705,12.379094 Z m -12.296875,0.105469 c -0.22499,1.619219 -1.313068,2.869899 -2.832031,3.376953 v -0.142578 c 0.01424,-1.68868 1.224745,-2.977605 2.832031,-3.234375 z m 37.111328,26.671875 v 2.046875 C 46.20281,41.888691 41.78321,46.521577 41.543156,52.324406 h -2.041015 c 0.235453,-6.944812 5.560383,-12.484237 12.382812,-13.167968 z m 0,4.898437 v 1.919922 c -3.062281,0.626734 -5.381312,3.164851 -5.601562,6.349609 h -1.992188 c 0.230723,-4.294067 3.419037,-7.613234 7.59375,-8.269531 z m 0,4.787109 v 0.113282 c 0,1.702379 -1.215638,3.004889 -2.832031,3.263672 0.22499,-1.619219 1.313067,-2.8699 2.832031,-3.376954 z"
       transform="translate(-7.7580001,-7.7580001)" />
    <path
       id="path3"
       style="fill:url(#linearGradient6);fill-opacity:1;stroke-linecap:round;stroke-linejoin:round;paint-order:stroke fill markers"
       d="m 15.133,9.6290939 c -3.263298,0 -5.9262784,2.6598931 -5.939453,5.9199221 a 0.90008998,0.90008998 0 0 0 0,0.002 v 0.162109 c -1.819e-4,-0.04033 -0.00195,-0.04951 -0.00195,0.03516 v 33.207032 c 0,3.368794 2.748394,6.117187 6.117187,6.117187 h 31.933594 1.273438 0.177734 c 0.106868,0 0.209318,-0.0029 0.304687,-0.0078 0.907296,-0.04587 1.76472,-0.296944 2.521485,-0.707032 1.009002,-0.546773 1.83906,-1.37468 2.388672,-2.380859 0.457902,-0.838281 0.72049,-1.80296 0.724609,-2.822266 a 0.90008998,0.90008998 0 0 0 0,-0.002 0.90008998,0.90008998 0 0 0 0,-0.002 V 48.955266 46.625188 41.881047 37.138859 15.748234 c 0,-3.368794 -2.748394,-6.1191401 -6.117187,-6.1191401 H 26.150578 15.308781 Z m 2.410156,2.7500001 h 1.992188 c -0.230724,4.294067 -3.419038,7.613235 -7.59375,8.269531 v -1.919922 c 3.062372,-0.627067 5.38135,-3.164807 5.601562,-6.349609 z m 4.740235,0 h 2.041015 c -0.235453,6.944812 -5.560383,12.484238 -12.382812,13.167969 v -2.048829 c 5.681961,-0.685542 10.101748,-5.316439 10.341797,-11.11914 z m 4.787109,0 h 21.445313 c 1.894187,0 3.36914,1.474954 3.36914,3.36914 V 36.363469 C 43.564245,37.061604 36.996972,43.885706 36.756047,52.324406 H 15.308781 c -1.894205,-7.5e-5 -3.36914,-1.474954 -3.36914,-3.36914 V 28.340031 C 20.261206,27.64277 26.82954,20.818406 27.0705,12.379094 Z m -12.296875,0.105469 c -0.22499,1.619219 -1.313068,2.869899 -2.832031,3.376953 v -0.142578 c 0.01424,-1.68868 1.224745,-2.977605 2.832031,-3.234375 z m 37.111328,26.671875 v 2.046875 C 46.20281,41.888691 41.78321,46.521577 41.543156,52.324406 h -2.041015 c 0.235453,-6.944812 5.560383,-12.484237 12.382812,-13.167968 z m 0,4.898437 v 1.919922 c -3.062281,0.626734 -5.381312,3.164851 -5.601562,6.349609 h -1.992188 c 0.230723,-4.294067 3.419037,-7.613234 7.59375,-8.269531 z m 0,4.787109 v 0.113282 c 0,1.702379 -1.215638,3.004889 -2.832031,3.263672 0.22499,-1.619219 1.313067,-2.8699 2.832031,-3.376954 z"
       transform="translate(-7.7580001,-7.7580001)" />
  </g>
</svg>
