<?xml version="1.0" encoding="UTF-8" standalone="no"?>
<svg
   width="48.48407"
   height="47.876648"
   version="1.1"
   id="svg59"
   xmlns:xlink="http://www.w3.org/1999/xlink"
   xmlns="http://www.w3.org/2000/svg"
   xmlns:svg="http://www.w3.org/2000/svg"
   xmlns:rdf="http://www.w3.org/1999/02/22-rdf-syntax-ns#"
   xmlns:cc="http://creativecommons.org/ns#"
   xmlns:dc="http://purl.org/dc/elements/1.1/">
  <metadata
     id="metadata63">
    <rdf:RDF>
      <cc:Work
         rdf:about="">
        <dc:format>image/svg+xml</dc:format>
        <dc:type
           rdf:resource="http://purl.org/dc/dcmitype/StillImage" />
        <dc:title />
      </cc:Work>
    </rdf:RDF>
  </metadata>
  <defs
     id="defs7">
    <linearGradient
       id="linearGradient1">
      <stop
         style="stop-color:#ff3dfb;stop-opacity:0;"
         offset="0"
         id="stop3" />
      <stop
         style="stop-color:#ff3dfb;stop-opacity:1;"
         offset="1"
         id="stop1" />
    </linearGradient>
    <linearGradient
       xlink:href="#linearGradient1"
       id="linearGradient3"
       x1="27.417315"
       y1="64.700203"
       x2="27.417315"
       y2="25.61231"
       gradientUnits="userSpaceOnUse" />
    <filter
       style="color-interpolation-filters:sRGB"
       id="filter3"
       x="-0.026821795"
       y="-0.027180589"
       width="1.0536436"
       height="1.0543612">
      <feGaussianBlur
         stdDeviation="0.51425904"
         id="feGaussianBlur3" />
    </filter>
  </defs>
  <g
     id="g1113"
     transform="translate(-0.17528079,-7.7609013)">
    <path
       id="path1107"
       style="display:inline;opacity:0.6;fill:#ff3dfb;fill-opacity:1;filter:url(#filter3)"
       d="M 1.4095025,8.995123 11.196612,26.612311 H 47.425128 L 37.636065,8.995123 Z m 1.6992188,1 H 37.048174 l 8.675782,15.617188 H 11.784503 Z M 16.180987,31.153326 22.891924,43.231451 H 47.425128 L 40.71419,31.153326 Z m 1.701172,1 h 22.24414 l 5.59961,10.078125 H 23.479815 Z m 12.644531,15.550781 3.720703,6.699219 h 13.177735 l -3.722657,-6.699219 z m 1.699219,1 h 10.888672 l 2.609375,4.699219 H 34.837237 Z" />
    <path
       id="path1"
       style="fill:url(#linearGradient3);fill-opacity:1"
       d="M 1.4095025,8.995123 11.196612,26.612311 H 47.425128 L 37.636065,8.995123 Z m 1.6992188,1 H 37.048174 l 8.675782,15.617188 H 11.784503 Z M 16.180987,31.153326 22.891924,43.231451 H 47.425128 L 40.71419,31.153326 Z m 1.701172,1 h 22.24414 l 5.59961,10.078125 H 23.479815 Z m 12.644531,15.550781 3.720703,6.699219 h 13.177735 l -3.722657,-6.699219 z m 1.699219,1 h 10.888672 l 2.609375,4.699219 H 34.837237 Z" />
  </g>
</svg>
