<?xml version="1.0" encoding="UTF-8" standalone="no"?>
<svg
   width="47.985821"
   height="47.985821"
   version="1.1"
   id="svg70"
   xmlns:xlink="http://www.w3.org/1999/xlink"
   xmlns="http://www.w3.org/2000/svg"
   xmlns:svg="http://www.w3.org/2000/svg"
   xmlns:rdf="http://www.w3.org/1999/02/22-rdf-syntax-ns#"
   xmlns:cc="http://creativecommons.org/ns#"
   xmlns:dc="http://purl.org/dc/elements/1.1/">
  <metadata
     id="metadata16">
    <rdf:RDF>
      <cc:Work
         rdf:about="">
        <dc:format>image/svg+xml</dc:format>
        <dc:type
           rdf:resource="http://purl.org/dc/dcmitype/StillImage" />
        <dc:title />
      </cc:Work>
    </rdf:RDF>
  </metadata>
  <defs
     id="defs60">
    <linearGradient
       id="linearGradient3">
      <stop
         style="stop-color:#00abff;stop-opacity:0;"
         offset="0"
         id="stop4" />
      <stop
         style="stop-color:#00abff;stop-opacity:1;"
         offset="1"
         id="stop3" />
    </linearGradient>
    <style
       type="text/css"
       id="style28" />
    <style
       type="text/css"
       id="style30" />
    <style
       type="text/css"
       id="style32" />
    <style
       type="text/css"
       id="style34" />
    <style
       type="text/css"
       id="style36" />
    <style
       type="text/css"
       id="style46" />
    <style
       type="text/css"
       id="style48" />
    <style
       type="text/css"
       id="style50" />
    <style
       type="text/css"
       id="style52" />
    <style
       type="text/css"
       id="style54" />
    <style
       type="text/css"
       id="style56" />
    <style
       type="text/css"
       id="style58" />
    <style
       type="text/css"
       id="style897" />
    <style
       type="text/css"
       id="style863" />
    <style
       type="text/css"
       id="style7" />
    <style
       type="text/css"
       id="style17" />
    <style
       type="text/css"
       id="style19" />
    <style
       type="text/css"
       id="style21" />
    <style
       type="text/css"
       id="style23" />
    <style
       type="text/css"
       id="style25" />
    <style
       type="text/css"
       id="style27" />
    <style
       type="text/css"
       id="style29" />
    <linearGradient
       xlink:href="#linearGradient3"
       id="linearGradient4"
       x1="32.702667"
       y1="56.593334"
       x2="32.702667"
       y2="28.135334"
       gradientUnits="userSpaceOnUse" />
    <filter
       style="color-interpolation-filters:sRGB"
       id="filter4"
       x="-0.026999999"
       y="-0.026999999"
       width="1.054"
       height="1.054">
      <feGaussianBlur
         stdDeviation="0.51218261"
         id="feGaussianBlur4" />
    </filter>
  </defs>
  <g
     id="g4"
     transform="translate(-0.73169928,-0.51294928)">
    <path
       id="path2"
       style="display:inline;opacity:0.6;fill:#00abff;fill-opacity:1;stroke-linecap:round;paint-order:stroke fill markers;filter:url(#filter4)"
       d="m 14.422063,9.5001876 c -2.585582,0 -4.7031254,2.1175434 -4.7031254,4.7031254 v 36.121093 c 0,2.585582 2.1175434,4.703125 4.7031254,4.703125 h 23.101562 13.021484 c 2.585581,0 4.701172,-2.117543 4.701172,-4.703125 V 14.203313 c 0,-2.585582 -2.11559,-4.7031254 -4.701172,-4.7031254 z m 0,2.7500004 h 36.123046 c 1.110662,0 1.951172,0.842463 1.951172,1.953125 v 36.121093 c 0,1.110663 -0.84051,1.953125 -1.951172,1.953125 H 38.343938 c -0.170585,-0.139343 -0.300001,-0.338067 -0.50586,-0.425781 l -0.0059,-0.0039 -4.72461,-1.925781 -1.796875,-2.835938 -0.0078,-0.01367 c -0.230473,-0.336942 -0.39166,-0.699659 -0.490234,-1.082031 -0.09853,-0.38221 -0.132718,-0.780749 -0.103516,-1.169922 0.02934,-0.391037 0.122089,-0.778942 0.273437,-1.142578 0.03685,-0.08854 0.108423,-0.158574 0.152344,-0.244141 l 2.132813,3.691407 2.394531,-1.382813 -7.761719,-13.445312 c -0.179773,-0.311262 -0.19649,-0.623396 -0.09375,-0.941407 0.102441,-0.317085 0.342037,-0.622457 0.667969,-0.810547 0.317989,-0.183506 0.666625,-0.21929 0.990234,-0.132812 0.32248,0.08618 0.605512,0.289353 0.789063,0.607422 l 3.257812,5.644531 c 0.212584,0.368005 0.550333,0.650689 0.914063,0.798828 0.365614,0.148922 0.756984,0.175363 1.126953,0.115235 l 0.03125,-0.0059 2.6875,-0.632812 -0.746094,-2.628907 -1.357422,0.275391 -0.02539,0.0059 c -0.171854,0.04557 -0.349839,0.03034 -0.523438,-0.04492 -0.17968,-0.07789 -0.34574,-0.218686 -0.455078,-0.408204 l -0.01367,-0.02539 h 3.511719 c 0.01433,0 0.02287,-0.01517 0.03711,-0.01563 l 0.628907,2.55664 3.294921,-0.740234 -0.658203,-2.685547 -2.570312,0.578125 c 0.362997,-0.25037 0.642578,-0.604564 0.642578,-1.068359 0,-0.74635 -0.628654,-1.375 -1.375,-1.375 H 33.562662 L 32.95524,30.312693 h 1.904297 c 0.746348,0 1.375,-0.630608 1.375,-1.376954 0,-0.746346 -0.628654,-1.375 -1.375,-1.375 H 21.0705 l 1.011719,-1.011718 c 0.527666,-0.527666 0.527666,-1.417647 0,-1.945313 -0.527665,-0.527663 -1.417648,-0.527665 -1.945313,0 l -3.359375,3.361328 c -0.118908,0.118908 -0.211991,0.254585 -0.277343,0.396485 l -0.002,0.002 v 0.002 c -0.04935,0.108774 -0.05742,0.149413 -0.03516,0.08984 -0.01373,0.0367 -0.03133,0.0841 -0.04492,0.136718 v 0.002 0.002 c 0.01105,-0.04332 -0.0019,-0.01197 -0.02148,0.0957 l -0.002,0.002 v 0.002 c -0.03054,0.172071 -0.02619,0.340055 0.0059,0.503906 0.01665,0.08417 0.02825,0.119884 0.01758,0.07813 v 0.002 c 0.0079,0.03092 0.02349,0.09239 0.05664,0.173829 -0.002,-0.0046 1.8e-5,0.0032 0.01758,0.04297 l 0.0039,0.0059 0.002,0.0059 c 0.06542,0.143181 0.159262,0.280362 0.279297,0.400391 l 3.359375,3.361328 c 0.527665,0.527665 1.417648,0.527662 1.945313,0 0.527662,-0.527665 0.527665,-1.417648 0,-1.945313 L 21.0705,30.312688 h 4.144531 c -0.03426,0.0968 -0.110132,0.176156 -0.136718,0.27539 -0.13432,0.501343 -0.169472,1.030323 -0.09961,1.556641 0.06978,0.525658 0.243698,1.04918 0.525391,1.537109 l 4.085937,7.072266 -0.04687,0.05273 -0.0059,0.0059 -0.02148,0.02344 c -0.470267,0.541838 -0.83816,1.147884 -1.09961,1.787109 -0.2612,0.638612 -0.417416,1.311837 -0.464844,1.992188 -0.04745,0.680618 0.01355,1.368598 0.183594,2.037109 0.17023,0.669251 0.451376,1.31835 0.841797,1.919922 l 0.05078,0.08008 1.917969,3.035157 0.03711,0.03711 c 0.193271,0.261272 0.423174,0.414683 0.628907,0.552734 H 14.422063 c -1.110664,0 -1.951172,-0.842462 -1.951172,-1.953125 V 14.203313 c 0,-1.110662 0.840509,-1.953125 1.951172,-1.953125 z M 26.304875,23.758 c -0.746345,0 -1.375,0.630607 -1.375,1.376953 0,0.746346 0.628653,1.375 1.375,1.375 h 9.505859 c 0.746348,0 1.375,-0.628654 1.375,-1.375 0,-0.746346 -0.628655,-1.376953 -1.375,-1.376953 z m 13.308594,0 c -0.746346,0 -1.376953,0.630605 -1.376953,1.376953 0,0.746348 0.630605,1.375 1.376953,1.375 h 5.703125 c 0.746349,0 1.375,-0.628654 1.375,-1.375 0,-0.746346 -0.628653,-1.376953 -1.375,-1.376953 z m 6.84375,8.427734 c -0.05969,0.0025 -0.112749,0.01091 -0.167969,0.01758 h -0.07227 l -3.201171,0.742187 0.798828,2.712891 1.751953,-0.453125 0.01172,-0.002 c 0.174052,-0.04982 0.36066,-0.03639 0.539062,0.04102 0.177576,0.07705 0.345154,0.221576 0.455078,0.41211 l 2.753906,4.773437 c 0.133031,0.230406 0.183991,0.422011 0.158204,0.642578 l -0.658204,4.021485 0.966797,0.214843 0.123047,0.210938 -0.96875,0.123047 1.267578,2.197265 2.089847,-1.20699 -0.572266,-0.982422 C 51.601742,45.42257 51.551454,45.230095 51.578313,45.008 l 0.0078,-0.05469 v 0.0098 l 0.644531,-4.148437 -0.0059,-0.09766 c -0.01942,-0.312927 -0.03265,-0.714799 -0.277344,-1.138671 l -3.722656,-6.447266 c -0.21178,-0.367083 -0.545185,-0.652228 -0.916016,-0.802734 -0.187486,-0.07609 -0.385906,-0.08087 -0.582031,-0.09766 -0.09081,-0.0078 -0.179414,-0.04868 -0.269531,-0.04492 z"
       transform="translate(-7.7580001,-7.7580001)" />
    <path
       id="path3"
       style="fill:url(#linearGradient4);fill-opacity:1;stroke-linecap:round;paint-order:stroke fill markers"
       d="m 14.422063,9.5001876 c -2.585582,0 -4.7031254,2.1175434 -4.7031254,4.7031254 v 36.121093 c 0,2.585582 2.1175434,4.703125 4.7031254,4.703125 h 23.101562 13.021484 c 2.585581,0 4.701172,-2.117543 4.701172,-4.703125 V 14.203313 c 0,-2.585582 -2.11559,-4.7031254 -4.701172,-4.7031254 z m 0,2.7500004 h 36.123046 c 1.110662,0 1.951172,0.842463 1.951172,1.953125 v 36.121093 c 0,1.110663 -0.84051,1.953125 -1.951172,1.953125 H 38.343938 c -0.170585,-0.139343 -0.300001,-0.338067 -0.50586,-0.425781 l -0.0059,-0.0039 -4.72461,-1.925781 -1.796875,-2.835938 -0.0078,-0.01367 c -0.230473,-0.336942 -0.39166,-0.699659 -0.490234,-1.082031 -0.09853,-0.38221 -0.132718,-0.780749 -0.103516,-1.169922 0.02934,-0.391037 0.122089,-0.778942 0.273437,-1.142578 0.03685,-0.08854 0.108423,-0.158574 0.152344,-0.244141 l 2.132813,3.691407 2.394531,-1.382813 -7.761719,-13.445312 c -0.179773,-0.311262 -0.19649,-0.623396 -0.09375,-0.941407 0.102441,-0.317085 0.342037,-0.622457 0.667969,-0.810547 0.317989,-0.183506 0.666625,-0.21929 0.990234,-0.132812 0.32248,0.08618 0.605512,0.289353 0.789063,0.607422 l 3.257812,5.644531 c 0.212584,0.368005 0.550333,0.650689 0.914063,0.798828 0.365614,0.148922 0.756984,0.175363 1.126953,0.115235 l 0.03125,-0.0059 2.6875,-0.632812 -0.746094,-2.628907 -1.357422,0.275391 -0.02539,0.0059 c -0.171854,0.04557 -0.349839,0.03034 -0.523438,-0.04492 -0.17968,-0.07789 -0.34574,-0.218686 -0.455078,-0.408204 l -0.01367,-0.02539 h 3.511719 c 0.01433,0 0.02287,-0.01517 0.03711,-0.01563 l 0.628907,2.55664 3.294921,-0.740234 -0.658203,-2.685547 -2.570312,0.578125 c 0.362997,-0.25037 0.642578,-0.604564 0.642578,-1.068359 0,-0.74635 -0.628654,-1.375 -1.375,-1.375 H 33.562662 L 32.95524,30.312693 h 1.904297 c 0.746348,0 1.375,-0.630608 1.375,-1.376954 0,-0.746346 -0.628654,-1.375 -1.375,-1.375 H 21.0705 l 1.011719,-1.011718 c 0.527666,-0.527666 0.527666,-1.417647 0,-1.945313 -0.527665,-0.527663 -1.417648,-0.527665 -1.945313,0 l -3.359375,3.361328 c -0.118908,0.118908 -0.211991,0.254585 -0.277343,0.396485 l -0.002,0.002 v 0.002 c -0.04935,0.108774 -0.05742,0.149413 -0.03516,0.08984 -0.01373,0.0367 -0.03133,0.0841 -0.04492,0.136718 v 0.002 0.002 c 0.01105,-0.04332 -0.0019,-0.01197 -0.02148,0.0957 l -0.002,0.002 v 0.002 c -0.03054,0.172071 -0.02619,0.340055 0.0059,0.503906 0.01665,0.08417 0.02825,0.119884 0.01758,0.07813 v 0.002 c 0.0079,0.03092 0.02349,0.09239 0.05664,0.173829 -0.002,-0.0046 1.8e-5,0.0032 0.01758,0.04297 l 0.0039,0.0059 0.002,0.0059 c 0.06542,0.143181 0.159262,0.280362 0.279297,0.400391 l 3.359375,3.361328 c 0.527665,0.527665 1.417648,0.527662 1.945313,0 0.527662,-0.527665 0.527665,-1.417648 0,-1.945313 L 21.0705,30.312688 h 4.144531 c -0.03426,0.0968 -0.110132,0.176156 -0.136718,0.27539 -0.13432,0.501343 -0.169472,1.030323 -0.09961,1.556641 0.06978,0.525658 0.243698,1.04918 0.525391,1.537109 l 4.085937,7.072266 -0.04687,0.05273 -0.0059,0.0059 -0.02148,0.02344 c -0.470267,0.541838 -0.83816,1.147884 -1.09961,1.787109 -0.2612,0.638612 -0.417416,1.311837 -0.464844,1.992188 -0.04745,0.680618 0.01355,1.368598 0.183594,2.037109 0.17023,0.669251 0.451376,1.31835 0.841797,1.919922 l 0.05078,0.08008 1.917969,3.035157 0.03711,0.03711 c 0.193271,0.261272 0.423174,0.414683 0.628907,0.552734 H 14.422063 c -1.110664,0 -1.951172,-0.842462 -1.951172,-1.953125 V 14.203313 c 0,-1.110662 0.840509,-1.953125 1.951172,-1.953125 z M 26.304875,23.758 c -0.746345,0 -1.375,0.630607 -1.375,1.376953 0,0.746346 0.628653,1.375 1.375,1.375 h 9.505859 c 0.746348,0 1.375,-0.628654 1.375,-1.375 0,-0.746346 -0.628655,-1.376953 -1.375,-1.376953 z m 13.308594,0 c -0.746346,0 -1.376953,0.630605 -1.376953,1.376953 0,0.746348 0.630605,1.375 1.376953,1.375 h 5.703125 c 0.746349,0 1.375,-0.628654 1.375,-1.375 0,-0.746346 -0.628653,-1.376953 -1.375,-1.376953 z m 6.84375,8.427734 c -0.05969,0.0025 -0.112749,0.01091 -0.167969,0.01758 h -0.07227 l -3.201171,0.742187 0.798828,2.712891 1.751953,-0.453125 0.01172,-0.002 c 0.174052,-0.04982 0.36066,-0.03639 0.539062,0.04102 0.177576,0.07705 0.345154,0.221576 0.455078,0.41211 l 2.753906,4.773437 c 0.133031,0.230406 0.183991,0.422011 0.158204,0.642578 l -0.658204,4.021485 0.966797,0.214843 0.123047,0.210938 -0.96875,0.123047 1.267578,2.197265 2.089847,-1.20699 -0.572266,-0.982422 C 51.601742,45.42257 51.551454,45.230095 51.578313,45.008 l 0.0078,-0.05469 v 0.0098 l 0.644531,-4.148437 -0.0059,-0.09766 c -0.01942,-0.312927 -0.03265,-0.714799 -0.277344,-1.138671 l -3.722656,-6.447266 c -0.21178,-0.367083 -0.545185,-0.652228 -0.916016,-0.802734 -0.187486,-0.07609 -0.385906,-0.08087 -0.582031,-0.09766 -0.09081,-0.0078 -0.179414,-0.04868 -0.269531,-0.04492 z"
       transform="translate(-7.7580001,-7.7580001)" />
  </g>
</svg>
