<?xml version="1.0" encoding="UTF-8" standalone="no"?>
<svg
   width="30.491568"
   height="40.053051"
   version="1"
   id="svg8"
   xmlns:xlink="http://www.w3.org/1999/xlink"
   xmlns="http://www.w3.org/2000/svg"
   xmlns:svg="http://www.w3.org/2000/svg"
   xmlns:rdf="http://www.w3.org/1999/02/22-rdf-syntax-ns#"
   xmlns:cc="http://creativecommons.org/ns#"
   xmlns:dc="http://purl.org/dc/elements/1.1/">
  <metadata
     id="metadata14">
    <rdf:RDF>
      <cc:Work
         rdf:about="">
        <dc:format>image/svg+xml</dc:format>
        <dc:type
           rdf:resource="http://purl.org/dc/dcmitype/StillImage" />
        <dc:title />
      </cc:Work>
    </rdf:RDF>
  </metadata>
  <defs
     id="defs12">
    <linearGradient
       id="linearGradient3">
      <stop
         style="stop-color:#00abff;stop-opacity:0;"
         offset="0"
         id="stop4" />
      <stop
         style="stop-color:#00abff;stop-opacity:1;"
         offset="1"
         id="stop3" />
    </linearGradient>
    <filter
       style="color-interpolation-filters:sRGB"
       id="filter3"
       x="-0.0315"
       y="-0.023625"
       width="1.063"
       height="1.04725">
      <feGaussianBlur
         stdDeviation="0.118125"
         id="feGaussianBlur3" />
    </filter>
    <linearGradient
       xlink:href="#linearGradient3"
       id="linearGradient3-5"
       x1="7.9130435"
       y1="15.217391"
       x2="7.9130435"
       y2="6.5507245"
       gradientUnits="userSpaceOnUse" />
  </defs>
  <g
     id="g3"
     transform="matrix(3.1871609,0,0,3.1871609,-8.6579226,-5.4707617)">
    <path
       style="color:#dedede;display:inline;opacity:0.6;fill:#00abff;fill-opacity:1;stroke:none;filter:url(#filter3)"
       d="M 8,2 V 7 H 5 v 1 h 7 V 7 H 9 V 2 Z M 5,9 c 0,2.76142 -0.89543,5 -2,5 h 4 1 2 c 1.10456,0 2,-2.23858 2,-5 H 10 8 7 Z"
       class="ColorScheme-Text"
       id="path1" />
    <path
       style="color:#dedede;fill:url(#linearGradient3-5);fill-opacity:1;stroke:none"
       d="M 8,2 V 7 H 5 v 1 h 7 V 7 H 9 V 2 Z M 5,9 c 0,2.76142 -0.89543,5 -2,5 h 4 1 2 c 1.10456,0 2,-2.23858 2,-5 H 10 8 7 Z"
       class="ColorScheme-Text"
       id="path2" />
  </g>
</svg>
