<?xml version="1.0" encoding="UTF-8" standalone="no"?>
<svg
   height="48.484001"
   viewBox="0 0 48.484001 48.484001"
   width="48.484001"
   version="1.1"
   id="svg29"
   xmlns:xlink="http://www.w3.org/1999/xlink"
   xmlns="http://www.w3.org/2000/svg"
   xmlns:svg="http://www.w3.org/2000/svg"
   xmlns:rdf="http://www.w3.org/1999/02/22-rdf-syntax-ns#"
   xmlns:cc="http://creativecommons.org/ns#"
   xmlns:dc="http://purl.org/dc/elements/1.1/">
  <metadata
     id="metadata35">
    <rdf:RDF>
      <cc:Work
         rdf:about="">
        <dc:format>image/svg+xml</dc:format>
        <dc:type
           rdf:resource="http://purl.org/dc/dcmitype/StillImage" />
        <dc:title />
      </cc:Work>
    </rdf:RDF>
  </metadata>
  <defs
     id="defs33">
    <linearGradient
       id="linearGradient1">
      <stop
         style="stop-color:#ff3dfb;stop-opacity:0;"
         offset="0"
         id="stop3" />
      <stop
         style="stop-color:#ff3dfb;stop-opacity:1;"
         offset="1"
         id="stop1" />
    </linearGradient>
    <style
       type="text/css"
       id="style872" />
    <style
       id="style4"
       type="text/css" />
    <style
       id="style6"
       type="text/css" />
    <style
       id="style8"
       type="text/css" />
    <style
       type="text/css"
       id="style872-0" />
    <style
       type="text/css"
       id="style874" />
    <style
       type="text/css"
       id="style876" />
    <style
       type="text/css"
       id="style4-3" />
    <style
       type="text/css"
       id="style6-6" />
    <style
       type="text/css"
       id="style913" />
    <linearGradient
       xlink:href="#linearGradient1"
       id="linearGradient3"
       x1="-44.5"
       y1="65"
       x2="-44.5"
       y2="25"
       gradientUnits="userSpaceOnUse" />
    <filter
       style="color-interpolation-filters:sRGB"
       id="filter3"
       x="-0.026999999"
       y="-0.026999999"
       width="1.054"
       height="1.054">
      <feGaussianBlur
         stdDeviation="0.5175"
         id="feGaussianBlur3" />
    </filter>
  </defs>
  <linearGradient
     id="a"
     gradientUnits="userSpaceOnUse"
     x1="403.66333"
     x2="402.65228"
     y1="545.75287"
     y2="517.44299">
    <stop
       offset="0"
       stop-color="#d3d3d3"
       id="stop2" />
    <stop
       offset="1"
       stop-color="#fcf9f9"
       id="stop4" />
  </linearGradient>
  <g
     id="g1050"
     transform="translate(69.742,-7.7580001)">
    <path
       id="rect1074"
       style="display:inline;opacity:0.6;fill:#ff3dfb;fill-opacity:1;stroke-linecap:round;stroke-linejoin:round;paint-order:stroke fill markers;filter:url(#filter3)"
       d="m -63,9 c -3.038351,0 -5.5,2.461649 -5.5,5.5 v 35 c 0,3.038351 2.461649,5.5 5.5,5.5 h 35 c 3.038351,0 5.5,-2.461649 5.5,-5.5 v -35 C -22.5,11.461649 -24.961649,9 -28,9 Z m 0,1 h 35 c 2.501649,0 4.5,1.998351 4.5,4.5 V 48.382812 L -35.916016,30.238281 -46.769531,40.371094 -56.873047,21.166016 -67.5,31.792969 V 14.5 c 0,-2.501649 1.998351,-4.5 4.5,-4.5 z M -57.126953,22.833984 -40.730469,54 H -63 c -2.501649,0 -4.5,-1.998351 -4.5,-4.5 V 33.207031 Z m 21.042969,8.929688 12.541015,18.328125 C -23.82972,52.308845 -25.699595,54 -28,54 h -11.599609 l -6.6875,-12.712891 z" />
    <path
       id="path1"
       style="fill:url(#linearGradient3);fill-opacity:1;stroke-linecap:round;stroke-linejoin:round;paint-order:stroke fill markers"
       d="m -63,9 c -3.038351,0 -5.5,2.461649 -5.5,5.5 v 35 c 0,3.038351 2.461649,5.5 5.5,5.5 h 35 c 3.038351,0 5.5,-2.461649 5.5,-5.5 v -35 C -22.5,11.461649 -24.961649,9 -28,9 Z m 0,1 h 35 c 2.501649,0 4.5,1.998351 4.5,4.5 V 48.382812 L -35.916016,30.238281 -46.769531,40.371094 -56.873047,21.166016 -67.5,31.792969 V 14.5 c 0,-2.501649 1.998351,-4.5 4.5,-4.5 z M -57.126953,22.833984 -40.730469,54 H -63 c -2.501649,0 -4.5,-1.998351 -4.5,-4.5 V 33.207031 Z m 21.042969,8.929688 12.541015,18.328125 C -23.82972,52.308845 -25.699595,54 -28,54 h -11.599609 l -6.6875,-12.712891 z" />
  </g>
</svg>
