<?xml version="1.0" encoding="UTF-8" standalone="no"?>
<svg
   width="48.490173"
   height="48.490173"
   viewBox="0 0 12.829439 12.829439"
   version="1.1"
   id="svg26"
   xmlns:xlink="http://www.w3.org/1999/xlink"
   xmlns="http://www.w3.org/2000/svg"
   xmlns:svg="http://www.w3.org/2000/svg"
   xmlns:rdf="http://www.w3.org/1999/02/22-rdf-syntax-ns#"
   xmlns:cc="http://creativecommons.org/ns#"
   xmlns:dc="http://purl.org/dc/elements/1.1/">
  <metadata
     id="metadata32">
    <rdf:RDF>
      <cc:Work
         rdf:about="">
        <dc:format>image/svg+xml</dc:format>
        <dc:type
           rdf:resource="http://purl.org/dc/dcmitype/StillImage" />
        <dc:title />
      </cc:Work>
    </rdf:RDF>
  </metadata>
  <defs
     id="defs30">
    <linearGradient
       id="linearGradient1">
      <stop
         style="stop-color:#ff3dfb;stop-opacity:0;"
         offset="0"
         id="stop2" />
      <stop
         style="stop-color:#ff3dfb;stop-opacity:1;"
         offset="1"
         id="stop1" />
    </linearGradient>
    <style
       id="style4"
       type="text/css" />
    <style
       id="style6"
       type="text/css" />
    <style
       id="style8"
       type="text/css" />
    <style
       type="text/css"
       id="style1078" />
    <style
       type="text/css"
       id="style1080" />
    <style
       id="style14"
       type="text/css" />
    <style
       id="style16"
       type="text/css" />
    <linearGradient
       xlink:href="#linearGradient1"
       id="linearGradient2"
       x1="9"
       y1="17"
       x2="9"
       y2="6.6427894"
       gradientUnits="userSpaceOnUse" />
    <filter
       style="color-interpolation-filters:sRGB"
       id="filter2"
       x="-0.027000001"
       y="-0.027000001"
       width="1.054"
       height="1.054">
      <feGaussianBlur
         stdDeviation="0.13693662"
         id="feGaussianBlur3" />
    </filter>
  </defs>
  <g
     id="g986"
     transform="translate(-2.0520385,-2.0520385)">
    <path
       id="path1"
       style="display:inline;opacity:0.6;fill:#ff3dfb;fill-opacity:1;stroke-linecap:round;paint-order:stroke fill markers;filter:url(#filter2)"
       d="m 3.175971,2.3806864 c -0.4374405,0 -0.7952846,0.3578441 -0.7952846,0.7952846 v 10.582091 c 0,0.43744 0.357844,0.794768 0.7952846,0.794768 h 10.582091 c 0.43744,0 0.794768,-0.357328 0.794768,-0.794768 V 3.175971 c 0,-0.4374406 -0.357328,-0.7952846 -0.794768,-0.7952846 z m 0,0.2656116 h 10.582091 c 0.295439,0 0.529157,0.2342323 0.529157,0.529673 v 10.582091 c 0,0.295439 -0.233718,0.529157 -0.529157,0.529157 H 3.175971 c -0.2954407,0 -0.529673,-0.233718 -0.529673,-0.529157 V 3.175971 c 0,-0.2954408 0.2342322,-0.529673 0.529673,-0.529673 z m 0.2635446,8.730045 v 2.117141 h 2.1171418 v -2.117141 z m 2.646298,0 v 2.117141 h 2.1155915 v -2.117141 z m 2.6447478,0 v 2.117141 h 2.1171416 v -2.117141 z m 2.6462976,0 v 2.117141 h 2.117142 v -2.117141 z m -7.6737988,0.265611 h 1.5879855 v 1.585919 H 3.7030602 Z m 2.646298,0 h 1.5879855 v 1.585919 H 6.3493582 Z m 2.6468148,0 h 1.587986 v 1.585919 H 8.996173 Z m 2.644231,0 h 1.587985 v 1.585919 h -1.587985 z" />
    <path
       id="rect974"
       style="fill:url(#linearGradient2);fill-opacity:1;stroke-linecap:round;paint-order:stroke fill markers"
       d="m 3.175971,2.3806864 c -0.4374405,0 -0.7952846,0.3578441 -0.7952846,0.7952846 v 10.582091 c 0,0.43744 0.357844,0.794768 0.7952846,0.794768 h 10.582091 c 0.43744,0 0.794768,-0.357328 0.794768,-0.794768 V 3.175971 c 0,-0.4374406 -0.357328,-0.7952846 -0.794768,-0.7952846 z m 0,0.2656116 h 10.582091 c 0.295439,0 0.529157,0.2342323 0.529157,0.529673 v 10.582091 c 0,0.295439 -0.233718,0.529157 -0.529157,0.529157 H 3.175971 c -0.2954407,0 -0.529673,-0.233718 -0.529673,-0.529157 V 3.175971 c 0,-0.2954408 0.2342322,-0.529673 0.529673,-0.529673 z m 0.2635446,8.730045 v 2.117141 h 2.1171418 v -2.117141 z m 2.646298,0 v 2.117141 h 2.1155915 v -2.117141 z m 2.6447478,0 v 2.117141 h 2.1171416 v -2.117141 z m 2.6462976,0 v 2.117141 h 2.117142 v -2.117141 z m -7.6737988,0.265611 h 1.5879855 v 1.585919 H 3.7030602 Z m 2.646298,0 h 1.5879855 v 1.585919 H 6.3493582 Z m 2.6468148,0 h 1.587986 v 1.585919 H 8.996173 Z m 2.644231,0 h 1.587985 v 1.585919 h -1.587985 z" />
    <g
       id="g984"
       transform="translate(0,0.13228886)" />
  </g>
</svg>
