<?xml version="1.0" encoding="UTF-8" standalone="no"?>
<svg
   width="48.484154"
   height="48.490017"
   version="1.1"
   viewBox="0 0 12.827846 12.829398"
   id="svg29"
   xmlns:xlink="http://www.w3.org/1999/xlink"
   xmlns="http://www.w3.org/2000/svg"
   xmlns:svg="http://www.w3.org/2000/svg"
   xmlns:rdf="http://www.w3.org/1999/02/22-rdf-syntax-ns#"
   xmlns:cc="http://creativecommons.org/ns#"
   xmlns:dc="http://purl.org/dc/elements/1.1/">
  <metadata
     id="metadata2">
    <rdf:RDF>
      <cc:Work
         rdf:about="">
        <dc:format>image/svg+xml</dc:format>
        <dc:type
           rdf:resource="http://purl.org/dc/dcmitype/StillImage" />
        <dc:title />
      </cc:Work>
    </rdf:RDF>
  </metadata>
  <defs
     id="defs13">
    <linearGradient
       id="linearGradient1">
      <stop
         style="stop-color:#ff3dfb;stop-opacity:0;"
         offset="0"
         id="stop2" />
      <stop
         style="stop-color:#ff3dfb;stop-opacity:1;"
         offset="1"
         id="stop1" />
    </linearGradient>
    <style
       type="text/css"
       id="style9" />
    <linearGradient
       xlink:href="#linearGradient1"
       id="linearGradient2"
       x1="8"
       y1="17"
       x2="8"
       y2="7"
       gradientUnits="userSpaceOnUse" />
    <filter
       style="color-interpolation-filters:sRGB"
       id="filter2"
       x="-0.02700172"
       y="-0.026998282"
       width="1.0540034"
       height="1.0539966">
      <feGaussianBlur
         stdDeviation="0.1369279"
         id="feGaussianBlur2" />
    </filter>
  </defs>
  <g
     id="g2"
     transform="translate(-2.0525761,-2.0520594)">
    <path
       id="rect1193"
       style="color:#000000;font-style:normal;font-variant:normal;font-weight:normal;font-stretch:normal;font-size:medium;line-height:normal;font-family:sans-serif;font-variant-ligatures:normal;font-variant-position:normal;font-variant-caps:normal;font-variant-numeric:normal;font-variant-alternates:normal;font-variant-east-asian:normal;font-feature-settings:normal;font-variation-settings:normal;text-indent:0;text-align:start;text-decoration:none;text-decoration-line:none;text-decoration-style:solid;text-decoration-color:#000000;letter-spacing:normal;word-spacing:normal;text-transform:none;writing-mode:lr-tb;direction:ltr;text-orientation:mixed;dominant-baseline:auto;baseline-shift:baseline;text-anchor:start;white-space:normal;shape-padding:0;shape-margin:0;inline-size:0;clip-rule:nonzero;display:inline;overflow:visible;visibility:visible;opacity:0.6;isolation:auto;mix-blend-mode:normal;color-interpolation:sRGB;color-interpolation-filters:linearRGB;solid-color:#000000;solid-opacity:1;vector-effect:none;fill:#ff3dfb;fill-opacity:1;fill-rule:nonzero;stroke:none;stroke-width:0.999999;stroke-linecap:round;stroke-linejoin:miter;stroke-miterlimit:4;stroke-dasharray:none;stroke-dashoffset:0;stroke-opacity:1;paint-order:stroke fill markers;filter:url(#filter2);color-rendering:auto;image-rendering:auto;shape-rendering:auto;text-rendering:auto;enable-background:accumulate;stop-color:#000000;stop-opacity:1"
       d="m 3.1744207,2.3806864 c -0.437441,0 -0.7927008,0.3578443 -0.7927008,0.7952846 V 5.2915625 H 2.6452645 V 3.175971 c 0,-0.2954406 0.2337152,-0.529673 0.5291562,-0.529673 H 13.758579 c 0.295441,0 0.529673,0.2342324 0.529673,0.529673 V 5.2915625 H 14.55128 V 3.175971 c 0,-0.4374403 -0.35526,-0.7952846 -0.792701,-0.7952846 z M 2.3812031,8.2019219 V 8.7310781 H 14.551797 V 8.2019219 Z m 5.168e-4,4.4978281 v 1.058312 c 0,0.437441 0.3552598,0.794768 0.7927008,0.794768 H 13.758579 c 0.437441,0 0.792701,-0.357327 0.792701,-0.794768 V 12.69975 h -0.263028 v 1.058312 c 0,0.295441 -0.234232,0.529157 -0.529673,0.529157 H 3.1744207 c -0.295441,0 -0.5291562,-0.233716 -0.5291562,-0.529157 V 12.69975 Z" />
    <path
       id="path1"
       style="color:#000000;font-style:normal;font-variant:normal;font-weight:normal;font-stretch:normal;font-size:medium;line-height:normal;font-family:sans-serif;font-variant-ligatures:normal;font-variant-position:normal;font-variant-caps:normal;font-variant-numeric:normal;font-variant-alternates:normal;font-variant-east-asian:normal;font-feature-settings:normal;font-variation-settings:normal;text-indent:0;text-align:start;text-decoration:none;text-decoration-line:none;text-decoration-style:solid;text-decoration-color:#000000;letter-spacing:normal;word-spacing:normal;text-transform:none;writing-mode:lr-tb;direction:ltr;text-orientation:mixed;dominant-baseline:auto;baseline-shift:baseline;text-anchor:start;white-space:normal;shape-padding:0;shape-margin:0;inline-size:0;clip-rule:nonzero;display:inline;overflow:visible;visibility:visible;opacity:1;isolation:auto;mix-blend-mode:normal;color-interpolation:sRGB;color-interpolation-filters:linearRGB;solid-color:#000000;solid-opacity:1;vector-effect:none;fill:url(#linearGradient2);fill-opacity:1;fill-rule:nonzero;stroke:none;stroke-width:0.999999;stroke-linecap:round;stroke-linejoin:miter;stroke-miterlimit:4;stroke-dasharray:none;stroke-dashoffset:0;stroke-opacity:1;paint-order:stroke fill markers;color-rendering:auto;image-rendering:auto;shape-rendering:auto;text-rendering:auto;enable-background:accumulate;stop-color:#000000;stop-opacity:1"
       d="m 3.1744207,2.3806864 c -0.437441,0 -0.7927008,0.3578443 -0.7927008,0.7952846 V 5.2915625 H 2.6452645 V 3.175971 c 0,-0.2954406 0.2337152,-0.529673 0.5291562,-0.529673 H 13.758579 c 0.295441,0 0.529673,0.2342324 0.529673,0.529673 V 5.2915625 H 14.55128 V 3.175971 c 0,-0.4374403 -0.35526,-0.7952846 -0.792701,-0.7952846 z M 2.3812031,8.2019219 V 8.7310781 H 14.551797 V 8.2019219 Z m 5.168e-4,4.4978281 v 1.058312 c 0,0.437441 0.3552598,0.794768 0.7927008,0.794768 H 13.758579 c 0.437441,0 0.792701,-0.357327 0.792701,-0.794768 V 12.69975 h -0.263028 v 1.058312 c 0,0.295441 -0.234232,0.529157 -0.529673,0.529157 H 3.1744207 c -0.295441,0 -0.5291562,-0.233716 -0.5291562,-0.529157 V 12.69975 Z" />
  </g>
</svg>
