<?xml version="1.0" encoding="UTF-8" standalone="no"?>
<svg
   width="43.696697"
   height="43.696419"
   version="1.1"
   viewBox="0 0 11.56119 11.561117"
   id="svg43"
   xmlns:xlink="http://www.w3.org/1999/xlink"
   xmlns="http://www.w3.org/2000/svg"
   xmlns:svg="http://www.w3.org/2000/svg"
   xmlns:rdf="http://www.w3.org/1999/02/22-rdf-syntax-ns#"
   xmlns:cc="http://creativecommons.org/ns#"
   xmlns:dc="http://purl.org/dc/elements/1.1/">
  <defs
     id="defs21">
    <linearGradient
       id="linearGradient1">
      <stop
         style="stop-color:#00abff;stop-opacity:0;"
         offset="0"
         id="stop4" />
      <stop
         style="stop-color:#00abff;stop-opacity:1;"
         offset="1"
         id="stop1" />
    </linearGradient>
    <style
       type="text/css"
       id="style864" />
    <linearGradient
       xlink:href="#linearGradient1"
       id="linearGradient4"
       x1="6.3136816"
       y1="12.6905"
       x2="6.3136816"
       y2="5.271924"
       gradientUnits="userSpaceOnUse" />
    <filter
       style="color-interpolation-filters:sRGB"
       id="filter4"
       x="-0.026999908"
       y="-0.027000091"
       width="1.0539998"
       height="1.0540002">
      <feGaussianBlur
         stdDeviation="0.12339941"
         id="feGaussianBlur4" />
    </filter>
  </defs>
  <metadata
     id="metadata23">
    <rdf:RDF>
      <cc:Work
         rdf:about="">
        <dc:format>image/svg+xml</dc:format>
        <dc:type
           rdf:resource="http://purl.org/dc/dcmitype/StillImage" />
        <dc:title />
      </cc:Work>
    </rdf:RDF>
  </metadata>
  <g
     id="g4"
     transform="translate(-0.49615501,-0.46256591)">
    <path
       id="path3011"
       d="m 6.2795126,0.75872447 c -0.2186647,0 -0.4304729,0.0178269 -0.642967,0.0431888 -0.2083804,0.0246674 -0.420875,0.0596424 -0.6210362,0.10687851 -0.064441,0.0150804 -0.1268069,0.0459328 -0.1926135,0.0644411 -0.057587,0.0157799 -0.1144731,0.0253671 -0.1713689,0.0431913 -0.071976,0.02262 -0.1466885,0.040447 -0.2145499,0.064441 -0.073347,0.026051 -0.1418897,0.056901 -0.2145498,0.085626 -0.1412031,0.056901 -0.2721306,0.1247703 -0.407171,0.1925721 -0.048674,0.024668 -0.1021341,0.03839 -0.1501165,0.064441 -0.1576567,0.082885 -0.3022881,0.1802331 -0.4496684,0.2781977 -0.056215,0.037706 -0.1165227,0.067185 -0.171361,0.1068785 -0.022621,0.016454 -0.041818,0.026051 -0.064441,0.043188 -0.064441,0.048674 -0.1309267,0.097211 -0.1926213,0.15 -0.073339,0.061013 -0.1439445,0.1281309 -0.2145499,0.192572 -0.021947,0.020573 -0.042505,0.043875 -0.064441,0.064441 -0.00754,0.00754 -0.013707,0.013707 -0.021247,0.021247 -0.010961,0.010961 -0.010287,0.032221 -0.021247,0.043189 -0.1439444,0.1397858 -0.3009171,0.273399 -0.4284162,0.4282655 -0.00342,0.00687 0.00342,0.017128 0,0.021247 -0.1240707,0.150754 -0.2351183,0.306991 -0.3427357,0.4714553 -0.014407,0.021947 -0.028792,0.041818 -0.043188,0.064441 -0.010287,0.016454 -0.032221,0.025367 -0.043188,0.043189 -0.041134,0.067185 -0.069235,0.1432812 -0.1069329,0.214511 -0.012334,0.022621 -0.03085,0.041818 -0.043188,0.064441 -0.051416,0.1000224 -0.1028183,0.1986741 -0.1501166,0.3001354 -0.00275,0.00687 0.00275,0.01578 0,0.021247 -0.080203,0.173307 -0.1521789,0.3521002 -0.2145498,0.5350745 -0.013034,0.036336 -0.03085,0.070613 -0.043189,0.1069458 -0.00206,0.00687 0.00206,0.01508 0,0.021247 C 1.036352,4.657921 1.019893,4.701111 1.006871,4.7443018 0.956826,4.9203529 0.910906,5.0964708 0.87800158,5.279445 c -0.02332,0.1315589 -0.050732,0.2720277 -0.064441,0.4070817 -0.0185,0.1815339 -0.021247,0.3713645 -0.021247,0.5570123 0,0.2768267 0.024667,0.5481688 0.064441,0.8140952 0.00412,0.028108 -0.00479,0.058271 0,0.085626 0.030166,0.1822878 0.080882,0.3597785 0.1288694,0.5352116 0.017827,0.065812 0.043875,0.1274442 0.064441,0.192572 0.027422,0.088368 0.054159,0.1706356 0.085688,0.2569458 0.052787,0.1452685 0.106933,0.2891666 0.1713689,0.4281967 0.034278,0.072668 0.069913,0.1438979 0.1069329,0.2145112 0.1041916,0.2001121 0.2159206,0.3939874 0.3427287,0.5783329 0.010961,0.016454 0.031537,0.026738 0.043191,0.043188 0.1357176,0.192572 0.2700737,0.3837044 0.4284159,0.5570801 0.027422,0.030162 0.057587,0.056217 0.08568,0.0857 0.027422,0.02879 0.057587,0.05759 0.085688,0.08562 0.1466885,0.146639 0.3091437,0.277512 0.4715994,0.407081 0.2097511,0.167139 0.4311582,0.314464 0.6642191,0.44945 0.00821,0.0069 0.013034,0.01645 0.021247,0.02124 0.036336,0.02057 0.070606,0.04457 0.106933,0.06444 0.2166072,0.106946 0.4743482,0.222735 0.6429671,0.300136 0.075405,0.02879 0.1583486,0.03908 0.2358023,0.06444 0.036336,0.01233 0.070606,0.03154 0.106933,0.04319 0.093221,0.02811 0.1837077,0.0617 0.2783005,0.08562 0.028792,0.0075 0.056901,0.0144 0.085688,0.02124 0.2001536,0.0473 0.4126482,0.08288 0.6210292,0.106878 0.2118085,0.02467 0.4236173,0.04319 0.6429666,0.04319 0.2330609,0 0.4599521,-0.0144 0.6854716,-0.04319 0.2501931,-0.03291 0.4668003,-0.08494 0.6854642,-0.128815 1.1639266,-0.298764 2.1674461,-0.974378 2.8919866,-1.8843824 0.0192,-0.023993 0.04593,-0.039763 0.06445,-0.064441 0.0061,-0.00821 0.01508,-0.013707 0.02124,-0.021247 0.0096,-0.012334 0.01233,-0.030163 0.02124,-0.043188 0.427045,-0.5653074 0.738246,-1.2203538 0.921268,-1.927571 0.03838,-0.1486966 0.08089,-0.2960222 0.106933,-0.4495176 0.0034,-0.020573 -0.0034,-0.043189 0,-0.064441 0.0041,-0.027421 0.01713,-0.054159 0.02124,-0.085694 0.0041,-0.029479 0.01783,-0.056215 0.02124,-0.085626 h -0.02124 c 0.03016,-0.2254793 0.06445,-0.4515744 0.06445,-0.6852794 0,-0.3782201 -0.03427,-0.7564401 -0.106933,-1.1134762 -0.0061,-0.029479 -0.01508,-0.056215 -0.02124,-0.085626 -0.03154,-0.1425272 -0.08499,-0.2899207 -0.12887,-0.4283342 -0.002,-0.00687 0.002,-0.01508 0,-0.021247 -0.0082,-0.026051 -0.01233,-0.03839 -0.02124,-0.064441 -0.02674,-0.081582 -0.05553,-0.176805 -0.08568,-0.2569458 -0.0082,-0.021947 -0.01233,-0.043875 -0.02124,-0.064441 -0.02948,-0.074725 -0.07403,-0.1411565 -0.106933,-0.2144411 -0.0014,0 0.0014,-0.017827 0,-0.021247 -0.01713,-0.03702 -0.04662,-0.070543 -0.06444,-0.1068785 -0.06718,-0.1390991 -0.13572,-0.2740842 -0.21455,-0.4070131 -0.03976,-0.067185 -0.06444,-0.1486966 -0.106933,-0.2145111 -0.01646,-0.024667 -0.0473,-0.03976 -0.06444,-0.064441 -0.04593,-0.067869 -0.100764,-0.1268275 -0.150117,-0.192572 -0.05485,-0.068556 -0.09597,-0.1480099 -0.150122,-0.214511 -0.0034,-0.00687 0.0034,-0.017128 0,-0.021247 C 10.400533,2.6095703 10.264807,2.4766405 10.132517,2.3457682 10.068759,2.2826977 10.006389,2.2128386 9.9398965,2.1531961 9.9206945,2.1360685 9.8953395,2.1271453 9.8754515,2.1100076 9.7321695,1.9853167 9.5806835,1.877068 9.4257619,1.7675165 9.3880546,1.7414657 9.3565373,1.7071876 9.318829,1.6818226 9.2708388,1.6502872 9.2173807,1.626293 9.1687128,1.5961977 9.0761807,1.5386101 8.98638,1.4769103 8.8904159,1.4248768 8.8061065,1.3789448 8.720419,1.3378115 8.6333681,1.2960613 8.4866796,1.2261348 8.3372431,1.1603216 8.1836999,1.1034893 8.0013698,1.0356196 7.8176617,0.9801582 7.626413,0.93216937 7.45848,0.88966516 7.2857407,0.85127409 7.1123164,0.82529164 6.8401857,0.78347278 6.5605144,0.76084945 6.276729,0.76084945 m 0,0.68527945 c 0.2049526,0 0.4010012,0.018501 0.599784,0.043191 0.1233866,0.01578 0.2433449,0.039761 0.3639817,0.064441 0.00687,0 0.014403,0 0.021243,0 0.1137885,0.023993 0.2316902,0.054159 0.3427353,0.085626 0.065809,0.0185 0.1281856,0.043188 0.1926186,0.064441 0.1178962,0.039077 0.2289413,0.08014 0.3427289,0.1288149 0.1329837,0.054843 0.2597976,0.1047513 0.3859183,0.1712524 -0.021244,0.00687 -0.043192,0.014406 -0.064445,0.021247 -0.032222,0.01166 -0.077457,0.065812 -0.085679,0.085626 -0.013708,0.032907 0.00339,0.078837 0,0.1288848 0.026051,0.01166 0.041132,0.061016 0.085679,0.085626 0.017123,0.00959 0.028111,-0.00687 0.043192,0 0.026051,0.014406 0.04799,0.059642 0.043192,0.085626 -0.00751,0.037706 -0.060324,0.01508 -0.085679,0.043191 0.00412,0.053473 -0.029475,0.071983 -0.043192,0.1068785 0.00824,0.022621 0.039081,0.016454 0.043192,0.043188 -0.00476,0.029479 -0.054162,0.033591 -0.043192,0.064441 0.049364,0.03839 0.1035055,-0.01508 0.1501167,-0.021247 0.1021339,-0.013034 0.1939921,0.028108 0.257047,-0.021247 -0.00824,-0.048674 0.069234,-0.06307 0.064445,-0.1068786 -0.00412,-0.032907 -0.061698,-0.041818 -0.085679,-0.064441 -0.01303,-0.012334 -0.027424,-0.040447 -0.043192,-0.064441 -0.017828,-0.027422 -0.043879,-0.059642 -0.064445,-0.085694 -0.026738,-0.035649 -0.085679,-0.08014 -0.085679,-0.1068784 6.849e-4,-0.03085 0.035647,-0.043189 0.043192,-0.085694 -0.00824,-0.039077 -0.080204,0 -0.085688,-0.043188 0.00137,-0.013034 0.014404,-0.034965 0.021244,-0.043189 0.1028188,0.056215 0.2042686,0.1226455 0.3002382,0.1925721 0.021949,0.014406 0.042505,0.028108 0.064445,0.043189 0.074023,0.05553 0.1418895,0.1165434 0.2145498,0.1713196 -0.04593,0.00821 -0.069234,0.0617 -0.1069329,0.1069458 -0.026051,0.031537 -0.06787,0.069173 -0.1069329,0.085626 -0.019202,0.00821 -0.046617,-0.010961 -0.064445,0 -0.025364,0.017128 -0.03496,0.065812 -0.064445,0.085694 -0.021243,0.014406 -0.085002,0.064441 -0.1069329,0.064441 -0.026051,6.856e-4 -0.067183,-0.027422 -0.085688,-0.021247 -0.027424,0.00891 -0.011657,0.052787 -0.043192,0.064441 -0.060324,0.021247 -0.1713686,-0.047303 -0.1926131,0.043189 0.026051,0.052102 0.1048754,0.034965 0.1501159,0.064441 0.028789,0.017827 0.078143,0.098035 0.085679,0.1288149 0.00687,0.026051 0.010283,0.1227129 0,0.1500672 -0.028111,0.072668 -0.1089903,0.066499 -0.1926139,0.064441 -0.023322,-6.856e-4 -0.043192,0 -0.064445,0 -0.1418895,-0.00959 -0.2789854,-0.058271 -0.3427353,0.043188 0.00476,0.0774 0.017123,0.125387 0,0.1925047 -0.012334,0.049361 -0.066496,0.085694 -0.064445,0.1288849 0.00137,0.021947 0.037707,0.056214 0.043192,0.085626 0.00339,0.01578 -0.00751,0.050045 0,0.064441 0.023322,0.045246 0.087062,-0.00687 0.1288696,0 0.040445,0.00687 0.086366,0.082885 0.085679,0.1288149 -6.849e-4,0.031537 -0.022617,0.076713 -0.043192,0.1068785 -0.039768,0.061013 -0.1144734,0.052786 -0.1713686,0.085626 -0.04799,0.026738 -0.057587,0.081511 -0.085679,0.128815 -0.030162,0.050732 -0.055526,0.076029 -0.043192,0.1500672 -0.041132,0.080827 -0.086366,0.1329297 -0.1713686,0.1713198 -0.025364,0.01166 -0.063071,0.026738 -0.085679,0.043189 -0.018496,0.013034 -0.038385,0.034962 -0.064445,0.064441 -0.032222,0.035649 -0.068556,0.058271 -0.085688,0.085694 -0.01303,0.021247 -0.00687,0.057587 -0.021244,0.085626 -0.01987,0.03839 -0.060324,0.068556 -0.085679,0.1068785 -0.011656,0.017827 -0.029475,0.040448 -0.043192,0.064441 -0.028789,0.052787 -0.069234,0.1034504 -0.064445,0.1500672 0.00476,0.045246 0.061011,0.046617 0.064445,0.085626 0.00275,0.021947 -0.022617,0.040448 -0.021243,0.064441 6.849e-4,0.034962 0.018496,0.058958 0.021243,0.085626 0.00687,0.067869 -0.030162,0.082266 -0.043192,0.1288849 -0.00614,0.021947 0.00549,0.046617 0,0.064441 -0.010961,0.034278 -0.063758,0.067185 -0.064445,0.1069459 -6.849e-4,0.028792 0.040445,0.066499 0.043192,0.1068786 0.00137,0.027421 -0.026051,0.039076 -0.021244,0.064441 0.00959,0.050045 0.1110452,0.1110606 0.1501159,0.1500672 0.051415,0.051416 0.106247,0.095291 0.1288696,0.1501373 0.018497,0.045933 0.028111,0.1150354 0.064445,0.15 0.026738,0.025367 0.072658,0.03702 0.1069329,0.064441 0.032222,0.024667 0.073336,0.037706 0.1069329,0.064441 0.055535,0.043875 0.1254367,0.1349843 0.2145497,0.1288149 0.046617,-0.00687 0.097336,-0.034278 0.1501168,-0.043189 0.054162,-0.00959 0.1165309,-0.026738 0.1713686,-0.021247 0.041819,0.00687 0.084993,0.045246 0.128865,0.043188 0.04593,0 0.098027,-0.041818 0.1501214,-0.064441 0.090477,-0.039076 0.2323741,-0.1048213 0.3639807,-0.085626 0.1000772,0.014406 0.1021338,0.1486966 0.1713685,0.192572 0.080881,0.00687 0.1501172,-0.03702 0.2145502,-0.021247 0.04799,0.01166 0.1021347,0.090425 0.1069337,0.1288149 0.00476,0.039761 -0.037021,0.082952 -0.043192,0.1068785 -0.012334,0.053473 -0.011656,0.1158594 -0.021244,0.1500674 -0.00751,0.026051 -0.021949,0.058958 -0.021243,0.085694 0,0.023994 0.039767,0.097281 0.064445,0.128815 0.030162,0.03839 0.070607,0.065812 0.1069328,0.1068785 0.05965,0.074725 0.106246,0.1617221 0.150117,0.2570131 0.01166,0.025367 -0.01096,0.052789 0,0.085626 -0.01987,0.1534954 -0.0706,0.2583839 -0.171369,0.4282655 -0.047304,0.054844 -0.1083034,0.1028338 -0.1069326,0.1713197 -0.00339,0.1644635 0.093228,0.2692855 0.085688,0.4282652 -0.01645,0.213757 0.01645,0.2281533 0,0.3425711 0.07197,0.036336 0.02124,0.1596649 0,0.235761 -0.030848,0.090425 -0.068556,0.1109905 -0.085688,0.1713196 0.048677,0.021247 0.1172136,0.013034 0.1713686,0 0,0 0.06581,0.2747699 0.06445,0.2781977 -0.5531843,0.5461682 -1.2468759,0.9511252 -2.0139144,1.1779062 -0.3770061,0.09111 -0.488738,0.09111 -0.6642189,0.128815 -0.2289413,0.03771 -0.4681721,0.06444 -0.7067169,0.06444 -0.1665623,0 -0.3310746,-0.0069 -0.4928513,-0.02124 -0.1247496,-0.01233 -0.2426507,-0.04251 -0.3639811,-0.06444 -0.036336,-0.0069 -0.071284,-0.01371 -0.106933,-0.02124 -0.1117317,-0.03771 -0.2405958,-0.06033 -0.3427357,-0.08563 -0.1165226,-0.03291 -0.229625,-0.06581 -0.3427287,-0.106945 0.00959,-0.0089 0.0185,-0.0075 0.021247,-0.02124 0.00616,-0.02742 0.00137,-0.04251 0,-0.08562 0.010287,-0.04457 0.054843,-0.03976 0.064441,-0.08562 -0.0192,-0.03291 -0.056901,-0.02605 -0.08568,-0.04319 -0.028108,-0.01646 -0.046617,-0.05073 -0.043191,-0.0857 0.04799,-0.01987 0.1370909,0.04524 0.1713611,-0.02124 0.017128,-0.03154 -0.02332,-0.09659 0,-0.128814 0.01578,-0.02124 0.1158438,-0.03771 0.1501217,-0.04319 0.048674,-0.0082 0.1014475,-0.0069 0.1288642,-0.02124 0.030163,-0.01988 0.069235,-0.07198 0.064441,-0.128885 -0.00275,-0.02674 -0.022621,-0.04045 -0.043188,-0.06444 C 5.0407925,9.999443 5.0490105,9.97407 5.0366735,9.954868 5.0154265,9.922646 4.9818295,9.91511 4.9722325,9.869244 c 0.065812,-0.01303 0.1617688,0.069857 0.2570546,0.043192 0.045246,-0.01303 0.107617,-0.1288843 0.1288642,-0.1713192 0.00687,-0.013034 -0.00687,-0.027421 0,-0.043188 0.00821,-0.017827 0.040447,-0.033591 0.043188,-0.043191 0.00687,-0.024667 -0.00549,-0.048674 0,-0.064441 0.016454,-0.046617 0.058271,-0.051416 0.08568,-0.085694 0.020573,-0.026051 0.044562,-0.059642 0.064441,-0.085626 0.021247,-0.028108 0.028792,-0.061013 0.043188,-0.085694 C 5.6083553,9.2497133 5.5535143,9.1921259 5.5734013,9.1188413 5.5953483,9.0365753 5.707756,9.005726 5.7879513,8.968774 5.8153723,8.95574 5.8510213,8.934496 5.8736393,8.925586 5.9284833,8.906385 5.9942844,8.900919 6.0450081,8.882398 6.1306901,8.850861 6.1526273,8.7679794 6.1951245,8.689826 c 0.01987,-0.03702 0.039081,-0.080827 0.043192,-0.1068785 0.00339,-0.023993 -0.00476,-0.036336 0,-0.064441 0.00412,-0.027421 0.013708,-0.055531 0.021244,-0.085557 0.00959,-0.039761 0.021243,-0.1055078 0.021243,-0.1500674 0,-0.036336 -0.01987,-0.053473 -0.021243,-0.085626 -0.00614,-0.1186007 0.041819,-0.1494506 0.085679,-0.214511 0.021949,-0.032221 0.027424,-0.062386 0.043192,-0.085694 C 6.462458,7.7867177 6.5906454,7.7421583 6.5810474,7.5756366 6.5776594,7.5207925 6.5570568,7.4002721 6.5166025,7.3831345 6.4932804,7.3728479 6.4432573,7.3755986 6.4096696,7.3618873 6.301366,7.3214404 6.2218474,7.1775422 6.1094315,7.1693153 c -0.023991,0 -0.037705,0.021247 -0.064441,0.021247 -0.044562,0 -0.1007635,-0.036336 -0.1501166,-0.043188 -0.031536,-0.00687 -0.088422,0.00891 -0.1069329,0 C 5.759149,7.1336673 5.768067,7.0775183 5.744753,7.0617483 5.726253,7.0494143 5.687166,7.0514613 5.659073,7.0405013 5.613827,7.0233733 5.582298,7.0021113 5.5302037,6.9973103 c -0.01578,-6.853e-4 -0.045933,0 -0.064441,0 -0.028792,-0.00687 -0.058958,-0.027421 -0.08568,-0.043189 -0.032907,-0.019874 -0.050732,-0.035649 -0.064441,-0.064441 0.030166,-0.098652 -0.065812,-0.1144186 -0.08568,-0.1713196 -0.00959,-0.026738 0.00891,-0.0617 0,-0.085626 -0.01166,-0.034278 -0.048674,-0.057587 -0.085688,-0.085694 -0.066487,-0.050739 -0.1192601,-0.095231 -0.2145382,-0.1068863 -0.041818,-0.00687 -0.099393,0 -0.1501166,0 C 4.7261459,6.4332844 4.669258,6.4003914 4.6295024,6.3544604 4.5911124,6.3098984 4.5773994,6.2688344 4.5438144,6.2475819 4.5115934,6.2270089 4.4588214,6.2263349 4.4368815,6.2043929 4.4272915,6.1948029 4.4252215,6.1831459 4.4156345,6.1612039 4.3998545,6.1282969 4.3738165,6.0940189 4.3943875,6.054258 4.3580515,6.035757 4.3703945,6.103619 4.3299465,6.097446 4.2942975,6.046714 4.2607115,6.018609 4.17983,6.033005 4.14281,6.039875 4.116073,6.074139 4.072897,6.076194 4.037248,6.076194 4.012568,6.039858 3.9659642,6.033005 3.9303152,6.026135 3.8837042,6.057672 3.8590312,6.054252 3.8199542,6.046712 3.8089862,6.013805 3.7733432,5.989811 3.7472922,5.972683 3.7020592,5.924683 3.6876632,5.92537 c -0.045933,0 -0.086367,0.097965 -0.1501166,0.064441 -0.03085,-0.039076 0.058271,-0.048674 0.021247,-0.085694 -0.027421,-0.028108 -0.041818,0.00687 -0.064441,0.021247 -0.025367,0.017128 -0.057587,0.032221 -0.085688,0.043189 -0.06307,0.02332 -0.1007635,0.017128 -0.1501165,0.043189 -0.045246,0.02332 -0.059642,0.060329 -0.085688,0.1069458 -0.021247,0.03839 -0.054159,0.1048212 -0.08568,0.1068785 -0.03839,0 -0.072663,-0.049361 -0.1069329,-0.064441 -0.1048756,-0.045246 -0.1699981,0.020573 -0.2570494,0.021247 -0.080889,0 -0.1967334,-0.11716 -0.1926213,-0.1925046 0.00275,-0.045933 0.03702,-0.113802 0.043188,-0.1713197 0.00412,-0.045246 0.042504,-0.087064 0.043188,-0.1288149 6.855e-4,-0.05553 -0.092542,-0.1007764 -0.1288694,-0.1069459 -0.08568,-0.01578 -0.202211,0.041818 -0.3002312,0 -0.018501,-0.03085 0.032221,-0.05553 0.043188,-0.085626 0.00616,-0.017128 -0.00616,-0.02332 0,-0.043191 0.010961,-0.028792 0.050732,-0.054844 0.064441,-0.085626 0.010287,-0.02332 0.01096,-0.056215 0.021247,-0.085694 0.01166,-0.033591 0.040447,-0.062387 0.043189,-0.085626 0.00342,-0.03085 -0.0185,-0.065128 -0.043189,-0.085694 -0.076083,0.00687 -0.1281775,0 -0.1713689,0.021247 -0.098706,0.045246 -0.072655,0.1822879 -0.1713689,0.2145111 -0.034278,0.010961 -0.091166,0.014406 -0.1288641,0.021247 -0.032221,0.00687 -0.073347,0.021947 -0.106933,0.021247 -0.039763,-6.857e-4 -0.1048755,-0.039077 -0.1288693,-0.064441 -0.00616,-0.00687 -0.016454,-0.024667 -0.021247,-0.043188 0.00137,-0.00687 -0.00137,-0.014406 0,-0.021247 0.031537,-0.1528113 0.063757,-0.3042487 0.1069329,-0.4495176 0.00206,-0.00687 -0.00206,-0.01508 0,-0.021247 0.028792,-0.095224 0.070598,-0.1850319 0.106933,-0.2781977 0.00891,-0.00687 0.013034,-0.01578 0.021247,-0.021247 0.052788,-0.036336 0.1069328,-0.081511 0.1713688,-0.085626 0.039076,0 0.1124183,0.013707 0.1501165,0.021247 0.034278,0.00687 0.056215,0.040447 0.085688,0.043188 0.08431,0.00687 0.1021343,-0.070543 0.171369,-0.1068784 0.071284,0.010287 0.1069329,-0.00687 0.1713611,0 0.043875,0.00687 0.094599,0.0617 0.1288694,0.064441 0.028792,0 0.036336,-0.047304 0.064441,-0.043189 0.027421,0.00687 0.081566,0.073972 0.08568,0.1068785 0.0048,0.041134 -0.032907,0.083639 -0.021247,0.128815 0.043188,0.043875 0.1309215,0.03839 0.1926134,0.064441 0.040448,-0.032907 0.00616,-0.080895 0,-0.128815 -0.00137,-0.021247 0.00275,-0.045246 0,-0.064441 -0.00412,-0.032907 -0.021247,-0.057587 -0.021247,-0.085626 -6.856e-4,-0.1301857 0.1055622,-0.2055976 0.1926134,-0.2570132 0.037706,-0.022621 0.074034,-0.047303 0.106933,-0.064441 0.045933,-0.02332 0.068556,-0.043189 0.106933,-0.064441 0.069235,-0.039076 0.1384668,-0.063071 0.1926186,-0.1068785 0.025367,-0.058958 -0.00275,-0.1343003 0,-0.192572 0.025367,-0.01508 0.037706,0 0.064441,0 0.041818,-0.00891 0.0617,-0.062386 0.085688,-0.085626 0.013707,-0.013707 0.047303,-0.029479 0.064441,-0.043189 0.041818,-0.032907 0.049361,-0.071297 0.08568,-0.085694 0.013034,-0.00687 0.043875,-0.01166 0.064441,-0.021247 0.027421,-0.00754 0.06307,-0.027422 0.1069328,-0.043188 0.028792,-0.00959 0.095965,-0.010287 0.106933,-0.021247 0.013707,-0.013707 -0.00412,-0.065128 0,-0.085626 C 4.2018046,3.2302515 4.3663016,3.2185967 4.458158,3.183702 4.522599,3.159035 4.5801739,3.105549 4.6507715,3.119261 4.6370645,3.168622 4.5753755,3.145312 4.5863305,3.204887 4.6021105,3.287839 4.7069757,3.195977 4.7364523,3.18364 4.7919823,3.16032 4.8989076,3.145935 4.9722493,3.119199 5.0366903,3.095879 5.1401902,3.064355 5.0791822,2.990384 c -0.050732,0 -0.06307,0.045246 -0.1069329,0.064441 -0.030163,0.00687 -0.03839,-0.0185 -0.064441,-0.021247 -0.024667,0 -0.039076,0.026051 -0.064441,0.021247 C 4.8180003,3.047955 4.7830383,2.99861 4.7789263,2.969199 4.7686393,2.893103 4.8543303,2.875963 4.8858592,2.8191317 4.8652862,2.7498917 4.7720701,2.8026777 4.7144903,2.7759437 c 0.00616,-0.041134 0.037705,-0.078084 0.085688,-0.085626 0.039076,-0.00687 0.1268068,0.00687 0.1501166,0.021247 0.013707,0.01166 0,0.045246 0.021247,0.064441 0.02332,0.021247 0.05553,0.00687 0.085688,0 0.010961,-0.052103 -0.072663,-0.029479 -0.064441,-0.064441 0.0617,-0.040447 0.1816504,-0.010961 0.2570469,-0.021247 0.043191,-0.00687 0.089801,-0.042505 0.1288693,-0.064441 0.03702,-0.020573 0.06787,-0.05553 0.106933,-0.021247 0.010961,0.03702 -0.021947,0.045246 -0.043188,0.064441 -0.069919,0.062386 -0.1384694,0.1418405 -0.1926212,0.2144411 0.033591,0.032907 0.093229,0.01508 0.1501216,0.021247 0.021947,0 0.041134,0.017128 0.064441,0.021247 0.027422,0.00687 0.064441,-0.00821 0.085688,0 0.03839,0.00959 0.04799,0.064441 0.08568,0.064441 0.062386,0 0.056901,-0.085694 0.021247,-0.1288149 0.010961,-0.043188 0.036336,-0.054844 0.021247,-0.085694 C 5.6501455,2.7197229 5.5336223,2.7855279 5.528137,2.7114969 5.524717,2.6655639 5.576127,2.6600809 5.592578,2.6258029 5.585038,2.5374369 5.665234,2.5333229 5.65702,2.4544853 5.6529,2.4215783 5.615886,2.4208943 5.592579,2.3900443 5.580919,2.3742643 5.585709,2.3379413 5.571332,2.3256033 5.523342,2.2851563 5.4273876,2.2954403 5.4212155,2.2187248 c -0.00275,-0.045246 0.00687,-0.078837 0,-0.1288149 -0.00616,-0.045933 -0.045246,-0.1836586 -0.08568,-0.192572 -0.051416,-0.010961 -0.08843,0.078086 -0.1501217,0.1068784 -0.033591,0.01578 -0.095278,0.027422 -0.1288641,0.021247 -0.021947,-0.00687 -0.061013,-0.021947 -0.064441,-0.064441 -0.00412,-0.047988 0.034278,-0.056215 0.043188,-0.1068086 -0.00754,-0.030163 -0.034965,-0.019874 -0.064441,-0.043189 -0.033591,-0.025367 -0.062386,-0.079456 -0.106933,-0.085626 -0.022621,0 -0.063757,0.019874 -0.08568,0.021247 -0.041134,0 -0.072663,-0.010287 -0.106933,-0.021247 0.014406,-0.00687 0.028108,-0.016454 0.043189,-0.021247 0.083624,-0.028792 0.1713689,-0.040447 0.2570494,-0.064441 0.01508,-0.00687 0.028108,-0.017128 0.043189,-0.021247 0.021247,0.022621 0.03839,0.070543 0.064441,0.085626 0.017128,0.00959 0.043188,-0.00687 0.064441,0 0.067185,0.020573 0.1192719,0.058271 0.1926187,0.043189 0.025367,-0.044562 -0.050732,-0.050732 -0.021247,-0.085694 0.049361,0.00687 0.090479,0.027422 0.1288693,0.043189 0.052787,-0.03839 0.087738,-0.045246 0.08568,-0.1068785 -6.857e-4,-0.031537 -0.042504,-0.043188 -0.064441,-0.064441 0.043189,-0.00754 0.085002,-0.01508 0.1288694,-0.021247 0.00342,0.01166 0.014406,0.020573 0.021247,0.021247 0.026051,0.00687 0.1131024,-0.034962 0.1288642,-0.043189 0.00275,0 -0.00412,-0.018501 0,-0.021247 0.1734236,-0.018501 0.3571322,-0.021247 0.5353481,-0.021247 m -1.7136484,0.321322 c -0.01578,0.029479 -0.032221,0.054159 -0.064441,0.064441 0.00821,0.044562 -0.057587,0.071914 -0.064441,0.1068085 -0.00412,0.023994 -0.00137,0.064441 0,0.085694 0.013707,0.2186232 -0.1720478,0.3268718 -0.3859188,0.3213874 -0.041818,0.039761 -0.019874,0.1164761 -0.043188,0.1713197 -0.019201,0.045933 -0.082253,0.089738 -0.1288642,0.085626 -0.034278,0 -0.085688,-0.054159 -0.085688,-0.085626 0,-0.039077 0.05553,-0.062386 0.021247,-0.1069459 0.0048,-0.030163 0.072655,-0.058958 0.064441,-0.1068784 -0.00821,-0.050732 -0.065812,-0.013034 -0.1288694,-0.021247 -0.035649,-0.00687 -0.091166,-0.025367 -0.1288693,-0.043189 0.069235,-0.045933 0.1405243,-0.08638 0.21455,-0.1288849 0.06444,-0.03839 0.1268134,-0.071914 0.1926175,-0.1068787 0.1727396,-0.086997 0.3578111,-0.1671377 0.5353489,-0.2356261 m 3.6843848,0.5138224 c -0.018506,0 -0.027424,0.012334 -0.043192,0.021247 -0.03496,0.021247 -0.03702,0.05416 -0.064445,0.064441 -0.037021,0.014406 -0.080194,0.00687 -0.085679,0.043189 -0.00412,0.028108 0.022617,0.037706 0.021244,0.064441 -0.013708,0.033591 -0.036334,0.045246 -0.043192,0.085626 0.046617,0.075412 0.1569697,-0.00687 0.2145498,-0.021247 0.026051,-0.00754 0.050041,0 0.064445,-0.021247 0.015777,-0.023994 0.00888,-0.071984 0.021244,-0.1069458 0.01303,-0.03839 0.047303,-0.029479 0.043192,-0.064441 -0.00412,-0.034278 -0.072658,-0.069927 -0.128864,-0.064441 m -5.012809,0.5352058 c 0.041818,0.010961 0.134347,0.132243 0.043188,0.1713197 -0.00891,0.00687 -0.1281853,0.024667 -0.1501166,0.021247 -0.031537,-0.00687 -0.053473,-0.058958 -0.085688,-0.064441 -0.06307,-0.010961 -0.1494298,0.06924 -0.1926135,0 0.010961,-0.040447 0.058958,-0.029479 0.106933,-0.043188 0.08568,-0.02332 0.2042683,-0.1048212 0.2783005,-0.085626 m 0.1713612,0.2144404 c 0.021247,0 0.03839,0.040447 0.064441,0.043188 0.024667,0 0.049361,-0.024667 0.064441,-0.021247 0.03839,0.010287 0.057587,0.078837 0.021247,0.1069459 -0.030163,0 -0.041818,-0.025367 -0.064441,-0.021247 -0.062386,0.01096 -0.08226,0.1322429 -0.1288693,0.1288149 -0.043875,-0.00687 -0.065812,-0.096594 -0.021247,-0.1288149 0.00137,-0.027422 -0.022621,-0.03702 -0.021247,-0.064441 0.013707,-0.017128 0.049361,-0.045246 0.08568,-0.043188 m -0.21455,0.021247 c 0.013034,6.853e-4 0.016454,0 0.021247,0 -0.00616,0.048674 -0.026737,0.062386 -0.064441,0.085694 C 3.08308,3.1785242 3.0405911,3.2271322 3.0193439,3.3107678 3.0131839,3.3354348 2.9432529,3.4025638 2.912411,3.3963938 2.839748,3.3813138 2.938462,3.2456399 2.955599,3.2250742 2.9741,3.2024532 2.998104,3.1866842 3.02004,3.1606332 3.040613,3.1352662 3.042661,3.0886492 3.063229,3.0749392 3.085176,3.0598592 3.153708,3.0523182 3.1920932,3.0536922 m 6.5119443,0.021247 c 0.03291,0.00891 0.03977,0.047304 0.06444,0.064441 0.01851,0.012334 0.04388,0.00821 0.06445,0.021247 0.02399,0.01508 0.03702,0.041134 0.06444,0.064441 0.03839,0.032221 0.09596,0.060329 0.1501165,0.085694 0.01096,0.00687 0.03016,0.01578 0.04319,0.021247 0.03771,0.048674 0.07129,0.099336 0.106933,0.1500674 0.0041,0.027421 0.0082,0.067869 0.02124,0.085626 0.03565,0.048674 0.0898,0.090425 0.12887,0.1500673 -6.86e-4,0.056901 0.02467,0.091179 0.06445,0.1068785 0.05004,0.08501 0.102133,0.169949 0.150116,0.2569458 0.01988,0.039763 0.02399,0.088368 0.04319,0.1288149 -0.0144,0 -0.02948,0.00687 -0.04319,0 -0.04524,-0.079524 -0.280358,-0.095224 -0.300239,0.021247 -0.0089,0.051416 0.0336,0.1199041 -0.04319,0.1288149 -0.04868,0.00687 -0.104875,-0.050045 -0.171366,-0.064441 -0.02742,-0.00687 -0.064439,0.00959 -0.085679,0 -0.05004,-0.017128 -0.04251,-0.076713 -0.08568,-0.1068785 -0.02467,-0.017128 -0.08911,-0.03839 -0.12887,-0.043188 -0.02467,0 -0.03838,0 -0.06444,0 -0.03085,-0.00687 -0.08088,-0.00687 -0.106932,-0.021247 -0.02467,-0.01508 -0.07952,-0.042504 -0.08568,-0.064441 -0.00959,-0.033591 0.061698,-0.078086 0.064445,-0.1068085 0.0014,-0.021247 -0.01578,-0.03085 -0.02124,-0.064441 -0.0034,-0.019874 0.0041,-0.050732 0,-0.064441 -0.0069,-0.02332 -0.048677,-0.042504 -0.085689,-0.043188 -0.032909,0 -0.057587,0.020573 -0.085679,0.021247 -0.040445,6.856e-4 -0.121329,-0.025367 -0.1713689,-0.021247 -0.030162,0 -0.057587,0.0192 -0.085688,0.021247 -0.079508,0.00687 -0.1309216,-0.00687 -0.1926131,0 -0.045243,0 -0.1295563,0.02332 -0.1713695,0.043188 C 8.71976,3.855422 8.703983,3.875311 8.676559,3.889021 8.664225,3.895891 8.649821,3.903427 8.633367,3.910268 8.607316,3.921928 8.572356,3.946604 8.547688,3.953456 c -0.035647,0.00891 -0.085002,0 -0.1501223,0 -0.046617,0 -0.1281774,-0.00959 -0.1288641,-0.064441 C 8.2680158,3.80476 8.4243014,3.839654 8.504504,3.824574 8.534666,3.817704 8.554545,3.781385 8.590183,3.760133 8.607315,3.749846 8.616921,3.749846 8.633375,3.738886 8.660799,3.719686 8.714943,3.675129 8.719054,3.65326 8.723174,3.632687 8.695063,3.603899 8.69781,3.588819 8.7012,3.569619 8.736891,3.549056 8.762255,3.524378 8.800649,3.486672 8.821893,3.44218 8.8691879,3.4174995 c 0.032222,-0.017128 0.092542,-0.016454 0.1069411,-0.043188 0.00339,-0.029479 -6.858e-4,-0.037706 0,-0.064441 0.01987,-0.0185 0.026051,-0.03976 0.043192,-0.043189 0.049364,-0.010961 0.092537,0.023993 0.1501168,0.021247 0.024668,0 0.05896,-0.00687 0.085679,-0.021247 0.022617,-0.01508 0.042505,-0.03085 0.064445,-0.043188 0.023991,-0.012334 0.03496,-0.040447 0.064445,-0.043188 0.071981,-0.00687 0.1172171,0.084939 0.1501171,0.1288149 0.02742,0.036336 0.104882,0.081511 0.150121,0.1068785 0.02536,0.014406 0.05759,0.03085 0.08568,0.043189 0.05964,0.026735 0.169311,0.113048 0.171369,0.1713197 0.0014,0.028792 -0.02605,0.03702 -0.02124,0.064441 0.04524,0.00754 0.08431,-0.040447 0.08568,-0.085626 6.86e-4,-0.028108 -0.02674,-0.034278 -0.02124,-0.064441 0.02124,-0.045246 0.1014481,-0.00687 0.1288691,-0.021247 -0.0048,-0.051416 -0.08499,-0.058958 -0.1288691,-0.085626 -0.02332,-0.014406 -0.03976,-0.032907 -0.06445,-0.043188 -0.03565,-0.014406 -0.07951,-0.021947 -0.106933,-0.043189 -0.02605,-0.019874 -0.03908,-0.054844 -0.06444,-0.085626 -0.03702,-0.043875 -0.108303,-0.050045 -0.08568,-0.1500673 0.01096,-0.01508 0.02536,-0.047303 0.04319,-0.043188 M 3.6651491,3.2228128 h 0.064441 c 0.02332,6.856e-4 0.054844,-0.012334 0.064441,0 -0.01508,0.060329 -0.1453178,0.043188 -0.1926135,0.021247 0.00275,-0.022621 0.034278,-0.0185 0.064441,-0.021247 M 3.4512833,3.3297573 c 0.01578,0 0.026738,-0.00687 0.043189,0 -0.042505,0.035649 -0.098706,0.063071 -0.1713688,0.085626 -0.034965,0.010961 -0.079511,0.017128 -0.085681,-0.021247 -0.00754,-0.047303 0.032221,-0.03839 0.064441,-0.043189 0.03976,-0.00687 0.102826,-0.019874 0.1501216,-0.021247 m 5.9553356,0 c -0.029475,0.00959 -0.045243,0.0774 0,0.085626 0.021244,-0.012334 0.026738,-0.046617 0.021244,-0.085626 -0.011657,-0.012334 -0.011657,0 -0.021244,0 m -0.021244,0.1288149 c -0.014404,0.00687 -0.027424,0.00687 -0.043192,0.021247 6.858e-4,0.051416 0.010283,0.084255 0,0.1288149 0.029475,0.056215 0.09185,0.017827 0.1069329,-0.021247 0.017828,-0.095224 -0.020575,-0.1404698 -0.064445,-0.128815 m 0.3002379,0.2569458 c 0.0336,0.054844 0.09665,0.09392 0.171369,0.1068785 0.02742,-0.020573 0.03016,-0.071914 0.04319,-0.1068785 -0.03222,6.854e-4 -0.0665,0 -0.106933,0 -0.04045,0 -0.08363,-0.0192 -0.106934,0 M 1.6745706,5.5573378 c 0.1124184,-0.00687 0.1453177,0.1480099 0.2357971,0.192572 0.022621,0.01166 0.056214,0.01508 0.085688,0.021247 0.023994,0.00687 0.041818,0.013707 0.064441,0.021247 0.048674,0.016454 0.1110451,0.00687 0.1501166,0.021247 0.058271,0.026051 0.1000767,0.1418406 0.1501165,0.1713197 0.00275,0.029479 -0.00891,0.063757 0,0.085626 0.023994,0.032221 0.067869,0.043875 0.1069329,0.064441 0.046617,0.025367 0.06307,0.086997 0.1069329,0.1068785 0.01508,0.00687 0.040448,-0.00687 0.064441,0 0.060329,0.0185 0.076774,0.1006392 0.1288693,0.085557 0.034278,-0.00959 0.037706,-0.053473 0.043188,-0.085557 0.022621,-0.024667 0.050732,-0.063757 0.085681,-0.064441 0.056901,0 0.065128,0.051416 0.085688,0.1068786 0.01166,0.031537 0.034965,0.073971 0.043188,0.1068785 0.014406,0.056901 0.01166,0.2227352 0,0.2569458 -0.014406,0.041818 -0.072663,0.061016 -0.106933,0.1069459 -0.016454,0.021247 -0.030163,0.048674 -0.043188,0.064441 -0.021947,0.027422 -0.047303,0.039076 -0.064441,0.064441 -0.00959,0.014406 -0.012334,0.045246 -0.021247,0.064441 -0.027421,0.058271 -0.065815,0.1014605 -0.043188,0.1713197 0.00959,0.028792 0.042504,0.052102 0.043188,0.085693 0,0.039761 -0.078825,0.063757 -0.08568,0.1068785 -0.0048,0.032221 0.032907,0.08638 0.043191,0.128815 0.00754,0.032221 0.066499,0.064441 0.08568,0.085694 0.032221,0.036336 0.056215,0.082885 0.085688,0.1288149 0.058271,0.089054 0.093221,0.1918853 0.1501165,0.2781976 0.029479,0.045246 0.087051,0.081582 0.1069329,0.1288149 0.010287,0.023994 -0.00959,0.064441 0,0.085694 0.032907,0.073971 0.1823371,0.1562368 0.2570495,0.192572 0.034965,0.017128 0.075404,0 0.1069328,0.021247 0.048674,0.026738 0.1466937,0.1075626 0.171369,0.1500673 0.021947,0.03839 0.032221,0.132243 0.043189,0.1925046 0.014406,0.080211 -0.00342,0.1486967 0,0.2357609 0.00275,0.047303 0.020573,0.081511 0.021247,0.1288149 0,0.016454 6.855e-4,0.047987 0,0.064441 -0.00137,0.056901 0.00479,0.1137347 0,0.1712523 -0.00275,0.031537 -0.00206,0.059642 0,0.085694 0.00275,0.028108 0.0192,0.039076 0.021247,0.064441 0.00137,0.026738 -0.023994,0.065128 -0.021247,0.085694 0.00616,0.057587 0.052789,0.097281 0.064441,0.1500674 0.00891,0.041818 0.026738,0.1425274 0.021247,0.1925724 -0.00342,0.026738 -0.017128,0.0569 -0.021247,0.085624 -0.00275,0.022617 0.00342,0.042506 0,0.064445 -0.00412,0.03222 -0.02332,0.05553 -0.021247,0.08562 0.00412,0.0617 0.054844,0.109687 0.064441,0.171319 0.00342,0.02057 -6.857e-4,0.04456 0,0.06444 6.855e-4,0.0185 0.01578,0.02605 0.021247,0.04319 C 3.7241619,10.295376 3.5555359,10.18027 3.3903381,10.055569 3.233368,9.9369676 3.0811947,9.8060954 2.9406697,9.6697392 2.9338032,9.6628728 2.9262631,9.6553326 2.9194226,9.6484921 2.7775126,9.5087195 2.6356237,9.3552239 2.5122376,9.1989864 2.4409539,9.1085618 2.3628075,9.0160122 2.2976869,8.9207888 2.2592959,8.8638878 2.2263962,8.8084264 2.1907543,8.7494689 2.1688166,8.7145056 2.1475642,8.6781713 2.1263121,8.6425908 2.065298,8.5377013 2.0077318,8.4315776 1.9549443,8.321272 1.9213522,8.2520312 1.8994145,8.1787454 1.8692639,8.1067623 1.7972876,7.9368136 1.728746,7.7716637 1.6766507,7.5928028 1.6396309,7.4660439 1.6176932,7.3385995 1.5909635,7.2070416 1.5703899,7.1069518 1.5409186,7.0089842 1.5265223,6.9069063 1.5189821,6.8513759 1.5107424,6.7917335 1.5052751,6.7355866 1.4888215,6.5745511 1.484028,6.4087145 1.484028,6.2429476 c 0,-0.2069683 0.017827,-0.4001575 0.043189,-0.5995852 6.855e-4,-0.00687 -6.857e-4,-0.014406 0,-0.021247 0.043188,0 0.1021419,-0.06307 0.1501217,-0.064441 m 1.8425351,0.5139595 c 0.043875,-0.019874 0.057587,0.080211 0.021247,0.085694 -0.034278,0.00687 -0.054844,-0.069927 -0.021247,-0.085694"
       style="display:inline;opacity:0.6;fill:#00abff;fill-opacity:1;stroke-width:0.685553;filter:url(#filter4)"
       class="ColorScheme-Text" />
    <path
       id="path1"
       d="m 6.2795126,0.75872447 c -0.2186647,0 -0.4304729,0.0178269 -0.642967,0.0431888 -0.2083804,0.0246674 -0.420875,0.0596424 -0.6210362,0.10687851 -0.064441,0.0150804 -0.1268069,0.0459328 -0.1926135,0.0644411 -0.057587,0.0157799 -0.1144731,0.0253671 -0.1713689,0.0431913 -0.071976,0.02262 -0.1466885,0.040447 -0.2145499,0.064441 -0.073347,0.026051 -0.1418897,0.056901 -0.2145498,0.085626 -0.1412031,0.056901 -0.2721306,0.1247703 -0.407171,0.1925721 -0.048674,0.024668 -0.1021341,0.03839 -0.1501165,0.064441 -0.1576567,0.082885 -0.3022881,0.1802331 -0.4496684,0.2781977 -0.056215,0.037706 -0.1165227,0.067185 -0.171361,0.1068785 -0.022621,0.016454 -0.041818,0.026051 -0.064441,0.043188 -0.064441,0.048674 -0.1309267,0.097211 -0.1926213,0.15 -0.073339,0.061013 -0.1439445,0.1281309 -0.2145499,0.192572 -0.021947,0.020573 -0.042505,0.043875 -0.064441,0.064441 -0.00754,0.00754 -0.013707,0.013707 -0.021247,0.021247 -0.010961,0.010961 -0.010287,0.032221 -0.021247,0.043189 -0.1439444,0.1397858 -0.3009171,0.273399 -0.4284162,0.4282655 -0.00342,0.00687 0.00342,0.017128 0,0.021247 -0.1240707,0.150754 -0.2351183,0.306991 -0.3427357,0.4714553 -0.014407,0.021947 -0.028792,0.041818 -0.043188,0.064441 -0.010287,0.016454 -0.032221,0.025367 -0.043188,0.043189 -0.041134,0.067185 -0.069235,0.1432812 -0.1069329,0.214511 -0.012334,0.022621 -0.03085,0.041818 -0.043188,0.064441 -0.051416,0.1000224 -0.1028183,0.1986741 -0.1501166,0.3001354 -0.00275,0.00687 0.00275,0.01578 0,0.021247 -0.080203,0.173307 -0.1521789,0.3521002 -0.2145498,0.5350745 -0.013034,0.036336 -0.03085,0.070613 -0.043189,0.1069458 -0.00206,0.00687 0.00206,0.01508 0,0.021247 C 1.036352,4.657921 1.019893,4.701111 1.006871,4.7443018 0.956826,4.9203529 0.910906,5.0964708 0.87800158,5.279445 c -0.02332,0.1315589 -0.050732,0.2720277 -0.064441,0.4070817 -0.0185,0.1815339 -0.021247,0.3713645 -0.021247,0.5570123 0,0.2768267 0.024667,0.5481688 0.064441,0.8140952 0.00412,0.028108 -0.00479,0.058271 0,0.085626 0.030166,0.1822878 0.080882,0.3597785 0.1288694,0.5352116 0.017827,0.065812 0.043875,0.1274442 0.064441,0.192572 0.027422,0.088368 0.054159,0.1706356 0.085688,0.2569458 0.052787,0.1452685 0.106933,0.2891666 0.1713689,0.4281967 0.034278,0.072668 0.069913,0.1438979 0.1069329,0.2145112 0.1041916,0.2001121 0.2159206,0.3939874 0.3427287,0.5783329 0.010961,0.016454 0.031537,0.026738 0.043191,0.043188 0.1357176,0.192572 0.2700737,0.3837044 0.4284159,0.5570801 0.027422,0.030162 0.057587,0.056214 0.08568,0.085699 0.027422,0.02879 0.057587,0.05759 0.085688,0.08562 0.1466885,0.146639 0.3091437,0.277512 0.4715994,0.407081 0.2097511,0.167139 0.4311582,0.314464 0.6642191,0.44945 0.00821,0.0069 0.013034,0.01645 0.021247,0.02124 0.036336,0.02057 0.070606,0.04457 0.106933,0.06444 0.2166072,0.106946 0.4743482,0.222735 0.6429671,0.300136 0.075405,0.02879 0.1583486,0.03908 0.2358023,0.06444 0.036336,0.01233 0.070606,0.03154 0.106933,0.04319 0.093221,0.02811 0.1837077,0.0617 0.2783005,0.08562 0.028792,0.0075 0.056901,0.0144 0.085688,0.02124 0.2001536,0.0473 0.4126482,0.08288 0.6210292,0.106878 0.2118085,0.02467 0.4236173,0.04319 0.6429666,0.04319 0.2330609,0 0.4599521,-0.0144 0.6854716,-0.04319 0.2501931,-0.03291 0.4668003,-0.08494 0.6854642,-0.128815 1.1639266,-0.298764 2.1674461,-0.974378 2.8919866,-1.8843809 0.0192,-0.023993 0.04593,-0.039763 0.06445,-0.064441 0.0061,-0.00821 0.01508,-0.013707 0.02124,-0.021247 0.0096,-0.012334 0.01233,-0.030163 0.02124,-0.043188 0.427045,-0.5653074 0.738246,-1.2203538 0.921268,-1.927571 0.03838,-0.1486966 0.08089,-0.2960222 0.106933,-0.4495176 0.0034,-0.020573 -0.0034,-0.043189 0,-0.064441 0.0041,-0.027421 0.01713,-0.054159 0.02124,-0.085694 0.0041,-0.029479 0.01783,-0.056215 0.02124,-0.085626 h -0.02124 c 0.03016,-0.2254793 0.06445,-0.4515744 0.06445,-0.6852794 0,-0.3782201 -0.03427,-0.7564401 -0.106933,-1.1134762 -0.0061,-0.029479 -0.01508,-0.056215 -0.02124,-0.085626 -0.03154,-0.1425272 -0.08499,-0.2899207 -0.12887,-0.4283342 -0.002,-0.00687 0.002,-0.01508 0,-0.021247 -0.0082,-0.026051 -0.01233,-0.03839 -0.02124,-0.064441 -0.02674,-0.081582 -0.05553,-0.176805 -0.08568,-0.2569458 -0.0082,-0.021947 -0.01233,-0.043875 -0.02124,-0.064441 -0.02948,-0.074725 -0.07403,-0.1411565 -0.106933,-0.2144411 -0.0014,0 0.0014,-0.017827 0,-0.021247 -0.01713,-0.03702 -0.04662,-0.070543 -0.06444,-0.1068785 -0.06718,-0.1390991 -0.13572,-0.2740842 -0.21455,-0.4070131 -0.03976,-0.067185 -0.06444,-0.1486966 -0.106933,-0.2145111 -0.01646,-0.024667 -0.0473,-0.03976 -0.06444,-0.064441 -0.04593,-0.067869 -0.100764,-0.1268275 -0.150117,-0.192572 -0.05485,-0.068556 -0.09597,-0.1480099 -0.150122,-0.214511 -0.0034,-0.00687 0.0034,-0.017128 0,-0.021247 C 10.400533,2.6095703 10.264807,2.4766405 10.132517,2.3457682 10.068759,2.2826977 10.006389,2.2128386 9.9398965,2.1531961 9.9206945,2.1360685 9.8953395,2.1271453 9.8754515,2.1100076 9.7321695,1.9853167 9.5806835,1.877068 9.4257619,1.7675165 9.3880546,1.7414657 9.3565373,1.7071876 9.318829,1.6818226 9.2708388,1.6502872 9.2173807,1.626293 9.1687128,1.5961977 9.0761807,1.5386101 8.98638,1.4769103 8.8904159,1.4248768 8.8061065,1.3789448 8.720419,1.3378115 8.6333681,1.2960613 8.4866796,1.2261348 8.3372431,1.1603216 8.1836999,1.1034893 8.0013698,1.0356196 7.8176617,0.9801582 7.626413,0.93216937 7.45848,0.88966516 7.2857407,0.85127409 7.1123164,0.82529164 6.8401857,0.78347278 6.5605144,0.76084945 6.276729,0.76084945 m 0,0.68527945 c 0.2049526,0 0.4010012,0.018501 0.599784,0.043191 0.1233866,0.01578 0.2433449,0.039761 0.3639817,0.064441 0.00687,0 0.014403,0 0.021243,0 0.1137885,0.023993 0.2316902,0.054159 0.3427353,0.085626 0.065809,0.0185 0.1281856,0.043188 0.1926186,0.064441 0.1178962,0.039077 0.2289413,0.08014 0.3427289,0.1288149 0.1329837,0.054843 0.2597976,0.1047513 0.3859183,0.1712524 -0.021244,0.00687 -0.043192,0.014406 -0.064445,0.021247 -0.032222,0.01166 -0.077457,0.065812 -0.085679,0.085626 -0.013708,0.032907 0.00339,0.078837 0,0.1288848 0.026051,0.01166 0.041132,0.061016 0.085679,0.085626 0.017123,0.00959 0.028111,-0.00687 0.043192,0 0.026051,0.014406 0.04799,0.059642 0.043192,0.085626 -0.00751,0.037706 -0.060324,0.01508 -0.085679,0.043191 0.00412,0.053473 -0.029475,0.071983 -0.043192,0.1068785 0.00824,0.022621 0.039081,0.016454 0.043192,0.043188 -0.00476,0.029479 -0.054162,0.033591 -0.043192,0.064441 0.049364,0.03839 0.1035055,-0.01508 0.1501167,-0.021247 0.1021339,-0.013034 0.1939921,0.028108 0.257047,-0.021247 -0.00824,-0.048674 0.069234,-0.06307 0.064445,-0.1068786 -0.00412,-0.032907 -0.061698,-0.041818 -0.085679,-0.064441 -0.01303,-0.012334 -0.027424,-0.040447 -0.043192,-0.064441 -0.017828,-0.027422 -0.043879,-0.059642 -0.064445,-0.085694 -0.026738,-0.035649 -0.085679,-0.08014 -0.085679,-0.1068784 6.849e-4,-0.03085 0.035647,-0.043189 0.043192,-0.085694 -0.00824,-0.039077 -0.080204,0 -0.085688,-0.043188 0.00137,-0.013034 0.014404,-0.034965 0.021244,-0.043189 0.1028188,0.056215 0.2042686,0.1226455 0.3002382,0.1925721 0.021949,0.014406 0.042505,0.028108 0.064445,0.043189 0.074023,0.05553 0.1418895,0.1165434 0.2145498,0.1713196 -0.04593,0.00821 -0.069234,0.0617 -0.1069329,0.1069458 -0.026051,0.031537 -0.06787,0.069173 -0.1069329,0.085626 -0.019202,0.00821 -0.046617,-0.010961 -0.064445,0 -0.025364,0.017128 -0.03496,0.065812 -0.064445,0.085694 -0.021243,0.014406 -0.085002,0.064441 -0.1069329,0.064441 -0.026051,6.856e-4 -0.067183,-0.027422 -0.085688,-0.021247 -0.027424,0.00891 -0.011657,0.052787 -0.043192,0.064441 -0.060324,0.021247 -0.1713686,-0.047303 -0.1926131,0.043189 0.026051,0.052102 0.1048754,0.034965 0.1501159,0.064441 0.028789,0.017827 0.078143,0.098035 0.085679,0.1288149 0.00687,0.026051 0.010283,0.1227129 0,0.1500672 -0.028111,0.072668 -0.1089903,0.066499 -0.1926139,0.064441 -0.023322,-6.856e-4 -0.043192,0 -0.064445,0 -0.1418895,-0.00959 -0.2789854,-0.058271 -0.3427353,0.043188 0.00476,0.0774 0.017123,0.125387 0,0.1925047 -0.012334,0.049361 -0.066496,0.085694 -0.064445,0.1288849 0.00137,0.021947 0.037707,0.056214 0.043192,0.085626 0.00339,0.01578 -0.00751,0.050045 0,0.064441 0.023322,0.045246 0.087062,-0.00687 0.1288696,0 0.040445,0.00687 0.086366,0.082885 0.085679,0.1288149 -6.849e-4,0.031537 -0.022617,0.076713 -0.043192,0.1068785 -0.039768,0.061013 -0.1144734,0.052786 -0.1713686,0.085626 -0.04799,0.026738 -0.057587,0.081511 -0.085679,0.128815 -0.030162,0.050732 -0.055526,0.076029 -0.043192,0.1500672 -0.041132,0.080827 -0.086366,0.1329297 -0.1713686,0.1713198 -0.025364,0.01166 -0.063071,0.026738 -0.085679,0.043189 -0.018496,0.013034 -0.038385,0.034962 -0.064445,0.064441 -0.032222,0.035649 -0.068556,0.058271 -0.085688,0.085694 -0.01303,0.021247 -0.00687,0.057587 -0.021244,0.085626 -0.01987,0.03839 -0.060324,0.068556 -0.085679,0.1068785 -0.011656,0.017827 -0.029475,0.040448 -0.043192,0.064441 -0.028789,0.052787 -0.069234,0.1034504 -0.064445,0.1500672 0.00476,0.045246 0.061011,0.046617 0.064445,0.085626 0.00275,0.021947 -0.022617,0.040448 -0.021243,0.064441 6.849e-4,0.034962 0.018496,0.058958 0.021243,0.085626 0.00687,0.067869 -0.030162,0.082266 -0.043192,0.1288849 -0.00614,0.021947 0.00549,0.046617 0,0.064441 -0.010961,0.034278 -0.063758,0.067185 -0.064445,0.1069459 -6.849e-4,0.028792 0.040445,0.066499 0.043192,0.1068786 0.00137,0.027421 -0.026051,0.039076 -0.021244,0.064441 0.00959,0.050045 0.1110452,0.1110606 0.1501159,0.1500672 0.051415,0.051416 0.106247,0.095291 0.1288696,0.1501373 0.018497,0.045933 0.028111,0.1150354 0.064445,0.15 0.026738,0.025367 0.072658,0.03702 0.1069329,0.064441 0.032222,0.024667 0.073336,0.037706 0.1069329,0.064441 0.055535,0.043875 0.1254367,0.1349843 0.2145497,0.1288149 0.046617,-0.00687 0.097336,-0.034278 0.1501168,-0.043189 0.054162,-0.00959 0.1165309,-0.026738 0.1713686,-0.021247 0.041819,0.00687 0.084993,0.045246 0.128865,0.043188 0.04593,0 0.098027,-0.041818 0.1501214,-0.064441 0.090477,-0.039076 0.2323741,-0.1048213 0.3639807,-0.085626 0.1000772,0.014406 0.1021338,0.1486966 0.1713685,0.192572 0.080881,0.00687 0.1501172,-0.03702 0.2145502,-0.021247 0.04799,0.01166 0.1021347,0.090425 0.1069337,0.1288149 0.00476,0.039761 -0.037021,0.082952 -0.043192,0.1068785 -0.012334,0.053473 -0.011656,0.1158594 -0.021244,0.1500674 -0.00751,0.026051 -0.021949,0.058958 -0.021243,0.085694 0,0.023994 0.039767,0.097281 0.064445,0.128815 0.030162,0.03839 0.070607,0.065812 0.1069328,0.1068785 0.05965,0.074725 0.106246,0.1617221 0.150117,0.2570131 0.01166,0.025367 -0.01096,0.052789 0,0.085626 -0.01987,0.1534954 -0.0706,0.2583839 -0.171369,0.4282655 -0.047304,0.054844 -0.1083034,0.1028338 -0.1069326,0.1713197 -0.00339,0.1644635 0.093228,0.2692855 0.085688,0.4282652 -0.01645,0.213757 0.01645,0.2281533 0,0.3425711 0.07197,0.036336 0.02124,0.1596649 0,0.235761 -0.030848,0.090425 -0.068556,0.1109905 -0.085688,0.1713196 0.048677,0.021247 0.1172136,0.013034 0.1713686,0 0,0 0.06581,0.2747699 0.06445,0.2781977 -0.5531843,0.5461682 -1.2468759,0.9511252 -2.0139144,1.1779062 -0.3770061,0.09111 -0.488738,0.09111 -0.6642189,0.128815 -0.2289413,0.03771 -0.4681721,0.06444 -0.7067169,0.06444 -0.1665623,0 -0.3310746,-0.0069 -0.4928513,-0.02124 -0.1247496,-0.01233 -0.2426507,-0.04251 -0.3639811,-0.06444 -0.036336,-0.0069 -0.071284,-0.01371 -0.106933,-0.02124 -0.1117317,-0.03771 -0.2405958,-0.06033 -0.3427357,-0.08563 -0.1165226,-0.03291 -0.229625,-0.06581 -0.3427287,-0.106945 0.00959,-0.0089 0.0185,-0.0075 0.021247,-0.02124 0.00616,-0.02742 0.00137,-0.04251 0,-0.08562 0.010287,-0.04457 0.054843,-0.03976 0.064441,-0.08562 -0.0192,-0.03291 -0.056901,-0.02605 -0.08568,-0.04319 -0.028108,-0.01646 -0.046617,-0.05073 -0.043191,-0.0857 0.04799,-0.01987 0.1370909,0.04524 0.1713611,-0.02124 0.017128,-0.03154 -0.02332,-0.09659 0,-0.128814 0.01578,-0.02124 0.1158438,-0.03771 0.1501217,-0.04319 0.048674,-0.0082 0.1014475,-0.0069 0.1288642,-0.02124 0.030163,-0.01988 0.069235,-0.07198 0.064441,-0.128885 -0.00275,-0.02674 -0.022621,-0.04045 -0.043188,-0.06444 C 5.0407925,9.999443 5.0490105,9.97407 5.0366735,9.954868 5.0154265,9.922646 4.9818295,9.91511 4.9722325,9.869244 c 0.065812,-0.01303 0.1617688,0.069857 0.2570546,0.043192 0.045246,-0.01303 0.107617,-0.1288843 0.1288642,-0.1713192 0.00687,-0.013034 -0.00687,-0.027421 0,-0.043188 0.00821,-0.017827 0.040447,-0.033591 0.043188,-0.043191 0.00687,-0.024667 -0.00549,-0.048674 0,-0.064441 0.016454,-0.046617 0.058271,-0.051416 0.08568,-0.085694 0.020573,-0.026051 0.044562,-0.059642 0.064441,-0.085626 0.021247,-0.028108 0.028792,-0.061013 0.043188,-0.085694 C 5.6083553,9.2497133 5.5535143,9.1921259 5.5734013,9.1188413 5.5953483,9.0365753 5.707756,9.005726 5.7879513,8.968774 5.8153723,8.95574 5.8510213,8.934496 5.8736393,8.925586 5.9284833,8.906385 5.9942844,8.900919 6.0450081,8.882398 6.1306901,8.850861 6.1526273,8.7679794 6.1951245,8.689826 c 0.01987,-0.03702 0.039081,-0.080827 0.043192,-0.1068785 0.00339,-0.023993 -0.00476,-0.036336 0,-0.064441 0.00412,-0.027421 0.013708,-0.055531 0.021244,-0.085557 0.00959,-0.039761 0.021243,-0.1055078 0.021243,-0.1500674 0,-0.036336 -0.01987,-0.053473 -0.021243,-0.085626 -0.00614,-0.1186007 0.041819,-0.1494506 0.085679,-0.214511 0.021949,-0.032221 0.027424,-0.062386 0.043192,-0.085694 C 6.462458,7.7867177 6.5906454,7.7421583 6.5810474,7.5756366 6.5776594,7.5207925 6.5570568,7.4002721 6.5166025,7.3831345 6.4932804,7.3728479 6.4432573,7.3755986 6.4096696,7.3618873 6.301366,7.3214404 6.2218474,7.1775422 6.1094315,7.1693153 c -0.023991,0 -0.037705,0.021247 -0.064441,0.021247 -0.044562,0 -0.1007635,-0.036336 -0.1501166,-0.043188 -0.031536,-0.00687 -0.088422,0.00891 -0.1069329,0 C 5.759149,7.1336673 5.768067,7.0775183 5.744753,7.0617483 5.726253,7.0494143 5.687166,7.0514613 5.659073,7.0405013 5.613827,7.0233733 5.582298,7.0021113 5.5302037,6.9973103 c -0.01578,-6.853e-4 -0.045933,0 -0.064441,0 -0.028792,-0.00687 -0.058958,-0.027421 -0.08568,-0.043189 -0.032907,-0.019874 -0.050732,-0.035649 -0.064441,-0.064441 0.030166,-0.098652 -0.065812,-0.1144186 -0.08568,-0.1713196 -0.00959,-0.026738 0.00891,-0.0617 0,-0.085626 -0.01166,-0.034278 -0.048674,-0.057587 -0.085688,-0.085694 -0.066487,-0.050739 -0.1192601,-0.095231 -0.2145382,-0.1068863 -0.041818,-0.00687 -0.099393,0 -0.1501166,0 C 4.7261459,6.4332844 4.669258,6.4003914 4.6295024,6.3544604 4.5911124,6.3098984 4.5773994,6.2688344 4.5438144,6.2475819 4.5115934,6.2270089 4.4588214,6.2263349 4.4368815,6.2043929 4.4272915,6.1948029 4.4252215,6.1831459 4.4156345,6.1612039 4.3998545,6.1282969 4.3738165,6.0940189 4.3943875,6.054258 4.3580515,6.035757 4.3703945,6.103619 4.3299465,6.097446 4.2942975,6.046714 4.2607115,6.018609 4.17983,6.033005 4.14281,6.039875 4.116073,6.074139 4.072897,6.076194 4.037248,6.076194 4.012568,6.039858 3.9659642,6.033005 3.9303152,6.026135 3.8837042,6.057672 3.8590312,6.054252 3.8199542,6.046712 3.8089862,6.013805 3.7733432,5.989811 3.7472922,5.972683 3.7020592,5.924683 3.6876632,5.92537 c -0.045933,0 -0.086367,0.097965 -0.1501166,0.064441 -0.03085,-0.039076 0.058271,-0.048674 0.021247,-0.085694 -0.027421,-0.028108 -0.041818,0.00687 -0.064441,0.021247 -0.025367,0.017128 -0.057587,0.032221 -0.085688,0.043189 -0.06307,0.02332 -0.1007635,0.017128 -0.1501165,0.043189 -0.045246,0.02332 -0.059642,0.060329 -0.085688,0.1069458 -0.021247,0.03839 -0.054159,0.1048212 -0.08568,0.1068785 -0.03839,0 -0.072663,-0.049361 -0.1069329,-0.064441 -0.1048756,-0.045246 -0.1699981,0.020573 -0.2570494,0.021247 -0.080889,0 -0.1967334,-0.11716 -0.1926213,-0.1925046 0.00275,-0.045933 0.03702,-0.113802 0.043188,-0.1713197 0.00412,-0.045246 0.042504,-0.087064 0.043188,-0.1288149 6.855e-4,-0.05553 -0.092542,-0.1007764 -0.1288694,-0.1069459 -0.08568,-0.01578 -0.202211,0.041818 -0.3002312,0 -0.018501,-0.03085 0.032221,-0.05553 0.043188,-0.085626 0.00616,-0.017128 -0.00616,-0.02332 0,-0.043191 0.010961,-0.028792 0.050732,-0.054844 0.064441,-0.085626 0.010287,-0.02332 0.01096,-0.056215 0.021247,-0.085694 0.01166,-0.033591 0.040447,-0.062387 0.043189,-0.085626 0.00342,-0.03085 -0.0185,-0.065128 -0.043189,-0.085694 -0.076083,0.00687 -0.1281775,0 -0.1713689,0.021247 -0.098706,0.045246 -0.072655,0.1822879 -0.1713689,0.2145111 -0.034278,0.010961 -0.091166,0.014406 -0.1288641,0.021247 -0.032221,0.00687 -0.073347,0.021947 -0.106933,0.021247 -0.039763,-6.857e-4 -0.1048755,-0.039077 -0.1288693,-0.064441 -0.00616,-0.00687 -0.016454,-0.024667 -0.021247,-0.043188 0.00137,-0.00687 -0.00137,-0.014406 0,-0.021247 0.031537,-0.1528113 0.063757,-0.3042487 0.1069329,-0.4495176 0.00206,-0.00687 -0.00206,-0.01508 0,-0.021247 0.028792,-0.095224 0.070598,-0.1850319 0.106933,-0.2781977 0.00891,-0.00687 0.013034,-0.01578 0.021247,-0.021247 0.052788,-0.036336 0.1069328,-0.081511 0.1713688,-0.085626 0.039076,0 0.1124183,0.013707 0.1501165,0.021247 0.034278,0.00687 0.056215,0.040447 0.085688,0.043188 0.08431,0.00687 0.1021343,-0.070543 0.171369,-0.1068784 0.071284,0.010287 0.1069329,-0.00687 0.1713611,0 0.043875,0.00687 0.094599,0.0617 0.1288694,0.064441 0.028792,0 0.036336,-0.047304 0.064441,-0.043189 0.027421,0.00687 0.081566,0.073972 0.08568,0.1068785 0.0048,0.041134 -0.032907,0.083639 -0.021247,0.128815 0.043188,0.043875 0.1309215,0.03839 0.1926134,0.064441 0.040448,-0.032907 0.00616,-0.080895 0,-0.128815 -0.00137,-0.021247 0.00275,-0.045246 0,-0.064441 -0.00412,-0.032907 -0.021247,-0.057587 -0.021247,-0.085626 -6.856e-4,-0.1301857 0.1055622,-0.2055976 0.1926134,-0.2570132 0.037706,-0.022621 0.074034,-0.047303 0.106933,-0.064441 0.045933,-0.02332 0.068556,-0.043189 0.106933,-0.064441 0.069235,-0.039076 0.1384668,-0.063071 0.1926186,-0.1068785 0.025367,-0.058958 -0.00275,-0.1343003 0,-0.192572 0.025367,-0.01508 0.037706,0 0.064441,0 0.041818,-0.00891 0.0617,-0.062386 0.085688,-0.085626 0.013707,-0.013707 0.047303,-0.029479 0.064441,-0.043189 0.041818,-0.032907 0.049361,-0.071297 0.08568,-0.085694 0.013034,-0.00687 0.043875,-0.01166 0.064441,-0.021247 0.027421,-0.00754 0.06307,-0.027422 0.1069328,-0.043188 0.028792,-0.00959 0.095965,-0.010287 0.106933,-0.021247 0.013707,-0.013707 -0.00412,-0.065128 0,-0.085626 C 4.2018046,3.2302515 4.3663016,3.2185967 4.458158,3.183702 4.522599,3.159035 4.5801739,3.105549 4.6507715,3.119261 4.6370645,3.168622 4.5753755,3.145312 4.5863305,3.204887 4.6021105,3.287839 4.7069757,3.195977 4.7364523,3.18364 4.7919823,3.16032 4.8989076,3.145935 4.9722493,3.119199 5.0366903,3.095879 5.1401902,3.064355 5.0791822,2.990384 c -0.050732,0 -0.06307,0.045246 -0.1069329,0.064441 -0.030163,0.00687 -0.03839,-0.0185 -0.064441,-0.021247 -0.024667,0 -0.039076,0.026051 -0.064441,0.021247 C 4.8180003,3.047955 4.7830383,2.99861 4.7789263,2.969199 4.7686393,2.893103 4.8543303,2.875963 4.8858592,2.8191317 4.8652862,2.7498917 4.7720701,2.8026777 4.7144903,2.7759437 c 0.00616,-0.041134 0.037705,-0.078084 0.085688,-0.085626 0.039076,-0.00687 0.1268068,0.00687 0.1501166,0.021247 0.013707,0.01166 0,0.045246 0.021247,0.064441 0.02332,0.021247 0.05553,0.00687 0.085688,0 0.010961,-0.052103 -0.072663,-0.029479 -0.064441,-0.064441 0.0617,-0.040447 0.1816504,-0.010961 0.2570469,-0.021247 0.043191,-0.00687 0.089801,-0.042505 0.1288693,-0.064441 0.03702,-0.020573 0.06787,-0.05553 0.106933,-0.021247 0.010961,0.03702 -0.021947,0.045246 -0.043188,0.064441 -0.069919,0.062386 -0.1384694,0.1418405 -0.1926212,0.2144411 0.033591,0.032907 0.093229,0.01508 0.1501216,0.021247 0.021947,0 0.041134,0.017128 0.064441,0.021247 0.027422,0.00687 0.064441,-0.00821 0.085688,0 0.03839,0.00959 0.04799,0.064441 0.08568,0.064441 0.062386,0 0.056901,-0.085694 0.021247,-0.1288149 0.010961,-0.043188 0.036336,-0.054844 0.021247,-0.085694 C 5.6501455,2.7197229 5.5336223,2.7855279 5.528137,2.7114969 5.524717,2.6655639 5.576127,2.6600809 5.592578,2.6258029 5.585038,2.5374369 5.665234,2.5333229 5.65702,2.4544853 5.6529,2.4215783 5.615886,2.4208943 5.592579,2.3900443 5.580919,2.3742643 5.585709,2.3379413 5.571332,2.3256033 5.523342,2.2851563 5.4273876,2.2954403 5.4212155,2.2187248 c -0.00275,-0.045246 0.00687,-0.078837 0,-0.1288149 -0.00616,-0.045933 -0.045246,-0.1836586 -0.08568,-0.192572 -0.051416,-0.010961 -0.08843,0.078086 -0.1501217,0.1068784 -0.033591,0.01578 -0.095278,0.027422 -0.1288641,0.021247 -0.021947,-0.00687 -0.061013,-0.021947 -0.064441,-0.064441 -0.00412,-0.047988 0.034278,-0.056215 0.043188,-0.1068086 -0.00754,-0.030163 -0.034965,-0.019874 -0.064441,-0.043189 -0.033591,-0.025367 -0.062386,-0.079456 -0.106933,-0.085626 -0.022621,0 -0.063757,0.019874 -0.08568,0.021247 -0.041134,0 -0.072663,-0.010287 -0.106933,-0.021247 0.014406,-0.00687 0.028108,-0.016454 0.043189,-0.021247 0.083624,-0.028792 0.1713689,-0.040447 0.2570494,-0.064441 0.01508,-0.00687 0.028108,-0.017128 0.043189,-0.021247 0.021247,0.022621 0.03839,0.070543 0.064441,0.085626 0.017128,0.00959 0.043188,-0.00687 0.064441,0 0.067185,0.020573 0.1192719,0.058271 0.1926187,0.043189 0.025367,-0.044562 -0.050732,-0.050732 -0.021247,-0.085694 0.049361,0.00687 0.090479,0.027422 0.1288693,0.043189 0.052787,-0.03839 0.087738,-0.045246 0.08568,-0.1068785 -6.857e-4,-0.031537 -0.042504,-0.043188 -0.064441,-0.064441 0.043189,-0.00754 0.085002,-0.01508 0.1288694,-0.021247 0.00342,0.01166 0.014406,0.020573 0.021247,0.021247 0.026051,0.00687 0.1131024,-0.034962 0.1288642,-0.043189 0.00275,0 -0.00412,-0.018501 0,-0.021247 0.1734236,-0.018501 0.3571322,-0.021247 0.5353481,-0.021247 m -1.7136484,0.321322 c -0.01578,0.029479 -0.032221,0.054159 -0.064441,0.064441 0.00821,0.044562 -0.057587,0.071914 -0.064441,0.1068085 -0.00412,0.023994 -0.00137,0.064441 0,0.085694 0.013707,0.2186232 -0.1720478,0.3268718 -0.3859188,0.3213874 -0.041818,0.039761 -0.019874,0.1164761 -0.043188,0.1713197 -0.019201,0.045933 -0.082253,0.089738 -0.1288642,0.085626 -0.034278,0 -0.085688,-0.054159 -0.085688,-0.085626 0,-0.039077 0.05553,-0.062386 0.021247,-0.1069459 0.0048,-0.030163 0.072655,-0.058958 0.064441,-0.1068784 -0.00821,-0.050732 -0.065812,-0.013034 -0.1288694,-0.021247 -0.035649,-0.00687 -0.091166,-0.025367 -0.1288693,-0.043189 0.069235,-0.045933 0.1405243,-0.08638 0.21455,-0.1288849 0.06444,-0.03839 0.1268134,-0.071914 0.1926175,-0.1068787 0.1727396,-0.086997 0.3578111,-0.1671377 0.5353489,-0.2356261 m 3.6843848,0.5138224 c -0.018506,0 -0.027424,0.012334 -0.043192,0.021247 -0.03496,0.021247 -0.03702,0.05416 -0.064445,0.064441 -0.037021,0.014406 -0.080194,0.00687 -0.085679,0.043189 -0.00412,0.028108 0.022617,0.037706 0.021244,0.064441 -0.013708,0.033591 -0.036334,0.045246 -0.043192,0.085626 0.046617,0.075412 0.1569697,-0.00687 0.2145498,-0.021247 0.026051,-0.00754 0.050041,0 0.064445,-0.021247 0.015777,-0.023994 0.00888,-0.071984 0.021244,-0.1069458 0.01303,-0.03839 0.047303,-0.029479 0.043192,-0.064441 -0.00412,-0.034278 -0.072658,-0.069927 -0.128864,-0.064441 m -5.012809,0.5352058 c 0.041818,0.010961 0.134347,0.132243 0.043188,0.1713197 -0.00891,0.00687 -0.1281853,0.024667 -0.1501166,0.021247 -0.031537,-0.00687 -0.053473,-0.058958 -0.085688,-0.064441 -0.06307,-0.010961 -0.1494298,0.06924 -0.1926135,0 0.010961,-0.040447 0.058958,-0.029479 0.106933,-0.043188 0.08568,-0.02332 0.2042683,-0.1048212 0.2783005,-0.085626 m 0.1713612,0.2144404 c 0.021247,0 0.03839,0.040447 0.064441,0.043188 0.024667,0 0.049361,-0.024667 0.064441,-0.021247 0.03839,0.010287 0.057587,0.078837 0.021247,0.1069459 -0.030163,0 -0.041818,-0.025367 -0.064441,-0.021247 -0.062386,0.01096 -0.08226,0.1322429 -0.1288693,0.1288149 -0.043875,-0.00687 -0.065812,-0.096594 -0.021247,-0.1288149 0.00137,-0.027422 -0.022621,-0.03702 -0.021247,-0.064441 0.013707,-0.017128 0.049361,-0.045246 0.08568,-0.043188 m -0.21455,0.021247 c 0.013034,6.853e-4 0.016454,0 0.021247,0 -0.00616,0.048674 -0.026737,0.062386 -0.064441,0.085694 C 3.08308,3.1785242 3.0405911,3.2271322 3.0193439,3.3107678 3.0131839,3.3354348 2.9432529,3.4025638 2.912411,3.3963938 2.839748,3.3813138 2.938462,3.2456399 2.955599,3.2250742 2.9741,3.2024532 2.998104,3.1866842 3.02004,3.1606332 3.040613,3.1352662 3.042661,3.0886492 3.063229,3.0749392 3.085176,3.0598592 3.153708,3.0523182 3.1920932,3.0536922 m 6.5119443,0.021247 c 0.03291,0.00891 0.03977,0.047304 0.06444,0.064441 0.01851,0.012334 0.04388,0.00821 0.06445,0.021247 0.02399,0.01508 0.03702,0.041134 0.06444,0.064441 0.03839,0.032221 0.09596,0.060329 0.1501165,0.085694 0.01096,0.00687 0.03016,0.01578 0.04319,0.021247 0.03771,0.048674 0.07129,0.099336 0.106933,0.1500674 0.0041,0.027421 0.0082,0.067869 0.02124,0.085626 0.03565,0.048674 0.0898,0.090425 0.12887,0.1500673 -6.86e-4,0.056901 0.02467,0.091179 0.06445,0.1068785 0.05004,0.08501 0.102133,0.169949 0.150116,0.2569458 0.01988,0.039763 0.02399,0.088368 0.04319,0.1288149 -0.0144,0 -0.02948,0.00687 -0.04319,0 -0.04524,-0.079524 -0.280358,-0.095224 -0.300239,0.021247 -0.0089,0.051416 0.0336,0.1199041 -0.04319,0.1288149 -0.04868,0.00687 -0.104875,-0.050045 -0.171366,-0.064441 -0.02742,-0.00687 -0.064439,0.00959 -0.085679,0 -0.05004,-0.017128 -0.04251,-0.076713 -0.08568,-0.1068785 -0.02467,-0.017128 -0.08911,-0.03839 -0.12887,-0.043188 -0.02467,0 -0.03838,0 -0.06444,0 -0.03085,-0.00687 -0.08088,-0.00687 -0.106932,-0.021247 -0.02467,-0.01508 -0.07952,-0.042504 -0.08568,-0.064441 -0.00959,-0.033591 0.061698,-0.078086 0.064445,-0.1068085 0.0014,-0.021247 -0.01578,-0.03085 -0.02124,-0.064441 -0.0034,-0.019874 0.0041,-0.050732 0,-0.064441 -0.0069,-0.02332 -0.048677,-0.042504 -0.085689,-0.043188 -0.032909,0 -0.057587,0.020573 -0.085679,0.021247 -0.040445,6.856e-4 -0.121329,-0.025367 -0.1713689,-0.021247 -0.030162,0 -0.057587,0.0192 -0.085688,0.021247 -0.079508,0.00687 -0.1309216,-0.00687 -0.1926131,0 -0.045243,0 -0.1295563,0.02332 -0.1713695,0.043188 C 8.71976,3.855422 8.703983,3.875311 8.676559,3.889021 8.664225,3.895891 8.649821,3.903427 8.633367,3.910268 8.607316,3.921928 8.572356,3.946604 8.547688,3.953456 c -0.035647,0.00891 -0.085002,0 -0.1501223,0 -0.046617,0 -0.1281774,-0.00959 -0.1288641,-0.064441 C 8.2680158,3.80476 8.4243014,3.839654 8.504504,3.824574 8.534666,3.817704 8.554545,3.781385 8.590183,3.760133 8.607315,3.749846 8.616921,3.749846 8.633375,3.738886 8.660799,3.719686 8.714943,3.675129 8.719054,3.65326 8.723174,3.632687 8.695063,3.603899 8.69781,3.588819 8.7012,3.569619 8.736891,3.549056 8.762255,3.524378 8.800649,3.486672 8.821893,3.44218 8.8691879,3.4174995 c 0.032222,-0.017128 0.092542,-0.016454 0.1069411,-0.043188 0.00339,-0.029479 -6.858e-4,-0.037706 0,-0.064441 0.01987,-0.0185 0.026051,-0.03976 0.043192,-0.043189 0.049364,-0.010961 0.092537,0.023993 0.1501168,0.021247 0.024668,0 0.05896,-0.00687 0.085679,-0.021247 0.022617,-0.01508 0.042505,-0.03085 0.064445,-0.043188 0.023991,-0.012334 0.03496,-0.040447 0.064445,-0.043188 0.071981,-0.00687 0.1172171,0.084939 0.1501171,0.1288149 0.02742,0.036336 0.104882,0.081511 0.150121,0.1068785 0.02536,0.014406 0.05759,0.03085 0.08568,0.043189 0.05964,0.026735 0.169311,0.113048 0.171369,0.1713197 0.0014,0.028792 -0.02605,0.03702 -0.02124,0.064441 0.04524,0.00754 0.08431,-0.040447 0.08568,-0.085626 6.86e-4,-0.028108 -0.02674,-0.034278 -0.02124,-0.064441 0.02124,-0.045246 0.1014481,-0.00687 0.1288691,-0.021247 -0.0048,-0.051416 -0.08499,-0.058958 -0.1288691,-0.085626 -0.02332,-0.014406 -0.03976,-0.032907 -0.06445,-0.043188 -0.03565,-0.014406 -0.07951,-0.021947 -0.106933,-0.043189 -0.02605,-0.019874 -0.03908,-0.054844 -0.06444,-0.085626 -0.03702,-0.043875 -0.108303,-0.050045 -0.08568,-0.1500673 0.01096,-0.01508 0.02536,-0.047303 0.04319,-0.043188 M 3.6651491,3.2228128 h 0.064441 c 0.02332,6.856e-4 0.054844,-0.012334 0.064441,0 -0.01508,0.060329 -0.1453178,0.043188 -0.1926135,0.021247 0.00275,-0.022621 0.034278,-0.0185 0.064441,-0.021247 M 3.4512833,3.3297573 c 0.01578,0 0.026738,-0.00687 0.043189,0 -0.042505,0.035649 -0.098706,0.063071 -0.1713688,0.085626 -0.034965,0.010961 -0.079511,0.017128 -0.085681,-0.021247 -0.00754,-0.047303 0.032221,-0.03839 0.064441,-0.043189 0.03976,-0.00687 0.102826,-0.019874 0.1501216,-0.021247 m 5.9553356,0 c -0.029475,0.00959 -0.045243,0.0774 0,0.085626 0.021244,-0.012334 0.026738,-0.046617 0.021244,-0.085626 -0.011657,-0.012334 -0.011657,0 -0.021244,0 m -0.021244,0.1288149 c -0.014404,0.00687 -0.027424,0.00687 -0.043192,0.021247 6.858e-4,0.051416 0.010283,0.084255 0,0.1288149 0.029475,0.056215 0.09185,0.017827 0.1069329,-0.021247 0.017828,-0.095224 -0.020575,-0.1404698 -0.064445,-0.128815 m 0.3002379,0.2569458 c 0.0336,0.054844 0.09665,0.09392 0.171369,0.1068785 0.02742,-0.020573 0.03016,-0.071914 0.04319,-0.1068785 -0.03222,6.854e-4 -0.0665,0 -0.106933,0 -0.04045,0 -0.08363,-0.0192 -0.106934,0 M 1.6745706,5.5573378 c 0.1124184,-0.00687 0.1453177,0.1480099 0.2357971,0.192572 0.022621,0.01166 0.056214,0.01508 0.085688,0.021247 0.023994,0.00687 0.041818,0.013707 0.064441,0.021247 0.048674,0.016454 0.1110451,0.00687 0.1501166,0.021247 0.058271,0.026051 0.1000767,0.1418406 0.1501165,0.1713197 0.00275,0.029479 -0.00891,0.063757 0,0.085626 0.023994,0.032221 0.067869,0.043875 0.1069329,0.064441 0.046617,0.025367 0.06307,0.086997 0.1069329,0.1068785 0.01508,0.00687 0.040448,-0.00687 0.064441,0 0.060329,0.0185 0.076774,0.1006392 0.1288693,0.085557 0.034278,-0.00959 0.037706,-0.053473 0.043188,-0.085557 0.022621,-0.024667 0.050732,-0.063757 0.085681,-0.064441 0.056901,0 0.065128,0.051416 0.085688,0.1068786 0.01166,0.031537 0.034965,0.073971 0.043188,0.1068785 0.014406,0.056901 0.01166,0.2227352 0,0.2569458 -0.014406,0.041818 -0.072663,0.061016 -0.106933,0.1069459 -0.016454,0.021247 -0.030163,0.048674 -0.043188,0.064441 -0.021947,0.027422 -0.047303,0.039076 -0.064441,0.064441 -0.00959,0.014406 -0.012334,0.045246 -0.021247,0.064441 -0.027421,0.058271 -0.065815,0.1014605 -0.043188,0.1713197 0.00959,0.028792 0.042504,0.052102 0.043188,0.085693 0,0.039761 -0.078825,0.063757 -0.08568,0.1068785 -0.0048,0.032221 0.032907,0.08638 0.043191,0.128815 0.00754,0.032221 0.066499,0.064441 0.08568,0.085694 0.032221,0.036336 0.056215,0.082885 0.085688,0.1288149 0.058271,0.089054 0.093221,0.1918853 0.1501165,0.2781976 0.029479,0.045246 0.087051,0.081582 0.1069329,0.1288149 0.010287,0.023994 -0.00959,0.064441 0,0.085694 0.032907,0.073971 0.1823371,0.1562368 0.2570495,0.192572 0.034965,0.017128 0.075404,0 0.1069328,0.021247 0.048674,0.026738 0.1466937,0.1075626 0.171369,0.1500673 0.021947,0.03839 0.032221,0.132243 0.043189,0.1925046 0.014406,0.080211 -0.00342,0.1486967 0,0.2357609 0.00275,0.047303 0.020573,0.081511 0.021247,0.1288149 0,0.016454 6.855e-4,0.047987 0,0.064441 -0.00137,0.056901 0.00479,0.1137347 0,0.1712523 -0.00275,0.031537 -0.00206,0.059642 0,0.085694 0.00275,0.028108 0.0192,0.039076 0.021247,0.064441 0.00137,0.026738 -0.023994,0.065128 -0.021247,0.085694 0.00616,0.057587 0.052789,0.097281 0.064441,0.1500674 0.00891,0.041818 0.026738,0.1425274 0.021247,0.1925724 -0.00342,0.026738 -0.017128,0.0569 -0.021247,0.085624 -0.00275,0.022617 0.00342,0.042506 0,0.064445 -0.00412,0.03222 -0.02332,0.05553 -0.021247,0.08562 0.00412,0.0617 0.054844,0.109687 0.064441,0.171319 0.00342,0.02057 -6.857e-4,0.04456 0,0.06444 6.855e-4,0.0185 0.01578,0.02605 0.021247,0.04319 C 3.7241619,10.295376 3.5555359,10.18027 3.3903381,10.055569 3.233368,9.9369676 3.0811947,9.8060954 2.9406697,9.6697392 2.9338032,9.6628728 2.9262631,9.6553326 2.9194226,9.6484921 2.7775126,9.5087195 2.6356237,9.3552239 2.5122376,9.1989864 2.4409539,9.1085618 2.3628075,9.0160122 2.2976869,8.9207888 2.2592959,8.8638878 2.2263962,8.8084264 2.1907543,8.7494689 2.1688166,8.7145056 2.1475642,8.6781713 2.1263121,8.6425908 2.065298,8.5377013 2.0077318,8.4315776 1.9549443,8.321272 1.9213522,8.2520312 1.8994145,8.1787454 1.8692639,8.1067623 1.7972876,7.9368136 1.728746,7.7716637 1.6766507,7.5928028 1.6396309,7.4660439 1.6176932,7.3385995 1.5909635,7.2070416 1.5703899,7.1069518 1.5409186,7.0089842 1.5265223,6.9069063 1.5189821,6.8513759 1.5107424,6.7917335 1.5052751,6.7355866 1.4888215,6.5745511 1.484028,6.4087145 1.484028,6.2429476 c 0,-0.2069683 0.017827,-0.4001575 0.043189,-0.5995852 6.855e-4,-0.00687 -6.857e-4,-0.014406 0,-0.021247 0.043188,0 0.1021419,-0.06307 0.1501217,-0.064441 m 1.8425351,0.5139595 c 0.043875,-0.019874 0.057587,0.080211 0.021247,0.085694 -0.034278,0.00687 -0.054844,-0.069927 -0.021247,-0.085694"
       style="fill:url(#linearGradient4);fill-opacity:1;stroke-width:0.685553"
       class="ColorScheme-Text" />
  </g>
</svg>
