<?xml version="1.0" encoding="UTF-8" standalone="no"?>
<svg
   width="48.483997"
   height="48.484001"
   version="1"
   id="svg28"
   xmlns:xlink="http://www.w3.org/1999/xlink"
   xmlns="http://www.w3.org/2000/svg"
   xmlns:svg="http://www.w3.org/2000/svg"
   xmlns:rdf="http://www.w3.org/1999/02/22-rdf-syntax-ns#"
   xmlns:cc="http://creativecommons.org/ns#"
   xmlns:dc="http://purl.org/dc/elements/1.1/">
  <metadata
     id="metadata34">
    <rdf:RDF>
      <cc:Work
         rdf:about="">
        <dc:format>image/svg+xml</dc:format>
        <dc:type
           rdf:resource="http://purl.org/dc/dcmitype/StillImage" />
        <dc:title />
      </cc:Work>
    </rdf:RDF>
  </metadata>
  <defs
     id="defs32">
    <linearGradient
       id="linearGradient1">
      <stop
         style="stop-color:#ff3dfb;stop-opacity:0;"
         offset="0"
         id="stop3" />
      <stop
         style="stop-color:#ff3dfb;stop-opacity:1;"
         offset="1"
         id="stop1" />
    </linearGradient>
    <style
       id="style4"
       type="text/css" />
    <style
       type="text/css"
       id="style872" />
    <style
       id="style4-5"
       type="text/css" />
    <style
       id="style6"
       type="text/css" />
    <style
       id="style8"
       type="text/css" />
    <style
       type="text/css"
       id="style872-0" />
    <style
       type="text/css"
       id="style874" />
    <style
       type="text/css"
       id="style876" />
    <style
       type="text/css"
       id="style4-93" />
    <style
       id="style872-9"
       type="text/css" />
    <style
       type="text/css"
       id="style4-5-8" />
    <style
       type="text/css"
       id="style6-97" />
    <style
       type="text/css"
       id="style8-3" />
    <style
       id="style872-0-9"
       type="text/css" />
    <style
       id="style874-4"
       type="text/css" />
    <style
       id="style876-7"
       type="text/css" />
    <style
       id="style4-9"
       type="text/css" />
    <style
       type="text/css"
       id="style872-2" />
    <style
       id="style4-5-5"
       type="text/css" />
    <style
       id="style6-9"
       type="text/css" />
    <style
       id="style8-2"
       type="text/css" />
    <style
       type="text/css"
       id="style872-0-29" />
    <style
       type="text/css"
       id="style874-3" />
    <style
       type="text/css"
       id="style876-1" />
    <style
       type="text/css"
       id="style872-06" />
    <style
       id="style4-8"
       type="text/css" />
    <style
       id="style6-7"
       type="text/css" />
    <style
       id="style8-9"
       type="text/css" />
    <style
       type="text/css"
       id="style872-0-2" />
    <style
       type="text/css"
       id="style874-2" />
    <style
       type="text/css"
       id="style876-8" />
    <style
       type="text/css"
       id="style853" />
    <style
       type="text/css"
       id="style863" />
    <style
       type="text/css"
       id="style865" />
    <style
       type="text/css"
       id="style867" />
    <style
       type="text/css"
       id="style869" />
    <style
       type="text/css"
       id="style871" />
    <style
       type="text/css"
       id="style873" />
    <style
       type="text/css"
       id="style875" />
    <style
       type="text/css"
       id="current-color-scheme">.ColorScheme-Text {
        color:#4d4d4d;
      }</style>
    <style
       id="style862"
       type="text/css">.ColorScheme-Text {
        color:#4d4d4d;
      }</style>
    <linearGradient
       xlink:href="#linearGradient1"
       id="linearGradient3"
       x1="113.53001"
       y1="65"
       x2="113.53001"
       y2="27.094507"
       gradientUnits="userSpaceOnUse" />
    <filter
       style="color-interpolation-filters:sRGB"
       id="filter3"
       x="-0.027000001"
       y="-0.026999999"
       width="1.054"
       height="1.054">
      <feGaussianBlur
         stdDeviation="0.51749998"
         id="feGaussianBlur3" />
    </filter>
  </defs>
  <g
     id="g1388"
     transform="translate(60.241947,-7.7580001)">
    <g
       id="g1374"
       transform="translate(-146.52996)">
      <path
         id="path1358"
         style="display:inline;opacity:0.6;fill:#ff3dfb;fill-opacity:1;stroke-width:1.5;stroke-linecap:round;stroke-linejoin:round;paint-order:stroke fill markers;filter:url(#filter3)"
         d="m 90.530013,9 c -1.653351,0 -3,1.346649 -3,3 v 40 c 0,1.653351 1.346649,3 3,3 h 39.999997 c 1.65335,0 3,-1.34665 3,-3 V 12 c 0,-1.65335 -1.34665,-3 -3,-3 z m 0,1 h 39.999997 c 1.11665,0 2,0.883352 2,2 v 40 c 0,1.116648 -0.88335,2 -2,2 H 90.530013 c -1.116649,0 -2,-0.883353 -2,-2 V 12 c 0,-1.116647 0.883351,-2 2,-2 z m 19.949217,5 a 3,3 0 0 0 -2.94922,3 3,3 0 0 0 3,3 3,3 0 0 0 3,-3 3,3 0 0 0 -3,-3 3,3 0 0 0 -0.0508,0 z m 0.002,1 a 2,2 0 0 1 0.0488,0 2,2 0 0 1 2,2 2,2 0 0 1 -2,2 2,2 0 0 1 -2,-2 2,2 0 0 1 1.95117,-2 z m 10.13477,3.105469 a 3,3 0 0 0 -2.30859,0.873047 3,3 0 0 0 0,4.24414 3,3 0 0 0 4.24414,0 3,3 0 0 0 0,-4.24414 3,3 0 0 0 -0.0371,-0.03516 3,3 0 0 0 -1.89844,-0.83789 z m -20.19922,0.002 a 3,3 0 0 0 -1.908201,0.871094 3,3 0 0 0 0,4.24414 3,3 0 0 0 4.244141,0 3,3 0 0 0 0.0352,-0.03711 3,3 0 0 0 -0.0352,-4.207031 3,3 0 0 0 -2.33594,-0.871094 z m 20.16016,0.998047 a 2,2 0 0 1 1.23242,0.546875 2,2 0 0 1 0.0352,0.0332 2,2 0 0 1 0,2.830078 2,2 0 0 1 -2.83008,0 2,2 0 0 1 0,-2.830078 2,2 0 0 1 1.5625,-0.580078 z m -20.1211,0.002 a 2,2 0 0 1 1.58985,0.578125 2,2 0 0 1 0.0332,2.794922 2,2 0 0 1 -0.0332,0.0332 2,2 0 0 1 -2.83008,0 2,2 0 0 1 0,-2.828125 2,2 0 0 1 1.24023,-0.578125 z M 96.530013,29 a 3,3 0 0 0 -3,3 3,3 0 0 0 3,3 3,3 0 0 0 3,-3 3,3 0 0 0 0,-0.002 3,3 0 0 0 0,-0.002 3,3 0 0 0 0,-0.002 3,3 0 0 0 0,-0.002 3,3 0 0 0 0,-0.002 3,3 0 0 0 0,-0.002 3,3 0 0 0 0,-0.002 3,3 0 0 0 0,-0.002 3,3 0 0 0 0,-0.002 3,3 0 0 0 0,-0.002 3,3 0 0 0 0,-0.002 3,3 0 0 0 0,-0.002 3,3 0 0 0 0,-0.002 3,3 0 0 0 0,-0.002 3,3 0 0 0 0,-0.002 3,3 0 0 0 0,-0.002 3,3 0 0 0 0,-0.002 3,3 0 0 0 0,-0.002 3,3 0 0 0 0,-0.002 3,3 0 0 0 0,-0.002 3,3 0 0 0 0,-0.002 3,3 0 0 0 0,-0.002 3,3 0 0 0 0,-0.002 3,3 0 0 0 0,-0.002 3,3 0 0 0 0,-0.002 3,3 0 0 0 0,-0.002 3,3 0 0 0 -3,-2.949219 z m 27.999997,0 a 3,3 0 0 0 -3,3 3,3 0 0 0 3,3 3,3 0 0 0 3,-3 3,3 0 0 0 0,-0.002 3,3 0 0 0 0,-0.002 3,3 0 0 0 0,-0.002 3,3 0 0 0 0,-0.002 3,3 0 0 0 0,-0.002 3,3 0 0 0 0,-0.002 3,3 0 0 0 0,-0.002 3,3 0 0 0 0,-0.002 3,3 0 0 0 0,-0.002 3,3 0 0 0 0,-0.002 3,3 0 0 0 0,-0.002 3,3 0 0 0 0,-0.002 3,3 0 0 0 0,-0.002 3,3 0 0 0 0,-0.002 3,3 0 0 0 0,-0.002 3,3 0 0 0 0,-0.002 3,3 0 0 0 0,-0.002 3,3 0 0 0 0,-0.002 3,3 0 0 0 0,-0.002 3,3 0 0 0 0,-0.002 3,3 0 0 0 0,-0.002 3,3 0 0 0 0,-0.002 3,3 0 0 0 0,-0.002 3,3 0 0 0 0,-0.002 3,3 0 0 0 0,-0.002 3,3 0 0 0 0,-0.002 3,3 0 0 0 -3,-2.949219 z m -27.999997,1 a 2,2 0 0 1 2,1.951172 2,2 0 0 1 0,0.002 2,2 0 0 1 0,0.002 2,2 0 0 1 0,0.002 2,2 0 0 1 0,0.002 2,2 0 0 1 0,0.002 2,2 0 0 1 0,0.002 2,2 0 0 1 0,0.002 2,2 0 0 1 0,0.002 2,2 0 0 1 0,0.002 2,2 0 0 1 0,0.002 2,2 0 0 1 0,0.002 2,2 0 0 1 0,0.002 2,2 0 0 1 0,0.002 2,2 0 0 1 0,0.002 2,2 0 0 1 0,0.002 2,2 0 0 1 0,0.002 2,2 0 0 1 0,0.002 2,2 0 0 1 0,0.002 2,2 0 0 1 0,0.002 2,2 0 0 1 0,0.002 2,2 0 0 1 0,0.002 2,2 0 0 1 0,0.002 2,2 0 0 1 0,0.002 2,2 0 0 1 0,0.002 2,2 0 0 1 0,0.002 2,2 0 0 1 -2,2 2,2 0 0 1 -2,-2 2,2 0 0 1 2,-2 z m 27.999997,0 a 2,2 0 0 1 2,1.951172 2,2 0 0 1 0,0.002 2,2 0 0 1 0,0.002 2,2 0 0 1 0,0.002 2,2 0 0 1 0,0.002 2,2 0 0 1 0,0.002 2,2 0 0 1 0,0.002 2,2 0 0 1 0,0.002 2,2 0 0 1 0,0.002 2,2 0 0 1 0,0.002 2,2 0 0 1 0,0.002 2,2 0 0 1 0,0.002 2,2 0 0 1 0,0.002 2,2 0 0 1 0,0.002 2,2 0 0 1 0,0.002 2,2 0 0 1 0,0.002 2,2 0 0 1 0,0.002 2,2 0 0 1 0,0.002 2,2 0 0 1 0,0.002 2,2 0 0 1 0,0.002 2,2 0 0 1 0,0.002 2,2 0 0 1 0,0.002 2,2 0 0 1 0,0.002 2,2 0 0 1 0,0.002 2,2 0 0 1 0,0.002 2,2 0 0 1 0,0.002 2,2 0 0 1 -2,2 2,2 0 0 1 -2,-2 2,2 0 0 1 2,-2 z m -23.71289,8.904297 a 3,3 0 0 0 -2.308591,0.873047 3,3 0 0 0 0,4.24414 3,3 0 0 0 4.244141,0 3,3 0 0 0 0,-4.24414 3,3 0 0 0 -0.0371,-0.03516 3,3 0 0 0 -1.89844,-0.837891 z m 19.39844,0.002 a 3,3 0 0 0 -1.9082,0.871094 3,3 0 0 0 0,4.24414 3,3 0 0 0 4.24414,0 3,3 0 0 0 0.0352,-0.03711 3,3 0 0 0 -0.0352,-4.207031 3,3 0 0 0 -2.33594,-0.871093 z m -19.4375,0.998047 a 2,2 0 0 1 1.23242,0.546875 2,2 0 0 1 0.0352,0.0332 2,2 0 0 1 0,2.830078 2,2 0 0 1 -2.83008,0 2,2 0 0 1 0,-2.830078 2,2 0 0 1 1.5625,-0.580078 z m 19.47656,0.002 a 2,2 0 0 1 1.58985,0.578125 2,2 0 0 1 0.0332,2.794922 2,2 0 0 1 -0.0332,0.03516 2,2 0 0 1 -2.83008,0 2,2 0 0 1 0,-2.830078 2,2 0 0 1 1.24023,-0.578125 z M 110.47923,43 a 3,3 0 0 0 -2.94922,3 3,3 0 0 0 3,3 3,3 0 0 0 3,-3 3,3 0 0 0 -3,-3 3,3 0 0 0 -0.0508,0 z m 0.002,1 a 2,2 0 0 1 0.0488,0 2,2 0 0 1 2,2 2,2 0 0 1 -2,2 2,2 0 0 1 -2,-2 2,2 0 0 1 1.95117,-2 z" />
      <path
         id="path1"
         style="fill:url(#linearGradient3);fill-opacity:1;stroke-width:1.5;stroke-linecap:round;stroke-linejoin:round;paint-order:stroke fill markers"
         d="m 90.530013,9 c -1.653351,0 -3,1.346649 -3,3 v 40 c 0,1.653351 1.346649,3 3,3 h 39.999997 c 1.65335,0 3,-1.34665 3,-3 V 12 c 0,-1.65335 -1.34665,-3 -3,-3 z m 0,1 h 39.999997 c 1.11665,0 2,0.883352 2,2 v 40 c 0,1.116648 -0.88335,2 -2,2 H 90.530013 c -1.116649,0 -2,-0.883353 -2,-2 V 12 c 0,-1.116647 0.883351,-2 2,-2 z m 19.949217,5 a 3,3 0 0 0 -2.94922,3 3,3 0 0 0 3,3 3,3 0 0 0 3,-3 3,3 0 0 0 -3,-3 3,3 0 0 0 -0.0508,0 z m 0.002,1 a 2,2 0 0 1 0.0488,0 2,2 0 0 1 2,2 2,2 0 0 1 -2,2 2,2 0 0 1 -2,-2 2,2 0 0 1 1.95117,-2 z m 10.13477,3.105469 a 3,3 0 0 0 -2.30859,0.873047 3,3 0 0 0 0,4.24414 3,3 0 0 0 4.24414,0 3,3 0 0 0 0,-4.24414 3,3 0 0 0 -0.0371,-0.03516 3,3 0 0 0 -1.89844,-0.83789 z m -20.19922,0.002 a 3,3 0 0 0 -1.908201,0.871094 3,3 0 0 0 0,4.24414 3,3 0 0 0 4.244141,0 3,3 0 0 0 0.0352,-0.03711 3,3 0 0 0 -0.0352,-4.207031 3,3 0 0 0 -2.33594,-0.871094 z m 20.16016,0.998047 a 2,2 0 0 1 1.23242,0.546875 2,2 0 0 1 0.0352,0.0332 2,2 0 0 1 0,2.830078 2,2 0 0 1 -2.83008,0 2,2 0 0 1 0,-2.830078 2,2 0 0 1 1.5625,-0.580078 z m -20.1211,0.002 a 2,2 0 0 1 1.58985,0.578125 2,2 0 0 1 0.0332,2.794922 2,2 0 0 1 -0.0332,0.0332 2,2 0 0 1 -2.83008,0 2,2 0 0 1 0,-2.828125 2,2 0 0 1 1.24023,-0.578125 z M 96.530013,29 a 3,3 0 0 0 -3,3 3,3 0 0 0 3,3 3,3 0 0 0 3,-3 3,3 0 0 0 0,-0.002 3,3 0 0 0 0,-0.002 3,3 0 0 0 0,-0.002 3,3 0 0 0 0,-0.002 3,3 0 0 0 0,-0.002 3,3 0 0 0 0,-0.002 3,3 0 0 0 0,-0.002 3,3 0 0 0 0,-0.002 3,3 0 0 0 0,-0.002 3,3 0 0 0 0,-0.002 3,3 0 0 0 0,-0.002 3,3 0 0 0 0,-0.002 3,3 0 0 0 0,-0.002 3,3 0 0 0 0,-0.002 3,3 0 0 0 0,-0.002 3,3 0 0 0 0,-0.002 3,3 0 0 0 0,-0.002 3,3 0 0 0 0,-0.002 3,3 0 0 0 0,-0.002 3,3 0 0 0 0,-0.002 3,3 0 0 0 0,-0.002 3,3 0 0 0 0,-0.002 3,3 0 0 0 0,-0.002 3,3 0 0 0 0,-0.002 3,3 0 0 0 0,-0.002 3,3 0 0 0 0,-0.002 3,3 0 0 0 -3,-2.949219 z m 27.999997,0 a 3,3 0 0 0 -3,3 3,3 0 0 0 3,3 3,3 0 0 0 3,-3 3,3 0 0 0 0,-0.002 3,3 0 0 0 0,-0.002 3,3 0 0 0 0,-0.002 3,3 0 0 0 0,-0.002 3,3 0 0 0 0,-0.002 3,3 0 0 0 0,-0.002 3,3 0 0 0 0,-0.002 3,3 0 0 0 0,-0.002 3,3 0 0 0 0,-0.002 3,3 0 0 0 0,-0.002 3,3 0 0 0 0,-0.002 3,3 0 0 0 0,-0.002 3,3 0 0 0 0,-0.002 3,3 0 0 0 0,-0.002 3,3 0 0 0 0,-0.002 3,3 0 0 0 0,-0.002 3,3 0 0 0 0,-0.002 3,3 0 0 0 0,-0.002 3,3 0 0 0 0,-0.002 3,3 0 0 0 0,-0.002 3,3 0 0 0 0,-0.002 3,3 0 0 0 0,-0.002 3,3 0 0 0 0,-0.002 3,3 0 0 0 0,-0.002 3,3 0 0 0 0,-0.002 3,3 0 0 0 0,-0.002 3,3 0 0 0 -3,-2.949219 z m -27.999997,1 a 2,2 0 0 1 2,1.951172 2,2 0 0 1 0,0.002 2,2 0 0 1 0,0.002 2,2 0 0 1 0,0.002 2,2 0 0 1 0,0.002 2,2 0 0 1 0,0.002 2,2 0 0 1 0,0.002 2,2 0 0 1 0,0.002 2,2 0 0 1 0,0.002 2,2 0 0 1 0,0.002 2,2 0 0 1 0,0.002 2,2 0 0 1 0,0.002 2,2 0 0 1 0,0.002 2,2 0 0 1 0,0.002 2,2 0 0 1 0,0.002 2,2 0 0 1 0,0.002 2,2 0 0 1 0,0.002 2,2 0 0 1 0,0.002 2,2 0 0 1 0,0.002 2,2 0 0 1 0,0.002 2,2 0 0 1 0,0.002 2,2 0 0 1 0,0.002 2,2 0 0 1 0,0.002 2,2 0 0 1 0,0.002 2,2 0 0 1 0,0.002 2,2 0 0 1 0,0.002 2,2 0 0 1 -2,2 2,2 0 0 1 -2,-2 2,2 0 0 1 2,-2 z m 27.999997,0 a 2,2 0 0 1 2,1.951172 2,2 0 0 1 0,0.002 2,2 0 0 1 0,0.002 2,2 0 0 1 0,0.002 2,2 0 0 1 0,0.002 2,2 0 0 1 0,0.002 2,2 0 0 1 0,0.002 2,2 0 0 1 0,0.002 2,2 0 0 1 0,0.002 2,2 0 0 1 0,0.002 2,2 0 0 1 0,0.002 2,2 0 0 1 0,0.002 2,2 0 0 1 0,0.002 2,2 0 0 1 0,0.002 2,2 0 0 1 0,0.002 2,2 0 0 1 0,0.002 2,2 0 0 1 0,0.002 2,2 0 0 1 0,0.002 2,2 0 0 1 0,0.002 2,2 0 0 1 0,0.002 2,2 0 0 1 0,0.002 2,2 0 0 1 0,0.002 2,2 0 0 1 0,0.002 2,2 0 0 1 0,0.002 2,2 0 0 1 0,0.002 2,2 0 0 1 0,0.002 2,2 0 0 1 -2,2 2,2 0 0 1 -2,-2 2,2 0 0 1 2,-2 z m -23.71289,8.904297 a 3,3 0 0 0 -2.308591,0.873047 3,3 0 0 0 0,4.24414 3,3 0 0 0 4.244141,0 3,3 0 0 0 0,-4.24414 3,3 0 0 0 -0.0371,-0.03516 3,3 0 0 0 -1.89844,-0.837891 z m 19.39844,0.002 a 3,3 0 0 0 -1.9082,0.871094 3,3 0 0 0 0,4.24414 3,3 0 0 0 4.24414,0 3,3 0 0 0 0.0352,-0.03711 3,3 0 0 0 -0.0352,-4.207031 3,3 0 0 0 -2.33594,-0.871093 z m -19.4375,0.998047 a 2,2 0 0 1 1.23242,0.546875 2,2 0 0 1 0.0352,0.0332 2,2 0 0 1 0,2.830078 2,2 0 0 1 -2.83008,0 2,2 0 0 1 0,-2.830078 2,2 0 0 1 1.5625,-0.580078 z m 19.47656,0.002 a 2,2 0 0 1 1.58985,0.578125 2,2 0 0 1 0.0332,2.794922 2,2 0 0 1 -0.0332,0.03516 2,2 0 0 1 -2.83008,0 2,2 0 0 1 0,-2.830078 2,2 0 0 1 1.24023,-0.578125 z M 110.47923,43 a 3,3 0 0 0 -2.94922,3 3,3 0 0 0 3,3 3,3 0 0 0 3,-3 3,3 0 0 0 -3,-3 3,3 0 0 0 -0.0508,0 z m 0.002,1 a 2,2 0 0 1 0.0488,0 2,2 0 0 1 2,2 2,2 0 0 1 -2,2 2,2 0 0 1 -2,-2 2,2 0 0 1 1.95117,-2 z" />
    </g>
  </g>
</svg>
