<?xml version="1.0" encoding="UTF-8" standalone="no"?>
<svg
   width="48.490177"
   height="48.490173"
   version="1.1"
   viewBox="0 0 12.82944 12.829439"
   id="svg16"
   xmlns:xlink="http://www.w3.org/1999/xlink"
   xmlns="http://www.w3.org/2000/svg"
   xmlns:svg="http://www.w3.org/2000/svg"
   xmlns:rdf="http://www.w3.org/1999/02/22-rdf-syntax-ns#"
   xmlns:cc="http://creativecommons.org/ns#"
   xmlns:dc="http://purl.org/dc/elements/1.1/">
  <metadata
     id="metadata2">
    <rdf:RDF>
      <cc:Work
         rdf:about="">
        <dc:format>image/svg+xml</dc:format>
        <dc:type
           rdf:resource="http://purl.org/dc/dcmitype/StillImage" />
        <dc:title />
      </cc:Work>
    </rdf:RDF>
  </metadata>
  <defs
     id="defs8">
    <linearGradient
       id="linearGradient5">
      <stop
         style="stop-color:#ff3dfb;stop-opacity:0;"
         offset="0"
         id="stop6" />
      <stop
         style="stop-color:#ff3dfb;stop-opacity:1;"
         offset="1"
         id="stop5" />
    </linearGradient>
    <style
       type="text/css"
       id="style4" />
    <style
       type="text/css"
       id="style6" />
    <linearGradient
       xlink:href="#linearGradient5"
       id="linearGradient6"
       x1="-14.224561"
       y1="17"
       x2="-14.224561"
       y2="6"
       gradientUnits="userSpaceOnUse" />
    <filter
       style="color-interpolation-filters:sRGB"
       id="filter6"
       x="-0.026999999"
       y="-0.027000001"
       width="1.054"
       height="1.054">
      <feGaussianBlur
         stdDeviation="0.13693662"
         id="feGaussianBlur6" />
    </filter>
  </defs>
  <g
     id="g1083"
     transform="translate(20.172523,-2.0520385)">
    <path
       id="path5"
       style="display:inline;opacity:0.6;fill:#ff3dfb;fill-opacity:1;stroke-linecap:round;stroke-linejoin:round;paint-order:stroke fill markers;filter:url(#filter6)"
       d="m -18.388695,2.3806864 c -0.803882,0 -1.45518,0.6512984 -1.45518,1.4551797 v 9.2597179 c 0,0.803882 0.651298,1.457246 1.45518,1.457246 h 9.2597177 c 0.8038814,0 1.4572467,-0.653364 1.4572467,-1.457246 V 3.8358661 c 0,-0.8038813 -0.6533653,-1.4551797 -1.4572467,-1.4551797 z m 0,0.2656116 h 9.2597177 c 0.6618817,0 1.1916351,0.5276866 1.1916351,1.1895681 V 11.077659 L -10.966555,7.9120228 a 0.13230224,0.13230224 0 0 0 -0.186032,-0.00362 l -3.443132,3.2653692 -2.173985,-1.7636816 a 0.13230224,0.13230224 0 0 0 -0.167945,0.00207 l -2.640614,2.2127406 V 3.8358661 c 0,-0.6618815 0.527686,-1.1895681 1.189568,-1.1895681 z m 2.249948,1.8515301 c -0.583097,-4e-7 -1.058313,0.4757318 -1.058313,1.0588293 0,0.5830976 0.475216,1.0588295 1.058313,1.0588292 0.583097,-3e-7 1.058829,-0.4757321 1.058829,-1.0588292 0,-0.583097 -0.475732,-1.058829 -1.058829,-1.0588293 z m 5.072458,3.6937587 3.1289468,3.2689872 v 1.63501 c 0,0.661882 -0.5297534,1.191635 -1.1916351,1.191635 h -9.2597177 c -0.661882,0 -1.189568,-0.529753 -1.189568,-1.191635 v -1.125491 l 2.726912,-2.286637 2.179669,1.769883 a 0.13230224,0.13230224 0 0 0 0.173629,-0.0083 z" />
    <path
       id="rect1074"
       style="fill:url(#linearGradient6);fill-opacity:1;stroke-linecap:round;stroke-linejoin:round;paint-order:stroke fill markers"
       d="m -18.388695,2.3806864 c -0.803882,0 -1.45518,0.6512984 -1.45518,1.4551797 v 9.2597179 c 0,0.803882 0.651298,1.457246 1.45518,1.457246 h 9.2597177 c 0.8038814,0 1.4572467,-0.653364 1.4572467,-1.457246 V 3.8358661 c 0,-0.8038813 -0.6533653,-1.4551797 -1.4572467,-1.4551797 z m 0,0.2656116 h 9.2597177 c 0.6618817,0 1.1916351,0.5276866 1.1916351,1.1895681 V 11.077659 L -10.966555,7.9120228 a 0.13230224,0.13230224 0 0 0 -0.186032,-0.00362 l -3.443132,3.2653692 -2.173985,-1.7636816 a 0.13230224,0.13230224 0 0 0 -0.167945,0.00207 l -2.640614,2.2127406 V 3.8358661 c 0,-0.6618815 0.527686,-1.1895681 1.189568,-1.1895681 z m 2.249948,1.8515301 c -0.583097,-4e-7 -1.058313,0.4757318 -1.058313,1.0588293 0,0.5830976 0.475216,1.0588295 1.058313,1.0588292 0.583097,-3e-7 1.058829,-0.4757321 1.058829,-1.0588292 0,-0.583097 -0.475732,-1.058829 -1.058829,-1.0588293 z m 5.072458,3.6937587 3.1289468,3.2689872 v 1.63501 c 0,0.661882 -0.5297534,1.191635 -1.1916351,1.191635 h -9.2597177 c -0.661882,0 -1.189568,-0.529753 -1.189568,-1.191635 v -1.125491 l 2.726912,-2.286637 2.179669,1.769883 a 0.13230224,0.13230224 0 0 0 0.173629,-0.0083 z" />
    <g
       id="path1076" />
  </g>
</svg>
