<?xml version="1.0" encoding="UTF-8" standalone="no"?>
<svg
   width="48.006462"
   height="48.008411"
   version="1.1"
   viewBox="0 0 12.70146 12.701975"
   id="svg16"
   xmlns:xlink="http://www.w3.org/1999/xlink"
   xmlns="http://www.w3.org/2000/svg"
   xmlns:svg="http://www.w3.org/2000/svg"
   xmlns:rdf="http://www.w3.org/1999/02/22-rdf-syntax-ns#"
   xmlns:cc="http://creativecommons.org/ns#"
   xmlns:dc="http://purl.org/dc/elements/1.1/">
  <metadata
     id="metadata2">
    <rdf:RDF>
      <cc:Work
         rdf:about="">
        <dc:format>image/svg+xml</dc:format>
        <dc:type
           rdf:resource="http://purl.org/dc/dcmitype/StillImage" />
        <dc:title />
      </cc:Work>
    </rdf:RDF>
  </metadata>
  <defs
     id="defs8">
    <linearGradient
       id="linearGradient2">
      <stop
         style="stop-color:#00abff;stop-opacity:0;"
         offset="0"
         id="stop3" />
      <stop
         style="stop-color:#00abff;stop-opacity:1;"
         offset="1"
         id="stop2" />
    </linearGradient>
    <style
       type="text/css"
       id="style4" />
    <style
       type="text/css"
       id="style6" />
    <linearGradient
       xlink:href="#linearGradient2"
       id="linearGradient3"
       x1="-13.85077"
       y1="14.997686"
       x2="-13.85077"
       y2="7.4208798"
       gradientUnits="userSpaceOnUse" />
    <filter
       style="color-interpolation-filters:sRGB"
       id="filter3"
       x="-0.027000579"
       y="-0.026999421"
       width="1.0540012"
       height="1.0539988">
      <feGaussianBlur
         stdDeviation="0.13557336"
         id="feGaussianBlur3" />
    </filter>
  </defs>
  <g
     id="g3"
     transform="translate(-0.01723196,-0.06373984)">
    <path
       id="path1"
       style="display:inline;opacity:0.6;fill:#00abff;fill-opacity:1;stroke-linecap:round;stroke-linejoin:round;paint-order:stroke fill markers;filter:url(#filter3)"
       d="m -18.197489,2.4411544 c -0.898278,0 -1.632426,0.7325988 -1.632426,1.6308761 v 8.7874045 c 0,0.898278 0.733718,1.632943 1.632426,1.632943 h 8.7853375 c 0.8987076,0 1.6329431,-0.734235 1.6329431,-1.632943 V 4.0720305 c 0,-0.8987076 -0.7346656,-1.6308761 -1.6329431,-1.6308761 z m 0,0.7539443 h 8.7853375 c 0.4945508,0 0.8789988,0.3829039 0.8789988,0.8769318 V 10.318555 L -10.974816,7.7673393 a 0.25104711,0.25104711 0 0 0 -0.0015,-0.00155 c -0.141857,-0.1458578 -0.382257,-0.1500502 -0.529673,-0.00982 v -0.00207 l -3.105176,2.9470497 -1.89287,-1.5347606 a 0.25104711,0.25104711 0 0 0 -0.0021,0 c -0.139098,-0.1114262 -0.340133,-0.1091303 -0.476448,0.00568 L -19.07647,10.925732 V 4.0720305 c 0,-0.4945507 0.384447,-0.8769318 0.878998,-0.8769318 z m 2.135228,1.2541623 c -0.689756,-4e-7 -1.256229,0.5661048 -1.256229,1.2557125 0,0.6896078 0.566473,1.2557128 1.256229,1.2557126 0.689755,-4e-7 1.253646,-0.565957 1.253646,-1.2557126 0,-0.6897555 -0.563891,-1.2557121 -1.253646,-1.2557125 z m 4.804264,4.1112959 2.7248443,2.8478321 v 1.451046 c 0,0.494028 -0.3849707,0.878998 -0.8789988,0.878998 h -8.7853375 c -0.494029,0 -0.878482,-0.384447 -0.878482,-0.878998 V 11.90809 l 2.339863,-1.9610817 1.905789,1.5492287 a 0.25104711,0.25104711 0 0 0 0.0041,0.0021 c 0.146042,0.115423 0.35969,0.103031 0.494017,-0.02584 z"
       transform="translate(20.172523,-2.0520385)" />
    <path
       id="path2"
       style="fill:url(#linearGradient3);fill-opacity:1;stroke-linecap:round;stroke-linejoin:round;paint-order:stroke fill markers"
       d="m -18.197489,2.4411544 c -0.898278,0 -1.632426,0.7325988 -1.632426,1.6308761 v 8.7874045 c 0,0.898278 0.733718,1.632943 1.632426,1.632943 h 8.7853375 c 0.8987076,0 1.6329431,-0.734235 1.6329431,-1.632943 V 4.0720305 c 0,-0.8987076 -0.7346656,-1.6308761 -1.6329431,-1.6308761 z m 0,0.7539443 h 8.7853375 c 0.4945508,0 0.8789988,0.3829039 0.8789988,0.8769318 V 10.318555 L -10.974816,7.7673393 a 0.25104711,0.25104711 0 0 0 -0.0015,-0.00155 c -0.141857,-0.1458578 -0.382257,-0.1500502 -0.529673,-0.00982 v -0.00207 l -3.105176,2.9470497 -1.89287,-1.5347606 a 0.25104711,0.25104711 0 0 0 -0.0021,0 c -0.139098,-0.1114262 -0.340133,-0.1091303 -0.476448,0.00568 L -19.07647,10.925732 V 4.0720305 c 0,-0.4945507 0.384447,-0.8769318 0.878998,-0.8769318 z m 2.135228,1.2541623 c -0.689756,-4e-7 -1.256229,0.5661048 -1.256229,1.2557125 0,0.6896078 0.566473,1.2557128 1.256229,1.2557126 0.689755,-4e-7 1.253646,-0.565957 1.253646,-1.2557126 0,-0.6897555 -0.563891,-1.2557121 -1.253646,-1.2557125 z m 4.804264,4.1112959 2.7248443,2.8478321 v 1.451046 c 0,0.494028 -0.3849707,0.878998 -0.8789988,0.878998 h -8.7853375 c -0.494029,0 -0.878482,-0.384447 -0.878482,-0.878998 V 11.90809 l 2.339863,-1.9610817 1.905789,1.5492287 a 0.25104711,0.25104711 0 0 0 0.0041,0.0021 c 0.146042,0.115423 0.35969,0.103031 0.494017,-0.02584 z"
       transform="translate(20.172523,-2.0520385)" />
  </g>
</svg>
