<?xml version="1.0" encoding="UTF-8" standalone="no"?>
<svg
   width="48.490173"
   height="48.490173"
   version="1.1"
   viewBox="0 0 12.829439 12.829439"
   id="svg23"
   xmlns:xlink="http://www.w3.org/1999/xlink"
   xmlns="http://www.w3.org/2000/svg"
   xmlns:svg="http://www.w3.org/2000/svg"
   xmlns:rdf="http://www.w3.org/1999/02/22-rdf-syntax-ns#"
   xmlns:cc="http://creativecommons.org/ns#"
   xmlns:dc="http://purl.org/dc/elements/1.1/">
  <metadata
     id="metadata2">
    <rdf:RDF>
      <cc:Work
         rdf:about="">
        <dc:format>image/svg+xml</dc:format>
        <dc:type
           rdf:resource="http://purl.org/dc/dcmitype/StillImage" />
        <dc:title />
      </cc:Work>
    </rdf:RDF>
  </metadata>
  <defs
     id="defs9">
    <linearGradient
       id="linearGradient1">
      <stop
         style="stop-color:#ff3dfb;stop-opacity:0;"
         offset="0"
         id="stop2" />
      <stop
         style="stop-color:#ff3dfb;stop-opacity:1;"
         offset="1"
         id="stop1" />
    </linearGradient>
    <style
       type="text/css"
       id="style853" />
    <style
       type="text/css"
       id="style863" />
    <style
       type="text/css"
       id="style865" />
    <style
       type="text/css"
       id="style867" />
    <style
       type="text/css"
       id="style869" />
    <style
       type="text/css"
       id="style871" />
    <style
       type="text/css"
       id="style873" />
    <style
       type="text/css"
       id="style875" />
    <style
       type="text/css"
       id="current-color-scheme">.ColorScheme-Text {
        color:#4d4d4d;
      }</style>
    <style
       id="style862"
       type="text/css">.ColorScheme-Text {
        color:#4d4d4d;
      }</style>
    <style
       id="current-color-scheme-6"
       type="text/css">.ColorScheme-Text { color:#565656; } .ColorScheme-Highlight { color:#5294e2; }</style>
    <style
       type="text/css"
       id="style5" />
    <style
       type="text/css"
       id="current-color-scheme-3">.ColorScheme-Text {
        color:#4d4d4d;
      }</style>
    <style
       id="style854"
       type="text/css">.ColorScheme-Text {
        color:#4d4d4d;
      }</style>
    <style
       id="style14"
       type="text/css" />
    <style
       id="current-color-scheme-5"
       type="text/css">.ColorScheme-Text {
        color:#4d4d4d;
      }</style>
    <style
       type="text/css"
       id="style874">.ColorScheme-Text {
        color:#4d4d4d;
      }</style>
    <style
       type="text/css"
       id="current-color-scheme-35">.ColorScheme-Text { color:#565656; } .ColorScheme-Highlight { color:#5294e2; }</style>
    <style
       type="text/css"
       id="style970" />
    <linearGradient
       xlink:href="#linearGradient1"
       id="linearGradient2"
       x1="8"
       y1="17"
       x2="8"
       y2="6.5479746"
       gradientUnits="userSpaceOnUse" />
    <filter
       style="color-interpolation-filters:sRGB"
       id="filter2"
       x="-0.027000001"
       y="-0.027000001"
       width="1.054"
       height="1.054">
      <feGaussianBlur
         stdDeviation="0.13693662"
         id="feGaussianBlur3" />
    </filter>
  </defs>
  <g
     id="g1515"
     transform="translate(-2.0520385,-2.0520385)">
    <g
       id="g1511">
      <path
         id="circle1505"
         style="display:inline;opacity:0.6;fill:#ff3dfb;fill-opacity:1;stroke-linecap:round;paint-order:stroke fill markers;filter:url(#filter2)"
         d="m 8.4670168,2.3806864 c -3.3592497,0 -6.0863304,2.7270807 -6.0863304,6.0863304 0,3.3592502 2.7270807,6.0858132 6.0863304,6.0858132 3.3592502,0 6.0858132,-2.726563 6.0858132,-6.0858132 0,-3.3592497 -2.726563,-6.0863304 -6.0858132,-6.0863304 z m 0,0.2656116 c 3.2162612,0 5.8202022,2.6044577 5.8202022,5.8207188 0,3.2162612 -2.603941,5.8202022 -5.8202022,5.8202022 -3.2162611,0 -5.8207188,-2.603941 -5.8207188,-5.8202022 0,-3.2162611 2.6044577,-5.8207188 5.8207188,-5.8207188 z m 0,1.8050223 c -1.1781648,0 -2.1367785,0.9586136 -2.1367785,2.1367784 0,0.8796052 0.5344232,1.6363886 1.2955027,1.9636657 C 5.8827445,8.9369057 4.5763748,10.491673 4.5763748,12.349391 a 0.13228901,0.13228901 0 0 0 0.1328058,0.131255 0.13228901,0.13228901 0 0 0 0.1328058,-0.131255 c 1e-7,-2.003512 1.6215176,-3.6250307 3.6250304,-3.6250307 1.1781646,-3e-7 2.1362612,-0.958097 2.1362612,-2.1362616 0,-1.1781646 -0.9580966,-2.1367781 -2.1362612,-2.1367784 z m 0,0.2656116 c 1.035176,2e-7 1.8706502,0.8359908 1.8706502,1.8711668 0,1.0351761 -0.8354742,1.8706497 -1.8706502,1.87065 -1.0351762,0 -1.8711668,-0.8354738 -1.8711668,-1.87065 0,-1.0351762 0.8359906,-1.8711668 1.8711668,-1.8711668 z m 2.6561162,4.8435366 a 0.13228901,0.13228901 0 0 0 -0.09405,0.039273 0.13228901,0.13228901 0 0 0 0,0.1855147 c 0.679826,0.6798258 1.062963,1.6027158 1.062963,2.5641348 a 0.13228901,0.13228901 0 0 0 0.132806,0.131255 0.13228901,0.13228901 0 0 0 0.130739,-0.131255 c 0,-1.031488 -0.409554,-2.020278 -1.138926,-2.7496495 a 0.13228901,0.13228901 0 0 0 -0.09353,-0.039273 z" />
      <path
         id="path1"
         style="fill:url(#linearGradient2);fill-opacity:1;stroke-linecap:round;paint-order:stroke fill markers"
         d="m 8.4670168,2.3806864 c -3.3592497,0 -6.0863304,2.7270807 -6.0863304,6.0863304 0,3.3592502 2.7270807,6.0858132 6.0863304,6.0858132 3.3592502,0 6.0858132,-2.726563 6.0858132,-6.0858132 0,-3.3592497 -2.726563,-6.0863304 -6.0858132,-6.0863304 z m 0,0.2656116 c 3.2162612,0 5.8202022,2.6044577 5.8202022,5.8207188 0,3.2162612 -2.603941,5.8202022 -5.8202022,5.8202022 -3.2162611,0 -5.8207188,-2.603941 -5.8207188,-5.8202022 0,-3.2162611 2.6044577,-5.8207188 5.8207188,-5.8207188 z m 0,1.8050223 c -1.1781648,0 -2.1367785,0.9586136 -2.1367785,2.1367784 0,0.8796052 0.5344232,1.6363886 1.2955027,1.9636657 C 5.8827445,8.9369057 4.5763748,10.491673 4.5763748,12.349391 a 0.13228901,0.13228901 0 0 0 0.1328058,0.131255 0.13228901,0.13228901 0 0 0 0.1328058,-0.131255 c 1e-7,-2.003512 1.6215176,-3.6250307 3.6250304,-3.6250307 1.1781646,-3e-7 2.1362612,-0.958097 2.1362612,-2.1362616 0,-1.1781646 -0.9580966,-2.1367781 -2.1362612,-2.1367784 z m 0,0.2656116 c 1.035176,2e-7 1.8706502,0.8359908 1.8706502,1.8711668 0,1.0351761 -0.8354742,1.8706497 -1.8706502,1.87065 -1.0351762,0 -1.8711668,-0.8354738 -1.8711668,-1.87065 0,-1.0351762 0.8359906,-1.8711668 1.8711668,-1.8711668 z m 2.6561162,4.8435366 a 0.13228901,0.13228901 0 0 0 -0.09405,0.039273 0.13228901,0.13228901 0 0 0 0,0.1855147 c 0.679826,0.6798258 1.062963,1.6027158 1.062963,2.5641348 a 0.13228901,0.13228901 0 0 0 0.132806,0.131255 0.13228901,0.13228901 0 0 0 0.130739,-0.131255 c 0,-1.031488 -0.409554,-2.020278 -1.138926,-2.7496495 a 0.13228901,0.13228901 0 0 0 -0.09353,-0.039273 z" />
    </g>
  </g>
</svg>
