<?xml version="1.0" encoding="UTF-8" standalone="no"?>
<svg
   width="68.558876"
   height="68.558876"
   version="1.1"
   viewBox="0 0 18.139179 18.139179"
   id="svg24"
   xmlns:xlink="http://www.w3.org/1999/xlink"
   xmlns="http://www.w3.org/2000/svg"
   xmlns:svg="http://www.w3.org/2000/svg"
   xmlns:rdf="http://www.w3.org/1999/02/22-rdf-syntax-ns#"
   xmlns:cc="http://creativecommons.org/ns#"
   xmlns:dc="http://purl.org/dc/elements/1.1/">
  <defs
     id="defs10">
    <linearGradient
       id="linearGradient1">
      <stop
         style="stop-color:#ff3dfb;stop-opacity:0;"
         offset="0"
         id="stop2" />
      <stop
         style="stop-color:#ff3dfb;stop-opacity:1;"
         offset="1"
         id="stop1" />
    </linearGradient>
    <linearGradient
       xlink:href="#linearGradient1"
       id="linearGradient2"
       x1="6.1297374"
       y1="30.171368"
       x2="13.200805"
       y2="23.1003"
       gradientUnits="userSpaceOnUse" />
    <filter
       style="color-interpolation-filters:sRGB"
       id="filter2"
       x="-0.027003842"
       y="-0.027003846"
       width="1.0540077"
       height="1.0540077">
      <feGaussianBlur
         stdDeviation="0.13692198"
         id="feGaussianBlur3" />
    </filter>
  </defs>
  <metadata
     id="metadata12">
    <rdf:RDF>
      <cc:Work
         rdf:about="">
        <dc:format>image/svg+xml</dc:format>
        <dc:type
           rdf:resource="http://purl.org/dc/dcmitype/StillImage" />
        <dc:title />
      </cc:Work>
    </rdf:RDF>
  </metadata>
  <g
     id="g1246"
     transform="translate(-16.066182,0.60270204)">
    <path
       id="rect995"
       style="display:inline;opacity:0.6;fill:#ff3dfb;fill-opacity:1;stroke-width:1.40793;filter:url(#filter2)"
       d="m 16.090643,19.457442 c -2.375349,-2.375349 -6.2316576,-2.374983 -8.6070059,3.65e-4 -2.3753485,2.375349 -2.3753491,6.231292 0,8.60664 2.3753471,2.375349 6.2298299,2.373887 8.6051789,-0.0015 2.375348,-2.375349 2.377175,-6.230197 0.0018,-8.605544 z m -0.187816,0.187815 c 2.27424,2.27424 2.273875,5.957134 -3.65e-4,8.231374 -2.274241,2.27424 -5.9567698,2.274241 -8.2310091,0 -2.2742414,-2.27424 -2.2757016,-5.95823 -0.00146,-8.23247 2.2742401,-2.27424 5.9585951,-2.273144 8.2328361,0.0011 z m -1.871581,1.869389 c -0.103645,-0.103645 -0.270525,-0.103645 -0.37417,0 l -2.432105,2.432105 c -0.103645,0.103645 -0.103644,0.270525 0,0.37417 0.0168,0.0168 0.03559,0.03067 0.05518,0.04202 v 4.456422 c 0,0.07329 0.05898,0.132275 0.132275,0.132275 0.07329,0 0.132275,-0.05898 0.132275,-0.132275 v -4.456422 c 0.01945,-0.01132 0.03775,-0.02533 0.05444,-0.04202 l 2.432105,-2.432105 c 0.103645,-0.103645 0.103646,-0.270525 0,-0.37417 z"
       transform="rotate(-45)" />
    <path
       id="path1"
       style="fill:url(#linearGradient2);fill-opacity:1;stroke-width:1.40793"
       d="m 16.090643,19.457442 c -2.375349,-2.375349 -6.2316576,-2.374983 -8.6070059,3.65e-4 -2.3753485,2.375349 -2.3753491,6.231292 0,8.60664 2.3753471,2.375349 6.2298299,2.373887 8.6051789,-0.0015 2.375348,-2.375349 2.377175,-6.230197 0.0018,-8.605544 z m -0.187816,0.187815 c 2.27424,2.27424 2.273875,5.957134 -3.65e-4,8.231374 -2.274241,2.27424 -5.9567698,2.274241 -8.2310091,0 -2.2742414,-2.27424 -2.2757016,-5.95823 -0.00146,-8.23247 2.2742401,-2.27424 5.9585951,-2.273144 8.2328361,0.0011 z m -1.871581,1.869389 c -0.103645,-0.103645 -0.270525,-0.103645 -0.37417,0 l -2.432105,2.432105 c -0.103645,0.103645 -0.103644,0.270525 0,0.37417 0.0168,0.0168 0.03559,0.03067 0.05518,0.04202 v 4.456422 c 0,0.07329 0.05898,0.132275 0.132275,0.132275 0.07329,0 0.132275,-0.05898 0.132275,-0.132275 v -4.456422 c 0.01945,-0.01132 0.03775,-0.02533 0.05444,-0.04202 l 2.432105,-2.432105 c 0.103645,-0.103645 0.103646,-0.270525 0,-0.37417 z"
       transform="rotate(-45)" />
  </g>
</svg>
