<?xml version="1.0" encoding="UTF-8" standalone="no"?>
<svg
   width="166.85603"
   height="140.88727"
   version="1.1"
   id="svg18"
   xmlns:xlink="http://www.w3.org/1999/xlink"
   xmlns="http://www.w3.org/2000/svg"
   xmlns:svg="http://www.w3.org/2000/svg"
   xmlns:rdf="http://www.w3.org/1999/02/22-rdf-syntax-ns#"
   xmlns:cc="http://creativecommons.org/ns#"
   xmlns:dc="http://purl.org/dc/elements/1.1/">
  <metadata
     id="metadata1">
    <rdf:RDF>
      <cc:Work
         rdf:about="">
        <dc:format>image/svg+xml</dc:format>
        <dc:type
           rdf:resource="http://purl.org/dc/dcmitype/StillImage" />
        <dc:title />
      </cc:Work>
    </rdf:RDF>
  </metadata>
  <defs
     id="defs5">
    <linearGradient
       id="linearGradient2">
      <stop
         style="stop-color:#00abff;stop-opacity:0;"
         offset="0"
         id="stop3" />
      <stop
         style="stop-color:#00abff;stop-opacity:1;"
         offset="1"
         id="stop2" />
    </linearGradient>
    <linearGradient
       xlink:href="#linearGradient2"
       id="linearGradient3"
       x1="-119.81027"
       y1="170.45477"
       x2="-119.81027"
       y2="74.83255"
       gradientUnits="userSpaceOnUse" />
    <filter
       style="color-interpolation-filters:sRGB"
       id="filter3"
       x="-0.024794727"
       y="-0.029635849"
       width="1.0495895"
       height="1.0592717">
      <feGaussianBlur
         stdDeviation="1.6423682"
         id="feGaussianBlur3" />
    </filter>
  </defs>
  <g
     id="path18"
     transform="translate(206.42737,-24.55896)">
    <path
       id="path1"
       style="display:inline;opacity:0.6;fill:#00abff;fill-opacity:1;paint-order:stroke fill markers;filter:url(#filter3)"
       d="m -192.87436,28.500644 c -5.28774,0 -9.61133,4.321208 -9.61133,9.609375 v 23.78125 c 0,5.288167 4.32359,9.609375 9.61133,9.609375 h 139.750002 c 5.287733,0 9.611328,-4.321204 9.611328,-9.609375 v -23.78125 c 0,-5.288171 -4.323595,-9.609375 -9.611328,-9.609375 z m 0,4.951172 h 139.750002 c 2.632477,0 4.660156,2.026294 4.660156,4.658203 v 23.78125 c 0,2.631909 -2.027679,4.658203 -4.660156,4.658203 H -192.87436 c -2.63249,0 -4.66015,-2.026291 -4.66015,-4.658203 v -23.78125 c 0,-2.631912 2.02766,-4.658203 4.66015,-4.658203 z m 125.375002,6.548828 c -5.497816,0 -10,4.502184 -10,10 0,5.497816 4.502184,10 10,10 5.497816,0 10,-4.502184 10,-10 0,-5.497816 -4.502184,-10 -10,-10 z m -112.500002,3.5 c -3.57208,0 -6.5,2.927916 -6.5,6.5 0,3.572084 2.92792,6.5 6.5,6.5 3.57208,0 6.5,-2.927916 6.5,-6.5 0,-3.572084 -2.92792,-6.5 -6.5,-6.5 z m 15,0 c -3.57208,0 -6.5,2.927916 -6.5,6.5 0,3.572084 2.92792,6.5 6.5,6.5 3.57208,0 6.5,-2.927916 6.5,-6.5 0,-3.572084 -2.92792,-6.5 -6.5,-6.5 z m 15,0 c -3.57208,0 -6.5,2.927916 -6.5,6.5 0,3.572084 2.92792,6.5 6.5,6.5 3.57208,0 6.5,-2.927916 6.5,-6.5 0,-3.572084 -2.92792,-6.5 -6.5,-6.5 z m 82.500002,1.5 c 2.796991,0 5,2.203009 5,5 0,2.796991 -2.203009,5 -5,5 -2.796991,0 -5,-2.203009 -5,-5 0,-2.796991 2.203009,-5 5,-5 z M -192.87436,73.524082 c -5.28818,0 -9.61133,4.323161 -9.61133,9.611328 v 23.7793 c 0,5.28817 4.32359,9.60937 9.61133,9.60937 h 139.750002 c 5.287734,0 9.611328,-4.3212 9.611328,-9.60937 v -23.7793 c 0,-5.28817 -4.323157,-9.61133 -9.611328,-9.611328 z m 0,4.953125 h 139.750002 c 2.632477,0 4.660156,2.026294 4.660156,4.658203 v 23.7793 c 0,2.63191 -2.027682,4.6582 -4.660156,4.6582 H -192.87436 c -2.63249,0 -4.66015,-2.02628 -4.66015,-4.6582 v -23.7793 c 0,-2.631911 2.02766,-4.658203 4.66015,-4.658203 z m 125.375002,6.523437 c -5.497816,0 -10,4.502184 -10,10 0,5.497816 4.502184,9.999996 10,9.999996 5.497816,0 10,-4.50218 10,-9.999996 0,-5.497816 -4.502184,-10 -10,-10 z m -112.500002,3.5 c -3.57208,0 -6.5,2.927916 -6.5,6.5 0,3.572084 2.92792,6.499996 6.5,6.499996 3.57208,0 6.5,-2.927912 6.5,-6.499996 0,-3.572084 -2.92792,-6.5 -6.5,-6.5 z m 15,0 c -3.57208,0 -6.5,2.927916 -6.5,6.5 0,3.572084 2.92792,6.499996 6.5,6.499996 3.57208,0 6.5,-2.927912 6.5,-6.499996 0,-3.572084 -2.92792,-6.5 -6.5,-6.5 z m 15,0 c -3.57208,0 -6.5,2.927916 -6.5,6.5 0,3.572084 2.92792,6.499996 6.5,6.499996 3.57208,0 6.5,-2.927912 6.5,-6.499996 0,-3.572084 -2.92792,-6.5 -6.5,-6.5 z m 82.500002,1.5 c 2.796991,0 5,2.203009 5,5 0,2.796991 -2.203009,4.999996 -5,4.999996 -2.796991,0 -5,-2.203005 -5,-4.999996 0,-2.796991 2.203009,-5 5,-5 z M -192.87436,118.50455 c -5.28774,0 -9.61133,4.32121 -9.61133,9.60938 v 23.78125 c 0,5.28818 4.32359,9.60937 9.61133,9.60937 h 139.750002 c 5.287731,0 9.611328,-4.32119 9.611328,-9.60937 v -23.78125 c 0,-5.28817 -4.323596,-9.60938 -9.611328,-9.60938 z m 0,4.95117 h 139.750002 c 2.632477,0 4.660156,2.02631 4.660156,4.65821 v 23.78125 c 0,2.63192 -2.027674,4.6582 -4.660156,4.6582 H -192.87436 c -2.63249,0 -4.66015,-2.02627 -4.66015,-4.6582 v -23.78125 c 0,-2.6319 2.02766,-4.65821 4.66015,-4.65821 z m 125.375002,6.54492 c -5.497815,0 -10,4.50218 -10,10 0,5.49782 4.502185,10 10,10 5.497815,0 10,-4.50218 10,-10 0,-5.49782 -4.502185,-10 -10,-10 z m -112.500002,3.5 c -3.57208,0 -6.5,2.92792 -6.5,6.5 0,3.57208 2.92792,6.5 6.5,6.5 3.57208,0 6.5,-2.92792 6.5,-6.5 0,-3.57208 -2.92792,-6.5 -6.5,-6.5 z m 15,0 c -3.57208,0 -6.5,2.92792 -6.5,6.5 0,3.57208 2.92792,6.5 6.5,6.5 3.57208,0 6.5,-2.92792 6.5,-6.5 0,-3.57208 -2.92792,-6.5 -6.5,-6.5 z m 15,0 c -3.57208,0 -6.5,2.92792 -6.5,6.5 0,3.57208 2.92792,6.5 6.5,6.5 3.57208,0 6.5,-2.92792 6.5,-6.5 0,-3.57208 -2.92792,-6.5 -6.5,-6.5 z m 82.500002,1.5 c 2.796992,0 5,2.203 5,5 0,2.797 -2.203008,5 -5,5 -2.796992,0 -5,-2.203 -5,-5 0,-2.797 2.203008,-5 5,-5 z" />
    <path
       id="path2"
       style="fill:url(#linearGradient3);fill-opacity:1;paint-order:stroke fill markers"
       d="m -192.87436,28.500644 c -5.28774,0 -9.61133,4.321208 -9.61133,9.609375 v 23.78125 c 0,5.288167 4.32359,9.609375 9.61133,9.609375 h 139.750002 c 5.287733,0 9.611328,-4.321204 9.611328,-9.609375 v -23.78125 c 0,-5.288171 -4.323595,-9.609375 -9.611328,-9.609375 z m 0,4.951172 h 139.750002 c 2.632477,0 4.660156,2.026294 4.660156,4.658203 v 23.78125 c 0,2.631909 -2.027679,4.658203 -4.660156,4.658203 H -192.87436 c -2.63249,0 -4.66015,-2.026291 -4.66015,-4.658203 v -23.78125 c 0,-2.631912 2.02766,-4.658203 4.66015,-4.658203 z m 125.375002,6.548828 c -5.497816,0 -10,4.502184 -10,10 0,5.497816 4.502184,10 10,10 5.497816,0 10,-4.502184 10,-10 0,-5.497816 -4.502184,-10 -10,-10 z m -112.500002,3.5 c -3.57208,0 -6.5,2.927916 -6.5,6.5 0,3.572084 2.92792,6.5 6.5,6.5 3.57208,0 6.5,-2.927916 6.5,-6.5 0,-3.572084 -2.92792,-6.5 -6.5,-6.5 z m 15,0 c -3.57208,0 -6.5,2.927916 -6.5,6.5 0,3.572084 2.92792,6.5 6.5,6.5 3.57208,0 6.5,-2.927916 6.5,-6.5 0,-3.572084 -2.92792,-6.5 -6.5,-6.5 z m 15,0 c -3.57208,0 -6.5,2.927916 -6.5,6.5 0,3.572084 2.92792,6.5 6.5,6.5 3.57208,0 6.5,-2.927916 6.5,-6.5 0,-3.572084 -2.92792,-6.5 -6.5,-6.5 z m 82.500002,1.5 c 2.796991,0 5,2.203009 5,5 0,2.796991 -2.203009,5 -5,5 -2.796991,0 -5,-2.203009 -5,-5 0,-2.796991 2.203009,-5 5,-5 z M -192.87436,73.524082 c -5.28818,0 -9.61133,4.323161 -9.61133,9.611328 v 23.7793 c 0,5.28817 4.32359,9.60937 9.61133,9.60937 h 139.750002 c 5.287734,0 9.611328,-4.3212 9.611328,-9.60937 v -23.7793 c 0,-5.28817 -4.323157,-9.61133 -9.611328,-9.611328 z m 0,4.953125 h 139.750002 c 2.632477,0 4.660156,2.026294 4.660156,4.658203 v 23.7793 c 0,2.63191 -2.027682,4.6582 -4.660156,4.6582 H -192.87436 c -2.63249,0 -4.66015,-2.02628 -4.66015,-4.6582 v -23.7793 c 0,-2.631911 2.02766,-4.658203 4.66015,-4.658203 z m 125.375002,6.523437 c -5.497816,0 -10,4.502184 -10,10 0,5.497816 4.502184,9.999996 10,9.999996 5.497816,0 10,-4.50218 10,-9.999996 0,-5.497816 -4.502184,-10 -10,-10 z m -112.500002,3.5 c -3.57208,0 -6.5,2.927916 -6.5,6.5 0,3.572084 2.92792,6.499996 6.5,6.499996 3.57208,0 6.5,-2.927912 6.5,-6.499996 0,-3.572084 -2.92792,-6.5 -6.5,-6.5 z m 15,0 c -3.57208,0 -6.5,2.927916 -6.5,6.5 0,3.572084 2.92792,6.499996 6.5,6.499996 3.57208,0 6.5,-2.927912 6.5,-6.499996 0,-3.572084 -2.92792,-6.5 -6.5,-6.5 z m 15,0 c -3.57208,0 -6.5,2.927916 -6.5,6.5 0,3.572084 2.92792,6.499996 6.5,6.499996 3.57208,0 6.5,-2.927912 6.5,-6.499996 0,-3.572084 -2.92792,-6.5 -6.5,-6.5 z m 82.500002,1.5 c 2.796991,0 5,2.203009 5,5 0,2.796991 -2.203009,4.999996 -5,4.999996 -2.796991,0 -5,-2.203005 -5,-4.999996 0,-2.796991 2.203009,-5 5,-5 z M -192.87436,118.50455 c -5.28774,0 -9.61133,4.32121 -9.61133,9.60938 v 23.78125 c 0,5.28818 4.32359,9.60937 9.61133,9.60937 h 139.750002 c 5.287731,0 9.611328,-4.32119 9.611328,-9.60937 v -23.78125 c 0,-5.28817 -4.323596,-9.60938 -9.611328,-9.60938 z m 0,4.95117 h 139.750002 c 2.632477,0 4.660156,2.02631 4.660156,4.65821 v 23.78125 c 0,2.63192 -2.027674,4.6582 -4.660156,4.6582 H -192.87436 c -2.63249,0 -4.66015,-2.02627 -4.66015,-4.6582 v -23.78125 c 0,-2.6319 2.02766,-4.65821 4.66015,-4.65821 z m 125.375002,6.54492 c -5.497815,0 -10,4.50218 -10,10 0,5.49782 4.502185,10 10,10 5.497815,0 10,-4.50218 10,-10 0,-5.49782 -4.502185,-10 -10,-10 z m -112.500002,3.5 c -3.57208,0 -6.5,2.92792 -6.5,6.5 0,3.57208 2.92792,6.5 6.5,6.5 3.57208,0 6.5,-2.92792 6.5,-6.5 0,-3.57208 -2.92792,-6.5 -6.5,-6.5 z m 15,0 c -3.57208,0 -6.5,2.92792 -6.5,6.5 0,3.57208 2.92792,6.5 6.5,6.5 3.57208,0 6.5,-2.92792 6.5,-6.5 0,-3.57208 -2.92792,-6.5 -6.5,-6.5 z m 15,0 c -3.57208,0 -6.5,2.92792 -6.5,6.5 0,3.57208 2.92792,6.5 6.5,6.5 3.57208,0 6.5,-2.92792 6.5,-6.5 0,-3.57208 -2.92792,-6.5 -6.5,-6.5 z m 82.500002,1.5 c 2.796992,0 5,2.203 5,5 0,2.797 -2.203008,5 -5,5 -2.796992,0 -5,-2.203 -5,-5 0,-2.797 2.203008,-5 5,-5 z" />
  </g>
</svg>
