<?xml version="1.0" encoding="UTF-8" standalone="no"?>
<svg
   width="48.484001"
   height="48.484001"
   version="1.1"
   viewBox="0 0 12.827806 12.827806"
   id="svg38"
   xmlns:xlink="http://www.w3.org/1999/xlink"
   xmlns="http://www.w3.org/2000/svg"
   xmlns:svg="http://www.w3.org/2000/svg"
   xmlns:rdf="http://www.w3.org/1999/02/22-rdf-syntax-ns#"
   xmlns:cc="http://creativecommons.org/ns#"
   xmlns:dc="http://purl.org/dc/elements/1.1/">
  <defs
     id="defs14">
    <linearGradient
       id="linearGradient1">
      <stop
         style="stop-color:#ff3dfb;stop-opacity:0;"
         offset="0"
         id="stop2" />
      <stop
         style="stop-color:#ff3dfb;stop-opacity:1;"
         offset="1"
         id="stop1" />
    </linearGradient>
    <style
       type="text/css"
       id="style2" />
    <style
       type="text/css"
       id="style12" />
    <linearGradient
       xlink:href="#linearGradient1"
       id="linearGradient2"
       x1="30.236816"
       y1="64.253235"
       x2="30.236816"
       y2="26.457214"
       gradientUnits="userSpaceOnUse" />
    <filter
       style="color-interpolation-filters:sRGB"
       id="filter2"
       x="-0.026999999"
       y="-0.026999999"
       width="1.054"
       height="1.054">
      <feGaussianBlur
         stdDeviation="0.51750001"
         id="feGaussianBlur2" />
    </filter>
  </defs>
  <metadata
     id="metadata16">
    <rdf:RDF>
      <cc:Work
         rdf:about="">
        <dc:format>image/svg+xml</dc:format>
        <dc:type
           rdf:resource="http://purl.org/dc/dcmitype/StillImage" />
        <dc:title />
      </cc:Work>
    </rdf:RDF>
  </metadata>
  <g
     id="g1002"
     transform="translate(-2.0525971,-2.0525971)">
    <path
       id="path994"
       style="display:inline;opacity:0.6;fill:#ff3dfb;fill-opacity:1;stroke:none;stroke-width:1.17682;stroke-linecap:round;paint-order:stroke fill markers;filter:url(#filter2)"
       d="m 32.000001,9.0000002 c -0.265458,0 -0.478516,0.2130553 -0.478516,0.4785156 V 13.025391 A 18.999999,18.999999 0 0 0 13.035156,31.500001 H 9.4785158 c -0.2654573,0 -0.4785156,0.213055 -0.4785156,0.478515 0,0.265458 0.2130553,0.480469 0.4785156,0.480469 h 3.5546872 a 18.999999,18.999999 0 0 0 18.488282,18.50586 v 3.55664 c 0,0.265468 0.213059,0.478516 0.478516,0.478516 0.265457,0 0.478515,-0.213074 0.478515,-0.478516 V 50.988282 A 18.999999,18.999999 0 0 0 50.988282,32.458985 h 3.533203 c 0.265468,0 0.478516,-0.215008 0.478516,-0.480469 0,-0.265457 -0.213036,-0.478515 -0.478516,-0.478515 H 50.988282 A 18.999999,18.999999 0 0 0 32.478516,13.011719 V 9.4785158 c 0,-0.2654573 -0.213055,-0.4785156 -0.478515,-0.4785156 z m 0.478515,5.0117188 a 18,18 0 0 1 17.507813,17.488282 h -9.021484 a 9.0000011,9.0000011 0 0 0 -8.486329,-8.464844 z m -0.957031,0.01758 v 9.00586 a 9.0000011,9.0000011 0 0 0 -8.486328,8.464844 h -9 A 18,18 0 0 1 31.521485,14.029297 Z m 0,10.007813 v 7.462891 h -7.482422 a 8.0000012,8.0000012 0 0 1 7.482422,-7.462891 z m 0.957031,0 a 8.0000012,8.0000012 0 0 1 7.482422,7.462891 h -7.482422 z m -18.445313,8.421875 h 9.000001 a 9.0000011,9.0000011 0 0 0 8.488281,8.50586 v 9 A 18,18 0 0 1 14.033203,32.458985 Z m 10.001954,0 h 7.486328 v 7.503906 a 8.0000012,8.0000012 0 0 1 -7.486328,-7.503906 z m 8.443359,0 h 7.486329 a 8.0000012,8.0000012 0 0 1 -7.486329,7.503906 z m 8.488282,0 h 9 a 18,18 0 0 1 -17.488282,17.50586 v -9 a 9.0000011,9.0000011 0 0 0 8.488282,-8.50586 z"
       transform="scale(0.26457812)" />
    <path
       id="path1"
       style="fill:url(#linearGradient2);fill-opacity:1;stroke:none;stroke-width:1.17682;stroke-linecap:round;paint-order:stroke fill markers"
       d="m 32.000001,9.0000002 c -0.265458,0 -0.478516,0.2130553 -0.478516,0.4785156 V 13.025391 A 18.999999,18.999999 0 0 0 13.035156,31.500001 H 9.4785158 c -0.2654573,0 -0.4785156,0.213055 -0.4785156,0.478515 0,0.265458 0.2130553,0.480469 0.4785156,0.480469 h 3.5546872 a 18.999999,18.999999 0 0 0 18.488282,18.50586 v 3.55664 c 0,0.265468 0.213059,0.478516 0.478516,0.478516 0.265457,0 0.478515,-0.213074 0.478515,-0.478516 V 50.988282 A 18.999999,18.999999 0 0 0 50.988282,32.458985 h 3.533203 c 0.265468,0 0.478516,-0.215008 0.478516,-0.480469 0,-0.265457 -0.213036,-0.478515 -0.478516,-0.478515 H 50.988282 A 18.999999,18.999999 0 0 0 32.478516,13.011719 V 9.4785158 c 0,-0.2654573 -0.213055,-0.4785156 -0.478515,-0.4785156 z m 0.478515,5.0117188 a 18,18 0 0 1 17.507813,17.488282 h -9.021484 a 9.0000011,9.0000011 0 0 0 -8.486329,-8.464844 z m -0.957031,0.01758 v 9.00586 a 9.0000011,9.0000011 0 0 0 -8.486328,8.464844 h -9 A 18,18 0 0 1 31.521485,14.029297 Z m 0,10.007813 v 7.462891 h -7.482422 a 8.0000012,8.0000012 0 0 1 7.482422,-7.462891 z m 0.957031,0 a 8.0000012,8.0000012 0 0 1 7.482422,7.462891 h -7.482422 z m -18.445313,8.421875 h 9.000001 a 9.0000011,9.0000011 0 0 0 8.488281,8.50586 v 9 A 18,18 0 0 1 14.033203,32.458985 Z m 10.001954,0 h 7.486328 v 7.503906 a 8.0000012,8.0000012 0 0 1 -7.486328,-7.503906 z m 8.443359,0 h 7.486329 a 8.0000012,8.0000012 0 0 1 -7.486329,7.503906 z m 8.488282,0 h 9 a 18,18 0 0 1 -17.488282,17.50586 v -9 a 9.0000011,9.0000011 0 0 0 8.488282,-8.50586 z"
       transform="scale(0.26457812)" />
  </g>
</svg>
