<?xml version="1.0" encoding="UTF-8" standalone="no"?>
<svg
   width="48.482151"
   height="48.48996"
   version="1.1"
   viewBox="0 0 12.827317 12.829383"
   id="svg33"
   xmlns:xlink="http://www.w3.org/1999/xlink"
   xmlns="http://www.w3.org/2000/svg"
   xmlns:svg="http://www.w3.org/2000/svg"
   xmlns:rdf="http://www.w3.org/1999/02/22-rdf-syntax-ns#"
   xmlns:cc="http://creativecommons.org/ns#"
   xmlns:dc="http://purl.org/dc/elements/1.1/">
  <metadata
     id="metadata1">
    <rdf:RDF>
      <cc:Work
         rdf:about="">
        <dc:format>image/svg+xml</dc:format>
        <dc:type
           rdf:resource="http://purl.org/dc/dcmitype/StillImage" />
      </cc:Work>
    </rdf:RDF>
  </metadata>
  <defs
     id="defs10">
    <linearGradient
       id="linearGradient34">
      <stop
         style="stop-color:#ff3dfb;stop-opacity:0;"
         offset="0"
         id="stop35" />
      <stop
         style="stop-color:#ff3dfb;stop-opacity:1;"
         offset="1"
         id="stop34" />
    </linearGradient>
    <style
       type="text/css"
       id="style1" />
    <style
       type="text/css"
       id="style2" />
    <style
       type="text/css"
       id="style3" />
    <style
       type="text/css"
       id="style4" />
    <style
       type="text/css"
       id="style5" />
    <style
       type="text/css"
       id="style6" />
    <linearGradient
       xlink:href="#linearGradient34"
       id="linearGradient35"
       x1="-11.1125"
       y1="16.933001"
       x2="-11.1125"
       y2="6.6566324"
       gradientUnits="userSpaceOnUse" />
    <filter
       style="color-interpolation-filters:sRGB"
       id="filter35"
       x="-0.027002294"
       y="-0.026997709"
       width="1.0540046"
       height="1.0539954">
      <feGaussianBlur
         stdDeviation="0.13692499"
         id="feGaussianBlur35" />
    </filter>
  </defs>
  <g
     transform="translate(17.5259,-2.0520664)"
     stroke-linecap="round"
     stroke-linejoin="round"
     id="g33">
    <path
       id="rect30"
       style="display:inline;opacity:0.6;fill:#ff3dfb;fill-opacity:1;paint-order:stroke fill markers;filter:url(#filter35)"
       d="m -15.7421,2.3806864 c -0.803887,0 -1.45518,0.6512926 -1.45518,1.4551797 v 9.2597179 c 0,0.803888 0.651293,1.457246 1.45518,1.457246 h 9.2597172 c 0.8038871,0 1.4551797,-0.653359 1.4551797,-1.457246 V 3.8358661 c 0,-0.803887 -0.6512926,-1.4551797 -1.4551797,-1.4551797 z m 0,0.2656116 h 9.2597172 c 0.6618863,0 1.1911183,0.5276819 1.1911183,1.1895681 v 9.2597179 c 0,0.661887 -0.5292319,1.191635 -1.1911183,1.191635 H -15.7421 c -0.661886,0 -1.191636,-0.529748 -1.191636,-1.191635 V 3.8358661 c 0,-0.6618861 0.52975,-1.1895681 1.191636,-1.1895681 z m 0.132289,7.936827 c -0.29315,0 -0.529157,0.235996 -0.529157,0.529156 v 1.587469 c 0,0.29315 0.235997,0.529156 0.529157,0.529156 h 1.587468 c 0.29315,0 0.529157,-0.235996 0.529157,-0.529156 v -1.587469 c 0,-0.29315 -0.235997,-0.529156 -0.529157,-0.529156 z m 3.703577,0 c -0.29315,0 -0.529157,0.235996 -0.529157,0.529156 v 1.587469 c 0,0.29315 0.235997,0.529156 0.529157,0.529156 h 1.587985 c 0.29315,0 0.5291564,-0.235996 0.5291564,-0.529156 v -1.587469 c 0,-0.29315 -0.2359964,-0.529156 -0.5291564,-0.529156 z m 3.7040934,0 c -0.29315,0 -0.5291563,0.235996 -0.5291563,0.529156 v 1.587469 c 0,0.29315 0.2359963,0.529156 0.5291563,0.529156 h 1.5879855 c 0.29315,0 0.5291562,-0.235996 0.5291562,-0.529156 v -1.587469 c 0,-0.29315 -0.2359962,-0.529156 -0.5291562,-0.529156 z m -7.4076704,0.264578 h 1.587468 c 0.14658,0 0.264579,0.117998 0.264579,0.264578 v 1.587469 c 0,0.14658 -0.117999,0.264578 -0.264579,0.264578 h -1.587468 c -0.14658,0 -0.264578,-0.117998 -0.264578,-0.264578 v -1.587469 c 0,-0.14658 0.117998,-0.264578 0.264578,-0.264578 z m 3.703577,0 h 1.587985 c 0.14658,0 0.264578,0.117998 0.264578,0.264578 v 1.587469 c 0,0.14658 -0.117998,0.264578 -0.264578,0.264578 h -1.587985 c -0.14658,0 -0.264578,-0.117998 -0.264578,-0.264578 v -1.587469 c 0,-0.14658 0.117998,-0.264578 0.264578,-0.264578 z m 3.7040934,0 h 1.5879855 c 0.14658,0 0.2645781,0.117998 0.2645781,0.264578 v 1.587469 c 0,0.14658 -0.1179981,0.264578 -0.2645781,0.264578 h -1.5879855 c -0.14658,0 -0.2645782,-0.117998 -0.2645782,-0.264578 v -1.587469 c 0,-0.14658 0.1179982,-0.264578 0.2645782,-0.264578 z" />
    <path
       id="path34"
       style="fill:url(#linearGradient35);fill-opacity:1;paint-order:stroke fill markers"
       d="m -15.7421,2.3806864 c -0.803887,0 -1.45518,0.6512926 -1.45518,1.4551797 v 9.2597179 c 0,0.803888 0.651293,1.457246 1.45518,1.457246 h 9.2597172 c 0.8038871,0 1.4551797,-0.653359 1.4551797,-1.457246 V 3.8358661 c 0,-0.803887 -0.6512926,-1.4551797 -1.4551797,-1.4551797 z m 0,0.2656116 h 9.2597172 c 0.6618863,0 1.1911183,0.5276819 1.1911183,1.1895681 v 9.2597179 c 0,0.661887 -0.5292319,1.191635 -1.1911183,1.191635 H -15.7421 c -0.661886,0 -1.191636,-0.529748 -1.191636,-1.191635 V 3.8358661 c 0,-0.6618861 0.52975,-1.1895681 1.191636,-1.1895681 z m 0.132289,7.936827 c -0.29315,0 -0.529157,0.235996 -0.529157,0.529156 v 1.587469 c 0,0.29315 0.235997,0.529156 0.529157,0.529156 h 1.587468 c 0.29315,0 0.529157,-0.235996 0.529157,-0.529156 v -1.587469 c 0,-0.29315 -0.235997,-0.529156 -0.529157,-0.529156 z m 3.703577,0 c -0.29315,0 -0.529157,0.235996 -0.529157,0.529156 v 1.587469 c 0,0.29315 0.235997,0.529156 0.529157,0.529156 h 1.587985 c 0.29315,0 0.5291564,-0.235996 0.5291564,-0.529156 v -1.587469 c 0,-0.29315 -0.2359964,-0.529156 -0.5291564,-0.529156 z m 3.7040934,0 c -0.29315,0 -0.5291563,0.235996 -0.5291563,0.529156 v 1.587469 c 0,0.29315 0.2359963,0.529156 0.5291563,0.529156 h 1.5879855 c 0.29315,0 0.5291562,-0.235996 0.5291562,-0.529156 v -1.587469 c 0,-0.29315 -0.2359962,-0.529156 -0.5291562,-0.529156 z m -7.4076704,0.264578 h 1.587468 c 0.14658,0 0.264579,0.117998 0.264579,0.264578 v 1.587469 c 0,0.14658 -0.117999,0.264578 -0.264579,0.264578 h -1.587468 c -0.14658,0 -0.264578,-0.117998 -0.264578,-0.264578 v -1.587469 c 0,-0.14658 0.117998,-0.264578 0.264578,-0.264578 z m 3.703577,0 h 1.587985 c 0.14658,0 0.264578,0.117998 0.264578,0.264578 v 1.587469 c 0,0.14658 -0.117998,0.264578 -0.264578,0.264578 h -1.587985 c -0.14658,0 -0.264578,-0.117998 -0.264578,-0.264578 v -1.587469 c 0,-0.14658 0.117998,-0.264578 0.264578,-0.264578 z m 3.7040934,0 h 1.5879855 c 0.14658,0 0.2645781,0.117998 0.2645781,0.264578 v 1.587469 c 0,0.14658 -0.1179981,0.264578 -0.2645781,0.264578 h -1.5879855 c -0.14658,0 -0.2645782,-0.117998 -0.2645782,-0.264578 v -1.587469 c 0,-0.14658 0.1179982,-0.264578 0.2645782,-0.264578 z" />
  </g>
</svg>
