<?xml version="1.0" encoding="UTF-8" standalone="no"?>
<svg
   width="43.598358"
   height="43.598358"
   version="1.1"
   viewBox="0 0 11.535172 11.535172"
   id="svg24"
   xmlns:xlink="http://www.w3.org/1999/xlink"
   xmlns="http://www.w3.org/2000/svg"
   xmlns:svg="http://www.w3.org/2000/svg"
   xmlns:rdf="http://www.w3.org/1999/02/22-rdf-syntax-ns#"
   xmlns:cc="http://creativecommons.org/ns#"
   xmlns:dc="http://purl.org/dc/elements/1.1/">
  <defs
     id="defs10">
    <linearGradient
       id="linearGradient6">
      <stop
         style="stop-color:#00abff;stop-opacity:0;"
         offset="0"
         id="stop7" />
      <stop
         style="stop-color:#00abff;stop-opacity:1;"
         offset="1"
         id="stop6" />
    </linearGradient>
    <style
       id="style14"
       type="text/css" />
    <style
       id="style16"
       type="text/css" />
    <style
       id="style14-4"
       type="text/css" />
    <style
       id="style16-5"
       type="text/css" />
    <style
       type="text/css"
       id="style1270" />
    <linearGradient
       xlink:href="#linearGradient6"
       id="linearGradient7"
       x1="725.08551"
       y1="-153.37199"
       x2="725.08551"
       y2="-164.90324"
       gradientUnits="userSpaceOnUse" />
    <filter
       style="color-interpolation-filters:sRGB"
       id="filter7"
       x="-0.027000001"
       y="-0.027000001"
       width="1.054"
       height="1.054">
      <feGaussianBlur
         stdDeviation="0.18"
         id="feGaussianBlur7" />
    </filter>
  </defs>
  <metadata
     id="metadata12">
    <rdf:RDF>
      <cc:Work
         rdf:about="">
        <dc:format>image/svg+xml</dc:format>
        <dc:type
           rdf:resource="http://purl.org/dc/dcmitype/StillImage" />
        <dc:title />
      </cc:Work>
    </rdf:RDF>
  </metadata>
  <g
     transform="matrix(0.68401157,0,0,0.68401157,-490.1408,117.26147)"
     id="g2">
    <path
       color="#bebebe"
       d="m 725,-171 c -4.423,0 -8,3.576 -8,8 0,4.424 3.577,8 8,8 4.424,0 8,-3.576 8,-8 0,-4.424 -3.576,-8 -8,-8 z m 0,1 c 3.87,0 7,3.13 7,7 0,3.87 -3.13,7 -7,7 -3.87,0 -7,-3.13 -7,-7 0,-3.87 3.13,-7 7,-7 z m 0.875,2.063 c -0.989,-0.014 -1.347,1.57 -0.406,1.968 0.749,0.277 1.496,-0.495 1.312,-1.25 -0.002,-0.009 0.002,-0.022 0,-0.031 a 0.88,0.88 0 0 0 -0.906,-0.687 z m -0.187,2.843 a 0.813,0.813 0 0 0 -0.532,0.188 l -2.093,1.5 a 0.195,0.195 0 0 0 -0.063,0.219 0.701,0.701 0 0 0 0.281,0.343 c 0.073,0.045 0.161,0.068 0.25,0.031 l 0.875,-0.593 -0.718,3.718 c -0.081,0.46 -0.01,0.75 0.25,0.97 a 0.85,0.85 0 0 0 1.031,0.03 l 1.812,-1.25 c 0.066,-0.052 0.1,-0.13 0.063,-0.218 a 1.192,1.192 0 0 0 -0.219,-0.344 c -0.055,-0.057 -0.143,-0.116 -0.25,-0.094 l -0.75,0.531 c -0.164,0.095 -0.215,0.136 -0.187,0.032 l 0.843,-3.844 c 0.077,-0.347 0.094,-0.55 0,-0.781 a 0.683,0.683 0 0 0 -0.593,-0.438 z"
       fill="#ffffff"
       opacity="0.9"
       overflow="visible"
       style="text-indent:0;text-transform:none;display:inline;opacity:0.6;fill:#00abff;fill-opacity:1;marker:none;filter:url(#filter7)"
       id="path1" />
    <path
       color="#bebebe"
       d="m 725,-171 c -4.423,0 -8,3.576 -8,8 0,4.424 3.577,8 8,8 4.424,0 8,-3.576 8,-8 0,-4.424 -3.576,-8 -8,-8 z m 0,1 c 3.87,0 7,3.13 7,7 0,3.87 -3.13,7 -7,7 -3.87,0 -7,-3.13 -7,-7 0,-3.87 3.13,-7 7,-7 z m 0.875,2.063 c -0.989,-0.014 -1.347,1.57 -0.406,1.968 0.749,0.277 1.496,-0.495 1.312,-1.25 -0.002,-0.009 0.002,-0.022 0,-0.031 a 0.88,0.88 0 0 0 -0.906,-0.687 z m -0.187,2.843 a 0.813,0.813 0 0 0 -0.532,0.188 l -2.093,1.5 a 0.195,0.195 0 0 0 -0.063,0.219 0.701,0.701 0 0 0 0.281,0.343 c 0.073,0.045 0.161,0.068 0.25,0.031 l 0.875,-0.593 -0.718,3.718 c -0.081,0.46 -0.01,0.75 0.25,0.97 a 0.85,0.85 0 0 0 1.031,0.03 l 1.812,-1.25 c 0.066,-0.052 0.1,-0.13 0.063,-0.218 a 1.192,1.192 0 0 0 -0.219,-0.344 c -0.055,-0.057 -0.143,-0.116 -0.25,-0.094 l -0.75,0.531 c -0.164,0.095 -0.215,0.136 -0.187,0.032 l 0.843,-3.844 c 0.077,-0.347 0.094,-0.55 0,-0.781 a 0.683,0.683 0 0 0 -0.593,-0.438 z"
       fill="#ffffff"
       opacity="0.9"
       overflow="visible"
       style="text-indent:0;text-transform:none;fill:url(#linearGradient7);fill-opacity:1;marker:none"
       id="path6" />
  </g>
</svg>
