<?xml version="1.0" encoding="UTF-8" standalone="no"?>
<svg
   width="48.493542"
   height="48.997391"
   version="1.1"
   viewBox="0 0 12.83033 12.963638"
   id="svg14"
   xmlns:xlink="http://www.w3.org/1999/xlink"
   xmlns="http://www.w3.org/2000/svg"
   xmlns:svg="http://www.w3.org/2000/svg"
   xmlns:rdf="http://www.w3.org/1999/02/22-rdf-syntax-ns#"
   xmlns:cc="http://creativecommons.org/ns#"
   xmlns:dc="http://purl.org/dc/elements/1.1/">
  <defs
     id="defs18">
    <linearGradient
       id="linearGradient1">
      <stop
         style="stop-color:#ff3dfb;stop-opacity:0;"
         offset="0"
         id="stop2" />
      <stop
         style="stop-color:#ff3dfb;stop-opacity:1;"
         offset="1"
         id="stop1" />
    </linearGradient>
    <style
       type="text/css"
       id="style839" />
    <linearGradient
       xlink:href="#linearGradient1"
       id="linearGradient2"
       x1="34.515442"
       y1="65.253235"
       x2="34.515442"
       y2="27.457216"
       gradientUnits="userSpaceOnUse" />
    <filter
       style="color-interpolation-filters:sRGB"
       id="filter2"
       x="-0.027147883"
       y="-0.026853721"
       width="1.0542958"
       height="1.0537074">
      <feGaussianBlur
         stdDeviation="0.52029083"
         id="feGaussianBlur3" />
    </filter>
  </defs>
  <metadata
     id="metadata2">
    <rdf:RDF>
      <cc:Work
         rdf:about="">
        <dc:format>image/svg+xml</dc:format>
        <dc:type
           rdf:resource="http://purl.org/dc/dcmitype/StillImage" />
        <dc:title />
      </cc:Work>
    </rdf:RDF>
  </metadata>
  <g
     id="g966"
     transform="translate(-2.1833722,-2.1831143)">
    <path
       id="path958"
       style="color:#000000;font-style:normal;font-variant:normal;font-weight:normal;font-stretch:normal;font-size:medium;line-height:normal;font-family:sans-serif;font-variant-ligatures:normal;font-variant-position:normal;font-variant-caps:normal;font-variant-numeric:normal;font-variant-alternates:normal;font-variant-east-asian:normal;font-feature-settings:normal;font-variation-settings:normal;text-indent:0;text-align:start;text-decoration:none;text-decoration-line:none;text-decoration-style:solid;text-decoration-color:#000000;letter-spacing:normal;word-spacing:normal;text-transform:none;writing-mode:lr-tb;direction:ltr;text-orientation:mixed;dominant-baseline:auto;baseline-shift:baseline;text-anchor:start;white-space:normal;shape-padding:0;shape-margin:0;inline-size:0;clip-rule:nonzero;display:inline;overflow:visible;visibility:visible;opacity:0.6;isolation:auto;mix-blend-mode:normal;color-interpolation:sRGB;color-interpolation-filters:linearRGB;solid-color:#000000;solid-opacity:1;vector-effect:none;fill:#ff3dfb;fill-opacity:1;fill-rule:nonzero;stroke:none;stroke-width:3.7796;stroke-linecap:butt;stroke-linejoin:round;stroke-miterlimit:4;stroke-dasharray:none;stroke-dashoffset:0;stroke-opacity:1;paint-order:stroke fill markers;filter:url(#filter2);color-rendering:auto;image-rendering:auto;shape-rendering:auto;text-rendering:auto;enable-background:accumulate;stop-color:#000000;stop-opacity:1"
       d="m 19.999023,9.5000014 c -5.808351,0 -10.4980468,4.6896956 -10.4980468,10.4980466 v 25.001954 c 0,5.808352 4.6896958,10.498047 10.4980468,10.498047 h 0.002 v -0.996094 h -0.0039 c -5.271649,0 -9.5,-4.230304 -9.5,-9.501953 V 19.998048 c 0,-5.271649 4.228351,-9.5 9.5,-9.5 h 25.001954 c 5.271649,0 9.501953,4.228351 9.501953,9.5 v 25.001954 c 0,5.271649 -4.230304,9.501953 -9.501953,9.501953 h -1 v 0.996094 h 1 c 5.808352,0 10.498047,-4.689695 10.498047,-10.498047 V 19.998048 c 0,-5.808351 -4.689695,-10.4980466 -10.498047,-10.4980466 z m 11.892579,6.4999996 c -1.532874,0.0136 -3.078116,0.309232 -4.556641,0.904297 -4.731282,1.904211 -7.832031,6.497554 -7.832031,11.597657 a 0.49999981,0.49999981 0 0 0 0.49414,0.49414 0.49999981,0.49999981 0 0 0 0.501953,-0.49414 c 10e-7,-4.69497 2.849632,-8.913068 7.205079,-10.666016 4.355445,-1.752947 9.33553,-0.68481 12.58789,2.701172 3.252363,3.385983 4.118202,8.400263 2.191407,12.681641 -1.926796,4.281377 -6.2561,6.958462 -10.947266,6.769531 a 0.49999981,0.49999981 0 0 0 -0.05273,0.01172 c -0.06743,0.0021 -0.129454,0.01888 -0.1875,0.04492 a 0.49999981,0.49999981 0 0 0 -0.02148,0.01172 c -0.162161,0.08248 -0.275391,0.248285 -0.275391,0.443359 v 9 c 0,0.277003 0.223001,0.5 0.5,0.5 0.277,0 0.5,-0.222993 0.5,-0.5 v -8.498047 c 4.902105,0.0021 9.375968,-2.870833 11.400391,-7.369141 2.093061,-4.650821 1.148244,-10.1109 -2.384765,-13.789062 -1.766507,-1.839081 -4.005113,-3.053931 -6.392579,-3.566407 -0.895299,-0.192178 -1.810744,-0.285502 -2.730468,-0.277344 z m -0.390625,37.000001 a 1.5000006,1.5000006 0 0 0 -1.5,1.5 1.5000006,1.5000006 0 0 0 1.5,1.5 1.5000006,1.5000006 0 0 0 1.5,-1.5 1.5000006,1.5000006 0 0 0 -1.5,-1.5 z"
       transform="scale(0.26457812)" />
    <path
       id="path1"
       style="color:#000000;font-style:normal;font-variant:normal;font-weight:normal;font-stretch:normal;font-size:medium;line-height:normal;font-family:sans-serif;font-variant-ligatures:normal;font-variant-position:normal;font-variant-caps:normal;font-variant-numeric:normal;font-variant-alternates:normal;font-variant-east-asian:normal;font-feature-settings:normal;font-variation-settings:normal;text-indent:0;text-align:start;text-decoration:none;text-decoration-line:none;text-decoration-style:solid;text-decoration-color:#000000;letter-spacing:normal;word-spacing:normal;text-transform:none;writing-mode:lr-tb;direction:ltr;text-orientation:mixed;dominant-baseline:auto;baseline-shift:baseline;text-anchor:start;white-space:normal;shape-padding:0;shape-margin:0;inline-size:0;clip-rule:nonzero;display:inline;overflow:visible;visibility:visible;opacity:1;isolation:auto;mix-blend-mode:normal;color-interpolation:sRGB;color-interpolation-filters:linearRGB;solid-color:#000000;solid-opacity:1;vector-effect:none;fill:url(#linearGradient2);fill-opacity:1;fill-rule:nonzero;stroke:none;stroke-width:3.7796;stroke-linecap:butt;stroke-linejoin:round;stroke-miterlimit:4;stroke-dasharray:none;stroke-dashoffset:0;stroke-opacity:1;paint-order:stroke fill markers;color-rendering:auto;image-rendering:auto;shape-rendering:auto;text-rendering:auto;enable-background:accumulate;stop-color:#000000;stop-opacity:1"
       d="m 19.999023,9.5000014 c -5.808351,0 -10.4980468,4.6896956 -10.4980468,10.4980466 v 25.001954 c 0,5.808352 4.6896958,10.498047 10.4980468,10.498047 h 0.002 v -0.996094 h -0.0039 c -5.271649,0 -9.5,-4.230304 -9.5,-9.501953 V 19.998048 c 0,-5.271649 4.228351,-9.5 9.5,-9.5 h 25.001954 c 5.271649,0 9.501953,4.228351 9.501953,9.5 v 25.001954 c 0,5.271649 -4.230304,9.501953 -9.501953,9.501953 h -1 v 0.996094 h 1 c 5.808352,0 10.498047,-4.689695 10.498047,-10.498047 V 19.998048 c 0,-5.808351 -4.689695,-10.4980466 -10.498047,-10.4980466 z m 11.892579,6.4999996 c -1.532874,0.0136 -3.078116,0.309232 -4.556641,0.904297 -4.731282,1.904211 -7.832031,6.497554 -7.832031,11.597657 a 0.49999981,0.49999981 0 0 0 0.49414,0.49414 0.49999981,0.49999981 0 0 0 0.501953,-0.49414 c 10e-7,-4.69497 2.849632,-8.913068 7.205079,-10.666016 4.355445,-1.752947 9.33553,-0.68481 12.58789,2.701172 3.252363,3.385983 4.118202,8.400263 2.191407,12.681641 -1.926796,4.281377 -6.2561,6.958462 -10.947266,6.769531 a 0.49999981,0.49999981 0 0 0 -0.05273,0.01172 c -0.06743,0.0021 -0.129454,0.01888 -0.1875,0.04492 a 0.49999981,0.49999981 0 0 0 -0.02148,0.01172 c -0.162161,0.08248 -0.275391,0.248285 -0.275391,0.443359 v 9 c 0,0.277003 0.223001,0.5 0.5,0.5 0.277,0 0.5,-0.222993 0.5,-0.5 v -8.498047 c 4.902105,0.0021 9.375968,-2.870833 11.400391,-7.369141 2.093061,-4.650821 1.148244,-10.1109 -2.384765,-13.789062 -1.766507,-1.839081 -4.005113,-3.053931 -6.392579,-3.566407 -0.895299,-0.192178 -1.810744,-0.285502 -2.730468,-0.277344 z m -0.390625,37.000001 a 1.5000006,1.5000006 0 0 0 -1.5,1.5 1.5000006,1.5000006 0 0 0 1.5,1.5 1.5000006,1.5000006 0 0 0 1.5,-1.5 1.5000006,1.5000006 0 0 0 -1.5,-1.5 z"
       transform="scale(0.26457812)" />
  </g>
</svg>
