<?xml version="1.0" encoding="UTF-8" standalone="no"?>
<svg
   width="48.480717"
   height="48.442909"
   viewBox="0 0 12.826937 12.816934"
   version="1.1"
   id="svg18"
   xmlns:xlink="http://www.w3.org/1999/xlink"
   xmlns="http://www.w3.org/2000/svg"
   xmlns:svg="http://www.w3.org/2000/svg"
   xmlns:rdf="http://www.w3.org/1999/02/22-rdf-syntax-ns#"
   xmlns:cc="http://creativecommons.org/ns#"
   xmlns:dc="http://purl.org/dc/elements/1.1/">
  <metadata
     id="metadata24">
    <rdf:RDF>
      <cc:Work
         rdf:about="">
        <dc:format>image/svg+xml</dc:format>
        <dc:type
           rdf:resource="http://purl.org/dc/dcmitype/StillImage" />
        <dc:title />
      </cc:Work>
    </rdf:RDF>
  </metadata>
  <defs
     id="defs22">
    <linearGradient
       id="linearGradient1">
      <stop
         style="stop-color:#ff3dfb;stop-opacity:0;"
         offset="0"
         id="stop2" />
      <stop
         style="stop-color:#ff3dfb;stop-opacity:1;"
         offset="1"
         id="stop1" />
    </linearGradient>
    <style
       type="text/css"
       id="style839" />
    <linearGradient
       xlink:href="#linearGradient1"
       id="linearGradient2"
       x1="9"
       y1="17"
       x2="9"
       y2="7"
       gradientUnits="userSpaceOnUse" />
    <filter
       style="color-interpolation-filters:sRGB"
       id="filter2"
       x="-0.026988905"
       y="-0.027011105"
       width="1.0539778"
       height="1.0540222">
      <feGaussianBlur
         stdDeviation="0.13685652"
         id="feGaussianBlur2" />
    </filter>
  </defs>
  <g
     id="g955"
     style="stroke:#ee1d8e;stroke-opacity:1"
     transform="translate(-2.052333,-2.0584128)">
    <path
       id="path951"
       style="display:inline;opacity:0.6;fill:#ff3dfb;fill-opacity:1;stroke:none;filter:url(#filter2)"
       d="m 10.242067,2.3868874 c 0,0 -0.2715493,0.00907 -0.6092529,0.081647 C 9.2951105,2.5411115 8.883315,2.6734255 8.5915545,2.9434316 8.3158127,3.1986137 6.8268031,4.6878189 5.3923296,6.127154 3.9578562,7.5664891 2.5899717,8.9455311 2.5899718,8.9455311 l -0.00982,0.0093 -0.00568,0.00982 c 0,0 -0.1498692,0.223332 -0.1860315,0.5487929 -0.036162,0.3254608 0.045838,0.766709 0.4630117,1.183884 l 3.6663707,3.667921 0.021187,0.0098 c 0,0 1.013297,0.493062 1.71304,-0.191199 0.6400891,-0.625927 5.4587893,-5.5525323 5.4724263,-5.5664757 l 0.0078,-0.00775 c 0.01365,-0.011939 0.818538,-0.7221805 0.818538,-1.9181914 v -3.142382 l -0.0021,-0.016019 c 0,0 -0.212211,-0.9491195 -1.14616,-1.1425434 l -0.01189,-0.00362 h -3.146516 z m 0.0041,0.2656117 h 3.10931 c 0.756966,0.1623341 0.92779,0.9097309 0.931708,0.9275737 v 3.1113767 c 0,1.0856895 -0.736375,1.7264756 -0.736375,1.7264756 l -0.0041,0.00413 -0.0036,0.00362 c 0,0 -4.8555627,4.9633059 -5.4744937,5.5685429 C 7.5161342,14.53446 6.6891418,14.14969 6.6661285,14.13891 L 3.0369641,10.509746 C 2.671758,10.144539 2.623463,9.8042231 2.6524991,9.5428989 2.6811384,9.2851444 2.7879922,9.1236978 2.7909892,9.1191605 2.8042136,9.1058424 4.1526346,7.746333 5.5799113,6.314219 7.014165,4.8751045 8.5255399,3.3662791 8.7713849,3.1387647 9.0012109,2.9260751 9.3733102,2.7960046 9.6875901,2.7284619 9.9986659,2.6616078 10.241182,2.6526933 10.246201,2.6524991 Z m 1.659815,1.183367 c -0.655984,0 -1.191119,0.5356509 -1.191119,1.191635 0,0.6559842 0.535135,1.1890513 1.191119,1.1890513 0.655984,0 1.189568,-0.5330671 1.189568,-1.1890513 0,-0.6559841 -0.533584,-1.191635 -1.189568,-1.191635 z m 0,0.2656116 c 0.512996,0 0.926023,0.4130279 0.926023,0.9260234 0,0.5129956 -0.413027,0.9255067 -0.926023,0.9255067 -0.512996,0 -0.925507,-0.4125111 -0.925507,-0.9255067 0,-0.5129955 0.412511,-0.9260234 0.925507,-0.9260234 z" />
    <path
       id="path1"
       style="fill:url(#linearGradient2);fill-opacity:1;stroke:none"
       d="m 10.242067,2.3868874 c 0,0 -0.2715493,0.00907 -0.6092529,0.081647 C 9.2951105,2.5411115 8.883315,2.6734255 8.5915545,2.9434316 8.3158127,3.1986137 6.8268031,4.6878189 5.3923296,6.127154 3.9578562,7.5664891 2.5899717,8.9455311 2.5899718,8.9455311 l -0.00982,0.0093 -0.00568,0.00982 c 0,0 -0.1498692,0.223332 -0.1860315,0.5487929 -0.036162,0.3254608 0.045838,0.766709 0.4630117,1.183884 l 3.6663707,3.667921 0.021187,0.0098 c 0,0 1.013297,0.493062 1.71304,-0.191199 0.6400891,-0.625927 5.4587893,-5.5525323 5.4724263,-5.5664757 l 0.0078,-0.00775 c 0.01365,-0.011939 0.818538,-0.7221805 0.818538,-1.9181914 v -3.142382 l -0.0021,-0.016019 c 0,0 -0.212211,-0.9491195 -1.14616,-1.1425434 l -0.01189,-0.00362 h -3.146516 z m 0.0041,0.2656117 h 3.10931 c 0.756966,0.1623341 0.92779,0.9097309 0.931708,0.9275737 v 3.1113767 c 0,1.0856895 -0.736375,1.7264756 -0.736375,1.7264756 l -0.0041,0.00413 -0.0036,0.00362 c 0,0 -4.8555627,4.9633059 -5.4744937,5.5685429 C 7.5161342,14.53446 6.6891418,14.14969 6.6661285,14.13891 L 3.0369641,10.509746 C 2.671758,10.144539 2.623463,9.8042231 2.6524991,9.5428989 2.6811384,9.2851444 2.7879922,9.1236978 2.7909892,9.1191605 2.8042136,9.1058424 4.1526346,7.746333 5.5799113,6.314219 7.014165,4.8751045 8.5255399,3.3662791 8.7713849,3.1387647 9.0012109,2.9260751 9.3733102,2.7960046 9.6875901,2.7284619 9.9986659,2.6616078 10.241182,2.6526933 10.246201,2.6524991 Z m 1.659815,1.183367 c -0.655984,0 -1.191119,0.5356509 -1.191119,1.191635 0,0.6559842 0.535135,1.1890513 1.191119,1.1890513 0.655984,0 1.189568,-0.5330671 1.189568,-1.1890513 0,-0.6559841 -0.533584,-1.191635 -1.189568,-1.191635 z m 0,0.2656116 c 0.512996,0 0.926023,0.4130279 0.926023,0.9260234 0,0.5129956 -0.413027,0.9255067 -0.926023,0.9255067 -0.512996,0 -0.925507,-0.4125111 -0.925507,-0.9255067 0,-0.5129955 0.412511,-0.9260234 0.925507,-0.9260234 z" />
  </g>
</svg>
