<?xml version="1.0" encoding="UTF-8" standalone="no"?>
<svg
   width="48.484001"
   height="48.484016"
   version="1.1"
   viewBox="0 0 12.827806 12.82781"
   id="svg19"
   xmlns:xlink="http://www.w3.org/1999/xlink"
   xmlns="http://www.w3.org/2000/svg"
   xmlns:svg="http://www.w3.org/2000/svg"
   xmlns:rdf="http://www.w3.org/1999/02/22-rdf-syntax-ns#"
   xmlns:cc="http://creativecommons.org/ns#"
   xmlns:dc="http://purl.org/dc/elements/1.1/">
  <defs
     id="defs12">
    <linearGradient
       id="linearGradient20">
      <stop
         style="stop-color:#ff3dfb;stop-opacity:0;"
         offset="0"
         id="stop21" />
      <stop
         style="stop-color:#ff3dfb;stop-opacity:1;"
         offset="1"
         id="stop20" />
    </linearGradient>
    <style
       type="text/css"
       id="style1" />
    <style
       type="text/css"
       id="style2" />
    <style
       type="text/css"
       id="style3" />
    <style
       type="text/css"
       id="style4" />
    <style
       type="text/css"
       id="style5" />
    <style
       type="text/css"
       id="style6" />
    <style
       type="text/css"
       id="style7" />
    <style
       type="text/css"
       id="style8" />
    <linearGradient
       xlink:href="#linearGradient20"
       id="linearGradient21"
       x1="24.621553"
       y1="16.933001"
       x2="24.621553"
       y2="6.6566324"
       gradientUnits="userSpaceOnUse" />
    <filter
       style="color-interpolation-filters:sRGB"
       id="filter21"
       x="-0.027000004"
       y="-0.026999995"
       width="1.054"
       height="1.054">
      <feGaussianBlur
         stdDeviation="0.1369192"
         id="feGaussianBlur21" />
    </filter>
  </defs>
  <metadata
     id="metadata12">
    <rdf:RDF>
      <cc:Work
         rdf:about="">
        <dc:format>image/svg+xml</dc:format>
        <dc:type
           rdf:resource="http://purl.org/dc/dcmitype/StillImage" />
      </cc:Work>
    </rdf:RDF>
  </metadata>
  <g
     transform="translate(-18.023631,-2.0525912)"
     id="g19">
    <path
       id="path17"
       style="display:inline;opacity:0.6;fill:#ff3dfb;fill-opacity:1;paint-order:stroke fill markers;filter:url(#filter21)"
       d="m 19.675094,2.3812031 c -0.02473,0 -0.04899,0.00229 -0.07338,0.00362 -0.0014,7.46e-5 -0.0028,-7.87e-5 -0.0041,0 -0.0062,0 -0.01199,8.878e-4 -0.01809,0.00103 -0.01512,0.00107 -0.0305,0.00153 -0.04547,0.0031 -0.0414,0.00347 -0.08183,0.00846 -0.120921,0.018086 -0.606477,0.1209748 -1.060896,0.6539583 -1.060896,1.2970529 v 9.524812 c 0,0.73288 0.590001,1.322891 1.322891,1.322891 h 9.524812 c 0.73288,0 1.322891,-0.590001 1.322891,-1.322891 V 3.7040937 c 0,-0.6445099 -0.456531,-1.1781558 -1.06503,-1.2975696 -1.66e-4,-3.25e-5 -3.51e-4,3.24e-5 -5.17e-4,0 -0.03745,-0.0091 -0.07616,-0.01412 -0.115753,-0.01757 -0.01824,-0.00193 -0.03683,-0.00243 -0.05529,-0.00362 -0.0045,-2.87e-4 -0.009,-2.739e-4 -0.01344,-5.168e-4 -0.02431,-0.00132 -0.04821,-0.00362 -0.07286,-0.00362 z m -0.07751,0.2692289 h 9.677771 c 0.01462,0 0.02908,0.00139 0.04341,0.00258 0.02283,0.00253 0.04534,0.00587 0.06769,0.00982 0.122776,0.026699 0.23585,0.096447 0.347776,0.1984336 0.11775,0.1072935 0.226185,0.2530319 0.333823,0.3922164 l -0.06098,0.05891 -5.253322,5.0218168 c -0.01046,0.010353 -0.02159,0.019641 -0.03307,0.028938 -0.01098,0.00853 -0.02327,0.017757 -0.03514,0.025321 -0.01236,0.00811 -0.02616,0.016913 -0.03927,0.023771 -0.01325,0.00689 -0.02692,0.011999 -0.04082,0.01757 -0.01343,0.00519 -0.02701,0.00955 -0.04082,0.013436 h -0.0021 c -0.01445,0.0042 -0.02796,0.00911 -0.04289,0.011885 -0.01474,0.00275 -0.03004,0.00439 -0.04496,0.00568 -0.01434,0.00123 -0.02849,0.00219 -0.04289,0.00207 -0.01497,-3.821e-4 -0.03021,-0.00231 -0.04496,-0.00413 h -0.0021 -0.0021 c -0.01485,-0.00146 -0.02806,-0.00481 -0.04289,-0.00775 l 0.0021,0.00207 c -0.01457,-0.00333 -0.02921,-0.00715 -0.04341,-0.011885 v -0.00155 h -0.0016 c -0.01367,-0.00419 -0.02814,-0.00851 -0.04134,-0.013952 l -0.0021,-0.00207 c -0.01294,-0.00568 -0.0265,-0.012314 -0.03876,-0.01912 v 0.00155 c -0.01299,-0.00724 -0.02501,-0.01684 -0.03721,-0.025321 -0.01206,-0.00836 -0.02394,-0.015803 -0.03514,-0.025321 v -0.00207 c -0.0079,-0.00668 -0.01734,-0.013461 -0.02532,-0.021187 L 18.80643,3.2540009 c 0.107703,-0.1394555 0.216415,-0.2853269 0.333823,-0.3927332 0.108179,-0.098963 0.217143,-0.1679665 0.335374,-0.1963665 5.23e-4,-1.257e-4 0.001,-3.927e-4 0.0016,-5.168e-4 0.02653,-0.00498 0.05341,-0.00891 0.08061,-0.011885 0.01313,-10e-4 0.02639,-0.00207 0.03979,-0.00207 z m -0.952378,0.8123376 5.288462,5.0605734 c 0.01182,0.011434 0.0241,0.02203 0.03721,0.033072 0.01738,0.01477 0.03599,0.030324 0.05478,0.043407 0.01934,0.013441 0.03984,0.025198 0.06046,0.036689 0.02072,0.011502 0.04239,0.022149 0.06408,0.031522 h 0.0021 c 0.02201,0.00921 0.0438,0.018326 0.06666,0.025321 0.02102,0.00688 0.04297,0.012628 0.06459,0.01757 h 0.0016 0.0021 c 0.02188,0.00435 0.04427,0.00957 0.06666,0.011885 0.02251,0.00277 0.04513,0.00305 0.0677,0.00362 l -5.367009,5.201131 a 0.13229001,0.13229001 0 0 0 -0.0217,0.142107 C 18.779983,13.876613 18.616781,13.572949 18.616781,13.228906 V 3.7040937 c 0,-0.083207 0.01043,-0.1637441 0.02842,-0.2413241 z m 11.585111,0.00258 c 0.01759,0.076763 0.02791,0.1564913 0.02791,0.2387404 v 9.524812 c 0,0.5863 -0.472023,1.058313 -1.058313,1.058313 h -9.524812 c -0.1893,0 -0.366425,-0.05005 -0.519855,-0.136423 a 0.13229001,0.13229001 0 0 0 0.0832,-0.03359 z" />
    <path
       id="path20"
       style="fill:url(#linearGradient21);fill-opacity:1;paint-order:stroke fill markers"
       d="m 19.675094,2.3812031 c -0.02473,0 -0.04899,0.00229 -0.07338,0.00362 -0.0014,7.46e-5 -0.0028,-7.87e-5 -0.0041,0 -0.0062,0 -0.01199,8.878e-4 -0.01809,0.00103 -0.01512,0.00107 -0.0305,0.00153 -0.04547,0.0031 -0.0414,0.00347 -0.08183,0.00846 -0.120921,0.018086 -0.606477,0.1209748 -1.060896,0.6539583 -1.060896,1.2970529 v 9.524812 c 0,0.73288 0.590001,1.322891 1.322891,1.322891 h 9.524812 c 0.73288,0 1.322891,-0.590001 1.322891,-1.322891 V 3.7040937 c 0,-0.6445099 -0.456531,-1.1781558 -1.06503,-1.2975696 -1.66e-4,-3.25e-5 -3.51e-4,3.24e-5 -5.17e-4,0 -0.03745,-0.0091 -0.07616,-0.01412 -0.115753,-0.01757 -0.01824,-0.00193 -0.03683,-0.00243 -0.05529,-0.00362 -0.0045,-2.87e-4 -0.009,-2.739e-4 -0.01344,-5.168e-4 -0.02431,-0.00132 -0.04821,-0.00362 -0.07286,-0.00362 z m -0.07751,0.2692289 h 9.677771 c 0.01462,0 0.02908,0.00139 0.04341,0.00258 0.02283,0.00253 0.04534,0.00587 0.06769,0.00982 0.122776,0.026699 0.23585,0.096447 0.347776,0.1984336 0.11775,0.1072935 0.226185,0.2530319 0.333823,0.3922164 l -0.06098,0.05891 -5.253322,5.0218168 c -0.01046,0.010353 -0.02159,0.019641 -0.03307,0.028938 -0.01098,0.00853 -0.02327,0.017757 -0.03514,0.025321 -0.01236,0.00811 -0.02616,0.016913 -0.03927,0.023771 -0.01325,0.00689 -0.02692,0.011999 -0.04082,0.01757 -0.01343,0.00519 -0.02701,0.00955 -0.04082,0.013436 h -0.0021 c -0.01445,0.0042 -0.02796,0.00911 -0.04289,0.011885 -0.01474,0.00275 -0.03004,0.00439 -0.04496,0.00568 -0.01434,0.00123 -0.02849,0.00219 -0.04289,0.00207 -0.01497,-3.821e-4 -0.03021,-0.00231 -0.04496,-0.00413 h -0.0021 -0.0021 c -0.01485,-0.00146 -0.02806,-0.00481 -0.04289,-0.00775 l 0.0021,0.00207 c -0.01457,-0.00333 -0.02921,-0.00715 -0.04341,-0.011885 v -0.00155 h -0.0016 c -0.01367,-0.00419 -0.02814,-0.00851 -0.04134,-0.013952 l -0.0021,-0.00207 c -0.01294,-0.00568 -0.0265,-0.012314 -0.03876,-0.01912 v 0.00155 c -0.01299,-0.00724 -0.02501,-0.01684 -0.03721,-0.025321 -0.01206,-0.00836 -0.02394,-0.015803 -0.03514,-0.025321 v -0.00207 c -0.0079,-0.00668 -0.01734,-0.013461 -0.02532,-0.021187 L 18.80643,3.2540009 c 0.107703,-0.1394555 0.216415,-0.2853269 0.333823,-0.3927332 0.108179,-0.098963 0.217143,-0.1679665 0.335374,-0.1963665 5.23e-4,-1.257e-4 0.001,-3.927e-4 0.0016,-5.168e-4 0.02653,-0.00498 0.05341,-0.00891 0.08061,-0.011885 0.01313,-10e-4 0.02639,-0.00207 0.03979,-0.00207 z m -0.952378,0.8123376 5.288462,5.0605734 c 0.01182,0.011434 0.0241,0.02203 0.03721,0.033072 0.01738,0.01477 0.03599,0.030324 0.05478,0.043407 0.01934,0.013441 0.03984,0.025198 0.06046,0.036689 0.02072,0.011502 0.04239,0.022149 0.06408,0.031522 h 0.0021 c 0.02201,0.00921 0.0438,0.018326 0.06666,0.025321 0.02102,0.00688 0.04297,0.012628 0.06459,0.01757 h 0.0016 0.0021 c 0.02188,0.00435 0.04427,0.00957 0.06666,0.011885 0.02251,0.00277 0.04513,0.00305 0.0677,0.00362 l -5.367009,5.201131 a 0.13229001,0.13229001 0 0 0 -0.0217,0.142107 C 18.779983,13.876613 18.616781,13.572949 18.616781,13.228906 V 3.7040937 c 0,-0.083207 0.01043,-0.1637441 0.02842,-0.2413241 z m 11.585111,0.00258 c 0.01759,0.076763 0.02791,0.1564913 0.02791,0.2387404 v 9.524812 c 0,0.5863 -0.472023,1.058313 -1.058313,1.058313 h -9.524812 c -0.1893,0 -0.366425,-0.05005 -0.519855,-0.136423 a 0.13229001,0.13229001 0 0 0 0.0832,-0.03359 z" />
  </g>
</svg>
