<?xml version="1.0" encoding="UTF-8" standalone="no"?>
<svg
   width="48.484001"
   height="48.484001"
   version="1.1"
   id="svg12"
   xmlns:xlink="http://www.w3.org/1999/xlink"
   xmlns="http://www.w3.org/2000/svg"
   xmlns:svg="http://www.w3.org/2000/svg"
   xmlns:rdf="http://www.w3.org/1999/02/22-rdf-syntax-ns#"
   xmlns:cc="http://creativecommons.org/ns#"
   xmlns:dc="http://purl.org/dc/elements/1.1/">
  <metadata
     id="metadata1">
    <rdf:RDF>
      <cc:Work
         rdf:about="">
        <dc:format>image/svg+xml</dc:format>
        <dc:type
           rdf:resource="http://purl.org/dc/dcmitype/StillImage" />
      </cc:Work>
    </rdf:RDF>
  </metadata>
  <defs
     id="defs9">
    <linearGradient
       id="linearGradient13">
      <stop
         style="stop-color:#ff3dfb;stop-opacity:0;"
         offset="0"
         id="stop14" />
      <stop
         style="stop-color:#ff3dfb;stop-opacity:1;"
         offset="1"
         id="stop13" />
    </linearGradient>
    <linearGradient
       xlink:href="#linearGradient13"
       id="linearGradient14"
       x1="32.115944"
       y1="64"
       x2="32.115944"
       y2="25.623188"
       gradientUnits="userSpaceOnUse" />
    <filter
       style="color-interpolation-filters:sRGB"
       id="filter14"
       x="-0.026999999"
       y="-0.026999999"
       width="1.054"
       height="1.054">
      <feGaussianBlur
         stdDeviation="0.5175"
         id="feGaussianBlur14" />
    </filter>
  </defs>
  <g
     stroke-linecap="round"
     stroke-linejoin="round"
     id="g12"
     transform="translate(-7.7580001,-7.7580001)">
    <path
       id="rect11"
       style="display:inline;opacity:0.6;fill:#ff3dfb;fill-opacity:1;paint-order:stroke fill markers;filter:url(#filter14)"
       d="M 14.5,9 C 11.461649,9 9,11.461649 9,14.5 v 35 c 0,3.038351 2.461649,5.5 5.5,5.5 h 35 c 3.038351,0 5.5,-2.461649 5.5,-5.5 v -35 C 55,11.461649 52.538351,9 49.5,9 Z m 0,1 h 35 c 2.501649,0 4.5,1.998351 4.5,4.5 v 35 c 0,2.501649 -1.998351,4.5 -4.5,4.5 h -35 C 11.998351,54 10,52.001649 10,49.5 v -35 C 10,11.998351 11.998351,10 14.5,10 Z m 0.498047,30 c -1.108,-3.9e-5 -2,0.89199 -2,2 v 6 c 0,1.108 0.89199,2 2,2 H 28 c 1.108,3.9e-5 2,-0.89199 2,-2 v -6 c 0,-1.108 -0.89199,-2 -2,-2 z M 36,40 c -1.108,0 -2,0.89199 -2,2 v 6 c 0,1.108 0.89199,2 2,2 h 13 c 1.108,0 2,-0.89199 2,-2 v -6 c 0,-1.108 -0.89199,-2 -2,-2 z M 14.998047,41 H 28 c 0.55401,2e-5 1,0.44599 1,1 v 6 c 0,0.55401 -0.44599,1 -1,1 H 14.998047 c -0.55401,-2e-5 -1,-0.44599 -1,-1 v -6 c 0,-0.55401 0.44599,-1 1,-1 z M 36,41 h 13 c 0.55401,0 1,0.44599 1,1 v 6 c 0,0.55401 -0.44599,1 -1,1 H 36 c -0.55401,0 -1,-0.44599 -1,-1 v -6 c 0,-0.55401 0.44599,-1 1,-1 z" />
    <path
       id="path13"
       style="fill:url(#linearGradient14);fill-opacity:1;paint-order:stroke fill markers"
       d="M 14.5,9 C 11.461649,9 9,11.461649 9,14.5 v 35 c 0,3.038351 2.461649,5.5 5.5,5.5 h 35 c 3.038351,0 5.5,-2.461649 5.5,-5.5 v -35 C 55,11.461649 52.538351,9 49.5,9 Z m 0,1 h 35 c 2.501649,0 4.5,1.998351 4.5,4.5 v 35 c 0,2.501649 -1.998351,4.5 -4.5,4.5 h -35 C 11.998351,54 10,52.001649 10,49.5 v -35 C 10,11.998351 11.998351,10 14.5,10 Z m 0.498047,30 c -1.108,-3.9e-5 -2,0.89199 -2,2 v 6 c 0,1.108 0.89199,2 2,2 H 28 c 1.108,3.9e-5 2,-0.89199 2,-2 v -6 c 0,-1.108 -0.89199,-2 -2,-2 z M 36,40 c -1.108,0 -2,0.89199 -2,2 v 6 c 0,1.108 0.89199,2 2,2 h 13 c 1.108,0 2,-0.89199 2,-2 v -6 c 0,-1.108 -0.89199,-2 -2,-2 z M 14.998047,41 H 28 c 0.55401,2e-5 1,0.44599 1,1 v 6 c 0,0.55401 -0.44599,1 -1,1 H 14.998047 c -0.55401,-2e-5 -1,-0.44599 -1,-1 v -6 c 0,-0.55401 0.44599,-1 1,-1 z M 36,41 h 13 c 0.55401,0 1,0.44599 1,1 v 6 c 0,0.55401 -0.44599,1 -1,1 H 36 c -0.55401,0 -1,-0.44599 -1,-1 v -6 c 0,-0.55401 0.44599,-1 1,-1 z" />
  </g>
</svg>
