<?xml version="1.0" encoding="UTF-8" standalone="no"?>
<svg
   width="48.968491"
   height="47.470448"
   version="1.1"
   viewBox="0 0 12.955991 12.559642"
   id="svg10"
   xmlns:xlink="http://www.w3.org/1999/xlink"
   xmlns="http://www.w3.org/2000/svg"
   xmlns:svg="http://www.w3.org/2000/svg"
   xmlns:rdf="http://www.w3.org/1999/02/22-rdf-syntax-ns#"
   xmlns:cc="http://creativecommons.org/ns#"
   xmlns:dc="http://purl.org/dc/elements/1.1/">
  <defs
     id="defs4">
    <linearGradient
       id="linearGradient1">
      <stop
         style="stop-color:#00abff;stop-opacity:0;"
         offset="0"
         id="stop2" />
      <stop
         style="stop-color:#00abff;stop-opacity:1;"
         offset="1"
         id="stop1" />
    </linearGradient>
    <style
       type="text/css"
       id="style2" />
    <style
       type="text/css"
       id="style918" />
    <linearGradient
       xlink:href="#linearGradient1"
       id="linearGradient2"
       x1="32.366333"
       y1="63.786087"
       x2="32.366333"
       y2="26.457214"
       gradientUnits="userSpaceOnUse" />
    <filter
       style="color-interpolation-filters:sRGB"
       id="filter2"
       x="-0.026565066"
       y="-0.027449413"
       width="1.0531301"
       height="1.0548988">
      <feGaussianBlur
         stdDeviation="0.51467651"
         id="feGaussianBlur2" />
    </filter>
  </defs>
  <metadata
     id="metadata6">
    <rdf:RDF>
      <cc:Work
         rdf:about="">
        <dc:format>image/svg+xml</dc:format>
        <dc:type
           rdf:resource="http://purl.org/dc/dcmitype/StillImage" />
        <dc:title />
      </cc:Work>
    </rdf:RDF>
  </metadata>
  <g
     id="g990"
     transform="translate(-2.05439,-2.3189681)">
    <path
       id="path978"
       style="display:inline;opacity:0.6;fill:#00abff;fill-opacity:1;stroke:none;stroke-width:1;stroke-linecap:round;stroke-linejoin:round;paint-order:stroke fill markers;filter:url(#filter2)"
       d="m 13,10 c -2.216,0 -3.9999997,1.784 -3.9999997,4 v 29.000001 c 0,2.216 1.7839997,4 3.9999997,4 h 18.91211 c -0.319178,-0.305183 -0.603239,-0.639434 -0.851562,-1 H 13 c -1.662,0 -3,-1.337999 -3,-3 V 14 c 0,-1.662 1.338,-3 3,-3 h 38.000001 c 1.662001,0 3,1.338 3,3 v 15.638672 c 0.08036,0.06044 0.164934,0.11564 0.244141,0.177735 0.286036,0.224083 0.529741,0.478919 0.755859,0.746094 V 14 c 0,-2.216 -1.784,-4 -4,-4 z m 8.000001,10 c -0.554,0 -1,0.446001 -1,1 v 18.000001 c 0,0.553999 0.446,1 1,1 0.553999,0 1,-0.446001 1,-1 V 21 c 0,-0.553999 -0.446001,-1 -1,-1 z M 16,24 c -0.553999,0 -1,0.446001 -1,1 v 14.000001 c 0,0.553999 0.446001,1 1,1 0.554,0 1,-0.446001 1,-1 V 25 c 0,-0.553999 -0.446,-1 -1,-1 z m 10.000001,6.000001 c -0.554,0 -1,0.446 -1,1 v 8 c 0,0.553999 0.446,1 1,1 0.553999,0 1,-0.446001 1,-1 v -8 c 0,-0.554 -0.446001,-1 -1,-1 z m 15.775391,1.757812 c -0.256027,2.4e-5 -0.509143,0.0495 -0.746094,0.146484 -0.895509,0.366669 -1.74039,0.858087 -2.501953,1.455079 -0.609284,0.477393 -0.883513,1.276127 -0.664063,2.029297 0.186856,0.641375 0.125141,1.35243 -0.236328,1.978515 -0.355065,0.614976 -0.923355,1.024617 -1.558594,1.189453 -0.773873,0.200818 -1.36033,0.847794 -1.46875,1.646485 -0.06405,0.472427 -0.0958,0.947076 -0.0957,1.423828 0,0.482991 0.03213,0.959216 0.0957,1.425781 0.10841,0.798675 0.694896,1.443676 1.46875,1.644531 0.635229,0.164818 1.203528,0.574459 1.558594,1.189454 0.361485,0.626079 0.423195,1.329304 0.236328,1.970703 -0.219403,0.753154 0.05484,1.559704 0.664063,2.037109 0.75592,0.592268 1.599505,1.085902 2.501953,1.455078 0.23697,0.09699 0.490044,0.148449 0.746094,0.148438 0.525202,0 1.035224,-0.212847 1.416015,-0.59961 0.460382,-0.467589 1.09869,-0.759765 1.808594,-0.759765 0.710051,0 1.342496,0.292214 1.802734,0.759765 0.380829,0.386805 0.898694,0.59961 1.423829,0.59961 0.256083,2.3e-5 0.50909,-0.05144 0.746093,-0.148438 0.895513,-0.366651 1.732612,-0.858041 2.494141,-1.455078 0.609412,-0.477401 0.891171,-1.284027 0.671875,-2.037109 -0.186856,-0.641384 -0.125062,-1.344593 0.236328,-1.970703 0.355113,-0.615021 0.923371,-1.024636 1.558594,-1.189454 0.773953,-0.200851 1.360196,-0.845992 1.46875,-1.644531 0.06405,-0.472393 0.09581,-0.949064 0.0957,-1.425781 0,-0.483385 -0.0326,-0.957845 -0.0957,-1.423828 -0.108584,-0.798536 -0.694763,-1.445682 -1.46875,-1.646485 -0.635219,-0.164817 -1.203481,-0.574447 -1.558594,-1.189453 -0.361405,-0.626132 -0.423237,-1.33721 -0.236328,-1.978515 0.219277,-0.753072 -0.06247,-1.55188 -0.671875,-2.029297 -0.761533,-0.597016 -1.598636,-1.088426 -2.494141,-1.455079 -0.236985,-0.09699 -0.490029,-0.146471 -0.746093,-0.146484 -0.525116,0 -1.037091,0.210983 -1.417969,0.597656 h -0.0059 c -0.460227,0.467532 -1.092702,0.753907 -1.802734,0.753907 -0.709892,0 -1.348227,-0.286326 -1.808594,-0.753907 -0.380795,-0.386775 -0.890806,-0.597656 -1.416015,-0.597656 z m 0,0.996094 c 0.259227,0 0.516795,0.107526 0.708984,0.302734 0.640476,0.650512 1.532664,1.056641 2.515625,1.056641 0.983071,0 1.877193,-0.406098 2.517578,-1.056641 0.192397,-0.195325 0.449927,-0.302734 0.708985,-0.302734 0.126193,6e-6 0.252347,0.02642 0.36914,0.07422 0.810143,0.331703 1.570824,0.774344 2.259766,1.314453 0.297069,0.232725 0.426812,0.614456 0.324219,0.966797 -0.260086,0.892389 -0.168245,1.893038 0.332031,2.759765 0.491609,0.85139 1.286088,1.424977 2.169922,1.654297 0.390856,0.101407 0.676912,0.418632 0.730469,0.8125 0.05717,0.422121 0.08984,0.853028 0.08984,1.291016 9.1e-5,0.431702 -0.03184,0.865178 -0.08984,1.292969 -0.05353,0.393785 -0.339579,0.709106 -0.730469,0.810547 -0.883826,0.229323 -1.678313,0.802884 -2.169922,1.654296 -0.500283,0.866743 -0.592,1.861565 -0.332031,2.753907 0.102597,0.352334 -0.02716,0.734083 -0.324219,0.966797 -0.688931,0.54012 -1.449619,0.982755 -2.259766,1.314453 -0.116771,0.04779 -0.24297,0.07228 -0.36914,0.07227 -0.259115,0 -0.516826,-0.09974 -0.708985,-0.294921 -0.640412,-0.65058 -1.534526,-1.054688 -2.517578,-1.054688 -0.98295,0 -1.875126,0.404165 -2.515625,1.054688 -0.192189,0.195205 -0.449749,0.294921 -0.708984,0.294921 -0.126145,4e-6 -0.252397,-0.02448 -0.369141,-0.07227 -0.815952,-0.333792 -1.575495,-0.778324 -2.259766,-1.314453 -0.297001,-0.232741 -0.426835,-0.614535 -0.324218,-0.966797 0.259972,-0.892326 0.168422,-1.88713 -0.332032,-2.753907 -0.491579,-0.851438 -1.286098,-1.424977 -2.169922,-1.654296 -0.390769,-0.101422 -0.678989,-0.416894 -0.732422,-0.810547 -0.05745,-0.421619 -0.08789,-0.854841 -0.08789,-1.292969 -9.3e-5,-0.43174 0.02988,-0.863191 0.08789,-1.291016 0.05345,-0.393713 0.341671,-0.711101 0.732422,-0.8125 0.883813,-0.229338 1.678343,-0.802877 2.169922,-1.654297 0.500431,-0.866775 0.592,-1.867446 0.332032,-2.759765 -0.102632,-0.352243 0.02721,-0.734079 0.324218,-0.966797 0.688988,-0.540099 1.449601,-0.982728 2.259766,-1.314453 0.116767,-0.04779 0.242974,-0.07421 0.369141,-0.07422 z m 3.224609,4.583984 c -2.360773,0 -4.287109,1.928203 -4.287109,4.289063 0,2.360736 1.926336,4.289062 4.287109,4.289062 2.360872,0 4.289063,-1.928345 4.289063,-4.289062 0,-2.360845 -1.928191,-4.289063 -4.289063,-4.289063 z m 0,0.996094 c 1.818484,0 3.292969,1.474463 3.292969,3.292969 0,1.81834 -1.474485,3.28516 -3.292969,3.285156 -1.818363,0 -3.291016,-1.466831 -3.291016,-3.285156 0,-1.818488 1.472653,-3.292969 3.291016,-3.292969 z m -25,14.666016 c -0.554,0 -1,0.446001 -1,1 0,0.553999 0.446,1 1,1 h 24 c 0.553999,0 1,-0.446001 1,-1 0,-0.553999 -0.446001,-1 -1,-1 z"
       transform="scale(0.26457812)" />
    <path
       id="path1"
       style="fill:url(#linearGradient2);fill-opacity:1;stroke:none;stroke-width:1;stroke-linecap:round;stroke-linejoin:round;paint-order:stroke fill markers"
       d="m 13,10 c -2.216,0 -3.9999997,1.784 -3.9999997,4 v 29.000001 c 0,2.216 1.7839997,4 3.9999997,4 h 18.91211 c -0.319178,-0.305183 -0.603239,-0.639434 -0.851562,-1 H 13 c -1.662,0 -3,-1.337999 -3,-3 V 14 c 0,-1.662 1.338,-3 3,-3 h 38.000001 c 1.662001,0 3,1.338 3,3 v 15.638672 c 0.08036,0.06044 0.164934,0.11564 0.244141,0.177735 0.286036,0.224083 0.529741,0.478919 0.755859,0.746094 V 14 c 0,-2.216 -1.784,-4 -4,-4 z m 8.000001,10 c -0.554,0 -1,0.446001 -1,1 v 18.000001 c 0,0.553999 0.446,1 1,1 0.553999,0 1,-0.446001 1,-1 V 21 c 0,-0.553999 -0.446001,-1 -1,-1 z M 16,24 c -0.553999,0 -1,0.446001 -1,1 v 14.000001 c 0,0.553999 0.446001,1 1,1 0.554,0 1,-0.446001 1,-1 V 25 c 0,-0.553999 -0.446,-1 -1,-1 z m 10.000001,6.000001 c -0.554,0 -1,0.446 -1,1 v 8 c 0,0.553999 0.446,1 1,1 0.553999,0 1,-0.446001 1,-1 v -8 c 0,-0.554 -0.446001,-1 -1,-1 z m 15.775391,1.757812 c -0.256027,2.4e-5 -0.509143,0.0495 -0.746094,0.146484 -0.895509,0.366669 -1.74039,0.858087 -2.501953,1.455079 -0.609284,0.477393 -0.883513,1.276127 -0.664063,2.029297 0.186856,0.641375 0.125141,1.35243 -0.236328,1.978515 -0.355065,0.614976 -0.923355,1.024617 -1.558594,1.189453 -0.773873,0.200818 -1.36033,0.847794 -1.46875,1.646485 -0.06405,0.472427 -0.0958,0.947076 -0.0957,1.423828 0,0.482991 0.03213,0.959216 0.0957,1.425781 0.10841,0.798675 0.694896,1.443676 1.46875,1.644531 0.635229,0.164818 1.203528,0.574459 1.558594,1.189454 0.361485,0.626079 0.423195,1.329304 0.236328,1.970703 -0.219403,0.753154 0.05484,1.559704 0.664063,2.037109 0.75592,0.592268 1.599505,1.085902 2.501953,1.455078 0.23697,0.09699 0.490044,0.148449 0.746094,0.148438 0.525202,0 1.035224,-0.212847 1.416015,-0.59961 0.460382,-0.467589 1.09869,-0.759765 1.808594,-0.759765 0.710051,0 1.342496,0.292214 1.802734,0.759765 0.380829,0.386805 0.898694,0.59961 1.423829,0.59961 0.256083,2.3e-5 0.50909,-0.05144 0.746093,-0.148438 0.895513,-0.366651 1.732612,-0.858041 2.494141,-1.455078 0.609412,-0.477401 0.891171,-1.284027 0.671875,-2.037109 -0.186856,-0.641384 -0.125062,-1.344593 0.236328,-1.970703 0.355113,-0.615021 0.923371,-1.024636 1.558594,-1.189454 0.773953,-0.200851 1.360196,-0.845992 1.46875,-1.644531 0.06405,-0.472393 0.09581,-0.949064 0.0957,-1.425781 0,-0.483385 -0.0326,-0.957845 -0.0957,-1.423828 -0.108584,-0.798536 -0.694763,-1.445682 -1.46875,-1.646485 -0.635219,-0.164817 -1.203481,-0.574447 -1.558594,-1.189453 -0.361405,-0.626132 -0.423237,-1.33721 -0.236328,-1.978515 0.219277,-0.753072 -0.06247,-1.55188 -0.671875,-2.029297 -0.761533,-0.597016 -1.598636,-1.088426 -2.494141,-1.455079 -0.236985,-0.09699 -0.490029,-0.146471 -0.746093,-0.146484 -0.525116,0 -1.037091,0.210983 -1.417969,0.597656 h -0.0059 c -0.460227,0.467532 -1.092702,0.753907 -1.802734,0.753907 -0.709892,0 -1.348227,-0.286326 -1.808594,-0.753907 -0.380795,-0.386775 -0.890806,-0.597656 -1.416015,-0.597656 z m 0,0.996094 c 0.259227,0 0.516795,0.107526 0.708984,0.302734 0.640476,0.650512 1.532664,1.056641 2.515625,1.056641 0.983071,0 1.877193,-0.406098 2.517578,-1.056641 0.192397,-0.195325 0.449927,-0.302734 0.708985,-0.302734 0.126193,6e-6 0.252347,0.02642 0.36914,0.07422 0.810143,0.331703 1.570824,0.774344 2.259766,1.314453 0.297069,0.232725 0.426812,0.614456 0.324219,0.966797 -0.260086,0.892389 -0.168245,1.893038 0.332031,2.759765 0.491609,0.85139 1.286088,1.424977 2.169922,1.654297 0.390856,0.101407 0.676912,0.418632 0.730469,0.8125 0.05717,0.422121 0.08984,0.853028 0.08984,1.291016 9.1e-5,0.431702 -0.03184,0.865178 -0.08984,1.292969 -0.05353,0.393785 -0.339579,0.709106 -0.730469,0.810547 -0.883826,0.229323 -1.678313,0.802884 -2.169922,1.654296 -0.500283,0.866743 -0.592,1.861565 -0.332031,2.753907 0.102597,0.352334 -0.02716,0.734083 -0.324219,0.966797 -0.688931,0.54012 -1.449619,0.982755 -2.259766,1.314453 -0.116771,0.04779 -0.24297,0.07228 -0.36914,0.07227 -0.259115,0 -0.516826,-0.09974 -0.708985,-0.294921 -0.640412,-0.65058 -1.534526,-1.054688 -2.517578,-1.054688 -0.98295,0 -1.875126,0.404165 -2.515625,1.054688 -0.192189,0.195205 -0.449749,0.294921 -0.708984,0.294921 -0.126145,4e-6 -0.252397,-0.02448 -0.369141,-0.07227 -0.815952,-0.333792 -1.575495,-0.778324 -2.259766,-1.314453 -0.297001,-0.232741 -0.426835,-0.614535 -0.324218,-0.966797 0.259972,-0.892326 0.168422,-1.88713 -0.332032,-2.753907 -0.491579,-0.851438 -1.286098,-1.424977 -2.169922,-1.654296 -0.390769,-0.101422 -0.678989,-0.416894 -0.732422,-0.810547 -0.05745,-0.421619 -0.08789,-0.854841 -0.08789,-1.292969 -9.3e-5,-0.43174 0.02988,-0.863191 0.08789,-1.291016 0.05345,-0.393713 0.341671,-0.711101 0.732422,-0.8125 0.883813,-0.229338 1.678343,-0.802877 2.169922,-1.654297 0.500431,-0.866775 0.592,-1.867446 0.332032,-2.759765 -0.102632,-0.352243 0.02721,-0.734079 0.324218,-0.966797 0.688988,-0.540099 1.449601,-0.982728 2.259766,-1.314453 0.116767,-0.04779 0.242974,-0.07421 0.369141,-0.07422 z m 3.224609,4.583984 c -2.360773,0 -4.287109,1.928203 -4.287109,4.289063 0,2.360736 1.926336,4.289062 4.287109,4.289062 2.360872,0 4.289063,-1.928345 4.289063,-4.289062 0,-2.360845 -1.928191,-4.289063 -4.289063,-4.289063 z m 0,0.996094 c 1.818484,0 3.292969,1.474463 3.292969,3.292969 0,1.81834 -1.474485,3.28516 -3.292969,3.285156 -1.818363,0 -3.291016,-1.466831 -3.291016,-3.285156 0,-1.818488 1.472653,-3.292969 3.291016,-3.292969 z m -25,14.666016 c -0.554,0 -1,0.446001 -1,1 0,0.553999 0.446,1 1,1 h 24 c 0.553999,0 1,-0.446001 1,-1 0,-0.553999 -0.446001,-1 -1,-1 z"
       transform="scale(0.26457812)" />
  </g>
</svg>
