<?xml version="1.0" encoding="UTF-8" standalone="no"?>
<svg
   width="51.755596"
   height="58.745426"
   version="1.1"
   id="svg33"
   xmlns:xlink="http://www.w3.org/1999/xlink"
   xmlns="http://www.w3.org/2000/svg"
   xmlns:svg="http://www.w3.org/2000/svg">
  <defs
     id="defs19">
    <linearGradient
       id="linearGradient33">
      <stop
         style="stop-color:#00abff;stop-opacity:0;"
         offset="0"
         id="stop34" />
      <stop
         style="stop-color:#00abff;stop-opacity:1;"
         offset="1"
         id="stop33" />
    </linearGradient>
    <linearGradient
       xlink:href="#linearGradient33"
       id="linearGradient34"
       x1="31.809557"
       y1="68.210182"
       x2="31.809557"
       y2="24.595018"
       gradientUnits="userSpaceOnUse" />
    <filter
       style="color-interpolation-filters:sRGB"
       id="filter34"
       x="-0.028928722"
       y="-0.025312384"
       width="1.0578574"
       height="1.0506248">
      <feGaussianBlur
         stdDeviation="0.58972317"
         id="feGaussianBlur34" />
    </filter>
  </defs>
  <g
     id="g34"
     transform="translate(-6.7245348,-2.9410766)">
    <path
       class="ColorScheme-Text"
       d="M 32.274537,4.3569607 A 24.462463,24.462463 0 0 0 8.1398705,28.819423 V 49.787249 H 11.634508 V 28.819423 A 20.967825,20.967825 0 0 1 32.602335,7.8515982 20.967825,20.967825 0 0 1 53.57016,28.819423 v 20.967826 h 3.494637 V 28.819423 A 24.462463,24.462463 0 0 0 32.602335,4.3569607 a 24.462463,24.462463 0 0 0 -0.327623,0 z M 15.129147,39.303336 v 20.967825 h 3.494637 c 0,0 3.494638,0 3.494638,-3.494637 V 42.797973 c 0,-3.494637 -3.494638,-3.494637 -3.494638,-3.494637 z m 31.451738,0 c 0,0 -3.494638,0 -3.494638,3.494637 v 13.978551 c 0,3.494637 3.494638,3.494637 3.494638,3.494637 h 3.494637 V 39.303336 Z"
       fill="currentColor"
       id="path1"
       style="color:#dedede;display:inline;opacity:0.6;fill:#00abff;fill-opacity:1;stroke-width:3.49464;filter:url(#filter34)" />
    <path
       class="ColorScheme-Text"
       d="M 32.274537,4.3569607 A 24.462463,24.462463 0 0 0 8.1398705,28.819423 V 49.787249 H 11.634508 V 28.819423 A 20.967825,20.967825 0 0 1 32.602335,7.8515982 20.967825,20.967825 0 0 1 53.57016,28.819423 v 20.967826 h 3.494637 V 28.819423 A 24.462463,24.462463 0 0 0 32.602335,4.3569607 a 24.462463,24.462463 0 0 0 -0.327623,0 z M 15.129147,39.303336 v 20.967825 h 3.494637 c 0,0 3.494638,0 3.494638,-3.494637 V 42.797973 c 0,-3.494637 -3.494638,-3.494637 -3.494638,-3.494637 z m 31.451738,0 c 0,0 -3.494638,0 -3.494638,3.494637 v 13.978551 c 0,3.494637 3.494638,3.494637 3.494638,3.494637 h 3.494637 V 39.303336 Z"
       fill="currentColor"
       id="path33"
       style="color:#dedede;fill:url(#linearGradient34);fill-opacity:1;stroke-width:3.49464" />
  </g>
</svg>
