<?xml version="1.0" encoding="UTF-8" standalone="no"?>
<svg
   width="60.680283"
   height="31.522076"
   version="1.1"
   viewBox="0 0 60.680283 31.522076"
   id="svg42"
   xmlns:xlink="http://www.w3.org/1999/xlink"
   xmlns="http://www.w3.org/2000/svg"
   xmlns:svg="http://www.w3.org/2000/svg">
  <defs
     id="defs34">
    <linearGradient
       id="linearGradient42">
      <stop
         style="stop-color:#00abff;stop-opacity:0;"
         offset="0"
         id="stop43" />
      <stop
         style="stop-color:#00abff;stop-opacity:1;"
         offset="1"
         id="stop42" />
    </linearGradient>
    <linearGradient
       xlink:href="#linearGradient42"
       id="linearGradient43"
       x1="7.0457258"
       y1="14.982107"
       x2="7.0457258"
       y2="7.0934396"
       gradientUnits="userSpaceOnUse" />
    <filter
       style="color-interpolation-filters:sRGB"
       id="filter43"
       x="-0.020250226"
       y="-0.040499097"
       width="1.0405005"
       height="1.0809982">
      <feGaussianBlur
         stdDeviation="0.13500039"
         id="feGaussianBlur43" />
    </filter>
  </defs>
  <g
     style="color:#dedede;fill:currentColor"
     class="ColorScheme-Text"
     id="g2"
     transform="matrix(3.6449275,0,0,3.6449275,1.1809882,-13.398835)">
    <path
       id="path1"
       d="m 1.9997748,4.0000233 c -1.108,0 -1.9997825710736,0.8917825 -1.9997825710736,1.9997825 v 4.000101 c 0,1.1080002 0.8917825710736,2.0003182 1.9997825710736,2.0003182 h 9.9999842 c 1.108,0 2.000319,-0.892318 2.000319,-2.0003182 v -4.000101 c 0,-1.108 -0.892319,-1.9997825 -2.000319,-1.9997825 z m 0,0.9998912 h 9.9999842 c 0.554,0 1.000428,0.4458913 1.000428,0.9998913 v 4.000101 c 0,0.5540002 -0.446428,0.9998912 -1.000428,0.9998912 H 1.9997748 c -0.554,0 -0.99989128,-0.445891 -0.99989128,-0.9998912 v -4.000101 c 0,-0.554 0.44589128,-0.9998913 0.99989128,-0.9998913 z m 0,0.9998913 v 4.000101 H 11.999759 V 5.9998058 Z M 14.999969,6.5881663 V 9.4120822 A 1.5,1.5 0 0 0 15.99986,8.0001243 1.5,1.5 0 0 0 14.999969,6.5881663 Z"
       style="display:inline;opacity:0.6;fill:#00abff;fill-opacity:1;filter:url(#filter43)" />
    <path
       id="path42"
       d="m 1.9997748,4.0000233 c -1.108,0 -1.9997825710736,0.8917825 -1.9997825710736,1.9997825 v 4.000101 c 0,1.1080002 0.8917825710736,2.0003182 1.9997825710736,2.0003182 h 9.9999842 c 1.108,0 2.000319,-0.892318 2.000319,-2.0003182 v -4.000101 c 0,-1.108 -0.892319,-1.9997825 -2.000319,-1.9997825 z m 0,0.9998912 h 9.9999842 c 0.554,0 1.000428,0.4458913 1.000428,0.9998913 v 4.000101 c 0,0.5540002 -0.446428,0.9998912 -1.000428,0.9998912 H 1.9997748 c -0.554,0 -0.99989128,-0.445891 -0.99989128,-0.9998912 v -4.000101 c 0,-0.554 0.44589128,-0.9998913 0.99989128,-0.9998913 z m 0,0.9998913 v 4.000101 H 11.999759 V 5.9998058 Z M 14.999969,6.5881663 V 9.4120822 A 1.5,1.5 0 0 0 15.99986,8.0001243 1.5,1.5 0 0 0 14.999969,6.5881663 Z"
       style="fill:url(#linearGradient43);fill-opacity:1" />
  </g>
</svg>
