<?xml version="1.0" encoding="UTF-8" standalone="no"?>
<svg
   width="54.980919"
   height="36.558327"
   version="1.1"
   viewBox="0 0 54.980919 36.558327"
   id="svg24"
   xmlns:xlink="http://www.w3.org/1999/xlink"
   xmlns="http://www.w3.org/2000/svg"
   xmlns:svg="http://www.w3.org/2000/svg">
  <defs
     id="defs18">
    <linearGradient
       id="linearGradient28">
      <stop
         style="stop-color:#00abff;stop-opacity:0;"
         offset="0"
         id="stop29" />
      <stop
         style="stop-color:#00abff;stop-opacity:1;"
         offset="1"
         id="stop28" />
    </linearGradient>
    <filter
       style="color-interpolation-filters:sRGB"
       id="filter4"
       x="-0.022275"
       y="-0.034269231"
       width="1.04455"
       height="1.0685385">
      <feGaussianBlur
         stdDeviation="0.185625"
         id="feGaussianBlur4" />
    </filter>
    <linearGradient
       xlink:href="#linearGradient28"
       id="linearGradient4"
       x1="7.869565"
       y1="17.26087"
       x2="7.869565"
       y2="5.9565215"
       gradientUnits="userSpaceOnUse" />
  </defs>
  <g
     transform="matrix(2.6317994,0,0,2.6317994,6.4360655,-1.4593327)"
     fill="#dedede"
     id="g2"
     style="fill:#00abff;fill-opacity:1">
    <path
       id="path1"
       style="display:inline;opacity:0.6;fill:#00abff;fill-opacity:1;filter:url(#filter4)"
       d="m 1,1 c -1.108,0 -2,0.892 -2,2 v 8 c 0,1.108 0.892,2 2,2 h -2.5 c -0.277,0 -0.5,0.223 -0.5,0.5 0,0.277 0.223,0.5 0.5,0.5 h 19 C 17.777,14 18,13.777 18,13.5 18,13.223 17.777,13 17.5,13 H 15 c 1.108,0 2,-0.892 2,-2 V 3 C 17,1.892 16.108,1 15,1 Z m 0,1 h 14 c 0.554,0 1,0.446 1,1 v 8 c 0,0.554 -0.446,1 -1,1 H 1 C 0.446,12 0,11.554 0,11 V 3 C 0,2.446 0.446,2 1,2 Z M 5.0253906,13 H 10.974609 C 10.918909,13.21543 10.73332,13.376953 10.5,13.376953 h -5 C 5.26668,13.376953 5.0810906,13.21543 5.0253906,13 Z" />
    <path
       id="path2"
       style="fill:url(#linearGradient4);fill-opacity:1"
       d="m 1,1 c -1.108,0 -2,0.892 -2,2 v 8 c 0,1.108 0.892,2 2,2 h -2.5 c -0.277,0 -0.5,0.223 -0.5,0.5 0,0.277 0.223,0.5 0.5,0.5 h 19 C 17.777,14 18,13.777 18,13.5 18,13.223 17.777,13 17.5,13 H 15 c 1.108,0 2,-0.892 2,-2 V 3 C 17,1.892 16.108,1 15,1 Z m 0,1 h 14 c 0.554,0 1,0.446 1,1 v 8 c 0,0.554 -0.446,1 -1,1 H 1 C 0.446,12 0,11.554 0,11 V 3 C 0,2.446 0.446,2 1,2 Z M 5.0253906,13 H 10.974609 C 10.918909,13.21543 10.73332,13.376953 10.5,13.376953 h -5 C 5.26668,13.376953 5.0810906,13.21543 5.0253906,13 Z" />
  </g>
</svg>
