<?xml version="1.0" encoding="UTF-8" standalone="no"?>
<svg
   width="58.468628"
   height="49.183472"
   version="1.1"
   viewBox="0 0 58.468628 49.183472"
   id="svg24"
   xmlns:xlink="http://www.w3.org/1999/xlink"
   xmlns="http://www.w3.org/2000/svg"
   xmlns:svg="http://www.w3.org/2000/svg">
  <defs
     id="defs18">
    <linearGradient
       id="linearGradient27">
      <stop
         style="stop-color:#00abff;stop-opacity:0;"
         offset="0"
         id="stop28" />
      <stop
         style="stop-color:#00abff;stop-opacity:1;"
         offset="1"
         id="stop27" />
    </linearGradient>
    <linearGradient
       xlink:href="#linearGradient27"
       id="linearGradient28"
       x1="8.3262777"
       y1="19.301109"
       x2="8.3262777"
       y2="6.0042043"
       gradientUnits="userSpaceOnUse" />
    <filter
       style="color-interpolation-filters:sRGB"
       id="filter28"
       x="-0.024749999"
       y="-0.029699999"
       width="1.0495"
       height="1.0594">
      <feGaussianBlur
         stdDeviation="0.18562025"
         id="feGaussianBlur28" />
    </filter>
  </defs>
  <g
     class="ColorScheme-Text"
     transform="matrix(3.0951312,0,0,3.0951312,4.473453,-1.7168789)"
     fill="currentColor"
     id="g3"
     style="color:#dedede">
    <path
       id="path1"
       d="M 6.9997544,1.0001917 V 1.9997455 H 13.000232 V 1.0001917 Z M 0.99990779,2.9999302 c -1.108,0 -1.99973853,0.8923696 -1.99973853,2.0003696 V 14.00007 c 0,1.108 0.89173853,1.999738 1.99973853,1.999738 H 14.999971 c 1.108,0 1.999738,-0.891738 1.999738,-1.999738 V 5.0002998 c 0,-1.108 -0.891738,-2.0003696 -1.999738,-2.0003696 z m 0,1.0001848 H 14.999971 c 0.554,0 1.000184,0.4461848 1.000184,1.0001848 V 14.00007 c 0,0.554 -0.446184,1.000185 -1.000184,1.000185 H 0.99990779 c -0.554,0 -1.00018478149,-0.446185 -1.00018478149,-1.000185 V 5.0002998 c 0,-0.554 0.44618478149,-1.0001848 1.00018478149,-1.0001848 z M 2.0000926,5.9998536 V 7.0000383 H 3.9998311 V 5.9998536 Z m 8.4999934,0 a 3.5,3.5 0 0 0 -3.5003316,3.5003312 3.5,3.5 0 0 0 3.5003316,3.4997002 3.5,3.5 0 0 0 3.4997,-3.4997002 3.5,3.5 0 0 0 -3.4997,-3.5003312 z m 0,1.0001847 A 2.5,2.5 0 0 1 13.000232,9.5001848 2.5,2.5 0 0 1 10.500086,11.9997 2.5,2.5 0 0 1 7.9999392,9.5001848 2.5,2.5 0 0 1 10.500086,7.0000383 Z"
       style="display:inline;opacity:0.6;fill:#00abff;fill-opacity:1;filter:url(#filter28)" />
    <path
       id="path27"
       d="M 6.9997544,1.0001917 V 1.9997455 H 13.000232 V 1.0001917 Z M 0.99990779,2.9999302 c -1.108,0 -1.99973853,0.8923696 -1.99973853,2.0003696 V 14.00007 c 0,1.108 0.89173853,1.999738 1.99973853,1.999738 H 14.999971 c 1.108,0 1.999738,-0.891738 1.999738,-1.999738 V 5.0002998 c 0,-1.108 -0.891738,-2.0003696 -1.999738,-2.0003696 z m 0,1.0001848 H 14.999971 c 0.554,0 1.000184,0.4461848 1.000184,1.0001848 V 14.00007 c 0,0.554 -0.446184,1.000185 -1.000184,1.000185 H 0.99990779 c -0.554,0 -1.00018478149,-0.446185 -1.00018478149,-1.000185 V 5.0002998 c 0,-0.554 0.44618478149,-1.0001848 1.00018478149,-1.0001848 z M 2.0000926,5.9998536 V 7.0000383 H 3.9998311 V 5.9998536 Z m 8.4999934,0 a 3.5,3.5 0 0 0 -3.5003316,3.5003312 3.5,3.5 0 0 0 3.5003316,3.4997002 3.5,3.5 0 0 0 3.4997,-3.4997002 3.5,3.5 0 0 0 -3.4997,-3.5003312 z m 0,1.0001847 A 2.5,2.5 0 0 1 13.000232,9.5001848 2.5,2.5 0 0 1 10.500086,11.9997 2.5,2.5 0 0 1 7.9999392,9.5001848 2.5,2.5 0 0 1 10.500086,7.0000383 Z"
       style="fill:url(#linearGradient28);fill-opacity:1" />
  </g>
</svg>
