<?xml version="1.0" encoding="UTF-8" standalone="no"?>
<svg
   width="60.714844"
   height="46.220966"
   version="1.1"
   viewBox="0 0 16.06382 12.229057"
   id="svg30"
   xmlns:xlink="http://www.w3.org/1999/xlink"
   xmlns="http://www.w3.org/2000/svg"
   xmlns:svg="http://www.w3.org/2000/svg">
  <defs
     id="defs10">
    <linearGradient
       id="linearGradient32">
      <stop
         style="stop-color:#00abff;stop-opacity:0;"
         offset="0"
         id="stop33" />
      <stop
         style="stop-color:#00abff;stop-opacity:1;"
         offset="1"
         id="stop32" />
    </linearGradient>
    <linearGradient
       xlink:href="#linearGradient32"
       id="linearGradient33"
       x1="8.4161129"
       y1="17.699867"
       x2="8.4161129"
       y2="7.2014165"
       gradientUnits="userSpaceOnUse" />
    <filter
       style="color-interpolation-filters:sRGB"
       id="filter33"
       x="-0.023625"
       y="-0.0315"
       width="1.04725"
       height="1.063">
      <feGaussianBlur
         stdDeviation="0.15099376"
         id="feGaussianBlur33" />
    </filter>
  </defs>
  <g
     id="g33"
     transform="translate(-0.34092894,-2.6866921)">
    <path
       d="m 3.5793844,3.0490771 c -1.5933407,0 -2.87607043,1.2827283 -2.87607043,2.8760719 v 5.752143 c 0,1.593345 1.28272973,2.876072 2.87607043,2.876072 h 5.7521443 c 1.5933443,0 2.8760713,-1.282727 2.8760713,-2.876072 v -0.76583 l 2.344285,1.563528 a 0.95878644,0.95878644 0 0 0 1.490478,-0.797659 V 5.9251874 A 0.95878644,0.95878644 0 0 0 15.0575,4.9664969 0.95878644,0.95878644 0 0 0 14.551943,5.1275278 L 12.207657,6.6910564 V 5.9252258 c 0,-1.593344 -1.282726,-2.8760719 -2.8760703,-2.8760719 H 3.5794424 Z m 0,0.9586909 h 5.7521443 c 1.0622313,0 1.9173803,0.8551517 1.9173803,1.917381 V 7.84253 9.7599113 11.677292 c 0,1.06223 -0.855149,1.917382 -1.9173803,1.917382 H 3.5793844 c -1.0622271,0 -1.9173803,-0.855152 -1.9173803,-1.917382 V 5.925149 c 0,-1.0622293 0.8551532,-1.917381 1.9173803,-1.917381 z M 15.083672,5.925149 v 5.752143 L 12.2076,9.7599113 V 7.84253 Z"
       style="color:#dedede;display:inline;opacity:0.6;fill:#00abff;fill-opacity:1;stroke-width:0.95869;filter:url(#filter33)"
       class="ColorScheme-Text"
       id="path1" />
    <path
       d="m 3.5793844,3.0490771 c -1.5933407,0 -2.87607043,1.2827283 -2.87607043,2.8760719 v 5.752143 c 0,1.593345 1.28272973,2.876072 2.87607043,2.876072 h 5.7521443 c 1.5933443,0 2.8760713,-1.282727 2.8760713,-2.876072 v -0.76583 l 2.344285,1.563528 a 0.95878644,0.95878644 0 0 0 1.490478,-0.797659 V 5.9251874 A 0.95878644,0.95878644 0 0 0 15.0575,4.9664969 0.95878644,0.95878644 0 0 0 14.551943,5.1275278 L 12.207657,6.6910564 V 5.9252258 c 0,-1.593344 -1.282726,-2.8760719 -2.8760703,-2.8760719 H 3.5794424 Z m 0,0.9586909 h 5.7521443 c 1.0622313,0 1.9173803,0.8551517 1.9173803,1.917381 V 7.84253 9.7599113 11.677292 c 0,1.06223 -0.855149,1.917382 -1.9173803,1.917382 H 3.5793844 c -1.0622271,0 -1.9173803,-0.855152 -1.9173803,-1.917382 V 5.925149 c 0,-1.0622293 0.8551532,-1.917381 1.9173803,-1.917381 z M 15.083672,5.925149 v 5.752143 L 12.2076,9.7599113 V 7.84253 Z"
       style="color:#dedede;fill:url(#linearGradient33);fill-opacity:1;stroke-width:0.95869"
       class="ColorScheme-Text"
       id="path32" />
  </g>
</svg>
