<?xml version="1.0" encoding="UTF-8" standalone="no"?>
<svg
   width="61.010487"
   height="61.008541"
   version="1.1"
   viewBox="0 0 16.14204 16.141525"
   id="svg7"
   xmlns:xlink="http://www.w3.org/1999/xlink"
   xmlns="http://www.w3.org/2000/svg"
   xmlns:svg="http://www.w3.org/2000/svg"
   xmlns:rdf="http://www.w3.org/1999/02/22-rdf-syntax-ns#"
   xmlns:cc="http://creativecommons.org/ns#"
   xmlns:dc="http://purl.org/dc/elements/1.1/">
  <metadata
     id="metadata1">
    <rdf:RDF>
      <cc:Work
         rdf:about="">
        <dc:format>image/svg+xml</dc:format>
        <dc:type
           rdf:resource="http://purl.org/dc/dcmitype/StillImage" />
        <dc:title />
      </cc:Work>
    </rdf:RDF>
  </metadata>
  <defs
     id="defs2">
    <linearGradient
       id="linearGradient11">
      <stop
         style="stop-color:#00abff;stop-opacity:0;"
         offset="0"
         id="stop12" />
      <stop
         style="stop-color:#00abff;stop-opacity:1;"
         offset="1"
         id="stop11" />
    </linearGradient>
    <linearGradient
       xlink:href="#linearGradient11"
       id="linearGradient12"
       x1="8.5278511"
       y1="17.14773"
       x2="8.5278511"
       y2="6.472578"
       gradientUnits="userSpaceOnUse" />
    <filter
       style="color-interpolation-filters:sRGB"
       id="filter12"
       x="-0.026999545"
       y="-0.027000453"
       width="1.0539991"
       height="1.0540009">
      <feGaussianBlur
         stdDeviation="0.17229133"
         id="feGaussianBlur12" />
    </filter>
  </defs>
  <g
     id="g7"
     transform="translate(-0.38385248,-0.52234147)">
    <path
       id="path81"
       style="display:inline;opacity:0.6;fill:#00abff;fill-opacity:1;stroke-width:0.492543;filter:url(#filter12)"
       d="M 8.4468633,0.93584177 A 7.6574278,7.6574278 0 0 0 0.79735165,8.5931048 7.6574278,7.6574278 0 0 0 8.4551314,16.250368 7.6574278,7.6574278 0 0 0 16.112394,8.5931048 7.6574278,7.6574278 0 0 0 8.4551314,0.93584177 a 7.6574278,7.6574278 0 0 0 -0.00827,0 z m 0.00827,0.85057733 A 6.8066027,6.8066027 0 0 1 15.261817,8.5931048 6.8066027,6.8066027 0 0 1 8.4551314,15.39979 6.8066027,6.8066027 0 0 1 1.6484457,8.5931048 6.8066027,6.8066027 0 0 1 8.4551314,1.7864191 Z m 0,4.2539202 c -1.4293865,0 -2.5522487,1.1233792 -2.5522487,2.5527655 0,1.4293872 1.1228622,2.5522492 2.5522487,2.5522492 1.4293863,0 2.5527657,-1.122862 2.5527657,-2.5522492 0,-1.4293863 -1.1233794,-2.5527655 -2.5527657,-2.5527655 z m 0.00517,0.8562616 A 1.7033522,1.7033522 0 0 1 10.158357,8.594655 1.7033522,1.7033522 0 0 1 8.4603033,10.293226 c -0.9342059,0 -1.7135568,-0.7635057 -1.7135568,-1.698571 0,-0.9342064 0.7793254,-1.6980541 1.7135568,-1.6980541 z M 7.5875012,11.641437 c -0.2991376,0 -0.5362258,0.08092 -0.7110537,0.242358 -0.1748279,0.160678 -0.2619944,0.379233 -0.2619944,0.655761 0,0.275774 0.087166,0.494324 0.2619944,0.655761 0.174835,0.160665 0.4119227,0.240808 0.7110537,0.240808 0.1002436,0 0.1966384,-0.01095 0.2888656,-0.03256 0.092227,-0.02166 0.1806049,-0.05363 0.2656116,-0.09612 v -0.358111 c -0.08581,0.05638 -0.1703221,0.09776 -0.2537263,0.124021 -0.083404,0.02625 -0.171318,0.03979 -0.2635446,0.03979 -0.1652026,0 -0.295,-0.051 -0.3896326,-0.152959 -0.094633,-0.101958 -0.1415907,-0.242204 -0.1415907,-0.420638 0,-0.179202 0.04696,-0.319709 0.1415907,-0.421671 0.094629,-0.101961 0.224427,-0.152959 0.3896326,-0.152959 0.092227,0 0.1801403,0.01297 0.2635446,0.03927 0.083404,0.02625 0.1679166,0.06763 0.2537263,0.124021 v -0.358111 c -0.085007,-0.04249 -0.1733845,-0.07449 -0.2656116,-0.09612 -0.092224,-0.02161 -0.1886185,-0.03256 -0.2888656,-0.03256 z m 0.9399758,0.02894 -5.168e-4,1.729576 h 0.4888495 c 0.2694776,0 0.4714236,-0.01871 0.6061526,-0.05581 0.134732,-0.03785 0.2499903,-0.101077 0.3462253,-0.190682 0.084207,-0.07801 0.1466814,-0.1683 0.1875814,-0.270262 0.0409,-0.10273 0.06149,-0.219304 0.06149,-0.349843 0,-0.128998 -0.0206,-0.244263 -0.06149,-0.346225 -0.0409,-0.101958 -0.103374,-0.192244 -0.1875814,-0.270263 -0.095432,-0.0896 -0.2097125,-0.153089 -0.3436415,-0.190165 -0.1331095,-0.03785 -0.3360669,-0.05633 -0.6087364,-0.05633 z M 8.9904887,12.0073 h 0.1658781 c 0.1900652,0 0.33463,0.04476 0.4340735,0.134357 0.099444,0.0896 0.1493419,0.220216 0.1493419,0.391699 0,0.172251 -0.050127,0.303392 -0.1503754,0.393767 -0.099444,0.09037 -0.2437778,0.135906 -0.43304,0.135906 H 8.9904887 Z m -1.0386758,1.784353 v 0.990617 h 0.2650948 v -0.374647 l 0.074929,-5.16e-4 c 0.043166,0 0.077635,0.0092 0.1033508,0.02739 0.026173,0.01813 0.051739,0.05226 0.076996,0.1018 l 0.1255713,0.245975 H 8.8799033 L 8.7362457,14.501155 c -0.02939,-0.05705 -0.058402,-0.09976 -0.087331,-0.127638 -0.028471,-0.02833 -0.060871,-0.04631 -0.09715,-0.05426 0.066126,-0.01992 0.1151867,-0.05101 0.1477917,-0.09302 0.033063,-0.04201 0.049608,-0.09577 0.049608,-0.161228 0,-0.09465 -0.031708,-0.163949 -0.095083,-0.207735 -0.062914,-0.04379 -0.1621826,-0.06563 -0.2976504,-0.06563 z m 0.2650948,0.184998 h 0.1116189 c 0.055564,0 0.094974,0.01002 0.1188535,0.02945 0.024336,0.01948 0.036689,0.05152 0.036689,0.09663 0,0.04553 -0.012348,0.07826 -0.036689,0.09818 -0.023879,0.01992 -0.06329,0.02997 -0.1188535,0.02997 H 8.2169077 Z" />
    <path
       id="path11"
       style="fill:url(#linearGradient12);fill-opacity:1;stroke-width:0.492543"
       d="M 8.4468633,0.93584177 A 7.6574278,7.6574278 0 0 0 0.79735165,8.5931048 7.6574278,7.6574278 0 0 0 8.4551314,16.250368 7.6574278,7.6574278 0 0 0 16.112394,8.5931048 7.6574278,7.6574278 0 0 0 8.4551314,0.93584177 a 7.6574278,7.6574278 0 0 0 -0.00827,0 z m 0.00827,0.85057733 A 6.8066027,6.8066027 0 0 1 15.261817,8.5931048 6.8066027,6.8066027 0 0 1 8.4551314,15.39979 6.8066027,6.8066027 0 0 1 1.6484457,8.5931048 6.8066027,6.8066027 0 0 1 8.4551314,1.7864191 Z m 0,4.2539202 c -1.4293865,0 -2.5522487,1.1233792 -2.5522487,2.5527655 0,1.4293872 1.1228622,2.5522492 2.5522487,2.5522492 1.4293863,0 2.5527657,-1.122862 2.5527657,-2.5522492 0,-1.4293863 -1.1233794,-2.5527655 -2.5527657,-2.5527655 z m 0.00517,0.8562616 A 1.7033522,1.7033522 0 0 1 10.158357,8.594655 1.7033522,1.7033522 0 0 1 8.4603033,10.293226 c -0.9342059,0 -1.7135568,-0.7635057 -1.7135568,-1.698571 0,-0.9342064 0.7793254,-1.6980541 1.7135568,-1.6980541 z M 7.5875012,11.641437 c -0.2991376,0 -0.5362258,0.08092 -0.7110537,0.242358 -0.1748279,0.160678 -0.2619944,0.379233 -0.2619944,0.655761 0,0.275774 0.087166,0.494324 0.2619944,0.655761 0.174835,0.160665 0.4119227,0.240808 0.7110537,0.240808 0.1002436,0 0.1966384,-0.01095 0.2888656,-0.03256 0.092227,-0.02166 0.1806049,-0.05363 0.2656116,-0.09612 v -0.358111 c -0.08581,0.05638 -0.1703221,0.09776 -0.2537263,0.124021 -0.083404,0.02625 -0.171318,0.03979 -0.2635446,0.03979 -0.1652026,0 -0.295,-0.051 -0.3896326,-0.152959 -0.094633,-0.101958 -0.1415907,-0.242204 -0.1415907,-0.420638 0,-0.179202 0.04696,-0.319709 0.1415907,-0.421671 0.094629,-0.101961 0.224427,-0.152959 0.3896326,-0.152959 0.092227,0 0.1801403,0.01297 0.2635446,0.03927 0.083404,0.02625 0.1679166,0.06763 0.2537263,0.124021 v -0.358111 c -0.085007,-0.04249 -0.1733845,-0.07449 -0.2656116,-0.09612 -0.092224,-0.02161 -0.1886185,-0.03256 -0.2888656,-0.03256 z m 0.9399758,0.02894 -5.168e-4,1.729576 h 0.4888495 c 0.2694776,0 0.4714236,-0.01871 0.6061526,-0.05581 0.134732,-0.03785 0.2499903,-0.101077 0.3462253,-0.190682 0.084207,-0.07801 0.1466814,-0.1683 0.1875814,-0.270262 0.0409,-0.10273 0.06149,-0.219304 0.06149,-0.349843 0,-0.128998 -0.0206,-0.244263 -0.06149,-0.346225 -0.0409,-0.101958 -0.103374,-0.192244 -0.1875814,-0.270263 -0.095432,-0.0896 -0.2097125,-0.153089 -0.3436415,-0.190165 -0.1331095,-0.03785 -0.3360669,-0.05633 -0.6087364,-0.05633 z M 8.9904887,12.0073 h 0.1658781 c 0.1900652,0 0.33463,0.04476 0.4340735,0.134357 0.099444,0.0896 0.1493419,0.220216 0.1493419,0.391699 0,0.172251 -0.050127,0.303392 -0.1503754,0.393767 -0.099444,0.09037 -0.2437778,0.135906 -0.43304,0.135906 H 8.9904887 Z m -1.0386758,1.784353 v 0.990617 h 0.2650948 v -0.374647 l 0.074929,-5.16e-4 c 0.043166,0 0.077635,0.0092 0.1033508,0.02739 0.026173,0.01813 0.051739,0.05226 0.076996,0.1018 l 0.1255713,0.245975 H 8.8799033 L 8.7362457,14.501155 c -0.02939,-0.05705 -0.058402,-0.09976 -0.087331,-0.127638 -0.028471,-0.02833 -0.060871,-0.04631 -0.09715,-0.05426 0.066126,-0.01992 0.1151867,-0.05101 0.1477917,-0.09302 0.033063,-0.04201 0.049608,-0.09577 0.049608,-0.161228 0,-0.09465 -0.031708,-0.163949 -0.095083,-0.207735 -0.062914,-0.04379 -0.1621826,-0.06563 -0.2976504,-0.06563 z m 0.2650948,0.184998 h 0.1116189 c 0.055564,0 0.094974,0.01002 0.1188535,0.02945 0.024336,0.01948 0.036689,0.05152 0.036689,0.09663 0,0.04553 -0.012348,0.07826 -0.036689,0.09818 -0.023879,0.01992 -0.06329,0.02997 -0.1188535,0.02997 H 8.2169077 Z" />
  </g>
</svg>
