<?xml version="1.0" encoding="UTF-8" standalone="no"?>
<svg
   width="59.243027"
   height="52.993282"
   version="1.1"
   viewBox="0 0 15.674409 14.020863"
   id="svg30"
   xmlns:xlink="http://www.w3.org/1999/xlink"
   xmlns="http://www.w3.org/2000/svg"
   xmlns:svg="http://www.w3.org/2000/svg">
  <defs
     id="defs10">
    <linearGradient
       id="linearGradient34">
      <stop
         style="stop-color:#00abff;stop-opacity:0;"
         offset="0"
         id="stop35" />
      <stop
         style="stop-color:#00abff;stop-opacity:1;"
         offset="1"
         id="stop34" />
    </linearGradient>
    <linearGradient
       xlink:href="#linearGradient34"
       id="linearGradient35"
       x1="8.676405"
       y1="17.656485"
       x2="8.676405"
       y2="6.2903938"
       gradientUnits="userSpaceOnUse" />
    <filter
       style="color-interpolation-filters:sRGB"
       id="filter35"
       x="-0.0255032"
       y="-0.028683453"
       width="1.0510064"
       height="1.0573669">
      <feGaussianBlur
         stdDeviation="0.15847809"
         id="feGaussianBlur35" />
    </filter>
  </defs>
  <g
     id="g35"
     transform="translate(-0.60139468,-1.4909277)">
    <path
       class="ColorScheme-Text"
       d="m 5.9530787,1.8748402 c -1.2423911,0 -2.1065546,0.8588608 -2.4289402,1.6845801 L 1.1469849,8.9319817 c -0.00267,0.00625 -0.00376,0.013156 -0.00657,0.019412 l -0.048539,0.1246036 h 0.00971 c -0.072119,0.2110657 -0.11975,0.4338368 -0.11975,0.6699455 0,0.5567492 0.2194895,1.0590362 0.5744744,1.4305482 l -0.4094142,1.069644 c -0.00268,0.0062 -0.00376,0.01316 -0.00657,0.01941 l -0.048544,0.124611 h 0.00971 c -0.072119,0.211066 -0.11975,0.43384 -0.11975,0.669949 0,1.14752 0.9238193,2.071339 2.07134,2.071339 H 13.824046 c 1.147524,0 2.07134,-0.923819 2.07134,-2.071339 0,-0.236118 -0.04763,-0.458877 -0.11975,-0.669949 h 0.0097 l -0.04854,-0.124604 -0.0032,-0.01284 c -9.12e-4,-0.0023 -0.0024,-0.0041 -0.0032,-0.0066 l -0.409411,-1.06964 c 0.354969,-0.371475 0.574471,-0.873774 0.574471,-1.4305532 0,-0.2361173 -0.04763,-0.458873 -0.119749,-0.6699448 h 0.0097 l -0.04854,-0.1246036 -0.0032,-0.012839 c -9.12e-4,-0.00225 -0.0024,-0.0041 -0.0032,-0.00655 L 13.353407,3.5594369 C 13.030975,2.7337258 12.164873,1.8063368 10.924471,1.8748569 H 5.9532507 Z m 0,0.8285364 h 4.9712153 c 0.918021,0 1.415557,0.5384491 1.657076,1.1570512 l 1.778454,3.901577 C 14.177881,7.7100528 14.023271,7.6746039 13.824189,7.6746039 H 3.0532147 c -0.1990718,0 -0.3553012,0.032192 -0.537256,0.084144 L 4.2959873,3.8604005 C 4.5375229,3.241832 5.0350429,2.7033496 5.9530592,2.7033496 Z M 3.0531991,8.50313 H 13.824174 c 0.688512,0 1.242804,0.5542918 1.242804,1.2428068 0,0.6885132 -0.554292,1.2428042 -1.242804,1.2428042 H 3.0531991 c -0.6885125,0 -1.2428041,-0.554291 -1.2428041,-1.2428042 0,-0.688515 0.5542916,-1.2428068 1.2428041,-1.2428068 z m 5.7900594,0.8285367 c -0.225001,0.00532 -0.4046219,0.189207 -0.4045564,0.4142701 0,0.22879 0.1854803,0.4142692 0.4142674,0.4142692 0.2287901,0 0.4142683,-0.1854822 0.4142683,-0.4142692 0,-0.2287898 -0.1854813,-0.4142701 -0.4142683,-0.4142701 -0.00317,-3.79e-5 -0.00655,-3.79e-5 -0.00973,0 z m 1.6570765,0 c -0.225001,0.00532 -0.404626,0.189207 -0.404558,0.4142701 0,0.22879 0.185481,0.4142692 0.414269,0.4142692 0.22879,0 0.414268,-0.1854822 0.414268,-0.4142692 0,-0.2287898 -0.185481,-0.4142701 -0.414268,-0.4142701 -0.0032,-3.79e-5 -0.0066,-3.79e-5 -0.0097,0 z m 1.657072,0 c -0.225001,0.00532 -0.404623,0.189207 -0.404557,0.4142701 0,0.22879 0.185481,0.4142692 0.414268,0.4142692 0.22879,0 0.414267,-0.1854822 0.414267,-0.4142692 0,-0.2287898 -0.18548,-0.4142701 -0.414267,-0.4142701 -0.0032,-3.79e-5 -0.0066,-3.79e-5 -0.0097,0 z M 3.0534496,11.817278 H 13.824422 c 0.688515,0 1.242804,0.554291 1.242804,1.242803 0,0.688513 -0.554289,1.242804 -1.242804,1.242804 H 3.0534496 c -0.6885156,0 -1.2428072,-0.554291 -1.2428072,-1.242804 0,-0.688512 0.5542916,-1.242803 1.2428072,-1.242803 z m 5.7900597,0.828536 c -0.2250009,0.0053 -0.4046259,0.189207 -0.4045574,0.414267 0,0.228791 0.1854813,0.414268 0.4142684,0.414268 0.2287901,0 0.4142684,-0.185481 0.4142684,-0.414268 0,-0.22879 -0.1854813,-0.414267 -0.4142684,-0.414267 -0.00317,-3.8e-5 -0.00655,-3.8e-5 -0.00973,0 z m 1.6570727,0 c -0.225001,0.0053 -0.404623,0.189207 -0.404557,0.414267 0,0.228791 0.185481,0.414268 0.414268,0.414268 0.22879,0 0.414268,-0.185481 0.414268,-0.414268 0,-0.22879 -0.185481,-0.414267 -0.414268,-0.414267 -0.0032,-3.8e-5 -0.0066,-3.8e-5 -0.0097,0 z m 1.657072,0 c -0.225001,0.0053 -0.404623,0.189207 -0.404557,0.414267 0,0.228791 0.185481,0.414268 0.414268,0.414268 0.22879,0 0.414268,-0.185481 0.414268,-0.414268 0,-0.22879 -0.185481,-0.414267 -0.414268,-0.414267 -0.0032,-3.8e-5 -0.0066,-3.8e-5 -0.0097,0 z"
       fill="currentColor"
       id="path1"
       style="color:#dedede;display:inline;opacity:0.6;fill:#00abff;fill-opacity:1;stroke-width:0.828536;filter:url(#filter35)" />
    <path
       class="ColorScheme-Text"
       d="m 5.9530787,1.8748402 c -1.2423911,0 -2.1065546,0.8588608 -2.4289402,1.6845801 L 1.1469849,8.9319817 c -0.00267,0.00625 -0.00376,0.013156 -0.00657,0.019412 l -0.048539,0.1246036 h 0.00971 c -0.072119,0.2110657 -0.11975,0.4338368 -0.11975,0.6699455 0,0.5567492 0.2194895,1.0590362 0.5744744,1.4305482 l -0.4094142,1.069644 c -0.00268,0.0062 -0.00376,0.01316 -0.00657,0.01941 l -0.048544,0.124611 h 0.00971 c -0.072119,0.211066 -0.11975,0.43384 -0.11975,0.669949 0,1.14752 0.9238193,2.071339 2.07134,2.071339 H 13.824046 c 1.147524,0 2.07134,-0.923819 2.07134,-2.071339 0,-0.236118 -0.04763,-0.458877 -0.11975,-0.669949 h 0.0097 l -0.04854,-0.124604 -0.0032,-0.01284 c -9.12e-4,-0.0023 -0.0024,-0.0041 -0.0032,-0.0066 l -0.409411,-1.06964 c 0.354969,-0.371475 0.574471,-0.873774 0.574471,-1.4305532 0,-0.2361173 -0.04763,-0.458873 -0.119749,-0.6699448 h 0.0097 l -0.04854,-0.1246036 -0.0032,-0.012839 c -9.12e-4,-0.00225 -0.0024,-0.0041 -0.0032,-0.00655 L 13.353407,3.5594369 C 13.030975,2.7337258 12.164873,1.8063368 10.924471,1.8748569 H 5.9532507 Z m 0,0.8285364 h 4.9712153 c 0.918021,0 1.415557,0.5384491 1.657076,1.1570512 l 1.778454,3.901577 C 14.177881,7.7100528 14.023271,7.6746039 13.824189,7.6746039 H 3.0532147 c -0.1990718,0 -0.3553012,0.032192 -0.537256,0.084144 L 4.2959873,3.8604005 C 4.5375229,3.241832 5.0350429,2.7033496 5.9530592,2.7033496 Z M 3.0531991,8.50313 H 13.824174 c 0.688512,0 1.242804,0.5542918 1.242804,1.2428068 0,0.6885132 -0.554292,1.2428042 -1.242804,1.2428042 H 3.0531991 c -0.6885125,0 -1.2428041,-0.554291 -1.2428041,-1.2428042 0,-0.688515 0.5542916,-1.2428068 1.2428041,-1.2428068 z m 5.7900594,0.8285367 c -0.225001,0.00532 -0.4046219,0.189207 -0.4045564,0.4142701 0,0.22879 0.1854803,0.4142692 0.4142674,0.4142692 0.2287901,0 0.4142683,-0.1854822 0.4142683,-0.4142692 0,-0.2287898 -0.1854813,-0.4142701 -0.4142683,-0.4142701 -0.00317,-3.79e-5 -0.00655,-3.79e-5 -0.00973,0 z m 1.6570765,0 c -0.225001,0.00532 -0.404626,0.189207 -0.404558,0.4142701 0,0.22879 0.185481,0.4142692 0.414269,0.4142692 0.22879,0 0.414268,-0.1854822 0.414268,-0.4142692 0,-0.2287898 -0.185481,-0.4142701 -0.414268,-0.4142701 -0.0032,-3.79e-5 -0.0066,-3.79e-5 -0.0097,0 z m 1.657072,0 c -0.225001,0.00532 -0.404623,0.189207 -0.404557,0.4142701 0,0.22879 0.185481,0.4142692 0.414268,0.4142692 0.22879,0 0.414267,-0.1854822 0.414267,-0.4142692 0,-0.2287898 -0.18548,-0.4142701 -0.414267,-0.4142701 -0.0032,-3.79e-5 -0.0066,-3.79e-5 -0.0097,0 z M 3.0534496,11.817278 H 13.824422 c 0.688515,0 1.242804,0.554291 1.242804,1.242803 0,0.688513 -0.554289,1.242804 -1.242804,1.242804 H 3.0534496 c -0.6885156,0 -1.2428072,-0.554291 -1.2428072,-1.242804 0,-0.688512 0.5542916,-1.242803 1.2428072,-1.242803 z m 5.7900597,0.828536 c -0.2250009,0.0053 -0.4046259,0.189207 -0.4045574,0.414267 0,0.228791 0.1854813,0.414268 0.4142684,0.414268 0.2287901,0 0.4142684,-0.185481 0.4142684,-0.414268 0,-0.22879 -0.1854813,-0.414267 -0.4142684,-0.414267 -0.00317,-3.8e-5 -0.00655,-3.8e-5 -0.00973,0 z m 1.6570727,0 c -0.225001,0.0053 -0.404623,0.189207 -0.404557,0.414267 0,0.228791 0.185481,0.414268 0.414268,0.414268 0.22879,0 0.414268,-0.185481 0.414268,-0.414268 0,-0.22879 -0.185481,-0.414267 -0.414268,-0.414267 -0.0032,-3.8e-5 -0.0066,-3.8e-5 -0.0097,0 z m 1.657072,0 c -0.225001,0.0053 -0.404623,0.189207 -0.404557,0.414267 0,0.228791 0.185481,0.414268 0.414268,0.414268 0.22879,0 0.414268,-0.185481 0.414268,-0.414268 0,-0.22879 -0.185481,-0.414267 -0.414268,-0.414267 -0.0032,-3.8e-5 -0.0066,-3.8e-5 -0.0097,0 z"
       fill="currentColor"
       id="path34"
       style="color:#dedede;fill:url(#linearGradient35);fill-opacity:1;stroke-width:0.828536" />
  </g>
</svg>
