<?xml version="1.0" encoding="UTF-8" standalone="no"?>
<svg
   width="61.010487"
   height="61.008541"
   version="1.1"
   viewBox="0 0 16.14204 16.141525"
   id="svg7"
   xmlns:xlink="http://www.w3.org/1999/xlink"
   xmlns="http://www.w3.org/2000/svg"
   xmlns:svg="http://www.w3.org/2000/svg"
   xmlns:rdf="http://www.w3.org/1999/02/22-rdf-syntax-ns#"
   xmlns:cc="http://creativecommons.org/ns#"
   xmlns:dc="http://purl.org/dc/elements/1.1/">
  <metadata
     id="metadata1">
    <rdf:RDF>
      <cc:Work
         rdf:about="">
        <dc:format>image/svg+xml</dc:format>
        <dc:type
           rdf:resource="http://purl.org/dc/dcmitype/StillImage" />
        <dc:title />
      </cc:Work>
    </rdf:RDF>
  </metadata>
  <defs
     id="defs2">
    <linearGradient
       id="linearGradient7">
      <stop
         style="stop-color:#00abff;stop-opacity:0;"
         offset="0"
         id="stop8" />
      <stop
         style="stop-color:#00abff;stop-opacity:1;"
         offset="1"
         id="stop7" />
    </linearGradient>
    <linearGradient
       xlink:href="#linearGradient7"
       id="linearGradient8"
       x1="8.1904182"
       y1="16.963676"
       x2="8.1904182"
       y2="6.0737934"
       gradientUnits="userSpaceOnUse" />
    <filter
       style="color-interpolation-filters:sRGB"
       id="filter8"
       x="-0.026999545"
       y="-0.027000453"
       width="1.0539991"
       height="1.0540009">
      <feGaussianBlur
         stdDeviation="0.17229133"
         id="feGaussianBlur8" />
    </filter>
  </defs>
  <g
     id="g7"
     transform="translate(-0.38385248,-0.52234147)">
    <path
       id="path1"
       style="color:#dedede;display:inline;opacity:0.6;fill:#00abff;fill-opacity:1;stroke-width:0.850825;filter:url(#filter8)"
       class="ColorScheme-Text"
       d="M 8.4468633,0.93584177 A 7.6574278,7.6574278 0 0 0 0.79735165,8.5931048 7.6574278,7.6574278 0 0 0 8.4551314,16.250368 7.6574278,7.6574278 0 0 0 16.112394,8.5931048 7.6574278,7.6574278 0 0 0 8.4551314,0.93584177 a 7.6574278,7.6574278 0 0 0 -0.00827,0 z m 0.00827,0.85057733 A 6.8066027,6.8066027 0 0 1 15.261817,8.5931048 6.8066027,6.8066027 0 0 1 8.4551314,15.39979 6.8066027,6.8066027 0 0 1 1.6484457,8.5931048 6.8066027,6.8066027 0 0 1 8.4551314,1.7864191 Z m 0,4.2539202 c -1.4293865,0 -2.5522487,1.1233792 -2.5522487,2.5527655 0,1.4293872 1.1228622,2.5522492 2.5522487,2.5522492 1.4293863,0 2.5527657,-1.122862 2.5527657,-2.5522492 0,-1.4293863 -1.1233794,-2.5527655 -2.5527657,-2.5527655 z m 0.00517,0.8562616 A 1.7033522,1.7033522 0 0 1 10.158357,8.594655 1.7033522,1.7033522 0 0 1 8.4603033,10.293226 c -0.9342059,0 -1.7135568,-0.7635057 -1.7135568,-1.698571 0,-0.9342064 0.7793254,-1.6980541 1.7135568,-1.6980541 z" />
    <path
       id="path7"
       style="color:#dedede;fill:url(#linearGradient8);fill-opacity:1;stroke-width:0.850825"
       class="ColorScheme-Text"
       d="M 8.4468633,0.93584177 A 7.6574278,7.6574278 0 0 0 0.79735165,8.5931048 7.6574278,7.6574278 0 0 0 8.4551314,16.250368 7.6574278,7.6574278 0 0 0 16.112394,8.5931048 7.6574278,7.6574278 0 0 0 8.4551314,0.93584177 a 7.6574278,7.6574278 0 0 0 -0.00827,0 z m 0.00827,0.85057733 A 6.8066027,6.8066027 0 0 1 15.261817,8.5931048 6.8066027,6.8066027 0 0 1 8.4551314,15.39979 6.8066027,6.8066027 0 0 1 1.6484457,8.5931048 6.8066027,6.8066027 0 0 1 8.4551314,1.7864191 Z m 0,4.2539202 c -1.4293865,0 -2.5522487,1.1233792 -2.5522487,2.5527655 0,1.4293872 1.1228622,2.5522492 2.5522487,2.5522492 1.4293863,0 2.5527657,-1.122862 2.5527657,-2.5522492 0,-1.4293863 -1.1233794,-2.5527655 -2.5527657,-2.5527655 z m 0.00517,0.8562616 A 1.7033522,1.7033522 0 0 1 10.158357,8.594655 1.7033522,1.7033522 0 0 1 8.4603033,10.293226 c -0.9342059,0 -1.7135568,-0.7635057 -1.7135568,-1.698571 0,-0.9342064 0.7793254,-1.6980541 1.7135568,-1.6980541 z" />
  </g>
</svg>
