<?xml version="1.0" encoding="UTF-8" standalone="no"?>
<svg
   width="56.096394"
   height="59.638165"
   version="1.1"
   viewBox="0 0 14.841879 15.778954"
   id="svg30"
   xmlns:xlink="http://www.w3.org/1999/xlink"
   xmlns="http://www.w3.org/2000/svg"
   xmlns:svg="http://www.w3.org/2000/svg">
  <defs
     id="defs10">
    <linearGradient
       id="linearGradient39">
      <stop
         style="stop-color:#00abff;stop-opacity:0;"
         offset="0"
         id="stop40" />
      <stop
         style="stop-color:#00abff;stop-opacity:1;"
         offset="1"
         id="stop39" />
    </linearGradient>
    <linearGradient
       xlink:href="#linearGradient39"
       id="linearGradient40"
       x1="8.9800797"
       y1="18.046923"
       x2="8.9800797"
       y2="6.2036295"
       gradientUnits="userSpaceOnUse" />
    <filter
       style="color-interpolation-filters:sRGB"
       id="filter40"
       x="-0.027899913"
       y="-0.026156327"
       width="1.0557998"
       height="1.0523127">
      <feGaussianBlur
         stdDeviation="0.16341762"
         id="feGaussianBlur40" />
    </filter>
  </defs>
  <g
     id="g40"
     transform="translate(-1.1492528,-0.62691291)">
    <path
       class="ColorScheme-Text"
       d="M 1.5414551,1.0195838 V 14.139561 c 0,0.781445 0.5284631,1.42989 0.9866221,1.658459 0.4572592,0.228616 0.8873416,0.215504 0.8873416,0.215504 H 13.724908 c 0,0 0.430082,0.0131 0.887343,-0.215504 0.458196,-0.228617 0.9929,-0.877043 0.986623,-1.658459 V 3.4130424 L 13.204851,1.0191152 H 12.78789 Z M 2.4784555,1.9565751 H 5.2894117 V 3.8305765 H 6.2264108 V 1.9565751 H 7.1634205 V 3.8305765 H 8.1004231 V 1.9565751 H 9.0374328 V 3.8305765 H 9.9744425 V 1.9565751 h 2.8421605 l 0.02904,0.030001 1.814962,1.8149611 V 14.140079 c 0,0.936991 -0.937009,0.936991 -0.937009,0.936991 H 3.4141161 c 0,0 -0.9370005,0 -0.9370005,-0.936991 z"
       fill="currentColor"
       stroke-width="0.936992"
       id="path1"
       style="color:#dedede;display:inline;opacity:0.6;fill:#00abff;fill-opacity:1;filter:url(#filter40)" />
    <path
       class="ColorScheme-Text"
       d="M 1.5414551,1.0195838 V 14.139561 c 0,0.781445 0.5284631,1.42989 0.9866221,1.658459 0.4572592,0.228616 0.8873416,0.215504 0.8873416,0.215504 H 13.724908 c 0,0 0.430082,0.0131 0.887343,-0.215504 0.458196,-0.228617 0.9929,-0.877043 0.986623,-1.658459 V 3.4130424 L 13.204851,1.0191152 H 12.78789 Z M 2.4784555,1.9565751 H 5.2894117 V 3.8305765 H 6.2264108 V 1.9565751 H 7.1634205 V 3.8305765 H 8.1004231 V 1.9565751 H 9.0374328 V 3.8305765 H 9.9744425 V 1.9565751 h 2.8421605 l 0.02904,0.030001 1.814962,1.8149611 V 14.140079 c 0,0.936991 -0.937009,0.936991 -0.937009,0.936991 H 3.4141161 c 0,0 -0.9370005,0 -0.9370005,-0.936991 z"
       fill="currentColor"
       stroke-width="0.936992"
       id="path39"
       style="color:#dedede;fill:url(#linearGradient40);fill-opacity:1" />
  </g>
</svg>
