<?xml version="1.0" encoding="UTF-8" standalone="no"?>
<svg
   width="60.104763"
   height="60.104771"
   version="1.1"
   viewBox="0 0 15.902406 15.902408"
   id="svg30"
   xmlns:xlink="http://www.w3.org/1999/xlink"
   xmlns="http://www.w3.org/2000/svg"
   xmlns:svg="http://www.w3.org/2000/svg">
  <defs
     id="defs10">
    <linearGradient
       id="linearGradient40">
      <stop
         style="stop-color:#00abff;stop-opacity:0;"
         offset="0"
         id="stop41" />
      <stop
         style="stop-color:#00abff;stop-opacity:1;"
         offset="1"
         id="stop40" />
    </linearGradient>
    <linearGradient
       xlink:href="#linearGradient40"
       id="linearGradient41"
       x1="8.5892029"
       y1="17.822596"
       x2="8.5892029"
       y2="6.6259565"
       gradientUnits="userSpaceOnUse" />
    <filter
       style="color-interpolation-filters:sRGB"
       id="filter41"
       x="-0.027000001"
       y="-0.026999999"
       width="1.054"
       height="1.054">
      <feGaussianBlur
         stdDeviation="0.16973631"
         id="feGaussianBlur41" />
    </filter>
  </defs>
  <g
     id="g41"
     transform="translate(-0.49281858,-0.54966042)">
    <path
       id="path68"
       d="M 8.4360115,0.95702869 A 7.5436644,7.5436644 0 0 0 0.90018573,8.5006058 7.5436644,7.5436644 0 0 0 8.4442796,16.0447 7.5436644,7.5436644 0 0 0 15.987857,8.5006058 7.5436644,7.5436644 0 0 0 8.4442796,0.95702869 a 7.5436644,7.5436644 0 0 0 -0.00827,0 z m 0.00827,0.83817521 A 6.7054796,6.7054796 0 0 1 15.149681,8.5006058 6.7054796,6.7054796 0 0 1 8.4442796,15.206524 6.7054796,6.7054796 0 0 1 1.738361,8.5006058 6.7054796,6.7054796 0 0 1 8.4442796,1.7952039 Z m 0,4.1908762 c -1.4081531,0 -2.5145257,1.106376 -2.5145257,2.5145257 0,1.4081505 1.1063726,2.5145252 2.5145257,2.5145252 1.4081499,0 2.5145255,-1.1063747 2.5145255,-2.5145252 0,-1.4081497 -1.1063756,-2.5145257 -2.5145255,-2.5145257 z m 0.00517,0.8433428 A 1.6780463,1.6780463 0 0 1 10.12218,8.5026728 1.6780463,1.6780463 0 0 1 8.4494471,10.175406 c -0.9203277,0 -1.6882358,-0.7515596 -1.6882358,-1.6727332 0,-0.920325 0.7678827,-1.6732499 1.6882358,-1.6732499 z M 9.527913,11.807316 c -0.014987,-2.57e-4 -0.0337,0.0016 -0.059427,0.0057 -0.06944,0.01103 -1.3443436,0.267513 -1.3843844,0.27853 -0.038478,0.01061 -0.075476,0.03915 -0.091982,0.07131 l -0.012919,0.02532 -0.00258,0.865564 -0.00258,0.865046 -0.012919,0.02584 c -0.018519,0.03623 -0.049174,0.0552 -0.1090351,0.06821 -0.026164,0.0058 -0.086865,0.01866 -0.1348728,0.02894 -0.1665551,0.03581 -0.2458074,0.06864 -0.309019,0.127638 -0.020798,0.0194 -0.045822,0.04906 -0.055809,0.06614 -0.07569,0.129143 -0.05952,0.298404 0.038756,0.405652 0.046794,0.05107 0.1018212,0.08146 0.1782802,0.0987 0.071215,0.016 0.2230818,-5.74e-4 0.3162535,-0.03462 0.1013374,-0.03697 0.1903182,-0.125708 0.2263384,-0.225305 0.032682,-0.09036 0.030488,-0.03413 0.033589,-0.884683 0.00207,-0.567843 0.00446,-0.779166 0.00878,-0.788567 0.00999,-0.02172 0.034003,-0.03977 0.063561,-0.04806 0.015531,-0.0041 0.1992605,-0.04263 0.4082357,-0.08526 0.8178036,-0.166746 0.7624534,-0.156982 0.7932177,-0.141074 0.00828,0.0041 0.019296,0.01517 0.024287,0.02429 0.00852,0.01558 0.00924,0.04842 0.00878,0.532774 -5.611e-4,0.584705 0.00143,0.550678 -0.040824,0.589616 -0.025996,0.02396 -0.039214,0.0285 -0.1669115,0.05478 -0.2247097,0.04634 -0.302051,0.0776 -0.3746468,0.150892 -0.061106,0.06168 -0.097898,0.148752 -0.097666,0.23254 4.306e-4,0.153257 0.115819,0.293646 0.2671619,0.325555 0.073249,0.01542 0.2176987,0.0012 0.3126362,-0.03101 0.060504,-0.02056 0.1016356,-0.0464 0.1498587,-0.09457 0.036765,-0.03673 0.048307,-0.05245 0.068212,-0.09301 0.013153,-0.02686 0.028992,-0.06729 0.035139,-0.08992 l 0.010852,-0.04134 0.00155,-1.096035 c 0.00142,-1.220457 0.004,-1.132924 -0.033589,-1.166831 -0.017072,-0.01542 -0.031348,-0.02233 -0.056326,-0.02274 z"
       style="display:inline;opacity:0.6;fill:#00abff;fill-opacity:1;filter:url(#filter41)" />
    <path
       id="path40"
       d="M 8.4360115,0.95702869 A 7.5436644,7.5436644 0 0 0 0.90018573,8.5006058 7.5436644,7.5436644 0 0 0 8.4442796,16.0447 7.5436644,7.5436644 0 0 0 15.987857,8.5006058 7.5436644,7.5436644 0 0 0 8.4442796,0.95702869 a 7.5436644,7.5436644 0 0 0 -0.00827,0 z m 0.00827,0.83817521 A 6.7054796,6.7054796 0 0 1 15.149681,8.5006058 6.7054796,6.7054796 0 0 1 8.4442796,15.206524 6.7054796,6.7054796 0 0 1 1.738361,8.5006058 6.7054796,6.7054796 0 0 1 8.4442796,1.7952039 Z m 0,4.1908762 c -1.4081531,0 -2.5145257,1.106376 -2.5145257,2.5145257 0,1.4081505 1.1063726,2.5145252 2.5145257,2.5145252 1.4081499,0 2.5145255,-1.1063747 2.5145255,-2.5145252 0,-1.4081497 -1.1063756,-2.5145257 -2.5145255,-2.5145257 z m 0.00517,0.8433428 A 1.6780463,1.6780463 0 0 1 10.12218,8.5026728 1.6780463,1.6780463 0 0 1 8.4494471,10.175406 c -0.9203277,0 -1.6882358,-0.7515596 -1.6882358,-1.6727332 0,-0.920325 0.7678827,-1.6732499 1.6882358,-1.6732499 z M 9.527913,11.807316 c -0.014987,-2.57e-4 -0.0337,0.0016 -0.059427,0.0057 -0.06944,0.01103 -1.3443436,0.267513 -1.3843844,0.27853 -0.038478,0.01061 -0.075476,0.03915 -0.091982,0.07131 l -0.012919,0.02532 -0.00258,0.865564 -0.00258,0.865046 -0.012919,0.02584 c -0.018519,0.03623 -0.049174,0.0552 -0.1090351,0.06821 -0.026164,0.0058 -0.086865,0.01866 -0.1348728,0.02894 -0.1665551,0.03581 -0.2458074,0.06864 -0.309019,0.127638 -0.020798,0.0194 -0.045822,0.04906 -0.055809,0.06614 -0.07569,0.129143 -0.05952,0.298404 0.038756,0.405652 0.046794,0.05107 0.1018212,0.08146 0.1782802,0.0987 0.071215,0.016 0.2230818,-5.74e-4 0.3162535,-0.03462 0.1013374,-0.03697 0.1903182,-0.125708 0.2263384,-0.225305 0.032682,-0.09036 0.030488,-0.03413 0.033589,-0.884683 0.00207,-0.567843 0.00446,-0.779166 0.00878,-0.788567 0.00999,-0.02172 0.034003,-0.03977 0.063561,-0.04806 0.015531,-0.0041 0.1992605,-0.04263 0.4082357,-0.08526 0.8178036,-0.166746 0.7624534,-0.156982 0.7932177,-0.141074 0.00828,0.0041 0.019296,0.01517 0.024287,0.02429 0.00852,0.01558 0.00924,0.04842 0.00878,0.532774 -5.611e-4,0.584705 0.00143,0.550678 -0.040824,0.589616 -0.025996,0.02396 -0.039214,0.0285 -0.1669115,0.05478 -0.2247097,0.04634 -0.302051,0.0776 -0.3746468,0.150892 -0.061106,0.06168 -0.097898,0.148752 -0.097666,0.23254 4.306e-4,0.153257 0.115819,0.293646 0.2671619,0.325555 0.073249,0.01542 0.2176987,0.0012 0.3126362,-0.03101 0.060504,-0.02056 0.1016356,-0.0464 0.1498587,-0.09457 0.036765,-0.03673 0.048307,-0.05245 0.068212,-0.09301 0.013153,-0.02686 0.028992,-0.06729 0.035139,-0.08992 l 0.010852,-0.04134 0.00155,-1.096035 c 0.00142,-1.220457 0.004,-1.132924 -0.033589,-1.166831 -0.017072,-0.01542 -0.031348,-0.02233 -0.056326,-0.02274 z"
       style="fill:url(#linearGradient41);fill-opacity:1" />
  </g>
</svg>
