<?xml version="1.0" encoding="UTF-8" standalone="no"?>
<svg
   width="58.842518"
   height="58.846077"
   version="1.1"
   id="svg33"
   xmlns:xlink="http://www.w3.org/1999/xlink"
   xmlns="http://www.w3.org/2000/svg"
   xmlns:svg="http://www.w3.org/2000/svg">
  <defs
     id="defs19">
    <linearGradient
       id="linearGradient4">
      <stop
         style="stop-color:#00abff;stop-opacity:0;"
         offset="0"
         id="stop5" />
      <stop
         style="stop-color:#00abff;stop-opacity:1;"
         offset="1"
         id="stop4" />
    </linearGradient>
    <linearGradient
       xlink:href="#linearGradient4"
       id="linearGradient5"
       x1="1120.5262"
       y1="78.367096"
       x2="1120.5262"
       y2="67.344009"
       gradientUnits="userSpaceOnUse" />
    <filter
       style="color-interpolation-filters:sRGB"
       id="filter5"
       x="-0.027000025"
       y="-0.026999976"
       width="1.054"
       height="1.054">
      <feGaussianBlur
         stdDeviation="0.17999904"
         id="feGaussianBlur5" />
    </filter>
  </defs>
  <g
     transform="matrix(3.3098291,0,0,3.3098291,-3680.1056,-198.77516)"
     style="color:#dedede;fill:currentColor"
     class="ColorScheme-Text"
     id="g2">
    <path
       id="path1"
       d="m 1127.0001,61.000177 a 1,1 0 0 0 -1.0002,0.999626 v 1.000217 h -11.4898 c -0.822,0 -1.5,0.678031 -1.5,1.500031 v 8.99369 c 0,0.823 0.678,1.50003 1.5,1.50003 h 11.4898 v 2.006335 h 1.0002 V 72.999829 H 1129 l 0.01,-7.002699 -2.0051,0.003 v -3.499874 c 0,0 4e-4,-0.500404 0.5004,-0.500404 h 1.4994 v -0.999626 z m -12.49,3.00006 h 11.4898 v 9.993907 h -11.4898 a 0.488,0.488 0 0 1 -0.5004,-0.500403 v -8.99369 c 0,-0.286 0.2144,-0.499814 0.5004,-0.499814 z m 5.3953,1.0191 a 4.0357238,4.0357238 0 0 0 -0.059,0.0024 v 0.0012 a 4.0357238,4.0357238 0 0 0 -0.018,0.0012 4.1212307,4.1212307 0 0 0 -0.017,-0.0012 4.0357238,4.0357238 0 0 0 -0.048,0.0041 4.0357238,4.0357238 0 0 0 -0.3399,0.02656 4.0357238,4.0357238 0 0 0 -0.052,0.0077 4.0357238,4.0357238 0 0 0 -0.3352,0.06019 4.0357238,4.0357238 0 0 0 -0.08,0.01947 4.0357238,4.0357238 0 0 0 -0.3198,0.09265 4.0357238,4.0357238 0 0 0 -0.038,0.01416 4.0357238,4.0357238 0 0 0 -0.3458,0.136903 4.0357238,4.0357238 0 0 0 0,0.0041 4.0357238,4.0357238 0 0 0 -0.3475,0.17939 4.0357238,4.0357238 0 0 0 -0.017,0.01062 4.0357238,4.0357238 0 0 0 -0.3246,0.211845 4.0357238,4.0357238 0 0 0 0,0.0047 4.0357238,4.0357238 0 0 0 -0.2986,0.24076 4.0357238,4.0357238 0 0 0 -0.037,0.03363 4.0357238,4.0357238 0 0 0 -0.2525,0.247842 4.0357238,4.0357238 0 0 0 -0.032,0.03541 4.0357238,4.0357238 0 0 0 -0.2313,0.280296 4.0357238,4.0357238 0 0 0 -0.017,0.01829 4.0357238,4.0357238 0 0 0 -0.2083,0.307441 4.0357238,4.0357238 0 0 0 -0.029,0.05252 4.0357238,4.0357238 0 0 0 -0.1588,0.295639 4.0357238,4.0357238 0 0 0 -0.032,0.06963 4.0357238,4.0357238 0 0 0 -0.1287,0.314523 4.0357238,4.0357238 0 0 0 -0.017,0.03423 4.0357238,4.0357238 0 0 0 -0.1021,0.338126 4.0357238,4.0357238 0 0 0 -0.032,0.135133 v 5.9e-4 a 4.0357238,4.0357238 0 0 0 -0.017,0.04249 4.0357238,4.0357238 0 0 0 -0.047,0.279116 4.0357238,4.0357238 0 0 0 -0.016,0.136903 4.0357238,4.0357238 0 0 0 -0.02,0.310982 4.0357238,4.0357238 0 0 0 0,0.08615 4.0357238,4.0357238 0 0 0 2.3132,3.644448 4.0357238,4.0357238 0 0 0 0,0.003 4.0357238,4.0357238 0 0 0 0.1959,0.08792 v 5.9e-4 a 4.0357238,4.0357238 0 0 0 0,0.0024 4.0357238,4.0357238 0 0 0 0.3116,0.109168 4.0357238,4.0357238 0 0 0 0.079,0.02537 4.0357238,4.0357238 0 0 0 0.2714,0.06609 4.0357238,4.0357238 0 0 0 0.1304,0.02891 4.0357238,4.0357238 0 0 0 0.2591,0.036 4.0357238,4.0357238 0 0 0 0.1404,0.01711 4.0357238,4.0357238 0 0 0 0.3252,0.01475 4.0357238,4.0357238 0 0 0 0.334,-0.01593 v -5.9e-4 a 4.0357238,4.0357238 0 0 0 0.3712,-0.05016 4.0357238,4.0357238 0 0 0 0.028,-0.0041 4.0357238,4.0357238 0 0 0 0,-5.9e-4 4.0357238,4.0357238 0 0 0 0,-5.9e-4 4.0357238,4.0357238 0 0 0 0.3859,-0.09383 4.0357238,4.0357238 0 0 0 1.8435,-1.151282 4.0357238,4.0357238 0 0 0 0.017,-0.01121 4.0357238,4.0357238 0 0 0 0.1003,-0.107398 4.0357238,4.0357238 0 0 0 0,-0.0018 v 0.0029 a 4.0357238,4.0357238 0 0 0 0.9554,-2.601154 4.0357238,4.0357238 0 0 0 -0.1316,-1.003757 4.0357238,4.0357238 0 0 0 -0.017,-0.03245 4.0357238,4.0357238 0 0 0 0,-5.9e-4 4.0357238,4.0357238 0 0 0 0,-5.91e-4 4.0357238,4.0357238 0 0 0 0,-5.9e-4 4.0357238,4.0357238 0 0 0 0,-5.9e-4 4.0357238,4.0357238 0 0 0 0,-5.9e-4 4.0357238,4.0357238 0 0 0 0,-5.9e-4 4.0357238,4.0357238 0 0 0 0,-5.9e-4 4.0357238,4.0357238 0 0 0 0,-5.9e-4 4.0357238,4.0357238 0 0 0 0,-5.9e-4 4.0357238,4.0357238 0 0 0 0,-5.9e-4 4.0357238,4.0357238 0 0 0 0,-5.9e-4 4.0357238,4.0357238 0 0 0 0,-5.91e-4 4.0357238,4.0357238 0 0 0 -0.097,-0.313342 4.0357238,4.0357238 0 0 0 -0.022,-0.06019 4.0357238,4.0357238 0 0 0 -0.5558,-1.012019 4.0357238,4.0357238 0 0 0 -0.016,-0.01829 4.0357238,4.0357238 0 0 0 -0.017,-0.01534 4.0357238,4.0357238 0 0 0 -0.5222,-0.558233 4.0357238,4.0357238 0 0 0 -0.023,-0.02006 4.0357238,4.0357238 0 0 0 0,-5.9e-4 4.0357238,4.0357238 0 0 0 0,-5.9e-4 4.0357238,4.0357238 0 0 0 0,-5.9e-4 4.0357238,4.0357238 0 0 0 0,-5.9e-4 4.0357238,4.0357238 0 0 0 0,-5.9e-4 4.0357238,4.0357238 0 0 0 0,-5.9e-4 4.0357238,4.0357238 0 0 0 0,-5.9e-4 4.0357238,4.0357238 0 0 0 0,-5.91e-4 4.0357238,4.0357238 0 0 0 -0.285,-0.225417 4.0357238,4.0357238 0 0 0 -0.035,-0.02596 4.0357238,4.0357238 0 0 0 -0.291,-0.18529 4.0357238,4.0357238 0 0 0 -0.045,-0.02656 4.0357238,4.0357238 0 0 0 -1.9833,-0.526958 z m 0.018,0.503944 h 6e-4 a 3.5312583,3.5312583 0 0 1 0.016,0.0012 c 0,0.06181 -0.016,0.121652 -0.016,0.184111 0,0.497101 0.063,0.978869 0.1711,1.443381 -0.5595,0.472911 -1.2581,0.786805 -2.027,0.870395 0.2166,-0.918883 0.6514,-1.750584 1.2428,-2.444778 a 3.5312583,3.5312583 0 0 1 0.249,-0.03127 3.5312583,3.5312583 0 0 1 0.1068,-0.01298 3.5312583,3.5312583 0 0 1 0.2567,-0.01003 z m 0.5169,0.04426 a 3.5312583,3.5312583 0 0 1 0.3334,0.06609 3.5312583,3.5312583 0 0 1 0.3369,0.103857 3.5312583,3.5312583 0 0 1 0.017,0.0035 c -0.1536,0.36034 -0.3586,0.693953 -0.6102,0.986644 -0.058,-0.331535 -0.095,-0.670818 -0.095,-1.0191 0,-0.04789 4e-4,-0.09352 0.016,-0.141033 z m -1.9544,0.264954 v 5.9e-4 c -0.4456,0.658831 -0.773,1.402749 -0.9448,2.206968 -0.3294,-0.0094 -0.6461,-0.06459 -0.9489,-0.152835 a 3.5312583,3.5312583 0 0 1 0.1304,-0.319244 3.5312583,3.5312583 0 0 1 0.017,-0.02065 3.5312583,3.5312583 0 0 1 0.1569,-0.295639 3.5312583,3.5312583 0 0 1 0,-0.0077 3.5312583,3.5312583 0 0 1 0.193,-0.289148 3.5312583,3.5312583 0 0 1 0.2225,-0.270855 3.5312583,3.5312583 0 0 1 0,-0.0047 3.5312583,3.5312583 0 0 1 0.2437,-0.24253 3.5312583,3.5312583 0 0 1 0.016,-0.01003 3.5312583,3.5312583 0 0 1 0.2602,-0.211845 3.5312583,3.5312583 0 0 1 0.017,-0.01062 3.5312583,3.5312583 0 0 1 0.2815,-0.186471 3.5312583,3.5312583 0 0 1 0,-0.0035 3.5312583,3.5312583 0 0 1 0.3086,-0.161687 3.5312583,3.5312583 0 0 1 0.043,-0.02006 z m 3.0945,0.110938 h 0.01 a 3.5312583,3.5312583 0 0 1 0,5.9e-4 3.5312583,3.5312583 0 0 1 0,5.91e-4 3.5312583,3.5312583 0 0 1 0,5.9e-4 3.5312583,3.5312583 0 0 1 0.2998,0.17998 3.5312583,3.5312583 0 0 1 0.2526,0.188241 3.5312583,3.5312583 0 0 1 0.03,0.02301 3.5312583,3.5312583 0 0 1 0,5.9e-4 3.5312583,3.5312583 0 0 1 0,5.9e-4 3.5312583,3.5312583 0 0 1 0,5.9e-4 3.5312583,3.5312583 0 0 1 0,5.9e-4 3.5312583,3.5312583 0 0 1 0,5.9e-4 3.5312583,3.5312583 0 0 1 0.2272,0.207715 3.5312583,3.5312583 0 0 1 0.03,0.02774 3.5312583,3.5312583 0 0 1 0,5.9e-4 3.5312583,3.5312583 0 0 1 0,5.9e-4 3.5312583,3.5312583 0 0 1 0,5.9e-4 3.5312583,3.5312583 0 0 1 0,5.9e-4 3.5312583,3.5312583 0 0 1 0,5.9e-4 3.5312583,3.5312583 0 0 1 0.1694,0.188242 3.5312583,3.5312583 0 0 1 0.07,0.08084 3.5312583,3.5312583 0 0 1 0.1316,0.17821 3.5312583,3.5312583 0 0 1 0.075,0.107398 3.5312583,3.5312583 0 0 1 0.1487,0.253152 3.5312583,3.5312583 0 0 1 0.025,0.04249 3.5312583,3.5312583 0 0 1 6e-4,0.003 3.5312583,3.5312583 0 0 1 0.1204,0.260823 3.5312583,3.5312583 0 0 1 0.025,0.05724 3.5312583,3.5312583 0 0 1 0,5.9e-4 3.5312583,3.5312583 0 0 1 0,5.9e-4 3.5312583,3.5312583 0 0 1 0,5.9e-4 3.5312583,3.5312583 0 0 1 0,5.9e-4 3.5312583,3.5312583 0 0 1 0,5.9e-4 3.5312583,3.5312583 0 0 1 0,5.9e-4 3.5312583,3.5312583 0 0 1 0,5.9e-4 3.5312583,3.5312583 0 0 1 0,5.9e-4 3.5312583,3.5312583 0 0 1 0,5.9e-4 3.5312583,3.5312583 0 0 1 0,5.91e-4 3.5312583,3.5312583 0 0 1 0.078,0.230728 3.5312583,3.5312583 0 0 1 0.038,0.114479 c -0.7201,0.108413 -1.3824,0.393088 -1.9396,0.813746 -0.3179,-0.486759 -0.5634,-1.023395 -0.7264,-1.596216 0.3961,-0.389296 0.7126,-0.856608 0.9341,-1.37434 z m 5.4301,1.050376 h 0.9996 v 1.000216 h -0.9996 z m -6.7726,0.682153 c 0.182,0.559451 0.4371,1.086376 0.7577,1.566122 -0.6202,0.594614 -1.0635,1.371085 -1.2392,2.245324 -0.5763,-0.09804 -1.1229,-0.279481 -1.6287,-0.532269 -0.1402,-0.503759 -0.2219,-1.032504 -0.2219,-1.581463 0,-0.286284 0.027,-0.565015 0.067,-0.840301 0.8475,-0.06291 1.6253,-0.372148 2.2648,-0.857413 z m -3.7878,0.689825 h 0.011 c 0.3204,0.09529 0.6542,0.159232 1.002,0.17467 -0.037,0.273421 -0.063,0.550112 -0.063,0.833219 0,0.4235 0.045,0.836942 0.124,1.237436 -0.3964,-0.26091 -0.7533,-0.574123 -1.0734,-0.921144 a 3.5312583,3.5312583 0 0 1 0,-5.9e-4 3.5312583,3.5312583 0 0 1 -0.035,-0.253742 3.5312583,3.5312583 0 0 1 -0.017,-0.112119 3.5312583,3.5312583 0 0 1 -0.017,-0.269085 3.5312583,3.5312583 0 0 1 0.018,-0.352288 3.5312583,3.5312583 0 0 1 0.05,-0.336357 z m 6.9608,0.227778 h 0.01 a 3.5312583,3.5312583 0 0 1 0.03,0.335176 3.5312583,3.5312583 0 0 1 0,0.125691 3.5312583,3.5312583 0 0 1 -0.3564,1.535437 3.5312583,3.5312583 0 0 1 -0.017,0.02655 c -0.5378,-0.353428 -1.0152,-0.790179 -1.4109,-1.295856 0.4992,-0.378702 1.0952,-0.633878 1.7449,-0.727002 z m 3.5996,0.400677 h 0.9996 v 0.999627 h -0.9996 z m -5.7157,0.653829 h 6e-4 c 0.4328,0.548355 0.9563,1.017259 1.5437,1.398534 a 3.5312583,3.5312583 0 0 1 -6e-4,0.0024 3.5312583,3.5312583 0 0 1 -0.144,0.187061 c -0.6101,0.215422 -1.2635,0.341077 -1.9479,0.341077 -0.1653,0 -0.3279,-0.01134 -0.4898,-0.02478 0.1536,-0.737377 0.5233,-1.393679 1.038,-1.904248 z m -4.4859,1.061588 c 0.2795,0.223371 0.5773,0.424434 0.894,0.597179 0.075,0.234941 0.1663,0.462792 0.2667,0.684514 a 3.5312583,3.5312583 0 0 1 -0.2662,-0.196502 3.5312583,3.5312583 0 0 1 -0.016,-0.0118 3.5312583,3.5312583 0 0 1 -0.259,-0.23545 3.5312583,3.5312583 0 0 1 -0.2367,-0.262594 3.5312583,3.5312583 0 0 1 -0.2089,-0.283247 3.5312583,3.5312583 0 0 1 -0.1734,-0.292098 z m 10.2016,0.284427 h 0.9996 v 0.999627 h -0.9996 z m -8.6444,0.621964 c 0.4207,0.169941 0.8634,0.292862 1.323,0.369991 -0.017,0.115159 -0.018,0.230046 -0.018,0.347568 0,0.08079 4e-4,0.160041 0.017,0.23958 a 3.5312583,3.5312583 0 0 1 -0.9347,-0.195322 3.5312583,3.5312583 0 0 1 0,-5.9e-4 c -0.1474,-0.24215 -0.2778,-0.495803 -0.3877,-0.761227 z m 3.5442,0.355829 a 3.5312583,3.5312583 0 0 1 -0.2939,0.1788 3.5312583,3.5312583 0 0 1 0,5.9e-4 3.5312583,3.5312583 0 0 1 0,5.9e-4 3.5312583,3.5312583 0 0 1 0,5.9e-4 3.5312583,3.5312583 0 0 1 0,5.9e-4 3.5312583,3.5312583 0 0 1 0,5.9e-4 3.5312583,3.5312583 0 0 1 0,5.9e-4 3.5312583,3.5312583 0 0 1 0,5.91e-4 3.5312583,3.5312583 0 0 1 0,5.9e-4 3.5312583,3.5312583 0 0 1 -0.2691,0.131002 3.5312583,3.5312583 0 0 1 -0.067,0.02891 3.5312583,3.5312583 0 0 1 -0.2584,0.09442 3.5312583,3.5312583 0 0 1 -0.073,0.0236 3.5312583,3.5312583 0 0 1 -0.2437,0.06314 3.5312583,3.5312583 0 0 1 -0.1086,0.02478 3.5312583,3.5312583 0 0 1 -0.2266,0.03305 3.5312583,3.5312583 0 0 1 -0.1682,0.02065 c 0,-0.08018 -0.017,-0.159411 -0.017,-0.241351 0,-0.0945 10e-5,-0.186959 0.017,-0.279706 0.1842,0.01603 0.3696,0.02773 0.5577,0.02773 0.3942,0 0.7784,-0.03863 1.1513,-0.109758 z"
       style="display:inline;opacity:0.6;fill:#00abff;fill-opacity:1;filter:url(#filter5)" />
    <path
       id="path2"
       d="m 1127.0001,61.000177 a 1,1 0 0 0 -1.0002,0.999626 v 1.000217 h -11.4898 c -0.822,0 -1.5,0.678031 -1.5,1.500031 v 8.99369 c 0,0.823 0.678,1.50003 1.5,1.50003 h 11.4898 v 2.006335 h 1.0002 V 72.999829 H 1129 l 0.01,-7.002699 -2.0051,0.003 v -3.499874 c 0,0 4e-4,-0.500404 0.5004,-0.500404 h 1.4994 v -0.999626 z m -12.49,3.00006 h 11.4898 v 9.993907 h -11.4898 a 0.488,0.488 0 0 1 -0.5004,-0.500403 v -8.99369 c 0,-0.286 0.2144,-0.499814 0.5004,-0.499814 z m 5.3953,1.0191 a 4.0357238,4.0357238 0 0 0 -0.059,0.0024 v 0.0012 a 4.0357238,4.0357238 0 0 0 -0.018,0.0012 4.1212307,4.1212307 0 0 0 -0.017,-0.0012 4.0357238,4.0357238 0 0 0 -0.048,0.0041 4.0357238,4.0357238 0 0 0 -0.3399,0.02656 4.0357238,4.0357238 0 0 0 -0.052,0.0077 4.0357238,4.0357238 0 0 0 -0.3352,0.06019 4.0357238,4.0357238 0 0 0 -0.08,0.01947 4.0357238,4.0357238 0 0 0 -0.3198,0.09265 4.0357238,4.0357238 0 0 0 -0.038,0.01416 4.0357238,4.0357238 0 0 0 -0.3458,0.136903 4.0357238,4.0357238 0 0 0 0,0.0041 4.0357238,4.0357238 0 0 0 -0.3475,0.17939 4.0357238,4.0357238 0 0 0 -0.017,0.01062 4.0357238,4.0357238 0 0 0 -0.3246,0.211845 4.0357238,4.0357238 0 0 0 0,0.0047 4.0357238,4.0357238 0 0 0 -0.2986,0.24076 4.0357238,4.0357238 0 0 0 -0.037,0.03363 4.0357238,4.0357238 0 0 0 -0.2525,0.247842 4.0357238,4.0357238 0 0 0 -0.032,0.03541 4.0357238,4.0357238 0 0 0 -0.2313,0.280296 4.0357238,4.0357238 0 0 0 -0.017,0.01829 4.0357238,4.0357238 0 0 0 -0.2083,0.307441 4.0357238,4.0357238 0 0 0 -0.029,0.05252 4.0357238,4.0357238 0 0 0 -0.1588,0.295639 4.0357238,4.0357238 0 0 0 -0.032,0.06963 4.0357238,4.0357238 0 0 0 -0.1287,0.314523 4.0357238,4.0357238 0 0 0 -0.017,0.03423 4.0357238,4.0357238 0 0 0 -0.1021,0.338126 4.0357238,4.0357238 0 0 0 -0.032,0.135133 v 5.9e-4 a 4.0357238,4.0357238 0 0 0 -0.017,0.04249 4.0357238,4.0357238 0 0 0 -0.047,0.279116 4.0357238,4.0357238 0 0 0 -0.016,0.136903 4.0357238,4.0357238 0 0 0 -0.02,0.310982 4.0357238,4.0357238 0 0 0 0,0.08615 4.0357238,4.0357238 0 0 0 2.3132,3.644448 4.0357238,4.0357238 0 0 0 0,0.003 4.0357238,4.0357238 0 0 0 0.1959,0.08792 v 5.9e-4 a 4.0357238,4.0357238 0 0 0 0,0.0024 4.0357238,4.0357238 0 0 0 0.3116,0.109168 4.0357238,4.0357238 0 0 0 0.079,0.02537 4.0357238,4.0357238 0 0 0 0.2714,0.06609 4.0357238,4.0357238 0 0 0 0.1304,0.02891 4.0357238,4.0357238 0 0 0 0.2591,0.036 4.0357238,4.0357238 0 0 0 0.1404,0.01711 4.0357238,4.0357238 0 0 0 0.3252,0.01475 4.0357238,4.0357238 0 0 0 0.334,-0.01593 v -5.9e-4 a 4.0357238,4.0357238 0 0 0 0.3712,-0.05016 4.0357238,4.0357238 0 0 0 0.028,-0.0041 4.0357238,4.0357238 0 0 0 0,-5.9e-4 4.0357238,4.0357238 0 0 0 0,-5.9e-4 4.0357238,4.0357238 0 0 0 0.3859,-0.09383 4.0357238,4.0357238 0 0 0 1.8435,-1.151282 4.0357238,4.0357238 0 0 0 0.017,-0.01121 4.0357238,4.0357238 0 0 0 0.1003,-0.107398 4.0357238,4.0357238 0 0 0 0,-0.0018 v 0.0029 a 4.0357238,4.0357238 0 0 0 0.9554,-2.601154 4.0357238,4.0357238 0 0 0 -0.1316,-1.003757 4.0357238,4.0357238 0 0 0 -0.017,-0.03245 4.0357238,4.0357238 0 0 0 0,-5.9e-4 4.0357238,4.0357238 0 0 0 0,-5.91e-4 4.0357238,4.0357238 0 0 0 0,-5.9e-4 4.0357238,4.0357238 0 0 0 0,-5.9e-4 4.0357238,4.0357238 0 0 0 0,-5.9e-4 4.0357238,4.0357238 0 0 0 0,-5.9e-4 4.0357238,4.0357238 0 0 0 0,-5.9e-4 4.0357238,4.0357238 0 0 0 0,-5.9e-4 4.0357238,4.0357238 0 0 0 0,-5.9e-4 4.0357238,4.0357238 0 0 0 0,-5.9e-4 4.0357238,4.0357238 0 0 0 0,-5.9e-4 4.0357238,4.0357238 0 0 0 0,-5.91e-4 4.0357238,4.0357238 0 0 0 -0.097,-0.313342 4.0357238,4.0357238 0 0 0 -0.022,-0.06019 4.0357238,4.0357238 0 0 0 -0.5558,-1.012019 4.0357238,4.0357238 0 0 0 -0.016,-0.01829 4.0357238,4.0357238 0 0 0 -0.017,-0.01534 4.0357238,4.0357238 0 0 0 -0.5222,-0.558233 4.0357238,4.0357238 0 0 0 -0.023,-0.02006 4.0357238,4.0357238 0 0 0 0,-5.9e-4 4.0357238,4.0357238 0 0 0 0,-5.9e-4 4.0357238,4.0357238 0 0 0 0,-5.9e-4 4.0357238,4.0357238 0 0 0 0,-5.9e-4 4.0357238,4.0357238 0 0 0 0,-5.9e-4 4.0357238,4.0357238 0 0 0 0,-5.9e-4 4.0357238,4.0357238 0 0 0 0,-5.9e-4 4.0357238,4.0357238 0 0 0 0,-5.91e-4 4.0357238,4.0357238 0 0 0 -0.285,-0.225417 4.0357238,4.0357238 0 0 0 -0.035,-0.02596 4.0357238,4.0357238 0 0 0 -0.291,-0.18529 4.0357238,4.0357238 0 0 0 -0.045,-0.02656 4.0357238,4.0357238 0 0 0 -1.9833,-0.526958 z m 0.018,0.503944 h 6e-4 a 3.5312583,3.5312583 0 0 1 0.016,0.0012 c 0,0.06181 -0.016,0.121652 -0.016,0.184111 0,0.497101 0.063,0.978869 0.1711,1.443381 -0.5595,0.472911 -1.2581,0.786805 -2.027,0.870395 0.2166,-0.918883 0.6514,-1.750584 1.2428,-2.444778 a 3.5312583,3.5312583 0 0 1 0.249,-0.03127 3.5312583,3.5312583 0 0 1 0.1068,-0.01298 3.5312583,3.5312583 0 0 1 0.2567,-0.01003 z m 0.5169,0.04426 a 3.5312583,3.5312583 0 0 1 0.3334,0.06609 3.5312583,3.5312583 0 0 1 0.3369,0.103857 3.5312583,3.5312583 0 0 1 0.017,0.0035 c -0.1536,0.36034 -0.3586,0.693953 -0.6102,0.986644 -0.058,-0.331535 -0.095,-0.670818 -0.095,-1.0191 0,-0.04789 4e-4,-0.09352 0.016,-0.141033 z m -1.9544,0.264954 v 5.9e-4 c -0.4456,0.658831 -0.773,1.402749 -0.9448,2.206968 -0.3294,-0.0094 -0.6461,-0.06459 -0.9489,-0.152835 a 3.5312583,3.5312583 0 0 1 0.1304,-0.319244 3.5312583,3.5312583 0 0 1 0.017,-0.02065 3.5312583,3.5312583 0 0 1 0.1569,-0.295639 3.5312583,3.5312583 0 0 1 0,-0.0077 3.5312583,3.5312583 0 0 1 0.193,-0.289148 3.5312583,3.5312583 0 0 1 0.2225,-0.270855 3.5312583,3.5312583 0 0 1 0,-0.0047 3.5312583,3.5312583 0 0 1 0.2437,-0.24253 3.5312583,3.5312583 0 0 1 0.016,-0.01003 3.5312583,3.5312583 0 0 1 0.2602,-0.211845 3.5312583,3.5312583 0 0 1 0.017,-0.01062 3.5312583,3.5312583 0 0 1 0.2815,-0.186471 3.5312583,3.5312583 0 0 1 0,-0.0035 3.5312583,3.5312583 0 0 1 0.3086,-0.161687 3.5312583,3.5312583 0 0 1 0.043,-0.02006 z m 3.0945,0.110938 h 0.01 a 3.5312583,3.5312583 0 0 1 0,5.9e-4 3.5312583,3.5312583 0 0 1 0,5.91e-4 3.5312583,3.5312583 0 0 1 0,5.9e-4 3.5312583,3.5312583 0 0 1 0.2998,0.17998 3.5312583,3.5312583 0 0 1 0.2526,0.188241 3.5312583,3.5312583 0 0 1 0.03,0.02301 3.5312583,3.5312583 0 0 1 0,5.9e-4 3.5312583,3.5312583 0 0 1 0,5.9e-4 3.5312583,3.5312583 0 0 1 0,5.9e-4 3.5312583,3.5312583 0 0 1 0,5.9e-4 3.5312583,3.5312583 0 0 1 0,5.9e-4 3.5312583,3.5312583 0 0 1 0.2272,0.207715 3.5312583,3.5312583 0 0 1 0.03,0.02774 3.5312583,3.5312583 0 0 1 0,5.9e-4 3.5312583,3.5312583 0 0 1 0,5.9e-4 3.5312583,3.5312583 0 0 1 0,5.9e-4 3.5312583,3.5312583 0 0 1 0,5.9e-4 3.5312583,3.5312583 0 0 1 0,5.9e-4 3.5312583,3.5312583 0 0 1 0.1694,0.188242 3.5312583,3.5312583 0 0 1 0.07,0.08084 3.5312583,3.5312583 0 0 1 0.1316,0.17821 3.5312583,3.5312583 0 0 1 0.075,0.107398 3.5312583,3.5312583 0 0 1 0.1487,0.253152 3.5312583,3.5312583 0 0 1 0.025,0.04249 3.5312583,3.5312583 0 0 1 6e-4,0.003 3.5312583,3.5312583 0 0 1 0.1204,0.260823 3.5312583,3.5312583 0 0 1 0.025,0.05724 3.5312583,3.5312583 0 0 1 0,5.9e-4 3.5312583,3.5312583 0 0 1 0,5.9e-4 3.5312583,3.5312583 0 0 1 0,5.9e-4 3.5312583,3.5312583 0 0 1 0,5.9e-4 3.5312583,3.5312583 0 0 1 0,5.9e-4 3.5312583,3.5312583 0 0 1 0,5.9e-4 3.5312583,3.5312583 0 0 1 0,5.9e-4 3.5312583,3.5312583 0 0 1 0,5.9e-4 3.5312583,3.5312583 0 0 1 0,5.9e-4 3.5312583,3.5312583 0 0 1 0,5.91e-4 3.5312583,3.5312583 0 0 1 0.078,0.230728 3.5312583,3.5312583 0 0 1 0.038,0.114479 c -0.7201,0.108413 -1.3824,0.393088 -1.9396,0.813746 -0.3179,-0.486759 -0.5634,-1.023395 -0.7264,-1.596216 0.3961,-0.389296 0.7126,-0.856608 0.9341,-1.37434 z m 5.4301,1.050376 h 0.9996 v 1.000216 h -0.9996 z m -6.7726,0.682153 c 0.182,0.559451 0.4371,1.086376 0.7577,1.566122 -0.6202,0.594614 -1.0635,1.371085 -1.2392,2.245324 -0.5763,-0.09804 -1.1229,-0.279481 -1.6287,-0.532269 -0.1402,-0.503759 -0.2219,-1.032504 -0.2219,-1.581463 0,-0.286284 0.027,-0.565015 0.067,-0.840301 0.8475,-0.06291 1.6253,-0.372148 2.2648,-0.857413 z m -3.7878,0.689825 h 0.011 c 0.3204,0.09529 0.6542,0.159232 1.002,0.17467 -0.037,0.273421 -0.063,0.550112 -0.063,0.833219 0,0.4235 0.045,0.836942 0.124,1.237436 -0.3964,-0.26091 -0.7533,-0.574123 -1.0734,-0.921144 a 3.5312583,3.5312583 0 0 1 0,-5.9e-4 3.5312583,3.5312583 0 0 1 -0.035,-0.253742 3.5312583,3.5312583 0 0 1 -0.017,-0.112119 3.5312583,3.5312583 0 0 1 -0.017,-0.269085 3.5312583,3.5312583 0 0 1 0.018,-0.352288 3.5312583,3.5312583 0 0 1 0.05,-0.336357 z m 6.9608,0.227778 h 0.01 a 3.5312583,3.5312583 0 0 1 0.03,0.335176 3.5312583,3.5312583 0 0 1 0,0.125691 3.5312583,3.5312583 0 0 1 -0.3564,1.535437 3.5312583,3.5312583 0 0 1 -0.017,0.02655 c -0.5378,-0.353428 -1.0152,-0.790179 -1.4109,-1.295856 0.4992,-0.378702 1.0952,-0.633878 1.7449,-0.727002 z m 3.5996,0.400677 h 0.9996 v 0.999627 h -0.9996 z m -5.7157,0.653829 h 6e-4 c 0.4328,0.548355 0.9563,1.017259 1.5437,1.398534 a 3.5312583,3.5312583 0 0 1 -6e-4,0.0024 3.5312583,3.5312583 0 0 1 -0.144,0.187061 c -0.6101,0.215422 -1.2635,0.341077 -1.9479,0.341077 -0.1653,0 -0.3279,-0.01134 -0.4898,-0.02478 0.1536,-0.737377 0.5233,-1.393679 1.038,-1.904248 z m -4.4859,1.061588 c 0.2795,0.223371 0.5773,0.424434 0.894,0.597179 0.075,0.234941 0.1663,0.462792 0.2667,0.684514 a 3.5312583,3.5312583 0 0 1 -0.2662,-0.196502 3.5312583,3.5312583 0 0 1 -0.016,-0.0118 3.5312583,3.5312583 0 0 1 -0.259,-0.23545 3.5312583,3.5312583 0 0 1 -0.2367,-0.262594 3.5312583,3.5312583 0 0 1 -0.2089,-0.283247 3.5312583,3.5312583 0 0 1 -0.1734,-0.292098 z m 10.2016,0.284427 h 0.9996 v 0.999627 h -0.9996 z m -8.6444,0.621964 c 0.4207,0.169941 0.8634,0.292862 1.323,0.369991 -0.017,0.115159 -0.018,0.230046 -0.018,0.347568 0,0.08079 4e-4,0.160041 0.017,0.23958 a 3.5312583,3.5312583 0 0 1 -0.9347,-0.195322 3.5312583,3.5312583 0 0 1 0,-5.9e-4 c -0.1474,-0.24215 -0.2778,-0.495803 -0.3877,-0.761227 z m 3.5442,0.355829 a 3.5312583,3.5312583 0 0 1 -0.2939,0.1788 3.5312583,3.5312583 0 0 1 0,5.9e-4 3.5312583,3.5312583 0 0 1 0,5.9e-4 3.5312583,3.5312583 0 0 1 0,5.9e-4 3.5312583,3.5312583 0 0 1 0,5.9e-4 3.5312583,3.5312583 0 0 1 0,5.9e-4 3.5312583,3.5312583 0 0 1 0,5.9e-4 3.5312583,3.5312583 0 0 1 0,5.91e-4 3.5312583,3.5312583 0 0 1 0,5.9e-4 3.5312583,3.5312583 0 0 1 -0.2691,0.131002 3.5312583,3.5312583 0 0 1 -0.067,0.02891 3.5312583,3.5312583 0 0 1 -0.2584,0.09442 3.5312583,3.5312583 0 0 1 -0.073,0.0236 3.5312583,3.5312583 0 0 1 -0.2437,0.06314 3.5312583,3.5312583 0 0 1 -0.1086,0.02478 3.5312583,3.5312583 0 0 1 -0.2266,0.03305 3.5312583,3.5312583 0 0 1 -0.1682,0.02065 c 0,-0.08018 -0.017,-0.159411 -0.017,-0.241351 0,-0.0945 10e-5,-0.186959 0.017,-0.279706 0.1842,0.01603 0.3696,0.02773 0.5577,0.02773 0.3942,0 0.7784,-0.03863 1.1513,-0.109758 z"
       style="fill:url(#linearGradient5);fill-opacity:1" />
  </g>
</svg>
