<?xml version="1.0" encoding="UTF-8" standalone="no"?>
<svg
   width="60.313259"
   height="43.748653"
   version="1.1"
   viewBox="0 0 15.957569 11.574937"
   id="svg30"
   xmlns:xlink="http://www.w3.org/1999/xlink"
   xmlns="http://www.w3.org/2000/svg"
   xmlns:svg="http://www.w3.org/2000/svg">
  <defs
     id="defs10">
    <linearGradient
       id="linearGradient31">
      <stop
         style="stop-color:#00abff;stop-opacity:0;"
         offset="0"
         id="stop32" />
      <stop
         style="stop-color:#00abff;stop-opacity:1;"
         offset="1"
         id="stop31" />
    </linearGradient>
    <linearGradient
       xlink:href="#linearGradient31"
       id="linearGradient32"
       x1="8.6330233"
       y1="17.179283"
       x2="8.6330233"
       y2="7.07127"
       gradientUnits="userSpaceOnUse" />
    <filter
       style="color-interpolation-filters:sRGB"
       id="filter32"
       x="-0.023120869"
       y="-0.032443192"
       width="1.0462417"
       height="1.0648864">
      <feGaussianBlur
         stdDeviation="0.14693581"
         id="feGaussianBlur32" />
    </filter>
  </defs>
  <g
     id="g32"
     transform="translate(-0.41119057,-3.1682414)">
    <path
       class="ColorScheme-Text"
       d="m 8.3897941,3.5208873 c -2.8798228,0 -5.5999761,1.2709931 -7.46304258,3.4873425 -0.2474884,0.2943524 -0.2085042,0.7333783 0.086327,0.9808184 0.1304278,0.1095593 0.2889587,0.1627608 0.4472446,0.1627608 0.1987042,0 0.3957113,-0.083791 0.5335828,-0.2476793 C 3.5910115,6.003884 5.9222307,4.9135356 8.389765,4.9135356 c 2.467538,0 4.798851,1.0908251 6.395863,2.9905941 0.137886,0.1638849 0.334861,0.2476793 0.533583,0.2476793 0.158315,0 0.318215,-0.052733 0.448653,-0.1627608 0.294363,-0.24702 0.332375,-0.6869445 0.08492,-0.9808184 C 13.990197,4.7917849 11.269568,3.5208873 8.3897414,3.5208873 Z m 0,2.9495086 c -2.0571516,0 -3.9995341,0.9082743 -5.330106,2.490986 -0.2474524,0.2943524 -0.2099094,0.7333782 0.084922,0.9808184 0.1304277,0.1095597 0.2889226,0.1627607 0.4472446,0.1627607 0.1987041,0 0.396158,-0.0838 0.5335828,-0.2476792 1.0645137,-1.2669891 2.6194861,-1.994238 4.2643528,-1.994238 1.6448637,0 3.1993607,0.7272298 4.2643497,1.994238 0.137886,0.1643642 0.335365,0.2476792 0.533583,0.2476792 0.158314,0 0.316773,-0.05273 0.447244,-0.1627607 0.294796,-0.2474488 0.332339,-0.6869254 0.08492,-0.9808184 -1.331047,-1.5827117 -3.27295,-2.490986 -5.3301059,-2.490986 z m 0,3.0641867 c -1.2349597,0 -2.4010917,0.5437544 -3.1985961,1.4931994 -0.2474524,0.294349 -0.2085042,0.733379 0.086327,0.980819 0.1304277,0.109559 0.2889227,0.16418 0.4472446,0.16418 0.1987042,0 0.3961617,-0.08521 0.5335828,-0.249099 0.5325235,-0.633733 1.3093143,-0.996356 2.1315099,-0.996356 0.8222135,0 1.5990116,0.362662 2.1315067,0.996356 0.137886,0.164364 0.335329,0.249099 0.533583,0.249099 0.158314,0 0.316809,-0.05415 0.447248,-0.16418 0.294831,-0.247467 0.33378,-0.686497 0.08633,-0.980819 C 10.790926,10.078365 9.6248078,9.5345826 8.3899454,9.5345826 Z M 8.330345,12.178378 c -0.5446691,0.0519 -1.0685166,0.459313 -1.0870107,1.065754 0,0.633163 0.5132764,1.146399 1.1464021,1.146399 0.6331222,0 1.1463986,-0.513258 1.1463986,-1.146399 C 9.439251,12.430117 8.8749492,12.12652 8.3302513,12.178378 Z"
       fill="currentColor"
       id="path1"
       style="color:#dedede;display:inline;opacity:0.6;fill:#00abff;fill-opacity:1;stroke-width:0.953268;filter:url(#filter32)" />
    <path
       class="ColorScheme-Text"
       d="m 8.3897941,3.5208873 c -2.8798228,0 -5.5999761,1.2709931 -7.46304258,3.4873425 -0.2474884,0.2943524 -0.2085042,0.7333783 0.086327,0.9808184 0.1304278,0.1095593 0.2889587,0.1627608 0.4472446,0.1627608 0.1987042,0 0.3957113,-0.083791 0.5335828,-0.2476793 C 3.5910115,6.003884 5.9222307,4.9135356 8.389765,4.9135356 c 2.467538,0 4.798851,1.0908251 6.395863,2.9905941 0.137886,0.1638849 0.334861,0.2476793 0.533583,0.2476793 0.158315,0 0.318215,-0.052733 0.448653,-0.1627608 0.294363,-0.24702 0.332375,-0.6869445 0.08492,-0.9808184 C 13.990197,4.7917849 11.269568,3.5208873 8.3897414,3.5208873 Z m 0,2.9495086 c -2.0571516,0 -3.9995341,0.9082743 -5.330106,2.490986 -0.2474524,0.2943524 -0.2099094,0.7333782 0.084922,0.9808184 0.1304277,0.1095597 0.2889226,0.1627607 0.4472446,0.1627607 0.1987041,0 0.396158,-0.0838 0.5335828,-0.2476792 1.0645137,-1.2669891 2.6194861,-1.994238 4.2643528,-1.994238 1.6448637,0 3.1993607,0.7272298 4.2643497,1.994238 0.137886,0.1643642 0.335365,0.2476792 0.533583,0.2476792 0.158314,0 0.316773,-0.05273 0.447244,-0.1627607 0.294796,-0.2474488 0.332339,-0.6869254 0.08492,-0.9808184 -1.331047,-1.5827117 -3.27295,-2.490986 -5.3301059,-2.490986 z m 0,3.0641867 c -1.2349597,0 -2.4010917,0.5437544 -3.1985961,1.4931994 -0.2474524,0.294349 -0.2085042,0.733379 0.086327,0.980819 0.1304277,0.109559 0.2889227,0.16418 0.4472446,0.16418 0.1987042,0 0.3961617,-0.08521 0.5335828,-0.249099 0.5325235,-0.633733 1.3093143,-0.996356 2.1315099,-0.996356 0.8222135,0 1.5990116,0.362662 2.1315067,0.996356 0.137886,0.164364 0.335329,0.249099 0.533583,0.249099 0.158314,0 0.316809,-0.05415 0.447248,-0.16418 0.294831,-0.247467 0.33378,-0.686497 0.08633,-0.980819 C 10.790926,10.078365 9.6248078,9.5345826 8.3899454,9.5345826 Z M 8.330345,12.178378 c -0.5446691,0.0519 -1.0685166,0.459313 -1.0870107,1.065754 0,0.633163 0.5132764,1.146399 1.1464021,1.146399 0.6331222,0 1.1463986,-0.513258 1.1463986,-1.146399 C 9.439251,12.430117 8.8749492,12.12652 8.3302513,12.178378 Z"
       fill="currentColor"
       id="path31"
       style="color:#dedede;fill:url(#linearGradient32);fill-opacity:1;stroke-width:0.953268" />
  </g>
</svg>
