<?xml version="1.0" encoding="UTF-8" standalone="no"?>
<svg
   width="55.220238"
   height="55.222065"
   version="1.1"
   viewBox="0 0 14.610067 14.61055"
   id="svg7"
   xmlns:xlink="http://www.w3.org/1999/xlink"
   xmlns="http://www.w3.org/2000/svg"
   xmlns:svg="http://www.w3.org/2000/svg"
   xmlns:rdf="http://www.w3.org/1999/02/22-rdf-syntax-ns#"
   xmlns:cc="http://creativecommons.org/ns#"
   xmlns:dc="http://purl.org/dc/elements/1.1/">
  <metadata
     id="metadata1">
    <rdf:RDF>
      <cc:Work
         rdf:about="">
        <dc:format>image/svg+xml</dc:format>
        <dc:type
           rdf:resource="http://purl.org/dc/dcmitype/StillImage" />
        <dc:title />
      </cc:Work>
    </rdf:RDF>
  </metadata>
  <defs
     id="defs2">
    <linearGradient
       id="linearGradient2">
      <stop
         style="stop-color:#00abff;stop-opacity:0;"
         offset="0"
         id="stop3" />
      <stop
         style="stop-color:#00abff;stop-opacity:1;"
         offset="1"
         id="stop2" />
    </linearGradient>
    <linearGradient
       xlink:href="#linearGradient2"
       id="linearGradient3"
       x1="11.862888"
       y1="25.475496"
       x2="11.862888"
       y2="9.76478"
       gradientUnits="userSpaceOnUse" />
    <filter
       style="color-interpolation-filters:sRGB"
       id="filter3"
       x="-0.02700047"
       y="-0.02699953"
       width="1.0540009"
       height="1.0539991">
      <feGaussianBlur
         stdDeviation="0.24750507"
         id="feGaussianBlur3" />
    </filter>
  </defs>
  <g
     id="g3"
     transform="translate(-0.79870488,-0.77051701)">
    <path
       id="path1"
       d="M 7.7772148,1.0248396 A 1,1 0 0 0 6.9997063,2.0000057 v 3.179747 A 3,3 0 0 0 5.1797789,6.9996801 h -3.179747 a 1.000181,1.000181 0 0 0 0,2.0003619 h 3.0001327 v 2.000362 H 2.0000319 a 1,1 0 0 0 0,1.999542 h 3.0001327 v 2.000361 H 2.0000319 a 1,1 0 0 0 0,1.999542 h 3.179747 a 3,3 0 0 0 1.8199274,1.819928 v 3.180567 a 1.000181,1.000181 0 0 0 2.0003619,0 V 19.000211 H 10.99961 v 3.000133 a 1.000181,1.000181 0 0 0 2.000362,0 v -3.000133 h 2.000362 v 3.000133 a 1,1 0 0 0 1.999541,0 v -3.180567 a 3,3 0 0 0 1.819928,-1.819928 h 3.180567 a 1,1 0 0 0 0,-1.999542 h -3.000133 v -2.000361 h 3.000133 a 1,1 0 0 0 0,-1.999542 H 19.000237 V 9.000042 h 3.000133 a 1.000181,1.000181 0 0 0 0,-2.0003619 H 18.819803 A 3,3 0 0 0 16.999875,5.1797527 v -3.179747 a 1,1 0 0 0 -1.999541,0 V 5.0001384 H 12.999972 V 2.0000057 a 1.000181,1.000181 0 0 0 -2.000362,0 V 5.0001384 H 9.0000682 V 2.0000057 A 1,1 0 0 0 7.7772148,1.0248396 Z m 0.2230825,5.9748405 h 7.9998067 a 1,1 0 0 1 0.999771,1.0005911 v 7.9998068 a 1,1 0 0 1 -0.999771,0.999771 H 8.0002973 A 1,1 0 0 1 6.9997063,16.000078 V 8.0002712 a 1,1 0 0 1 1.000591,-1.0005911 z m 7.0000367,1.0005911 a 1,1 0 0 0 0,1.9995417 1,1 0 0 0 0,-1.9995417 z"
       transform="matrix(0.63006769,0,0,0.63006769,0.54279974,0.51491152)"
       style="display:inline;opacity:0.6;fill:#00abff;fill-opacity:1;filter:url(#filter3)" />
    <path
       id="path2"
       d="M 7.7772148,1.0248396 A 1,1 0 0 0 6.9997063,2.0000057 v 3.179747 A 3,3 0 0 0 5.1797789,6.9996801 h -3.179747 a 1.000181,1.000181 0 0 0 0,2.0003619 h 3.0001327 v 2.000362 H 2.0000319 a 1,1 0 0 0 0,1.999542 h 3.0001327 v 2.000361 H 2.0000319 a 1,1 0 0 0 0,1.999542 h 3.179747 a 3,3 0 0 0 1.8199274,1.819928 v 3.180567 a 1.000181,1.000181 0 0 0 2.0003619,0 V 19.000211 H 10.99961 v 3.000133 a 1.000181,1.000181 0 0 0 2.000362,0 v -3.000133 h 2.000362 v 3.000133 a 1,1 0 0 0 1.999541,0 v -3.180567 a 3,3 0 0 0 1.819928,-1.819928 h 3.180567 a 1,1 0 0 0 0,-1.999542 h -3.000133 v -2.000361 h 3.000133 a 1,1 0 0 0 0,-1.999542 H 19.000237 V 9.000042 h 3.000133 a 1.000181,1.000181 0 0 0 0,-2.0003619 H 18.819803 A 3,3 0 0 0 16.999875,5.1797527 v -3.179747 a 1,1 0 0 0 -1.999541,0 V 5.0001384 H 12.999972 V 2.0000057 a 1.000181,1.000181 0 0 0 -2.000362,0 V 5.0001384 H 9.0000682 V 2.0000057 A 1,1 0 0 0 7.7772148,1.0248396 Z m 0.2230825,5.9748405 h 7.9998067 a 1,1 0 0 1 0.999771,1.0005911 v 7.9998068 a 1,1 0 0 1 -0.999771,0.999771 H 8.0002973 A 1,1 0 0 1 6.9997063,16.000078 V 8.0002712 a 1,1 0 0 1 1.000591,-1.0005911 z m 7.0000367,1.0005911 a 1,1 0 0 0 0,1.9995417 1,1 0 0 0 0,-1.9995417 z"
       transform="matrix(0.63006769,0,0,0.63006769,0.54279974,0.51491152)"
       style="fill:url(#linearGradient3);fill-opacity:1" />
  </g>
</svg>
