<?xml version="1.0" encoding="UTF-8" standalone="no"?>
<svg
   width="37.725498"
   height="58.87603"
   version="1.1"
   viewBox="0 0 37.725498 58.87603"
   id="svg24"
   xmlns:xlink="http://www.w3.org/1999/xlink"
   xmlns="http://www.w3.org/2000/svg"
   xmlns:svg="http://www.w3.org/2000/svg">
  <defs
     id="defs18">
    <linearGradient
       id="linearGradient30">
      <stop
         style="stop-color:#00abff;stop-opacity:0;"
         offset="0"
         id="stop31" />
      <stop
         style="stop-color:#00abff;stop-opacity:1;"
         offset="1"
         id="stop30" />
    </linearGradient>
    <linearGradient
       xlink:href="#linearGradient30"
       id="linearGradient31"
       x1="33.285259"
       y1="66.570518"
       x2="33.285259"
       y2="24.595018"
       gradientUnits="userSpaceOnUse" />
    <filter
       style="color-interpolation-filters:sRGB"
       id="filter31"
       x="-0.035100002"
       y="-0.021937501"
       width="1.0702"
       height="1.043875">
      <feGaussianBlur
         stdDeviation="0.51554421"
         id="feGaussianBlur31" />
    </filter>
  </defs>
  <g
     id="g31"
     transform="translate(-13.695923,-2.5457861)">
    <path
       id="path1"
       style="display:inline;opacity:0.6;fill:#00abff;fill-opacity:1;stroke-width:3.52509;paint-order:stroke fill markers;filter:url(#filter31)"
       d="m 18.458318,3.7830922 c -1.9529,0 -3.525089,1.5721895 -3.525089,3.5250886 V 56.659421 c 0,1.952899 1.572189,3.525089 3.525089,3.525089 h 28.200708 c 1.952899,0 3.525089,-1.57219 3.525089,-3.525089 V 7.3081808 c 0,-1.9528991 -1.57219,-3.5250886 -3.525089,-3.5250886 H 42.059885 23.057458 Z m 1.941551,3.5250886 h 3.346081 l 1.762545,2.4510363 c 0.347972,0.4836109 0.478238,1.0740519 1.074052,1.0740519 h 11.95225 c 0.59581,0 0.726055,-0.590406 1.074052,-1.0740519 l 1.762544,-2.4510363 h 3.346081 c 1.076844,0 1.941552,0.8647077 1.941552,1.9415518 V 54.717869 c 0,1.076844 -0.864708,1.941552 -1.941552,1.941552 H 20.399869 c -1.076844,0 -1.941551,-0.864708 -1.941551,-1.941552 V 9.2497326 c 0,-1.0768441 0.864707,-1.9415518 1.941551,-1.9415518 z m 5.845313,45.8261512 c -0.408156,0 -0.736687,0.328532 -0.736687,0.736687 0,0.408156 0.328531,0.736691 0.736687,0.736691 h 12.62698 c 0.408156,0 0.736687,-0.328535 0.736687,-0.736691 0,-0.408155 -0.328531,-0.736687 -0.736687,-0.736687 z" />
    <path
       id="path30"
       style="fill:url(#linearGradient31);fill-opacity:1;stroke-width:3.52509;paint-order:stroke fill markers"
       d="m 18.458318,3.7830922 c -1.9529,0 -3.525089,1.5721895 -3.525089,3.5250886 V 56.659421 c 0,1.952899 1.572189,3.525089 3.525089,3.525089 h 28.200708 c 1.952899,0 3.525089,-1.57219 3.525089,-3.525089 V 7.3081808 c 0,-1.9528991 -1.57219,-3.5250886 -3.525089,-3.5250886 H 42.059885 23.057458 Z m 1.941551,3.5250886 h 3.346081 l 1.762545,2.4510363 c 0.347972,0.4836109 0.478238,1.0740519 1.074052,1.0740519 h 11.95225 c 0.59581,0 0.726055,-0.590406 1.074052,-1.0740519 l 1.762544,-2.4510363 h 3.346081 c 1.076844,0 1.941552,0.8647077 1.941552,1.9415518 V 54.717869 c 0,1.076844 -0.864708,1.941552 -1.941552,1.941552 H 20.399869 c -1.076844,0 -1.941551,-0.864708 -1.941551,-1.941552 V 9.2497326 c 0,-1.0768441 0.864707,-1.9415518 1.941551,-1.9415518 z m 5.845313,45.8261512 c -0.408156,0 -0.736687,0.328532 -0.736687,0.736687 0,0.408156 0.328531,0.736691 0.736687,0.736691 h 12.62698 c 0.408156,0 0.736687,-0.328535 0.736687,-0.736691 0,-0.408155 -0.328531,-0.736687 -0.736687,-0.736687 z" />
  </g>
</svg>
