<?xml version="1.0" encoding="UTF-8" standalone="no"?>
<svg
   width="47.782021"
   height="47.782021"
   version="1.1"
   viewBox="0 0 12.642077 12.642077"
   id="svg7"
   xmlns:xlink="http://www.w3.org/1999/xlink"
   xmlns="http://www.w3.org/2000/svg"
   xmlns:svg="http://www.w3.org/2000/svg"
   xmlns:rdf="http://www.w3.org/1999/02/22-rdf-syntax-ns#"
   xmlns:cc="http://creativecommons.org/ns#"
   xmlns:dc="http://purl.org/dc/elements/1.1/">
  <metadata
     id="metadata1">
    <rdf:RDF>
      <cc:Work
         rdf:about="">
        <dc:format>image/svg+xml</dc:format>
        <dc:type
           rdf:resource="http://purl.org/dc/dcmitype/StillImage" />
      </cc:Work>
    </rdf:RDF>
  </metadata>
  <defs
     id="defs5">
    <linearGradient
       id="linearGradient4">
      <stop
         style="stop-color:#00abff;stop-opacity:0;"
         offset="0"
         id="stop5" />
      <stop
         style="stop-color:#00abff;stop-opacity:1;"
         offset="1"
         id="stop4" />
    </linearGradient>
    <linearGradient
       xlink:href="#linearGradient4"
       id="linearGradient5"
       x1="8.1546955"
       y1="15.897079"
       x2="8.1546955"
       y2="6.2926354"
       gradientUnits="userSpaceOnUse" />
    <filter
       style="color-interpolation-filters:sRGB"
       id="filter5"
       x="-0.027000002"
       y="-0.027000002"
       width="1.054"
       height="1.054">
      <feGaussianBlur
         stdDeviation="0.15749971"
         id="feGaussianBlur5" />
    </filter>
  </defs>
  <g
     fill="#dedede"
     stroke-linecap="round"
     stroke-linejoin="round"
     id="g3"
     transform="matrix(0.85674304,0,0,0.85674304,-0.53300801,-0.53277317)">
    <path
       id="path1"
       d="m 3.0002147,0.9998581 c -1.108,0 -2.0000825,0.8920825 -2.0000825,2.0000825 V 12.99975 c 0,1.108 0.8920825,2.000082 2.0000825,2.000082 h 9.9998093 c 1.108,0 2.000082,-0.892082 2.000082,-2.000082 V 2.9999406 c 0,-1.108 -0.892082,-2.0000825 -2.000082,-2.0000825 z m 0,1.0000412 h 9.9998093 c 0.554,0 1.000041,0.4460413 1.000041,1.0000413 V 12.99975 c 0,0.554 -0.446041,1.000041 -1.000041,1.000041 H 3.0002147 c -0.554,0 -1.0000413,-0.446041 -1.0000413,-1.000041 V 2.9999406 c 0,-0.554 0.4460413,-1.0000413 1.0000413,-1.0000413 z M 9.9999001,2.9999406 5.669806,5.5000437 6.1698267,6.3661831 10.499921,3.86608 Z m -4.999603,4.0001649 v 1.0000412 h 4.999603 V 9.000188 H 5.9997352 c -0.554,0 -0.9994381,0.4460412 -0.9994381,1.000041 v 1.000041 c 0,0.554 0.4454381,0.999439 0.9994381,0.999439 h 4.0001649 c 0.5539999,0 1.0000409,-0.445439 1.0000409,-0.999439 V 10.000229 8.0001467 c 0,-0.554 -0.446041,-1.0000412 -1.0000409,-1.0000412 z M 5.9997352,10.000229 H 9.9999001 V 11.00027 H 5.9997352 Z"
       style="display:inline;opacity:0.6;fill:#00abff;fill-opacity:1;filter:url(#filter5)" />
    <path
       id="path2"
       d="m 3.0002147,0.9998581 c -1.108,0 -2.0000825,0.8920825 -2.0000825,2.0000825 V 12.99975 c 0,1.108 0.8920825,2.000082 2.0000825,2.000082 h 9.9998093 c 1.108,0 2.000082,-0.892082 2.000082,-2.000082 V 2.9999406 c 0,-1.108 -0.892082,-2.0000825 -2.000082,-2.0000825 z m 0,1.0000412 h 9.9998093 c 0.554,0 1.000041,0.4460413 1.000041,1.0000413 V 12.99975 c 0,0.554 -0.446041,1.000041 -1.000041,1.000041 H 3.0002147 c -0.554,0 -1.0000413,-0.446041 -1.0000413,-1.000041 V 2.9999406 c 0,-0.554 0.4460413,-1.0000413 1.0000413,-1.0000413 z M 9.9999001,2.9999406 5.669806,5.5000437 6.1698267,6.3661831 10.499921,3.86608 Z m -4.999603,4.0001649 v 1.0000412 h 4.999603 V 9.000188 H 5.9997352 c -0.554,0 -0.9994381,0.4460412 -0.9994381,1.000041 v 1.000041 c 0,0.554 0.4454381,0.999439 0.9994381,0.999439 h 4.0001649 c 0.5539999,0 1.0000409,-0.445439 1.0000409,-0.999439 V 10.000229 8.0001467 c 0,-0.554 -0.446041,-1.0000412 -1.0000409,-1.0000412 z M 5.9997352,10.000229 H 9.9999001 V 11.00027 H 5.9997352 Z"
       style="fill:url(#linearGradient5);fill-opacity:1" />
  </g>
</svg>
