<?xml version="1.0" encoding="UTF-8" standalone="no"?>
<svg
   width="48.480145"
   height="48.48991"
   version="1.1"
   viewBox="0 0 12.826786 12.82937"
   id="svg10"
   xmlns:xlink="http://www.w3.org/1999/xlink"
   xmlns="http://www.w3.org/2000/svg"
   xmlns:svg="http://www.w3.org/2000/svg"
   xmlns:rdf="http://www.w3.org/1999/02/22-rdf-syntax-ns#"
   xmlns:cc="http://creativecommons.org/ns#"
   xmlns:dc="http://purl.org/dc/elements/1.1/">
  <defs
     id="defs5">
    <linearGradient
       id="linearGradient11">
      <stop
         style="stop-color:#ff3dfb;stop-opacity:0;"
         offset="0"
         id="stop12" />
      <stop
         style="stop-color:#ff3dfb;stop-opacity:1;"
         offset="1"
         id="stop11" />
    </linearGradient>
    <linearGradient
       xlink:href="#linearGradient11"
       id="linearGradient12"
       x1="26.580202"
       y1="16.933001"
       x2="26.580202"
       y2="7.0860925"
       gradientUnits="userSpaceOnUse" />
    <filter
       style="color-interpolation-filters:sRGB"
       id="filter12"
       x="-0.027002865"
       y="-0.026997133"
       width="1.0540057"
       height="1.0539943">
      <feGaussianBlur
         stdDeviation="0.13692208"
         id="feGaussianBlur12" />
    </filter>
  </defs>
  <metadata
     id="metadata5">
    <rdf:RDF>
      <cc:Work
         rdf:about="">
        <dc:format>image/svg+xml</dc:format>
        <dc:type
           rdf:resource="http://purl.org/dc/dcmitype/StillImage" />
      </cc:Work>
    </rdf:RDF>
  </metadata>
  <g
     id="g12"
     transform="translate(-2.053624,-2.0520734)">
    <path
       id="path6"
       style="display:inline;opacity:0.6;fill:#ff3dfb;fill-opacity:1;filter:url(#filter12)"
       d="m 21.165937,2.3806864 c -0.437444,0 -0.7927,0.3578408 -0.7927,0.7952846 v 10.582091 c 0,0.437443 0.355256,0.794768 0.7927,0.794768 h 10.584159 c 0.437444,0 0.792701,-0.357325 0.792701,-0.794768 V 3.175971 c 0,-0.4374436 -0.355257,-0.7952846 -0.792701,-0.7952846 z m 0,0.2656116 h 10.584159 c 0.295444,0 0.529156,0.2342299 0.529156,0.529673 v 10.582091 c 0,0.295442 -0.233712,0.529157 -0.529156,0.529157 H 21.165937 c -0.295443,0 -0.529156,-0.233715 -0.529156,-0.529157 V 3.175971 c 0,-0.2954429 0.233713,-0.529673 0.529156,-0.529673 z m 9.152233,1.8515301 c -0.197877,0 -0.353543,0.072922 -0.458877,0.1488252 -0.105334,0.075903 -0.160067,0.1496773 -0.179831,0.1793137 l -0.437174,0.6350909 -2.99614,4.7753251 -0.0021,0.0057 c -0.01383,0.02765 -0.01845,0.04228 -0.02325,0.05478 l -0.01602,0.0155 -0.603052,1.666015 -0.0021,0.0078 c -0.03337,0.15018 0.02822,0.30723 0.161744,0.390666 0.125099,0.07818 0.2852,0.07818 0.410303,0 l 0.0098,-0.0078 1.265531,-1.160113 c 0.0098,-0.0096 0.01738,-0.01902 0.02377,-0.02739 l 0.0078,-0.0036 0.05633,-0.05478 3.154268,-4.7675737 C 30.791525,6.2020485 31.036415,5.8436548 31.12893,5.6817399 31.243247,5.4881243 31.234142,5.2775224 31.18732,5.1174444 31.16375,5.0368574 31.13019,4.9665984 31.0974,4.9102259 c -0.02119,-0.036435 -0.04426,-0.05783 -0.06614,-0.083714 -0.0012,-0.00141 -8.1e-4,-0.00481 -0.0021,-0.0062 -3.25e-4,-6.492e-4 -0.01008,-0.015976 -0.01395,-0.021187 -0.0039,-0.00521 -0.0067,-0.010609 -0.0098,-0.013952 -0.0061,-0.00669 -0.01055,-0.011041 -0.0155,-0.015503 -0.0099,-0.00892 -0.02032,-0.01514 -0.03101,-0.023254 -0.02138,-0.016229 -0.04636,-0.034997 -0.07441,-0.053226 -0.05537,-0.035989 -0.119207,-0.072947 -0.177764,-0.099217 -0.126353,-0.05743 -0.258277,-0.095599 -0.388599,-0.095599 z m 0,0.2640614 c 0.07742,0 0.17533,0.025908 0.277497,0.072346 h 0.0021 c 0.03428,0.015237 0.09485,0.048525 0.142624,0.07958 0.01502,0.00976 0.02546,0.017523 0.03721,0.025838 l 0.04651,0.040824 c -0.0053,-0.0045 0.02224,0.023471 0.04496,0.062527 0.02272,0.039056 0.04791,0.091271 0.06459,0.1483084 0.03336,0.1140759 0.03913,0.2407102 -0.031,0.3575939 l -0.0021,0.00207 c -0.07367,0.1289252 -0.326639,0.4997668 -0.432006,0.657828 l -3.140315,4.7463872 -0.0217,0.02119 0.0047,-0.0031 c -0.0072,0.0076 -0.01216,0.01532 -0.01809,0.02274 l -0.0098,0.0062 -1.255712,1.150294 c -0.04023,0.02339 -0.08521,0.0249 -0.125055,0 -0.03268,-0.02042 -0.05313,-0.07277 -0.04496,-0.109552 l 0.576181,-1.585918 0.0057,-0.0036 0.0098,-0.01964 c 0.01828,-0.03657 0.02904,-0.06739 0.03152,-0.07235 l -0.0083,0.0098 2.990456,-4.763957 0.435624,-0.6325071 v -0.00207 c 0.001,-0.00152 0.04399,-0.059766 0.115236,-0.1111022 0.07124,-0.051336 0.169866,-0.099734 0.304368,-0.099734 z M 21.8279,5.1603069 a 0.13230323,0.13230323 0 0 0 -0.132806,0.1307388 v 7.6737993 a 0.13230323,0.13230323 0 0 0 0.132806,0.130739 h 6.48268 a 0.13230323,0.13230323 0 0 0 0.130739,-0.130739 v -1.552846 a 0.13229001,0.13229001 0 0 0 -0.130739,-0.132806 0.13229001,0.13229001 0 0 0 -0.132805,0.132806 v 1.42004 h -6.21707 V 5.4238516 h 6.21707 V 5.820202 A 0.13229001,0.13229001 0 0 0 28.31058,5.9530078 0.13229001,0.13229001 0 0 0 28.441319,5.820202 V 5.2910457 A 0.13230323,0.13230323 0 0 0 28.31058,5.1603069 Z m 0.793217,1.1895681 c -0.07329,0 -0.132289,0.059 -0.132289,0.1322891 0,0.073289 0.059,0.132289 0.132289,0.132289 h 5.026985 c 0.07329,0 0.132289,-0.059 0.132289,-0.132289 0,-0.073289 -0.059,-0.1322891 -0.132289,-0.1322891 z m 0,1.8520469 c -0.07329,0 -0.132289,0.059 -0.132289,0.132289 0,0.073289 0.059,0.1322891 0.132289,0.1322891 h 3.968672 c 0.07329,0 0.132289,-0.059 0.132289,-0.1322891 0,-0.073289 -0.059,-0.132289 -0.132289,-0.132289 z m 0,1.8520471 c -0.07329,0 -0.132289,0.059 -0.132289,0.132289 0,0.07329 0.059,0.132289 0.132289,0.132289 h 2.91036 c 0.07329,0 0.132289,-0.059 0.132289,-0.132289 0,-0.07329 -0.059,-0.132289 -0.132289,-0.132289 z"
       transform="translate(-17.991)" />
    <path
       id="path11"
       style="fill:url(#linearGradient12);fill-opacity:1"
       d="m 21.165937,2.3806864 c -0.437444,0 -0.7927,0.3578408 -0.7927,0.7952846 v 10.582091 c 0,0.437443 0.355256,0.794768 0.7927,0.794768 h 10.584159 c 0.437444,0 0.792701,-0.357325 0.792701,-0.794768 V 3.175971 c 0,-0.4374436 -0.355257,-0.7952846 -0.792701,-0.7952846 z m 0,0.2656116 h 10.584159 c 0.295444,0 0.529156,0.2342299 0.529156,0.529673 v 10.582091 c 0,0.295442 -0.233712,0.529157 -0.529156,0.529157 H 21.165937 c -0.295443,0 -0.529156,-0.233715 -0.529156,-0.529157 V 3.175971 c 0,-0.2954429 0.233713,-0.529673 0.529156,-0.529673 z m 9.152233,1.8515301 c -0.197877,0 -0.353543,0.072922 -0.458877,0.1488252 -0.105334,0.075903 -0.160067,0.1496773 -0.179831,0.1793137 l -0.437174,0.6350909 -2.99614,4.7753251 -0.0021,0.0057 c -0.01383,0.02765 -0.01845,0.04228 -0.02325,0.05478 l -0.01602,0.0155 -0.603052,1.666015 -0.0021,0.0078 c -0.03337,0.15018 0.02822,0.30723 0.161744,0.390666 0.125099,0.07818 0.2852,0.07818 0.410303,0 l 0.0098,-0.0078 1.265531,-1.160113 c 0.0098,-0.0096 0.01738,-0.01902 0.02377,-0.02739 l 0.0078,-0.0036 0.05633,-0.05478 3.154268,-4.7675737 C 30.791525,6.2020485 31.036415,5.8436548 31.12893,5.6817399 31.243247,5.4881243 31.234142,5.2775224 31.18732,5.1174444 31.16375,5.0368574 31.13019,4.9665984 31.0974,4.9102259 c -0.02119,-0.036435 -0.04426,-0.05783 -0.06614,-0.083714 -0.0012,-0.00141 -8.1e-4,-0.00481 -0.0021,-0.0062 -3.25e-4,-6.492e-4 -0.01008,-0.015976 -0.01395,-0.021187 -0.0039,-0.00521 -0.0067,-0.010609 -0.0098,-0.013952 -0.0061,-0.00669 -0.01055,-0.011041 -0.0155,-0.015503 -0.0099,-0.00892 -0.02032,-0.01514 -0.03101,-0.023254 -0.02138,-0.016229 -0.04636,-0.034997 -0.07441,-0.053226 -0.05537,-0.035989 -0.119207,-0.072947 -0.177764,-0.099217 -0.126353,-0.05743 -0.258277,-0.095599 -0.388599,-0.095599 z m 0,0.2640614 c 0.07742,0 0.17533,0.025908 0.277497,0.072346 h 0.0021 c 0.03428,0.015237 0.09485,0.048525 0.142624,0.07958 0.01502,0.00976 0.02546,0.017523 0.03721,0.025838 l 0.04651,0.040824 c -0.0053,-0.0045 0.02224,0.023471 0.04496,0.062527 0.02272,0.039056 0.04791,0.091271 0.06459,0.1483084 0.03336,0.1140759 0.03913,0.2407102 -0.031,0.3575939 l -0.0021,0.00207 c -0.07367,0.1289252 -0.326639,0.4997668 -0.432006,0.657828 l -3.140315,4.7463872 -0.0217,0.02119 0.0047,-0.0031 c -0.0072,0.0076 -0.01216,0.01532 -0.01809,0.02274 l -0.0098,0.0062 -1.255712,1.150294 c -0.04023,0.02339 -0.08521,0.0249 -0.125055,0 -0.03268,-0.02042 -0.05313,-0.07277 -0.04496,-0.109552 l 0.576181,-1.585918 0.0057,-0.0036 0.0098,-0.01964 c 0.01828,-0.03657 0.02904,-0.06739 0.03152,-0.07235 l -0.0083,0.0098 2.990456,-4.763957 0.435624,-0.6325071 v -0.00207 c 0.001,-0.00152 0.04399,-0.059766 0.115236,-0.1111022 0.07124,-0.051336 0.169866,-0.099734 0.304368,-0.099734 z M 21.8279,5.1603069 a 0.13230323,0.13230323 0 0 0 -0.132806,0.1307388 v 7.6737993 a 0.13230323,0.13230323 0 0 0 0.132806,0.130739 h 6.48268 a 0.13230323,0.13230323 0 0 0 0.130739,-0.130739 v -1.552846 a 0.13229001,0.13229001 0 0 0 -0.130739,-0.132806 0.13229001,0.13229001 0 0 0 -0.132805,0.132806 v 1.42004 h -6.21707 V 5.4238516 h 6.21707 V 5.820202 A 0.13229001,0.13229001 0 0 0 28.31058,5.9530078 0.13229001,0.13229001 0 0 0 28.441319,5.820202 V 5.2910457 A 0.13230323,0.13230323 0 0 0 28.31058,5.1603069 Z m 0.793217,1.1895681 c -0.07329,0 -0.132289,0.059 -0.132289,0.1322891 0,0.073289 0.059,0.132289 0.132289,0.132289 h 5.026985 c 0.07329,0 0.132289,-0.059 0.132289,-0.132289 0,-0.073289 -0.059,-0.1322891 -0.132289,-0.1322891 z m 0,1.8520469 c -0.07329,0 -0.132289,0.059 -0.132289,0.132289 0,0.073289 0.059,0.1322891 0.132289,0.1322891 h 3.968672 c 0.07329,0 0.132289,-0.059 0.132289,-0.1322891 0,-0.073289 -0.059,-0.132289 -0.132289,-0.132289 z m 0,1.8520471 c -0.07329,0 -0.132289,0.059 -0.132289,0.132289 0,0.07329 0.059,0.132289 0.132289,0.132289 h 2.91036 c 0.07329,0 0.132289,-0.059 0.132289,-0.132289 0,-0.07329 -0.059,-0.132289 -0.132289,-0.132289 z"
       transform="translate(-17.991)" />
  </g>
</svg>
