<?xml version="1.0" encoding="UTF-8" standalone="no"?>
<svg
   width="46.6395"
   height="46.6395"
   version="1.1"
   viewBox="0 0 12.339791 12.339791"
   id="svg16"
   xmlns:xlink="http://www.w3.org/1999/xlink"
   xmlns="http://www.w3.org/2000/svg"
   xmlns:svg="http://www.w3.org/2000/svg"
   xmlns:rdf="http://www.w3.org/1999/02/22-rdf-syntax-ns#"
   xmlns:cc="http://creativecommons.org/ns#"
   xmlns:dc="http://purl.org/dc/elements/1.1/">
  <defs
     id="defs5">
    <linearGradient
       id="linearGradient2">
      <stop
         style="stop-color:#00abff;stop-opacity:0;"
         offset="0"
         id="stop3" />
      <stop
         style="stop-color:#00abff;stop-opacity:1;"
         offset="1"
         id="stop2" />
    </linearGradient>
    <linearGradient
       xlink:href="#linearGradient2"
       id="linearGradient3"
       x1="8.3138447"
       y1="15.72745"
       x2="8.3138447"
       y2="6.6336961"
       gradientUnits="userSpaceOnUse" />
    <filter
       style="color-interpolation-filters:sRGB"
       id="filter3"
       x="-0.027"
       y="-0.026999999"
       width="1.054"
       height="1.054">
      <feGaussianBlur
         stdDeviation="0.15749999"
         id="feGaussianBlur3" />
    </filter>
  </defs>
  <metadata
     id="metadata5">
    <rdf:RDF>
      <cc:Work
         rdf:about="">
        <dc:format>image/svg+xml</dc:format>
        <dc:type
           rdf:resource="http://purl.org/dc/dcmitype/StillImage" />
      </cc:Work>
    </rdf:RDF>
  </metadata>
  <g
     fill="#dedede"
     stroke-linecap="round"
     stroke-linejoin="round"
     id="g3"
     transform="matrix(0.83625591,0,0,0.83625591,-0.51998502,-0.51998053)">
    <path
       id="path1"
       d="m 3.000066,0.9997959 c -1.108,0 -2.00026471,0.8922647 -2.00026471,2.0002647 V 4.9997074 H 2.0002426 V 3.0000606 c 0,-0.554 0.4458234,-0.9998234 0.9998234,-0.9998234 H 4.9997127 V 0.9997959 Z m 7.999823,0 v 1.0004413 h 2.000265 c 0.554,0 0.999823,0.4458234 0.999823,0.9998234 V 4.9997074 H 14.9998 V 3.0000606 c 0,-1.108 -0.891646,-2.0002647 -1.999646,-2.0002647 z M 9.0002421,3.0000606 V 3.999884 H 10.999889 V 3.0000606 Z M 4.9997127,4.9997074 c -1.108,0 -1.9996467,0.8922647 -1.9996467,2.0002647 V 10.00006 c 0,1.108 0.8916467,1.999647 1.9996467,1.999647 h 6.0001763 c 1.108,0 2.000265,-0.891647 2.000265,-1.999647 V 6.9999721 c 0,-1.108 -0.892265,-2.0002647 -2.000265,-2.0002647 z m 0,1.0004413 h 6.0001763 c 0.554,0 0.999823,0.4458234 0.999823,0.9998234 V 10.00006 c 0,0.554 -0.445823,0.999824 -0.999823,0.999824 H 4.9997127 c -0.554,0 -0.9998233,-0.445824 -0.9998233,-0.999824 V 6.9999721 c 0,-0.554 0.4458233,-0.9998234 0.9998233,-0.9998234 z M 9.5001538,6.9999721 A 1.5,1.5 0 0 0 7.9998008,8.4997071 1.5,1.5 0 0 0 9.5001538,10.00006 1.5,1.5 0 0 0 10.999889,8.4997071 1.5,1.5 0 0 0 9.5001538,6.9999721 Z M 9.488413,7.9997954 a 0.5,0.5 0 0 1 0.011741,0 0.5,0.5 0 0 1 0.499912,0.4999117 A 0.5,0.5 0 0 1 9.5001538,9.0002367 0.5,0.5 0 0 1 9.0002421,8.4997071 0.5,0.5 0 0 1 9.488413,7.9997954 Z M 0.99980129,10.999884 v 2.000264 c 0,1.108 0.89226471,1.999647 2.00026471,1.999647 H 4.9997127 V 13.999972 H 3.000066 c -0.554,0 -0.9998234,-0.445824 -0.9998234,-0.999824 v -2.000264 z m 13.00017571,0 v 2.000264 c 0,0.554 -0.445823,0.999824 -0.999823,0.999824 h -2.000265 v 0.999823 h 2.000265 c 1.108,0 1.999646,-0.891647 1.999646,-1.999647 v -2.000264 z"
       style="display:inline;opacity:0.6;fill:#00abff;fill-opacity:1;filter:url(#filter3)" />
    <path
       id="path2"
       d="m 3.000066,0.9997959 c -1.108,0 -2.00026471,0.8922647 -2.00026471,2.0002647 V 4.9997074 H 2.0002426 V 3.0000606 c 0,-0.554 0.4458234,-0.9998234 0.9998234,-0.9998234 H 4.9997127 V 0.9997959 Z m 7.999823,0 v 1.0004413 h 2.000265 c 0.554,0 0.999823,0.4458234 0.999823,0.9998234 V 4.9997074 H 14.9998 V 3.0000606 c 0,-1.108 -0.891646,-2.0002647 -1.999646,-2.0002647 z M 9.0002421,3.0000606 V 3.999884 H 10.999889 V 3.0000606 Z M 4.9997127,4.9997074 c -1.108,0 -1.9996467,0.8922647 -1.9996467,2.0002647 V 10.00006 c 0,1.108 0.8916467,1.999647 1.9996467,1.999647 h 6.0001763 c 1.108,0 2.000265,-0.891647 2.000265,-1.999647 V 6.9999721 c 0,-1.108 -0.892265,-2.0002647 -2.000265,-2.0002647 z m 0,1.0004413 h 6.0001763 c 0.554,0 0.999823,0.4458234 0.999823,0.9998234 V 10.00006 c 0,0.554 -0.445823,0.999824 -0.999823,0.999824 H 4.9997127 c -0.554,0 -0.9998233,-0.445824 -0.9998233,-0.999824 V 6.9999721 c 0,-0.554 0.4458233,-0.9998234 0.9998233,-0.9998234 z M 9.5001538,6.9999721 A 1.5,1.5 0 0 0 7.9998008,8.4997071 1.5,1.5 0 0 0 9.5001538,10.00006 1.5,1.5 0 0 0 10.999889,8.4997071 1.5,1.5 0 0 0 9.5001538,6.9999721 Z M 9.488413,7.9997954 a 0.5,0.5 0 0 1 0.011741,0 0.5,0.5 0 0 1 0.499912,0.4999117 A 0.5,0.5 0 0 1 9.5001538,9.0002367 0.5,0.5 0 0 1 9.0002421,8.4997071 0.5,0.5 0 0 1 9.488413,7.9997954 Z M 0.99980129,10.999884 v 2.000264 c 0,1.108 0.89226471,1.999647 2.00026471,1.999647 H 4.9997127 V 13.999972 H 3.000066 c -0.554,0 -0.9998234,-0.445824 -0.9998234,-0.999824 v -2.000264 z m 13.00017571,0 v 2.000264 c 0,0.554 -0.445823,0.999824 -0.999823,0.999824 h -2.000265 v 0.999823 h 2.000265 c 1.108,0 1.999646,-0.891647 1.999646,-1.999647 v -2.000264 z"
       style="fill:url(#linearGradient3);fill-opacity:1" />
  </g>
</svg>
