<?xml version="1.0" encoding="UTF-8" standalone="no"?>
<svg
   width="38.703793"
   height="44.35223"
   version="1.1"
   viewBox="0 0 10.240177 11.73463"
   id="svg12"
   xmlns:xlink="http://www.w3.org/1999/xlink"
   xmlns="http://www.w3.org/2000/svg"
   xmlns:svg="http://www.w3.org/2000/svg"
   xmlns:rdf="http://www.w3.org/1999/02/22-rdf-syntax-ns#"
   xmlns:cc="http://creativecommons.org/ns#"
   xmlns:dc="http://purl.org/dc/elements/1.1/">
  <metadata
     id="metadata1">
    <rdf:RDF>
      <cc:Work
         rdf:about="">
        <dc:format>image/svg+xml</dc:format>
        <dc:type
           rdf:resource="http://purl.org/dc/dcmitype/StillImage" />
      </cc:Work>
    </rdf:RDF>
  </metadata>
  <defs
     id="defs5">
    <linearGradient
       id="linearGradient2">
      <stop
         style="stop-color:#00abff;stop-opacity:0;"
         offset="0"
         id="stop3" />
      <stop
         style="stop-color:#00abff;stop-opacity:1;"
         offset="1"
         id="stop2" />
    </linearGradient>
    <linearGradient
       xlink:href="#linearGradient2"
       id="linearGradient3"
       x1="8.1346464"
       y1="17.618589"
       x2="8.1346464"
       y2="6.6096597"
       gradientUnits="userSpaceOnUse" />
    <filter
       style="color-interpolation-filters:sRGB"
       id="filter3"
       x="-0.029084797"
       y="-0.025194088"
       width="1.0581696"
       height="1.0503882">
      <feGaussianBlur
         stdDeviation="0.16788346"
         id="feGaussianBlur3" />
    </filter>
  </defs>
  <g
     transform="matrix(0.69855254,0,0,0.69855254,-0.41712173,0.28140664)"
     fill="#dedede"
     id="g4">
    <path
       id="path1"
       style="font-variant-ligatures:normal;font-variant-position:normal;font-variant-caps:normal;font-variant-numeric:normal;font-variant-alternates:normal;font-feature-settings:normal;text-indent:0;text-decoration-line:none;text-decoration-style:solid;text-decoration-color:#000000;text-transform:none;text-orientation:mixed;white-space:normal;shape-padding:0;display:inline;opacity:0.6;isolation:auto;mix-blend-mode:normal;fill:#00abff;fill-opacity:1;filter:url(#filter3)"
       d="M 4.9939527,7.7802959e-5 C 3.7359527,0.0150778 2.8150638,-0.03025227 2.0630638,0.38474773 A 1.88,1.88 0 0 0 1.2249272,1.3826703 c -0.165,0.437 -0.224884,0.9600932 -0.224884,1.6170932 v 9.9999385 c 0,0.658 0.059884,1.178093 0.224884,1.617093 0.164,0.439 0.4611366,0.789443 0.8381366,0.996443 0.68,0.376 1.5340157,0.370492 2.6150157,0.379492 a 6,6 0 0 1 -1.191737,-1.051924 c -0.43,-0.038 -0.7527016,-0.09869 -0.9417016,-0.202692 -0.183,-0.101 -0.2866699,-0.21296 -0.3846699,-0.47196 -0.097,-0.26 -0.159786,-0.674452 -0.159786,-1.266452 V 2.9997635 c 0,-0.592 0.062786,-1.005712 0.159786,-1.265712 0.098,-0.26 0.2016699,-0.3709604 0.3846699,-0.4719604 0.365,-0.202 1.1952298,-0.2468715 2.4552298,-0.2618715 H 9.99984 c 1.259,0.015 2.09023,0.059871 2.45523,0.2618715 0.184,0.1 0.28667,0.2129604 0.38467,0.4719604 0.097,0.26 0.160525,0.673712 0.160525,1.265712 v 1.534981 a 6,6 0 0 1 0.999403,1.1540097 V 2.9997635 c 0,-0.658 -0.05988,-1.1790932 -0.224884,-1.6170932 A 1.875,1.875 0 0 0 12.938126,0.38696698 c -0.753,-0.415 -1.674368,-0.37188918 -2.932368,-0.386889177041 H 4.9976515 Z M 8.9996982,5.0000471 c -2.755,0 -4.9999693,2.2449693 -4.9999693,4.9999689 0,2.755 2.2449693,4.99997 4.9999693,4.99997 1.1977768,0 2.2992958,-0.424218 3.1616908,-1.130338 l 1.984749,1.984009 0.707201,-0.707941 -1.225026,-1.224286 c 0.0544,-0.0929 0.103436,-0.190429 0.142772,-0.29442 a 6,6 0 0 1 -0.201952,0.23524 L 12.86859,13.161707 c 0.706313,-0.862453 1.131078,-1.963732 1.131078,-3.161691 0,-2.7549996 -2.24497,-4.9999689 -4.9999698,-4.9999689 z m 0,1.0400883 A 3.954,3.954 0 0 1 12.960319,10.000016 3.954,3.954 0 0 1 8.9996982,13.959897 3.952,3.952 0 0 1 5.0412967,10.000016 3.952,3.952 0 0 1 8.9996982,6.0401354 Z M 6.8566429,7.9997328 c -0.264,0.293 -0.4663204,0.6301418 -0.5903204,1.0001418 H 11.883243 A 2.978,2.978 0 0 0 11.292923,7.9997328 Z M 6.1213315,10.000016 c -0.009,0.346 0.039786,0.684142 0.159786,1.000142 h 5.5666175 c 0.123,-0.317 0.194116,-0.653142 0.190116,-1.000142 z M 6.9143434,12.0003 c 0.532,0.56 1.2710251,0.928482 2.0550251,0.939482 0.848,0.048 1.6597435,-0.335482 2.2377435,-0.939482 z" />
    <path
       id="path2"
       style="font-variant-ligatures:normal;font-variant-position:normal;font-variant-caps:normal;font-variant-numeric:normal;font-variant-alternates:normal;font-feature-settings:normal;text-indent:0;text-decoration-line:none;text-decoration-style:solid;text-decoration-color:#000000;text-transform:none;text-orientation:mixed;white-space:normal;shape-padding:0;isolation:auto;mix-blend-mode:normal;fill:url(#linearGradient3);fill-opacity:1"
       d="M 4.9939527,7.7802959e-5 C 3.7359527,0.0150778 2.8150638,-0.03025227 2.0630638,0.38474773 A 1.88,1.88 0 0 0 1.2249272,1.3826703 c -0.165,0.437 -0.224884,0.9600932 -0.224884,1.6170932 v 9.9999385 c 0,0.658 0.059884,1.178093 0.224884,1.617093 0.164,0.439 0.4611366,0.789443 0.8381366,0.996443 0.68,0.376 1.5340157,0.370492 2.6150157,0.379492 a 6,6 0 0 1 -1.191737,-1.051924 c -0.43,-0.038 -0.7527016,-0.09869 -0.9417016,-0.202692 -0.183,-0.101 -0.2866699,-0.21296 -0.3846699,-0.47196 -0.097,-0.26 -0.159786,-0.674452 -0.159786,-1.266452 V 2.9997635 c 0,-0.592 0.062786,-1.005712 0.159786,-1.265712 0.098,-0.26 0.2016699,-0.3709604 0.3846699,-0.4719604 0.365,-0.202 1.1952298,-0.2468715 2.4552298,-0.2618715 H 9.99984 c 1.259,0.015 2.09023,0.059871 2.45523,0.2618715 0.184,0.1 0.28667,0.2129604 0.38467,0.4719604 0.097,0.26 0.160525,0.673712 0.160525,1.265712 v 1.534981 a 6,6 0 0 1 0.999403,1.1540097 V 2.9997635 c 0,-0.658 -0.05988,-1.1790932 -0.224884,-1.6170932 A 1.875,1.875 0 0 0 12.938126,0.38696698 c -0.753,-0.415 -1.674368,-0.37188918 -2.932368,-0.386889177041 H 4.9976515 Z M 8.9996982,5.0000471 c -2.755,0 -4.9999693,2.2449693 -4.9999693,4.9999689 0,2.755 2.2449693,4.99997 4.9999693,4.99997 1.1977768,0 2.2992958,-0.424218 3.1616908,-1.130338 l 1.984749,1.984009 0.707201,-0.707941 -1.225026,-1.224286 c 0.0544,-0.0929 0.103436,-0.190429 0.142772,-0.29442 a 6,6 0 0 1 -0.201952,0.23524 L 12.86859,13.161707 c 0.706313,-0.862453 1.131078,-1.963732 1.131078,-3.161691 0,-2.7549996 -2.24497,-4.9999689 -4.9999698,-4.9999689 z m 0,1.0400883 A 3.954,3.954 0 0 1 12.960319,10.000016 3.954,3.954 0 0 1 8.9996982,13.959897 3.952,3.952 0 0 1 5.0412967,10.000016 3.952,3.952 0 0 1 8.9996982,6.0401354 Z M 6.8566429,7.9997328 c -0.264,0.293 -0.4663204,0.6301418 -0.5903204,1.0001418 H 11.883243 A 2.978,2.978 0 0 0 11.292923,7.9997328 Z M 6.1213315,10.000016 c -0.009,0.346 0.039786,0.684142 0.159786,1.000142 h 5.5666175 c 0.123,-0.317 0.194116,-0.653142 0.190116,-1.000142 z M 6.9143434,12.0003 c 0.532,0.56 1.2710251,0.928482 2.0550251,0.939482 0.848,0.048 1.6597435,-0.335482 2.2377435,-0.939482 z" />
  </g>
</svg>
