<?xml version="1.0" encoding="UTF-8" standalone="no"?>
<svg
   width="43.354588"
   height="48.344734"
   version="1.1"
   viewBox="0 0 43.354588 48.344734"
   id="svg11"
   xmlns:xlink="http://www.w3.org/1999/xlink"
   xmlns="http://www.w3.org/2000/svg"
   xmlns:svg="http://www.w3.org/2000/svg"
   xmlns:rdf="http://www.w3.org/1999/02/22-rdf-syntax-ns#"
   xmlns:cc="http://creativecommons.org/ns#"
   xmlns:dc="http://purl.org/dc/elements/1.1/">
  <metadata
     id="metadata1">
    <rdf:RDF>
      <cc:Work
         rdf:about="">
        <dc:format>image/svg+xml</dc:format>
        <dc:type
           rdf:resource="http://purl.org/dc/dcmitype/StillImage" />
      </cc:Work>
    </rdf:RDF>
  </metadata>
  <defs
     id="defs5">
    <linearGradient
       id="linearGradient12">
      <stop
         style="stop-color:#ff3dfb;stop-opacity:0;"
         offset="0"
         id="stop13" />
      <stop
         style="stop-color:#ff3dfb;stop-opacity:1;"
         offset="1"
         id="stop12" />
    </linearGradient>
    <linearGradient
       xlink:href="#linearGradient12"
       id="linearGradient13"
       x1="32.231884"
       y1="64"
       x2="32.231884"
       y2="27.942028"
       gradientUnits="userSpaceOnUse" />
    <filter
       style="color-interpolation-filters:sRGB"
       id="filter13"
       x="-0.028642873"
       y="-0.025535363"
       width="1.0572857"
       height="1.0510707">
      <feGaussianBlur
         stdDeviation="0.48938207"
         id="feGaussianBlur13" />
    </filter>
  </defs>
  <filter
     id="i"
     x="-0.069932997"
     y="-0.054405998"
     width="1.1399"
     height="1.1088001"
     color-interpolation-filters="sRGB">
    <feGaussianBlur
       stdDeviation="1.9764485"
       id="feGaussianBlur5" />
  </filter>
  <g
     id="g13"
     transform="translate(-10.322607,-7.8235299)">
    <path
       id="path9"
       style="display:inline;opacity:0.6;fill:#ff3dfb;fill-opacity:1;-inkscape-stroke:none;paint-order:fill markers stroke;filter:url(#filter13)"
       d="m 32,8.9980469 c -9.276705,1.953e-4 -17.401699,6.2347161 -19.802734,15.1953121 -2.400978,8.960747 1.516826,18.424048 9.550781,23.0625 a 0.5,0.5 0 0 0 0.683594,-0.183593 0.5,0.5 0 0 0 -0.183594,-0.683594 C 14.601871,41.974107 10.877022,32.981358 13.162109,24.453125 15.447252,15.925035 23.171059,9.9982328 32,9.9980469 40.828941,9.9982328 48.550795,15.925035 50.835938,24.453125 53.121026,32.981358 49.396176,41.974107 41.75,46.388672 A 0.5,0.5 0 0 0 41.566406,47.072266 0.5,0.5 0 0 0 42.25,47.255859 C 50.283955,42.617407 54.203712,33.154106 51.802734,24.193359 49.401699,15.232763 41.276705,8.9982422 32,8.9980469 Z m 0,6.9980471 c -3.457704,0 -6.915621,1.317753 -9.550781,3.953125 -5.270744,5.27032 -5.270743,13.831242 0,19.101562 a 0.5,0.5 0 0 0 0.707031,0 0.5,0.5 0 0 0 0,-0.707031 c -4.888559,-4.888167 -4.888559,-12.799334 0,-17.6875 4.888167,-4.888559 12.799334,-4.888559 17.6875,0 4.888559,4.888166 4.888559,12.799333 0,17.6875 a 0.5,0.5 0 0 0 0,0.707031 0.5,0.5 0 0 0 0.707031,0 c 5.270743,-5.27032 5.270744,-13.831242 0,-19.101562 C 38.915621,17.313847 35.457704,15.996094 32,15.996094 Z m -0.06641,7.042968 c -0.04735,-2.3e-5 -0.04006,0.0077 -0.08398,0.0078 -0.79442,0.0027 -1.099478,0.02773 -1.517578,0.15625 -1.3447,0.41345 -2.555781,1.492241 -3.175781,2.806641 -0.29196,0.61899 -0.419321,1.147659 -0.457031,1.880859 -0.05905,1.1494 0.214528,2.260991 0.798828,3.150391 0.38039,0.57906 1.148287,1.332809 1.742187,1.724609 1.2627,0.83288 2.806419,1.097502 4.261719,0.726563 1.8422,-0.46951 3.245247,-1.845797 3.810547,-3.716797 0.13789,-0.45629 0.171875,-0.731807 0.171875,-1.435547 0,-0.70383 -0.03404,-0.977474 -0.171875,-1.433594 -0.56359,-1.8649 -1.938187,-3.213109 -3.804688,-3.724609 -0.416809,-0.11423 -0.724518,-0.142128 -1.574218,-0.142579 z m -0.002,1 c 0.83545,4.47e-4 0.957016,0.01052 1.310547,0.107422 1.5656,0.42906 2.638181,1.476929 3.113281,3.048828 0.12605,0.417121 0.128906,0.458532 0.128906,1.144532 0,0.686 -0.0029,0.729474 -0.128906,1.146484 -0.47438,1.5699 -1.58571,2.65131 -3.09961,3.03711 -1.182,0.301259 -2.433043,0.08882 -3.464843,-0.591797 -0.38138,-0.25163 -1.235032,-1.103307 -1.457032,-1.441407 -0.45207,-0.68813 -0.685848,-1.592628 -0.636718,-2.548828 0.03378,-0.65678 0.110061,-0.967046 0.363281,-1.503906 0.48954,-1.0379 1.541053,-1.962744 2.564453,-2.277344 0.40242,-0.12371 0.412471,-0.121554 1.306641,-0.121094 z m 0.4375,10.400391 -0.566407,0.002 c -2.3624,0.01214 -4.231331,0.811627 -5.019531,2.373047 -0.42228,0.83656 -0.499075,2.043216 -0.390625,3.916016 0.18087,3.1234 0.903536,8.631559 1.410156,10.630859 0.36546,1.4417 0.938698,2.415859 1.867188,3.00586 0.45433,0.288739 1.139334,0.492301 1.740234,0.576171 0.7297,0.1018 1.69911,0.04896 2.34961,-0.15625 1.2724,-0.40202 2.072034,-1.381971 2.490234,-2.951171 0.19337,-0.725341 0.429502,-2.202594 0.669922,-3.996094 0.24042,-1.7935 0.476486,-3.877585 0.634766,-5.708985 0.06353,-0.73493 0.09488,-1.610718 0.0957,-2.386718 8.27e-4,-0.77598 -0.0168,-1.412513 -0.09961,-1.820313 -0.1882,-0.9252 -0.592589,-1.565684 -1.355469,-2.146484 -1.1709,-0.89132 -2.224524,-1.241653 -3.828124,-1.314453 z m -0.560547,1.001953 c 0.14191,-9.45e-4 0.28853,0.0023 0.4375,0.0078 1.5493,0.05843 2.25975,0.29986 3.34375,1.125 0.65013,0.49496 0.823582,0.767988 0.982422,1.548828 0.03848,0.18952 0.07892,0.871774 0.07813,1.621094 -7.99e-4,0.74931 -0.03174,1.605981 -0.0918,2.300781 -0.15655,1.8113 -0.390596,3.884409 -0.628906,5.662109 -0.23831,1.7777 -0.489062,3.287894 -0.644532,3.871094 -0.37163,1.3943 -0.844082,1.945559 -1.826172,2.255859 -0.36407,0.11509 -1.390656,0.191611 -1.910156,0.119141 -0.43605,-0.06086 -1.165297,-0.317518 -1.341797,-0.429687 -0.67813,-0.430901 -1.102747,-1.095204 -1.435547,-2.408204 -0.45173,-1.7827 -1.203206,-7.407606 -1.378906,-10.441406 -0.10484,-1.8106 0.03156,-2.909703 0.283203,-3.408203 0.56054,-1.1104 1.990213,-1.813219 4.132813,-1.824219 z" />
    <path
       id="path12"
       style="fill:url(#linearGradient13);fill-opacity:1;-inkscape-stroke:none;paint-order:fill markers stroke"
       d="m 32,8.9980469 c -9.276705,1.953e-4 -17.401699,6.2347161 -19.802734,15.1953121 -2.400978,8.960747 1.516826,18.424048 9.550781,23.0625 a 0.5,0.5 0 0 0 0.683594,-0.183593 0.5,0.5 0 0 0 -0.183594,-0.683594 C 14.601871,41.974107 10.877022,32.981358 13.162109,24.453125 15.447252,15.925035 23.171059,9.9982328 32,9.9980469 40.828941,9.9982328 48.550795,15.925035 50.835938,24.453125 53.121026,32.981358 49.396176,41.974107 41.75,46.388672 A 0.5,0.5 0 0 0 41.566406,47.072266 0.5,0.5 0 0 0 42.25,47.255859 C 50.283955,42.617407 54.203712,33.154106 51.802734,24.193359 49.401699,15.232763 41.276705,8.9982422 32,8.9980469 Z m 0,6.9980471 c -3.457704,0 -6.915621,1.317753 -9.550781,3.953125 -5.270744,5.27032 -5.270743,13.831242 0,19.101562 a 0.5,0.5 0 0 0 0.707031,0 0.5,0.5 0 0 0 0,-0.707031 c -4.888559,-4.888167 -4.888559,-12.799334 0,-17.6875 4.888167,-4.888559 12.799334,-4.888559 17.6875,0 4.888559,4.888166 4.888559,12.799333 0,17.6875 a 0.5,0.5 0 0 0 0,0.707031 0.5,0.5 0 0 0 0.707031,0 c 5.270743,-5.27032 5.270744,-13.831242 0,-19.101562 C 38.915621,17.313847 35.457704,15.996094 32,15.996094 Z m -0.06641,7.042968 c -0.04735,-2.3e-5 -0.04006,0.0077 -0.08398,0.0078 -0.79442,0.0027 -1.099478,0.02773 -1.517578,0.15625 -1.3447,0.41345 -2.555781,1.492241 -3.175781,2.806641 -0.29196,0.61899 -0.419321,1.147659 -0.457031,1.880859 -0.05905,1.1494 0.214528,2.260991 0.798828,3.150391 0.38039,0.57906 1.148287,1.332809 1.742187,1.724609 1.2627,0.83288 2.806419,1.097502 4.261719,0.726563 1.8422,-0.46951 3.245247,-1.845797 3.810547,-3.716797 0.13789,-0.45629 0.171875,-0.731807 0.171875,-1.435547 0,-0.70383 -0.03404,-0.977474 -0.171875,-1.433594 -0.56359,-1.8649 -1.938187,-3.213109 -3.804688,-3.724609 -0.416809,-0.11423 -0.724518,-0.142128 -1.574218,-0.142579 z m -0.002,1 c 0.83545,4.47e-4 0.957016,0.01052 1.310547,0.107422 1.5656,0.42906 2.638181,1.476929 3.113281,3.048828 0.12605,0.417121 0.128906,0.458532 0.128906,1.144532 0,0.686 -0.0029,0.729474 -0.128906,1.146484 -0.47438,1.5699 -1.58571,2.65131 -3.09961,3.03711 -1.182,0.301259 -2.433043,0.08882 -3.464843,-0.591797 -0.38138,-0.25163 -1.235032,-1.103307 -1.457032,-1.441407 -0.45207,-0.68813 -0.685848,-1.592628 -0.636718,-2.548828 0.03378,-0.65678 0.110061,-0.967046 0.363281,-1.503906 0.48954,-1.0379 1.541053,-1.962744 2.564453,-2.277344 0.40242,-0.12371 0.412471,-0.121554 1.306641,-0.121094 z m 0.4375,10.400391 -0.566407,0.002 c -2.3624,0.01214 -4.231331,0.811627 -5.019531,2.373047 -0.42228,0.83656 -0.499075,2.043216 -0.390625,3.916016 0.18087,3.1234 0.903536,8.631559 1.410156,10.630859 0.36546,1.4417 0.938698,2.415859 1.867188,3.00586 0.45433,0.288739 1.139334,0.492301 1.740234,0.576171 0.7297,0.1018 1.69911,0.04896 2.34961,-0.15625 1.2724,-0.40202 2.072034,-1.381971 2.490234,-2.951171 0.19337,-0.725341 0.429502,-2.202594 0.669922,-3.996094 0.24042,-1.7935 0.476486,-3.877585 0.634766,-5.708985 0.06353,-0.73493 0.09488,-1.610718 0.0957,-2.386718 8.27e-4,-0.77598 -0.0168,-1.412513 -0.09961,-1.820313 -0.1882,-0.9252 -0.592589,-1.565684 -1.355469,-2.146484 -1.1709,-0.89132 -2.224524,-1.241653 -3.828124,-1.314453 z m -0.560547,1.001953 c 0.14191,-9.45e-4 0.28853,0.0023 0.4375,0.0078 1.5493,0.05843 2.25975,0.29986 3.34375,1.125 0.65013,0.49496 0.823582,0.767988 0.982422,1.548828 0.03848,0.18952 0.07892,0.871774 0.07813,1.621094 -7.99e-4,0.74931 -0.03174,1.605981 -0.0918,2.300781 -0.15655,1.8113 -0.390596,3.884409 -0.628906,5.662109 -0.23831,1.7777 -0.489062,3.287894 -0.644532,3.871094 -0.37163,1.3943 -0.844082,1.945559 -1.826172,2.255859 -0.36407,0.11509 -1.390656,0.191611 -1.910156,0.119141 -0.43605,-0.06086 -1.165297,-0.317518 -1.341797,-0.429687 -0.67813,-0.430901 -1.102747,-1.095204 -1.435547,-2.408204 -0.45173,-1.7827 -1.203206,-7.407606 -1.378906,-10.441406 -0.10484,-1.8106 0.03156,-2.909703 0.283203,-3.408203 0.56054,-1.1104 1.990213,-1.813219 4.132813,-1.824219 z" />
  </g>
</svg>
