<?xml version="1.0" encoding="UTF-8" standalone="no"?>
<svg
   width="47.64838"
   height="46.57177"
   version="1.1"
   viewBox="0 0 12.606719 12.321872"
   id="svg43"
   xmlns:xlink="http://www.w3.org/1999/xlink"
   xmlns="http://www.w3.org/2000/svg"
   xmlns:svg="http://www.w3.org/2000/svg"
   xmlns:rdf="http://www.w3.org/1999/02/22-rdf-syntax-ns#"
   xmlns:cc="http://creativecommons.org/ns#"
   xmlns:dc="http://purl.org/dc/elements/1.1/">
  <defs
     id="defs21">
    <linearGradient
       id="linearGradient1">
      <stop
         style="stop-color:#ff3dfb;stop-opacity:0;"
         offset="0"
         id="stop2" />
      <stop
         style="stop-color:#ff3dfb;stop-opacity:1;"
         offset="1"
         id="stop1" />
    </linearGradient>
    <linearGradient
       xlink:href="#linearGradient1"
       id="linearGradient2"
       x1="9.0002317"
       y1="17"
       x2="9.0002317"
       y2="6.8007979"
       gradientUnits="userSpaceOnUse" />
    <filter
       style="color-interpolation-filters:sRGB"
       id="filter2"
       x="-0.026678693"
       y="-0.027329141"
       width="1.0533574"
       height="1.0546583">
      <feGaussianBlur
         stdDeviation="0.13303921"
         id="feGaussianBlur3" />
    </filter>
  </defs>
  <metadata
     id="metadata23">
    <rdf:RDF>
      <cc:Work
         rdf:about="">
        <dc:format>image/svg+xml</dc:format>
        <dc:type
           rdf:resource="http://purl.org/dc/dcmitype/StillImage" />
        <dc:title />
      </cc:Work>
    </rdf:RDF>
  </metadata>
  <g
     id="g1177"
     transform="translate(-2.1636041,-2.3058286)">
    <path
       id="circle1163"
       style="display:inline;opacity:0.6;fill:#ff3dfb;fill-opacity:1;stroke-linecap:round;paint-order:stroke fill markers;filter:url(#filter2)"
       d="m 4.3016931,2.6256278 c -0.091163,-0.00166 -0.1912145,6.033e-4 -0.2955834,0.0093 C 3.5886343,2.6697193 3.0779669,2.8112208 2.7814024,3.2560679 2.4867187,3.6980922 2.3615383,4.4602941 2.6330939,5.4786275 2.7280677,5.8347795 2.8742761,6.2233366 3.0795695,6.6397741 2.8847561,7.2135702 2.7772683,7.8277245 2.7772683,8.4670168 c -2e-7,3.1400662 2.5493972,5.6873962 5.6894632,5.6873962 0.7118544,0 1.3928606,-0.131964 2.0210255,-0.37103 0.700473,0.334385 1.352701,0.525022 1.928527,0.525023 0.6158,0 1.061736,-0.1561 1.373015,-0.399968 0.31128,-0.243868 0.48348,-0.569451 0.572047,-0.88675 0.177134,-0.634597 0.03721,-1.25623 0.03721,-1.25623 a 0.13228901,0.13228901 0 0 0 -0.158126,-0.09922 0.13228901,0.13228901 0 0 0 -0.09973,0.158126 c 0,0 0.120058,0.568969 -0.03514,1.124974 -0.0776,0.278002 -0.219901,0.547202 -0.478515,0.749811 -0.258612,0.202607 -0.63917,0.343641 -1.210754,0.343641 -0.460895,-10e-7 -1.001722,-0.141844 -1.593154,-0.399968 1.964411,-0.896243 3.330998,-2.876425 3.330998,-5.1758092 0,-3.140066 -2.54733,-5.6894633 -5.6873965,-5.6894632 C 6.0969399,2.7775495 4.0642644,4.2298503 3.2092818,6.2919945 3.0676344,5.9779952 2.9592901,5.6816611 2.8868202,5.4098992 2.6292197,4.4438967 2.767583,3.7540191 3.0020564,3.4023093 3.2346478,3.0534218 3.6515545,2.9298289 4.0278134,2.898474 4.4040726,2.867119 4.7192304,2.929479 4.7192304,2.929479 A 0.13228901,0.13228901 0 0 0 4.8732232,2.8240614 0.13228901,0.13228901 0 0 0 4.7698724,2.6700687 c 0,0 -0.1946889,-0.039446 -0.4681793,-0.044441 z m 4.1650384,0.4175374 c 2.9970775,-10e-8 5.4238515,2.4267742 5.4238515,5.4238516 0,2.2768452 -1.401196,4.2228812 -3.388357,5.0275012 C 10.049732,13.27165 9.5720243,12.986704 9.0785685,12.644457 8.4014226,12.174814 7.6951549,11.599652 6.9851974,10.948987 c -0.040062,0.08521 -0.073461,0.174542 -0.0987,0.267679 0.6906073,0.627738 1.3784618,1.186379 2.0416956,1.646378 0.4234101,0.293666 0.8350278,0.544589 1.234009,0.756012 -0.5335632,0.175332 -1.1029887,0.271812 -1.6954705,0.271812 -2.9970775,0 -5.4238517,-2.426774 -5.4238515,-5.4238512 0,-0.5198181 0.074519,-1.0222513 0.2108357,-1.4980703 C 3.6048457,7.6072113 4.089806,8.3043278 4.751786,9.0555997 4.8041232,8.9815853 4.8580282,8.9087579 4.9145635,8.8380462 4.2050664,8.0268223 3.7060264,7.2833972 3.3658513,6.6191039 4.1209759,4.5325793 6.1185379,3.0431651 8.4667315,3.0431652 Z m 0,2.0933711 c -0.9831558,0 -1.7833185,0.8001627 -1.7833185,1.7833185 0,0.710082 0.4173142,1.3236417 1.0195559,1.6096892 -1.4130519,0.3434511 -2.4649173,1.61692 -2.4649173,3.134631 -9.44e-5,0.02378 0.00667,0.04579 0.01757,0.06511 a 0.13228901,0.13228901 0 0 0 0.00155,0.0026 c 0.011317,0.01904 0.026947,0.03467 0.045991,0.04599 a 0.13228901,0.13228901 0 0 0 0.00413,0.0021 c 0.018994,0.01041 0.040353,0.01714 0.063561,0.01705 0.00794,3.2e-5 0.015693,-7.56e-4 0.023254,-0.0021 a 0.13228901,0.13228901 0 0 0 0.00103,-5.16e-4 c 8.307e-4,-1.51e-4 0.00176,1.66e-4 0.00258,0 0.00251,-5.06e-4 0.00478,-0.0014 0.00723,-0.0021 a 0.13228901,0.13228901 0 0 0 0.01757,-0.0057 c 0.00128,-5.38e-4 0.00236,-0.0015 0.00362,-0.0021 a 0.13228901,0.13228901 0 0 0 0.01912,-0.01033 c 9.239e-4,-6.23e-4 0.00168,-0.0014 0.00258,-0.0021 a 0.13228901,0.13228901 0 0 0 0.017053,-0.01395 c 7.852e-4,-7.85e-4 0.0013,-0.0018 0.00207,-0.0026 a 0.13228901,0.13228901 0 0 0 0.013952,-0.01705 c 3.419e-4,-5.07e-4 6.985e-4,-10e-4 0.00103,-0.0015 a 0.13228901,0.13228901 0 0 0 0.011369,-0.02119 c 2.741e-4,-6.51e-4 2.528e-4,-0.0014 5.167e-4,-0.0021 a 0.13228901,0.13228901 0 0 0 0.00723,-0.02274 v -5.17e-4 a 0.13228901,0.13228901 0 0 0 0.00258,-0.02635 c 10e-8,-0.102367 0.0054,-0.203659 0.015503,-0.303335 0.00505,-0.04984 0.011117,-0.09924 0.018603,-0.148308 0.022457,-0.147218 0.05597,-0.290724 0.099217,-0.42994 0.014416,-0.04641 0.029906,-0.09258 0.046508,-0.137973 C 5.8328868,10.235992 6.0697754,9.8696206 6.3712691,9.5681268 6.6727123,9.2667597 7.0392541,9.0302175 7.447668,8.8808438 7.5837038,8.8311158 7.7247663,8.7904958 7.8693393,8.7609569 c 0.1445788,-0.029515 0.2934739,-0.048147 0.4449254,-0.05581 0.050373,-0.00254 0.1014318,-0.00413 0.1524424,-0.00413 0.9831558,2e-7 1.7833189,-0.7980958 1.7833189,-1.7812516 0,-0.9831559 -0.800163,-1.7833187 -1.7833189,-1.7833185 z m 0,0.2640613 c 0.8401673,-2e-7 1.5177071,0.6790899 1.517707,1.5192572 0,0.8401672 -0.6775398,1.5177072 -1.517707,1.517707 -0.8401671,0 -1.5192572,-0.6775399 -1.5192572,-1.517707 0,-0.8401672 0.67909,-1.5192572 1.5192572,-1.5192572 z m 2.1874205,3.9433509 a 0.13228901,0.13228901 0 0 0 -0.09353,0.038757 0.13228901,0.13228901 0 0 0 0,0.1875818 c 0.555667,0.5556657 0.86918,1.3080557 0.869181,2.0938877 a 0.13228901,0.13228901 0 0 0 0.130739,0.132805 0.13228901,0.13228901 0 0 0 0.132805,-0.132805 c 0,-0.855901 -0.33993,-1.6762565 -0.945143,-2.2814695 a 0.13228901,0.13228901 0 0 0 -0.09405,-0.038757 z" />
    <path
       id="path1"
       style="fill:url(#linearGradient2);fill-opacity:1;stroke-linecap:round;paint-order:stroke fill markers"
       d="m 4.3016931,2.6256278 c -0.091163,-0.00166 -0.1912145,6.033e-4 -0.2955834,0.0093 C 3.5886343,2.6697193 3.0779669,2.8112208 2.7814024,3.2560679 2.4867187,3.6980922 2.3615383,4.4602941 2.6330939,5.4786275 2.7280677,5.8347795 2.8742761,6.2233366 3.0795695,6.6397741 2.8847561,7.2135702 2.7772683,7.8277245 2.7772683,8.4670168 c -2e-7,3.1400662 2.5493972,5.6873962 5.6894632,5.6873962 0.7118544,0 1.3928606,-0.131964 2.0210255,-0.37103 0.700473,0.334385 1.352701,0.525022 1.928527,0.525023 0.6158,0 1.061736,-0.1561 1.373015,-0.399968 0.31128,-0.243868 0.48348,-0.569451 0.572047,-0.88675 0.177134,-0.634597 0.03721,-1.25623 0.03721,-1.25623 a 0.13228901,0.13228901 0 0 0 -0.158126,-0.09922 0.13228901,0.13228901 0 0 0 -0.09973,0.158126 c 0,0 0.120058,0.568969 -0.03514,1.124974 -0.0776,0.278002 -0.219901,0.547202 -0.478515,0.749811 -0.258612,0.202607 -0.63917,0.343641 -1.210754,0.343641 -0.460895,-10e-7 -1.001722,-0.141844 -1.593154,-0.399968 1.964411,-0.896243 3.330998,-2.876425 3.330998,-5.1758092 0,-3.140066 -2.54733,-5.6894633 -5.6873965,-5.6894632 C 6.0969399,2.7775495 4.0642644,4.2298503 3.2092818,6.2919945 3.0676344,5.9779952 2.9592901,5.6816611 2.8868202,5.4098992 2.6292197,4.4438967 2.767583,3.7540191 3.0020564,3.4023093 3.2346478,3.0534218 3.6515545,2.9298289 4.0278134,2.898474 4.4040726,2.867119 4.7192304,2.929479 4.7192304,2.929479 A 0.13228901,0.13228901 0 0 0 4.8732232,2.8240614 0.13228901,0.13228901 0 0 0 4.7698724,2.6700687 c 0,0 -0.1946889,-0.039446 -0.4681793,-0.044441 z m 4.1650384,0.4175374 c 2.9970775,-10e-8 5.4238515,2.4267742 5.4238515,5.4238516 0,2.2768452 -1.401196,4.2228812 -3.388357,5.0275012 C 10.049732,13.27165 9.5720243,12.986704 9.0785685,12.644457 8.4014226,12.174814 7.6951549,11.599652 6.9851974,10.948987 c -0.040062,0.08521 -0.073461,0.174542 -0.0987,0.267679 0.6906073,0.627738 1.3784618,1.186379 2.0416956,1.646378 0.4234101,0.293666 0.8350278,0.544589 1.234009,0.756012 -0.5335632,0.175332 -1.1029887,0.271812 -1.6954705,0.271812 -2.9970775,0 -5.4238517,-2.426774 -5.4238515,-5.4238512 0,-0.5198181 0.074519,-1.0222513 0.2108357,-1.4980703 C 3.6048457,7.6072113 4.089806,8.3043278 4.751786,9.0555997 4.8041232,8.9815853 4.8580282,8.9087579 4.9145635,8.8380462 4.2050664,8.0268223 3.7060264,7.2833972 3.3658513,6.6191039 4.1209759,4.5325793 6.1185379,3.0431651 8.4667315,3.0431652 Z m 0,2.0933711 c -0.9831558,0 -1.7833185,0.8001627 -1.7833185,1.7833185 0,0.710082 0.4173142,1.3236417 1.0195559,1.6096892 -1.4130519,0.3434511 -2.4649173,1.61692 -2.4649173,3.134631 -9.44e-5,0.02378 0.00667,0.04579 0.01757,0.06511 a 0.13228901,0.13228901 0 0 0 0.00155,0.0026 c 0.011317,0.01904 0.026947,0.03467 0.045991,0.04599 a 0.13228901,0.13228901 0 0 0 0.00413,0.0021 c 0.018994,0.01041 0.040353,0.01714 0.063561,0.01705 0.00794,3.2e-5 0.015693,-7.56e-4 0.023254,-0.0021 a 0.13228901,0.13228901 0 0 0 0.00103,-5.16e-4 c 8.307e-4,-1.51e-4 0.00176,1.66e-4 0.00258,0 0.00251,-5.06e-4 0.00478,-0.0014 0.00723,-0.0021 a 0.13228901,0.13228901 0 0 0 0.01757,-0.0057 c 0.00128,-5.38e-4 0.00236,-0.0015 0.00362,-0.0021 a 0.13228901,0.13228901 0 0 0 0.01912,-0.01033 c 9.239e-4,-6.23e-4 0.00168,-0.0014 0.00258,-0.0021 a 0.13228901,0.13228901 0 0 0 0.017053,-0.01395 c 7.852e-4,-7.85e-4 0.0013,-0.0018 0.00207,-0.0026 a 0.13228901,0.13228901 0 0 0 0.013952,-0.01705 c 3.419e-4,-5.07e-4 6.985e-4,-10e-4 0.00103,-0.0015 a 0.13228901,0.13228901 0 0 0 0.011369,-0.02119 c 2.741e-4,-6.51e-4 2.528e-4,-0.0014 5.167e-4,-0.0021 a 0.13228901,0.13228901 0 0 0 0.00723,-0.02274 v -5.17e-4 a 0.13228901,0.13228901 0 0 0 0.00258,-0.02635 c 10e-8,-0.102367 0.0054,-0.203659 0.015503,-0.303335 0.00505,-0.04984 0.011117,-0.09924 0.018603,-0.148308 0.022457,-0.147218 0.05597,-0.290724 0.099217,-0.42994 0.014416,-0.04641 0.029906,-0.09258 0.046508,-0.137973 C 5.8328868,10.235992 6.0697754,9.8696206 6.3712691,9.5681268 6.6727123,9.2667597 7.0392541,9.0302175 7.447668,8.8808438 7.5837038,8.8311158 7.7247663,8.7904958 7.8693393,8.7609569 c 0.1445788,-0.029515 0.2934739,-0.048147 0.4449254,-0.05581 0.050373,-0.00254 0.1014318,-0.00413 0.1524424,-0.00413 0.9831558,2e-7 1.7833189,-0.7980958 1.7833189,-1.7812516 0,-0.9831559 -0.800163,-1.7833187 -1.7833189,-1.7833185 z m 0,0.2640613 c 0.8401673,-2e-7 1.5177071,0.6790899 1.517707,1.5192572 0,0.8401672 -0.6775398,1.5177072 -1.517707,1.517707 -0.8401671,0 -1.5192572,-0.6775399 -1.5192572,-1.517707 0,-0.8401672 0.67909,-1.5192572 1.5192572,-1.5192572 z m 2.1874205,3.9433509 a 0.13228901,0.13228901 0 0 0 -0.09353,0.038757 0.13228901,0.13228901 0 0 0 0,0.1875818 c 0.555667,0.5556657 0.86918,1.3080557 0.869181,2.0938877 a 0.13228901,0.13228901 0 0 0 0.130739,0.132805 0.13228901,0.13228901 0 0 0 0.132805,-0.132805 c 0,-0.855901 -0.33993,-1.6762565 -0.945143,-2.2814695 a 0.13228901,0.13228901 0 0 0 -0.09405,-0.038757 z" />
  </g>
</svg>
