<?xml version="1.0" encoding="UTF-8" standalone="no"?>
<svg
   width="48.490177"
   height="48.490177"
   version="1.1"
   id="svg29"
   xmlns:xlink="http://www.w3.org/1999/xlink"
   xmlns="http://www.w3.org/2000/svg"
   xmlns:svg="http://www.w3.org/2000/svg"
   xmlns:rdf="http://www.w3.org/1999/02/22-rdf-syntax-ns#"
   xmlns:cc="http://creativecommons.org/ns#"
   xmlns:dc="http://purl.org/dc/elements/1.1/">
  <metadata
     id="metadata33">
    <rdf:RDF>
      <cc:Work
         rdf:about="">
        <dc:format>image/svg+xml</dc:format>
        <dc:type
           rdf:resource="http://purl.org/dc/dcmitype/StillImage" />
        <dc:title />
      </cc:Work>
    </rdf:RDF>
  </metadata>
  <defs
     id="defs7">
    <linearGradient
       id="linearGradient1">
      <stop
         style="stop-color:#ff3dfb;stop-opacity:0;"
         offset="0"
         id="stop3" />
      <stop
         style="stop-color:#ff3dfb;stop-opacity:1;"
         offset="1"
         id="stop1" />
    </linearGradient>
    <style
       type="text/css"
       id="style872" />
    <style
       id="style4"
       type="text/css" />
    <style
       id="style6"
       type="text/css" />
    <style
       id="style8"
       type="text/css" />
    <style
       type="text/css"
       id="style872-0" />
    <style
       type="text/css"
       id="style874" />
    <style
       type="text/css"
       id="style876" />
    <style
       type="text/css"
       id="style1010" />
    <style
       id="style4-6"
       type="text/css" />
    <style
       id="style6-1"
       type="text/css" />
    <style
       id="style8-8"
       type="text/css" />
    <style
       type="text/css"
       id="style1078" />
    <style
       type="text/css"
       id="style1080" />
    <style
       id="style14"
       type="text/css" />
    <style
       id="style16"
       type="text/css" />
    <style
       type="text/css"
       id="style913" />
    <linearGradient
       xlink:href="#linearGradient1"
       id="linearGradient3"
       x1="8.6106977"
       y1="16.933001"
       x2="8.6106977"
       y2="6.8981276"
       gradientUnits="userSpaceOnUse" />
    <filter
       style="color-interpolation-filters:sRGB"
       id="filter3"
       x="-0.027000001"
       y="-0.027000001"
       width="1.054"
       height="1.054">
      <feGaussianBlur
         stdDeviation="0.13693662"
         id="feGaussianBlur3" />
    </filter>
  </defs>
  <g
     id="g3"
     transform="translate(-7.7558885,-7.7558885)">
    <path
       id="rect1321"
       style="display:inline;opacity:0.6;fill:#ff3dfb;fill-opacity:1;stroke-linecap:round;paint-order:stroke fill markers;filter:url(#filter3)"
       d="m 3.175971,2.3806863 c -0.4374405,0 -0.7952847,0.3578442 -0.7952847,0.7952847 v 10.582091 c 0,0.43744 0.3578441,0.794768 0.7952847,0.794768 h 10.582091 c 0.43744,0 0.794768,-0.357328 0.794768,-0.794768 V 3.175971 c 0,-0.4374406 -0.357328,-0.7952847 -0.794768,-0.7952847 z m 0,0.2656117 h 10.582091 c 0.295439,0 0.529157,0.2342323 0.529157,0.529673 v 10.582091 c 0,0.295439 -0.233718,0.529157 -0.529157,0.529157 H 3.175971 c -0.2954407,0 -0.529673,-0.233718 -0.529673,-0.529157 V 3.175971 c 0,-0.2954408 0.2342322,-0.529673 0.529673,-0.529673 z M 9.1951233,4.046185 8.2520469,4.9892613 9.3858055,6.1230199 8.2520469,7.2567785 9.1951233,8.1998548 11.271958,6.1230199 Z m -2.078902,0.054776 c -0.2176168,0 -0.3968672,0.1792503 -0.3968672,0.3968672 0,0.2176168 0.1792504,0.3968672 0.3968672,0.3968672 0.2176169,0 0.3968672,-0.1792504 0.3968672,-0.3968672 0,-0.2176169 -0.1792503,-0.3968672 -0.3968672,-0.3968672 z m 0,0.2645781 c 0.074628,0 0.1322891,0.057661 0.1322891,0.1322891 0,0.074628 -0.057661,0.132289 -0.1322891,0.132289 -0.074628,0 -0.132289,-0.057661 -0.132289,-0.132289 0,-0.074628 0.057661,-0.1322891 0.132289,-0.1322891 z M 9.1951233,4.420315 10.897828,6.1230199 9.1951233,7.8257248 8.6261769,7.2567785 9.7599355,6.1230199 8.6261769,4.9892613 Z M 6.322487,5.9530078 c -0.3637394,0 -0.6614453,0.2977059 -0.6614453,0.6614453 0,0.3637393 0.2977059,0.6614453 0.6614453,0.6614453 0.3637393,0 0.6614453,-0.297706 0.6614453,-0.6614453 0,-0.3637394 -0.297706,-0.6614453 -0.6614453,-0.6614453 z m 0,0.2645781 c 0.2207505,0 0.3968671,0.1761167 0.3968671,0.3968672 0,0.2207504 -0.1761166,0.3968671 -0.3968671,0.3968671 -0.2207505,0 -0.3968672,-0.1761167 -0.3968672,-0.3968671 0,-0.2207505 0.1761167,-0.3968672 0.3968672,-0.3968672 z m 1.4551796,1.8520468 c -0.4368005,0 -0.7937343,0.3569339 -0.7937343,0.7937344 0,0.4368005 0.3569338,0.7937344 0.7937343,0.7937344 0.4368005,0 0.7937344,-0.3569339 0.7937344,-0.7937344 0,-0.4368005 -0.3569339,-0.7937344 -0.7937344,-0.7937344 z m 0,0.2645782 c 0.2938119,0 0.5291563,0.2353443 0.5291563,0.5291562 0,0.2938119 -0.2353444,0.5291562 -0.5291563,0.5291562 -0.2938119,0 -0.5291562,-0.2353443 -0.5291562,-0.5291562 0,-0.2938119 0.2353443,-0.5291562 0.5291562,-0.5291562 z m -4.338151,3.0421321 v 2.117141 h 2.1171417 v -2.117141 z m 2.646298,0 v 2.117141 H 8.201405 v -2.117141 z m 2.6447477,0 v 2.117141 h 2.1171417 v -2.117141 z m 2.6462977,0 v 2.117141 h 2.117142 v -2.117141 z m -7.6737988,0.265611 h 1.5879855 v 1.585919 H 3.7030602 Z m 2.646298,0 h 1.5879855 v 1.585919 H 6.3493582 Z m 2.6468147,0 h 1.5879851 v 1.585919 H 8.9961729 Z m 2.6442311,0 h 1.587985 v 1.585919 h -1.587985 z"
       transform="scale(3.779602)" />
    <path
       id="path1"
       style="fill:url(#linearGradient3);fill-opacity:1;stroke-linecap:round;paint-order:stroke fill markers"
       d="m 3.175971,2.3806863 c -0.4374405,0 -0.7952847,0.3578442 -0.7952847,0.7952847 v 10.582091 c 0,0.43744 0.3578441,0.794768 0.7952847,0.794768 h 10.582091 c 0.43744,0 0.794768,-0.357328 0.794768,-0.794768 V 3.175971 c 0,-0.4374406 -0.357328,-0.7952847 -0.794768,-0.7952847 z m 0,0.2656117 h 10.582091 c 0.295439,0 0.529157,0.2342323 0.529157,0.529673 v 10.582091 c 0,0.295439 -0.233718,0.529157 -0.529157,0.529157 H 3.175971 c -0.2954407,0 -0.529673,-0.233718 -0.529673,-0.529157 V 3.175971 c 0,-0.2954408 0.2342322,-0.529673 0.529673,-0.529673 z M 9.1951233,4.046185 8.2520469,4.9892613 9.3858055,6.1230199 8.2520469,7.2567785 9.1951233,8.1998548 11.271958,6.1230199 Z m -2.078902,0.054776 c -0.2176168,0 -0.3968672,0.1792503 -0.3968672,0.3968672 0,0.2176168 0.1792504,0.3968672 0.3968672,0.3968672 0.2176169,0 0.3968672,-0.1792504 0.3968672,-0.3968672 0,-0.2176169 -0.1792503,-0.3968672 -0.3968672,-0.3968672 z m 0,0.2645781 c 0.074628,0 0.1322891,0.057661 0.1322891,0.1322891 0,0.074628 -0.057661,0.132289 -0.1322891,0.132289 -0.074628,0 -0.132289,-0.057661 -0.132289,-0.132289 0,-0.074628 0.057661,-0.1322891 0.132289,-0.1322891 z M 9.1951233,4.420315 10.897828,6.1230199 9.1951233,7.8257248 8.6261769,7.2567785 9.7599355,6.1230199 8.6261769,4.9892613 Z M 6.322487,5.9530078 c -0.3637394,0 -0.6614453,0.2977059 -0.6614453,0.6614453 0,0.3637393 0.2977059,0.6614453 0.6614453,0.6614453 0.3637393,0 0.6614453,-0.297706 0.6614453,-0.6614453 0,-0.3637394 -0.297706,-0.6614453 -0.6614453,-0.6614453 z m 0,0.2645781 c 0.2207505,0 0.3968671,0.1761167 0.3968671,0.3968672 0,0.2207504 -0.1761166,0.3968671 -0.3968671,0.3968671 -0.2207505,0 -0.3968672,-0.1761167 -0.3968672,-0.3968671 0,-0.2207505 0.1761167,-0.3968672 0.3968672,-0.3968672 z m 1.4551796,1.8520468 c -0.4368005,0 -0.7937343,0.3569339 -0.7937343,0.7937344 0,0.4368005 0.3569338,0.7937344 0.7937343,0.7937344 0.4368005,0 0.7937344,-0.3569339 0.7937344,-0.7937344 0,-0.4368005 -0.3569339,-0.7937344 -0.7937344,-0.7937344 z m 0,0.2645782 c 0.2938119,0 0.5291563,0.2353443 0.5291563,0.5291562 0,0.2938119 -0.2353444,0.5291562 -0.5291563,0.5291562 -0.2938119,0 -0.5291562,-0.2353443 -0.5291562,-0.5291562 0,-0.2938119 0.2353443,-0.5291562 0.5291562,-0.5291562 z m -4.338151,3.0421321 v 2.117141 h 2.1171417 v -2.117141 z m 2.646298,0 v 2.117141 H 8.201405 v -2.117141 z m 2.6447477,0 v 2.117141 h 2.1171417 v -2.117141 z m 2.6462977,0 v 2.117141 h 2.117142 v -2.117141 z m -7.6737988,0.265611 h 1.5879855 v 1.585919 H 3.7030602 Z m 2.646298,0 h 1.5879855 v 1.585919 H 6.3493582 Z m 2.6468147,0 h 1.5879851 v 1.585919 H 8.9961729 Z m 2.6442311,0 h 1.587985 v 1.585919 h -1.587985 z"
       transform="scale(3.779602)" />
  </g>
</svg>
