<?xml version="1.0" encoding="UTF-8" standalone="no"?>
<svg
   width="38.932129"
   height="38.932125"
   version="1.1"
   viewBox="0 0 10.30059 10.300588"
   id="svg21"
   xmlns:xlink="http://www.w3.org/1999/xlink"
   xmlns="http://www.w3.org/2000/svg"
   xmlns:svg="http://www.w3.org/2000/svg"
   xmlns:rdf="http://www.w3.org/1999/02/22-rdf-syntax-ns#"
   xmlns:cc="http://creativecommons.org/ns#"
   xmlns:dc="http://purl.org/dc/elements/1.1/">
  <metadata
     id="metadata25">
    <rdf:RDF>
      <cc:Work
         rdf:about="">
        <dc:format>image/svg+xml</dc:format>
        <dc:type
           rdf:resource="http://purl.org/dc/dcmitype/StillImage" />
        <dc:title />
      </cc:Work>
    </rdf:RDF>
  </metadata>
  <defs
     id="defs7">
    <linearGradient
       id="linearGradient2">
      <stop
         style="stop-color:#00abff;stop-opacity:0;"
         offset="0"
         id="stop4" />
      <stop
         style="stop-color:#00abff;stop-opacity:1;"
         offset="1"
         id="stop2" />
    </linearGradient>
    <style
       type="text/css"
       id="style911" />
    <linearGradient
       xlink:href="#linearGradient2"
       id="linearGradient4"
       x1="8.0754709"
       y1="17.3472"
       x2="8.0754709"
       y2="6.304379"
       gradientUnits="userSpaceOnUse" />
    <filter
       style="color-interpolation-filters:sRGB"
       id="filter4"
       x="-0.026999999"
       y="-0.027"
       width="1.054"
       height="1.054">
      <feGaussianBlur
         stdDeviation="0.18000424"
         id="feGaussianBlur4" />
    </filter>
  </defs>
  <g
     id="g4"
     transform="translate(-1.232653,-0.47767512)">
    <path
       id="path1"
       d="m 6.9998547,-6.5067126e-5 c -1.108,0 -2.0000471,0.892047107126 -2.0000471,2.000047067126 v 7.0001649 c 0,1.1080001 0.8920471,2.0000471 2.0000471,2.0000471 H 14.00002 c 1.108,0 2.000047,-0.892047 2.000047,-2.0000471 V 1.999982 c 0,-1.10799996 -0.892047,-2.000047067126 -2.000047,-2.000047067126 z m 0,1.000023557126 H 14.00002 c 0.554,0 1.000023,0.44602351 1.000023,1.00002351 v 7.0001649 c 0,0.554 -0.446023,1.0000231 -1.000023,1.0000231 H 6.9998547 c -0.554,0 -1.0000236,-0.4460231 -1.0000236,-1.0000231 V 1.999982 c 0,-0.554 0.4460236,-1.00002351 1.0000236,-1.00002351 z M 9.5921323,1.999982 7.3264275,9.0001469 H 8.8188484 L 9.3010933,7.3402094 h 2.4027637 l 0.477169,1.6599375 h 1.492421 L 11.399281,1.999982 Z m 0.9103427,0.9822567 c 0.01589,0.11126 0.04307,0.2463082 0.08122,0.4052549 0.03815,0.1589466 0.07797,0.3182219 0.119293,0.4771686 0.04451,0.1557733 0.08538,0.2986108 0.123522,0.4289441 0.03815,0.1303393 0.06722,0.2236658 0.0863,0.2808865 l 0.4484,1.5262627 H 9.6581237 L 10.102297,4.5744928 c 0.0095,-0.034973 0.02323,-0.088481 0.0423,-0.1615944 0.02225,-0.073107 0.04648,-0.1575937 0.07191,-0.252967 0.02543,-0.095373 0.05261,-0.1973417 0.08122,-0.3054217 0.02861,-0.10808 0.05579,-0.2140518 0.08122,-0.3189585 0.02861,-0.1080867 0.05199,-0.2100551 0.07107,-0.3054217 0.02225,-0.095373 0.03974,-0.1779575 0.05245,-0.2478908 z m -8.5027381,2.017814 c -1.10800001,0 -2.00004711617,0.8920471 -2.00004711617,2.0000471 v 7.0001652 c 0,1.108 0.89204710617,2.000047 2.00004711617,2.000047 h 7.0001649 c 1.1080002,0 2.0000472,-0.892047 2.0000472,-2.000047 V 12.000218 H 9.9999253 v 2.000047 c 0,0.554 -0.4460235,1.000023 -1.0000235,1.000023 H 1.9997369 c -0.554,0 -1.00002356,-0.446023 -1.00002356,-1.000023 V 7.0000998 c 0,-0.554 0.44602356,-1.0000235 1.00002356,-1.0000235 H 2.9997604 V 5.0000527 Z M 2.1114147,7.7226211 V 12.737968 H 2.564048 v -0.745365 h 1.1235459 v -1.099856 c -0.17996,-0.2199 -0.3413994,-0.456632 -0.4534794,-0.722522 v 1.291063 H 2.564048 V 8.2539365 H 2.9997604 V 7.7226211 Z m 2.2868558,3.8088879 c -0.2619,0.79515 -0.59339,1.661168 -0.85535,2.198868 l 0.5000117,0.269888 c 0.26364,-0.63828 0.5672119,-1.474687 0.8122019,-2.226787 -0.16079,-0.06611 -0.3116736,-0.150189 -0.4568636,-0.241969 z m 1.0567085,0.413716 c -0.059049,0.35177 -0.1184289,0.737208 -0.1734389,1.007638 h 2.5305164 c -0.038462,0.23077 -0.092439,0.378412 -0.1539799,0.439942 -0.076923,0.09231 -0.1544323,0.107448 -0.2775023,0.107448 -0.13846,0 -0.4919668,-0.0082 -0.8688868,-0.03892 0.084615,0.13846 0.1386755,0.337787 0.1463655,0.483937 0.36154,0.01538 0.7221876,0.023 0.9221876,0.0076 0.22308,-0.02308 0.3691662,-0.0845 0.5076262,-0.261427 0.1,-0.12308 0.1693543,-0.338596 0.2385843,-0.738596 H 8.7655477 V 12.468926 H 8.3882122 c 0.014938,-0.12548 0.026769,-0.320668 0.039764,-0.468708 H 7.9355789 c -0.012996,0.14768 -0.023981,0.349208 -0.038918,0.468708 H 5.880539 c 0.021088,-0.14159 0.049503,-0.317259 0.07276,-0.472939 -0.17027,-0.0026 -0.3362097,-0.02112 -0.4983197,-0.05076 z m 1.4061245,0.05499 c 0.16757,0.15351 0.3146589,0.306612 0.4044089,0.431482 l 0.3062678,-0.301192 c -0.030305,-0.03879 -0.089074,-0.08765 -0.1285987,-0.13029 z"
       transform="matrix(0.61078903,0,0,0.61078903,1.4967095,0.74158195)"
       style="display:inline;opacity:0.6;fill:#00abff;fill-opacity:1;filter:url(#filter4)" />
    <path
       id="path2"
       d="m 6.9998547,-6.5067126e-5 c -1.108,0 -2.0000471,0.892047107126 -2.0000471,2.000047067126 v 7.0001649 c 0,1.1080001 0.8920471,2.0000471 2.0000471,2.0000471 H 14.00002 c 1.108,0 2.000047,-0.892047 2.000047,-2.0000471 V 1.999982 c 0,-1.10799996 -0.892047,-2.000047067126 -2.000047,-2.000047067126 z m 0,1.000023557126 H 14.00002 c 0.554,0 1.000023,0.44602351 1.000023,1.00002351 v 7.0001649 c 0,0.554 -0.446023,1.0000231 -1.000023,1.0000231 H 6.9998547 c -0.554,0 -1.0000236,-0.4460231 -1.0000236,-1.0000231 V 1.999982 c 0,-0.554 0.4460236,-1.00002351 1.0000236,-1.00002351 z M 9.5921323,1.999982 7.3264275,9.0001469 H 8.8188484 L 9.3010933,7.3402094 h 2.4027637 l 0.477169,1.6599375 h 1.492421 L 11.399281,1.999982 Z m 0.9103427,0.9822567 c 0.01589,0.11126 0.04307,0.2463082 0.08122,0.4052549 0.03815,0.1589466 0.07797,0.3182219 0.119293,0.4771686 0.04451,0.1557733 0.08538,0.2986108 0.123522,0.4289441 0.03815,0.1303393 0.06722,0.2236658 0.0863,0.2808865 l 0.4484,1.5262627 H 9.6581237 L 10.102297,4.5744928 c 0.0095,-0.034973 0.02323,-0.088481 0.0423,-0.1615944 0.02225,-0.073107 0.04648,-0.1575937 0.07191,-0.252967 0.02543,-0.095373 0.05261,-0.1973417 0.08122,-0.3054217 0.02861,-0.10808 0.05579,-0.2140518 0.08122,-0.3189585 0.02861,-0.1080867 0.05199,-0.2100551 0.07107,-0.3054217 0.02225,-0.095373 0.03974,-0.1779575 0.05245,-0.2478908 z m -8.5027381,2.017814 c -1.10800001,0 -2.00004711617,0.8920471 -2.00004711617,2.0000471 v 7.0001652 c 0,1.108 0.89204710617,2.000047 2.00004711617,2.000047 h 7.0001649 c 1.1080002,0 2.0000472,-0.892047 2.0000472,-2.000047 V 12.000218 H 9.9999253 v 2.000047 c 0,0.554 -0.4460235,1.000023 -1.0000235,1.000023 H 1.9997369 c -0.554,0 -1.00002356,-0.446023 -1.00002356,-1.000023 V 7.0000998 c 0,-0.554 0.44602356,-1.0000235 1.00002356,-1.0000235 H 2.9997604 V 5.0000527 Z M 2.1114147,7.7226211 V 12.737968 H 2.564048 v -0.745365 h 1.1235459 v -1.099856 c -0.17996,-0.2199 -0.3413994,-0.456632 -0.4534794,-0.722522 v 1.291063 H 2.564048 V 8.2539365 H 2.9997604 V 7.7226211 Z m 2.2868558,3.8088879 c -0.2619,0.79515 -0.59339,1.661168 -0.85535,2.198868 l 0.5000117,0.269888 c 0.26364,-0.63828 0.5672119,-1.474687 0.8122019,-2.226787 -0.16079,-0.06611 -0.3116736,-0.150189 -0.4568636,-0.241969 z m 1.0567085,0.413716 c -0.059049,0.35177 -0.1184289,0.737208 -0.1734389,1.007638 h 2.5305164 c -0.038462,0.23077 -0.092439,0.378412 -0.1539799,0.439942 -0.076923,0.09231 -0.1544323,0.107448 -0.2775023,0.107448 -0.13846,0 -0.4919668,-0.0082 -0.8688868,-0.03892 0.084615,0.13846 0.1386755,0.337787 0.1463655,0.483937 0.36154,0.01538 0.7221876,0.023 0.9221876,0.0076 0.22308,-0.02308 0.3691662,-0.0845 0.5076262,-0.261427 0.1,-0.12308 0.1693543,-0.338596 0.2385843,-0.738596 H 8.7655477 V 12.468926 H 8.3882122 c 0.014938,-0.12548 0.026769,-0.320668 0.039764,-0.468708 H 7.9355789 c -0.012996,0.14768 -0.023981,0.349208 -0.038918,0.468708 H 5.880539 c 0.021088,-0.14159 0.049503,-0.317259 0.07276,-0.472939 -0.17027,-0.0026 -0.3362097,-0.02112 -0.4983197,-0.05076 z m 1.4061245,0.05499 c 0.16757,0.15351 0.3146589,0.306612 0.4044089,0.431482 l 0.3062678,-0.301192 c -0.030305,-0.03879 -0.089074,-0.08765 -0.1285987,-0.13029 z"
       transform="matrix(0.61078903,0,0,0.61078903,1.4967095,0.74158195)"
       style="fill:url(#linearGradient4);fill-opacity:1" />
  </g>
</svg>
