<?xml version="1.0" encoding="UTF-8" standalone="no"?>
<svg
   width="49.154278"
   height="42.342213"
   version="1.1"
   viewBox="0 0 13.005147 11.202823"
   id="svg21"
   xmlns:xlink="http://www.w3.org/1999/xlink"
   xmlns="http://www.w3.org/2000/svg"
   xmlns:svg="http://www.w3.org/2000/svg"
   xmlns:rdf="http://www.w3.org/1999/02/22-rdf-syntax-ns#"
   xmlns:cc="http://creativecommons.org/ns#"
   xmlns:dc="http://purl.org/dc/elements/1.1/">
  <metadata
     id="metadata25">
    <rdf:RDF>
      <cc:Work
         rdf:about="">
        <dc:format>image/svg+xml</dc:format>
        <dc:type
           rdf:resource="http://purl.org/dc/dcmitype/StillImage" />
        <dc:title />
      </cc:Work>
    </rdf:RDF>
  </metadata>
  <defs
     id="defs7">
    <linearGradient
       id="linearGradient1">
      <stop
         style="stop-color:#ff3dfb;stop-opacity:0;"
         offset="0"
         id="stop3" />
      <stop
         style="stop-color:#ff3dfb;stop-opacity:1;"
         offset="1"
         id="stop1" />
    </linearGradient>
    <style
       type="text/css"
       id="style911" />
    <linearGradient
       xlink:href="#linearGradient1"
       id="linearGradient3"
       x1="8.435935"
       y1="16.479025"
       x2="8.435935"
       y2="7.00388"
       gradientUnits="userSpaceOnUse" />
    <filter
       style="color-interpolation-filters:sRGB"
       id="filter3"
       x="-0.025035418"
       y="-0.029299166"
       width="1.0500708"
       height="1.0585983">
      <feGaussianBlur
         stdDeviation="0.1291934"
         id="feGaussianBlur3" />
    </filter>
  </defs>
  <g
     id="g956"
     transform="translate(-1.9631346,-2.9409963)">
    <path
       id="path952"
       style="display:inline;opacity:0.6;fill:#ff3dfb;fill-opacity:1;stroke-width:0.0135857;filter:url(#filter3)"
       d="m 13.394268,3.2511515 c -0.03602,-4.695e-4 -0.05633,0.00103 -0.05633,0.00103 H 3.4746551 c -0.5454113,0 -0.8661146,0.3077585 -1.0236899,0.6030521 -0.1575753,0.295297 -0.1756964,0.5880698 -0.1756964,0.5880698 l -0.00207,0.00413 v 7.4743316 c 0,0.559948 0.3109417,0.883223 0.6077029,1.037126 0.2967612,0.153903 0.5896165,0.164328 0.5896165,0.164328 h 0.00207 6.4924992 c 0.7293126,0 1.1408046,0.192371 1.3730156,0.373096 0.23221,0.180725 0.281114,0.337441 0.281114,0.337441 l 0.253727,-0.08785 c 0,0 -0.08901,-0.241454 -0.37103,-0.460945 -0.282021,-0.219491 -0.760241,-0.429423 -1.5368266,-0.429423 h -6.484748 c 0,0 -0.2416549,-0.01 -0.4785143,-0.132806 C 2.7649658,12.599898 2.5408804,12.389342 2.5408804,11.921769 V 4.460873 c 0,0 0.017514,-0.2422543 0.1446912,-0.4805814 C 2.8127483,3.7419644 3.0245922,3.5177967 3.4746551,3.5177967 h 9.8767219 0.0041 c 0,0 0.259732,-0.014825 0.517788,0.1229875 0.258056,0.1378131 0.519338,0.4103179 0.519338,1.0779491 v 7.2030357 0.0021 c 0,0 -0.0026,0.218975 -0.101801,0.433557 -0.09913,0.214582 -0.267472,0.41392 -0.677464,0.41392 h -1.066581 v 0.267679 h 1.066581 c 0.50543,-1e-6 0.792047,-0.293393 0.919822,-0.56998 0.127775,-0.276587 0.125054,-0.547243 0.125054,-0.547243 V 4.7187333 c 0,-0.7419725 -0.32933,-1.1378107 -0.660411,-1.3146225 C 13.74953,3.2714666 13.502339,3.2525601 13.394268,3.2511515 Z M 8.1125236,5.4974818 6.1597097,10.678459 H 6.8909168 L 7.3839003,9.2604855 h 2.1352281 l 0.5229556,1.4179735 h 0.731207 L 8.8204768,5.4974818 Z m 0.3307227,0.6619621 h 0.016536 c 0.028584,0.1718314 0.055234,0.2926041 0.07958,0.3617279 l 0.774098,2.1538313 H 7.592669 L 8.3605656,6.5211718 c 0.030867,-0.084666 0.058445,-0.2055472 0.082681,-0.3617279 z" />
    <path
       id="path1"
       style="fill:url(#linearGradient3);fill-opacity:1;stroke-width:0.0135857"
       d="m 13.394268,3.2511515 c -0.03602,-4.695e-4 -0.05633,0.00103 -0.05633,0.00103 H 3.4746551 c -0.5454113,0 -0.8661146,0.3077585 -1.0236899,0.6030521 -0.1575753,0.295297 -0.1756964,0.5880698 -0.1756964,0.5880698 l -0.00207,0.00413 v 7.4743316 c 0,0.559948 0.3109417,0.883223 0.6077029,1.037126 0.2967612,0.153903 0.5896165,0.164328 0.5896165,0.164328 h 0.00207 6.4924992 c 0.7293126,0 1.1408046,0.192371 1.3730156,0.373096 0.23221,0.180725 0.281114,0.337441 0.281114,0.337441 l 0.253727,-0.08785 c 0,0 -0.08901,-0.241454 -0.37103,-0.460945 -0.282021,-0.219491 -0.760241,-0.429423 -1.5368266,-0.429423 h -6.484748 c 0,0 -0.2416549,-0.01 -0.4785143,-0.132806 C 2.7649658,12.599898 2.5408804,12.389342 2.5408804,11.921769 V 4.460873 c 0,0 0.017514,-0.2422543 0.1446912,-0.4805814 C 2.8127483,3.7419644 3.0245922,3.5177967 3.4746551,3.5177967 h 9.8767219 0.0041 c 0,0 0.259732,-0.014825 0.517788,0.1229875 0.258056,0.1378131 0.519338,0.4103179 0.519338,1.0779491 v 7.2030357 0.0021 c 0,0 -0.0026,0.218975 -0.101801,0.433557 -0.09913,0.214582 -0.267472,0.41392 -0.677464,0.41392 h -1.066581 v 0.267679 h 1.066581 c 0.50543,-1e-6 0.792047,-0.293393 0.919822,-0.56998 0.127775,-0.276587 0.125054,-0.547243 0.125054,-0.547243 V 4.7187333 c 0,-0.7419725 -0.32933,-1.1378107 -0.660411,-1.3146225 C 13.74953,3.2714666 13.502339,3.2525601 13.394268,3.2511515 Z M 8.1125236,5.4974818 6.1597097,10.678459 H 6.8909168 L 7.3839003,9.2604855 h 2.1352281 l 0.5229556,1.4179735 h 0.731207 L 8.8204768,5.4974818 Z m 0.3307227,0.6619621 h 0.016536 c 0.028584,0.1718314 0.055234,0.2926041 0.07958,0.3617279 l 0.774098,2.1538313 H 7.592669 L 8.3605656,6.5211718 c 0.030867,-0.084666 0.058445,-0.2055472 0.082681,-0.3617279 z" />
  </g>
</svg>
