<?xml version="1.0" encoding="UTF-8" standalone="no"?>
<svg
   width="39.106388"
   height="30.27943"
   version="1.1"
   viewBox="0 0 10.346695 8.0112749"
   id="svg12"
   xmlns:xlink="http://www.w3.org/1999/xlink"
   xmlns="http://www.w3.org/2000/svg"
   xmlns:svg="http://www.w3.org/2000/svg"
   xmlns:rdf="http://www.w3.org/1999/02/22-rdf-syntax-ns#"
   xmlns:cc="http://creativecommons.org/ns#"
   xmlns:dc="http://purl.org/dc/elements/1.1/">
  <defs
     id="defs5">
    <linearGradient
       id="linearGradient2">
      <stop
         style="stop-color:#00abff;stop-opacity:0;"
         offset="0"
         id="stop3" />
      <stop
         style="stop-color:#00abff;stop-opacity:1;"
         offset="1"
         id="stop2" />
    </linearGradient>
    <linearGradient
       xlink:href="#linearGradient2"
       id="linearGradient3"
       x1="6.3822794"
       y1="8.7565746"
       x2="6.3822794"
       y2="3.7683766"
       gradientUnits="userSpaceOnUse" />
    <filter
       style="color-interpolation-filters:sRGB"
       id="filter3"
       x="-0.023807734"
       y="-0.031180896"
       width="1.0476155"
       height="1.0623618">
      <feGaussianBlur
         stdDeviation="0.09797303"
         id="feGaussianBlur3" />
    </filter>
  </defs>
  <metadata
     id="metadata5">
    <rdf:RDF>
      <cc:Work
         rdf:about="">
        <dc:format>image/svg+xml</dc:format>
        <dc:type
           rdf:resource="http://purl.org/dc/dcmitype/StillImage" />
      </cc:Work>
    </rdf:RDF>
  </metadata>
  <g
     id="g3"
     transform="translate(-1.0452882,-0.27230675)">
    <path
       id="path1"
       style="display:inline;opacity:0.6;fill:#00abff;fill-opacity:1;stroke-width:0.617042;filter:url(#filter3)"
       d="M 3.7733388,0.50745258 C 3.5615513,0.51230856 3.3536965,0.56901114 3.1682197,0.67126365 2.3922275,1.0808069 1.870291,2.1817168 1.5605975,3.5687042 1.4276312,4.1602935 1.3390903,4.8465217 1.3017037,5.4729432 1.2643159,6.099426 1.2709281,6.6500335 1.364231,7.0345743 v 0.00155 c 0.073886,0.299387 0.1795064,0.5477529 0.3627614,0.7337912 0.1832553,0.1860071 0.444277,0.2785305 0.7084699,0.2785305 h 0.00258 0.00258 C 2.855343,8.0413031 3.2469614,7.8257008 3.606944,7.5130887 3.9594959,7.2069237 4.2823662,6.7954337 4.5376182,6.3230038 4.7853898,5.9693671 5.4970771,5.7292897 6.2077677,5.7525072 h 0.010852 0.010852 C 6.9360416,5.7278527 7.6462048,5.9671246 7.897037,6.318353 8.1526457,6.7927104 8.4766341,7.2058658 8.830295,7.5130887 9.1902093,7.8257439 9.5820811,8.0413067 9.9966091,8.048446 h 0.00258 0.00258 c 0.264217,0 0.525122,-0.09251 0.70847,-0.2785305 0.183381,-0.1860189 0.28812,-0.4342046 0.361728,-0.7337909 h 10e-4 C 11.166688,6.6513869 11.172785,6.099426 11.135535,5.4729432 11.098345,4.8464602 11.009288,4.160201 10.876641,3.5687042 10.565628,2.1810996 10.044779,1.0792673 9.2679858,0.67023014 8.8740967,0.45990511 8.4299613,0.45826135 8.1021884,0.6909003 v 0.001034 h -0.00103 C 7.8763353,0.85234047 7.2975177,1.0856619 6.2186195,1.0862172 5.1408319,1.0873278 4.5615515,0.85279036 4.3360841,0.69193381 4.1753388,0.57163782 3.9789312,0.5064873 3.7779896,0.50745258 h -0.00207 z m 4.903997,0.60305212 c 0.077393,0.00108 0.1686159,0.033411 0.3012676,0.1043843 l 0.00103,0.00155 c 0.4229309,0.2226858 1.0049382,1.1906704 1.2955026,2.4871377 0.123031,0.5486433 0.209585,1.2117439 0.244941,1.8065725 0.03536,0.5948226 0.01199,1.1363877 -0.04702,1.3787001 -0.05887,0.239579 -0.135612,0.3806185 -0.202567,0.4485426 -0.06633,0.067288 -0.124888,0.092 -0.266128,0.092499 C 9.8143389,7.4258968 9.5262848,7.3006455 9.2354302,7.0480099 8.9436678,6.7945784 8.6519891,6.426285 8.4277435,6.0041665 l -0.00827,-0.015503 -0.010852,-0.015503 C 7.9594654,5.3266356 7.0626715,5.1092629 6.2186195,5.1365363 5.3750612,5.1108703 4.4785858,5.3261865 4.0291321,5.9731613 l -0.010852,0.015503 -0.00878,0.015503 C 3.7852595,6.4262562 3.4941495,6.7945905 3.2023255,7.0480099 2.9114212,7.3006392 2.6227319,7.4258557 2.4323618,7.4298912 2.2923489,7.4292124 2.2317586,7.4044275 2.1657167,7.3373922 2.0989959,7.2696717 2.0237809,7.1282095 1.9646993,6.8898831 1.9058655,6.6473915 1.8821776,6.1049782 1.9176747,5.5101495 1.9531743,4.9153208 2.0403522,4.2521276 2.1636496,3.703577 2.4530796,2.4072947 3.0345578,1.4391298 3.457602,1.2164393 l 0.00362,-0.00258 0.00258,-0.00103 c 0.097937,-0.054482 0.2084006,-0.083632 0.3203876,-0.086815 0.066826,2.801e-4 0.1313917,0.02081 0.1844812,0.061494 l 0.00465,0.00362 0.00362,0.00362 C 4.3611817,1.4688761 5.0542609,1.7044249 6.2186195,1.7032217 7.3823613,1.7026214 8.074231,1.469122 8.4592655,1.1947356 8.5364663,1.1399365 8.5999424,1.1094292 8.6773358,1.1105047 Z M 3.7707551,2.4364958 v 0.6170045 h -0.611837 v 0.6170045 h 0.611837 V 4.288026 H 4.3831087 V 3.6705048 h 0.611837 V 3.0535003 H 4.3831087 V 2.4364958 Z m 4.5903271,0 c -0.1690702,0 -0.3059184,0.1381977 -0.3059184,0.3085023 -6.85e-4,0.1697102 0.1362061,0.3078233 0.3059184,0.3085022 0.1690705,0 0.3059185,-0.1381974 0.3059185,-0.3085022 0,-0.1703049 -0.1368498,-0.3085023 -0.3059185,-0.3085023 z M 7.7487285,3.0535003 c -0.1690704,0 -0.3059184,0.1381998 -0.3059184,0.3085022 -6.847e-4,0.1697124 0.1362061,0.3078237 0.3059184,0.3085023 0.1690705,0 0.3064353,-0.1381977 0.3064353,-0.3085023 0,-0.1703048 -0.1373666,-0.3085022 -0.3064353,-0.3085022 z m 1.2247074,0 c -0.1690703,0 -0.3064352,0.1381998 -0.3064352,0.3085022 -6.851e-4,0.1697124 0.1367229,0.3078237 0.3064352,0.3085023 0.1690705,0 0.3059185,-0.1381977 0.3059185,-0.3085023 0,-0.1703048 -0.1368499,-0.3085022 -0.3059185,-0.3085022 z M 8.3610822,3.6705048 c -0.1690702,0 -0.3059184,0.1387142 -0.3059184,0.3090189 -6.85e-4,0.1697122 0.1362061,0.3078236 0.3059184,0.3085023 0.1690705,0 0.3059185,-0.1382001 0.3059185,-0.3085023 0,-0.1703027 -0.1368498,-0.3090189 -0.3059185,-0.3090189 z" />
    <path
       id="path2"
       style="fill:url(#linearGradient3);fill-opacity:1;stroke-width:0.617042"
       d="M 3.7733388,0.50745258 C 3.5615513,0.51230856 3.3536965,0.56901114 3.1682197,0.67126365 2.3922275,1.0808069 1.870291,2.1817168 1.5605975,3.5687042 1.4276312,4.1602935 1.3390903,4.8465217 1.3017037,5.4729432 1.2643159,6.099426 1.2709281,6.6500335 1.364231,7.0345743 v 0.00155 c 0.073886,0.299387 0.1795064,0.5477529 0.3627614,0.7337912 0.1832553,0.1860071 0.444277,0.2785305 0.7084699,0.2785305 h 0.00258 0.00258 C 2.855343,8.0413031 3.2469614,7.8257008 3.606944,7.5130887 3.9594959,7.2069237 4.2823662,6.7954337 4.5376182,6.3230038 4.7853898,5.9693671 5.4970771,5.7292897 6.2077677,5.7525072 h 0.010852 0.010852 C 6.9360416,5.7278527 7.6462048,5.9671246 7.897037,6.318353 8.1526457,6.7927104 8.4766341,7.2058658 8.830295,7.5130887 9.1902093,7.8257439 9.5820811,8.0413067 9.9966091,8.048446 h 0.00258 0.00258 c 0.264217,0 0.525122,-0.09251 0.70847,-0.2785305 0.183381,-0.1860189 0.28812,-0.4342046 0.361728,-0.7337909 h 10e-4 C 11.166688,6.6513869 11.172785,6.099426 11.135535,5.4729432 11.098345,4.8464602 11.009288,4.160201 10.876641,3.5687042 10.565628,2.1810996 10.044779,1.0792673 9.2679858,0.67023014 8.8740967,0.45990511 8.4299613,0.45826135 8.1021884,0.6909003 v 0.001034 h -0.00103 C 7.8763353,0.85234047 7.2975177,1.0856619 6.2186195,1.0862172 5.1408319,1.0873278 4.5615515,0.85279036 4.3360841,0.69193381 4.1753388,0.57163782 3.9789312,0.5064873 3.7779896,0.50745258 h -0.00207 z m 4.903997,0.60305212 c 0.077393,0.00108 0.1686159,0.033411 0.3012676,0.1043843 l 0.00103,0.00155 c 0.4229309,0.2226858 1.0049382,1.1906704 1.2955026,2.4871377 0.123031,0.5486433 0.209585,1.2117439 0.244941,1.8065725 0.03536,0.5948226 0.01199,1.1363877 -0.04702,1.3787001 -0.05887,0.239579 -0.135612,0.3806185 -0.202567,0.4485426 -0.06633,0.067288 -0.124888,0.092 -0.266128,0.092499 C 9.8143389,7.4258968 9.5262848,7.3006455 9.2354302,7.0480099 8.9436678,6.7945784 8.6519891,6.426285 8.4277435,6.0041665 l -0.00827,-0.015503 -0.010852,-0.015503 C 7.9594654,5.3266356 7.0626715,5.1092629 6.2186195,5.1365363 5.3750612,5.1108703 4.4785858,5.3261865 4.0291321,5.9731613 l -0.010852,0.015503 -0.00878,0.015503 C 3.7852595,6.4262562 3.4941495,6.7945905 3.2023255,7.0480099 2.9114212,7.3006392 2.6227319,7.4258557 2.4323618,7.4298912 2.2923489,7.4292124 2.2317586,7.4044275 2.1657167,7.3373922 2.0989959,7.2696717 2.0237809,7.1282095 1.9646993,6.8898831 1.9058655,6.6473915 1.8821776,6.1049782 1.9176747,5.5101495 1.9531743,4.9153208 2.0403522,4.2521276 2.1636496,3.703577 2.4530796,2.4072947 3.0345578,1.4391298 3.457602,1.2164393 l 0.00362,-0.00258 0.00258,-0.00103 c 0.097937,-0.054482 0.2084006,-0.083632 0.3203876,-0.086815 0.066826,2.801e-4 0.1313917,0.02081 0.1844812,0.061494 l 0.00465,0.00362 0.00362,0.00362 C 4.3611817,1.4688761 5.0542609,1.7044249 6.2186195,1.7032217 7.3823613,1.7026214 8.074231,1.469122 8.4592655,1.1947356 8.5364663,1.1399365 8.5999424,1.1094292 8.6773358,1.1105047 Z M 3.7707551,2.4364958 v 0.6170045 h -0.611837 v 0.6170045 h 0.611837 V 4.288026 H 4.3831087 V 3.6705048 h 0.611837 V 3.0535003 H 4.3831087 V 2.4364958 Z m 4.5903271,0 c -0.1690702,0 -0.3059184,0.1381977 -0.3059184,0.3085023 -6.85e-4,0.1697102 0.1362061,0.3078233 0.3059184,0.3085022 0.1690705,0 0.3059185,-0.1381974 0.3059185,-0.3085022 0,-0.1703049 -0.1368498,-0.3085023 -0.3059185,-0.3085023 z M 7.7487285,3.0535003 c -0.1690704,0 -0.3059184,0.1381998 -0.3059184,0.3085022 -6.847e-4,0.1697124 0.1362061,0.3078237 0.3059184,0.3085023 0.1690705,0 0.3064353,-0.1381977 0.3064353,-0.3085023 0,-0.1703048 -0.1373666,-0.3085022 -0.3064353,-0.3085022 z m 1.2247074,0 c -0.1690703,0 -0.3064352,0.1381998 -0.3064352,0.3085022 -6.851e-4,0.1697124 0.1367229,0.3078237 0.3064352,0.3085023 0.1690705,0 0.3059185,-0.1381977 0.3059185,-0.3085023 0,-0.1703048 -0.1368499,-0.3085022 -0.3059185,-0.3085022 z M 8.3610822,3.6705048 c -0.1690702,0 -0.3059184,0.1387142 -0.3059184,0.3090189 -6.85e-4,0.1697122 0.1362061,0.3078236 0.3059184,0.3085023 0.1690705,0 0.3059185,-0.1382001 0.3059185,-0.3085023 0,-0.1703027 -0.1368498,-0.3090189 -0.3059185,-0.3090189 z" />
  </g>
</svg>
