<?xml version="1.0" encoding="UTF-8" standalone="no"?>
<svg
   id="svg46"
   viewBox="0 0 10.857891 11.346368"
   version="1.1"
   height="42.884754"
   width="41.038506"
   xmlns:xlink="http://www.w3.org/1999/xlink"
   xmlns="http://www.w3.org/2000/svg"
   xmlns:svg="http://www.w3.org/2000/svg"
   xmlns:rdf="http://www.w3.org/1999/02/22-rdf-syntax-ns#"
   xmlns:cc="http://creativecommons.org/ns#"
   xmlns:dc="http://purl.org/dc/elements/1.1/">
  <metadata
     id="metadata2">
    <rdf:RDF>
      <cc:Work
         rdf:about="">
        <dc:format>image/svg+xml</dc:format>
        <dc:type
           rdf:resource="http://purl.org/dc/dcmitype/StillImage" />
        <dc:title />
      </cc:Work>
    </rdf:RDF>
  </metadata>
  <defs
     id="defs14">
    <linearGradient
       id="linearGradient2">
      <stop
         style="stop-color:#00abff;stop-opacity:0;"
         offset="0"
         id="stop3" />
      <stop
         style="stop-color:#00abff;stop-opacity:1;"
         offset="1"
         id="stop2" />
    </linearGradient>
    <style
       id="style4"
       type="text/css" />
    <style
       id="style4-6"
       type="text/css" />
    <style
       id="style6"
       type="text/css" />
    <style
       id="style8"
       type="text/css" />
    <style
       type="text/css"
       id="style872" />
    <style
       type="text/css"
       id="style874" />
    <style
       type="text/css"
       id="style876" />
    <style
       type="text/css"
       id="style886" />
    <linearGradient
       xlink:href="#linearGradient2"
       id="linearGradient3"
       x1="6.1711397"
       y1="12.628613"
       x2="6.1711397"
       y2="5.0344424"
       gradientUnits="userSpaceOnUse" />
    <filter
       style="color-interpolation-filters:sRGB"
       id="filter3"
       x="-0.027640914"
       y="-0.026388134"
       width="1.0552818"
       height="1.0527763">
      <feGaussianBlur
         stdDeviation="0.11849996"
         id="feGaussianBlur3" />
    </filter>
  </defs>
  <g
     id="g3"
     transform="translate(-0.3930648,-0.57275256)">
    <path
       id="path1"
       d="m 1.9803381,1.1895333 c -0.4589064,0.00364 -0.7539443,0.054776 -0.7539443,0.054776 L 0.91014027,1.3006354 V 1.625157 5.3028964 H 1.6795872 V 2.0018708 c 0.1594054,-0.025514 0.4237448,-0.076646 1.0701979,-0.00207 0.7876554,0.09086 1.8154713,0.3992455 2.7992573,1.1037869 l -0.00207,7.6407273 C 4.9830288,10.367459 3.5878613,9.6049865 1.6795872,9.7986577 V 9.1697678 H 0.91014027 V 10.632699 L 1.369018,10.542784 c 2.2242594,-0.444853 4.3218453,1.144892 4.3241988,1.146677 l 0.3596609,0.277497 0.3591442,-0.277497 c 0,0 2.1007683,-1.591776 4.3262661,-1.146677 l 0.460944,0.08992 V 9.1697678 H 10.427718 V 9.7986577 C 8.5198835,9.6050826 7.1262307,10.36745 6.5623973,10.744318 L 6.5603303,3.1035907 C 7.5441049,2.3990683 8.5698742,2.0906622 9.3575206,1.9998038 c 0.6474684,-0.074692 0.9112444,-0.023448 1.0701974,0.00207 v 3.3010256 h 0.771514 V 1.625157 1.3006354 l -0.320387,-0.056326 c 0,0 -0.379721,-0.065729 -0.9590958,-0.052709 -0.192412,0.00432 -0.4091682,0.015974 -0.6443925,0.042891 C 8.3702853,1.3380681 7.196271,1.6751971 6.0704474,2.4958878 l -0.015503,-0.011369 -0.013952,0.011369 C 4.9144436,1.6741956 3.7353773,1.3381163 2.829882,1.2344909 2.5947408,1.207581 2.379979,1.1959239 2.1875566,1.1916003 2.1159586,1.1899914 2.0467617,1.1890066 1.9803381,1.1895333 Z M 0.91014027,5.7540228 V 8.7186415 H 1.6795872 V 5.7540228 Z m 9.51757773,0 v 2.9646187 h 0.771514 V 5.7540228 Z"
       transform="translate(-0.23267556,-0.33223809)"
       style="display:inline;opacity:0.6;fill:#00abff;fill-opacity:1;stroke:none;stroke-opacity:1;filter:url(#filter3)" />
    <path
       id="path2"
       d="m 1.9803381,1.1895333 c -0.4589064,0.00364 -0.7539443,0.054776 -0.7539443,0.054776 L 0.91014027,1.3006354 V 1.625157 5.3028964 H 1.6795872 V 2.0018708 c 0.1594054,-0.025514 0.4237448,-0.076646 1.0701979,-0.00207 0.7876554,0.09086 1.8154713,0.3992455 2.7992573,1.1037869 l -0.00207,7.6407273 C 4.9830288,10.367459 3.5878613,9.6049865 1.6795872,9.7986577 V 9.1697678 H 0.91014027 V 10.632699 L 1.369018,10.542784 c 2.2242594,-0.444853 4.3218453,1.144892 4.3241988,1.146677 l 0.3596609,0.277497 0.3591442,-0.277497 c 0,0 2.1007683,-1.591776 4.3262661,-1.146677 l 0.460944,0.08992 V 9.1697678 H 10.427718 V 9.7986577 C 8.5198835,9.6050826 7.1262307,10.36745 6.5623973,10.744318 L 6.5603303,3.1035907 C 7.5441049,2.3990683 8.5698742,2.0906622 9.3575206,1.9998038 c 0.6474684,-0.074692 0.9112444,-0.023448 1.0701974,0.00207 v 3.3010256 h 0.771514 V 1.625157 1.3006354 l -0.320387,-0.056326 c 0,0 -0.379721,-0.065729 -0.9590958,-0.052709 -0.192412,0.00432 -0.4091682,0.015974 -0.6443925,0.042891 C 8.3702853,1.3380681 7.196271,1.6751971 6.0704474,2.4958878 l -0.015503,-0.011369 -0.013952,0.011369 C 4.9144436,1.6741956 3.7353773,1.3381163 2.829882,1.2344909 2.5947408,1.207581 2.379979,1.1959239 2.1875566,1.1916003 2.1159586,1.1899914 2.0467617,1.1890066 1.9803381,1.1895333 Z M 0.91014027,5.7540228 V 8.7186415 H 1.6795872 V 5.7540228 Z m 9.51757773,0 v 2.9646187 h 0.771514 V 5.7540228 Z"
       transform="translate(-0.23267556,-0.33223809)"
       style="fill:url(#linearGradient3);fill-opacity:1;stroke:none;stroke-opacity:1" />
  </g>
</svg>
