<?xml version="1.0" encoding="UTF-8" standalone="no"?>
<svg
   width="49.01651"
   height="48.540138"
   version="1.1"
   viewBox="0 0 12.968696 12.842659"
   id="svg62"
   xmlns:xlink="http://www.w3.org/1999/xlink"
   xmlns="http://www.w3.org/2000/svg"
   xmlns:svg="http://www.w3.org/2000/svg"
   xmlns:rdf="http://www.w3.org/1999/02/22-rdf-syntax-ns#"
   xmlns:cc="http://creativecommons.org/ns#"
   xmlns:dc="http://purl.org/dc/elements/1.1/">
  <defs
     id="defs38">
    <linearGradient
       id="linearGradient1">
      <stop
         style="stop-color:#ff3dfb;stop-opacity:0;"
         offset="0"
         id="stop2" />
      <stop
         style="stop-color:#ff3dfb;stop-opacity:1;"
         offset="1"
         id="stop1" />
    </linearGradient>
    <style
       type="text/css"
       id="style861" />
    <linearGradient
       xlink:href="#linearGradient1"
       id="linearGradient2"
       x1="8.2424564"
       y1="16.933001"
       x2="8.2424564"
       y2="7.3550897"
       gradientUnits="userSpaceOnUse" />
    <filter
       style="color-interpolation-filters:sRGB"
       id="filter2"
       x="-0.02686175"
       y="-0.027139683"
       width="1.0537235"
       height="1.0542794">
      <feGaussianBlur
         stdDeviation="0.13775035"
         id="feGaussianBlur3" />
    </filter>
  </defs>
  <metadata
     id="metadata40">
    <rdf:RDF>
      <cc:Work
         rdf:about="">
        <dc:format>image/svg+xml</dc:format>
        <dc:type
           rdf:resource="http://purl.org/dc/dcmitype/StillImage" />
        <dc:title />
      </cc:Work>
    </rdf:RDF>
  </metadata>
  <g
     id="g1160"
     transform="translate(-1.651716,-2.3100022)">
    <path
       id="path1138"
       style="display:inline;opacity:0.6;fill:#ff3dfb;fill-opacity:1;stroke-linecap:round;stroke-linejoin:round;paint-order:stroke fill markers;filter:url(#filter2)"
       d="M 8.3745656,2.6411305 C 7.9528803,2.6468073 7.5290459,2.6979195 7.1111017,2.7966735 5.4779908,3.1825533 4.0929214,4.2526866 3.3046907,5.72977 3.2090157,5.6999065 3.1071711,5.6837789 3.0018727,5.6837789 c -0.5615914,0 -1.0195559,0.4579645 -1.0195559,1.0195559 0,0.4461747 0.2894293,0.8266074 0.6898668,0.9642633 -0.2560059,1.8280553 0.3679117,3.6720379 1.6851353,4.9691079 1.3079537,1.287942 3.1432622,1.884212 4.9546388,1.61434 0.1669238,0.337899 0.5157843,0.571013 0.9167223,0.571013 0.561591,-10e-7 1.019555,-0.457964 1.019555,-1.019556 0,-0.06587 -0.0071,-0.129785 -0.01912,-0.192232 1.463995,-0.79221 2.523476,-2.171775 2.905708,-3.7940092 0.378946,-1.6082931 0.05482,-3.2993436 -0.882616,-4.6559549 0.184269,-0.1845595 0.298684,-0.4387889 0.298684,-0.718805 0,-0.5615912 -0.460032,-1.0195557 -1.021623,-1.0195559 -0.275986,-2e-7 -0.526666,0.1107559 -0.710537,0.2898991 C 11.153887,3.2421473 10.408082,2.9202768 9.6271777,2.7599839 9.2162381,2.6756322 8.7962509,2.6354537 8.3745656,2.6411305 Z m 0.0031,0.2645781 C 9.5402984,2.8899874 10.688153,3.2406183 11.654404,3.9190635 11.583788,4.0367501 11.536672,4.1698373 11.518498,4.3117966 8.4673858,4.3762116 4.7943362,6.1073313 4.0007585,6.4992169 3.9444039,6.2235931 3.7762191,5.9879931 3.5460149,5.8419057 4.2997844,4.4386458 5.6178541,3.421774 7.1720787,3.0545338 7.5711192,2.9602464 7.9750085,2.9111533 8.3776656,2.9057086 Z m 4.1516024,0.779782 c 0.418603,10e-8 0.756011,0.3374086 0.756011,0.7560113 0,0.4186028 -0.337408,0.7560112 -0.756011,0.7560113 -0.418603,3e-7 -0.753944,-0.3374082 -0.753944,-0.7560113 0,-0.1673722 0.05411,-0.3214708 0.145208,-0.4464756 a 0.13228901,0.13228901 0 0 0 0.03049,-0.024287 0.13228901,0.13228901 0 0 0 0.0186,-0.037206 c 0.137615,-0.1526248 0.336736,-0.2480422 0.559645,-0.248042 z m -1.010254,0.8919177 c 0.06124,0.4562758 0.426117,0.8182385 0.883649,0.8753815 0.01583,0.5499834 -0.009,3.5991466 -2.253048,7.3337752 -0.2799295,0.02155 -0.5288858,0.15692 -0.7007181,0.359661 C 9.3028961,13.09156 8.6362477,12.819457 7.6583444,12.038821 6.5772458,11.175807 5.1670361,9.7090566 3.8328134,7.2919178 3.9361672,7.1465874 4.0026087,6.9734695 4.0178114,6.7860155 4.3721142,6.6078933 8.3413813,4.647583 11.519014,4.5774083 Z M 9.9744365,5.2481552 6.7989822,8.4220591 v 1.9626319 h 1.708906 L 11.841986,7.0490434 11.656471,6.8635286 8.3983363,10.11908 H 7.0645939 V 8.5331613 L 9.9744365,5.6228019 10.894776,6.5431411 11.081841,6.3555593 Z m 3.0695195,0.072862 c 0.889276,1.2934397 1.193823,2.9034409 0.833008,4.4347841 -0.361397,1.5338117 -1.356419,2.8389067 -2.733113,3.5986767 -0.135704,-0.275642 -0.392588,-0.481167 -0.700202,-0.54776 2.18152,-3.6925709 2.236083,-6.74243 2.22256,-7.354962 0.136034,-0.018388 0.26389,-0.064003 0.377747,-0.1307388 z M 3.0018727,5.9473235 c 0.1068714,0 0.2084154,0.022304 0.3002342,0.06201 a 0.13228901,0.13228901 0 0 0 0.00465,0.00413 0.13228901,0.13228901 0 0 0 0.00878,0.00207 c 0.2605566,0.1188402 0.4402745,0.3813308 0.4402745,0.6877997 0,0.4186028 -0.3353415,0.7539443 -0.7539443,0.7539443 -0.4186028,1e-7 -0.7560113,-0.3353415 -0.7560113,-0.7539443 0,-0.4186028 0.3374085,-0.7560113 0.7560113,-0.7560113 z M 9.880904,6.6092856 8.1053367,8.3848528 8.2929185,8.5703676 10.068486,6.7968673 Z M 3.6431646,7.4950022 c 1.3382596,2.4021396 2.7526265,3.8760018 3.8487849,4.7510378 0.8913851,0.71157 1.5608389,1.022866 1.8112233,1.126007 -0.061572,0.130926 -0.096116,0.276731 -0.096116,0.430456 -10e-8,0.06604 0.00647,0.13067 0.018603,0.193266 C 7.5118382,14.23593 5.7800651,13.667426 4.5428336,12.449124 3.2886308,11.214111 2.6929942,9.460443 2.9321109,7.7197903 c 0.023131,0.00158 0.046241,0.0031 0.069762,0.0031 0.2425664,0 0.4659489,-0.08557 0.6412917,-0.2278881 z M 10.22868,13.047009 c 0.418602,0 0.753944,0.336892 0.753944,0.755494 0,0.418603 -0.335341,0.753944 -0.753944,0.753945 -0.3159289,0 -0.5854076,-0.190917 -0.6986521,-0.464562 a 0.13228901,0.13228901 0 0 0 -5.167e-4,-0.0098 0.13228901,0.13228901 0 0 0 -0.018086,-0.03979 c -0.025019,-0.07516 -0.038757,-0.155902 -0.038757,-0.239774 1e-7,-0.418603 0.337408,-0.755494 0.7560118,-0.755494 z" />
    <path
       id="path1"
       style="fill:url(#linearGradient2);fill-opacity:1;stroke-linecap:round;stroke-linejoin:round;paint-order:stroke fill markers"
       d="M 8.3745656,2.6411305 C 7.9528803,2.6468073 7.5290459,2.6979195 7.1111017,2.7966735 5.4779908,3.1825533 4.0929214,4.2526866 3.3046907,5.72977 3.2090157,5.6999065 3.1071711,5.6837789 3.0018727,5.6837789 c -0.5615914,0 -1.0195559,0.4579645 -1.0195559,1.0195559 0,0.4461747 0.2894293,0.8266074 0.6898668,0.9642633 -0.2560059,1.8280553 0.3679117,3.6720379 1.6851353,4.9691079 1.3079537,1.287942 3.1432622,1.884212 4.9546388,1.61434 0.1669238,0.337899 0.5157843,0.571013 0.9167223,0.571013 0.561591,-10e-7 1.019555,-0.457964 1.019555,-1.019556 0,-0.06587 -0.0071,-0.129785 -0.01912,-0.192232 1.463995,-0.79221 2.523476,-2.171775 2.905708,-3.7940092 0.378946,-1.6082931 0.05482,-3.2993436 -0.882616,-4.6559549 0.184269,-0.1845595 0.298684,-0.4387889 0.298684,-0.718805 0,-0.5615912 -0.460032,-1.0195557 -1.021623,-1.0195559 -0.275986,-2e-7 -0.526666,0.1107559 -0.710537,0.2898991 C 11.153887,3.2421473 10.408082,2.9202768 9.6271777,2.7599839 9.2162381,2.6756322 8.7962509,2.6354537 8.3745656,2.6411305 Z m 0.0031,0.2645781 C 9.5402984,2.8899874 10.688153,3.2406183 11.654404,3.9190635 11.583788,4.0367501 11.536672,4.1698373 11.518498,4.3117966 8.4673858,4.3762116 4.7943362,6.1073313 4.0007585,6.4992169 3.9444039,6.2235931 3.7762191,5.9879931 3.5460149,5.8419057 4.2997844,4.4386458 5.6178541,3.421774 7.1720787,3.0545338 7.5711192,2.9602464 7.9750085,2.9111533 8.3776656,2.9057086 Z m 4.1516024,0.779782 c 0.418603,10e-8 0.756011,0.3374086 0.756011,0.7560113 0,0.4186028 -0.337408,0.7560112 -0.756011,0.7560113 -0.418603,3e-7 -0.753944,-0.3374082 -0.753944,-0.7560113 0,-0.1673722 0.05411,-0.3214708 0.145208,-0.4464756 a 0.13228901,0.13228901 0 0 0 0.03049,-0.024287 0.13228901,0.13228901 0 0 0 0.0186,-0.037206 c 0.137615,-0.1526248 0.336736,-0.2480422 0.559645,-0.248042 z m -1.010254,0.8919177 c 0.06124,0.4562758 0.426117,0.8182385 0.883649,0.8753815 0.01583,0.5499834 -0.009,3.5991466 -2.253048,7.3337752 -0.2799295,0.02155 -0.5288858,0.15692 -0.7007181,0.359661 C 9.3028961,13.09156 8.6362477,12.819457 7.6583444,12.038821 6.5772458,11.175807 5.1670361,9.7090566 3.8328134,7.2919178 3.9361672,7.1465874 4.0026087,6.9734695 4.0178114,6.7860155 4.3721142,6.6078933 8.3413813,4.647583 11.519014,4.5774083 Z M 9.9744365,5.2481552 6.7989822,8.4220591 v 1.9626319 h 1.708906 L 11.841986,7.0490434 11.656471,6.8635286 8.3983363,10.11908 H 7.0645939 V 8.5331613 L 9.9744365,5.6228019 10.894776,6.5431411 11.081841,6.3555593 Z m 3.0695195,0.072862 c 0.889276,1.2934397 1.193823,2.9034409 0.833008,4.4347841 -0.361397,1.5338117 -1.356419,2.8389067 -2.733113,3.5986767 -0.135704,-0.275642 -0.392588,-0.481167 -0.700202,-0.54776 2.18152,-3.6925709 2.236083,-6.74243 2.22256,-7.354962 0.136034,-0.018388 0.26389,-0.064003 0.377747,-0.1307388 z M 3.0018727,5.9473235 c 0.1068714,0 0.2084154,0.022304 0.3002342,0.06201 a 0.13228901,0.13228901 0 0 0 0.00465,0.00413 0.13228901,0.13228901 0 0 0 0.00878,0.00207 c 0.2605566,0.1188402 0.4402745,0.3813308 0.4402745,0.6877997 0,0.4186028 -0.3353415,0.7539443 -0.7539443,0.7539443 -0.4186028,1e-7 -0.7560113,-0.3353415 -0.7560113,-0.7539443 0,-0.4186028 0.3374085,-0.7560113 0.7560113,-0.7560113 z M 9.880904,6.6092856 8.1053367,8.3848528 8.2929185,8.5703676 10.068486,6.7968673 Z M 3.6431646,7.4950022 c 1.3382596,2.4021396 2.7526265,3.8760018 3.8487849,4.7510378 0.8913851,0.71157 1.5608389,1.022866 1.8112233,1.126007 -0.061572,0.130926 -0.096116,0.276731 -0.096116,0.430456 -10e-8,0.06604 0.00647,0.13067 0.018603,0.193266 C 7.5118382,14.23593 5.7800651,13.667426 4.5428336,12.449124 3.2886308,11.214111 2.6929942,9.460443 2.9321109,7.7197903 c 0.023131,0.00158 0.046241,0.0031 0.069762,0.0031 0.2425664,0 0.4659489,-0.08557 0.6412917,-0.2278881 z M 10.22868,13.047009 c 0.418602,0 0.753944,0.336892 0.753944,0.755494 0,0.418603 -0.335341,0.753944 -0.753944,0.753945 -0.3159289,0 -0.5854076,-0.190917 -0.6986521,-0.464562 a 0.13228901,0.13228901 0 0 0 -5.167e-4,-0.0098 0.13228901,0.13228901 0 0 0 -0.018086,-0.03979 c -0.025019,-0.07516 -0.038757,-0.155902 -0.038757,-0.239774 1e-7,-0.418603 0.337408,-0.755494 0.7560118,-0.755494 z" />
  </g>
</svg>
