<?xml version="1.0" encoding="UTF-8" standalone="no"?>
<svg
   width="48.482151"
   height="48.48996"
   version="1.1"
   viewBox="0 0 12.827317 12.829383"
   id="svg14"
   xmlns:xlink="http://www.w3.org/1999/xlink"
   xmlns="http://www.w3.org/2000/svg"
   xmlns:svg="http://www.w3.org/2000/svg"
   xmlns:rdf="http://www.w3.org/1999/02/22-rdf-syntax-ns#"
   xmlns:cc="http://creativecommons.org/ns#"
   xmlns:dc="http://purl.org/dc/elements/1.1/">
  <metadata
     id="metadata20">
    <rdf:RDF>
      <cc:Work
         rdf:about="">
        <dc:format>image/svg+xml</dc:format>
        <dc:type
           rdf:resource="http://purl.org/dc/dcmitype/StillImage" />
        <dc:title />
      </cc:Work>
    </rdf:RDF>
  </metadata>
  <defs
     id="defs18">
    <linearGradient
       id="linearGradient1">
      <stop
         style="stop-color:#ff3dfb;stop-opacity:0;"
         offset="0"
         id="stop2" />
      <stop
         style="stop-color:#ff3dfb;stop-opacity:1;"
         offset="1"
         id="stop1" />
    </linearGradient>
    <linearGradient
       xlink:href="#linearGradient1"
       id="linearGradient2"
       x1="-9.991313"
       y1="17"
       x2="-9.991313"
       y2="7.4578557"
       gradientUnits="userSpaceOnUse" />
    <filter
       style="color-interpolation-filters:sRGB"
       id="filter2"
       x="-0.027002294"
       y="-0.026997709"
       width="1.0540046"
       height="1.0539954">
      <feGaussianBlur
         stdDeviation="0.13692499"
         id="feGaussianBlur3" />
    </filter>
  </defs>
  <g
     id="g944"
     transform="translate(15.938213,-2.0520664)">
    <path
       id="path1"
       style="display:inline;opacity:0.6;fill:#ff3dfb;fill-opacity:1;stroke-linecap:round;paint-order:stroke fill markers;filter:url(#filter2)"
       d="m -9.5253298,2.3806864 c -3.3592492,2e-7 -6.0842632,2.7270809 -6.0842632,6.0863304 0,3.3592492 2.725014,6.0858132 6.0842632,6.0858132 3.3592496,0 6.0858137,-2.726563 6.0858137,-6.0858132 0,-3.3592497 -2.7265641,-6.0863304 -6.0858137,-6.0863304 z m 0,0.2656116 c 3.2162611,0 5.8222691,2.6044577 5.8222691,5.8207188 0,3.2162612 -2.606008,5.8202022 -5.8222691,5.8202022 -3.2162612,0 -5.8202022,-2.603941 -5.8202022,-5.8202022 0,-3.216261 2.603941,-5.8207186 5.8202022,-5.8207188 z m 5.168e-4,3.0421317 A 0.26457801,0.26457801 0 0 0 -9.7893911,5.9530078 0.26457801,0.26457801 0 0 0 -9.524813,6.2175859 0.26457801,0.26457801 0 0 0 -9.2602349,5.9530078 0.26457801,0.26457801 0 0 0 -9.524813,5.6884297 Z M -9.7893911,6.7467422 V 11.24457 h 0.5291562 V 6.7467422 Z" />
    <path
       id="circle932"
       style="fill:url(#linearGradient2);fill-opacity:1;stroke-linecap:round;paint-order:stroke fill markers"
       d="m -9.5253298,2.3806864 c -3.3592492,2e-7 -6.0842632,2.7270809 -6.0842632,6.0863304 0,3.3592492 2.725014,6.0858132 6.0842632,6.0858132 3.3592496,0 6.0858137,-2.726563 6.0858137,-6.0858132 0,-3.3592497 -2.7265641,-6.0863304 -6.0858137,-6.0863304 z m 0,0.2656116 c 3.2162611,0 5.8222691,2.6044577 5.8222691,5.8207188 0,3.2162612 -2.606008,5.8202022 -5.8222691,5.8202022 -3.2162612,0 -5.8202022,-2.603941 -5.8202022,-5.8202022 0,-3.216261 2.603941,-5.8207186 5.8202022,-5.8207188 z m 5.168e-4,3.0421317 A 0.26457801,0.26457801 0 0 0 -9.7893911,5.9530078 0.26457801,0.26457801 0 0 0 -9.524813,6.2175859 0.26457801,0.26457801 0 0 0 -9.2602349,5.9530078 0.26457801,0.26457801 0 0 0 -9.524813,5.6884297 Z M -9.7893911,6.7467422 V 11.24457 h 0.5291562 V 6.7467422 Z" />
    <g
       id="g938"
       style="fill:#fbe904;fill-opacity:1"
       transform="translate(-17.991313,-0.39686701)" />
  </g>
</svg>
