<?xml version="1.0" encoding="UTF-8" standalone="no"?>
<svg
   width="46.269764"
   height="41.538418"
   version="1.1"
   viewBox="0 0 12.241967 10.990157"
   id="svg7"
   xmlns:xlink="http://www.w3.org/1999/xlink"
   xmlns="http://www.w3.org/2000/svg"
   xmlns:svg="http://www.w3.org/2000/svg"
   xmlns:rdf="http://www.w3.org/1999/02/22-rdf-syntax-ns#"
   xmlns:cc="http://creativecommons.org/ns#"
   xmlns:dc="http://purl.org/dc/elements/1.1/">
  <defs
     id="defs5">
    <linearGradient
       id="linearGradient2">
      <stop
         style="stop-color:#00abff;stop-opacity:0;"
         offset="0"
         id="stop3" />
      <stop
         style="stop-color:#00abff;stop-opacity:1;"
         offset="1"
         id="stop2" />
    </linearGradient>
    <linearGradient
       xlink:href="#linearGradient2"
       id="linearGradient3"
       x1="6.4094119"
       y1="12.687349"
       x2="6.4094119"
       y2="5.6205616"
       gradientUnits="userSpaceOnUse" />
    <filter
       style="color-interpolation-filters:sRGB"
       id="filter3"
       x="-0.025549009"
       y="-0.028625723"
       width="1.051098"
       height="1.0572514">
      <feGaussianBlur
         stdDeviation="0.12398548"
         id="feGaussianBlur3" />
    </filter>
  </defs>
  <metadata
     id="metadata5">
    <rdf:RDF>
      <cc:Work
         rdf:about="">
        <dc:format>image/svg+xml</dc:format>
        <dc:type
           rdf:resource="http://purl.org/dc/dcmitype/StillImage" />
      </cc:Work>
    </rdf:RDF>
  </metadata>
  <g
     id="g3"
     transform="translate(-0.23003309,-0.94522856)">
    <path
       id="path1"
       style="color:#dedede;display:inline;opacity:0.6;fill:#00abff;fill-opacity:1;stroke-width:0.724063;filter:url(#filter3)"
       class="ColorScheme-Text"
       d="M 3.7681712,1.2427937 3.1408317,1.6050384 3.7573194,2.6726524 C 2.2033322,3.3638814 1.0014037,4.6590668 0.55137667,6.2733953 a 0.7544739,0.69501384 0 0 0 0,0.3462253 C 1.2361016,9.0496492 3.6256059,10.754574 6.3509084,10.756238 a 0.7544739,0.69501384 0 0 0 0.00103,0 c 0.6616393,-8.25e-4 1.3031036,-0.102474 1.9052726,-0.2899 L 8.9336457,11.63782 9.5604684,11.275575 8.9439807,10.207961 C 10.498195,9.5167855 11.700368,8.2217105 12.15044,6.6072185 a 0.7544739,0.69501384 0 0 0 0,-0.3477755 C 11.465742,3.8294143 9.0762113,2.1260416 6.3509084,2.1243763 a 0.7544739,0.69501384 0 0 0 -0.00155,0 C 5.6878487,2.12518 5.0466687,2.2269247 4.4446024,2.4142754 Z m 2.5827372,1.5771337 c 2.3855691,0.00147 4.4690186,1.4875422 5.0683246,3.6146952 -0.396641,1.422756 -1.4574877,2.559326 -2.8292289,3.1594348 L 7.7332258,8.1104563 A 2.1721897,2.1721897 0 0 0 8.5228261,6.4403069 2.1721897,2.1721897 0 0 0 6.3509084,4.2678725 2.1721897,2.1721897 0 0 0 5.6000647,4.4161809 L 4.8042633,3.0369641 C 5.2956481,2.8964508 5.8156153,2.8205763 6.3509084,2.8199274 Z M 4.1118127,3.2865564 4.9680743,4.7701575 A 2.1721897,2.1721897 0 0 0 4.178474,6.4403069 2.1721897,2.1721897 0 0 0 6.3509084,8.6122246 2.1721897,2.1721897 0 0 0 7.1012355,8.4644329 L 7.8975536,9.8436497 C 7.4060286,9.9842505 6.8863745,10.060037 6.3509084,10.060686 3.965256,10.059238 1.8814467,8.5731441 1.282067,6.4459912 1.6787076,5.0232351 2.7400716,3.8866653 4.1118127,3.2865564 Z m 2.2034397,1.7058054 a 1.4481265,1.4481265 0 0 1 0.035656,0 1.4481265,1.4481265 0 0 1 1.4479452,1.4479451 1.4481265,1.4481265 0 0 1 -0.4345903,1.0314413 L 5.9643763,5.046621 A 1.4481265,1.4481265 0 0 1 6.3152524,4.9923618 Z M 5.3375536,5.4098991 6.7374405,7.8339928 A 1.4481265,1.4481265 0 0 1 6.3509084,7.888252 1.4481265,1.4481265 0 0 1 4.9024466,6.4403069 1.4481265,1.4481265 0 0 1 5.3375536,5.4098991 Z" />
    <path
       id="path2"
       style="color:#dedede;fill:url(#linearGradient3);fill-opacity:1;stroke-width:0.724063"
       class="ColorScheme-Text"
       d="M 3.7681712,1.2427937 3.1408317,1.6050384 3.7573194,2.6726524 C 2.2033322,3.3638814 1.0014037,4.6590668 0.55137667,6.2733953 a 0.7544739,0.69501384 0 0 0 0,0.3462253 C 1.2361016,9.0496492 3.6256059,10.754574 6.3509084,10.756238 a 0.7544739,0.69501384 0 0 0 0.00103,0 c 0.6616393,-8.25e-4 1.3031036,-0.102474 1.9052726,-0.2899 L 8.9336457,11.63782 9.5604684,11.275575 8.9439807,10.207961 C 10.498195,9.5167855 11.700368,8.2217105 12.15044,6.6072185 a 0.7544739,0.69501384 0 0 0 0,-0.3477755 C 11.465742,3.8294143 9.0762113,2.1260416 6.3509084,2.1243763 a 0.7544739,0.69501384 0 0 0 -0.00155,0 C 5.6878487,2.12518 5.0466687,2.2269247 4.4446024,2.4142754 Z m 2.5827372,1.5771337 c 2.3855691,0.00147 4.4690186,1.4875422 5.0683246,3.6146952 -0.396641,1.422756 -1.4574877,2.559326 -2.8292289,3.1594348 L 7.7332258,8.1104563 A 2.1721897,2.1721897 0 0 0 8.5228261,6.4403069 2.1721897,2.1721897 0 0 0 6.3509084,4.2678725 2.1721897,2.1721897 0 0 0 5.6000647,4.4161809 L 4.8042633,3.0369641 C 5.2956481,2.8964508 5.8156153,2.8205763 6.3509084,2.8199274 Z M 4.1118127,3.2865564 4.9680743,4.7701575 A 2.1721897,2.1721897 0 0 0 4.178474,6.4403069 2.1721897,2.1721897 0 0 0 6.3509084,8.6122246 2.1721897,2.1721897 0 0 0 7.1012355,8.4644329 L 7.8975536,9.8436497 C 7.4060286,9.9842505 6.8863745,10.060037 6.3509084,10.060686 3.965256,10.059238 1.8814467,8.5731441 1.282067,6.4459912 1.6787076,5.0232351 2.7400716,3.8866653 4.1118127,3.2865564 Z m 2.2034397,1.7058054 a 1.4481265,1.4481265 0 0 1 0.035656,0 1.4481265,1.4481265 0 0 1 1.4479452,1.4479451 1.4481265,1.4481265 0 0 1 -0.4345903,1.0314413 L 5.9643763,5.046621 A 1.4481265,1.4481265 0 0 1 6.3152524,4.9923618 Z M 5.3375536,5.4098991 6.7374405,7.8339928 A 1.4481265,1.4481265 0 0 1 6.3509084,7.888252 1.4481265,1.4481265 0 0 1 4.9024466,6.4403069 1.4481265,1.4481265 0 0 1 5.3375536,5.4098991 Z" />
  </g>
</svg>
