<?xml version="1.0" encoding="UTF-8" standalone="no"?>
<!-- Generator: Adobe Illustrator 22.0.1, SVG Export Plug-In . SVG Version: 6.00 Build 0)  -->

<svg
   version="1.1"
   id="Layer_1"
   x="0px"
   y="0px"
   viewBox="0 0 1295.5691 1692.5457"
   xml:space="preserve"
   width="1295.5691"
   height="1692.5457"
   xmlns:xlink="http://www.w3.org/1999/xlink"
   xmlns="http://www.w3.org/2000/svg"
   xmlns:svg="http://www.w3.org/2000/svg"><defs
   id="defs4"><linearGradient
     id="linearGradient14"><stop
       style="stop-color:#ff3dfb;stop-opacity:0;"
       offset="0"
       id="stop15" /><stop
       style="stop-color:#ff3dfb;stop-opacity:1;"
       offset="1"
       id="stop14" /></linearGradient><linearGradient
     id="linearGradient12"><stop
       style="stop-color:#00abff;stop-opacity:0;"
       offset="0"
       id="stop13" /><stop
       style="stop-color:#00abff;stop-opacity:1;"
       offset="1"
       id="stop12" /></linearGradient><linearGradient
     xlink:href="#linearGradient12"
     id="linearGradient13"
     x1="1040.3115"
     y1="2073.3735"
     x2="1040.3115"
     y2="652.46021"
     gradientUnits="userSpaceOnUse" /><linearGradient
     xlink:href="#linearGradient14"
     id="linearGradient15"
     x1="1043.9363"
     y1="2062.499"
     x2="1043.9363"
     y2="659.70972"
     gradientUnits="userSpaceOnUse" /><filter
     style="color-interpolation-filters:sRGB"
     id="filter15"
     x="-0.033993565"
     y="-0.022393036"
     width="1.0679871"
     height="1.0447861"><feGaussianBlur
       stdDeviation="4.3393244"
       id="feGaussianBlur15" /></filter><filter
     style="color-interpolation-filters:sRGB"
     id="filter16"
     x="-0.031396294"
     y="-0.023683674"
     width="1.0627926"
     height="1.0473673"><feGaussianBlur
       stdDeviation="15.947007"
       id="feGaussianBlur16" /></filter></defs>

<g
   id="g16"
   transform="translate(-376.21546,-177.72718)"><g
     id="g6"
     style="display:inline">
		
		<path
   id="path9"
   style="opacity:0.6;fill:#00abff;filter:url(#filter16)"
   d="m 1023.998,216 c -59.91246,0 -118.4578,11.81667 -173.34761,35.0332 -52.96283,22.40098 -100.72298,54.60298 -141.50195,95.38086 v 0.002 c -40.77698,40.77807 -72.97899,88.53654 -95.38086,141.5 -23.21551,54.88889 -35.03323,113.4359 -35.0332,173.34765 v 82.19141 c 0,56.3707 46.55507,102.92578 102.92578,102.92578 56.3707,0 102.92773,-46.55508 102.92773,-102.92578 v -82.19141 c 0,-132.26492 106.86748,-239.23512 239.08591,-239.41211 131.6943,-0.17629 239.7383,109.52594 239.7383,241.59766 v 218.3418 H 494.48828 c -43.70946,0 -80,36.29054 -80,80 V 1752 c 0,43.7095 36.29054,80 80,80 H 1553.5117 c 43.7095,0 80,-36.2918 80,-80 V 961.79102 c 0,-43.70946 -36.2905,-80 -80,-80 h -84.2461 V 661.26367 c 0,-59.91356 -11.8185,-118.45878 -35.0351,-173.34765 -22.4028,-52.96408 -54.6036,-100.72464 -95.3809,-141.50196 -40.7781,-40.77697 -88.5389,-72.97977 -141.5019,-95.38086 C 1142.4578,227.81667 1083.9107,216 1023.998,216 Z M 494.48828,961.79102 h 768.92382 v 0.0137 h 205.8535 v -0.0137 h 84.2461 V 1752 H 494.48828 Z" /><path
   style="display:inline;opacity:0.6;fill:#ff3dfb;fill-opacity:1;filter:url(#filter15)"
   d="m 1024,1124.3594 c -84.12682,0 -153.18164,69.0567 -153.18164,153.1836 0,49.1302 23.39936,93.1791 59.72851,121.2539 v 190.6347 h 186.90623 v -190.6347 c 36.3294,-28.0751 59.7285,-72.1242 59.7285,-121.2539 0,-84.1269 -69.0548,-153.1836 -153.1816,-153.1836 z m 0,80 c 40.8952,0 73.1816,32.2884 73.1816,73.1836 0,28.2426 -15.6897,52.2233 -38.6367,64.5332 l -21.0918,11.3144 v 156.041 h -26.9062 v -156.041 l -21.09182,-11.3144 c -22.94751,-12.3102 -38.63672,-36.2892 -38.63672,-64.5332 0,-40.8952 32.28646,-73.1836 73.18164,-73.1836 z"
   id="path6" />
	</g><g
     id="g12">
		
		<path
   id="path11"
   style="fill:url(#linearGradient13);fill-opacity:1"
   d="m 1023.998,216 c -59.91246,0 -118.4578,11.81667 -173.34761,35.0332 -52.96283,22.40098 -100.72298,54.60298 -141.50195,95.38086 v 0.002 c -40.77698,40.77807 -72.97899,88.53654 -95.38086,141.5 -23.21551,54.88889 -35.03323,113.4359 -35.0332,173.34765 v 82.19141 c 0,56.3707 46.55507,102.92578 102.92578,102.92578 56.3707,0 102.92773,-46.55508 102.92773,-102.92578 v -82.19141 c 0,-132.26492 106.86748,-239.23512 239.08591,-239.41211 131.6943,-0.17629 239.7383,109.52594 239.7383,241.59766 v 218.3418 H 494.48828 c -43.70946,0 -80,36.29054 -80,80 V 1752 c 0,43.7095 36.29054,80 80,80 H 1553.5117 c 43.7095,0 80,-36.2918 80,-80 V 961.79102 c 0,-43.70946 -36.2905,-80 -80,-80 h -84.2461 V 661.26367 c 0,-59.91356 -11.8185,-118.45878 -35.0351,-173.34765 -22.4028,-52.96408 -54.6036,-100.72464 -95.3809,-141.50196 -40.7781,-40.77697 -88.5389,-72.97977 -141.5019,-95.38086 C 1142.4578,227.81667 1083.9107,216 1023.998,216 Z M 494.48828,961.79102 h 768.92382 v 0.0137 h 205.8535 v -0.0137 h 84.2461 V 1752 H 494.48828 Z" /><path
   style="fill:url(#linearGradient15);fill-opacity:1"
   d="m 1024,1124.3594 c -84.12682,0 -153.18164,69.0567 -153.18164,153.1836 0,49.1302 23.39936,93.1791 59.72851,121.2539 v 190.6347 h 186.90623 v -190.6347 c 36.3294,-28.0751 59.7285,-72.1242 59.7285,-121.2539 0,-84.1269 -69.0548,-153.1836 -153.1816,-153.1836 z m 0,80 c 40.8952,0 73.1816,32.2884 73.1816,73.1836 0,28.2426 -15.6897,52.2233 -38.6367,64.5332 l -21.0918,11.3144 v 156.041 h -26.9062 v -156.041 l -21.09182,-11.3144 c -22.94751,-12.3102 -38.63672,-36.2892 -38.63672,-64.5332 0,-40.8952 32.28646,-73.1836 73.18164,-73.1836 z"
   id="path12" />
	</g></g></svg>
