<?xml version="1.0" encoding="UTF-8" standalone="no"?>
<!-- Generator: Adobe Illustrator 22.0.1, SVG Export Plug-In . SVG Version: 6.00 Build 0)  -->

<svg
   version="1.1"
   id="Layer_1"
   x="0px"
   y="0px"
   viewBox="0 0 1700.1765 1585.9089"
   xml:space="preserve"
   width="1700.1765"
   height="1585.9089"
   xmlns:xlink="http://www.w3.org/1999/xlink"
   xmlns="http://www.w3.org/2000/svg"
   xmlns:svg="http://www.w3.org/2000/svg"><defs
   id="defs5"><linearGradient
     id="linearGradient14"><stop
       style="stop-color:#ff3dfb;stop-opacity:0;"
       offset="0"
       id="stop15" /><stop
       style="stop-color:#ff3dfb;stop-opacity:1;"
       offset="1"
       id="stop14" /></linearGradient><linearGradient
     id="linearGradient12"><stop
       style="stop-color:#00abff;stop-opacity:0;"
       offset="0"
       id="stop13" /><stop
       style="stop-color:#00abff;stop-opacity:1;"
       offset="1"
       id="stop12" /></linearGradient><linearGradient
     xlink:href="#linearGradient12"
     id="linearGradient13"
     x1="1007.6885"
     y1="2044.3752"
     x2="1007.6885"
     y2="641.58582"
     gradientUnits="userSpaceOnUse" /><linearGradient
     xlink:href="#linearGradient14"
     id="linearGradient15"
     x1="1007.6885"
     y1="2055.2495"
     x2="1007.6885"
     y2="634.3363"
     gradientUnits="userSpaceOnUse" /><filter
     style="color-interpolation-filters:sRGB"
     id="filter15"
     x="-0.033849721"
     y="-0.022455896"
     width="1.0676994"
     height="1.0449118"><feGaussianBlur
       stdDeviation="4.0834532"
       id="feGaussianBlur15" /></filter><filter
     style="color-interpolation-filters:sRGB"
     id="filter16"
     x="-0.026045411"
     y="-0.028027222"
     width="1.0520908"
     height="1.0560544"><feGaussianBlur
       stdDeviation="17.537222"
       id="feGaussianBlur16" /></filter></defs>

<g
   id="g16"
   transform="translate(-173.91067,-231.04544)"><path
     id="path2"
     style="display:inline;opacity:0.6;fill:#00abff;filter:url(#filter16)"
     d="m 1416.8848,273.13477 c -55.8446,0 -110.4413,11.02039 -161.6114,32.66406 v -0.002 c -49.3724,20.88288 -93.9094,50.91337 -131.9199,88.92382 -38.0095,38.00956 -68.0381,82.5449 -88.9219,131.91797 -21.6423,51.16848 -32.6621,105.76626 -32.6621,161.61133 V 889.39453 H 296 c -43.70946,0 -80,36.29054 -80,80 v 725.47067 c 0,43.7095 36.29054,80 80,80 h 974.2852 c 43.7082,0 80,-36.2905 80,-80 V 969.39453 c 0,-43.70946 -36.2906,-80 -80,-80 h -72.0274 V 690.27148 c 0,-120.62387 98.6774,-220.80772 218.9238,-220.64648 120.7696,0.16194 218.3301,97.81328 218.3301,218.625 v 76.07617 c 0,53.78502 44.4591,98.24414 98.2442,98.24414 53.785,0 98.2421,-44.45912 98.2421,-98.24414 V 688.25 c 0,-55.84365 -11.0175,-110.44221 -32.6601,-161.61133 -20.883,-49.37268 -50.9121,-93.90706 -88.9219,-131.91797 v -0.002 c -38.0107,-38.00953 -82.5443,-68.03961 -131.918,-88.92187 v 0.002 c -51.1695,-21.64391 -105.7677,-32.66406 -161.6113,-32.66406 z M 972.02539,969.22852 h 263.58201 c 0.1334,0 0.2374,0.0698 0.3145,0.16601 h 34.3633 V 1694.8652 H 296 V 969.39453 h 675.71094 c 0.0771,-0.0962 0.18103,-0.16601 0.31445,-0.16601 z" /><g
     id="g4"
     style="display:inline">
		<path
   style="opacity:0.6;fill:#ff3dfb;filter:url(#filter15)"
   d="m 783.14258,1113.918 c -79.47586,0 -144.76172,65.2847 -144.76172,144.7617 0,45.8906 21.61271,87.1124 55.2832,113.6855 v 177.9766 h 178.95508 v -177.9746 c 33.67139,-26.5728 55.28569,-67.7967 55.28516,-113.6875 0,-79.4765 -65.28524,-144.7617 -144.76172,-144.7617 z m 0,80 c 36.24552,0 64.76172,28.5162 64.76172,64.7617 6.2e-4,25.0312 -13.89046,46.2216 -34.19141,57.1113 l -21.09375,11.3125 v 143.2383 h -18.95508 v -143.2363 l -21.08984,-11.3145 c -20.30236,-10.8911 -34.19336,-32.0795 -34.19336,-57.1113 0,-36.2451 28.51757,-64.7617 64.76172,-64.7617 z"
   id="path3" />
		
	</g><g
     id="g11">
		<path
   id="path10"
   style="fill:url(#linearGradient13);fill-opacity:1"
   d="m 1416.8848,273.13477 c -55.8446,0 -110.4413,11.02039 -161.6114,32.66406 v -0.002 c -49.3724,20.88288 -93.9094,50.91337 -131.9199,88.92382 -38.0095,38.00956 -68.0381,82.5449 -88.9219,131.91797 -21.6423,51.16848 -32.6621,105.76626 -32.6621,161.61133 V 889.39453 H 296 c -43.70946,0 -80,36.29054 -80,80 v 725.47067 c 0,43.7095 36.29054,80 80,80 h 974.2852 c 43.7082,0 80,-36.2905 80,-80 V 969.39453 c 0,-43.70946 -36.2906,-80 -80,-80 h -72.0274 V 690.27148 c 0,-120.62387 98.6774,-220.80772 218.9238,-220.64648 120.7696,0.16194 218.3301,97.81328 218.3301,218.625 v 76.07617 c 0,53.78502 44.4591,98.24414 98.2442,98.24414 53.785,0 98.2421,-44.45912 98.2421,-98.24414 V 688.25 c 0,-55.84365 -11.0175,-110.44221 -32.6601,-161.61133 -20.883,-49.37268 -50.9121,-93.90706 -88.9219,-131.91797 v -0.002 c -38.0107,-38.00953 -82.5443,-68.03961 -131.918,-88.92187 v 0.002 c -51.1695,-21.64391 -105.7677,-32.66406 -161.6113,-32.66406 z M 972.02539,969.22852 h 263.58201 c 0.1334,0 0.2374,0.0698 0.3145,0.16601 h 34.3633 V 1694.8652 H 296 V 969.39453 h 675.71094 c 0.0771,-0.0962 0.18103,-0.16601 0.31445,-0.16601 z" /><path
   style="fill:url(#linearGradient15);fill-opacity:1"
   d="m 783.14258,1113.918 c -79.47586,0 -144.76172,65.2847 -144.76172,144.7617 0,45.8906 21.61271,87.1124 55.2832,113.6855 v 177.9766 h 178.95508 v -177.9746 c 33.67139,-26.5728 55.28569,-67.7967 55.28516,-113.6875 0,-79.4765 -65.28524,-144.7617 -144.76172,-144.7617 z m 0,80 c 36.24552,0 64.76172,28.5162 64.76172,64.7617 6.2e-4,25.0312 -13.89046,46.2216 -34.19141,57.1113 l -21.09375,11.3125 v 143.2383 h -18.95508 v -143.2363 l -21.08984,-11.3145 c -20.30236,-10.8911 -34.19336,-32.0795 -34.19336,-57.1113 0,-36.2451 28.51757,-64.7617 64.76172,-64.7617 z"
   id="path11" />
		
	</g></g></svg>
