<?xml version="1.0" encoding="UTF-8" standalone="no"?>
<svg
   width="37.751373"
   height="40.090874"
   version="1.1"
   viewBox="0 0 9.9881873 10.607169"
   id="svg10"
   xmlns:xlink="http://www.w3.org/1999/xlink"
   xmlns="http://www.w3.org/2000/svg"
   xmlns:svg="http://www.w3.org/2000/svg"
   xmlns:rdf="http://www.w3.org/1999/02/22-rdf-syntax-ns#"
   xmlns:cc="http://creativecommons.org/ns#"
   xmlns:dc="http://purl.org/dc/elements/1.1/">
  <metadata
     id="metadata1">
    <rdf:RDF>
      <cc:Work
         rdf:about="">
        <dc:format>image/svg+xml</dc:format>
        <dc:type
           rdf:resource="http://purl.org/dc/dcmitype/StillImage" />
      </cc:Work>
    </rdf:RDF>
  </metadata>
  <defs
     id="defs5">
    <linearGradient
       id="linearGradient2">
      <stop
         style="stop-color:#00abff;stop-opacity:0;"
         offset="0"
         id="stop3" />
      <stop
         style="stop-color:#00abff;stop-opacity:1;"
         offset="1"
         id="stop2" />
    </linearGradient>
    <linearGradient
       xlink:href="#linearGradient2"
       id="linearGradient3"
       x1="6.6303778"
       y1="11.595985"
       x2="6.6303778"
       y2="4.4776578"
       gradientUnits="userSpaceOnUse" />
    <filter
       style="color-interpolation-filters:sRGB"
       id="filter3"
       x="-0.027883267"
       y="-0.026170975"
       width="1.0557665"
       height="1.0523419">
      <feGaussianBlur
         stdDeviation="0.10991355"
         id="feGaussianBlur3" />
    </filter>
  </defs>
  <g
     id="g3"
     transform="translate(-1.6587164,-0.30107014)">
    <path
       d="m 8.4934351,0.56554709 c -0.1091705,0 -0.2175695,0.00676 -0.3340173,0.021318 C 7.7446054,0.64508239 7.2501064,0.84140369 6.6897485,1.1397783 5.5690306,0.52120359 4.6955987,0.48578459 3.9678597,0.67499659 3.2913976,0.84569529 2.7108364,1.1009859 1.9296089,1.1497298 c -5.793e-4,0.011966 -0.0071,0.022005 -0.0071,0.034112 v 8.7328664 c 0,0.4031668 0.3245718,0.7277378 0.727739,0.7277378 h 8.0051261 c 0.403168,0 0.727738,-0.324571 0.727738,-0.7277378 V 1.1838425 c 0,-0.00552 -0.0027,-0.010147 -0.0027,-0.015623 C 10.519863,1.1307429 9.9950906,0.87489279 9.3676327,0.68921019 9.1056471,0.60915899 8.8136997,0.55827539 8.4934736,0.56555289 Z M 4.9926471,1.2790731 C 5.3549226,1.3060285 5.7649234,1.438724 6.2888952,1.7225425 V 8.0106423 C 5.4883827,7.552167 4.6808109,7.5147538 3.9749045,7.6894113 3.4945967,7.8058494 3.0650125,7.9370169 2.6502015,8.0461779 V 1.7580781 C 3.2323924,1.6561949 3.7205596,1.4891555 4.142648,1.3799959 4.3173061,1.3363315 4.4770076,1.3007386 4.6443877,1.2861829 4.7571883,1.273449 4.8718646,1.2700924 4.9926252,1.2790816 Z m 3.2463691,0.0071 c 0.1746609,-0.021839 0.3276004,-0.021839 0.4804245,0 0.1455597,0.01455 0.2906437,0.049975 0.4434704,0.1009157 0.3857003,0.109161 0.8665899,0.2916631 1.4924469,0.4008238 V 8.0461713 C 10.240547,7.9370097 9.8108176,7.7987389 9.3377869,7.6823018 8.6246012,7.5076438 7.8171762,7.5516501 7.0166635,8.0319587 V 1.7665749 C 7.5260814,1.4900341 7.9261177,1.3370927 8.2390465,1.2861508 Z m 0.088128,6.9931332 c 0.2692525,-0.00729 0.5446692,0.036671 0.8357365,0.1094453 0.4657535,0.1164375 0.9611963,0.3121345 1.4924453,0.4576822 V 9.9167282 H 2.6501941 V 8.8535749 C 3.1741661,8.7080272 3.676888,8.512331 4.1426409,8.3958928 4.9285988,8.1994032 5.596954,8.1777457 6.4338538,8.9345941 L 6.6811679,9.1520646 6.9213801,8.9274922 C 7.4307953,8.4617393 7.8758804,8.2939081 8.32708,8.2793534 Z"
       fill="#dedede"
       id="path1"
       style="display:inline;opacity:0.6;fill:#00abff;fill-opacity:1;stroke-width:0.727739;filter:url(#filter3)" />
    <path
       d="m 8.4934351,0.56554709 c -0.1091705,0 -0.2175695,0.00676 -0.3340173,0.021318 C 7.7446054,0.64508239 7.2501064,0.84140369 6.6897485,1.1397783 5.5690306,0.52120359 4.6955987,0.48578459 3.9678597,0.67499659 3.2913976,0.84569529 2.7108364,1.1009859 1.9296089,1.1497298 c -5.793e-4,0.011966 -0.0071,0.022005 -0.0071,0.034112 v 8.7328664 c 0,0.4031668 0.3245718,0.7277378 0.727739,0.7277378 h 8.0051261 c 0.403168,0 0.727738,-0.324571 0.727738,-0.7277378 V 1.1838425 c 0,-0.00552 -0.0027,-0.010147 -0.0027,-0.015623 C 10.519863,1.1307429 9.9950906,0.87489279 9.3676327,0.68921019 9.1056471,0.60915899 8.8136997,0.55827539 8.4934736,0.56555289 Z M 4.9926471,1.2790731 C 5.3549226,1.3060285 5.7649234,1.438724 6.2888952,1.7225425 V 8.0106423 C 5.4883827,7.552167 4.6808109,7.5147538 3.9749045,7.6894113 3.4945967,7.8058494 3.0650125,7.9370169 2.6502015,8.0461779 V 1.7580781 C 3.2323924,1.6561949 3.7205596,1.4891555 4.142648,1.3799959 4.3173061,1.3363315 4.4770076,1.3007386 4.6443877,1.2861829 4.7571883,1.273449 4.8718646,1.2700924 4.9926252,1.2790816 Z m 3.2463691,0.0071 c 0.1746609,-0.021839 0.3276004,-0.021839 0.4804245,0 0.1455597,0.01455 0.2906437,0.049975 0.4434704,0.1009157 0.3857003,0.109161 0.8665899,0.2916631 1.4924469,0.4008238 V 8.0461713 C 10.240547,7.9370097 9.8108176,7.7987389 9.3377869,7.6823018 8.6246012,7.5076438 7.8171762,7.5516501 7.0166635,8.0319587 V 1.7665749 C 7.5260814,1.4900341 7.9261177,1.3370927 8.2390465,1.2861508 Z m 0.088128,6.9931332 c 0.2692525,-0.00729 0.5446692,0.036671 0.8357365,0.1094453 0.4657535,0.1164375 0.9611963,0.3121345 1.4924453,0.4576822 V 9.9167282 H 2.6501941 V 8.8535749 C 3.1741661,8.7080272 3.676888,8.512331 4.1426409,8.3958928 4.9285988,8.1994032 5.596954,8.1777457 6.4338538,8.9345941 L 6.6811679,9.1520646 6.9213801,8.9274922 C 7.4307953,8.4617393 7.8758804,8.2939081 8.32708,8.2793534 Z"
       fill="#dedede"
       id="path2"
       style="fill:url(#linearGradient3);fill-opacity:1;stroke-width:0.727739" />
  </g>
</svg>
