<?xml version="1.0" encoding="UTF-8" standalone="no"?>
<!-- Generator: Adobe Illustrator 23.0.4, SVG Export Plug-In . SVG Version: 6.00 Build 0)  -->

<svg
   version="1.1"
   x="0px"
   y="0px"
   viewBox="0 0 64.098 59.577724"
   xml:space="preserve"
   id="svg2"
   width="64.098"
   height="59.577724"
   xmlns:xlink="http://www.w3.org/1999/xlink"
   xmlns="http://www.w3.org/2000/svg"
   xmlns:svg="http://www.w3.org/2000/svg"><defs
   id="defs2"><linearGradient
     id="linearGradient15"><stop
       style="stop-color:#ff3dfb;stop-opacity:0;"
       offset="0"
       id="stop16" /><stop
       style="stop-color:#ff3dfb;stop-opacity:1;"
       offset="1"
       id="stop15" /></linearGradient><linearGradient
     id="linearGradient13"><stop
       style="stop-color:#00abff;stop-opacity:0;"
       offset="0"
       id="stop14" /><stop
       style="stop-color:#00abff;stop-opacity:1;"
       offset="1"
       id="stop13" /></linearGradient><linearGradient
     xlink:href="#linearGradient13"
     id="linearGradient14"
     x1="32.289444"
     y1="65.110405"
     x2="32.289444"
     y2="18.608147"
     gradientUnits="userSpaceOnUse" /><linearGradient
     xlink:href="#linearGradient15"
     id="linearGradient16"
     x1="16.126654"
     y1="38.237198"
     x2="16.126654"
     y2="10.654919"
     gradientUnits="userSpaceOnUse" /><filter
     style="color-interpolation-filters:sRGB"
     id="filter16"
     x="-0.032770423"
     y="-0.022957498"
     width="1.0655408"
     height="1.045915"><feGaussianBlur
       stdDeviation="0.22957265"
       id="feGaussianBlur16" /></filter><filter
     style="color-interpolation-filters:sRGB"
     id="filter17"
     x="-0.044110417"
     y="-0.13656884"
     width="1.0882208"
     height="1.2731377"><feGaussianBlur
       stdDeviation="0.26642305"
       id="feGaussianBlur17" /></filter><filter
     style="color-interpolation-filters:sRGB"
     id="filter18"
     x="-0.028011618"
     y="-0.098827714"
     width="1.0560232"
     height="1.1976554"><feGaussianBlur
       stdDeviation="0.26642305"
       id="feGaussianBlur18" /></filter><filter
     style="color-interpolation-filters:sRGB"
     id="filter19"
     x="-0.020626236"
     y="-0.077420428"
     width="1.0412525"
     height="1.1548409"><feGaussianBlur
       stdDeviation="0.26642305"
       id="feGaussianBlur19" /></filter><linearGradient
     xlink:href="#linearGradient15"
     id="linearGradient2"
     gradientUnits="userSpaceOnUse"
     x1="16.126654"
     y1="38.237198"
     x2="16.126654"
     y2="10.654919" /><linearGradient
     xlink:href="#linearGradient15"
     id="linearGradient3"
     gradientUnits="userSpaceOnUse"
     x1="16.126654"
     y1="38.237198"
     x2="16.126654"
     y2="10.654919" /><linearGradient
     xlink:href="#linearGradient15"
     id="linearGradient4"
     gradientUnits="userSpaceOnUse"
     x1="16.126654"
     y1="38.237198"
     x2="16.126654"
     y2="10.654919" /><linearGradient
     xlink:href="#linearGradient15"
     id="linearGradient5"
     gradientUnits="userSpaceOnUse"
     x1="16.126654"
     y1="38.237198"
     x2="16.126654"
     y2="10.654919" /><linearGradient
     xlink:href="#linearGradient15"
     id="linearGradient6"
     gradientUnits="userSpaceOnUse"
     x1="16.126654"
     y1="38.237198"
     x2="16.126654"
     y2="10.654919" /><linearGradient
     xlink:href="#linearGradient15"
     id="linearGradient7"
     gradientUnits="userSpaceOnUse"
     x1="16.126654"
     y1="38.237198"
     x2="16.126654"
     y2="10.654919" /><linearGradient
     xlink:href="#linearGradient15"
     id="linearGradient8"
     gradientUnits="userSpaceOnUse"
     x1="16.126654"
     y1="38.237198"
     x2="16.126654"
     y2="10.654919" /></defs>


<style
   type="text/css"
   id="style1">
	.st0{fill:#008AD0;}
	.st1{fill:#333333;}
</style><g
   id="g21"><g
     id="g35"
     style="display:inline"><g
       id="g20"
       transform="translate(0.0828782,-4.4782081)"><g
         id="g19"
         transform="matrix(1.728,0,0,1.728,4.3171373,3.8871008)"
         style="fill:#ff3dfb;fill-opacity:1">
	<g
   id="g15"
   style="opacity:0.6;fill:#ff3dfb;fill-opacity:1;filter:url(#filter19)">
		<path
   class="st1"
   d="M 1.5,11.651 C 1.25,11.651 1,11.558 0.806,11.371 0.409,10.987 0.397,10.354 0.781,9.957 4.866,5.724 10.344,3.392 16.209,3.392 c 5.633,0 10.957,2.176 14.991,6.126 0.395,0.387 0.401,1.02 0.016,1.414 -0.387,0.396 -1.02,0.402 -1.414,0.016 C 26.143,7.365 21.316,5.392 16.209,5.392 10.893,5.392 5.925,7.506 2.221,11.346 2.023,11.549 1.762,11.651 1.5,11.651 Z"
   id="path15"
   style="fill:#ff3dfb;fill-opacity:1" />
	</g>
	<g
   id="g16"
   style="opacity:0.6;fill:#ff3dfb;fill-opacity:1;filter:url(#filter18)">
		<path
   class="st1"
   d="m 5.587,15.703 c -0.25,0 -0.5,-0.093 -0.694,-0.28 -0.397,-0.384 -0.409,-1.017 -0.025,-1.414 2.971,-3.08 6.958,-4.776 11.226,-4.776 4.161,0 8.078,1.624 11.027,4.574 0.391,0.391 0.391,1.023 0,1.414 -0.391,0.391 -1.023,0.391 -1.414,0 -2.572,-2.572 -5.986,-3.988 -9.613,-3.988 -3.72,0 -7.195,1.479 -9.786,4.165 -0.198,0.203 -0.459,0.305 -0.721,0.305 z"
   id="path16"
   style="fill:#ff3dfb;fill-opacity:1" />
	</g>
	<g
   id="g17"
   style="opacity:0.6;fill:#ff3dfb;fill-opacity:1;filter:url(#filter17)">
		<path
   class="st1"
   d="m 9.752,19.756 c -0.25,0 -0.5,-0.093 -0.694,-0.28 -0.397,-0.384 -0.409,-1.017 -0.025,-1.414 1.858,-1.927 4.354,-2.988 7.023,-2.988 2.603,0 5.053,1.016 6.899,2.861 0.391,0.39 0.391,1.023 0,1.414 -0.391,0.391 -1.023,0.391 -1.414,0 -1.468,-1.467 -3.416,-2.275 -5.485,-2.275 -2.122,0 -4.105,0.844 -5.584,2.377 -0.197,0.202 -0.458,0.305 -0.72,0.305 z"
   id="path17"
   style="fill:#ff3dfb;fill-opacity:1" />
	</g>
	<g
   id="g18"
   style="fill:#ff3dfb;fill-opacity:1">
		
	</g>
</g><path
         d="m 32.138638,60.456161 a 8.4,8.4 0 0 0 6,-14.2728 v -3.7272 a 6,6 0 0 0 -11.196,-2.999999 1.2,1.2 0 1 0 2.076,1.199999 3.6,3.6 0 0 1 6.72,1.8 v 2.0196 a 8.4,8.4 0 1 0 -3.6,15.9804 z m 0,-12 a 2.3928,2.3928 0 0 1 1.2,4.4676 v 2.7324 a 1.2,1.2 0 0 1 -2.4,0 v -2.7324 a 2.3928,2.3928 0 0 1 1.2,-4.4676 z"
         id="path19"
         style="opacity:0.6;fill:#00abff;fill-opacity:1;stroke-width:1.2;filter:url(#filter16)" /></g></g><g
     id="g13"><g
       id="g12"
       transform="translate(0.0828782,-4.4782081)"><g
         id="g11"
         transform="matrix(1.728,0,0,1.728,4.3171373,3.8871008)"
         style="fill:url(#linearGradient16);fill-opacity:1">
	<g
   id="g7"
   style="fill:url(#linearGradient3);fill-opacity:1">
		<path
   class="st1"
   d="M 1.5,11.651 C 1.25,11.651 1,11.558 0.806,11.371 0.409,10.987 0.397,10.354 0.781,9.957 4.866,5.724 10.344,3.392 16.209,3.392 c 5.633,0 10.957,2.176 14.991,6.126 0.395,0.387 0.401,1.02 0.016,1.414 -0.387,0.396 -1.02,0.402 -1.414,0.016 C 26.143,7.365 21.316,5.392 16.209,5.392 10.893,5.392 5.925,7.506 2.221,11.346 2.023,11.549 1.762,11.651 1.5,11.651 Z"
   id="path7"
   style="fill:url(#linearGradient2);fill-opacity:1" />
	</g>
	<g
   id="g8"
   style="fill:url(#linearGradient5);fill-opacity:1">
		<path
   class="st1"
   d="m 5.587,15.703 c -0.25,0 -0.5,-0.093 -0.694,-0.28 -0.397,-0.384 -0.409,-1.017 -0.025,-1.414 2.971,-3.08 6.958,-4.776 11.226,-4.776 4.161,0 8.078,1.624 11.027,4.574 0.391,0.391 0.391,1.023 0,1.414 -0.391,0.391 -1.023,0.391 -1.414,0 -2.572,-2.572 -5.986,-3.988 -9.613,-3.988 -3.72,0 -7.195,1.479 -9.786,4.165 -0.198,0.203 -0.459,0.305 -0.721,0.305 z"
   id="path8"
   style="fill:url(#linearGradient4);fill-opacity:1" />
	</g>
	<g
   id="g9"
   style="fill:url(#linearGradient7);fill-opacity:1">
		<path
   class="st1"
   d="m 9.752,19.756 c -0.25,0 -0.5,-0.093 -0.694,-0.28 -0.397,-0.384 -0.409,-1.017 -0.025,-1.414 1.858,-1.927 4.354,-2.988 7.023,-2.988 2.603,0 5.053,1.016 6.899,2.861 0.391,0.39 0.391,1.023 0,1.414 -0.391,0.391 -1.023,0.391 -1.414,0 -1.468,-1.467 -3.416,-2.275 -5.485,-2.275 -2.122,0 -4.105,0.844 -5.584,2.377 -0.197,0.202 -0.458,0.305 -0.72,0.305 z"
   id="path9"
   style="fill:url(#linearGradient6);fill-opacity:1" />
	</g>
	<g
   id="g10"
   style="fill:url(#linearGradient8);fill-opacity:1">
		
	</g>
</g><path
         d="m 32.138638,60.456161 a 8.4,8.4 0 0 0 6,-14.2728 v -3.7272 a 6,6 0 0 0 -11.196,-2.999999 1.2,1.2 0 1 0 2.076,1.199999 3.6,3.6 0 0 1 6.72,1.8 v 2.0196 a 8.4,8.4 0 1 0 -3.6,15.9804 z m 0,-12 a 2.3928,2.3928 0 0 1 1.2,4.4676 v 2.7324 a 1.2,1.2 0 0 1 -2.4,0 v -2.7324 a 2.3928,2.3928 0 0 1 1.2,-4.4676 z"
         id="path11"
         style="fill:url(#linearGradient14);fill-opacity:1;stroke-width:1.2" /></g></g></g></svg>
