<?xml version="1.0" encoding="UTF-8" standalone="no"?>
<svg
   viewBox="0 0 32.592998 32.592998"
   version="1.1"
   id="svg11"
   width="32.592999"
   height="32.592999"
   xmlns:xlink="http://www.w3.org/1999/xlink"
   xmlns="http://www.w3.org/2000/svg"
   xmlns:svg="http://www.w3.org/2000/svg">
  <defs
     id="defs1">
    <linearGradient
       id="linearGradient50">
      <stop
         style="stop-color:#00abff;stop-opacity:0;"
         offset="0"
         id="stop50" />
      <stop
         style="stop-color:#00abff;stop-opacity:1;"
         offset="1"
         id="stop49" />
    </linearGradient>
    <linearGradient
       id="linearGradient48">
      <stop
         style="stop-color:#00abff;stop-opacity:0;"
         offset="0"
         id="stop48" />
      <stop
         style="stop-color:#00abff;stop-opacity:1;"
         offset="1"
         id="stop47" />
    </linearGradient>
    <linearGradient
       id="linearGradient46">
      <stop
         style="stop-color:#00abff;stop-opacity:0;"
         offset="0"
         id="stop46" />
      <stop
         style="stop-color:#00abff;stop-opacity:1;"
         offset="1"
         id="stop45" />
    </linearGradient>
    <linearGradient
       id="linearGradient41">
      <stop
         style="stop-color:#00abff;stop-opacity:0;"
         offset="0"
         id="stop42" />
      <stop
         style="stop-color:#00abff;stop-opacity:1;"
         offset="1"
         id="stop41" />
    </linearGradient>
    <linearGradient
       id="linearGradient40">
      <stop
         style="stop-color:#ff3dfb;stop-opacity:0;"
         offset="0"
         id="stop40" />
      <stop
         style="stop-color:#ff3dfb;stop-opacity:1;"
         offset="1"
         id="stop39" />
    </linearGradient>
    <linearGradient
       id="linearGradient38">
      <stop
         style="stop-color:#ff3dfb;stop-opacity:0;"
         offset="0"
         id="stop38" />
      <stop
         style="stop-color:#ff3dfb;stop-opacity:1;"
         offset="1"
         id="stop37" />
    </linearGradient>
    <linearGradient
       id="linearGradient36">
      <stop
         style="stop-color:#ff3dfb;stop-opacity:0;"
         offset="0"
         id="stop36" />
      <stop
         style="stop-color:#ff3dfb;stop-opacity:1;"
         offset="1"
         id="stop35" />
    </linearGradient>
    <linearGradient
       id="linearGradient34">
      <stop
         style="stop-color:#ff3dfb;stop-opacity:0;"
         offset="0"
         id="stop34" />
      <stop
         style="stop-color:#ff3dfb;stop-opacity:1;"
         offset="1"
         id="stop33" />
    </linearGradient>
    <linearGradient
       id="linearGradient32">
      <stop
         style="stop-color:#ff3dfb;stop-opacity:0;"
         offset="0"
         id="stop32" />
      <stop
         style="stop-color:#ff3dfb;stop-opacity:1;"
         offset="1"
         id="stop31" />
    </linearGradient>
    <linearGradient
       id="linearGradient30">
      <stop
         style="stop-color:#ff3dfb;stop-opacity:0;"
         offset="0"
         id="stop30" />
      <stop
         style="stop-color:#ff3dfb;stop-opacity:1;"
         offset="1"
         id="stop29" />
    </linearGradient>
    <linearGradient
       id="linearGradient22">
      <stop
         style="stop-color:#ff3dfb;stop-opacity:0;"
         offset="0"
         id="stop23" />
      <stop
         style="stop-color:#ff3dfb;stop-opacity:1;"
         offset="1"
         id="stop22" />
    </linearGradient>
    <style
       id="style1">.cls-1{fill:#231f20;}</style>
    <linearGradient
       xlink:href="#linearGradient22"
       id="linearGradient23"
       x1="16.432652"
       y1="30.450525"
       x2="16.432652"
       y2="8.0680761"
       gradientUnits="userSpaceOnUse" />
    <linearGradient
       xlink:href="#linearGradient40"
       id="linearGradient24"
       x1="16.432652"
       y1="30.450525"
       x2="16.432652"
       y2="8.0680761"
       gradientUnits="userSpaceOnUse" />
    <linearGradient
       xlink:href="#linearGradient38"
       id="linearGradient25"
       x1="16.432652"
       y1="30.450525"
       x2="16.432652"
       y2="8.0680761"
       gradientUnits="userSpaceOnUse" />
    <linearGradient
       xlink:href="#linearGradient36"
       id="linearGradient26"
       x1="16.432652"
       y1="30.450525"
       x2="16.432652"
       y2="8.0680761"
       gradientUnits="userSpaceOnUse" />
    <linearGradient
       xlink:href="#linearGradient34"
       id="linearGradient27"
       x1="16.432652"
       y1="30.450525"
       x2="16.432652"
       y2="8.0680761"
       gradientUnits="userSpaceOnUse" />
    <linearGradient
       xlink:href="#linearGradient32"
       id="linearGradient28"
       x1="16.432652"
       y1="30.450525"
       x2="16.432652"
       y2="8.0680761"
       gradientUnits="userSpaceOnUse" />
    <linearGradient
       xlink:href="#linearGradient30"
       id="linearGradient29"
       x1="16.432652"
       y1="30.450525"
       x2="16.432652"
       y2="8.0680761"
       gradientUnits="userSpaceOnUse" />
    <linearGradient
       xlink:href="#linearGradient41"
       id="linearGradient42"
       x1="16.605711"
       y1="30.219778"
       x2="16.605711"
       y2="6.452848"
       gradientUnits="userSpaceOnUse" />
    <linearGradient
       xlink:href="#linearGradient50"
       id="linearGradient43"
       x1="16.605711"
       y1="30.219778"
       x2="16.605711"
       y2="6.452848"
       gradientUnits="userSpaceOnUse" />
    <linearGradient
       xlink:href="#linearGradient48"
       id="linearGradient44"
       x1="16.605711"
       y1="30.219778"
       x2="16.605711"
       y2="6.452848"
       gradientUnits="userSpaceOnUse" />
    <linearGradient
       xlink:href="#linearGradient46"
       id="linearGradient45"
       x1="16.605711"
       y1="30.219778"
       x2="16.605711"
       y2="6.452848"
       gradientUnits="userSpaceOnUse" />
    <filter
       style="color-interpolation-filters:sRGB"
       id="filter50"
       x="-0.2295"
       y="-0.153"
       width="1.459"
       height="1.306">
      <feGaussianBlur
         stdDeviation="0.19125"
         id="feGaussianBlur50" />
    </filter>
    <filter
       style="color-interpolation-filters:sRGB"
       id="filter51"
       x="-0.2295"
       y="-0.028687499"
       width="1.459"
       height="1.057375">
      <feGaussianBlur
         stdDeviation="0.19125"
         id="feGaussianBlur51" />
    </filter>
    <filter
       style="color-interpolation-filters:sRGB"
       id="filter52"
       x="-0.2295"
       y="-0.038249999"
       width="1.459"
       height="1.0765">
      <feGaussianBlur
         stdDeviation="0.19125"
         id="feGaussianBlur52" />
    </filter>
    <filter
       style="color-interpolation-filters:sRGB"
       id="filter53"
       x="-0.2295"
       y="-0.038249999"
       width="1.459"
       height="1.0765">
      <feGaussianBlur
         stdDeviation="0.19125"
         id="feGaussianBlur53" />
    </filter>
    <filter
       style="color-interpolation-filters:sRGB"
       id="filter54"
       x="-0.2295"
       y="-0.153"
       width="1.459"
       height="1.306">
      <feGaussianBlur
         stdDeviation="0.19125"
         id="feGaussianBlur54" />
    </filter>
    <filter
       style="color-interpolation-filters:sRGB"
       id="filter55"
       x="-0.2295"
       y="-0.028687499"
       width="1.459"
       height="1.057375">
      <feGaussianBlur
         stdDeviation="0.19125"
         id="feGaussianBlur55" />
    </filter>
    <filter
       style="color-interpolation-filters:sRGB"
       id="filter56"
       x="-0.2295"
       y="-0.028687499"
       width="1.459"
       height="1.057375">
      <feGaussianBlur
         stdDeviation="0.19125"
         id="feGaussianBlur56" />
    </filter>
    <filter
       style="color-interpolation-filters:sRGB"
       id="filter57"
       x="-0.117"
       y="-0.117"
       width="1.234"
       height="1.234">
      <feGaussianBlur
         stdDeviation="0.2925"
         id="feGaussianBlur57" />
    </filter>
    <filter
       style="color-interpolation-filters:sRGB"
       id="filter58"
       x="-0.117"
       y="-0.117"
       width="1.234"
       height="1.234">
      <feGaussianBlur
         stdDeviation="0.2925"
         id="feGaussianBlur58" />
    </filter>
    <filter
       style="color-interpolation-filters:sRGB"
       id="filter59"
       x="-0.117"
       y="-0.117"
       width="1.234"
       height="1.234">
      <feGaussianBlur
         stdDeviation="0.2925"
         id="feGaussianBlur59" />
    </filter>
    <filter
       style="color-interpolation-filters:sRGB"
       id="filter60"
       x="-0.117"
       y="-0.117"
       width="1.234"
       height="1.234">
      <feGaussianBlur
         stdDeviation="0.2925"
         id="feGaussianBlur60" />
    </filter>
  </defs>
  <g
     id="g60">
    <path
       class="cls-1"
       d="M 8,3 H 4 A 1,1 0 0 0 3,4 V 8 A 1,1 0 0 0 5,8 V 5 H 8 A 1,1 0 0 0 8,3 Z"
       id="path1"
       style="display:inline;opacity:0.6;fill:#00abff;fill-opacity:1;filter:url(#filter60)"
       transform="translate(0.29649856,0.29649856)" />
    <path
       class="cls-1"
       d="m 28,3 h -4 a 1,1 0 0 0 0,2 h 3 v 3 a 1,1 0 0 0 2,0 V 4 A 1,1 0 0 0 28,3 Z"
       id="path2"
       style="display:inline;opacity:0.6;fill:#00abff;fill-opacity:1;filter:url(#filter59)"
       transform="translate(0.29649856,0.29649856)" />
    <path
       class="cls-1"
       d="M 8,27 H 5 v -3 a 1,1 0 0 0 -2,0 v 4 a 1,1 0 0 0 1,1 h 4 a 1,1 0 0 0 0,-2 z"
       id="path3"
       style="display:inline;opacity:0.6;fill:#00abff;fill-opacity:1;filter:url(#filter58)"
       transform="translate(0.29649856,0.29649856)" />
    <path
       class="cls-1"
       d="m 28,23 a 1,1 0 0 0 -1,1 v 3 h -3 a 1,1 0 0 0 0,2 h 4 a 1,1 0 0 0 1,-1 v -4 a 1,1 0 0 0 -1,-1 z"
       id="path4"
       style="display:inline;opacity:0.6;fill:#00abff;fill-opacity:1;filter:url(#filter57)"
       transform="translate(0.29649856,0.29649856)" />
    <g
       id="g11"
       transform="translate(0.29649856,0.29649856)"
       style="display:inline">
      <path
         class="cls-1"
         d="M 8,8 A 1,1 0 0 0 7,9 v 14 a 1,1 0 0 0 2,0 V 9 A 1,1 0 0 0 8,8 Z"
         id="path5"
         style="opacity:0.6;fill:#ff3dfb;fill-opacity:1;filter:url(#filter56)" />
      <path
         class="cls-1"
         d="m 12,8 a 1,1 0 0 0 -1,1 v 10 a 1,1 0 0 0 2,0 V 9 A 1,1 0 0 0 12,8 Z"
         id="path6"
         style="opacity:0.6;fill:#ff3dfb;fill-opacity:1;filter:url(#filter52)" />
      <path
         class="cls-1"
         d="m 16,8 a 1,1 0 0 0 -1,1 v 14 a 1,1 0 0 0 2,0 V 9 A 1,1 0 0 0 16,8 Z"
         id="path7"
         style="opacity:0.6;fill:#ff3dfb;fill-opacity:1;filter:url(#filter55)" />
      <path
         class="cls-1"
         d="m 20,8 a 1,1 0 0 0 -1,1 v 14 a 1,1 0 0 0 2,0 V 9 A 1,1 0 0 0 20,8 Z"
         id="path8"
         style="opacity:0.6;fill:#ff3dfb;fill-opacity:1;filter:url(#filter51)" />
      <path
         class="cls-1"
         d="m 24,20 a 1,1 0 0 0 1,-1 V 9 a 1,1 0 0 0 -2,0 v 10 a 1,1 0 0 0 1,1 z"
         id="path9"
         style="opacity:0.6;fill:#ff3dfb;fill-opacity:1;filter:url(#filter53)" />
      <path
         class="cls-1"
         d="m 24,24 a 1,1 0 0 0 1,-1 v -1 a 1,1 0 0 0 -2,0 v 1 a 1,1 0 0 0 1,1 z"
         id="path10"
         style="opacity:0.6;fill:#ff3dfb;fill-opacity:1;filter:url(#filter54)" />
      <path
         class="cls-1"
         d="m 12,21 a 1,1 0 0 0 -1,1 v 1 a 1,1 0 0 0 2,0 v -1 a 1,1 0 0 0 -1,-1 z"
         id="path11"
         style="opacity:0.6;fill:#ff3dfb;fill-opacity:1;filter:url(#filter50)" />
    </g>
    <g
       id="g22"
       transform="translate(0.29649856,0.29649856)">
      <path
         class="cls-1"
         d="M 8,3 H 4 A 1,1 0 0 0 3,4 V 8 A 1,1 0 0 0 5,8 V 5 H 8 A 1,1 0 0 0 8,3 Z"
         id="path12"
         style="fill:url(#linearGradient45);fill-opacity:1" />
      <path
         class="cls-1"
         d="m 28,3 h -4 a 1,1 0 0 0 0,2 h 3 v 3 a 1,1 0 0 0 2,0 V 4 A 1,1 0 0 0 28,3 Z"
         id="path13"
         style="fill:url(#linearGradient43);fill-opacity:1" />
      <path
         class="cls-1"
         d="M 8,27 H 5 v -3 a 1,1 0 0 0 -2,0 v 4 a 1,1 0 0 0 1,1 h 4 a 1,1 0 0 0 0,-2 z"
         id="path14"
         style="fill:url(#linearGradient44);fill-opacity:1" />
      <path
         class="cls-1"
         d="m 28,23 a 1,1 0 0 0 -1,1 v 3 h -3 a 1,1 0 0 0 0,2 h 4 a 1,1 0 0 0 1,-1 v -4 a 1,1 0 0 0 -1,-1 z"
         id="path15"
         style="fill:url(#linearGradient42);fill-opacity:1" />
      <path
         class="cls-1"
         d="M 8,8 A 1,1 0 0 0 7,9 v 14 a 1,1 0 0 0 2,0 V 9 A 1,1 0 0 0 8,8 Z"
         id="path16"
         style="fill:url(#linearGradient28);fill-opacity:1" />
      <path
         class="cls-1"
         d="m 12,8 a 1,1 0 0 0 -1,1 v 10 a 1,1 0 0 0 2,0 V 9 A 1,1 0 0 0 12,8 Z"
         id="path17"
         style="fill:url(#linearGradient27);fill-opacity:1" />
      <path
         class="cls-1"
         d="m 16,8 a 1,1 0 0 0 -1,1 v 14 a 1,1 0 0 0 2,0 V 9 A 1,1 0 0 0 16,8 Z"
         id="path18"
         style="fill:url(#linearGradient26);fill-opacity:1" />
      <path
         class="cls-1"
         d="m 20,8 a 1,1 0 0 0 -1,1 v 14 a 1,1 0 0 0 2,0 V 9 A 1,1 0 0 0 20,8 Z"
         id="path19"
         style="fill:url(#linearGradient29);fill-opacity:1" />
      <path
         class="cls-1"
         d="m 24,20 a 1,1 0 0 0 1,-1 V 9 a 1,1 0 0 0 -2,0 v 10 a 1,1 0 0 0 1,1 z"
         id="path20"
         style="fill:url(#linearGradient25);fill-opacity:1" />
      <path
         class="cls-1"
         d="m 24,24 a 1,1 0 0 0 1,-1 v -1 a 1,1 0 0 0 -2,0 v 1 a 1,1 0 0 0 1,1 z"
         id="path21"
         style="fill:url(#linearGradient24);fill-opacity:1" />
      <path
         class="cls-1"
         d="m 12,21 a 1,1 0 0 0 -1,1 v 1 a 1,1 0 0 0 2,0 v -1 a 1,1 0 0 0 -1,-1 z"
         id="path22"
         style="fill:url(#linearGradient23);fill-opacity:1" />
    </g>
  </g>
</svg>
