<?xml version="1.0" encoding="UTF-8" standalone="no"?>
<!-- Creator: CorelDRAW -->

<svg
   xml:space="preserve"
   width="7.031992in"
   height="6.8266602in"
   style="clip-rule:evenodd;fill-rule:evenodd;image-rendering:optimizeQuality;shape-rendering:geometricPrecision;text-rendering:geometricPrecision"
   viewBox="0 0 7.0319918 6.82666"
   version="1.1"
   id="svg22"
   xmlns:xlink="http://www.w3.org/1999/xlink"
   xmlns="http://www.w3.org/2000/svg"
   xmlns:svg="http://www.w3.org/2000/svg">
 <defs
   id="defs1"><linearGradient
     id="linearGradient575"><stop
       style="stop-color:#ff3dfb;stop-opacity:0;"
       offset="0"
       id="stop576" /><stop
       style="stop-color:#ff3dfb;stop-opacity:1;"
       offset="1"
       id="stop575" /></linearGradient><linearGradient
     id="linearGradient574"><stop
       style="stop-color:#ff3dfb;stop-opacity:0;"
       offset="0"
       id="stop574" /><stop
       style="stop-color:#ff3dfb;stop-opacity:1;"
       offset="1"
       id="stop573" /></linearGradient><linearGradient
     id="linearGradient571"><stop
       style="stop-color:#ff3dfb;stop-opacity:0;"
       offset="0"
       id="stop572" /><stop
       style="stop-color:#ff3dfb;stop-opacity:1;"
       offset="1"
       id="stop571" /></linearGradient><linearGradient
     id="linearGradient570"><stop
       style="stop-color:#00abff;stop-opacity:0;"
       offset="0"
       id="stop570" /><stop
       style="stop-color:#00abff;stop-opacity:1;"
       offset="1"
       id="stop569" /></linearGradient><linearGradient
     id="linearGradient568"><stop
       style="stop-color:#00abff;stop-opacity:0;"
       offset="0"
       id="stop568" /><stop
       style="stop-color:#00abff;stop-opacity:1;"
       offset="1"
       id="stop567" /></linearGradient><linearGradient
     id="linearGradient566"><stop
       style="stop-color:#00abff;stop-opacity:0;"
       offset="0"
       id="stop566" /><stop
       style="stop-color:#00abff;stop-opacity:1;"
       offset="1"
       id="stop565" /></linearGradient><linearGradient
     id="linearGradient564"><stop
       style="stop-color:#00abff;stop-opacity:0;"
       offset="0"
       id="stop564" /><stop
       style="stop-color:#00abff;stop-opacity:1;"
       offset="1"
       id="stop563" /></linearGradient><linearGradient
     id="linearGradient562"><stop
       style="stop-color:#00abff;stop-opacity:0;"
       offset="0"
       id="stop562" /><stop
       style="stop-color:#00abff;stop-opacity:1;"
       offset="1"
       id="stop561" /></linearGradient><linearGradient
     id="linearGradient560"><stop
       style="stop-color:#00abff;stop-opacity:0;"
       offset="0"
       id="stop560" /><stop
       style="stop-color:#00abff;stop-opacity:1;"
       offset="1"
       id="stop559" /></linearGradient><linearGradient
     id="linearGradient558"><stop
       style="stop-color:#00abff;stop-opacity:0;"
       offset="0"
       id="stop558" /><stop
       style="stop-color:#00abff;stop-opacity:1;"
       offset="1"
       id="stop557" /></linearGradient><linearGradient
     id="linearGradient556"><stop
       style="stop-color:#00abff;stop-opacity:0;"
       offset="0"
       id="stop556" /><stop
       style="stop-color:#00abff;stop-opacity:1;"
       offset="1"
       id="stop555" /></linearGradient><linearGradient
     id="linearGradient554"><stop
       style="stop-color:#00abff;stop-opacity:0;"
       offset="0"
       id="stop554" /><stop
       style="stop-color:#00abff;stop-opacity:1;"
       offset="1"
       id="stop553" /></linearGradient><linearGradient
     id="linearGradient543"><stop
       style="stop-color:#00abff;stop-opacity:0;"
       offset="0"
       id="stop544" /><stop
       style="stop-color:#00abff;stop-opacity:1;"
       offset="1"
       id="stop543" /></linearGradient><linearGradient
     id="linearGradient542"><stop
       style="stop-color:#00abff;stop-opacity:0;"
       offset="0"
       id="stop542" /><stop
       style="stop-color:#00abff;stop-opacity:1;"
       offset="1"
       id="stop541" /></linearGradient><linearGradient
     id="linearGradient540"><stop
       style="stop-color:#00abff;stop-opacity:0;"
       offset="0"
       id="stop540" /><stop
       style="stop-color:#00abff;stop-opacity:1;"
       offset="1"
       id="stop539" /></linearGradient><linearGradient
     id="linearGradient538"><stop
       style="stop-color:#00abff;stop-opacity:0;"
       offset="0"
       id="stop538" /><stop
       style="stop-color:#00abff;stop-opacity:1;"
       offset="1"
       id="stop537" /></linearGradient><linearGradient
     id="linearGradient536"><stop
       style="stop-color:#00abff;stop-opacity:0;"
       offset="0"
       id="stop536" /><stop
       style="stop-color:#00abff;stop-opacity:1;"
       offset="1"
       id="stop535" /></linearGradient><linearGradient
     id="linearGradient534"><stop
       style="stop-color:#00abff;stop-opacity:0;"
       offset="0"
       id="stop534" /><stop
       style="stop-color:#00abff;stop-opacity:1;"
       offset="1"
       id="stop533" /></linearGradient><linearGradient
     id="linearGradient532"><stop
       style="stop-color:#00abff;stop-opacity:0;"
       offset="0"
       id="stop532" /><stop
       style="stop-color:#00abff;stop-opacity:1;"
       offset="1"
       id="stop531" /></linearGradient><linearGradient
     id="linearGradient530"><stop
       style="stop-color:#00abff;stop-opacity:0;"
       offset="0"
       id="stop530" /><stop
       style="stop-color:#00abff;stop-opacity:1;"
       offset="1"
       id="stop529" /></linearGradient><linearGradient
     id="linearGradient528"><stop
       style="stop-color:#00abff;stop-opacity:0;"
       offset="0"
       id="stop528" /><stop
       style="stop-color:#00abff;stop-opacity:1;"
       offset="1"
       id="stop527" /></linearGradient><linearGradient
     id="linearGradient526"><stop
       style="stop-color:#00abff;stop-opacity:0;"
       offset="0"
       id="stop526" /><stop
       style="stop-color:#00abff;stop-opacity:1;"
       offset="1"
       id="stop525" /></linearGradient><linearGradient
     id="linearGradient515"><stop
       style="stop-color:#00abff;stop-opacity:0;"
       offset="0"
       id="stop516" /><stop
       style="stop-color:#00abff;stop-opacity:1;"
       offset="1"
       id="stop515" /></linearGradient><linearGradient
     id="linearGradient514"><stop
       style="stop-color:#00abff;stop-opacity:0;"
       offset="0"
       id="stop514" /><stop
       style="stop-color:#00abff;stop-opacity:1;"
       offset="1"
       id="stop513" /></linearGradient><linearGradient
     id="linearGradient512"><stop
       style="stop-color:#00abff;stop-opacity:0;"
       offset="0"
       id="stop512" /><stop
       style="stop-color:#00abff;stop-opacity:1;"
       offset="1"
       id="stop511" /></linearGradient><linearGradient
     id="linearGradient510"><stop
       style="stop-color:#00abff;stop-opacity:0;"
       offset="0"
       id="stop510" /><stop
       style="stop-color:#00abff;stop-opacity:1;"
       offset="1"
       id="stop509" /></linearGradient><linearGradient
     id="linearGradient508"><stop
       style="stop-color:#00abff;stop-opacity:0;"
       offset="0"
       id="stop508" /><stop
       style="stop-color:#00abff;stop-opacity:1;"
       offset="1"
       id="stop507" /></linearGradient><linearGradient
     id="linearGradient506"><stop
       style="stop-color:#00abff;stop-opacity:0;"
       offset="0"
       id="stop506" /><stop
       style="stop-color:#00abff;stop-opacity:1;"
       offset="1"
       id="stop505" /></linearGradient><linearGradient
     id="linearGradient504"><stop
       style="stop-color:#00abff;stop-opacity:0;"
       offset="0"
       id="stop504" /><stop
       style="stop-color:#00abff;stop-opacity:1;"
       offset="1"
       id="stop503" /></linearGradient><linearGradient
     id="linearGradient502"><stop
       style="stop-color:#00abff;stop-opacity:0;"
       offset="0"
       id="stop502" /><stop
       style="stop-color:#00abff;stop-opacity:1;"
       offset="1"
       id="stop501" /></linearGradient><linearGradient
     id="linearGradient500"><stop
       style="stop-color:#00abff;stop-opacity:0;"
       offset="0"
       id="stop500" /><stop
       style="stop-color:#00abff;stop-opacity:1;"
       offset="1"
       id="stop499" /></linearGradient><linearGradient
     id="linearGradient498"><stop
       style="stop-color:#00abff;stop-opacity:0;"
       offset="0"
       id="stop498" /><stop
       style="stop-color:#00abff;stop-opacity:1;"
       offset="1"
       id="stop497" /></linearGradient><linearGradient
     id="linearGradient496"><stop
       style="stop-color:#00abff;stop-opacity:0;"
       offset="0"
       id="stop496" /><stop
       style="stop-color:#00abff;stop-opacity:1;"
       offset="1"
       id="stop495" /></linearGradient><linearGradient
     id="linearGradient494"><stop
       style="stop-color:#00abff;stop-opacity:0;"
       offset="0"
       id="stop494" /><stop
       style="stop-color:#00abff;stop-opacity:1;"
       offset="1"
       id="stop493" /></linearGradient><linearGradient
     id="linearGradient492"><stop
       style="stop-color:#00abff;stop-opacity:0;"
       offset="0"
       id="stop492" /><stop
       style="stop-color:#00abff;stop-opacity:1;"
       offset="1"
       id="stop491" /></linearGradient><linearGradient
     id="linearGradient490"><stop
       style="stop-color:#00abff;stop-opacity:0;"
       offset="0"
       id="stop490" /><stop
       style="stop-color:#00abff;stop-opacity:1;"
       offset="1"
       id="stop489" /></linearGradient><linearGradient
     id="linearGradient488"><stop
       style="stop-color:#00abff;stop-opacity:0;"
       offset="0"
       id="stop488" /><stop
       style="stop-color:#00abff;stop-opacity:1;"
       offset="1"
       id="stop487" /></linearGradient><linearGradient
     id="linearGradient486"><stop
       style="stop-color:#00abff;stop-opacity:0;"
       offset="0"
       id="stop486" /><stop
       style="stop-color:#00abff;stop-opacity:1;"
       offset="1"
       id="stop485" /></linearGradient><linearGradient
     id="linearGradient484"><stop
       style="stop-color:#00abff;stop-opacity:0;"
       offset="0"
       id="stop484" /><stop
       style="stop-color:#00abff;stop-opacity:1;"
       offset="1"
       id="stop483" /></linearGradient><linearGradient
     id="linearGradient482"><stop
       style="stop-color:#00abff;stop-opacity:0;"
       offset="0"
       id="stop482" /><stop
       style="stop-color:#00abff;stop-opacity:1;"
       offset="1"
       id="stop481" /></linearGradient><linearGradient
     id="linearGradient480"><stop
       style="stop-color:#00abff;stop-opacity:0;"
       offset="0"
       id="stop480" /><stop
       style="stop-color:#00abff;stop-opacity:1;"
       offset="1"
       id="stop479" /></linearGradient><linearGradient
     id="linearGradient478"><stop
       style="stop-color:#00abff;stop-opacity:0;"
       offset="0"
       id="stop478" /><stop
       style="stop-color:#00abff;stop-opacity:1;"
       offset="1"
       id="stop477" /></linearGradient><linearGradient
     id="linearGradient457"><stop
       style="stop-color:#00abff;stop-opacity:0;"
       offset="0"
       id="stop458" /><stop
       style="stop-color:#00abff;stop-opacity:1;"
       offset="1"
       id="stop457" /></linearGradient><style
     type="text/css"
     id="style1">
   <![CDATA[
    .fil3 {fill:none}
    .fil1 {fill:#212121}
    .fil0 {fill:#212121;fill-rule:nonzero}
    .fil2 {fill:#66BB6A;fill-rule:nonzero}
   ]]>
  </style><linearGradient
     xlink:href="#linearGradient457"
     id="linearGradient458"
     x1="3.4175072"
     y1="6.4279351"
     x2="3.4175072"
     y2="1.9573786"
     gradientUnits="userSpaceOnUse" /><linearGradient
     xlink:href="#linearGradient514"
     id="linearGradient459"
     x1="3.4175072"
     y1="6.4279351"
     x2="3.4175072"
     y2="1.9573786"
     gradientUnits="userSpaceOnUse" /><linearGradient
     xlink:href="#linearGradient512"
     id="linearGradient460"
     x1="3.4175072"
     y1="6.4279351"
     x2="3.4175072"
     y2="1.9573786"
     gradientUnits="userSpaceOnUse" /><linearGradient
     xlink:href="#linearGradient510"
     id="linearGradient461"
     x1="3.4175072"
     y1="6.4279351"
     x2="3.4175072"
     y2="1.9573786"
     gradientUnits="userSpaceOnUse" /><linearGradient
     xlink:href="#linearGradient508"
     id="linearGradient462"
     x1="3.4175072"
     y1="6.4279351"
     x2="3.4175072"
     y2="1.9573786"
     gradientUnits="userSpaceOnUse" /><linearGradient
     xlink:href="#linearGradient506"
     id="linearGradient463"
     x1="3.4175072"
     y1="6.4279351"
     x2="3.4175072"
     y2="1.9573786"
     gradientUnits="userSpaceOnUse" /><linearGradient
     xlink:href="#linearGradient504"
     id="linearGradient464"
     x1="3.4175072"
     y1="6.4279351"
     x2="3.4175072"
     y2="1.9573786"
     gradientUnits="userSpaceOnUse" /><linearGradient
     xlink:href="#linearGradient502"
     id="linearGradient465"
     x1="3.4175072"
     y1="6.4279351"
     x2="3.4175072"
     y2="1.9573786"
     gradientUnits="userSpaceOnUse" /><linearGradient
     xlink:href="#linearGradient500"
     id="linearGradient466"
     x1="3.4175072"
     y1="6.4279351"
     x2="3.4175072"
     y2="1.9573786"
     gradientUnits="userSpaceOnUse" /><linearGradient
     xlink:href="#linearGradient498"
     id="linearGradient467"
     x1="3.4175072"
     y1="6.4279351"
     x2="3.4175072"
     y2="1.9573786"
     gradientUnits="userSpaceOnUse" /><linearGradient
     xlink:href="#linearGradient496"
     id="linearGradient468"
     x1="3.4175072"
     y1="6.4279351"
     x2="3.4175072"
     y2="1.9573786"
     gradientUnits="userSpaceOnUse" /><linearGradient
     xlink:href="#linearGradient494"
     id="linearGradient469"
     x1="3.4175072"
     y1="6.4279351"
     x2="3.4175072"
     y2="1.9573786"
     gradientUnits="userSpaceOnUse" /><linearGradient
     xlink:href="#linearGradient492"
     id="linearGradient470"
     x1="3.4175072"
     y1="6.4279351"
     x2="3.4175072"
     y2="1.9573786"
     gradientUnits="userSpaceOnUse" /><linearGradient
     xlink:href="#linearGradient490"
     id="linearGradient471"
     x1="3.4175072"
     y1="6.4279351"
     x2="3.4175072"
     y2="1.9573786"
     gradientUnits="userSpaceOnUse" /><linearGradient
     xlink:href="#linearGradient488"
     id="linearGradient472"
     x1="3.4175072"
     y1="6.4279351"
     x2="3.4175072"
     y2="1.9573786"
     gradientUnits="userSpaceOnUse" /><linearGradient
     xlink:href="#linearGradient486"
     id="linearGradient473"
     x1="3.4175072"
     y1="6.4279351"
     x2="3.4175072"
     y2="1.9573786"
     gradientUnits="userSpaceOnUse" /><linearGradient
     xlink:href="#linearGradient484"
     id="linearGradient474"
     x1="3.4175072"
     y1="6.4279351"
     x2="3.4175072"
     y2="1.9573786"
     gradientUnits="userSpaceOnUse" /><linearGradient
     xlink:href="#linearGradient482"
     id="linearGradient475"
     x1="3.4175072"
     y1="6.4279351"
     x2="3.4175072"
     y2="1.9573786"
     gradientUnits="userSpaceOnUse" /><linearGradient
     xlink:href="#linearGradient480"
     id="linearGradient476"
     x1="3.4175072"
     y1="6.4279351"
     x2="3.4175072"
     y2="1.9573786"
     gradientUnits="userSpaceOnUse" /><linearGradient
     xlink:href="#linearGradient478"
     id="linearGradient477"
     x1="3.4175072"
     y1="6.4279351"
     x2="3.4175072"
     y2="1.9573786"
     gradientUnits="userSpaceOnUse" /><linearGradient
     xlink:href="#linearGradient515"
     id="linearGradient516"
     x1="128.08119"
     y1="296.44925"
     x2="128.08119"
     y2="-115.32511"
     gradientUnits="userSpaceOnUse" /><linearGradient
     xlink:href="#linearGradient542"
     id="linearGradient517"
     x1="128.08119"
     y1="296.44925"
     x2="128.08119"
     y2="-115.32511"
     gradientUnits="userSpaceOnUse" /><linearGradient
     xlink:href="#linearGradient540"
     id="linearGradient518"
     x1="128.08119"
     y1="296.44925"
     x2="128.08119"
     y2="-115.32511"
     gradientUnits="userSpaceOnUse" /><linearGradient
     xlink:href="#linearGradient538"
     id="linearGradient519"
     x1="128.08119"
     y1="296.44925"
     x2="128.08119"
     y2="-115.32511"
     gradientUnits="userSpaceOnUse" /><linearGradient
     xlink:href="#linearGradient536"
     id="linearGradient520"
     x1="128.08119"
     y1="296.44925"
     x2="128.08119"
     y2="-115.32511"
     gradientUnits="userSpaceOnUse" /><linearGradient
     xlink:href="#linearGradient534"
     id="linearGradient521"
     x1="128.08119"
     y1="296.44925"
     x2="128.08119"
     y2="-115.32511"
     gradientUnits="userSpaceOnUse" /><linearGradient
     xlink:href="#linearGradient532"
     id="linearGradient522"
     x1="128.08119"
     y1="296.44925"
     x2="128.08119"
     y2="-115.32511"
     gradientUnits="userSpaceOnUse" /><linearGradient
     xlink:href="#linearGradient530"
     id="linearGradient523"
     x1="128.08119"
     y1="296.44925"
     x2="128.08119"
     y2="-115.32511"
     gradientUnits="userSpaceOnUse" /><linearGradient
     xlink:href="#linearGradient528"
     id="linearGradient524"
     x1="128.08119"
     y1="296.44925"
     x2="128.08119"
     y2="-115.32511"
     gradientUnits="userSpaceOnUse" /><linearGradient
     xlink:href="#linearGradient526"
     id="linearGradient525"
     x1="128.08119"
     y1="296.44925"
     x2="128.08119"
     y2="-115.32511"
     gradientUnits="userSpaceOnUse" /><linearGradient
     xlink:href="#linearGradient543"
     id="linearGradient544"
     x1="123.44148"
     y1="287.1698"
     x2="123.44148"
     y2="-116.48504"
     gradientUnits="userSpaceOnUse" /><linearGradient
     xlink:href="#linearGradient570"
     id="linearGradient545"
     x1="123.44148"
     y1="287.1698"
     x2="123.44148"
     y2="-116.48504"
     gradientUnits="userSpaceOnUse" /><linearGradient
     xlink:href="#linearGradient568"
     id="linearGradient546"
     x1="123.44148"
     y1="287.1698"
     x2="123.44148"
     y2="-116.48504"
     gradientUnits="userSpaceOnUse" /><linearGradient
     xlink:href="#linearGradient566"
     id="linearGradient547"
     x1="123.44148"
     y1="287.1698"
     x2="123.44148"
     y2="-116.48504"
     gradientUnits="userSpaceOnUse" /><linearGradient
     xlink:href="#linearGradient564"
     id="linearGradient548"
     x1="123.44148"
     y1="287.1698"
     x2="123.44148"
     y2="-116.48504"
     gradientUnits="userSpaceOnUse" /><linearGradient
     xlink:href="#linearGradient562"
     id="linearGradient549"
     x1="123.44148"
     y1="287.1698"
     x2="123.44148"
     y2="-116.48504"
     gradientUnits="userSpaceOnUse" /><linearGradient
     xlink:href="#linearGradient560"
     id="linearGradient550"
     x1="123.44148"
     y1="287.1698"
     x2="123.44148"
     y2="-116.48504"
     gradientUnits="userSpaceOnUse" /><linearGradient
     xlink:href="#linearGradient558"
     id="linearGradient551"
     x1="123.44148"
     y1="287.1698"
     x2="123.44148"
     y2="-116.48504"
     gradientUnits="userSpaceOnUse" /><linearGradient
     xlink:href="#linearGradient556"
     id="linearGradient552"
     x1="123.44148"
     y1="287.1698"
     x2="123.44148"
     y2="-116.48504"
     gradientUnits="userSpaceOnUse" /><linearGradient
     xlink:href="#linearGradient554"
     id="linearGradient553"
     x1="123.44148"
     y1="287.1698"
     x2="123.44148"
     y2="-116.48504"
     gradientUnits="userSpaceOnUse" /><linearGradient
     xlink:href="#linearGradient571"
     id="linearGradient572"
     x1="2.4782023"
     y1="3.76524"
     x2="0.5281294"
     y2="-0.18350431"
     gradientUnits="userSpaceOnUse" /><linearGradient
     xlink:href="#linearGradient574"
     id="linearGradient573"
     x1="2.432641"
     y1="3.7792659"
     x2="0.53765106"
     y2="-0.18643552"
     gradientUnits="userSpaceOnUse" /><linearGradient
     xlink:href="#linearGradient575"
     id="linearGradient576"
     x1="65.179848"
     y1="159.808"
     x2="65.179848"
     y2="-289.41376"
     gradientUnits="userSpaceOnUse" /><filter
     style="color-interpolation-filters:sRGB"
     id="filter576"
     x="-0.030558151"
     y="-0.077575346"
     width="1.0611163"
     height="1.1551507"><feGaussianBlur
       stdDeviation="1.6323146"
       id="feGaussianBlur576" /></filter><filter
     style="color-interpolation-filters:sRGB"
     id="filter577"
     x="-1.0493235"
     y="-0.33679868"
     width="3.098647"
     height="1.6735974"><feGaussianBlur
       stdDeviation="0.046638058"
       id="feGaussianBlur577" /></filter><filter
     style="color-interpolation-filters:sRGB"
     id="filter578"
     x="-1.0493235"
     y="-0.33679868"
     width="3.098647"
     height="1.6735974"><feGaussianBlur
       stdDeviation="0.046638058"
       id="feGaussianBlur578" /></filter><filter
     style="color-interpolation-filters:sRGB"
     id="filter579"
     x="-1.0493235"
     y="-0.33679868"
     width="3.098647"
     height="1.6735974"><feGaussianBlur
       stdDeviation="0.046638058"
       id="feGaussianBlur579" /></filter><filter
     style="color-interpolation-filters:sRGB"
     id="filter580"
     x="-1.0493235"
     y="-0.33679868"
     width="3.098647"
     height="1.6735974"><feGaussianBlur
       stdDeviation="0.046638058"
       id="feGaussianBlur580" /></filter><filter
     style="color-interpolation-filters:sRGB"
     id="filter581"
     x="-1.0493235"
     y="-0.33679868"
     width="3.098647"
     height="1.6735974"><feGaussianBlur
       stdDeviation="0.046638058"
       id="feGaussianBlur581" /></filter><filter
     style="color-interpolation-filters:sRGB"
     id="filter582"
     x="-1.0493235"
     y="-0.33679868"
     width="3.098647"
     height="1.6735974"><feGaussianBlur
       stdDeviation="0.046638058"
       id="feGaussianBlur582" /></filter><filter
     style="color-interpolation-filters:sRGB"
     id="filter583"
     x="-1.0493235"
     y="-0.33679868"
     width="3.098647"
     height="1.6735974"><feGaussianBlur
       stdDeviation="0.046638058"
       id="feGaussianBlur583" /></filter><filter
     style="color-interpolation-filters:sRGB"
     id="filter584"
     x="-1.0493235"
     y="-0.33679868"
     width="3.098647"
     height="1.6735974"><feGaussianBlur
       stdDeviation="0.046638058"
       id="feGaussianBlur584" /></filter><filter
     style="color-interpolation-filters:sRGB"
     id="filter585"
     x="-1.0493235"
     y="-0.33679868"
     width="3.098647"
     height="1.6735974"><feGaussianBlur
       stdDeviation="0.046638058"
       id="feGaussianBlur585" /></filter><filter
     style="color-interpolation-filters:sRGB"
     id="filter586"
     x="-1.0493235"
     y="-0.33679868"
     width="3.098647"
     height="1.6735974"><feGaussianBlur
       stdDeviation="0.046638058"
       id="feGaussianBlur586" /></filter><filter
     style="color-interpolation-filters:sRGB"
     id="filter587"
     x="-1.0493235"
     y="-0.33679868"
     width="3.098647"
     height="1.6735974"><feGaussianBlur
       stdDeviation="0.046638058"
       id="feGaussianBlur587" /></filter><filter
     style="color-interpolation-filters:sRGB"
     id="filter588"
     x="-1.0493235"
     y="-0.33679868"
     width="3.098647"
     height="1.6735974"><feGaussianBlur
       stdDeviation="0.046638058"
       id="feGaussianBlur588" /></filter><filter
     style="color-interpolation-filters:sRGB"
     id="filter589"
     x="-1.0493235"
     y="-0.33679868"
     width="3.098647"
     height="1.6735974"><feGaussianBlur
       stdDeviation="0.046638058"
       id="feGaussianBlur589" /></filter><filter
     style="color-interpolation-filters:sRGB"
     id="filter590"
     x="-1.0493235"
     y="-0.33679868"
     width="3.098647"
     height="1.6735974"><feGaussianBlur
       stdDeviation="0.046638058"
       id="feGaussianBlur590" /></filter><filter
     style="color-interpolation-filters:sRGB"
     id="filter591"
     x="-1.0493235"
     y="-0.33679868"
     width="3.098647"
     height="1.6735974"><feGaussianBlur
       stdDeviation="0.046638058"
       id="feGaussianBlur591" /></filter><filter
     style="color-interpolation-filters:sRGB"
     id="filter592"
     x="-1.0493235"
     y="-0.33679868"
     width="3.098647"
     height="1.6735974"><feGaussianBlur
       stdDeviation="0.046638058"
       id="feGaussianBlur592" /></filter><filter
     style="color-interpolation-filters:sRGB"
     id="filter593"
     x="-1.0493235"
     y="-0.33679868"
     width="3.098647"
     height="1.6735974"><feGaussianBlur
       stdDeviation="0.046638058"
       id="feGaussianBlur593" /></filter><filter
     style="color-interpolation-filters:sRGB"
     id="filter594"
     x="-1.0493235"
     y="-0.33679868"
     width="3.098647"
     height="1.6735974"><feGaussianBlur
       stdDeviation="0.046638058"
       id="feGaussianBlur594" /></filter><filter
     style="color-interpolation-filters:sRGB"
     id="filter595"
     x="-0.040528634"
     y="-0.052364989"
     width="1.0810573"
     height="1.10473"><feGaussianBlur
       stdDeviation="0.046638058"
       id="feGaussianBlur595" /></filter><filter
     style="color-interpolation-filters:sRGB"
     id="filter596"
     x="-0.030866534"
     y="-0.023994321"
     width="1.0617331"
     height="1.0479886"><feGaussianBlur
       stdDeviation="0.046638058"
       id="feGaussianBlur596" /></filter><filter
     style="color-interpolation-filters:sRGB"
     id="filter597"
     x="-0.16269211"
     y="-0.11804958"
     width="1.3253842"
     height="1.2360992"><feGaussianBlur
       stdDeviation="1.3910175"
       id="feGaussianBlur597" /></filter><filter
     style="color-interpolation-filters:sRGB"
     id="filter598"
     x="-0.16269211"
     y="-0.11808258"
     width="1.3253842"
     height="1.2361652"><feGaussianBlur
       stdDeviation="1.3910175"
       id="feGaussianBlur598" /></filter><filter
     style="color-interpolation-filters:sRGB"
     id="filter599"
     x="-0.16269211"
     y="-0.11809134"
     width="1.3253842"
     height="1.2361827"><feGaussianBlur
       stdDeviation="1.3910175"
       id="feGaussianBlur599" /></filter><filter
     style="color-interpolation-filters:sRGB"
     id="filter600"
     x="-0.16268418"
     y="-0.11804958"
     width="1.3253684"
     height="1.2360992"><feGaussianBlur
       stdDeviation="1.3910175"
       id="feGaussianBlur600" /></filter><filter
     style="color-interpolation-filters:sRGB"
     id="filter601"
     x="-0.16269211"
     y="-0.11804958"
     width="1.3253842"
     height="1.2360992"><feGaussianBlur
       stdDeviation="1.3910175"
       id="feGaussianBlur601" /></filter><filter
     style="color-interpolation-filters:sRGB"
     id="filter602"
     x="-0.16269211"
     y="-0.11807919"
     width="1.3253842"
     height="1.2361584"><feGaussianBlur
       stdDeviation="1.3910175"
       id="feGaussianBlur602" /></filter><filter
     style="color-interpolation-filters:sRGB"
     id="filter603"
     x="-0.16268418"
     y="-0.11806967"
     width="1.3253684"
     height="1.2361393"><feGaussianBlur
       stdDeviation="1.3910175"
       id="feGaussianBlur603" /></filter><filter
     style="color-interpolation-filters:sRGB"
     id="filter604"
     x="-0.16269211"
     y="-0.11807822"
     width="1.3253842"
     height="1.2361564"><feGaussianBlur
       stdDeviation="1.3910175"
       id="feGaussianBlur604" /></filter><filter
     style="color-interpolation-filters:sRGB"
     id="filter605"
     x="-0.16269211"
     y="-0.11804958"
     width="1.3253842"
     height="1.2360992"><feGaussianBlur
       stdDeviation="1.3910175"
       id="feGaussianBlur605" /></filter><filter
     style="color-interpolation-filters:sRGB"
     id="filter606"
     x="-0.16269211"
     y="-0.11807582"
     width="1.3253842"
     height="1.2361516"><feGaussianBlur
       stdDeviation="1.3910175"
       id="feGaussianBlur606" /></filter><filter
     style="color-interpolation-filters:sRGB"
     id="filter607"
     x="-0.16269211"
     y="-0.11807582"
     width="1.3253842"
     height="1.2361516"><feGaussianBlur
       stdDeviation="1.3910175"
       id="feGaussianBlur607" /></filter><filter
     style="color-interpolation-filters:sRGB"
     id="filter608"
     x="-0.16269211"
     y="-0.11804958"
     width="1.3253842"
     height="1.2360992"><feGaussianBlur
       stdDeviation="1.3910175"
       id="feGaussianBlur608" /></filter><filter
     style="color-interpolation-filters:sRGB"
     id="filter609"
     x="-0.16269211"
     y="-0.11808258"
     width="1.3253842"
     height="1.2361652"><feGaussianBlur
       stdDeviation="1.3910175"
       id="feGaussianBlur609" /></filter><filter
     style="color-interpolation-filters:sRGB"
     id="filter610"
     x="-0.16269211"
     y="-0.11809134"
     width="1.3253842"
     height="1.2361827"><feGaussianBlur
       stdDeviation="1.3910175"
       id="feGaussianBlur610" /></filter><filter
     style="color-interpolation-filters:sRGB"
     id="filter611"
     x="-0.16268418"
     y="-0.11804958"
     width="1.3253684"
     height="1.2360992"><feGaussianBlur
       stdDeviation="1.3910175"
       id="feGaussianBlur611" /></filter><filter
     style="color-interpolation-filters:sRGB"
     id="filter612"
     x="-0.16269211"
     y="-0.11804958"
     width="1.3253842"
     height="1.2360992"><feGaussianBlur
       stdDeviation="1.3910175"
       id="feGaussianBlur612" /></filter><filter
     style="color-interpolation-filters:sRGB"
     id="filter613"
     x="-0.16269211"
     y="-0.11807919"
     width="1.3253842"
     height="1.2361584"><feGaussianBlur
       stdDeviation="1.3910175"
       id="feGaussianBlur613" /></filter><filter
     style="color-interpolation-filters:sRGB"
     id="filter614"
     x="-0.16268418"
     y="-0.11806967"
     width="1.3253684"
     height="1.2361393"><feGaussianBlur
       stdDeviation="1.3910175"
       id="feGaussianBlur614" /></filter><filter
     style="color-interpolation-filters:sRGB"
     id="filter615"
     x="-0.16269211"
     y="-0.11807822"
     width="1.3253842"
     height="1.2361564"><feGaussianBlur
       stdDeviation="1.3910175"
       id="feGaussianBlur615" /></filter><filter
     style="color-interpolation-filters:sRGB"
     id="filter616"
     x="-0.16269211"
     y="-0.11804958"
     width="1.3253842"
     height="1.2360992"><feGaussianBlur
       stdDeviation="1.3910175"
       id="feGaussianBlur616" /></filter><filter
     style="color-interpolation-filters:sRGB"
     id="filter617"
     x="-0.08782071"
     y="-0.082016586"
     width="1.1756414"
     height="1.1640332"><feGaussianBlur
       stdDeviation="0.0086144068"
       id="feGaussianBlur617" /></filter><filter
     style="color-interpolation-filters:sRGB"
     id="filter618"
     x="-0.08782071"
     y="-0.082016586"
     width="1.1756414"
     height="1.1640332"><feGaussianBlur
       stdDeviation="0.0086144068"
       id="feGaussianBlur618" /></filter></defs>
 
 
<style
   type="text/css"
   id="style1-3">
	.st0{fill:#878787;}
	.st1{fill:#F2E1D6;}
	.st2{fill:#FFFFFF;}
	.st3{fill:#F0C020;}
	.st4{fill:#F9E5AF;}
	.st5{fill:#72C1E8;}
	.st6{fill:#C5E5FF;}
	.st7{fill:#13BF6D;}
	.st8{fill:#76FFBA;}
	.st9{fill:#EFEFEF;}
	.st10{fill:#FC5D3D;}
	.st11{fill:#FFCBC2;}
	.st12{fill:#FFB69F;}
	.st13{fill:#AFAFAF;}
	.st14{fill:#7C7B7A;}
	.st15{fill:#D6C0B4;}
	.st16{fill:#7A7380;}
	.st17{fill:#F0AB20;}
	.st18{fill:#FBE0E2;}
	.st19{fill:#4C4945;}
	.st20{fill:#68B0D4;}
	.st21{fill:#B35034;}
	.st22{fill:#EDAF85;}
	.st23{fill:#139C6D;}
</style><style
   type="text/css"
   id="style1-9">
	.st0{display:none;}
	.st1{display:inline;fill:#1E1A1B;}
	.st2{display:inline;fill:#232323;}
	.st3{display:none;fill:#232323;}
	.st4{fill:#232323;}
</style><style
   type="text/css"
   id="style1-37">
	.st0{display:none;}
	.st1{display:inline;fill:#1E1A1B;}
	.st2{display:inline;fill:#232323;}
	.st3{display:none;fill:#232323;}
	.st4{fill:#232323;}
</style><g
   id="g618"><g
     id="g437"
     style="clip-rule:evenodd;display:inline;fill-rule:evenodd;image-rendering:optimizeQuality;shape-rendering:geometricPrecision;text-rendering:geometricPrecision"><g
       id="g433"
       transform="translate(0.1347726)"
       style="clip-rule:evenodd;fill-rule:evenodd;image-rendering:optimizeQuality;shape-rendering:geometricPrecision;text-rendering:geometricPrecision"><g
         id="g432"
         style="clip-rule:evenodd;fill-rule:evenodd;image-rendering:optimizeQuality;shape-rendering:geometricPrecision;text-rendering:geometricPrecision">
  <metadata
   id="metadata381" />
  <path
   class="fil0"
   d="M 5.21483,5.31973 C 5.21253,5.378411 5.163094,5.424116 5.104413,5.421817 5.045732,5.419517 5.000027,5.370081 5.002326,5.3114 5.006886,5.195034 5.009896,5.08016 5.011646,4.967227 5.013446,4.851333 5.014046,4.735735 5.013726,4.621329 5.011946,3.964975 4.839143,3.270859 4.548848,2.631669 4.265088,2.006866 3.869868,1.436629 3.413108,1.007329 2.922675,1.466412 2.551435,2.024739 2.290468,2.599479 1.971732,3.301444 1.818133,4.025489 1.813043,4.622129 c -9.764e-4,0.11478 -5.905e-4,0.231173 0.00121,0.347744 0.00173,0.11215 0.00489,0.226413 0.00951,0.341539 C 1.826063,5.370093 1.780358,5.41953 1.721676,5.421829 1.662995,5.424129 1.613558,5.378424 1.611259,5.319742 1.606739,5.207065 1.603579,5.090777 1.601749,4.972376 1.599939,4.854809 1.599549,4.737018 1.600539,4.620459 1.605869,3.995896 1.765374,3.240799 2.096303,2.511979 2.380586,1.885885 2.79187,1.277399 3.341303,0.785009 3.381063,0.748387 3.442905,0.7472767 3.48402,0.78406412 3.993229,1.2401271 4.433028,1.8616341 4.74301,2.5441741 c 0.301732,0.66437 0.481343,1.38879 0.483217,2.07716 3.189e-4,0.115756 -2.756e-4,0.232244 -0.00208,0.348402 -0.00185,0.119114 -0.00487,0.236287 -0.00932,0.35 z"
   id="path381"
   style="opacity:0.6;fill:#00abff;fill-opacity:1;filter:url(#filter596)" />
  <path
   class="fil0"
   d="m 3.41333,2.67312 c 0.06652,0 0.132299,0.00617 0.197157,0.017898 0.394961,0.071437 0.693083,0.350965 0.891417,0.698366 0.193409,0.338764 0.292315,0.744315 0.292315,1.07961 0,0.0885 -0.00718,0.173929 -0.021626,0.253795 C 4.762239,4.780545 4.707014,4.818974 4.649258,4.80862 4.604116,4.80053 4.570778,4.765018 4.563317,4.722317 l -3.071e-4,5.51e-5 c -0.04428,-0.253406 -0.237146,-0.435492 -0.492697,-0.54511 -0.19478,-0.083551 -0.425354,-0.125331 -0.656984,-0.125331 -0.23163,0 -0.462205,0.041779 -0.656984,0.125331 -0.255551,0.109618 -0.448417,0.291705 -0.492697,0.54511 -0.010122,0.057988 -0.065346,0.096787 -0.123335,0.086665 -0.048421,-0.00845 -0.083453,-0.048354 -0.087807,-0.095051 -0.013402,-0.077331 -0.020071,-0.159736 -0.020071,-0.244992 0,-0.335295 0.098909,-0.740846 0.292319,-1.07961 0.198335,-0.347406 0.496457,-0.626929 0.891417,-0.698366 0.064858,-0.011732 0.130638,-0.017898 0.197157,-0.017898 z M 3.572984,2.900183 C 3.523252,2.891183 3.470075,2.886459 3.41333,2.886459 c -0.056744,0 -0.109921,0.00473 -0.159654,0.013724 C 2.929278,2.9588602 2.679475,3.197096 2.509755,3.494384 2.372251,3.735227 2.287657,4.013364 2.257877,4.268447 2.366519,4.147128 2.509664,4.051498 2.673015,3.981427 2.894995,3.8862065 3.154696,3.838592 3.41333,3.838592 c 0.258634,0 0.518335,0.047614 0.740315,0.142835 0.16335,0.070071 0.306492,0.165697 0.415134,0.287012 C 4.5389995,4.013356 4.454405,3.735226 4.316905,3.494384 4.147185,3.197101 3.897381,2.95886 3.572984,2.900183 Z"
   id="path382"
   style="opacity:0.6;fill:#00abff;fill-opacity:1;filter:url(#filter595)" />
  <path
   class="fil0"
   d="m 3.35621,2.78212 c 0,-0.029453 0.023882,-0.053335 0.053335,-0.053335 0.029453,0 0.053335,0.023882 0.053335,0.053335 v 0.225669 c 0,0.029453 -0.023882,0.053335 -0.053335,0.053335 -0.029453,0 -0.053335,-0.023882 -0.053335,-0.053335 z"
   id="path383"
   style="opacity:0.6;fill:#00abff;fill-opacity:1;filter:url(#filter594)" />
  <path
   class="fil0"
   d="m 3.35621,3.65886 c 0,-0.029453 0.023882,-0.053335 0.053335,-0.053335 0.029453,0 0.053335,0.023882 0.053335,0.053335 v 0.225669 c 0,0.029453 -0.023882,0.053335 -0.053335,0.053335 -0.029453,0 -0.053335,-0.023882 -0.053335,-0.053335 z"
   id="path384"
   style="opacity:0.6;fill:#00abff;fill-opacity:1;filter:url(#filter593)" />
  <path
   class="fil0"
   d="m 3.57334,2.82755 c 0,-0.029453 0.023882,-0.053335 0.053335,-0.053335 0.029453,0 0.053335,0.023882 0.053335,0.053335 v 0.225669 c 0,0.029453 -0.023882,0.053335 -0.053335,0.053335 -0.029453,0 -0.053335,-0.023882 -0.053335,-0.053335 z"
   id="path385"
   style="opacity:0.6;fill:#00abff;fill-opacity:1;filter:url(#filter592)" />
  <path
   class="fil0"
   d="m 3.57334,3.70429 c 0,-0.029453 0.023882,-0.053335 0.053335,-0.053335 0.029453,0 0.053335,0.023882 0.053335,0.053335 v 0.225669 c 0,0.029453 -0.023882,0.053335 -0.053335,0.053335 -0.029453,0 -0.053335,-0.023882 -0.053335,-0.053335 z"
   id="path386"
   style="opacity:0.6;fill:#00abff;fill-opacity:1;filter:url(#filter591)" />
  <path
   class="fil0"
   d="m 3.13907,2.82755 c 0,-0.029453 0.023882,-0.053335 0.053335,-0.053335 0.029453,0 0.053335,0.023882 0.053335,0.053335 v 0.225669 c 0,0.029453 -0.023882,0.053335 -0.053335,0.053335 -0.029453,0 -0.053335,-0.023882 -0.053335,-0.053335 z"
   id="path387"
   style="opacity:0.6;fill:#00abff;fill-opacity:1;filter:url(#filter590)" />
  <path
   class="fil0"
   d="m 3.13907,3.70429 c 0,-0.029453 0.023882,-0.053335 0.053335,-0.053335 0.029453,0 0.053335,0.023882 0.053335,0.053335 v 0.225669 c 0,0.029453 -0.023882,0.053335 -0.053335,0.053335 -0.029453,0 -0.053335,-0.023882 -0.053335,-0.053335 z"
   id="path388"
   style="opacity:0.6;fill:#00abff;fill-opacity:1;filter:url(#filter589)" />
  <path
   class="fil0"
   d="m 3.79046,2.87298 c 0,-0.029453 0.023882,-0.053335 0.053335,-0.053335 0.029453,0 0.053335,0.023882 0.053335,0.053335 v 0.225669 c 0,0.029453 -0.023882,0.053335 -0.053335,0.053335 -0.029453,0 -0.053335,-0.023882 -0.053335,-0.053335 z"
   id="path389"
   style="opacity:0.6;fill:#00abff;fill-opacity:1;filter:url(#filter588)" />
  <path
   class="fil0"
   d="m 3.79046,3.74972 c 0,-0.029453 0.023882,-0.053335 0.053335,-0.053335 0.029453,0 0.053335,0.023882 0.053335,0.053335 v 0.225669 c 0,0.029453 -0.023882,0.053335 -0.053335,0.053335 -0.029453,0 -0.053335,-0.023882 -0.053335,-0.053335 z"
   id="path390"
   style="opacity:0.6;fill:#00abff;fill-opacity:1;filter:url(#filter587)" />
  <path
   class="fil0"
   d="m 2.92194,2.87298 c 0,-0.029453 0.023882,-0.053335 0.053335,-0.053335 0.029453,0 0.053335,0.023882 0.053335,0.053335 v 0.225669 c 0,0.029453 -0.023882,0.053335 -0.053335,0.053335 -0.029453,0 -0.053335,-0.023882 -0.053335,-0.053335 z"
   id="path391"
   style="opacity:0.6;fill:#00abff;fill-opacity:1;filter:url(#filter586)" />
  <path
   class="fil0"
   d="m 2.92194,3.74972 c 0,-0.029453 0.023882,-0.053335 0.053335,-0.053335 0.029453,0 0.053335,0.023882 0.053335,0.053335 v 0.225669 c 0,0.029453 -0.023882,0.053335 -0.053335,0.053335 -0.029453,0 -0.053335,-0.023882 -0.053335,-0.053335 z"
   id="path392"
   style="opacity:0.6;fill:#00abff;fill-opacity:1;filter:url(#filter585)" />
  <path
   class="fil0"
   d="m 4.00759,3.05322 c 0,-0.029453 0.023882,-0.053335 0.053335,-0.053335 0.029453,0 0.053335,0.023882 0.053335,0.053335 v 0.225669 c 0,0.029453 -0.023882,0.053335 -0.053335,0.053335 -0.029453,0 -0.053335,-0.023882 -0.053335,-0.053335 z"
   id="path393"
   style="opacity:0.6;fill:#00abff;fill-opacity:1;filter:url(#filter584)" />
  <path
   class="fil0"
   d="m 4.00759,3.8233 c 0,-0.029453 0.023882,-0.053335 0.053335,-0.053335 0.029453,0 0.053335,0.023882 0.053335,0.053335 v 0.225669 c 0,0.029453 -0.023882,0.053335 -0.053335,0.053335 -0.029453,0 -0.053335,-0.023882 -0.053335,-0.053335 z"
   id="path394"
   style="opacity:0.6;fill:#00abff;fill-opacity:1;filter:url(#filter583)" />
  <path
   class="fil0"
   d="m 2.70482,3.05322 c 0,-0.029453 0.023882,-0.053335 0.053335,-0.053335 0.029453,0 0.053335,0.023882 0.053335,0.053335 v 0.225669 c 0,0.029453 -0.023882,0.053335 -0.053335,0.053335 -0.029453,0 -0.053335,-0.023882 -0.053335,-0.053335 z"
   id="path395"
   style="opacity:0.6;fill:#00abff;fill-opacity:1;filter:url(#filter582)" />
  <path
   class="fil0"
   d="m 2.70482,3.8233 c 0,-0.029453 0.023882,-0.053335 0.053335,-0.053335 0.029453,0 0.053335,0.023882 0.053335,0.053335 v 0.225669 c 0,0.029453 -0.023882,0.053335 -0.053335,0.053335 -0.029453,0 -0.053335,-0.023882 -0.053335,-0.053335 z"
   id="path396"
   style="opacity:0.6;fill:#00abff;fill-opacity:1;filter:url(#filter581)" />
  <path
   class="fil0"
   d="m 4.22472,3.33415 c 0,-0.029453 0.023882,-0.053335 0.053335,-0.053335 0.029453,0 0.053335,0.023882 0.053335,0.053335 v 0.225669 c 0,0.029453 -0.023882,0.053335 -0.053335,0.053335 -0.029453,0 -0.053335,-0.023882 -0.053335,-0.053335 z"
   id="path397"
   style="opacity:0.6;fill:#00abff;fill-opacity:1;filter:url(#filter580)" />
  <path
   class="fil0"
   d="m 4.22472,3.97077 c 0,-0.029453 0.023882,-0.053335 0.053335,-0.053335 0.029453,0 0.053335,0.023882 0.053335,0.053335 v 0.225669 c 0,0.029453 -0.023882,0.053335 -0.053335,0.053335 -0.029453,0 -0.053335,-0.023882 -0.053335,-0.053335 z"
   id="path398"
   style="opacity:0.6;fill:#00abff;fill-opacity:1;filter:url(#filter579)" />
  <path
   class="fil0"
   d="m 2.48769,3.33415 c 0,-0.029453 0.023882,-0.053335 0.053335,-0.053335 0.029453,0 0.053335,0.023882 0.053335,0.053335 v 0.225669 c 0,0.029453 -0.023882,0.053335 -0.053335,0.053335 -0.029453,0 -0.053335,-0.023882 -0.053335,-0.053335 z"
   id="path399"
   style="opacity:0.6;fill:#00abff;fill-opacity:1;filter:url(#filter578)" />
  <path
   class="fil0"
   d="m 2.48769,3.97077 c 0,-0.029453 0.023882,-0.053335 0.053335,-0.053335 0.029453,0 0.053335,0.023882 0.053335,0.053335 v 0.225669 c 0,0.029453 -0.023882,0.053335 -0.053335,0.053335 -0.029453,0 -0.053335,-0.023882 -0.053335,-0.053335 z"
   id="path400"
   style="opacity:0.6;fill:#00abff;fill-opacity:1;filter:url(#filter577)" />
  <g
   id="g401">
   <ellipse
   id="ellipse400"
   class="fil1"
   transform="matrix(0.763255,0.295174,-0.370811,0.958837,2.93801,2.0741)"
   rx="0.117709"
   ry="0.126039"
   style="opacity:0.6;fill:#ff3dfb;fill-opacity:1;filter:url(#filter618)"
   cx="0"
   cy="0" />
   <ellipse
   id="ellipse401"
   class="fil1"
   transform="matrix(-0.763255,0.295174,0.370811,0.958837,3.88865,2.0741)"
   rx="0.117709"
   ry="0.126039"
   style="opacity:0.6;fill:#ff3dfb;fill-opacity:1;filter:url(#filter617)"
   cx="0"
   cy="0" />
  </g>
  
  
 <g
   id="g416"
   transform="matrix(0.01041667,0,0,0.01041667,0.59716983,3.4486643)"
   style="fill:#00abff;fill-opacity:1"><g
     id="g415"
     style="fill:#00abff;fill-opacity:1">
	<g
   id="g414"
   style="fill:#00abff;fill-opacity:1">
		<g
   id="g405"
   style="fill:#00abff;fill-opacity:1">
			<g
   id="g402"
   style="fill:#00abff;fill-opacity:1">
				
			</g>
			<g
   id="g403"
   style="fill:#00abff;fill-opacity:1">
				
			</g>
			<g
   id="g404"
   style="fill:#00abff;fill-opacity:1">
				
			</g>
		</g>
		
		
		
		
		
		
		
		
		
		
		<path
   d="m 40.46,205.662 c -1.38,0 -2.5,1.13 -2.5,2.5 0,1.38 1.12,2.5 2.5,2.5 h 15.52 c 1.38,0 2.5,-1.12 2.5,-2.5 0,-1.37 -1.12,-2.5 -2.5,-2.5 h -5.26 v -20.78 c 0,-1.875 -1.986,-3.046 -3.62,-2.23 l -7.3,3.66 c -1.194,0.597 -1.748,2.084 -1.11,3.36 0.6,1.2 2.14,1.72 3.35,1.11 l 3.68,-1.84 v 16.72 z"
   id="path405"
   style="opacity:0.6;fill:#00abff;fill-opacity:1;filter:url(#filter607)" />
		<path
   d="m 58.48,239.333 v -7.76 c 0,-5.65 -4.6,-10.25 -10.26,-10.26 -5.65,0.01 -10.26,4.61 -10.26,10.26 v 7.76 c 0,5.66 4.61,10.26 10.26,10.26 5.66,-10e-4 10.26,-4.601 10.26,-10.26 z m -15.52,0 v -7.76 c 0.01,-2.89 2.37,-5.25 5.26,-5.26 2.9,0.01 5.26,2.37 5.26,5.26 v 7.76 c 0,2.9 -2.36,5.26 -5.26,5.26 -2.89,-10e-4 -5.25,-2.361 -5.26,-5.26 z"
   id="path406"
   style="opacity:0.6;fill:#00abff;fill-opacity:1;filter:url(#filter616)" />
		<path
   d="m 95.87,249.592 c 1.38,0 2.5,-1.12 2.5,-2.5 0,-1.37 -1.12,-2.5 -2.5,-2.5 h -5.26 v -20.77 c 0,-1.916 -2.009,-3.046 -3.62,-2.24 l -7.3,3.66 c -1.23,0.62 -1.73,2.13 -1.12,3.36 0.61,1.2 2.15,1.72 3.36,1.11 l 3.68,-1.84 v 16.72 h -5.26 c -1.38,0 -2.5,1.13 -2.5,2.5 0,1.38 1.12,2.5 2.5,2.5 3.616,0 7.309,0 15.52,0 z"
   id="path407"
   style="opacity:0.6;fill:#00abff;fill-opacity:1;filter:url(#filter615)" />
		<path
   d="m 200.02,244.603 c -1.38,0 -2.5,1.12 -2.5,2.5 0,1.37 1.12,2.49 2.5,2.49 h 15.521 c 1.38,0 2.5,-1.12 2.5,-2.49 0,-1.38 -1.12,-2.5 -2.5,-2.5 h -5.26 v -20.78 c 0,-1.86 -1.968,-3.067 -3.62,-2.24 l -7.311,3.66 c -1.211,0.616 -1.742,2.099 -1.109,3.36 0.6,1.2 2.149,1.72 3.359,1.11 l 3.681,-1.84 v 16.73 z"
   id="path408"
   style="opacity:0.6;fill:#00abff;fill-opacity:1;filter:url(#filter614)" />
		<path
   d="m 80.35,205.662 c -1.38,0 -2.5,1.13 -2.5,2.5 0,1.38 1.12,2.5 2.5,2.5 h 15.52 c 1.38,0 2.5,-1.12 2.5,-2.5 0,-1.37 -1.12,-2.5 -2.5,-2.5 h -5.26 v -20.77 c 0,-1.914 -2.007,-3.046 -3.62,-2.24 l -7.3,3.66 c -1.23,0.62 -1.73,2.13 -1.12,3.36 0.61,1.2 2.15,1.72 3.36,1.11 l 3.68,-1.84 v 16.72 z"
   id="path409"
   style="opacity:0.6;fill:#00abff;fill-opacity:1;filter:url(#filter613)" />
		<path
   d="m 159.12,192.642 v 7.76 c 0,5.66 4.6,10.26 10.26,10.26 5.66,0 10.26,-4.6 10.26,-10.26 v -7.76 c 0,-5.65 -4.6,-10.25 -10.26,-10.26 -5.66,0.01 -10.26,4.61 -10.26,10.26 z m 15.52,0 v 7.76 c -0.01,2.9 -2.37,5.26 -5.26,5.26 -2.9,0 -5.26,-2.36 -5.26,-5.26 v -7.76 c 0,-2.89 2.359,-5.25 5.26,-5.26 2.89,0.01 5.25,2.371 5.26,5.26 z"
   id="path410"
   style="opacity:0.6;fill:#00abff;fill-opacity:1;filter:url(#filter612)" />
		<path
   d="m 197.52,200.412 c 0,5.65 4.601,10.25 10.261,10.25 5.649,0 10.26,-4.6 10.26,-10.25 v -7.77 c 0,-5.65 -4.61,-10.25 -10.26,-10.26 -5.66,0.01 -10.261,4.61 -10.261,10.26 z m 5,-7.77 c 0,-2.89 2.36,-5.25 5.261,-5.26 2.89,0.01 5.25,2.37 5.26,5.26 v 7.77 c -0.01,2.89 -2.37,5.25 -5.26,5.25 -2.9,0 -5.261,-2.36 -5.261,-5.25 z"
   id="path411"
   style="opacity:0.6;fill:#00abff;fill-opacity:1;filter:url(#filter611)" />
		<path
   d="m 179.64,239.342 v -7.77 c 0,-5.65 -4.6,-10.25 -10.26,-10.25 -5.66,0 -10.26,4.6 -10.26,10.25 v 7.77 c 0,5.65 4.6,10.25 10.26,10.25 5.66,0 10.26,-4.6 10.26,-10.25 z m -5,0 c -0.01,2.89 -2.37,5.25 -5.26,5.25 -2.9,0 -5.26,-2.36 -5.26,-5.25 v -7.77 c 0,-2.89 2.359,-5.25 5.26,-5.26 2.89,0.01 5.25,2.37 5.26,5.26 z"
   id="path412"
   style="opacity:0.6;fill:#00abff;fill-opacity:1;filter:url(#filter610)" />
		<path
   d="m 120.24,205.662 c -1.38,0 -2.5,1.13 -2.5,2.5 0,1.38 1.12,2.5 2.5,2.5 h 15.52 c 1.38,0 2.5,-1.12 2.5,-2.5 0,-1.37 -1.12,-2.5 -2.5,-2.5 h -5.26 v -20.78 c 0,-1.903 -2.011,-3.034 -3.62,-2.23 l -7.3,3.66 c -1.242,0.621 -1.726,2.149 -1.12,3.36 0.61,1.2 2.15,1.72 3.36,1.11 l 3.68,-1.84 v 16.72 z"
   id="path413"
   style="opacity:0.6;fill:#00abff;fill-opacity:1;filter:url(#filter609)" />
		<path
   d="m 138.26,239.342 v -7.77 c 0,-5.65 -4.6,-10.25 -10.26,-10.26 -5.65,0.01 -10.26,4.61 -10.26,10.26 v 7.77 c 0,5.65 4.61,10.25 10.26,10.25 5.66,0 10.26,-4.6 10.26,-10.25 z m -5,0 c -0.01,2.89 -2.37,5.25 -5.26,5.25 -2.9,0 -5.26,-2.36 -5.26,-5.25 v -7.77 c 0,-2.89 2.36,-5.25 5.26,-5.26 2.89,0.01 5.25,2.37 5.26,5.26 z"
   id="path414"
   style="opacity:0.6;fill:#00abff;fill-opacity:1;filter:url(#filter608)" />
		
		
		
	</g>
</g></g><g
   id="g431"
   transform="matrix(0.01041667,0,0,0.01041667,1.551694,3.4365817)"
   style="fill:#00abff;fill-opacity:1"><g
     id="g430"
     transform="translate(193.70793,1.1599277)"
     style="fill:#00abff;fill-opacity:1">
	<g
   id="g429"
   style="fill:#00abff;fill-opacity:1">
		<g
   id="g420"
   style="fill:#00abff;fill-opacity:1">
			<g
   id="g417"
   style="fill:#00abff;fill-opacity:1">
				
			</g>
			<g
   id="g418"
   style="fill:#00abff;fill-opacity:1">
				
			</g>
			<g
   id="g419"
   style="fill:#00abff;fill-opacity:1">
				
			</g>
		</g>
		
		
		
		
		
		
		
		
		
		
		<path
   d="m 40.46,205.662 c -1.38,0 -2.5,1.13 -2.5,2.5 0,1.38 1.12,2.5 2.5,2.5 h 15.52 c 1.38,0 2.5,-1.12 2.5,-2.5 0,-1.37 -1.12,-2.5 -2.5,-2.5 h -5.26 v -20.78 c 0,-1.875 -1.986,-3.046 -3.62,-2.23 l -7.3,3.66 c -1.194,0.597 -1.748,2.084 -1.11,3.36 0.6,1.2 2.14,1.72 3.35,1.11 l 3.68,-1.84 v 16.72 z"
   id="path420"
   style="opacity:0.6;fill:#00abff;fill-opacity:1;filter:url(#filter606)" />
		<path
   d="m 58.48,239.333 v -7.76 c 0,-5.65 -4.6,-10.25 -10.26,-10.26 -5.65,0.01 -10.26,4.61 -10.26,10.26 v 7.76 c 0,5.66 4.61,10.26 10.26,10.26 5.66,-10e-4 10.26,-4.601 10.26,-10.26 z m -15.52,0 v -7.76 c 0.01,-2.89 2.37,-5.25 5.26,-5.26 2.9,0.01 5.26,2.37 5.26,5.26 v 7.76 c 0,2.9 -2.36,5.26 -5.26,5.26 -2.89,-10e-4 -5.25,-2.361 -5.26,-5.26 z"
   id="path421"
   style="opacity:0.6;fill:#00abff;fill-opacity:1;filter:url(#filter605)" />
		<path
   d="m 95.87,249.592 c 1.38,0 2.5,-1.12 2.5,-2.5 0,-1.37 -1.12,-2.5 -2.5,-2.5 h -5.26 v -20.77 c 0,-1.916 -2.009,-3.046 -3.62,-2.24 l -7.3,3.66 c -1.23,0.62 -1.73,2.13 -1.12,3.36 0.61,1.2 2.15,1.72 3.36,1.11 l 3.68,-1.84 v 16.72 h -5.26 c -1.38,0 -2.5,1.13 -2.5,2.5 0,1.38 1.12,2.5 2.5,2.5 3.616,0 7.309,0 15.52,0 z"
   id="path422"
   style="opacity:0.6;fill:#00abff;fill-opacity:1;filter:url(#filter604)" />
		<path
   d="m 200.02,244.603 c -1.38,0 -2.5,1.12 -2.5,2.5 0,1.37 1.12,2.49 2.5,2.49 h 15.521 c 1.38,0 2.5,-1.12 2.5,-2.49 0,-1.38 -1.12,-2.5 -2.5,-2.5 h -5.26 v -20.78 c 0,-1.86 -1.968,-3.067 -3.62,-2.24 l -7.311,3.66 c -1.211,0.616 -1.742,2.099 -1.109,3.36 0.6,1.2 2.149,1.72 3.359,1.11 l 3.681,-1.84 v 16.73 z"
   id="path423"
   style="opacity:0.6;fill:#00abff;fill-opacity:1;filter:url(#filter603)" />
		<path
   d="m 80.35,205.662 c -1.38,0 -2.5,1.13 -2.5,2.5 0,1.38 1.12,2.5 2.5,2.5 h 15.52 c 1.38,0 2.5,-1.12 2.5,-2.5 0,-1.37 -1.12,-2.5 -2.5,-2.5 h -5.26 v -20.77 c 0,-1.914 -2.007,-3.046 -3.62,-2.24 l -7.3,3.66 c -1.23,0.62 -1.73,2.13 -1.12,3.36 0.61,1.2 2.15,1.72 3.36,1.11 l 3.68,-1.84 v 16.72 z"
   id="path424"
   style="opacity:0.6;fill:#00abff;fill-opacity:1;filter:url(#filter602)" />
		<path
   d="m 159.12,192.642 v 7.76 c 0,5.66 4.6,10.26 10.26,10.26 5.66,0 10.26,-4.6 10.26,-10.26 v -7.76 c 0,-5.65 -4.6,-10.25 -10.26,-10.26 -5.66,0.01 -10.26,4.61 -10.26,10.26 z m 15.52,0 v 7.76 c -0.01,2.9 -2.37,5.26 -5.26,5.26 -2.9,0 -5.26,-2.36 -5.26,-5.26 v -7.76 c 0,-2.89 2.359,-5.25 5.26,-5.26 2.89,0.01 5.25,2.371 5.26,5.26 z"
   id="path425"
   style="opacity:0.6;fill:#00abff;fill-opacity:1;filter:url(#filter601)" />
		<path
   d="m 197.52,200.412 c 0,5.65 4.601,10.25 10.261,10.25 5.649,0 10.26,-4.6 10.26,-10.25 v -7.77 c 0,-5.65 -4.61,-10.25 -10.26,-10.26 -5.66,0.01 -10.261,4.61 -10.261,10.26 z m 5,-7.77 c 0,-2.89 2.36,-5.25 5.261,-5.26 2.89,0.01 5.25,2.37 5.26,5.26 v 7.77 c -0.01,2.89 -2.37,5.25 -5.26,5.25 -2.9,0 -5.261,-2.36 -5.261,-5.25 z"
   id="path426"
   style="opacity:0.6;fill:#00abff;fill-opacity:1;filter:url(#filter600)" />
		<path
   d="m 179.64,239.342 v -7.77 c 0,-5.65 -4.6,-10.25 -10.26,-10.25 -5.66,0 -10.26,4.6 -10.26,10.25 v 7.77 c 0,5.65 4.6,10.25 10.26,10.25 5.66,0 10.26,-4.6 10.26,-10.25 z m -5,0 c -0.01,2.89 -2.37,5.25 -5.26,5.25 -2.9,0 -5.26,-2.36 -5.26,-5.25 v -7.77 c 0,-2.89 2.359,-5.25 5.26,-5.26 2.89,0.01 5.25,2.37 5.26,5.26 z"
   id="path427"
   style="opacity:0.6;fill:#00abff;fill-opacity:1;filter:url(#filter599)" />
		<path
   d="m 120.24,205.662 c -1.38,0 -2.5,1.13 -2.5,2.5 0,1.38 1.12,2.5 2.5,2.5 h 15.52 c 1.38,0 2.5,-1.12 2.5,-2.5 0,-1.37 -1.12,-2.5 -2.5,-2.5 h -5.26 v -20.78 c 0,-1.903 -2.011,-3.034 -3.62,-2.23 l -7.3,3.66 c -1.242,0.621 -1.726,2.149 -1.12,3.36 0.61,1.2 2.15,1.72 3.36,1.11 l 3.68,-1.84 v 16.72 z"
   id="path428"
   style="opacity:0.6;fill:#00abff;fill-opacity:1;filter:url(#filter598)" />
		<path
   d="m 138.26,239.342 v -7.77 c 0,-5.65 -4.6,-10.25 -10.26,-10.26 -5.65,0.01 -10.26,4.61 -10.26,10.26 v 7.77 c 0,5.65 4.61,10.25 10.26,10.25 5.66,0 10.26,-4.6 10.26,-10.25 z m -5,0 c -0.01,2.89 -2.37,5.25 -5.26,5.25 -2.9,0 -5.26,-2.36 -5.26,-5.25 v -7.77 c 0,-2.89 2.36,-5.25 5.26,-5.26 2.89,0.01 5.25,2.37 5.26,5.26 z"
   id="path429"
   style="opacity:0.6;fill:#00abff;fill-opacity:1;filter:url(#filter597)" />
		
		
		
	</g>
</g></g></g></g><g
       id="g436"
       transform="translate(0.1347726)"
       style="clip-rule:evenodd;fill-rule:evenodd;image-rendering:optimizeQuality;shape-rendering:geometricPrecision;text-rendering:geometricPrecision"><g
         id="g435"
         transform="matrix(0.04478976,0,0,0.01041667,0.51019993,5.12918)"
         style="clip-rule:evenodd;fill:#e619a2;fill-opacity:1;fill-rule:evenodd;image-rendering:optimizeQuality;shape-rendering:geometricPrecision;text-rendering:geometricPrecision"><g
           id="g434"
           style="fill:#e619a2;fill-opacity:1">
	
	
	
	<path
   id="path433"
   class="st4"
   d="m 128,89.2 c -6.9,0 -9.1,-10.9 -11.9,-24.8 -1.4,-6.8 -3.9,-19.3 -6.4,-20.5 -2.5,1.3 -5,13.8 -6.4,20.5 -2.8,13.8 -5,24.8 -11.9,24.8 -6.9,0 -9.1,-10.9 -11.9,-24.8 -1.4,-6.8 -3.9,-19.3 -6.4,-20.5 -2.5,1.3 -5,13.8 -6.4,20.5 -2.8,13.8 -5,24.8 -11.9,24.8 C 47.9,89.2 45.7,78.3 42.9,64.4 41.5,57.6 39,45.1 36.5,43.9 34,45.2 31.5,57.7 30.1,64.4 27.3,78.2 25.1,89.2 18.2,89.2 11.3,89.2 9.1,78.3 6.3,64.4 5.1,57.6 2.5,44.9 0,43.9 l 0.1,-5.1 c 6.9,0 9.1,10.9 11.9,24.7 1.4,6.8 3.9,19.3 6.4,20.5 2.5,-1.3 5,-13.8 6.4,-20.5 2.8,-13.8 5,-24.8 11.9,-24.8 6.9,0 9.1,10.9 11.9,24.8 1.4,6.8 3.9,19.3 6.4,20.5 2.5,-1.3 5,-13.8 6.4,-20.5 2.8,-13.8 5,-24.8 11.9,-24.8 6.9,0 9.1,10.9 11.9,24.8 1.4,6.8 3.9,19.3 6.4,20.5 2.5,-1.3 5,-13.8 6.4,-20.5 2.8,-13.8 5,-24.8 11.9,-24.8 6.9,0 9.1,10.9 11.9,24.8 1.4,6.8 3.9,19.3 6.4,20.5 z"
   style="opacity:0.6;fill:#ff3dfb;fill-opacity:1;filter:url(#filter576)" />
	
</g></g></g></g><g
     id="g380"
     style="clip-rule:evenodd;fill-rule:evenodd;image-rendering:optimizeQuality;shape-rendering:geometricPrecision;text-rendering:geometricPrecision"><g
       id="g365"
       transform="translate(0.1347726)"
       style="clip-rule:evenodd;fill-rule:evenodd;image-rendering:optimizeQuality;shape-rendering:geometricPrecision;text-rendering:geometricPrecision"><g
         id="g364"
         style="clip-rule:evenodd;fill-rule:evenodd;image-rendering:optimizeQuality;shape-rendering:geometricPrecision;text-rendering:geometricPrecision">
  <metadata
   id="metadata313" />
  <path
   class="fil0"
   d="M 5.21483,5.31973 C 5.21253,5.378411 5.163094,5.424116 5.104413,5.421817 5.045732,5.419517 5.000027,5.370081 5.002326,5.3114 5.006886,5.195034 5.009896,5.08016 5.011646,4.967227 5.013446,4.851333 5.014046,4.735735 5.013726,4.621329 5.011946,3.964975 4.839143,3.270859 4.548848,2.631669 4.265088,2.006866 3.869868,1.436629 3.413108,1.007329 2.922675,1.466412 2.551435,2.024739 2.290468,2.599479 1.971732,3.301444 1.818133,4.025489 1.813043,4.622129 c -9.764e-4,0.11478 -5.905e-4,0.231173 0.00121,0.347744 0.00173,0.11215 0.00489,0.226413 0.00951,0.341539 C 1.826063,5.370093 1.780358,5.41953 1.721676,5.421829 1.662995,5.424129 1.613558,5.378424 1.611259,5.319742 1.606739,5.207065 1.603579,5.090777 1.601749,4.972376 1.599939,4.854809 1.599549,4.737018 1.600539,4.620459 1.605869,3.995896 1.765374,3.240799 2.096303,2.511979 2.380586,1.885885 2.79187,1.277399 3.341303,0.785009 3.381063,0.748387 3.442905,0.7472767 3.48402,0.78406412 3.993229,1.2401271 4.433028,1.8616341 4.74301,2.5441741 c 0.301732,0.66437 0.481343,1.38879 0.483217,2.07716 3.189e-4,0.115756 -2.756e-4,0.232244 -0.00208,0.348402 -0.00185,0.119114 -0.00487,0.236287 -0.00932,0.35 z"
   id="path313"
   style="fill:url(#linearGradient477);fill-opacity:1" />
  <path
   class="fil0"
   d="m 3.41333,2.67312 c 0.06652,0 0.132299,0.00617 0.197157,0.017898 0.394961,0.071437 0.693083,0.350965 0.891417,0.698366 0.193409,0.338764 0.292315,0.744315 0.292315,1.07961 0,0.0885 -0.00718,0.173929 -0.021626,0.253795 C 4.762239,4.780545 4.707014,4.818974 4.649258,4.80862 4.604116,4.80053 4.570778,4.765018 4.563317,4.722317 l -3.071e-4,5.51e-5 c -0.04428,-0.253406 -0.237146,-0.435492 -0.492697,-0.54511 -0.19478,-0.083551 -0.425354,-0.125331 -0.656984,-0.125331 -0.23163,0 -0.462205,0.041779 -0.656984,0.125331 -0.255551,0.109618 -0.448417,0.291705 -0.492697,0.54511 -0.010122,0.057988 -0.065346,0.096787 -0.123335,0.086665 -0.048421,-0.00845 -0.083453,-0.048354 -0.087807,-0.095051 -0.013402,-0.077331 -0.020071,-0.159736 -0.020071,-0.244992 0,-0.335295 0.098909,-0.740846 0.292319,-1.07961 0.198335,-0.347406 0.496457,-0.626929 0.891417,-0.698366 0.064858,-0.011732 0.130638,-0.017898 0.197157,-0.017898 z M 3.572984,2.900183 C 3.523252,2.891183 3.470075,2.886459 3.41333,2.886459 c -0.056744,0 -0.109921,0.00473 -0.159654,0.013724 C 2.929278,2.9588602 2.679475,3.197096 2.509755,3.494384 2.372251,3.735227 2.287657,4.013364 2.257877,4.268447 2.366519,4.147128 2.509664,4.051498 2.673015,3.981427 2.894995,3.8862065 3.154696,3.838592 3.41333,3.838592 c 0.258634,0 0.518335,0.047614 0.740315,0.142835 0.16335,0.070071 0.306492,0.165697 0.415134,0.287012 C 4.5389995,4.013356 4.454405,3.735226 4.316905,3.494384 4.147185,3.197101 3.897381,2.95886 3.572984,2.900183 Z"
   id="path314"
   style="fill:url(#linearGradient476);fill-opacity:1" />
  <path
   class="fil0"
   d="m 3.35621,2.78212 c 0,-0.029453 0.023882,-0.053335 0.053335,-0.053335 0.029453,0 0.053335,0.023882 0.053335,0.053335 v 0.225669 c 0,0.029453 -0.023882,0.053335 -0.053335,0.053335 -0.029453,0 -0.053335,-0.023882 -0.053335,-0.053335 z"
   id="path315"
   style="fill:url(#linearGradient475);fill-opacity:1" />
  <path
   class="fil0"
   d="m 3.35621,3.65886 c 0,-0.029453 0.023882,-0.053335 0.053335,-0.053335 0.029453,0 0.053335,0.023882 0.053335,0.053335 v 0.225669 c 0,0.029453 -0.023882,0.053335 -0.053335,0.053335 -0.029453,0 -0.053335,-0.023882 -0.053335,-0.053335 z"
   id="path316"
   style="fill:url(#linearGradient474);fill-opacity:1" />
  <path
   class="fil0"
   d="m 3.57334,2.82755 c 0,-0.029453 0.023882,-0.053335 0.053335,-0.053335 0.029453,0 0.053335,0.023882 0.053335,0.053335 v 0.225669 c 0,0.029453 -0.023882,0.053335 -0.053335,0.053335 -0.029453,0 -0.053335,-0.023882 -0.053335,-0.053335 z"
   id="path317"
   style="fill:url(#linearGradient473);fill-opacity:1" />
  <path
   class="fil0"
   d="m 3.57334,3.70429 c 0,-0.029453 0.023882,-0.053335 0.053335,-0.053335 0.029453,0 0.053335,0.023882 0.053335,0.053335 v 0.225669 c 0,0.029453 -0.023882,0.053335 -0.053335,0.053335 -0.029453,0 -0.053335,-0.023882 -0.053335,-0.053335 z"
   id="path318"
   style="fill:url(#linearGradient472);fill-opacity:1" />
  <path
   class="fil0"
   d="m 3.13907,2.82755 c 0,-0.029453 0.023882,-0.053335 0.053335,-0.053335 0.029453,0 0.053335,0.023882 0.053335,0.053335 v 0.225669 c 0,0.029453 -0.023882,0.053335 -0.053335,0.053335 -0.029453,0 -0.053335,-0.023882 -0.053335,-0.053335 z"
   id="path319"
   style="fill:url(#linearGradient471);fill-opacity:1" />
  <path
   class="fil0"
   d="m 3.13907,3.70429 c 0,-0.029453 0.023882,-0.053335 0.053335,-0.053335 0.029453,0 0.053335,0.023882 0.053335,0.053335 v 0.225669 c 0,0.029453 -0.023882,0.053335 -0.053335,0.053335 -0.029453,0 -0.053335,-0.023882 -0.053335,-0.053335 z"
   id="path320"
   style="fill:url(#linearGradient470);fill-opacity:1" />
  <path
   class="fil0"
   d="m 3.79046,2.87298 c 0,-0.029453 0.023882,-0.053335 0.053335,-0.053335 0.029453,0 0.053335,0.023882 0.053335,0.053335 v 0.225669 c 0,0.029453 -0.023882,0.053335 -0.053335,0.053335 -0.029453,0 -0.053335,-0.023882 -0.053335,-0.053335 z"
   id="path321"
   style="fill:url(#linearGradient469);fill-opacity:1" />
  <path
   class="fil0"
   d="m 3.79046,3.74972 c 0,-0.029453 0.023882,-0.053335 0.053335,-0.053335 0.029453,0 0.053335,0.023882 0.053335,0.053335 v 0.225669 c 0,0.029453 -0.023882,0.053335 -0.053335,0.053335 -0.029453,0 -0.053335,-0.023882 -0.053335,-0.053335 z"
   id="path322"
   style="fill:url(#linearGradient468);fill-opacity:1" />
  <path
   class="fil0"
   d="m 2.92194,2.87298 c 0,-0.029453 0.023882,-0.053335 0.053335,-0.053335 0.029453,0 0.053335,0.023882 0.053335,0.053335 v 0.225669 c 0,0.029453 -0.023882,0.053335 -0.053335,0.053335 -0.029453,0 -0.053335,-0.023882 -0.053335,-0.053335 z"
   id="path323"
   style="fill:url(#linearGradient467);fill-opacity:1" />
  <path
   class="fil0"
   d="m 2.92194,3.74972 c 0,-0.029453 0.023882,-0.053335 0.053335,-0.053335 0.029453,0 0.053335,0.023882 0.053335,0.053335 v 0.225669 c 0,0.029453 -0.023882,0.053335 -0.053335,0.053335 -0.029453,0 -0.053335,-0.023882 -0.053335,-0.053335 z"
   id="path324"
   style="fill:url(#linearGradient466);fill-opacity:1" />
  <path
   class="fil0"
   d="m 4.00759,3.05322 c 0,-0.029453 0.023882,-0.053335 0.053335,-0.053335 0.029453,0 0.053335,0.023882 0.053335,0.053335 v 0.225669 c 0,0.029453 -0.023882,0.053335 -0.053335,0.053335 -0.029453,0 -0.053335,-0.023882 -0.053335,-0.053335 z"
   id="path325"
   style="fill:url(#linearGradient465);fill-opacity:1" />
  <path
   class="fil0"
   d="m 4.00759,3.8233 c 0,-0.029453 0.023882,-0.053335 0.053335,-0.053335 0.029453,0 0.053335,0.023882 0.053335,0.053335 v 0.225669 c 0,0.029453 -0.023882,0.053335 -0.053335,0.053335 -0.029453,0 -0.053335,-0.023882 -0.053335,-0.053335 z"
   id="path326"
   style="fill:url(#linearGradient464);fill-opacity:1" />
  <path
   class="fil0"
   d="m 2.70482,3.05322 c 0,-0.029453 0.023882,-0.053335 0.053335,-0.053335 0.029453,0 0.053335,0.023882 0.053335,0.053335 v 0.225669 c 0,0.029453 -0.023882,0.053335 -0.053335,0.053335 -0.029453,0 -0.053335,-0.023882 -0.053335,-0.053335 z"
   id="path327"
   style="fill:url(#linearGradient463);fill-opacity:1" />
  <path
   class="fil0"
   d="m 2.70482,3.8233 c 0,-0.029453 0.023882,-0.053335 0.053335,-0.053335 0.029453,0 0.053335,0.023882 0.053335,0.053335 v 0.225669 c 0,0.029453 -0.023882,0.053335 -0.053335,0.053335 -0.029453,0 -0.053335,-0.023882 -0.053335,-0.053335 z"
   id="path328"
   style="fill:url(#linearGradient462);fill-opacity:1" />
  <path
   class="fil0"
   d="m 4.22472,3.33415 c 0,-0.029453 0.023882,-0.053335 0.053335,-0.053335 0.029453,0 0.053335,0.023882 0.053335,0.053335 v 0.225669 c 0,0.029453 -0.023882,0.053335 -0.053335,0.053335 -0.029453,0 -0.053335,-0.023882 -0.053335,-0.053335 z"
   id="path329"
   style="fill:url(#linearGradient461);fill-opacity:1" />
  <path
   class="fil0"
   d="m 4.22472,3.97077 c 0,-0.029453 0.023882,-0.053335 0.053335,-0.053335 0.029453,0 0.053335,0.023882 0.053335,0.053335 v 0.225669 c 0,0.029453 -0.023882,0.053335 -0.053335,0.053335 -0.029453,0 -0.053335,-0.023882 -0.053335,-0.053335 z"
   id="path330"
   style="fill:url(#linearGradient460);fill-opacity:1" />
  <path
   class="fil0"
   d="m 2.48769,3.33415 c 0,-0.029453 0.023882,-0.053335 0.053335,-0.053335 0.029453,0 0.053335,0.023882 0.053335,0.053335 v 0.225669 c 0,0.029453 -0.023882,0.053335 -0.053335,0.053335 -0.029453,0 -0.053335,-0.023882 -0.053335,-0.053335 z"
   id="path331"
   style="fill:url(#linearGradient459);fill-opacity:1" />
  <path
   class="fil0"
   d="m 2.48769,3.97077 c 0,-0.029453 0.023882,-0.053335 0.053335,-0.053335 0.029453,0 0.053335,0.023882 0.053335,0.053335 v 0.225669 c 0,0.029453 -0.023882,0.053335 -0.053335,0.053335 -0.029453,0 -0.053335,-0.023882 -0.053335,-0.053335 z"
   id="path332"
   style="fill:url(#linearGradient458);fill-opacity:1" />
  <g
   id="g333">
   <ellipse
   id="ellipse332"
   class="fil1"
   transform="matrix(0.763255,0.295174,-0.370811,0.958837,2.93801,2.0741)"
   rx="0.117709"
   ry="0.126039"
   style="fill:url(#linearGradient573);fill-opacity:1"
   cx="0"
   cy="0" />
   <ellipse
   id="ellipse333"
   class="fil1"
   transform="matrix(-0.763255,0.295174,0.370811,0.958837,3.88865,2.0741)"
   rx="0.117709"
   ry="0.126039"
   style="fill:url(#linearGradient572);fill-opacity:1"
   cx="0"
   cy="0" />
  </g>
  
  
 <g
   id="g348"
   transform="matrix(0.01041667,0,0,0.01041667,0.59716983,3.4486643)"
   style="fill:#00abff;fill-opacity:1"><g
     id="g347"
     style="fill:#00abff;fill-opacity:1">
	<g
   id="g346"
   style="fill:#00abff;fill-opacity:1">
		
		
		
		
		
		
		
		
		
		
		
		<path
   d="m 40.46,205.662 c -1.38,0 -2.5,1.13 -2.5,2.5 0,1.38 1.12,2.5 2.5,2.5 h 15.52 c 1.38,0 2.5,-1.12 2.5,-2.5 0,-1.37 -1.12,-2.5 -2.5,-2.5 h -5.26 v -20.78 c 0,-1.875 -1.986,-3.046 -3.62,-2.23 l -7.3,3.66 c -1.194,0.597 -1.748,2.084 -1.11,3.36 0.6,1.2 2.14,1.72 3.35,1.11 l 3.68,-1.84 v 16.72 z"
   id="path337"
   style="fill:url(#linearGradient544);fill-opacity:1" />
		<path
   d="m 58.48,239.333 v -7.76 c 0,-5.65 -4.6,-10.25 -10.26,-10.26 -5.65,0.01 -10.26,4.61 -10.26,10.26 v 7.76 c 0,5.66 4.61,10.26 10.26,10.26 5.66,-10e-4 10.26,-4.601 10.26,-10.26 z m -15.52,0 v -7.76 c 0.01,-2.89 2.37,-5.25 5.26,-5.26 2.9,0.01 5.26,2.37 5.26,5.26 v 7.76 c 0,2.9 -2.36,5.26 -5.26,5.26 -2.89,-10e-4 -5.25,-2.361 -5.26,-5.26 z"
   id="path338"
   style="fill:url(#linearGradient553);fill-opacity:1" />
		<path
   d="m 95.87,249.592 c 1.38,0 2.5,-1.12 2.5,-2.5 0,-1.37 -1.12,-2.5 -2.5,-2.5 h -5.26 v -20.77 c 0,-1.916 -2.009,-3.046 -3.62,-2.24 l -7.3,3.66 c -1.23,0.62 -1.73,2.13 -1.12,3.36 0.61,1.2 2.15,1.72 3.36,1.11 l 3.68,-1.84 v 16.72 h -5.26 c -1.38,0 -2.5,1.13 -2.5,2.5 0,1.38 1.12,2.5 2.5,2.5 3.616,0 7.309,0 15.52,0 z"
   id="path339"
   style="fill:url(#linearGradient552);fill-opacity:1" />
		<path
   d="m 200.02,244.603 c -1.38,0 -2.5,1.12 -2.5,2.5 0,1.37 1.12,2.49 2.5,2.49 h 15.521 c 1.38,0 2.5,-1.12 2.5,-2.49 0,-1.38 -1.12,-2.5 -2.5,-2.5 h -5.26 v -20.78 c 0,-1.86 -1.968,-3.067 -3.62,-2.24 l -7.311,3.66 c -1.211,0.616 -1.742,2.099 -1.109,3.36 0.6,1.2 2.149,1.72 3.359,1.11 l 3.681,-1.84 v 16.73 z"
   id="path340"
   style="fill:url(#linearGradient551);fill-opacity:1" />
		<path
   d="m 80.35,205.662 c -1.38,0 -2.5,1.13 -2.5,2.5 0,1.38 1.12,2.5 2.5,2.5 h 15.52 c 1.38,0 2.5,-1.12 2.5,-2.5 0,-1.37 -1.12,-2.5 -2.5,-2.5 h -5.26 v -20.77 c 0,-1.914 -2.007,-3.046 -3.62,-2.24 l -7.3,3.66 c -1.23,0.62 -1.73,2.13 -1.12,3.36 0.61,1.2 2.15,1.72 3.36,1.11 l 3.68,-1.84 v 16.72 z"
   id="path341"
   style="fill:url(#linearGradient550);fill-opacity:1" />
		<path
   d="m 159.12,192.642 v 7.76 c 0,5.66 4.6,10.26 10.26,10.26 5.66,0 10.26,-4.6 10.26,-10.26 v -7.76 c 0,-5.65 -4.6,-10.25 -10.26,-10.26 -5.66,0.01 -10.26,4.61 -10.26,10.26 z m 15.52,0 v 7.76 c -0.01,2.9 -2.37,5.26 -5.26,5.26 -2.9,0 -5.26,-2.36 -5.26,-5.26 v -7.76 c 0,-2.89 2.359,-5.25 5.26,-5.26 2.89,0.01 5.25,2.371 5.26,5.26 z"
   id="path342"
   style="fill:url(#linearGradient549);fill-opacity:1" />
		<path
   d="m 197.52,200.412 c 0,5.65 4.601,10.25 10.261,10.25 5.649,0 10.26,-4.6 10.26,-10.25 v -7.77 c 0,-5.65 -4.61,-10.25 -10.26,-10.26 -5.66,0.01 -10.261,4.61 -10.261,10.26 z m 5,-7.77 c 0,-2.89 2.36,-5.25 5.261,-5.26 2.89,0.01 5.25,2.37 5.26,5.26 v 7.77 c -0.01,2.89 -2.37,5.25 -5.26,5.25 -2.9,0 -5.261,-2.36 -5.261,-5.25 z"
   id="path343"
   style="fill:url(#linearGradient548);fill-opacity:1" />
		<path
   d="m 179.64,239.342 v -7.77 c 0,-5.65 -4.6,-10.25 -10.26,-10.25 -5.66,0 -10.26,4.6 -10.26,10.25 v 7.77 c 0,5.65 4.6,10.25 10.26,10.25 5.66,0 10.26,-4.6 10.26,-10.25 z m -5,0 c -0.01,2.89 -2.37,5.25 -5.26,5.25 -2.9,0 -5.26,-2.36 -5.26,-5.25 v -7.77 c 0,-2.89 2.359,-5.25 5.26,-5.26 2.89,0.01 5.25,2.37 5.26,5.26 z"
   id="path344"
   style="fill:url(#linearGradient547);fill-opacity:1" />
		<path
   d="m 120.24,205.662 c -1.38,0 -2.5,1.13 -2.5,2.5 0,1.38 1.12,2.5 2.5,2.5 h 15.52 c 1.38,0 2.5,-1.12 2.5,-2.5 0,-1.37 -1.12,-2.5 -2.5,-2.5 h -5.26 v -20.78 c 0,-1.903 -2.011,-3.034 -3.62,-2.23 l -7.3,3.66 c -1.242,0.621 -1.726,2.149 -1.12,3.36 0.61,1.2 2.15,1.72 3.36,1.11 l 3.68,-1.84 v 16.72 z"
   id="path345"
   style="fill:url(#linearGradient546);fill-opacity:1" />
		<path
   d="m 138.26,239.342 v -7.77 c 0,-5.65 -4.6,-10.25 -10.26,-10.26 -5.65,0.01 -10.26,4.61 -10.26,10.26 v 7.77 c 0,5.65 4.61,10.25 10.26,10.25 5.66,0 10.26,-4.6 10.26,-10.25 z m -5,0 c -0.01,2.89 -2.37,5.25 -5.26,5.25 -2.9,0 -5.26,-2.36 -5.26,-5.25 v -7.77 c 0,-2.89 2.36,-5.25 5.26,-5.26 2.89,0.01 5.25,2.37 5.26,5.26 z"
   id="path346"
   style="fill:url(#linearGradient545);fill-opacity:1" />
		
		
		
	</g>
</g></g><g
   id="g363"
   transform="matrix(0.01041667,0,0,0.01041667,1.551694,3.4365817)"
   style="fill:#00abff;fill-opacity:1"><g
     id="g362"
     transform="translate(193.70793,1.1599277)"
     style="fill:#00abff;fill-opacity:1">
	<g
   id="g361"
   style="fill:#00abff;fill-opacity:1">
		<g
   id="g352"
   style="fill:#00abff;fill-opacity:1">
			<g
   id="g349"
   style="fill:#00abff;fill-opacity:1">
				
			</g>
			<g
   id="g350"
   style="fill:#00abff;fill-opacity:1">
				
			</g>
			<g
   id="g351"
   style="fill:#00abff;fill-opacity:1">
				
			</g>
		</g>
		
		
		
		
		
		
		
		
		
		
		<path
   d="m 40.46,205.662 c -1.38,0 -2.5,1.13 -2.5,2.5 0,1.38 1.12,2.5 2.5,2.5 h 15.52 c 1.38,0 2.5,-1.12 2.5,-2.5 0,-1.37 -1.12,-2.5 -2.5,-2.5 h -5.26 v -20.78 c 0,-1.875 -1.986,-3.046 -3.62,-2.23 l -7.3,3.66 c -1.194,0.597 -1.748,2.084 -1.11,3.36 0.6,1.2 2.14,1.72 3.35,1.11 l 3.68,-1.84 v 16.72 z"
   id="path352"
   style="fill:url(#linearGradient516);fill-opacity:1" />
		<path
   d="m 58.48,239.333 v -7.76 c 0,-5.65 -4.6,-10.25 -10.26,-10.26 -5.65,0.01 -10.26,4.61 -10.26,10.26 v 7.76 c 0,5.66 4.61,10.26 10.26,10.26 5.66,-10e-4 10.26,-4.601 10.26,-10.26 z m -15.52,0 v -7.76 c 0.01,-2.89 2.37,-5.25 5.26,-5.26 2.9,0.01 5.26,2.37 5.26,5.26 v 7.76 c 0,2.9 -2.36,5.26 -5.26,5.26 -2.89,-10e-4 -5.25,-2.361 -5.26,-5.26 z"
   id="path353"
   style="fill:url(#linearGradient525);fill-opacity:1" />
		<path
   d="m 95.87,249.592 c 1.38,0 2.5,-1.12 2.5,-2.5 0,-1.37 -1.12,-2.5 -2.5,-2.5 h -5.26 v -20.77 c 0,-1.916 -2.009,-3.046 -3.62,-2.24 l -7.3,3.66 c -1.23,0.62 -1.73,2.13 -1.12,3.36 0.61,1.2 2.15,1.72 3.36,1.11 l 3.68,-1.84 v 16.72 h -5.26 c -1.38,0 -2.5,1.13 -2.5,2.5 0,1.38 1.12,2.5 2.5,2.5 3.616,0 7.309,0 15.52,0 z"
   id="path354"
   style="fill:url(#linearGradient524);fill-opacity:1" />
		<path
   d="m 200.02,244.603 c -1.38,0 -2.5,1.12 -2.5,2.5 0,1.37 1.12,2.49 2.5,2.49 h 15.521 c 1.38,0 2.5,-1.12 2.5,-2.49 0,-1.38 -1.12,-2.5 -2.5,-2.5 h -5.26 v -20.78 c 0,-1.86 -1.968,-3.067 -3.62,-2.24 l -7.311,3.66 c -1.211,0.616 -1.742,2.099 -1.109,3.36 0.6,1.2 2.149,1.72 3.359,1.11 l 3.681,-1.84 v 16.73 z"
   id="path355"
   style="fill:url(#linearGradient523);fill-opacity:1" />
		<path
   d="m 80.35,205.662 c -1.38,0 -2.5,1.13 -2.5,2.5 0,1.38 1.12,2.5 2.5,2.5 h 15.52 c 1.38,0 2.5,-1.12 2.5,-2.5 0,-1.37 -1.12,-2.5 -2.5,-2.5 h -5.26 v -20.77 c 0,-1.914 -2.007,-3.046 -3.62,-2.24 l -7.3,3.66 c -1.23,0.62 -1.73,2.13 -1.12,3.36 0.61,1.2 2.15,1.72 3.36,1.11 l 3.68,-1.84 v 16.72 z"
   id="path356"
   style="fill:url(#linearGradient522);fill-opacity:1" />
		<path
   d="m 159.12,192.642 v 7.76 c 0,5.66 4.6,10.26 10.26,10.26 5.66,0 10.26,-4.6 10.26,-10.26 v -7.76 c 0,-5.65 -4.6,-10.25 -10.26,-10.26 -5.66,0.01 -10.26,4.61 -10.26,10.26 z m 15.52,0 v 7.76 c -0.01,2.9 -2.37,5.26 -5.26,5.26 -2.9,0 -5.26,-2.36 -5.26,-5.26 v -7.76 c 0,-2.89 2.359,-5.25 5.26,-5.26 2.89,0.01 5.25,2.371 5.26,5.26 z"
   id="path357"
   style="fill:url(#linearGradient521);fill-opacity:1" />
		<path
   d="m 197.52,200.412 c 0,5.65 4.601,10.25 10.261,10.25 5.649,0 10.26,-4.6 10.26,-10.25 v -7.77 c 0,-5.65 -4.61,-10.25 -10.26,-10.26 -5.66,0.01 -10.261,4.61 -10.261,10.26 z m 5,-7.77 c 0,-2.89 2.36,-5.25 5.261,-5.26 2.89,0.01 5.25,2.37 5.26,5.26 v 7.77 c -0.01,2.89 -2.37,5.25 -5.26,5.25 -2.9,0 -5.261,-2.36 -5.261,-5.25 z"
   id="path358"
   style="fill:url(#linearGradient520);fill-opacity:1" />
		<path
   d="m 179.64,239.342 v -7.77 c 0,-5.65 -4.6,-10.25 -10.26,-10.25 -5.66,0 -10.26,4.6 -10.26,10.25 v 7.77 c 0,5.65 4.6,10.25 10.26,10.25 5.66,0 10.26,-4.6 10.26,-10.25 z m -5,0 c -0.01,2.89 -2.37,5.25 -5.26,5.25 -2.9,0 -5.26,-2.36 -5.26,-5.25 v -7.77 c 0,-2.89 2.359,-5.25 5.26,-5.26 2.89,0.01 5.25,2.37 5.26,5.26 z"
   id="path359"
   style="fill:url(#linearGradient519);fill-opacity:1" />
		<path
   d="m 120.24,205.662 c -1.38,0 -2.5,1.13 -2.5,2.5 0,1.38 1.12,2.5 2.5,2.5 h 15.52 c 1.38,0 2.5,-1.12 2.5,-2.5 0,-1.37 -1.12,-2.5 -2.5,-2.5 h -5.26 v -20.78 c 0,-1.903 -2.011,-3.034 -3.62,-2.23 l -7.3,3.66 c -1.242,0.621 -1.726,2.149 -1.12,3.36 0.61,1.2 2.15,1.72 3.36,1.11 l 3.68,-1.84 v 16.72 z"
   id="path360"
   style="fill:url(#linearGradient518);fill-opacity:1" />
		<path
   d="m 138.26,239.342 v -7.77 c 0,-5.65 -4.6,-10.25 -10.26,-10.26 -5.65,0.01 -10.26,4.61 -10.26,10.26 v 7.77 c 0,5.65 4.61,10.25 10.26,10.25 5.66,0 10.26,-4.6 10.26,-10.25 z m -5,0 c -0.01,2.89 -2.37,5.25 -5.26,5.25 -2.9,0 -5.26,-2.36 -5.26,-5.25 v -7.77 c 0,-2.89 2.36,-5.25 5.26,-5.26 2.89,0.01 5.25,2.37 5.26,5.26 z"
   id="path361"
   style="fill:url(#linearGradient517);fill-opacity:1" />
		
		
		
	</g>
</g></g></g></g><g
       id="g379"
       transform="translate(0.1347726)"
       style="clip-rule:evenodd;fill-rule:evenodd;image-rendering:optimizeQuality;shape-rendering:geometricPrecision;text-rendering:geometricPrecision"><g
         id="g378"
         transform="matrix(0.04478976,0,0,0.01041667,0.51019993,5.12918)"
         style="clip-rule:evenodd;fill:#e619a2;fill-opacity:1;fill-rule:evenodd;image-rendering:optimizeQuality;shape-rendering:geometricPrecision;text-rendering:geometricPrecision"><g
           id="g377"
           style="fill:#e619a2;fill-opacity:1">
	
	
	
	<path
   id="path376"
   class="st4"
   d="m 128,89.2 c -6.9,0 -9.1,-10.9 -11.9,-24.8 -1.4,-6.8 -3.9,-19.3 -6.4,-20.5 -2.5,1.3 -5,13.8 -6.4,20.5 -2.8,13.8 -5,24.8 -11.9,24.8 -6.9,0 -9.1,-10.9 -11.9,-24.8 -1.4,-6.8 -3.9,-19.3 -6.4,-20.5 -2.5,1.3 -5,13.8 -6.4,20.5 -2.8,13.8 -5,24.8 -11.9,24.8 C 47.9,89.2 45.7,78.3 42.9,64.4 41.5,57.6 39,45.1 36.5,43.9 34,45.2 31.5,57.7 30.1,64.4 27.3,78.2 25.1,89.2 18.2,89.2 11.3,89.2 9.1,78.3 6.3,64.4 5.1,57.6 2.5,44.9 0,43.9 l 0.1,-5.1 c 6.9,0 9.1,10.9 11.9,24.7 1.4,6.8 3.9,19.3 6.4,20.5 2.5,-1.3 5,-13.8 6.4,-20.5 2.8,-13.8 5,-24.8 11.9,-24.8 6.9,0 9.1,10.9 11.9,24.8 1.4,6.8 3.9,19.3 6.4,20.5 2.5,-1.3 5,-13.8 6.4,-20.5 2.8,-13.8 5,-24.8 11.9,-24.8 6.9,0 9.1,10.9 11.9,24.8 1.4,6.8 3.9,19.3 6.4,20.5 2.5,-1.3 5,-13.8 6.4,-20.5 2.8,-13.8 5,-24.8 11.9,-24.8 6.9,0 9.1,10.9 11.9,24.8 1.4,6.8 3.9,19.3 6.4,20.5 z"
   style="fill:url(#linearGradient576);fill-opacity:1" />
	
</g></g></g></g></g></svg>
