<?xml version="1.0" encoding="UTF-8" standalone="no"?>
<svg
   viewBox="0 0 467.17712 470.28641"
   version="1.1"
   id="svg10"
   xml:space="preserve"
   width="467.17712"
   height="470.28641"
   xmlns:xlink="http://www.w3.org/1999/xlink"
   xmlns="http://www.w3.org/2000/svg"
   xmlns:svg="http://www.w3.org/2000/svg"
   xmlns:rdf="http://www.w3.org/1999/02/22-rdf-syntax-ns#"
   xmlns:cc="http://creativecommons.org/ns#"
   xmlns:dc="http://purl.org/dc/elements/1.1/"><defs
     id="defs10"><linearGradient
       id="linearGradient180"><stop
         style="stop-color:#00abff;stop-opacity:0;"
         offset="0"
         id="stop180" /><stop
         style="stop-color:#00abff;stop-opacity:1;"
         offset="1"
         id="stop179" /></linearGradient><linearGradient
       id="linearGradient177"><stop
         style="stop-color:#00abff;stop-opacity:0;"
         offset="0"
         id="stop178" /><stop
         style="stop-color:#00abff;stop-opacity:1;"
         offset="1"
         id="stop177" /></linearGradient><linearGradient
       id="linearGradient161"><stop
         style="stop-color:#ff3dfb;stop-opacity:0;"
         offset="0"
         id="stop161" /><stop
         style="stop-color:#ff3dfb;stop-opacity:1;"
         offset="1"
         id="stop160" /></linearGradient><linearGradient
       id="linearGradient158"><stop
         style="stop-color:#ff3dfb;stop-opacity:0;"
         offset="0"
         id="stop159" /><stop
         style="stop-color:#ff3dfb;stop-opacity:1;"
         offset="1"
         id="stop158" /></linearGradient><linearGradient
       xlink:href="#linearGradient158"
       id="linearGradient159"
       x1="255.19205"
       y1="577.45923"
       x2="255.19205"
       y2="128.32155"
       gradientUnits="userSpaceOnUse" /><linearGradient
       xlink:href="#linearGradient161"
       id="linearGradient160"
       x1="255.19205"
       y1="577.45923"
       x2="255.19205"
       y2="128.32155"
       gradientUnits="userSpaceOnUse" /><filter
       style="color-interpolation-filters:sRGB"
       id="filter161"
       x="-0.027094719"
       y="-0.026905944"
       width="1.0541894"
       height="1.0538119"><feGaussianBlur
         stdDeviation="6.0881703"
         id="feGaussianBlur161" /></filter><filter
       style="color-interpolation-filters:sRGB"
       id="filter162"
       x="-0.031776623"
       y="-0.031555228"
       width="1.0635532"
       height="1.0631105"><feGaussianBlur
         stdDeviation="6.0881703"
         id="feGaussianBlur162" /></filter><linearGradient
       xlink:href="#linearGradient177"
       id="linearGradient178"
       x1="7.9658151"
       y1="20.721601"
       x2="7.9658151"
       y2="3.6726091"
       gradientUnits="userSpaceOnUse" /><linearGradient
       xlink:href="#linearGradient180"
       id="linearGradient179"
       x1="7.9658151"
       y1="20.721601"
       x2="7.9658151"
       y2="3.6726091"
       gradientUnits="userSpaceOnUse" /><filter
       style="color-interpolation-filters:sRGB"
       id="filter180"
       x="-0.027000001"
       y="-0.027000001"
       width="1.054"
       height="1.054"><feGaussianBlur
         stdDeviation="0.18"
         id="feGaussianBlur180" /></filter><filter
       style="color-interpolation-filters:sRGB"
       id="filter181"
       x="-0.072000003"
       y="-0.072000003"
       width="1.144"
       height="1.144"><feGaussianBlur
         stdDeviation="0.18"
         id="feGaussianBlur181" /></filter></defs><title
     id="title1">Artboard 156</title><metadata
     id="metadata1"><rdf:RDF><cc:Work
         rdf:about=""><dc:title>Artboard 156</dc:title></cc:Work></rdf:RDF></metadata><g
     id="g181"
     transform="translate(-21.080031,-30.643291)"><g
       id="g158"
       transform="matrix(0.82176854,0,0,0.82176854,42.757107,54.743494)"
       style="display:inline"><path
         id="path157"
         style="opacity:0.6;fill:#ff3dfb;fill-opacity:1;stroke-width:3.60496;filter:url(#filter162)"
         d="m 277.03729,25.126174 -2.003,21.878267 c 73.15882,6.746752 136.22529,50.190048 168.70041,116.214159 9.5234,19.35759 15.99792,39.87658 19.24182,60.99229 l 21.64329,-3.34901 c -3.58516,-23.33329 -10.7292,-46.00064 -21.2405,-67.36956 C 427.5022,80.562259 357.84429,32.574733 277.03729,25.126174 Z M 153.76578,48.160233 C 98.396432,75.584967 56.984187,123.00431 37.154246,181.68115 17.331493,240.35803 21.462583,303.27312 48.793413,358.83163 69.09036,400.09717 100.73491,434.03325 140.2978,456.95775 l 10.95335,-19.02859 C 115.44947,417.17882 86.810127,386.4675 68.43151,349.10533 43.687194,298.81037 39.945047,241.85818 57.89617,188.73429 75.843701,135.61764 113.33265,92.692685 163.46074,67.86897 Z M 458.45019,309.69216 c -15.47236,58.77091 -55.4703,107.89654 -109.74038,134.77141 -36.96558,18.30485 -78.02978,25.27238 -118.73863,20.07033 l -2.75194,21.80294 c 9.67428,1.22998 19.3655,1.83809 29.03258,1.83809 35.25923,0 70.10173,-8.13229 102.15297,-24.01337 59.94964,-29.68574 104.12947,-83.94185 121.2184,-148.86262 z" /><path
         id="path158"
         style="opacity:0.6;fill:#ff3dfb;fill-opacity:1;stroke-width:4.22789;filter:url(#filter161)"
         d="m 231.68533,-14.71563 2.34913,25.65878 C 148.23396,18.855725 74.269757,69.805921 36.183004,147.23885 25.013983,169.94138 17.420681,194.006 13.616242,218.77046 l -25.3832,-3.92771 C -7.5622899,187.47753 0.81622326,160.89331 13.143851,135.83189 55.220442,50.299681 136.91507,-5.9799779 231.68533,-14.71563 Z m 144.57255,27.014291 c 64.93704,32.163663 113.50524,87.776959 136.76174,156.593029 23.24807,68.8161 18.40313,142.60277 -13.65039,207.76166 -23.80422,48.39613 -60.91687,88.19629 -107.31613,115.08208 L 379.20703,469.41875 C 421.19516,445.0828 454.78332,409.06464 476.33771,365.24637 505.35779,306.26056 509.74657,239.46716 488.69353,177.16359 467.64472,114.8685 423.67776,64.526217 364.88765,35.413021 Z M 18.924711,319.0227 c 18.145948,68.92638 65.055443,126.5408 128.703259,158.05959 43.35315,21.46788 91.51314,29.63939 139.25639,23.53845 l 3.22747,25.57042 c -11.34598,1.44253 -22.71182,2.15572 -34.04934,2.15572 -41.35195,0 -82.21515,-9.53754 -119.80477,-28.16283 C 65.948927,465.36869 14.134924,401.73724 -5.9069332,325.59831 Z" /></g><g
       id="g157"
       transform="matrix(0.82176854,0,0,0.82176854,42.757107,54.743494)"
       style="display:inline"><path
         id="path1"
         style="fill:url(#linearGradient159);fill-opacity:1;stroke-width:3.60496"
         d="m 277.03729,25.126174 -2.003,21.878267 c 73.15882,6.746752 136.22529,50.190048 168.70041,116.214159 9.5234,19.35759 15.99792,39.87658 19.24182,60.99229 l 21.64329,-3.34901 c -3.58516,-23.33329 -10.7292,-46.00064 -21.2405,-67.36956 C 427.5022,80.562259 357.84429,32.574733 277.03729,25.126174 Z M 153.76578,48.160233 C 98.396432,75.584967 56.984187,123.00431 37.154246,181.68115 17.331493,240.35803 21.462583,303.27312 48.793413,358.83163 69.09036,400.09717 100.73491,434.03325 140.2978,456.95775 l 10.95335,-19.02859 C 115.44947,417.17882 86.810127,386.4675 68.43151,349.10533 43.687194,298.81037 39.945047,241.85818 57.89617,188.73429 75.843701,135.61764 113.33265,92.692685 163.46074,67.86897 Z M 458.45019,309.69216 c -15.47236,58.77091 -55.4703,107.89654 -109.74038,134.77141 -36.96558,18.30485 -78.02978,25.27238 -118.73863,20.07033 l -2.75194,21.80294 c 9.67428,1.22998 19.3655,1.83809 29.03258,1.83809 35.25923,0 70.10173,-8.13229 102.15297,-24.01337 59.94964,-29.68574 104.12947,-83.94185 121.2184,-148.86262 z" /><path
         id="path1-9"
         style="fill:url(#linearGradient160);fill-opacity:1;stroke-width:4.22789"
         d="m 231.68533,-14.71563 2.34913,25.65878 C 148.23396,18.855725 74.269757,69.805921 36.183004,147.23885 25.013983,169.94138 17.420681,194.006 13.616242,218.77046 l -25.3832,-3.92771 C -7.5622899,187.47753 0.81622326,160.89331 13.143851,135.83189 55.220442,50.299681 136.91507,-5.9799779 231.68533,-14.71563 Z m 144.57255,27.014291 c 64.93704,32.163663 113.50524,87.776959 136.76174,156.593029 23.24807,68.8161 18.40313,142.60277 -13.65039,207.76166 -23.80422,48.39613 -60.91687,88.19629 -107.31613,115.08208 L 379.20703,469.41875 C 421.19516,445.0828 454.78332,409.06464 476.33771,365.24637 505.35779,306.26056 509.74657,239.46716 488.69353,177.16359 467.64472,114.8685 423.67776,64.526217 364.88765,35.413021 Z M 18.924711,319.0227 c 18.145948,68.92638 65.055443,126.5408 128.703259,158.05959 43.35315,21.46788 91.51314,29.63939 139.25639,23.53845 l 3.22747,25.57042 c -11.34598,1.44253 -22.71182,2.15572 -34.04934,2.15572 -41.35195,0 -82.21515,-9.53754 -119.80477,-28.16283 C 65.948927,465.36869 14.134924,401.73724 -5.9069332,325.59831 Z" /></g><g
       id="g162"
       transform="matrix(19.719537,0,0,19.719537,94.839938,108.81679)"
       style="display:inline"><path
         d="M 8,11 A 3,3 0 1 1 11,8 3,3 0 0 1 8,11 Z M 8,6 A 2,2 0 1 0 10,8 2,2 0 0 0 8,6 Z"
         id="path1-6"
         style="opacity:0.6;fill:#00abff;fill-opacity:1;filter:url(#filter181)" /><path
         d="m 8.5,16 h -1 A 1.5,1.5 0 0 1 6,14.5 V 13.65 A 5.91,5.91 0 0 1 5.42,13.41 l -0.6,0.6 A 1.54,1.54 0 0 1 2.7,14 L 2,13.3 a 1.5,1.5 0 0 1 0,-2.12 l 0.6,-0.6 A 5.91,5.91 0 0 1 2.35,10 H 1.5 A 1.5,1.5 0 0 1 0,8.5 v -1 A 1.5,1.5 0 0 1 1.5,6 H 2.35 A 5.91,5.91 0 0 1 2.59,5.42 L 2,4.82 A 1.5,1.5 0 0 1 2,2.7 L 2.7,2 a 1.54,1.54 0 0 1 2.12,0 l 0.6,0.6 A 5.91,5.91 0 0 1 6,2.35 V 1.5 A 1.5,1.5 0 0 1 7.5,0 h 1 A 1.5,1.5 0 0 1 10,1.5 v 0.85 a 5.91,5.91 0 0 1 0.58,0.24 l 0.6,-0.6 A 1.54,1.54 0 0 1 13.3,2 L 14,2.7 a 1.5,1.5 0 0 1 0,2.12 l -0.6,0.6 A 5.91,5.91 0 0 1 13.64,6 h 0.85 A 1.5,1.5 0 0 1 16,7.5 v 1 A 1.5,1.5 0 0 1 14.5,10 h -0.85 a 5.91,5.91 0 0 1 -0.24,0.58 l 0.6,0.6 a 1.5,1.5 0 0 1 0,2.12 L 13.3,14 a 1.54,1.54 0 0 1 -2.12,0 l -0.6,-0.6 A 5.91,5.91 0 0 1 10,13.64 v 0.85 A 1.5,1.5 0 0 1 8.5,16 Z m -3.27,-3.82 0.33,0.18 a 4.94,4.94 0 0 0 1.07,0.44 l 0.36,0.1 v 1.6 a 0.5,0.5 0 0 0 0.5,0.5 h 1 a 0.5,0.5 0 0 0 0.5,-0.5 v -1.59 l 0.36,-0.1 a 4.94,4.94 0 0 0 1.07,-0.44 l 0.33,-0.18 1.12,1.12 a 0.51,0.51 0 0 0 0.71,0 l 0.71,-0.71 a 0.5,0.5 0 0 0 0,-0.71 l -1.12,-1.12 0.18,-0.33 a 4.94,4.94 0 0 0 0.44,-1.07 l 0.1,-0.36 H 14.5 A 0.5,0.5 0 0 0 15,8.51 v -1 A 0.5,0.5 0 0 0 14.5,7.01 H 12.91 L 12.81,6.65 A 4.94,4.94 0 0 0 12.37,5.58 L 12.19,5.25 13.3,4.11 a 0.5,0.5 0 0 0 0,-0.71 L 12.6,2.7 a 0.51,0.51 0 0 0 -0.71,0 L 10.77,3.82 10.44,3.64 A 4.94,4.94 0 0 0 9.37,3.2 L 9,3.09 V 1.5 A 0.5,0.5 0 0 0 8.5,1 h -1 A 0.5,0.5 0 0 0 7,1.5 V 3.09 L 6.64,3.19 A 4.94,4.94 0 0 0 5.57,3.63 L 5.24,3.81 4.11,2.7 A 0.51,0.51 0 0 0 3.4,2.7 L 2.7,3.4 a 0.5,0.5 0 0 0 0,0.71 L 3.82,5.23 3.64,5.56 A 4.94,4.94 0 0 0 3.2,6.63 L 3.09,7 H 1.5 A 0.5,0.5 0 0 0 1,7.5 v 1 A 0.5,0.5 0 0 0 1.5,9 h 1.59 l 0.1,0.36 a 4.94,4.94 0 0 0 0.44,1.07 l 0.18,0.33 -1.11,1.13 a 0.5,0.5 0 0 0 0,0.71 l 0.71,0.71 a 0.51,0.51 0 0 0 0.71,0 z"
         id="path2"
         style="opacity:0.6;fill:#00abff;fill-opacity:1;filter:url(#filter180)" /></g><g
       id="g163"
       transform="matrix(19.719537,0,0,19.719537,94.839938,108.81679)"><path
         d="M 8,11 A 3,3 0 1 1 11,8 3,3 0 0 1 8,11 Z M 8,6 A 2,2 0 1 0 10,8 2,2 0 0 0 8,6 Z"
         id="path162"
         style="fill:url(#linearGradient179);fill-opacity:1" /><path
         d="m 8.5,16 h -1 A 1.5,1.5 0 0 1 6,14.5 V 13.65 A 5.91,5.91 0 0 1 5.42,13.41 l -0.6,0.6 A 1.54,1.54 0 0 1 2.7,14 L 2,13.3 a 1.5,1.5 0 0 1 0,-2.12 l 0.6,-0.6 A 5.91,5.91 0 0 1 2.35,10 H 1.5 A 1.5,1.5 0 0 1 0,8.5 v -1 A 1.5,1.5 0 0 1 1.5,6 H 2.35 A 5.91,5.91 0 0 1 2.59,5.42 L 2,4.82 A 1.5,1.5 0 0 1 2,2.7 L 2.7,2 a 1.54,1.54 0 0 1 2.12,0 l 0.6,0.6 A 5.91,5.91 0 0 1 6,2.35 V 1.5 A 1.5,1.5 0 0 1 7.5,0 h 1 A 1.5,1.5 0 0 1 10,1.5 v 0.85 a 5.91,5.91 0 0 1 0.58,0.24 l 0.6,-0.6 A 1.54,1.54 0 0 1 13.3,2 L 14,2.7 a 1.5,1.5 0 0 1 0,2.12 l -0.6,0.6 A 5.91,5.91 0 0 1 13.64,6 h 0.85 A 1.5,1.5 0 0 1 16,7.5 v 1 A 1.5,1.5 0 0 1 14.5,10 h -0.85 a 5.91,5.91 0 0 1 -0.24,0.58 l 0.6,0.6 a 1.5,1.5 0 0 1 0,2.12 L 13.3,14 a 1.54,1.54 0 0 1 -2.12,0 l -0.6,-0.6 A 5.91,5.91 0 0 1 10,13.64 v 0.85 A 1.5,1.5 0 0 1 8.5,16 Z m -3.27,-3.82 0.33,0.18 a 4.94,4.94 0 0 0 1.07,0.44 l 0.36,0.1 v 1.6 a 0.5,0.5 0 0 0 0.5,0.5 h 1 a 0.5,0.5 0 0 0 0.5,-0.5 v -1.59 l 0.36,-0.1 a 4.94,4.94 0 0 0 1.07,-0.44 l 0.33,-0.18 1.12,1.12 a 0.51,0.51 0 0 0 0.71,0 l 0.71,-0.71 a 0.5,0.5 0 0 0 0,-0.71 l -1.12,-1.12 0.18,-0.33 a 4.94,4.94 0 0 0 0.44,-1.07 l 0.1,-0.36 H 14.5 A 0.5,0.5 0 0 0 15,8.51 v -1 A 0.5,0.5 0 0 0 14.5,7.01 H 12.91 L 12.81,6.65 A 4.94,4.94 0 0 0 12.37,5.58 L 12.19,5.25 13.3,4.11 a 0.5,0.5 0 0 0 0,-0.71 L 12.6,2.7 a 0.51,0.51 0 0 0 -0.71,0 L 10.77,3.82 10.44,3.64 A 4.94,4.94 0 0 0 9.37,3.2 L 9,3.09 V 1.5 A 0.5,0.5 0 0 0 8.5,1 h -1 A 0.5,0.5 0 0 0 7,1.5 V 3.09 L 6.64,3.19 A 4.94,4.94 0 0 0 5.57,3.63 L 5.24,3.81 4.11,2.7 A 0.51,0.51 0 0 0 3.4,2.7 L 2.7,3.4 a 0.5,0.5 0 0 0 0,0.71 L 3.82,5.23 3.64,5.56 A 4.94,4.94 0 0 0 3.2,6.63 L 3.09,7 H 1.5 A 0.5,0.5 0 0 0 1,7.5 v 1 A 0.5,0.5 0 0 0 1.5,9 h 1.59 l 0.1,0.36 a 4.94,4.94 0 0 0 0.44,1.07 l 0.18,0.33 -1.11,1.13 a 0.5,0.5 0 0 0 0,0.71 l 0.71,0.71 a 0.51,0.51 0 0 0 0.71,0 z"
         id="path163"
         style="fill:url(#linearGradient178);fill-opacity:1" /></g></g></svg>
