<?xml version="1.0" encoding="UTF-8" standalone="no"?>
<svg
   viewBox="0 0 28.125544 28.13435"
   version="1.1"
   id="svg3"
   xml:space="preserve"
   width="28.125544"
   height="28.13435"
   xmlns:xlink="http://www.w3.org/1999/xlink"
   xmlns="http://www.w3.org/2000/svg"
   xmlns:svg="http://www.w3.org/2000/svg"
   xmlns:rdf="http://www.w3.org/1999/02/22-rdf-syntax-ns#"
   xmlns:cc="http://creativecommons.org/ns#"
   xmlns:dc="http://purl.org/dc/elements/1.1/"><defs
     id="defs3"><linearGradient
       id="linearGradient22"><stop
         style="stop-color:#ff3dfb;stop-opacity:0;"
         offset="0"
         id="stop22" /><stop
         style="stop-color:#ff3dfb;stop-opacity:1;"
         offset="1"
         id="stop21" /></linearGradient><linearGradient
       id="linearGradient19"><stop
         style="stop-color:#ff3dfb;stop-opacity:0;"
         offset="0"
         id="stop20" /><stop
         style="stop-color:#ff3dfb;stop-opacity:1;"
         offset="1"
         id="stop19" /></linearGradient><linearGradient
       id="linearGradient17"><stop
         style="stop-color:#00abff;stop-opacity:0;"
         offset="0"
         id="stop18" /><stop
         style="stop-color:#00abff;stop-opacity:1;"
         offset="1"
         id="stop17" /></linearGradient><linearGradient
       xlink:href="#linearGradient17"
       id="linearGradient18"
       x1="16.200991"
       y1="34.200333"
       x2="16.200991"
       y2="10.031401"
       gradientUnits="userSpaceOnUse" /><linearGradient
       xlink:href="#linearGradient19"
       id="linearGradient20"
       x1="11.874218"
       y1="35.613201"
       x2="11.874218"
       y2="7.5286889"
       gradientUnits="userSpaceOnUse" /><linearGradient
       xlink:href="#linearGradient22"
       id="linearGradient21"
       x1="11.874218"
       y1="35.613201"
       x2="11.874218"
       y2="7.5286889"
       gradientUnits="userSpaceOnUse" /><filter
       style="color-interpolation-filters:sRGB"
       id="filter22"
       x="-0.18518532"
       y="-0.074555609"
       width="1.3703706"
       height="1.1491112"><feGaussianBlur
         stdDeviation="0.31082256"
         id="feGaussianBlur22" /></filter><filter
       style="color-interpolation-filters:sRGB"
       id="filter23"
       x="-0.027347751"
       y="-0.026660979"
       width="1.0546955"
       height="1.053322"><feGaussianBlur
         stdDeviation="0.31082256"
         id="feGaussianBlur23" /></filter><filter
       style="color-interpolation-filters:sRGB"
       id="filter24"
       x="-0.027004455"
       y="-0.026995547"
       width="1.0540089"
       height="1.0539911"><feGaussianBlur
         stdDeviation="0.33752027"
         id="feGaussianBlur24" /></filter></defs><title
     id="title1">safe android app aplication phone</title><metadata
     id="metadata3"><rdf:RDF><cc:Work
         rdf:about=""><dc:title>safe android app aplication phone</dc:title></cc:Work></rdf:RDF></metadata><g
     id="g24"
     transform="translate(-1.9372271,-1.9328247)"><g
       id="g8"
       transform="matrix(0.74329228,0,0,0.74329228,6.7364857,5.8414836)"
       style="display:inline"><path
         id="path6"
         style="opacity:0.6;fill:#00abff;fill-opacity:1;stroke:none;filter:url(#filter24)"
         d="m 15.990234,0.99999997 a 1,1 0 0 0 -0.390625,0.0800781 l -13.9999997,6 A 1,1 0 0 0 0.99999996,7.9394531 C 0.99999996,8.1294531 0.15023481,26.8 15.740234,31 A 1.14,1.14 0 0 0 16.25,30.939453 c 2.990453,-0.794129 5.371682,-2.124485 7.271484,-3.755859 L 22.164062,25.75 C 20.528718,27.141617 18.506767,28.28553 16,29 7.0599997,26.44 2.9999999,17.870156 2.9999999,8.6601562 L 16,3.0898437 29,8.6601562 c 0,1.8442208 -0.262082,7.5163828 -3.105469,12.5234378 l 1.412109,1.492187 C 31.339003,16.000333 30.980469,8.0630042 30.980469,7.9394531 a 1,1 0 0 0 -0.59961,-0.859375 l -14,-6 A 1,1 0 0 0 15.990234,0.99999997 Z M 24.986328,22.630859 c -0.46754,0.670234 -0.990394,1.319731 -1.572266,1.935547 l 1.353516,1.431641 c 0.584363,-0.610696 1.117417,-1.249704 1.597656,-1.910157 z"
         transform="matrix(1.1967994,0,0,1.1967994,-6.6742651,-5.4859095)" /><path
         d="m 28.34,24.12 -6.5,-6.85 A 10.49,10.49 0 1 0 12.5,23 h 0.55 a 1.0012492,1.0012492 0 1 0 -0.1,-2 8.5,8.5 0 1 1 5.4,-2.32 8.72,8.72 0 0 1 -1.82,1.32 1,1 0 0 0 -0.41,1.35 0.89,0.89 0 0 0 0.36,0.36 c 0,0 0,0.06 0,0.08 l 6.77,7.13 A 3.48,3.48 0 0 0 25.73,30 h 0.09 a 3.43,3.43 0 0 0 2.39,-1 3.47,3.47 0 0 0 0.13,-4.88 z m -1.5,3.47 a 1.45,1.45 0 0 1 -1.06,0.41 1.51,1.51 0 0 1 -1,-0.46 l -6.15,-6.49 a 10.07,10.07 0 0 0 1.14,-0.93 10.54,10.54 0 0 0 1,-1.12 l 6.16,6.5 a 1.47,1.47 0 0 1 -0.09,2.09 z"
         id="path7"
         style="opacity:0.6;fill:#ff3dfb;fill-opacity:1;filter:url(#filter23)" /><path
         d="M 8.55,8.16 A 1,1 0 0 0 7.16,8.45 7.19,7.19 0 0 0 8.33,17.74 1,1 0 0 0 9,18 1,1 0 0 0 9.67,16.26 5.32,5.32 0 0 1 8,12.91 5.24,5.24 0 0 1 8.84,9.55 1,1 0 0 0 8.55,8.16 Z"
         id="path8"
         style="opacity:0.6;fill:#ff3dfb;fill-opacity:1;filter:url(#filter22)" /></g><g
       id="g17"
       transform="matrix(0.74329228,0,0,0.74329228,6.7364857,5.8414836)"><path
         id="path15"
         style="fill:url(#linearGradient18);fill-opacity:1;stroke:none"
         d="m 15.990234,0.99999997 a 1,1 0 0 0 -0.390625,0.0800781 l -13.9999997,6 A 1,1 0 0 0 0.99999996,7.9394531 C 0.99999996,8.1294531 0.15023481,26.8 15.740234,31 A 1.14,1.14 0 0 0 16.25,30.939453 c 2.990453,-0.794129 5.371682,-2.124485 7.271484,-3.755859 L 22.164062,25.75 C 20.528718,27.141617 18.506767,28.28553 16,29 7.0599997,26.44 2.9999999,17.870156 2.9999999,8.6601562 L 16,3.0898437 29,8.6601562 c 0,1.8442208 -0.262082,7.5163828 -3.105469,12.5234378 l 1.412109,1.492187 C 31.339003,16.000333 30.980469,8.0630042 30.980469,7.9394531 a 1,1 0 0 0 -0.59961,-0.859375 l -14,-6 A 1,1 0 0 0 15.990234,0.99999997 Z M 24.986328,22.630859 c -0.46754,0.670234 -0.990394,1.319731 -1.572266,1.935547 l 1.353516,1.431641 c 0.584363,-0.610696 1.117417,-1.249704 1.597656,-1.910157 z"
         transform="matrix(1.1967994,0,0,1.1967994,-6.6742651,-5.4859095)" /><path
         d="m 28.34,24.12 -6.5,-6.85 A 10.49,10.49 0 1 0 12.5,23 h 0.55 a 1.0012492,1.0012492 0 1 0 -0.1,-2 8.5,8.5 0 1 1 5.4,-2.32 8.72,8.72 0 0 1 -1.82,1.32 1,1 0 0 0 -0.41,1.35 0.89,0.89 0 0 0 0.36,0.36 c 0,0 0,0.06 0,0.08 l 6.77,7.13 A 3.48,3.48 0 0 0 25.73,30 h 0.09 a 3.43,3.43 0 0 0 2.39,-1 3.47,3.47 0 0 0 0.13,-4.88 z m -1.5,3.47 a 1.45,1.45 0 0 1 -1.06,0.41 1.51,1.51 0 0 1 -1,-0.46 l -6.15,-6.49 a 10.07,10.07 0 0 0 1.14,-0.93 10.54,10.54 0 0 0 1,-1.12 l 6.16,6.5 a 1.47,1.47 0 0 1 -0.09,2.09 z"
         id="path16"
         style="opacity:1;fill:url(#linearGradient20);fill-opacity:1" /><path
         d="M 8.55,8.16 A 1,1 0 0 0 7.16,8.45 7.19,7.19 0 0 0 8.33,17.74 1,1 0 0 0 9,18 1,1 0 0 0 9.67,16.26 5.32,5.32 0 0 1 8,12.91 5.24,5.24 0 0 1 8.84,9.55 1,1 0 0 0 8.55,8.16 Z"
         id="path17"
         style="opacity:1;fill:url(#linearGradient21);fill-opacity:1" /></g></g></svg>
