<?xml version="1.0" encoding="UTF-8" standalone="no"?>
<!-- Generator: Adobe Illustrator 19.0.1, SVG Export Plug-In . SVG Version: 6.00 Build 0)  -->

<svg
   version="1.1"
   id="crosshair"
   x="0px"
   y="0px"
   viewBox="0 0 118.36523 118.36523"
   xml:space="preserve"
   width="118.36523"
   height="118.36523"
   xmlns:xlink="http://www.w3.org/1999/xlink"
   xmlns="http://www.w3.org/2000/svg"
   xmlns:svg="http://www.w3.org/2000/svg"><defs
   id="defs1"><linearGradient
     id="linearGradient5"><stop
       style="stop-color:#ff3dfb;stop-opacity:0;"
       offset="0"
       id="stop6" /><stop
       style="stop-color:#ff3dfb;stop-opacity:1;"
       offset="1"
       id="stop5" /></linearGradient><linearGradient
     id="linearGradient3"><stop
       style="stop-color:#00abff;stop-opacity:0;"
       offset="0"
       id="stop4" /><stop
       style="stop-color:#00abff;stop-opacity:1;"
       offset="1"
       id="stop3" /></linearGradient><linearGradient
     xlink:href="#linearGradient3"
     id="linearGradient4"
     x1="64.636261"
     y1="137.489"
     x2="64.636261"
     y2="35.239544"
     gradientUnits="userSpaceOnUse" /><linearGradient
     xlink:href="#linearGradient5"
     id="linearGradient6"
     x1="63.905907"
     y1="136.39346"
     x2="63.905907"
     y2="30.492247"
     gradientUnits="userSpaceOnUse" /><filter
     style="color-interpolation-filters:sRGB"
     id="filter6"
     x="-0.026999993"
     y="-0.027000008"
     width="1.054"
     height="1.054"><feGaussianBlur
       stdDeviation="0.93530487"
       id="feGaussianBlur6" /></filter><filter
     style="color-interpolation-filters:sRGB"
     id="filter7"
     x="-0.027000001"
     y="-0.027000001"
     width="1.054"
     height="1.054"><feGaussianBlur
       stdDeviation="1.44"
       id="feGaussianBlur7" /></filter></defs>
<style
   type="text/css"
   id="style1">
	.st0{display:none;fill:#212121;}
	.st1{fill:#212121;}
	.st2{display:none;}
	.st3{display:inline;fill:#212121;}
</style>




<g
   id="g7"
   transform="translate(-4.3368022,-5.4581609)"><g
     id="row3"
     transform="matrix(0.87735139,0,0,0.87735139,7.3689287,8.4902874)"
     style="display:inline">
	
	<path
   id="crosshair:3_1_"
   class="st1"
   d="m 64,56.8 c -4,0 -7.2,3.2 -7.2,7.2 0,4 3.2,7.3 7.2,7.3 4,0 7.3,-3.2 7.3,-7.3 0,-4 -3.3,-7.2 -7.3,-7.2 z m 0,10.6 c -1.9,0 -3.4,-1.5 -3.4,-3.4 0,-1.9 1.5,-3.4 3.4,-3.4 1.9,0 3.4,1.5 3.4,3.4 0,1.9 -1.5,3.4 -3.4,3.4 z m 0,-10.6 c -4,0 -7.2,3.2 -7.2,7.2 0,4 3.2,7.3 7.2,7.3 4,0 7.3,-3.2 7.3,-7.3 0,-4 -3.3,-7.2 -7.3,-7.2 z m 0,10.6 c -1.9,0 -3.4,-1.5 -3.4,-3.4 0,-1.9 1.5,-3.4 3.4,-3.4 1.9,0 3.4,1.5 3.4,3.4 0,1.9 -1.5,3.4 -3.4,3.4 z m 0,-10.6 c -4,0 -7.2,3.2 -7.2,7.2 0,4 3.2,7.3 7.2,7.3 4,0 7.3,-3.2 7.3,-7.3 0,-4 -3.3,-7.2 -7.3,-7.2 z m 0,10.6 c -1.9,0 -3.4,-1.5 -3.4,-3.4 0,-1.9 1.5,-3.4 3.4,-3.4 1.9,0 3.4,1.5 3.4,3.4 0,1.9 -1.5,3.4 -3.4,3.4 z M 64,0 C 28.7,0 0,28.7 0,64 0,99.3 28.7,128 64,128 99.3,128 128,99.3 128,64 128,28.7 99.3,0 64,0 Z m 2.9,122.2 v -26 H 65 V 72.5 h -2 v 23.7 h -1.9 v 25.9 C 31.5,120.8 7.5,97 5.8,67.4 H 31.7 V 65.3 H 54.5 V 63.4 H 31.8 V 61.7 H 5.8 C 7,31.6 31.1,7.3 61.1,5.8 v 26 H 63 v 22.8 h 2 V 31.8 h 1.9 v -26 c 30,1.5 54.2,25.8 55.3,55.9 h -26 v 1.7 H 73.5 v 1.9 h 22.8 v 2.1 h 25.9 C 120.5,97 96.5,120.8 66.9,122.2 Z"
   style="opacity:0.6;fill:#00abff;fill-opacity:1;filter:url(#filter7)" />
	
	
<path
   id="path1"
   style="opacity:0.6;fill:#ff3dfb;fill-opacity:1;stroke-width:3.77901;filter:url(#filter6)"
   d="m 88.926448,24.245053 a 1.5116099,1.5116099 0 0 0 -1.511563,1.511563 v 2.399801 a 1.5682952,1.5682952 0 0 1 -1.021807,1.435874 1.5758533,1.5758533 0 0 1 -1.734179,-0.300532 l -1.678525,-1.678525 a 1.5116099,1.5116099 0 0 0 -2.15715,0 l -2.114852,2.119305 a 1.5116099,1.5116099 0 0 0 0,2.15715 l 1.676299,1.678525 a 1.5682952,1.5682952 0 0 1 0.298305,1.731952 v 0.01781 a 1.5682952,1.5682952 0 0 1 -1.438099,1.019581 h -2.373088 a 1.5116099,1.5116099 0 0 0 -1.511563,1.511563 v 3.036483 a 1.5116099,1.5116099 0 0 0 1.511563,1.511563 h 2.410932 a 1.5720743,1.5720743 0 0 1 1.4381,1.015129 v 0.02226 a 1.5682952,1.5682952 0 0 1 -0.298306,1.731953 l -1.676298,1.678525 a 1.5116099,1.5116099 0 0 0 0,2.157149 l 2.114852,2.119305 a 1.5116099,1.5116099 0 0 0 2.15715,0 l 1.678525,-1.678525 a 1.5758533,1.5758533 0 0 1 1.734179,-0.300532 1.5682952,1.5682952 0 0 1 1.021807,1.435874 v 2.38867 a 1.5116099,1.5116099 0 0 0 1.511563,1.511563 h 3.023126 a 1.5116099,1.5116099 0 0 0 1.511563,-1.511563 V 50.567173 A 1.5720743,1.5720743 0 0 1 94.514111,49.1313 h 0.02449 a 1.5720743,1.5720743 0 0 1 1.729727,0.300531 l 1.678525,1.678525 a 1.5116099,1.5116099 0 0 0 2.157147,0 l 2.11708,-2.119305 a 1.5116099,1.5116099 0 0 0 0,-2.159375 l -1.67853,-1.676299 a 1.5758533,1.5758533 0 0 1 -0.2983,-1.731953 l 0.0223,-0.02226 a 1.5758533,1.5758533 0 0 1 1.44033,-1.017355 h 2.37308 a 1.5116099,1.5116099 0 0 0 1.51157,-1.511563 v -3.047614 a 1.5116099,1.5116099 0 0 0 -1.51157,-1.511563 h -2.39535 a 1.5720743,1.5720743 0 0 1 -1.44032,-1.021807 v -0.01781 a 1.5758533,1.5758533 0 0 1 0.2983,-1.731953 l 1.67853,-1.678525 a 1.5116099,1.5116099 0 0 0 0,-2.15715 L 100.104,27.58652 a 1.5116099,1.5116099 0 0 0 -2.157149,0 l -1.678525,1.678525 a 1.5720743,1.5720743 0 0 1 -1.729727,0.300532 h -0.02449 A 1.5720743,1.5720743 0 0 1 93.49898,28.129704 v -2.373088 a 1.5116099,1.5116099 0 0 0 -1.511563,-1.511563 z m -62.695357,7.557815 a 3.7790248,3.7790248 0 0 0 -3.777795,3.780021 v 26.121767 c 0.0874,-0.02177 0.209395,-0.03562 0.347281,-0.03562 h 7.210534 V 39.360683 H 62.947156 V 31.88301 c 0,-0.03129 0.05348,-0.05972 0.140248,-0.08014 z m 38.770811,0.229295 v 7.099226 a 3.779026,3.779026 0 0 0 0,-7.099226 z m 25.249112,2.798284 a 4.5348296,4.5348296 0 0 1 1.959021,0.340602 4.5348296,4.5348296 0 0 1 2.80051,4.189634 4.5348296,4.5348296 0 0 1 -4.534689,4.534689 4.5348296,4.5348296 0 0 1 -0.224842,-9.064925 z M 22.453296,67.385818 v 21.104001 a 3.7790248,3.7790248 0 0 0 3.777795,3.777794 h 34.01128 v 7.557815 h -11.33561 a 3.7790258,3.7790258 0 0 0 0,7.557812 H 61.074955 V 96.245762 c 0,-0.06259 0.214906,-0.113534 0.48085,-0.113534 h 1.391351 V 84.709799 H 30.011111 V 67.421436 h -7.210534 c -0.137835,0 -0.259888,-0.01387 -0.347281,-0.03562 z m 75.580375,0.08014 v 17.24384 H 64.955152 v 11.422429 h 1.573896 c 0.265944,0 0.48085,0.05095 0.48085,0.113534 v 11.137479 h 12.128123 a 3.7790258,3.7790258 0 0 0 0,-7.557813 H 67.800185 v -7.557815 h 34.011285 a 3.7790248,3.7790248 0 0 0 3.78002,-3.777794 v -21.02386 z" /></g><g
     id="g3"
     transform="matrix(0.87735139,0,0,0.87735139,7.3689287,8.4902874)">
	
	<path
   id="path2"
   class="st1"
   d="m 64,56.8 c -4,0 -7.2,3.2 -7.2,7.2 0,4 3.2,7.3 7.2,7.3 4,0 7.3,-3.2 7.3,-7.3 0,-4 -3.3,-7.2 -7.3,-7.2 z m 0,10.6 c -1.9,0 -3.4,-1.5 -3.4,-3.4 0,-1.9 1.5,-3.4 3.4,-3.4 1.9,0 3.4,1.5 3.4,3.4 0,1.9 -1.5,3.4 -3.4,3.4 z m 0,-10.6 c -4,0 -7.2,3.2 -7.2,7.2 0,4 3.2,7.3 7.2,7.3 4,0 7.3,-3.2 7.3,-7.3 0,-4 -3.3,-7.2 -7.3,-7.2 z m 0,10.6 c -1.9,0 -3.4,-1.5 -3.4,-3.4 0,-1.9 1.5,-3.4 3.4,-3.4 1.9,0 3.4,1.5 3.4,3.4 0,1.9 -1.5,3.4 -3.4,3.4 z m 0,-10.6 c -4,0 -7.2,3.2 -7.2,7.2 0,4 3.2,7.3 7.2,7.3 4,0 7.3,-3.2 7.3,-7.3 0,-4 -3.3,-7.2 -7.3,-7.2 z m 0,10.6 c -1.9,0 -3.4,-1.5 -3.4,-3.4 0,-1.9 1.5,-3.4 3.4,-3.4 1.9,0 3.4,1.5 3.4,3.4 0,1.9 -1.5,3.4 -3.4,3.4 z M 64,0 C 28.7,0 0,28.7 0,64 0,99.3 28.7,128 64,128 99.3,128 128,99.3 128,64 128,28.7 99.3,0 64,0 Z m 2.9,122.2 v -26 H 65 V 72.5 h -2 v 23.7 h -1.9 v 25.9 C 31.5,120.8 7.5,97 5.8,67.4 H 31.7 V 65.3 H 54.5 V 63.4 H 31.8 V 61.7 H 5.8 C 7,31.6 31.1,7.3 61.1,5.8 v 26 H 63 v 22.8 h 2 V 31.8 h 1.9 v -26 c 30,1.5 54.2,25.8 55.3,55.9 h -26 v 1.7 H 73.5 v 1.9 h 22.8 v 2.1 h 25.9 C 120.5,97 96.5,120.8 66.9,122.2 Z"
   style="fill:url(#linearGradient4);fill-opacity:1" />
	
	
<path
   id="path3"
   style="opacity:1;fill:url(#linearGradient6);fill-opacity:1;stroke-width:3.77901"
   d="m 88.926448,24.245053 a 1.5116099,1.5116099 0 0 0 -1.511563,1.511563 v 2.399801 a 1.5682952,1.5682952 0 0 1 -1.021807,1.435874 1.5758533,1.5758533 0 0 1 -1.734179,-0.300532 l -1.678525,-1.678525 a 1.5116099,1.5116099 0 0 0 -2.15715,0 l -2.114852,2.119305 a 1.5116099,1.5116099 0 0 0 0,2.15715 l 1.676299,1.678525 a 1.5682952,1.5682952 0 0 1 0.298305,1.731952 v 0.01781 a 1.5682952,1.5682952 0 0 1 -1.438099,1.019581 h -2.373088 a 1.5116099,1.5116099 0 0 0 -1.511563,1.511563 v 3.036483 a 1.5116099,1.5116099 0 0 0 1.511563,1.511563 h 2.410932 a 1.5720743,1.5720743 0 0 1 1.4381,1.015129 v 0.02226 a 1.5682952,1.5682952 0 0 1 -0.298306,1.731953 l -1.676298,1.678525 a 1.5116099,1.5116099 0 0 0 0,2.157149 l 2.114852,2.119305 a 1.5116099,1.5116099 0 0 0 2.15715,0 l 1.678525,-1.678525 a 1.5758533,1.5758533 0 0 1 1.734179,-0.300532 1.5682952,1.5682952 0 0 1 1.021807,1.435874 v 2.38867 a 1.5116099,1.5116099 0 0 0 1.511563,1.511563 h 3.023126 a 1.5116099,1.5116099 0 0 0 1.511563,-1.511563 V 50.567173 A 1.5720743,1.5720743 0 0 1 94.514111,49.1313 h 0.02449 a 1.5720743,1.5720743 0 0 1 1.729727,0.300531 l 1.678525,1.678525 a 1.5116099,1.5116099 0 0 0 2.157147,0 l 2.11708,-2.119305 a 1.5116099,1.5116099 0 0 0 0,-2.159375 l -1.67853,-1.676299 a 1.5758533,1.5758533 0 0 1 -0.2983,-1.731953 l 0.0223,-0.02226 a 1.5758533,1.5758533 0 0 1 1.44033,-1.017355 h 2.37308 a 1.5116099,1.5116099 0 0 0 1.51157,-1.511563 v -3.047614 a 1.5116099,1.5116099 0 0 0 -1.51157,-1.511563 h -2.39535 a 1.5720743,1.5720743 0 0 1 -1.44032,-1.021807 v -0.01781 a 1.5758533,1.5758533 0 0 1 0.2983,-1.731953 l 1.67853,-1.678525 a 1.5116099,1.5116099 0 0 0 0,-2.15715 L 100.104,27.58652 a 1.5116099,1.5116099 0 0 0 -2.157149,0 l -1.678525,1.678525 a 1.5720743,1.5720743 0 0 1 -1.729727,0.300532 h -0.02449 A 1.5720743,1.5720743 0 0 1 93.49898,28.129704 v -2.373088 a 1.5116099,1.5116099 0 0 0 -1.511563,-1.511563 z m -62.695357,7.557815 a 3.7790248,3.7790248 0 0 0 -3.777795,3.780021 v 26.121767 c 0.0874,-0.02177 0.209395,-0.03562 0.347281,-0.03562 h 7.210534 V 39.360683 H 62.947156 V 31.88301 c 0,-0.03129 0.05348,-0.05972 0.140248,-0.08014 z m 38.770811,0.229295 v 7.099226 a 3.779026,3.779026 0 0 0 0,-7.099226 z m 25.249112,2.798284 a 4.5348296,4.5348296 0 0 1 1.959021,0.340602 4.5348296,4.5348296 0 0 1 2.80051,4.189634 4.5348296,4.5348296 0 0 1 -4.534689,4.534689 4.5348296,4.5348296 0 0 1 -0.224842,-9.064925 z M 22.453296,67.385818 v 21.104001 a 3.7790248,3.7790248 0 0 0 3.777795,3.777794 h 34.01128 v 7.557815 h -11.33561 a 3.7790258,3.7790258 0 0 0 0,7.557812 H 61.074955 V 96.245762 c 0,-0.06259 0.214906,-0.113534 0.48085,-0.113534 h 1.391351 V 84.709799 H 30.011111 V 67.421436 h -7.210534 c -0.137835,0 -0.259888,-0.01387 -0.347281,-0.03562 z m 75.580375,0.08014 v 17.24384 H 64.955152 v 11.422429 h 1.573896 c 0.265944,0 0.48085,0.05095 0.48085,0.113534 v 11.137479 h 12.128123 a 3.7790258,3.7790258 0 0 0 0,-7.557813 H 67.800185 v -7.557815 h 34.011285 a 3.7790248,3.7790248 0 0 0 3.78002,-3.777794 v -21.02386 z" /></g></g></svg>
