<?xml version="1.0" encoding="UTF-8" standalone="no"?>
<svg
   viewBox="0 0 477.86774 435.47659"
   version="1.1"
   id="svg5"
   width="477.86774"
   height="435.47659"
   xmlns:xlink="http://www.w3.org/1999/xlink"
   xmlns="http://www.w3.org/2000/svg"
   xmlns:svg="http://www.w3.org/2000/svg">
  <defs
     id="defs5">
    <linearGradient
       id="linearGradient23">
      <stop
         style="stop-color:#00abff;stop-opacity:0;"
         offset="0"
         id="stop24" />
      <stop
         style="stop-color:#00abff;stop-opacity:1;"
         offset="1"
         id="stop23" />
    </linearGradient>
    <linearGradient
       id="linearGradient22">
      <stop
         style="stop-color:#ff3dfb;stop-opacity:0;"
         offset="0"
         id="stop22" />
      <stop
         style="stop-color:#ff3dfb;stop-opacity:1;"
         offset="1"
         id="stop21" />
    </linearGradient>
    <linearGradient
       id="linearGradient20">
      <stop
         style="stop-color:#ff3dfb;stop-opacity:0;"
         offset="0"
         id="stop20" />
      <stop
         style="stop-color:#ff3dfb;stop-opacity:1;"
         offset="1"
         id="stop19" />
    </linearGradient>
    <linearGradient
       id="linearGradient18">
      <stop
         style="stop-color:#ff3dfb;stop-opacity:0;"
         offset="0"
         id="stop18" />
      <stop
         style="stop-color:#ff3dfb;stop-opacity:1;"
         offset="1"
         id="stop17" />
    </linearGradient>
    <linearGradient
       id="linearGradient16">
      <stop
         style="stop-color:#ff3dfb;stop-opacity:0;"
         offset="0"
         id="stop16" />
      <stop
         style="stop-color:#ff3dfb;stop-opacity:1;"
         offset="1"
         id="stop15" />
    </linearGradient>
    <linearGradient
       id="linearGradient10">
      <stop
         style="stop-color:#ff3dfb;stop-opacity:0;"
         offset="0"
         id="stop11" />
      <stop
         style="stop-color:#ff3dfb;stop-opacity:1;"
         offset="1"
         id="stop10" />
    </linearGradient>
    <linearGradient
       xlink:href="#linearGradient10"
       id="linearGradient11"
       x1="258.96487"
       y1="403.92569"
       x2="258.96487"
       y2="183.37115"
       gradientUnits="userSpaceOnUse" />
    <linearGradient
       xlink:href="#linearGradient22"
       id="linearGradient12"
       x1="258.96487"
       y1="403.92569"
       x2="258.96487"
       y2="183.37115"
       gradientUnits="userSpaceOnUse" />
    <linearGradient
       xlink:href="#linearGradient20"
       id="linearGradient13"
       x1="258.96487"
       y1="403.92569"
       x2="258.96487"
       y2="183.37115"
       gradientUnits="userSpaceOnUse" />
    <linearGradient
       xlink:href="#linearGradient18"
       id="linearGradient14"
       x1="258.96487"
       y1="403.92569"
       x2="258.96487"
       y2="183.37115"
       gradientUnits="userSpaceOnUse" />
    <linearGradient
       xlink:href="#linearGradient16"
       id="linearGradient15"
       x1="258.96487"
       y1="403.92569"
       x2="258.96487"
       y2="183.37115"
       gradientUnits="userSpaceOnUse" />
    <linearGradient
       xlink:href="#linearGradient23"
       id="linearGradient24"
       x1="263.70798"
       y1="405.70435"
       x2="263.70798"
       y2="175.6636"
       gradientUnits="userSpaceOnUse" />
    <filter
       style="color-interpolation-filters:sRGB"
       id="filter24"
       x="-0.14667807"
       y="-0.1466794"
       width="1.2933561"
       height="1.2933588">
      <feGaussianBlur
         stdDeviation="3.36015"
         id="feGaussianBlur24" />
    </filter>
    <filter
       style="color-interpolation-filters:sRGB"
       id="filter25"
       x="-0.14667807"
       y="-0.14667807"
       width="1.2933561"
       height="1.2933561">
      <feGaussianBlur
         stdDeviation="3.36015"
         id="feGaussianBlur25" />
    </filter>
    <filter
       style="color-interpolation-filters:sRGB"
       id="filter26"
       x="-0.14667807"
       y="-0.1466794"
       width="1.2933561"
       height="1.2933588">
      <feGaussianBlur
         stdDeviation="3.36015"
         id="feGaussianBlur26" />
    </filter>
    <filter
       style="color-interpolation-filters:sRGB"
       id="filter27"
       x="-0.14667807"
       y="-0.14667807"
       width="1.2933561"
       height="1.2933561">
      <feGaussianBlur
         stdDeviation="3.36015"
         id="feGaussianBlur27" />
    </filter>
    <filter
       style="color-interpolation-filters:sRGB"
       id="filter28"
       x="-0.10645682"
       y="-0.10645682"
       width="1.2129136"
       height="1.2129136">
      <feGaussianBlur
         stdDeviation="3.36015"
         id="feGaussianBlur28" />
    </filter>
    <filter
       style="color-interpolation-filters:sRGB"
       id="filter29"
       x="-0.019745142"
       y="-0.042682682"
       width="1.0394903"
       height="1.0853654">
      <feGaussianBlur
         stdDeviation="2.4554689"
         id="feGaussianBlur29" />
    </filter>
  </defs>
  <g
     id="g29">
    <g
       id="g5"
       transform="matrix(1.3,0,0,1.3,-93.866506,-115.0617)"
       style="display:inline">
      <path
         d="m 246.8752,324.8193 q 1.3287,0.06 2.6569,0.1029 c 0.6018,0.0187 1.203,0.0384 1.8058,0.0519 1.5553,0.0359 3.11,0.06 4.6621,0.06 1.5521,0 3.1068,-0.0242 4.6621,-0.06 0.6028,-0.0135 1.204,-0.0332 1.8058,-0.0519 q 1.3284,-0.0426 2.6569,-0.1029 c 0.8046,-0.0354 1.6091,-0.07 2.4116,-0.1152 0.2093,-0.012 0.4184,-0.028 0.6277,-0.0405 52.5917,-3.0955 100.7114,-26.1831 133.4487,-64.4375 L 405.23,256 401.6133,251.7739 C 368.0622,212.5686 318.3543,189.296 264.2341,187.1461 q -0.4382,-0.0175 -0.8762,-0.0339 c -1.1084,-0.0393 -2.2176,-0.0729 -3.3295,-0.0945 -0.2739,-0.005 -0.5477,-0.006 -0.8216,-0.0106 -1.0683,-0.0164 -2.135,-0.0413 -3.2063,-0.0413 -1.0713,0 -2.138,0.0249 -3.2063,0.0413 -0.2739,0.004 -0.5477,0.005 -0.8216,0.0106 -1.1119,0.0216 -2.2211,0.0552 -3.33,0.0945 q -0.4381,0.0157 -0.8762,0.0339 c -54.12,2.15 -103.8281,25.4225 -137.3792,64.6278 l -3.6167,4.2261 3.6167,4.2261 c 32.7373,38.2544 80.857,61.342 133.4487,64.4375 0.2093,0.0125 0.4184,0.0285 0.6277,0.0405 0.8025,0.0448 1.607,0.0798 2.4116,0.1152 z m 5.4731,-12.83 q -1.4835,-0.0282 -2.9665,-0.0813 -0.4092,-0.014 -0.8178,-0.03 a 190.2737,190.2737 0 0 1 -20.46,-1.8979 60.7611,60.7611 0 0 1 0,-107.959 190.2879,190.2879 0 0 1 20.4614,-1.8979 q 0.408,-0.0157 0.8164,-0.03 1.4834,-0.0513 2.9674,-0.0813 c 0.2826,-0.005 0.566,-0.006 0.8488,-0.0105 q 2.8016,-0.0411 5.6036,0 c 0.2837,0.004 0.5677,0.005 0.8511,0.0105 q 1.483,0.0282 2.9652,0.0812 c 0.2736,0.009 0.5469,0.02 0.82,0.03 a 190.3515,190.3515 0 0 1 20.4593,1.8979 60.7613,60.7613 0 0 1 0,107.959 190.2737,190.2737 0 0 1 -20.4605,1.8979 q -0.4087,0.0157 -0.8178,0.03 -1.4829,0.0513 -2.9665,0.0813 c -0.2829,0.005 -0.5666,0.007 -0.85,0.0105 q -2.8018,0.0411 -5.6038,0 c -0.2837,-0.004 -0.5674,-0.005 -0.8503,-0.0107 z M 387.9907,256 a 171.8562,171.8562 0 0 1 -75.4607,47.4631 73.9783,73.9783 0 0 0 0,-94.9261 171.8562,171.8562 0 0 1 75.4607,47.463 z m -263.9814,0 a 171.8562,171.8562 0 0 1 75.4607,-47.4631 73.9776,73.9776 0 0 0 0,94.9262 A 171.8562,171.8562 0 0 1 124.0093,256 Z"
         id="path1"
         style="opacity:0.6;fill:#00abff;fill-opacity:1;filter:url(#filter29)" />
      <circle
         cx="256"
         cy="256"
         r="37.876202"
         id="circle1"
         style="opacity:0.6;fill:#ff3dfb;fill-opacity:1;filter:url(#filter28)" />
      <path
         d="m 396.59,388.09 h -41.98 v 13 h 42.48 a 12.5141,12.5141 0 0 0 12.5,-12.5 v -42.48 h -13 z"
         id="path2"
         style="opacity:0.6;fill:#ff3dfb;fill-opacity:1;filter:url(#filter27)" />
      <path
         d="m 397.09,110.91 h -42.48 v 13 h 41.98 v 41.9795 h 13 V 123.41 a 12.5141,12.5141 0 0 0 -12.5,-12.5 z"
         id="path3"
         style="opacity:0.6;fill:#ff3dfb;fill-opacity:1;filter:url(#filter26)" />
      <path
         d="m 115.41,346.11 h -13 v 42.48 a 12.5141,12.5141 0 0 0 12.5,12.5 h 42.48 v -13 h -41.98 z"
         id="path4"
         style="opacity:0.6;fill:#ff3dfb;fill-opacity:1;filter:url(#filter25)" />
      <path
         d="m 115.41,123.91 h 41.98 v -13 h -42.48 a 12.5141,12.5141 0 0 0 -12.5,12.5 v 42.4795 h 13 z"
         id="path5"
         style="opacity:0.6;fill:#ff3dfb;fill-opacity:1;filter:url(#filter24)" />
    </g>
    <g
       id="g10"
       transform="matrix(1.3,0,0,1.3,-93.866506,-115.0617)">
      <path
         d="m 246.8752,324.8193 q 1.3287,0.06 2.6569,0.1029 c 0.6018,0.0187 1.203,0.0384 1.8058,0.0519 1.5553,0.0359 3.11,0.06 4.6621,0.06 1.5521,0 3.1068,-0.0242 4.6621,-0.06 0.6028,-0.0135 1.204,-0.0332 1.8058,-0.0519 q 1.3284,-0.0426 2.6569,-0.1029 c 0.8046,-0.0354 1.6091,-0.07 2.4116,-0.1152 0.2093,-0.012 0.4184,-0.028 0.6277,-0.0405 52.5917,-3.0955 100.7114,-26.1831 133.4487,-64.4375 L 405.23,256 401.6133,251.7739 C 368.0622,212.5686 318.3543,189.296 264.2341,187.1461 q -0.4382,-0.0175 -0.8762,-0.0339 c -1.1084,-0.0393 -2.2176,-0.0729 -3.3295,-0.0945 -0.2739,-0.005 -0.5477,-0.006 -0.8216,-0.0106 -1.0683,-0.0164 -2.135,-0.0413 -3.2063,-0.0413 -1.0713,0 -2.138,0.0249 -3.2063,0.0413 -0.2739,0.004 -0.5477,0.005 -0.8216,0.0106 -1.1119,0.0216 -2.2211,0.0552 -3.33,0.0945 q -0.4381,0.0157 -0.8762,0.0339 c -54.12,2.15 -103.8281,25.4225 -137.3792,64.6278 l -3.6167,4.2261 3.6167,4.2261 c 32.7373,38.2544 80.857,61.342 133.4487,64.4375 0.2093,0.0125 0.4184,0.0285 0.6277,0.0405 0.8025,0.0448 1.607,0.0798 2.4116,0.1152 z m 5.4731,-12.83 q -1.4835,-0.0282 -2.9665,-0.0813 -0.4092,-0.014 -0.8178,-0.03 a 190.2737,190.2737 0 0 1 -20.46,-1.8979 60.7611,60.7611 0 0 1 0,-107.959 190.2879,190.2879 0 0 1 20.4614,-1.8979 q 0.408,-0.0157 0.8164,-0.03 1.4834,-0.0513 2.9674,-0.0813 c 0.2826,-0.005 0.566,-0.006 0.8488,-0.0105 q 2.8016,-0.0411 5.6036,0 c 0.2837,0.004 0.5677,0.005 0.8511,0.0105 q 1.483,0.0282 2.9652,0.0812 c 0.2736,0.009 0.5469,0.02 0.82,0.03 a 190.3515,190.3515 0 0 1 20.4593,1.8979 60.7613,60.7613 0 0 1 0,107.959 190.2737,190.2737 0 0 1 -20.4605,1.8979 q -0.4087,0.0157 -0.8178,0.03 -1.4829,0.0513 -2.9665,0.0813 c -0.2829,0.005 -0.5666,0.007 -0.85,0.0105 q -2.8018,0.0411 -5.6038,0 c -0.2837,-0.004 -0.5674,-0.005 -0.8503,-0.0107 z M 387.9907,256 a 171.8562,171.8562 0 0 1 -75.4607,47.4631 73.9783,73.9783 0 0 0 0,-94.9261 171.8562,171.8562 0 0 1 75.4607,47.463 z m -263.9814,0 a 171.8562,171.8562 0 0 1 75.4607,-47.4631 73.9776,73.9776 0 0 0 0,94.9262 A 171.8562,171.8562 0 0 1 124.0093,256 Z"
         id="path6"
         style="fill:url(#linearGradient24);fill-opacity:1" />
      <circle
         cx="256"
         cy="256"
         r="37.876202"
         id="circle6"
         style="fill:url(#linearGradient15);fill-opacity:1" />
      <path
         d="m 396.59,388.09 h -41.98 v 13 h 42.48 a 12.5141,12.5141 0 0 0 12.5,-12.5 v -42.48 h -13 z"
         id="path7"
         style="fill:url(#linearGradient14);fill-opacity:1" />
      <path
         d="m 397.09,110.91 h -42.48 v 13 h 41.98 v 41.9795 h 13 V 123.41 a 12.5141,12.5141 0 0 0 -12.5,-12.5 z"
         id="path8"
         style="fill:url(#linearGradient13);fill-opacity:1" />
      <path
         d="m 115.41,346.11 h -13 v 42.48 a 12.5141,12.5141 0 0 0 12.5,12.5 h 42.48 v -13 h -41.98 z"
         id="path9"
         style="fill:url(#linearGradient12);fill-opacity:1" />
      <path
         d="m 115.41,123.91 h 41.98 v -13 h -42.48 a 12.5141,12.5141 0 0 0 -12.5,12.5 v 42.4795 h 13 z"
         id="path10"
         style="fill:url(#linearGradient11);fill-opacity:1" />
    </g>
  </g>
</svg>
