<?xml version="1.0" encoding="UTF-8" standalone="no"?>
<svg
   id="Layer_1"
   data-name="Layer 1"
   viewBox="0 0 126.08425 125.79734"
   version="1.1"
   xml:space="preserve"
   width="126.08425"
   height="125.79734"
   xmlns:xlink="http://www.w3.org/1999/xlink"
   xmlns="http://www.w3.org/2000/svg"
   xmlns:svg="http://www.w3.org/2000/svg"><defs
     id="defs3"><linearGradient
       id="linearGradient13"><stop
         style="stop-color:#00abff;stop-opacity:0;"
         offset="0"
         id="stop14" /><stop
         style="stop-color:#00abff;stop-opacity:1;"
         offset="1"
         id="stop13" /></linearGradient><linearGradient
       id="linearGradient12"><stop
         style="stop-color:#ff3dfb;stop-opacity:0;"
         offset="0"
         id="stop12" /><stop
         style="stop-color:#ff3dfb;stop-opacity:1;"
         offset="1"
         id="stop11" /></linearGradient><linearGradient
       id="linearGradient9"><stop
         style="stop-color:#ff3dfb;stop-opacity:0;"
         offset="0"
         id="stop10" /><stop
         style="stop-color:#ff3dfb;stop-opacity:1;"
         offset="1"
         id="stop9" /></linearGradient><linearGradient
       xlink:href="#linearGradient9"
       id="linearGradient10"
       x1="34.538727"
       y1="203.33774"
       x2="34.538727"
       y2="48.743141"
       gradientUnits="userSpaceOnUse" /><linearGradient
       xlink:href="#linearGradient12"
       id="linearGradient11"
       x1="34.538727"
       y1="203.33774"
       x2="34.538727"
       y2="48.743141"
       gradientUnits="userSpaceOnUse" /><linearGradient
       xlink:href="#linearGradient13"
       id="linearGradient14"
       x1="64.172974"
       y1="126.6044"
       x2="64.172974"
       y2="32.868679"
       gradientUnits="userSpaceOnUse" /><filter
       style="color-interpolation-filters:sRGB"
       id="filter14"
       x="-0.073960027"
       y="-0.19365531"
       width="1.1479201"
       height="1.3873106"><feGaussianBlur
         stdDeviation="1.1362725"
         id="feGaussianBlur14" /></filter><filter
       style="color-interpolation-filters:sRGB"
       id="filter15"
       x="-0.026422895"
       y="-0.02760288"
       width="1.0528458"
       height="1.0552058"><feGaussianBlur
         stdDeviation="1.1362725"
         id="feGaussianBlur15" /></filter><filter
       style="color-interpolation-filters:sRGB"
       id="filter16"
       x="-0.018773951"
       y="-0.048056637"
       width="1.0375479"
       height="1.0961133"><feGaussianBlur
         stdDeviation="0.80733174"
         id="feGaussianBlur16" /></filter></defs><title
     id="title1">HANDS</title><g
     id="g16"><g
       id="g10"
       transform="translate(4.23946,3.1158135)"
       style="display:inline"><g
         id="g8"
         transform="translate(-2.953283,-8.3758728)"><path
           d="m 113.11728,81.329929 a 3.248,3.248 0 0 0 -3.02,-2.031 h -1.664 a 16.539,16.539 0 0 0 -8.056,2.1 l -12.127997,6.781 h -3.418 a 9.622,9.622 0 0 0 -9.446,-7.857 h -21.859 a 1.751,1.751 0 0 0 -1.337,0.621 l -6.593,7.814 a 1.738,1.738 0 0 0 -1.292,-0.578 h -32.4 a 1.75,1.75 0 0 0 0,3.5 h 20.86 v 24.438001 h -20.861 a 1.75,1.75 0 0 0 0,3.5 h 32.4 a 1.749,1.749 0 0 0 1.75,-1.75 v -8.166 l 34.849,-1.6 c 0.034,0 0.069,0 0.1,-0.007 a 24.693,24.693 0 0 0 14.6,-6.849 L 112.37328,84.891929 a 3.246,3.246 0 0 0 0.744,-3.562 z M 42.557283,116.11793 h -6.294 V 91.679929 h 6.294 z m 50.6,-17.378001 a 21.172,21.172 0 0 1 -12.468,5.868001 l -34.632,1.591 V 93.642929 l 8.285,-9.82 h 21.043 a 6.113,6.113 0 0 1 5.954,4.772 l -17.3,4.246 a 1.7503968,1.7503968 0 1 0 0.834,3.4 l 18.574,-4.559 h 5.254 a 1.747,1.747 0 0 0 0.854,-0.223 l 12.525997,-7 a 13.041,13.041 0 0 1 6.348,-1.654 h 1.074 z"
           id="path1"
           style="opacity:0.6;fill:#00abff;fill-opacity:1;filter:url(#filter16)" /><g
           id="g7"
           transform="matrix(0.59049,0,0,0.59049,42.664945,5.422242)"
           style="fill:#ff3dfb;fill-opacity:1"><path
             d="m 115.121,26.546 -0.008,-0.014 -10.988,-11.395 a 1.751,1.751 0 0 0 -1.26,-0.535 h -77.73 a 1.751,1.751 0 0 0 -1.26,0.535 l -10.988,11.4 -0.008,0.014 a 1.743,1.743 0 0 0 -0.483,1.2 v 16.681 a 1.751,1.751 0 0 0 1.75,1.75 h 2.167 v 65.466 a 1.75,1.75 0 0 0 1.75,1.75 h 91.874 a 1.75,1.75 0 0 0 1.75,-1.75 V 46.182 h 2.167 a 1.751,1.751 0 0 0 1.75,-1.75 V 27.747 a 1.743,1.743 0 0 0 -0.483,-1.201 z M 109.735,26 H 71.047 l -2.079,-7.9 h 33.154 z M 60.052,46.182 h 7.9 v 7.972 l -2.627,-3.022 a 1.809,1.809 0 0 0 -2.642,0 l -2.627,3.022 z m 0,-3.5 V 29.5 h 7.9 v 13.182 z m 5.3,-24.58 2.075,7.898 h -6.854 l 2.078,-7.9 z m -39.471,0 H 59.032 L 56.953,26 H 18.265 Z M 15.9,29.5 H 56.552 V 42.682 H 15.9 Z m 92.291,80.4 H 19.813 V 46.182 h 36.739 v 12.651 a 1.75,1.75 0 0 0 3.071,1.149 L 64,54.948 l 4.377,5.034 a 1.749,1.749 0 0 0 1.321,0.6 1.747,1.747 0 0 0 1.75,-1.75 v -12.65 h 36.739 z M 112.1,42.682 H 71.448 V 29.5 H 112.1 Z"
             id="path2"
             style="opacity:0.6;fill:#ff3dfb;fill-opacity:1;filter:url(#filter15)" /><path
             d="m 47.314,65.709 a 1.751,1.751 0 0 0 -1.75,1.75 v 10.582 a 1.751,1.751 0 0 0 1.75,1.75 h 33.372 a 1.751,1.751 0 0 0 1.75,-1.75 V 67.459 a 1.751,1.751 0 0 0 -1.75,-1.75 z M 78.936,76.291 H 49.064 v -7.082 h 29.872 z"
             id="path6"
             style="opacity:0.6;fill:#ff3dfb;fill-opacity:1;filter:url(#filter14)" /></g></g></g><g
       id="g9"
       transform="translate(4.23946,3.1158135)"><g
         id="g6"
         transform="translate(-2.953283,-8.3758728)"><path
           d="m 113.11728,81.329929 a 3.248,3.248 0 0 0 -3.02,-2.031 h -1.664 a 16.539,16.539 0 0 0 -8.056,2.1 l -12.127997,6.781 h -3.418 a 9.622,9.622 0 0 0 -9.446,-7.857 h -21.859 a 1.751,1.751 0 0 0 -1.337,0.621 l -6.593,7.814 a 1.738,1.738 0 0 0 -1.292,-0.578 h -32.4 a 1.75,1.75 0 0 0 0,3.5 h 20.86 v 24.438001 h -20.861 a 1.75,1.75 0 0 0 0,3.5 h 32.4 a 1.749,1.749 0 0 0 1.75,-1.75 v -8.166 l 34.849,-1.6 c 0.034,0 0.069,0 0.1,-0.007 a 24.693,24.693 0 0 0 14.6,-6.849 L 112.37328,84.891929 a 3.246,3.246 0 0 0 0.744,-3.562 z M 42.557283,116.11793 h -6.294 V 91.679929 h 6.294 z m 50.6,-17.378001 a 21.172,21.172 0 0 1 -12.468,5.868001 l -34.632,1.591 V 93.642929 l 8.285,-9.82 h 21.043 a 6.113,6.113 0 0 1 5.954,4.772 l -17.3,4.246 a 1.7503968,1.7503968 0 1 0 0.834,3.4 l 18.574,-4.559 h 5.254 a 1.747,1.747 0 0 0 0.854,-0.223 l 12.525997,-7 a 13.041,13.041 0 0 1 6.348,-1.654 h 1.074 z"
           id="path3"
           style="fill:url(#linearGradient14);fill-opacity:1" /><g
           id="g5"
           transform="matrix(0.59049,0,0,0.59049,42.664945,5.422242)"
           style="fill:#ff3dfb;fill-opacity:1"><path
             d="m 115.121,26.546 -0.008,-0.014 -10.988,-11.395 a 1.751,1.751 0 0 0 -1.26,-0.535 h -77.73 a 1.751,1.751 0 0 0 -1.26,0.535 l -10.988,11.4 -0.008,0.014 a 1.743,1.743 0 0 0 -0.483,1.2 v 16.681 a 1.751,1.751 0 0 0 1.75,1.75 h 2.167 v 65.466 a 1.75,1.75 0 0 0 1.75,1.75 h 91.874 a 1.75,1.75 0 0 0 1.75,-1.75 V 46.182 h 2.167 a 1.751,1.751 0 0 0 1.75,-1.75 V 27.747 a 1.743,1.743 0 0 0 -0.483,-1.201 z M 109.735,26 H 71.047 l -2.079,-7.9 h 33.154 z M 60.052,46.182 h 7.9 v 7.972 l -2.627,-3.022 a 1.809,1.809 0 0 0 -2.642,0 l -2.627,3.022 z m 0,-3.5 V 29.5 h 7.9 v 13.182 z m 5.3,-24.58 2.075,7.898 h -6.854 l 2.078,-7.9 z m -39.471,0 H 59.032 L 56.953,26 H 18.265 Z M 15.9,29.5 H 56.552 V 42.682 H 15.9 Z m 92.291,80.4 H 19.813 V 46.182 h 36.739 v 12.651 a 1.75,1.75 0 0 0 3.071,1.149 L 64,54.948 l 4.377,5.034 a 1.749,1.749 0 0 0 1.321,0.6 1.747,1.747 0 0 0 1.75,-1.75 v -12.65 h 36.739 z M 112.1,42.682 H 71.448 V 29.5 H 112.1 Z"
             id="path4"
             style="fill:url(#linearGradient11);fill-opacity:1" /><path
             d="m 47.314,65.709 a 1.751,1.751 0 0 0 -1.75,1.75 v 10.582 a 1.751,1.751 0 0 0 1.75,1.75 h 33.372 a 1.751,1.751 0 0 0 1.75,-1.75 V 67.459 a 1.751,1.751 0 0 0 -1.75,-1.75 z M 78.936,76.291 H 49.064 v -7.082 h 29.872 z"
             id="path5"
             style="fill:url(#linearGradient10);fill-opacity:1" /></g></g></g></g></svg>
