<?xml version="1.0" encoding="UTF-8" standalone="no"?>
<svg
   viewBox="0 0 467.17712 470.28641"
   version="1.1"
   id="svg10"
   xml:space="preserve"
   width="467.17712"
   height="470.28641"
   xmlns:xlink="http://www.w3.org/1999/xlink"
   xmlns="http://www.w3.org/2000/svg"
   xmlns:svg="http://www.w3.org/2000/svg"
   xmlns:rdf="http://www.w3.org/1999/02/22-rdf-syntax-ns#"
   xmlns:cc="http://creativecommons.org/ns#"
   xmlns:dc="http://purl.org/dc/elements/1.1/"><defs
     id="defs10"><linearGradient
       id="linearGradient161"><stop
         style="stop-color:#ff3dfb;stop-opacity:0;"
         offset="0"
         id="stop161" /><stop
         style="stop-color:#ff3dfb;stop-opacity:1;"
         offset="1"
         id="stop160" /></linearGradient><linearGradient
       id="linearGradient158"><stop
         style="stop-color:#ff3dfb;stop-opacity:0;"
         offset="0"
         id="stop159" /><stop
         style="stop-color:#ff3dfb;stop-opacity:1;"
         offset="1"
         id="stop158" /></linearGradient><linearGradient
       id="linearGradient150"><stop
         style="stop-color:#00abff;stop-opacity:0;"
         offset="0"
         id="stop150" /><stop
         style="stop-color:#00abff;stop-opacity:1;"
         offset="1"
         id="stop149" /></linearGradient><linearGradient
       id="linearGradient148"><stop
         style="stop-color:#00abff;stop-opacity:0;"
         offset="0"
         id="stop148" /><stop
         style="stop-color:#00abff;stop-opacity:1;"
         offset="1"
         id="stop147" /></linearGradient><linearGradient
       id="linearGradient146"><stop
         style="stop-color:#00abff;stop-opacity:0;"
         offset="0"
         id="stop146" /><stop
         style="stop-color:#00abff;stop-opacity:1;"
         offset="1"
         id="stop145" /></linearGradient><linearGradient
       id="linearGradient144"><stop
         style="stop-color:#00abff;stop-opacity:0;"
         offset="0"
         id="stop144" /><stop
         style="stop-color:#00abff;stop-opacity:1;"
         offset="1"
         id="stop143" /></linearGradient><linearGradient
       id="linearGradient138"><stop
         style="stop-color:#00abff;stop-opacity:0;"
         offset="0"
         id="stop139" /><stop
         style="stop-color:#00abff;stop-opacity:1;"
         offset="1"
         id="stop138" /></linearGradient><linearGradient
       xlink:href="#linearGradient138"
       id="linearGradient139"
       x1="260.61694"
       y1="515.50323"
       x2="260.61694"
       y2="139.5811"
       gradientUnits="userSpaceOnUse" /><linearGradient
       xlink:href="#linearGradient150"
       id="linearGradient140"
       x1="260.61694"
       y1="515.50323"
       x2="260.61694"
       y2="139.5811"
       gradientUnits="userSpaceOnUse" /><linearGradient
       xlink:href="#linearGradient148"
       id="linearGradient141"
       x1="260.61694"
       y1="515.50323"
       x2="260.61694"
       y2="139.5811"
       gradientUnits="userSpaceOnUse" /><linearGradient
       xlink:href="#linearGradient146"
       id="linearGradient142"
       x1="260.61694"
       y1="515.50323"
       x2="260.61694"
       y2="139.5811"
       gradientUnits="userSpaceOnUse" /><linearGradient
       xlink:href="#linearGradient144"
       id="linearGradient143"
       x1="260.61694"
       y1="515.50323"
       x2="260.61694"
       y2="139.5811"
       gradientUnits="userSpaceOnUse" /><filter
       style="color-interpolation-filters:sRGB"
       id="filter150"
       x="-0.026999999"
       y="-0.026999999"
       width="1.054"
       height="1.054"><feGaussianBlur
         stdDeviation="4.7999999"
         id="feGaussianBlur150" /></filter><filter
       style="color-interpolation-filters:sRGB"
       id="filter151"
       x="-0.10799999"
       y="-0.026999999"
       width="1.216"
       height="1.054"><feGaussianBlur
         stdDeviation="4.7999999"
         id="feGaussianBlur151" /></filter><filter
       style="color-interpolation-filters:sRGB"
       id="filter152"
       x="-0.026999999"
       y="-0.089999992"
       width="1.054"
       height="1.18"><feGaussianBlur
         stdDeviation="4.7999999"
         id="feGaussianBlur152" /></filter><filter
       style="color-interpolation-filters:sRGB"
       id="filter153"
       x="-0.026999999"
       y="-0.10799999"
       width="1.054"
       height="1.216"><feGaussianBlur
         stdDeviation="4.7999999"
         id="feGaussianBlur153" /></filter><filter
       style="color-interpolation-filters:sRGB"
       id="filter154"
       x="-0.089999995"
       y="-0.026999999"
       width="1.18"
       height="1.054"><feGaussianBlur
         stdDeviation="4.7999999"
         id="feGaussianBlur154" /></filter><linearGradient
       xlink:href="#linearGradient158"
       id="linearGradient159"
       x1="255.19205"
       y1="577.45923"
       x2="255.19205"
       y2="128.32155"
       gradientUnits="userSpaceOnUse" /><linearGradient
       xlink:href="#linearGradient161"
       id="linearGradient160"
       x1="255.19205"
       y1="577.45923"
       x2="255.19205"
       y2="128.32155"
       gradientUnits="userSpaceOnUse" /><filter
       style="color-interpolation-filters:sRGB"
       id="filter161"
       x="-0.027094719"
       y="-0.026905944"
       width="1.0541894"
       height="1.0538119"><feGaussianBlur
         stdDeviation="6.0881703"
         id="feGaussianBlur161" /></filter><filter
       style="color-interpolation-filters:sRGB"
       id="filter162"
       x="-0.031776623"
       y="-0.031555228"
       width="1.0635532"
       height="1.0631105"><feGaussianBlur
         stdDeviation="6.0881703"
         id="feGaussianBlur162" /></filter></defs><title
     id="title1">Artboard 156</title><g
     id="g162"
     transform="translate(-21.080031,-30.643291)"><g
       id="g158"
       transform="matrix(0.82176854,0,0,0.82176854,42.757107,54.743494)"
       style="display:inline"><path
         id="path157"
         style="opacity:0.6;fill:#ff3dfb;fill-opacity:1;stroke-width:3.60496;filter:url(#filter162)"
         d="m 277.03729,25.126174 -2.003,21.878267 c 73.15882,6.746752 136.22529,50.190048 168.70041,116.214159 9.5234,19.35759 15.99792,39.87658 19.24182,60.99229 l 21.64329,-3.34901 c -3.58516,-23.33329 -10.7292,-46.00064 -21.2405,-67.36956 C 427.5022,80.562259 357.84429,32.574733 277.03729,25.126174 Z M 153.76578,48.160233 C 98.396432,75.584967 56.984187,123.00431 37.154246,181.68115 17.331493,240.35803 21.462583,303.27312 48.793413,358.83163 69.09036,400.09717 100.73491,434.03325 140.2978,456.95775 l 10.95335,-19.02859 C 115.44947,417.17882 86.810127,386.4675 68.43151,349.10533 43.687194,298.81037 39.945047,241.85818 57.89617,188.73429 75.843701,135.61764 113.33265,92.692685 163.46074,67.86897 Z M 458.45019,309.69216 c -15.47236,58.77091 -55.4703,107.89654 -109.74038,134.77141 -36.96558,18.30485 -78.02978,25.27238 -118.73863,20.07033 l -2.75194,21.80294 c 9.67428,1.22998 19.3655,1.83809 29.03258,1.83809 35.25923,0 70.10173,-8.13229 102.15297,-24.01337 59.94964,-29.68574 104.12947,-83.94185 121.2184,-148.86262 z" /><path
         id="path158"
         style="opacity:0.6;fill:#ff3dfb;fill-opacity:1;stroke-width:4.22789;filter:url(#filter161)"
         d="m 231.68533,-14.71563 2.34913,25.65878 C 148.23396,18.855725 74.269757,69.805921 36.183004,147.23885 25.013983,169.94138 17.420681,194.006 13.616242,218.77046 l -25.3832,-3.92771 C -7.5622899,187.47753 0.81622326,160.89331 13.143851,135.83189 55.220442,50.299681 136.91507,-5.9799779 231.68533,-14.71563 Z m 144.57255,27.014291 c 64.93704,32.163663 113.50524,87.776959 136.76174,156.593029 23.24807,68.8161 18.40313,142.60277 -13.65039,207.76166 -23.80422,48.39613 -60.91687,88.19629 -107.31613,115.08208 L 379.20703,469.41875 C 421.19516,445.0828 454.78332,409.06464 476.33771,365.24637 505.35779,306.26056 509.74657,239.46716 488.69353,177.16359 467.64472,114.8685 423.67776,64.526217 364.88765,35.413021 Z M 18.924711,319.0227 c 18.145948,68.92638 65.055443,126.5408 128.703259,158.05959 43.35315,21.46788 91.51314,29.63939 139.25639,23.53845 l 3.22747,25.57042 c -11.34598,1.44253 -22.71182,2.15572 -34.04934,2.15572 -41.35195,0 -82.21515,-9.53754 -119.80477,-28.16283 C 65.948927,465.36869 14.134924,401.73724 -5.9069332,325.59831 Z" /></g><g
       id="g157"
       transform="matrix(0.82176854,0,0,0.82176854,42.757107,54.743494)"><path
         id="path1"
         style="fill:url(#linearGradient159);fill-opacity:1;stroke-width:3.60496"
         d="m 277.03729,25.126174 -2.003,21.878267 c 73.15882,6.746752 136.22529,50.190048 168.70041,116.214159 9.5234,19.35759 15.99792,39.87658 19.24182,60.99229 l 21.64329,-3.34901 c -3.58516,-23.33329 -10.7292,-46.00064 -21.2405,-67.36956 C 427.5022,80.562259 357.84429,32.574733 277.03729,25.126174 Z M 153.76578,48.160233 C 98.396432,75.584967 56.984187,123.00431 37.154246,181.68115 17.331493,240.35803 21.462583,303.27312 48.793413,358.83163 69.09036,400.09717 100.73491,434.03325 140.2978,456.95775 l 10.95335,-19.02859 C 115.44947,417.17882 86.810127,386.4675 68.43151,349.10533 43.687194,298.81037 39.945047,241.85818 57.89617,188.73429 75.843701,135.61764 113.33265,92.692685 163.46074,67.86897 Z M 458.45019,309.69216 c -15.47236,58.77091 -55.4703,107.89654 -109.74038,134.77141 -36.96558,18.30485 -78.02978,25.27238 -118.73863,20.07033 l -2.75194,21.80294 c 9.67428,1.22998 19.3655,1.83809 29.03258,1.83809 35.25923,0 70.10173,-8.13229 102.15297,-24.01337 59.94964,-29.68574 104.12947,-83.94185 121.2184,-148.86262 z" /><path
         id="path1-9"
         style="fill:url(#linearGradient160);fill-opacity:1;stroke-width:4.22789"
         d="m 231.68533,-14.71563 2.34913,25.65878 C 148.23396,18.855725 74.269757,69.805921 36.183004,147.23885 25.013983,169.94138 17.420681,194.006 13.616242,218.77046 l -25.3832,-3.92771 C -7.5622899,187.47753 0.81622326,160.89331 13.143851,135.83189 55.220442,50.299681 136.91507,-5.9799779 231.68533,-14.71563 Z m 144.57255,27.014291 c 64.93704,32.163663 113.50524,87.776959 136.76174,156.593029 23.24807,68.8161 18.40313,142.60277 -13.65039,207.76166 -23.80422,48.39613 -60.91687,88.19629 -107.31613,115.08208 L 379.20703,469.41875 C 421.19516,445.0828 454.78332,409.06464 476.33771,365.24637 505.35779,306.26056 509.74657,239.46716 488.69353,177.16359 467.64472,114.8685 423.67776,64.526217 364.88765,35.413021 Z M 18.924711,319.0227 c 18.145948,68.92638 65.055443,126.5408 128.703259,158.05959 43.35315,21.46788 91.51314,29.63939 139.25639,23.53845 l 3.22747,25.57042 c -11.34598,1.44253 -22.71182,2.15572 -34.04934,2.15572 -41.35195,0 -82.21515,-9.53754 -119.80477,-28.16283 C 65.948927,465.36869 14.134924,401.73724 -5.9069332,325.59831 Z" /></g><g
       id="g154"
       style="display:inline"
       transform="matrix(0.82176854,0,0,0.82176854,42.757107,54.743494)"><g
         id="g138"
         data-name="Internet Universe"
         transform="matrix(0.9,0,0,0.9,25.6,25.600245)"
         style="display:inline"><path
           d="m 256,469.33333 a 21.33333,21.33333 0 0 1 0,-42.66666 c 26.10417,0 64,-66.47917 64,-170.66667 C 320,151.8125 282.10417,85.33333 256,85.33333 a 21.33333,21.33333 0 1 1 0,-42.66666 c 60.8125,0 106.66667,91.70833 106.66667,213.33333 0,121.625 -45.85417,213.33333 -106.66667,213.33333 z"
           style="opacity:0.6;fill:#00abff;fill-opacity:1;stroke:none;stroke-opacity:1;filter:url(#filter154)"
           id="path134" /><path
           d="M 256,362.66667 C 134.375,362.66667 42.66667,316.8125 42.66667,256 h 42.66666 c 0,26.10417 66.47917,64 170.66667,64 104.1875,0 170.66667,-37.89583 170.66667,-64 h 42.66666 c 0,60.8125 -91.70833,106.66667 -213.33333,106.66667 z"
           style="opacity:0.6;fill:#00abff;fill-opacity:1;stroke:none;stroke-opacity:1;filter:url(#filter153)"
           id="path135" /><path
           d="M 448,277.33333 A 21.32105,21.32105 0 0 1 426.66667,256 C 426.66667,229.89583 360.1875,192 256,192 151.8125,192 85.33333,229.89583 85.33333,256 a 21.33333,21.33333 0 0 1 -42.66666,0 C 42.66667,195.1875 134.375,149.33333 256,149.33333 377.625,149.33333 469.33333,195.1875 469.33333,256 A 21.32105,21.32105 0 0 1 448,277.33333 Z"
           style="opacity:0.6;fill:#00abff;fill-opacity:1;stroke:none;stroke-opacity:1;filter:url(#filter152)"
           id="path136" /><path
           d="M 256,469.33333 C 195.1875,469.33333 149.33333,377.625 149.33333,256 149.33333,134.375 195.1875,42.66667 256,42.66667 v 42.66666 c -26.10417,0 -64,66.47917 -64,170.66667 0,104.1875 37.89583,170.66667 64,170.66667 z"
           style="opacity:0.6;fill:#00abff;fill-opacity:1;stroke:none;stroke-opacity:1;filter:url(#filter151)"
           id="path137" /><path
           d="M 256,469.33333 C 138.375,469.33333 42.66667,373.625 42.66667,256 42.66667,138.375 138.375,42.66667 256,42.66667 373.625,42.66667 469.33333,138.375 469.33333,256 469.33333,373.625 373.625,469.33333 256,469.33333 Z m 0,-384 c -94.10417,0 -170.66667,76.5625 -170.66667,170.66667 0,94.10417 76.5625,170.66667 170.66667,170.66667 94.10417,0 170.66667,-76.5625 170.66667,-170.66667 0,-94.10417 -76.5625,-170.66667 -170.66667,-170.66667 z"
           style="opacity:0.6;fill:#00abff;fill-opacity:1;stroke:none;stroke-opacity:1;filter:url(#filter150)"
           id="path138" /></g><g
         id="Internet_Universe"
         data-name="Internet Universe"
         transform="matrix(0.9,0,0,0.9,25.6,25.600245)"><path
           d="m 256,469.33333 a 21.33333,21.33333 0 0 1 0,-42.66666 c 26.10417,0 64,-66.47917 64,-170.66667 C 320,151.8125 282.10417,85.33333 256,85.33333 a 21.33333,21.33333 0 1 1 0,-42.66666 c 60.8125,0 106.66667,91.70833 106.66667,213.33333 0,121.625 -45.85417,213.33333 -106.66667,213.33333 z"
           style="fill:url(#linearGradient139);fill-opacity:1;stroke:none;stroke-opacity:1"
           id="path2" /><path
           d="M 256,362.66667 C 134.375,362.66667 42.66667,316.8125 42.66667,256 h 42.66666 c 0,26.10417 66.47917,64 170.66667,64 104.1875,0 170.66667,-37.89583 170.66667,-64 h 42.66666 c 0,60.8125 -91.70833,106.66667 -213.33333,106.66667 z"
           style="fill:url(#linearGradient143);fill-opacity:1;stroke:none;stroke-opacity:1"
           id="path4" /><path
           d="M 448,277.33333 A 21.32105,21.32105 0 0 1 426.66667,256 C 426.66667,229.89583 360.1875,192 256,192 151.8125,192 85.33333,229.89583 85.33333,256 a 21.33333,21.33333 0 0 1 -42.66666,0 C 42.66667,195.1875 134.375,149.33333 256,149.33333 377.625,149.33333 469.33333,195.1875 469.33333,256 A 21.32105,21.32105 0 0 1 448,277.33333 Z"
           style="fill:url(#linearGradient142);fill-opacity:1;stroke:none;stroke-opacity:1"
           id="path6" /><path
           d="M 256,469.33333 C 195.1875,469.33333 149.33333,377.625 149.33333,256 149.33333,134.375 195.1875,42.66667 256,42.66667 v 42.66666 c -26.10417,0 -64,66.47917 -64,170.66667 0,104.1875 37.89583,170.66667 64,170.66667 z"
           style="fill:url(#linearGradient141);fill-opacity:1;stroke:none;stroke-opacity:1"
           id="path7" /><path
           d="M 256,469.33333 C 138.375,469.33333 42.66667,373.625 42.66667,256 42.66667,138.375 138.375,42.66667 256,42.66667 373.625,42.66667 469.33333,138.375 469.33333,256 469.33333,373.625 373.625,469.33333 256,469.33333 Z m 0,-384 c -94.10417,0 -170.66667,76.5625 -170.66667,170.66667 0,94.10417 76.5625,170.66667 170.66667,170.66667 94.10417,0 170.66667,-76.5625 170.66667,-170.66667 0,-94.10417 -76.5625,-170.66667 -170.66667,-170.66667 z"
           style="fill:url(#linearGradient140);fill-opacity:1;stroke:none;stroke-opacity:1"
           id="path8" /></g></g></g><metadata
     id="metadata1"><rdf:RDF><cc:Work
         rdf:about=""><dc:title>Artboard 156</dc:title></cc:Work></rdf:RDF></metadata></svg>
