<?xml version="1.0" encoding="UTF-8" standalone="no"?>
<svg
   viewBox="0 0 35.741013 40.036179"
   version="1.1"
   id="svg11"
   xml:space="preserve"
   width="35.741013"
   height="40.036179"
   xmlns:xlink="http://www.w3.org/1999/xlink"
   xmlns="http://www.w3.org/2000/svg"
   xmlns:svg="http://www.w3.org/2000/svg"
   xmlns:rdf="http://www.w3.org/1999/02/22-rdf-syntax-ns#"
   xmlns:cc="http://creativecommons.org/ns#"
   xmlns:dc="http://purl.org/dc/elements/1.1/"><defs
     id="defs1"><linearGradient
       id="linearGradient244"><stop
         style="stop-color:#00abff;stop-opacity:0;"
         offset="0"
         id="stop244" /><stop
         style="stop-color:#00abff;stop-opacity:1;"
         offset="1"
         id="stop243" /></linearGradient><linearGradient
       id="linearGradient242"><stop
         style="stop-color:#00abff;stop-opacity:0;"
         offset="0"
         id="stop242" /><stop
         style="stop-color:#00abff;stop-opacity:1;"
         offset="1"
         id="stop241" /></linearGradient><linearGradient
       id="linearGradient240"><stop
         style="stop-color:#00abff;stop-opacity:0;"
         offset="0"
         id="stop240" /><stop
         style="stop-color:#00abff;stop-opacity:1;"
         offset="1"
         id="stop239" /></linearGradient><linearGradient
       id="linearGradient238"><stop
         style="stop-color:#00abff;stop-opacity:0;"
         offset="0"
         id="stop238" /><stop
         style="stop-color:#00abff;stop-opacity:1;"
         offset="1"
         id="stop237" /></linearGradient><linearGradient
       id="linearGradient236"><stop
         style="stop-color:#00abff;stop-opacity:0;"
         offset="0"
         id="stop236" /><stop
         style="stop-color:#00abff;stop-opacity:1;"
         offset="1"
         id="stop235" /></linearGradient><linearGradient
       id="linearGradient234"><stop
         style="stop-color:#00abff;stop-opacity:0;"
         offset="0"
         id="stop234" /><stop
         style="stop-color:#00abff;stop-opacity:1;"
         offset="1"
         id="stop233" /></linearGradient><linearGradient
       id="linearGradient232"><stop
         style="stop-color:#00abff;stop-opacity:0;"
         offset="0"
         id="stop232" /><stop
         style="stop-color:#00abff;stop-opacity:1;"
         offset="1"
         id="stop231" /></linearGradient><linearGradient
       id="linearGradient230"><stop
         style="stop-color:#00abff;stop-opacity:0;"
         offset="0"
         id="stop230" /><stop
         style="stop-color:#00abff;stop-opacity:1;"
         offset="1"
         id="stop229" /></linearGradient><linearGradient
       id="linearGradient228"><stop
         style="stop-color:#00abff;stop-opacity:0;"
         offset="0"
         id="stop228" /><stop
         style="stop-color:#00abff;stop-opacity:1;"
         offset="1"
         id="stop227" /></linearGradient><linearGradient
       id="linearGradient217"><stop
         style="stop-color:#00abff;stop-opacity:0;"
         offset="0"
         id="stop218" /><stop
         style="stop-color:#00abff;stop-opacity:1;"
         offset="1"
         id="stop217" /></linearGradient><linearGradient
       id="linearGradient216"><stop
         style="stop-color:#ff3dfb;stop-opacity:0;"
         offset="0"
         id="stop216" /><stop
         style="stop-color:#ff3dfb;stop-opacity:1;"
         offset="1"
         id="stop215" /></linearGradient><linearGradient
       id="linearGradient214"><stop
         style="stop-color:#ff3dfb;stop-opacity:0;"
         offset="0"
         id="stop214" /><stop
         style="stop-color:#ff3dfb;stop-opacity:1;"
         offset="1"
         id="stop213" /></linearGradient><linearGradient
       id="linearGradient212"><stop
         style="stop-color:#ff3dfb;stop-opacity:0;"
         offset="0"
         id="stop212" /><stop
         style="stop-color:#ff3dfb;stop-opacity:1;"
         offset="1"
         id="stop211" /></linearGradient><linearGradient
       id="linearGradient210"><stop
         style="stop-color:#ff3dfb;stop-opacity:0;"
         offset="0"
         id="stop210" /><stop
         style="stop-color:#ff3dfb;stop-opacity:1;"
         offset="1"
         id="stop209" /></linearGradient><linearGradient
       id="linearGradient204"><stop
         style="stop-color:#ff3dfb;stop-opacity:0;"
         offset="0"
         id="stop205" /><stop
         style="stop-color:#ff3dfb;stop-opacity:1;"
         offset="1"
         id="stop204" /></linearGradient><linearGradient
       id="linearGradient202"><stop
         style="stop-color:#00abff;stop-opacity:0;"
         offset="0"
         id="stop203" /><stop
         style="stop-color:#00abff;stop-opacity:1;"
         offset="1"
         id="stop202" /></linearGradient><style
       id="style1">.cls-1{fill:#424242;}.cls-2{fill:#42a5f5;}</style><linearGradient
       xlink:href="#linearGradient202"
       id="linearGradient203"
       x1="63.60471"
       y1="100.99127"
       x2="63.60471"
       y2="-2.6498444"
       gradientUnits="userSpaceOnUse" /><linearGradient
       xlink:href="#linearGradient204"
       id="linearGradient205"
       x1="64.45076"
       y1="98.453125"
       x2="64.45076"
       y2="-16.186644"
       gradientUnits="userSpaceOnUse" /><linearGradient
       xlink:href="#linearGradient216"
       id="linearGradient206"
       x1="64.45076"
       y1="98.453125"
       x2="64.45076"
       y2="-16.186644"
       gradientUnits="userSpaceOnUse" /><linearGradient
       xlink:href="#linearGradient214"
       id="linearGradient207"
       x1="64.45076"
       y1="98.453125"
       x2="64.45076"
       y2="-16.186644"
       gradientUnits="userSpaceOnUse" /><linearGradient
       xlink:href="#linearGradient212"
       id="linearGradient208"
       x1="64.45076"
       y1="98.453125"
       x2="64.45076"
       y2="-16.186644"
       gradientUnits="userSpaceOnUse" /><linearGradient
       xlink:href="#linearGradient210"
       id="linearGradient209"
       x1="64.45076"
       y1="98.453125"
       x2="64.45076"
       y2="-16.186644"
       gradientUnits="userSpaceOnUse" /><linearGradient
       xlink:href="#linearGradient217"
       id="linearGradient218"
       x1="63.089165"
       y1="173.39122"
       x2="63.089165"
       y2="53.157097"
       gradientUnits="userSpaceOnUse" /><linearGradient
       xlink:href="#linearGradient244"
       id="linearGradient219"
       x1="63.089165"
       y1="173.39122"
       x2="63.089165"
       y2="53.157097"
       gradientUnits="userSpaceOnUse" /><linearGradient
       xlink:href="#linearGradient242"
       id="linearGradient220"
       x1="63.089165"
       y1="173.39122"
       x2="63.089165"
       y2="53.157097"
       gradientUnits="userSpaceOnUse" /><linearGradient
       xlink:href="#linearGradient240"
       id="linearGradient221"
       x1="63.089165"
       y1="173.39122"
       x2="63.089165"
       y2="53.157097"
       gradientUnits="userSpaceOnUse" /><linearGradient
       xlink:href="#linearGradient238"
       id="linearGradient222"
       x1="63.089165"
       y1="173.39122"
       x2="63.089165"
       y2="53.157097"
       gradientUnits="userSpaceOnUse" /><linearGradient
       xlink:href="#linearGradient236"
       id="linearGradient223"
       x1="63.089165"
       y1="173.39122"
       x2="63.089165"
       y2="53.157097"
       gradientUnits="userSpaceOnUse" /><linearGradient
       xlink:href="#linearGradient234"
       id="linearGradient224"
       x1="63.089165"
       y1="173.39122"
       x2="63.089165"
       y2="53.157097"
       gradientUnits="userSpaceOnUse" /><linearGradient
       xlink:href="#linearGradient232"
       id="linearGradient225"
       x1="63.089165"
       y1="173.39122"
       x2="63.089165"
       y2="53.157097"
       gradientUnits="userSpaceOnUse" /><linearGradient
       xlink:href="#linearGradient230"
       id="linearGradient226"
       x1="63.089165"
       y1="173.39122"
       x2="63.089165"
       y2="53.157097"
       gradientUnits="userSpaceOnUse" /><linearGradient
       xlink:href="#linearGradient228"
       id="linearGradient227"
       x1="63.089165"
       y1="173.39122"
       x2="63.089165"
       y2="53.157097"
       gradientUnits="userSpaceOnUse" /><filter
       style="color-interpolation-filters:sRGB"
       id="filter244"
       x="-0.018631563"
       y="-0.049015493"
       width="1.0372631"
       height="1.098031"><feGaussianBlur
         stdDeviation="0.94183356"
         id="feGaussianBlur244" /></filter><filter
       style="color-interpolation-filters:sRGB"
       id="filter245"
       x="-0.11311014"
       y="-0.11311014"
       width="1.2262203"
       height="1.2262203"><feGaussianBlur
         stdDeviation="0.94183356"
         id="feGaussianBlur245" /></filter><filter
       style="color-interpolation-filters:sRGB"
       id="filter246"
       x="-0.11311013"
       y="-0.11311014"
       width="1.2262203"
       height="1.2262203"><feGaussianBlur
         stdDeviation="0.94183356"
         id="feGaussianBlur246" /></filter><filter
       style="color-interpolation-filters:sRGB"
       id="filter247"
       x="-0.11311014"
       y="-0.11311014"
       width="1.2262203"
       height="1.2262203"><feGaussianBlur
         stdDeviation="0.94183356"
         id="feGaussianBlur247" /></filter><filter
       style="color-interpolation-filters:sRGB"
       id="filter248"
       x="-0.11311014"
       y="-0.11311014"
       width="1.2262203"
       height="1.2262203"><feGaussianBlur
         stdDeviation="0.94183356"
         id="feGaussianBlur248" /></filter><filter
       style="color-interpolation-filters:sRGB"
       id="filter249"
       x="-0.11311014"
       y="-0.11311014"
       width="1.2262203"
       height="1.2262203"><feGaussianBlur
         stdDeviation="0.94183356"
         id="feGaussianBlur249" /></filter><filter
       style="color-interpolation-filters:sRGB"
       id="filter250"
       x="-0.44474183"
       y="-0.28458451"
       width="1.8894837"
       height="1.569169"><feGaussianBlur
         stdDeviation="1.1830077"
         id="feGaussianBlur250" /></filter><filter
       style="color-interpolation-filters:sRGB"
       id="filter251"
       x="-0.44474183"
       y="-0.28458451"
       width="1.8894837"
       height="1.569169"><feGaussianBlur
         stdDeviation="1.1830077"
         id="feGaussianBlur251" /></filter><filter
       style="color-interpolation-filters:sRGB"
       id="filter252"
       x="-0.28458436"
       y="-0.44513588"
       width="1.5691687"
       height="1.8902718"><feGaussianBlur
         stdDeviation="1.1830077"
         id="feGaussianBlur252" /></filter><filter
       style="color-interpolation-filters:sRGB"
       id="filter253"
       x="-0.28458454"
       y="-0.44523198"
       width="1.5691691"
       height="1.890464"><feGaussianBlur
         stdDeviation="1.1830077"
         id="feGaussianBlur253" /></filter><filter
       style="color-interpolation-filters:sRGB"
       id="filter254"
       x="-0.44474169"
       y="-0.28438412"
       width="1.8894834"
       height="1.5687682"><feGaussianBlur
         stdDeviation="1.1830077"
         id="feGaussianBlur254" /></filter><filter
       style="color-interpolation-filters:sRGB"
       id="filter255"
       x="-0.44523415"
       y="-0.26103851"
       width="1.8904683"
       height="1.522077"><feGaussianBlur
         stdDeviation="1.1830077"
         id="feGaussianBlur255" /></filter><filter
       style="color-interpolation-filters:sRGB"
       id="filter256"
       x="-0.02332821"
       y="-0.032070016"
       width="1.0466564"
       height="1.06414"><feGaussianBlur
         stdDeviation="1.1830077"
         id="feGaussianBlur256" /></filter><filter
       style="color-interpolation-filters:sRGB"
       id="filter257"
       x="-0.28458454"
       y="-0.44523198"
       width="1.5691691"
       height="1.890464"><feGaussianBlur
         stdDeviation="1.1830077"
         id="feGaussianBlur257" /></filter><filter
       style="color-interpolation-filters:sRGB"
       id="filter258"
       x="-0.44474169"
       y="-0.28438409"
       width="1.8894834"
       height="1.5687682"><feGaussianBlur
         stdDeviation="1.1830077"
         id="feGaussianBlur258" /></filter><filter
       style="color-interpolation-filters:sRGB"
       id="filter259"
       x="-0.28438426"
       y="-0.44513588"
       width="1.5687685"
       height="1.8902718"><feGaussianBlur
         stdDeviation="1.1830077"
         id="feGaussianBlur259" /></filter></defs><title
     id="title1">password</title><metadata
     id="metadata11"><rdf:RDF><cc:Work
         rdf:about=""><dc:title>password</dc:title></cc:Work></rdf:RDF></metadata><g
     id="g259"
     transform="translate(-6.150978,-5.547216)"><g
       id="g15"
       transform="matrix(0.27779529,0,0,0.27779529,6.2629519,0.85213344)"
       style="display:inline;stroke:#000000;stroke-width:2.87982;stroke-dasharray:none;stroke-opacity:1"><g
         id="g14"
         style="fill:#00abff;fill-opacity:1;stroke:#00abff;stroke-width:2.87982;stroke-dasharray:none;stroke-opacity:1"><g
           id="path6"><path
             id="path184"
             style="opacity:0.6;fill:#00abff;fill-opacity:1;stroke:none;stroke-width:2.87982;stroke-dasharray:none;stroke-opacity:1;filter:url(#filter250)"
             d="m 114.39382,31.010833 c -0.75748,0 -1.53346,0.245949 -2.15846,0.801512 -0.62501,0.555563 -1.03354,1.440133 -1.03353,2.383444 v 3.606804 c 0.004,1.741957 1.45003,3.18496 3.19199,3.184955 1.74387,-9.96e-4 3.19099,-1.448113 3.19198,-3.191986 v -3.599773 c 0,-0.943311 -0.40851,-1.827881 -1.03352,-2.383444 -0.62501,-0.555563 -1.40098,-0.801512 -2.15846,-0.801512 z" /><path
             id="path178"
             style="opacity:0.6;fill:#00abff;fill-opacity:1;stroke:none;stroke-width:2.87982;stroke-dasharray:none;stroke-opacity:1;filter:url(#filter259)"
             d="m 117.92328,38.308811 c -0.87705,0.04692 -1.69386,0.440552 -2.2147,1.026498 -0.55557,0.625008 -0.80151,1.400977 -0.80151,2.158457 0,0.757479 0.24594,1.540481 0.80151,2.165489 0.55556,0.625008 1.44716,1.026497 2.39047,1.026497 h 3.59978 c 0.94331,0 1.83491,-0.401489 2.39047,-1.026497 0.55556,-0.625008 0.80151,-1.40801 0.80151,-2.165489 -1e-5,-0.75748 -0.24595,-1.533449 -0.80151,-2.158457 -0.55556,-0.625009 -1.44716,-1.026498 -2.39047,-1.026498 h -3.59978 c -0.059,0 -0.1173,-0.0031 -0.17577,0 z" /><path
             id="path176"
             style="opacity:0.6;fill:#00abff;fill-opacity:1;stroke:none;stroke-width:2.87982;stroke-dasharray:none;stroke-opacity:1;filter:url(#filter258)"
             d="m 13.607203,57.981008 c -0.75748,0 -1.53345,0.24595 -2.158458,0.801512 -0.625009,0.555563 -1.033528,1.447164 -1.033528,2.390474 v 3.599773 c 0,1.744684 1.447303,3.191987 3.191986,3.191987 1.744683,0 3.191986,-1.447303 3.191986,-3.191987 v -3.599773 c 0,-0.94331 -0.408521,-1.834911 -1.033529,-2.390474 -0.625008,-0.555562 -1.400978,-0.801512 -2.158457,-0.801512 z" /><path
             id="path172"
             style="opacity:0.6;fill:#00abff;fill-opacity:1;stroke:none;stroke-width:2.87982;stroke-dasharray:none;stroke-opacity:1;filter:url(#filter257)"
             d="m 6.3021946,65.286016 c -0.9433105,0 -1.8349117,0.40149 -2.3904743,1.026498 -0.5555627,0.625008 -0.801512,1.408009 -0.801512,2.165488 0,0.75748 0.2459493,1.533449 0.801512,2.158458 0.5555626,0.625008 1.4471638,1.026499 2.3904743,1.026498 h 0.00703 3.5927423 c 0.9433101,0 1.8349111,-0.40149 2.3904741,-1.026498 0.555562,-0.625009 0.794481,-1.400978 0.794481,-2.158458 0,-0.757479 -0.238919,-1.54048 -0.794481,-2.165488 -0.555564,-0.625008 -1.447164,-1.026498 -2.3904741,-1.026498 z" /><path
             id="path168"
             style="opacity:0.6;fill:#00abff;fill-opacity:1;stroke:none;stroke-width:2.87982;stroke-dasharray:none;stroke-opacity:1;filter:url(#filter256)"
             d="m 63.996995,19.74045 c -16.047976,0 -26.115217,2.479477 -30.752749,3.986468 -2.95856,0.958277 -4.965582,3.730974 -4.956719,6.840974 v 12.071896 c 0,0.943311 0.40149,1.834911 1.026498,2.390474 0.625008,0.555562 1.400979,0.801512 2.158458,0.801512 0.75748,0 1.540479,-0.245949 2.165488,-0.801512 0.625008,-0.555563 1.026499,-1.447163 1.026498,-2.390474 v -12.078926 -0.007 c -0.0014,-0.353078 0.219638,-0.650204 0.555434,-0.759327 4.154743,-1.35273 13.508883,-3.670081 28.777092,-3.670081 15.268022,0 24.627572,2.319685 28.784123,3.670081 0.335977,0.109303 0.556678,0.40602 0.555433,0.759327 v 0.007 44.406575 c -3.561801,1.239283 -12.962866,3.895067 -29.339556,3.895067 -16.375847,0 -25.773613,-2.656566 -29.332526,-3.895067 v -8.936155 c 0,-0.94331 -0.40149,-1.827881 -1.026498,-2.383444 -0.625009,-0.555562 -1.408008,-0.801512 -2.165488,-0.801512 -0.757479,0 -1.53345,0.24595 -2.158458,0.801512 -0.625008,0.555563 -1.026498,1.440134 -1.026498,2.383444 v 17.921526 c -10.687365,0.07767 -17.858236,3.173535 -22.0064248,6.060556 -4.1905683,2.890888 -4.1905683,9.195064 0,12.085956 7.7015398,5.36124 25.3774218,11.62568 57.7018308,-2.580306 4.798175,2.132856 9.726151,3.966696 14.757664,5.469966 0.911486,0.28148 1.889937,0.15613 2.608429,-0.28826 0.718492,-0.44439 1.177864,-1.13035 1.3921,-1.86316 0.214237,-0.73281 0.197231,-1.55171 -0.16874,-2.31314 -0.362216,-0.753627 -1.111016,-1.386196 -2.017841,-1.645209 l -0.02812,-0.007 c -2.702092,-0.803408 -5.325543,-1.843692 -7.958873,-2.847477 9.515828,-3.62469 17.45558,-5.343705 23.848497,-5.723076 -0.105615,0.0033 -0.157707,0.007 0.105462,0.007 0.145814,-2.12e-4 0.291439,-0.02232 0.43591,-0.04218 10.847239,-0.531681 17.448299,2.438187 21.106479,4.984842 h 0.007 l 0.007,0.007 c 0.60158,0.410755 0.60158,1.18524 0,1.595994 h -0.007 l -0.007,0.007 c -3.83112,2.666303 -12.71713,6.926506 -28.86849,4.063816 -0.928946,-0.16456 -1.874982,0.0791 -2.53109,0.59761 -0.656107,0.51854 -1.034897,1.24381 -1.167114,1.98972 -0.132217,0.74591 -0.02317,1.55147 0.414817,2.26392 0.43799,0.71246 1.243574,1.2627 2.17252,1.42726 3.768736,0.68777 7.587096,1.04847 11.41803,1.06868 h 0.007 c 10.622857,0 17.773407,-3.09482 22.196257,-6.17305 4.18276,-2.890001 4.1855,-9.17992 0.0141,-12.078931 h -0.007 c -4.15213,-2.89003 -11.32609,-6.005508 -21.999437,-6.081592 v -53.370855 -0.007 c 0.0065,-3.108698 -1.99883,-5.876279 -4.956719,-6.833944 C 90.117669,22.220086 80.044971,19.74045 63.996995,19.74045 Z M 34.664469,81.653734 c 5.082028,1.522196 14.496727,3.592743 29.332526,3.592743 14.835259,0 24.255554,-2.060104 29.339556,-3.585712 v 2.559214 c -8.184613,0.826376 -18.04837,3.33089 -29.944206,8.6268 -15.983207,-0.06903 -25.208789,-2.65826 -28.727876,-3.881006 z m -6.376942,8.668985 v 0.878851 c 0,0.260524 0.02099,0.324966 0.01406,0.189832 0.0055,0.117605 0.01578,0.235563 0.03515,0.35154 v 0.01406 0.007 c 0.02621,0.144157 0.05654,0.238681 0.07031,0.288264 0.01377,0.04958 0.04529,0.157501 0.105462,0.309355 0.05777,0.145814 0.09642,0.219925 0.105462,0.239047 0.04263,0.09017 0.106009,0.208371 0.17577,0.316387 0.07056,0.10925 0.131295,0.185356 0.161709,0.224986 0.03837,0.05 0.09993,0.136699 0.210924,0.253109 0.109119,0.114443 0.187407,0.181297 0.196863,0.189831 0.05642,0.05092 0.141743,0.12208 0.26717,0.210925 l 0.007,0.007 c 0.09198,0.06427 0.190182,0.128289 0.288263,0.182801 h 0.007 c -0.117133,-0.06359 -0.08186,-0.03631 0.119524,0.07031 l 0.02812,0.01406 0.02812,0.01406 c 0.46618,0.220692 6.742479,2.831143 18.849593,4.239576 -21.908985,6.803117 -33.688743,2.250737 -39.0280081,-1.469438 h -0.00703 l -0.00703,-0.007 c -0.6004235,-0.408368 -0.6004235,-1.180595 0,-1.588963 h 0.00703 l 0.00703,-0.007 c 3.2899911,-2.287857 9.1502651,-4.8611 18.3574361,-4.928596 z" /><path
             id="path166"
             style="opacity:0.6;fill:#00abff;fill-opacity:1;stroke:none;stroke-width:2.87982;stroke-dasharray:none;stroke-opacity:1;filter:url(#filter255)"
             d="m 31.472483,49.10813 c -0.757479,0 -1.53345,0.24595 -2.158458,0.801512 -0.625008,0.555563 -1.026498,1.447164 -1.026498,2.390474 v 4.499716 0.007 c 0.005,1.741275 1.443675,3.177932 3.184956,3.177925 h 0.007 c 1.743873,-9.96e-4 3.18396,-1.448113 3.184955,-3.191986 v -4.492686 c 0,-0.94331 -0.40149,-1.834911 -1.026498,-2.390474 C 33.012962,49.35408 32.229963,49.10813 31.472483,49.10813 Z" /><path
             id="path174"
             style="opacity:0.6;fill:#00abff;fill-opacity:1;stroke:none;stroke-width:2.87982;stroke-dasharray:none;stroke-opacity:1;filter:url(#filter254)"
             d="m 13.607203,68.984221 c -0.75748,0 -1.53345,0.24595 -2.158458,0.801512 -0.625009,0.555563 -1.033528,1.447164 -1.033528,2.390474 v 3.599773 c 0,1.744684 1.447303,3.191986 3.191986,3.191986 1.744683,0 3.191986,-1.447302 3.191986,-3.191986 v -3.599773 c 0,-0.94331 -0.408521,-1.834911 -1.033529,-2.390474 -0.625008,-0.555562 -1.400978,-0.801512 -2.158457,-0.801512 z" /><path
             id="path170"
             style="opacity:0.6;fill:#00abff;fill-opacity:1;stroke:none;stroke-width:2.87982;stroke-dasharray:none;stroke-opacity:1;filter:url(#filter253)"
             d="m 17.305407,65.286016 c -0.943311,0 -1.834912,0.40149 -2.390474,1.026498 -0.555563,0.625008 -0.794481,1.408009 -0.794481,2.165488 -1e-6,0.75748 0.238918,1.533449 0.794481,2.158458 0.555562,0.625008 1.447163,1.026498 2.390474,1.026498 h 3.599773 c 0.943311,0 1.834912,-0.40149 2.390475,-1.026498 0.555563,-0.625009 0.801511,-1.400978 0.801511,-2.158458 0,-0.757479 -0.245948,-1.54048 -0.801511,-2.165488 -0.555563,-0.625008 -1.447164,-1.026498 -2.390475,-1.026498 z" /><path
             id="path180"
             style="opacity:0.6;fill:#00abff;fill-opacity:1;stroke:none;stroke-width:2.87982;stroke-dasharray:none;stroke-opacity:1;filter:url(#filter252)"
             d="m 106.92007,38.308811 c -0.87705,0.04692 -1.68684,0.440552 -2.20767,1.026498 -0.55557,0.625008 -0.80152,1.400977 -0.80152,2.158457 0,0.757479 0.24595,1.540481 0.80152,2.165489 0.55556,0.625008 1.44716,1.026497 2.39047,1.026497 h 3.59977 c 0.94331,0 1.82789,-0.401489 2.38345,-1.026497 0.55556,-0.625008 0.80151,-1.40801 0.80151,-2.165489 -1e-5,-0.75748 -0.24595,-1.533449 -0.80151,-2.158457 -0.55556,-0.625009 -1.44014,-1.026498 -2.38345,-1.026498 h -3.59977 c -0.059,0 -0.12433,-0.0031 -0.1828,0 z" /><path
             id="path182"
             style="opacity:0.6;stroke:none;filter:url(#filter251)"
             d="m 114.39382,42.007015 c -0.75748,0 -1.53346,0.245949 -2.15846,0.801512 -0.62501,0.555563 -1.03353,1.447163 -1.03353,2.390474 v 3.599773 0.007 c 0.004,1.741957 1.45003,3.17793 3.19199,3.177925 1.74387,-9.96e-4 3.19099,-1.441083 3.19198,-3.184956 V 45.19897 c 0,-0.943311 -0.40851,-1.834911 -1.03352,-2.390474 -0.62501,-0.555563 -1.40098,-0.801512 -2.15846,-0.801512 z" /></g></g></g><g
       id="g11"
       transform="matrix(0.28401533,0,0,0.28401533,5.8442568,20.21618)"
       style="display:inline;stroke:#000000;stroke-width:2.81675;stroke-dasharray:none;stroke-opacity:1"><g
         id="path1"><path
           id="path163"
           style="opacity:0.6;fill:#ff3dfb;stroke:none;stroke-width:2.81675;stroke-dasharray:none;stroke-opacity:1;filter:url(#filter249)"
           d="m 21.44017,54.005914 c -0.750472,1e-6 -1.520187,0.247929 -2.138694,0.797712 -0.495749,0.440666 -0.785933,1.112675 -0.907741,1.836114 -0.597608,-0.425013 -1.284268,-0.692319 -1.946143,-0.653299 -0.826066,0.0487 -1.539277,0.418353 -2.069926,0.949002 -0.530649,0.530649 -0.907277,1.243809 -0.955879,2.069926 -0.03897,0.662415 0.234355,1.348357 0.660175,1.946143 -0.723343,0.121846 -1.402373,0.412047 -1.84299,0.907741 -0.549784,0.618507 -0.790835,1.395099 -0.790835,2.145571 0,0.750472 0.241051,1.520188 0.790835,2.138694 0.440617,0.495694 1.119647,0.785896 1.84299,0.907742 -0.425875,0.597798 -0.699058,1.276794 -0.660175,1.939266 0.04849,0.826191 0.425169,1.546092 0.955879,2.076802 0.53071,0.53071 1.243788,0.900413 2.069926,0.949003 0.661933,0.03893 1.348523,-0.228231 1.946143,-0.653299 0.121808,0.723439 0.411992,1.395447 0.907741,1.836113 0.618507,0.549783 1.388222,0.790836 2.138694,0.790836 0.750472,0 1.520188,-0.241053 2.138694,-0.790836 0.496621,-0.441441 0.786545,-1.118031 0.907741,-1.84299 0.597978,0.426297 1.283344,0.699079 1.946143,0.660176 0.82619,-0.04849 1.539216,-0.418293 2.069926,-0.949003 0.53071,-0.53071 0.907289,-1.250663 0.955879,-2.076802 0.03893,-0.661933 -0.235107,-1.341646 -0.660175,-1.939266 0.723439,-0.121808 1.402324,-0.41887 1.84299,-0.914619 0.549783,-0.618507 0.790835,-1.388222 0.790835,-2.138694 0,-0.750472 -0.241052,-1.520187 -0.790835,-2.138694 -0.441053,-0.496185 -1.118791,-0.786238 -1.84299,-0.907741 0.426297,-0.597978 0.699078,-1.283344 0.660175,-1.946143 -0.04849,-0.82619 -0.425169,-1.539216 -0.955879,-2.069926 -0.53071,-0.53071 -1.243788,-0.907289 -2.069926,-0.955879 -0.662757,-0.03898 -1.348067,0.234042 -1.946143,0.660176 -0.121808,-0.723439 -0.411992,-1.395448 -0.907741,-1.836114 -0.618506,-0.549783 -1.388222,-0.797712 -2.138694,-0.797712 z" /><path
           id="path161"
           style="opacity:0.6;fill:#ff3dfb;stroke:none;stroke-width:2.81675;stroke-dasharray:none;stroke-opacity:1;filter:url(#filter248)"
           d="m 42.723957,54.005914 c -0.750472,0 -1.520187,0.247929 -2.138694,0.797712 -0.495749,0.440666 -0.79281,1.112675 -0.914618,1.836114 -0.598064,-0.426078 -1.283444,-0.699244 -1.946143,-0.660176 -0.826065,0.0487 -1.539276,0.42523 -2.069925,0.955879 -0.530649,0.530649 -0.900401,1.243809 -0.949003,2.069926 -0.03899,0.662741 0.227058,1.348177 0.653299,1.946143 -0.723898,0.121623 -1.395214,0.411728 -1.836114,0.907741 -0.549783,0.618507 -0.790835,1.388222 -0.790835,2.138694 0,0.750472 0.241052,1.520187 0.790835,2.138694 0.441676,0.496885 1.117571,0.793609 1.842991,0.914619 -0.425875,0.597798 -0.699059,1.276794 -0.660176,1.939266 0.04849,0.826191 0.425169,1.546092 0.955879,2.076802 0.53071,0.53071 1.243788,0.900413 2.069926,0.949003 0.662757,0.03898 1.348068,-0.234042 1.946143,-0.660176 0.121808,0.723439 0.411992,1.402324 0.907741,1.84299 0.618507,0.549783 1.388222,0.790836 2.138694,0.790836 0.750472,0 1.520188,-0.241053 2.138694,-0.790836 0.49575,-0.440666 0.785935,-1.119551 0.907742,-1.84299 0.598064,0.426078 1.283443,0.699244 1.946142,0.660176 0.826066,-0.0487 1.546153,-0.418354 2.076803,-0.949003 0.530649,-0.530649 0.900401,-1.250684 0.949002,-2.076802 0.03902,-0.663238 -0.233288,-1.347903 -0.660175,-1.946143 0.722217,-0.122297 1.39607,-0.412693 1.836113,-0.907742 0.549783,-0.618507 0.797713,-1.388222 0.797713,-2.138694 0,-0.750472 -0.24793,-1.520187 -0.797713,-2.138694 -0.441288,-0.496449 -1.118331,-0.786424 -1.84299,-0.907741 0.426078,-0.598064 0.699244,-1.283444 0.660176,-1.946143 -0.0487,-0.826065 -0.418354,-1.539277 -0.949003,-2.069926 -0.530649,-0.530649 -1.250685,-0.907277 -2.076802,-0.955879 -0.662415,-0.03897 -1.34148,0.234356 -1.939266,0.660176 -0.12215,-0.722583 -0.412483,-1.395884 -0.907742,-1.836114 -0.618506,-0.549783 -1.388222,-0.797712 -2.138694,-0.797712 z" /><path
           id="path159"
           style="opacity:0.6;fill:#ff3dfb;stroke:none;stroke-width:2.81675;stroke-dasharray:none;stroke-opacity:1;filter:url(#filter247)"
           d="m 64.000868,54.005914 c -0.750472,0 -1.520187,0.247929 -2.138694,0.797712 -0.495749,0.440666 -0.785934,1.112675 -0.907742,1.836114 -0.598064,-0.426078 -1.283443,-0.699244 -1.946142,-0.660176 -0.826065,0.0487 -1.546154,0.42523 -2.076803,0.955879 -0.530649,0.530649 -0.9004,1.243809 -0.949002,2.069926 -0.03899,0.662741 0.233934,1.348177 0.660175,1.946143 -0.723439,0.121808 -1.402324,0.411992 -1.84299,0.907741 -0.549783,0.618507 -0.790836,1.388222 -0.790836,2.138694 0,0.750472 0.241053,1.520187 0.790836,2.138694 0.441054,0.496185 1.118791,0.793116 1.84299,0.914619 -0.426297,0.597978 -0.699078,1.276468 -0.660175,1.939266 0.04849,0.826191 0.425169,1.546092 0.955879,2.076802 0.53071,0.53071 1.243788,0.900413 2.069926,0.949003 0.662432,0.03896 1.348246,-0.227587 1.946142,-0.653299 0.12215,0.722583 0.412483,1.395883 0.907742,1.836113 0.618507,0.549783 1.388222,0.790836 2.138694,0.790836 0.750472,0 1.520188,-0.241053 2.138694,-0.790836 0.495259,-0.44023 0.785591,-1.11353 0.907741,-1.836113 0.597884,0.425657 1.283769,0.692348 1.946143,0.653299 0.826065,-0.0487 1.539277,-0.418354 2.069926,-0.949003 0.530649,-0.530649 0.907277,-1.250684 0.955879,-2.076802 0.03899,-0.66274 -0.233935,-1.3413 -0.660176,-1.939266 0.723439,-0.121808 1.395448,-0.41887 1.836114,-0.914619 0.549783,-0.618507 0.797712,-1.388222 0.797712,-2.138694 0,-0.750472 -0.247929,-1.520187 -0.797712,-2.138694 -0.440666,-0.495749 -1.112675,-0.785933 -1.836114,-0.907741 0.426078,-0.598064 0.699244,-1.283444 0.660176,-1.946143 -0.0487,-0.826065 -0.42523,-1.539277 -0.955879,-2.069926 -0.530649,-0.530649 -1.243808,-0.907277 -2.069926,-0.955879 -0.66274,-0.03899 -1.348177,0.233935 -1.946143,0.660176 -0.121808,-0.723439 -0.411992,-1.395448 -0.907741,-1.836114 -0.618507,-0.549783 -1.388222,-0.797712 -2.138694,-0.797712 z" /><path
           id="path155"
           style="opacity:0.6;fill:#ff3dfb;stroke:none;stroke-width:2.81675;stroke-dasharray:none;stroke-opacity:1;filter:url(#filter246)"
           d="m 106.56157,54.005914 c -0.75048,0 -1.5202,0.247929 -2.1387,0.797712 -0.49575,0.440666 -0.78593,1.112675 -0.90774,1.836114 -0.59807,-0.426078 -1.28344,-0.699244 -1.94614,-0.660176 -0.82607,0.0487 -1.54616,0.42523 -2.076805,0.955879 -0.53065,0.530649 -0.900402,1.243809 -0.949003,2.069926 -0.03899,0.662741 0.233934,1.348177 0.660176,1.946143 -0.723898,0.121623 -1.40209,0.411728 -1.84299,0.907741 -0.549783,0.618507 -0.790836,1.388222 -0.790836,2.138694 0,0.750472 0.241053,1.520187 0.790836,2.138694 0.4409,0.496013 1.119092,0.792996 1.84299,0.914619 -0.426297,0.597978 -0.699079,1.276468 -0.660176,1.939266 0.04849,0.826191 0.418293,1.546092 0.949003,2.076802 0.530705,0.53071 1.250665,0.900413 2.076805,0.949003 0.66275,0.03898 1.34806,-0.234042 1.94614,-0.660176 0.12181,0.723439 0.41199,1.402324 0.90774,1.84299 0.6185,0.549783 1.38822,0.790836 2.1387,0.790836 0.75047,0 1.52018,-0.241053 2.13869,-0.790836 0.49575,-0.440666 0.78593,-1.119551 0.90774,-1.84299 0.59806,0.426078 1.28345,0.699244 1.94614,0.660176 0.82607,-0.0487 1.53928,-0.418354 2.06993,-0.949003 0.53065,-0.530649 0.90727,-1.250684 0.95588,-2.076802 0.039,-0.66274 -0.23394,-1.3413 -0.66018,-1.939266 0.7242,-0.121503 1.39507,-0.418434 1.83612,-0.914619 0.54979,-0.618507 0.79771,-1.388222 0.79771,-2.138694 0,-0.750472 -0.24792,-1.520187 -0.79771,-2.138694 -0.44066,-0.495749 -1.11268,-0.785933 -1.83612,-0.907741 0.42591,-0.597993 0.69236,-1.283573 0.6533,-1.946143 -0.0487,-0.826065 -0.41835,-1.539277 -0.949,-2.069926 -0.53065,-0.530649 -1.24381,-0.907277 -2.06993,-0.955879 -0.66241,-0.03897 -1.34835,0.234356 -1.94614,0.660176 -0.12217,-0.72252 -0.41252,-1.395916 -0.90774,-1.836114 -0.61851,-0.549783 -1.38822,-0.797712 -2.13869,-0.797712 z" /><path
           id="path157"
           style="opacity:0.6;fill:#ff3dfb;stroke:none;stroke-width:2.81675;stroke-dasharray:none;stroke-opacity:1;filter:url(#filter245)"
           d="m 85.277778,54.005914 c -0.750472,0 -1.520188,0.247929 -2.138694,0.797712 -0.496185,0.441054 -0.793115,1.111915 -0.914618,1.836114 -0.598063,-0.426078 -1.276567,-0.692367 -1.939266,-0.653299 -0.826066,0.0487 -1.546152,0.418353 -2.076802,0.949002 -0.530649,0.530649 -0.900401,1.243809 -0.949003,2.069926 -0.03899,0.662741 0.233934,1.348177 0.660176,1.946143 -0.723041,0.121967 -1.395651,0.41222 -1.836114,0.907741 -0.549783,0.618507 -0.797712,1.395099 -0.797712,2.145571 0,0.750472 0.247929,1.520188 0.797712,2.138694 0.440851,0.495957 1.112312,0.78608 1.836114,0.907742 -0.425875,0.597798 -0.69906,1.276794 -0.660176,1.939266 0.04849,0.826191 0.425169,1.546092 0.955879,2.076802 0.53071,0.53071 1.243788,0.900413 2.069926,0.949003 0.662131,0.03894 1.348413,-0.227975 1.946143,-0.653299 0.121808,0.723439 0.411992,1.395447 0.907741,1.836113 0.618506,0.549783 1.388222,0.790836 2.138694,0.790836 0.750472,0 1.520187,-0.241053 2.138694,-0.790836 0.496621,-0.441441 0.793422,-1.118031 0.914619,-1.84299 0.598064,0.426078 1.276567,0.699244 1.939265,0.660176 0.826066,-0.0487 1.546154,-0.418354 2.076803,-0.949003 0.530649,-0.530649 0.9004,-1.250684 0.949002,-2.076802 0.03898,-0.662611 -0.234101,-1.348248 -0.660175,-1.946143 0.722216,-0.122297 1.39607,-0.412693 1.836113,-0.907742 0.549784,-0.618507 0.797712,-1.388222 0.797712,-2.138694 0,-0.750472 -0.247928,-1.520187 -0.797712,-2.138694 -0.4409,-0.496013 -1.112215,-0.786118 -1.836113,-0.907741 0.425911,-0.597993 0.699235,-1.283573 0.660175,-1.946143 -0.0487,-0.826065 -0.42523,-1.539277 -0.955879,-2.069926 -0.530649,-0.530649 -1.243808,-0.907277 -2.069926,-0.955879 -0.662115,-0.03895 -1.348522,0.234745 -1.946142,0.660176 -0.122112,-0.722679 -0.412428,-1.395835 -0.907742,-1.836114 -0.618506,-0.549783 -1.388222,-0.797711 -2.138694,-0.797712 z" /><path
           id="path165"
           style="opacity:0.6;fill:#00abff;stroke:none;filter:url(#filter244)"
           d="m 6.4968195,40.939938 c -1.7303441,-5e-6 -3.1604199,1.433002 -3.1564648,3.163342 v 39.796212 c 0,1.72764 1.4288243,3.156465 3.1564648,3.156465 H 121.49804 c 1.72764,0 3.16334,-1.428825 3.16334,-3.156465 V 44.10328 44.09638 c 0.002,-1.728561 -1.43432,-3.15647 -3.16334,-3.156465 z M 9.660161,47.252867 H 118.34157 v 33.49016 H 9.660161 Z" /></g></g><g
       id="g196"
       transform="matrix(0.27779529,0,0,0.27779529,6.2629519,0.85213344)"
       style="stroke:#000000;stroke-width:2.87982;stroke-dasharray:none;stroke-opacity:1"><g
         id="g195"
         style="fill:#00abff;fill-opacity:1;stroke:#00abff;stroke-width:2.87982;stroke-dasharray:none;stroke-opacity:1"><g
           id="g194"><path
             id="path185"
             style="fill:url(#linearGradient227);fill-opacity:1;stroke:none;stroke-width:2.87982;stroke-dasharray:none;stroke-opacity:1"
             d="m 114.39382,31.010833 c -0.75748,0 -1.53346,0.245949 -2.15846,0.801512 -0.62501,0.555563 -1.03354,1.440133 -1.03353,2.383444 v 3.606804 c 0.004,1.741957 1.45003,3.18496 3.19199,3.184955 1.74387,-9.96e-4 3.19099,-1.448113 3.19198,-3.191986 v -3.599773 c 0,-0.943311 -0.40851,-1.827881 -1.03352,-2.383444 -0.62501,-0.555563 -1.40098,-0.801512 -2.15846,-0.801512 z" /><path
             id="path186"
             style="fill:url(#linearGradient226);fill-opacity:1;stroke:none;stroke-width:2.87982;stroke-dasharray:none;stroke-opacity:1"
             d="m 117.92328,38.308811 c -0.87705,0.04692 -1.69386,0.440552 -2.2147,1.026498 -0.55557,0.625008 -0.80151,1.400977 -0.80151,2.158457 0,0.757479 0.24594,1.540481 0.80151,2.165489 0.55556,0.625008 1.44716,1.026497 2.39047,1.026497 h 3.59978 c 0.94331,0 1.83491,-0.401489 2.39047,-1.026497 0.55556,-0.625008 0.80151,-1.40801 0.80151,-2.165489 -1e-5,-0.75748 -0.24595,-1.533449 -0.80151,-2.158457 -0.55556,-0.625009 -1.44716,-1.026498 -2.39047,-1.026498 h -3.59978 c -0.059,0 -0.1173,-0.0031 -0.17577,0 z" /><path
             id="path187"
             style="fill:url(#linearGradient225);fill-opacity:1;stroke:none;stroke-width:2.87982;stroke-dasharray:none;stroke-opacity:1"
             d="m 13.607203,57.981008 c -0.75748,0 -1.53345,0.24595 -2.158458,0.801512 -0.625009,0.555563 -1.033528,1.447164 -1.033528,2.390474 v 3.599773 c 0,1.744684 1.447303,3.191987 3.191986,3.191987 1.744683,0 3.191986,-1.447303 3.191986,-3.191987 v -3.599773 c 0,-0.94331 -0.408521,-1.834911 -1.033529,-2.390474 -0.625008,-0.555562 -1.400978,-0.801512 -2.158457,-0.801512 z" /><path
             id="path188"
             style="fill:url(#linearGradient224);fill-opacity:1;stroke:none;stroke-width:2.87982;stroke-dasharray:none;stroke-opacity:1"
             d="m 6.3021946,65.286016 c -0.9433105,0 -1.8349117,0.40149 -2.3904743,1.026498 -0.5555627,0.625008 -0.801512,1.408009 -0.801512,2.165488 0,0.75748 0.2459493,1.533449 0.801512,2.158458 0.5555626,0.625008 1.4471638,1.026499 2.3904743,1.026498 h 0.00703 3.5927423 c 0.9433101,0 1.8349111,-0.40149 2.3904741,-1.026498 0.555562,-0.625009 0.794481,-1.400978 0.794481,-2.158458 0,-0.757479 -0.238919,-1.54048 -0.794481,-2.165488 -0.555564,-0.625008 -1.447164,-1.026498 -2.3904741,-1.026498 z" /><path
             id="path189"
             style="fill:url(#linearGradient223);fill-opacity:1;stroke:none;stroke-width:2.87982;stroke-dasharray:none;stroke-opacity:1"
             d="m 63.996995,19.74045 c -16.047976,0 -26.115217,2.479477 -30.752749,3.986468 -2.95856,0.958277 -4.965582,3.730974 -4.956719,6.840974 v 12.071896 c 0,0.943311 0.40149,1.834911 1.026498,2.390474 0.625008,0.555562 1.400979,0.801512 2.158458,0.801512 0.75748,0 1.540479,-0.245949 2.165488,-0.801512 0.625008,-0.555563 1.026499,-1.447163 1.026498,-2.390474 v -12.078926 -0.007 c -0.0014,-0.353078 0.219638,-0.650204 0.555434,-0.759327 4.154743,-1.35273 13.508883,-3.670081 28.777092,-3.670081 15.268022,0 24.627572,2.319685 28.784123,3.670081 0.335977,0.109303 0.556678,0.40602 0.555433,0.759327 v 0.007 44.406575 c -3.561801,1.239283 -12.962866,3.895067 -29.339556,3.895067 -16.375847,0 -25.773613,-2.656566 -29.332526,-3.895067 v -8.936155 c 0,-0.94331 -0.40149,-1.827881 -1.026498,-2.383444 -0.625009,-0.555562 -1.408008,-0.801512 -2.165488,-0.801512 -0.757479,0 -1.53345,0.24595 -2.158458,0.801512 -0.625008,0.555563 -1.026498,1.440134 -1.026498,2.383444 v 17.921526 c -10.687365,0.07767 -17.858236,3.173535 -22.0064248,6.060556 -4.1905683,2.890888 -4.1905683,9.195064 0,12.085956 7.7015398,5.36124 25.3774218,11.62568 57.7018308,-2.580306 4.798175,2.132856 9.726151,3.966696 14.757664,5.469966 0.911486,0.28148 1.889937,0.15613 2.608429,-0.28826 0.718492,-0.44439 1.177864,-1.13035 1.3921,-1.86316 0.214237,-0.73281 0.197231,-1.55171 -0.16874,-2.31314 -0.362216,-0.753627 -1.111016,-1.386196 -2.017841,-1.645209 l -0.02812,-0.007 c -2.702092,-0.803408 -5.325543,-1.843692 -7.958873,-2.847477 9.515828,-3.62469 17.45558,-5.343705 23.848497,-5.723076 -0.105615,0.0033 -0.157707,0.007 0.105462,0.007 0.145814,-2.12e-4 0.291439,-0.02232 0.43591,-0.04218 10.847239,-0.531681 17.448299,2.438187 21.106479,4.984842 h 0.007 l 0.007,0.007 c 0.60158,0.410755 0.60158,1.18524 0,1.595994 h -0.007 l -0.007,0.007 c -3.83112,2.666303 -12.71713,6.926506 -28.86849,4.063816 -0.928946,-0.16456 -1.874982,0.0791 -2.53109,0.59761 -0.656107,0.51854 -1.034897,1.24381 -1.167114,1.98972 -0.132217,0.74591 -0.02317,1.55147 0.414817,2.26392 0.43799,0.71246 1.243574,1.2627 2.17252,1.42726 3.768736,0.68777 7.587096,1.04847 11.41803,1.06868 h 0.007 c 10.622857,0 17.773407,-3.09482 22.196257,-6.17305 4.18276,-2.890001 4.1855,-9.17992 0.0141,-12.078931 h -0.007 c -4.15213,-2.89003 -11.32609,-6.005508 -21.999437,-6.081592 v -53.370855 -0.007 c 0.0065,-3.108698 -1.99883,-5.876279 -4.956719,-6.833944 C 90.117669,22.220086 80.044971,19.74045 63.996995,19.74045 Z M 34.664469,81.653734 c 5.082028,1.522196 14.496727,3.592743 29.332526,3.592743 14.835259,0 24.255554,-2.060104 29.339556,-3.585712 v 2.559214 c -8.184613,0.826376 -18.04837,3.33089 -29.944206,8.6268 -15.983207,-0.06903 -25.208789,-2.65826 -28.727876,-3.881006 z m -6.376942,8.668985 v 0.878851 c 0,0.260524 0.02099,0.324966 0.01406,0.189832 0.0055,0.117605 0.01578,0.235563 0.03515,0.35154 v 0.01406 0.007 c 0.02621,0.144157 0.05654,0.238681 0.07031,0.288264 0.01377,0.04958 0.04529,0.157501 0.105462,0.309355 0.05777,0.145814 0.09642,0.219925 0.105462,0.239047 0.04263,0.09017 0.106009,0.208371 0.17577,0.316387 0.07056,0.10925 0.131295,0.185356 0.161709,0.224986 0.03837,0.05 0.09993,0.136699 0.210924,0.253109 0.109119,0.114443 0.187407,0.181297 0.196863,0.189831 0.05642,0.05092 0.141743,0.12208 0.26717,0.210925 l 0.007,0.007 c 0.09198,0.06427 0.190182,0.128289 0.288263,0.182801 h 0.007 c -0.117133,-0.06359 -0.08186,-0.03631 0.119524,0.07031 l 0.02812,0.01406 0.02812,0.01406 c 0.46618,0.220692 6.742479,2.831143 18.849593,4.239576 -21.908985,6.803117 -33.688743,2.250737 -39.0280081,-1.469438 h -0.00703 l -0.00703,-0.007 c -0.6004235,-0.408368 -0.6004235,-1.180595 0,-1.588963 h 0.00703 l 0.00703,-0.007 c 3.2899911,-2.287857 9.1502651,-4.8611 18.3574361,-4.928596 z" /><path
             id="path190"
             style="fill:url(#linearGradient222);fill-opacity:1;stroke:none;stroke-width:2.87982;stroke-dasharray:none;stroke-opacity:1"
             d="m 31.472483,49.10813 c -0.757479,0 -1.53345,0.24595 -2.158458,0.801512 -0.625008,0.555563 -1.026498,1.447164 -1.026498,2.390474 v 4.499716 0.007 c 0.005,1.741275 1.443675,3.177932 3.184956,3.177925 h 0.007 c 1.743873,-9.96e-4 3.18396,-1.448113 3.184955,-3.191986 v -4.492686 c 0,-0.94331 -0.40149,-1.834911 -1.026498,-2.390474 C 33.012962,49.35408 32.229963,49.10813 31.472483,49.10813 Z" /><path
             id="path191"
             style="fill:url(#linearGradient221);fill-opacity:1;stroke:none;stroke-width:2.87982;stroke-dasharray:none;stroke-opacity:1"
             d="m 13.607203,68.984221 c -0.75748,0 -1.53345,0.24595 -2.158458,0.801512 -0.625009,0.555563 -1.033528,1.447164 -1.033528,2.390474 v 3.599773 c 0,1.744684 1.447303,3.191986 3.191986,3.191986 1.744683,0 3.191986,-1.447302 3.191986,-3.191986 v -3.599773 c 0,-0.94331 -0.408521,-1.834911 -1.033529,-2.390474 -0.625008,-0.555562 -1.400978,-0.801512 -2.158457,-0.801512 z" /><path
             id="path192"
             style="fill:url(#linearGradient220);fill-opacity:1;stroke:none;stroke-width:2.87982;stroke-dasharray:none;stroke-opacity:1"
             d="m 17.305407,65.286016 c -0.943311,0 -1.834912,0.40149 -2.390474,1.026498 -0.555563,0.625008 -0.794481,1.408009 -0.794481,2.165488 -1e-6,0.75748 0.238918,1.533449 0.794481,2.158458 0.555562,0.625008 1.447163,1.026498 2.390474,1.026498 h 3.599773 c 0.943311,0 1.834912,-0.40149 2.390475,-1.026498 0.555563,-0.625009 0.801511,-1.400978 0.801511,-2.158458 0,-0.757479 -0.245948,-1.54048 -0.801511,-2.165488 -0.555563,-0.625008 -1.447164,-1.026498 -2.390475,-1.026498 z" /><path
             id="path193"
             style="fill:url(#linearGradient219);fill-opacity:1;stroke:none;stroke-width:2.87982;stroke-dasharray:none;stroke-opacity:1"
             d="m 106.92007,38.308811 c -0.87705,0.04692 -1.68684,0.440552 -2.20767,1.026498 -0.55557,0.625008 -0.80152,1.400977 -0.80152,2.158457 0,0.757479 0.24595,1.540481 0.80152,2.165489 0.55556,0.625008 1.44716,1.026497 2.39047,1.026497 h 3.59977 c 0.94331,0 1.82789,-0.401489 2.38345,-1.026497 0.55556,-0.625008 0.80151,-1.40801 0.80151,-2.165489 -1e-5,-0.75748 -0.24595,-1.533449 -0.80151,-2.158457 -0.55556,-0.625009 -1.44014,-1.026498 -2.38345,-1.026498 h -3.59977 c -0.059,0 -0.12433,-0.0031 -0.1828,0 z" /><path
             id="path194"
             style="fill:url(#linearGradient218);fill-opacity:1;stroke:none"
             d="m 114.39382,42.007015 c -0.75748,0 -1.53346,0.245949 -2.15846,0.801512 -0.62501,0.555563 -1.03353,1.447163 -1.03353,2.390474 v 3.599773 0.007 c 0.004,1.741957 1.45003,3.17793 3.19199,3.177925 1.74387,-9.96e-4 3.19099,-1.441083 3.19198,-3.184956 V 45.19897 c 0,-0.943311 -0.40851,-1.834911 -1.03352,-2.390474 -0.62501,-0.555563 -1.40098,-0.801512 -2.15846,-0.801512 z" /></g></g></g><g
       id="g202"
       transform="matrix(0.28401533,0,0,0.28401533,5.8442568,20.21618)"
       style="stroke:#000000;stroke-width:2.81675;stroke-dasharray:none;stroke-opacity:1"><g
         id="g201"><path
           id="path196"
           style="fill:url(#linearGradient209);fill-opacity:1;stroke:none;stroke-width:2.81675;stroke-dasharray:none;stroke-opacity:1"
           d="m 21.44017,54.005914 c -0.750472,1e-6 -1.520187,0.247929 -2.138694,0.797712 -0.495749,0.440666 -0.785933,1.112675 -0.907741,1.836114 -0.597608,-0.425013 -1.284268,-0.692319 -1.946143,-0.653299 -0.826066,0.0487 -1.539277,0.418353 -2.069926,0.949002 -0.530649,0.530649 -0.907277,1.243809 -0.955879,2.069926 -0.03897,0.662415 0.234355,1.348357 0.660175,1.946143 -0.723343,0.121846 -1.402373,0.412047 -1.84299,0.907741 -0.549784,0.618507 -0.790835,1.395099 -0.790835,2.145571 0,0.750472 0.241051,1.520188 0.790835,2.138694 0.440617,0.495694 1.119647,0.785896 1.84299,0.907742 -0.425875,0.597798 -0.699058,1.276794 -0.660175,1.939266 0.04849,0.826191 0.425169,1.546092 0.955879,2.076802 0.53071,0.53071 1.243788,0.900413 2.069926,0.949003 0.661933,0.03893 1.348523,-0.228231 1.946143,-0.653299 0.121808,0.723439 0.411992,1.395447 0.907741,1.836113 0.618507,0.549783 1.388222,0.790836 2.138694,0.790836 0.750472,0 1.520188,-0.241053 2.138694,-0.790836 0.496621,-0.441441 0.786545,-1.118031 0.907741,-1.84299 0.597978,0.426297 1.283344,0.699079 1.946143,0.660176 0.82619,-0.04849 1.539216,-0.418293 2.069926,-0.949003 0.53071,-0.53071 0.907289,-1.250663 0.955879,-2.076802 0.03893,-0.661933 -0.235107,-1.341646 -0.660175,-1.939266 0.723439,-0.121808 1.402324,-0.41887 1.84299,-0.914619 0.549783,-0.618507 0.790835,-1.388222 0.790835,-2.138694 0,-0.750472 -0.241052,-1.520187 -0.790835,-2.138694 -0.441053,-0.496185 -1.118791,-0.786238 -1.84299,-0.907741 0.426297,-0.597978 0.699078,-1.283344 0.660175,-1.946143 -0.04849,-0.82619 -0.425169,-1.539216 -0.955879,-2.069926 -0.53071,-0.53071 -1.243788,-0.907289 -2.069926,-0.955879 -0.662757,-0.03898 -1.348067,0.234042 -1.946143,0.660176 -0.121808,-0.723439 -0.411992,-1.395448 -0.907741,-1.836114 -0.618506,-0.549783 -1.388222,-0.797712 -2.138694,-0.797712 z" /><path
           id="path197"
           style="fill:url(#linearGradient208);fill-opacity:1;stroke:none;stroke-width:2.81675;stroke-dasharray:none;stroke-opacity:1"
           d="m 42.723957,54.005914 c -0.750472,0 -1.520187,0.247929 -2.138694,0.797712 -0.495749,0.440666 -0.79281,1.112675 -0.914618,1.836114 -0.598064,-0.426078 -1.283444,-0.699244 -1.946143,-0.660176 -0.826065,0.0487 -1.539276,0.42523 -2.069925,0.955879 -0.530649,0.530649 -0.900401,1.243809 -0.949003,2.069926 -0.03899,0.662741 0.227058,1.348177 0.653299,1.946143 -0.723898,0.121623 -1.395214,0.411728 -1.836114,0.907741 -0.549783,0.618507 -0.790835,1.388222 -0.790835,2.138694 0,0.750472 0.241052,1.520187 0.790835,2.138694 0.441676,0.496885 1.117571,0.793609 1.842991,0.914619 -0.425875,0.597798 -0.699059,1.276794 -0.660176,1.939266 0.04849,0.826191 0.425169,1.546092 0.955879,2.076802 0.53071,0.53071 1.243788,0.900413 2.069926,0.949003 0.662757,0.03898 1.348068,-0.234042 1.946143,-0.660176 0.121808,0.723439 0.411992,1.402324 0.907741,1.84299 0.618507,0.549783 1.388222,0.790836 2.138694,0.790836 0.750472,0 1.520188,-0.241053 2.138694,-0.790836 0.49575,-0.440666 0.785935,-1.119551 0.907742,-1.84299 0.598064,0.426078 1.283443,0.699244 1.946142,0.660176 0.826066,-0.0487 1.546153,-0.418354 2.076803,-0.949003 0.530649,-0.530649 0.900401,-1.250684 0.949002,-2.076802 0.03902,-0.663238 -0.233288,-1.347903 -0.660175,-1.946143 0.722217,-0.122297 1.39607,-0.412693 1.836113,-0.907742 0.549783,-0.618507 0.797713,-1.388222 0.797713,-2.138694 0,-0.750472 -0.24793,-1.520187 -0.797713,-2.138694 -0.441288,-0.496449 -1.118331,-0.786424 -1.84299,-0.907741 0.426078,-0.598064 0.699244,-1.283444 0.660176,-1.946143 -0.0487,-0.826065 -0.418354,-1.539277 -0.949003,-2.069926 -0.530649,-0.530649 -1.250685,-0.907277 -2.076802,-0.955879 -0.662415,-0.03897 -1.34148,0.234356 -1.939266,0.660176 -0.12215,-0.722583 -0.412483,-1.395884 -0.907742,-1.836114 -0.618506,-0.549783 -1.388222,-0.797712 -2.138694,-0.797712 z" /><path
           id="path198"
           style="fill:url(#linearGradient207);fill-opacity:1;stroke:none;stroke-width:2.81675;stroke-dasharray:none;stroke-opacity:1"
           d="m 64.000868,54.005914 c -0.750472,0 -1.520187,0.247929 -2.138694,0.797712 -0.495749,0.440666 -0.785934,1.112675 -0.907742,1.836114 -0.598064,-0.426078 -1.283443,-0.699244 -1.946142,-0.660176 -0.826065,0.0487 -1.546154,0.42523 -2.076803,0.955879 -0.530649,0.530649 -0.9004,1.243809 -0.949002,2.069926 -0.03899,0.662741 0.233934,1.348177 0.660175,1.946143 -0.723439,0.121808 -1.402324,0.411992 -1.84299,0.907741 -0.549783,0.618507 -0.790836,1.388222 -0.790836,2.138694 0,0.750472 0.241053,1.520187 0.790836,2.138694 0.441054,0.496185 1.118791,0.793116 1.84299,0.914619 -0.426297,0.597978 -0.699078,1.276468 -0.660175,1.939266 0.04849,0.826191 0.425169,1.546092 0.955879,2.076802 0.53071,0.53071 1.243788,0.900413 2.069926,0.949003 0.662432,0.03896 1.348246,-0.227587 1.946142,-0.653299 0.12215,0.722583 0.412483,1.395883 0.907742,1.836113 0.618507,0.549783 1.388222,0.790836 2.138694,0.790836 0.750472,0 1.520188,-0.241053 2.138694,-0.790836 0.495259,-0.44023 0.785591,-1.11353 0.907741,-1.836113 0.597884,0.425657 1.283769,0.692348 1.946143,0.653299 0.826065,-0.0487 1.539277,-0.418354 2.069926,-0.949003 0.530649,-0.530649 0.907277,-1.250684 0.955879,-2.076802 0.03899,-0.66274 -0.233935,-1.3413 -0.660176,-1.939266 0.723439,-0.121808 1.395448,-0.41887 1.836114,-0.914619 0.549783,-0.618507 0.797712,-1.388222 0.797712,-2.138694 0,-0.750472 -0.247929,-1.520187 -0.797712,-2.138694 -0.440666,-0.495749 -1.112675,-0.785933 -1.836114,-0.907741 0.426078,-0.598064 0.699244,-1.283444 0.660176,-1.946143 -0.0487,-0.826065 -0.42523,-1.539277 -0.955879,-2.069926 -0.530649,-0.530649 -1.243808,-0.907277 -2.069926,-0.955879 -0.66274,-0.03899 -1.348177,0.233935 -1.946143,0.660176 -0.121808,-0.723439 -0.411992,-1.395448 -0.907741,-1.836114 -0.618507,-0.549783 -1.388222,-0.797712 -2.138694,-0.797712 z" /><path
           id="path199"
           style="fill:url(#linearGradient206);fill-opacity:1;stroke:none;stroke-width:2.81675;stroke-dasharray:none;stroke-opacity:1"
           d="m 106.56157,54.005914 c -0.75048,0 -1.5202,0.247929 -2.1387,0.797712 -0.49575,0.440666 -0.78593,1.112675 -0.90774,1.836114 -0.59807,-0.426078 -1.28344,-0.699244 -1.94614,-0.660176 -0.82607,0.0487 -1.54616,0.42523 -2.076805,0.955879 -0.53065,0.530649 -0.900402,1.243809 -0.949003,2.069926 -0.03899,0.662741 0.233934,1.348177 0.660176,1.946143 -0.723898,0.121623 -1.40209,0.411728 -1.84299,0.907741 -0.549783,0.618507 -0.790836,1.388222 -0.790836,2.138694 0,0.750472 0.241053,1.520187 0.790836,2.138694 0.4409,0.496013 1.119092,0.792996 1.84299,0.914619 -0.426297,0.597978 -0.699079,1.276468 -0.660176,1.939266 0.04849,0.826191 0.418293,1.546092 0.949003,2.076802 0.530705,0.53071 1.250665,0.900413 2.076805,0.949003 0.66275,0.03898 1.34806,-0.234042 1.94614,-0.660176 0.12181,0.723439 0.41199,1.402324 0.90774,1.84299 0.6185,0.549783 1.38822,0.790836 2.1387,0.790836 0.75047,0 1.52018,-0.241053 2.13869,-0.790836 0.49575,-0.440666 0.78593,-1.119551 0.90774,-1.84299 0.59806,0.426078 1.28345,0.699244 1.94614,0.660176 0.82607,-0.0487 1.53928,-0.418354 2.06993,-0.949003 0.53065,-0.530649 0.90727,-1.250684 0.95588,-2.076802 0.039,-0.66274 -0.23394,-1.3413 -0.66018,-1.939266 0.7242,-0.121503 1.39507,-0.418434 1.83612,-0.914619 0.54979,-0.618507 0.79771,-1.388222 0.79771,-2.138694 0,-0.750472 -0.24792,-1.520187 -0.79771,-2.138694 -0.44066,-0.495749 -1.11268,-0.785933 -1.83612,-0.907741 0.42591,-0.597993 0.69236,-1.283573 0.6533,-1.946143 -0.0487,-0.826065 -0.41835,-1.539277 -0.949,-2.069926 -0.53065,-0.530649 -1.24381,-0.907277 -2.06993,-0.955879 -0.66241,-0.03897 -1.34835,0.234356 -1.94614,0.660176 -0.12217,-0.72252 -0.41252,-1.395916 -0.90774,-1.836114 -0.61851,-0.549783 -1.38822,-0.797712 -2.13869,-0.797712 z" /><path
           id="path200"
           style="fill:url(#linearGradient205);fill-opacity:1;stroke:none;stroke-width:2.81675;stroke-dasharray:none;stroke-opacity:1"
           d="m 85.277778,54.005914 c -0.750472,0 -1.520188,0.247929 -2.138694,0.797712 -0.496185,0.441054 -0.793115,1.111915 -0.914618,1.836114 -0.598063,-0.426078 -1.276567,-0.692367 -1.939266,-0.653299 -0.826066,0.0487 -1.546152,0.418353 -2.076802,0.949002 -0.530649,0.530649 -0.900401,1.243809 -0.949003,2.069926 -0.03899,0.662741 0.233934,1.348177 0.660176,1.946143 -0.723041,0.121967 -1.395651,0.41222 -1.836114,0.907741 -0.549783,0.618507 -0.797712,1.395099 -0.797712,2.145571 0,0.750472 0.247929,1.520188 0.797712,2.138694 0.440851,0.495957 1.112312,0.78608 1.836114,0.907742 -0.425875,0.597798 -0.69906,1.276794 -0.660176,1.939266 0.04849,0.826191 0.425169,1.546092 0.955879,2.076802 0.53071,0.53071 1.243788,0.900413 2.069926,0.949003 0.662131,0.03894 1.348413,-0.227975 1.946143,-0.653299 0.121808,0.723439 0.411992,1.395447 0.907741,1.836113 0.618506,0.549783 1.388222,0.790836 2.138694,0.790836 0.750472,0 1.520187,-0.241053 2.138694,-0.790836 0.496621,-0.441441 0.793422,-1.118031 0.914619,-1.84299 0.598064,0.426078 1.276567,0.699244 1.939265,0.660176 0.826066,-0.0487 1.546154,-0.418354 2.076803,-0.949003 0.530649,-0.530649 0.9004,-1.250684 0.949002,-2.076802 0.03898,-0.662611 -0.234101,-1.348248 -0.660175,-1.946143 0.722216,-0.122297 1.39607,-0.412693 1.836113,-0.907742 0.549784,-0.618507 0.797712,-1.388222 0.797712,-2.138694 0,-0.750472 -0.247928,-1.520187 -0.797712,-2.138694 -0.4409,-0.496013 -1.112215,-0.786118 -1.836113,-0.907741 0.425911,-0.597993 0.699235,-1.283573 0.660175,-1.946143 -0.0487,-0.826065 -0.42523,-1.539277 -0.955879,-2.069926 -0.530649,-0.530649 -1.243808,-0.907277 -2.069926,-0.955879 -0.662115,-0.03895 -1.348522,0.234745 -1.946142,0.660176 -0.122112,-0.722679 -0.412428,-1.395835 -0.907742,-1.836114 -0.618506,-0.549783 -1.388222,-0.797711 -2.138694,-0.797712 z" /><path
           id="path201"
           style="fill:url(#linearGradient203);fill-opacity:1;stroke:none"
           d="m 6.4968195,40.939938 c -1.7303441,-5e-6 -3.1604199,1.433002 -3.1564648,3.163342 v 39.796212 c 0,1.72764 1.4288243,3.156465 3.1564648,3.156465 H 121.49804 c 1.72764,0 3.16334,-1.428825 3.16334,-3.156465 V 44.10328 44.09638 c 0.002,-1.728561 -1.43432,-3.15647 -3.16334,-3.156465 z M 9.660161,47.252867 H 118.34157 v 33.49016 H 9.660161 Z" /></g></g></g></svg>
