<?xml version="1.0" encoding="UTF-8" standalone="no"?>
<svg
   width="101.54079"
   height="83.720795"
   viewBox="0 0 101.5408 83.720795"
   version="1.1"
   id="svg5"
   xml:space="preserve"
   xmlns:xlink="http://www.w3.org/1999/xlink"
   xmlns="http://www.w3.org/2000/svg"
   xmlns:svg="http://www.w3.org/2000/svg"
   xmlns:rdf="http://www.w3.org/1999/02/22-rdf-syntax-ns#"
   xmlns:cc="http://creativecommons.org/ns#"
   xmlns:dc="http://purl.org/dc/elements/1.1/"><defs
     id="defs5"><linearGradient
       id="linearGradient82"><stop
         style="stop-color:#ff3dfb;stop-opacity:0;"
         offset="0"
         id="stop83" /><stop
         style="stop-color:#ff3dfb;stop-opacity:1;"
         offset="1"
         id="stop82" /></linearGradient><linearGradient
       id="linearGradient81"><stop
         style="stop-color:#00abff;stop-opacity:0;"
         offset="0"
         id="stop81" /><stop
         style="stop-color:#00abff;stop-opacity:1;"
         offset="1"
         id="stop80" /></linearGradient><linearGradient
       id="linearGradient79"><stop
         style="stop-color:#00abff;stop-opacity:0;"
         offset="0"
         id="stop79" /><stop
         style="stop-color:#00abff;stop-opacity:1;"
         offset="1"
         id="stop78" /></linearGradient><linearGradient
       id="linearGradient50"><stop
         style="stop-color:#00abff;stop-opacity:0;"
         offset="0"
         id="stop35" /><stop
         style="stop-color:#00abff;stop-opacity:1;"
         offset="1"
         id="stop34" /></linearGradient><linearGradient
       id="linearGradient19"><stop
         style="stop-color:#00abff;stop-opacity:0;"
         offset="0"
         id="stop20" /><stop
         style="stop-color:#00abff;stop-opacity:1;"
         offset="1"
         id="stop19" /></linearGradient><style
       type="text/css"
       id="style1">
   <![CDATA[
    .fil2 {fill:none}
    .fil0 {fill:#424242}
    .fil1 {fill:#FFFFFE;fill-rule:nonzero}
   ]]>
  </style><linearGradient
       xlink:href="#linearGradient19"
       id="linearGradient20"
       x1="63.669849"
       y1="118.39201"
       x2="63.669849"
       y2="50.868435"
       gradientUnits="userSpaceOnUse" /><linearGradient
       xlink:href="#linearGradient81"
       id="linearGradient21"
       x1="63.669849"
       y1="118.39201"
       x2="63.669849"
       y2="50.868435"
       gradientUnits="userSpaceOnUse" /><linearGradient
       xlink:href="#linearGradient79"
       id="linearGradient28"
       x1="63.669849"
       y1="118.39201"
       x2="63.669849"
       y2="50.868435"
       gradientUnits="userSpaceOnUse" /><linearGradient
       xlink:href="#linearGradient50"
       id="linearGradient30"
       x1="63.669849"
       y1="118.39201"
       x2="63.669849"
       y2="50.868435"
       gradientUnits="userSpaceOnUse" /><linearGradient
       xlink:href="#linearGradient82"
       id="linearGradient83"
       x1="51.969864"
       y1="87.384811"
       x2="51.969864"
       y2="28.709158"
       gradientUnits="userSpaceOnUse" /><filter
       style="color-interpolation-filters:sRGB"
       id="filter97"
       x="-0.06072132"
       y="-0.83700003"
       width="1.1214426"
       height="2.6740001"><feGaussianBlur
         stdDeviation="1.220625"
         id="feGaussianBlur97" /></filter><filter
       style="color-interpolation-filters:sRGB"
       id="filter98"
       x="-0.25473914"
       y="-0.25473914"
       width="1.5094783"
       height="1.5094783"><feGaussianBlur
         stdDeviation="1.220625"
         id="feGaussianBlur98" /></filter><filter
       style="color-interpolation-filters:sRGB"
       id="filter99"
       x="-0.25473914"
       y="-0.25473914"
       width="1.5094783"
       height="1.5094783"><feGaussianBlur
         stdDeviation="1.220625"
         id="feGaussianBlur99" /></filter><filter
       style="color-interpolation-filters:sRGB"
       id="filter100"
       x="-0.024514645"
       y="-0.030046155"
       width="1.0490293"
       height="1.0600923"><feGaussianBlur
         stdDeviation="1.220625"
         id="feGaussianBlur100" /></filter><filter
       style="color-interpolation-filters:sRGB"
       id="filter101"
       x="-0.029541962"
       y="-0.024860832"
       width="1.0590839"
       height="1.0497217"><feGaussianBlur
         stdDeviation="0.53357426"
         id="feGaussianBlur101" /></filter></defs><title
     id="title1">Website Folder</title><metadata
     id="metadata1"><rdf:RDF><cc:Work
         rdf:about=""><dc:title>Website Folder</dc:title></cc:Work></rdf:RDF></metadata><g
     id="g101"><g
       id="g4"
       transform="matrix(0.81,0,0,0.81,-1.0696049,-9.9796049)"
       style="display:inline;fill:#00abff;fill-opacity:1"><path
         id="path6"
         style="-inkscape-font-specification:'Liberation Sans';opacity:0.6;fill:#ff3dfb;fill-opacity:1;fill-rule:evenodd;stroke-linejoin:bevel;filter:url(#filter101)"
         d="m 51.193359,25.326172 c -6.010319,0 -11.04597,1.231366 -14.953125,3.863281 -3.912732,2.635671 -6.361341,6.602088 -7.130859,11.443359 l 1.867188,2.3125 7.40039,0.398438 2.087891,-1.722656 c 0.309312,-2.226774 1.238122,-3.753581 3.033203,-5.019532 1.760391,-1.241486 4.297253,-1.958984 7.775391,-1.958984 3.493874,0 5.972423,0.692735 7.570312,1.824219 l 0.0098,0.0059 c 1.648064,1.152053 2.283203,2.368926 2.283203,4.341797 0,1.046932 -0.197708,1.84677 -0.53711,2.496094 l -0.01953,0.03906 c -0.380098,0.767582 -0.878675,1.448951 -1.52539,2.072266 -0.691257,0.666247 -1.498854,1.287115 -2.433594,1.861328 -1.00439,0.61138 -2.034503,1.233848 -3.091797,1.867188 -0.004,0.0023 -0.0077,0.0055 -0.01172,0.0078 -0.0046,0.0028 -0.0091,0.0051 -0.01367,0.0078 -1.097122,0.635272 -2.18019,1.314096 -3.248047,2.037109 -1.1723,0.769811 -2.234702,1.658943 -3.175781,2.662109 -0.980173,1.04484 -1.785974,2.249716 -2.40625,3.582032 l -0.01563,0.03516 c -0.631261,1.427289 -0.95288,3.025314 -1.013672,4.757812 l 1.998047,2.070313 h 7.039063 l 1.998047,-1.964844 c 0.0196,-1.100933 0.338016,-2.029922 1.054687,-2.994141 l 0.0098,-0.01367 c 0.720999,-0.98706 1.941031,-2.060008 3.71289,-3.117188 l 0.01563,-0.0098 3.210938,-1.957031 0.002,-0.002 c 2.56627,-1.550319 4.459459,-2.898869 5.771484,-4.220703 1.250329,-1.259675 2.243158,-2.668695 2.9375,-4.207031 0.720566,-1.596439 1.0625,-3.377485 1.0625,-5.275391 0,-4.690921 -2.136576,-8.716459 -6.019531,-11.351562 l -0.002,-0.002 c -3.878252,-2.652417 -9.002737,-3.86914 -15.242188,-3.86914 z m -5.873046,40.832031 -2,2 v 6.677734 l 2,2 h 7.84375 l 2,-2 v -6.677734 l -2,-2 z"
         transform="matrix(1.2345679,0,0,1.2345679,1.3204999,12.3205)" /><path
         d="M 114,15.25 H 14 A 9.761,9.761 0 0 0 4.25,25 v 77 A 10.762,10.762 0 0 0 15,112.75 h 98 A 10.762,10.762 0 0 0 123.75,102 V 25 A 9.761,9.761 0 0 0 114,15.25 Z M 120.25,25 V 36.683 H 52.888 L 61.37,18.75 H 114 A 6.257,6.257 0 0 1 120.25,25 Z M 14,18.75 H 57.5 L 49.016,36.683 H 7.75 V 25 A 6.257,6.257 0 0 1 14,18.75 Z m 99,90.5 H 15 A 7.258,7.258 0 0 1 7.75,102 V 40.183 h 112.5 V 102 a 7.258,7.258 0 0 1 -7.25,7.25 z"
         id="path1"
         style="opacity:0.6;fill:#00abff;fill-opacity:1;filter:url(#filter100)" /><path
         d="m 21.57,33.466 a 5.75,5.75 0 1 0 -5.75,-5.75 5.756,5.756 0 0 0 5.75,5.75 z m 0,-8 a 2.25,2.25 0 1 1 -2.25,2.25 2.253,2.253 0 0 1 2.25,-2.25 z"
         id="path2"
         style="opacity:0.6;fill:#00abff;fill-opacity:1;filter:url(#filter99)" /><path
         d="m 37.626,33.466 a 5.75,5.75 0 1 0 -5.75,-5.75 5.756,5.756 0 0 0 5.75,5.75 z m 0,-8 a 2.25,2.25 0 1 1 -2.25,2.25 2.253,2.253 0 0 1 2.25,-2.25 z"
         id="path3"
         style="opacity:0.6;fill:#00abff;fill-opacity:1;filter:url(#filter98)" /><path
         d="m 67.522,29.466 h 44.745 a 1.75,1.75 0 0 0 0,-3.5 H 67.522 a 1.75,1.75 0 0 0 0,3.5 z"
         id="path4"
         style="opacity:0.6;fill:#00abff;fill-opacity:1;filter:url(#filter97)" /></g><g
       id="g11"
       transform="matrix(0.81,0,0,0.81,-1.0696049,-9.9796049)"
       style="fill:#00abff;fill-opacity:1"><path
         id="path7"
         style="-inkscape-font-specification:'Liberation Sans';fill:url(#linearGradient83);fill-opacity:1;fill-rule:evenodd;stroke-linejoin:bevel"
         d="m 51.193359,25.326172 c -6.010319,0 -11.04597,1.231366 -14.953125,3.863281 -3.912732,2.635671 -6.361341,6.602088 -7.130859,11.443359 l 1.867188,2.3125 7.40039,0.398438 2.087891,-1.722656 c 0.309312,-2.226774 1.238122,-3.753581 3.033203,-5.019532 1.760391,-1.241486 4.297253,-1.958984 7.775391,-1.958984 3.493874,0 5.972423,0.692735 7.570312,1.824219 l 0.0098,0.0059 c 1.648064,1.152053 2.283203,2.368926 2.283203,4.341797 0,1.046932 -0.197708,1.84677 -0.53711,2.496094 l -0.01953,0.03906 c -0.380098,0.767582 -0.878675,1.448951 -1.52539,2.072266 -0.691257,0.666247 -1.498854,1.287115 -2.433594,1.861328 -1.00439,0.61138 -2.034503,1.233848 -3.091797,1.867188 -0.004,0.0023 -0.0077,0.0055 -0.01172,0.0078 -0.0046,0.0028 -0.0091,0.0051 -0.01367,0.0078 -1.097122,0.635272 -2.18019,1.314096 -3.248047,2.037109 -1.1723,0.769811 -2.234702,1.658943 -3.175781,2.662109 -0.980173,1.04484 -1.785974,2.249716 -2.40625,3.582032 l -0.01563,0.03516 c -0.631261,1.427289 -0.95288,3.025314 -1.013672,4.757812 l 1.998047,2.070313 h 7.039063 l 1.998047,-1.964844 c 0.0196,-1.100933 0.338016,-2.029922 1.054687,-2.994141 l 0.0098,-0.01367 c 0.720999,-0.98706 1.941031,-2.060008 3.71289,-3.117188 l 0.01563,-0.0098 3.210938,-1.957031 0.002,-0.002 c 2.56627,-1.550319 4.459459,-2.898869 5.771484,-4.220703 1.250329,-1.259675 2.243158,-2.668695 2.9375,-4.207031 0.720566,-1.596439 1.0625,-3.377485 1.0625,-5.275391 0,-4.690921 -2.136576,-8.716459 -6.019531,-11.351562 l -0.002,-0.002 c -3.878252,-2.652417 -9.002737,-3.86914 -15.242188,-3.86914 z m -5.873046,40.832031 -2,2 v 6.677734 l 2,2 h 7.84375 l 2,-2 v -6.677734 l -2,-2 z"
         transform="matrix(1.2345679,0,0,1.2345679,1.3204999,12.3205)" /><path
         d="M 114,15.25 H 14 A 9.761,9.761 0 0 0 4.25,25 v 77 A 10.762,10.762 0 0 0 15,112.75 h 98 A 10.762,10.762 0 0 0 123.75,102 V 25 A 9.761,9.761 0 0 0 114,15.25 Z M 120.25,25 V 36.683 H 52.888 L 61.37,18.75 H 114 A 6.257,6.257 0 0 1 120.25,25 Z M 14,18.75 H 57.5 L 49.016,36.683 H 7.75 V 25 A 6.257,6.257 0 0 1 14,18.75 Z m 99,90.5 H 15 A 7.258,7.258 0 0 1 7.75,102 V 40.183 h 112.5 V 102 a 7.258,7.258 0 0 1 -7.25,7.25 z"
         id="path8"
         style="fill:url(#linearGradient20);fill-opacity:1" /><path
         d="m 21.57,33.466 a 5.75,5.75 0 1 0 -5.75,-5.75 5.756,5.756 0 0 0 5.75,5.75 z m 0,-8 a 2.25,2.25 0 1 1 -2.25,2.25 2.253,2.253 0 0 1 2.25,-2.25 z"
         id="path9"
         style="fill:url(#linearGradient30);fill-opacity:1" /><path
         d="m 37.626,33.466 a 5.75,5.75 0 1 0 -5.75,-5.75 5.756,5.756 0 0 0 5.75,5.75 z m 0,-8 a 2.25,2.25 0 1 1 -2.25,2.25 2.253,2.253 0 0 1 2.25,-2.25 z"
         id="path10"
         style="fill:url(#linearGradient28);fill-opacity:1" /><path
         d="m 67.522,29.466 h 44.745 a 1.75,1.75 0 0 0 0,-3.5 H 67.522 a 1.75,1.75 0 0 0 0,3.5 z"
         id="path11"
         style="fill:url(#linearGradient21);fill-opacity:1" /></g></g></svg>
