<?xml version="1.0" encoding="UTF-8" standalone="no"?>
<svg
   viewBox="0 0 308.53867 430.33673"
   version="1.1"
   id="svg16"
   xml:space="preserve"
   width="308.53867"
   height="430.33673"
   xmlns:xlink="http://www.w3.org/1999/xlink"
   xmlns="http://www.w3.org/2000/svg"
   xmlns:svg="http://www.w3.org/2000/svg"
   xmlns:rdf="http://www.w3.org/1999/02/22-rdf-syntax-ns#"
   xmlns:cc="http://creativecommons.org/ns#"
   xmlns:dc="http://purl.org/dc/elements/1.1/"><defs
     id="defs1"><linearGradient
       id="linearGradient21"><stop
         style="stop-color:#ff3dfb;stop-opacity:0;"
         offset="0"
         id="stop22" /><stop
         style="stop-color:#ff3dfb;stop-opacity:1;"
         offset="1"
         id="stop21" /></linearGradient><linearGradient
       id="linearGradient19"><stop
         style="stop-color:#00abff;stop-opacity:0;"
         offset="0"
         id="stop20" /><stop
         style="stop-color:#00abff;stop-opacity:1;"
         offset="1"
         id="stop19" /></linearGradient><style
       id="style1">.cls-1{fill:#211915;}</style><style
       id="style1-6">.cls-1{fill:#231f20;}</style><linearGradient
       xlink:href="#linearGradient19"
       id="linearGradient20"
       x1="261.86572"
       y1="495.37286"
       x2="261.86572"
       y2="179.95052"
       gradientUnits="userSpaceOnUse" /><linearGradient
       xlink:href="#linearGradient21"
       id="linearGradient22"
       x1="11.583712"
       y1="42.045628"
       x2="11.583712"
       y2="14.87933"
       gradientUnits="userSpaceOnUse" /><filter
       style="color-interpolation-filters:sRGB"
       id="filter22"
       x="-0.026632829"
       y="-0.027377434"
       width="1.0532657"
       height="1.0547549"><feGaussianBlur
         stdDeviation="0.24960383"
         id="feGaussianBlur22" /></filter><filter
       style="color-interpolation-filters:sRGB"
       id="filter23"
       x="-0.03365216"
       y="-0.022365861"
       width="1.0673043"
       height="1.0447317"><feGaussianBlur
         stdDeviation="3.6324606"
         id="feGaussianBlur23" /></filter></defs><title
     id="title1">50-Computer-hardware-Line-Icons</title><metadata
     id="metadata16"><rdf:RDF><cc:Work
         rdf:about=""><dc:title>50-Computer-hardware-Line-Icons</dc:title></cc:Work></rdf:RDF></metadata><g
     id="g23"
     transform="translate(-105.13671,-41.838781)"><g
       id="g17"
       style="display:inline"><path
         id="path16"
         style="opacity:0.6;fill:#00abff;filter:url(#filter23)"
         d="m 170.20075,53.743109 c -5.10749,-0.0013 -9.31834,4.208849 -9.31932,9.316344 v 48.410427 h -10.09232 c -13.39146,5.3e-4 -24.31917,10.93053 -24.31873,24.322 v 31.5077 l 0.002,0.0285 c 0.0294,1.64289 0.7834,3.27241 1.92888,4.27648 1.14548,1.00407 2.5379,1.43752 3.88847,1.43752 1.35058,0 2.74479,-0.43345 3.89027,-1.43752 1.14548,-1.00407 1.89769,-2.63359 1.92708,-4.27648 v -0.0285 -31.5096 c -3.1e-4,-7.04323 5.63899,-12.68319 12.68222,-12.68321 h 210.45047 c 7.04324,1e-5 12.68073,5.63998 12.68042,12.68321 v 205.91095 0.002 c 0.001,3.1731 2.64607,5.81604 5.81916,5.81655 h 0.0181 l 0.0199,-0.002 c 3.14819,-0.0369 5.75136,-2.66814 5.75234,-5.81655 V 135.78998 c -6.2e-4,-13.39056 -10.92793,-24.31957 -24.31873,-24.3201 H 351.1581 V 63.059453 c -8.1e-4,-5.07799 -4.16384,-9.274873 -9.24166,-9.316344 h -0.0145 -13.10123 c -5.10749,-0.0013 -9.32014,4.208849 -9.32112,9.316344 v 48.410427 h -8.01173 V 83.059399 c -8.1e-4,-5.07799 -4.16384,-9.274873 -9.24166,-9.316344 h -0.0126 -13.0633 c -5.10643,2.05e-4 -9.31653,4.20991 -9.31751,9.316344 v 28.410481 h -7.93407 V 63.059453 c -9.9e-4,-5.10644 -4.21288,-9.316148 -9.31932,-9.316344 h -13.07956 c -5.10643,2.05e-4 -9.31653,4.20991 -9.31751,9.316344 V 111.46988 H 232.2573 V 83.059399 c -9.8e-4,-5.10644 -4.21108,-9.316148 -9.31752,-9.316344 H 209.8494 c -5.10643,2.05e-4 -9.31653,4.20991 -9.31751,9.316344 v 28.410481 h -7.92504 V 63.059453 c -9.8e-4,-5.106434 -4.21107,-9.316139 -9.31751,-9.316344 z m 2.27023,11.634985 h 8.40906 v 46.072796 h -8.36391 z m 79.30813,0 h 8.40184 v 46.072796 h -8.36571 z m 79.30272,0 h 8.39823 v 46.072796 h -8.36211 z M 212.12324,85.37804 h 8.40726 v 26.07285 h -8.36572 z m 79.30814,0 h 8.39822 v 26.07285 h -8.36391 z m -124.17994,46.0728 c -1.65985,0.005 -3.32201,0.74906 -4.3436,1.90087 -1.02158,1.15182 -1.4593,2.55696 -1.4593,3.91757 0,1.36061 0.43772,2.76575 1.4593,3.91757 1.02159,1.15182 2.68375,1.89808 4.3436,1.90277 h 0.004 0.005 c 1.77923,-2e-5 3.2665,0.50305 4.56032,1.24193 a 12.5,12.5 0 0 1 3.23829,3.23774 c 0.23066,0.39475 0.50612,0.76051 0.68269,1.18686 1.05085,2.53735 1.04711,5.4066 -0.43887,7.97187 a 12.5,12.5 0 0 1 -3.42792,3.42764 c -2.60789,1.58733 -5.53558,1.67059 -8.12912,0.59628 -0.42665,-0.17673 -0.79158,-0.45275 -1.18659,-0.68363 a 12.5,12.5 0 0 1 -3.23828,-3.23775 c -0.7386,-1.29361 -1.24091,-2.78248 -1.24077,-4.56132 0,-1.66317 -0.74328,-3.32936 -1.89638,-4.35434 -1.15309,-1.02497 -2.56199,-1.466 -3.92459,-1.466 -1.36261,0 -2.76969,0.44103 -3.92278,1.466 -1.1531,1.02498 -1.89457,2.69117 -1.89457,4.35434 v 0.002 0.002 c 0.0125,11.45206 9.3647,20.80207 20.81676,20.8146 h 0.004 0.005 c 11.43936,-0.0273 20.7698,-9.37901 20.7698,-20.8184 0,-11.43938 -9.33044,-20.79105 -20.7698,-20.8184 h -0.007 z m 177.47886,0 c -1.65986,0.005 -3.32202,0.74906 -4.3436,1.90087 -1.02159,1.15182 -1.4593,2.55696 -1.4593,3.91757 0,1.36061 0.43771,2.76575 1.4593,3.91757 1.02158,1.15182 2.68374,1.89808 4.3436,1.90277 h 0.004 0.007 c 1.77763,-2e-5 3.2636,0.50237 4.55671,1.24003 a 12.5,12.5 0 0 1 3.2437,3.24344 c 0.2298,0.39365 0.50486,0.75801 0.68089,1.18306 1.05084,2.53735 1.04582,5.4066 -0.44068,7.97187 a 12.5,12.5 0 0 1 -3.42792,3.42764 c -2.60789,1.58733 -5.53559,1.67059 -8.12912,0.59628 -0.42665,-0.17673 -0.79158,-0.45275 -1.18659,-0.68363 a 12.5,12.5 0 0 1 -3.23828,-3.23775 c -0.7386,-1.29361 -1.24091,-2.78248 -1.24077,-4.56132 v -0.0285 -0.0323 c -0.0294,-1.64288 -0.78521,-3.27241 -1.93069,-4.27648 -1.14548,-1.00407 -2.53789,-1.43562 -3.88847,-1.43562 -1.35057,0 -2.74479,0.43155 -3.89027,1.43562 -1.14548,1.00407 -1.89768,2.6336 -1.92708,4.27648 v 0.0342 0.0304 c 0.0125,11.45124 9.36191,20.80089 20.81315,20.8146 h 0.007 0.005 c 11.43936,-0.0273 20.768,-9.37901 20.768,-20.8184 0,-11.43938 -9.32864,-20.79105 -20.768,-20.8184 h -0.009 z M 132.28954,232.51209 c -3.17472,5.1e-4 -5.82035,2.64562 -5.81916,5.82034 v 180.87684 c -4.4e-4,13.39147 10.92727,24.31957 24.31873,24.3201 h 210.42158 c 13.40419,-5.2e-4 24.33735,-10.9501 24.31873,-24.35428 v -31.49631 l -0.002,-0.0285 c -0.0294,-1.64288 -0.7834,-3.27241 -1.92888,-4.27648 -1.14548,-1.00408 -2.5379,-1.43752 -3.88847,-1.43752 -1.35058,0 -2.7448,0.43344 -3.89028,1.43752 -1.14548,1.00407 -1.89768,2.6336 -1.92707,4.27648 v 0.0285 31.50201 c -0.002,7.0417 -5.64026,12.68129 -12.68222,12.68131 H 150.78911 c -7.04196,-2e-5 -12.68063,-5.63961 -12.68222,-12.68131 v -0.002 -180.84646 -0.002 c 9e-5,-3.17384 -2.64149,-5.81793 -5.81554,-5.81844 z m 94.43036,54.1719 c -4.67404,-0.0515 -9.30692,0.8608 -13.61054,2.68514 -0.001,5.7e-4 -0.003,9e-4 -0.004,0.002 -4.09923,1.71575 -7.65613,4.5117 -10.28918,8.09151 l -0.0126,0.0152 -0.009,0.0152 c -2.57199,3.57817 -3.93312,7.88165 -3.90472,12.28633 -0.12973,4.04746 1.01675,8.03566 3.29246,11.38622 l 0.047,0.0684 0.0506,0.0665 c 2.34494,3.10604 5.46894,5.53813 9.05383,7.05277 4.06838,1.74342 8.3066,3.06043 12.6479,3.92327 l 0.0271,0.004 0.0253,0.006 c 2.78047,0.50642 5.48074,1.37744 8.04604,2.56171 -0.0147,0.29869 -0.11962,0.58522 -0.38108,0.7463 l -0.0397,0.0228 -0.0361,0.0266 c -0.80188,0.52504 -2.79844,1.109 -5.86251,1.109 h -0.0253 -0.0235 c -2.26825,0.0332 -4.5297,-0.26513 -6.71497,-0.87353 -1.96871,-0.60786 -3.8216,-1.53482 -5.48323,-2.7535 l -0.0433,-0.0304 -0.22034,-0.15191 -0.0163,-0.0114 c -1.88004,-1.25712 -4.07375,-1.96706 -6.33388,-2.04898 l -0.0578,-0.002 h -0.0614 c -2.74198,-5.3e-4 -5.32351,1.30421 -6.96601,3.4979 -3.5818,4.62298 -2.75792,11.37114 1.84941,14.98287 l 0.007,0.008 0.0108,0.01 c 3.25934,2.51765 6.97947,4.37059 10.9502,5.46333 4.33365,1.26899 8.82587,1.90507 13.34144,1.88568 4.74347,0.0811 9.45589,-0.79612 13.85255,-2.5788 4.09542,-1.6352 7.65956,-4.36768 10.30002,-7.89971 l 0.0144,-0.0171 0.0126,-0.0209 c 0.0695,-0.0957 0.11649,-0.20333 0.18422,-0.30004 0.66102,1.28544 1.55987,2.465 2.74884,3.42384 l 0.0271,0.0209 0.0289,0.0228 c 3.26311,2.51737 6.9855,4.37091 10.95923,5.46333 4.34692,1.27376 8.85517,1.90785 13.38478,1.88378 4.74705,0.0819 9.46248,-0.79141 13.86339,-2.5731 l 0.002,-0.002 c 4.0978,-1.63493 7.66556,-4.36795 10.30724,-7.90161 l 0.0181,-0.0285 0.0199,-0.0247 c 0.70543,-0.98381 1.29807,-2.03121 1.8151,-3.11241 v 2.17622 l 0.002,-0.14622 c -0.13051,2.94933 0.98207,5.82279 3.0631,7.91681 l 0.0433,0.0475 0.047,0.0418 c 2.11156,1.96645 4.92833,3.00657 7.81125,2.88643 l -0.13907,0.006 h 15.99998 c 10.54782,0 19.38951,-2.97988 25.72927,-9.11695 6.35597,-6.15276 9.48909,-14.92072 9.48909,-25.22402 0,-10.31018 -3.17025,-19.02851 -9.48909,-25.14425 -6.31508,-6.11209 -15.17731,-9.10366 -25.72927,-9.10366 h -15.99998 l 0.14088,0.002 c -2.88435,-0.12181 -5.7015,0.91967 -7.81306,2.88833 l -0.0433,0.0418 -0.0433,0.0437 c -1.90286,1.9101 -2.86681,4.49596 -2.94209,7.1724 -0.73171,-1.30694 -1.70369,-2.46067 -2.86804,-3.40295 -5.94095,-5.00195 -13.66456,-7.48007 -22.51085,-7.48384 -4.66812,-0.0488 -9.29625,0.86479 -13.59429,2.68704 -4.1021,1.71307 -7.66024,4.51366 -10.29098,8.09721 l -0.009,0.0114 -0.0108,0.0133 c -0.53594,0.74484 -0.98585,1.53751 -1.41596,2.33953 -0.17841,-0.71461 -0.40285,-1.41735 -0.72965,-2.08317 l -0.0397,-0.0817 -0.0452,-0.0779 c -0.73726,-1.31553 -1.72175,-2.47499 -2.89513,-3.42194 -5.94051,-5.00157 -13.66358,-7.47969 -22.50904,-7.48384 z m -0.0596,8.30609 c -0.0132,0 -0.0247,0.004 -0.0379,0.004 -0.0124,2.6e-4 -0.0237,-0.002 -0.0361,-0.002 z m 51.53981,0 c -0.0132,0 -0.0247,0.004 -0.0379,0.004 -0.0118,2.5e-4 -0.0243,-0.002 -0.0361,-0.002 z m -63.49961,3.23205 c -0.007,0.004 -0.01,0.0108 -0.0163,0.0152 -0.01,0.007 -0.0228,0.0122 -0.0325,0.019 z m 51.53078,0.002 c -0.006,0.004 -0.0106,0.0115 -0.0163,0.0152 -0.009,0.006 -0.0185,0.01 -0.0271,0.0152 z m -12.95132,4.26129 -0.002,0.10824 c 4.6e-4,-0.0204 -0.007,-0.0404 -0.007,-0.0608 -9e-5,-0.0167 0.009,-0.0308 0.009,-0.0475 z m -26.4824,4.13215 c 1.86519,-0.0545 3.72343,0.22536 5.49587,0.80707 1.77845,0.71066 3.46031,1.64276 4.99017,2.79528 l -0.0885,-0.0665 c 0.19772,0.15948 0.40784,0.30596 0.62671,0.43486 0.003,10e-4 0.006,0.002 0.009,0.004 0.002,10e-4 0.003,0.003 0.005,0.004 0.87141,0.51394 1.78603,0.95123 2.73258,1.30839 l 0.0307,0.0114 0.0307,0.0114 c 1.11089,0.39352 2.28376,0.59172 3.46223,0.58299 2.47565,-0.0145 4.72812,-1.19649 6.3664,-3.02126 -8.6e-4,0.0977 -0.0204,0.19277 -0.0199,0.29054 -0.12953,4.04837 1.02104,8.03538 3.29788,11.38622 l 0.0452,0.0684 0.0506,0.0665 c 2.34225,3.10295 5.4611,5.53373 9.04118,7.04897 0.002,8.1e-4 0.003,9e-4 0.005,0.002 4.06993,1.74281 8.31118,3.05862 12.65332,3.92327 l 0.0271,0.006 0.0253,0.006 c 2.78163,0.50656 5.48046,1.37547 8.04785,2.55792 -0.0139,0.29999 -0.12041,0.58856 -0.38289,0.75009 l -0.0434,0.0266 -0.0415,0.0285 c -0.77891,0.51306 -2.79141,1.1033 -5.84444,1.1033 h -0.0253 -0.0235 c -2.26953,0.0339 -4.53239,-0.26355 -6.71858,-0.87353 -1.96679,-0.6055 -3.81754,-1.53284 -5.476,-2.7516 l -0.0795,-0.057 -0.2077,-0.13483 c -1.88204,-1.26281 -4.08142,-1.97482 -6.34653,-2.05278 l -0.0596,-0.002 h -0.0632 c -1.57849,0.005 -3.0386,0.53663 -4.36347,1.32168 -0.2509,-3.40662 -1.41042,-6.69356 -3.47126,-9.44927 l -0.0434,-0.0608 -0.047,-0.057 c -2.43844,-2.97144 -5.57493,-5.29529 -9.12787,-6.76223 h -0.002 c -4.12568,-1.70503 -8.40077,-3.01797 -12.77252,-3.92137 l 0.0632,0.0133 c -5.06178,-1.15258 -7.20484,-2.19321 -7.80945,-2.5731 l -0.0921,-0.0589 -0.0181,-0.009 0.005,-0.0931 -0.007,-0.18231 c -0.0223,-0.48417 0.20585,-0.93224 0.61226,-1.19635 l 0.0415,-0.0247 0.0397,-0.0285 c 0.8921,-0.61761 2.67661,-1.17926 5.37125,-1.17926 h 0.0488 z m 51.44228,0.0304 h 0.047 0.0488 c 1.87301,-0.0538 3.73772,0.23203 5.51755,0.81655 1.76674,0.71201 3.43928,1.63993 4.96127,2.78579 l 0.0704,0.0551 0.3883,0.25826 0.0759,0.0475 c 0.87598,0.52262 1.79773,0.96443 2.75245,1.32358 l 0.0325,0.0152 0.0343,0.0114 c 1.10768,0.39007 2.27531,0.58132 3.4496,0.57349 2.73976,-0.0121 5.31736,-1.31538 6.95698,-3.50929 0.39043,-0.50694 0.64798,-1.07859 0.93735,-1.63502 v 17.8769 c -0.44735,-0.8605 -0.95917,-1.69155 -1.546,-2.47625 l -0.0415,-0.057 -0.0433,-0.0551 c -2.43383,-2.98043 -5.57543,-5.30506 -9.13511,-6.76603 -4.10606,-1.70791 -8.36472,-3.02564 -12.71834,-3.93277 l 0.0596,0.0133 c -5.05358,-1.15291 -7.22429,-2.20601 -7.79138,-2.56551 l -0.0993,-0.0627 -0.0181,-0.0114 0.005,-0.0949 -0.0108,-0.188 c -0.0232,-0.47949 0.20549,-0.92436 0.60865,-1.18495 l 0.0415,-0.0266 0.0451,-0.0304 c 0.89713,-0.62109 2.66525,-1.18116 5.37125,-1.18116 z m 47.32806,0.88872 h 4.12145 c 5.32534,0 8.56829,1.20254 10.58357,3.25103 2.01528,2.04849 3.22925,5.40621 3.22925,10.88299 0,5.47678 -1.21558,8.86235 -3.23647,10.93047 -2.02088,2.06812 -5.25838,3.27952 -10.57635,3.27952 h -4.12145 z m -74.50399,1.44131 -0.0849,0.11014 c 0.0171,-0.0211 0.0209,-0.0491 0.0379,-0.0703 0.0126,-0.0167 0.0345,-0.0231 0.047,-0.0399 z m 9.43852,0.15382 c -6.3e-4,0.0266 0.007,0.0513 0.007,0.0779 4.9e-4,0.0279 -0.008,0.0538 -0.007,0.0817 z m -51.53981,0.004 c -5.7e-4,0.0253 0.009,0.0488 0.009,0.0741 4.5e-4,0.0266 -0.009,0.0514 -0.009,0.0779 z m 57.08806,10.09112 c 0.0121,0.008 0.0311,0.0114 0.0433,0.019 0.0146,0.009 0.0251,0.0237 0.0397,0.0323 z m -51.5344,0.004 c 0.0121,0.008 0.0293,0.0114 0.0415,0.019 0.0109,0.007 0.0197,0.0182 0.0307,0.0247 z m 23.08338,5.3475 0.1499,0.0798 c -0.0253,-0.0143 -0.0631,-0.0219 -0.0885,-0.0361 -0.0225,-0.0114 -0.0388,-0.0324 -0.0614,-0.0437 z m 51.58677,0.004 0.14449,0.0779 c -0.0248,-0.014 -0.0635,-0.0241 -0.0885,-0.038 -0.0208,-0.0106 -0.0351,-0.0294 -0.056,-0.0399 z m -35.12806,9.32205 v 0.14622 c 8e-4,-0.0269 -0.005,-0.0529 -0.004,-0.0798 -2.4e-4,-0.0223 0.004,-0.0442 0.004,-0.0665 z m 51.48022,0.038 -0.002,0.14622 c 6.4e-4,-0.0217 -0.004,-0.0429 -0.004,-0.0646 -2.8e-4,-0.0276 0.005,-0.054 0.005,-0.0816 z m -54.14417,0.38359 c -0.0109,0.0138 -0.0128,0.0318 -0.0235,0.0456 -0.009,0.0113 -0.0223,0.0153 -0.0307,0.0266 z m -7.72636,0.0304 v 0.13863 c 2.2e-4,-0.0208 -0.007,-0.04 -0.007,-0.0608 -6.8e-4,-0.0266 0.008,-0.0513 0.007,-0.0779 z m 51.57051,0 0.002,0.13863 c 2.4e-4,-0.0235 -0.0108,-0.0449 -0.0108,-0.0684 -6.3e-4,-0.024 0.01,-0.0463 0.009,-0.0703 z m -57.35355,10.99503 -0.0289,0.019 c 0.005,-0.003 0.008,-0.008 0.0127,-0.0114 0.005,-0.003 0.0114,-0.005 0.0162,-0.008 z m 51.57052,0 -0.0289,0.019 c 0.005,-0.003 0.008,-0.008 0.0126,-0.0114 0.005,-0.003 0.0115,-0.005 0.0163,-0.008 z m -63.794,2.99658 c 0.007,-7e-5 0.0145,0.002 0.0217,0.002 h -0.0325 c 0.004,0 0.006,-0.002 0.0108,-0.002 z m 51.58316,0 c 0.007,-7e-5 0.0145,0.002 0.0217,0.002 h -0.0361 c 0.005,0 0.01,-0.002 0.0145,-0.002 z m -109.99146,33.54339 c -1.66078,0.003 -3.32466,0.7487 -4.34721,1.90087 -1.02255,1.15216 -1.4593,2.55831 -1.4593,3.91947 0,1.36115 0.43675,2.76731 1.4593,3.91948 1.02255,1.15216 2.68643,1.89565 4.34721,1.89897 h 0.005 0.002 c 1.78063,-3e-5 3.26949,0.50348 4.56394,1.24382 a 12.5,12.5 0 0 1 3.23106,3.23395 c 0.23173,0.39615 0.50907,0.7627 0.6863,1.19065 1.05085,2.53734 1.04711,5.40523 -0.43887,7.96998 a 12.5,12.5 0 0 1 -3.43334,3.43333 c -2.60649,1.58391 -5.53204,1.66411 -8.1237,0.59058 -0.42665,-0.17673 -0.79158,-0.45275 -1.18659,-0.68363 a 12.5,12.5 0 0 1 -3.23828,-3.23774 c -0.7386,-1.29362 -1.24091,-2.78249 -1.24077,-4.56132 0,-1.66317 -0.74328,-3.32937 -1.89638,-4.35434 -1.15309,-1.02498 -2.56199,-1.4641 -3.92459,-1.46411 -1.36261,0 -2.76969,0.43913 -3.92278,1.46411 -1.1531,1.02497 -1.89457,2.69117 -1.89457,4.35434 v 0.004 0.002 c 0.0125,11.45207 9.3647,20.80397 20.81676,20.8165 h 0.004 0.005 c 11.44034,-0.0259 20.77161,-9.37804 20.77161,-20.8184 0,-11.44037 -9.33127,-20.79435 -20.77161,-20.8203 h -0.005 z m 177.47887,0 c -1.66078,0.003 -3.32286,0.7487 -4.34541,1.90087 -1.02255,1.15216 -1.46111,2.55831 -1.46111,3.91947 0,1.36115 0.43856,2.76731 1.46111,3.91948 1.02255,1.15216 2.68463,1.89565 4.34541,1.89897 h 0.004 0.005 c 1.77933,-3e-5 3.26646,0.50447 4.56032,1.24382 a 12.5,12.5 0 0 1 3.23829,3.23774 c 0.23066,0.39481 0.50612,0.76051 0.68269,1.18686 1.05084,2.53734 1.04582,5.40523 -0.44068,7.96998 a 12.5,12.5 0 0 1 -3.43334,3.43333 c -2.60649,1.58391 -5.53204,1.66411 -8.1237,0.59058 -0.42561,-0.1763 -0.79065,-0.45154 -1.18478,-0.68173 a 12.5,12.5 0 0 1 -3.24009,-3.23964 c -0.7386,-1.29362 -1.24091,-2.78249 -1.24077,-4.56132 v -0.0285 -0.0285 c -0.0294,-1.64288 -0.78521,-3.2762 -1.93069,-4.28028 -1.14548,-1.00407 -2.53789,-1.43562 -3.88847,-1.43562 -1.35057,0 -2.74479,0.43155 -3.89027,1.43562 -1.14548,1.00408 -1.89768,2.6374 -1.92708,4.28028 v 0.0304 0.0304 c 0.0125,11.45124 9.36191,20.80279 20.81315,20.81651 h 0.005 0.005 c 11.44035,-0.0259 20.77161,-9.37805 20.77161,-20.81841 0,-11.44037 -9.33126,-20.79435 -20.77161,-20.8203 h -0.005 z"
         transform="matrix(1.0814228,0,0,1.0285184,-22.203503,7.0308644)" /><path
         id="path1"
         class="cls-1"
         d="M 15.879974,1.1199438 A 1.21,1.21 0 0 0 15.020082,1.4300632 L 6.4199708,9.240068 a 1.17,1.17 0 0 0 -0.3899471,0.829935 1.15,1.15 0 0 0 0.210037,0.690025 l -4.0700193,3.689944 a 1.6,1.6 0 0 0 -0.5199861,0.999973 1.42,1.42 0 0 0 0.3499481,1.110098 L 6.000067,20.929969 A 1.4,1.4 0 0 0 7.0000404,21.38 h 3.4999916 a 1,1 0 0 0 0.679982,-0.260078 l 2.430063,-2.209984 a 1.2,1.2 0 0 0 0.66994,0.270121 h 0.05991 a 1.18,1.18 0 0 0 0.800149,-0.31012 l 8.599941,-7.819877 a 1.18,1.18 0 0 0 0.08,-1.6801251 L 16.700037,1.5100611 A 1.13,1.13 0 0 0 15.879974,1.1199438 Z m -0.17991,1.0500146 a 0.16,0.16 0 0 1 0.119997,0 0.17,0.17 0 0 1 0.139911,0.050041 l 7.140065,7.8699186 a 0.2,0.2 0 0 1 0,0.260078 l -8.600111,7.820047 a 0.21,0.21 0 0 1 -0.26995,0 L 14.000024,17.880008 10.639943,14.180022 7.0800383,10.250084 a 0.19,0.19 0 0 1 0.010042,-0.250036 z m -0.0577,1.5391931 A 0.49,0.49 0 0 0 15.37003,3.8500839 l -4.370096,3.9699368 a 0.5,0.5 0 0 0 0.314545,0.8670407 0.5,0.5 0 0 0 0.315566,-0.1271455 l 4.439881,-3.9998935 a 0.5,0.5 0 0 0 0,-0.7099385 0.49,0.49 0 0 0 -0.427562,-0.1409324 z M 11.31448,8.6870614 a 0.5,0.5 0 0 1 -0.02451,0.00289 h 0.04 a 0.5,0.5 0 0 1 -0.01549,-0.00289 z M 9.8079656,9.0375202 A 0.50249378,0.50249378 0 0 0 9.4699321,9.1699422 L 8.7300369,9.840052 a 0.5,0.5 0 0 0 0,0.709939 0.49,0.49 0 0 0 0.3399058,0.159995 0.5,0.5 0 0 0 0.3400761,-0.130039 L 10.150084,9.9100076 A 0.50249378,0.50249378 0 0 0 9.8079656,9.0375202 Z m -2.9679209,2.4824868 6.0498813,6.659908 -2.399936,2.190069 0.330034,0.370033 -0.340076,-0.370033 H 7.0000404 A 0.37,0.37 0 0 1 6.689921,20.239945 L 2.7400688,15.889933 A 0.4,0.4 0 0 1 2.6500286,15.569942 0.58,0.58 0 0 1 2.839981,15.190037 Z M 23.500026,21.962453 a 0.5,0.5 0 0 0 -0.189952,0.03762 0.36,0.36 0 0 0 -0.159996,0.109954 0.5,0.5 0 0 0 0.349948,0.85002 0.43,0.43 0 0 0 0.189953,0 0.36,0.36 0 0 0 0.159996,-0.110125 0.48,0.48 0 0 0 0,-0.699896 0.36,0.36 0 0 0 -0.159996,-0.149953 0.5,0.5 0 0 0 -0.189953,-0.03762 z m -17.0000574,0.03762 a 0.5,0.5 0 0 0 0,0.999973 H 18.499989 a 0.5,0.5 0 0 0 0,-0.999973 z m 13.9999674,0 a 0.5,0.5 0 0 0 0,0.999973 h 1.000144 a 0.5,0.5 0 0 0 0,-0.999973 z"
         transform="matrix(11.474915,0,0,11.474915,129.87435,35.873349)"
         style="opacity:0.6;fill:#ff3dfb;fill-opacity:1;filter:url(#filter22)" /></g><g
       id="g19"><path
         id="path18"
         style="fill:url(#linearGradient20);fill-opacity:1"
         d="m 170.20075,53.743109 c -5.10749,-0.0013 -9.31834,4.208849 -9.31932,9.316344 v 48.410427 h -10.09232 c -13.39146,5.3e-4 -24.31917,10.93053 -24.31873,24.322 v 31.5077 l 0.002,0.0285 c 0.0294,1.64289 0.7834,3.27241 1.92888,4.27648 1.14548,1.00407 2.5379,1.43752 3.88847,1.43752 1.35058,0 2.74479,-0.43345 3.89027,-1.43752 1.14548,-1.00407 1.89769,-2.63359 1.92708,-4.27648 v -0.0285 -31.5096 c -3.1e-4,-7.04323 5.63899,-12.68319 12.68222,-12.68321 h 210.45047 c 7.04324,1e-5 12.68073,5.63998 12.68042,12.68321 v 205.91095 0.002 c 0.001,3.1731 2.64607,5.81604 5.81916,5.81655 h 0.0181 l 0.0199,-0.002 c 3.14819,-0.0369 5.75136,-2.66814 5.75234,-5.81655 V 135.78998 c -6.2e-4,-13.39056 -10.92793,-24.31957 -24.31873,-24.3201 H 351.1581 V 63.059453 c -8.1e-4,-5.07799 -4.16384,-9.274873 -9.24166,-9.316344 h -0.0145 -13.10123 c -5.10749,-0.0013 -9.32014,4.208849 -9.32112,9.316344 v 48.410427 h -8.01173 V 83.059399 c -8.1e-4,-5.07799 -4.16384,-9.274873 -9.24166,-9.316344 h -0.0126 -13.0633 c -5.10643,2.05e-4 -9.31653,4.20991 -9.31751,9.316344 v 28.410481 h -7.93407 V 63.059453 c -9.9e-4,-5.10644 -4.21288,-9.316148 -9.31932,-9.316344 h -13.07956 c -5.10643,2.05e-4 -9.31653,4.20991 -9.31751,9.316344 V 111.46988 H 232.2573 V 83.059399 c -9.8e-4,-5.10644 -4.21108,-9.316148 -9.31752,-9.316344 H 209.8494 c -5.10643,2.05e-4 -9.31653,4.20991 -9.31751,9.316344 v 28.410481 h -7.92504 V 63.059453 c -9.8e-4,-5.106434 -4.21107,-9.316139 -9.31751,-9.316344 z m 2.27023,11.634985 h 8.40906 v 46.072796 h -8.36391 z m 79.30813,0 h 8.40184 v 46.072796 h -8.36571 z m 79.30272,0 h 8.39823 v 46.072796 h -8.36211 z M 212.12324,85.37804 h 8.40726 v 26.07285 h -8.36572 z m 79.30814,0 h 8.39822 v 26.07285 h -8.36391 z m -124.17994,46.0728 c -1.65985,0.005 -3.32201,0.74906 -4.3436,1.90087 -1.02158,1.15182 -1.4593,2.55696 -1.4593,3.91757 0,1.36061 0.43772,2.76575 1.4593,3.91757 1.02159,1.15182 2.68375,1.89808 4.3436,1.90277 h 0.004 0.005 c 1.77923,-2e-5 3.2665,0.50305 4.56032,1.24193 a 12.5,12.5 0 0 1 3.23829,3.23774 c 0.23066,0.39475 0.50612,0.76051 0.68269,1.18686 1.05085,2.53735 1.04711,5.4066 -0.43887,7.97187 a 12.5,12.5 0 0 1 -3.42792,3.42764 c -2.60789,1.58733 -5.53558,1.67059 -8.12912,0.59628 -0.42665,-0.17673 -0.79158,-0.45275 -1.18659,-0.68363 a 12.5,12.5 0 0 1 -3.23828,-3.23775 c -0.7386,-1.29361 -1.24091,-2.78248 -1.24077,-4.56132 0,-1.66317 -0.74328,-3.32936 -1.89638,-4.35434 -1.15309,-1.02497 -2.56199,-1.466 -3.92459,-1.466 -1.36261,0 -2.76969,0.44103 -3.92278,1.466 -1.1531,1.02498 -1.89457,2.69117 -1.89457,4.35434 v 0.002 0.002 c 0.0125,11.45206 9.3647,20.80207 20.81676,20.8146 h 0.004 0.005 c 11.43936,-0.0273 20.7698,-9.37901 20.7698,-20.8184 0,-11.43938 -9.33044,-20.79105 -20.7698,-20.8184 h -0.007 z m 177.47886,0 c -1.65986,0.005 -3.32202,0.74906 -4.3436,1.90087 -1.02159,1.15182 -1.4593,2.55696 -1.4593,3.91757 0,1.36061 0.43771,2.76575 1.4593,3.91757 1.02158,1.15182 2.68374,1.89808 4.3436,1.90277 h 0.004 0.007 c 1.77763,-2e-5 3.2636,0.50237 4.55671,1.24003 a 12.5,12.5 0 0 1 3.2437,3.24344 c 0.2298,0.39365 0.50486,0.75801 0.68089,1.18306 1.05084,2.53735 1.04582,5.4066 -0.44068,7.97187 a 12.5,12.5 0 0 1 -3.42792,3.42764 c -2.60789,1.58733 -5.53559,1.67059 -8.12912,0.59628 -0.42665,-0.17673 -0.79158,-0.45275 -1.18659,-0.68363 a 12.5,12.5 0 0 1 -3.23828,-3.23775 c -0.7386,-1.29361 -1.24091,-2.78248 -1.24077,-4.56132 v -0.0285 -0.0323 c -0.0294,-1.64288 -0.78521,-3.27241 -1.93069,-4.27648 -1.14548,-1.00407 -2.53789,-1.43562 -3.88847,-1.43562 -1.35057,0 -2.74479,0.43155 -3.89027,1.43562 -1.14548,1.00407 -1.89768,2.6336 -1.92708,4.27648 v 0.0342 0.0304 c 0.0125,11.45124 9.36191,20.80089 20.81315,20.8146 h 0.007 0.005 c 11.43936,-0.0273 20.768,-9.37901 20.768,-20.8184 0,-11.43938 -9.32864,-20.79105 -20.768,-20.8184 h -0.009 z M 132.28954,232.51209 c -3.17472,5.1e-4 -5.82035,2.64562 -5.81916,5.82034 v 180.87684 c -4.4e-4,13.39147 10.92727,24.31957 24.31873,24.3201 h 210.42158 c 13.40419,-5.2e-4 24.33735,-10.9501 24.31873,-24.35428 v -31.49631 l -0.002,-0.0285 c -0.0294,-1.64288 -0.7834,-3.27241 -1.92888,-4.27648 -1.14548,-1.00408 -2.5379,-1.43752 -3.88847,-1.43752 -1.35058,0 -2.7448,0.43344 -3.89028,1.43752 -1.14548,1.00407 -1.89768,2.6336 -1.92707,4.27648 v 0.0285 31.50201 c -0.002,7.0417 -5.64026,12.68129 -12.68222,12.68131 H 150.78911 c -7.04196,-2e-5 -12.68063,-5.63961 -12.68222,-12.68131 v -0.002 -180.84646 -0.002 c 9e-5,-3.17384 -2.64149,-5.81793 -5.81554,-5.81844 z m 94.43036,54.1719 c -4.67404,-0.0515 -9.30692,0.8608 -13.61054,2.68514 -0.001,5.7e-4 -0.003,9e-4 -0.004,0.002 -4.09923,1.71575 -7.65613,4.5117 -10.28918,8.09151 l -0.0126,0.0152 -0.009,0.0152 c -2.57199,3.57817 -3.93312,7.88165 -3.90472,12.28633 -0.12973,4.04746 1.01675,8.03566 3.29246,11.38622 l 0.047,0.0684 0.0506,0.0665 c 2.34494,3.10604 5.46894,5.53813 9.05383,7.05277 4.06838,1.74342 8.3066,3.06043 12.6479,3.92327 l 0.0271,0.004 0.0253,0.006 c 2.78047,0.50642 5.48074,1.37744 8.04604,2.56171 -0.0147,0.29869 -0.11962,0.58522 -0.38108,0.7463 l -0.0397,0.0228 -0.0361,0.0266 c -0.80188,0.52504 -2.79844,1.109 -5.86251,1.109 h -0.0253 -0.0235 c -2.26825,0.0332 -4.5297,-0.26513 -6.71497,-0.87353 -1.96871,-0.60786 -3.8216,-1.53482 -5.48323,-2.7535 l -0.0433,-0.0304 -0.22034,-0.15191 -0.0163,-0.0114 c -1.88004,-1.25712 -4.07375,-1.96706 -6.33388,-2.04898 l -0.0578,-0.002 h -0.0614 c -2.74198,-5.3e-4 -5.32351,1.30421 -6.96601,3.4979 -3.5818,4.62298 -2.75792,11.37114 1.84941,14.98287 l 0.007,0.008 0.0108,0.01 c 3.25934,2.51765 6.97947,4.37059 10.9502,5.46333 4.33365,1.26899 8.82587,1.90507 13.34144,1.88568 4.74347,0.0811 9.45589,-0.79612 13.85255,-2.5788 4.09542,-1.6352 7.65956,-4.36768 10.30002,-7.89971 l 0.0144,-0.0171 0.0126,-0.0209 c 0.0695,-0.0957 0.11649,-0.20333 0.18422,-0.30004 0.66102,1.28544 1.55987,2.465 2.74884,3.42384 l 0.0271,0.0209 0.0289,0.0228 c 3.26311,2.51737 6.9855,4.37091 10.95923,5.46333 4.34692,1.27376 8.85517,1.90785 13.38478,1.88378 4.74705,0.0819 9.46248,-0.79141 13.86339,-2.5731 l 0.002,-0.002 c 4.0978,-1.63493 7.66556,-4.36795 10.30724,-7.90161 l 0.0181,-0.0285 0.0199,-0.0247 c 0.70543,-0.98381 1.29807,-2.03121 1.8151,-3.11241 v 2.17622 l 0.002,-0.14622 c -0.13051,2.94933 0.98207,5.82279 3.0631,7.91681 l 0.0433,0.0475 0.047,0.0418 c 2.11156,1.96645 4.92833,3.00657 7.81125,2.88643 l -0.13907,0.006 h 15.99998 c 10.54782,0 19.38951,-2.97988 25.72927,-9.11695 6.35597,-6.15276 9.48909,-14.92072 9.48909,-25.22402 0,-10.31018 -3.17025,-19.02851 -9.48909,-25.14425 -6.31508,-6.11209 -15.17731,-9.10366 -25.72927,-9.10366 h -15.99998 l 0.14088,0.002 c -2.88435,-0.12181 -5.7015,0.91967 -7.81306,2.88833 l -0.0433,0.0418 -0.0433,0.0437 c -1.90286,1.9101 -2.86681,4.49596 -2.94209,7.1724 -0.73171,-1.30694 -1.70369,-2.46067 -2.86804,-3.40295 -5.94095,-5.00195 -13.66456,-7.48007 -22.51085,-7.48384 -4.66812,-0.0488 -9.29625,0.86479 -13.59429,2.68704 -4.1021,1.71307 -7.66024,4.51366 -10.29098,8.09721 l -0.009,0.0114 -0.0108,0.0133 c -0.53594,0.74484 -0.98585,1.53751 -1.41596,2.33953 -0.17841,-0.71461 -0.40285,-1.41735 -0.72965,-2.08317 l -0.0397,-0.0817 -0.0452,-0.0779 c -0.73726,-1.31553 -1.72175,-2.47499 -2.89513,-3.42194 -5.94051,-5.00157 -13.66358,-7.47969 -22.50904,-7.48384 z m -0.0596,8.30609 c -0.0132,0 -0.0247,0.004 -0.0379,0.004 -0.0124,2.6e-4 -0.0237,-0.002 -0.0361,-0.002 z m 51.53981,0 c -0.0132,0 -0.0247,0.004 -0.0379,0.004 -0.0118,2.5e-4 -0.0243,-0.002 -0.0361,-0.002 z m -63.49961,3.23205 c -0.007,0.004 -0.01,0.0108 -0.0163,0.0152 -0.01,0.007 -0.0228,0.0122 -0.0325,0.019 z m 51.53078,0.002 c -0.006,0.004 -0.0106,0.0115 -0.0163,0.0152 -0.009,0.006 -0.0185,0.01 -0.0271,0.0152 z m -12.95132,4.26129 -0.002,0.10824 c 4.6e-4,-0.0204 -0.007,-0.0404 -0.007,-0.0608 -9e-5,-0.0167 0.009,-0.0308 0.009,-0.0475 z m -26.4824,4.13215 c 1.86519,-0.0545 3.72343,0.22536 5.49587,0.80707 1.77845,0.71066 3.46031,1.64276 4.99017,2.79528 l -0.0885,-0.0665 c 0.19772,0.15948 0.40784,0.30596 0.62671,0.43486 0.003,10e-4 0.006,0.002 0.009,0.004 0.002,10e-4 0.003,0.003 0.005,0.004 0.87141,0.51394 1.78603,0.95123 2.73258,1.30839 l 0.0307,0.0114 0.0307,0.0114 c 1.11089,0.39352 2.28376,0.59172 3.46223,0.58299 2.47565,-0.0145 4.72812,-1.19649 6.3664,-3.02126 -8.6e-4,0.0977 -0.0204,0.19277 -0.0199,0.29054 -0.12953,4.04837 1.02104,8.03538 3.29788,11.38622 l 0.0452,0.0684 0.0506,0.0665 c 2.34225,3.10295 5.4611,5.53373 9.04118,7.04897 0.002,8.1e-4 0.003,9e-4 0.005,0.002 4.06993,1.74281 8.31118,3.05862 12.65332,3.92327 l 0.0271,0.006 0.0253,0.006 c 2.78163,0.50656 5.48046,1.37547 8.04785,2.55792 -0.0139,0.29999 -0.12041,0.58856 -0.38289,0.75009 l -0.0434,0.0266 -0.0415,0.0285 c -0.77891,0.51306 -2.79141,1.1033 -5.84444,1.1033 h -0.0253 -0.0235 c -2.26953,0.0339 -4.53239,-0.26355 -6.71858,-0.87353 -1.96679,-0.6055 -3.81754,-1.53284 -5.476,-2.7516 l -0.0795,-0.057 -0.2077,-0.13483 c -1.88204,-1.26281 -4.08142,-1.97482 -6.34653,-2.05278 l -0.0596,-0.002 h -0.0632 c -1.57849,0.005 -3.0386,0.53663 -4.36347,1.32168 -0.2509,-3.40662 -1.41042,-6.69356 -3.47126,-9.44927 l -0.0434,-0.0608 -0.047,-0.057 c -2.43844,-2.97144 -5.57493,-5.29529 -9.12787,-6.76223 h -0.002 c -4.12568,-1.70503 -8.40077,-3.01797 -12.77252,-3.92137 l 0.0632,0.0133 c -5.06178,-1.15258 -7.20484,-2.19321 -7.80945,-2.5731 l -0.0921,-0.0589 -0.0181,-0.009 0.005,-0.0931 -0.007,-0.18231 c -0.0223,-0.48417 0.20585,-0.93224 0.61226,-1.19635 l 0.0415,-0.0247 0.0397,-0.0285 c 0.8921,-0.61761 2.67661,-1.17926 5.37125,-1.17926 h 0.0488 z m 51.44228,0.0304 h 0.047 0.0488 c 1.87301,-0.0538 3.73772,0.23203 5.51755,0.81655 1.76674,0.71201 3.43928,1.63993 4.96127,2.78579 l 0.0704,0.0551 0.3883,0.25826 0.0759,0.0475 c 0.87598,0.52262 1.79773,0.96443 2.75245,1.32358 l 0.0325,0.0152 0.0343,0.0114 c 1.10768,0.39007 2.27531,0.58132 3.4496,0.57349 2.73976,-0.0121 5.31736,-1.31538 6.95698,-3.50929 0.39043,-0.50694 0.64798,-1.07859 0.93735,-1.63502 v 17.8769 c -0.44735,-0.8605 -0.95917,-1.69155 -1.546,-2.47625 l -0.0415,-0.057 -0.0433,-0.0551 c -2.43383,-2.98043 -5.57543,-5.30506 -9.13511,-6.76603 -4.10606,-1.70791 -8.36472,-3.02564 -12.71834,-3.93277 l 0.0596,0.0133 c -5.05358,-1.15291 -7.22429,-2.20601 -7.79138,-2.56551 l -0.0993,-0.0627 -0.0181,-0.0114 0.005,-0.0949 -0.0108,-0.188 c -0.0232,-0.47949 0.20549,-0.92436 0.60865,-1.18495 l 0.0415,-0.0266 0.0451,-0.0304 c 0.89713,-0.62109 2.66525,-1.18116 5.37125,-1.18116 z m 47.32806,0.88872 h 4.12145 c 5.32534,0 8.56829,1.20254 10.58357,3.25103 2.01528,2.04849 3.22925,5.40621 3.22925,10.88299 0,5.47678 -1.21558,8.86235 -3.23647,10.93047 -2.02088,2.06812 -5.25838,3.27952 -10.57635,3.27952 h -4.12145 z m -74.50399,1.44131 -0.0849,0.11014 c 0.0171,-0.0211 0.0209,-0.0491 0.0379,-0.0703 0.0126,-0.0167 0.0345,-0.0231 0.047,-0.0399 z m 9.43852,0.15382 c -6.3e-4,0.0266 0.007,0.0513 0.007,0.0779 4.9e-4,0.0279 -0.008,0.0538 -0.007,0.0817 z m -51.53981,0.004 c -5.7e-4,0.0253 0.009,0.0488 0.009,0.0741 4.5e-4,0.0266 -0.009,0.0514 -0.009,0.0779 z m 57.08806,10.09112 c 0.0121,0.008 0.0311,0.0114 0.0433,0.019 0.0146,0.009 0.0251,0.0237 0.0397,0.0323 z m -51.5344,0.004 c 0.0121,0.008 0.0293,0.0114 0.0415,0.019 0.0109,0.007 0.0197,0.0182 0.0307,0.0247 z m 23.08338,5.3475 0.1499,0.0798 c -0.0253,-0.0143 -0.0631,-0.0219 -0.0885,-0.0361 -0.0225,-0.0114 -0.0388,-0.0324 -0.0614,-0.0437 z m 51.58677,0.004 0.14449,0.0779 c -0.0248,-0.014 -0.0635,-0.0241 -0.0885,-0.038 -0.0208,-0.0106 -0.0351,-0.0294 -0.056,-0.0399 z m -35.12806,9.32205 v 0.14622 c 8e-4,-0.0269 -0.005,-0.0529 -0.004,-0.0798 -2.4e-4,-0.0223 0.004,-0.0442 0.004,-0.0665 z m 51.48022,0.038 -0.002,0.14622 c 6.4e-4,-0.0217 -0.004,-0.0429 -0.004,-0.0646 -2.8e-4,-0.0276 0.005,-0.054 0.005,-0.0816 z m -54.14417,0.38359 c -0.0109,0.0138 -0.0128,0.0318 -0.0235,0.0456 -0.009,0.0113 -0.0223,0.0153 -0.0307,0.0266 z m -7.72636,0.0304 v 0.13863 c 2.2e-4,-0.0208 -0.007,-0.04 -0.007,-0.0608 -6.8e-4,-0.0266 0.008,-0.0513 0.007,-0.0779 z m 51.57051,0 0.002,0.13863 c 2.4e-4,-0.0235 -0.0108,-0.0449 -0.0108,-0.0684 -6.3e-4,-0.024 0.01,-0.0463 0.009,-0.0703 z m -57.35355,10.99503 -0.0289,0.019 c 0.005,-0.003 0.008,-0.008 0.0127,-0.0114 0.005,-0.003 0.0114,-0.005 0.0162,-0.008 z m 51.57052,0 -0.0289,0.019 c 0.005,-0.003 0.008,-0.008 0.0126,-0.0114 0.005,-0.003 0.0115,-0.005 0.0163,-0.008 z m -63.794,2.99658 c 0.007,-7e-5 0.0145,0.002 0.0217,0.002 h -0.0325 c 0.004,0 0.006,-0.002 0.0108,-0.002 z m 51.58316,0 c 0.007,-7e-5 0.0145,0.002 0.0217,0.002 h -0.0361 c 0.005,0 0.01,-0.002 0.0145,-0.002 z m -109.99146,33.54339 c -1.66078,0.003 -3.32466,0.7487 -4.34721,1.90087 -1.02255,1.15216 -1.4593,2.55831 -1.4593,3.91947 0,1.36115 0.43675,2.76731 1.4593,3.91948 1.02255,1.15216 2.68643,1.89565 4.34721,1.89897 h 0.005 0.002 c 1.78063,-3e-5 3.26949,0.50348 4.56394,1.24382 a 12.5,12.5 0 0 1 3.23106,3.23395 c 0.23173,0.39615 0.50907,0.7627 0.6863,1.19065 1.05085,2.53734 1.04711,5.40523 -0.43887,7.96998 a 12.5,12.5 0 0 1 -3.43334,3.43333 c -2.60649,1.58391 -5.53204,1.66411 -8.1237,0.59058 -0.42665,-0.17673 -0.79158,-0.45275 -1.18659,-0.68363 a 12.5,12.5 0 0 1 -3.23828,-3.23774 c -0.7386,-1.29362 -1.24091,-2.78249 -1.24077,-4.56132 0,-1.66317 -0.74328,-3.32937 -1.89638,-4.35434 -1.15309,-1.02498 -2.56199,-1.4641 -3.92459,-1.46411 -1.36261,0 -2.76969,0.43913 -3.92278,1.46411 -1.1531,1.02497 -1.89457,2.69117 -1.89457,4.35434 v 0.004 0.002 c 0.0125,11.45207 9.3647,20.80397 20.81676,20.8165 h 0.004 0.005 c 11.44034,-0.0259 20.77161,-9.37804 20.77161,-20.8184 0,-11.44037 -9.33127,-20.79435 -20.77161,-20.8203 h -0.005 z m 177.47887,0 c -1.66078,0.003 -3.32286,0.7487 -4.34541,1.90087 -1.02255,1.15216 -1.46111,2.55831 -1.46111,3.91947 0,1.36115 0.43856,2.76731 1.46111,3.91948 1.02255,1.15216 2.68463,1.89565 4.34541,1.89897 h 0.004 0.005 c 1.77933,-3e-5 3.26646,0.50447 4.56032,1.24382 a 12.5,12.5 0 0 1 3.23829,3.23774 c 0.23066,0.39481 0.50612,0.76051 0.68269,1.18686 1.05084,2.53734 1.04582,5.40523 -0.44068,7.96998 a 12.5,12.5 0 0 1 -3.43334,3.43333 c -2.60649,1.58391 -5.53204,1.66411 -8.1237,0.59058 -0.42561,-0.1763 -0.79065,-0.45154 -1.18478,-0.68173 a 12.5,12.5 0 0 1 -3.24009,-3.23964 c -0.7386,-1.29362 -1.24091,-2.78249 -1.24077,-4.56132 v -0.0285 -0.0285 c -0.0294,-1.64288 -0.78521,-3.2762 -1.93069,-4.28028 -1.14548,-1.00407 -2.53789,-1.43562 -3.88847,-1.43562 -1.35057,0 -2.74479,0.43155 -3.89027,1.43562 -1.14548,1.00408 -1.89768,2.6374 -1.92708,4.28028 v 0.0304 0.0304 c 0.0125,11.45124 9.36191,20.80279 20.81315,20.81651 h 0.005 0.005 c 11.44035,-0.0259 20.77161,-9.37805 20.77161,-20.81841 0,-11.44037 -9.33126,-20.79435 -20.77161,-20.8203 h -0.005 z"
         transform="matrix(1.0814228,0,0,1.0285184,-22.203503,7.0308644)" /><path
         id="path19"
         class="cls-1"
         d="M 15.879974,1.1199438 A 1.21,1.21 0 0 0 15.020082,1.4300632 L 6.4199708,9.240068 a 1.17,1.17 0 0 0 -0.3899471,0.829935 1.15,1.15 0 0 0 0.210037,0.690025 l -4.0700193,3.689944 a 1.6,1.6 0 0 0 -0.5199861,0.999973 1.42,1.42 0 0 0 0.3499481,1.110098 L 6.000067,20.929969 A 1.4,1.4 0 0 0 7.0000404,21.38 h 3.4999916 a 1,1 0 0 0 0.679982,-0.260078 l 2.430063,-2.209984 a 1.2,1.2 0 0 0 0.66994,0.270121 h 0.05991 a 1.18,1.18 0 0 0 0.800149,-0.31012 l 8.599941,-7.819877 a 1.18,1.18 0 0 0 0.08,-1.6801251 L 16.700037,1.5100611 A 1.13,1.13 0 0 0 15.879974,1.1199438 Z m -0.17991,1.0500146 a 0.16,0.16 0 0 1 0.119997,0 0.17,0.17 0 0 1 0.139911,0.050041 l 7.140065,7.8699186 a 0.2,0.2 0 0 1 0,0.260078 l -8.600111,7.820047 a 0.21,0.21 0 0 1 -0.26995,0 L 14.000024,17.880008 10.639943,14.180022 7.0800383,10.250084 a 0.19,0.19 0 0 1 0.010042,-0.250036 z m -0.0577,1.5391931 A 0.49,0.49 0 0 0 15.37003,3.8500839 l -4.370096,3.9699368 a 0.5,0.5 0 0 0 0.314545,0.8670407 0.5,0.5 0 0 0 0.315566,-0.1271455 l 4.439881,-3.9998935 a 0.5,0.5 0 0 0 0,-0.7099385 0.49,0.49 0 0 0 -0.427562,-0.1409324 z M 11.31448,8.6870614 a 0.5,0.5 0 0 1 -0.02451,0.00289 h 0.04 a 0.5,0.5 0 0 1 -0.01549,-0.00289 z M 9.8079656,9.0375202 A 0.50249378,0.50249378 0 0 0 9.4699321,9.1699422 L 8.7300369,9.840052 a 0.5,0.5 0 0 0 0,0.709939 0.49,0.49 0 0 0 0.3399058,0.159995 0.5,0.5 0 0 0 0.3400761,-0.130039 L 10.150084,9.9100076 A 0.50249378,0.50249378 0 0 0 9.8079656,9.0375202 Z m -2.9679209,2.4824868 6.0498813,6.659908 -2.399936,2.190069 0.330034,0.370033 -0.340076,-0.370033 H 7.0000404 A 0.37,0.37 0 0 1 6.689921,20.239945 L 2.7400688,15.889933 A 0.4,0.4 0 0 1 2.6500286,15.569942 0.58,0.58 0 0 1 2.839981,15.190037 Z M 23.500026,21.962453 a 0.5,0.5 0 0 0 -0.189952,0.03762 0.36,0.36 0 0 0 -0.159996,0.109954 0.5,0.5 0 0 0 0.349948,0.85002 0.43,0.43 0 0 0 0.189953,0 0.36,0.36 0 0 0 0.159996,-0.110125 0.48,0.48 0 0 0 0,-0.699896 0.36,0.36 0 0 0 -0.159996,-0.149953 0.5,0.5 0 0 0 -0.189953,-0.03762 z m -17.0000574,0.03762 a 0.5,0.5 0 0 0 0,0.999973 H 18.499989 a 0.5,0.5 0 0 0 0,-0.999973 z m 13.9999674,0 a 0.5,0.5 0 0 0 0,0.999973 h 1.000144 a 0.5,0.5 0 0 0 0,-0.999973 z"
         transform="matrix(11.474915,0,0,11.474915,129.87435,35.873349)"
         style="fill:url(#linearGradient22);fill-opacity:1" /></g></g></svg>
