<?xml version="1.0" encoding="UTF-8" standalone="no"?>
<!-- Generator: Adobe Illustrator 22.1.0, SVG Export Plug-In . SVG Version: 6.00 Build 0)  -->

<svg
   version="1.1"
   id="Layer_1"
   x="0px"
   y="0px"
   viewBox="0 0 226.50995 230.73457"
   xml:space="preserve"
   width="226.50995"
   height="230.73457"
   xmlns:xlink="http://www.w3.org/1999/xlink"
   xmlns="http://www.w3.org/2000/svg"
   xmlns:svg="http://www.w3.org/2000/svg"><defs
   id="defs5"><linearGradient
     id="linearGradient39"><stop
       style="stop-color:#ff3dfb;stop-opacity:0;"
       offset="0"
       id="stop39" /><stop
       style="stop-color:#ff3dfb;stop-opacity:1;"
       offset="1"
       id="stop38" /></linearGradient><linearGradient
     id="linearGradient36"><stop
       style="stop-color:#ff3dfb;stop-opacity:0;"
       offset="0"
       id="stop37" /><stop
       style="stop-color:#ff3dfb;stop-opacity:1;"
       offset="1"
       id="stop36" /></linearGradient><linearGradient
     id="linearGradient34"><stop
       style="stop-color:#00abff;stop-opacity:0;"
       offset="0"
       id="stop35" /><stop
       style="stop-color:#00abff;stop-opacity:1;"
       offset="1"
       id="stop34" /></linearGradient><linearGradient
     xlink:href="#linearGradient34"
     id="linearGradient35"
     x1="128"
     y1="274.92014"
     x2="128"
     y2="84.419785"
     gradientUnits="userSpaceOnUse" /><linearGradient
     xlink:href="#linearGradient36"
     id="linearGradient37"
     x1="130.08768"
     y1="275.44205"
     x2="130.08768"
     y2="79.722519"
     gradientUnits="userSpaceOnUse" /><linearGradient
     xlink:href="#linearGradient39"
     id="linearGradient38"
     x1="130.08768"
     y1="275.44205"
     x2="130.08768"
     y2="79.722519"
     gradientUnits="userSpaceOnUse" /><filter
     style="color-interpolation-filters:sRGB"
     id="filter39"
     x="-0.029054144"
     y="-0.025217136"
     width="1.0581083"
     height="1.0504343"><feGaussianBlur
       stdDeviation="2.572519"
       id="feGaussianBlur39" /></filter><filter
     style="color-interpolation-filters:sRGB"
     id="filter40"
     x="-0.050555989"
     y="-0.050555987"
     width="1.101112"
     height="1.101112"><feGaussianBlur
       stdDeviation="2.572519"
       id="feGaussianBlur40" /></filter><filter
     style="color-interpolation-filters:sRGB"
     id="filter41"
     x="-0.027265517"
     y="-0.026739604"
     width="1.054531"
     height="1.0534792"><feGaussianBlur
       stdDeviation="2.8108769"
       id="feGaussianBlur41" /></filter></defs>
<style
   type="text/css"
   id="style1">
	.st0{fill:#D73735;}
	.st1{fill:#F85252;}
	.st2{fill:#EDAF85;}
	.st3{fill:#F7C09A;}
	.st4{fill:#D8D6D7;}
	.st5{fill:#FFFFFF;}
	.st6{fill:#1C868E;}
	.st7{fill:#40C4DF;}
	.st8{fill:#491352;}
	.st9{fill:#56C1B3;}
	.st10{fill:#7BEFE4;}
</style>

<g
   id="g41"
   transform="translate(-14.971577,-14.897358)"><g
     id="path3"
     class="st8"
     style="display:inline"
     transform="matrix(0.86813773,0,0,0.86813773,17.10492,19.143858)"><path
       id="XMLID_601_"
       class="st1"
       d="m 128.00002,5.5824971 a 8,8 0 0 0 -8.00025,8.0002429 8,8 0 0 0 8.00025,8.000242 8,8 0 0 0 8.00024,-8.000242 8,8 0 0 0 -8.00024,-8.0002429 z m 98.00072,79.1677559 a 8,8 0 0 0 -8.00024,8.000242 8,8 0 0 0 8.00024,8.000245 8,8 0 0 0 8.00024,-8.000245 8,8 0 0 0 -8.00024,-8.000242 z M 29.49984,155.41606 a 8,8 0 0 0 -8.000243,8.00025 8,8 0 0 0 8.000243,8.00024 8,8 0 0 0 8.000242,-8.00024 8,8 0 0 0 -8.000242,-8.00025 z m 63.16727,79.00127 a 8,8 0 0 0 -8.000243,8.00025 8,8 0 0 0 8.000243,8.00024 8,8 0 0 0 8.00024,-8.00024 8,8 0 0 0 -8.00024,-8.00025 z"
       style="opacity:0.6;fill:#ff3dfb;fill-opacity:1;filter:url(#filter39)" /><path
       id="path7"
       style="opacity:0.6;fill:#ff3dfb;fill-opacity:1;filter:url(#filter40)"
       d="m 75.667719,67.021931 c -4.797031,0 -8.729174,3.932144 -8.729174,8.729174 V 180.41795 c 0,4.79703 3.932143,8.72692 8.729174,8.72692 H 180.33456 c 4.79703,0 8.72692,-3.92989 8.72692,-8.72692 V 75.751105 c -10e-4,-4.796788 -3.93214,-8.729174 -8.72917,-8.729174 z m 0,7.455794 H 180.33456 c 0.71661,0 1.27113,0.556771 1.27113,1.27338 v 102.939005 1.72784 c 0,0.71661 -0.55677,1.27113 -1.27338,1.27113 H 75.667719 c -0.716609,0 -1.273379,-0.55452 -1.273379,-1.27113 V 75.751105 c 0,-0.716609 0.55677,-1.27338 1.273379,-1.27338 z" /><path
       id="path9"
       style="opacity:0.6;fill:#00abff;filter:url(#filter41)"
       d="m 128.00002,1.8546 c -6.45114,0 -11.72814,5.2792496 -11.72814,11.73039 0,5.125099 3.38871,9.360736 8.00024,10.945213 V 52.355569 H 96.395007 V 21.582982 c 0,-1.096492 -0.478474,-2.137806 -1.210385,-2.782986 -0.731912,-0.64518 -1.636812,-0.926472 -2.517512,-0.926912 -0.8807,-4.4e-4 -1.784991,0.281439 -2.517512,0.926912 -0.732522,0.645474 -1.210385,1.686153 -1.210385,2.782986 V 52.355569 H 60.999108 c -4.79703,0 -8.726924,3.932144 -8.726924,8.729174 v 27.937855 h -33.2721 c -1.096492,0 -2.137807,0.478474 -2.782987,1.210386 -0.64518,0.731912 -0.926472,1.636811 -0.926912,2.517511 -4.41e-4,0.8807 0.281439,1.784991 0.926912,2.517512 0.645473,0.732521 1.686154,1.210385 2.782987,1.210385 h 33.2721 V 124.3555 H 8.0008748 c -1.096492,0 -2.1378064,0.47847 -2.7829866,1.21039 -0.6451802,0.73191 -0.9287217,1.63456 -0.929162,2.51526 -4.403e-4,0.8807 0.2836887,1.78499 0.929162,2.51751 0.6454733,0.73252 1.6861536,1.21264 2.7829866,1.21264 H 52.272184 v 27.87711 H 40.447303 c -1.584477,-4.61153 -5.822365,-8.00024 -10.947463,-8.00024 -6.451139,0 -11.72814,5.277 -11.72814,11.72814 0,6.45113 5.277001,11.72814 11.72814,11.72814 5.125098,0 9.362986,-3.38871 10.947463,-8.00025 h 11.824881 v 27.93786 c 0,4.79703 3.929894,8.72917 8.726924,8.72917 h 27.940105 v 27.65663 c -4.61187,1.58429 -8.000243,5.82213 -8.000243,10.94747 0,6.45113 5.277001,11.72814 11.72814,11.72814 6.451138,0 11.72814,-5.27701 11.72814,-11.72814 0,-5.12534 -3.38837,-9.36318 -8.000243,-10.94747 v -27.65663 h 27.877113 v 20.27058 c 0,2.03887 1.68903,3.7279 3.7279,3.7279 2.03887,0 3.72789,-1.68903 3.72789,-3.7279 v -20.27058 h 27.87711 v 44.27131 c 0,1.09649 0.47847,2.13781 1.21039,2.78299 0.73191,0.64518 1.63681,0.92647 2.51751,0.92691 0.8807,4.4e-4 1.78499,-0.27919 2.51751,-0.92466 0.73252,-0.64548 1.21039,-1.68841 1.21039,-2.78524 v -44.27131 h 27.9401 c 4.79703,0 8.72693,-3.93214 8.72693,-8.72917 V 167.1442 h 26.27301 c 1.09649,0 2.13781,-0.47846 2.78299,-1.21038 0.64518,-0.73191 0.92647,-1.63681 0.92691,-2.51751 4.4e-4,-0.8807 -0.28143,-1.785 -0.92691,-2.51752 -0.64547,-0.73252 -1.68616,-1.21038 -2.78299,-1.21038 H 203.72785 V 131.8113 h 44.27131 c 1.09649,0 2.1378,-0.48073 2.78298,-1.21264 0.64518,-0.73191 0.92872,-1.63456 0.92916,-2.51526 4.4e-4,-0.8807 -0.28368,-1.78499 -0.92916,-2.51751 -0.64547,-0.73252 -1.68615,-1.21039 -2.78298,-1.21039 H 203.72785 V 96.478392 h 11.32542 c 1.58448,4.611538 5.82237,8.000248 10.94747,8.000248 6.45114,0 11.72814,-5.277006 11.72814,-11.728145 0,-6.451139 -5.277,-11.728139 -11.72814,-11.728139 -5.1251,0 -9.36299,3.388708 -10.94747,8.000242 H 203.72785 V 61.082493 c 0,-4.79703 -3.9299,-8.726924 -8.72693,-8.726924 h -27.9401 V 32.082738 c 0,-2.038868 -1.68903,-3.727897 -3.7279,-3.727897 -2.03887,0 -3.7279,1.689029 -3.7279,3.727897 V 52.355569 H 131.72791 V 24.530203 c 4.61153,-1.584477 8.00024,-5.820114 8.00024,-10.945213 0,-6.4511404 -5.27699,-11.73039 -11.72813,-11.73039 z m 0.0112,3.6851512 a 8.0268864,8.0268864 0 0 1 8.02724,8.0272398 8.0268864,8.0268864 0 0 1 -8.02724,8.02724 8.0268864,8.0268864 0 0 1 -8.02499,-8.02724 8.0268864,8.0268864 0 0 1 8.02499,-8.0272398 z M 60.999108,59.811364 H 195.00092 c 0.71661,0 1.27113,0.554521 1.27113,1.271129 V 195.08206 c 0,0.71661 -0.55452,1.27338 -1.27113,1.27338 H 60.999108 c -0.716609,0 -1.27113,-0.55677 -1.27113,-1.27338 V 61.082493 c 0,-0.716608 0.554521,-1.271129 1.27113,-1.271129 z M 225.97599,84.761502 a 8.0268864,8.0268864 0 0 1 8.02724,8.02724 8.0268864,8.0268864 0 0 1 -8.02724,8.027238 8.0268864,8.0268864 0 0 1 -8.02724,-8.027238 8.0268864,8.0268864 0 0 1 8.02724,-8.02724 z M 29.472842,155.41606 a 8.0268864,8.0268864 0 0 1 8.02724,8.02724 8.0268864,8.0268864 0 0 1 -8.02724,8.02724 8.0268864,8.0268864 0 0 1 -8.02724,-8.02724 8.0268864,8.0268864 0 0 1 8.02724,-8.02724 z m 63.225765,78.94278 a 8.0268864,8.0268864 0 0 1 8.027243,8.02724 8.0268864,8.0268864 0 0 1 -8.027243,8.02724 8.0268864,8.0268864 0 0 1 -8.02724,-8.02724 8.0268864,8.0268864 0 0 1 8.02724,-8.02724 z" /></g><g
     id="g25"
     class="st8"
     transform="matrix(0.86813773,0,0,0.86813773,17.10492,19.143858)"><path
       id="path23"
       class="st1"
       d="m 128.00002,5.5824971 a 8,8 0 0 0 -8.00025,8.0002429 8,8 0 0 0 8.00025,8.000242 8,8 0 0 0 8.00024,-8.000242 8,8 0 0 0 -8.00024,-8.0002429 z m 98.00072,79.1677559 a 8,8 0 0 0 -8.00024,8.000242 8,8 0 0 0 8.00024,8.000245 8,8 0 0 0 8.00024,-8.000245 8,8 0 0 0 -8.00024,-8.000242 z M 29.49984,155.41606 a 8,8 0 0 0 -8.000243,8.00025 8,8 0 0 0 8.000243,8.00024 8,8 0 0 0 8.000242,-8.00024 8,8 0 0 0 -8.000242,-8.00025 z m 63.16727,79.00127 a 8,8 0 0 0 -8.000243,8.00025 8,8 0 0 0 8.000243,8.00024 8,8 0 0 0 8.00024,-8.00024 8,8 0 0 0 -8.00024,-8.00025 z"
       style="fill:url(#linearGradient38);fill-opacity:1" /><path
       id="path24"
       style="fill:url(#linearGradient37);fill-opacity:1"
       d="m 75.667719,67.021931 c -4.797031,0 -8.729174,3.932144 -8.729174,8.729174 V 180.41795 c 0,4.79703 3.932143,8.72692 8.729174,8.72692 H 180.33456 c 4.79703,0 8.72692,-3.92989 8.72692,-8.72692 V 75.751105 c -10e-4,-4.796788 -3.93214,-8.729174 -8.72917,-8.729174 z m 0,7.455794 H 180.33456 c 0.71661,0 1.27113,0.556771 1.27113,1.27338 v 102.939005 1.72784 c 0,0.71661 -0.55677,1.27113 -1.27338,1.27113 H 75.667719 c -0.716609,0 -1.273379,-0.55452 -1.273379,-1.27113 V 75.751105 c 0,-0.716609 0.55677,-1.27338 1.273379,-1.27338 z" /><path
       id="path25"
       style="opacity:1;fill:url(#linearGradient35);fill-opacity:1"
       d="m 128.00002,1.8546 c -6.45114,0 -11.72814,5.2792496 -11.72814,11.73039 0,5.125099 3.38871,9.360736 8.00024,10.945213 V 52.355569 H 96.395007 V 21.582982 c 0,-1.096492 -0.478474,-2.137806 -1.210385,-2.782986 -0.731912,-0.64518 -1.636812,-0.926472 -2.517512,-0.926912 -0.8807,-4.4e-4 -1.784991,0.281439 -2.517512,0.926912 -0.732522,0.645474 -1.210385,1.686153 -1.210385,2.782986 V 52.355569 H 60.999108 c -4.79703,0 -8.726924,3.932144 -8.726924,8.729174 v 27.937855 h -33.2721 c -1.096492,0 -2.137807,0.478474 -2.782987,1.210386 -0.64518,0.731912 -0.926472,1.636811 -0.926912,2.517511 -4.41e-4,0.8807 0.281439,1.784991 0.926912,2.517512 0.645473,0.732521 1.686154,1.210385 2.782987,1.210385 h 33.2721 V 124.3555 H 8.0008748 c -1.096492,0 -2.1378064,0.47847 -2.7829866,1.21039 -0.6451802,0.73191 -0.9287217,1.63456 -0.929162,2.51526 -4.403e-4,0.8807 0.2836887,1.78499 0.929162,2.51751 0.6454733,0.73252 1.6861536,1.21264 2.7829866,1.21264 H 52.272184 v 27.87711 H 40.447303 c -1.584477,-4.61153 -5.822365,-8.00024 -10.947463,-8.00024 -6.451139,0 -11.72814,5.277 -11.72814,11.72814 0,6.45113 5.277001,11.72814 11.72814,11.72814 5.125098,0 9.362986,-3.38871 10.947463,-8.00025 h 11.824881 v 27.93786 c 0,4.79703 3.929894,8.72917 8.726924,8.72917 h 27.940105 v 27.65663 c -4.61187,1.58429 -8.000243,5.82213 -8.000243,10.94747 0,6.45113 5.277001,11.72814 11.72814,11.72814 6.451138,0 11.72814,-5.27701 11.72814,-11.72814 0,-5.12534 -3.38837,-9.36318 -8.000243,-10.94747 v -27.65663 h 27.877113 v 20.27058 c 0,2.03887 1.68903,3.7279 3.7279,3.7279 2.03887,0 3.72789,-1.68903 3.72789,-3.7279 v -20.27058 h 27.87711 v 44.27131 c 0,1.09649 0.47847,2.13781 1.21039,2.78299 0.73191,0.64518 1.63681,0.92647 2.51751,0.92691 0.8807,4.4e-4 1.78499,-0.27919 2.51751,-0.92466 0.73252,-0.64548 1.21039,-1.68841 1.21039,-2.78524 v -44.27131 h 27.9401 c 4.79703,0 8.72693,-3.93214 8.72693,-8.72917 V 167.1442 h 26.27301 c 1.09649,0 2.13781,-0.47846 2.78299,-1.21038 0.64518,-0.73191 0.92647,-1.63681 0.92691,-2.51751 4.4e-4,-0.8807 -0.28143,-1.785 -0.92691,-2.51752 -0.64547,-0.73252 -1.68616,-1.21038 -2.78299,-1.21038 H 203.72785 V 131.8113 h 44.27131 c 1.09649,0 2.1378,-0.48073 2.78298,-1.21264 0.64518,-0.73191 0.92872,-1.63456 0.92916,-2.51526 4.4e-4,-0.8807 -0.28368,-1.78499 -0.92916,-2.51751 -0.64547,-0.73252 -1.68615,-1.21039 -2.78298,-1.21039 H 203.72785 V 96.478392 h 11.32542 c 1.58448,4.611538 5.82237,8.000248 10.94747,8.000248 6.45114,0 11.72814,-5.277006 11.72814,-11.728145 0,-6.451139 -5.277,-11.728139 -11.72814,-11.728139 -5.1251,0 -9.36299,3.388708 -10.94747,8.000242 H 203.72785 V 61.082493 c 0,-4.79703 -3.9299,-8.726924 -8.72693,-8.726924 h -27.9401 V 32.082738 c 0,-2.038868 -1.68903,-3.727897 -3.7279,-3.727897 -2.03887,0 -3.7279,1.689029 -3.7279,3.727897 V 52.355569 H 131.72791 V 24.530203 c 4.61153,-1.584477 8.00024,-5.820114 8.00024,-10.945213 0,-6.4511404 -5.27699,-11.73039 -11.72813,-11.73039 z m 0.0112,3.6851512 a 8.0268864,8.0268864 0 0 1 8.02724,8.0272398 8.0268864,8.0268864 0 0 1 -8.02724,8.02724 8.0268864,8.0268864 0 0 1 -8.02499,-8.02724 8.0268864,8.0268864 0 0 1 8.02499,-8.0272398 z M 60.999108,59.811364 H 195.00092 c 0.71661,0 1.27113,0.554521 1.27113,1.271129 V 195.08206 c 0,0.71661 -0.55452,1.27338 -1.27113,1.27338 H 60.999108 c -0.716609,0 -1.27113,-0.55677 -1.27113,-1.27338 V 61.082493 c 0,-0.716608 0.554521,-1.271129 1.27113,-1.271129 z M 225.97599,84.761502 a 8.0268864,8.0268864 0 0 1 8.02724,8.02724 8.0268864,8.0268864 0 0 1 -8.02724,8.027238 8.0268864,8.0268864 0 0 1 -8.02724,-8.027238 8.0268864,8.0268864 0 0 1 8.02724,-8.02724 z M 29.472842,155.41606 a 8.0268864,8.0268864 0 0 1 8.02724,8.02724 8.0268864,8.0268864 0 0 1 -8.02724,8.02724 8.0268864,8.0268864 0 0 1 -8.02724,-8.02724 8.0268864,8.0268864 0 0 1 8.02724,-8.02724 z m 63.225765,78.94278 a 8.0268864,8.0268864 0 0 1 8.027243,8.02724 8.0268864,8.0268864 0 0 1 -8.027243,8.02724 8.0268864,8.0268864 0 0 1 -8.02724,-8.02724 8.0268864,8.0268864 0 0 1 8.02724,-8.02724 z" /></g></g></svg>
