<?xml version="1.0" encoding="UTF-8" standalone="no"?>
<!-- Creator: CorelDRAW -->

<svg
   xml:space="preserve"
   width="1757.0823"
   height="1699.9142"
   style="clip-rule:evenodd;fill-rule:evenodd;image-rendering:optimizeQuality;shape-rendering:geometricPrecision;text-rendering:geometricPrecision"
   viewBox="0 0 1757.0823 1699.9142"
   version="1.1"
   id="svg4"
   xmlns:xlink="http://www.w3.org/1999/xlink"
   xmlns="http://www.w3.org/2000/svg"
   xmlns:svg="http://www.w3.org/2000/svg">
 <defs
   id="defs1"><linearGradient
     id="linearGradient23"><stop
       style="stop-color:#ff3dfb;stop-opacity:0;"
       offset="0"
       id="stop26" /><stop
       style="stop-color:#ff3dfb;stop-opacity:1;"
       offset="1"
       id="stop25" /></linearGradient><linearGradient
     id="linearGradient16"><stop
       style="stop-color:#00abff;stop-opacity:0;"
       offset="0"
       id="stop17" /><stop
       style="stop-color:#00abff;stop-opacity:1;"
       offset="1"
       id="stop16" /></linearGradient><style
     type="text/css"
     id="style1">
   <![CDATA[
    .fil0 {fill:none}
    .fil1 {fill:#7A7A7A}
    .fil5 {fill:#979797}
    .fil6 {fill:#CDCDCD}
    .fil4 {fill:#CECECE}
    .fil2 {fill:#E7E7E7}
    .fil3 {fill:#E8E8E8}
    .fil7 {fill:#555555;fill-rule:nonzero}
    .fil8 {fill:#767676;fill-rule:nonzero}
   ]]>
  </style><linearGradient
     xlink:href="#linearGradient16"
     id="linearGradient17"
     x1="1030.3684"
     y1="2045.3583"
     x2="1030.3684"
     y2="717.66956"
     gradientUnits="userSpaceOnUse" /><linearGradient
     xlink:href="#linearGradient23"
     id="linearGradient26"
     x1="1040.6208"
     y1="2070.9893"
     x2="1040.6208"
     y2="692.03857"
     gradientUnits="userSpaceOnUse" /><filter
     style="color-interpolation-filters:sRGB"
     id="filter26"
     x="-0.022406113"
     y="-0.03396347"
     width="1.0448122"
     height="1.0679269"><feGaussianBlur
       stdDeviation="13.301861"
       id="feGaussianBlur26" /></filter><filter
     style="color-interpolation-filters:sRGB"
     id="filter27"
     x="-0.026537456"
     y="-0.027478955"
     width="1.0530749"
     height="1.0549579"><feGaussianBlur
       stdDeviation="18.449341"
       id="feGaussianBlur27" /></filter></defs>
 
<g
   id="g27"
   transform="translate(-145.45791,-174.04189)"><g
     id="g8"
     style="clip-rule:evenodd;display:inline;fill-rule:evenodd;image-rendering:optimizeQuality;shape-rendering:geometricPrecision;text-rendering:geometricPrecision">
  <metadata
   id="metadata4" />
  
  <path
   id="path11"
   style="clip-rule:nonzero;opacity:0.6;fill:#00abff;fill-rule:nonzero;filter:url(#filter27);image-rendering:optimizeQuality;shape-rendering:auto;text-rendering:geometricPrecision"
   d="M 189.73633,218.32031 V 1829.6777 H 1858.2617 V 218.32031 Z M 276.4375,368.70898 H 1771.0449 V 1738.1641 H 276.4375 Z" /><path
   id="path27"
   style="font-size:200px;font-family:'DejaVu Serif';-inkscape-font-specification:'DejaVu Serif';white-space:pre;clip-rule:evenodd;display:inline;opacity:0.6;fill:#ff3dfb;fill-opacity:1;fill-rule:evenodd;stroke-width:18.866;stroke-linejoin:bevel;filter:url(#filter26);image-rendering:optimizeQuality;shape-rendering:geometricPrecision;text-rendering:geometricPrecision"
   d="m 1598.0039,264.8457 c -15.7711,0 -28.6777,12.89269 -28.6777,28.67774 0,15.77474 12.903,28.67773 28.6777,28.67773 15.7747,0 28.6777,-12.90299 28.6777,-28.67773 0,-15.78505 -12.9066,-28.67774 -28.6777,-28.67774 z m 71.0313,0 c -15.7712,0 -28.6778,12.89269 -28.6778,28.67774 0,15.77474 12.903,28.67773 28.6778,28.67773 15.7747,0 28.6777,-12.90299 28.6777,-28.67773 0,-15.78505 -12.9066,-28.67774 -28.6777,-28.67774 z m 71.0293,0 c -15.7721,0 -28.6778,12.89269 -28.6778,28.67774 0,15.77569 12.9024,28.67773 28.6778,28.67773 15.7734,0 28.6757,-12.90204 28.6757,-28.67773 0,-15.78505 -12.9056,-28.67774 -28.6757,-28.67774 z M 343.92969,519.85352 v 69.60156 L 768.90625,744.62305 343.92969,898.97461 v 69.60156 l 524.875,-190.38086 v -67.96289 z m 613.71875,652.20308 v 32.7539 h 419.24416 v -32.7539 z" />
  
  
  
  
  
  
 </g><g
     id="g16"
     style="clip-rule:evenodd;fill-rule:evenodd;image-rendering:optimizeQuality;shape-rendering:geometricPrecision;text-rendering:geometricPrecision">
  <metadata
   id="metadata12" />
  
  <path
   id="path12"
   style="clip-rule:nonzero;fill:url(#linearGradient17);fill-opacity:1;fill-rule:nonzero;image-rendering:optimizeQuality;shape-rendering:auto;text-rendering:geometricPrecision"
   d="M 189.73633,218.32031 V 1829.6777 H 1858.2617 V 218.32031 Z M 276.4375,368.70898 H 1771.0449 V 1738.1641 H 276.4375 Z" /><path
   id="path13"
   style="font-size:200px;font-family:'DejaVu Serif';-inkscape-font-specification:'DejaVu Serif';white-space:pre;clip-rule:evenodd;display:inline;fill:url(#linearGradient26);fill-opacity:1;fill-rule:evenodd;stroke-width:18.866;stroke-linejoin:bevel;image-rendering:optimizeQuality;shape-rendering:geometricPrecision;text-rendering:geometricPrecision"
   d="m 1598.0039,264.8457 c -15.7711,0 -28.6777,12.89269 -28.6777,28.67774 0,15.77474 12.903,28.67773 28.6777,28.67773 15.7747,0 28.6777,-12.90299 28.6777,-28.67773 0,-15.78505 -12.9066,-28.67774 -28.6777,-28.67774 z m 71.0313,0 c -15.7712,0 -28.6778,12.89269 -28.6778,28.67774 0,15.77474 12.903,28.67773 28.6778,28.67773 15.7747,0 28.6777,-12.90299 28.6777,-28.67773 0,-15.78505 -12.9066,-28.67774 -28.6777,-28.67774 z m 71.0293,0 c -15.7721,0 -28.6778,12.89269 -28.6778,28.67774 0,15.77569 12.9024,28.67773 28.6778,28.67773 15.7734,0 28.6757,-12.90204 28.6757,-28.67773 0,-15.78505 -12.9056,-28.67774 -28.6757,-28.67774 z M 343.92969,519.85352 v 69.60156 L 768.90625,744.62305 343.92969,898.97461 v 69.60156 l 524.875,-190.38086 v -67.96289 z m 613.71875,652.20308 v 32.7539 h 419.24416 v -32.7539 z" />
  
  
  
  
  
  
 </g></g></svg>
