<?xml version="1.0" encoding="UTF-8" standalone="no"?>
<svg
   width="126.12505"
   height="114.6563"
   viewBox="0 0 126.12505 114.6563"
   version="1.1"
   id="svg3"
   xmlns:xlink="http://www.w3.org/1999/xlink"
   xmlns="http://www.w3.org/2000/svg"
   xmlns:svg="http://www.w3.org/2000/svg">
  <defs
     id="defs3">
    <linearGradient
       id="linearGradient8">
      <stop
         style="stop-color:#ff3dfb;stop-opacity:0;"
         offset="0"
         id="stop9" />
      <stop
         style="stop-color:#ff3dfb;stop-opacity:1;"
         offset="1"
         id="stop8" />
    </linearGradient>
    <linearGradient
       id="linearGradient6">
      <stop
         style="stop-color:#00abff;stop-opacity:0;"
         offset="0"
         id="stop7" />
      <stop
         style="stop-color:#00abff;stop-opacity:1;"
         offset="1"
         id="stop6" />
    </linearGradient>
    <linearGradient
       xlink:href="#linearGradient6"
       id="linearGradient7"
       x1="69.631622"
       y1="140.70316"
       x2="69.631622"
       y2="35.735966"
       gradientUnits="userSpaceOnUse" />
    <linearGradient
       xlink:href="#linearGradient8"
       id="linearGradient9"
       x1="71.818443"
       y1="140.97652"
       x2="71.818443"
       y2="33.822502"
       gradientUnits="userSpaceOnUse" />
    <filter
       style="color-interpolation-filters:sRGB"
       id="filter9"
       x="-0.025709302"
       y="-0.02842714"
       width="1.0514186"
       height="1.0568543">
      <feGaussianBlur
         stdDeviation="1.5117704"
         id="feGaussianBlur9" />
    </filter>
    <filter
       style="color-interpolation-filters:sRGB"
       id="filter10"
       x="-0.027"
       y="-0.027"
       width="1.054"
       height="1.054">
      <feGaussianBlur
         stdDeviation="0.52027875"
         id="feGaussianBlur10" />
    </filter>
  </defs>
  <g
     id="g10"
     transform="translate(-8.3105198,-8.3105197)">
    <g
       id="polygon2"
       style="display:inline;stroke:#000000;stroke-opacity:1"
       transform="matrix(0.85,0,0,0.85,12.144341,12.144342)">
      <polygon
         points="92.804,91.563 92.804,72.169 79.377,72.169 79.377,58.743 59.984,58.743 59.984,72.169 46.557,72.169 46.557,91.563 59.984,91.563 59.984,104.99 79.377,104.99 79.377,91.563 "
         fill="none"
         stroke="#000000"
         stroke-linecap="round"
         stroke-linejoin="round"
         stroke-width="4"
         id="polygon1"
         style="opacity:0.6;fill:#ff3dfb;fill-opacity:1;stroke:none;stroke-opacity:1;filter:url(#filter10)" />
      <path
         id="path5"
         style="opacity:0.6;fill:#00abff;stroke:none;stroke-linecap:round;stroke-linejoin:round;stroke-opacity:1;filter:url(#filter9)"
         d="M 36.854544,-0.88213029 C 35.273223,-0.88197218 33.973268,0.41798326 33.97311,1.9993035 V 16.610976 H 11.385794 c -6.7527345,0 -12.26792312,5.517488 -12.26792312,12.270221 v 85.602023 c 0,6.75274 5.51518852,12.26792 12.26792312,12.26792 H 127.97357 c 6.75273,0 12.27022,-5.51518 12.27022,-12.26792 V 28.881197 c 0,-6.752733 -5.51749,-12.270221 -12.27022,-12.270221 H 105.38855 V 1.9993035 c -1.6e-4,-1.58132024 -1.30241,-2.88127568 -2.88373,-2.88143379 z M 39.738275,4.8830351 H 99.623386 V 16.514469 H 45.241492 39.738275 Z M 11.385794,22.376142 h 0.57215 l 22.433364,22.431066 c 0.540219,0.540289 1.271812,0.845441 2.035846,0.845588 h 66.222426 c 0.76403,-1.48e-4 1.49792,-0.3053 2.03814,-0.845588 l 22.43337,-22.431066 h 0.85248 c 3.66168,0 6.50505,2.843379 6.50505,6.505055 v 85.602023 c 0,3.66168 -2.84337,6.50276 -6.50505,6.50276 H 11.385794 c -3.6616774,0 -6.5027577,-2.84108 -6.5027577,-6.50276 V 28.881197 c 0,-3.661676 2.8410803,-6.505055 6.5027577,-6.505055 z m 8.724724,0.0046 H 118.96622 L 101.45703,39.887631 H 37.622007 Z" />
    </g>
    <g
       id="g6"
       style="stroke:#000000;stroke-opacity:1"
       transform="matrix(0.85,0,0,0.85,12.144341,12.144342)">
      <polygon
         points="79.377,104.99 79.377,91.563 92.804,91.563 92.804,72.169 79.377,72.169 79.377,58.743 59.984,58.743 59.984,72.169 46.557,72.169 46.557,91.563 59.984,91.563 59.984,104.99 "
         fill="none"
         stroke="#000000"
         stroke-linecap="round"
         stroke-linejoin="round"
         stroke-width="4"
         id="polygon6"
         style="fill:url(#linearGradient9);fill-opacity:1;stroke:none;stroke-opacity:1" />
      <path
         id="path6"
         style="fill:url(#linearGradient7);fill-opacity:1;stroke:none;stroke-linecap:round;stroke-linejoin:round;stroke-opacity:1"
         d="M 36.854544,-0.88213029 C 35.273223,-0.88197218 33.973268,0.41798326 33.97311,1.9993035 V 16.610976 H 11.385794 c -6.7527345,0 -12.26792312,5.517488 -12.26792312,12.270221 v 85.602023 c 0,6.75274 5.51518852,12.26792 12.26792312,12.26792 H 127.97357 c 6.75273,0 12.27022,-5.51518 12.27022,-12.26792 V 28.881197 c 0,-6.752733 -5.51749,-12.270221 -12.27022,-12.270221 H 105.38855 V 1.9993035 c -1.6e-4,-1.58132024 -1.30241,-2.88127568 -2.88373,-2.88143379 z M 39.738275,4.8830351 H 99.623386 V 16.514469 H 45.241492 39.738275 Z M 11.385794,22.376142 h 0.57215 l 22.433364,22.431066 c 0.540219,0.540289 1.271812,0.845441 2.035846,0.845588 h 66.222426 c 0.76403,-1.48e-4 1.49792,-0.3053 2.03814,-0.845588 l 22.43337,-22.431066 h 0.85248 c 3.66168,0 6.50505,2.843379 6.50505,6.505055 v 85.602023 c 0,3.66168 -2.84337,6.50276 -6.50505,6.50276 H 11.385794 c -3.6616774,0 -6.5027577,-2.84108 -6.5027577,-6.50276 V 28.881197 c 0,-3.661676 2.8410803,-6.505055 6.5027577,-6.505055 z m 8.724724,0.0046 H 118.96622 L 101.45703,39.887631 H 37.622007 Z" />
    </g>
  </g>
</svg>
