<?xml version="1.0" encoding="UTF-8" standalone="no"?>
<svg
   width="29.255253"
   height="35.593414"
   version="1.1"
   viewBox="0 0 7.7403 9.4172394"
   id="svg43"
   xmlns:xlink="http://www.w3.org/1999/xlink"
   xmlns="http://www.w3.org/2000/svg"
   xmlns:svg="http://www.w3.org/2000/svg"
   xmlns:rdf="http://www.w3.org/1999/02/22-rdf-syntax-ns#"
   xmlns:cc="http://creativecommons.org/ns#"
   xmlns:dc="http://purl.org/dc/elements/1.1/">
  <defs
     id="defs21">
    <linearGradient
       id="linearGradient8">
      <stop
         style="stop-color:#ff3dfb;stop-opacity:0;"
         offset="0"
         id="stop9" />
      <stop
         style="stop-color:#ff3dfb;stop-opacity:1;"
         offset="1"
         id="stop8" />
    </linearGradient>
    <linearGradient
       id="linearGradient6">
      <stop
         style="stop-color:#00abff;stop-opacity:0;"
         offset="0"
         id="stop7" />
      <stop
         style="stop-color:#00abff;stop-opacity:1;"
         offset="1"
         id="stop6" />
    </linearGradient>
    <style
       type="text/css"
       id="style864" />
    <linearGradient
       xlink:href="#linearGradient6"
       id="linearGradient7"
       x1="5.4871745"
       y1="10.642599"
       x2="5.4871745"
       y2="4.3420272"
       gradientUnits="userSpaceOnUse" />
    <linearGradient
       xlink:href="#linearGradient8"
       id="linearGradient9"
       x1="14.226885"
       y1="37.213951"
       x2="14.226885"
       y2="15.277928"
       gradientUnits="userSpaceOnUse" />
    <filter
       style="color-interpolation-filters:sRGB"
       id="filter9"
       x="-0.030100854"
       y="-0.024478351"
       width="1.0602017"
       height="1.0489567">
      <feGaussianBlur
         stdDeviation="0.091566564"
         id="feGaussianBlur9" />
    </filter>
    <filter
       style="color-interpolation-filters:sRGB"
       id="filter10"
       x="-0.018618732"
       y="-0.049104524"
       width="1.0372375"
       height="1.098209">
      <feGaussianBlur
         stdDeviation="0.11725472"
         id="feGaussianBlur10" />
    </filter>
  </defs>
  <metadata
     id="metadata23">
    <rdf:RDF>
      <cc:Work
         rdf:about="">
        <dc:format>image/svg+xml</dc:format>
        <dc:type
           rdf:resource="http://purl.org/dc/dcmitype/StillImage" />
        <dc:title />
      </cc:Work>
    </rdf:RDF>
  </metadata>
  <g
     id="g10">
    <g
       id="g2"
       transform="translate(-1.4950839,-0.83297465)"
       style="display:inline">
      <path
         id="path4"
         style="-inkscape-font-specification:'Liberation Sans';opacity:0.6;fill:#ff3dfb;stroke-linejoin:round;filter:url(#filter10)"
         d="m 7.1514647,10.981965 a 0.40004001,0.40004001 0 0 0 -0.3277896,0.630084 l 1.5151163,2.167053 -1.5988847,2.307275 a 0.40004001,0.40004001 0 0 0 0.3296106,0.626442 H 7.9527282 A 0.40004001,0.40004001 0 0 0 8.287802,16.532535 l 0.9997582,-1.515116 0.9942948,1.515116 a 0.40004001,0.40004001 0 0 0 0.333253,0.180284 h 0.91599 a 0.40004001,0.40004001 0 0 0 0.327789,-0.628263 l -1.617095,-2.314559 1.511474,-2.157948 a 0.40004001,0.40004001 0 0 0 -0.327789,-0.630084 h -0.91599 a 0.40004001,0.40004001 0 0 0 -0.335074,0.185747 L 9.2875602,12.558997 8.3952441,11.165891 A 0.40004001,0.40004001 0 0 0 8.0583492,10.981965 Z m 9.8518983,0 a 0.40004001,0.40004001 0 0 0 -0.32779,0.630084 l 1.513296,2.167053 -1.595243,2.307275 a 0.40004001,0.40004001 0 0 0 0.32779,0.626442 h 0.885031 a 0.40004001,0.40004001 0 0 0 0.335074,-0.180284 l 0.999758,-1.513295 0.990653,1.513295 a 0.40004001,0.40004001 0 0 0 0.336895,0.180284 h 0.91599 a 0.40004001,0.40004001 0 0 0 0.32779,-0.628263 l -1.617096,-2.314559 1.511475,-2.157948 a 0.40004001,0.40004001 0 0 0 -0.32779,-0.630084 h -0.91599 a 0.40004001,0.40004001 0 0 0 -0.338716,0.185747 l -0.883211,1.391285 -0.894137,-1.393106 a 0.40004001,0.40004001 0 0 0 -0.335074,-0.183926 z"
         transform="matrix(0.28376664,0,0,0.28376664,1.3281188,0.14075327)" />
      <path
         id="path2"
         style="opacity:0.6;fill:#00abff;fill-opacity:1;stroke-width:0.132289;filter:url(#filter9)"
         d="M 5.3652344,1.0527344 C 4.4096715,1.0537048 3.4608416,1.4473615 2.7851563,2.1230469 2.1094709,2.7987322 1.7158141,3.7475621 1.7148437,4.703125 v 5.0214844 c -3.69e-5,0.1265976 0.086868,0.2492156 0.2070313,0.2890626 0.1201631,0.03985 0.2642302,-0.0059 0.3398438,-0.107422 L 3.109375,8.7773438 a 0.11475746,0.11475746 0 0 1 0.1953125,0.017578 L 3.8398438,9.861328 c 0.045769,0.092754 0.1411314,0.15863 0.2441406,0.167969 0.1030092,0.0093 0.2097806,-0.038083 0.2714843,-0.121094 L 5.2734375,8.6796875 a 0.11475746,0.11475746 0 0 1 0.1835937,0 L 6.3769531,9.90625 c 0.061704,0.083011 0.1684752,0.130433 0.2714844,0.121094 0.1030092,-0.0093 0.1983715,-0.075215 0.2441406,-0.167969 l 0.53125,-1.0644531 A 0.11475746,0.11475746 0 0 1 7.6191406,8.7773438 L 8.46875,9.90625 c 0.056394,0.075485 0.149916,0.121269 0.2441406,0.121094 0.1587828,-1.5e-4 0.3025846,-0.1439519 0.3027344,-0.3027346 V 4.703125 C 9.0146546,3.7475621 8.6209979,2.7987322 7.9453125,2.1230469 7.2696271,1.4473615 6.3207973,1.0537048 5.3652344,1.0527344 Z m 0,0.6074218 c 0.1494047,4.14e-5 -7.853e-4,-0.00346 0.1484375,0.00391 0.1492228,0.00737 0.00171,-0.00296 0.1503906,0.011719 0.1486817,0.01468 6.548e-4,-0.00438 0.1484375,0.017578 0.1477827,0.021955 -4.35e-5,-0.00379 0.1464844,0.025391 0.1465279,0.029178 -3.891e-4,-0.00313 0.1445312,0.033203 0.1449203,0.03633 0.00157,-0.00433 0.1445313,0.039063 0.1429639,0.043395 0.00191,-0.00348 0.1425781,0.046875 0.1406633,0.050355 6.478e-4,-0.00251 0.1386719,0.054687 0.138024,0.057194 0.00167,-0.00335 0.1367187,0.060547 0.1350525,0.063895 0.00106,-0.00404 0.1328125,0.066406 0.1317559,0.070442 0.00272,-0.0026 0.1308594,0.074219 0.128142,0.07682 7.803e-4,-0.00294 0.125,0.080078 0.1242197,0.083013 0.00305,-0.00307 0.1230469,0.085937 0.1199983,0.089006 0.0017,-0.00299 0.1171875,0.091797 0.1154881,0.094785 0.00258,-0.00268 0.1132812,0.097656 0.1106999,0.1003359 0.00178,-0.00213 0.1074219,0.1035156 0.1056451,0.105645 0.00318,-0.00328 0.1035156,0.1074219 0.100336,0.1106998 0.00287,-0.00221 0.097656,0.1132812 0.094785,0.1154881 0.00279,-0.00281 0.091797,0.1171875 0.089006,0.1199984 0.00292,-0.00117 0.085937,0.1230469 0.083013,0.1242197 0.00326,-0.00314 0.080078,0.125 0.07682,0.128142 0.00378,-8.965e-4 0.074219,0.1308594 0.070443,0.1317558 0.00251,-0.00224 0.066406,0.1328125 0.063895,0.1350525 0.00335,-0.00131 0.060547,0.1367187 0.057194,0.138024 0.00433,-0.00199 0.054687,0.1386719 0.050355,0.1406632 0.00348,-3.858e-4 0.046875,0.1425781 0.043395,0.1429639 0.00273,-3.891e-4 0.039063,0.1445313 0.03633,0.1449203 0.00403,-0.002 0.033203,0.1445312 0.029178,0.1465279 0.00344,-0.0013 0.025391,0.1464844 0.021955,0.1477827 0.0029,-2.442e-4 0.017578,0.1484375 0.01468,0.1486817 0.00435,0.00117 0.011719,0.1503906 0.00737,0.1492228 0.00386,-9.672e-4 0.00391,0.1484375 V 8.46875 A 0.11475746,0.11475746 0 0 1 8.2011719,8.5371094 L 7.6992187,7.8671875 C 7.6382344,7.784889 7.5316878,7.7386625 7.4296875,7.7480469 7.3274793,7.7573032 7.2316992,7.820446 7.1855469,7.9121094 H 7.1875 L 6.6542969,8.9804688 A 0.11475746,0.11475746 0 0 1 6.4589844,8.9980469 L 5.6074219,7.8671875 C 5.5511289,7.7919615 5.4591911,7.7460937 5.3652344,7.7460937 c -0.093957,0 -0.1878476,0.045868 -0.2441407,0.1210938 L 4.2734375,9 A 0.11475746,0.11475746 0 0 1 4.078125,8.9824219 L 3.546875,7.9140625 C 3.5006018,7.8211179 3.4042504,7.7566516 3.3007813,7.7480469 a 0.11475746,0.11475746 0 0 1 -0.00195,-0.00195 c -0.1023823,-0.01 -0.2084287,0.038341 -0.2695344,0.1210906 L 2.5273438,8.5371094 A 0.11475746,0.11475746 0 0 1 2.3203125,8.46875 V 4.703125 c 4.13e-5,-0.1493835 -0.00347,7.641e-4 0.00391,-0.1484375 0.00737,-0.1492016 -0.00297,-0.00173 0.011719,-0.1503906 0.014684,-0.1486601 -0.00438,-6.771e-4 0.017578,-0.1484375 0.021962,-0.1477604 -0.0038,2.03e-5 0.025391,-0.1464844 0.029186,-0.1465047 -0.00314,-0.00159 0.033203,-0.1464844 0.03634,-0.144896 -0.00434,3.601e-4 0.039063,-0.1425781 0.043406,-0.1429382 -0.00349,-0.00194 0.046875,-0.1425781 0.050368,-0.140636 -0.00252,-6.769e-4 0.054687,-0.1386719 0.057209,-0.137995 -0.00336,-0.0017 0.060547,-0.1367187 0.063911,-0.1350215 -0.00405,-0.00304 0.066406,-0.1347657 0.07046,-0.1317225 -0.00262,-7.999e-4 0.074219,-0.1289062 0.076839,-0.1281063 -0.00295,-0.00277 0.080078,-0.1269531 0.083033,-0.1241814 -0.00309,-0.00114 0.085937,-0.1210938 0.089026,-0.1199573 -0.00301,-0.00174 0.091797,-0.1171875 0.094805,-0.1154441 -0.0027,-0.00263 0.097656,-0.1132812 0.1003564,-0.1106529 -0.00215,-0.00378 0.1035156,-0.109375 0.1056654,-0.1055949 -0.0033,-0.00128 0.1074219,-0.1015625 0.1107197,-0.1002826 -0.00223,-0.00293 0.1132813,-0.097656 0.1155073,-0.094729 -8.76e-4,-0.00285 0.1191406,-0.091797 0.1200166,-0.088946 -0.00314,-0.00299 0.1210937,-0.085937 0.1242368,-0.08295 -0.0012,-0.00332 0.1269532,-0.080078 0.1281575,-0.076754 -0.00286,-0.00385 0.1289062,-0.074219 0.1317695,-0.070372 -2.984e-4,-0.00259 0.1347656,-0.066406 0.135064,-0.063821 -0.00131,-0.00343 0.1367188,-0.060547 0.1380331,-0.057117 -0.002,-0.00441 0.1386718,-0.054687 0.1406696,-0.050274 -3.89e-4,-0.00356 0.1425782,-0.046875 0.1429671,-0.043311 -0.00234,-0.00282 0.1425781,-0.039063 0.1449202,-0.036243 -3.98e-5,-0.00411 0.1464844,-0.033203 0.1465241,-0.029088 -0.00129,-0.00353 0.1464843,-0.025391 0.1477751,-0.021863 -2.323e-4,-0.00299 0.1484375,-0.017578 0.1486699,-0.014585 0.00118,-0.00445 0.1503907,-0.011719 0.1492064,-0.00727 -9.461e-4,-0.00396 0.1484375,-0.00391 z" />
    </g>
    <g
       id="g6"
       transform="translate(-1.4950839,-0.83297465)">
      <path
         id="path5"
         style="-inkscape-font-specification:'Liberation Sans';opacity:1;fill:url(#linearGradient9);fill-opacity:1;stroke-linejoin:round"
         d="m 7.1514647,10.981965 a 0.40004001,0.40004001 0 0 0 -0.3277896,0.630084 l 1.5151163,2.167053 -1.5988847,2.307275 a 0.40004001,0.40004001 0 0 0 0.3296106,0.626442 H 7.9527282 A 0.40004001,0.40004001 0 0 0 8.287802,16.532535 l 0.9997582,-1.515116 0.9942948,1.515116 a 0.40004001,0.40004001 0 0 0 0.333253,0.180284 h 0.91599 a 0.40004001,0.40004001 0 0 0 0.327789,-0.628263 l -1.617095,-2.314559 1.511474,-2.157948 a 0.40004001,0.40004001 0 0 0 -0.327789,-0.630084 h -0.91599 a 0.40004001,0.40004001 0 0 0 -0.335074,0.185747 L 9.2875602,12.558997 8.3952441,11.165891 A 0.40004001,0.40004001 0 0 0 8.0583492,10.981965 Z m 9.8518983,0 a 0.40004001,0.40004001 0 0 0 -0.32779,0.630084 l 1.513296,2.167053 -1.595243,2.307275 a 0.40004001,0.40004001 0 0 0 0.32779,0.626442 h 0.885031 a 0.40004001,0.40004001 0 0 0 0.335074,-0.180284 l 0.999758,-1.513295 0.990653,1.513295 a 0.40004001,0.40004001 0 0 0 0.336895,0.180284 h 0.91599 a 0.40004001,0.40004001 0 0 0 0.32779,-0.628263 l -1.617096,-2.314559 1.511475,-2.157948 a 0.40004001,0.40004001 0 0 0 -0.32779,-0.630084 h -0.91599 a 0.40004001,0.40004001 0 0 0 -0.338716,0.185747 l -0.883211,1.391285 -0.894137,-1.393106 a 0.40004001,0.40004001 0 0 0 -0.335074,-0.183926 z"
         transform="matrix(0.28376664,0,0,0.28376664,1.3281188,0.14075327)" />
      <path
         id="path6"
         style="fill:url(#linearGradient7);fill-opacity:1;stroke-width:0.132289"
         d="M 5.3652344,1.0527344 C 4.4096715,1.0537048 3.4608416,1.4473615 2.7851563,2.1230469 2.1094709,2.7987322 1.7158141,3.7475621 1.7148437,4.703125 v 5.0214844 c -3.69e-5,0.1265976 0.086868,0.2492156 0.2070313,0.2890626 0.1201631,0.03985 0.2642302,-0.0059 0.3398438,-0.107422 L 3.109375,8.7773438 a 0.11475746,0.11475746 0 0 1 0.1953125,0.017578 L 3.8398438,9.861328 c 0.045769,0.092754 0.1411314,0.15863 0.2441406,0.167969 0.1030092,0.0093 0.2097806,-0.038083 0.2714843,-0.121094 L 5.2734375,8.6796875 a 0.11475746,0.11475746 0 0 1 0.1835937,0 L 6.3769531,9.90625 c 0.061704,0.083011 0.1684752,0.130433 0.2714844,0.121094 0.1030092,-0.0093 0.1983715,-0.075215 0.2441406,-0.167969 l 0.53125,-1.0644531 A 0.11475746,0.11475746 0 0 1 7.6191406,8.7773438 L 8.46875,9.90625 c 0.056394,0.075485 0.149916,0.121269 0.2441406,0.121094 0.1587828,-1.5e-4 0.3025846,-0.1439519 0.3027344,-0.3027346 V 4.703125 C 9.0146546,3.7475621 8.6209979,2.7987322 7.9453125,2.1230469 7.2696271,1.4473615 6.3207973,1.0537048 5.3652344,1.0527344 Z m 0,0.6074218 c 0.1494047,4.14e-5 -7.853e-4,-0.00346 0.1484375,0.00391 0.1492228,0.00737 0.00171,-0.00296 0.1503906,0.011719 0.1486817,0.01468 6.548e-4,-0.00438 0.1484375,0.017578 0.1477827,0.021955 -4.35e-5,-0.00379 0.1464844,0.025391 0.1465279,0.029178 -3.891e-4,-0.00313 0.1445312,0.033203 0.1449203,0.03633 0.00157,-0.00433 0.1445313,0.039063 0.1429639,0.043395 0.00191,-0.00348 0.1425781,0.046875 0.1406633,0.050355 6.478e-4,-0.00251 0.1386719,0.054687 0.138024,0.057194 0.00167,-0.00335 0.1367187,0.060547 0.1350525,0.063895 0.00106,-0.00404 0.1328125,0.066406 0.1317559,0.070442 0.00272,-0.0026 0.1308594,0.074219 0.128142,0.07682 7.803e-4,-0.00294 0.125,0.080078 0.1242197,0.083013 0.00305,-0.00307 0.1230469,0.085937 0.1199983,0.089006 0.0017,-0.00299 0.1171875,0.091797 0.1154881,0.094785 0.00258,-0.00268 0.1132812,0.097656 0.1106999,0.1003359 0.00178,-0.00213 0.1074219,0.1035156 0.1056451,0.105645 0.00318,-0.00328 0.1035156,0.1074219 0.100336,0.1106998 0.00287,-0.00221 0.097656,0.1132812 0.094785,0.1154881 0.00279,-0.00281 0.091797,0.1171875 0.089006,0.1199984 0.00292,-0.00117 0.085937,0.1230469 0.083013,0.1242197 0.00326,-0.00314 0.080078,0.125 0.07682,0.128142 0.00378,-8.965e-4 0.074219,0.1308594 0.070443,0.1317558 0.00251,-0.00224 0.066406,0.1328125 0.063895,0.1350525 0.00335,-0.00131 0.060547,0.1367187 0.057194,0.138024 0.00433,-0.00199 0.054687,0.1386719 0.050355,0.1406632 0.00348,-3.858e-4 0.046875,0.1425781 0.043395,0.1429639 0.00273,-3.891e-4 0.039063,0.1445313 0.03633,0.1449203 0.00403,-0.002 0.033203,0.1445312 0.029178,0.1465279 0.00344,-0.0013 0.025391,0.1464844 0.021955,0.1477827 0.0029,-2.442e-4 0.017578,0.1484375 0.01468,0.1486817 0.00435,0.00117 0.011719,0.1503906 0.00737,0.1492228 0.00386,-9.672e-4 0.00391,0.1484375 V 8.46875 A 0.11475746,0.11475746 0 0 1 8.2011719,8.5371094 L 7.6992187,7.8671875 C 7.6382344,7.784889 7.5316878,7.7386625 7.4296875,7.7480469 7.3274793,7.7573032 7.2316992,7.820446 7.1855469,7.9121094 H 7.1875 L 6.6542969,8.9804688 A 0.11475746,0.11475746 0 0 1 6.4589844,8.9980469 L 5.6074219,7.8671875 C 5.5511289,7.7919615 5.4591911,7.7460937 5.3652344,7.7460937 c -0.093957,0 -0.1878476,0.045868 -0.2441407,0.1210938 L 4.2734375,9 A 0.11475746,0.11475746 0 0 1 4.078125,8.9824219 L 3.546875,7.9140625 C 3.5006018,7.8211179 3.4042504,7.7566516 3.3007813,7.7480469 a 0.11475746,0.11475746 0 0 1 -0.00195,-0.00195 c -0.1023823,-0.01 -0.2084287,0.038341 -0.2695344,0.1210906 L 2.5273438,8.5371094 A 0.11475746,0.11475746 0 0 1 2.3203125,8.46875 V 4.703125 c 4.13e-5,-0.1493835 -0.00347,7.641e-4 0.00391,-0.1484375 0.00737,-0.1492016 -0.00297,-0.00173 0.011719,-0.1503906 0.014684,-0.1486601 -0.00438,-6.771e-4 0.017578,-0.1484375 0.021962,-0.1477604 -0.0038,2.03e-5 0.025391,-0.1464844 0.029186,-0.1465047 -0.00314,-0.00159 0.033203,-0.1464844 0.03634,-0.144896 -0.00434,3.601e-4 0.039063,-0.1425781 0.043406,-0.1429382 -0.00349,-0.00194 0.046875,-0.1425781 0.050368,-0.140636 -0.00252,-6.769e-4 0.054687,-0.1386719 0.057209,-0.137995 -0.00336,-0.0017 0.060547,-0.1367187 0.063911,-0.1350215 -0.00405,-0.00304 0.066406,-0.1347657 0.07046,-0.1317225 -0.00262,-7.999e-4 0.074219,-0.1289062 0.076839,-0.1281063 -0.00295,-0.00277 0.080078,-0.1269531 0.083033,-0.1241814 -0.00309,-0.00114 0.085937,-0.1210938 0.089026,-0.1199573 -0.00301,-0.00174 0.091797,-0.1171875 0.094805,-0.1154441 -0.0027,-0.00263 0.097656,-0.1132812 0.1003564,-0.1106529 -0.00215,-0.00378 0.1035156,-0.109375 0.1056654,-0.1055949 -0.0033,-0.00128 0.1074219,-0.1015625 0.1107197,-0.1002826 -0.00223,-0.00293 0.1132813,-0.097656 0.1155073,-0.094729 -8.76e-4,-0.00285 0.1191406,-0.091797 0.1200166,-0.088946 -0.00314,-0.00299 0.1210937,-0.085937 0.1242368,-0.08295 -0.0012,-0.00332 0.1269532,-0.080078 0.1281575,-0.076754 -0.00286,-0.00385 0.1289062,-0.074219 0.1317695,-0.070372 -2.984e-4,-0.00259 0.1347656,-0.066406 0.135064,-0.063821 -0.00131,-0.00343 0.1367188,-0.060547 0.1380331,-0.057117 -0.002,-0.00441 0.1386718,-0.054687 0.1406696,-0.050274 -3.89e-4,-0.00356 0.1425782,-0.046875 0.1429671,-0.043311 -0.00234,-0.00282 0.1425781,-0.039063 0.1449202,-0.036243 -3.98e-5,-0.00411 0.1464844,-0.033203 0.1465241,-0.029088 -0.00129,-0.00353 0.1464843,-0.025391 0.1477751,-0.021863 -2.323e-4,-0.00299 0.1484375,-0.017578 0.1486699,-0.014585 0.00118,-0.00445 0.1503907,-0.011719 0.1492064,-0.00727 -9.461e-4,-0.00396 0.1484375,-0.00391 z" />
    </g>
  </g>
</svg>
