<?xml version="1.0" encoding="UTF-8" standalone="no"?>
<!-- Generator: Adobe Illustrator 16.0.0, SVG Export Plug-In . SVG Version: 6.00 Build 0)  -->

<svg
   version="1.1"
   id="Layer_1"
   x="0px"
   y="0px"
   width="94.677612"
   height="103.55968"
   viewBox="0 0 94.677612 103.55968"
   enable-background="new 0 0 128 128"
   xml:space="preserve"
   xmlns:xlink="http://www.w3.org/1999/xlink"
   xmlns="http://www.w3.org/2000/svg"
   xmlns:svg="http://www.w3.org/2000/svg"><defs
   id="defs10"><linearGradient
     id="linearGradient13"><stop
       style="stop-color:#ff3dfb;stop-opacity:0;"
       offset="0"
       id="stop14" /><stop
       style="stop-color:#ff3dfb;stop-opacity:1;"
       offset="1"
       id="stop13" /></linearGradient><linearGradient
     id="linearGradient11"><stop
       style="stop-color:#00abff;stop-opacity:0;"
       offset="0"
       id="stop12" /><stop
       style="stop-color:#00abff;stop-opacity:1;"
       offset="1"
       id="stop11" /></linearGradient><linearGradient
     xlink:href="#linearGradient11"
     id="linearGradient12"
     x1="71.76696"
     y1="128.79605"
     x2="71.76696"
     y2="47.737843"
     gradientUnits="userSpaceOnUse" /><linearGradient
     xlink:href="#linearGradient13"
     id="linearGradient14"
     x1="74.330063"
     y1="128.79605"
     x2="74.330063"
     y2="47.097065"
     gradientUnits="userSpaceOnUse" /><filter
     style="color-interpolation-filters:sRGB"
     id="filter14"
     x="-0.019738927"
     y="-0.042711753"
     width="1.0394779"
     height="1.0854235"><feGaussianBlur
       stdDeviation="0.51841355"
       id="feGaussianBlur14" /></filter><filter
     style="color-interpolation-filters:sRGB"
     id="filter15"
     x="-0.03192721"
     y="-0.023390265"
     width="1.0638544"
     height="1.0467805"><feGaussianBlur
       stdDeviation="0.96418203"
       id="feGaussianBlur15" /></filter></defs>

<g
   id="g15"
   transform="translate(-15.108703,-13.617452)"><g
     id="g10"
     style="display:inline"><path
       id="polygon1"
       style="opacity:0.6;fill:#00abff;fill-opacity:1;stroke-width:0.772904;filter:url(#filter15)"
       d="m 34.993762,15.931489 v 66.683594 h 3.091797 V 19.023286 h 42.621093 v -3.091797 z m 51.207031,0.990235 v 20.236328 h 20.673837 z m 3.091797,7.351562 10.003906,9.792969 H 89.29259 Z m -42.75,13.22461 v 3.091796 h 21.486328 v -3.091796 z m 57.83789,4.669921 V 111.77329 H 38.085559 v -0.0469 h -3.091797 v 3.13672 H 107.47228 V 42.167817 Z m -58.230468,8.394532 v 3.091797 h 45.613281 v -3.091797 z m 0,11.08789 v 3.091797 h 45.613281 v -3.091797 z m 0,11.085938 v 3.091797 h 45.613281 v -3.091797 z m 0,11.08789 v 3.091797 h 45.294922 v -3.091797 z" /><path
       d="m 53.419741,102.40275 1.731051,-1.73104 3.462086,3.4621 3.462066,-3.46212 3.462069,3.46212 3.462067,-3.46211 3.462082,3.4621 6.924163,-6.924173 -5.193116,-5.19313 -28.711069,3e-6 0.0017,-2.027059 A 7.530244,7.530244 0 0 0 38.139804,82.64636 l -14.443821,8e-6 a 7.3441911,7.3441911 0 0 0 -7.343087,7.343073 l 5e-6,14.443819 a 7.3588796,7.3588796 0 0 0 7.34308,7.34307 l 14.443818,1e-5 a 7.3588796,7.3588796 0 0 0 7.343085,-7.3431 l 3.4e-5,-2.02876 4.474734,-9.9e-4 z M 25.723053,98.940662 a 2.4480637,2.4480637 0 1 1 3.462087,1e-5 2.4480637,2.4480637 0 0 1 -3.462087,-1e-5 z"
       id="path1"
       style="opacity:0.6;fill:#ff3dfb;fill-opacity:1;stroke-width:2.44807;filter:url(#filter14)" /></g><g
     id="g11"><path
       id="path10"
       style="fill:url(#linearGradient12);fill-opacity:1;stroke-width:0.772904"
       d="m 34.993762,15.931489 v 66.683594 h 3.091797 V 19.023286 h 42.621093 v -3.091797 z m 51.207031,0.990235 v 20.236328 h 20.673837 z m 3.091797,7.351562 10.003906,9.792969 H 89.29259 Z m -42.75,13.22461 v 3.091796 h 21.486328 v -3.091796 z m 57.83789,4.669921 V 111.77329 H 38.085559 v -0.0469 h -3.091797 v 3.13672 H 107.47228 V 42.167817 Z m -58.230468,8.394532 v 3.091797 h 45.613281 v -3.091797 z m 0,11.08789 v 3.091797 h 45.613281 v -3.091797 z m 0,11.085938 v 3.091797 h 45.613281 v -3.091797 z m 0,11.08789 v 3.091797 h 45.294922 v -3.091797 z" /><path
       d="m 53.419741,102.40275 1.731051,-1.73104 3.462086,3.4621 3.462066,-3.46212 3.462069,3.46212 3.462067,-3.46211 3.462082,3.4621 6.924163,-6.924173 -5.193116,-5.19313 -28.711069,3e-6 0.0017,-2.027059 A 7.530244,7.530244 0 0 0 38.139804,82.64636 l -14.443821,8e-6 a 7.3441911,7.3441911 0 0 0 -7.343087,7.343073 l 5e-6,14.443819 a 7.3588796,7.3588796 0 0 0 7.34308,7.34307 l 14.443818,1e-5 a 7.3588796,7.3588796 0 0 0 7.343085,-7.3431 l 3.4e-5,-2.02876 4.474734,-9.9e-4 z M 25.723053,98.940662 a 2.4480637,2.4480637 0 1 1 3.462087,1e-5 2.4480637,2.4480637 0 0 1 -3.462087,-1e-5 z"
       id="path11"
       style="opacity:1;fill:url(#linearGradient14);fill-opacity:1;stroke-width:2.44807" /></g></g></svg>
