<?xml version="1.0" encoding="UTF-8" standalone="no"?>
<!-- Generator: Adobe Illustrator 16.0.0, SVG Export Plug-In . SVG Version: 6.00 Build 0)  -->

<svg
   version="1.1"
   id="Alien_1_"
   x="0px"
   y="0px"
   width="463.64432"
   height="433.10269"
   viewBox="0 0 463.64432 433.10269"
   enable-background="new 0 0 512 512"
   xml:space="preserve"
   xmlns:xlink="http://www.w3.org/1999/xlink"
   xmlns="http://www.w3.org/2000/svg"
   xmlns:svg="http://www.w3.org/2000/svg"><defs
   id="defs47"><linearGradient
     id="linearGradient7"><stop
       style="stop-color:#ff3dfb;stop-opacity:0;"
       offset="0"
       id="stop8" /><stop
       style="stop-color:#ff3dfb;stop-opacity:1;"
       offset="1"
       id="stop7" /></linearGradient><linearGradient
     id="linearGradient6"><stop
       style="stop-color:#00abff;stop-opacity:0;"
       offset="0"
       id="stop6" /><stop
       style="stop-color:#00abff;stop-opacity:1;"
       offset="1"
       id="stop5" /></linearGradient><linearGradient
     id="linearGradient3"><stop
       style="stop-color:#00abff;stop-opacity:0;"
       offset="0"
       id="stop4" /><stop
       style="stop-color:#00abff;stop-opacity:1;"
       offset="1"
       id="stop3" /></linearGradient><style
     id="style1">.cls-1{fill:#424242;}.cls-2{fill:#42a5f5;}</style><linearGradient
     xlink:href="#linearGradient3"
     id="linearGradient4"
     x1="390.25406"
     y1="799.32251"
     x2="390.25406"
     y2="324.58536"
     gradientUnits="userSpaceOnUse" /><linearGradient
     xlink:href="#linearGradient6"
     id="linearGradient5"
     x1="5.0319204"
     y1="53.688938"
     x2="5.0319204"
     y2="-18.210955"
     gradientUnits="userSpaceOnUse" /><linearGradient
     xlink:href="#linearGradient7"
     id="linearGradient8"
     x1="2.8936338"
     y1="53.154366"
     x2="2.8936338"
     y2="-15.270811"
     gradientUnits="userSpaceOnUse" /><filter
     style="color-interpolation-filters:sRGB"
     id="filter8"
     x="-0.02613724"
     y="-0.027921661"
     width="1.0522745"
     height="1.0558433"><feGaussianBlur
       stdDeviation="4.2210389"
       id="feGaussianBlur8" /></filter><filter
     style="color-interpolation-filters:sRGB"
     id="filter9"
     x="-0.023785768"
     y="-0.031218659"
     width="1.0475715"
     height="1.0624373"><feGaussianBlur
       stdDeviation="0.41625085"
       id="feGaussianBlur9" /></filter><filter
     style="color-interpolation-filters:sRGB"
     id="filter10"
     x="-0.024750019"
     y="-0.029699972"
     width="1.0495"
     height="1.0593999"><feGaussianBlur
       stdDeviation="0.49500329"
       id="feGaussianBlur10" /></filter></defs>




<g
   id="g10"
   transform="translate(-21.042024,-45.167629)"><g
     id="g499"
     transform="matrix(4.7946903,0,0,4.7946903,248.84425,261.60707)"
     style="display:inline"><path
       id="path487"
       style="opacity:0.6;fill:#00abff;fill-opacity:1;stroke:none;stroke-opacity:1;filter:url(#filter10)"
       class="cls-1"
       d="M 3.0000406,3.9998592 A 3,3 0 0 0 -1.0428202e-4,7.0000041 V 12.999887 A 3,3 0 0 0 3.0000406,16.000031 H 45.000032 a 3,3 0 0 0 3.000145,-3.000144 V 7.0000041 A 3,3 0 0 0 45.000032,3.9998592 Z m 0,2.0000966 H 45.000032 a 1,1 0 0 1 1.000049,1.0000483 v 5.9998829 a 1,1 0 0 1 -1.000049,1.000048 H 3.0000406 A 1,1 0 0 1 1.9999923,12.999887 V 7.0000041 A 1,1 0 0 1 3.0000406,5.9999558 Z m 0,12.0001722 a 3,3 0 0 0 -3.00014488202,2.999738 v 6.000289 A 3,3 0 0 0 3.0000406,29.999893 H 45.000032 a 3,3 0 0 0 3.000145,-2.999738 v -6.000289 a 3,3 0 0 0 -3.000145,-2.999738 z m 0,1.999689 H 45.000032 a 1,1 0 0 1 1.000049,1.000049 v 6.000289 a 1,1 0 0 1 -1.000049,0.999641 H 3.0000406 A 1,1 0 0 1 1.9999923,27.000155 v -6.000289 a 1,1 0 0 1 1.0000483,-1.000049 z m 0,12.000173 a 3,3 0 0 0 -3.00014488202,3.000144 v 5.999883 A 3,3 0 0 0 3.0000406,44.000162 H 45.000032 a 3,3 0 0 0 3.000145,-3.000145 V 35.000134 A 3,3 0 0 0 45.000032,31.99999 Z m 0,2.000096 H 45.000032 a 1,1 0 0 1 1.000049,1.000048 v 5.999883 a 1,1 0 0 1 -1.000049,1.000048 H 3.0000406 A 1,1 0 0 1 1.9999923,41.000017 v -5.999883 a 1,1 0 0 1 1.0000483,-1.000048 z" /><path
       id="rect488"
       style="opacity:0.6;fill:#ff3dfb;fill-opacity:1;filter:url(#filter9)"
       class="cls-2"
       d="m 5.0001372,8.0000524 c -0.554,0 -1.0000483,0.4460483 -1.0000483,1.0000483 v 2.0000963 c 0,0.554 0.4460483,0.999641 1.0000483,0.999641 h 1.9996893 c 0.554,0 1.0000483,-0.445641 1.0000483,-0.999641 V 9.0001007 c 0,-0.554 -0.4460483,-1.0000483 -1.0000483,-1.0000483 z m 5.9998828,0 c -0.554,0 -1.0000487,0.4460483 -1.0000487,1.0000483 v 2.0000963 c 0,0.554 0.4460487,0.999641 1.0000487,0.999641 h 2.000096 c 0.554,0 1.000049,-0.445641 1.000049,-0.999641 V 9.0001007 c 0,-0.554 -0.446049,-1.0000483 -1.000049,-1.0000483 z m 23.907875,0.00407 a 1,1 0 0 0 -0.907987,0.9959748 v 2.0000968 a 1,1 0 0 0 1.000049,0.999641 1,1 0 0 0 1.000048,-0.999641 V 9.0001007 a 1,1 0 0 0 -1.09211,-0.9959748 z m 3.999786,0 a 1,1 0 0 0 -0.907579,0.9959748 v 2.0000968 a 1,1 0 0 0 1.000048,0.999641 1,1 0 0 0 1.000048,-0.999641 V 9.0001007 A 1,1 0 0 0 38.907681,8.0041259 Z m 4.000193,0 a 1,1 0 0 0 -0.907987,0.9959748 v 2.0000968 a 1,1 0 0 0 1.000049,0.999641 1,1 0 0 0 1.000048,-0.999641 V 9.0001007 A 1,1 0 0 0 42.907874,8.0041259 Z M 3.0000406,16.000031 v 2.000097 H 45.000032 v -2.000097 z m 2.0000966,5.999883 c -0.554,0 -1.0000483,0.446048 -1.0000483,1.000048 v 2.000097 c 0,0.554 0.4460483,1.000048 1.0000483,1.000048 h 1.9996893 c 0.554,0 1.0000483,-0.446048 1.0000483,-1.000048 v -2.000097 c 0,-0.554 -0.4460483,-1.000048 -1.0000483,-1.000048 z m 5.9998828,0 c -0.554,0 -1.0000487,0.446048 -1.0000487,1.000048 v 2.000097 c 0,0.554 0.4460487,1.000048 1.0000487,1.000048 h 2.000096 c 0.554,0 1.000049,-0.446048 1.000049,-1.000048 v -2.000097 c 0,-0.554 -0.446049,-1.000048 -1.000049,-1.000048 z m 23.907875,0.0045 a 1,1 0 0 0 -0.907987,0.995567 v 2.000097 a 1,1 0 0 0 1.000049,1.000048 1,1 0 0 0 1.000048,-1.000048 v -2.000097 a 1,1 0 0 0 -1.09211,-0.995567 z m 3.999786,0 a 1,1 0 0 0 -0.907579,0.995567 v 2.000097 a 1,1 0 0 0 1.000048,1.000048 1,1 0 0 0 1.000048,-1.000048 v -2.000097 a 1,1 0 0 0 -1.092517,-0.995567 z m 4.000193,0 a 1,1 0 0 0 -0.907987,0.995567 v 2.000097 a 1,1 0 0 0 1.000049,1.000048 1,1 0 0 0 1.000048,-1.000048 v -2.000097 a 1,1 0 0 0 -1.09211,-0.995567 z M 3.0000406,29.999893 V 31.99999 H 45.000032 v -2.000097 z m 2.0000966,6.00029 c -0.554,0 -1.0000483,0.445641 -1.0000483,0.999641 v 2.000096 c 0,0.554 0.4460483,1.000049 1.0000483,1.000049 h 1.9996893 c 0.554,0 1.0000483,-0.446049 1.0000483,-1.000049 v -2.000096 c 0,-0.554 -0.4460483,-0.999641 -1.0000483,-0.999641 z m 5.9998828,0 c -0.554,0 -1.0000487,0.445641 -1.0000487,0.999641 v 2.000096 c 0,0.554 0.4460487,1.000049 1.0000487,1.000049 h 2.000096 c 0.554,0 1.000049,-0.446049 1.000049,-1.000049 v -2.000096 c 0,-0.554 -0.446049,-0.999641 -1.000049,-0.999641 z m 23.907875,0.0041 a 1,1 0 0 0 -0.907987,0.995568 v 2.000096 a 1,1 0 0 0 1.000049,1.000049 1,1 0 0 0 1.000048,-1.000049 v -2.000096 a 1,1 0 0 0 -1.09211,-0.995568 z m 3.999786,0 a 1,1 0 0 0 -0.907579,0.995568 v 2.000096 a 1,1 0 0 0 1.000048,1.000049 1,1 0 0 0 1.000048,-1.000049 v -2.000096 a 1,1 0 0 0 -1.092517,-0.995568 z m 4.000193,0 a 1,1 0 0 0 -0.907987,0.995568 v 2.000096 a 1,1 0 0 0 1.000049,1.000049 1,1 0 0 0 1.000048,-1.000049 v -2.000096 a 1,1 0 0 0 -1.09211,-0.995568 z" /><path
       id="path499"
       style="opacity:0.6;fill:#00abff;stroke:none;stroke-width:10;stroke-dasharray:none;stroke-opacity:1;filter:url(#filter8)"
       d="m 207.4955,156.90206 c -2.03952,-0.0111 -4.07036,0.0277 -6.09204,0.11835 -56.60685,2.53908 -105.660401,44.58202 -114.885366,102.68784 -5.70787,35.95192 19.867576,79.66119 53.402846,117.03977 33.53527,37.37857 75.38883,68.34264 110.21077,73.87102 l 3.21143,0.51104 2.57937,-1.97689 c 21.32685,-16.33262 39.02538,-35.39719 54.64277,-49.61852 l 4.33032,-3.94301 -2.7273,-5.18294 c 0.69779,1.32599 0.13502,0.58119 0.35504,-1.23993 0.22001,-1.82111 0.84532,-4.60878 1.81282,-7.93175 1.93499,-6.64594 5.19264,-15.48487 8.83278,-25.23422 7.28028,-19.49868 16.13503,-42.57405 19.27935,-62.38087 1.37628,-8.66895 1.52016,-17.18773 0.62669,-25.47629 11.51276,2.43612 23.83262,6.66874 36.49306,13.46704 -8e-5,0.0216 -0.003,0.0429 -0.003,0.0645 0,9.20084 7.62019,16.82371 16.82103,16.82371 9.20084,0 16.82371,-7.62287 16.82371,-16.82371 0,-9.20084 -7.62287,-16.82102 -16.82371,-16.82102 -3.61971,0 -6.99242,1.1825 -9.75534,3.17377 -13.84881,-8.49155 -27.44256,-15.84645 -42.05255,-20.77748 19.00413,-3.55749 39.7445,-4.42386 56.40179,1.55192 0.21859,9.01928 7.74414,16.42027 16.81027,16.42027 9.20084,0 16.82371,-7.62019 16.82371,-16.82103 0,-9.20084 -7.62287,-16.82371 -16.82371,-16.82371 -3.78529,0 -7.29967,1.2916 -10.12919,3.45081 -16.9467,-8.7451 -37.95717,-14.43396 -61.21895,-14.38151 -6.53579,0.0147 -13.25121,0.49958 -20.09162,1.47123 -4.04119,-6.285 -8.65963,-12.24443 -13.79518,-17.77853 -22.20717,-23.93061 -53.58168,-40.69312 -86.52309,-45.92295 -6.22563,-0.98839 -12.41845,-1.48353 -18.53702,-1.51696 z m -0.11027,15.14 c 1.86035,0.0115 3.73018,0.0785 5.60521,0.18827 -2.92989,1.93742 -4.90053,5.25824 -4.90053,8.96189 0,5.84185 4.89791,10.73974 10.73975,10.73974 5.84185,0 10.73974,-4.89789 10.73974,-10.73974 0,-2.77596 -1.10629,-5.33919 -2.89406,-7.26472 11.58902,2.12992 23.01004,5.87722 33.76846,10.98718 -0.57503,-0.0988 -1.16258,-0.15331 -1.76172,-0.15331 -5.84185,0 -10.74243,4.90059 -10.74243,10.74243 0,5.84184 4.90058,10.73975 10.74243,10.73975 5.84184,0 10.73974,-4.89791 10.73974,-10.73975 0,-3.05399 -1.34112,-5.85092 -3.4535,-7.82416 13.38908,7.08942 25.56213,16.27399 35.48445,26.96635 3.17127,3.41738 6.08344,6.99065 8.76823,10.67519 -13.32143,3.40368 -26.99348,8.77988 -40.72925,16.55474 l -3.87577,2.19475 0.035,4.45405 c 0.0342,4.47151 1.53033,8.69528 4.13129,11.60311 2.60097,2.90784 5.8585,4.31652 8.60148,4.98929 0.0889,0.0218 0.17245,0.0306 0.2609,0.0511 0.25358,0.13832 0.51024,0.26855 0.76654,0.38731 4.50287,2.08658 8.99862,2.28855 13.2438,2.15172 4.24518,-0.13683 8.29935,-0.765 11.59236,-1.33407 3.29198,-0.56889 6.4303,-1.03492 6.01404,-1.01937 h 0.003 c 5.36034,-0.20155 11.15245,-0.0877 17.2675,0.46531 1.27515,8.23849 1.33277,16.74494 -0.0457,25.42787 -0.0709,0.44639 -0.18773,0.93674 -0.26628,1.39055 -0.67618,-1.49799 -1.46514,-2.92217 -2.41799,-4.25771 -2.24364,-3.14474 -5.73101,-5.9829 -10.14533,-6.68376 -4.41431,-0.70085 -8.60606,0.91895 -11.71339,3.21413 -3.10733,2.29516 -5.54233,5.30114 -7.69775,8.80319 -4.31087,7.00413 -7.47198,16.16312 -9.12058,26.54677 -1.6486,10.38367 -1.48032,20.07689 0.44917,28.0718 0.96474,3.99744 2.34758,7.60575 4.59122,10.7505 2.24364,3.14473 5.72832,5.98828 10.14264,6.68914 0.70892,0.11255 1.41203,0.15911 2.10599,0.15868 -1.38191,3.93505 -2.63231,7.66813 -3.62295,11.07057 -0.77569,2.66418 -1.34155,5.09582 -1.78592,7.44762 -3.59165,1.40494 -6.2077,4.93834 -6.2077,8.96458 0,0.93087 0.14143,1.83423 0.40076,2.69233 -13.24392,12.5622 -27.10153,26.39565 -42.77069,38.77657 -27.50967,-5.8663 -67.34666,-33.82841 -98.2311,-68.25236 -32.00948,-35.67792 -53.911164,-78.1353 -49.71804,-104.54639 8.10179,-51.03118 50.91521,-87.76022 100.56303,-89.94163 1.77313,-0.0779 3.55497,-0.11057 5.34432,-0.0995 z m 11.44443,4.74184 c 2.34478,0 4.40832,2.06355 4.40832,4.40832 0,2.34478 -2.06354,4.40563 -4.40832,4.40563 -2.34478,0 -4.40833,-2.06085 -4.40833,-4.40563 0,-2.34477 2.06355,-4.40832 4.40833,-4.40832 z m -42.77069,7.0872 c -5.84184,10e-6 -10.73974,4.8979 -10.73974,10.73974 0,5.84184 4.8979,10.73974 10.73974,10.73974 5.84185,0 10.73975,-4.8979 10.73974,-10.73974 0,-5.84184 -4.89789,-10.73974 -10.73974,-10.73974 z m 0,6.33142 c 2.34478,0 4.40832,2.06354 4.40832,4.40832 0,2.34478 -2.06354,4.40833 -4.40832,4.40833 -2.34477,0 -4.40564,-2.06355 -4.40564,-4.40833 0,-2.34478 2.06087,-4.40832 4.40564,-4.40832 z m 82.62311,0.89296 c 2.34478,0 4.40833,2.06354 4.40833,4.40832 0,2.34478 -2.06355,4.40833 -4.40833,4.40833 -2.34478,0 -4.40832,-2.06355 -4.40832,-4.40833 0,-2.34478 2.06354,-4.40832 4.40832,-4.40832 z m -32.9508,17.71398 c -5.84184,0 -10.74243,4.8979 -10.74243,10.73974 0,5.84185 4.90059,10.73975 10.74243,10.73975 5.84185,0 10.73705,-4.8979 10.73705,-10.73975 0,-5.84184 -4.8952,-10.73974 -10.73705,-10.73974 z m -93.91423,1.47393 c -5.84185,0 -10.73975,4.89789 -10.73975,10.73974 0,5.84184 4.8979,10.73974 10.73975,10.73974 5.84184,0 10.73974,-4.8979 10.73974,-10.73974 0,-5.84185 -4.8979,-10.73974 -10.73974,-10.73974 z m 93.91423,4.85749 c 2.34478,0 4.40563,2.06355 4.40563,4.40832 0,2.34478 -2.06085,4.40833 -4.40563,4.40833 -2.34477,0 -4.40833,-2.06355 -4.40833,-4.40833 0,-2.34477 2.06356,-4.40832 4.40833,-4.40832 z m -93.91423,1.47393 c 2.34477,0 4.40832,2.06354 4.40832,4.40832 0,2.34477 -2.06355,4.40832 -4.40832,4.40832 -2.34478,0 -4.40833,-2.06355 -4.40833,-4.40832 0,-2.34478 2.06355,-4.40832 4.40833,-4.40832 z m 41.6491,9.7876 c -5.84184,0 -10.73974,4.90059 -10.73974,10.74243 0,5.84185 4.8979,10.73974 10.73974,10.73974 5.84185,0 10.74243,-4.89789 10.74243,-10.73974 0,-5.84184 -4.90058,-10.74243 -10.74243,-10.74243 z m 0,6.33411 c 2.34478,0 4.40833,2.06355 4.40833,4.40832 0,2.34478 -2.06355,4.40833 -4.40833,4.40833 -2.34477,0 -4.40563,-2.06355 -4.40563,-4.40833 0,-2.34477 2.06086,-4.40832 4.40563,-4.40832 z m 40.81263,12.82959 c -5.84185,0 -10.73974,4.89789 -10.73974,10.73974 0,5.84184 4.89789,10.73974 10.73974,10.73974 5.84184,0 10.73974,-4.8979 10.73974,-10.73974 0,-5.84185 -4.8979,-10.73974 -10.73974,-10.73974 z m 203.51177,1.16193 c 1.01421,0 1.67564,0.66142 1.67564,1.67564 0,1.01422 -0.66143,1.67296 -1.67564,1.67296 -1.01422,0 -1.67296,-0.65874 -1.67296,-1.67296 0,-1.01422 0.65874,-1.67564 1.67296,-1.67564 z m -203.51177,5.16949 c 2.34477,0 4.40832,2.06354 4.40832,4.40832 0,2.34477 -2.06355,4.40833 -4.40832,4.40833 -2.34478,0 -4.40832,-2.06356 -4.40832,-4.40833 0,-2.34478 2.06354,-4.40832 4.40832,-4.40832 z m -97.70125,9.04527 c -5.84184,0 -10.73974,4.89521 -10.73974,10.73705 0,5.84185 4.8979,10.73974 10.73974,10.73974 5.84185,0 10.74243,-4.89789 10.74243,-10.73974 0,-5.84184 -4.90058,-10.73705 -10.74243,-10.73705 z m 0,6.33141 c 2.34478,0 4.40833,2.06087 4.40833,4.40564 0,2.34478 -2.06355,4.40832 -4.40833,4.40832 -2.34478,0 -4.40832,-2.06354 -4.40832,-4.40832 0,-2.34477 2.06354,-4.40564 4.40832,-4.40564 z m 44.04558,0.66972 c -5.84184,0 -10.73974,4.89521 -10.73974,10.73706 0,5.84184 4.8979,10.73974 10.73974,10.73974 5.84185,0 10.73974,-4.8979 10.73974,-10.73974 0,-5.84185 -4.89789,-10.73706 -10.73974,-10.73706 z m 0,6.33142 c 2.34478,0 4.40832,2.06086 4.40832,4.40564 0,2.34477 -2.06354,4.40832 -4.40832,4.40832 -2.34477,0 -4.40832,-2.06355 -4.40832,-4.40832 0,-2.34478 2.06355,-4.40564 4.40832,-4.40564 z m 235.76327,5.72894 c 1.01422,0 1.67295,0.65875 1.67295,1.67296 0,1.01422 -0.65873,1.67564 -1.67295,1.67564 -1.01422,0 -1.67296,-0.66142 -1.67296,-1.67564 0,-1.01421 0.65874,-1.67296 1.67296,-1.67296 z m -84.14277,16.89364 c 0.0808,0.0967 0.0816,0.0775 0.22593,0.27972 0.64128,0.89883 1.55324,2.84183 2.19744,5.51108 1.28838,5.33849 1.59673,13.43674 0.21517,22.13844 -1.38156,8.70171 -4.18448,16.30767 -7.063,20.98459 -1.43926,2.33846 -2.90694,3.90294 -3.79508,4.55894 -0.19986,0.14762 -0.19444,0.12944 -0.30124,0.19635 -0.0808,-0.0967 -0.0816,-0.0802 -0.22593,-0.28241 -0.64128,-0.89883 -1.55324,-2.83914 -2.19744,-5.50839 -1.28839,-5.33849 -1.59673,-13.43674 -0.21517,-22.13844 1.38156,-8.70171 4.18447,-16.30768 7.063,-20.98459 1.43926,-2.33846 2.90695,-3.90294 3.79508,-4.55895 0.19985,-0.1476 0.19445,-0.12944 0.30124,-0.19634 z m -14.88179,92.81417 c -0.0198,0.52147 -0.0887,1.03591 -0.0834,1.56268 -0.42947,0.39919 -0.90319,0.86375 -1.33407,1.26682 0.18194,-1.06686 0.69573,-2.04462 1.41744,-2.8295 z m 109.91223,13.46704 c -9.58375,0.0669 -19.09453,0.97042 -27.59842,2.0764 -17.00779,2.21197 -30.03791,5.46804 -30.03792,5.46804 l -1.33407,0.33352 -131.95383,91.09011 c -7.84089,-7.9376 -25.85209,-27.35867 -47.9106,-59.02689 -16.88048,-24.23423 -43.79416,-29.78351 -65.23189,-29.19606 -21.437724,0.58745 -38.266142,6.79339 -39.223048,7.14638 l -10.529948,3.88384 7.541756,8.31099 c 29.185799,32.16234 66.75902,57.57305 110.81056,72.42668 9.33375,3.14645 18.72254,5.72825 28.12828,7.78652 l -0.79882,0.55137 14.95441,2.18399 19.71507,3.50461 -1.2453,-1.25069 c 19.78965,1.78063 39.47499,1.31532 58.72026,-1.29909 l 5.54067,-0.75041 0.91447,-5.51646 c 1.41979,-8.57248 11.99573,-24.53575 24.39506,-36.38817 6.19967,-5.92621 12.79216,-11.0109 18.4348,-14.23896 5.64264,-3.22805 10.40092,-4.04366 11.27767,-3.88115 l 0.34966,0.0645 0.35772,0.0323 c 8.35512,0.74645 12.51245,1.27249 16.52247,1.13503 4.01002,-0.13746 7.3411,-1.30491 11.05174,-2.84026 3.60375,-1.49114 9.82207,-4.19394 12.52028,-11.74567 1.3491,-3.77586 1.04898,-8.56713 -0.96827,-12.71125 -0.51578,-1.05959 -1.38491,-2.04676 -2.08178,-3.0635 4.89766,-0.83929 11.15312,-1.54279 17.56067,-2.12213 7.10491,-0.64239 14.15632,-1.16958 19.57791,-1.83164 2.71079,-0.33103 4.9255,-0.64076 7.10603,-1.25607 1.09026,-0.30766 2.13976,-0.48137 3.95915,-1.85316 0.9097,-0.6859 2.2318,-1.85757 2.93978,-4.11515 0.70798,-2.25758 0.0811,-5.13205 -0.86337,-6.64342 l -1.6111,-2.57936 -2.94785,-0.74772 c -8.8013,-2.23526 -18.45844,-3.00402 -28.0422,-2.93709 z m -37.7572,19.11259 c -0.0915,0.31587 -0.28778,0.5274 -0.34696,0.86876 l -0.76655,4.43253 3.52343,2.79454 c 3.80643,3.01952 5.55343,5.38423 6.1297,6.5681 0.57628,1.18388 0.33852,0.94027 0.32275,0.98441 -0.0315,0.0883 -2.26466,2.11047 -4.04791,2.84833 -3.53737,1.46366 -3.79987,1.62938 -5.77735,1.69717 -1.97748,0.0678 -6.19897,-0.32569 -14.65586,-1.08124 l 0.70469,0.0941 c -7.59325,-1.40748 -14.43649,1.5514 -21.56017,5.62673 -7.12367,4.07532 -14.45839,9.82549 -21.37997,16.44178 -12.15016,11.61424 -23.20654,25.33167 -27.48545,39.10471 -14.36263,1.65211 -28.94458,2.09426 -43.626,1.17268 l 114.00855,-78.70162 c 1.1412,-0.27781 6.83913,-1.413 14.9571,-2.85102 z m -262.37996,6.73756 c 17.6684,0.11331 36.46812,4.94327 48.8708,22.74899 12.95353,18.59668 24.32325,32.72746 33.48873,43.3651 -4.28873,-1.19498 -8.57822,-2.36366 -12.84842,-3.80316 -37.33852,-12.59009 -69.61199,-33.22213 -95.7405,-59.25012 6.148013,-1.39614 14.044404,-2.78559 22.71403,-3.02316 1.16561,-0.0319 2.33747,-0.0452 3.51536,-0.0376 z"
       transform="matrix(0.15145199,0,0,0.15145199,-54.072834,-67.370051)" /></g><g
     id="g3"
     transform="matrix(4.7946903,0,0,4.7946903,248.84425,261.60707)"><path
       id="path1"
       style="fill:url(#linearGradient5);fill-opacity:1;stroke:none;stroke-opacity:1"
       class="cls-1"
       d="M 3.0000406,3.9998592 A 3,3 0 0 0 -1.0428202e-4,7.0000041 V 12.999887 A 3,3 0 0 0 3.0000406,16.000031 H 45.000032 a 3,3 0 0 0 3.000145,-3.000144 V 7.0000041 A 3,3 0 0 0 45.000032,3.9998592 Z m 0,2.0000966 H 45.000032 a 1,1 0 0 1 1.000049,1.0000483 v 5.9998829 a 1,1 0 0 1 -1.000049,1.000048 H 3.0000406 A 1,1 0 0 1 1.9999923,12.999887 V 7.0000041 A 1,1 0 0 1 3.0000406,5.9999558 Z m 0,12.0001722 a 3,3 0 0 0 -3.00014488202,2.999738 v 6.000289 A 3,3 0 0 0 3.0000406,29.999893 H 45.000032 a 3,3 0 0 0 3.000145,-2.999738 v -6.000289 a 3,3 0 0 0 -3.000145,-2.999738 z m 0,1.999689 H 45.000032 a 1,1 0 0 1 1.000049,1.000049 v 6.000289 a 1,1 0 0 1 -1.000049,0.999641 H 3.0000406 A 1,1 0 0 1 1.9999923,27.000155 v -6.000289 a 1,1 0 0 1 1.0000483,-1.000049 z m 0,12.000173 a 3,3 0 0 0 -3.00014488202,3.000144 v 5.999883 A 3,3 0 0 0 3.0000406,44.000162 H 45.000032 a 3,3 0 0 0 3.000145,-3.000145 V 35.000134 A 3,3 0 0 0 45.000032,31.99999 Z m 0,2.000096 H 45.000032 a 1,1 0 0 1 1.000049,1.000048 v 5.999883 a 1,1 0 0 1 -1.000049,1.000048 H 3.0000406 A 1,1 0 0 1 1.9999923,41.000017 v -5.999883 a 1,1 0 0 1 1.0000483,-1.000048 z" /><path
       id="path2"
       style="fill:url(#linearGradient8);fill-opacity:1"
       class="cls-2"
       d="m 5.0001372,8.0000524 c -0.554,0 -1.0000483,0.4460483 -1.0000483,1.0000483 v 2.0000963 c 0,0.554 0.4460483,0.999641 1.0000483,0.999641 h 1.9996893 c 0.554,0 1.0000483,-0.445641 1.0000483,-0.999641 V 9.0001007 c 0,-0.554 -0.4460483,-1.0000483 -1.0000483,-1.0000483 z m 5.9998828,0 c -0.554,0 -1.0000487,0.4460483 -1.0000487,1.0000483 v 2.0000963 c 0,0.554 0.4460487,0.999641 1.0000487,0.999641 h 2.000096 c 0.554,0 1.000049,-0.445641 1.000049,-0.999641 V 9.0001007 c 0,-0.554 -0.446049,-1.0000483 -1.000049,-1.0000483 z m 23.907875,0.00407 a 1,1 0 0 0 -0.907987,0.9959748 v 2.0000968 a 1,1 0 0 0 1.000049,0.999641 1,1 0 0 0 1.000048,-0.999641 V 9.0001007 a 1,1 0 0 0 -1.09211,-0.9959748 z m 3.999786,0 a 1,1 0 0 0 -0.907579,0.9959748 v 2.0000968 a 1,1 0 0 0 1.000048,0.999641 1,1 0 0 0 1.000048,-0.999641 V 9.0001007 A 1,1 0 0 0 38.907681,8.0041259 Z m 4.000193,0 a 1,1 0 0 0 -0.907987,0.9959748 v 2.0000968 a 1,1 0 0 0 1.000049,0.999641 1,1 0 0 0 1.000048,-0.999641 V 9.0001007 A 1,1 0 0 0 42.907874,8.0041259 Z M 3.0000406,16.000031 v 2.000097 H 45.000032 v -2.000097 z m 2.0000966,5.999883 c -0.554,0 -1.0000483,0.446048 -1.0000483,1.000048 v 2.000097 c 0,0.554 0.4460483,1.000048 1.0000483,1.000048 h 1.9996893 c 0.554,0 1.0000483,-0.446048 1.0000483,-1.000048 v -2.000097 c 0,-0.554 -0.4460483,-1.000048 -1.0000483,-1.000048 z m 5.9998828,0 c -0.554,0 -1.0000487,0.446048 -1.0000487,1.000048 v 2.000097 c 0,0.554 0.4460487,1.000048 1.0000487,1.000048 h 2.000096 c 0.554,0 1.000049,-0.446048 1.000049,-1.000048 v -2.000097 c 0,-0.554 -0.446049,-1.000048 -1.000049,-1.000048 z m 23.907875,0.0045 a 1,1 0 0 0 -0.907987,0.995567 v 2.000097 a 1,1 0 0 0 1.000049,1.000048 1,1 0 0 0 1.000048,-1.000048 v -2.000097 a 1,1 0 0 0 -1.09211,-0.995567 z m 3.999786,0 a 1,1 0 0 0 -0.907579,0.995567 v 2.000097 a 1,1 0 0 0 1.000048,1.000048 1,1 0 0 0 1.000048,-1.000048 v -2.000097 a 1,1 0 0 0 -1.092517,-0.995567 z m 4.000193,0 a 1,1 0 0 0 -0.907987,0.995567 v 2.000097 a 1,1 0 0 0 1.000049,1.000048 1,1 0 0 0 1.000048,-1.000048 v -2.000097 a 1,1 0 0 0 -1.09211,-0.995567 z M 3.0000406,29.999893 V 31.99999 H 45.000032 v -2.000097 z m 2.0000966,6.00029 c -0.554,0 -1.0000483,0.445641 -1.0000483,0.999641 v 2.000096 c 0,0.554 0.4460483,1.000049 1.0000483,1.000049 h 1.9996893 c 0.554,0 1.0000483,-0.446049 1.0000483,-1.000049 v -2.000096 c 0,-0.554 -0.4460483,-0.999641 -1.0000483,-0.999641 z m 5.9998828,0 c -0.554,0 -1.0000487,0.445641 -1.0000487,0.999641 v 2.000096 c 0,0.554 0.4460487,1.000049 1.0000487,1.000049 h 2.000096 c 0.554,0 1.000049,-0.446049 1.000049,-1.000049 v -2.000096 c 0,-0.554 -0.446049,-0.999641 -1.000049,-0.999641 z m 23.907875,0.0041 a 1,1 0 0 0 -0.907987,0.995568 v 2.000096 a 1,1 0 0 0 1.000049,1.000049 1,1 0 0 0 1.000048,-1.000049 v -2.000096 a 1,1 0 0 0 -1.09211,-0.995568 z m 3.999786,0 a 1,1 0 0 0 -0.907579,0.995568 v 2.000096 a 1,1 0 0 0 1.000048,1.000049 1,1 0 0 0 1.000048,-1.000049 v -2.000096 a 1,1 0 0 0 -1.092517,-0.995568 z m 4.000193,0 a 1,1 0 0 0 -0.907987,0.995568 v 2.000096 a 1,1 0 0 0 1.000049,1.000049 1,1 0 0 0 1.000048,-1.000049 v -2.000096 a 1,1 0 0 0 -1.09211,-0.995568 z" /><path
       id="path3"
       style="fill:url(#linearGradient4);fill-opacity:1;stroke:none;stroke-width:10;stroke-dasharray:none;stroke-opacity:1"
       d="m 207.4955,156.90206 c -2.03952,-0.0111 -4.07036,0.0277 -6.09204,0.11835 -56.60685,2.53908 -105.660401,44.58202 -114.885366,102.68784 -5.70787,35.95192 19.867576,79.66119 53.402846,117.03977 33.53527,37.37857 75.38883,68.34264 110.21077,73.87102 l 3.21143,0.51104 2.57937,-1.97689 c 21.32685,-16.33262 39.02538,-35.39719 54.64277,-49.61852 l 4.33032,-3.94301 -2.7273,-5.18294 c 0.69779,1.32599 0.13502,0.58119 0.35504,-1.23993 0.22001,-1.82111 0.84532,-4.60878 1.81282,-7.93175 1.93499,-6.64594 5.19264,-15.48487 8.83278,-25.23422 7.28028,-19.49868 16.13503,-42.57405 19.27935,-62.38087 1.37628,-8.66895 1.52016,-17.18773 0.62669,-25.47629 11.51276,2.43612 23.83262,6.66874 36.49306,13.46704 -8e-5,0.0216 -0.003,0.0429 -0.003,0.0645 0,9.20084 7.62019,16.82371 16.82103,16.82371 9.20084,0 16.82371,-7.62287 16.82371,-16.82371 0,-9.20084 -7.62287,-16.82102 -16.82371,-16.82102 -3.61971,0 -6.99242,1.1825 -9.75534,3.17377 -13.84881,-8.49155 -27.44256,-15.84645 -42.05255,-20.77748 19.00413,-3.55749 39.7445,-4.42386 56.40179,1.55192 0.21859,9.01928 7.74414,16.42027 16.81027,16.42027 9.20084,0 16.82371,-7.62019 16.82371,-16.82103 0,-9.20084 -7.62287,-16.82371 -16.82371,-16.82371 -3.78529,0 -7.29967,1.2916 -10.12919,3.45081 -16.9467,-8.7451 -37.95717,-14.43396 -61.21895,-14.38151 -6.53579,0.0147 -13.25121,0.49958 -20.09162,1.47123 -4.04119,-6.285 -8.65963,-12.24443 -13.79518,-17.77853 -22.20717,-23.93061 -53.58168,-40.69312 -86.52309,-45.92295 -6.22563,-0.98839 -12.41845,-1.48353 -18.53702,-1.51696 z m -0.11027,15.14 c 1.86035,0.0115 3.73018,0.0785 5.60521,0.18827 -2.92989,1.93742 -4.90053,5.25824 -4.90053,8.96189 0,5.84185 4.89791,10.73974 10.73975,10.73974 5.84185,0 10.73974,-4.89789 10.73974,-10.73974 0,-2.77596 -1.10629,-5.33919 -2.89406,-7.26472 11.58902,2.12992 23.01004,5.87722 33.76846,10.98718 -0.57503,-0.0988 -1.16258,-0.15331 -1.76172,-0.15331 -5.84185,0 -10.74243,4.90059 -10.74243,10.74243 0,5.84184 4.90058,10.73975 10.74243,10.73975 5.84184,0 10.73974,-4.89791 10.73974,-10.73975 0,-3.05399 -1.34112,-5.85092 -3.4535,-7.82416 13.38908,7.08942 25.56213,16.27399 35.48445,26.96635 3.17127,3.41738 6.08344,6.99065 8.76823,10.67519 -13.32143,3.40368 -26.99348,8.77988 -40.72925,16.55474 l -3.87577,2.19475 0.035,4.45405 c 0.0342,4.47151 1.53033,8.69528 4.13129,11.60311 2.60097,2.90784 5.8585,4.31652 8.60148,4.98929 0.0889,0.0218 0.17245,0.0306 0.2609,0.0511 0.25358,0.13832 0.51024,0.26855 0.76654,0.38731 4.50287,2.08658 8.99862,2.28855 13.2438,2.15172 4.24518,-0.13683 8.29935,-0.765 11.59236,-1.33407 3.29198,-0.56889 6.4303,-1.03492 6.01404,-1.01937 h 0.003 c 5.36034,-0.20155 11.15245,-0.0877 17.2675,0.46531 1.27515,8.23849 1.33277,16.74494 -0.0457,25.42787 -0.0709,0.44639 -0.18773,0.93674 -0.26628,1.39055 -0.67618,-1.49799 -1.46514,-2.92217 -2.41799,-4.25771 -2.24364,-3.14474 -5.73101,-5.9829 -10.14533,-6.68376 -4.41431,-0.70085 -8.60606,0.91895 -11.71339,3.21413 -3.10733,2.29516 -5.54233,5.30114 -7.69775,8.80319 -4.31087,7.00413 -7.47198,16.16312 -9.12058,26.54677 -1.6486,10.38367 -1.48032,20.07689 0.44917,28.0718 0.96474,3.99744 2.34758,7.60575 4.59122,10.7505 2.24364,3.14473 5.72832,5.98828 10.14264,6.68914 0.70892,0.11255 1.41203,0.15911 2.10599,0.15868 -1.38191,3.93505 -2.63231,7.66813 -3.62295,11.07057 -0.77569,2.66418 -1.34155,5.09582 -1.78592,7.44762 -3.59165,1.40494 -6.2077,4.93834 -6.2077,8.96458 0,0.93087 0.14143,1.83423 0.40076,2.69233 -13.24392,12.5622 -27.10153,26.39565 -42.77069,38.77657 -27.50967,-5.8663 -67.34666,-33.82841 -98.2311,-68.25236 -32.00948,-35.67792 -53.911164,-78.1353 -49.71804,-104.54639 8.10179,-51.03118 50.91521,-87.76022 100.56303,-89.94163 1.77313,-0.0779 3.55497,-0.11057 5.34432,-0.0995 z m 11.44443,4.74184 c 2.34478,0 4.40832,2.06355 4.40832,4.40832 0,2.34478 -2.06354,4.40563 -4.40832,4.40563 -2.34478,0 -4.40833,-2.06085 -4.40833,-4.40563 0,-2.34477 2.06355,-4.40832 4.40833,-4.40832 z m -42.77069,7.0872 c -5.84184,10e-6 -10.73974,4.8979 -10.73974,10.73974 0,5.84184 4.8979,10.73974 10.73974,10.73974 5.84185,0 10.73975,-4.8979 10.73974,-10.73974 0,-5.84184 -4.89789,-10.73974 -10.73974,-10.73974 z m 0,6.33142 c 2.34478,0 4.40832,2.06354 4.40832,4.40832 0,2.34478 -2.06354,4.40833 -4.40832,4.40833 -2.34477,0 -4.40564,-2.06355 -4.40564,-4.40833 0,-2.34478 2.06087,-4.40832 4.40564,-4.40832 z m 82.62311,0.89296 c 2.34478,0 4.40833,2.06354 4.40833,4.40832 0,2.34478 -2.06355,4.40833 -4.40833,4.40833 -2.34478,0 -4.40832,-2.06355 -4.40832,-4.40833 0,-2.34478 2.06354,-4.40832 4.40832,-4.40832 z m -32.9508,17.71398 c -5.84184,0 -10.74243,4.8979 -10.74243,10.73974 0,5.84185 4.90059,10.73975 10.74243,10.73975 5.84185,0 10.73705,-4.8979 10.73705,-10.73975 0,-5.84184 -4.8952,-10.73974 -10.73705,-10.73974 z m -93.91423,1.47393 c -5.84185,0 -10.73975,4.89789 -10.73975,10.73974 0,5.84184 4.8979,10.73974 10.73975,10.73974 5.84184,0 10.73974,-4.8979 10.73974,-10.73974 0,-5.84185 -4.8979,-10.73974 -10.73974,-10.73974 z m 93.91423,4.85749 c 2.34478,0 4.40563,2.06355 4.40563,4.40832 0,2.34478 -2.06085,4.40833 -4.40563,4.40833 -2.34477,0 -4.40833,-2.06355 -4.40833,-4.40833 0,-2.34477 2.06356,-4.40832 4.40833,-4.40832 z m -93.91423,1.47393 c 2.34477,0 4.40832,2.06354 4.40832,4.40832 0,2.34477 -2.06355,4.40832 -4.40832,4.40832 -2.34478,0 -4.40833,-2.06355 -4.40833,-4.40832 0,-2.34478 2.06355,-4.40832 4.40833,-4.40832 z m 41.6491,9.7876 c -5.84184,0 -10.73974,4.90059 -10.73974,10.74243 0,5.84185 4.8979,10.73974 10.73974,10.73974 5.84185,0 10.74243,-4.89789 10.74243,-10.73974 0,-5.84184 -4.90058,-10.74243 -10.74243,-10.74243 z m 0,6.33411 c 2.34478,0 4.40833,2.06355 4.40833,4.40832 0,2.34478 -2.06355,4.40833 -4.40833,4.40833 -2.34477,0 -4.40563,-2.06355 -4.40563,-4.40833 0,-2.34477 2.06086,-4.40832 4.40563,-4.40832 z m 40.81263,12.82959 c -5.84185,0 -10.73974,4.89789 -10.73974,10.73974 0,5.84184 4.89789,10.73974 10.73974,10.73974 5.84184,0 10.73974,-4.8979 10.73974,-10.73974 0,-5.84185 -4.8979,-10.73974 -10.73974,-10.73974 z m 203.51177,1.16193 c 1.01421,0 1.67564,0.66142 1.67564,1.67564 0,1.01422 -0.66143,1.67296 -1.67564,1.67296 -1.01422,0 -1.67296,-0.65874 -1.67296,-1.67296 0,-1.01422 0.65874,-1.67564 1.67296,-1.67564 z m -203.51177,5.16949 c 2.34477,0 4.40832,2.06354 4.40832,4.40832 0,2.34477 -2.06355,4.40833 -4.40832,4.40833 -2.34478,0 -4.40832,-2.06356 -4.40832,-4.40833 0,-2.34478 2.06354,-4.40832 4.40832,-4.40832 z m -97.70125,9.04527 c -5.84184,0 -10.73974,4.89521 -10.73974,10.73705 0,5.84185 4.8979,10.73974 10.73974,10.73974 5.84185,0 10.74243,-4.89789 10.74243,-10.73974 0,-5.84184 -4.90058,-10.73705 -10.74243,-10.73705 z m 0,6.33141 c 2.34478,0 4.40833,2.06087 4.40833,4.40564 0,2.34478 -2.06355,4.40832 -4.40833,4.40832 -2.34478,0 -4.40832,-2.06354 -4.40832,-4.40832 0,-2.34477 2.06354,-4.40564 4.40832,-4.40564 z m 44.04558,0.66972 c -5.84184,0 -10.73974,4.89521 -10.73974,10.73706 0,5.84184 4.8979,10.73974 10.73974,10.73974 5.84185,0 10.73974,-4.8979 10.73974,-10.73974 0,-5.84185 -4.89789,-10.73706 -10.73974,-10.73706 z m 0,6.33142 c 2.34478,0 4.40832,2.06086 4.40832,4.40564 0,2.34477 -2.06354,4.40832 -4.40832,4.40832 -2.34477,0 -4.40832,-2.06355 -4.40832,-4.40832 0,-2.34478 2.06355,-4.40564 4.40832,-4.40564 z m 235.76327,5.72894 c 1.01422,0 1.67295,0.65875 1.67295,1.67296 0,1.01422 -0.65873,1.67564 -1.67295,1.67564 -1.01422,0 -1.67296,-0.66142 -1.67296,-1.67564 0,-1.01421 0.65874,-1.67296 1.67296,-1.67296 z m -84.14277,16.89364 c 0.0808,0.0967 0.0816,0.0775 0.22593,0.27972 0.64128,0.89883 1.55324,2.84183 2.19744,5.51108 1.28838,5.33849 1.59673,13.43674 0.21517,22.13844 -1.38156,8.70171 -4.18448,16.30767 -7.063,20.98459 -1.43926,2.33846 -2.90694,3.90294 -3.79508,4.55894 -0.19986,0.14762 -0.19444,0.12944 -0.30124,0.19635 -0.0808,-0.0967 -0.0816,-0.0802 -0.22593,-0.28241 -0.64128,-0.89883 -1.55324,-2.83914 -2.19744,-5.50839 -1.28839,-5.33849 -1.59673,-13.43674 -0.21517,-22.13844 1.38156,-8.70171 4.18447,-16.30768 7.063,-20.98459 1.43926,-2.33846 2.90695,-3.90294 3.79508,-4.55895 0.19985,-0.1476 0.19445,-0.12944 0.30124,-0.19634 z m -14.88179,92.81417 c -0.0198,0.52147 -0.0887,1.03591 -0.0834,1.56268 -0.42947,0.39919 -0.90319,0.86375 -1.33407,1.26682 0.18194,-1.06686 0.69573,-2.04462 1.41744,-2.8295 z m 109.91223,13.46704 c -9.58375,0.0669 -19.09453,0.97042 -27.59842,2.0764 -17.00779,2.21197 -30.03791,5.46804 -30.03792,5.46804 l -1.33407,0.33352 -131.95383,91.09011 c -7.84089,-7.9376 -25.85209,-27.35867 -47.9106,-59.02689 -16.88048,-24.23423 -43.79416,-29.78351 -65.23189,-29.19606 -21.437724,0.58745 -38.266142,6.79339 -39.223048,7.14638 l -10.529948,3.88384 7.541756,8.31099 c 29.185799,32.16234 66.75902,57.57305 110.81056,72.42668 9.33375,3.14645 18.72254,5.72825 28.12828,7.78652 l -0.79882,0.55137 14.95441,2.18399 19.71507,3.50461 -1.2453,-1.25069 c 19.78965,1.78063 39.47499,1.31532 58.72026,-1.29909 l 5.54067,-0.75041 0.91447,-5.51646 c 1.41979,-8.57248 11.99573,-24.53575 24.39506,-36.38817 6.19967,-5.92621 12.79216,-11.0109 18.4348,-14.23896 5.64264,-3.22805 10.40092,-4.04366 11.27767,-3.88115 l 0.34966,0.0645 0.35772,0.0323 c 8.35512,0.74645 12.51245,1.27249 16.52247,1.13503 4.01002,-0.13746 7.3411,-1.30491 11.05174,-2.84026 3.60375,-1.49114 9.82207,-4.19394 12.52028,-11.74567 1.3491,-3.77586 1.04898,-8.56713 -0.96827,-12.71125 -0.51578,-1.05959 -1.38491,-2.04676 -2.08178,-3.0635 4.89766,-0.83929 11.15312,-1.54279 17.56067,-2.12213 7.10491,-0.64239 14.15632,-1.16958 19.57791,-1.83164 2.71079,-0.33103 4.9255,-0.64076 7.10603,-1.25607 1.09026,-0.30766 2.13976,-0.48137 3.95915,-1.85316 0.9097,-0.6859 2.2318,-1.85757 2.93978,-4.11515 0.70798,-2.25758 0.0811,-5.13205 -0.86337,-6.64342 l -1.6111,-2.57936 -2.94785,-0.74772 c -8.8013,-2.23526 -18.45844,-3.00402 -28.0422,-2.93709 z m -37.7572,19.11259 c -0.0915,0.31587 -0.28778,0.5274 -0.34696,0.86876 l -0.76655,4.43253 3.52343,2.79454 c 3.80643,3.01952 5.55343,5.38423 6.1297,6.5681 0.57628,1.18388 0.33852,0.94027 0.32275,0.98441 -0.0315,0.0883 -2.26466,2.11047 -4.04791,2.84833 -3.53737,1.46366 -3.79987,1.62938 -5.77735,1.69717 -1.97748,0.0678 -6.19897,-0.32569 -14.65586,-1.08124 l 0.70469,0.0941 c -7.59325,-1.40748 -14.43649,1.5514 -21.56017,5.62673 -7.12367,4.07532 -14.45839,9.82549 -21.37997,16.44178 -12.15016,11.61424 -23.20654,25.33167 -27.48545,39.10471 -14.36263,1.65211 -28.94458,2.09426 -43.626,1.17268 l 114.00855,-78.70162 c 1.1412,-0.27781 6.83913,-1.413 14.9571,-2.85102 z m -262.37996,6.73756 c 17.6684,0.11331 36.46812,4.94327 48.8708,22.74899 12.95353,18.59668 24.32325,32.72746 33.48873,43.3651 -4.28873,-1.19498 -8.57822,-2.36366 -12.84842,-3.80316 -37.33852,-12.59009 -69.61199,-33.22213 -95.7405,-59.25012 6.148013,-1.39614 14.044404,-2.78559 22.71403,-3.02316 1.16561,-0.0319 2.33747,-0.0452 3.51536,-0.0376 z"
       transform="matrix(0.15145199,0,0,0.15145199,-54.072834,-67.370051)" /></g></g></svg>
