<?xml version="1.0" encoding="UTF-8" standalone="no"?>
<svg
   width="58.797722"
   height="44.761505"
   version="1.1"
   viewBox="0 0 15.556591 11.842915"
   id="svg7"
   xmlns:xlink="http://www.w3.org/1999/xlink"
   xmlns="http://www.w3.org/2000/svg"
   xmlns:svg="http://www.w3.org/2000/svg"
   xmlns:rdf="http://www.w3.org/1999/02/22-rdf-syntax-ns#"
   xmlns:cc="http://creativecommons.org/ns#"
   xmlns:dc="http://purl.org/dc/elements/1.1/">
  <metadata
     id="metadata1">
    <rdf:RDF>
      <cc:Work
         rdf:about="">
        <dc:format>image/svg+xml</dc:format>
        <dc:type
           rdf:resource="http://purl.org/dc/dcmitype/StillImage" />
        <dc:title />
      </cc:Work>
    </rdf:RDF>
  </metadata>
  <defs
     id="defs2">
    <linearGradient
       id="linearGradient3">
      <stop
         style="stop-color:#00abff;stop-opacity:0;"
         offset="0"
         id="stop4" />
      <stop
         style="stop-color:#00abff;stop-opacity:1;"
         offset="1"
         id="stop3" />
    </linearGradient>
    <linearGradient
       xlink:href="#linearGradient3"
       id="linearGradient4"
       x1="7.6899886"
       y1="15.707211"
       x2="7.6899886"
       y2="8.0990305"
       gradientUnits="userSpaceOnUse" />
    <filter
       style="color-interpolation-filters:sRGB"
       id="filter4"
       x="-0.023625001"
       y="-0.031499998"
       width="1.04725"
       height="1.063">
      <feGaussianBlur
         stdDeviation="0.14622602"
         id="feGaussianBlur4" />
    </filter>
  </defs>
  <g
     id="g4"
     transform="translate(-0.15124061,-2.4083738)">
    <path
       id="path1"
       d="m 2.3590205,2.7593162 c -1.0286864,0 -1.85683744,0.8281499 -1.85683744,1.8568384 v 7.4273534 c 0,1.028688 0.82815104,1.856839 1.85683744,1.856839 H 13.500052 c 1.028686,0 1.856837,-0.828151 1.856837,-1.856839 V 4.6161546 c 0,-1.0286885 -0.828151,-1.8568384 -1.856837,-1.8568384 z m 0,0.9284194 H 13.500052 c 0.514343,0 0.928418,0.4140748 0.928418,0.928419 v 7.4273534 c 0,0.514344 -0.414075,0.92842 -0.928418,0.92842 H 2.3590205 c -0.5143432,0 -0.9284186,-0.414076 -0.9284186,-0.92842 V 4.6161546 c 0,-0.5143442 0.4140754,-0.928419 0.9284186,-0.928419 z m 0.2320889,0.928419 c -0.1281858,0 -0.2320889,0.1039172 -0.2320889,0.2321064 v 1.3926288 c 0,0.1281858 0.1039031,0.2321065 0.2320889,0.2321065 h 1.392628 c 0.1281858,0 0.2320889,-0.1039172 0.2320889,-0.2321065 V 4.8482593 c 0,-0.1281857 -0.1039031,-0.2321064 -0.2320889,-0.2321064 z m 2.7852561,0 c -0.1281858,0 -0.2320889,0.1039172 -0.2320889,0.2321064 v 1.3926288 c 0,0.1281858 0.1039031,0.2321065 0.2320889,0.2321065 h 1.392628 c 0.1281858,0 0.232124,-0.1039172 0.232124,-0.2321065 V 4.8482593 c 0,-0.1281857 -0.1039031,-0.2321064 -0.232124,-0.2321064 z m 2.7852561,0 c -0.1281858,0 -0.2320889,0.1039172 -0.2320889,0.2321064 v 1.3926288 c 0,0.1281858 0.1039031,0.2321065 0.2320889,0.2321065 H 9.554253 c 0.1281858,0 0.2320894,-0.1039172 0.2320894,-0.2321065 V 4.8482593 c 0,-0.1281857 -0.1039036,-0.2321064 -0.2320894,-0.2321064 z m 2.7852594,0 c -0.128186,0 -0.232125,0.1039172 -0.232125,0.2321064 v 1.3926288 c 0,0.1281858 0.103904,0.2321065 0.232125,0.2321065 h 1.392628 c 0.128186,0 0.232088,-0.1039172 0.232088,-0.2321065 V 4.8482593 c 0,-0.1281857 -0.103902,-0.2321064 -0.232088,-0.2321064 z M 3.5195281,7.4014113 c -0.1281858,0 -0.2320889,0.1039174 -0.2320889,0.2321069 v 1.3926291 c 0,0.1281858 0.1039031,0.232106 0.2320889,0.232106 h 1.392628 c 0.1281858,0 0.232124,-0.1039174 0.232124,-0.232106 V 7.6335164 c 0,-0.1281858 -0.1039031,-0.232106 -0.232124,-0.232106 z m 2.785256,0 c -0.1281857,0 -0.2320888,0.1039174 -0.2320888,0.2321069 v 1.3926291 c 0,0.1281858 0.1039031,0.232106 0.2320888,0.232106 h 1.3926281 c 0.1281858,0 0.2320889,-0.1039174 0.2320889,-0.232106 V 7.6335164 c 0,-0.1281858 -0.1039031,-0.232106 -0.2320889,-0.232106 z m 2.7852597,0 c -0.1281858,0 -0.2321243,0.1039174 -0.2321243,0.2321069 v 1.3926291 c 0,0.1281858 0.1039035,0.232106 0.2321243,0.232106 h 1.3926282 c 0.128186,0 0.232088,-0.1039174 0.232088,-0.232106 V 7.6335164 c 0,-0.1281858 -0.103902,-0.232106 -0.232088,-0.232106 z m 2.7852562,0 c -0.128186,0 -0.232089,0.1039174 -0.232089,0.2321069 v 1.3926291 c 0,0.1281858 0.103903,0.232106 0.232089,0.232106 h 1.392627 c 0.128186,0 0.23209,-0.1039174 0.23209,-0.232106 V 7.6335164 c 0,-0.1281858 -0.103904,-0.232106 -0.23209,-0.232106 z M 2.5911094,10.18667 c -0.1281858,0 -0.2320889,0.103917 -0.2320889,0.232106 v 1.392629 c 0,0.128186 0.1039031,0.232106 0.2320889,0.232106 h 1.392628 c 0.1281858,0 0.2320889,-0.103917 0.2320889,-0.232106 v -1.392631 c 0,-0.128185 -0.1039031,-0.232106 -0.2320889,-0.232106 z m 2.7852561,0 c -0.1281858,0 -0.2320889,0.103917 -0.2320889,0.232106 v 1.392629 c 0,0.128186 0.1039031,0.232106 0.2320889,0.232106 h 5.1063065 c 0.128186,0 0.232088,-0.103917 0.232088,-0.232106 v -1.392631 c 0,-0.128185 -0.103902,-0.232106 -0.232088,-0.232106 z m 6.4989345,0 c -0.128186,0 -0.232089,0.103917 -0.232089,0.232106 v 1.392629 c 0,0.128186 0.103903,0.232106 0.232089,0.232106 h 1.392627 c 0.128186,0 0.23209,-0.103917 0.23209,-0.232106 v -1.392631 c 0,-0.128185 -0.103904,-0.232106 -0.23209,-0.232106 z"
       style="display:inline;opacity:0.6;fill:#00abff;fill-opacity:1;stroke-width:0.928418;filter:url(#filter4)" />
    <path
       id="path3"
       d="m 2.3590205,2.7593162 c -1.0286864,0 -1.85683744,0.8281499 -1.85683744,1.8568384 v 7.4273534 c 0,1.028688 0.82815104,1.856839 1.85683744,1.856839 H 13.500052 c 1.028686,0 1.856837,-0.828151 1.856837,-1.856839 V 4.6161546 c 0,-1.0286885 -0.828151,-1.8568384 -1.856837,-1.8568384 z m 0,0.9284194 H 13.500052 c 0.514343,0 0.928418,0.4140748 0.928418,0.928419 v 7.4273534 c 0,0.514344 -0.414075,0.92842 -0.928418,0.92842 H 2.3590205 c -0.5143432,0 -0.9284186,-0.414076 -0.9284186,-0.92842 V 4.6161546 c 0,-0.5143442 0.4140754,-0.928419 0.9284186,-0.928419 z m 0.2320889,0.928419 c -0.1281858,0 -0.2320889,0.1039172 -0.2320889,0.2321064 v 1.3926288 c 0,0.1281858 0.1039031,0.2321065 0.2320889,0.2321065 h 1.392628 c 0.1281858,0 0.2320889,-0.1039172 0.2320889,-0.2321065 V 4.8482593 c 0,-0.1281857 -0.1039031,-0.2321064 -0.2320889,-0.2321064 z m 2.7852561,0 c -0.1281858,0 -0.2320889,0.1039172 -0.2320889,0.2321064 v 1.3926288 c 0,0.1281858 0.1039031,0.2321065 0.2320889,0.2321065 h 1.392628 c 0.1281858,0 0.232124,-0.1039172 0.232124,-0.2321065 V 4.8482593 c 0,-0.1281857 -0.1039031,-0.2321064 -0.232124,-0.2321064 z m 2.7852561,0 c -0.1281858,0 -0.2320889,0.1039172 -0.2320889,0.2321064 v 1.3926288 c 0,0.1281858 0.1039031,0.2321065 0.2320889,0.2321065 H 9.554253 c 0.1281858,0 0.2320894,-0.1039172 0.2320894,-0.2321065 V 4.8482593 c 0,-0.1281857 -0.1039036,-0.2321064 -0.2320894,-0.2321064 z m 2.7852594,0 c -0.128186,0 -0.232125,0.1039172 -0.232125,0.2321064 v 1.3926288 c 0,0.1281858 0.103904,0.2321065 0.232125,0.2321065 h 1.392628 c 0.128186,0 0.232088,-0.1039172 0.232088,-0.2321065 V 4.8482593 c 0,-0.1281857 -0.103902,-0.2321064 -0.232088,-0.2321064 z M 3.5195281,7.4014113 c -0.1281858,0 -0.2320889,0.1039174 -0.2320889,0.2321069 v 1.3926291 c 0,0.1281858 0.1039031,0.232106 0.2320889,0.232106 h 1.392628 c 0.1281858,0 0.232124,-0.1039174 0.232124,-0.232106 V 7.6335164 c 0,-0.1281858 -0.1039031,-0.232106 -0.232124,-0.232106 z m 2.785256,0 c -0.1281857,0 -0.2320888,0.1039174 -0.2320888,0.2321069 v 1.3926291 c 0,0.1281858 0.1039031,0.232106 0.2320888,0.232106 h 1.3926281 c 0.1281858,0 0.2320889,-0.1039174 0.2320889,-0.232106 V 7.6335164 c 0,-0.1281858 -0.1039031,-0.232106 -0.2320889,-0.232106 z m 2.7852597,0 c -0.1281858,0 -0.2321243,0.1039174 -0.2321243,0.2321069 v 1.3926291 c 0,0.1281858 0.1039035,0.232106 0.2321243,0.232106 h 1.3926282 c 0.128186,0 0.232088,-0.1039174 0.232088,-0.232106 V 7.6335164 c 0,-0.1281858 -0.103902,-0.232106 -0.232088,-0.232106 z m 2.7852562,0 c -0.128186,0 -0.232089,0.1039174 -0.232089,0.2321069 v 1.3926291 c 0,0.1281858 0.103903,0.232106 0.232089,0.232106 h 1.392627 c 0.128186,0 0.23209,-0.1039174 0.23209,-0.232106 V 7.6335164 c 0,-0.1281858 -0.103904,-0.232106 -0.23209,-0.232106 z M 2.5911094,10.18667 c -0.1281858,0 -0.2320889,0.103917 -0.2320889,0.232106 v 1.392629 c 0,0.128186 0.1039031,0.232106 0.2320889,0.232106 h 1.392628 c 0.1281858,0 0.2320889,-0.103917 0.2320889,-0.232106 v -1.392631 c 0,-0.128185 -0.1039031,-0.232106 -0.2320889,-0.232106 z m 2.7852561,0 c -0.1281858,0 -0.2320889,0.103917 -0.2320889,0.232106 v 1.392629 c 0,0.128186 0.1039031,0.232106 0.2320889,0.232106 h 5.1063065 c 0.128186,0 0.232088,-0.103917 0.232088,-0.232106 v -1.392631 c 0,-0.128185 -0.103902,-0.232106 -0.232088,-0.232106 z m 6.4989345,0 c -0.128186,0 -0.232089,0.103917 -0.232089,0.232106 v 1.392629 c 0,0.128186 0.103903,0.232106 0.232089,0.232106 h 1.392627 c 0.128186,0 0.23209,-0.103917 0.23209,-0.232106 v -1.392631 c 0,-0.128185 -0.103904,-0.232106 -0.23209,-0.232106 z"
       style="fill:url(#linearGradient4);fill-opacity:1;stroke-width:0.928418" />
  </g>
</svg>
