<?xml version="1.0" encoding="UTF-8" standalone="no"?>
<svg
   width="37.016808"
   height="43.025211"
   version="1.1"
   viewBox="0 0 9.7938374 11.38353"
   id="svg43"
   xmlns:xlink="http://www.w3.org/1999/xlink"
   xmlns="http://www.w3.org/2000/svg"
   xmlns:svg="http://www.w3.org/2000/svg"
   xmlns:rdf="http://www.w3.org/1999/02/22-rdf-syntax-ns#"
   xmlns:cc="http://creativecommons.org/ns#"
   xmlns:dc="http://purl.org/dc/elements/1.1/">
  <defs
     id="defs21">
    <linearGradient
       id="linearGradient2">
      <stop
         style="stop-color:#00abff;stop-opacity:0;"
         offset="0"
         id="stop3" />
      <stop
         style="stop-color:#00abff;stop-opacity:1;"
         offset="1"
         id="stop2" />
    </linearGradient>
    <linearGradient
       xlink:href="#linearGradient2"
       id="linearGradient3"
       x1="6.187407"
       y1="12.658929"
       x2="6.187407"
       y2="5.0509443"
       gradientUnits="userSpaceOnUse" />
    <filter
       style="color-interpolation-filters:sRGB"
       id="filter3"
       x="-0.029319753"
       y="-0.025020408"
       width="1.0586395"
       height="1.0500408">
      <feGaussianBlur
         stdDeviation="0.11301963"
         id="feGaussianBlur3" />
    </filter>
  </defs>
  <metadata
     id="metadata23">
    <rdf:RDF>
      <cc:Work
         rdf:about="">
        <dc:format>image/svg+xml</dc:format>
        <dc:type
           rdf:resource="http://purl.org/dc/dcmitype/StillImage" />
        <dc:title />
      </cc:Work>
    </rdf:RDF>
  </metadata>
  <g
     id="g3"
     transform="translate(-1.4393553,-0.57006596)">
    <path
       d="M 1.7106024,0.84131307 V 7.0088759 c 0,1.5973989 1.2142388,2.7152693 2.2642663,3.4453551 a 11.377611,11.377611 0 0 0 2.072301,1.131747 l 0.2891052,0.09637 0.2891051,-0.09637 c 0,0 1.0253576,-0.419393 2.0715303,-1.156418 C 9.7446228,9.6933075 10.961946,8.5846883 10.961946,7.0088759 V 0.84131307 Z M 2.4815477,1.6122586 h 7.7094533 v 5.3966173 c 0,2.2850819 -3.8547267,3.8547271 -3.8547267,3.8547271 0,0 -3.8547266,-1.5033437 -3.8547266,-3.8547271 z"
       color="#dedede"
       fill="#dedede"
       font-family="Sans"
       font-weight="400"
       overflow="visible"
       stroke-width="1.54189"
       style="text-indent:0;text-decoration-line:none;text-transform:none;display:inline;opacity:0.6;fill:#00abff;fill-opacity:1;filter:url(#filter3)"
       id="path1" />
    <path
       d="M 1.7106024,0.84131307 V 7.0088759 c 0,1.5973989 1.2142388,2.7152693 2.2642663,3.4453551 a 11.377611,11.377611 0 0 0 2.072301,1.131747 l 0.2891052,0.09637 0.2891051,-0.09637 c 0,0 1.0253576,-0.419393 2.0715303,-1.156418 C 9.7446228,9.6933075 10.961946,8.5846883 10.961946,7.0088759 V 0.84131307 Z M 2.4815477,1.6122586 h 7.7094533 v 5.3966173 c 0,2.2850819 -3.8547267,3.8547271 -3.8547267,3.8547271 0,0 -3.8547266,-1.5033437 -3.8547266,-3.8547271 z"
       color="#dedede"
       fill="#dedede"
       font-family="Sans"
       font-weight="400"
       overflow="visible"
       stroke-width="1.54189"
       style="text-indent:0;text-decoration-line:none;text-transform:none;fill:url(#linearGradient3);fill-opacity:1"
       id="path2" />
  </g>
</svg>
