<?xml version="1.0" encoding="UTF-8" standalone="no"?>
<svg
   id="svg55"
   viewBox="0 0 12.555736 12.822245"
   version="1.1"
   height="48.462982"
   width="47.455685"
   xmlns:xlink="http://www.w3.org/1999/xlink"
   xmlns="http://www.w3.org/2000/svg"
   xmlns:svg="http://www.w3.org/2000/svg"
   xmlns:rdf="http://www.w3.org/1999/02/22-rdf-syntax-ns#"
   xmlns:cc="http://creativecommons.org/ns#"
   xmlns:dc="http://purl.org/dc/elements/1.1/">
  <defs
     id="defs25">
    <linearGradient
       id="linearGradient1">
      <stop
         style="stop-color:#ff3dfb;stop-opacity:0;"
         offset="0"
         id="stop2" />
      <stop
         style="stop-color:#ff3dfb;stop-opacity:1;"
         offset="1"
         id="stop1" />
    </linearGradient>
    <style
       type="text/css"
       id="style884" />
    <style
       type="text/css"
       id="style886" />
    <style
       type="text/css"
       id="style1032" />
    <style
       type="text/css"
       id="style4" />
    <style
       type="text/css"
       id="style7" />
    <style
       type="text/css"
       id="style17" />
    <style
       type="text/css"
       id="style19" />
    <style
       type="text/css"
       id="style21" />
    <style
       type="text/css"
       id="style23" />
    <style
       type="text/css"
       id="style25" />
    <style
       type="text/css"
       id="style27" />
    <style
       type="text/css"
       id="style29" />
    <linearGradient
       xlink:href="#linearGradient1"
       id="linearGradient2"
       x1="8"
       y1="17"
       x2="8"
       y2="6.5297928"
       gradientUnits="userSpaceOnUse" />
    <filter
       style="color-interpolation-filters:sRGB"
       id="filter2"
       x="-0.027302201"
       y="-0.026704417"
       width="1.0546044"
       height="1.0534088">
      <feGaussianBlur
         stdDeviation="0.13543752"
         id="feGaussianBlur3" />
    </filter>
  </defs>
  <metadata
     id="metadata27">
    <rdf:RDF>
      <cc:Work
         rdf:about="">
        <dc:format>image/svg+xml</dc:format>
        <dc:type
           rdf:resource="http://purl.org/dc/dcmitype/StillImage" />
        <dc:title />
      </cc:Work>
    </rdf:RDF>
  </metadata>
  <style
     type="text/css"
     id="style1046">.st0{opacity:0.15;fill:#45413C;}
	.st1{fill:#FFE500;}
	.st2{fill:#EBCB00;}
	.st3{fill:none;stroke:#45413C;stroke-linecap:round;stroke-linejoin:round;stroke-miterlimit:10;}
	.st4{fill:#FFAA54;}
	.st5{fill:#FF8A14;}
	.st6{fill:#FFB0CA;stroke:#45413C;stroke-linecap:round;stroke-linejoin:round;stroke-miterlimit:10;}
	.st7{fill:#FF87AF;stroke:#45413C;stroke-linecap:round;stroke-linejoin:round;stroke-miterlimit:10;}
	.st8{fill:#FFCC99;}
	.st9{fill:#FFFFFF;}
	.st10{fill:#F0F0F0;}
	.st11{fill:#BF8256;}
	.st12{fill:#915E3A;}
	.st13{fill:#DEA47A;}
	.st14{fill:#F0D5A8;}
	.st15{fill:#DEBB7E;}
	.st16{fill:#F7E5C6;}
	.st17{fill:#FF8A14;stroke:#45413C;stroke-linecap:round;stroke-linejoin:round;stroke-miterlimit:10;}
	.st18{fill:#FFF5E3;}
	.st19{fill:#FFF48C;}
	.st20{fill:#FFFACF;}
	.st21{fill:#FFFCE5;}
	.st22{fill:#FF87AF;}
	.st23{fill:#FFB0CA;}
	.st24{fill:#FFE500;stroke:#45413C;stroke-linecap:round;stroke-linejoin:round;stroke-miterlimit:10;}
	.st25{fill:#9CEB60;stroke:#45413C;stroke-linecap:round;stroke-linejoin:round;stroke-miterlimit:10;}
	.st26{fill:#FFFACF;stroke:#45413C;stroke-linecap:round;stroke-linejoin:round;stroke-miterlimit:10;}
	.st27{fill:#00F5BC;stroke:#45413C;stroke-linecap:round;stroke-linejoin:round;stroke-miterlimit:10;}
	.st28{fill:#BF8256;stroke:#45413C;stroke-linecap:round;stroke-linejoin:round;stroke-miterlimit:10;}
	.st29{fill:#FFE3CF;stroke:#45413C;stroke-linecap:round;stroke-linejoin:round;stroke-miterlimit:10;}
	.st30{fill:#FF6242;}
	.st31{fill:#FF866E;}
	.st32{fill:none;stroke:#E04122;stroke-linecap:round;stroke-linejoin:round;stroke-miterlimit:10;}
	.st33{fill:#FFFEF2;stroke:#45413C;stroke-linecap:round;stroke-linejoin:round;stroke-miterlimit:10;}
	.st34{fill:#FF6242;stroke:#45413C;stroke-linecap:round;stroke-linejoin:round;stroke-miterlimit:10;}
	.st35{fill:#FFA694;}
	.st36{fill:#FFFFFF;stroke:#45413C;stroke-linecap:round;stroke-linejoin:round;stroke-miterlimit:10;}
	.st37{fill:#FFFEF2;}
	.st38{fill:#FF6196;}
	.st39{fill:#B89558;}
	.st40{fill:none;stroke:#915E3A;stroke-linecap:round;stroke-linejoin:round;stroke-miterlimit:10;}
	.st41{fill:#DEBB7E;stroke:#45413C;stroke-linecap:round;stroke-linejoin:round;stroke-miterlimit:10;}
	.st42{fill:#6DD627;stroke:#45413C;stroke-linecap:round;stroke-linejoin:round;stroke-miterlimit:10;}
	.st43{fill:#E5F8FF;}
	.st44{fill:#E8F4FA;}
	.st45{fill:#E8F4FA;stroke:#45413C;stroke-linecap:round;stroke-linejoin:round;stroke-miterlimit:10;}
	.st46{fill:#FFCCDD;}
	.st47{fill:#E5F8FF;stroke:#45413C;stroke-linecap:round;stroke-linejoin:round;stroke-miterlimit:10;}
	.st48{fill:#00B8F0;stroke:#45413C;stroke-linecap:round;stroke-linejoin:round;stroke-miterlimit:10;}
	.st49{fill:#00B8F0;}
	.st50{fill:#4ACFFF;}
	.st51{fill:#E04122;}
	.st52{fill:#E04122;stroke:#45413C;stroke-linecap:round;stroke-linejoin:round;stroke-miterlimit:10;}
	.st53{fill:#87898C;}
	.st54{fill:#BDBEC0;}
	.st55{fill:#656769;}
	.st56{fill:#525252;}
	.st57{fill:#FFF48C;stroke:#45413C;stroke-linecap:round;stroke-linejoin:round;stroke-miterlimit:10;}
	.st58{fill:#6DD627;}
	.st59{fill:#EB6D00;}
	.st60{fill:#46B000;}
	.st61{fill:#80DDFF;}
	.st62{fill:#DAEDF7;}
	.st63{fill:#BF8DF2;stroke:#45413C;stroke-linecap:round;stroke-linejoin:round;stroke-miterlimit:10;}
	.st64{fill:#9F5AE5;stroke:#45413C;stroke-linecap:round;stroke-linejoin:round;stroke-miterlimit:10;}
	.st65{fill:#C8FFA1;}
	.st66{fill:#E4FFD1;}
	.st67{fill:#9CEB60;}
	.st68{fill:#E5FEFF;}
	.st69{fill:#B8ECFF;}
	.st70{fill:#E0E0E0;stroke:#45413C;stroke-linecap:round;stroke-linejoin:round;stroke-miterlimit:10;}
	.st71{fill:#E0E0E0;}
	.st72{fill:none;stroke:#4F4B45;stroke-linejoin:round;stroke-miterlimit:10;}
	.st73{fill:none;stroke:#4F4B45;stroke-linecap:round;stroke-linejoin:round;stroke-miterlimit:10;}
	.st74{fill:#E0366F;stroke:#45413C;stroke-linecap:round;stroke-linejoin:round;stroke-miterlimit:10;}
	.st75{fill:none;stroke:#45413C;stroke-miterlimit:10;}
	.st76{fill:#FF866E;stroke:#45413C;stroke-linecap:round;stroke-linejoin:round;stroke-miterlimit:10;}
	.st77{fill:#45413C;stroke:#45413C;stroke-linecap:round;stroke-linejoin:round;stroke-miterlimit:10;}
	.st78{fill:#9F5AE5;}
	.st79{fill:#803EC2;}
	.st80{fill:#803EC2;stroke:#45413C;stroke-linecap:round;stroke-linejoin:round;stroke-miterlimit:10;}
	.st81{fill:#BF8DF2;}
	.st82{fill:#FFAA54;stroke:#45413C;stroke-linecap:round;stroke-linejoin:round;stroke-miterlimit:10;}
	.st83{fill:none;stroke:#45413C;stroke-linejoin:round;stroke-miterlimit:10;}
	.st84{fill:#FFCCDD;stroke:#45413C;stroke-linecap:round;stroke-linejoin:round;stroke-miterlimit:10;}
	.st85{fill:#FF6196;stroke:#45413C;stroke-linecap:round;stroke-linejoin:round;stroke-miterlimit:10;}
	.st86{fill:#FFE5EE;}
	.st87{fill:#F7E5C6;stroke:#45413C;stroke-linecap:round;stroke-linejoin:round;stroke-miterlimit:10;}
	.st88{fill:#E5FFF9;}
	.st89{fill:none;stroke:#45413C;stroke-width:1.0064;stroke-linecap:round;stroke-linejoin:round;stroke-miterlimit:10;}
	.st90{fill:#4AEFF7;}
	.st91{fill:#A6FBFF;}
	.st92{fill:#E5FEFF;stroke:#45413C;stroke-linecap:round;stroke-linejoin:round;stroke-miterlimit:10;}
	.st93{fill:#46B000;stroke:#45413C;stroke-linecap:round;stroke-linejoin:round;stroke-miterlimit:10;}
	.st94{fill:#FFFFFF;stroke:#45413C;stroke-linejoin:round;stroke-miterlimit:10;}
	.st95{fill:#FFFFFF;stroke:#45413C;stroke-miterlimit:10;}
	.st96{fill:#009FD9;}
	.st97{fill:#00DFEB;}
	.st98{fill:#C0DCEB;stroke:#45413C;stroke-linecap:round;stroke-linejoin:round;stroke-miterlimit:10;}
	.st99{fill:#00DFEB;stroke:#45413C;stroke-linecap:round;stroke-linejoin:round;stroke-miterlimit:10;}
	.st100{fill:#FFE5EE;stroke:#45413C;stroke-linecap:round;stroke-linejoin:round;stroke-miterlimit:10;}
	.st101{fill:#8CA4B8;}
	.st102{fill:#ADC4D9;}
	.st103{fill:#656769;stroke:#45413C;stroke-linecap:round;stroke-linejoin:round;stroke-miterlimit:10;}
	.st104{fill:#F0F0F0;stroke:#45413C;stroke-linecap:round;stroke-linejoin:round;stroke-miterlimit:10;}
	.st105{fill:#C0DCEB;}
	.st106{fill:#45413C;}
	.st107{fill:#FFCABF;}
	.st108{fill:#87898C;stroke:#45413C;stroke-linecap:round;stroke-linejoin:round;stroke-miterlimit:10;}
	.st109{fill:#EBCB00;stroke:#45413C;stroke-linecap:round;stroke-linejoin:round;stroke-miterlimit:10;}</style>
  <style
     type="text/css"
     id="style1048">.st0{opacity:0.15;fill:#45413C;}
	.st1{fill:#FFE500;}
	.st2{fill:#EBCB00;}
	.st3{fill:none;stroke:#45413C;stroke-linecap:round;stroke-linejoin:round;stroke-miterlimit:10;}
	.st4{fill:#FFAA54;}
	.st5{fill:#FF8A14;}
	.st6{fill:#FFB0CA;stroke:#45413C;stroke-linecap:round;stroke-linejoin:round;stroke-miterlimit:10;}
	.st7{fill:#FF87AF;stroke:#45413C;stroke-linecap:round;stroke-linejoin:round;stroke-miterlimit:10;}
	.st8{fill:#FFCC99;}
	.st9{fill:#FFFFFF;}
	.st10{fill:#F0F0F0;}
	.st11{fill:#BF8256;}
	.st12{fill:#915E3A;}
	.st13{fill:#DEA47A;}
	.st14{fill:#F0D5A8;}
	.st15{fill:#DEBB7E;}
	.st16{fill:#F7E5C6;}
	.st17{fill:#FF8A14;stroke:#45413C;stroke-linecap:round;stroke-linejoin:round;stroke-miterlimit:10;}
	.st18{fill:#FFF5E3;}
	.st19{fill:#FFF48C;}
	.st20{fill:#FFFACF;}
	.st21{fill:#FFFCE5;}
	.st22{fill:#FF87AF;}
	.st23{fill:#FFB0CA;}
	.st24{fill:#FFE500;stroke:#45413C;stroke-linecap:round;stroke-linejoin:round;stroke-miterlimit:10;}
	.st25{fill:#9CEB60;stroke:#45413C;stroke-linecap:round;stroke-linejoin:round;stroke-miterlimit:10;}
	.st26{fill:#FFFACF;stroke:#45413C;stroke-linecap:round;stroke-linejoin:round;stroke-miterlimit:10;}
	.st27{fill:#00F5BC;stroke:#45413C;stroke-linecap:round;stroke-linejoin:round;stroke-miterlimit:10;}
	.st28{fill:#BF8256;stroke:#45413C;stroke-linecap:round;stroke-linejoin:round;stroke-miterlimit:10;}
	.st29{fill:#FFE3CF;stroke:#45413C;stroke-linecap:round;stroke-linejoin:round;stroke-miterlimit:10;}
	.st30{fill:#FF6242;}
	.st31{fill:#FF866E;}
	.st32{fill:none;stroke:#E04122;stroke-linecap:round;stroke-linejoin:round;stroke-miterlimit:10;}
	.st33{fill:#FFFEF2;stroke:#45413C;stroke-linecap:round;stroke-linejoin:round;stroke-miterlimit:10;}
	.st34{fill:#FF6242;stroke:#45413C;stroke-linecap:round;stroke-linejoin:round;stroke-miterlimit:10;}
	.st35{fill:#FFA694;}
	.st36{fill:#FFFFFF;stroke:#45413C;stroke-linecap:round;stroke-linejoin:round;stroke-miterlimit:10;}
	.st37{fill:#FFFEF2;}
	.st38{fill:#FF6196;}
	.st39{fill:#B89558;}
	.st40{fill:none;stroke:#915E3A;stroke-linecap:round;stroke-linejoin:round;stroke-miterlimit:10;}
	.st41{fill:#DEBB7E;stroke:#45413C;stroke-linecap:round;stroke-linejoin:round;stroke-miterlimit:10;}
	.st42{fill:#6DD627;stroke:#45413C;stroke-linecap:round;stroke-linejoin:round;stroke-miterlimit:10;}
	.st43{fill:#E5F8FF;}
	.st44{fill:#E8F4FA;}
	.st45{fill:#E8F4FA;stroke:#45413C;stroke-linecap:round;stroke-linejoin:round;stroke-miterlimit:10;}
	.st46{fill:#FFCCDD;}
	.st47{fill:#E5F8FF;stroke:#45413C;stroke-linecap:round;stroke-linejoin:round;stroke-miterlimit:10;}
	.st48{fill:#00B8F0;stroke:#45413C;stroke-linecap:round;stroke-linejoin:round;stroke-miterlimit:10;}
	.st49{fill:#00B8F0;}
	.st50{fill:#4ACFFF;}
	.st51{fill:#E04122;}
	.st52{fill:#E04122;stroke:#45413C;stroke-linecap:round;stroke-linejoin:round;stroke-miterlimit:10;}
	.st53{fill:#87898C;}
	.st54{fill:#BDBEC0;}
	.st55{fill:#656769;}
	.st56{fill:#525252;}
	.st57{fill:#FFF48C;stroke:#45413C;stroke-linecap:round;stroke-linejoin:round;stroke-miterlimit:10;}
	.st58{fill:#6DD627;}
	.st59{fill:#EB6D00;}
	.st60{fill:#46B000;}
	.st61{fill:#80DDFF;}
	.st62{fill:#DAEDF7;}
	.st63{fill:#BF8DF2;stroke:#45413C;stroke-linecap:round;stroke-linejoin:round;stroke-miterlimit:10;}
	.st64{fill:#9F5AE5;stroke:#45413C;stroke-linecap:round;stroke-linejoin:round;stroke-miterlimit:10;}
	.st65{fill:#C8FFA1;}
	.st66{fill:#E4FFD1;}
	.st67{fill:#9CEB60;}
	.st68{fill:#E5FEFF;}
	.st69{fill:#B8ECFF;}
	.st70{fill:#E0E0E0;stroke:#45413C;stroke-linecap:round;stroke-linejoin:round;stroke-miterlimit:10;}
	.st71{fill:#E0E0E0;}
	.st72{fill:none;stroke:#4F4B45;stroke-linejoin:round;stroke-miterlimit:10;}
	.st73{fill:none;stroke:#4F4B45;stroke-linecap:round;stroke-linejoin:round;stroke-miterlimit:10;}
	.st74{fill:#E0366F;stroke:#45413C;stroke-linecap:round;stroke-linejoin:round;stroke-miterlimit:10;}
	.st75{fill:none;stroke:#45413C;stroke-miterlimit:10;}
	.st76{fill:#FF866E;stroke:#45413C;stroke-linecap:round;stroke-linejoin:round;stroke-miterlimit:10;}
	.st77{fill:#45413C;stroke:#45413C;stroke-linecap:round;stroke-linejoin:round;stroke-miterlimit:10;}
	.st78{fill:#9F5AE5;}
	.st79{fill:#803EC2;}
	.st80{fill:#803EC2;stroke:#45413C;stroke-linecap:round;stroke-linejoin:round;stroke-miterlimit:10;}
	.st81{fill:#BF8DF2;}
	.st82{fill:#FFAA54;stroke:#45413C;stroke-linecap:round;stroke-linejoin:round;stroke-miterlimit:10;}
	.st83{fill:none;stroke:#45413C;stroke-linejoin:round;stroke-miterlimit:10;}
	.st84{fill:#FFCCDD;stroke:#45413C;stroke-linecap:round;stroke-linejoin:round;stroke-miterlimit:10;}
	.st85{fill:#FF6196;stroke:#45413C;stroke-linecap:round;stroke-linejoin:round;stroke-miterlimit:10;}
	.st86{fill:#FFE5EE;}
	.st87{fill:#F7E5C6;stroke:#45413C;stroke-linecap:round;stroke-linejoin:round;stroke-miterlimit:10;}
	.st88{fill:#E5FFF9;}
	.st89{fill:none;stroke:#45413C;stroke-width:1.0064;stroke-linecap:round;stroke-linejoin:round;stroke-miterlimit:10;}
	.st90{fill:#4AEFF7;}
	.st91{fill:#A6FBFF;}
	.st92{fill:#E5FEFF;stroke:#45413C;stroke-linecap:round;stroke-linejoin:round;stroke-miterlimit:10;}
	.st93{fill:#46B000;stroke:#45413C;stroke-linecap:round;stroke-linejoin:round;stroke-miterlimit:10;}
	.st94{fill:#FFFFFF;stroke:#45413C;stroke-linejoin:round;stroke-miterlimit:10;}
	.st95{fill:#FFFFFF;stroke:#45413C;stroke-miterlimit:10;}
	.st96{fill:#009FD9;}
	.st97{fill:#00DFEB;}
	.st98{fill:#C0DCEB;stroke:#45413C;stroke-linecap:round;stroke-linejoin:round;stroke-miterlimit:10;}
	.st99{fill:#00DFEB;stroke:#45413C;stroke-linecap:round;stroke-linejoin:round;stroke-miterlimit:10;}
	.st100{fill:#FFE5EE;stroke:#45413C;stroke-linecap:round;stroke-linejoin:round;stroke-miterlimit:10;}
	.st101{fill:#8CA4B8;}
	.st102{fill:#ADC4D9;}
	.st103{fill:#656769;stroke:#45413C;stroke-linecap:round;stroke-linejoin:round;stroke-miterlimit:10;}
	.st104{fill:#F0F0F0;stroke:#45413C;stroke-linecap:round;stroke-linejoin:round;stroke-miterlimit:10;}
	.st105{fill:#C0DCEB;}
	.st106{fill:#45413C;}
	.st107{fill:#FFCABF;}
	.st108{fill:#87898C;stroke:#45413C;stroke-linecap:round;stroke-linejoin:round;stroke-miterlimit:10;}
	.st109{fill:#EBCB00;stroke:#45413C;stroke-linecap:round;stroke-linejoin:round;stroke-miterlimit:10;}</style>
  <g
     id="g1385"
     transform="translate(-2.1884412,-2.0556354)">
    <path
       id="path1"
       style="display:inline;opacity:0.6;fill:#ff3dfb;fill-opacity:1;filter:url(#filter2)"
       d="M 2.646298,2.3806864 A 0.13230224,0.13230224 0 0 0 2.5134922,2.5134922 V 14.420025 A 0.13230224,0.13230224 0 0 0 2.646298,14.55283 h 8.994106 a 0.13230224,0.13230224 0 0 0 0.132806,-0.132805 v -1.552847 a 0.13228901,0.13228901 0 0 0 -0.132806,-0.132805 0.13228901,0.13228901 0 0 0 -0.130739,0.132805 v 1.420041 H 2.7775536 V 2.646298 H 11.509665 V 4.0663384 A 0.13228901,0.13228901 0 0 0 11.640404,4.1991442 0.13228901,0.13228901 0 0 0 11.77321,4.0663384 V 2.5134922 A 0.13230224,0.13230224 0 0 0 11.640404,2.3806864 Z m 10.871474,2.1171417 c -0.197875,0 -0.354061,0.072923 -0.459395,0.1488252 -0.105334,0.075902 -0.159522,0.1496279 -0.179313,0.1793137 l -0.437691,0.6350909 -2.9961406,4.7753251 -0.00362,0.0057 c -0.014865,0.0297 -0.021405,0.04746 -0.025838,0.05891 l -0.011369,0.01137 -0.6056359,1.666015 -0.00207,0.0078 c -0.033366,0.150178 0.030813,0.307228 0.1643278,0.390666 0.1250992,0.07818 0.2852027,0.07818 0.4103028,0 l 0.0093,-0.0078 1.2660479,-1.160113 c 0.0096,-0.0095 0.01692,-0.01909 0.02325,-0.02739 l 0.0078,-0.0036 0.01189,-0.01395 0.04289,-0.04082 3.156334,-4.7675737 h -0.0021 C 13.989095,6.2020565 14.235533,5.8436527 14.32805,5.6817499 14.442367,5.4881332 14.433263,5.2775322 14.38644,5.1174544 14.36287,5.0368674 14.32982,4.966608 14.29704,4.9102359 14.2747,4.8718189 14.25175,4.8472179 14.22831,4.8203209 c -3.25e-4,-6.492e-4 -0.0096,-0.015976 -0.01344,-0.021187 -0.0039,-0.00521 -0.0067,-0.010609 -0.0098,-0.013952 -0.0061,-0.00669 -0.01263,-0.011041 -0.01757,-0.015503 -0.0099,-0.00892 -0.01877,-0.01514 -0.02946,-0.023254 -0.02138,-0.016229 -0.04585,-0.034997 -0.0739,-0.053226 -0.05609,-0.036459 -0.120628,-0.074972 -0.17983,-0.1012838 v 0.00207 c -0.126351,-0.057432 -0.25673,-0.095599 -0.387049,-0.095599 z m 0,0.2640614 c 0.07742,0 0.174819,0.025909 0.27698,0.072346 h 0.0021 c 0.03428,0.015235 0.09485,0.048525 0.142624,0.07958 0.02389,0.015527 0.04471,0.030953 0.05839,0.04134 0.0016,0.00122 0.0027,9.86e-4 0.0041,0.00207 l 0.0021,0.00568 0.01964,0.01757 c -0.0053,-0.0045 0.02224,0.02347 0.04496,0.062527 0.02272,0.039057 0.0474,0.09127 0.06408,0.1483084 0.03336,0.1140761 0.03706,0.2407076 -0.03307,0.3575939 v 0.00207 c -0.07367,0.1289269 -0.32612,0.4997612 -0.43149,0.657828 l -3.140831,4.7463872 -0.02119,0.02119 0.0041,-0.0026 c -0.007,0.0075 -0.01224,0.0149 -0.01809,0.02222 l -0.0098,0.0062 -1.2557126,1.150294 c -0.040221,0.02339 -0.085213,0.0249 -0.1250545,0 -0.032687,-0.02043 -0.05313,-0.07277 -0.044958,-0.109552 l 0.5761809,-1.585918 0.00568,-0.0036 0.00982,-0.01964 c 0.0183,-0.03659 0.02906,-0.06743 0.031522,-0.07235 l -0.00775,0.0098 2.9899392,-4.7655073 0.435624,-0.6309568 v -0.00207 c 9.83e-4,-0.00147 0.04399,-0.059766 0.115236,-0.1111022 0.07124,-0.051336 0.170384,-0.099734 0.304885,-0.099734 z m -9.0199439,0.529673 c -0.073288,0 -0.132289,0.059001 -0.132289,0.1322891 0,0.073288 0.059001,0.132289 0.132289,0.132289 h 5.0269844 c 0.073288,0 0.1322891,-0.059001 0.1322891,-0.132289 0,-0.073288 -0.059001,-0.1322891 -0.1322891,-0.1322891 z m 0,2.9103594 c -0.073288,0 -0.132289,0.059001 -0.132289,0.132289 0,0.073288 0.059001,0.1322891 0.132289,0.1322891 H 8.4665 c 0.073288,0 0.1322891,-0.059001 0.1322891,-0.1322891 0,-0.073288 -0.059001,-0.132289 -0.1322891,-0.132289 z m 0,2.9103591 c -0.073288,0 -0.132289,0.059 -0.132289,0.132289 0,0.07329 0.059001,0.132289 0.132289,0.132289 h 2.9103594 c 0.073288,0 0.1322891,-0.059 0.1322891,-0.132289 0,-0.07329 -0.059001,-0.132289 -0.1322891,-0.132289 z" />
    <path
       id="path1373"
       style="fill:url(#linearGradient2);fill-opacity:1"
       d="M 2.646298,2.3806864 A 0.13230224,0.13230224 0 0 0 2.5134922,2.5134922 V 14.420025 A 0.13230224,0.13230224 0 0 0 2.646298,14.55283 h 8.994106 a 0.13230224,0.13230224 0 0 0 0.132806,-0.132805 v -1.552847 a 0.13228901,0.13228901 0 0 0 -0.132806,-0.132805 0.13228901,0.13228901 0 0 0 -0.130739,0.132805 v 1.420041 H 2.7775536 V 2.646298 H 11.509665 V 4.0663384 A 0.13228901,0.13228901 0 0 0 11.640404,4.1991442 0.13228901,0.13228901 0 0 0 11.77321,4.0663384 V 2.5134922 A 0.13230224,0.13230224 0 0 0 11.640404,2.3806864 Z m 10.871474,2.1171417 c -0.197875,0 -0.354061,0.072923 -0.459395,0.1488252 -0.105334,0.075902 -0.159522,0.1496279 -0.179313,0.1793137 l -0.437691,0.6350909 -2.9961406,4.7753251 -0.00362,0.0057 c -0.014865,0.0297 -0.021405,0.04746 -0.025838,0.05891 l -0.011369,0.01137 -0.6056359,1.666015 -0.00207,0.0078 c -0.033366,0.150178 0.030813,0.307228 0.1643278,0.390666 0.1250992,0.07818 0.2852027,0.07818 0.4103028,0 l 0.0093,-0.0078 1.2660479,-1.160113 c 0.0096,-0.0095 0.01692,-0.01909 0.02325,-0.02739 l 0.0078,-0.0036 0.01189,-0.01395 0.04289,-0.04082 3.156334,-4.7675737 h -0.0021 C 13.989095,6.2020565 14.235533,5.8436527 14.32805,5.6817499 14.442367,5.4881332 14.433263,5.2775322 14.38644,5.1174544 14.36287,5.0368674 14.32982,4.966608 14.29704,4.9102359 14.2747,4.8718189 14.25175,4.8472179 14.22831,4.8203209 c -3.25e-4,-6.492e-4 -0.0096,-0.015976 -0.01344,-0.021187 -0.0039,-0.00521 -0.0067,-0.010609 -0.0098,-0.013952 -0.0061,-0.00669 -0.01263,-0.011041 -0.01757,-0.015503 -0.0099,-0.00892 -0.01877,-0.01514 -0.02946,-0.023254 -0.02138,-0.016229 -0.04585,-0.034997 -0.0739,-0.053226 -0.05609,-0.036459 -0.120628,-0.074972 -0.17983,-0.1012838 v 0.00207 c -0.126351,-0.057432 -0.25673,-0.095599 -0.387049,-0.095599 z m 0,0.2640614 c 0.07742,0 0.174819,0.025909 0.27698,0.072346 h 0.0021 c 0.03428,0.015235 0.09485,0.048525 0.142624,0.07958 0.02389,0.015527 0.04471,0.030953 0.05839,0.04134 0.0016,0.00122 0.0027,9.86e-4 0.0041,0.00207 l 0.0021,0.00568 0.01964,0.01757 c -0.0053,-0.0045 0.02224,0.02347 0.04496,0.062527 0.02272,0.039057 0.0474,0.09127 0.06408,0.1483084 0.03336,0.1140761 0.03706,0.2407076 -0.03307,0.3575939 v 0.00207 c -0.07367,0.1289269 -0.32612,0.4997612 -0.43149,0.657828 l -3.140831,4.7463872 -0.02119,0.02119 0.0041,-0.0026 c -0.007,0.0075 -0.01224,0.0149 -0.01809,0.02222 l -0.0098,0.0062 -1.2557126,1.150294 c -0.040221,0.02339 -0.085213,0.0249 -0.1250545,0 -0.032687,-0.02043 -0.05313,-0.07277 -0.044958,-0.109552 l 0.5761809,-1.585918 0.00568,-0.0036 0.00982,-0.01964 c 0.0183,-0.03659 0.02906,-0.06743 0.031522,-0.07235 l -0.00775,0.0098 2.9899392,-4.7655073 0.435624,-0.6309568 v -0.00207 c 9.83e-4,-0.00147 0.04399,-0.059766 0.115236,-0.1111022 0.07124,-0.051336 0.170384,-0.099734 0.304885,-0.099734 z m -9.0199439,0.529673 c -0.073288,0 -0.132289,0.059001 -0.132289,0.1322891 0,0.073288 0.059001,0.132289 0.132289,0.132289 h 5.0269844 c 0.073288,0 0.1322891,-0.059001 0.1322891,-0.132289 0,-0.073288 -0.059001,-0.1322891 -0.1322891,-0.1322891 z m 0,2.9103594 c -0.073288,0 -0.132289,0.059001 -0.132289,0.132289 0,0.073288 0.059001,0.1322891 0.132289,0.1322891 H 8.4665 c 0.073288,0 0.1322891,-0.059001 0.1322891,-0.1322891 0,-0.073288 -0.059001,-0.132289 -0.1322891,-0.132289 z m 0,2.9103591 c -0.073288,0 -0.132289,0.059 -0.132289,0.132289 0,0.07329 0.059001,0.132289 0.132289,0.132289 h 2.9103594 c 0.073288,0 0.1322891,-0.059 0.1322891,-0.132289 0,-0.07329 -0.059001,-0.132289 -0.1322891,-0.132289 z" />
    <g
       id="g1383"
       transform="matrix(0.26457812,0,0,0.26457812,-1.4550977,0.52915624)"
       style="fill:#f8a420;fill-opacity:1" />
  </g>
</svg>
