<?xml version="1.0" encoding="UTF-8" standalone="no"?>
<svg
   id="svg59"
   version="1.1"
   height="48.484001"
   width="48.484001"
   xmlns:xlink="http://www.w3.org/1999/xlink"
   xmlns="http://www.w3.org/2000/svg"
   xmlns:svg="http://www.w3.org/2000/svg"
   xmlns:rdf="http://www.w3.org/1999/02/22-rdf-syntax-ns#"
   xmlns:cc="http://creativecommons.org/ns#"
   xmlns:dc="http://purl.org/dc/elements/1.1/">
  <metadata
     id="metadata63">
    <rdf:RDF>
      <cc:Work
         rdf:about="">
        <dc:format>image/svg+xml</dc:format>
        <dc:type
           rdf:resource="http://purl.org/dc/dcmitype/StillImage" />
        <dc:title />
      </cc:Work>
    </rdf:RDF>
  </metadata>
  <defs
     id="defs19">
    <linearGradient
       id="linearGradient3">
      <stop
         style="stop-color:#ff3dfb;stop-opacity:0;"
         offset="0"
         id="stop5" />
      <stop
         style="stop-color:#ff3dfb;stop-opacity:1;"
         offset="1"
         id="stop3" />
    </linearGradient>
    <style
       id="style2"
       type="text/css" />
    <style
       id="style4"
       type="text/css" />
    <style
       type="text/css"
       id="style872" />
    <style
       id="style4-3"
       type="text/css" />
    <style
       id="style6"
       type="text/css" />
    <style
       id="style8"
       type="text/css" />
    <style
       type="text/css"
       id="style872-0" />
    <style
       type="text/css"
       id="style874" />
    <style
       type="text/css"
       id="style876" />
    <style
       type="text/css"
       id="style872-8" />
    <style
       id="style4-2"
       type="text/css" />
    <style
       id="style6-3"
       type="text/css" />
    <style
       id="style8-7"
       type="text/css" />
    <style
       type="text/css"
       id="style872-0-3" />
    <style
       type="text/css"
       id="style874-6" />
    <style
       type="text/css"
       id="style876-1" />
    <style
       type="text/css"
       id="style853" />
    <style
       type="text/css"
       id="style863" />
    <style
       type="text/css"
       id="style865" />
    <style
       type="text/css"
       id="style867" />
    <style
       type="text/css"
       id="style869" />
    <style
       type="text/css"
       id="style871" />
    <style
       type="text/css"
       id="style873" />
    <style
       type="text/css"
       id="style875" />
    <style
       type="text/css"
       id="current-color-scheme">.ColorScheme-Text {
        color:#4d4d4d;
      }</style>
    <style
       id="style862"
       type="text/css">.ColorScheme-Text {
        color:#4d4d4d;
      }</style>
    <style
       id="style2-2"
       type="text/css" />
    <style
       id="style4-37"
       type="text/css" />
    <style
       type="text/css"
       id="style872-7" />
    <style
       id="style4-3-4"
       type="text/css" />
    <style
       id="style6-7"
       type="text/css" />
    <style
       id="style8-4"
       type="text/css" />
    <style
       type="text/css"
       id="style872-0-8" />
    <style
       type="text/css"
       id="style874-8" />
    <style
       type="text/css"
       id="style876-4" />
    <style
       type="text/css"
       id="style872-76" />
    <style
       id="style4-39"
       type="text/css" />
    <style
       id="style6-4"
       type="text/css" />
    <style
       id="style8-8"
       type="text/css" />
    <style
       type="text/css"
       id="style872-0-88" />
    <style
       type="text/css"
       id="style874-5" />
    <style
       type="text/css"
       id="style876-0" />
    <style
       type="text/css"
       id="style4-3-8" />
    <style
       type="text/css"
       id="style6-6" />
    <style
       type="text/css"
       id="style913" />
    <linearGradient
       xlink:href="#linearGradient3"
       id="linearGradient5"
       x1="-45"
       y1="65"
       x2="-45"
       y2="27.680208"
       gradientUnits="userSpaceOnUse" />
    <filter
       style="color-interpolation-filters:sRGB"
       id="filter5"
       x="-0.026999999"
       y="-0.026999999"
       width="1.054"
       height="1.054">
      <feGaussianBlur
         stdDeviation="0.5175"
         id="feGaussianBlur5" />
    </filter>
  </defs>
  <g
     id="g5"
     transform="translate(-7.7580001,-7.7580001)">
    <path
       id="rect1074"
       style="display:inline;opacity:0.6;fill:#ff3dfb;fill-opacity:1;stroke-linecap:round;stroke-linejoin:round;paint-order:stroke fill markers;filter:url(#filter5)"
       d="m -65.685547,9 c -2.928166,0 -5.300678,2.367713 -5.3125,5.292969 v 0.169922 C -70.99813,14.475399 -71,14.487472 -71,14.5 v 35 c 0,3.038351 2.461649,5.5 5.5,5.5 h 33.658203 1.341797 0.1875 c 0.09151,0 0.183073,-0.0032 0.273438,-0.0078 0.813283,-0.04112 1.577609,-0.264378 2.253906,-0.63086 0.901728,-0.488642 1.645101,-1.230853 2.136718,-2.130859 0.409682,-0.750006 0.644744,-1.609295 0.648438,-2.523438 V 49.5 v -2.455078 -5 -5 V 14.5 C -25,11.461649 -27.461649,9 -30.5,9 H -54.072266 -65.5 Z M -65.5,10 h 0.460938 c 0.01334,0.152509 0.0385,0.30382 0.03906,0.457031 -1.65e-4,2.864583 -2.20374,5.132461 -4.998047,5.396485 V 14.460938 C -69.97712,11.977805 -67.988455,10 -65.5,10 Z m 1.482422,0 h 3.992187 c 0.0085,0.1523 0.02356,0.304471 0.02539,0.457031 -3.46e-4,5.626077 -4.440766,10.12117 -9.998047,10.396485 V 16.935547 C -66.647243,16.679149 -63.99899,13.870411 -64,10.455078 v -0.002 c -5.67e-4,-0.151176 -0.0067,-0.302374 -0.01758,-0.453125 z m 5.003906,0 h 3.994141 c 0.0059,0.153247 0.0162,0.305612 0.01758,0.458984 -0.0016,8.391915 -6.669787,15.174135 -14.996094,15.445313 V 21.941406 C -63.884582,21.678767 -58.999234,16.632465 -59,10.455078 v -0.0039 -0.002 c -0.0018,-0.149799 -0.0062,-0.299737 -0.01367,-0.449219 z m 5.001953,0 H -30.5 c 2.501649,0 4.5,1.998351 4.5,4.5 v 22.556641 c -8.873689,0.267224 -15.996626,7.550668 -15.996094,16.488281 v 0.002 0.002 c 0.0013,0.150014 0.0041,0.30095 0.0098,0.451172 H -65.5 C -68.001649,54 -70,52.001649 -70,49.5 V 26.943359 c 8.874596,-0.266214 15.998579,-7.550013 15.998047,-16.488281 v -0.002 -0.002 c -0.0013,-0.150014 -0.0041,-0.30095 -0.0098,-0.451172 z M -26,38.095703 v 3.962891 c -6.113465,0.262639 -10.998813,5.308941 -10.998047,11.486328 v 0.0039 0.002 c 0.0018,0.149799 0.0062,0.299737 0.01367,0.449219 h -3.994141 c -0.0059,-0.153247 -0.0162,-0.305612 -0.01758,-0.458984 0.0016,-8.391915 6.669787,-15.174135 14.996094,-15.445313 z m 0,5.050781 v 3.919922 c -3.350733,0.256471 -5.999057,3.063234 -5.998047,6.478516 v 0.002 c 5.67e-4,0.151176 0.0067,0.302374 0.01758,0.453125 h -3.992187 c -0.0085,-0.1523 -0.02356,-0.304471 -0.02539,-0.457031 3.46e-4,-5.626077 4.440766,-10.12117 9.998047,-10.396485 z m 0,5 V 49.5 c 0,2.501649 -1.998351,4.5 -4.5,4.5 h -0.458984 c -0.01334,-0.152509 -0.0385,-0.30382 -0.03906,-0.457031 1.65e-4,-2.864583 2.20374,-5.132461 4.998047,-5.396485 z"
       transform="translate(80)" />
    <path
       id="path1"
       style="fill:url(#linearGradient5);fill-opacity:1;stroke-linecap:round;stroke-linejoin:round;paint-order:stroke fill markers"
       d="m -65.685547,9 c -2.928166,0 -5.300678,2.367713 -5.3125,5.292969 v 0.169922 C -70.99813,14.475399 -71,14.487472 -71,14.5 v 35 c 0,3.038351 2.461649,5.5 5.5,5.5 h 33.658203 1.341797 0.1875 c 0.09151,0 0.183073,-0.0032 0.273438,-0.0078 0.813283,-0.04112 1.577609,-0.264378 2.253906,-0.63086 0.901728,-0.488642 1.645101,-1.230853 2.136718,-2.130859 0.409682,-0.750006 0.644744,-1.609295 0.648438,-2.523438 V 49.5 v -2.455078 -5 -5 V 14.5 C -25,11.461649 -27.461649,9 -30.5,9 H -54.072266 -65.5 Z M -65.5,10 h 0.460938 c 0.01334,0.152509 0.0385,0.30382 0.03906,0.457031 -1.65e-4,2.864583 -2.20374,5.132461 -4.998047,5.396485 V 14.460938 C -69.97712,11.977805 -67.988455,10 -65.5,10 Z m 1.482422,0 h 3.992187 c 0.0085,0.1523 0.02356,0.304471 0.02539,0.457031 -3.46e-4,5.626077 -4.440766,10.12117 -9.998047,10.396485 V 16.935547 C -66.647243,16.679149 -63.99899,13.870411 -64,10.455078 v -0.002 c -5.67e-4,-0.151176 -0.0067,-0.302374 -0.01758,-0.453125 z m 5.003906,0 h 3.994141 c 0.0059,0.153247 0.0162,0.305612 0.01758,0.458984 -0.0016,8.391915 -6.669787,15.174135 -14.996094,15.445313 V 21.941406 C -63.884582,21.678767 -58.999234,16.632465 -59,10.455078 v -0.0039 -0.002 c -0.0018,-0.149799 -0.0062,-0.299737 -0.01367,-0.449219 z m 5.001953,0 H -30.5 c 2.501649,0 4.5,1.998351 4.5,4.5 v 22.556641 c -8.873689,0.267224 -15.996626,7.550668 -15.996094,16.488281 v 0.002 0.002 c 0.0013,0.150014 0.0041,0.30095 0.0098,0.451172 H -65.5 C -68.001649,54 -70,52.001649 -70,49.5 V 26.943359 c 8.874596,-0.266214 15.998579,-7.550013 15.998047,-16.488281 v -0.002 -0.002 c -0.0013,-0.150014 -0.0041,-0.30095 -0.0098,-0.451172 z M -26,38.095703 v 3.962891 c -6.113465,0.262639 -10.998813,5.308941 -10.998047,11.486328 v 0.0039 0.002 c 0.0018,0.149799 0.0062,0.299737 0.01367,0.449219 h -3.994141 c -0.0059,-0.153247 -0.0162,-0.305612 -0.01758,-0.458984 0.0016,-8.391915 6.669787,-15.174135 14.996094,-15.445313 z m 0,5.050781 v 3.919922 c -3.350733,0.256471 -5.999057,3.063234 -5.998047,6.478516 v 0.002 c 5.67e-4,0.151176 0.0067,0.302374 0.01758,0.453125 h -3.992187 c -0.0085,-0.1523 -0.02356,-0.304471 -0.02539,-0.457031 3.46e-4,-5.626077 4.440766,-10.12117 9.998047,-10.396485 z m 0,5 V 49.5 c 0,2.501649 -1.998351,4.5 -4.5,4.5 h -0.458984 c -0.01334,-0.152509 -0.0385,-0.30382 -0.03906,-0.457031 1.65e-4,-2.864583 2.20374,-5.132461 4.998047,-5.396485 z"
       transform="translate(80)" />
  </g>
</svg>
