<?xml version="1.0" encoding="UTF-8" standalone="no"?>
<svg
   width="48.484051"
   height="48.486012"
   version="1.1"
   viewBox="0 0 12.827819 12.828338"
   id="svg33"
   xmlns:xlink="http://www.w3.org/1999/xlink"
   xmlns="http://www.w3.org/2000/svg"
   xmlns:svg="http://www.w3.org/2000/svg"
   xmlns:rdf="http://www.w3.org/1999/02/22-rdf-syntax-ns#"
   xmlns:cc="http://creativecommons.org/ns#"
   xmlns:dc="http://purl.org/dc/elements/1.1/">
  <defs
     id="defs13">
    <linearGradient
       id="linearGradient1">
      <stop
         style="stop-color:#ff3dfb;stop-opacity:0;"
         offset="0"
         id="stop2" />
      <stop
         style="stop-color:#ff3dfb;stop-opacity:1;"
         offset="1"
         id="stop1" />
    </linearGradient>
    <style
       type="text/css"
       id="style841" />
    <linearGradient
       xlink:href="#linearGradient1"
       id="linearGradient2"
       x1="24.345531"
       y1="17"
       x2="24.345531"
       y2="7.0015965"
       gradientUnits="userSpaceOnUse" />
    <filter
       style="color-interpolation-filters:sRGB"
       id="filter2"
       x="-0.027000574"
       y="-0.026999428"
       width="1.0540011"
       height="1.0539989">
      <feGaussianBlur
         stdDeviation="0.13692209"
         id="feGaussianBlur3" />
    </filter>
  </defs>
  <metadata
     id="metadata15">
    <rdf:RDF>
      <cc:Work
         rdf:about="">
        <dc:format>image/svg+xml</dc:format>
        <dc:type
           rdf:resource="http://purl.org/dc/dcmitype/StillImage" />
        <dc:title />
      </cc:Work>
    </rdf:RDF>
  </metadata>
  <g
     id="g960"
     transform="translate(-17.398121,-2.0520734)"
     style="stroke:#f8a420;stroke-opacity:1">
    <path
       id="path950"
       style="display:inline;opacity:0.6;fill:#ff3dfb;fill-opacity:1;stroke:none;filter:url(#filter2)"
       d="m 17.726734,2.3806864 v 7.4081875 h 1.321857 v 1.7207911 l 1.588502,-1.192152 v 2.514526 h 5.644506 l 2.292838,1.719758 v -1.719758 h 1.322891 V 5.4238516 H 26.986452 V 2.3806864 Z m 0.265612,0.2656116 h 8.730561 v 2.7775536 h -5.17e-4 v 4.1009609 h -5.467775 l -5.17e-4,5.168e-4 -0.617005,0.4624949 v 5.168e-4 l -1.32289,0.992168 V 9.5253293 h -1.321857 z m 2.24788,2.7775536 c -0.4368,-4e-7 -0.793217,0.3559 -0.793217,0.7927008 0,0.4368008 0.356417,0.7952852 0.793217,0.7952847 0.436801,-2e-7 0.793218,-0.3584844 0.793218,-0.7952847 0,-0.4368003 -0.356417,-0.7927006 -0.793218,-0.7927008 z m 2.117142,0 c -0.436801,-4e-7 -0.794768,0.3559 -0.794768,0.7927008 0,0.4368008 0.357967,0.7952852 0.794768,0.7952847 0.4368,-2e-7 0.793218,-0.3584844 0.793218,-0.7952847 0,-0.4368003 -0.356418,-0.7927006 -0.793218,-0.7927008 z m 2.115075,0 c -0.4368,2e-7 -0.7927,0.3559005 -0.792701,0.7927008 0,0.4368003 0.355901,0.7952845 0.792701,0.7952847 0.436801,5e-7 0.795284,-0.3584839 0.795284,-0.7952847 0,-0.4368008 -0.358483,-0.7927012 -0.795284,-0.7927008 z m -4.232217,0.2635446 c 0.293812,10e-8 0.529157,0.2353444 0.529157,0.5291562 0,0.2938118 -0.235345,0.5296729 -0.529157,0.529673 -0.293812,4e-7 -0.529156,-0.2358609 -0.529156,-0.529673 1e-6,-0.2938121 0.235344,-0.5291565 0.529156,-0.5291562 z m 2.117142,0 c 0.293812,10e-8 0.529156,0.2353444 0.529156,0.5291562 0,0.2938118 -0.235344,0.5296729 -0.529156,0.529673 -0.293812,4e-7 -0.529156,-0.2358609 -0.529156,-0.529673 0,-0.2938121 0.235344,-0.5291565 0.529156,-0.5291562 z m 2.115075,0 c 0.293812,-3e-7 0.529673,0.2353441 0.529673,0.5291562 0,0.2938121 -0.235861,0.5296734 -0.529673,0.529673 -0.293812,-1e-7 -0.529156,-0.2358612 -0.529156,-0.529673 0,-0.2938118 0.235344,-0.5291561 0.529156,-0.5291562 z m 2.514525,0.00103 h 2.645782 v 6.8790318 h -1.322891 v 1.45518 l -1.940412,-1.45518 H 20.901672 V 10.12011 l 0.440791,-0.3307229 h 5.644505 z" />
    <path
       id="path1"
       style="fill:url(#linearGradient2);fill-opacity:1;stroke:none"
       d="m 17.726734,2.3806864 v 7.4081875 h 1.321857 v 1.7207911 l 1.588502,-1.192152 v 2.514526 h 5.644506 l 2.292838,1.719758 v -1.719758 h 1.322891 V 5.4238516 H 26.986452 V 2.3806864 Z m 0.265612,0.2656116 h 8.730561 v 2.7775536 h -5.17e-4 v 4.1009609 h -5.467775 l -5.17e-4,5.168e-4 -0.617005,0.4624949 v 5.168e-4 l -1.32289,0.992168 V 9.5253293 h -1.321857 z m 2.24788,2.7775536 c -0.4368,-4e-7 -0.793217,0.3559 -0.793217,0.7927008 0,0.4368008 0.356417,0.7952852 0.793217,0.7952847 0.436801,-2e-7 0.793218,-0.3584844 0.793218,-0.7952847 0,-0.4368003 -0.356417,-0.7927006 -0.793218,-0.7927008 z m 2.117142,0 c -0.436801,-4e-7 -0.794768,0.3559 -0.794768,0.7927008 0,0.4368008 0.357967,0.7952852 0.794768,0.7952847 0.4368,-2e-7 0.793218,-0.3584844 0.793218,-0.7952847 0,-0.4368003 -0.356418,-0.7927006 -0.793218,-0.7927008 z m 2.115075,0 c -0.4368,2e-7 -0.7927,0.3559005 -0.792701,0.7927008 0,0.4368003 0.355901,0.7952845 0.792701,0.7952847 0.436801,5e-7 0.795284,-0.3584839 0.795284,-0.7952847 0,-0.4368008 -0.358483,-0.7927012 -0.795284,-0.7927008 z m -4.232217,0.2635446 c 0.293812,10e-8 0.529157,0.2353444 0.529157,0.5291562 0,0.2938118 -0.235345,0.5296729 -0.529157,0.529673 -0.293812,4e-7 -0.529156,-0.2358609 -0.529156,-0.529673 1e-6,-0.2938121 0.235344,-0.5291565 0.529156,-0.5291562 z m 2.117142,0 c 0.293812,10e-8 0.529156,0.2353444 0.529156,0.5291562 0,0.2938118 -0.235344,0.5296729 -0.529156,0.529673 -0.293812,4e-7 -0.529156,-0.2358609 -0.529156,-0.529673 0,-0.2938121 0.235344,-0.5291565 0.529156,-0.5291562 z m 2.115075,0 c 0.293812,-3e-7 0.529673,0.2353441 0.529673,0.5291562 0,0.2938121 -0.235861,0.5296734 -0.529673,0.529673 -0.293812,-1e-7 -0.529156,-0.2358612 -0.529156,-0.529673 0,-0.2938118 0.235344,-0.5291561 0.529156,-0.5291562 z m 2.514525,0.00103 h 2.645782 v 6.8790318 h -1.322891 v 1.45518 l -1.940412,-1.45518 H 20.901672 V 10.12011 l 0.440791,-0.3307229 h 5.644505 z" />
  </g>
</svg>
