<?xml version="1.0" encoding="UTF-8" standalone="no"?>
<svg
   width="46.882416"
   height="46.882416"
   version="1.1"
   id="svg29"
   xmlns:xlink="http://www.w3.org/1999/xlink"
   xmlns="http://www.w3.org/2000/svg"
   xmlns:svg="http://www.w3.org/2000/svg"
   xmlns:rdf="http://www.w3.org/1999/02/22-rdf-syntax-ns#"
   xmlns:cc="http://creativecommons.org/ns#"
   xmlns:dc="http://purl.org/dc/elements/1.1/">
  <metadata
     id="metadata33">
    <rdf:RDF>
      <cc:Work
         rdf:about="">
        <dc:format>image/svg+xml</dc:format>
        <dc:type
           rdf:resource="http://purl.org/dc/dcmitype/StillImage" />
        <dc:title />
      </cc:Work>
    </rdf:RDF>
  </metadata>
  <defs
     id="defs7">
    <linearGradient
       id="linearGradient4">
      <stop
         style="stop-color:#00abff;stop-opacity:0;"
         offset="0"
         id="stop5" />
      <stop
         style="stop-color:#00abff;stop-opacity:1;"
         offset="1"
         id="stop4" />
    </linearGradient>
    <style
       type="text/css"
       id="style872" />
    <style
       id="style4"
       type="text/css" />
    <style
       id="style6"
       type="text/css" />
    <style
       id="style8"
       type="text/css" />
    <style
       type="text/css"
       id="style872-0" />
    <style
       type="text/css"
       id="style874" />
    <style
       type="text/css"
       id="style876" />
    <style
       type="text/css"
       id="style1010" />
    <style
       id="style4-6"
       type="text/css" />
    <style
       id="style6-1"
       type="text/css" />
    <style
       id="style8-8"
       type="text/css" />
    <style
       type="text/css"
       id="style1078" />
    <style
       type="text/css"
       id="style1080" />
    <style
       id="style14"
       type="text/css" />
    <style
       id="style16"
       type="text/css" />
    <style
       type="text/css"
       id="style913" />
    <linearGradient
       xlink:href="#linearGradient4"
       id="linearGradient5"
       x1="33.22456"
       y1="57.650921"
       x2="33.22456"
       y2="28.375544"
       gradientUnits="userSpaceOnUse" />
    <filter
       style="color-interpolation-filters:sRGB"
       id="filter5"
       x="-0.026999999"
       y="-0.026999999"
       width="1.054"
       height="1.054">
      <feGaussianBlur
         stdDeviation="0.516306"
         id="feGaussianBlur5" />
    </filter>
  </defs>
  <g
     id="g5"
     transform="translate(-0.84785548,-1.0666055)">
    <path
       id="path2"
       style="display:inline;opacity:0.6;fill:#00abff;fill-opacity:1;stroke-linecap:round;paint-order:stroke fill markers;filter:url(#filter5)"
       d="m 13.271693,9.23448 c -2.115759,0 -3.8550527,1.739294 -3.8550527,3.855053 v 38.185776 c 0,2.115758 1.7400687,3.853038 3.8550527,3.853038 H 51.45747 c 2.114984,0 3.853037,-1.738055 3.853037,-3.853038 V 13.089533 c 0,-2.114985 -1.737279,-3.855053 -3.853037,-3.855053 z m 0,2.930082 H 51.45747 c 0.545443,0 0.924971,0.378376 0.924971,0.924971 v 38.185776 c 0,0.546585 -0.378385,0.924971 -0.924971,0.924971 H 13.271693 c -0.546594,0 -0.926986,-0.379529 -0.926986,-0.924971 V 13.089533 c 0,-0.545451 0.381535,-0.924972 0.926986,-0.924971 z m 21.719684,2.674153 -4.796144,4.79413 4.092844,4.090829 -4.092844,4.092845 4.796144,4.794129 8.886975,-8.886974 z m -7.500525,0.604556 c -1.326225,0 -2.418225,1.089983 -2.418225,2.416209 0,1.326226 1.092,2.418224 2.418225,2.418224 1.326227,0 2.416209,-1.091999 2.416209,-2.418224 0,-1.326225 -1.089983,-2.416209 -2.416209,-2.416209 z m 0,1.968838 c 0.244345,0 0.447371,0.203026 0.447371,0.447371 0,0.244343 -0.203027,0.447372 -0.447371,0.447372 -0.244342,0 -0.447372,-0.20303 -0.447372,-0.447372 0,-0.244344 0.203029,-0.447371 0.447372,-0.447371 z m 7.500525,1.559754 4.751811,4.751811 -4.751811,4.753826 -0.658966,-0.660981 4.09083,-4.092845 -4.09083,-4.090829 z m -10.366121,3.155783 c -1.850079,0 -3.371408,1.521329 -3.371408,3.371408 0,1.850078 1.521329,3.369392 3.371408,3.369392 1.850078,0 3.373423,-1.519313 3.373423,-3.369392 0,-1.85008 -1.523345,-3.371408 -3.373423,-3.371408 z m 0,2.924036 c 0.272652,0 0.447371,0.174719 0.447371,0.447372 0,0.272651 -0.174719,0.445356 -0.447371,0.445356 -0.272653,0 -0.445355,-0.172705 -0.445356,-0.445356 0,-0.272653 0.172703,-0.447372 0.445356,-0.447372 z m 5.251577,4.711507 c -2.112868,0 -3.849007,1.738154 -3.849007,3.851022 0,2.112869 1.736139,3.849007 3.849007,3.849007 2.112868,0 3.849007,-1.736138 3.849007,-3.849007 0,-2.112868 -1.736139,-3.851022 -3.849007,-3.851022 z m 0,2.926052 c 0.534202,0 0.922956,0.390769 0.922956,0.92497 0,0.534203 -0.388754,0.922956 -0.922956,0.922956 -0.534203,0 -0.922956,-0.388753 -0.922956,-0.922956 0,-0.534201 0.388753,-0.92497 0.922956,-0.92497 z M 13.23542,41.697126 v 9.610426 h 9.551986 0.06046 9.481455 0.06046 9.489515 0.06046 9.549971 v -9.610426 h -9.549971 -0.06046 -9.489515 -0.06046 -9.481455 -0.06046 z m 2.922021,2.928067 h 3.760338 v 3.754293 h -3.760338 z m 9.54997,0 h 3.760339 v 3.754293 h -3.760339 z m 9.551986,0 h 3.760339 v 3.754293 h -3.760339 z m 9.54191,0 h 3.758324 v 3.754293 h -3.758324 z"
       transform="matrix(0.9692029,0,0,0.9692029,-7.077807,-6.6825067)" />
    <path
       id="path3"
       style="fill:url(#linearGradient5);fill-opacity:1;stroke-linecap:round;paint-order:stroke fill markers"
       d="m 13.271693,9.23448 c -2.115759,0 -3.8550527,1.739294 -3.8550527,3.855053 v 38.185776 c 0,2.115758 1.7400687,3.853038 3.8550527,3.853038 H 51.45747 c 2.114984,0 3.853037,-1.738055 3.853037,-3.853038 V 13.089533 c 0,-2.114985 -1.737279,-3.855053 -3.853037,-3.855053 z m 0,2.930082 H 51.45747 c 0.545443,0 0.924971,0.378376 0.924971,0.924971 v 38.185776 c 0,0.546585 -0.378385,0.924971 -0.924971,0.924971 H 13.271693 c -0.546594,0 -0.926986,-0.379529 -0.926986,-0.924971 V 13.089533 c 0,-0.545451 0.381535,-0.924972 0.926986,-0.924971 z m 21.719684,2.674153 -4.796144,4.79413 4.092844,4.090829 -4.092844,4.092845 4.796144,4.794129 8.886975,-8.886974 z m -7.500525,0.604556 c -1.326225,0 -2.418225,1.089983 -2.418225,2.416209 0,1.326226 1.092,2.418224 2.418225,2.418224 1.326227,0 2.416209,-1.091999 2.416209,-2.418224 0,-1.326225 -1.089983,-2.416209 -2.416209,-2.416209 z m 0,1.968838 c 0.244345,0 0.447371,0.203026 0.447371,0.447371 0,0.244343 -0.203027,0.447372 -0.447371,0.447372 -0.244342,0 -0.447372,-0.20303 -0.447372,-0.447372 0,-0.244344 0.203029,-0.447371 0.447372,-0.447371 z m 7.500525,1.559754 4.751811,4.751811 -4.751811,4.753826 -0.658966,-0.660981 4.09083,-4.092845 -4.09083,-4.090829 z m -10.366121,3.155783 c -1.850079,0 -3.371408,1.521329 -3.371408,3.371408 0,1.850078 1.521329,3.369392 3.371408,3.369392 1.850078,0 3.373423,-1.519313 3.373423,-3.369392 0,-1.85008 -1.523345,-3.371408 -3.373423,-3.371408 z m 0,2.924036 c 0.272652,0 0.447371,0.174719 0.447371,0.447372 0,0.272651 -0.174719,0.445356 -0.447371,0.445356 -0.272653,0 -0.445355,-0.172705 -0.445356,-0.445356 0,-0.272653 0.172703,-0.447372 0.445356,-0.447372 z m 5.251577,4.711507 c -2.112868,0 -3.849007,1.738154 -3.849007,3.851022 0,2.112869 1.736139,3.849007 3.849007,3.849007 2.112868,0 3.849007,-1.736138 3.849007,-3.849007 0,-2.112868 -1.736139,-3.851022 -3.849007,-3.851022 z m 0,2.926052 c 0.534202,0 0.922956,0.390769 0.922956,0.92497 0,0.534203 -0.388754,0.922956 -0.922956,0.922956 -0.534203,0 -0.922956,-0.388753 -0.922956,-0.922956 0,-0.534201 0.388753,-0.92497 0.922956,-0.92497 z M 13.23542,41.697126 v 9.610426 h 9.551986 0.06046 9.481455 0.06046 9.489515 0.06046 9.549971 v -9.610426 h -9.549971 -0.06046 -9.489515 -0.06046 -9.481455 -0.06046 z m 2.922021,2.928067 h 3.760338 v 3.754293 h -3.760338 z m 9.54997,0 h 3.760339 v 3.754293 h -3.760339 z m 9.551986,0 h 3.760339 v 3.754293 h -3.760339 z m 9.54191,0 h 3.758324 v 3.754293 h -3.758324 z"
       transform="matrix(0.9692029,0,0,0.9692029,-7.077807,-6.6825067)" />
  </g>
</svg>
