<?xml version="1.0" encoding="UTF-8" standalone="no"?>
<svg
   id="svg24"
   viewBox="0 0 13.100031 12.8339"
   version="1.1"
   height="48.507034"
   width="49.512901"
   xmlns:xlink="http://www.w3.org/1999/xlink"
   xmlns="http://www.w3.org/2000/svg"
   xmlns:svg="http://www.w3.org/2000/svg"
   xmlns:rdf="http://www.w3.org/1999/02/22-rdf-syntax-ns#"
   xmlns:cc="http://creativecommons.org/ns#"
   xmlns:dc="http://purl.org/dc/elements/1.1/">
  <metadata
     id="metadata2">
    <rdf:RDF>
      <cc:Work
         rdf:about="">
        <dc:format>image/svg+xml</dc:format>
        <dc:type
           rdf:resource="http://purl.org/dc/dcmitype/StillImage" />
        <dc:title />
      </cc:Work>
    </rdf:RDF>
  </metadata>
  <defs
     id="defs12">
    <linearGradient
       id="linearGradient1">
      <stop
         style="stop-color:#00abff;stop-opacity:0;"
         offset="0"
         id="stop2" />
      <stop
         style="stop-color:#00abff;stop-opacity:1;"
         offset="1"
         id="stop1" />
    </linearGradient>
    <style
       id="style14"
       type="text/css" />
    <style
       id="style16"
       type="text/css" />
    <linearGradient
       xlink:href="#linearGradient1"
       id="linearGradient2"
       x1="7.8157039"
       y1="17.529156"
       x2="7.8157039"
       y2="7.4603434"
       gradientUnits="userSpaceOnUse" />
    <filter
       style="color-interpolation-filters:sRGB"
       id="filter2"
       x="-0.026711093"
       y="-0.027295223"
       width="1.0534222"
       height="1.0545904">
      <feGaussianBlur
         stdDeviation="0.13840452"
         id="feGaussianBlur3" />
    </filter>
  </defs>
  <g
     id="g1086"
     transform="translate(-1.2558144,-2.5781884)">
    <path
       id="circle1072"
       style="display:inline;opacity:0.6;fill:#00abff;fill-opacity:1;stroke-linecap:round;stroke-linejoin:round;paint-order:stroke fill markers;filter:url(#filter2)"
       d="m 6.6154863,2.9103592 c -0.5829208,0 -1.0588292,0.4753916 -1.0588292,1.0583125 0,0.3198298 0.1434253,0.6070793 0.3689625,0.8014857 l -2.7594672,4.514881 c -0.082822,-0.01636 -0.1682639,-0.025321 -0.2557933,-0.025321 -0.7290454,0 -1.3223739,0.5953959 -1.3223739,1.3244406 0,0.729046 0.5933285,1.321857 1.3223739,1.321857 0.7290453,0 1.3218571,-0.592811 1.3218571,-1.321857 0,-0.545965 -0.332342,-1.0169515 -0.8056197,-1.2190228 L 6.1457568,4.9169156 c 0.1416661,0.070577 0.30125,0.1105854 0.4697295,0.1105854 0.074692,0 0.1472142,-0.00789 0.2175535,-0.022737 l 3.0535003,7.630392 c -0.3755474,0.23364 -0.6268228,0.649548 -0.6268228,1.122906 0,0.729045 0.5953959,1.321857 1.3244407,1.321857 0.729046,0 1.321857,-0.592812 1.321857,-1.321857 0,-0.475769 -0.2528,-0.893565 -0.630956,-1.126524 l 1.740944,-5.2249007 c 0.559301,-0.026896 1.007671,-0.4915343 1.007671,-1.057279 0,-0.5829209 -0.475908,-1.0583125 -1.058829,-1.0583125 -0.582921,0 -1.05883,0.4753916 -1.05883,1.0583125 0,0.5071003 0.360251,0.9328343 0.837659,1.0350586 l -1.709423,5.1298181 c -0.140532,-0.05102 -0.292164,-0.07855 -0.450093,-0.07855 -0.161208,0 -0.316265,0.02858 -0.459394,0.08165 L 7.0836656,4.9169156 C 7.431855,4.743403 7.6717318,4.3833164 7.6717318,3.9686717 c 0,-0.5829209 -0.4733247,-1.0583126 -1.0562455,-1.0583125 z m 0,0.2656117 c 0.4397495,0 0.7927009,0.3529511 0.7927009,0.7927008 0,0.4397497 -0.3529514,0.7932177 -0.7927009,0.7932177 -0.4397495,0 -0.7952846,-0.353468 -0.7952846,-0.7932177 0,-0.4397497 0.3555351,-0.7927009 0.7952846,-0.7927008 z m 6.3493587,2.3806863 c 0.439749,0 0.793216,0.3529512 0.793217,0.7927009 0,0.4397497 -0.353468,0.7932176 -0.793217,0.7932176 -0.0016,0 -0.0031,9e-6 -0.0047,0 l -0.122471,-0.040824 -0.0098,0.028938 c -0.373911,-0.064386 -0.656278,-0.3882998 -0.656278,-0.7813323 0,-0.4397497 0.353468,-0.7927009 0.793218,-0.7927009 z M 2.9103591,9.5253291 c 0.5860568,0 1.0583125,0.4727729 1.0583125,1.0588289 0,0.586057 -0.4722557,1.056246 -1.0583125,1.056246 -0.5860569,0 -1.0588293,-0.470189 -1.0588293,-1.056246 0,-0.586056 0.4727724,-1.0588289 1.0588293,-1.0588289 z m 7.6737989,3.1739039 c 0.586057,0 1.056246,0.472772 1.056246,1.058829 0,0.586056 -0.470189,1.058313 -1.056246,1.058313 -0.5860562,0 -1.058829,-0.472257 -1.058829,-1.058313 0,-0.586057 0.4727728,-1.058829 1.058829,-1.058829 z" />
    <path
       id="path1"
       style="fill:url(#linearGradient2);fill-opacity:1;stroke-linecap:round;stroke-linejoin:round;paint-order:stroke fill markers"
       d="m 6.6154863,2.9103592 c -0.5829208,0 -1.0588292,0.4753916 -1.0588292,1.0583125 0,0.3198298 0.1434253,0.6070793 0.3689625,0.8014857 l -2.7594672,4.514881 c -0.082822,-0.01636 -0.1682639,-0.025321 -0.2557933,-0.025321 -0.7290454,0 -1.3223739,0.5953959 -1.3223739,1.3244406 0,0.729046 0.5933285,1.321857 1.3223739,1.321857 0.7290453,0 1.3218571,-0.592811 1.3218571,-1.321857 0,-0.545965 -0.332342,-1.0169515 -0.8056197,-1.2190228 L 6.1457568,4.9169156 c 0.1416661,0.070577 0.30125,0.1105854 0.4697295,0.1105854 0.074692,0 0.1472142,-0.00789 0.2175535,-0.022737 l 3.0535003,7.630392 c -0.3755474,0.23364 -0.6268228,0.649548 -0.6268228,1.122906 0,0.729045 0.5953959,1.321857 1.3244407,1.321857 0.729046,0 1.321857,-0.592812 1.321857,-1.321857 0,-0.475769 -0.2528,-0.893565 -0.630956,-1.126524 l 1.740944,-5.2249007 c 0.559301,-0.026896 1.007671,-0.4915343 1.007671,-1.057279 0,-0.5829209 -0.475908,-1.0583125 -1.058829,-1.0583125 -0.582921,0 -1.05883,0.4753916 -1.05883,1.0583125 0,0.5071003 0.360251,0.9328343 0.837659,1.0350586 l -1.709423,5.1298181 c -0.140532,-0.05102 -0.292164,-0.07855 -0.450093,-0.07855 -0.161208,0 -0.316265,0.02858 -0.459394,0.08165 L 7.0836656,4.9169156 C 7.431855,4.743403 7.6717318,4.3833164 7.6717318,3.9686717 c 0,-0.5829209 -0.4733247,-1.0583126 -1.0562455,-1.0583125 z m 0,0.2656117 c 0.4397495,0 0.7927009,0.3529511 0.7927009,0.7927008 0,0.4397497 -0.3529514,0.7932177 -0.7927009,0.7932177 -0.4397495,0 -0.7952846,-0.353468 -0.7952846,-0.7932177 0,-0.4397497 0.3555351,-0.7927009 0.7952846,-0.7927008 z m 6.3493587,2.3806863 c 0.439749,0 0.793216,0.3529512 0.793217,0.7927009 0,0.4397497 -0.353468,0.7932176 -0.793217,0.7932176 -0.0016,0 -0.0031,9e-6 -0.0047,0 l -0.122471,-0.040824 -0.0098,0.028938 c -0.373911,-0.064386 -0.656278,-0.3882998 -0.656278,-0.7813323 0,-0.4397497 0.353468,-0.7927009 0.793218,-0.7927009 z M 2.9103591,9.5253291 c 0.5860568,0 1.0583125,0.4727729 1.0583125,1.0588289 0,0.586057 -0.4722557,1.056246 -1.0583125,1.056246 -0.5860569,0 -1.0588293,-0.470189 -1.0588293,-1.056246 0,-0.586056 0.4727724,-1.0588289 1.0588293,-1.0588289 z m 7.6737989,3.1739039 c 0.586057,0 1.056246,0.472772 1.056246,1.058829 0,0.586056 -0.470189,1.058313 -1.056246,1.058313 -0.5860562,0 -1.058829,-0.472257 -1.058829,-1.058313 0,-0.586057 0.4727728,-1.058829 1.058829,-1.058829 z" />
  </g>
</svg>
