<?xml version="1.0" encoding="UTF-8" standalone="no"?>
<svg
   width="45.414558"
   height="48.915409"
   version="1"
   id="svg8"
   xmlns:xlink="http://www.w3.org/1999/xlink"
   xmlns="http://www.w3.org/2000/svg"
   xmlns:svg="http://www.w3.org/2000/svg"
   xmlns:rdf="http://www.w3.org/1999/02/22-rdf-syntax-ns#"
   xmlns:cc="http://creativecommons.org/ns#"
   xmlns:dc="http://purl.org/dc/elements/1.1/">
  <metadata
     id="metadata14">
    <rdf:RDF>
      <cc:Work
         rdf:about="">
        <dc:format>image/svg+xml</dc:format>
        <dc:type
           rdf:resource="http://purl.org/dc/dcmitype/StillImage" />
        <dc:title />
      </cc:Work>
    </rdf:RDF>
  </metadata>
  <defs
     id="defs12">
    <linearGradient
       id="linearGradient1">
      <stop
         style="stop-color:#ff3dfb;stop-opacity:0;"
         offset="0"
         id="stop2" />
      <stop
         style="stop-color:#ff3dfb;stop-opacity:1;"
         offset="1"
         id="stop1" />
    </linearGradient>
    <linearGradient
       xlink:href="#linearGradient1"
       id="linearGradient2"
       x1="8.2414703"
       y1="17.197437"
       x2="8.2414703"
       y2="7.7568417"
       gradientUnits="userSpaceOnUse" />
    <filter
       style="color-interpolation-filters:sRGB"
       id="filter2"
       x="-0.028099154"
       y="-0.0259836"
       width="1.0561983"
       height="1.0519672">
      <feGaussianBlur
         stdDeviation="0.13319427"
         id="feGaussianBlur3" />
    </filter>
  </defs>
  <g
     id="g3"
     transform="translate(-9.2934121,-7.2898356)">
    <path
       id="path961"
       style="display:inline;opacity:0.6;fill:#ff3dfb;fill-opacity:1;stroke-width:1.5545;filter:url(#filter2)"
       d="m 8.2007141,2.5128342 c -0.5829229,0 -1.0583125,0.4759064 -1.0583125,1.0588293 0,0.00867 3.073e-4,0.017212 5.168e-4,0.025838 C 5.6698255,3.9501596 4.3955299,4.8748127 3.6067698,6.1714536 2.799241,7.498948 2.5700385,9.1001991 2.9721957,10.60107 a 0.13228901,0.13228901 0 0 0 0.1622608,0.09353 0.13228901,0.13228901 0 0 0 0.091465,-0.162261 C 2.8424401,9.1011679 3.0615289,7.5757921 3.8315578,6.3099437 4.5797464,5.0799984 5.7868067,4.1997972 7.1821917,3.8594955 c 0.1259548,0.443867 0.535306,0.7704804 1.0185224,0.7704804 0.5829229,1e-7 1.0588293,-0.4753895 1.0588293,-1.0583124 0,-0.582923 -0.4759064,-1.0588294 -1.0588293,-1.0588293 z m 0,0.2656116 c 0.4399343,0 0.7947678,0.3532833 0.7947679,0.7932177 -1e-7,0.4399343 -0.3548336,0.7927008 -0.7947679,0.7927008 -0.4399343,0 -0.7927008,-0.3527665 -0.7927008,-0.7927008 0,-0.4399344 0.3527665,-0.7932177 0.7927008,-0.7932177 z m 3.0607349,1.4071216 a 0.13228901,0.13228901 0 0 0 -0.05116,0.0031 0.13228901,0.13228901 0 0 0 -0.0801,0.06046 0.13228901,0.13228901 0 0 0 0.04702,0.1818975 c 2.193846,1.2666177 3.2111,3.8724948 2.477319,6.2770121 -0.18558,-0.160128 -0.426582,-0.257343 -0.689866,-0.257343 -0.582923,-1e-6 -1.05883,0.475389 -1.05883,1.058312 0,0.582923 0.475907,1.058829 1.05883,1.058829 0.582922,0 1.058311,-0.475906 1.058312,-1.058829 0,-0.208338 -0.06118,-0.40276 -0.165878,-0.566879 0.862827,-2.5628207 -0.200073,-5.3844615 -2.547081,-6.7395074 a 0.13228901,0.13228901 0 0 0 -0.04857,-0.017053 z M 8.4668425,5.8205775 6.0851226,9.7892493 H 8.4663257 L 8.465809,12.435031 10.847529,8.4663587 H 8.4663257 Z m 4.4978285,4.8957285 c 0.439934,0 0.792699,0.352767 0.7927,0.792701 -10e-7,0.439934 -0.352766,0.793218 -0.7927,0.793218 -0.439935,0 -0.795285,-0.353283 -0.795285,-0.793218 0,-0.439934 0.35535,-0.792702 0.795285,-0.792701 z m -8.4670171,0.792701 c -0.5829227,0 -1.0588289,0.475906 -1.0588292,1.058829 -3e-7,0.582923 0.475906,1.058313 1.0588292,1.058313 0.1390392,0 0.2719305,-0.02684 0.3937667,-0.07596 1.8276862,1.477682 4.3790794,1.681355 6.4186034,0.503835 a 0.13228901,0.13228901 0 0 0 0.04909,-0.17983 0.13228901,0.13228901 0 0 0 -0.181897,-0.04857 c -1.9154885,1.105906 -4.3022207,0.93446 -6.0393057,-0.416504 0.2537923,-0.193712 0.4180543,-0.498699 0.4180541,-0.841276 -2e-7,-0.582923 -0.4753898,-1.058829 -1.0583125,-1.058829 z m 0,0.263545 c 0.4399342,0 0.7927007,0.35535 0.7927009,0.795284 3e-7,0.439935 -0.3527664,0.792701 -0.7927009,0.792701 -0.4399345,0 -0.7947682,-0.352766 -0.7947679,-0.792701 2e-7,-0.439934 0.3548337,-0.795284 0.7947679,-0.795284 z"
       transform="matrix(3.779602,0,0,3.779602,6.5826266e-4,-0.99946636)" />
    <path
       id="path1"
       style="fill:url(#linearGradient2);fill-opacity:1;stroke-width:1.5545"
       d="m 8.2007141,2.5128342 c -0.5829229,0 -1.0583125,0.4759064 -1.0583125,1.0588293 0,0.00867 3.073e-4,0.017212 5.168e-4,0.025838 C 5.6698255,3.9501596 4.3955299,4.8748127 3.6067698,6.1714536 2.799241,7.498948 2.5700385,9.1001991 2.9721957,10.60107 a 0.13228901,0.13228901 0 0 0 0.1622608,0.09353 0.13228901,0.13228901 0 0 0 0.091465,-0.162261 C 2.8424401,9.1011679 3.0615289,7.5757921 3.8315578,6.3099437 4.5797464,5.0799984 5.7868067,4.1997972 7.1821917,3.8594955 c 0.1259548,0.443867 0.535306,0.7704804 1.0185224,0.7704804 0.5829229,1e-7 1.0588293,-0.4753895 1.0588293,-1.0583124 0,-0.582923 -0.4759064,-1.0588294 -1.0588293,-1.0588293 z m 0,0.2656116 c 0.4399343,0 0.7947678,0.3532833 0.7947679,0.7932177 -1e-7,0.4399343 -0.3548336,0.7927008 -0.7947679,0.7927008 -0.4399343,0 -0.7927008,-0.3527665 -0.7927008,-0.7927008 0,-0.4399344 0.3527665,-0.7932177 0.7927008,-0.7932177 z m 3.0607349,1.4071216 a 0.13228901,0.13228901 0 0 0 -0.05116,0.0031 0.13228901,0.13228901 0 0 0 -0.0801,0.06046 0.13228901,0.13228901 0 0 0 0.04702,0.1818975 c 2.193846,1.2666177 3.2111,3.8724948 2.477319,6.2770121 -0.18558,-0.160128 -0.426582,-0.257343 -0.689866,-0.257343 -0.582923,-1e-6 -1.05883,0.475389 -1.05883,1.058312 0,0.582923 0.475907,1.058829 1.05883,1.058829 0.582922,0 1.058311,-0.475906 1.058312,-1.058829 0,-0.208338 -0.06118,-0.40276 -0.165878,-0.566879 0.862827,-2.5628207 -0.200073,-5.3844615 -2.547081,-6.7395074 a 0.13228901,0.13228901 0 0 0 -0.04857,-0.017053 z M 8.4668425,5.8205775 6.0851226,9.7892493 H 8.4663257 L 8.465809,12.435031 10.847529,8.4663587 H 8.4663257 Z m 4.4978285,4.8957285 c 0.439934,0 0.792699,0.352767 0.7927,0.792701 -10e-7,0.439934 -0.352766,0.793218 -0.7927,0.793218 -0.439935,0 -0.795285,-0.353283 -0.795285,-0.793218 0,-0.439934 0.35535,-0.792702 0.795285,-0.792701 z m -8.4670171,0.792701 c -0.5829227,0 -1.0588289,0.475906 -1.0588292,1.058829 -3e-7,0.582923 0.475906,1.058313 1.0588292,1.058313 0.1390392,0 0.2719305,-0.02684 0.3937667,-0.07596 1.8276862,1.477682 4.3790794,1.681355 6.4186034,0.503835 a 0.13228901,0.13228901 0 0 0 0.04909,-0.17983 0.13228901,0.13228901 0 0 0 -0.181897,-0.04857 c -1.9154885,1.105906 -4.3022207,0.93446 -6.0393057,-0.416504 0.2537923,-0.193712 0.4180543,-0.498699 0.4180541,-0.841276 -2e-7,-0.582923 -0.4753898,-1.058829 -1.0583125,-1.058829 z m 0,0.263545 c 0.4399342,0 0.7927007,0.35535 0.7927009,0.795284 3e-7,0.439935 -0.3527664,0.792701 -0.7927009,0.792701 -0.4399345,0 -0.7947682,-0.352766 -0.7947679,-0.792701 2e-7,-0.439934 0.3548337,-0.795284 0.7947679,-0.795284 z"
       transform="matrix(3.779602,0,0,3.779602,6.5826266e-4,-0.99946636)" />
  </g>
</svg>
