<?xml version="1.0" encoding="UTF-8" standalone="no"?>
<svg
   width="45.221127"
   height="45.22113"
   version="1.1"
   viewBox="0 0 11.964521 11.964522"
   id="svg38"
   xmlns:xlink="http://www.w3.org/1999/xlink"
   xmlns="http://www.w3.org/2000/svg"
   xmlns:svg="http://www.w3.org/2000/svg"
   xmlns:rdf="http://www.w3.org/1999/02/22-rdf-syntax-ns#"
   xmlns:cc="http://creativecommons.org/ns#"
   xmlns:dc="http://purl.org/dc/elements/1.1/">
  <defs
     id="defs14">
    <linearGradient
       id="linearGradient3">
      <stop
         style="stop-color:#00abff;stop-opacity:0;"
         offset="0"
         id="stop4" />
      <stop
         style="stop-color:#00abff;stop-opacity:1;"
         offset="1"
         id="stop3" />
    </linearGradient>
    <style
       type="text/css"
       id="style2" />
    <style
       type="text/css"
       id="style12" />
    <linearGradient
       xlink:href="#linearGradient3"
       id="linearGradient4"
       x1="8.4665003"
       y1="14.996597"
       x2="8.4665003"
       y2="7.4207549"
       gradientUnits="userSpaceOnUse" />
    <filter
       style="color-interpolation-filters:sRGB"
       id="filter4"
       x="-0.027"
       y="-0.026999998"
       width="1.054"
       height="1.054">
      <feGaussianBlur
         stdDeviation="0.1277048"
         id="feGaussianBlur4" />
    </filter>
  </defs>
  <metadata
     id="metadata16">
    <rdf:RDF>
      <cc:Work
         rdf:about="">
        <dc:format>image/svg+xml</dc:format>
        <dc:type
           rdf:resource="http://purl.org/dc/dcmitype/StillImage" />
        <dc:title />
      </cc:Work>
    </rdf:RDF>
  </metadata>
  <g
     id="g4"
     transform="translate(-0.38492547,-0.59421098)">
    <path
       id="path2"
       style="display:inline;opacity:0.6;fill:#00abff;fill-opacity:1;stroke-linecap:round;paint-order:stroke fill markers;filter:url(#filter4)"
       d="m 8.4200417,2.9532996 c -0.1893216,0 -0.3498426,0.1600027 -0.3498426,0.3493258 V 3.9568361 C 5.7542809,4.1371412 3.9309421,5.9592761 3.7501345,8.2753505 H 3.0938567 c -0.1893216,0 -0.3498426,0.1605193 -0.3498426,0.3498426 0,0.1893216 0.1593592,0.3493258 0.3498426,0.3493258 h 0.6542108 c 0.178135,2.3184611 2.0038404,4.1459291 4.3221316,4.3262661 v 0.65421 c 0,0.189324 0.1605184,0.349843 0.3498426,0.349843 0.1893291,0 0.3493258,-0.160517 0.3493258,-0.349843 V 13.304919 C 11.09197,13.126851 12.919988,11.2973 13.095633,8.9745189 h 0.650594 c 0.190482,0 0.349325,-0.1600027 0.349325,-0.3493258 0,-0.189304 -0.16001,-0.3498426 -0.349325,-0.3498426 H 13.095633 C 12.916126,5.9557508 11.088938,4.1308777 8.7693675,3.9532188 V 3.3026254 c 0,-0.1893216 -0.1600025,-0.3493258 -0.3493258,-0.3493258 z M 8.7693675,4.6658228 C 10.700286,4.8395487 12.20718,6.3446173 12.383029,8.2753505 H 10.675674 C 10.508717,7.2828116 9.7622929,6.5377182 8.7693675,6.3731785 Z m -0.6991684,0.00413 v 1.7032217 c -0.9929252,0.16454 -1.7393492,0.9096333 -1.906306,1.902172 H 4.4627384 C 4.6401786,6.348686 6.1436054,4.8464382 8.0701991,4.6699568 Z m 0,2.425644 V 8.2753505 H 6.8868321 C 7.0327409,7.674482 7.469205,7.240571 8.0701991,7.0956008 Z m 0.6991684,0 C 9.3703612,7.240567 9.8073419,7.6744826 9.9532512,8.2753505 H 8.7693675 Z M 4.4627384,8.9745189 h 1.6996044 c 0.1636697,0.996289 0.911707,1.7468541 1.9078563,1.9119901 v 1.699605 C 6.1411774,12.409499 4.6374479,10.903707 4.4627384,8.9745189 Z m 2.4220267,0 h 1.185434 V 10.16202 C 7.4666043,10.016524 7.0286924,9.5785145 6.8847651,8.9745189 Z m 1.8846024,0 H 9.9553182 C 9.8113909,9.5785146 9.3729624,10.016524 8.7693675,10.16202 Z m 1.9083735,0 h 1.701154 C 12.204167,10.904284 10.699182,12.410212 8.7693675,12.586114 V 10.886509 C 9.7655166,10.721373 10.514072,9.9708078 10.677741,8.9745189 Z"
       transform="translate(-2.0525971,-2.0525971)" />
    <path
       id="path3"
       style="fill:url(#linearGradient4);fill-opacity:1;stroke-linecap:round;paint-order:stroke fill markers"
       d="m 8.4200417,2.9532996 c -0.1893216,0 -0.3498426,0.1600027 -0.3498426,0.3493258 V 3.9568361 C 5.7542809,4.1371412 3.9309421,5.9592761 3.7501345,8.2753505 H 3.0938567 c -0.1893216,0 -0.3498426,0.1605193 -0.3498426,0.3498426 0,0.1893216 0.1593592,0.3493258 0.3498426,0.3493258 h 0.6542108 c 0.178135,2.3184611 2.0038404,4.1459291 4.3221316,4.3262661 v 0.65421 c 0,0.189324 0.1605184,0.349843 0.3498426,0.349843 0.1893291,0 0.3493258,-0.160517 0.3493258,-0.349843 V 13.304919 C 11.09197,13.126851 12.919988,11.2973 13.095633,8.9745189 h 0.650594 c 0.190482,0 0.349325,-0.1600027 0.349325,-0.3493258 0,-0.189304 -0.16001,-0.3498426 -0.349325,-0.3498426 H 13.095633 C 12.916126,5.9557508 11.088938,4.1308777 8.7693675,3.9532188 V 3.3026254 c 0,-0.1893216 -0.1600025,-0.3493258 -0.3493258,-0.3493258 z M 8.7693675,4.6658228 C 10.700286,4.8395487 12.20718,6.3446173 12.383029,8.2753505 H 10.675674 C 10.508717,7.2828116 9.7622929,6.5377182 8.7693675,6.3731785 Z m -0.6991684,0.00413 v 1.7032217 c -0.9929252,0.16454 -1.7393492,0.9096333 -1.906306,1.902172 H 4.4627384 C 4.6401786,6.348686 6.1436054,4.8464382 8.0701991,4.6699568 Z m 0,2.425644 V 8.2753505 H 6.8868321 C 7.0327409,7.674482 7.469205,7.240571 8.0701991,7.0956008 Z m 0.6991684,0 C 9.3703612,7.240567 9.8073419,7.6744826 9.9532512,8.2753505 H 8.7693675 Z M 4.4627384,8.9745189 h 1.6996044 c 0.1636697,0.996289 0.911707,1.7468541 1.9078563,1.9119901 v 1.699605 C 6.1411774,12.409499 4.6374479,10.903707 4.4627384,8.9745189 Z m 2.4220267,0 h 1.185434 V 10.16202 C 7.4666043,10.016524 7.0286924,9.5785145 6.8847651,8.9745189 Z m 1.8846024,0 H 9.9553182 C 9.8113909,9.5785146 9.3729624,10.016524 8.7693675,10.16202 Z m 1.9083735,0 h 1.701154 C 12.204167,10.904284 10.699182,12.410212 8.7693675,12.586114 V 10.886509 C 9.7655166,10.721373 10.514072,9.9708078 10.677741,8.9745189 Z"
       transform="translate(-2.0525971,-2.0525971)" />
  </g>
</svg>
