<?xml version="1.0" encoding="UTF-8" standalone="no"?>
<svg
   id="App-Store"
   width="33.646702"
   height="57.957176"
   enable-background="new 0 0 1024 1024"
   image-rendering="optimizeSpeed"
   version="1.1"
   viewBox="0 0 33.646702 57.957176"
   xmlns:xlink="http://www.w3.org/1999/xlink"
   xmlns="http://www.w3.org/2000/svg"
   xmlns:svg="http://www.w3.org/2000/svg">
  <defs
     id="defs4">
    <linearGradient
       id="linearGradient5">
      <stop
         style="stop-color:#00abff;stop-opacity:0;"
         offset="0"
         id="stop6" />
      <stop
         style="stop-color:#00abff;stop-opacity:1;"
         offset="1"
         id="stop5" />
    </linearGradient>
    <linearGradient
       xlink:href="#linearGradient5"
       id="linearGradient6"
       x1="31.768116"
       y1="64.463768"
       x2="31.768116"
       y2="20.52174"
       gradientUnits="userSpaceOnUse" />
    <filter
       style="color-interpolation-filters:sRGB"
       id="filter6"
       x="-0.037485312"
       y="-0.0210984"
       width="1.0749706"
       height="1.0421968">
      <feGaussianBlur
         stdDeviation="0.4888727"
         id="feGaussianBlur6" />
    </filter>
  </defs>
  <g
     id="g6"
     transform="translate(-15.000619,-3.7170625)">
    <path
       d="m 29.836112,4.8903569 c -1.100296,0 -1.986094,0.8857973 -1.986094,1.9860925 V 26.240852 l -6.828186,-5.958279 c -1.239321,-1.084406 -3.006944,-0.87388 -4.09135,0.373386 a 2.9910552,2.9910552 0 0 0 0.246276,4.21846 l 8.937415,7.821233 -8.937415,7.821233 a 2.9910552,2.9910552 0 0 0 -0.250249,4.21846 c 1.088379,1.243293 2.856002,1.457792 4.095323,0.373386 l 6.832158,-5.958279 v 19.364403 c 0,1.100296 0.881826,1.986092 1.986093,1.986092 1.120157,0 1.735845,-0.07943 2.601781,-0.74677 L 46.471621,47.217961 a 3.0983043,3.0983043 0 0 0 0.865938,-1.48957 2.9592779,2.9592779 0 0 0 0.127109,-1.116184 2.8718898,2.8718898 0 0 0 -0.127109,-0.619661 3.0983043,3.0983043 0 0 0 -0.865938,-1.489569 L 35.297865,32.69168 46.471621,22.888327 a 3.0983043,3.0983043 0 0 0 0.865938,-1.489569 2.8281957,2.8281957 0 0 0 0,-1.735845 3.0983043,3.0983043 0 0 0 -0.865938,-1.48957 L 32.441864,5.6331555 C 31.6514,4.9976059 30.745741,4.8903569 29.836112,4.8903569 Z m 1.986091,8.1946181 8.317756,7.447847 -8.317756,7.197598 z m 0,24.575909 8.317756,7.201572 -8.317756,7.447846 z"
       class="ColorScheme-Text"
       fill="currentColor"
       id="path1"
       style="color:#ffffff;display:inline;opacity:0.6;fill:#00abff;fill-opacity:1;stroke-width:3.97219;filter:url(#filter6)" />
    <path
       d="m 29.836112,4.8903569 c -1.100296,0 -1.986094,0.8857973 -1.986094,1.9860925 V 26.240852 l -6.828186,-5.958279 c -1.239321,-1.084406 -3.006944,-0.87388 -4.09135,0.373386 a 2.9910552,2.9910552 0 0 0 0.246276,4.21846 l 8.937415,7.821233 -8.937415,7.821233 a 2.9910552,2.9910552 0 0 0 -0.250249,4.21846 c 1.088379,1.243293 2.856002,1.457792 4.095323,0.373386 l 6.832158,-5.958279 v 19.364403 c 0,1.100296 0.881826,1.986092 1.986093,1.986092 1.120157,0 1.735845,-0.07943 2.601781,-0.74677 L 46.471621,47.217961 a 3.0983043,3.0983043 0 0 0 0.865938,-1.48957 2.9592779,2.9592779 0 0 0 0.127109,-1.116184 2.8718898,2.8718898 0 0 0 -0.127109,-0.619661 3.0983043,3.0983043 0 0 0 -0.865938,-1.489569 L 35.297865,32.69168 46.471621,22.888327 a 3.0983043,3.0983043 0 0 0 0.865938,-1.489569 2.8281957,2.8281957 0 0 0 0,-1.735845 3.0983043,3.0983043 0 0 0 -0.865938,-1.48957 L 32.441864,5.6331555 C 31.6514,4.9976059 30.745741,4.8903569 29.836112,4.8903569 Z m 1.986091,8.1946181 8.317756,7.447847 -8.317756,7.197598 z m 0,24.575909 8.317756,7.201572 -8.317756,7.447846 z"
       class="ColorScheme-Text"
       fill="currentColor"
       id="path5"
       style="color:#ffffff;fill:url(#linearGradient6);fill-opacity:1;stroke-width:3.97219" />
  </g>
</svg>
