<?xml version="1.0" encoding="UTF-8" standalone="no"?>
<svg
   width="48.484001"
   height="48.484001"
   version="1.1"
   viewBox="0 0 48.484001 48.484001"
   id="svg29"
   xmlns:xlink="http://www.w3.org/1999/xlink"
   xmlns="http://www.w3.org/2000/svg"
   xmlns:svg="http://www.w3.org/2000/svg"
   xmlns:rdf="http://www.w3.org/1999/02/22-rdf-syntax-ns#"
   xmlns:cc="http://creativecommons.org/ns#"
   xmlns:dc="http://purl.org/dc/elements/1.1/">
  <metadata
     id="metadata2">
    <rdf:RDF>
      <cc:Work
         rdf:about="">
        <dc:format>image/svg+xml</dc:format>
        <dc:type
           rdf:resource="http://purl.org/dc/dcmitype/StillImage" />
        <dc:title />
      </cc:Work>
    </rdf:RDF>
  </metadata>
  <defs
     id="defs15">
    <linearGradient
       id="linearGradient1">
      <stop
         style="stop-color:#ff3dfb;stop-opacity:0;"
         offset="0"
         id="stop2" />
      <stop
         style="stop-color:#ff3dfb;stop-opacity:1;"
         offset="1"
         id="stop1" />
    </linearGradient>
    <style
       type="text/css"
       id="style958" />
    <style
       type="text/css"
       id="style848" />
    <linearGradient
       xlink:href="#linearGradient1"
       id="linearGradient2"
       x1="-35.974007"
       y1="64"
       x2="-35.974007"
       y2="27.532764"
       gradientUnits="userSpaceOnUse" />
    <filter
       style="color-interpolation-filters:sRGB"
       id="filter2"
       x="-0.026999999"
       y="-0.026999999"
       width="1.054"
       height="1.054">
      <feGaussianBlur
         stdDeviation="0.5175"
         id="feGaussianBlur3" />
    </filter>
  </defs>
  <g
     id="g890"
     transform="translate(60.71661,-7.7580001)">
    <path
       id="path1"
       style="display:inline;opacity:0.6;fill:#ff3dfb;fill-opacity:1;stroke:none;stroke-width:1.22293;stroke-linecap:round;stroke-opacity:1;paint-order:stroke fill markers;filter:url(#filter2)"
       d="m -36.47461,9 a 23,23 0 0 0 -23,23 23,23 0 0 0 23,23 23,23 0 0 0 23,-23 23,23 0 0 0 -23,-23 z m 0,1 a 22,22 0 0 1 22,22 22,22 0 0 1 -22,22 22,22 0 0 1 -22,-22 22,22 0 0 1 22,-22 z m 11.974609,9.5 c -0.02593,0 -0.05133,0.0034 -0.07617,0.0078 a 0.5,0.5 0 0 0 -0.0098,0 l -0.01563,0.0039 -16.984375,2.996093 c -6.28e-4,1.15e-4 -0.0013,-1.16e-4 -0.002,0 -0.07909,0.0147 -0.149463,0.05065 -0.210938,0.09961 a 0.5,0.5 0 0 0 -0.03711,0.03125 c -0.04778,0.04615 -0.08727,0.101349 -0.115234,0.164062 a 0.5,0.5 0 0 0 -0.01953,0.05469 c -0.01746,0.05402 -0.0293,0.111434 -0.0293,0.171875 v 14.828125 a 4,4 0 0 0 -3,-1.357422 4,4 0 0 0 -0.06055,0 4,4 0 0 0 -3.939454,4 4,4 0 0 0 4,4 4,4 0 0 0 4,-4 4,4 0 0 0 -0.01953,-0.392578 c 0.01101,-0.04379 0.01953,-0.08916 0.01953,-0.136719 V 28.419922 l 16,-2.824219 V 35.800781 A 4,4 0 0 0 -27.949219,34.5 a 4,4 0 0 0 -0.06055,0 4,4 0 0 0 -3.939453,4 4,4 0 0 0 4,4 4,4 0 0 0 4,-4 4,4 0 0 0 -0.05078,-0.632812 V 20.087891 c 0,-0.01537 -0.0029,-0.02986 -0.0039,-0.04492 a 0.5,0.5 0 0 0 -0.0039,-0.128907 A 0.5,0.5 0 0 0 -24.19336,19.625 c -0.03431,-0.0315 -0.07062,-0.05794 -0.111328,-0.07813 a 0.5,0.5 0 0 0 -0.002,-0.002 0.5,0.5 0 0 0 -0.04492,-0.01563 c -0.04703,-0.01714 -0.0965,-0.0293 -0.148438,-0.0293 z m -0.5,1.095703 v 3.984375 l -16,2.824219 v -3.984375 z m -3,14.904297 a 3,3 0 0 1 0.05078,0 3,3 0 0 1 2.949218,2.458984 v 0.953125 c 0,0.02874 0.0045,0.05637 0.0078,0.08398 A 3,3 0 0 1 -27.949219,41.5 a 3,3 0 0 1 -3,-3 3,3 0 0 1 2.949218,-3 z m -17.050781,2 a 3,3 0 0 1 0.05078,0 3,3 0 0 1 3,3 3,3 0 0 1 -3,3 3,3 0 0 1 -3,-3 3,3 0 0 1 2.94922,-3 z" />
    <path
       id="path901"
       style="fill:url(#linearGradient2);fill-opacity:1;stroke:none;stroke-width:1.22293;stroke-linecap:round;stroke-opacity:1;paint-order:stroke fill markers"
       d="m -36.47461,9 a 23,23 0 0 0 -23,23 23,23 0 0 0 23,23 23,23 0 0 0 23,-23 23,23 0 0 0 -23,-23 z m 0,1 a 22,22 0 0 1 22,22 22,22 0 0 1 -22,22 22,22 0 0 1 -22,-22 22,22 0 0 1 22,-22 z m 11.974609,9.5 c -0.02593,0 -0.05133,0.0034 -0.07617,0.0078 a 0.5,0.5 0 0 0 -0.0098,0 l -0.01563,0.0039 -16.984375,2.996093 c -6.28e-4,1.15e-4 -0.0013,-1.16e-4 -0.002,0 -0.07909,0.0147 -0.149463,0.05065 -0.210938,0.09961 a 0.5,0.5 0 0 0 -0.03711,0.03125 c -0.04778,0.04615 -0.08727,0.101349 -0.115234,0.164062 a 0.5,0.5 0 0 0 -0.01953,0.05469 c -0.01746,0.05402 -0.0293,0.111434 -0.0293,0.171875 v 14.828125 a 4,4 0 0 0 -3,-1.357422 4,4 0 0 0 -0.06055,0 4,4 0 0 0 -3.939454,4 4,4 0 0 0 4,4 4,4 0 0 0 4,-4 4,4 0 0 0 -0.01953,-0.392578 c 0.01101,-0.04379 0.01953,-0.08916 0.01953,-0.136719 V 28.419922 l 16,-2.824219 V 35.800781 A 4,4 0 0 0 -27.949219,34.5 a 4,4 0 0 0 -0.06055,0 4,4 0 0 0 -3.939453,4 4,4 0 0 0 4,4 4,4 0 0 0 4,-4 4,4 0 0 0 -0.05078,-0.632812 V 20.087891 c 0,-0.01537 -0.0029,-0.02986 -0.0039,-0.04492 a 0.5,0.5 0 0 0 -0.0039,-0.128907 A 0.5,0.5 0 0 0 -24.19336,19.625 c -0.03431,-0.0315 -0.07062,-0.05794 -0.111328,-0.07813 a 0.5,0.5 0 0 0 -0.002,-0.002 0.5,0.5 0 0 0 -0.04492,-0.01563 c -0.04703,-0.01714 -0.0965,-0.0293 -0.148438,-0.0293 z m -0.5,1.095703 v 3.984375 l -16,2.824219 v -3.984375 z m -3,14.904297 a 3,3 0 0 1 0.05078,0 3,3 0 0 1 2.949218,2.458984 v 0.953125 c 0,0.02874 0.0045,0.05637 0.0078,0.08398 A 3,3 0 0 1 -27.949219,41.5 a 3,3 0 0 1 -3,-3 3,3 0 0 1 2.949218,-3 z m -17.050781,2 a 3,3 0 0 1 0.05078,0 3,3 0 0 1 3,3 3,3 0 0 1 -3,3 3,3 0 0 1 -3,-3 3,3 0 0 1 2.94922,-3 z" />
    <g
       id="g915"
       transform="translate(-69,-0.5)" />
  </g>
</svg>
