<?xml version="1.0" encoding="UTF-8" standalone="no"?>
<svg
   width="48.484001"
   height="48.484001"
   version="1.1"
   id="svg34"
   xmlns:xlink="http://www.w3.org/1999/xlink"
   xmlns="http://www.w3.org/2000/svg"
   xmlns:svg="http://www.w3.org/2000/svg"
   xmlns:rdf="http://www.w3.org/1999/02/22-rdf-syntax-ns#"
   xmlns:cc="http://creativecommons.org/ns#"
   xmlns:dc="http://purl.org/dc/elements/1.1/">
  <metadata
     id="metadata38">
    <rdf:RDF>
      <cc:Work
         rdf:about="">
        <dc:format>image/svg+xml</dc:format>
        <dc:type
           rdf:resource="http://purl.org/dc/dcmitype/StillImage" />
        <dc:title />
      </cc:Work>
    </rdf:RDF>
  </metadata>
  <defs
     id="defs18">
    <linearGradient
       id="linearGradient1">
      <stop
         style="stop-color:#ff3dfb;stop-opacity:0;"
         offset="0"
         id="stop3" />
      <stop
         style="stop-color:#ff3dfb;stop-opacity:1;"
         offset="1"
         id="stop1" />
    </linearGradient>
    <style
       id="style4"
       type="text/css" />
    <style
       id="style6"
       type="text/css" />
    <style
       id="style8"
       type="text/css" />
    <style
       type="text/css"
       id="style1078" />
    <style
       type="text/css"
       id="style1080" />
    <style
       id="style14"
       type="text/css" />
    <style
       id="style16"
       type="text/css" />
    <linearGradient
       xlink:href="#linearGradient1"
       id="linearGradient3"
       x1="-39.933132"
       y1="65"
       x2="-39.933132"
       y2="25.449049"
       gradientUnits="userSpaceOnUse" />
    <filter
       style="color-interpolation-filters:sRGB"
       id="filter3"
       x="-0.026999999"
       y="-0.026999999"
       width="1.054"
       height="1.054">
      <feGaussianBlur
         stdDeviation="0.5175"
         id="feGaussianBlur3" />
    </filter>
  </defs>
  <g
     id="g971"
     transform="translate(62.175132,-7.7580001)">
    <path
       id="path967"
       style="display:inline;opacity:0.6;fill:#ff3dfb;fill-opacity:1;filter:url(#filter3)"
       d="m -57.933132,9 c -1.65335,0 -3,1.346649 -3,3 v 40 c 0,1.653351 1.34665,3 3,3 h 40 c 1.653351,0 3,-1.346649 3,-3 V 12 c 0,-1.653351 -1.346649,-3 -3,-3 z m 0,1 h 40 c 1.116648,0 2,0.883353 2,2 v 40 c 0,1.116647 -0.883352,2 -2,2 h -40 c -1.116647,0 -2,-0.883353 -2,-2 V 12 c 0,-1.116647 0.883353,-2 2,-2 z m 20.1875,4.357422 c -2.455347,0 -4.462891,1.985715 -4.462891,4.425781 0,2.440169 2.007647,4.425781 4.462891,4.425781 2.455348,0 4.462891,-1.985715 4.462891,-4.425781 0,-2.440168 -2.007646,-4.425781 -4.462891,-4.425781 z m 0,1 c 1.919156,0 3.462891,1.53175 3.462891,3.425781 0,1.893934 -1.543638,3.425781 -3.462891,3.425781 -1.919155,0 -3.462891,-1.531749 -3.462891,-3.425781 0,-1.893934 1.543639,-3.425781 3.462891,-3.425781 z m -14.416016,7.033203 c -0.227516,0.0028 -0.457085,0.05183 -0.675781,0.15625 -0.589397,0.281406 -0.92571,0.873068 -0.933594,1.490234 -0.0076,0.637168 0.399919,1.162863 0.921875,1.427735 l 0.03711,0.01758 10.236328,3.216797 -0.06836,7.164062 -3.689453,11.296875 c -0.421165,0.715036 -0.239864,1.670585 0.484375,2.136719 0.757529,0.487557 1.810926,0.35186 2.339844,-0.414063 l 0.02148,-0.03125 5.572266,-11.410156 5.455078,11.371094 0.01172,0.01953 c 0.458736,0.77502 1.467821,1.035401 2.257812,0.59961 0.756027,-0.417049 1.045799,-1.361176 0.667969,-2.121094 v -0.002 l -3.630859,-11.378906 -0.136719,-6.734376 10.419922,-3.769531 0.05078,-0.03516 c 0.619136,-0.419146 0.894232,-1.214791 0.617188,-1.919922 -0.165722,-0.421767 -0.510949,-0.679949 -0.90625,-0.841797 l 0.105468,-0.171875 h -0.890625 v 0.01563 c -0.01923,0.0015 -0.03545,-0.01384 -0.05469,-0.01172 l 0.05469,0.996093 -0.425781,-0.759765 0.347656,-0.232422 c -0.181732,0.02916 -0.342174,0.121642 -0.503906,0.207031 l -13.457031,2.080078 -13.283203,-2.091797 c -0.218883,-0.134647 -0.46393,-0.226373 -0.71875,-0.257812 -0.0748,-0.0092 -0.150724,-0.01266 -0.226563,-0.01172 z m -0.08008,1.013672 c 0.181202,-0.02084 0.400156,0.02958 0.554688,0.140625 l 0.0957,0.06836 13.65625,2.150391 13.732422,-2.121094 0.09766,-0.07031 c 0.07883,-0.0573 0.174221,-0.09444 0.273437,-0.113282 0.31197,-0.03002 0.602903,0.131829 0.699219,0.376954 0.09477,0.241212 -0.01097,0.537973 -0.242187,0.707031 L -34.304226,28.5 l 0.152344,7.595703 3.693359,11.572266 0.0293,0.04883 c 0.178656,0.301863 0.08125,0.660347 -0.24414,0.839844 -0.323941,0.178698 -0.732211,0.06629 -0.91211,-0.232422 l -6.324219,-13.177735 -6.427734,13.167969 c -0.190263,0.268445 -0.654581,0.346039 -0.970703,0.142578 -0.317975,-0.204655 -0.366203,-0.512814 -0.148438,-0.828125 l 0.04297,-0.05859 3.767578,-11.542968 0.07617,-8.058594 -10.832031,-3.40625 c -0.237761,-0.125168 -0.371492,-0.316793 -0.369141,-0.513672 0.0028,-0.220433 0.176912,-0.509695 0.365235,-0.599609 0.04861,-0.02322 0.103662,-0.03797 0.164062,-0.04492 z" />
    <path
       id="path1"
       style="fill:url(#linearGradient3);fill-opacity:1"
       d="m -57.933132,9 c -1.65335,0 -3,1.346649 -3,3 v 40 c 0,1.653351 1.34665,3 3,3 h 40 c 1.653351,0 3,-1.346649 3,-3 V 12 c 0,-1.653351 -1.346649,-3 -3,-3 z m 0,1 h 40 c 1.116648,0 2,0.883353 2,2 v 40 c 0,1.116647 -0.883352,2 -2,2 h -40 c -1.116647,0 -2,-0.883353 -2,-2 V 12 c 0,-1.116647 0.883353,-2 2,-2 z m 20.1875,4.357422 c -2.455347,0 -4.462891,1.985715 -4.462891,4.425781 0,2.440169 2.007647,4.425781 4.462891,4.425781 2.455348,0 4.462891,-1.985715 4.462891,-4.425781 0,-2.440168 -2.007646,-4.425781 -4.462891,-4.425781 z m 0,1 c 1.919156,0 3.462891,1.53175 3.462891,3.425781 0,1.893934 -1.543638,3.425781 -3.462891,3.425781 -1.919155,0 -3.462891,-1.531749 -3.462891,-3.425781 0,-1.893934 1.543639,-3.425781 3.462891,-3.425781 z m -14.416016,7.033203 c -0.227516,0.0028 -0.457085,0.05183 -0.675781,0.15625 -0.589397,0.281406 -0.92571,0.873068 -0.933594,1.490234 -0.0076,0.637168 0.399919,1.162863 0.921875,1.427735 l 0.03711,0.01758 10.236328,3.216797 -0.06836,7.164062 -3.689453,11.296875 c -0.421165,0.715036 -0.239864,1.670585 0.484375,2.136719 0.757529,0.487557 1.810926,0.35186 2.339844,-0.414063 l 0.02148,-0.03125 5.572266,-11.410156 5.455078,11.371094 0.01172,0.01953 c 0.458736,0.77502 1.467821,1.035401 2.257812,0.59961 0.756027,-0.417049 1.045799,-1.361176 0.667969,-2.121094 v -0.002 l -3.630859,-11.378906 -0.136719,-6.734376 10.419922,-3.769531 0.05078,-0.03516 c 0.619136,-0.419146 0.894232,-1.214791 0.617188,-1.919922 -0.165722,-0.421767 -0.510949,-0.679949 -0.90625,-0.841797 l 0.105468,-0.171875 h -0.890625 v 0.01563 c -0.01923,0.0015 -0.03545,-0.01384 -0.05469,-0.01172 l 0.05469,0.996093 -0.425781,-0.759765 0.347656,-0.232422 c -0.181732,0.02916 -0.342174,0.121642 -0.503906,0.207031 l -13.457031,2.080078 -13.283203,-2.091797 c -0.218883,-0.134647 -0.46393,-0.226373 -0.71875,-0.257812 -0.0748,-0.0092 -0.150724,-0.01266 -0.226563,-0.01172 z m -0.08008,1.013672 c 0.181202,-0.02084 0.400156,0.02958 0.554688,0.140625 l 0.0957,0.06836 13.65625,2.150391 13.732422,-2.121094 0.09766,-0.07031 c 0.07883,-0.0573 0.174221,-0.09444 0.273437,-0.113282 0.31197,-0.03002 0.602903,0.131829 0.699219,0.376954 0.09477,0.241212 -0.01097,0.537973 -0.242187,0.707031 L -34.304226,28.5 l 0.152344,7.595703 3.693359,11.572266 0.0293,0.04883 c 0.178656,0.301863 0.08125,0.660347 -0.24414,0.839844 -0.323941,0.178698 -0.732211,0.06629 -0.91211,-0.232422 l -6.324219,-13.177735 -6.427734,13.167969 c -0.190263,0.268445 -0.654581,0.346039 -0.970703,0.142578 -0.317975,-0.204655 -0.366203,-0.512814 -0.148438,-0.828125 l 0.04297,-0.05859 3.767578,-11.542968 0.07617,-8.058594 -10.832031,-3.40625 c -0.237761,-0.125168 -0.371492,-0.316793 -0.369141,-0.513672 0.0028,-0.220433 0.176912,-0.509695 0.365235,-0.599609 0.04861,-0.02322 0.103662,-0.03797 0.164062,-0.04492 z" />
  </g>
</svg>
