<?xml version="1.0" encoding="UTF-8" standalone="no"?>
<svg
   width="39.644943"
   height="44.998753"
   version="1.1"
   viewBox="0 0 39.644943 44.998752"
   id="svg29"
   xmlns:xlink="http://www.w3.org/1999/xlink"
   xmlns="http://www.w3.org/2000/svg"
   xmlns:svg="http://www.w3.org/2000/svg"
   xmlns:rdf="http://www.w3.org/1999/02/22-rdf-syntax-ns#"
   xmlns:cc="http://creativecommons.org/ns#"
   xmlns:dc="http://purl.org/dc/elements/1.1/">
  <metadata
     id="metadata2">
    <rdf:RDF>
      <cc:Work
         rdf:about="">
        <dc:format>image/svg+xml</dc:format>
        <dc:type
           rdf:resource="http://purl.org/dc/dcmitype/StillImage" />
        <dc:title />
      </cc:Work>
    </rdf:RDF>
  </metadata>
  <defs
     id="defs15">
    <linearGradient
       id="linearGradient3">
      <stop
         style="stop-color:#00abff;stop-opacity:0;"
         offset="0"
         id="stop4" />
      <stop
         style="stop-color:#00abff;stop-opacity:1;"
         offset="1"
         id="stop3" />
    </linearGradient>
    <style
       type="text/css"
       id="style958" />
    <style
       type="text/css"
       id="style848" />
    <linearGradient
       xlink:href="#linearGradient3"
       id="linearGradient4"
       x1="25.83674"
       y1="49.437607"
       x2="25.83674"
       y2="19.7502"
       gradientUnits="userSpaceOnUse" />
    <filter
       style="color-interpolation-filters:sRGB"
       id="filter4"
       x="-0.028928571"
       y="-0.0253125"
       width="1.0578571"
       height="1.050625">
      <feGaussianBlur
         stdDeviation="0.45172751"
         id="feGaussianBlur4" />
    </filter>
  </defs>
  <g
     id="g4"
     transform="translate(-5.3701294,-1.8732691)">
    <path
       d="m 19.838794,2.9574151 c -1.483006,0 -2.676904,1.1938985 -2.676904,2.676904 V 27.04955 c 0,1.483004 1.193898,2.676904 2.676904,2.676904 h 21.41523 c 1.483004,0 2.676904,-1.1939 2.676904,-2.676904 V 5.6343191 c 0,-1.4830055 -1.1939,-2.676904 -2.676904,-2.676904 z m 11.548162,4.0153554 c 0.345321,-0.00269 0.693319,0.1097496 0.875348,0.40689 0.139199,0.8244864 0.420274,1.638265 0.872671,2.3583522 0.44972,0.9369163 1.311683,1.6302353 1.970201,2.4359833 1.863125,2.275368 1.753371,5.669682 0.02677,7.985204 -0.160613,0.176675 -0.31052,0.554119 -0.596948,0.476489 -0.107078,-0.05353 -0.254307,-0.187384 -0.187384,-0.326583 0.495228,-1.137683 0.848579,-2.387798 0.829841,-3.637913 0.03212,-1.729279 -1.303652,-3.198899 -2.792011,-3.983232 v 8.927475 c 0,2.004999 -1.033285,3.554928 -2.821457,3.977879 -1.579373,0.481841 -3.501389,-0.575535 -3.694127,-2.189708 -0.13385,-1.726603 1.346482,-3.225669 3.003486,-3.667358 0.551442,-0.160615 1.183192,-0.206122 1.673065,-0.104392 V 8.3647675 c -0.08299,-0.5755344 0.0455,-1.4374973 0.840548,-1.3919903 z M 7.7927268,16.341935 c -0.7415015,0 -1.3384514,0.596949 -1.3384514,1.338452 v 26.769038 c 0,0.741501 0.5969499,1.338451 1.3384514,1.338451 H 31.884861 c 0.741502,0 1.338452,-0.59695 1.338452,-1.338451 V 32.403357 H 25.192601 V 43.110972 H 14.484986 V 32.403357 h 5.353808 a 5.3270385,5.3270385 0 0 1 -4.61766,-2.676903 H 14.484986 V 16.341935 Z m 1.3384525,2.676904 h 2.6769037 v 2.676903 H 9.1311793 Z m 0,5.353807 H 11.808083 V 27.04955 H 9.1311793 Z m 0,5.353808 h 2.6769037 v 2.676903 H 9.1311793 Z m 0,5.353807 h 2.6769037 v 2.676904 H 9.1311793 Z m 18.7383257,0 h 2.676904 v 2.676904 H 27.869505 Z M 9.1311793,40.434069 h 2.6769037 v 2.676903 H 9.1311793 Z m 18.7383257,0 h 2.676904 v 2.676903 h -2.676904 z"
       fill="#dedede"
       id="path1"
       style="display:inline;opacity:0.6;fill:#00abff;fill-opacity:1;stroke-width:2.6769;filter:url(#filter4)" />
    <path
       d="m 19.838794,2.9574151 c -1.483006,0 -2.676904,1.1938985 -2.676904,2.676904 V 27.04955 c 0,1.483004 1.193898,2.676904 2.676904,2.676904 h 21.41523 c 1.483004,0 2.676904,-1.1939 2.676904,-2.676904 V 5.6343191 c 0,-1.4830055 -1.1939,-2.676904 -2.676904,-2.676904 z m 11.548162,4.0153554 c 0.345321,-0.00269 0.693319,0.1097496 0.875348,0.40689 0.139199,0.8244864 0.420274,1.638265 0.872671,2.3583522 0.44972,0.9369163 1.311683,1.6302353 1.970201,2.4359833 1.863125,2.275368 1.753371,5.669682 0.02677,7.985204 -0.160613,0.176675 -0.31052,0.554119 -0.596948,0.476489 -0.107078,-0.05353 -0.254307,-0.187384 -0.187384,-0.326583 0.495228,-1.137683 0.848579,-2.387798 0.829841,-3.637913 0.03212,-1.729279 -1.303652,-3.198899 -2.792011,-3.983232 v 8.927475 c 0,2.004999 -1.033285,3.554928 -2.821457,3.977879 -1.579373,0.481841 -3.501389,-0.575535 -3.694127,-2.189708 -0.13385,-1.726603 1.346482,-3.225669 3.003486,-3.667358 0.551442,-0.160615 1.183192,-0.206122 1.673065,-0.104392 V 8.3647675 c -0.08299,-0.5755344 0.0455,-1.4374973 0.840548,-1.3919903 z M 7.7927268,16.341935 c -0.7415015,0 -1.3384514,0.596949 -1.3384514,1.338452 v 26.769038 c 0,0.741501 0.5969499,1.338451 1.3384514,1.338451 H 31.884861 c 0.741502,0 1.338452,-0.59695 1.338452,-1.338451 V 32.403357 H 25.192601 V 43.110972 H 14.484986 V 32.403357 h 5.353808 a 5.3270385,5.3270385 0 0 1 -4.61766,-2.676903 H 14.484986 V 16.341935 Z m 1.3384525,2.676904 h 2.6769037 v 2.676903 H 9.1311793 Z m 0,5.353807 H 11.808083 V 27.04955 H 9.1311793 Z m 0,5.353808 h 2.6769037 v 2.676903 H 9.1311793 Z m 0,5.353807 h 2.6769037 v 2.676904 H 9.1311793 Z m 18.7383257,0 h 2.676904 v 2.676904 H 27.869505 Z M 9.1311793,40.434069 h 2.6769037 v 2.676903 H 9.1311793 Z m 18.7383257,0 h 2.676904 v 2.676903 h -2.676904 z"
       fill="#dedede"
       id="path2"
       style="fill:url(#linearGradient4);fill-opacity:1;stroke-width:2.6769" />
  </g>
</svg>
