<?xml version="1.0" encoding="UTF-8" standalone="no"?>
<svg
   id="svg24"
   viewBox="0 0 12.539792 12.294025"
   version="1.1"
   height="46.466522"
   width="47.39542"
   xmlns:xlink="http://www.w3.org/1999/xlink"
   xmlns="http://www.w3.org/2000/svg"
   xmlns:svg="http://www.w3.org/2000/svg"
   xmlns:rdf="http://www.w3.org/1999/02/22-rdf-syntax-ns#"
   xmlns:cc="http://creativecommons.org/ns#"
   xmlns:dc="http://purl.org/dc/elements/1.1/">
  <metadata
     id="metadata2">
    <rdf:RDF>
      <cc:Work
         rdf:about="">
        <dc:format>image/svg+xml</dc:format>
        <dc:type
           rdf:resource="http://purl.org/dc/dcmitype/StillImage" />
        <dc:title />
      </cc:Work>
    </rdf:RDF>
  </metadata>
  <defs
     id="defs12">
    <linearGradient
       id="linearGradient3">
      <stop
         style="stop-color:#00abff;stop-opacity:0;"
         offset="0"
         id="stop4" />
      <stop
         style="stop-color:#00abff;stop-opacity:1;"
         offset="1"
         id="stop3" />
    </linearGradient>
    <style
       id="style14"
       type="text/css" />
    <style
       id="style16"
       type="text/css" />
    <linearGradient
       xlink:href="#linearGradient3"
       id="linearGradient4"
       x1="7.7003355"
       y1="15.861794"
       x2="7.7003355"
       y2="7.9705429"
       gradientUnits="userSpaceOnUse" />
    <filter
       style="color-interpolation-filters:sRGB"
       id="filter4"
       x="-0.026721272"
       y="-0.027284602"
       width="1.0534425"
       height="1.0545692">
      <feGaussianBlur
         stdDeviation="0.14434882"
         id="feGaussianBlur4" />
    </filter>
  </defs>
  <g
     id="g4"
     transform="matrix(0.91814686,0,0,0.91814686,0.25545202,0.255452)">
    <path
       id="path2"
       style="display:inline;opacity:0.6;fill:#00abff;fill-opacity:1;stroke-linecap:round;stroke-linejoin:round;paint-order:stroke fill markers;filter:url(#filter4)"
       d="m 6.6150717,2.6463999 c -0.7267691,0 -1.3218571,0.5954484 -1.3218571,1.3223739 0,0.3024434 0.1747978,0.536071 0.3472588,0.7596286 L 3.0251806,9.0076436 c -0.038836,-0.00295 -0.075534,-0.011369 -0.1152362,-0.011369 -0.8730957,0 -1.5859185,0.7148743 -1.5859185,1.5874694 0,0.872596 0.7134482,1.586435 1.5859185,1.586435 0.8724701,0 1.5859186,-0.713964 1.5859186,-1.586435 0,-0.542578 -0.3094027,-0.9800155 -0.7281067,-1.2670818 l 2.507808,-4.1035448 c 0.1123363,0.03118 0.2179076,0.080097 0.3395074,0.080097 0.016143,0 0.03102,-0.00561 0.047025,-0.0062 l 2.9470489,7.3694316 c -0.3194642,0.290538 -0.6128704,0.637708 -0.6128704,1.101203 0,0.873095 0.7149991,1.585918 1.5874688,1.585918 0.872471,0 1.586435,-0.713449 1.586435,-1.585918 0,-0.468193 -0.296196,-0.820024 -0.621139,-1.111022 l 1.68927,-5.0724587 c 0.582658,-0.1383702 1.050561,-0.6021612 1.050561,-1.2247074 0,-0.7269254 -0.597155,-1.3223739 -1.323924,-1.3223739 -0.726769,0 -1.324441,0.5954482 -1.324441,1.3223739 0,0.5236927 0.345808,0.9208785 0.791151,1.1347921 l -1.578168,4.734502 c -0.09006,-0.01582 -0.175737,-0.04703 -0.269745,-0.04703 -0.10165,0 -0.193826,0.03274 -0.290933,0.05116 L 7.3612647,4.8963475 C 7.6495282,4.6530178 7.9353786,4.3730104 7.9353786,3.9687738 c 0,-0.7261437 -0.5935378,-1.322374 -1.3203069,-1.3223739 z m 0,0.7947679 c 0.2981793,0 0.529673,0.2294266 0.529673,0.527606 0,0.2981794 -0.2317011,0.5291563 -0.529673,0.5291563 -0.297972,0 -0.5312232,-0.2320132 -0.5312232,-0.5291563 0,-0.2971431 0.233044,-0.5276061 0.5312232,-0.527606 z M 12.964947,5.820304 c 0.298178,0 0.529155,0.2311832 0.529156,0.5291562 0,0.2924746 -0.229356,0.5115546 -0.519338,0.5198547 l -0.05271,-0.01757 a 0.26460459,0.26460459 0 0 0 -0.117303,0.058393 l 0.06821,-0.040824 c -0.249617,-0.042983 -0.437174,-0.2535431 -0.437174,-0.5198547 0,-0.2979722 0.230976,-0.5291562 0.529156,-0.5291562 z M 2.9099444,9.7889759 c 0.4437664,0 0.7932177,0.3508471 0.7932177,0.7947681 0,0.443923 -0.3486737,0.79115 -0.7932177,0.79115 -0.4445443,0 -0.7947678,-0.347383 -0.7947678,-0.79115 0,-0.443765 0.3510012,-0.7947681 0.7947678,-0.7947681 z M 10.583744,12.96288 c 0.443767,0 0.79115,0.350223 0.79115,0.794768 0,0.444543 -0.347228,0.795284 -0.79115,0.795284 -0.443921,0 -0.7947682,-0.351519 -0.7947682,-0.795284 0,-0.443767 0.3510022,-0.794768 0.7947682,-0.794768 z"
       transform="translate(-1.2558144,-2.5781884)" />
    <path
       id="path3"
       style="fill:url(#linearGradient4);fill-opacity:1;stroke-linecap:round;stroke-linejoin:round;paint-order:stroke fill markers"
       d="m 6.6150717,2.6463999 c -0.7267691,0 -1.3218571,0.5954484 -1.3218571,1.3223739 0,0.3024434 0.1747978,0.536071 0.3472588,0.7596286 L 3.0251806,9.0076436 c -0.038836,-0.00295 -0.075534,-0.011369 -0.1152362,-0.011369 -0.8730957,0 -1.5859185,0.7148743 -1.5859185,1.5874694 0,0.872596 0.7134482,1.586435 1.5859185,1.586435 0.8724701,0 1.5859186,-0.713964 1.5859186,-1.586435 0,-0.542578 -0.3094027,-0.9800155 -0.7281067,-1.2670818 l 2.507808,-4.1035448 c 0.1123363,0.03118 0.2179076,0.080097 0.3395074,0.080097 0.016143,0 0.03102,-0.00561 0.047025,-0.0062 l 2.9470489,7.3694316 c -0.3194642,0.290538 -0.6128704,0.637708 -0.6128704,1.101203 0,0.873095 0.7149991,1.585918 1.5874688,1.585918 0.872471,0 1.586435,-0.713449 1.586435,-1.585918 0,-0.468193 -0.296196,-0.820024 -0.621139,-1.111022 l 1.68927,-5.0724587 c 0.582658,-0.1383702 1.050561,-0.6021612 1.050561,-1.2247074 0,-0.7269254 -0.597155,-1.3223739 -1.323924,-1.3223739 -0.726769,0 -1.324441,0.5954482 -1.324441,1.3223739 0,0.5236927 0.345808,0.9208785 0.791151,1.1347921 l -1.578168,4.734502 c -0.09006,-0.01582 -0.175737,-0.04703 -0.269745,-0.04703 -0.10165,0 -0.193826,0.03274 -0.290933,0.05116 L 7.3612647,4.8963475 C 7.6495282,4.6530178 7.9353786,4.3730104 7.9353786,3.9687738 c 0,-0.7261437 -0.5935378,-1.322374 -1.3203069,-1.3223739 z m 0,0.7947679 c 0.2981793,0 0.529673,0.2294266 0.529673,0.527606 0,0.2981794 -0.2317011,0.5291563 -0.529673,0.5291563 -0.297972,0 -0.5312232,-0.2320132 -0.5312232,-0.5291563 0,-0.2971431 0.233044,-0.5276061 0.5312232,-0.527606 z M 12.964947,5.820304 c 0.298178,0 0.529155,0.2311832 0.529156,0.5291562 0,0.2924746 -0.229356,0.5115546 -0.519338,0.5198547 l -0.05271,-0.01757 a 0.26460459,0.26460459 0 0 0 -0.117303,0.058393 l 0.06821,-0.040824 c -0.249617,-0.042983 -0.437174,-0.2535431 -0.437174,-0.5198547 0,-0.2979722 0.230976,-0.5291562 0.529156,-0.5291562 z M 2.9099444,9.7889759 c 0.4437664,0 0.7932177,0.3508471 0.7932177,0.7947681 0,0.443923 -0.3486737,0.79115 -0.7932177,0.79115 -0.4445443,0 -0.7947678,-0.347383 -0.7947678,-0.79115 0,-0.443765 0.3510012,-0.7947681 0.7947678,-0.7947681 z M 10.583744,12.96288 c 0.443767,0 0.79115,0.350223 0.79115,0.794768 0,0.444543 -0.347228,0.795284 -0.79115,0.795284 -0.443921,0 -0.7947682,-0.351519 -0.7947682,-0.795284 0,-0.443767 0.3510022,-0.794768 0.7947682,-0.794768 z"
       transform="translate(-1.2558144,-2.5781884)" />
  </g>
</svg>
