<?xml version="1.0" encoding="UTF-8" standalone="no"?>
<svg
   width="44.233063"
   height="44.235378"
   version="1.1"
   viewBox="0 0 11.703101 11.703713"
   id="svg23"
   xmlns:xlink="http://www.w3.org/1999/xlink"
   xmlns="http://www.w3.org/2000/svg"
   xmlns:svg="http://www.w3.org/2000/svg"
   xmlns:rdf="http://www.w3.org/1999/02/22-rdf-syntax-ns#"
   xmlns:cc="http://creativecommons.org/ns#"
   xmlns:dc="http://purl.org/dc/elements/1.1/">
  <metadata
     id="metadata2">
    <rdf:RDF>
      <cc:Work
         rdf:about="">
        <dc:format>image/svg+xml</dc:format>
        <dc:type
           rdf:resource="http://purl.org/dc/dcmitype/StillImage" />
        <dc:title />
      </cc:Work>
    </rdf:RDF>
  </metadata>
  <defs
     id="defs9">
    <linearGradient
       id="linearGradient3">
      <stop
         style="stop-color:#00abff;stop-opacity:0;"
         offset="0"
         id="stop4" />
      <stop
         style="stop-color:#00abff;stop-opacity:1;"
         offset="1"
         id="stop3" />
    </linearGradient>
    <style
       type="text/css"
       id="style853" />
    <style
       type="text/css"
       id="style863" />
    <style
       type="text/css"
       id="style865" />
    <style
       type="text/css"
       id="style867" />
    <style
       type="text/css"
       id="style869" />
    <style
       type="text/css"
       id="style871" />
    <style
       type="text/css"
       id="style873" />
    <style
       type="text/css"
       id="style875" />
    <style
       type="text/css"
       id="current-color-scheme">.ColorScheme-Text {
        color:#4d4d4d;
      }</style>
    <style
       id="style862"
       type="text/css">.ColorScheme-Text {
        color:#4d4d4d;
      }</style>
    <style
       id="current-color-scheme-6"
       type="text/css">.ColorScheme-Text { color:#565656; } .ColorScheme-Highlight { color:#5294e2; }</style>
    <style
       type="text/css"
       id="style5" />
    <style
       type="text/css"
       id="current-color-scheme-3">.ColorScheme-Text {
        color:#4d4d4d;
      }</style>
    <style
       id="style854"
       type="text/css">.ColorScheme-Text {
        color:#4d4d4d;
      }</style>
    <style
       id="style14"
       type="text/css" />
    <style
       id="current-color-scheme-5"
       type="text/css">.ColorScheme-Text {
        color:#4d4d4d;
      }</style>
    <style
       type="text/css"
       id="style874">.ColorScheme-Text {
        color:#4d4d4d;
      }</style>
    <style
       type="text/css"
       id="current-color-scheme-35">.ColorScheme-Text { color:#565656; } .ColorScheme-Highlight { color:#5294e2; }</style>
    <style
       type="text/css"
       id="style970" />
    <linearGradient
       xlink:href="#linearGradient3"
       id="linearGradient4"
       x1="8.2245131"
       y1="17.412382"
       x2="8.2245131"
       y2="6.8944669"
       gradientUnits="userSpaceOnUse" />
    <filter
       style="color-interpolation-filters:sRGB"
       id="filter4"
       x="-0.027000744"
       y="-0.026999256"
       width="1.0540015"
       height="1.0539985">
      <feGaussianBlur
         stdDeviation="0.16874874"
         id="feGaussianBlur4" />
    </filter>
  </defs>
  <g
     color="#dedede"
     fill="#dedede"
     font-weight="400"
     id="g2"
     transform="matrix(0.74025901,0,0,0.74025901,-0.44069879,-0.44041261)">
    <path
       id="path1"
       style="line-height:125%;-inkscape-font-specification:'Ubuntu, Normal';font-variant-ligatures:normal;font-variant-position:normal;font-variant-caps:normal;font-variant-numeric:normal;font-variant-alternates:normal;font-feature-settings:normal;text-indent:0;text-align:start;text-decoration-line:none;text-decoration-style:solid;text-decoration-color:#dedede;text-transform:none;text-orientation:mixed;shape-padding:0;display:inline;opacity:0.6;isolation:auto;mix-blend-mode:normal;fill:#00abff;fill-opacity:1;filter:url(#filter4)"
       d="m 7.9998963,1.0000648 c -0.529,0 -1.0318743,0.097587 -1.4938743,0.2945865 -0.46,0.188 -0.8679666,0.4632346 -1.2069666,0.8202346 l -0.00209,0.00419 -0.00209,0.00209 A 3.82,3.82 0 0 0 4.5290819,3.4007347 4.551,4.551 0 0 0 4.258928,5.0007159 c 0,0.58 0.087154,1.1225465 0.2701539,1.6125465 0.18,0.482 0.4357851,0.9076047 0.7657851,1.2656047 l 0.00209,0.00209 0.00209,0.00209 c 0.338,0.356 0.742684,0.6361019 1.200684,0.8321019 l 0.00419,0.00209 0.00419,0.00209 c 0.462,0.188 0.9637801,0.2806249 1.4917801,0.2806249 0.528,0 1.0283838,-0.092625 1.4903838,-0.2806249 V 8.717239 A 3.47,3.47 0 0 0 10.679795,7.8830555 c 0.34,-0.358 0.600445,-0.7857931 0.780445,-1.2697931 0.185,-0.49 0.27155,-1.0312446 0.27155,-1.6132446 h 0.0084 c 0,-0.573 -0.08715,-1.1088869 -0.270153,-1.5978869 A 3.692,3.692 0 0 0 10.690266,2.1190744 3.332,3.332 0 0 0 9.4937705,1.2946513 3.78,3.78 0 0 0 7.9998963,1.0000648 Z m 0,0.9996393 c 0.406,0 0.7702558,0.073006 1.1022558,0.2150062 l 0.00977,0.00419 0.00977,0.00209 a 2.3,2.3 0 0 1 0.8369884,0.5759095 v 0.00977 c 0.2399995,0.253 0.4316265,0.5643031 0.5696265,0.9403031 v 0.00489 c 0.13,0.351 0.193951,0.7530801 0.198951,1.2020801 v 0.046073 c 0,0.482 -0.07233,0.9001144 -0.207328,1.2621144 v 0.00209 a 2.708,2.708 0 0 1 -0.5696264,0.93053 l -0.010471,0.00419 v 0.00419 c -0.234,0.253 -0.5141576,0.4500594 -0.8481576,0.5940594 A 2.889,2.889 0 0 1 7.9998963,8.0003316 c -0.41,0 -0.7769347,-0.072327 -1.1099347,-0.2073274 h -0.00279 A 2.58,2.58 0 0 1 6.0487848,7.2108121 l -0.050959,-0.069807 -0.00768,-0.00628 A 2.798,2.798 0 0 1 5.4672908,6.2642264 3.595,3.595 0 0 1 5.2592653,5.0000178 c 0,-0.471 0.071026,-0.8862471 0.2080255,-1.2502471 l 0.0014,-0.00209 v -0.00349 C 5.6056908,3.3681907 5.79296,3.060076 6.02296,2.808076 l 0.011867,-0.00977 c 0.24,-0.25 0.5202517,-0.4430037 0.8502517,-0.5780037 l 0.00558,-0.00419 0.00838,-0.00209 c 0.33,-0.14 0.6948597,-0.2143081 1.1008597,-0.2143081 z m 5.0002907,9.0002429 v 1.999977 H 11.00021 v 1.000337 h 1.999977 v 1.999977 h 0.999639 v -1.999977 h 1.999976 v -1.000337 h -1.999976 v -1.999977 z m -4.9702736,0.02513 c -2.882,0 -4.4299921,0.265971 -5.5789921,1.132971 -0.575,0.434 -0.9538746,1.025069 -1.1678746,1.713069 -0.214,0.688 -0.2807192,1.212025 -0.2827192,2.127025 l 0.9996392,0.0021 c 0.002,-0.865 0.072043,-1.300534 0.2380426,-1.834534 0.166,-0.534 0.4117444,-0.902363 0.8167444,-1.208363 0.81,-0.61 2.1624616,-0.93402 4.9744616,-0.93402 0.77,0 1.4066575,0.03088 1.9706575,0.07888 v -1.014299 a 27.464,27.464 0 0 0 -1.9699594,-0.06283 z" />
    <path
       id="path2"
       style="line-height:125%;-inkscape-font-specification:'Ubuntu, Normal';font-variant-ligatures:normal;font-variant-position:normal;font-variant-caps:normal;font-variant-numeric:normal;font-variant-alternates:normal;font-feature-settings:normal;text-indent:0;text-align:start;text-decoration-line:none;text-decoration-style:solid;text-decoration-color:#dedede;text-transform:none;text-orientation:mixed;shape-padding:0;isolation:auto;mix-blend-mode:normal;fill:url(#linearGradient4);fill-opacity:1"
       d="m 7.9998963,1.0000648 c -0.529,0 -1.0318743,0.097587 -1.4938743,0.2945865 -0.46,0.188 -0.8679666,0.4632346 -1.2069666,0.8202346 l -0.00209,0.00419 -0.00209,0.00209 A 3.82,3.82 0 0 0 4.5290819,3.4007347 4.551,4.551 0 0 0 4.258928,5.0007159 c 0,0.58 0.087154,1.1225465 0.2701539,1.6125465 0.18,0.482 0.4357851,0.9076047 0.7657851,1.2656047 l 0.00209,0.00209 0.00209,0.00209 c 0.338,0.356 0.742684,0.6361019 1.200684,0.8321019 l 0.00419,0.00209 0.00419,0.00209 c 0.462,0.188 0.9637801,0.2806249 1.4917801,0.2806249 0.528,0 1.0283838,-0.092625 1.4903838,-0.2806249 V 8.717239 A 3.47,3.47 0 0 0 10.679795,7.8830555 c 0.34,-0.358 0.600445,-0.7857931 0.780445,-1.2697931 0.185,-0.49 0.27155,-1.0312446 0.27155,-1.6132446 h 0.0084 c 0,-0.573 -0.08715,-1.1088869 -0.270153,-1.5978869 A 3.692,3.692 0 0 0 10.690266,2.1190744 3.332,3.332 0 0 0 9.4937705,1.2946513 3.78,3.78 0 0 0 7.9998963,1.0000648 Z m 0,0.9996393 c 0.406,0 0.7702558,0.073006 1.1022558,0.2150062 l 0.00977,0.00419 0.00977,0.00209 a 2.3,2.3 0 0 1 0.8369884,0.5759095 v 0.00977 c 0.2399995,0.253 0.4316265,0.5643031 0.5696265,0.9403031 v 0.00489 c 0.13,0.351 0.193951,0.7530801 0.198951,1.2020801 v 0.046073 c 0,0.482 -0.07233,0.9001144 -0.207328,1.2621144 v 0.00209 a 2.708,2.708 0 0 1 -0.5696264,0.93053 l -0.010471,0.00419 v 0.00419 c -0.234,0.253 -0.5141576,0.4500594 -0.8481576,0.5940594 A 2.889,2.889 0 0 1 7.9998963,8.0003316 c -0.41,0 -0.7769347,-0.072327 -1.1099347,-0.2073274 h -0.00279 A 2.58,2.58 0 0 1 6.0487848,7.2108121 l -0.050959,-0.069807 -0.00768,-0.00628 A 2.798,2.798 0 0 1 5.4672908,6.2642264 3.595,3.595 0 0 1 5.2592653,5.0000178 c 0,-0.471 0.071026,-0.8862471 0.2080255,-1.2502471 l 0.0014,-0.00209 v -0.00349 C 5.6056908,3.3681907 5.79296,3.060076 6.02296,2.808076 l 0.011867,-0.00977 c 0.24,-0.25 0.5202517,-0.4430037 0.8502517,-0.5780037 l 0.00558,-0.00419 0.00838,-0.00209 c 0.33,-0.14 0.6948597,-0.2143081 1.1008597,-0.2143081 z m 5.0002907,9.0002429 v 1.999977 H 11.00021 v 1.000337 h 1.999977 v 1.999977 h 0.999639 v -1.999977 h 1.999976 v -1.000337 h -1.999976 v -1.999977 z m -4.9702736,0.02513 c -2.882,0 -4.4299921,0.265971 -5.5789921,1.132971 -0.575,0.434 -0.9538746,1.025069 -1.1678746,1.713069 -0.214,0.688 -0.2807192,1.212025 -0.2827192,2.127025 l 0.9996392,0.0021 c 0.002,-0.865 0.072043,-1.300534 0.2380426,-1.834534 0.166,-0.534 0.4117444,-0.902363 0.8167444,-1.208363 0.81,-0.61 2.1624616,-0.93402 4.9744616,-0.93402 0.77,0 1.4066575,0.03088 1.9706575,0.07888 v -1.014299 a 27.464,27.464 0 0 0 -1.9699594,-0.06283 z" />
  </g>
</svg>
