<?xml version="1.0" encoding="UTF-8" standalone="no"?>
<svg
   width="48.484001"
   height="48.484001"
   viewBox="0 0 12.827806 12.827806"
   version="1.1"
   id="svg42"
   xmlns:xlink="http://www.w3.org/1999/xlink"
   xmlns="http://www.w3.org/2000/svg"
   xmlns:svg="http://www.w3.org/2000/svg"
   xmlns:rdf="http://www.w3.org/1999/02/22-rdf-syntax-ns#"
   xmlns:cc="http://creativecommons.org/ns#"
   xmlns:dc="http://purl.org/dc/elements/1.1/">
  <metadata
     id="metadata46">
    <rdf:RDF>
      <cc:Work
         rdf:about="">
        <dc:format>image/svg+xml</dc:format>
        <dc:type
           rdf:resource="http://purl.org/dc/dcmitype/StillImage" />
        <dc:title />
      </cc:Work>
    </rdf:RDF>
  </metadata>
  <defs
     id="defs8">
    <linearGradient
       id="linearGradient1">
      <stop
         style="stop-color:#ff3dfb;stop-opacity:0;"
         offset="0"
         id="stop3" />
      <stop
         style="stop-color:#ff3dfb;stop-opacity:1;"
         offset="1"
         id="stop1" />
    </linearGradient>
    <style
       type="text/css"
       id="style913" />
    <linearGradient
       xlink:href="#linearGradient1"
       id="linearGradient3"
       x1="9"
       y1="17"
       x2="9"
       y2="7"
       gradientUnits="userSpaceOnUse" />
    <filter
       style="color-interpolation-filters:sRGB"
       id="filter3"
       x="-0.027000001"
       y="-0.027000001"
       width="1.054"
       height="1.054">
      <feGaussianBlur
         stdDeviation="0.13691918"
         id="feGaussianBlur3" />
    </filter>
  </defs>
  <g
     id="g1295"
     style="fill:#039bfc;fill-opacity:1"
     transform="translate(-2.0525971,-2.0525971)">
    <path
       id="path1269"
       style="display:inline;opacity:0.6;fill:#ff3dfb;fill-opacity:1;stroke-width:0.264578;stroke-linecap:round;paint-order:stroke fill markers;filter:url(#filter3)"
       d="m 3.7040937,2.3812031 c -0.7328813,0 -1.3228906,0.5900092 -1.3228906,1.3228906 v 9.5248123 c 0,0.732881 0.5900093,1.322891 1.3228906,1.322891 h 9.5248123 c 0.732882,0 1.322891,-0.59001 1.322891,-1.322891 V 3.7040937 c 0,-0.7328814 -0.590009,-1.3228906 -1.322891,-1.3228906 z m 0,0.2645781 h 9.5248123 c 0.586305,0 1.058313,0.4720074 1.058313,1.0583125 v 9.5248123 c 0,0.586305 -0.472008,1.058313 -1.058313,1.058313 H 3.7040937 c -0.586305,0 -1.0583125,-0.472008 -1.0583125,-1.058313 V 3.7040937 c 0,-0.5863051 0.4720075,-1.0583125 1.0583125,-1.0583125 z M 3.9686719,3.9686719 V 5.2915625 H 5.2915625 V 3.9686719 Z m 2.6457812,0 V 5.2915625 H 7.9373437 V 3.9686719 Z m 2.6457813,0 V 5.2915625 H 10.583125 V 3.9686719 Z m 2.6457816,0 v 1.3228906 h 1.32289 V 3.9686719 Z M 3.9686719,6.6144531 V 7.9373437 H 5.2915625 V 6.6144531 Z m 2.6457812,0 V 7.9373437 H 7.9373437 V 6.6144531 Z m 2.6457813,0 V 7.9373437 H 10.583125 V 6.6144531 Z m 2.6457816,0 V 9.2602344 H 9.2602344 V 10.583125 H 13.228906 V 9.2602344 6.6144531 Z M 3.9686719,9.2602344 V 10.583125 H 5.2915625 V 9.2602344 Z m 2.6457812,0 V 10.583125 H 7.9373437 V 9.2602344 Z M 3.9686719,11.906016 v 1.32289 h 9.2602341 v -1.32289 z" />
    <path
       id="path1"
       style="fill:url(#linearGradient3);fill-opacity:1;stroke-width:0.264578;stroke-linecap:round;paint-order:stroke fill markers"
       d="m 3.7040937,2.3812031 c -0.7328813,0 -1.3228906,0.5900092 -1.3228906,1.3228906 v 9.5248123 c 0,0.732881 0.5900093,1.322891 1.3228906,1.322891 h 9.5248123 c 0.732882,0 1.322891,-0.59001 1.322891,-1.322891 V 3.7040937 c 0,-0.7328814 -0.590009,-1.3228906 -1.322891,-1.3228906 z m 0,0.2645781 h 9.5248123 c 0.586305,0 1.058313,0.4720074 1.058313,1.0583125 v 9.5248123 c 0,0.586305 -0.472008,1.058313 -1.058313,1.058313 H 3.7040937 c -0.586305,0 -1.0583125,-0.472008 -1.0583125,-1.058313 V 3.7040937 c 0,-0.5863051 0.4720075,-1.0583125 1.0583125,-1.0583125 z M 3.9686719,3.9686719 V 5.2915625 H 5.2915625 V 3.9686719 Z m 2.6457812,0 V 5.2915625 H 7.9373437 V 3.9686719 Z m 2.6457813,0 V 5.2915625 H 10.583125 V 3.9686719 Z m 2.6457816,0 v 1.3228906 h 1.32289 V 3.9686719 Z M 3.9686719,6.6144531 V 7.9373437 H 5.2915625 V 6.6144531 Z m 2.6457812,0 V 7.9373437 H 7.9373437 V 6.6144531 Z m 2.6457813,0 V 7.9373437 H 10.583125 V 6.6144531 Z m 2.6457816,0 V 9.2602344 H 9.2602344 V 10.583125 H 13.228906 V 9.2602344 6.6144531 Z M 3.9686719,9.2602344 V 10.583125 H 5.2915625 V 9.2602344 Z m 2.6457812,0 V 10.583125 H 7.9373437 V 9.2602344 Z M 3.9686719,11.906016 v 1.32289 h 9.2602341 v -1.32289 z" />
  </g>
</svg>
