<?xml version="1.0" encoding="UTF-8" standalone="no"?>
<svg
   width="49.350227"
   height="48.512787"
   viewBox="0 0 13.056991 12.835422"
   version="1.1"
   id="svg14"
   xmlns:xlink="http://www.w3.org/1999/xlink"
   xmlns="http://www.w3.org/2000/svg"
   xmlns:svg="http://www.w3.org/2000/svg"
   xmlns:rdf="http://www.w3.org/1999/02/22-rdf-syntax-ns#"
   xmlns:cc="http://creativecommons.org/ns#"
   xmlns:dc="http://purl.org/dc/elements/1.1/">
  <metadata
     id="metadata20">
    <rdf:RDF>
      <cc:Work
         rdf:about="">
        <dc:format>image/svg+xml</dc:format>
        <dc:type
           rdf:resource="http://purl.org/dc/dcmitype/StillImage" />
        <dc:title />
      </cc:Work>
    </rdf:RDF>
  </metadata>
  <defs
     id="defs18">
    <linearGradient
       id="linearGradient1">
      <stop
         style="stop-color:#ff3dfb;stop-opacity:0;"
         offset="0"
         id="stop3" />
      <stop
         style="stop-color:#ff3dfb;stop-opacity:1;"
         offset="1"
         id="stop1" />
    </linearGradient>
    <style
       type="text/css"
       id="style872" />
    <style
       id="style4"
       type="text/css" />
    <style
       id="style6"
       type="text/css" />
    <style
       id="style8"
       type="text/css" />
    <style
       type="text/css"
       id="style872-0" />
    <style
       type="text/css"
       id="style874" />
    <style
       type="text/css"
       id="style876" />
    <style
       type="text/css"
       id="style853" />
    <style
       type="text/css"
       id="style863" />
    <style
       type="text/css"
       id="style865" />
    <style
       type="text/css"
       id="style867" />
    <style
       type="text/css"
       id="style869" />
    <style
       type="text/css"
       id="style871" />
    <style
       type="text/css"
       id="style873" />
    <style
       type="text/css"
       id="style875" />
    <style
       type="text/css"
       id="current-color-scheme">.ColorScheme-Text {
        color:#4d4d4d;
      }</style>
    <style
       id="style862"
       type="text/css">.ColorScheme-Text {
        color:#4d4d4d;
      }</style>
    <style
       type="text/css"
       id="style872-9" />
    <style
       id="style4-7"
       type="text/css" />
    <style
       id="style6-5"
       type="text/css" />
    <style
       id="style8-9"
       type="text/css" />
    <style
       type="text/css"
       id="style872-0-6" />
    <style
       type="text/css"
       id="style874-1" />
    <style
       type="text/css"
       id="style876-2" />
    <style
       type="text/css"
       id="style853-3" />
    <style
       type="text/css"
       id="style863-3" />
    <style
       type="text/css"
       id="style865-2" />
    <style
       type="text/css"
       id="style867-0" />
    <style
       type="text/css"
       id="style869-6" />
    <style
       type="text/css"
       id="style871-1" />
    <style
       type="text/css"
       id="style873-5" />
    <style
       type="text/css"
       id="style875-5" />
    <style
       type="text/css"
       id="current-color-scheme-3">.ColorScheme-Text {
        color:#4d4d4d;
      }</style>
    <style
       id="style862-7"
       type="text/css">.ColorScheme-Text {
        color:#4d4d4d;
      }</style>
    <style
       type="text/css"
       id="style933" />
    <style
       type="text/css"
       id="style947" />
    <linearGradient
       xlink:href="#linearGradient1"
       id="linearGradient3"
       x1="9"
       y1="17"
       x2="9"
       y2="6.5748353"
       gradientUnits="userSpaceOnUse" />
    <filter
       style="color-interpolation-filters:sRGB"
       id="filter3"
       x="-0.026758654"
       y="-0.027245739"
       width="1.0535173"
       height="1.0544915">
      <feGaussianBlur
         stdDeviation="0.13818294"
         id="feGaussianBlur3" />
    </filter>
  </defs>
  <g
     id="g1174"
     transform="translate(-1.9380011,-2.0490473)">
    <g
       id="g1166">
      <path
         id="path1156"
         style="color:#000000;font-style:normal;font-variant:normal;font-weight:normal;font-stretch:normal;font-size:medium;line-height:normal;font-family:sans-serif;font-variant-ligatures:normal;font-variant-position:normal;font-variant-caps:normal;font-variant-numeric:normal;font-variant-alternates:normal;font-variant-east-asian:normal;font-feature-settings:normal;font-variation-settings:normal;text-indent:0;text-align:start;text-decoration:none;text-decoration-line:none;text-decoration-style:solid;text-decoration-color:#000000;letter-spacing:normal;word-spacing:normal;text-transform:none;writing-mode:lr-tb;direction:ltr;text-orientation:mixed;dominant-baseline:auto;baseline-shift:baseline;text-anchor:start;white-space:normal;shape-padding:0;shape-margin:0;inline-size:0;clip-rule:nonzero;display:inline;overflow:visible;visibility:visible;opacity:0.6;isolation:auto;mix-blend-mode:normal;color-interpolation:sRGB;color-interpolation-filters:linearRGB;solid-color:#000000;solid-opacity:1;vector-effect:none;fill:#ff3dfb;fill-opacity:1;fill-rule:nonzero;stroke:none;stroke-linecap:round;stroke-linejoin:miter;stroke-miterlimit:4;stroke-dasharray:none;stroke-dashoffset:0;stroke-opacity:1;paint-order:stroke fill markers;filter:url(#filter3);color-rendering:auto;image-rendering:auto;shape-rendering:auto;text-rendering:auto;enable-background:accumulate;stop-color:#000000;stop-opacity:1"
         d="m 4.8662738,2.3806864 c -0.7879491,0 -1.3281985,0.6459014 -1.4257247,1.4277917 L 2.278369,13.125039 c -0.097526,0.78189 0.6377757,1.427791 1.4257247,1.427791 h 9.5248123 c 0.787949,0 1.523202,-0.645895 1.425725,-1.427791 L 13.493484,3.8084781 C 13.396007,3.0265817 12.855192,2.3806864 12.067243,2.3806864 Z m 0,0.2656116 h 7.2009692 c 0.64595,0 1.08227,0.5211926 1.16218,1.1621801 l 0.151926,1.2205733 c -0.0066,-0.001 -0.01328,-0.00207 -0.02015,-0.00207 H 3.5718047 c -0.00687,0 -0.013567,0.00107 -0.020153,0.00207 L 3.7040937,3.8084781 C 3.7840443,3.1674956 4.2203246,2.646298 4.8662738,2.646298 Z M 3.5201293,5.2812274 c 0.015838,0.00668 0.033353,0.010335 0.051675,0.010335 h 9.7893907 c 0.01832,0 0.03584,-0.00366 0.05168,-0.010335 l 0.978215,7.8438116 c 0.07991,0.640987 -0.51623,1.16218 -1.16218,1.16218 H 8.3342109 3.7040937 c -0.6459492,0 -1.2421304,-0.521198 -1.16218,-1.16218 z m 4.8140816,9.0059916 c 0.073288,0 0.1322891,-0.06375 0.1322891,-0.143141 v -2.844732 l 1.0836335,1.08415 c 0.051824,0.05182 0.1357591,0.05182 0.1875817,0 0.051823,-0.05182 0.051824,-0.135757 0,-0.187581 L 8.4277434,10.88646 c -0.024355,-0.02435 -0.055575,-0.03678 -0.087331,-0.03824 -0.037904,-0.0036 -0.077301,0.0091 -0.1064514,0.03824 l -1.309455,1.309455 c -0.051823,0.05182 -0.051824,0.135758 0,0.187581 0.051824,0.05182 0.1352426,0.05182 0.187065,0 l 1.0903513,-1.090351 v 2.850933 c 0,0.07939 0.059001,0.143141 0.1322886,0.143141 z M 6.4821641,6.349875 a 0.39686722,0.39686722 0 0 0 -0.3968672,0.3968672 0.39686722,0.39686722 0 0 0 0.2702624,0.3751635 0.13228901,0.13228901 0 0 0 -0.0062,0.022737 c 0,0.7559852 0.404127,1.4539008 1.0588293,1.8318934 0.6547024,0.3779926 1.4624395,0.3779926 2.1171418,0 0.6547016,-0.3779924 1.0588286,-1.075908 1.0588286,-1.8318932 a 0.13228901,0.13228901 0 0 0 -0.0021,-0.023254 0.39686722,0.39686722 0 0 0 0.265612,-0.3746467 0.39686722,0.39686722 0 0 0 -0.396867,-0.3968672 0.39686722,0.39686722 0 0 0 -0.396867,0.3968672 0.39686722,0.39686722 0 0 0 0.270262,0.3751635 0.13228901,0.13228901 0 0 0 -0.0057,0.022737 c 0,0.6618848 -0.3528146,1.2725457 -0.9260236,1.6034881 -0.573209,0.3309423 -1.2783211,0.3309424 -1.8515301,0 C 6.9677844,8.4171886 6.6154866,7.8065276 6.6154866,7.1446429 A 0.13228901,0.13228901 0 0 0 6.6134196,7.1213889 0.39686722,0.39686722 0 0 0 6.8790312,6.7467422 0.39686722,0.39686722 0 0 0 6.4821641,6.349875 Z" />
      <path
         id="path1"
         style="color:#000000;font-style:normal;font-variant:normal;font-weight:normal;font-stretch:normal;font-size:medium;line-height:normal;font-family:sans-serif;font-variant-ligatures:normal;font-variant-position:normal;font-variant-caps:normal;font-variant-numeric:normal;font-variant-alternates:normal;font-variant-east-asian:normal;font-feature-settings:normal;font-variation-settings:normal;text-indent:0;text-align:start;text-decoration:none;text-decoration-line:none;text-decoration-style:solid;text-decoration-color:#000000;letter-spacing:normal;word-spacing:normal;text-transform:none;writing-mode:lr-tb;direction:ltr;text-orientation:mixed;dominant-baseline:auto;baseline-shift:baseline;text-anchor:start;white-space:normal;shape-padding:0;shape-margin:0;inline-size:0;clip-rule:nonzero;display:inline;overflow:visible;visibility:visible;opacity:1;isolation:auto;mix-blend-mode:normal;color-interpolation:sRGB;color-interpolation-filters:linearRGB;solid-color:#000000;solid-opacity:1;vector-effect:none;fill:url(#linearGradient3);fill-opacity:1;fill-rule:nonzero;stroke:none;stroke-linecap:round;stroke-linejoin:miter;stroke-miterlimit:4;stroke-dasharray:none;stroke-dashoffset:0;stroke-opacity:1;paint-order:stroke fill markers;color-rendering:auto;image-rendering:auto;shape-rendering:auto;text-rendering:auto;enable-background:accumulate;stop-color:#000000;stop-opacity:1"
         d="m 4.8662738,2.3806864 c -0.7879491,0 -1.3281985,0.6459014 -1.4257247,1.4277917 L 2.278369,13.125039 c -0.097526,0.78189 0.6377757,1.427791 1.4257247,1.427791 h 9.5248123 c 0.787949,0 1.523202,-0.645895 1.425725,-1.427791 L 13.493484,3.8084781 C 13.396007,3.0265817 12.855192,2.3806864 12.067243,2.3806864 Z m 0,0.2656116 h 7.2009692 c 0.64595,0 1.08227,0.5211926 1.16218,1.1621801 l 0.151926,1.2205733 c -0.0066,-0.001 -0.01328,-0.00207 -0.02015,-0.00207 H 3.5718047 c -0.00687,0 -0.013567,0.00107 -0.020153,0.00207 L 3.7040937,3.8084781 C 3.7840443,3.1674956 4.2203246,2.646298 4.8662738,2.646298 Z M 3.5201293,5.2812274 c 0.015838,0.00668 0.033353,0.010335 0.051675,0.010335 h 9.7893907 c 0.01832,0 0.03584,-0.00366 0.05168,-0.010335 l 0.978215,7.8438116 c 0.07991,0.640987 -0.51623,1.16218 -1.16218,1.16218 H 8.3342109 3.7040937 c -0.6459492,0 -1.2421304,-0.521198 -1.16218,-1.16218 z m 4.8140816,9.0059916 c 0.073288,0 0.1322891,-0.06375 0.1322891,-0.143141 v -2.844732 l 1.0836335,1.08415 c 0.051824,0.05182 0.1357591,0.05182 0.1875817,0 0.051823,-0.05182 0.051824,-0.135757 0,-0.187581 L 8.4277434,10.88646 c -0.024355,-0.02435 -0.055575,-0.03678 -0.087331,-0.03824 -0.037904,-0.0036 -0.077301,0.0091 -0.1064514,0.03824 l -1.309455,1.309455 c -0.051823,0.05182 -0.051824,0.135758 0,0.187581 0.051824,0.05182 0.1352426,0.05182 0.187065,0 l 1.0903513,-1.090351 v 2.850933 c 0,0.07939 0.059001,0.143141 0.1322886,0.143141 z M 6.4821641,6.349875 a 0.39686722,0.39686722 0 0 0 -0.3968672,0.3968672 0.39686722,0.39686722 0 0 0 0.2702624,0.3751635 0.13228901,0.13228901 0 0 0 -0.0062,0.022737 c 0,0.7559852 0.404127,1.4539008 1.0588293,1.8318934 0.6547024,0.3779926 1.4624395,0.3779926 2.1171418,0 0.6547016,-0.3779924 1.0588286,-1.075908 1.0588286,-1.8318932 a 0.13228901,0.13228901 0 0 0 -0.0021,-0.023254 0.39686722,0.39686722 0 0 0 0.265612,-0.3746467 0.39686722,0.39686722 0 0 0 -0.396867,-0.3968672 0.39686722,0.39686722 0 0 0 -0.396867,0.3968672 0.39686722,0.39686722 0 0 0 0.270262,0.3751635 0.13228901,0.13228901 0 0 0 -0.0057,0.022737 c 0,0.6618848 -0.3528146,1.2725457 -0.9260236,1.6034881 -0.573209,0.3309423 -1.2783211,0.3309424 -1.8515301,0 C 6.9677844,8.4171886 6.6154866,7.8065276 6.6154866,7.1446429 A 0.13228901,0.13228901 0 0 0 6.6134196,7.1213889 0.39686722,0.39686722 0 0 0 6.8790312,6.7467422 0.39686722,0.39686722 0 0 0 6.4821641,6.349875 Z" />
    </g>
  </g>
</svg>
