<?xml version="1.0" encoding="UTF-8" standalone="no"?>
<svg
   id="svg275"
   viewBox="0 0 8.4866179 10.33298"
   version="1.1"
   height="39.05455"
   width="32.076038"
   xmlns:xlink="http://www.w3.org/1999/xlink"
   xmlns="http://www.w3.org/2000/svg"
   xmlns:svg="http://www.w3.org/2000/svg"
   xmlns:rdf="http://www.w3.org/1999/02/22-rdf-syntax-ns#"
   xmlns:cc="http://creativecommons.org/ns#"
   xmlns:dc="http://purl.org/dc/elements/1.1/">
  <metadata
     id="metadata279">
    <rdf:RDF>
      <cc:Work
         rdf:about="">
        <dc:format>image/svg+xml</dc:format>
        <dc:type
           rdf:resource="http://purl.org/dc/dcmitype/StillImage" />
        <dc:title />
      </cc:Work>
    </rdf:RDF>
  </metadata>
  <defs
     id="defs111">
    <linearGradient
       id="linearGradient2">
      <stop
         style="stop-color:#00abff;stop-opacity:0;"
         offset="0"
         id="stop4" />
      <stop
         style="stop-color:#00abff;stop-opacity:1;"
         offset="1"
         id="stop2" />
    </linearGradient>
    <linearGradient
       xlink:href="#linearGradient2"
       id="linearGradient4"
       x1="7.5687523"
       y1="17.781492"
       x2="7.5687523"
       y2="6.118464"
       gradientUnits="userSpaceOnUse" />
    <filter
       style="color-interpolation-filters:sRGB"
       id="filter4"
       x="-0.030113978"
       y="-0.02446968"
       width="1.060228"
       height="1.0489394">
      <feGaussianBlur
         stdDeviation="0.16312429"
         id="feGaussianBlur4" />
    </filter>
  </defs>
  <g
     color="#000000"
     fill="#dedede"
     id="g2"
     transform="matrix(0.61570633,0,0,0.61570633,-0.37452666,0.24086656)">
    <path
       id="path1-7"
       style="font-variant-ligatures:normal;font-variant-position:normal;font-variant-caps:normal;font-variant-numeric:normal;font-variant-alternates:normal;font-feature-settings:normal;text-indent:0;text-decoration-line:none;text-decoration-style:solid;text-decoration-color:#000000;text-transform:none;text-orientation:mixed;white-space:normal;shape-padding:0;display:inline;opacity:0.6;isolation:auto;mix-blend-mode:normal;fill:#00abff;fill-opacity:1;filter:url(#filter4)"
       d="M 4.9939516,2.9464819e-4 C 3.7359516,0.01529465 2.8153231,-0.03031203 2.0623231,0.38468797 A 1.88,1.88 0 0 0 1.224715,1.3825999 c -0.165,0.437 -0.22492888,0.9603055 -0.22492888,1.6173055 V 13.000007 c 0,0.658 0.0599289,1.179305 0.22492888,1.617305 0.164,0.439 0.4616081,0.788394 0.8376081,0.995394 0.753,0.415 1.6736285,0.371911 2.9316285,0.386911 h 5.0122204 c 1.258,-0.015 2.178628,0.03061 2.931628,-0.384393 a 1.88,1.88 0 0 0 0.837609,-0.997912 c 0.165,-0.438 0.224928,-0.960305 0.224928,-1.617305 V 2.9999054 c 0,-0.658 -0.05993,-1.1793055 -0.224928,-1.6173055 A 1.875,1.875 0 0 0 12.936961,0.38720583 c -0.752,-0.415 -1.672789,-0.37191118 -2.930789,-0.38691118181 H 4.9981481 Z M 4.9998266,0.99988513 H 6.0002564 V 6.9982673 H 3.522682 L 7.5000618,12.000416 11.474924,6.9999459 H 8.9998671 V 0.99988513 h 1.0004299 c 1.259,0.015 2.089914,0.0598575 2.454914,0.26185747 0.184,0.1 0.286393,0.2135184 0.384393,0.4725184 0.097,0.26 0.160304,0.6736444 0.160304,1.2656444 V 13.000007 c 0,0.592 -0.0633,1.005644 -0.160304,1.265644 -0.098,0.26 -0.201393,0.371518 -0.384393,0.472518 -0.366,0.202 -1.196914,0.246858 -2.454914,0.261858 H 4.9998266 c -1.259,-0.015 -2.0899136,-0.05986 -2.4549136,-0.261858 -0.184,-0.1 -0.2872326,-0.213518 -0.3852326,-0.472518 -0.097,-0.26 -0.1594645,-0.673644 -0.1594645,-1.265644 V 2.9999054 c 0,-0.592 0.062464,-1.0056444 0.1594645,-1.2656444 0.098,-0.26 0.2029111,-0.3715184 0.3869111,-0.4725184 0.366,-0.202 1.1932351,-0.2468575 2.4532351,-0.26185747 z" />
    <path
       id="path1"
       style="font-variant-ligatures:normal;font-variant-position:normal;font-variant-caps:normal;font-variant-numeric:normal;font-variant-alternates:normal;font-feature-settings:normal;text-indent:0;text-decoration-line:none;text-decoration-style:solid;text-decoration-color:#000000;text-transform:none;text-orientation:mixed;white-space:normal;shape-padding:0;isolation:auto;mix-blend-mode:normal;fill:url(#linearGradient4);fill-opacity:1"
       d="M 4.9939516,2.9464819e-4 C 3.7359516,0.01529465 2.8153231,-0.03031203 2.0623231,0.38468797 A 1.88,1.88 0 0 0 1.224715,1.3825999 c -0.165,0.437 -0.22492888,0.9603055 -0.22492888,1.6173055 V 13.000007 c 0,0.658 0.0599289,1.179305 0.22492888,1.617305 0.164,0.439 0.4616081,0.788394 0.8376081,0.995394 0.753,0.415 1.6736285,0.371911 2.9316285,0.386911 h 5.0122204 c 1.258,-0.015 2.178628,0.03061 2.931628,-0.384393 a 1.88,1.88 0 0 0 0.837609,-0.997912 c 0.165,-0.438 0.224928,-0.960305 0.224928,-1.617305 V 2.9999054 c 0,-0.658 -0.05993,-1.1793055 -0.224928,-1.6173055 A 1.875,1.875 0 0 0 12.936961,0.38720583 c -0.752,-0.415 -1.672789,-0.37191118 -2.930789,-0.38691118181 H 4.9981481 Z M 4.9998266,0.99988513 H 6.0002564 V 6.9982673 H 3.522682 L 7.5000618,12.000416 11.474924,6.9999459 H 8.9998671 V 0.99988513 h 1.0004299 c 1.259,0.015 2.089914,0.0598575 2.454914,0.26185747 0.184,0.1 0.286393,0.2135184 0.384393,0.4725184 0.097,0.26 0.160304,0.6736444 0.160304,1.2656444 V 13.000007 c 0,0.592 -0.0633,1.005644 -0.160304,1.265644 -0.098,0.26 -0.201393,0.371518 -0.384393,0.472518 -0.366,0.202 -1.196914,0.246858 -2.454914,0.261858 H 4.9998266 c -1.259,-0.015 -2.0899136,-0.05986 -2.4549136,-0.261858 -0.184,-0.1 -0.2872326,-0.213518 -0.3852326,-0.472518 -0.097,-0.26 -0.1594645,-0.673644 -0.1594645,-1.265644 V 2.9999054 c 0,-0.592 0.062464,-1.0056444 0.1594645,-1.2656444 0.098,-0.26 0.2029111,-0.3715184 0.3869111,-0.4725184 0.366,-0.202 1.1932351,-0.2468575 2.4532351,-0.26185747 z" />
  </g>
</svg>
