<?xml version="1.0" encoding="UTF-8" standalone="no"?>
<svg
   width="45.402996"
   height="48.402996"
   version="1.1"
   viewBox="0 0 45.402996 48.402996"
   id="svg139"
   xmlns:xlink="http://www.w3.org/1999/xlink"
   xmlns="http://www.w3.org/2000/svg"
   xmlns:svg="http://www.w3.org/2000/svg"
   xmlns:rdf="http://www.w3.org/1999/02/22-rdf-syntax-ns#"
   xmlns:cc="http://creativecommons.org/ns#"
   xmlns:dc="http://purl.org/dc/elements/1.1/">
  <metadata
     id="metadata2">
    <rdf:RDF>
      <cc:Work
         rdf:about="">
        <dc:format>image/svg+xml</dc:format>
        <dc:type
           rdf:resource="http://purl.org/dc/dcmitype/StillImage" />
        <dc:title />
      </cc:Work>
    </rdf:RDF>
  </metadata>
  <defs
     id="defs73">
    <linearGradient
       id="linearGradient1">
      <stop
         style="stop-color:#ff3dfb;stop-opacity:0;"
         offset="0"
         id="stop2" />
      <stop
         style="stop-color:#ff3dfb;stop-opacity:1;"
         offset="1"
         id="stop1" />
    </linearGradient>
    <style
       type="text/css"
       id="style34" />
    <style
       type="text/css"
       id="style36" />
    <style
       type="text/css"
       id="style38" />
    <style
       type="text/css"
       id="style40" />
    <style
       type="text/css"
       id="style42" />
    <style
       type="text/css"
       id="style44" />
    <style
       type="text/css"
       id="style46" />
    <style
       type="text/css"
       id="style48" />
    <style
       type="text/css"
       id="style50" />
    <style
       type="text/css"
       id="style52" />
    <style
       type="text/css"
       id="style54" />
    <style
       type="text/css"
       id="style61" />
    <style
       type="text/css"
       id="style63" />
    <style
       type="text/css"
       id="style34-0" />
    <style
       type="text/css"
       id="style36-6" />
    <style
       type="text/css"
       id="style38-2" />
    <style
       type="text/css"
       id="style40-6" />
    <style
       type="text/css"
       id="style42-1" />
    <style
       type="text/css"
       id="style44-8" />
    <style
       type="text/css"
       id="style46-7" />
    <style
       type="text/css"
       id="style48-9" />
    <style
       type="text/css"
       id="style50-2" />
    <style
       type="text/css"
       id="style52-0" />
    <style
       type="text/css"
       id="style54-2" />
    <style
       type="text/css"
       id="style56" />
    <style
       type="text/css"
       id="style58" />
    <style
       type="text/css"
       id="style68" />
    <style
       type="text/css"
       id="style70" />
    <style
       type="text/css"
       id="style72" />
    <style
       type="text/css"
       id="style74" />
    <style
       type="text/css"
       id="style76" />
    <style
       type="text/css"
       id="style78" />
    <style
       type="text/css"
       id="style80" />
    <style
       type="text/css"
       id="style34-61" />
    <style
       type="text/css"
       id="style36-8" />
    <style
       type="text/css"
       id="style38-7" />
    <style
       type="text/css"
       id="style40-9" />
    <style
       type="text/css"
       id="style42-2" />
    <style
       type="text/css"
       id="style44-0" />
    <style
       type="text/css"
       id="style46-2" />
    <style
       type="text/css"
       id="style48-3" />
    <style
       type="text/css"
       id="style50-7" />
    <style
       type="text/css"
       id="style52-5" />
    <style
       type="text/css"
       id="style54-9" />
    <style
       type="text/css"
       id="style56-2" />
    <style
       type="text/css"
       id="style58-2" />
    <style
       type="text/css"
       id="style68-1" />
    <style
       type="text/css"
       id="style70-2" />
    <style
       type="text/css"
       id="style72-9" />
    <style
       type="text/css"
       id="style74-3" />
    <style
       type="text/css"
       id="style76-1" />
    <style
       type="text/css"
       id="style78-9" />
    <style
       type="text/css"
       id="style80-4" />
    <style
       type="text/css"
       id="style34-6" />
    <style
       type="text/css"
       id="style36-0" />
    <style
       type="text/css"
       id="style38-6" />
    <style
       type="text/css"
       id="style40-2" />
    <style
       type="text/css"
       id="style42-6" />
    <style
       type="text/css"
       id="style44-1" />
    <style
       type="text/css"
       id="style46-8" />
    <style
       type="text/css"
       id="style48-7" />
    <style
       type="text/css"
       id="style50-9" />
    <style
       type="text/css"
       id="style52-2" />
    <style
       type="text/css"
       id="style54-0" />
    <style
       type="text/css"
       id="style923" />
    <style
       type="text/css"
       id="style34-1" />
    <style
       type="text/css"
       id="style36-87" />
    <style
       type="text/css"
       id="style38-9" />
    <style
       type="text/css"
       id="style40-20" />
    <style
       type="text/css"
       id="style42-23" />
    <style
       type="text/css"
       id="style44-7" />
    <style
       type="text/css"
       id="style46-5" />
    <style
       type="text/css"
       id="style48-92" />
    <style
       type="text/css"
       id="style50-28" />
    <style
       type="text/css"
       id="style52-9" />
    <style
       type="text/css"
       id="style54-7" />
    <style
       type="text/css"
       id="style923-3" />
    <style
       type="text/css"
       id="style34-62" />
    <style
       type="text/css"
       id="style36-61" />
    <style
       type="text/css"
       id="style38-8" />
    <style
       type="text/css"
       id="style40-7" />
    <style
       type="text/css"
       id="style42-9" />
    <style
       type="text/css"
       id="style44-2" />
    <style
       type="text/css"
       id="style46-0" />
    <style
       type="text/css"
       id="style48-2" />
    <style
       type="text/css"
       id="style50-3" />
    <style
       type="text/css"
       id="style52-7" />
    <style
       type="text/css"
       id="style54-5" />
    <style
       type="text/css"
       id="style56-4" />
    <style
       type="text/css"
       id="style58-5" />
    <style
       type="text/css"
       id="style68-2" />
    <style
       type="text/css"
       id="style70-0" />
    <style
       type="text/css"
       id="style72-6" />
    <style
       type="text/css"
       id="style74-1" />
    <style
       type="text/css"
       id="style76-5" />
    <style
       type="text/css"
       id="style78-5" />
    <style
       type="text/css"
       id="style80-47" />
    <style
       type="text/css"
       id="style34-6-3" />
    <style
       type="text/css"
       id="style36-0-7" />
    <style
       type="text/css"
       id="style38-6-4" />
    <style
       type="text/css"
       id="style40-2-5" />
    <style
       type="text/css"
       id="style42-6-2" />
    <style
       type="text/css"
       id="style44-1-5" />
    <style
       type="text/css"
       id="style46-8-4" />
    <style
       type="text/css"
       id="style48-7-7" />
    <style
       type="text/css"
       id="style50-9-4" />
    <style
       type="text/css"
       id="style52-2-4" />
    <style
       type="text/css"
       id="style54-0-3" />
    <style
       type="text/css"
       id="style923-9" />
    <style
       type="text/css"
       id="style34-0-8" />
    <style
       type="text/css"
       id="style36-6-8" />
    <style
       type="text/css"
       id="style38-2-4" />
    <style
       type="text/css"
       id="style40-6-3" />
    <style
       type="text/css"
       id="style42-1-1" />
    <style
       type="text/css"
       id="style44-8-4" />
    <style
       type="text/css"
       id="style46-7-9" />
    <style
       type="text/css"
       id="style48-9-2" />
    <style
       type="text/css"
       id="style50-2-0" />
    <style
       type="text/css"
       id="style52-0-6" />
    <style
       type="text/css"
       id="style54-2-8" />
    <style
       type="text/css"
       id="style923-2" />
    <style
       type="text/css"
       id="style943" />
    <style
       type="text/css"
       id="style872" />
    <style
       id="style4"
       type="text/css" />
    <style
       id="style6"
       type="text/css" />
    <style
       id="style8"
       type="text/css" />
    <style
       type="text/css"
       id="style872-0" />
    <style
       type="text/css"
       id="style874" />
    <style
       type="text/css"
       id="style876" />
    <style
       type="text/css"
       id="style4-3" />
    <style
       type="text/css"
       id="style6-6" />
    <style
       type="text/css"
       id="style913" />
    <linearGradient
       xlink:href="#linearGradient1"
       id="linearGradient2"
       x1="31.884476"
       y1="65"
       x2="31.884476"
       y2="25"
       gradientUnits="userSpaceOnUse" />
    <filter
       style="color-interpolation-filters:sRGB"
       id="filter2"
       x="-0.027941861"
       y="-0.026119566"
       width="1.0558837"
       height="1.0522391">
      <feGaussianBlur
         stdDeviation="0.500625"
         id="feGaussianBlur3" />
    </filter>
  </defs>
  <g
     id="g1431"
     transform="translate(-9.2985,-7.7985)">
    <g
       id="g1135"
       style="fill:#039bfc;fill-opacity:1">
      <path
         id="path1127"
         style="display:inline;opacity:0.6;fill:#ff3dfb;fill-opacity:1;stroke:none;stroke-width:1.0198;stroke-linecap:round;paint-order:stroke fill markers;filter:url(#filter2)"
         d="m 20.5,9 c -1.108,0 -2,0.892 -2,2 v 8 h -2 c -3.324,0 -6,2.676 -6,6 v 14 c 0,3.324 2.676,6 6,6 h 1 V 44 H 17.039062 16.5 c -2.77,0 -5,-2.23 -5,-5 V 38.460938 25.539062 25 c 0,-2.77 2.23,-5 5,-5 H 17.039062 46.960938 47.5 c 2.77,0 5,2.23 5,5 V 25.539062 38.460938 39 c 0,2.77 -2.23,5 -5,5 H 46.960938 46.5 v 1 h 1 c 3.324,0 6,-2.676 6,-6 V 25 c 0,-3.324 -2.676,-6 -6,-6 h -2 v -8 c 0,-1.108 -0.892,-2 -2,-2 z m 0,1 h 23 c 0.554,0 1,0.446 1,1 v 8 h -25 v -8 c 0,-0.554 0.446,-1 1,-1 z M 18,26 c -0.277,0 -0.5,0.223 -0.5,0.5 0,0.277 0.223,0.5 0.5,0.5 h 10 c 0.277,0 0.5,-0.223 0.5,-0.5 C 28.5,26.223 28.277,26 28,26 Z m 3.5,6 c -1.108,0 -2,0.892 -2,2 v 19 c 0,1.108 0.892,2 2,2 h 21 c 1.108,0 2,-0.892 2,-2 V 34 c 0,-1.108 -0.892,-2 -2,-2 z m 0,1 h 21 c 0.554,0 1,0.446 1,1 v 19 c 0,0.554 -0.446,1 -1,1 h -21 c -0.554,0 -1,-0.446 -1,-1 V 34 c 0,-0.554 0.446,-1 1,-1 z" />
      <path
         id="path1"
         style="opacity:1;fill:url(#linearGradient2);fill-opacity:1;stroke:none;stroke-width:1.0198;stroke-linecap:round;paint-order:stroke fill markers"
         d="m 20.5,9 c -1.108,0 -2,0.892 -2,2 v 8 h -2 c -3.324,0 -6,2.676 -6,6 v 14 c 0,3.324 2.676,6 6,6 h 1 V 44 H 17.039062 16.5 c -2.77,0 -5,-2.23 -5,-5 V 38.460938 25.539062 25 c 0,-2.77 2.23,-5 5,-5 H 17.039062 46.960938 47.5 c 2.77,0 5,2.23 5,5 V 25.539062 38.460938 39 c 0,2.77 -2.23,5 -5,5 H 46.960938 46.5 v 1 h 1 c 3.324,0 6,-2.676 6,-6 V 25 c 0,-3.324 -2.676,-6 -6,-6 h -2 v -8 c 0,-1.108 -0.892,-2 -2,-2 z m 0,1 h 23 c 0.554,0 1,0.446 1,1 v 8 h -25 v -8 c 0,-0.554 0.446,-1 1,-1 z M 18,26 c -0.277,0 -0.5,0.223 -0.5,0.5 0,0.277 0.223,0.5 0.5,0.5 h 10 c 0.277,0 0.5,-0.223 0.5,-0.5 C 28.5,26.223 28.277,26 28,26 Z m 3.5,6 c -1.108,0 -2,0.892 -2,2 v 19 c 0,1.108 0.892,2 2,2 h 21 c 1.108,0 2,-0.892 2,-2 V 34 c 0,-1.108 -0.892,-2 -2,-2 z m 0,1 h 21 c 0.554,0 1,0.446 1,1 v 19 c 0,0.554 -0.446,1 -1,1 h -21 c -0.554,0 -1,-0.446 -1,-1 V 34 c 0,-0.554 0.446,-1 1,-1 z" />
    </g>
  </g>
</svg>
