<?xml version="1.0" encoding="UTF-8" standalone="no"?>
<svg
   width="48.484001"
   height="48.484001"
   version="1.1"
   viewBox="0 0 12.827806 12.827806"
   id="svg17"
   xmlns:xlink="http://www.w3.org/1999/xlink"
   xmlns="http://www.w3.org/2000/svg"
   xmlns:svg="http://www.w3.org/2000/svg"
   xmlns:rdf="http://www.w3.org/1999/02/22-rdf-syntax-ns#"
   xmlns:cc="http://creativecommons.org/ns#"
   xmlns:dc="http://purl.org/dc/elements/1.1/">
  <metadata
     id="metadata21">
    <rdf:RDF>
      <cc:Work
         rdf:about="">
        <dc:format>image/svg+xml</dc:format>
        <dc:type
           rdf:resource="http://purl.org/dc/dcmitype/StillImage" />
        <dc:title />
      </cc:Work>
    </rdf:RDF>
  </metadata>
  <defs
     id="defs7">
    <linearGradient
       id="linearGradient1">
      <stop
         style="stop-color:#ff3dfb;stop-opacity:0;"
         offset="0"
         id="stop3" />
      <stop
         style="stop-color:#ff3dfb;stop-opacity:1;"
         offset="1"
         id="stop1" />
    </linearGradient>
    <style
       id="style4"
       type="text/css" />
    <style
       id="style6"
       type="text/css" />
    <style
       id="style8"
       type="text/css" />
    <style
       type="text/css"
       id="style1078" />
    <style
       type="text/css"
       id="style1080" />
    <style
       id="style14"
       type="text/css" />
    <style
       id="style16"
       type="text/css" />
    <linearGradient
       xlink:href="#linearGradient1"
       id="linearGradient3"
       x1="34.016418"
       y1="64.253235"
       x2="34.016418"
       y2="26.457214"
       gradientUnits="userSpaceOnUse" />
    <filter
       style="color-interpolation-filters:sRGB"
       id="filter3"
       x="-0.026999999"
       y="-0.026999999"
       width="1.054"
       height="1.054">
      <feGaussianBlur
         stdDeviation="0.51750001"
         id="feGaussianBlur3" />
    </filter>
  </defs>
  <g
     id="g1347"
     transform="translate(-2.0525971,-2.0525971)">
    <path
       id="path1"
       style="display:inline;opacity:0.6;fill:#ff3dfb;fill-opacity:1;stroke:none;stroke-width:1.12195;stroke-linecap:round;paint-order:stroke fill markers;filter:url(#filter3)"
       d="M 9.0000002,9.0000002 V 21 44.000001 c 0,6.094 4.9059998,11 10.9999998,11 h 23.000001 12 v -12 V 20 c 0,-6.094 -4.906,-10.9999998 -11,-10.9999998 H 21 Z M 10,10 h 11 23.000001 c 5.54,0 10,4.46 10,10 v 23.000001 11 h -11 H 20 c -5.54,0 -10,-4.46 -10,-10 V 21 Z m 5.523438,5.5 c -0.159985,0.01118 -0.311875,0.10007 -0.398438,0.25 -0.138499,0.239889 -0.0563,0.543141 0.183594,0.681641 L 25.81836,22.5 15.308594,28.56836 c -0.239889,0.1385 -0.322093,0.441752 -0.183594,0.681641 0.1385,0.239888 0.443705,0.322093 0.683594,0.183593 l 11.257813,-6.5 c 0.01,-0.0058 0.0179,-0.0132 0.02734,-0.01953 0.01285,-0.0086 0.02502,-0.01754 0.03711,-0.02734 0.0152,-0.01235 0.02955,-0.02527 0.04297,-0.03906 0.0084,-0.0086 0.01757,-0.0161 0.02539,-0.02539 0.01891,-0.02244 0.03629,-0.04722 0.05078,-0.07227 0.0015,-0.0026 0.0025,-0.0052 0.0039,-0.0078 0.02697,-0.04853 0.04505,-0.09993 0.05469,-0.154297 0.0026,-0.01436 0.0045,-0.02856 0.0059,-0.04297 0.0013,-0.015 0.002,-0.0298 0.002,-0.04492 1.8e-5,-0.01512 -6.06e-4,-0.02992 -0.002,-0.04492 -0.0013,-0.01441 -0.0032,-0.02861 -0.0059,-0.04297 -0.01007,-0.05681 -0.02962,-0.111782 -0.05859,-0.16211 -0.0012,-0.0021 -0.0027,-0.0038 -0.0039,-0.0059 -0.01378,-0.02317 -0.02927,-0.04551 -0.04687,-0.06641 -0.0078,-0.0093 -0.01701,-0.01679 -0.02539,-0.02539 -0.01342,-0.01379 -0.02777,-0.02671 -0.04297,-0.03906 -0.01209,-0.0098 -0.02426,-0.01878 -0.03711,-0.02734 -0.0094,-0.0063 -0.01735,-0.01376 -0.02734,-0.01953 l -11.257813,-6.5 C 15.718636,15.514469 15.619429,15.49329 15.523438,15.5 Z m 11.976563,17.500001 c -0.277001,0 -0.5,0.223 -0.5,0.5 0,0.276999 0.223,0.5 0.5,0.5 h 11 c 0.277003,0 0.5,-0.223001 0.5,-0.5 0,-0.277001 -0.222993,-0.5 -0.5,-0.5 z"
       transform="scale(0.26457812)" />
    <path
       id="path1337"
       style="fill:url(#linearGradient3);fill-opacity:1;stroke:none;stroke-width:1.12195;stroke-linecap:round;paint-order:stroke fill markers"
       d="M 9.0000002,9.0000002 V 21 44.000001 c 0,6.094 4.9059998,11 10.9999998,11 h 23.000001 12 v -12 V 20 c 0,-6.094 -4.906,-10.9999998 -11,-10.9999998 H 21 Z M 10,10 h 11 23.000001 c 5.54,0 10,4.46 10,10 v 23.000001 11 h -11 H 20 c -5.54,0 -10,-4.46 -10,-10 V 21 Z m 5.523438,5.5 c -0.159985,0.01118 -0.311875,0.10007 -0.398438,0.25 -0.138499,0.239889 -0.0563,0.543141 0.183594,0.681641 L 25.81836,22.5 15.308594,28.56836 c -0.239889,0.1385 -0.322093,0.441752 -0.183594,0.681641 0.1385,0.239888 0.443705,0.322093 0.683594,0.183593 l 11.257813,-6.5 c 0.01,-0.0058 0.0179,-0.0132 0.02734,-0.01953 0.01285,-0.0086 0.02502,-0.01754 0.03711,-0.02734 0.0152,-0.01235 0.02955,-0.02527 0.04297,-0.03906 0.0084,-0.0086 0.01757,-0.0161 0.02539,-0.02539 0.01891,-0.02244 0.03629,-0.04722 0.05078,-0.07227 0.0015,-0.0026 0.0025,-0.0052 0.0039,-0.0078 0.02697,-0.04853 0.04505,-0.09993 0.05469,-0.154297 0.0026,-0.01436 0.0045,-0.02856 0.0059,-0.04297 0.0013,-0.015 0.002,-0.0298 0.002,-0.04492 1.8e-5,-0.01512 -6.06e-4,-0.02992 -0.002,-0.04492 -0.0013,-0.01441 -0.0032,-0.02861 -0.0059,-0.04297 -0.01007,-0.05681 -0.02962,-0.111782 -0.05859,-0.16211 -0.0012,-0.0021 -0.0027,-0.0038 -0.0039,-0.0059 -0.01378,-0.02317 -0.02927,-0.04551 -0.04687,-0.06641 -0.0078,-0.0093 -0.01701,-0.01679 -0.02539,-0.02539 -0.01342,-0.01379 -0.02777,-0.02671 -0.04297,-0.03906 -0.01209,-0.0098 -0.02426,-0.01878 -0.03711,-0.02734 -0.0094,-0.0063 -0.01735,-0.01376 -0.02734,-0.01953 l -11.257813,-6.5 C 15.718636,15.514469 15.619429,15.49329 15.523438,15.5 Z m 11.976563,17.500001 c -0.277001,0 -0.5,0.223 -0.5,0.5 0,0.276999 0.223,0.5 0.5,0.5 h 11 c 0.277003,0 0.5,-0.223001 0.5,-0.5 0,-0.277001 -0.222993,-0.5 -0.5,-0.5 z"
       transform="scale(0.26457812)" />
    <g
       id="g1345" />
  </g>
</svg>
