<?xml version="1.0" encoding="UTF-8" standalone="no"?>
<svg
   width="46.880516"
   height="38.499657"
   version="1.1"
   viewBox="0 0 12.403559 10.186167"
   id="svg17"
   xmlns:xlink="http://www.w3.org/1999/xlink"
   xmlns="http://www.w3.org/2000/svg"
   xmlns:svg="http://www.w3.org/2000/svg"
   xmlns:rdf="http://www.w3.org/1999/02/22-rdf-syntax-ns#"
   xmlns:cc="http://creativecommons.org/ns#"
   xmlns:dc="http://purl.org/dc/elements/1.1/">
  <metadata
     id="metadata21">
    <rdf:RDF>
      <cc:Work
         rdf:about="">
        <dc:format>image/svg+xml</dc:format>
        <dc:type
           rdf:resource="http://purl.org/dc/dcmitype/StillImage" />
        <dc:title />
      </cc:Work>
    </rdf:RDF>
  </metadata>
  <defs
     id="defs7">
    <linearGradient
       id="linearGradient2">
      <stop
         style="stop-color:#00abff;stop-opacity:0;"
         offset="0"
         id="stop4" />
      <stop
         style="stop-color:#00abff;stop-opacity:1;"
         offset="1"
         id="stop2" />
    </linearGradient>
    <style
       id="style4"
       type="text/css" />
    <style
       id="style6"
       type="text/css" />
    <style
       id="style8"
       type="text/css" />
    <style
       type="text/css"
       id="style1078" />
    <style
       type="text/css"
       id="style1080" />
    <style
       id="style14"
       type="text/css" />
    <style
       id="style16"
       type="text/css" />
    <linearGradient
       xlink:href="#linearGradient2"
       id="linearGradient4"
       x1="6.3428669"
       y1="12.58714"
       x2="6.3428669"
       y2="6.2771378"
       gradientUnits="userSpaceOnUse" />
    <filter
       style="color-interpolation-filters:sRGB"
       id="filter4"
       x="-0.024468493"
       y="-0.030115775"
       width="1.048937"
       height="1.0602315">
      <feGaussianBlur
         stdDeviation="0.12055713"
         id="feGaussianBlur4" />
    </filter>
  </defs>
  <g
     id="g4"
     transform="translate(-0.18297618,-1.6453904)">
    <path
       id="path1"
       style="display:inline;opacity:0.6;fill:#00abff;fill-opacity:1;stroke-width:0.739061;filter:url(#filter4)"
       d="m 1.9502301,1.9347275 c -0.8188792,0 -1.47791681,0.6590375 -1.47791681,1.4779169 v 6.6516596 c 0,0.818879 0.65903761,1.477917 1.47791681,1.477917 h 8.8685349 c 0.81888,0 1.478433,-0.659038 1.478433,-1.477917 V 3.4126444 c 0,-0.8188794 -0.659553,-1.4779169 -1.478433,-1.4779169 z m 0,0.7389584 h 8.8685349 c 0.409439,0 0.739475,0.3295188 0.739475,0.7389585 v 6.6516596 c 0,0.409439 -0.330036,0.738958 -0.739475,0.738958 H 1.9502301 c -0.4094394,0 -0.7389584,-0.329519 -0.7389584,-0.738958 V 3.4126444 c 0,-0.4094397 0.329519,-0.7389585 0.7389584,-0.7389585 z M 3.2204118,3.4126444 2.6891886,3.9206137 4.6290836,5.9995156 2.7124425,8.0779008 3.2204118,8.5858701 5.4145499,6.2532419 5.645539,5.9995156 5.4145499,5.7452726 Z M 5.645539,8.5858701 V 9.3253453 H 8.6018895 V 8.5858701 Z" />
    <path
       id="path2"
       style="fill:url(#linearGradient4);fill-opacity:1;stroke-width:0.739061"
       d="m 1.9502301,1.9347275 c -0.8188792,0 -1.47791681,0.6590375 -1.47791681,1.4779169 v 6.6516596 c 0,0.818879 0.65903761,1.477917 1.47791681,1.477917 h 8.8685349 c 0.81888,0 1.478433,-0.659038 1.478433,-1.477917 V 3.4126444 c 0,-0.8188794 -0.659553,-1.4779169 -1.478433,-1.4779169 z m 0,0.7389584 h 8.8685349 c 0.409439,0 0.739475,0.3295188 0.739475,0.7389585 v 6.6516596 c 0,0.409439 -0.330036,0.738958 -0.739475,0.738958 H 1.9502301 c -0.4094394,0 -0.7389584,-0.329519 -0.7389584,-0.738958 V 3.4126444 c 0,-0.4094397 0.329519,-0.7389585 0.7389584,-0.7389585 z M 3.2204118,3.4126444 2.6891886,3.9206137 4.6290836,5.9995156 2.7124425,8.0779008 3.2204118,8.5858701 5.4145499,6.2532419 5.645539,5.9995156 5.4145499,5.7452726 Z M 5.645539,8.5858701 V 9.3253453 H 8.6018895 V 8.5858701 Z" />
  </g>
</svg>
