<?xml version="1.0" encoding="UTF-8" standalone="no"?>
<svg
   width="49.154568"
   height="42.344444"
   version="1.1"
   viewBox="0 0 13.005223 11.203414"
   id="svg10"
   xmlns:xlink="http://www.w3.org/1999/xlink"
   xmlns="http://www.w3.org/2000/svg"
   xmlns:svg="http://www.w3.org/2000/svg"
   xmlns:rdf="http://www.w3.org/1999/02/22-rdf-syntax-ns#"
   xmlns:cc="http://creativecommons.org/ns#"
   xmlns:dc="http://purl.org/dc/elements/1.1/">
  <metadata
     id="metadata1">
    <rdf:RDF>
      <cc:Work
         rdf:about="">
        <dc:format>image/svg+xml</dc:format>
        <dc:type
           rdf:resource="http://purl.org/dc/dcmitype/StillImage" />
      </cc:Work>
    </rdf:RDF>
  </metadata>
  <defs
     id="defs5">
    <linearGradient
       id="linearGradient11">
      <stop
         style="stop-color:#ff3dfb;stop-opacity:0;"
         offset="0"
         id="stop12" />
      <stop
         style="stop-color:#ff3dfb;stop-opacity:1;"
         offset="1"
         id="stop11" />
    </linearGradient>
    <linearGradient
       xlink:href="#linearGradient11"
       id="linearGradient12"
       x1="-11.180527"
       y1="16.933001"
       x2="-11.180527"
       y2="6.8100109"
       gradientUnits="userSpaceOnUse" />
    <filter
       style="color-interpolation-filters:sRGB"
       id="filter12"
       x="-0.025035989"
       y="-0.02929839"
       width="1.050072"
       height="1.0585968">
      <feGaussianBlur
         stdDeviation="0.12919695"
         id="feGaussianBlur12" />
    </filter>
  </defs>
  <g
     transform="translate(17.591388,-3.393871)"
     id="g10">
    <path
       id="path9"
       style="display:inline;opacity:0.6;fill:#ff3dfb;fill-opacity:1;filter:url(#filter12)"
       d="m -6.1602157,3.7040937 c -0.036023,-6.514e-4 -0.056326,0.00103 -0.056326,0.00103 h -7.4495283 -0.132806 -2.280952 c -0.54539,0 -0.866119,0.3082859 -1.02369,0.6035688 -0.15757,0.295283 -0.175697,0.5875495 -0.175697,0.5875495 l -0.0021,0.00413 v 7.476399 c 0,0.559928 0.310435,0.883227 0.607186,1.037125 0.296751,0.153897 0.590134,0.162261 0.590134,0.162261 h 0.0021 6.4919822 c 0.7293087,0 1.1408073,0.192373 1.3730158,0.373097 0.2322086,0.180724 0.2811143,0.337957 0.2811143,0.337957 l 0.254243,-0.0863 c 0,0 -0.089011,-0.243004 -0.3710295,-0.462495 -0.2820189,-0.219491 -0.7607622,-0.427873 -1.5373436,-0.427873 h -6.4842312 c 0,0 -0.241665,-0.01 -0.478514,-0.132805 -0.23685,-0.122832 -0.460945,-0.333416 -0.460945,-0.800969 V 4.9138152 c 0,0 0.01752,-0.2401973 0.144691,-0.4785143 0.127172,-0.2383171 0.339043,-0.4624951 0.789084,-0.462495 h 0.03307 v 6.5328061 l 1.189568,-1.1911184 1.191118,1.1895684 V 3.9728059 h 7.4629639 l 0.00413,-0.00207 c 0,0 0.2592086,-0.014831 0.5172709,0.1229875 0.2580622,0.1378188 0.5193379,0.4102933 0.5193379,1.0779491 v 7.2051035 c 0,0 -0.00215,0.22104 -0.1012838,0.435623 -0.09913,0.214583 -0.2679907,0.41237 -0.6779815,0.41237 h -1.0660638 v 0.267162 h 1.0660638 c 0.5054291,0 0.7925646,-0.291325 0.9203392,-0.567913 0.1277747,-0.276587 0.1250545,-0.548793 0.1250545,-0.548793 V 5.1716755 c 0,-0.7419962 -0.3293241,-1.1357373 -0.6604118,-1.3125555 -0.2483127,-0.1326161 -0.4954925,-0.1530719 -0.603563,-0.1550263 z m -8.3869203,0.2687122 h 0.615455 V 9.8653535 L -14.857188,8.93933 -15.783211,9.8674205 V 3.9826242 c 0.359491,-0.00102 0.782492,-0.00607 1.236075,-0.00982 z m 4.8905618,5.227485 -1.1068878,2.8984741 h 0.41392 l 0.264062,-0.743609 h 1.3063543 l 0.2640614,0.743609 h 0.407719 L -9.2121657,9.2002909 Z m 0.2211707,0.3865321 0.5338071,1.442261 h -1.0655471 z m 2.4985063,0.2852483 c -0.1164844,0 -0.2361884,0.012871 -0.3591441,0.038757 -0.1229557,0.024591 -0.2496097,0.062176 -0.380331,0.1126517 v 0.330206 c 0.1087187,-0.05954 0.2217288,-0.104589 0.3395074,-0.134356 0.1177786,-0.02977 0.2390282,-0.04444 0.3632782,-0.04444 0.1954349,0 0.3468024,0.04531 0.4542269,0.135907 0.1087187,0.0893 0.1632943,0.215959 0.1632943,0.380331 v 0.03514 H -6.857317 c -0.324862,0 -0.5694185,0.0623 -0.7337909,0.186548 -0.1630781,0.12425 -0.2444247,0.30831 -0.2444247,0.552927 0,0.209672 0.065128,0.377257 0.1958498,0.502802 0.1320156,0.12425 0.3096422,0.186548 0.5322568,0.186548 0.1760208,0 0.3248142,-0.03089 0.4464756,-0.09302 0.1216614,-0.06342 0.2233458,-0.161501 0.3048849,-0.293516 v 0.330206 h 0.3570771 v -1.240727 c 0,-0.331333 -0.077744,-0.578464 -0.2330561,-0.741542 C -6.387357,9.9534179 -6.6223894,9.8720713 -6.9368972,9.8720713 Z m 0.2253049,1.1337587 h 0.3555268 v 0.07958 c 0,0.232969 -0.060497,0.42012 -0.1808639,0.561195 -0.1190729,0.139781 -0.2773904,0.209285 -0.4754139,0.209285 -0.143664,0 -0.2574469,-0.03681 -0.3415745,-0.110585 -0.082833,-0.07507 -0.1245377,-0.17598 -0.1245377,-0.302818 0,-0.159197 0.055604,-0.271434 0.1669116,-0.33744 0.1113073,-0.06601 0.3113292,-0.09922 0.5999516,-0.09922 z" />
    <path
       id="path11"
       style="fill:url(#linearGradient12);fill-opacity:1"
       d="m -6.1602157,3.7040937 c -0.036023,-6.514e-4 -0.056326,0.00103 -0.056326,0.00103 h -7.4495283 -0.132806 -2.280952 c -0.54539,0 -0.866119,0.3082859 -1.02369,0.6035688 -0.15757,0.295283 -0.175697,0.5875495 -0.175697,0.5875495 l -0.0021,0.00413 v 7.476399 c 0,0.559928 0.310435,0.883227 0.607186,1.037125 0.296751,0.153897 0.590134,0.162261 0.590134,0.162261 h 0.0021 6.4919822 c 0.7293087,0 1.1408073,0.192373 1.3730158,0.373097 0.2322086,0.180724 0.2811143,0.337957 0.2811143,0.337957 l 0.254243,-0.0863 c 0,0 -0.089011,-0.243004 -0.3710295,-0.462495 -0.2820189,-0.219491 -0.7607622,-0.427873 -1.5373436,-0.427873 h -6.4842312 c 0,0 -0.241665,-0.01 -0.478514,-0.132805 -0.23685,-0.122832 -0.460945,-0.333416 -0.460945,-0.800969 V 4.9138152 c 0,0 0.01752,-0.2401973 0.144691,-0.4785143 0.127172,-0.2383171 0.339043,-0.4624951 0.789084,-0.462495 h 0.03307 v 6.5328061 l 1.189568,-1.1911184 1.191118,1.1895684 V 3.9728059 h 7.4629639 l 0.00413,-0.00207 c 0,0 0.2592086,-0.014831 0.5172709,0.1229875 0.2580622,0.1378188 0.5193379,0.4102933 0.5193379,1.0779491 v 7.2051035 c 0,0 -0.00215,0.22104 -0.1012838,0.435623 -0.09913,0.214583 -0.2679907,0.41237 -0.6779815,0.41237 h -1.0660638 v 0.267162 h 1.0660638 c 0.5054291,0 0.7925646,-0.291325 0.9203392,-0.567913 0.1277747,-0.276587 0.1250545,-0.548793 0.1250545,-0.548793 V 5.1716755 c 0,-0.7419962 -0.3293241,-1.1357373 -0.6604118,-1.3125555 -0.2483127,-0.1326161 -0.4954925,-0.1530719 -0.603563,-0.1550263 z m -8.3869203,0.2687122 h 0.615455 V 9.8653535 L -14.857188,8.93933 -15.783211,9.8674205 V 3.9826242 c 0.359491,-0.00102 0.782492,-0.00607 1.236075,-0.00982 z m 4.8905618,5.227485 -1.1068878,2.8984741 h 0.41392 l 0.264062,-0.743609 h 1.3063543 l 0.2640614,0.743609 h 0.407719 L -9.2121657,9.2002909 Z m 0.2211707,0.3865321 0.5338071,1.442261 h -1.0655471 z m 2.4985063,0.2852483 c -0.1164844,0 -0.2361884,0.012871 -0.3591441,0.038757 -0.1229557,0.024591 -0.2496097,0.062176 -0.380331,0.1126517 v 0.330206 c 0.1087187,-0.05954 0.2217288,-0.104589 0.3395074,-0.134356 0.1177786,-0.02977 0.2390282,-0.04444 0.3632782,-0.04444 0.1954349,0 0.3468024,0.04531 0.4542269,0.135907 0.1087187,0.0893 0.1632943,0.215959 0.1632943,0.380331 v 0.03514 H -6.857317 c -0.324862,0 -0.5694185,0.0623 -0.7337909,0.186548 -0.1630781,0.12425 -0.2444247,0.30831 -0.2444247,0.552927 0,0.209672 0.065128,0.377257 0.1958498,0.502802 0.1320156,0.12425 0.3096422,0.186548 0.5322568,0.186548 0.1760208,0 0.3248142,-0.03089 0.4464756,-0.09302 0.1216614,-0.06342 0.2233458,-0.161501 0.3048849,-0.293516 v 0.330206 h 0.3570771 v -1.240727 c 0,-0.331333 -0.077744,-0.578464 -0.2330561,-0.741542 C -6.387357,9.9534179 -6.6223894,9.8720713 -6.9368972,9.8720713 Z m 0.2253049,1.1337587 h 0.3555268 v 0.07958 c 0,0.232969 -0.060497,0.42012 -0.1808639,0.561195 -0.1190729,0.139781 -0.2773904,0.209285 -0.4754139,0.209285 -0.143664,0 -0.2574469,-0.03681 -0.3415745,-0.110585 -0.082833,-0.07507 -0.1245377,-0.17598 -0.1245377,-0.302818 0,-0.159197 0.055604,-0.271434 0.1669116,-0.33744 0.1113073,-0.06601 0.3113292,-0.09922 0.5999516,-0.09922 z" />
  </g>
</svg>
