<?xml version="1.0" encoding="UTF-8" standalone="no"?>
<svg
   width="42.869076"
   height="45.768963"
   version="1.1"
   viewBox="0 0 11.342219 12.109466"
   id="svg33"
   xmlns:xlink="http://www.w3.org/1999/xlink"
   xmlns="http://www.w3.org/2000/svg"
   xmlns:svg="http://www.w3.org/2000/svg"
   xmlns:rdf="http://www.w3.org/1999/02/22-rdf-syntax-ns#"
   xmlns:cc="http://creativecommons.org/ns#"
   xmlns:dc="http://purl.org/dc/elements/1.1/">
  <defs
     id="defs13">
    <linearGradient
       id="linearGradient3">
      <stop
         style="stop-color:#00abff;stop-opacity:0;"
         offset="0"
         id="stop4" />
      <stop
         style="stop-color:#00abff;stop-opacity:1;"
         offset="1"
         id="stop3" />
    </linearGradient>
    <style
       type="text/css"
       id="style841" />
    <linearGradient
       xlink:href="#linearGradient3"
       id="linearGradient4"
       x1="6.5074601"
       y1="12.85059"
       x2="6.5074601"
       y2="4.666966"
       gradientUnits="userSpaceOnUse" />
    <filter
       style="color-interpolation-filters:sRGB"
       id="filter4"
       x="-0.027964284"
       y="-0.026099998"
       width="1.0559286"
       height="1.0522">
      <feGaussianBlur
         stdDeviation="0.12515724"
         id="feGaussianBlur4" />
    </filter>
  </defs>
  <metadata
     id="metadata15">
    <rdf:RDF>
      <cc:Work
         rdf:about="">
        <dc:format>image/svg+xml</dc:format>
        <dc:type
           rdf:resource="http://purl.org/dc/dcmitype/StillImage" />
        <dc:title />
      </cc:Work>
    </rdf:RDF>
  </metadata>
  <g
     id="g4"
     transform="translate(-0.92064703,-0.42743042)">
    <path
       d="M 6.591757,0.72780779 A 0.7672475,0.7672475 0 0 0 5.8291129,1.5717802 3.8270306,3.8270306 0 0 0 2.7555196,5.3312927 V 8.7839066 L 1.2210244,10.318401 v 0.383624 H 11.962489 V 10.318401 L 10.427996,8.7839066 V 5.3312927 A 3.8262634,3.8262634 0 0 0 7.354401,1.5717802 0.7672475,0.7672475 0 0 0 6.591757,0.72780779 Z m 0,1.53449511 A 3.0689901,3.0689901 0 0 1 9.6607471,5.3312927 V 9.107685 L 10.427996,9.9347784 H 2.7555196 L 3.522767,9.107685 V 5.3312927 A 3.0689901,3.0689901 0 0 1 6.591757,2.2623029 Z M 5.2644188,11.469273 A 1.534495,1.534495 0 0 0 6.591757,12.23652 1.534495,1.534495 0 0 0 7.9183279,11.469273 Z"
       fill="#dedede"
       stroke-linecap="round"
       stroke-width="2.30174"
       id="path1"
       style="display:inline;opacity:0.6;fill:#00abff;fill-opacity:1;filter:url(#filter4)" />
    <path
       d="M 6.591757,0.72780779 A 0.7672475,0.7672475 0 0 0 5.8291129,1.5717802 3.8270306,3.8270306 0 0 0 2.7555196,5.3312927 V 8.7839066 L 1.2210244,10.318401 v 0.383624 H 11.962489 V 10.318401 L 10.427996,8.7839066 V 5.3312927 A 3.8262634,3.8262634 0 0 0 7.354401,1.5717802 0.7672475,0.7672475 0 0 0 6.591757,0.72780779 Z m 0,1.53449511 A 3.0689901,3.0689901 0 0 1 9.6607471,5.3312927 V 9.107685 L 10.427996,9.9347784 H 2.7555196 L 3.522767,9.107685 V 5.3312927 A 3.0689901,3.0689901 0 0 1 6.591757,2.2623029 Z M 5.2644188,11.469273 A 1.534495,1.534495 0 0 0 6.591757,12.23652 1.534495,1.534495 0 0 0 7.9183279,11.469273 Z"
       fill="#dedede"
       stroke-linecap="round"
       stroke-width="2.30174"
       id="path2"
       style="fill:url(#linearGradient4);fill-opacity:1" />
  </g>
</svg>
