<?xml version="1.0" encoding="UTF-8" standalone="no"?>
<svg
   width="52.547478"
   height="45.52599"
   version="1.1"
   viewBox="0 0 13.902913 12.045181"
   id="svg29"
   xmlns:xlink="http://www.w3.org/1999/xlink"
   xmlns="http://www.w3.org/2000/svg"
   xmlns:svg="http://www.w3.org/2000/svg"
   xmlns:rdf="http://www.w3.org/1999/02/22-rdf-syntax-ns#"
   xmlns:cc="http://creativecommons.org/ns#"
   xmlns:dc="http://purl.org/dc/elements/1.1/">
  <defs
     id="defs5">
    <linearGradient
       id="linearGradient1">
      <stop
         style="stop-color:#ff3dfb;stop-opacity:0;"
         offset="0"
         id="stop2" />
      <stop
         style="stop-color:#ff3dfb;stop-opacity:1;"
         offset="1"
         id="stop1" />
    </linearGradient>
    <linearGradient
       xlink:href="#linearGradient1"
       id="linearGradient2"
       x1="9"
       y1="17"
       x2="9"
       y2="7.4812951"
       gradientUnits="userSpaceOnUse" />
    <filter
       style="color-interpolation-filters:sRGB"
       id="filter2"
       x="-0.02510553"
       y="-0.029203717"
       width="1.0502111"
       height="1.0584074">
      <feGaussianBlur
         stdDeviation="0.1384801"
         id="feGaussianBlur3" />
    </filter>
  </defs>
  <metadata
     id="metadata7">
    <rdf:RDF>
      <cc:Work
         rdf:about="">
        <dc:format>image/svg+xml</dc:format>
        <dc:type
           rdf:resource="http://purl.org/dc/dcmitype/StillImage" />
        <dc:title />
      </cc:Work>
    </rdf:RDF>
  </metadata>
  <g
     id="g863"
     transform="translate(-1.5155606,-2.8436188)">
    <path
       id="path859"
       style="display:inline;opacity:0.6;fill:#ff3dfb;fill-opacity:1;filter:url(#filter2)"
       d="M 2.4044571,3.175971 1.8479128,3.7325152 V 6.509552 L 2.5134922,5.8419057 H 5.879112 L 6.8397579,4.880743 h 7.5782001 l 0.668163,0.6681631 V 4.6931612 L 14.527509,4.136617 H 5.9550748 V 3.7325152 L 5.3985306,3.175971 Z m 0.1090351,0.2635446 h 2.7754865 l 0.4025515,0.4020348 v 0.5586112 h 8.7264278 l 0.404101,0.4025515 V 4.912265 L 14.527509,4.6171983 H 6.7307228 L 5.7695601,5.5783611 H 2.4044571 L 2.1114575,5.8708439 V 3.8415504 Z M 6.7307228,6.1230199 5.7695601,7.0841826 H 2.4044571 L 1.8479128,7.6427939 v 6.3550421 l 0.5565443,0.558612 H 14.527509 l 0.558612,-0.558612 V 6.6816312 L 14.527509,6.1230199 Z m 0.1090351,0.2656117 h 7.5782001 l 0.404101,0.4025514 v 7.097618 l -0.404101,0.404102 H 2.5134922 L 2.1114575,13.888801 V 7.751829 L 2.5134922,7.3497943 H 5.879112 Z" />
    <path
       id="path1"
       style="fill:url(#linearGradient2);fill-opacity:1"
       d="M 2.4044571,3.175971 1.8479128,3.7325152 V 6.509552 L 2.5134922,5.8419057 H 5.879112 L 6.8397579,4.880743 h 7.5782001 l 0.668163,0.6681631 V 4.6931612 L 14.527509,4.136617 H 5.9550748 V 3.7325152 L 5.3985306,3.175971 Z m 0.1090351,0.2635446 h 2.7754865 l 0.4025515,0.4020348 v 0.5586112 h 8.7264278 l 0.404101,0.4025515 V 4.912265 L 14.527509,4.6171983 H 6.7307228 L 5.7695601,5.5783611 H 2.4044571 L 2.1114575,5.8708439 V 3.8415504 Z M 6.7307228,6.1230199 5.7695601,7.0841826 H 2.4044571 L 1.8479128,7.6427939 v 6.3550421 l 0.5565443,0.558612 H 14.527509 l 0.558612,-0.558612 V 6.6816312 L 14.527509,6.1230199 Z m 0.1090351,0.2656117 h 7.5782001 l 0.404101,0.4025514 v 7.097618 l -0.404101,0.404102 H 2.5134922 L 2.1114575,13.888801 V 7.751829 L 2.5134922,7.3497943 H 5.879112 Z" />
  </g>
</svg>
