<?xml version="1.0" encoding="UTF-8" standalone="no"?>
<svg
   id="svg275"
   viewBox="0 0 12.88967 10.863989"
   version="1.1"
   height="41.061554"
   width="48.717823"
   xmlns:xlink="http://www.w3.org/1999/xlink"
   xmlns="http://www.w3.org/2000/svg"
   xmlns:svg="http://www.w3.org/2000/svg"
   xmlns:rdf="http://www.w3.org/1999/02/22-rdf-syntax-ns#"
   xmlns:cc="http://creativecommons.org/ns#"
   xmlns:dc="http://purl.org/dc/elements/1.1/">
  <metadata
     id="metadata279">
    <rdf:RDF>
      <cc:Work
         rdf:about="">
        <dc:format>image/svg+xml</dc:format>
        <dc:type
           rdf:resource="http://purl.org/dc/dcmitype/StillImage" />
        <dc:title />
      </cc:Work>
    </rdf:RDF>
  </metadata>
  <defs
     id="defs111">
    <linearGradient
       id="linearGradient1">
      <stop
         style="stop-color:#ff3dfb;stop-opacity:0;"
         offset="0"
         id="stop3" />
      <stop
         style="stop-color:#ff3dfb;stop-opacity:1;"
         offset="1"
         id="stop1" />
    </linearGradient>
    <linearGradient
       xlink:href="#linearGradient1"
       id="linearGradient3"
       x1="26.273718"
       y1="16.042732"
       x2="26.273718"
       y2="6.0427327"
       gradientUnits="userSpaceOnUse" />
    <filter
       style="color-interpolation-filters:sRGB"
       id="filter3"
       x="-0.024773286"
       y="-0.029666542"
       width="1.0495466"
       height="1.0593331">
      <feGaussianBlur
         stdDeviation="0.12676882"
         id="feGaussianBlur3" />
    </filter>
  </defs>
  <g
     id="g1672"
     transform="translate(-19.295382,-3.0337481)">
    <path
       id="path1"
       style="display:inline;opacity:0.6;fill:#ff3dfb;fill-opacity:1;stroke-linecap:round;paint-order:stroke fill markers;filter:url(#filter3)"
       d="m 20.28691,3.3379933 c -0.379392,0 -0.687283,0.3099578 -0.687283,0.6893501 v 1.8556641 c 0,0.3793923 0.307891,0.6893501 0.687283,0.6893501 h 10.906614 c 0.379392,0 0.687283,-0.3099581 0.687283,-0.6893501 V 4.0273434 c 0,-0.379392 -0.307891,-0.6893501 -0.687283,-0.6893501 z m 0,0.2656117 h 10.906614 c 0.237392,0 0.423738,0.1863459 0.423738,0.4237384 v 1.8556641 c 0,0.2373926 -0.186346,0.4237384 -0.423738,0.4237384 H 20.28691 c -0.237392,0 -0.423738,-0.1863461 -0.423738,-0.4237384 V 4.0273434 c 0,-0.2373922 0.186346,-0.4237384 0.423738,-0.4237384 z m 9.78319,0.6345741 c -0.3947,-1e-7 -0.716738,0.3220374 -0.716738,0.716738 0,0.3947007 0.322038,0.7167382 0.716738,0.716738 0.394701,2e-7 0.718806,-0.3220373 0.718805,-0.716738 0,-0.3947006 -0.324104,-0.7167381 -0.718805,-0.716738 z M 21.299232,4.4975896 A 0.39686719,0.39686719 0 0 0 20.902365,4.8944568 0.39686719,0.39686719 0 0 0 21.299232,5.291324 0.39686719,0.39686719 0 0 0 21.696099,4.8944568 0.39686719,0.39686719 0 0 0 21.299232,4.4975896 Z m 1.322374,0 A 0.39686719,0.39686719 0 0 0 22.224739,4.8944568 0.39686719,0.39686719 0 0 0 22.621606,5.291324 0.39686719,0.39686719 0 0 0 23.018473,4.8944568 0.39686719,0.39686719 0 0 0 22.621606,4.4975896 Z m 1.32289,0 A 0.39686719,0.39686719 0 0 0 23.547629,4.8944568 0.39686719,0.39686719 0 0 0 23.944496,5.291324 0.39686719,0.39686719 0 0 0 24.341364,4.8944568 0.39686719,0.39686719 0 0 0 23.944496,4.4975896 Z m 6.125604,0.00413 c 0.251713,-1e-7 0.453193,0.2014814 0.453193,0.4531934 1e-6,0.2517121 -0.20148,0.4531935 -0.453193,0.4531934 -0.251712,10e-8 -0.452677,-0.2014813 -0.452677,-0.4531934 1e-6,-0.251712 0.200965,-0.4531935 0.452677,-0.4531934 z m -9.78319,2.3496811 c -0.379392,0 -0.687283,0.3104745 -0.687283,0.6898668 V 9.396419 c 0,0.3793923 0.307891,0.68935 0.687283,0.68935 h 10.906614 c 0.379392,0 0.687283,-0.309958 0.687283,-0.68935 V 7.5412716 c 0,-0.379392 -0.307891,-0.6898668 -0.687283,-0.6898668 z m 0,0.2656116 h 10.906614 c 0.237392,0 0.423738,0.1868627 0.423738,0.4242552 V 9.396419 c 0,0.2373925 -0.186346,0.4237384 -0.423738,0.4237384 H 20.28691 c -0.237392,0 -0.423738,-0.1863461 -0.423738,-0.4237384 V 7.5412716 c 0,-0.2373923 0.186346,-0.4242552 0.423738,-0.4242552 z m 9.78319,0.6309568 c -0.3947,-2e-7 -0.716738,0.3241044 -0.716738,0.7188051 0,0.3947006 0.322038,0.7167381 0.716738,0.716738 0.394701,1e-7 0.718805,-0.3220374 0.718805,-0.716738 1e-6,-0.3947007 -0.324104,-0.7188053 -0.718805,-0.7188051 z m -8.770868,0.1891321 a 0.39686719,0.39686719 0 0 0 -0.396867,0.3968672 0.39686719,0.39686719 0 0 0 0.396867,0.3968671 0.39686719,0.39686719 0 0 0 0.396867,-0.3968671 0.39686719,0.39686719 0 0 0 -0.396867,-0.3968672 z m 1.322374,0 a 0.39686719,0.39686719 0 0 0 -0.396867,0.3968672 0.39686719,0.39686719 0 0 0 0.396867,0.3968671 0.39686719,0.39686719 0 0 0 0.396867,-0.3968671 0.39686719,0.39686719 0 0 0 -0.396867,-0.3968672 z m 1.32289,0 a 0.39686719,0.39686719 0 0 0 -0.396867,0.3968672 0.39686719,0.39686719 0 0 0 0.396867,0.3968671 0.39686719,0.39686719 0 0 0 0.396868,-0.3968671 0.39686719,0.39686719 0 0 0 -0.396868,-0.3968672 z m 6.125604,0.07648 c 0.251713,-1e-7 0.453194,0.2014813 0.453193,0.4531934 0,0.251712 -0.20148,0.4531935 -0.453193,0.4531934 -0.251712,10e-8 -0.452676,-0.2014814 -0.452677,-0.4531934 0,-0.2517121 0.200965,-0.4531935 0.452677,-0.4531934 z m -9.78319,2.3476138 c -0.379392,0 -0.687283,0.309958 -0.687283,0.68935 v 1.855664 c 0,0.379392 0.307891,0.687283 0.687283,0.687283 h 10.906614 c 0.379392,0 0.687283,-0.307891 0.687283,-0.687283 v -1.855664 c 0,-0.379392 -0.307891,-0.68935 -0.687283,-0.68935 z m 0,0.263545 h 10.906614 c 0.237392,0 0.423738,0.188413 0.423738,0.425805 v 1.855664 c 0,0.237392 -0.186346,0.423739 -0.423738,0.423739 H 20.28691 c -0.237392,0 -0.423738,-0.186347 -0.423738,-0.423739 v -1.855664 c 0,-0.237392 0.186346,-0.425805 0.423738,-0.425805 z m 9.78319,0.63509 c -0.3947,-10e-7 -0.716738,0.324104 -0.716738,0.718805 -1e-6,0.3947 0.322038,0.716738 0.716738,0.716738 0.394701,0 0.718806,-0.322038 0.718805,-0.716738 0,-0.394701 -0.324104,-0.718806 -0.718805,-0.718805 z m -8.770868,0.116787 a 0.39686719,0.39686719 0 0 0 -0.396867,0.396867 0.39686719,0.39686719 0 0 0 0.396867,0.396867 0.39686719,0.39686719 0 0 0 0.396867,-0.396867 0.39686719,0.39686719 0 0 0 -0.396867,-0.396867 z m 1.322374,0 a 0.39686719,0.39686719 0 0 0 -0.396867,0.396867 0.39686719,0.39686719 0 0 0 0.396867,0.396867 0.39686719,0.39686719 0 0 0 0.396867,-0.396867 0.39686719,0.39686719 0 0 0 -0.396867,-0.396867 z m 1.32289,0 a 0.39686719,0.39686719 0 0 0 -0.396867,0.396867 0.39686719,0.39686719 0 0 0 0.396867,0.396867 0.39686719,0.39686719 0 0 0 0.396868,-0.396867 0.39686719,0.39686719 0 0 0 -0.396868,-0.396867 z m 6.125604,0.148825 c 0.251712,0 0.453193,0.201481 0.453193,0.453193 1e-6,0.251712 -0.20148,0.453194 -0.453193,0.453194 -0.251712,0 -0.452677,-0.201482 -0.452677,-0.453194 1e-6,-0.251712 0.200966,-0.453193 0.452677,-0.453193 z" />
    <path
       id="rect1638"
       style="fill:url(#linearGradient3);fill-opacity:1;stroke-linecap:round;paint-order:stroke fill markers"
       d="m 20.28691,3.3379933 c -0.379392,0 -0.687283,0.3099578 -0.687283,0.6893501 v 1.8556641 c 0,0.3793923 0.307891,0.6893501 0.687283,0.6893501 h 10.906614 c 0.379392,0 0.687283,-0.3099581 0.687283,-0.6893501 V 4.0273434 c 0,-0.379392 -0.307891,-0.6893501 -0.687283,-0.6893501 z m 0,0.2656117 h 10.906614 c 0.237392,0 0.423738,0.1863459 0.423738,0.4237384 v 1.8556641 c 0,0.2373926 -0.186346,0.4237384 -0.423738,0.4237384 H 20.28691 c -0.237392,0 -0.423738,-0.1863461 -0.423738,-0.4237384 V 4.0273434 c 0,-0.2373922 0.186346,-0.4237384 0.423738,-0.4237384 z m 9.78319,0.6345741 c -0.3947,-1e-7 -0.716738,0.3220374 -0.716738,0.716738 0,0.3947007 0.322038,0.7167382 0.716738,0.716738 0.394701,2e-7 0.718806,-0.3220373 0.718805,-0.716738 0,-0.3947006 -0.324104,-0.7167381 -0.718805,-0.716738 z M 21.299232,4.4975896 A 0.39686719,0.39686719 0 0 0 20.902365,4.8944568 0.39686719,0.39686719 0 0 0 21.299232,5.291324 0.39686719,0.39686719 0 0 0 21.696099,4.8944568 0.39686719,0.39686719 0 0 0 21.299232,4.4975896 Z m 1.322374,0 A 0.39686719,0.39686719 0 0 0 22.224739,4.8944568 0.39686719,0.39686719 0 0 0 22.621606,5.291324 0.39686719,0.39686719 0 0 0 23.018473,4.8944568 0.39686719,0.39686719 0 0 0 22.621606,4.4975896 Z m 1.32289,0 A 0.39686719,0.39686719 0 0 0 23.547629,4.8944568 0.39686719,0.39686719 0 0 0 23.944496,5.291324 0.39686719,0.39686719 0 0 0 24.341364,4.8944568 0.39686719,0.39686719 0 0 0 23.944496,4.4975896 Z m 6.125604,0.00413 c 0.251713,-1e-7 0.453193,0.2014814 0.453193,0.4531934 1e-6,0.2517121 -0.20148,0.4531935 -0.453193,0.4531934 -0.251712,10e-8 -0.452677,-0.2014813 -0.452677,-0.4531934 1e-6,-0.251712 0.200965,-0.4531935 0.452677,-0.4531934 z m -9.78319,2.3496811 c -0.379392,0 -0.687283,0.3104745 -0.687283,0.6898668 V 9.396419 c 0,0.3793923 0.307891,0.68935 0.687283,0.68935 h 10.906614 c 0.379392,0 0.687283,-0.309958 0.687283,-0.68935 V 7.5412716 c 0,-0.379392 -0.307891,-0.6898668 -0.687283,-0.6898668 z m 0,0.2656116 h 10.906614 c 0.237392,0 0.423738,0.1868627 0.423738,0.4242552 V 9.396419 c 0,0.2373925 -0.186346,0.4237384 -0.423738,0.4237384 H 20.28691 c -0.237392,0 -0.423738,-0.1863461 -0.423738,-0.4237384 V 7.5412716 c 0,-0.2373923 0.186346,-0.4242552 0.423738,-0.4242552 z m 9.78319,0.6309568 c -0.3947,-2e-7 -0.716738,0.3241044 -0.716738,0.7188051 0,0.3947006 0.322038,0.7167381 0.716738,0.716738 0.394701,1e-7 0.718805,-0.3220374 0.718805,-0.716738 1e-6,-0.3947007 -0.324104,-0.7188053 -0.718805,-0.7188051 z m -8.770868,0.1891321 a 0.39686719,0.39686719 0 0 0 -0.396867,0.3968672 0.39686719,0.39686719 0 0 0 0.396867,0.3968671 0.39686719,0.39686719 0 0 0 0.396867,-0.3968671 0.39686719,0.39686719 0 0 0 -0.396867,-0.3968672 z m 1.322374,0 a 0.39686719,0.39686719 0 0 0 -0.396867,0.3968672 0.39686719,0.39686719 0 0 0 0.396867,0.3968671 0.39686719,0.39686719 0 0 0 0.396867,-0.3968671 0.39686719,0.39686719 0 0 0 -0.396867,-0.3968672 z m 1.32289,0 a 0.39686719,0.39686719 0 0 0 -0.396867,0.3968672 0.39686719,0.39686719 0 0 0 0.396867,0.3968671 0.39686719,0.39686719 0 0 0 0.396868,-0.3968671 0.39686719,0.39686719 0 0 0 -0.396868,-0.3968672 z m 6.125604,0.07648 c 0.251713,-1e-7 0.453194,0.2014813 0.453193,0.4531934 0,0.251712 -0.20148,0.4531935 -0.453193,0.4531934 -0.251712,10e-8 -0.452676,-0.2014814 -0.452677,-0.4531934 0,-0.2517121 0.200965,-0.4531935 0.452677,-0.4531934 z m -9.78319,2.3476138 c -0.379392,0 -0.687283,0.309958 -0.687283,0.68935 v 1.855664 c 0,0.379392 0.307891,0.687283 0.687283,0.687283 h 10.906614 c 0.379392,0 0.687283,-0.307891 0.687283,-0.687283 v -1.855664 c 0,-0.379392 -0.307891,-0.68935 -0.687283,-0.68935 z m 0,0.263545 h 10.906614 c 0.237392,0 0.423738,0.188413 0.423738,0.425805 v 1.855664 c 0,0.237392 -0.186346,0.423739 -0.423738,0.423739 H 20.28691 c -0.237392,0 -0.423738,-0.186347 -0.423738,-0.423739 v -1.855664 c 0,-0.237392 0.186346,-0.425805 0.423738,-0.425805 z m 9.78319,0.63509 c -0.3947,-10e-7 -0.716738,0.324104 -0.716738,0.718805 -1e-6,0.3947 0.322038,0.716738 0.716738,0.716738 0.394701,0 0.718806,-0.322038 0.718805,-0.716738 0,-0.394701 -0.324104,-0.718806 -0.718805,-0.718805 z m -8.770868,0.116787 a 0.39686719,0.39686719 0 0 0 -0.396867,0.396867 0.39686719,0.39686719 0 0 0 0.396867,0.396867 0.39686719,0.39686719 0 0 0 0.396867,-0.396867 0.39686719,0.39686719 0 0 0 -0.396867,-0.396867 z m 1.322374,0 a 0.39686719,0.39686719 0 0 0 -0.396867,0.396867 0.39686719,0.39686719 0 0 0 0.396867,0.396867 0.39686719,0.39686719 0 0 0 0.396867,-0.396867 0.39686719,0.39686719 0 0 0 -0.396867,-0.396867 z m 1.32289,0 a 0.39686719,0.39686719 0 0 0 -0.396867,0.396867 0.39686719,0.39686719 0 0 0 0.396867,0.396867 0.39686719,0.39686719 0 0 0 0.396868,-0.396867 0.39686719,0.39686719 0 0 0 -0.396868,-0.396867 z m 6.125604,0.148825 c 0.251712,0 0.453193,0.201481 0.453193,0.453193 1e-6,0.251712 -0.20148,0.453194 -0.453193,0.453194 -0.251712,0 -0.452677,-0.201482 -0.452677,-0.453194 1e-6,-0.251712 0.200966,-0.453193 0.452677,-0.453193 z" />
    <g
       id="g1662"
       transform="translate(0,0.79373414)" />
    <g
       id="g1670"
       transform="translate(0,4.2332498)" />
  </g>
</svg>
