<?xml version="1.0" encoding="UTF-8" standalone="no"?>
<svg
   width="46.491283"
   height="46.49128"
   version="1.1"
   viewBox="0 0 12.300576 12.300575"
   id="svg24"
   xmlns:xlink="http://www.w3.org/1999/xlink"
   xmlns="http://www.w3.org/2000/svg"
   xmlns:svg="http://www.w3.org/2000/svg"
   xmlns:rdf="http://www.w3.org/1999/02/22-rdf-syntax-ns#"
   xmlns:cc="http://creativecommons.org/ns#"
   xmlns:dc="http://purl.org/dc/elements/1.1/">
  <defs
     id="defs10">
    <linearGradient
       id="linearGradient5">
      <stop
         style="stop-color:#00abff;stop-opacity:0;"
         offset="0"
         id="stop6" />
      <stop
         style="stop-color:#00abff;stop-opacity:1;"
         offset="1"
         id="stop5" />
    </linearGradient>
    <style
       id="style14"
       type="text/css" />
    <style
       id="style16"
       type="text/css" />
    <style
       id="style14-4"
       type="text/css" />
    <style
       id="style16-5"
       type="text/css" />
    <style
       type="text/css"
       id="style1270" />
    <linearGradient
       xlink:href="#linearGradient5"
       id="linearGradient6"
       x1="8.5362158"
       y1="14.996597"
       x2="8.5362158"
       y2="7.0024571"
       gradientUnits="userSpaceOnUse" />
    <filter
       style="color-interpolation-filters:sRGB"
       id="filter6"
       x="-0.026999999"
       y="-0.026999999"
       width="1.054"
       height="1.054">
      <feGaussianBlur
         stdDeviation="0.13129172"
         id="feGaussianBlur6" />
    </filter>
  </defs>
  <metadata
     id="metadata12">
    <rdf:RDF>
      <cc:Work
         rdf:about="">
        <dc:format>image/svg+xml</dc:format>
        <dc:type
           rdf:resource="http://purl.org/dc/dcmitype/StillImage" />
        <dc:title />
      </cc:Work>
    </rdf:RDF>
  </metadata>
  <g
     id="g6"
     transform="translate(-0.20630478,-0.28640168)">
    <path
       id="path2"
       d="M 5.187744,2.6540988 4.9138643,2.8241109 C 4.0320963,3.369536 3.2872545,4.112001 2.7419466,4.9939616 l -0.1679451,0.27543 0.552927,1.3476948 C 2.9558418,7.1028416 2.8753984,7.6136333 2.8437472,8.1306593 H 2.7755356 V 8.4882531 C 2.7748327,9.1304832 2.9138881,9.7593755 3.1269285,10.35942 l -0.552927,1.351312 0.1679451,0.27388 c 0.5456242,0.882473 1.2918689,1.625999 2.1739847,2.171401 l 0.273363,0.166394 1.3518288,-0.550859 c 0.5996421,0.213004 1.2267346,0.352094 1.8690998,0.351392 0.6494299,0 1.2720229,-0.139771 1.8670331,-0.351392 l 1.351828,0.552926 0.27543,-0.168461 c 0.882251,-0.545487 1.624363,-1.289148 2.169851,-2.171401 l 0.170012,-0.27543 -0.552927,-1.347695 c 0.213483,-0.6005305 0.352098,-1.2301678 0.351393,-1.8732339 0,-0.6501222 -0.139349,-1.2755945 -0.351393,-1.8711667 l 0.552927,-1.3476948 -0.170012,-0.27543 C 13.529454,4.1126563 12.785818,3.3690225 11.904514,2.8241109 L 11.629084,2.6540988 10.28139,3.2070258 C 9.6853183,2.9946074 9.0609634,2.8556328 8.4102229,2.8556329 7.7665598,2.8549284 7.137711,2.9932151 6.5369891,3.2070258 Z m 0.07803,0.8087203 1.2247073,0.5017682 0.1328058,-0.054259 C 7.1927772,3.688202 7.7973331,3.5737695 8.4081558,3.574438 h 0.00207 c 0.6194644,0 1.2201861,0.1155013 1.7848692,0.3358902 l 0.132805,0.052709 1.226775,-0.498151 c 0.759431,0.477002 1.404331,1.1213151 1.880985,1.8809851 l -0.502285,1.2241905 0.05271,0.1328059 c 0.220349,0.5645789 0.336407,1.1658041 0.336407,1.7853855 6.67e-4,0.6109434 -0.11432,1.2175447 -0.336407,1.7869358 l -0.05064,0.13694 0.500218,1.220573 c -0.47781,0.761241 -1.12179,1.405426 -1.883052,1.883052 l -1.224708,-0.500218 -0.134356,0.05271 c -0.5637445,0.219777 -1.1640387,0.33434 -1.7833182,0.33434 h -0.00207 C 7.7968599,13.403257 7.192365,13.290211 6.623287,13.068245 L 6.4904812,13.015536 5.2657739,13.513687 C 4.5053382,13.036349 3.8622612,12.394974 3.3847888,11.634769 l 0.498151,-1.22264 -0.052709,-0.13694 C 3.6082655,9.7060982 3.4952218,9.0995522 3.4958909,8.4882531 c 0,-0.6191157 0.1140674,-1.2195786 0.33434,-1.7833185 v -0.00207 L 3.8850068,6.5700617 3.3827218,5.3458712 C 3.8605519,4.5842804 4.5040842,3.9406928 5.265774,3.4628191 Z m 3.1423819,2.3341784 c -1.4825573,0 -2.6912556,1.2107653 -2.6912556,2.6933226 -10e-8,1.4825572 1.2088676,2.6891879 2.6912556,2.6891889 1.4823879,0 2.6912551,-1.2068009 2.6912551,-2.6891889 0,-1.4823882 -1.2086979,-2.6933227 -2.6912551,-2.6933226 z m 0,0.7286234 c 1.0903424,-10e-8 1.9667661,0.874419 1.9667661,1.9646992 0,1.09028 -0.8764862,1.9646989 -1.9667661,1.9646989 -1.09028,0 -1.9646993,-0.8743567 -1.9646992,-1.9646989 0,-1.0903424 0.8743569,-1.9646992 1.9646992,-1.9646992 z"
       transform="translate(-2.0525966,-2.052597)"
       style="display:inline;opacity:0.6;fill:#00abff;fill-opacity:1;filter:url(#filter6)" />
    <path
       id="path3"
       d="M 5.187744,2.6540988 4.9138643,2.8241109 C 4.0320963,3.369536 3.2872545,4.112001 2.7419466,4.9939616 l -0.1679451,0.27543 0.552927,1.3476948 C 2.9558418,7.1028416 2.8753984,7.6136333 2.8437472,8.1306593 H 2.7755356 V 8.4882531 C 2.7748327,9.1304832 2.9138881,9.7593755 3.1269285,10.35942 l -0.552927,1.351312 0.1679451,0.27388 c 0.5456242,0.882473 1.2918689,1.625999 2.1739847,2.171401 l 0.273363,0.166394 1.3518288,-0.550859 c 0.5996421,0.213004 1.2267346,0.352094 1.8690998,0.351392 0.6494299,0 1.2720229,-0.139771 1.8670331,-0.351392 l 1.351828,0.552926 0.27543,-0.168461 c 0.882251,-0.545487 1.624363,-1.289148 2.169851,-2.171401 l 0.170012,-0.27543 -0.552927,-1.347695 c 0.213483,-0.6005305 0.352098,-1.2301678 0.351393,-1.8732339 0,-0.6501222 -0.139349,-1.2755945 -0.351393,-1.8711667 l 0.552927,-1.3476948 -0.170012,-0.27543 C 13.529454,4.1126563 12.785818,3.3690225 11.904514,2.8241109 L 11.629084,2.6540988 10.28139,3.2070258 C 9.6853183,2.9946074 9.0609634,2.8556328 8.4102229,2.8556329 7.7665598,2.8549284 7.137711,2.9932151 6.5369891,3.2070258 Z m 0.07803,0.8087203 1.2247073,0.5017682 0.1328058,-0.054259 C 7.1927772,3.688202 7.7973331,3.5737695 8.4081558,3.574438 h 0.00207 c 0.6194644,0 1.2201861,0.1155013 1.7848692,0.3358902 l 0.132805,0.052709 1.226775,-0.498151 c 0.759431,0.477002 1.404331,1.1213151 1.880985,1.8809851 l -0.502285,1.2241905 0.05271,0.1328059 c 0.220349,0.5645789 0.336407,1.1658041 0.336407,1.7853855 6.67e-4,0.6109434 -0.11432,1.2175447 -0.336407,1.7869358 l -0.05064,0.13694 0.500218,1.220573 c -0.47781,0.761241 -1.12179,1.405426 -1.883052,1.883052 l -1.224708,-0.500218 -0.134356,0.05271 c -0.5637445,0.219777 -1.1640387,0.33434 -1.7833182,0.33434 h -0.00207 C 7.7968599,13.403257 7.192365,13.290211 6.623287,13.068245 L 6.4904812,13.015536 5.2657739,13.513687 C 4.5053382,13.036349 3.8622612,12.394974 3.3847888,11.634769 l 0.498151,-1.22264 -0.052709,-0.13694 C 3.6082655,9.7060982 3.4952218,9.0995522 3.4958909,8.4882531 c 0,-0.6191157 0.1140674,-1.2195786 0.33434,-1.7833185 v -0.00207 L 3.8850068,6.5700617 3.3827218,5.3458712 C 3.8605519,4.5842804 4.5040842,3.9406928 5.265774,3.4628191 Z m 3.1423819,2.3341784 c -1.4825573,0 -2.6912556,1.2107653 -2.6912556,2.6933226 -10e-8,1.4825572 1.2088676,2.6891879 2.6912556,2.6891889 1.4823879,0 2.6912551,-1.2068009 2.6912551,-2.6891889 0,-1.4823882 -1.2086979,-2.6933227 -2.6912551,-2.6933226 z m 0,0.7286234 c 1.0903424,-10e-8 1.9667661,0.874419 1.9667661,1.9646992 0,1.09028 -0.8764862,1.9646989 -1.9667661,1.9646989 -1.09028,0 -1.9646993,-0.8743567 -1.9646992,-1.9646989 0,-1.0903424 0.8743569,-1.9646992 1.9646992,-1.9646992 z"
       transform="translate(-2.0525966,-2.052597)"
       style="fill:url(#linearGradient6);fill-opacity:1" />
  </g>
</svg>
