<?xml version="1.0" encoding="UTF-8" standalone="no"?>
<svg
   version="1.1"
   viewBox="0 0 48.484001 48.484001"
   id="svg23"
   width="48.484001"
   height="48.484001"
   xmlns:xlink="http://www.w3.org/1999/xlink"
   xmlns="http://www.w3.org/2000/svg"
   xmlns:svg="http://www.w3.org/2000/svg"
   xmlns:rdf="http://www.w3.org/1999/02/22-rdf-syntax-ns#"
   xmlns:cc="http://creativecommons.org/ns#"
   xmlns:dc="http://purl.org/dc/elements/1.1/">
  <metadata
     id="metadata2">
    <rdf:RDF>
      <cc:Work
         rdf:about="">
        <dc:format>image/svg+xml</dc:format>
        <dc:type
           rdf:resource="http://purl.org/dc/dcmitype/StillImage" />
        <dc:title />
      </cc:Work>
    </rdf:RDF>
  </metadata>
  <defs
     id="defs9">
    <linearGradient
       id="linearGradient10">
      <stop
         style="stop-color:#00abff;stop-opacity:0;"
         offset="0"
         id="stop16" />
      <stop
         style="stop-color:#00abff;stop-opacity:1;"
         offset="1"
         id="stop10" />
    </linearGradient>
    <style
       id="style4"
       type="text/css" />
    <style
       id="style6"
       type="text/css" />
    <style
       id="style8"
       type="text/css" />
    <style
       type="text/css"
       id="style1078" />
    <style
       type="text/css"
       id="style1080" />
    <style
       id="style14"
       type="text/css" />
    <style
       id="style16"
       type="text/css" />
    <linearGradient
       xlink:href="#linearGradient10"
       id="linearGradient16"
       x1="32.819805"
       y1="64"
       x2="32.819805"
       y2="25.632622"
       gradientUnits="userSpaceOnUse" />
    <filter
       style="color-interpolation-filters:sRGB"
       id="filter16"
       x="-0.026999999"
       y="-0.026999999"
       width="1.054"
       height="1.054">
      <feGaussianBlur
         stdDeviation="0.5175"
         id="feGaussianBlur16" />
    </filter>
  </defs>
  <g
     id="g16"
     transform="translate(-7.7580001,-7.7580001)">
    <path
       style="display:inline;opacity:0.6;fill:#00abff;stroke-linecap:round;paint-order:stroke fill markers;filter:url(#filter16)"
       d="M 10,9 V 30 H 31 V 9 Z M 35,9 V 30 H 56 V 9 Z M 11,10 H 30 V 29 H 11 Z m 25,0 H 55 V 29 H 36 Z M 10,34 V 55 H 31 V 34 Z m 25,0 V 55 H 56 V 34 Z M 11,35 H 30 V 54 H 11 Z m 25,0 H 55 V 54 H 36 Z"
       id="rect1123"
       transform="translate(-1)" />
    <g
       id="g1131"
       transform="translate(-1)"
       style="display:inline" />
    <g
       id="g10"
       transform="translate(-1)">
      <path
         style="fill:url(#linearGradient16);fill-opacity:1;stroke-linecap:round;paint-order:stroke fill markers"
         d="M 10,9 V 30 H 31 V 9 Z M 35,9 V 30 H 56 V 9 Z M 11,10 H 30 V 29 H 11 Z m 25,0 H 55 V 29 H 36 Z M 10,34 V 55 H 31 V 34 Z m 25,0 V 55 H 56 V 34 Z M 11,35 H 30 V 54 H 11 Z m 25,0 H 55 V 54 H 36 Z"
         id="path10" />
    </g>
  </g>
</svg>
