<?xml version="1.0" encoding="UTF-8" standalone="no"?>
<svg
   width="43.546036"
   height="55.538254"
   version="1.1"
   viewBox="0 0 11.521328 14.694207"
   id="svg8"
   xmlns:xlink="http://www.w3.org/1999/xlink"
   xmlns="http://www.w3.org/2000/svg"
   xmlns:svg="http://www.w3.org/2000/svg">
  <defs
     id="defs8">
    <linearGradient
       id="linearGradient9">
      <stop
         style="stop-color:#00abff;stop-opacity:0;"
         offset="0"
         id="stop10" />
      <stop
         style="stop-color:#00abff;stop-opacity:1;"
         offset="1"
         id="stop9" />
    </linearGradient>
    <linearGradient
       xlink:href="#linearGradient9"
       id="linearGradient10"
       x1="150.02946"
       y1="65.000229"
       x2="150.02946"
       y2="26.275864"
       gradientUnits="userSpaceOnUse" />
    <filter
       style="color-interpolation-filters:sRGB"
       id="filter10"
       x="-0.030947905"
       y="-0.02394538"
       width="1.0618958"
       height="1.0478908">
      <feGaussianBlur
         stdDeviation="0.52879047"
         id="feGaussianBlur10" />
    </filter>
  </defs>
  <g
     id="g10"
     transform="translate(-2.7058098,-1.2516802)">
    <path
       id="path1"
       style="display:inline;opacity:0.6;fill:#00abff;fill-opacity:1;filter:url(#filter10)"
       d="m 151.80377,7.0006378 -0.004,0.00195 -19.35338,0.00391 c -1.35355,0 -2.45702,1.1084419 -2.45702,2.4648263 V 57.533483 c 0,1.356386 1.10342,2.466779 2.45702,2.466779 h 36.09349 c 1.35354,0 2.45702,-1.110394 2.45702,-2.466779 V 26.184096 c 0,-0.440398 -0.1036,-0.938336 -0.29297,-1.464834 h 0.0625 l -0.35547,-0.722651 c -0.0312,-0.06312 -0.0698,-0.127808 -0.10351,-0.191405 l -0.0449,-0.08984 h -0.006 c -0.33862,-0.618179 -0.7885,-1.252808 -1.38476,-1.849596 l -0.002,-0.002 -12.60538,-12.7108477 c -0.59329,-0.7372684 -1.25337,-1.2334707 -1.89843,-1.5585827 -0.0853,-0.042987 -0.17136,-0.083869 -0.25585,-0.1210929 l -0.0859,-0.037109 -0.0312,-0.00195 C 153.20854,7.1013224 152.46764,7.000597 151.90906,7.000597 Z m -8.80267,1.001946 v 1.0019461 h -1.99999 v 2.9980251 h 1.99999 v 1.0039 h -1.99999 v 2.996072 h 1.99999 v 0.996087 h -1.99999 v 3.005838 h 1.99999 v 0.996087 h -1.99999 v 3.003885 h 1.99999 v 0.998039 h -1.99999 v 3.003885 h 1.99999 v 0.996087 h -1.99999 v 2.998026 h 1.99999 v 1.999985 h -1.99999 v 7.00581 c 0,0.545346 0.45075,0.996087 0.99609,0.996087 h 3.00584 c 0.54535,0 0.99609,-0.450741 0.99609,-0.996087 v -7.00581 -2.998025 h -1.99999 v -0.996087 h 1.99999 v -3.003885 h -1.99999 v -0.996087 h 1.99999 v -3.005838 h -1.99999 v -0.996086 h 1.99999 v -3.003885 h -1.99999 v -0.99804 h 1.99999 V 15.00644 h -1.99999 v -1.003899 h 1.99999 v -2.998025 h -1.99999 v -1.003899 h 1.99999 V 8.0025838 h 5.91988 c 0.37972,7.572e-4 0.91294,0.1248382 1.44725,0.3105447 V 22.248577 c 0,1.22231 0.89864,2.235567 2.06639,2.425764 0.12732,0.02382 0.25744,0.03745 0.39062,0.04102 0.0224,5.98e-4 0.0439,0.0039 0.0664,0.0039 h 13.69522 c 0.23563,0.562366 0.41406,1.11788 0.41406,1.464834 v 31.349387 c 0,0.822556 -0.64278,1.466786 -1.45703,1.466786 h -36.09544 c -0.81435,0 -1.45702,-0.644172 -1.45702,-1.466786 V 9.4713234 c 0,-0.8225555 0.64276,-1.4667865 1.45702,-1.4667865 z m 0.99804,0 h 1.0039 v 1.0019461 h -1.0039 z m 10.39055,0.9238216 c 0.38082,0.2545631 0.76637,0.4323934 1.12695,0.8886656 l 0.0176,0.021484 12.62882,12.734285 c 0.37192,0.371985 0.57527,0.75942 0.82812,1.144523 H 155.8233 c -0.06,0 -0.11587,-0.01077 -0.17382,-0.01758 -0.72125,-0.113118 -1.25975,-0.723296 -1.25976,-1.480458 z M 141.9972,10.000617 h 1.0039 v 1.003899 h -1.0039 z m 2.00194,2.001938 h 1.0039 v 1.0039 h -1.0039 z m -2.00194,1.999986 h 1.0039 v 1.003899 h -1.0039 z m 2.00194,1.999986 h 1.0039 v 0.996087 h -1.0039 z m -2.00194,1.999986 h 1.0039 v 0.99804 h -1.0039 z m 2.00194,2.001939 h 1.0039 v 0.996087 h -1.0039 z m -2.00194,1.999986 h 1.0039 v 0.996086 h -1.0039 z m 2.00194,1.999986 h 1.0039 v 0.998039 h -1.0039 z m -2.00194,2.001938 h 1.0039 v 0.996087 h -1.0039 z m 2.00194,1.999986 h 1.0039 v 0.996087 h -1.0039 z m -2.00194,1.999986 h 1.0039 v 0.996087 h -1.0039 z m 2.00194,1.994127 h 1.0039 v 1.003899 h -1.0039 z m -2.00194,3.003885 h 3.00584 v 2.996072 h -3.00584 z m 1.0039,3.999971 h 0.99804 v 0.99804 h -0.99804 z m 12.57804,2.996073 c -0.72949,0 -1.30497,0.224274 -1.7246,0.67187 -0.41963,0.445454 -0.6289,1.055378 -0.6289,1.830065 0,0.772545 0.20927,1.382469 0.6289,1.830065 0.41963,0.445455 0.99511,0.667964 1.7246,0.667964 0.28406,0 0.55271,-0.03775 0.80663,-0.115233 0.25609,-0.07748 0.49845,-0.194676 0.72656,-0.349607 v -0.679683 c -0.21949,0.204444 -0.45545,0.355893 -0.70507,0.457028 -0.24748,0.101135 -0.51127,0.152343 -0.79101,0.152343 -0.55088,0 -0.97101,-0.168214 -1.26367,-0.503903 -0.29266,-0.337862 -0.43945,-0.824163 -0.43945,-1.458974 0,-0.636984 0.14679,-1.123285 0.43945,-1.458974 0.29267,-0.337862 0.71279,-0.505856 1.26367,-0.505856 0.27974,0 0.54353,0.04926 0.79101,0.15039 0.24961,0.101135 0.48557,0.254537 0.70507,0.458981 v -0.687495 c -0.2238,-0.152789 -0.46462,-0.266487 -0.7207,-0.341795 -0.25392,-0.07748 -0.52414,-0.117186 -0.81249,-0.117186 z m 3.78317,0.08594 -1.84178,4.818325 h 0.68945 l 0.43749,-1.234366 h 2.17382 l 0.43749,1.234366 h 0.67773 l -1.83592,-4.818325 z m 3.27928,0 v 4.818325 h 1.73045 c 0.54014,0 0.95538,-0.117006 1.24804,-0.35156 0.29266,-0.234586 0.43945,-0.565719 0.43945,-0.996087 0,-0.327122 -0.089,-0.599075 -0.26758,-0.8164 -0.17644,-0.219499 -0.42545,-0.36474 -0.74608,-0.433591 0.26685,-0.04306 0.46969,-0.151868 0.60741,-0.32617 0.13772,-0.174301 0.20508,-0.408313 0.20508,-0.70312 0,-0.380886 -0.13335,-0.674267 -0.40234,-0.880853 -0.26901,-0.206585 -0.65331,-0.310544 -1.15038,-0.310544 z m 0.65234,0.535152 h 0.96483 c 0.31849,0 0.55404,0.06113 0.70898,0.181639 0.15709,0.120506 0.23633,0.301766 0.23633,0.544918 0,0.245326 -0.0792,0.428319 -0.23633,0.548825 -0.15493,0.118363 -0.39049,0.177733 -0.70898,0.177733 h -0.96483 z m -3.56443,0.107421 0.88671,2.398421 h -1.77147 z m 3.56443,1.874987 h 1.04491 c 0.35077,0 0.60949,0.0726 0.77734,0.216795 0.17,0.142018 0.25586,0.362794 0.25586,0.664058 0,0.299122 -0.0859,0.521632 -0.25586,0.667964 -0.16785,0.144191 -0.42656,0.216795 -0.77734,0.216795 h -1.04491 z m -10.18157,4.396453 v 0.999993 h 11.99991 V 49.00034 Z m 0,1.999986 v 0.999993 h 9.99993 v -0.999993 z m 0,1.999986 v 1.001946 h 11.99991 v -1.001946 z m 0,2.001939 v 0.999993 h 7.99994 v -0.999993 z"
       transform="matrix(0.26458,0,0,0.26458,-31.351,-0.26476)" />
    <path
       id="path9"
       style="fill:url(#linearGradient10);fill-opacity:1"
       d="m 151.80377,7.0006378 -0.004,0.00195 -19.35338,0.00391 c -1.35355,0 -2.45702,1.1084419 -2.45702,2.4648263 V 57.533483 c 0,1.356386 1.10342,2.466779 2.45702,2.466779 h 36.09349 c 1.35354,0 2.45702,-1.110394 2.45702,-2.466779 V 26.184096 c 0,-0.440398 -0.1036,-0.938336 -0.29297,-1.464834 h 0.0625 l -0.35547,-0.722651 c -0.0312,-0.06312 -0.0698,-0.127808 -0.10351,-0.191405 l -0.0449,-0.08984 h -0.006 c -0.33862,-0.618179 -0.7885,-1.252808 -1.38476,-1.849596 l -0.002,-0.002 -12.60538,-12.7108477 c -0.59329,-0.7372684 -1.25337,-1.2334707 -1.89843,-1.5585827 -0.0853,-0.042987 -0.17136,-0.083869 -0.25585,-0.1210929 l -0.0859,-0.037109 -0.0312,-0.00195 C 153.20854,7.1013224 152.46764,7.000597 151.90906,7.000597 Z m -8.80267,1.001946 v 1.0019461 h -1.99999 v 2.9980251 h 1.99999 v 1.0039 h -1.99999 v 2.996072 h 1.99999 v 0.996087 h -1.99999 v 3.005838 h 1.99999 v 0.996087 h -1.99999 v 3.003885 h 1.99999 v 0.998039 h -1.99999 v 3.003885 h 1.99999 v 0.996087 h -1.99999 v 2.998026 h 1.99999 v 1.999985 h -1.99999 v 7.00581 c 0,0.545346 0.45075,0.996087 0.99609,0.996087 h 3.00584 c 0.54535,0 0.99609,-0.450741 0.99609,-0.996087 v -7.00581 -2.998025 h -1.99999 v -0.996087 h 1.99999 v -3.003885 h -1.99999 v -0.996087 h 1.99999 v -3.005838 h -1.99999 v -0.996086 h 1.99999 v -3.003885 h -1.99999 v -0.99804 h 1.99999 V 15.00644 h -1.99999 v -1.003899 h 1.99999 v -2.998025 h -1.99999 v -1.003899 h 1.99999 V 8.0025838 h 5.91988 c 0.37972,7.572e-4 0.91294,0.1248382 1.44725,0.3105447 V 22.248577 c 0,1.22231 0.89864,2.235567 2.06639,2.425764 0.12732,0.02382 0.25744,0.03745 0.39062,0.04102 0.0224,5.98e-4 0.0439,0.0039 0.0664,0.0039 h 13.69522 c 0.23563,0.562366 0.41406,1.11788 0.41406,1.464834 v 31.349387 c 0,0.822556 -0.64278,1.466786 -1.45703,1.466786 h -36.09544 c -0.81435,0 -1.45702,-0.644172 -1.45702,-1.466786 V 9.4713234 c 0,-0.8225555 0.64276,-1.4667865 1.45702,-1.4667865 z m 0.99804,0 h 1.0039 v 1.0019461 h -1.0039 z m 10.39055,0.9238216 c 0.38082,0.2545631 0.76637,0.4323934 1.12695,0.8886656 l 0.0176,0.021484 12.62882,12.734285 c 0.37192,0.371985 0.57527,0.75942 0.82812,1.144523 H 155.8233 c -0.06,0 -0.11587,-0.01077 -0.17382,-0.01758 -0.72125,-0.113118 -1.25975,-0.723296 -1.25976,-1.480458 z M 141.9972,10.000617 h 1.0039 v 1.003899 h -1.0039 z m 2.00194,2.001938 h 1.0039 v 1.0039 h -1.0039 z m -2.00194,1.999986 h 1.0039 v 1.003899 h -1.0039 z m 2.00194,1.999986 h 1.0039 v 0.996087 h -1.0039 z m -2.00194,1.999986 h 1.0039 v 0.99804 h -1.0039 z m 2.00194,2.001939 h 1.0039 v 0.996087 h -1.0039 z m -2.00194,1.999986 h 1.0039 v 0.996086 h -1.0039 z m 2.00194,1.999986 h 1.0039 v 0.998039 h -1.0039 z m -2.00194,2.001938 h 1.0039 v 0.996087 h -1.0039 z m 2.00194,1.999986 h 1.0039 v 0.996087 h -1.0039 z m -2.00194,1.999986 h 1.0039 v 0.996087 h -1.0039 z m 2.00194,1.994127 h 1.0039 v 1.003899 h -1.0039 z m -2.00194,3.003885 h 3.00584 v 2.996072 h -3.00584 z m 1.0039,3.999971 h 0.99804 v 0.99804 h -0.99804 z m 12.57804,2.996073 c -0.72949,0 -1.30497,0.224274 -1.7246,0.67187 -0.41963,0.445454 -0.6289,1.055378 -0.6289,1.830065 0,0.772545 0.20927,1.382469 0.6289,1.830065 0.41963,0.445455 0.99511,0.667964 1.7246,0.667964 0.28406,0 0.55271,-0.03775 0.80663,-0.115233 0.25609,-0.07748 0.49845,-0.194676 0.72656,-0.349607 v -0.679683 c -0.21949,0.204444 -0.45545,0.355893 -0.70507,0.457028 -0.24748,0.101135 -0.51127,0.152343 -0.79101,0.152343 -0.55088,0 -0.97101,-0.168214 -1.26367,-0.503903 -0.29266,-0.337862 -0.43945,-0.824163 -0.43945,-1.458974 0,-0.636984 0.14679,-1.123285 0.43945,-1.458974 0.29267,-0.337862 0.71279,-0.505856 1.26367,-0.505856 0.27974,0 0.54353,0.04926 0.79101,0.15039 0.24961,0.101135 0.48557,0.254537 0.70507,0.458981 v -0.687495 c -0.2238,-0.152789 -0.46462,-0.266487 -0.7207,-0.341795 -0.25392,-0.07748 -0.52414,-0.117186 -0.81249,-0.117186 z m 3.78317,0.08594 -1.84178,4.818325 h 0.68945 l 0.43749,-1.234366 h 2.17382 l 0.43749,1.234366 h 0.67773 l -1.83592,-4.818325 z m 3.27928,0 v 4.818325 h 1.73045 c 0.54014,0 0.95538,-0.117006 1.24804,-0.35156 0.29266,-0.234586 0.43945,-0.565719 0.43945,-0.996087 0,-0.327122 -0.089,-0.599075 -0.26758,-0.8164 -0.17644,-0.219499 -0.42545,-0.36474 -0.74608,-0.433591 0.26685,-0.04306 0.46969,-0.151868 0.60741,-0.32617 0.13772,-0.174301 0.20508,-0.408313 0.20508,-0.70312 0,-0.380886 -0.13335,-0.674267 -0.40234,-0.880853 -0.26901,-0.206585 -0.65331,-0.310544 -1.15038,-0.310544 z m 0.65234,0.535152 h 0.96483 c 0.31849,0 0.55404,0.06113 0.70898,0.181639 0.15709,0.120506 0.23633,0.301766 0.23633,0.544918 0,0.245326 -0.0792,0.428319 -0.23633,0.548825 -0.15493,0.118363 -0.39049,0.177733 -0.70898,0.177733 h -0.96483 z m -3.56443,0.107421 0.88671,2.398421 h -1.77147 z m 3.56443,1.874987 h 1.04491 c 0.35077,0 0.60949,0.0726 0.77734,0.216795 0.17,0.142018 0.25586,0.362794 0.25586,0.664058 0,0.299122 -0.0859,0.521632 -0.25586,0.667964 -0.16785,0.144191 -0.42656,0.216795 -0.77734,0.216795 h -1.04491 z m -10.18157,4.396453 v 0.999993 h 11.99991 V 49.00034 Z m 0,1.999986 v 0.999993 h 9.99993 v -0.999993 z m 0,1.999986 v 1.001946 h 11.99991 v -1.001946 z m 0,2.001939 v 0.999993 h 7.99994 v -0.999993 z"
       transform="matrix(0.26458,0,0,0.26458,-31.351,-0.26476)" />
  </g>
</svg>
