<?xml version="1.0" encoding="UTF-8" standalone="no"?>
<svg
   width="43.546036"
   height="55.538254"
   version="1.1"
   viewBox="0 0 11.521328 14.694207"
   id="svg4"
   xmlns:xlink="http://www.w3.org/1999/xlink"
   xmlns="http://www.w3.org/2000/svg"
   xmlns:svg="http://www.w3.org/2000/svg">
  <defs
     id="defs4">
    <linearGradient
       id="linearGradient5">
      <stop
         style="stop-color:#00abff;stop-opacity:0;"
         offset="0"
         id="stop6" />
      <stop
         style="stop-color:#00abff;stop-opacity:1;"
         offset="1"
         id="stop5" />
    </linearGradient>
    <linearGradient
       xlink:href="#linearGradient5"
       id="linearGradient6"
       x1="150.14542"
       y1="64.998032"
       x2="150.14542"
       y2="27.433226"
       gradientUnits="userSpaceOnUse" />
    <filter
       style="color-interpolation-filters:sRGB"
       id="filter6"
       x="-0.030947905"
       y="-0.02394538"
       width="1.0618958"
       height="1.0478908">
      <feGaussianBlur
         stdDeviation="0.52879047"
         id="feGaussianBlur6" />
    </filter>
  </defs>
  <g
     id="g6"
     transform="translate(-2.7058098,-1.252197)">
    <path
       id="path1"
       style="display:inline;opacity:0.6;fill:#00abff;fill-opacity:1;stroke:none;filter:url(#filter6)"
       d="m 151.80377,7.0003988 -0.004,0.00195 -19.35338,0.00391 c -1.35355,0 -2.45702,1.1084419 -2.45702,2.4648263 V 57.533244 c 0,1.356386 1.10342,2.466779 2.45702,2.466779 h 36.09349 c 1.35354,0 2.45702,-1.110394 2.45702,-2.466779 V 26.183857 c 0,-0.440775 -0.10327,-0.93783 -0.29297,-1.464834 h 0.0625 l -0.35547,-0.722651 c -0.0312,-0.06312 -0.0698,-0.127808 -0.10351,-0.191405 l -0.0449,-0.08984 h -0.006 c -0.33862,-0.618179 -0.7885,-1.252809 -1.38476,-1.849596 l -0.002,-0.002 -12.60538,-12.7108477 c -0.59329,-0.7372684 -1.25337,-1.2334707 -1.89843,-1.5585827 -0.0853,-0.042987 -0.17136,-0.083869 -0.25585,-0.1210929 l -0.0859,-0.037109 -0.0312,-0.00195 c -0.78449,-0.3328652 -1.52539,-0.4335906 -2.08397,-0.4335906 z m 0.11524,1.001946 c 0.37972,7.572e-4 0.91294,0.1248382 1.44725,0.3105447 V 22.248338 c 0,1.22231 0.89864,2.235567 2.06639,2.425764 0.12732,0.02382 0.25744,0.03745 0.39062,0.04101 0.0224,5.98e-4 0.0439,0.0039 0.0664,0.0039 h 13.69522 c 0.23563,0.562366 0.41406,1.117879 0.41406,1.464834 v 31.349387 c 0,0.822556 -0.64278,1.466786 -1.45703,1.466786 h -36.09544 c -0.81435,0 -1.45702,-0.644172 -1.45702,-1.466786 V 9.4710844 c 0,-0.8225555 0.64276,-1.4667865 1.45702,-1.4667865 z m 2.47068,0.9238216 c 0.38082,0.2545631 0.76637,0.4323933 1.12695,0.8886655 l 0.0176,0.021484 12.62882,12.7342851 c 0.37192,0.371985 0.57527,0.75942 0.82812,1.144523 H 155.8233 c -0.06,0 -0.11587,-0.01077 -0.17382,-0.01758 -0.72125,-0.113118 -1.25975,-0.723296 -1.25976,-1.480458 z m -5.76558,17.9412786 c -0.70777,0 -1.36919,0.346378 -1.52929,0.917963 -0.59464,2.192153 0.0716,5.582518 1.18163,9.806571 l -0.33593,0.818353 c -0.84984,2.071586 -1.91145,4.133636 -2.84568,5.964802 -3.85668,7.545922 -6.85699,11.617204 -8.85736,11.902259 l -0.008,-0.08203 c -0.0435,-0.941115 1.69398,-3.369091 4.0488,-5.298791 0.24534,-0.198919 1.29296,-1.210929 1.29296,-1.210929 0,0 -1.41485,0.747293 -1.73241,0.939447 -2.95014,1.761357 -4.41873,3.525904 -4.65817,4.697232 -0.071,0.347948 -0.0237,0.775642 0.2832,0.951165 l 0.75391,0.378904 c 2.05306,1.027666 4.57801,-1.674498 7.93549,-7.558541 3.41673,-1.120644 7.67959,-2.176442 11.56046,-2.748027 3.47381,1.98492 7.45741,2.929887 8.98822,2.521467 0.29118,-0.07699 0.59926,-0.304797 0.75585,-0.515622 0.12265,-0.194005 0.29297,-0.970696 0.29297,-0.970696 0,0 -0.28841,0.394296 -0.52539,0.509762 -0.96946,0.45748 -4.02646,-0.305802 -7.16596,-1.841784 2.71419,-0.288948 4.97488,-0.300411 6.18355,0.08594 1.53458,0.489871 1.53602,0.991429 1.51561,1.093742 0.0205,-0.08451 0.0904,-0.421165 0.082,-0.564449 -0.035,-0.368319 -0.14951,-0.696689 -0.42773,-0.968743 -0.56807,-0.559717 -1.97104,-0.841858 -3.88278,-0.867181 -1.44063,-0.01595 -3.16702,0.110856 -5.04294,0.378903 -0.85902,-0.493612 -1.7677,-1.035426 -2.48631,-1.707019 -1.82281,-1.701565 -3.35058,-4.065427 -4.2988,-6.714796 0.065,-0.253647 0.12705,-0.501362 0.1836,-0.751948 0.26385,-1.185653 0.45312,-5.105432 0.45312,-5.105432 0,0 -0.74926,2.944472 -0.86718,3.388647 -0.0759,0.281843 -0.17082,0.581471 -0.2793,0.894525 -0.57502,-2.021921 -0.86913,-3.982658 -0.86913,-5.468711 0,-0.420591 0.0368,-1.236378 0.15625,-1.882799 0.0577,-0.461029 0.22518,-0.700674 0.39843,-0.816401 0.34319,0.08334 0.7262,0.608197 1.12695,1.488271 0.34405,0.760602 0.32421,1.642016 0.32421,2.187485 0,0 0.3687,-1.35029 0.2832,-2.148423 -0.0518,-0.47925 -0.50754,-1.712145 -1.47655,-1.697253 h -0.0801 z m 0.33007,12.242101 c 1.00265,2.016215 2.38702,3.932805 4.20115,5.468711 0.40445,0.342203 0.83459,0.66692 1.27733,0.97265 -3.29466,0.612442 -6.7552,1.473101 -9.97063,2.820292 0.5813,-1.032806 1.20935,-2.155948 1.8535,-3.369116 1.24688,-2.358077 2.00285,-4.179596 2.63865,-5.892537 z"
       transform="matrix(0.26458,0,0,0.26458,-31.351,-0.26418)" />
    <path
       id="path5"
       style="fill:url(#linearGradient6);fill-opacity:1;stroke:none"
       d="m 151.80377,7.0003988 -0.004,0.00195 -19.35338,0.00391 c -1.35355,0 -2.45702,1.1084419 -2.45702,2.4648263 V 57.533244 c 0,1.356386 1.10342,2.466779 2.45702,2.466779 h 36.09349 c 1.35354,0 2.45702,-1.110394 2.45702,-2.466779 V 26.183857 c 0,-0.440775 -0.10327,-0.93783 -0.29297,-1.464834 h 0.0625 l -0.35547,-0.722651 c -0.0312,-0.06312 -0.0698,-0.127808 -0.10351,-0.191405 l -0.0449,-0.08984 h -0.006 c -0.33862,-0.618179 -0.7885,-1.252809 -1.38476,-1.849596 l -0.002,-0.002 -12.60538,-12.7108477 c -0.59329,-0.7372684 -1.25337,-1.2334707 -1.89843,-1.5585827 -0.0853,-0.042987 -0.17136,-0.083869 -0.25585,-0.1210929 l -0.0859,-0.037109 -0.0312,-0.00195 c -0.78449,-0.3328652 -1.52539,-0.4335906 -2.08397,-0.4335906 z m 0.11524,1.001946 c 0.37972,7.572e-4 0.91294,0.1248382 1.44725,0.3105447 V 22.248338 c 0,1.22231 0.89864,2.235567 2.06639,2.425764 0.12732,0.02382 0.25744,0.03745 0.39062,0.04101 0.0224,5.98e-4 0.0439,0.0039 0.0664,0.0039 h 13.69522 c 0.23563,0.562366 0.41406,1.117879 0.41406,1.464834 v 31.349387 c 0,0.822556 -0.64278,1.466786 -1.45703,1.466786 h -36.09544 c -0.81435,0 -1.45702,-0.644172 -1.45702,-1.466786 V 9.4710844 c 0,-0.8225555 0.64276,-1.4667865 1.45702,-1.4667865 z m 2.47068,0.9238216 c 0.38082,0.2545631 0.76637,0.4323933 1.12695,0.8886655 l 0.0176,0.021484 12.62882,12.7342851 c 0.37192,0.371985 0.57527,0.75942 0.82812,1.144523 H 155.8233 c -0.06,0 -0.11587,-0.01077 -0.17382,-0.01758 -0.72125,-0.113118 -1.25975,-0.723296 -1.25976,-1.480458 z m -5.76558,17.9412786 c -0.70777,0 -1.36919,0.346378 -1.52929,0.917963 -0.59464,2.192153 0.0716,5.582518 1.18163,9.806571 l -0.33593,0.818353 c -0.84984,2.071586 -1.91145,4.133636 -2.84568,5.964802 -3.85668,7.545922 -6.85699,11.617204 -8.85736,11.902259 l -0.008,-0.08203 c -0.0435,-0.941115 1.69398,-3.369091 4.0488,-5.298791 0.24534,-0.198919 1.29296,-1.210929 1.29296,-1.210929 0,0 -1.41485,0.747293 -1.73241,0.939447 -2.95014,1.761357 -4.41873,3.525904 -4.65817,4.697232 -0.071,0.347948 -0.0237,0.775642 0.2832,0.951165 l 0.75391,0.378904 c 2.05306,1.027666 4.57801,-1.674498 7.93549,-7.558541 3.41673,-1.120644 7.67959,-2.176442 11.56046,-2.748027 3.47381,1.98492 7.45741,2.929887 8.98822,2.521467 0.29118,-0.07699 0.59926,-0.304797 0.75585,-0.515622 0.12265,-0.194005 0.29297,-0.970696 0.29297,-0.970696 0,0 -0.28841,0.394296 -0.52539,0.509762 -0.96946,0.45748 -4.02646,-0.305802 -7.16596,-1.841784 2.71419,-0.288948 4.97488,-0.300411 6.18355,0.08594 1.53458,0.489871 1.53602,0.991429 1.51561,1.093742 0.0205,-0.08451 0.0904,-0.421165 0.082,-0.564449 -0.035,-0.368319 -0.14951,-0.696689 -0.42773,-0.968743 -0.56807,-0.559717 -1.97104,-0.841858 -3.88278,-0.867181 -1.44063,-0.01595 -3.16702,0.110856 -5.04294,0.378903 -0.85902,-0.493612 -1.7677,-1.035426 -2.48631,-1.707019 -1.82281,-1.701565 -3.35058,-4.065427 -4.2988,-6.714796 0.065,-0.253647 0.12705,-0.501362 0.1836,-0.751948 0.26385,-1.185653 0.45312,-5.105432 0.45312,-5.105432 0,0 -0.74926,2.944472 -0.86718,3.388647 -0.0759,0.281843 -0.17082,0.581471 -0.2793,0.894525 -0.57502,-2.021921 -0.86913,-3.982658 -0.86913,-5.468711 0,-0.420591 0.0368,-1.236378 0.15625,-1.882799 0.0577,-0.461029 0.22518,-0.700674 0.39843,-0.816401 0.34319,0.08334 0.7262,0.608197 1.12695,1.488271 0.34405,0.760602 0.32421,1.642016 0.32421,2.187485 0,0 0.3687,-1.35029 0.2832,-2.148423 -0.0518,-0.47925 -0.50754,-1.712145 -1.47655,-1.697253 h -0.0801 z m 0.33007,12.242101 c 1.00265,2.016215 2.38702,3.932805 4.20115,5.468711 0.40445,0.342203 0.83459,0.66692 1.27733,0.97265 -3.29466,0.612442 -6.7552,1.473101 -9.97063,2.820292 0.5813,-1.032806 1.20935,-2.155948 1.8535,-3.369116 1.24688,-2.358077 2.00285,-4.179596 2.63865,-5.892537 z"
       transform="matrix(0.26458,0,0,0.26458,-31.351,-0.26418)" />
  </g>
</svg>
