<?xml version="1.0" encoding="UTF-8" standalone="no"?>
<svg
   width="43.546024"
   height="55.538212"
   version="1.1"
   viewBox="0 0 43.546024 55.538212"
   id="svg3"
   xmlns:xlink="http://www.w3.org/1999/xlink"
   xmlns="http://www.w3.org/2000/svg"
   xmlns:svg="http://www.w3.org/2000/svg">
  <defs
     id="defs3">
    <linearGradient
       id="linearGradient38">
      <stop
         style="stop-color:#039bfc;stop-opacity:0;"
         offset="0"
         id="stop39" />
      <stop
         style="stop-color:#039bfc;stop-opacity:1;"
         offset="1"
         id="stop38" />
    </linearGradient>
    <linearGradient
       xlink:href="#linearGradient38"
       id="linearGradient39"
       x1="150.61324"
       y1="65.000099"
       x2="150.61324"
       y2="25.579811"
       gradientUnits="userSpaceOnUse" />
    <filter
       style="color-interpolation-filters:sRGB"
       id="filter39"
       x="-0.030947896"
       y="-0.023945386"
       width="1.0618958"
       height="1.0478908">
      <feGaussianBlur
         stdDeviation="0.52879393"
         id="feGaussianBlur39" />
    </filter>
  </defs>
  <g
     id="g39"
     transform="translate(-10.222995,-4.7308946)">
    <path
       id="path1"
       style="display:inline;opacity:0.6;fill:#039bfc;filter:url(#filter39)"
       d="m 151.80394,7.0001 -0.004,0.00195 -19.35351,0.00391 c -1.35355,0 -2.45703,1.1084593 -2.45703,2.4648437 V 57.533303 c 0,1.356386 1.10343,2.466797 2.45703,2.466797 h 36.09375 c 1.35354,0 2.45703,-1.110412 2.45703,-2.466797 V 26.183694 c 0,-0.440775 -0.10327,-0.93784 -0.29297,-1.464844 h 0.0606 l -0.35547,-0.722656 c -0.0256,-0.05172 -0.0587,-0.104197 -0.0859,-0.15625 l -0.0605,-0.125 h -0.008 c -0.33862,-0.618179 -0.7885,-1.252822 -1.38476,-1.84961 l -0.002,-0.002 L 156.26488,9.1524437 C 155.67159,8.4151755 155.0115,7.918962 154.36644,7.59385 154.28114,7.550863 154.19507,7.50998 154.11058,7.4727562 l -0.0859,-0.037109 -0.0312,-0.00195 C 153.20882,7.1007523 152.46804,7.0001 151.90941,7.0001 Z m 0.11523,1.0019531 c 0.37972,7.572e-4 0.91296,0.1248404 1.44727,0.3105469 v 13.935547 c 0,1.22231 0.89866,2.235584 2.06641,2.425781 0.12731,0.02382 0.25744,0.03746 0.39062,0.04102 0.0224,5.98e-4 0.0439,0.0039 0.0664,0.0039 h 13.69336 c 0.23563,0.562366 0.41406,1.117889 0.41406,1.464844 v 31.349609 c 0,0.822556 -0.64278,1.466797 -1.45703,1.466797 h -36.09375 c -0.81435,0 -1.45703,-0.644183 -1.45703,-1.466797 V 9.4708031 c 0,-0.8225555 0.64277,-1.4667967 1.45703,-1.4667969 z m 2.47071,0.9238281 c 0.38082,0.2545633 0.76637,0.4323997 1.12695,0.8886719 l 0.0176,0.021484 12.62695,12.7343749 c 0.37192,0.371984 0.57528,0.75943 0.82813,1.144532 h -13.16602 c -0.0687,0 -0.13319,-0.01063 -0.19922,-0.01953 -0.70854,-0.123274 -1.23436,-0.730184 -1.23437,-1.478515 z m 0.65625,23.4804688 c -1.25105,0 -2.36912,0.200671 -3.35938,0.59375 a 6.8032836,6.8032836 0 0 0 -2.5332,1.75 c -0.68789,0.76348 -1.21579,1.703757 -1.59375,2.830078 -0.36284,1.122542 -0.54492,2.411788 -0.54492,3.859375 a 11.648733,11.648733 0 0 0 0.59375,3.875 8.26221,8.26221 0 0 0 1.64062,2.845703 7.113211,7.113211 0 0 0 2.51367,1.763672 c 0.97136,0.393079 2.0329,0.59375 3.18946,0.59375 a 8.9387587,8.9387587 0 0 0 3.34375,-0.59375 6.8032836,6.8032836 0 0 0 2.5332,-1.763672 7.7141677,7.7141677 0 0 0 1.58789,-2.845703 c 0.37796,-1.126321 0.56641,-2.416073 0.56641,-3.875 v -0.0039 c 0,-1.443808 -0.20066,-2.732928 -0.59375,-3.855469 -0.39686,-1.126322 -0.94764,-2.066598 -1.65821,-2.830078 -0.69544,-0.767259 -1.53046,-1.353141 -2.49804,-1.75 -0.96758,-0.393078 -2.03472,-0.59375 -3.1875,-0.59375 z m -0.0645,3.84375 c 1.11499,0 1.91686,0.435126 2.40821,1.296875 0.48757,0.85419 0.73242,2.153961 0.73242,3.892578 0,1.731058 -0.24106,3.035622 -0.73242,3.923828 -0.48757,0.884427 -1.28087,1.326172 -2.37696,1.326172 -1.10364,0 -1.89732,-0.439412 -2.38867,-1.3125 -0.49134,-0.888207 -0.73828,-2.198883 -0.73828,-3.9375 h 0.004 c 0,-1.738617 0.23874,-3.038388 0.71875,-3.892578 0.48757,-0.861749 1.27696,-1.296875 2.37304,-1.296875 z m -14.64648,9.248047 a 3.5792831,3.5792831 0 0 0 -0.77734,0.128906 2.0296463,2.0296463 0 0 0 -1.35743,1.208985 c -0.12472,0.313707 -0.18554,0.703077 -0.18554,1.167968 h -0.004 a 3.0879348,3.0879348 0 0 0 0.18945,1.138672 2.0409851,2.0409851 0 0 0 1.35352,1.228516 3.2466781,3.2466781 0 0 0 1.95117,0 2.0372055,2.0372055 0 0 0 1.35547,-1.228516 2.8913955,2.8913955 0 0 0 0.20508,-1.138672 2.9745468,2.9745468 0 0 0 -0.20117,-1.167968 2.0258667,2.0258667 0 0 0 -1.35742,-1.208985 3.5792831,3.5792831 0 0 0 -1.17188,-0.128906 z"
       transform="translate(-118.4973,-1.0001)" />
    <path
       id="path38"
       style="fill:url(#linearGradient39);fill-opacity:1"
       d="m 151.80394,7.0001 -0.004,0.00195 -19.35351,0.00391 c -1.35355,0 -2.45703,1.1084593 -2.45703,2.4648437 V 57.533303 c 0,1.356386 1.10343,2.466797 2.45703,2.466797 h 36.09375 c 1.35354,0 2.45703,-1.110412 2.45703,-2.466797 V 26.183694 c 0,-0.440775 -0.10327,-0.93784 -0.29297,-1.464844 h 0.0606 l -0.35547,-0.722656 c -0.0256,-0.05172 -0.0587,-0.104197 -0.0859,-0.15625 l -0.0605,-0.125 h -0.008 c -0.33862,-0.618179 -0.7885,-1.252822 -1.38476,-1.84961 l -0.002,-0.002 L 156.26488,9.1524437 C 155.67159,8.4151755 155.0115,7.918962 154.36644,7.59385 154.28114,7.550863 154.19507,7.50998 154.11058,7.4727562 l -0.0859,-0.037109 -0.0312,-0.00195 C 153.20882,7.1007523 152.46804,7.0001 151.90941,7.0001 Z m 0.11523,1.0019531 c 0.37972,7.572e-4 0.91296,0.1248404 1.44727,0.3105469 v 13.935547 c 0,1.22231 0.89866,2.235584 2.06641,2.425781 0.12731,0.02382 0.25744,0.03746 0.39062,0.04102 0.0224,5.98e-4 0.0439,0.0039 0.0664,0.0039 h 13.69336 c 0.23563,0.562366 0.41406,1.117889 0.41406,1.464844 v 31.349609 c 0,0.822556 -0.64278,1.466797 -1.45703,1.466797 h -36.09375 c -0.81435,0 -1.45703,-0.644183 -1.45703,-1.466797 V 9.4708031 c 0,-0.8225555 0.64277,-1.4667967 1.45703,-1.4667969 z m 2.47071,0.9238281 c 0.38082,0.2545633 0.76637,0.4323997 1.12695,0.8886719 l 0.0176,0.021484 12.62695,12.7343749 c 0.37192,0.371984 0.57528,0.75943 0.82813,1.144532 h -13.16602 c -0.0687,0 -0.13319,-0.01063 -0.19922,-0.01953 -0.70854,-0.123274 -1.23436,-0.730184 -1.23437,-1.478515 z m 0.65625,23.4804688 c -1.25105,0 -2.36912,0.200671 -3.35938,0.59375 a 6.8032836,6.8032836 0 0 0 -2.5332,1.75 c -0.68789,0.76348 -1.21579,1.703757 -1.59375,2.830078 -0.36284,1.122542 -0.54492,2.411788 -0.54492,3.859375 a 11.648733,11.648733 0 0 0 0.59375,3.875 8.26221,8.26221 0 0 0 1.64062,2.845703 7.113211,7.113211 0 0 0 2.51367,1.763672 c 0.97136,0.393079 2.0329,0.59375 3.18946,0.59375 a 8.9387587,8.9387587 0 0 0 3.34375,-0.59375 6.8032836,6.8032836 0 0 0 2.5332,-1.763672 7.7141677,7.7141677 0 0 0 1.58789,-2.845703 c 0.37796,-1.126321 0.56641,-2.416073 0.56641,-3.875 v -0.0039 c 0,-1.443808 -0.20066,-2.732928 -0.59375,-3.855469 -0.39686,-1.126322 -0.94764,-2.066598 -1.65821,-2.830078 -0.69544,-0.767259 -1.53046,-1.353141 -2.49804,-1.75 -0.96758,-0.393078 -2.03472,-0.59375 -3.1875,-0.59375 z m -0.0645,3.84375 c 1.11499,0 1.91686,0.435126 2.40821,1.296875 0.48757,0.85419 0.73242,2.153961 0.73242,3.892578 0,1.731058 -0.24106,3.035622 -0.73242,3.923828 -0.48757,0.884427 -1.28087,1.326172 -2.37696,1.326172 -1.10364,0 -1.89732,-0.439412 -2.38867,-1.3125 -0.49134,-0.888207 -0.73828,-2.198883 -0.73828,-3.9375 h 0.004 c 0,-1.738617 0.23874,-3.038388 0.71875,-3.892578 0.48757,-0.861749 1.27696,-1.296875 2.37304,-1.296875 z m -14.64648,9.248047 a 3.5792831,3.5792831 0 0 0 -0.77734,0.128906 2.0296463,2.0296463 0 0 0 -1.35743,1.208985 c -0.12472,0.313707 -0.18554,0.703077 -0.18554,1.167968 h -0.004 a 3.0879348,3.0879348 0 0 0 0.18945,1.138672 2.0409851,2.0409851 0 0 0 1.35352,1.228516 3.2466781,3.2466781 0 0 0 1.95117,0 2.0372055,2.0372055 0 0 0 1.35547,-1.228516 2.8913955,2.8913955 0 0 0 0.20508,-1.138672 2.9745468,2.9745468 0 0 0 -0.20117,-1.167968 2.0258667,2.0258667 0 0 0 -1.35742,-1.208985 3.5792831,3.5792831 0 0 0 -1.17188,-0.128906 z"
       transform="translate(-118.4973,-1.0001)" />
  </g>
</svg>
