<?xml version="1.0" encoding="UTF-8" standalone="no"?>
<svg
   width="43.546024"
   height="55.538212"
   version="1.1"
   viewBox="0 0 43.546024 55.538212"
   id="svg3"
   xmlns:xlink="http://www.w3.org/1999/xlink"
   xmlns="http://www.w3.org/2000/svg"
   xmlns:svg="http://www.w3.org/2000/svg">
  <defs
     id="defs3">
    <linearGradient
       id="linearGradient20">
      <stop
         style="stop-color:#00abff;stop-opacity:0;"
         offset="0"
         id="stop21" />
      <stop
         style="stop-color:#00abff;stop-opacity:1;"
         offset="1"
         id="stop20" />
    </linearGradient>
    <linearGradient
       xlink:href="#linearGradient20"
       id="linearGradient21"
       x1="150.7825"
       y1="65.000099"
       x2="150.7825"
       y2="25.071402"
       gradientUnits="userSpaceOnUse" />
    <filter
       style="color-interpolation-filters:sRGB"
       id="filter21"
       x="-0.030947896"
       y="-0.023945386"
       width="1.0618958"
       height="1.0478908">
      <feGaussianBlur
         stdDeviation="0.52879393"
         id="feGaussianBlur21" />
    </filter>
  </defs>
  <g
     id="g21"
     transform="translate(-10.222995,-4.7308946)">
    <path
       id="path1"
       style="display:inline;opacity:0.6;fill:#00abff;fill-opacity:1;stroke:none;filter:url(#filter21)"
       d="m 151.80394,7.0001 -0.004,0.00195 -19.35351,0.00391 c -1.35355,0 -2.45703,1.1084593 -2.45703,2.4648437 V 57.533303 c 0,1.356386 1.10343,2.466797 2.45703,2.466797 h 36.09375 c 1.35354,0 2.45703,-1.110412 2.45703,-2.466797 V 26.183694 c 0,-0.440775 -0.10327,-0.93784 -0.29297,-1.464844 h 0.0606 l -0.35547,-0.722656 c -0.0256,-0.05172 -0.0587,-0.104197 -0.0859,-0.15625 l -0.0605,-0.125 h -0.008 c -0.33862,-0.618179 -0.7885,-1.252822 -1.38476,-1.84961 l -0.002,-0.002 L 156.26488,9.1524437 C 155.67159,8.4151755 155.0115,7.918962 154.36644,7.59385 154.28114,7.550863 154.19507,7.50998 154.11058,7.4727562 l -0.0859,-0.037109 -0.0312,-0.00195 C 153.20882,7.1007523 152.46804,7.0001 151.90941,7.0001 Z m 0.11523,1.0019531 c 0.37972,7.572e-4 0.91296,0.1248404 1.44727,0.3105469 v 13.935547 c 0,1.22231 0.89866,2.235584 2.06641,2.425781 0.12731,0.02382 0.25744,0.03746 0.39062,0.04102 0.0224,5.98e-4 0.0439,0.0039 0.0664,0.0039 h 13.69336 c 0.23563,0.562366 0.41406,1.117889 0.41406,1.464844 v 31.349609 c 0,0.822556 -0.64278,1.466797 -1.45703,1.466797 h -36.09375 c -0.81435,0 -1.45703,-0.644183 -1.45703,-1.466797 V 9.4708031 c 0,-0.8225555 0.64277,-1.4667967 1.45703,-1.4667969 z m 2.47071,0.9238281 c 0.38082,0.2545633 0.76637,0.4323997 1.12695,0.8886719 l 0.0176,0.021484 12.62695,12.7343749 c 0.37192,0.371984 0.57528,0.75943 0.82813,1.144532 h -13.16602 c -0.0687,0 -0.13319,-0.01063 -0.19922,-0.01953 -0.70854,-0.123274 -1.23436,-0.730184 -1.23437,-1.478515 z M 151.85863,29.71885 c -2.63564,0 -5.01788,0.593888 -7.14453,1.783203 -2.12918,1.179235 -3.79418,2.833715 -4.9961,4.962891 -1.19435,2.129176 -1.79101,4.49477 -1.79101,7.097656 0,2.136735 0.45643,4.027055 1.37109,5.669922 0.92474,1.637827 2.25331,2.897389 3.98438,3.779297 1.74365,0.894505 3.77502,1.341797 6.0957,1.341797 1.6731,0 3.32342,-0.214224 4.95117,-0.642578 1.63783,-0.420796 3.15346,-1.03353 4.54688,-1.839844 l -0.79297,-1.560547 c -1.53704,0.806315 -3.02469,1.381359 -4.46094,1.726562 -1.43373,0.352764 -2.84821,0.529297 -4.24414,0.529297 -1.90492,0 -3.57547,-0.366366 -5.01172,-1.099609 -1.42617,-0.735762 -2.5189,-1.786647 -3.27734,-3.152344 -0.75088,-1.375775 -1.125,-2.961808 -1.125,-4.755859 0,-2.323196 0.5088,-4.418033 1.52929,-6.285156 1.0205,-1.877203 2.42584,-3.3133 4.21485,-4.308594 1.79153,-0.995296 3.85145,-1.492188 6.17968,-1.492188 1.86965,0 3.50251,0.348909 4.89844,1.046875 1.39594,0.687888 2.46428,1.678079 3.20508,2.970703 0.7408,1.280026 1.11133,2.751038 1.11133,4.414063 0,1.368216 -0.18706,2.615866 -0.5625,3.742187 -0.37544,1.123802 -0.89174,2.004519 -1.54688,2.644532 -0.64505,0.642532 -1.35062,0.964843 -2.11914,0.964843 -0.77859,0 -1.16797,-0.438152 -1.16797,-1.3125 0,-0.826473 0.17654,-2.000951 0.5293,-3.52539 l 1.67774,-7.052735 h -2.25391 l -0.5625,2.230469 h -0.0859 c -0.79119,-1.693261 -2.24116,-2.541015 -4.34765,-2.541015 -1.35814,0 -2.5947,0.385211 -3.71094,1.15625 -1.11624,0.773558 -1.98782,1.816691 -2.61524,3.126953 -0.61481,1.310262 -0.92187,2.727513 -0.92187,4.251953 0,1.680662 0.41181,2.995372 1.23828,3.945312 0.83907,0.947421 2.0155,1.421875 3.52734,1.421875 1.08853,0 2.09895,-0.284622 3.03125,-0.851562 0.94238,-0.57702 1.73027,-1.436119 2.36524,-2.580078 h 0.0879 l -0.043,0.978515 c 0,0.816394 0.26023,1.42774 0.7793,1.835938 0.52158,0.410716 1.25847,0.617187 2.21093,0.617187 1.22208,0 2.32395,-0.383004 3.30664,-1.146484 0.99026,-0.76096 1.76125,-1.837056 2.31055,-3.230469 0.55938,-1.403493 0.83789,-2.970681 0.83789,-4.699219 0,-2.025866 -0.44868,-3.806712 -1.3457,-5.34375 -0.88443,-1.531998 -2.16781,-2.716182 -3.85352,-3.552734 -1.68318,-0.844111 -3.68657,-1.265625 -6.00976,-1.265625 z m -1.03711,7.109375 c 1.05829,0 1.90604,0.292374 2.54101,0.876953 0.63453,0.576612 0.95268,1.340055 0.95313,2.289063 -2.7e-4,0.491195 -0.11252,1.163858 -0.33399,2.019531 -0.383,1.458926 -1.07527,2.675253 -2.07812,3.650391 -1.00033,0.975137 -2.10221,1.46289 -3.30664,1.46289 -0.95246,0 -1.65998,-0.315379 -2.12109,-0.945312 -0.45356,-0.632454 -0.67969,-1.506805 -0.67969,-2.623047 0,-1.217032 0.21699,-2.346069 0.65039,-3.386719 0.43339,-1.050729 1.02451,-1.866593 1.77539,-2.451172 0.76096,-0.594657 1.62699,-0.892578 2.59961,-0.892578 z"
       transform="translate(-118.4973,-1.0001)" />
    <path
       id="path20"
       style="fill:url(#linearGradient21);fill-opacity:1;stroke:none"
       d="m 151.80394,7.0001 -0.004,0.00195 -19.35351,0.00391 c -1.35355,0 -2.45703,1.1084593 -2.45703,2.4648437 V 57.533303 c 0,1.356386 1.10343,2.466797 2.45703,2.466797 h 36.09375 c 1.35354,0 2.45703,-1.110412 2.45703,-2.466797 V 26.183694 c 0,-0.440775 -0.10327,-0.93784 -0.29297,-1.464844 h 0.0606 l -0.35547,-0.722656 c -0.0256,-0.05172 -0.0587,-0.104197 -0.0859,-0.15625 l -0.0605,-0.125 h -0.008 c -0.33862,-0.618179 -0.7885,-1.252822 -1.38476,-1.84961 l -0.002,-0.002 L 156.26488,9.1524437 C 155.67159,8.4151755 155.0115,7.918962 154.36644,7.59385 154.28114,7.550863 154.19507,7.50998 154.11058,7.4727562 l -0.0859,-0.037109 -0.0312,-0.00195 C 153.20882,7.1007523 152.46804,7.0001 151.90941,7.0001 Z m 0.11523,1.0019531 c 0.37972,7.572e-4 0.91296,0.1248404 1.44727,0.3105469 v 13.935547 c 0,1.22231 0.89866,2.235584 2.06641,2.425781 0.12731,0.02382 0.25744,0.03746 0.39062,0.04102 0.0224,5.98e-4 0.0439,0.0039 0.0664,0.0039 h 13.69336 c 0.23563,0.562366 0.41406,1.117889 0.41406,1.464844 v 31.349609 c 0,0.822556 -0.64278,1.466797 -1.45703,1.466797 h -36.09375 c -0.81435,0 -1.45703,-0.644183 -1.45703,-1.466797 V 9.4708031 c 0,-0.8225555 0.64277,-1.4667967 1.45703,-1.4667969 z m 2.47071,0.9238281 c 0.38082,0.2545633 0.76637,0.4323997 1.12695,0.8886719 l 0.0176,0.021484 12.62695,12.7343749 c 0.37192,0.371984 0.57528,0.75943 0.82813,1.144532 h -13.16602 c -0.0687,0 -0.13319,-0.01063 -0.19922,-0.01953 -0.70854,-0.123274 -1.23436,-0.730184 -1.23437,-1.478515 z M 151.85863,29.71885 c -2.63564,0 -5.01788,0.593888 -7.14453,1.783203 -2.12918,1.179235 -3.79418,2.833715 -4.9961,4.962891 -1.19435,2.129176 -1.79101,4.49477 -1.79101,7.097656 0,2.136735 0.45643,4.027055 1.37109,5.669922 0.92474,1.637827 2.25331,2.897389 3.98438,3.779297 1.74365,0.894505 3.77502,1.341797 6.0957,1.341797 1.6731,0 3.32342,-0.214224 4.95117,-0.642578 1.63783,-0.420796 3.15346,-1.03353 4.54688,-1.839844 l -0.79297,-1.560547 c -1.53704,0.806315 -3.02469,1.381359 -4.46094,1.726562 -1.43373,0.352764 -2.84821,0.529297 -4.24414,0.529297 -1.90492,0 -3.57547,-0.366366 -5.01172,-1.099609 -1.42617,-0.735762 -2.5189,-1.786647 -3.27734,-3.152344 -0.75088,-1.375775 -1.125,-2.961808 -1.125,-4.755859 0,-2.323196 0.5088,-4.418033 1.52929,-6.285156 1.0205,-1.877203 2.42584,-3.3133 4.21485,-4.308594 1.79153,-0.995296 3.85145,-1.492188 6.17968,-1.492188 1.86965,0 3.50251,0.348909 4.89844,1.046875 1.39594,0.687888 2.46428,1.678079 3.20508,2.970703 0.7408,1.280026 1.11133,2.751038 1.11133,4.414063 0,1.368216 -0.18706,2.615866 -0.5625,3.742187 -0.37544,1.123802 -0.89174,2.004519 -1.54688,2.644532 -0.64505,0.642532 -1.35062,0.964843 -2.11914,0.964843 -0.77859,0 -1.16797,-0.438152 -1.16797,-1.3125 0,-0.826473 0.17654,-2.000951 0.5293,-3.52539 l 1.67774,-7.052735 h -2.25391 l -0.5625,2.230469 h -0.0859 c -0.79119,-1.693261 -2.24116,-2.541015 -4.34765,-2.541015 -1.35814,0 -2.5947,0.385211 -3.71094,1.15625 -1.11624,0.773558 -1.98782,1.816691 -2.61524,3.126953 -0.61481,1.310262 -0.92187,2.727513 -0.92187,4.251953 0,1.680662 0.41181,2.995372 1.23828,3.945312 0.83907,0.947421 2.0155,1.421875 3.52734,1.421875 1.08853,0 2.09895,-0.284622 3.03125,-0.851562 0.94238,-0.57702 1.73027,-1.436119 2.36524,-2.580078 h 0.0879 l -0.043,0.978515 c 0,0.816394 0.26023,1.42774 0.7793,1.835938 0.52158,0.410716 1.25847,0.617187 2.21093,0.617187 1.22208,0 2.32395,-0.383004 3.30664,-1.146484 0.99026,-0.76096 1.76125,-1.837056 2.31055,-3.230469 0.55938,-1.403493 0.83789,-2.970681 0.83789,-4.699219 0,-2.025866 -0.44868,-3.806712 -1.3457,-5.34375 -0.88443,-1.531998 -2.16781,-2.716182 -3.85352,-3.552734 -1.68318,-0.844111 -3.68657,-1.265625 -6.00976,-1.265625 z m -1.03711,7.109375 c 1.05829,0 1.90604,0.292374 2.54101,0.876953 0.63453,0.576612 0.95268,1.340055 0.95313,2.289063 -2.7e-4,0.491195 -0.11252,1.163858 -0.33399,2.019531 -0.383,1.458926 -1.07527,2.675253 -2.07812,3.650391 -1.00033,0.975137 -2.10221,1.46289 -3.30664,1.46289 -0.95246,0 -1.65998,-0.315379 -2.12109,-0.945312 -0.45356,-0.632454 -0.67969,-1.506805 -0.67969,-2.623047 0,-1.217032 0.21699,-2.346069 0.65039,-3.386719 0.43339,-1.050729 1.02451,-1.866593 1.77539,-2.451172 0.76096,-0.594657 1.62699,-0.892578 2.59961,-0.892578 z"
       transform="translate(-118.4973,-1.0001)" />
  </g>
</svg>
