<?xml version="1.0" encoding="UTF-8" standalone="no"?>
<svg
   width="43.546036"
   height="55.538254"
   version="1.1"
   viewBox="0 0 11.521328 14.694207"
   id="svg4"
   xmlns:xlink="http://www.w3.org/1999/xlink"
   xmlns="http://www.w3.org/2000/svg"
   xmlns:svg="http://www.w3.org/2000/svg">
  <defs
     id="defs4">
    <linearGradient
       id="linearGradient5">
      <stop
         style="stop-color:#00abff;stop-opacity:0;"
         offset="0"
         id="stop6" />
      <stop
         style="stop-color:#00abff;stop-opacity:1;"
         offset="1"
         id="stop5" />
    </linearGradient>
    <linearGradient
       xlink:href="#linearGradient5"
       id="linearGradient6"
       x1="149.79759"
       y1="64.999619"
       x2="149.79759"
       y2="28.036167"
       gradientUnits="userSpaceOnUse" />
    <filter
       style="color-interpolation-filters:sRGB"
       id="filter6"
       x="-0.030947905"
       y="-0.023945381"
       width="1.0618958"
       height="1.0478908">
      <feGaussianBlur
         stdDeviation="0.52879047"
         id="feGaussianBlur6" />
    </filter>
  </defs>
  <g
     id="g6"
     transform="translate(-2.7058098,-1.2516802)">
    <path
       id="path1"
       style="display:inline;opacity:0.6;fill:#00abff;fill-opacity:1;stroke:none;filter:url(#filter6)"
       d="m 151.80377,7.0000331 -0.004,0.00195 -19.35338,0.00391 c -1.35355,0 -2.45702,1.1084419 -2.45702,2.4648263 V 57.532878 c 0,1.356386 1.10342,2.466779 2.45702,2.466779 h 36.09349 c 1.35354,0 2.45702,-1.110394 2.45702,-2.466779 V 26.183491 c 0,-0.440775 -0.10327,-0.93783 -0.29297,-1.464833 h 0.0625 l -0.35547,-0.722652 c -0.0312,-0.06312 -0.0698,-0.127807 -0.10351,-0.191405 l -0.0449,-0.08984 h -0.006 c -0.33862,-0.618178 -0.7885,-1.252808 -1.38476,-1.849596 l -0.002,-0.002 -12.60538,-12.7108474 c -0.59329,-0.7372684 -1.25337,-1.2334707 -1.89843,-1.5585827 -0.0853,-0.042987 -0.17136,-0.08387 -0.25585,-0.1210929 l -0.0859,-0.037109 -0.0312,-0.00195 c -0.78449,-0.3328652 -1.52539,-0.4335906 -2.08397,-0.4335906 z m 0.11524,1.001946 c 0.37972,7.572e-4 0.91294,0.1248382 1.44725,0.3105447 V 22.247972 c 0,1.22231 0.89864,2.235567 2.06639,2.425764 0.12732,0.02382 0.25744,0.03745 0.39062,0.04101 0.0224,5.98e-4 0.0439,0.0039 0.0664,0.0039 h 13.69522 c 0.23563,0.562368 0.41406,1.117877 0.41406,1.464833 v 31.349387 c 0,0.822556 -0.64278,1.466787 -1.45703,1.466787 h -36.09544 c -0.81435,0 -1.45702,-0.644173 -1.45702,-1.466787 V 9.4707187 c 0,-0.8225555 0.64276,-1.4667865 1.45702,-1.4667865 z m 2.47068,0.9238216 c 0.38082,0.2545631 0.76637,0.4323934 1.12695,0.8886656 l 0.0176,0.021484 12.62882,12.7342847 c 0.37192,0.371983 0.57527,0.759423 0.82812,1.144523 H 155.8233 c -0.0687,0 -0.13319,-0.01063 -0.19921,-0.01953 -0.70854,-0.123275 -1.23436,-0.730174 -1.23437,-1.478505 z m -3.93161,19.0916613 c -6.65976,0.0075 -12.9628,5.507511 -12.9628,13.007721 0,4.159955 1.8222,7.428899 4.34763,9.626884 2.27974,1.984156 5.12517,3.051912 7.77924,3.244118 0.36598,0.06812 0.65441,0.0995 0.84179,0.103515 0.002,5.28e-4 0.005,0.002 0.008,0.002 v -0.002 c 0.0153,2.87e-4 0.0388,0.002 0.0527,0.002 6.66481,0 12.96866,-5.500415 12.96866,-13.005767 0,-4.159963 -1.81434,-7.428904 -4.33981,-9.626885 -0.6329,-0.550829 -1.3545,-0.788199 -2.09764,-0.984368 -1.63196,-1.163081 -3.42885,-1.913756 -5.04684,-2.214828 -0.47661,-0.118591 -0.88087,-0.155856 -1.23046,-0.14453 -0.0841,-0.0035 -0.16766,-0.0052 -0.25,-0.0059 -0.001,-2.4e-4 -0.003,-0.002 -0.004,-0.002 v 0.002 c -0.0174,-1.29e-4 -0.0354,-0.002 -0.0527,-0.002 -0.004,0 -0.008,-4e-6 -0.0117,0 z m 0.0137,0.99804 c 0.0398,0 0.0825,0.003 0.12305,0.0039 1.26712,0.03609 2.53079,1.031528 3.86325,1.531239 0.14196,0.105371 0.27371,0.117176 0.41406,0.236327 1.75653,1.491233 3.35935,4.070194 3.35935,8.517518 0,5.065599 -3.75829,7.898451 -6.57026,7.599555 1.06243,-0.640885 2.97458,-2.204515 2.97458,-5.841755 0,-2.448635 -0.96762,-4.110041 -1.9492,-5.123011 -0.49079,-0.506485 -0.9794,-0.858337 -1.35741,-1.08593 -0.12387,-0.07458 -0.20585,-0.113133 -0.29688,-0.160155 l 0.10352,-0.525387 -0.6914,0.277342 c -0.83837,-0.257474 -1.6376,-0.302503 -2.37108,-0.101562 -0.0901,0.02469 -0.17815,0.05395 -0.26562,0.08594 -1.10985,0.117395 -2.18554,0.533894 -3.10154,1.31835 -1.69682,1.453137 -2.87108,3.863506 -2.87108,7.003857 0,3.861202 1.12066,6.450589 2.56444,8.146426 -0.67196,-0.211343 -1.31773,-0.492887 -1.90038,-0.999992 -2.33691,-2.033911 -3.99997,-5.00248 -3.99997,-8.872984 0,-6.943966 5.85864,-12.009682 11.97257,-12.009681 z m 6.0234,2.332015 c 0.14014,0.0829 0.28653,0.140085 0.43359,0.187498 0.0624,0.04861 0.12594,0.09457 0.18749,0.144531 2.14845,1.743943 3.79041,4.269361 3.7949,7.529243 0.004,2.743953 -1.33678,6.555241 -3.25584,8.615174 -0.95953,1.029964 -2.01364,1.606526 -3.1074,1.55077 -0.75087,-0.03829 -1.59406,-0.557992 -2.47459,-1.431631 3.38814,0.03642 7.16206,-3.356357 7.16206,-8.63861 0,-3.8059 -1.25674,-6.204371 -2.74021,-7.956975 z m -6.01363,4.191376 c 0.0907,0.04472 0.19751,0.09792 0.33007,0.177733 0.31787,0.191379 0.73979,0.492037 1.1582,0.923822 0.83681,0.863571 1.66991,2.231807 1.66991,4.421844 0,3.751332 -2.47259,5.173903 -3.16014,5.498008 -0.0933,-0.0452 -0.20035,-0.09651 -0.33203,-0.17578 -0.31786,-0.19136 -0.73978,-0.492032 -1.15819,-0.923822 -0.83681,-0.86358 -1.66991,-2.237666 -1.66991,-4.427703 0,-4.065839 2.78204,-5.33647 3.16209,-5.494102 z m 10.78117,0.115234 c 0.77356,1.529887 1.23437,3.31023 1.23437,5.341759 0,6.943964 -5.85864,12.003821 -11.97258,12.003821 -0.005,0 -0.0197,-0.0018 -0.0254,-0.002 -0.59742,-0.08863 -1.73593,-0.320427 -2.81052,-1.609364 -1.10084,-1.320428 -2.13455,-3.805929 -2.1621,-8.509705 -0.0184,-3.174507 0.51783,-5.342793 1.35742,-6.50386 0.13423,-0.185633 0.27572,-0.344501 0.42187,-0.482419 0.37248,-0.01377 0.74898,-0.01164 1.12108,-0.04297 -1.04978,1.005875 -2.11131,2.589367 -2.11131,5.183557 0,2.448636 0.96762,4.110028 1.9492,5.123011 0.4908,0.506489 0.98721,0.856385 1.36523,1.083976 0.26505,0.159563 0.422,0.233413 0.53906,0.283201 1.40728,1.870118 2.88221,2.77403 4.32614,2.847636 1.47649,0.07525 2.80656,-0.70356 3.8906,-1.867174 2.16807,-2.327228 3.53345,-6.239126 3.52927,-9.294856 -0.002,-1.287366 -0.24216,-2.473424 -0.65234,-3.554662 z m -15.46864,0.560543 c -0.86727,1.476006 -1.28878,3.688202 -1.27148,6.669874 0.027,4.609396 1.07079,7.096679 2.28124,8.689392 -0.11212,-0.03915 -0.22519,-0.07092 -0.33789,-0.105468 -0.0229,-0.01679 -0.0456,-0.03168 -0.0684,-0.04883 -1.82006,-1.368059 -3.55857,-3.865847 -3.55857,-8.667907 0,-2.893061 1.06217,-4.99771 2.51756,-6.244097 0.14097,-0.120721 0.28748,-0.215128 0.4375,-0.292966 z"
       transform="matrix(0.26458,0,0,0.26458,-31.351,-0.26460001)" />
    <path
       id="path5"
       style="fill:url(#linearGradient6);fill-opacity:1;stroke:none"
       d="m 151.80377,7.0000331 -0.004,0.00195 -19.35338,0.00391 c -1.35355,0 -2.45702,1.1084419 -2.45702,2.4648263 V 57.532878 c 0,1.356386 1.10342,2.466779 2.45702,2.466779 h 36.09349 c 1.35354,0 2.45702,-1.110394 2.45702,-2.466779 V 26.183491 c 0,-0.440775 -0.10327,-0.93783 -0.29297,-1.464833 h 0.0625 l -0.35547,-0.722652 c -0.0312,-0.06312 -0.0698,-0.127807 -0.10351,-0.191405 l -0.0449,-0.08984 h -0.006 c -0.33862,-0.618178 -0.7885,-1.252808 -1.38476,-1.849596 l -0.002,-0.002 -12.60538,-12.7108474 c -0.59329,-0.7372684 -1.25337,-1.2334707 -1.89843,-1.5585827 -0.0853,-0.042987 -0.17136,-0.08387 -0.25585,-0.1210929 l -0.0859,-0.037109 -0.0312,-0.00195 c -0.78449,-0.3328652 -1.52539,-0.4335906 -2.08397,-0.4335906 z m 0.11524,1.001946 c 0.37972,7.572e-4 0.91294,0.1248382 1.44725,0.3105447 V 22.247972 c 0,1.22231 0.89864,2.235567 2.06639,2.425764 0.12732,0.02382 0.25744,0.03745 0.39062,0.04101 0.0224,5.98e-4 0.0439,0.0039 0.0664,0.0039 h 13.69522 c 0.23563,0.562368 0.41406,1.117877 0.41406,1.464833 v 31.349387 c 0,0.822556 -0.64278,1.466787 -1.45703,1.466787 h -36.09544 c -0.81435,0 -1.45702,-0.644173 -1.45702,-1.466787 V 9.4707187 c 0,-0.8225555 0.64276,-1.4667865 1.45702,-1.4667865 z m 2.47068,0.9238216 c 0.38082,0.2545631 0.76637,0.4323934 1.12695,0.8886656 l 0.0176,0.021484 12.62882,12.7342847 c 0.37192,0.371983 0.57527,0.759423 0.82812,1.144523 H 155.8233 c -0.0687,0 -0.13319,-0.01063 -0.19921,-0.01953 -0.70854,-0.123275 -1.23436,-0.730174 -1.23437,-1.478505 z m -3.93161,19.0916613 c -6.65976,0.0075 -12.9628,5.507511 -12.9628,13.007721 0,4.159955 1.8222,7.428899 4.34763,9.626884 2.27974,1.984156 5.12517,3.051912 7.77924,3.244118 0.36598,0.06812 0.65441,0.0995 0.84179,0.103515 0.002,5.28e-4 0.005,0.002 0.008,0.002 v -0.002 c 0.0153,2.87e-4 0.0388,0.002 0.0527,0.002 6.66481,0 12.96866,-5.500415 12.96866,-13.005767 0,-4.159963 -1.81434,-7.428904 -4.33981,-9.626885 -0.6329,-0.550829 -1.3545,-0.788199 -2.09764,-0.984368 -1.63196,-1.163081 -3.42885,-1.913756 -5.04684,-2.214828 -0.47661,-0.118591 -0.88087,-0.155856 -1.23046,-0.14453 -0.0841,-0.0035 -0.16766,-0.0052 -0.25,-0.0059 -0.001,-2.4e-4 -0.003,-0.002 -0.004,-0.002 v 0.002 c -0.0174,-1.29e-4 -0.0354,-0.002 -0.0527,-0.002 -0.004,0 -0.008,-4e-6 -0.0117,0 z m 0.0137,0.99804 c 0.0398,0 0.0825,0.003 0.12305,0.0039 1.26712,0.03609 2.53079,1.031528 3.86325,1.531239 0.14196,0.105371 0.27371,0.117176 0.41406,0.236327 1.75653,1.491233 3.35935,4.070194 3.35935,8.517518 0,5.065599 -3.75829,7.898451 -6.57026,7.599555 1.06243,-0.640885 2.97458,-2.204515 2.97458,-5.841755 0,-2.448635 -0.96762,-4.110041 -1.9492,-5.123011 -0.49079,-0.506485 -0.9794,-0.858337 -1.35741,-1.08593 -0.12387,-0.07458 -0.20585,-0.113133 -0.29688,-0.160155 l 0.10352,-0.525387 -0.6914,0.277342 c -0.83837,-0.257474 -1.6376,-0.302503 -2.37108,-0.101562 -0.0901,0.02469 -0.17815,0.05395 -0.26562,0.08594 -1.10985,0.117395 -2.18554,0.533894 -3.10154,1.31835 -1.69682,1.453137 -2.87108,3.863506 -2.87108,7.003857 0,3.861202 1.12066,6.450589 2.56444,8.146426 -0.67196,-0.211343 -1.31773,-0.492887 -1.90038,-0.999992 -2.33691,-2.033911 -3.99997,-5.00248 -3.99997,-8.872984 0,-6.943966 5.85864,-12.009682 11.97257,-12.009681 z m 6.0234,2.332015 c 0.14014,0.0829 0.28653,0.140085 0.43359,0.187498 0.0624,0.04861 0.12594,0.09457 0.18749,0.144531 2.14845,1.743943 3.79041,4.269361 3.7949,7.529243 0.004,2.743953 -1.33678,6.555241 -3.25584,8.615174 -0.95953,1.029964 -2.01364,1.606526 -3.1074,1.55077 -0.75087,-0.03829 -1.59406,-0.557992 -2.47459,-1.431631 3.38814,0.03642 7.16206,-3.356357 7.16206,-8.63861 0,-3.8059 -1.25674,-6.204371 -2.74021,-7.956975 z m -6.01363,4.191376 c 0.0907,0.04472 0.19751,0.09792 0.33007,0.177733 0.31787,0.191379 0.73979,0.492037 1.1582,0.923822 0.83681,0.863571 1.66991,2.231807 1.66991,4.421844 0,3.751332 -2.47259,5.173903 -3.16014,5.498008 -0.0933,-0.0452 -0.20035,-0.09651 -0.33203,-0.17578 -0.31786,-0.19136 -0.73978,-0.492032 -1.15819,-0.923822 -0.83681,-0.86358 -1.66991,-2.237666 -1.66991,-4.427703 0,-4.065839 2.78204,-5.33647 3.16209,-5.494102 z m 10.78117,0.115234 c 0.77356,1.529887 1.23437,3.31023 1.23437,5.341759 0,6.943964 -5.85864,12.003821 -11.97258,12.003821 -0.005,0 -0.0197,-0.0018 -0.0254,-0.002 -0.59742,-0.08863 -1.73593,-0.320427 -2.81052,-1.609364 -1.10084,-1.320428 -2.13455,-3.805929 -2.1621,-8.509705 -0.0184,-3.174507 0.51783,-5.342793 1.35742,-6.50386 0.13423,-0.185633 0.27572,-0.344501 0.42187,-0.482419 0.37248,-0.01377 0.74898,-0.01164 1.12108,-0.04297 -1.04978,1.005875 -2.11131,2.589367 -2.11131,5.183557 0,2.448636 0.96762,4.110028 1.9492,5.123011 0.4908,0.506489 0.98721,0.856385 1.36523,1.083976 0.26505,0.159563 0.422,0.233413 0.53906,0.283201 1.40728,1.870118 2.88221,2.77403 4.32614,2.847636 1.47649,0.07525 2.80656,-0.70356 3.8906,-1.867174 2.16807,-2.327228 3.53345,-6.239126 3.52927,-9.294856 -0.002,-1.287366 -0.24216,-2.473424 -0.65234,-3.554662 z m -15.46864,0.560543 c -0.86727,1.476006 -1.28878,3.688202 -1.27148,6.669874 0.027,4.609396 1.07079,7.096679 2.28124,8.689392 -0.11212,-0.03915 -0.22519,-0.07092 -0.33789,-0.105468 -0.0229,-0.01679 -0.0456,-0.03168 -0.0684,-0.04883 -1.82006,-1.368059 -3.55857,-3.865847 -3.55857,-8.667907 0,-2.893061 1.06217,-4.99771 2.51756,-6.244097 0.14097,-0.120721 0.28748,-0.215128 0.4375,-0.292966 z"
       transform="matrix(0.26458,0,0,0.26458,-31.351,-0.26460001)" />
  </g>
</svg>
