<?xml version="1.0" encoding="UTF-8" standalone="no"?>
<svg
   width="43.546024"
   height="55.538212"
   version="1.1"
   viewBox="0 0 11.521325 14.694196"
   id="svg3"
   xmlns:xlink="http://www.w3.org/1999/xlink"
   xmlns="http://www.w3.org/2000/svg"
   xmlns:svg="http://www.w3.org/2000/svg">
  <defs
     id="defs3">
    <linearGradient
       id="linearGradient4">
      <stop
         style="stop-color:#00abff;stop-opacity:0;"
         offset="0"
         id="stop5" />
      <stop
         style="stop-color:#00abff;stop-opacity:1;"
         offset="1"
         id="stop4" />
    </linearGradient>
    <linearGradient
       xlink:href="#linearGradient4"
       id="linearGradient5"
       x1="149.91397"
       y1="64.998032"
       x2="149.91397"
       y2="24.534554"
       gradientUnits="userSpaceOnUse" />
    <filter
       style="color-interpolation-filters:sRGB"
       id="filter5"
       x="-0.030947895"
       y="-0.023945385"
       width="1.0618958"
       height="1.0478908">
      <feGaussianBlur
         stdDeviation="0.52879019"
         id="feGaussianBlur5" />
    </filter>
  </defs>
  <g
     id="g5"
     transform="translate(-2.7058127,-1.252208)">
    <path
       id="path1"
       style="display:inline;opacity:0.6;fill:#00abff;fill-opacity:1;stroke:none;stroke-opacity:1;filter:url(#filter5)"
       d="m 151.80422,7.0003988 -0.004,0.00195 -19.35338,0.00391 c -1.35355,0 -2.45701,1.1084419 -2.45701,2.4648263 V 57.533244 c 0,1.356386 1.10341,2.466779 2.45701,2.466779 h 36.0935 c 1.35354,0 2.45701,-1.110394 2.45701,-2.466779 V 26.183857 c 0,-0.440775 -0.10327,-0.93783 -0.29297,-1.464834 h 0.0606 l -0.35547,-0.722651 c -0.0256,-0.05172 -0.0587,-0.104196 -0.0859,-0.156249 l -0.0606,-0.124999 h -0.008 c -0.33862,-0.618179 -0.78849,-1.252809 -1.38476,-1.849596 l -0.002,-0.002 -12.60343,-12.7108477 c -0.59286,-0.7367819 -1.25379,-1.2334398 -1.89842,-1.5585827 -0.0858,-0.043269 -0.17088,-0.083655 -0.25586,-0.1210929 l -0.0859,-0.037109 -0.0312,-0.00195 C 153.20908,7.101048 152.46832,7.0003988 151.90968,7.0003988 Z m 0.11523,1.001946 c 0.37972,7.572e-4 0.91295,0.1248382 1.44726,0.3105447 V 22.248338 c 0,1.22231 0.89864,2.235567 2.06639,2.425764 0.12731,0.02382 0.25743,0.03745 0.39062,0.04101 0.0224,5.98e-4 0.0439,0.0039 0.0664,0.0039 h 13.69327 c 0.23563,0.562366 0.41406,1.117879 0.41406,1.464834 v 31.349387 c 0,0.822556 -0.64277,1.466786 -1.45702,1.466786 h -36.0935 c -0.81435,0 -1.45702,-0.644172 -1.45702,-1.466786 V 9.4710844 c 0,-0.8225555 0.64276,-1.4667865 1.45702,-1.4667865 z m 2.47069,0.9238216 c 0.38082,0.2545631 0.76636,0.4323933 1.12694,0.8886655 l 0.0176,0.021484 12.62686,12.7342851 c 0.37192,0.371983 0.57527,0.759422 0.82812,1.144523 h -13.16592 c -0.059,0 -0.1149,-0.011 -0.17187,-0.01758 -0.72221,-0.112338 -1.26171,-0.72263 -1.26171,-1.480458 z m -6.02145,19.2381446 0.0215,0.0078 c -0.85157,-0.05207 -1.72525,0.203211 -2.40623,0.722651 -0.67226,0.512787 -1.136,1.327306 -1.12109,2.273421 -0.0838,0.61247 0.13222,1.13734 0.33203,1.535146 0.1308,0.26042 0.15338,0.425102 0.21289,0.613277 -0.22678,0.04554 -0.45919,0.119139 -0.69336,0.119139 h -6.79878 v 6.849561 l 0.0449,0.0957 c 0.16877,0.367488 0.51885,0.651887 0.87695,0.67187 0.35811,0.02003 0.61866,-0.122173 0.8496,-0.249998 0.23095,-0.127788 0.443,-0.265146 0.61328,-0.347654 0.17029,-0.08251 0.27576,-0.09352 0.30273,-0.08789 l 0.10352,0.02148 0.10351,-0.02148 c 1.18326,-0.247676 2.28761,0.838735 2.34569,2.013657 v 0.03125 l 0.008,0.02148 c 0.0875,0.607805 0.009,1.332754 -0.25,1.890612 -0.2588,0.557858 -0.64845,0.936598 -1.26952,1.046868 -0.7392,0.124801 -1.52338,-0.01594 -2.09764,-0.443357 l -0.0215,-0.01367 -0.0215,-0.01563 c -0.283,-0.170837 -0.60703,-0.259368 -0.91601,-0.154296 -0.30898,0.105072 -0.48238,0.362924 -0.56835,0.58398 -0.17194,0.442135 -0.1442,0.885252 -0.10352,1.216788 v 6.79878 h 7.85346 l 0.0977,-0.05078 c 0.36748,-0.168758 0.65775,-0.520796 0.67773,-0.8789 0.02,-0.358114 -0.12221,-0.618656 -0.25,-0.849603 -0.1278,-0.230932 -0.26515,-0.435183 -0.34765,-0.605464 -0.0825,-0.17027 -0.0935,-0.281606 -0.0879,-0.308592 l 0.0215,-0.0957 -0.0215,-0.103515 c -0.24752,-1.18286 0.84095,-2.297871 2.01561,-2.355452 h 0.0215 0.0215 c 0.60792,-0.08727 1.33274,-0.0089 1.89061,0.249998 0.55786,0.258787 0.93854,0.650329 1.04882,1.271475 0.12259,0.73704 -0.0175,1.523363 -0.44336,2.095689 l -0.0156,0.01562 -0.0137,0.02148 c -0.17082,0.283014 -0.26131,0.607028 -0.15624,0.916009 0.10506,0.30898 0.36291,0.482385 0.58398,0.568355 0.4149,0.161342 0.83364,0.145426 1.15819,0.109374 h 5.84762 v -7.587837 c 0.009,0.0031 0.12592,0.02711 0.30273,0.125 0.18569,0.102917 0.41044,0.248229 0.67773,0.369138 0.21513,0.09729 0.50169,0.12914 0.79101,0.103514 1.57821,0.274851 3.1439,-0.797474 3.38865,-2.384748 0.18176,-0.816294 0.16505,-1.736653 -0.13282,-2.568341 -0.30009,-0.837951 -0.9171,-1.593081 -1.87498,-1.904284 -1.1623,-0.395852 -2.26811,0.05694 -3.14451,0.568356 -0.001,-0.0057 -2e-5,0.0033 -0.002,-0.0078 -0.0276,-0.161199 0.008,-0.487662 -0.006,-0.812494 v -0.02148 -5.787069 h -6.01754 -0.56054 c 0.004,-0.01353 0.0289,-0.129363 0.125,-0.302732 0.10291,-0.185694 0.25607,-0.412394 0.37695,-0.679683 0.0973,-0.215065 0.12125,-0.499822 0.0957,-0.789057 0.27514,-1.579832 -0.80075,-3.146337 -2.39061,-3.388647 -2.4e-4,-5.1e-5 2.4e-4,-0.0078 0,-0.0078 -0.32012,-0.06618 -0.64645,-0.0822 -0.96093,-0.08789 -0.0293,-5.28e-4 -0.0588,-0.01547 -0.0879,-0.01563 -0.01,-4.3e-5 -0.0198,3e-6 -0.0293,0 z m -0.27734,1.001946 c 0.0756,-0.0029 0.15072,-0.0022 0.22461,0.002 h 0.0527 c 0.30921,8.4e-5 0.61388,0.02018 0.90039,0.08203 l 0.0137,0.0059 h 0.0156 c 1.03339,0.15488 1.78995,1.232502 1.58788,2.25975 l -0.0234,0.117187 0.0371,0.119139 c 0.0103,0.03594 10e-4,0.120085 -0.0742,0.287108 -0.0755,0.167023 -0.20423,0.382689 -0.33203,0.613277 -0.1278,0.230588 -0.27284,0.482174 -0.25781,0.841791 0.015,0.359615 0.29396,0.720043 0.66406,0.892571 l 0.10351,0.05273 h 0.79687 5.0195 v 4.820279 0.01367 c 0.008,0.158817 -0.0463,0.545759 0.0234,0.953118 0.0348,0.203681 0.1095,0.443454 0.32422,0.634761 0.21472,0.191322 0.5281,0.254124 0.82031,0.212889 l 0.10351,-0.01367 0.0879,-0.05273 c 0.81526,-0.496383 1.66789,-0.839774 2.46483,-0.568355 h 0.008 c 0.63938,0.204815 1.03202,0.675793 1.25585,1.300772 0.22383,0.624975 0.24269,1.395425 0.0957,2.037095 l -0.008,0.01367 v 0.02344 c -0.15489,1.03343 -1.22469,1.787986 -2.25194,1.585926 l -0.11718,-0.02148 -0.11914,0.0293 c -0.0359,0.0102 -0.1279,0.0091 -0.29492,-0.06641 -0.16702,-0.07555 -0.37489,-0.212054 -0.60547,-0.339841 -0.23059,-0.127788 -0.48803,-0.272854 -0.84765,-0.257811 -0.35962,0.01512 -0.72199,0.301797 -0.89452,0.67187 l -0.043,0.103515 v 6.820264 h -4.88083 l -0.0293,0.0078 c -0.20694,0.02532 -0.54761,-4.02e-4 -0.69336,-0.04492 -0.002,-4.72e-4 -0.006,4.76e-4 -0.008,0 0.002,-0.0045 0.004,-0.0038 0.008,-0.01367 0.61193,-0.830448 0.79053,-1.872882 0.62695,-2.841776 v -0.0078 c -0.17165,-0.966724 -0.84361,-1.643087 -1.61717,-2.001939 -0.76671,-0.355665 -1.63986,-0.441311 -2.42772,-0.332029 -1.72381,0.09823 -3.21782,1.668876 -2.90232,3.470679 -0.0247,0.308413 0.0406,0.595823 0.14843,0.818353 0.12433,0.256596 0.26906,0.477339 0.36914,0.658199 0.0931,0.168267 0.11311,0.275466 0.11719,0.287107 h -6.62105 v -5.882771 -0.0293 c -0.0251,-0.204891 0.001,-0.546789 0.0449,-0.695308 v -0.0059 c 0.83141,0.61564 1.8861,0.79876 2.8574,0.634761 0.96675,-0.171631 1.64111,-0.843595 1.99999,-1.617176 0.35345,-0.761872 0.43834,-1.637781 0.33203,-2.421858 -0.0953,-1.728419 -1.66306,-3.229877 -3.47068,-2.908182 -0.30789,-0.02419 -0.58832,0.03287 -0.81054,0.140624 -0.25659,0.12431 -0.4832,0.276867 -0.66406,0.37695 -0.17177,0.09506 -0.28214,0.114125 -0.28906,0.117187 v -5.609336 h 5.80269 c 0.37872,0 0.9041,-0.008 1.52734,-0.281248 l 0.28124,-0.124999 0.0137,-0.310544 c 0.0284,-0.611188 -0.25403,-1.080128 -0.44922,-1.46874 -0.19519,-0.388612 -0.31208,-0.675729 -0.25781,-0.974602 l 0.0137,-0.05273 -0.008,-0.05078 c -0.0227,-0.620523 0.27242,-1.1171 0.7539,-1.484365 0.41592,-0.317255 0.97292,-0.505224 1.50194,-0.525387 z"
       transform="matrix(0.26458,0,0,0.26458,-31.351119,-0.26418)" />
    <path
       id="path4"
       style="fill:url(#linearGradient5);fill-opacity:1;stroke:none;stroke-opacity:1"
       d="m 151.80422,7.0003988 -0.004,0.00195 -19.35338,0.00391 c -1.35355,0 -2.45701,1.1084419 -2.45701,2.4648263 V 57.533244 c 0,1.356386 1.10341,2.466779 2.45701,2.466779 h 36.0935 c 1.35354,0 2.45701,-1.110394 2.45701,-2.466779 V 26.183857 c 0,-0.440775 -0.10327,-0.93783 -0.29297,-1.464834 h 0.0606 l -0.35547,-0.722651 c -0.0256,-0.05172 -0.0587,-0.104196 -0.0859,-0.156249 l -0.0606,-0.124999 h -0.008 c -0.33862,-0.618179 -0.78849,-1.252809 -1.38476,-1.849596 l -0.002,-0.002 -12.60343,-12.7108477 c -0.59286,-0.7367819 -1.25379,-1.2334398 -1.89842,-1.5585827 -0.0858,-0.043269 -0.17088,-0.083655 -0.25586,-0.1210929 l -0.0859,-0.037109 -0.0312,-0.00195 C 153.20908,7.101048 152.46832,7.0003988 151.90968,7.0003988 Z m 0.11523,1.001946 c 0.37972,7.572e-4 0.91295,0.1248382 1.44726,0.3105447 V 22.248338 c 0,1.22231 0.89864,2.235567 2.06639,2.425764 0.12731,0.02382 0.25743,0.03745 0.39062,0.04101 0.0224,5.98e-4 0.0439,0.0039 0.0664,0.0039 h 13.69327 c 0.23563,0.562366 0.41406,1.117879 0.41406,1.464834 v 31.349387 c 0,0.822556 -0.64277,1.466786 -1.45702,1.466786 h -36.0935 c -0.81435,0 -1.45702,-0.644172 -1.45702,-1.466786 V 9.4710844 c 0,-0.8225555 0.64276,-1.4667865 1.45702,-1.4667865 z m 2.47069,0.9238216 c 0.38082,0.2545631 0.76636,0.4323933 1.12694,0.8886655 l 0.0176,0.021484 12.62686,12.7342851 c 0.37192,0.371983 0.57527,0.759422 0.82812,1.144523 h -13.16592 c -0.059,0 -0.1149,-0.011 -0.17187,-0.01758 -0.72221,-0.112338 -1.26171,-0.72263 -1.26171,-1.480458 z m -6.02145,19.2381446 0.0215,0.0078 c -0.85157,-0.05207 -1.72525,0.203211 -2.40623,0.722651 -0.67226,0.512787 -1.136,1.327306 -1.12109,2.273421 -0.0838,0.61247 0.13222,1.13734 0.33203,1.535146 0.1308,0.26042 0.15338,0.425102 0.21289,0.613277 -0.22678,0.04554 -0.45919,0.119139 -0.69336,0.119139 h -6.79878 v 6.849561 l 0.0449,0.0957 c 0.16877,0.367488 0.51885,0.651887 0.87695,0.67187 0.35811,0.02003 0.61866,-0.122173 0.8496,-0.249998 0.23095,-0.127788 0.443,-0.265146 0.61328,-0.347654 0.17029,-0.08251 0.27576,-0.09352 0.30273,-0.08789 l 0.10352,0.02148 0.10351,-0.02148 c 1.18326,-0.247676 2.28761,0.838735 2.34569,2.013657 v 0.03125 l 0.008,0.02148 c 0.0875,0.607805 0.009,1.332754 -0.25,1.890612 -0.2588,0.557858 -0.64845,0.936598 -1.26952,1.046868 -0.7392,0.124801 -1.52338,-0.01594 -2.09764,-0.443357 l -0.0215,-0.01367 -0.0215,-0.01563 c -0.283,-0.170837 -0.60703,-0.259368 -0.91601,-0.154296 -0.30898,0.105072 -0.48238,0.362924 -0.56835,0.58398 -0.17194,0.442135 -0.1442,0.885252 -0.10352,1.216788 v 6.79878 h 7.85346 l 0.0977,-0.05078 c 0.36748,-0.168758 0.65775,-0.520796 0.67773,-0.8789 0.02,-0.358114 -0.12221,-0.618656 -0.25,-0.849603 -0.1278,-0.230932 -0.26515,-0.435183 -0.34765,-0.605464 -0.0825,-0.17027 -0.0935,-0.281606 -0.0879,-0.308592 l 0.0215,-0.0957 -0.0215,-0.103515 c -0.24752,-1.18286 0.84095,-2.297871 2.01561,-2.355452 h 0.0215 0.0215 c 0.60792,-0.08727 1.33274,-0.0089 1.89061,0.249998 0.55786,0.258787 0.93854,0.650329 1.04882,1.271475 0.12259,0.73704 -0.0175,1.523363 -0.44336,2.095689 l -0.0156,0.01562 -0.0137,0.02148 c -0.17082,0.283014 -0.26131,0.607028 -0.15624,0.916009 0.10506,0.30898 0.36291,0.482385 0.58398,0.568355 0.4149,0.161342 0.83364,0.145426 1.15819,0.109374 h 5.84762 v -7.587837 c 0.009,0.0031 0.12592,0.02711 0.30273,0.125 0.18569,0.102917 0.41044,0.248229 0.67773,0.369138 0.21513,0.09729 0.50169,0.12914 0.79101,0.103514 1.57821,0.274851 3.1439,-0.797474 3.38865,-2.384748 0.18176,-0.816294 0.16505,-1.736653 -0.13282,-2.568341 -0.30009,-0.837951 -0.9171,-1.593081 -1.87498,-1.904284 -1.1623,-0.395852 -2.26811,0.05694 -3.14451,0.568356 -0.001,-0.0057 -2e-5,0.0033 -0.002,-0.0078 -0.0276,-0.161199 0.008,-0.487662 -0.006,-0.812494 v -0.02148 -5.787069 h -6.01754 -0.56054 c 0.004,-0.01353 0.0289,-0.129363 0.125,-0.302732 0.10291,-0.185694 0.25607,-0.412394 0.37695,-0.679683 0.0973,-0.215065 0.12125,-0.499822 0.0957,-0.789057 0.27514,-1.579832 -0.80075,-3.146337 -2.39061,-3.388647 -2.4e-4,-5.1e-5 2.4e-4,-0.0078 0,-0.0078 -0.32012,-0.06618 -0.64645,-0.0822 -0.96093,-0.08789 -0.0293,-5.28e-4 -0.0588,-0.01547 -0.0879,-0.01563 -0.01,-4.3e-5 -0.0198,3e-6 -0.0293,0 z m -0.27734,1.001946 c 0.0756,-0.0029 0.15072,-0.0022 0.22461,0.002 h 0.0527 c 0.30921,8.4e-5 0.61388,0.02018 0.90039,0.08203 l 0.0137,0.0059 h 0.0156 c 1.03339,0.15488 1.78995,1.232502 1.58788,2.25975 l -0.0234,0.117187 0.0371,0.119139 c 0.0103,0.03594 10e-4,0.120085 -0.0742,0.287108 -0.0755,0.167023 -0.20423,0.382689 -0.33203,0.613277 -0.1278,0.230588 -0.27284,0.482174 -0.25781,0.841791 0.015,0.359615 0.29396,0.720043 0.66406,0.892571 l 0.10351,0.05273 h 0.79687 5.0195 v 4.820279 0.01367 c 0.008,0.158817 -0.0463,0.545759 0.0234,0.953118 0.0348,0.203681 0.1095,0.443454 0.32422,0.634761 0.21472,0.191322 0.5281,0.254124 0.82031,0.212889 l 0.10351,-0.01367 0.0879,-0.05273 c 0.81526,-0.496383 1.66789,-0.839774 2.46483,-0.568355 h 0.008 c 0.63938,0.204815 1.03202,0.675793 1.25585,1.300772 0.22383,0.624975 0.24269,1.395425 0.0957,2.037095 l -0.008,0.01367 v 0.02344 c -0.15489,1.03343 -1.22469,1.787986 -2.25194,1.585926 l -0.11718,-0.02148 -0.11914,0.0293 c -0.0359,0.0102 -0.1279,0.0091 -0.29492,-0.06641 -0.16702,-0.07555 -0.37489,-0.212054 -0.60547,-0.339841 -0.23059,-0.127788 -0.48803,-0.272854 -0.84765,-0.257811 -0.35962,0.01512 -0.72199,0.301797 -0.89452,0.67187 l -0.043,0.103515 v 6.820264 h -4.88083 l -0.0293,0.0078 c -0.20694,0.02532 -0.54761,-4.02e-4 -0.69336,-0.04492 -0.002,-4.72e-4 -0.006,4.76e-4 -0.008,0 0.002,-0.0045 0.004,-0.0038 0.008,-0.01367 0.61193,-0.830448 0.79053,-1.872882 0.62695,-2.841776 v -0.0078 c -0.17165,-0.966724 -0.84361,-1.643087 -1.61717,-2.001939 -0.76671,-0.355665 -1.63986,-0.441311 -2.42772,-0.332029 -1.72381,0.09823 -3.21782,1.668876 -2.90232,3.470679 -0.0247,0.308413 0.0406,0.595823 0.14843,0.818353 0.12433,0.256596 0.26906,0.477339 0.36914,0.658199 0.0931,0.168267 0.11311,0.275466 0.11719,0.287107 h -6.62105 v -5.882771 -0.0293 c -0.0251,-0.204891 0.001,-0.546789 0.0449,-0.695308 v -0.0059 c 0.83141,0.61564 1.8861,0.79876 2.8574,0.634761 0.96675,-0.171631 1.64111,-0.843595 1.99999,-1.617176 0.35345,-0.761872 0.43834,-1.637781 0.33203,-2.421858 -0.0953,-1.728419 -1.66306,-3.229877 -3.47068,-2.908182 -0.30789,-0.02419 -0.58832,0.03287 -0.81054,0.140624 -0.25659,0.12431 -0.4832,0.276867 -0.66406,0.37695 -0.17177,0.09506 -0.28214,0.114125 -0.28906,0.117187 v -5.609336 h 5.80269 c 0.37872,0 0.9041,-0.008 1.52734,-0.281248 l 0.28124,-0.124999 0.0137,-0.310544 c 0.0284,-0.611188 -0.25403,-1.080128 -0.44922,-1.46874 -0.19519,-0.388612 -0.31208,-0.675729 -0.25781,-0.974602 l 0.0137,-0.05273 -0.008,-0.05078 c -0.0227,-0.620523 0.27242,-1.1171 0.7539,-1.484365 0.41592,-0.317255 0.97292,-0.505224 1.50194,-0.525387 z"
       transform="matrix(0.26458,0,0,0.26458,-31.351119,-0.26418)" />
  </g>
</svg>
