<?xml version="1.0" encoding="UTF-8" standalone="no"?>
<svg
   width="43.546024"
   height="55.538212"
   version="1.1"
   viewBox="0 0 43.546024 55.538212"
   id="svg5"
   xmlns:xlink="http://www.w3.org/1999/xlink"
   xmlns="http://www.w3.org/2000/svg"
   xmlns:svg="http://www.w3.org/2000/svg">
  <defs
     id="defs5">
    <linearGradient
       id="linearGradient6">
      <stop
         style="stop-color:#00abff;stop-opacity:0;"
         offset="0"
         id="stop7" />
      <stop
         style="stop-color:#00abff;stop-opacity:1;"
         offset="1"
         id="stop6" />
    </linearGradient>
    <linearGradient
       xlink:href="#linearGradient6"
       id="linearGradient7"
       x1="149.80165"
       y1="65.000099"
       x2="149.80165"
       y2="25.116041"
       gradientUnits="userSpaceOnUse" />
    <filter
       style="color-interpolation-filters:sRGB"
       id="filter7"
       x="-0.030947896"
       y="-0.023945386"
       width="1.0618958"
       height="1.0478908">
      <feGaussianBlur
         stdDeviation="0.52879393"
         id="feGaussianBlur7" />
    </filter>
  </defs>
  <g
     id="g7"
     transform="translate(-10.222995,-4.7308946)">
    <path
       id="path1"
       style="display:inline;opacity:0.6;fill:#00abff;fill-opacity:1;stroke:none;filter:url(#filter7)"
       d="m 151.80394,7.0001 -0.004,0.00195 -8.79687,0.00195 -10.55664,0.00195 c -1.35355,0 -2.45703,1.1084593 -2.45703,2.4648437 V 57.533303 c 0,1.356386 1.10343,2.466797 2.45703,2.466797 h 36.09375 c 1.35354,0 2.45703,-1.110412 2.45703,-2.466797 V 26.183694 c 0,-0.440775 -0.10327,-0.93784 -0.29297,-1.464844 h 0.0606 l -0.35547,-0.722656 c -0.0256,-0.05172 -0.0587,-0.104197 -0.0859,-0.15625 l -0.0605,-0.125 h -0.008 c -0.33862,-0.618179 -0.7885,-1.252822 -1.38476,-1.84961 l -0.002,-0.002 L 156.2647,9.1523967 c -0.67174,-0.8347508 -1.43078,-1.3609398 -2.1543,-1.6796875 l -0.0859,-0.037109 -0.0312,-0.00195 C 153.20882,7.1007523 152.46804,7.0001 151.90941,7.0001 Z m -8.80078,1.0019531 v 1.0019531 h -2 v 2.9980468 h 2 v 1.003906 h -2 v 2.996094 h 2 V 17.0001 h -2 v 3.003906 h 2 V 21.0001 h -2 v 3.005859 h 2 v 0.996094 h -2 v 3.003906 h 2 v 0.996094 h -2 V 32.0001 h 2 v 2 h -2 v 7.005859 c 0,0.545349 0.45075,0.996094 0.99609,0.996094 h 3.00586 c 0.54535,0 0.9961,-0.450745 0.9961,-0.996094 V 34.0001 31.004006 h -2 v -0.998047 h 2 v -3.003906 h -2 v -0.996094 h 2 v -3.003906 h -2 v -0.998047 h 2 V 19.0001 h -2 v -0.996094 h 2 v -2.998047 h -2 v -1.003906 h 2 v -2.996094 h -2 v -1.003906 h 2 V 8.0020531 h 5.91796 c 0.37972,7.572e-4 0.91296,0.1248404 1.44727,0.3105469 v 13.935547 c 0,1.22231 0.89866,2.235584 2.06641,2.425781 0.1487,0.02782 0.30051,0.04492 0.45703,0.04492 h 13.69336 c 0.23563,0.562366 0.41406,1.117889 0.41406,1.464844 v 31.349609 c 0,0.822556 -0.64278,1.466797 -1.45703,1.466797 h -36.09375 c -0.81435,0 -1.45703,-0.644183 -1.45703,-1.466797 V 9.4708031 c 0,-0.8225555 0.64277,-1.4667968 1.45703,-1.4667969 z m 0.99805,0 h 1.0039 v 1.0019531 h -1.0039 z m 10.38867,0.9238281 c 0.38082,0.2545632 0.76637,0.4323997 1.12695,0.8886719 l 0.0176,0.021484 12.62695,12.7343749 c 0.37192,0.371984 0.57528,0.75943 0.82813,1.144532 h -13.16602 c -0.0687,0 -0.13319,-0.01063 -0.19922,-0.01953 -0.70854,-0.123275 -1.23436,-0.730184 -1.23437,-1.478515 z m -12.39063,1.0761718 h 1.00391 v 1.003906 h -1.00391 z m 2.00196,2 h 1.0039 v 1.003906 h -1.0039 z m -2.00196,2 h 1.00391 v 1.003906 h -1.00391 z m 2.00196,2 h 1.0039 V 17.0001 h -1.0039 z m -2.00196,2.001953 h 1.00391 V 19.0001 h -1.00391 z m 2.00196,2 h 1.0039 V 21.0001 h -1.0039 z m -2.00196,2 h 1.00391 v 0.998047 h -1.00391 z m 2.00196,2.001953 h 1.0039 v 0.996094 h -1.0039 z m -2.00196,2 h 1.00391 v 0.996094 h -1.00391 z m 2.00196,2 h 1.0039 v 0.996094 h -1.0039 z m -2.00196,2 h 1.00391 v 0.998047 h -1.00391 z m 2.00196,1.994141 h 1.0039 v 1.003906 h -1.0039 z m -2.00196,3.003906 h 3.00586 v 2.998047 h -3.00586 z m 1.00391,4.001953 h 0.99805 v 0.996094 h -0.99805 z"
       transform="translate(-118.4973,-1.0001)" />
    <path
       id="path6"
       style="fill:url(#linearGradient7);fill-opacity:1;stroke:none"
       d="m 151.80394,7.0001 -0.004,0.00195 -8.79687,0.00195 -10.55664,0.00195 c -1.35355,0 -2.45703,1.1084593 -2.45703,2.4648437 V 57.533303 c 0,1.356386 1.10343,2.466797 2.45703,2.466797 h 36.09375 c 1.35354,0 2.45703,-1.110412 2.45703,-2.466797 V 26.183694 c 0,-0.440775 -0.10327,-0.93784 -0.29297,-1.464844 h 0.0606 l -0.35547,-0.722656 c -0.0256,-0.05172 -0.0587,-0.104197 -0.0859,-0.15625 l -0.0605,-0.125 h -0.008 c -0.33862,-0.618179 -0.7885,-1.252822 -1.38476,-1.84961 l -0.002,-0.002 L 156.2647,9.1523967 c -0.67174,-0.8347508 -1.43078,-1.3609398 -2.1543,-1.6796875 l -0.0859,-0.037109 -0.0312,-0.00195 C 153.20882,7.1007523 152.46804,7.0001 151.90941,7.0001 Z m -8.80078,1.0019531 v 1.0019531 h -2 v 2.9980468 h 2 v 1.003906 h -2 v 2.996094 h 2 V 17.0001 h -2 v 3.003906 h 2 V 21.0001 h -2 v 3.005859 h 2 v 0.996094 h -2 v 3.003906 h 2 v 0.996094 h -2 V 32.0001 h 2 v 2 h -2 v 7.005859 c 0,0.545349 0.45075,0.996094 0.99609,0.996094 h 3.00586 c 0.54535,0 0.9961,-0.450745 0.9961,-0.996094 V 34.0001 31.004006 h -2 v -0.998047 h 2 v -3.003906 h -2 v -0.996094 h 2 v -3.003906 h -2 v -0.998047 h 2 V 19.0001 h -2 v -0.996094 h 2 v -2.998047 h -2 v -1.003906 h 2 v -2.996094 h -2 v -1.003906 h 2 V 8.0020531 h 5.91796 c 0.37972,7.572e-4 0.91296,0.1248404 1.44727,0.3105469 v 13.935547 c 0,1.22231 0.89866,2.235584 2.06641,2.425781 0.1487,0.02782 0.30051,0.04492 0.45703,0.04492 h 13.69336 c 0.23563,0.562366 0.41406,1.117889 0.41406,1.464844 v 31.349609 c 0,0.822556 -0.64278,1.466797 -1.45703,1.466797 h -36.09375 c -0.81435,0 -1.45703,-0.644183 -1.45703,-1.466797 V 9.4708031 c 0,-0.8225555 0.64277,-1.4667968 1.45703,-1.4667969 z m 0.99805,0 h 1.0039 v 1.0019531 h -1.0039 z m 10.38867,0.9238281 c 0.38082,0.2545632 0.76637,0.4323997 1.12695,0.8886719 l 0.0176,0.021484 12.62695,12.7343749 c 0.37192,0.371984 0.57528,0.75943 0.82813,1.144532 h -13.16602 c -0.0687,0 -0.13319,-0.01063 -0.19922,-0.01953 -0.70854,-0.123275 -1.23436,-0.730184 -1.23437,-1.478515 z m -12.39063,1.0761718 h 1.00391 v 1.003906 h -1.00391 z m 2.00196,2 h 1.0039 v 1.003906 h -1.0039 z m -2.00196,2 h 1.00391 v 1.003906 h -1.00391 z m 2.00196,2 h 1.0039 V 17.0001 h -1.0039 z m -2.00196,2.001953 h 1.00391 V 19.0001 h -1.00391 z m 2.00196,2 h 1.0039 V 21.0001 h -1.0039 z m -2.00196,2 h 1.00391 v 0.998047 h -1.00391 z m 2.00196,2.001953 h 1.0039 v 0.996094 h -1.0039 z m -2.00196,2 h 1.00391 v 0.996094 h -1.00391 z m 2.00196,2 h 1.0039 v 0.996094 h -1.0039 z m -2.00196,2 h 1.00391 v 0.998047 h -1.00391 z m 2.00196,1.994141 h 1.0039 v 1.003906 h -1.0039 z m -2.00196,3.003906 h 3.00586 v 2.998047 h -3.00586 z m 1.00391,4.001953 h 0.99805 v 0.996094 h -0.99805 z"
       transform="translate(-118.4973,-1.0001)" />
  </g>
</svg>
