<?xml version="1.0" encoding="UTF-8" standalone="no"?>
<svg
   width="43.546024"
   height="55.538212"
   version="1.1"
   viewBox="0 0 11.521325 14.694196"
   id="svg3"
   xmlns:xlink="http://www.w3.org/1999/xlink"
   xmlns="http://www.w3.org/2000/svg"
   xmlns:svg="http://www.w3.org/2000/svg">
  <defs
     id="defs3">
    <linearGradient
       id="linearGradient4">
      <stop
         style="stop-color:#00abff;stop-opacity:0;"
         offset="0"
         id="stop5" />
      <stop
         style="stop-color:#00abff;stop-opacity:1;"
         offset="1"
         id="stop4" />
    </linearGradient>
    <linearGradient
       xlink:href="#linearGradient4"
       id="linearGradient5"
       x1="150.37837"
       y1="64.999619"
       x2="150.37837"
       y2="25.579611"
       gradientUnits="userSpaceOnUse" />
    <filter
       style="color-interpolation-filters:sRGB"
       id="filter5"
       x="-0.030947895"
       y="-0.023945385"
       width="1.0618958"
       height="1.0478908">
      <feGaussianBlur
         stdDeviation="0.52879018"
         id="feGaussianBlur5" />
    </filter>
  </defs>
  <g
     id="g5"
     transform="translate(-2.705816,-1.2516912)">
    <path
       id="path1"
       style="display:inline;opacity:0.6;fill:#00abff;fill-opacity:1;stroke:none;filter:url(#filter5)"
       d="m 151.80486,7.0000331 -0.004,0.00195 -19.35338,0.00391 c -1.35355,0 -2.45701,1.1084419 -2.45701,2.4648263 V 57.532878 c 0,1.356386 1.10341,2.466779 2.45701,2.466779 h 36.09349 c 1.35354,0 2.45702,-1.110394 2.45702,-2.466779 V 26.183491 c 0,-0.440775 -0.10327,-0.93783 -0.29297,-1.464833 h 0.0606 l -0.35547,-0.722652 c -0.0256,-0.05172 -0.0587,-0.104195 -0.0859,-0.156249 l -0.0606,-0.124999 h -0.008 c -0.33862,-0.618178 -0.7885,-1.252808 -1.38476,-1.849596 l -0.002,-0.002 L 156.26576,9.1523616 C 155.594,8.3175308 154.83504,7.7914512 154.11148,7.472686 l -0.0859,-0.037109 -0.0312,-0.00195 c -0.78457,-0.3329414 -1.52533,-0.4335906 -2.08397,-0.4335906 z m 0.11523,1.001946 c 0.37972,7.572e-4 0.91294,0.1248382 1.44725,0.3105447 V 22.247972 c 0,1.22231 0.89865,2.235567 2.0664,2.425764 0.14859,0.02778 0.30063,0.04492 0.45702,0.04492 h 13.69327 c 0.23563,0.562369 0.41406,1.117876 0.41406,1.464833 v 31.349387 c 0,0.822556 -0.64278,1.466787 -1.45703,1.466787 h -36.09349 c -0.81435,0 -1.45702,-0.644173 -1.45702,-1.466787 V 9.4707187 c 0,-0.8225555 0.64276,-1.4667865 1.45702,-1.4667865 z m 2.47068,0.9238216 c 0.38082,0.2545631 0.76637,0.4323934 1.12695,0.8886656 l 0.0176,0.021484 12.62686,12.7342847 c 0.37192,0.371983 0.57527,0.759423 0.82812,1.144523 h -13.16592 c -0.069,0 -0.13495,-0.01057 -0.20117,-0.01953 -0.70854,-0.123275 -1.23241,-0.730174 -1.23242,-1.478505 z m 4.7363,22.3553103 c -0.6336,0 -1.23705,0.216934 -1.67577,0.634761 -0.43873,0.417828 -0.69335,1.030508 -0.69335,1.734363 0,0.711054 0.24053,1.330785 0.67187,1.749987 0.43135,0.419203 1.02502,0.619137 1.66014,0.619137 0.65751,0 1.26769,-0.193389 1.71288,-0.611324 0.44519,-0.417935 0.69531,-1.044216 0.69531,-1.7578 0,-0.671187 -0.23779,-1.276817 -0.66601,-1.705066 -0.42825,-0.42825 -1.03388,-0.664058 -1.70507,-0.664058 z m -14.2831,0.515621 c -0.14583,0 -0.35765,0.06827 -0.48828,0.222655 -0.13063,0.154384 -0.1543,0.321441 -0.1543,0.457028 -0.0359,0.85973 -0.0858,1.085768 -0.16992,1.388662 l -5.2109,18.247918 -0.008,0.0293 c -0.0239,0.143322 -0.0819,0.321561 0.0879,0.576168 0.0849,0.127296 0.23387,0.218212 0.33984,0.249998 0.10597,0.03175 0.18112,0.0293 0.25195,0.0293 h 2.69334 c 0.12497,0 0.28913,0.0051 0.47266,-0.117187 0.18137,-0.120871 0.25616,-0.314276 0.2871,-0.435543 v -0.0078 L 144.2971,47.3142 h 5.07809 l 1.42577,5.152308 v 0.0078 c 0.0451,0.157949 0.1707,0.339021 0.33203,0.427732 0.16131,0.08871 0.30492,0.0957 0.41991,0.0957 h 3.04295 c 0.17749,-4e-6 0.45986,-0.09647 0.58203,-0.316404 0.12217,-0.219934 0.0865,-0.403912 0.0527,-0.539059 v -0.01367 l -5.83199,-19.792829 v 0.02344 c -0.0302,-0.120921 -0.0828,-0.285019 -0.24414,-0.414059 -0.16134,-0.129041 -0.34525,-0.148437 -0.45702,-0.148437 z m 14.2831,0.488278 c 0.44715,0 0.77674,0.141982 1.0039,0.369138 0.22715,0.227156 0.36914,0.548935 0.36914,0.996087 0,0.496408 -0.14645,0.812778 -0.375,1.027336 -0.22855,0.214559 -0.57436,0.345701 -1.03515,0.345701 -0.42823,0 -0.74732,-0.126549 -0.96679,-0.339841 -0.21948,-0.213289 -0.36914,-0.534257 -0.36914,-1.033196 0,-0.469477 0.15754,-0.787881 0.39258,-1.011712 0.23501,-0.22383 0.56908,-0.353513 0.98046,-0.353513 z m -13.9667,0.509762 h 3.32224 l 5.66207,19.206895 h -2.43553 l -1.57225,-5.683553 h -6.61519 l -1.49022,5.683553 h -2.14061 l 5.10738,-17.863154 c 0.0806,-0.290124 0.12305,-0.741814 0.16211,-1.343741 z m 1.21093,1.93358 -0.0742,0.41406 c -0.37647,2.097542 -1.3475,5.72964 -2.11717,8.570252 l -0.16992,0.634761 h 5.63863 l -0.1543,-0.62109 c -0.51676,-2.048556 -1.72754,-6.492714 -2.17771,-8.599548 l -0.0879,-0.398435 z m 11.32414,2.369124 c -0.15659,0 -0.37177,0.03688 -0.53125,0.20703 -0.1595,0.170137 -0.18554,0.373937 -0.18554,0.509762 v 0.509762 h 0.0156 v 13.937401 c 0,0.135838 0.0236,0.334228 0.17773,0.507809 0.15429,0.173558 0.38556,0.230467 0.56055,0.230467 h 2.84177 c 0.15837,0 0.39053,-0.03523 0.55469,-0.222655 0.16414,-0.187618 0.16797,-0.379143 0.16797,-0.494137 V 37.814268 c 0,-0.156603 -0.0427,-0.379573 -0.21289,-0.539059 -0.17016,-0.159487 -0.37395,-0.177733 -0.50977,-0.177733 z m -10.88078,0.11914 c 0.51195,2.086169 1.11455,4.46223 1.54295,6.12691 H 145.301 c 0.56315,-2.08458 1.08224,-4.20677 1.51366,-6.12691 z m 11.18351,0.876947 h 2.29491 v 13.908104 h -2.29491 z"
       transform="matrix(0.26458,0,0,0.26458,-31.351285,-0.26460001)" />
    <path
       id="path4"
       style="fill:url(#linearGradient5);fill-opacity:1;stroke:none"
       d="m 151.80486,7.0000331 -0.004,0.00195 -19.35338,0.00391 c -1.35355,0 -2.45701,1.1084419 -2.45701,2.4648263 V 57.532878 c 0,1.356386 1.10341,2.466779 2.45701,2.466779 h 36.09349 c 1.35354,0 2.45702,-1.110394 2.45702,-2.466779 V 26.183491 c 0,-0.440775 -0.10327,-0.93783 -0.29297,-1.464833 h 0.0606 l -0.35547,-0.722652 c -0.0256,-0.05172 -0.0587,-0.104195 -0.0859,-0.156249 l -0.0606,-0.124999 h -0.008 c -0.33862,-0.618178 -0.7885,-1.252808 -1.38476,-1.849596 l -0.002,-0.002 L 156.26576,9.1523616 C 155.594,8.3175308 154.83504,7.7914512 154.11148,7.472686 l -0.0859,-0.037109 -0.0312,-0.00195 c -0.78457,-0.3329414 -1.52533,-0.4335906 -2.08397,-0.4335906 z m 0.11523,1.001946 c 0.37972,7.572e-4 0.91294,0.1248382 1.44725,0.3105447 V 22.247972 c 0,1.22231 0.89865,2.235567 2.0664,2.425764 0.14859,0.02778 0.30063,0.04492 0.45702,0.04492 h 13.69327 c 0.23563,0.562369 0.41406,1.117876 0.41406,1.464833 v 31.349387 c 0,0.822556 -0.64278,1.466787 -1.45703,1.466787 h -36.09349 c -0.81435,0 -1.45702,-0.644173 -1.45702,-1.466787 V 9.4707187 c 0,-0.8225555 0.64276,-1.4667865 1.45702,-1.4667865 z m 2.47068,0.9238216 c 0.38082,0.2545631 0.76637,0.4323934 1.12695,0.8886656 l 0.0176,0.021484 12.62686,12.7342847 c 0.37192,0.371983 0.57527,0.759423 0.82812,1.144523 h -13.16592 c -0.069,0 -0.13495,-0.01057 -0.20117,-0.01953 -0.70854,-0.123275 -1.23241,-0.730174 -1.23242,-1.478505 z m 4.7363,22.3553103 c -0.6336,0 -1.23705,0.216934 -1.67577,0.634761 -0.43873,0.417828 -0.69335,1.030508 -0.69335,1.734363 0,0.711054 0.24053,1.330785 0.67187,1.749987 0.43135,0.419203 1.02502,0.619137 1.66014,0.619137 0.65751,0 1.26769,-0.193389 1.71288,-0.611324 0.44519,-0.417935 0.69531,-1.044216 0.69531,-1.7578 0,-0.671187 -0.23779,-1.276817 -0.66601,-1.705066 -0.42825,-0.42825 -1.03388,-0.664058 -1.70507,-0.664058 z m -14.2831,0.515621 c -0.14583,0 -0.35765,0.06827 -0.48828,0.222655 -0.13063,0.154384 -0.1543,0.321441 -0.1543,0.457028 -0.0359,0.85973 -0.0858,1.085768 -0.16992,1.388662 l -5.2109,18.247918 -0.008,0.0293 c -0.0239,0.143322 -0.0819,0.321561 0.0879,0.576168 0.0849,0.127296 0.23387,0.218212 0.33984,0.249998 0.10597,0.03175 0.18112,0.0293 0.25195,0.0293 h 2.69334 c 0.12497,0 0.28913,0.0051 0.47266,-0.117187 0.18137,-0.120871 0.25616,-0.314276 0.2871,-0.435543 v -0.0078 L 144.2971,47.3142 h 5.07809 l 1.42577,5.152308 v 0.0078 c 0.0451,0.157949 0.1707,0.339021 0.33203,0.427732 0.16131,0.08871 0.30492,0.0957 0.41991,0.0957 h 3.04295 c 0.17749,-4e-6 0.45986,-0.09647 0.58203,-0.316404 0.12217,-0.219934 0.0865,-0.403912 0.0527,-0.539059 v -0.01367 l -5.83199,-19.792829 v 0.02344 c -0.0302,-0.120921 -0.0828,-0.285019 -0.24414,-0.414059 -0.16134,-0.129041 -0.34525,-0.148437 -0.45702,-0.148437 z m 14.2831,0.488278 c 0.44715,0 0.77674,0.141982 1.0039,0.369138 0.22715,0.227156 0.36914,0.548935 0.36914,0.996087 0,0.496408 -0.14645,0.812778 -0.375,1.027336 -0.22855,0.214559 -0.57436,0.345701 -1.03515,0.345701 -0.42823,0 -0.74732,-0.126549 -0.96679,-0.339841 -0.21948,-0.213289 -0.36914,-0.534257 -0.36914,-1.033196 0,-0.469477 0.15754,-0.787881 0.39258,-1.011712 0.23501,-0.22383 0.56908,-0.353513 0.98046,-0.353513 z m -13.9667,0.509762 h 3.32224 l 5.66207,19.206895 h -2.43553 l -1.57225,-5.683553 h -6.61519 l -1.49022,5.683553 h -2.14061 l 5.10738,-17.863154 c 0.0806,-0.290124 0.12305,-0.741814 0.16211,-1.343741 z m 1.21093,1.93358 -0.0742,0.41406 c -0.37647,2.097542 -1.3475,5.72964 -2.11717,8.570252 l -0.16992,0.634761 h 5.63863 l -0.1543,-0.62109 c -0.51676,-2.048556 -1.72754,-6.492714 -2.17771,-8.599548 l -0.0879,-0.398435 z m 11.32414,2.369124 c -0.15659,0 -0.37177,0.03688 -0.53125,0.20703 -0.1595,0.170137 -0.18554,0.373937 -0.18554,0.509762 v 0.509762 h 0.0156 v 13.937401 c 0,0.135838 0.0236,0.334228 0.17773,0.507809 0.15429,0.173558 0.38556,0.230467 0.56055,0.230467 h 2.84177 c 0.15837,0 0.39053,-0.03523 0.55469,-0.222655 0.16414,-0.187618 0.16797,-0.379143 0.16797,-0.494137 V 37.814268 c 0,-0.156603 -0.0427,-0.379573 -0.21289,-0.539059 -0.17016,-0.159487 -0.37395,-0.177733 -0.50977,-0.177733 z m -10.88078,0.11914 c 0.51195,2.086169 1.11455,4.46223 1.54295,6.12691 H 145.301 c 0.56315,-2.08458 1.08224,-4.20677 1.51366,-6.12691 z m 11.18351,0.876947 h 2.29491 v 13.908104 h -2.29491 z"
       transform="matrix(0.26458,0,0,0.26458,-31.351285,-0.26460001)" />
  </g>
</svg>
