<?xml version="1.0" encoding="UTF-8" standalone="no"?>
<svg
   width="43.546024"
   height="55.538212"
   version="1.1"
   viewBox="0 0 43.546024 55.538212"
   id="svg3"
   xmlns:xlink="http://www.w3.org/1999/xlink"
   xmlns="http://www.w3.org/2000/svg"
   xmlns:svg="http://www.w3.org/2000/svg">
  <defs
     id="defs3">
    <linearGradient
       id="linearGradient4">
      <stop
         style="stop-color:#00abff;stop-opacity:0;"
         offset="0"
         id="stop5" />
      <stop
         style="stop-color:#00abff;stop-opacity:1;"
         offset="1"
         id="stop4" />
    </linearGradient>
    <linearGradient
       xlink:href="#linearGradient4"
       id="linearGradient5"
       x1="150.26482"
       y1="65.000099"
       x2="150.26482"
       y2="24.884157"
       gradientUnits="userSpaceOnUse" />
    <filter
       style="color-interpolation-filters:sRGB"
       id="filter5"
       x="-0.030947896"
       y="-0.023945386"
       width="1.0618958"
       height="1.0478908">
      <feGaussianBlur
         stdDeviation="0.52879393"
         id="feGaussianBlur5" />
    </filter>
  </defs>
  <g
     id="g5"
     transform="translate(-10.224935,-4.7308946)">
    <path
       id="path1"
       style="display:inline;opacity:0.6;fill:#00abff;fill-opacity:1;stroke:none;filter:url(#filter5)"
       d="m 151.80529,7.0001 -0.004,0.00195 -19.35352,0.00391 c -1.35355,0 -2.45703,1.1084593 -2.45703,2.4648437 V 57.533303 c 0,1.356386 1.10343,2.466797 2.45703,2.466797 h 36.09375 c 1.35354,0 2.45703,-1.110412 2.45703,-2.466797 V 26.183694 c 0,-0.440775 -0.10522,-0.93784 -0.29492,-1.464844 h 0.0625 l -0.35547,-0.722656 c -0.0256,-0.05172 -0.0587,-0.104197 -0.0859,-0.15625 l -0.0605,-0.125 h -0.008 c -0.33863,-0.618179 -0.78851,-1.252822 -1.38477,-1.84961 l -0.002,-0.002 -12.60352,-12.7109373 c -0.67176,-0.8348308 -1.43073,-1.3609223 -2.1543,-1.6796875 l -0.0859,-0.037109 -0.0312,-0.00195 C 153.21017,7.1007523 152.4694,7.0001 151.91076,7.0001 Z m 0.11524,1.0019531 c 0.37972,7.572e-4 0.91295,0.1248404 1.44726,0.3105469 v 13.935547 c 0,1.22032 0.89559,2.23319 2.06055,2.425781 0.14988,0.02829 0.30505,0.04492 0.46289,0.04492 h 13.69336 c 0.23563,0.562366 0.41406,1.117889 0.41406,1.464844 v 31.349609 c 0,0.822556 -0.64278,1.466797 -1.45703,1.466797 h -36.09375 c -0.81435,0 -1.45703,-0.644183 -1.45703,-1.466797 V 9.4708031 c 0,-0.8225555 0.64277,-1.4667968 1.45703,-1.4667969 z m 2.4707,0.9238281 c 0.38082,0.2545632 0.76637,0.4323997 1.12695,0.8886719 l 0.0176,0.021484 12.62696,12.7343749 c 0.37192,0.371986 0.57527,0.759428 0.82812,1.144532 h -13.16601 c -0.069,0 -0.13496,-0.01057 -0.20118,-0.01953 -0.70854,-0.123275 -1.23241,-0.730184 -1.23242,-1.478515 z m 2.10938,18.0742188 -4.37891,4.925781 -1.95312,2.328125 h 3.83203 v 2 h -12 v 13 h -3.79883 l 1.91992,2.324219 4.37891,4.927734 4.3789,-4.925781 1.95313,-2.326172 h -3.83203 v -2 h 12 v -13 h 3.79882 l -1.91992,-2.326172 z m 0,1.505859 3.62109,4.072266 0.55664,0.675781 h -2.67773 v 13 h -12 v 4 h 2.68554 l -0.56445,0.671875 -3.62109,4.074219 -3.6211,-4.072266 -0.55468,-0.673828 h 2.67578 v -13 h 12 v -4 h -2.6875 l 0.5664,-0.673828 z m -10.5,11.748047 v 3 h 9 v -3 z m 1,1 h 7 v 1 h -7 z"
       transform="translate(-118.4967,-1.0001)" />
    <path
       id="path4"
       style="fill:url(#linearGradient5);fill-opacity:1;stroke:none"
       d="m 151.80529,7.0001 -0.004,0.00195 -19.35352,0.00391 c -1.35355,0 -2.45703,1.1084593 -2.45703,2.4648437 V 57.533303 c 0,1.356386 1.10343,2.466797 2.45703,2.466797 h 36.09375 c 1.35354,0 2.45703,-1.110412 2.45703,-2.466797 V 26.183694 c 0,-0.440775 -0.10522,-0.93784 -0.29492,-1.464844 h 0.0625 l -0.35547,-0.722656 c -0.0256,-0.05172 -0.0587,-0.104197 -0.0859,-0.15625 l -0.0605,-0.125 h -0.008 c -0.33863,-0.618179 -0.78851,-1.252822 -1.38477,-1.84961 l -0.002,-0.002 -12.60352,-12.7109373 c -0.67176,-0.8348308 -1.43073,-1.3609223 -2.1543,-1.6796875 l -0.0859,-0.037109 -0.0312,-0.00195 C 153.21017,7.1007523 152.4694,7.0001 151.91076,7.0001 Z m 0.11524,1.0019531 c 0.37972,7.572e-4 0.91295,0.1248404 1.44726,0.3105469 v 13.935547 c 0,1.22032 0.89559,2.23319 2.06055,2.425781 0.14988,0.02829 0.30505,0.04492 0.46289,0.04492 h 13.69336 c 0.23563,0.562366 0.41406,1.117889 0.41406,1.464844 v 31.349609 c 0,0.822556 -0.64278,1.466797 -1.45703,1.466797 h -36.09375 c -0.81435,0 -1.45703,-0.644183 -1.45703,-1.466797 V 9.4708031 c 0,-0.8225555 0.64277,-1.4667968 1.45703,-1.4667969 z m 2.4707,0.9238281 c 0.38082,0.2545632 0.76637,0.4323997 1.12695,0.8886719 l 0.0176,0.021484 12.62696,12.7343749 c 0.37192,0.371986 0.57527,0.759428 0.82812,1.144532 h -13.16601 c -0.069,0 -0.13496,-0.01057 -0.20118,-0.01953 -0.70854,-0.123275 -1.23241,-0.730184 -1.23242,-1.478515 z m 2.10938,18.0742188 -4.37891,4.925781 -1.95312,2.328125 h 3.83203 v 2 h -12 v 13 h -3.79883 l 1.91992,2.324219 4.37891,4.927734 4.3789,-4.925781 1.95313,-2.326172 h -3.83203 v -2 h 12 v -13 h 3.79882 l -1.91992,-2.326172 z m 0,1.505859 3.62109,4.072266 0.55664,0.675781 h -2.67773 v 13 h -12 v 4 h 2.68554 l -0.56445,0.671875 -3.62109,4.074219 -3.6211,-4.072266 -0.55468,-0.673828 h 2.67578 v -13 h 12 v -4 h -2.6875 l 0.5664,-0.673828 z m -10.5,11.748047 v 3 h 9 v -3 z m 1,1 h 7 v 1 h -7 z"
       transform="translate(-118.4967,-1.0001)" />
  </g>
</svg>
