<?xml version="1.0" encoding="UTF-8" standalone="no"?>
<svg
   width="43.546024"
   height="55.538212"
   version="1.1"
   viewBox="0 0 43.546024 55.538212"
   id="svg3"
   xmlns:xlink="http://www.w3.org/1999/xlink"
   xmlns="http://www.w3.org/2000/svg"
   xmlns:svg="http://www.w3.org/2000/svg">
  <defs
     id="defs3">
    <linearGradient
       id="linearGradient40">
      <stop
         style="stop-color:#039bfc;stop-opacity:0;"
         offset="0"
         id="stop41" />
      <stop
         style="stop-color:#039bfc;stop-opacity:1;"
         offset="1"
         id="stop40" />
    </linearGradient>
    <linearGradient
       xlink:href="#linearGradient40"
       id="linearGradient41"
       x1="150.4973"
       y1="65.000099"
       x2="150.4973"
       y2="25.231983"
       gradientUnits="userSpaceOnUse" />
    <filter
       style="color-interpolation-filters:sRGB"
       id="filter41"
       x="-0.030947896"
       y="-0.023945386"
       width="1.0618958"
       height="1.0478908">
      <feGaussianBlur
         stdDeviation="0.52879393"
         id="feGaussianBlur41" />
    </filter>
  </defs>
  <g
     id="g41"
     transform="translate(-10.222995,-4.7308946)">
    <path
       id="path1"
       style="display:inline;opacity:0.6;fill:#039bfc;filter:url(#filter41)"
       d="m 151.80394,7.0001 -0.004,0.00195 -19.35351,0.00391 c -1.35355,0 -2.45703,1.1084593 -2.45703,2.4648437 V 57.533303 c 0,1.356386 1.10343,2.466797 2.45703,2.466797 h 36.09375 c 1.35354,0 2.45703,-1.110412 2.45703,-2.466797 V 26.183694 c 0,-0.440775 -0.10327,-0.93784 -0.29297,-1.464844 h 0.0606 l -0.35547,-0.722656 c -0.0256,-0.05172 -0.0587,-0.104197 -0.0859,-0.15625 l -0.0605,-0.125 h -0.008 c -0.33862,-0.618179 -0.7885,-1.252822 -1.38476,-1.84961 l -0.002,-0.002 L 156.26488,9.1524437 C 155.67159,8.4151755 155.0115,7.918962 154.36644,7.59385 154.28114,7.550863 154.19507,7.50998 154.11058,7.4727562 l -0.0859,-0.037109 -0.0312,-0.00195 C 153.20882,7.1007523 152.46804,7.0001 151.90941,7.0001 Z m 0.11523,1.0019531 c 0.37972,7.572e-4 0.91296,0.1248404 1.44727,0.3105469 v 13.935547 c 0,1.22231 0.89866,2.235584 2.06641,2.425781 0.12731,0.02382 0.25744,0.03746 0.39062,0.04102 0.0224,5.98e-4 0.0439,0.0039 0.0664,0.0039 h 13.69336 c 0.23563,0.562366 0.41406,1.117889 0.41406,1.464844 v 31.349609 c 0,0.822556 -0.64278,1.466797 -1.45703,1.466797 h -15.79883 a 18.106682,18.324356 0 0 0 0.10352,-0.06836 18.090957,18.307803 0 0 0 3.07031,-10.175782 c 0,-10.104881 -8.14944,-18.402343 -18.2832,-18.402343 h -0.004 A 18.26311,18.482439 0 0 0 130.98949,31.6251 V 9.4708031 c 0,-0.8225555 0.64277,-1.4667967 1.45703,-1.4667969 z m 2.47071,0.9238281 c 0.38082,0.2545633 0.76637,0.4323997 1.12695,0.8886719 l 0.0176,0.021484 12.62695,12.7343749 c 0.37192,0.371984 0.57528,0.75943 0.82813,1.144532 h -13.16602 c -0.0687,0 -0.13319,-0.01063 -0.19922,-0.01953 -0.70854,-0.123274 -1.23436,-0.730184 -1.23437,-1.478515 z M 137.62816,32.886819 c 0.24386,-0.0026 0.47489,0.01467 0.71875,0.02539 -0.0345,4.418041 -0.71583,13.521828 -3.14649,16.845704 -3.51481,-9.155557 -3.0885,-7.523238 -0.71875,0.277343 a 2.759413,2.7924366 0 0 0 -0.49609,0.347657 l -1.08984,-0.826172 0.54492,1.583984 c -0.81922,0.12493 -1.63511,0.125969 -2.45117,0.121094 V 38.584084 c 1.22066,3.199285 1.17783,2.49319 0,-2.289062 v -2.052734 c 1.96972,-0.992221 4.03552,-1.337972 6.63867,-1.355469 z m 3.00195,0.298828 c 6.04356,1.20176 11.31741,6.004735 12.46289,11.632812 l -0.27148,0.34961 c -0.50893,0.89056 -5.28084,2.429878 -7.01172,2.982422 -3.30542,0.716223 -5.67238,2.415179 -8.8457,2.533203 a 2.3723999,2.4007886 0 0 0 -0.69532,-0.650391 c 1.92969,-3.471117 1.29718,-12.754886 4.36133,-16.847656 z m 11.99414,13.1875 h 0.002 l 0.71679,0.699219 c 0,0.563321 -0.0596,1.114909 -0.15234,1.683593 -0.46917,3.001668 -1.06558,5.968466 -2.30078,8.396485 l -2.62696,-0.875 c -2.99529,-1.475384 -7.48396,-2.43651 -10.67773,-4.566406 4.57778,-2.658356 10.016,-3.728427 15.03906,-5.337891 z m -20.50781,5.636719 c 0.4304,0.01989 0.87665,0.140728 1.35156,0.412109 0.0345,0.174362 0.1204,0.326343 0.19727,0.476563 l -2.67578,1.091796 v -1.824218 c 0.36876,-0.108709 0.74153,-0.174063 1.12695,-0.15625 z m 5.31641,0.960937 c 3.61024,1.389555 6.9903,1.778598 10.65625,4.007813 l 2.0039,1.503906 A 9.5155883,9.6298051 0 0 1 149.71996,59.0001 H 137.7141 c -0.62585,-1.727114 -1.31725,-3.441925 -1.22266,-5.306641 0.70508,0.273616 1.07289,0.629038 1.85742,1.181641 -0.35254,-0.536497 -0.78376,-0.885989 -1.08594,-1.556641 a 1.6540752,1.6738563 0 0 0 0.16993,-0.347656 z m -3.41993,0.431641 c 0.15905,0.144856 0.3711,0.24838 0.59375,0.326172 l -2.79492,3.828125 c 0.14858,0.180851 0.30946,0.346867 0.48633,0.5 0.95073,-1.320943 1.50516,-2.791121 2.83008,-4.228516 0.18554,0.0161 0.40179,0.04442 0.61914,0.01758 a 18.608243,18.830883 0 0 0 0.12305,5.154297 h -3.42383 c -0.81435,0 -1.45703,-0.644183 -1.45703,-1.466797 V 54.61729 c 1.03428,-0.356116 2.05688,-0.688037 3.02343,-1.214844 z"
       transform="translate(-118.4973,-1.0001)" />
    <path
       id="path40"
       style="fill:url(#linearGradient41);fill-opacity:1"
       d="m 151.80394,7.0001 -0.004,0.00195 -19.35351,0.00391 c -1.35355,0 -2.45703,1.1084593 -2.45703,2.4648437 V 57.533303 c 0,1.356386 1.10343,2.466797 2.45703,2.466797 h 36.09375 c 1.35354,0 2.45703,-1.110412 2.45703,-2.466797 V 26.183694 c 0,-0.440775 -0.10327,-0.93784 -0.29297,-1.464844 h 0.0606 l -0.35547,-0.722656 c -0.0256,-0.05172 -0.0587,-0.104197 -0.0859,-0.15625 l -0.0605,-0.125 h -0.008 c -0.33862,-0.618179 -0.7885,-1.252822 -1.38476,-1.84961 l -0.002,-0.002 L 156.26488,9.1524437 C 155.67159,8.4151755 155.0115,7.918962 154.36644,7.59385 154.28114,7.550863 154.19507,7.50998 154.11058,7.4727562 l -0.0859,-0.037109 -0.0312,-0.00195 C 153.20882,7.1007523 152.46804,7.0001 151.90941,7.0001 Z m 0.11523,1.0019531 c 0.37972,7.572e-4 0.91296,0.1248404 1.44727,0.3105469 v 13.935547 c 0,1.22231 0.89866,2.235584 2.06641,2.425781 0.12731,0.02382 0.25744,0.03746 0.39062,0.04102 0.0224,5.98e-4 0.0439,0.0039 0.0664,0.0039 h 13.69336 c 0.23563,0.562366 0.41406,1.117889 0.41406,1.464844 v 31.349609 c 0,0.822556 -0.64278,1.466797 -1.45703,1.466797 h -15.79883 a 18.106682,18.324356 0 0 0 0.10352,-0.06836 18.090957,18.307803 0 0 0 3.07031,-10.175782 c 0,-10.104881 -8.14944,-18.402343 -18.2832,-18.402343 h -0.004 A 18.26311,18.482439 0 0 0 130.98949,31.6251 V 9.4708031 c 0,-0.8225555 0.64277,-1.4667967 1.45703,-1.4667969 z m 2.47071,0.9238281 c 0.38082,0.2545633 0.76637,0.4323997 1.12695,0.8886719 l 0.0176,0.021484 12.62695,12.7343749 c 0.37192,0.371984 0.57528,0.75943 0.82813,1.144532 h -13.16602 c -0.0687,0 -0.13319,-0.01063 -0.19922,-0.01953 -0.70854,-0.123274 -1.23436,-0.730184 -1.23437,-1.478515 z M 137.62816,32.886819 c 0.24386,-0.0026 0.47489,0.01467 0.71875,0.02539 -0.0345,4.418041 -0.71583,13.521828 -3.14649,16.845704 -3.51481,-9.155557 -3.0885,-7.523238 -0.71875,0.277343 a 2.759413,2.7924366 0 0 0 -0.49609,0.347657 l -1.08984,-0.826172 0.54492,1.583984 c -0.81922,0.12493 -1.63511,0.125969 -2.45117,0.121094 V 38.584084 c 1.22066,3.199285 1.17783,2.49319 0,-2.289062 v -2.052734 c 1.96972,-0.992221 4.03552,-1.337972 6.63867,-1.355469 z m 3.00195,0.298828 c 6.04356,1.20176 11.31741,6.004735 12.46289,11.632812 l -0.27148,0.34961 c -0.50893,0.89056 -5.28084,2.429878 -7.01172,2.982422 -3.30542,0.716223 -5.67238,2.415179 -8.8457,2.533203 a 2.3723999,2.4007886 0 0 0 -0.69532,-0.650391 c 1.92969,-3.471117 1.29718,-12.754886 4.36133,-16.847656 z m 11.99414,13.1875 h 0.002 l 0.71679,0.699219 c 0,0.563321 -0.0596,1.114909 -0.15234,1.683593 -0.46917,3.001668 -1.06558,5.968466 -2.30078,8.396485 l -2.62696,-0.875 c -2.99529,-1.475384 -7.48396,-2.43651 -10.67773,-4.566406 4.57778,-2.658356 10.016,-3.728427 15.03906,-5.337891 z m -20.50781,5.636719 c 0.4304,0.01989 0.87665,0.140728 1.35156,0.412109 0.0345,0.174362 0.1204,0.326343 0.19727,0.476563 l -2.67578,1.091796 v -1.824218 c 0.36876,-0.108709 0.74153,-0.174063 1.12695,-0.15625 z m 5.31641,0.960937 c 3.61024,1.389555 6.9903,1.778598 10.65625,4.007813 l 2.0039,1.503906 A 9.5155883,9.6298051 0 0 1 149.71996,59.0001 H 137.7141 c -0.62585,-1.727114 -1.31725,-3.441925 -1.22266,-5.306641 0.70508,0.273616 1.07289,0.629038 1.85742,1.181641 -0.35254,-0.536497 -0.78376,-0.885989 -1.08594,-1.556641 a 1.6540752,1.6738563 0 0 0 0.16993,-0.347656 z m -3.41993,0.431641 c 0.15905,0.144856 0.3711,0.24838 0.59375,0.326172 l -2.79492,3.828125 c 0.14858,0.180851 0.30946,0.346867 0.48633,0.5 0.95073,-1.320943 1.50516,-2.791121 2.83008,-4.228516 0.18554,0.0161 0.40179,0.04442 0.61914,0.01758 a 18.608243,18.830883 0 0 0 0.12305,5.154297 h -3.42383 c -0.81435,0 -1.45703,-0.644183 -1.45703,-1.466797 V 54.61729 c 1.03428,-0.356116 2.05688,-0.688037 3.02343,-1.214844 z"
       transform="translate(-118.4973,-1.0001)" />
  </g>
</svg>
