<?xml version="1.0" encoding="UTF-8" standalone="no"?>
<svg
   width="43.546024"
   height="55.538212"
   version="1.1"
   viewBox="0 0 43.546024 55.538212"
   id="svg3"
   xmlns:xlink="http://www.w3.org/1999/xlink"
   xmlns="http://www.w3.org/2000/svg"
   xmlns:svg="http://www.w3.org/2000/svg">
  <defs
     id="defs3">
    <linearGradient
       id="linearGradient9">
      <stop
         style="stop-color:#00abff;stop-opacity:0;"
         offset="0"
         id="stop10" />
      <stop
         style="stop-color:#00abff;stop-opacity:1;"
         offset="1"
         id="stop9" />
    </linearGradient>
    <linearGradient
       xlink:href="#linearGradient9"
       id="linearGradient10"
       x1="149.75577"
       y1="65.000099"
       x2="149.75577"
       y2="25.071402"
       gradientUnits="userSpaceOnUse" />
    <filter
       style="color-interpolation-filters:sRGB"
       id="filter10"
       x="-0.030947896"
       y="-0.023945386"
       width="1.0618958"
       height="1.0478908">
      <feGaussianBlur
         stdDeviation="0.52879393"
         id="feGaussianBlur10" />
    </filter>
  </defs>
  <g
     id="g10"
     transform="translate(-10.222995,-4.7308946)">
    <path
       id="path1"
       style="display:inline;opacity:0.6;fill:#00abff;fill-opacity:1;stroke:none;filter:url(#filter10)"
       d="m 151.80394,7.0001 -0.004,0.00195 -19.35351,0.00391 c -1.35355,0 -2.45703,1.1084593 -2.45703,2.4648437 V 57.533303 c 0,1.356386 1.10343,2.466797 2.45703,2.466797 h 36.09375 c 1.35354,0 2.45703,-1.110412 2.45703,-2.466797 V 26.183694 c 0,-0.440775 -0.10327,-0.93784 -0.29297,-1.464844 h 0.0606 l -0.35547,-0.722656 c -0.0256,-0.05172 -0.0587,-0.104197 -0.0859,-0.15625 l -0.0605,-0.125 h -0.008 c -0.33862,-0.618179 -0.7885,-1.252822 -1.38476,-1.84961 l -0.002,-0.002 L 156.26488,9.1524437 C 155.67159,8.4151755 155.0115,7.918962 154.36644,7.59385 154.28114,7.550863 154.19507,7.50998 154.11058,7.4727562 l -0.0859,-0.037109 -0.0312,-0.00195 C 153.20882,7.1007523 152.46804,7.0001 151.90941,7.0001 Z m 0.11523,1.0019531 c 0.37972,7.572e-4 0.91296,0.1248404 1.44727,0.3105469 v 13.935547 c 0,1.22231 0.89866,2.235584 2.06641,2.425781 0.12731,0.02382 0.25744,0.03746 0.39062,0.04102 0.0224,5.98e-4 0.0439,0.0039 0.0664,0.0039 h 13.69336 c 0.23563,0.562366 0.41406,1.117889 0.41406,1.464844 v 31.349609 c 0,0.822556 -0.64278,1.466797 -1.45703,1.466797 h -36.09375 c -0.81435,0 -1.45703,-0.644183 -1.45703,-1.466797 V 9.4708031 c 0,-0.8225555 0.64277,-1.4667967 1.45703,-1.4667969 z m 2.47071,0.9238281 c 0.38082,0.2545633 0.76637,0.4323997 1.12695,0.8886719 l 0.0176,0.021484 12.62695,12.7343749 c 0.37192,0.371984 0.57528,0.75943 0.82813,1.144532 h -13.16602 c -0.0687,0 -0.13319,-0.01063 -0.19922,-0.01953 -0.70854,-0.123274 -1.23436,-0.730184 -1.23437,-1.478515 z m -1.29492,19.0136718 -7.70899,22.011719 h 2.16016 l 7.66406,-22.011719 z m -8.97071,5.933594 -9.82422,4.162109 v 1.820313 l 9.82422,4.160156 0.58985,-1.75 -8.07227,-3.320312 8.07227,-3.320313 z m 12.35157,0 -0.5918,1.751953 8.07226,3.320313 -8.07226,3.320312 0.5918,1.75 9.82421,-4.162109 v -1.81836 z M 140.06957,51.8126 v 5.503906 h 0.74609 v -2.550781 h 2.97656 v 2.550781 h 0.7461 V 51.8126 h -0.7461 v 2.328125 h -2.97656 V 51.8126 Z m 5.30078,0 v 0.609375 h 1.89062 v 4.894531 h 0.74219 v -4.894531 h 1.89062 V 51.8126 Z m 5.36328,0 v 5.503906 h 0.66406 v -3.671875 l -0.0156,-0.738281 -0.0117,-0.433594 0.1289,0.429688 0.21875,0.664062 1.44141,3.75 h 0.52344 l 1.42187,-3.75 c 0.10156,-0.26302 0.21615,-0.627604 0.34375,-1.09375 -0.0234,0.375 -0.0351,0.765625 -0.0351,1.171875 v 3.671875 h 0.67187 V 51.8126 h -0.95703 l -1.4375,3.816406 c -0.0234,0.05469 -0.069,0.188802 -0.13672,0.402344 -0.0651,0.210937 -0.10807,0.36849 -0.12891,0.472656 -0.0156,-0.07813 -0.0482,-0.204427 -0.0976,-0.378906 -0.0469,-0.177083 -0.0964,-0.342448 -0.14844,-0.496094 L 151.7141,51.8126 Z m 6.66406,0 v 5.503906 h 3.52734 v -0.609375 h -2.78125 V 51.8126 Z"
       transform="translate(-118.4973,-1.0001)" />
    <path
       id="path9"
       style="fill:url(#linearGradient10);fill-opacity:1;stroke:none"
       d="m 151.80394,7.0001 -0.004,0.00195 -19.35351,0.00391 c -1.35355,0 -2.45703,1.1084593 -2.45703,2.4648437 V 57.533303 c 0,1.356386 1.10343,2.466797 2.45703,2.466797 h 36.09375 c 1.35354,0 2.45703,-1.110412 2.45703,-2.466797 V 26.183694 c 0,-0.440775 -0.10327,-0.93784 -0.29297,-1.464844 h 0.0606 l -0.35547,-0.722656 c -0.0256,-0.05172 -0.0587,-0.104197 -0.0859,-0.15625 l -0.0605,-0.125 h -0.008 c -0.33862,-0.618179 -0.7885,-1.252822 -1.38476,-1.84961 l -0.002,-0.002 L 156.26488,9.1524437 C 155.67159,8.4151755 155.0115,7.918962 154.36644,7.59385 154.28114,7.550863 154.19507,7.50998 154.11058,7.4727562 l -0.0859,-0.037109 -0.0312,-0.00195 C 153.20882,7.1007523 152.46804,7.0001 151.90941,7.0001 Z m 0.11523,1.0019531 c 0.37972,7.572e-4 0.91296,0.1248404 1.44727,0.3105469 v 13.935547 c 0,1.22231 0.89866,2.235584 2.06641,2.425781 0.12731,0.02382 0.25744,0.03746 0.39062,0.04102 0.0224,5.98e-4 0.0439,0.0039 0.0664,0.0039 h 13.69336 c 0.23563,0.562366 0.41406,1.117889 0.41406,1.464844 v 31.349609 c 0,0.822556 -0.64278,1.466797 -1.45703,1.466797 h -36.09375 c -0.81435,0 -1.45703,-0.644183 -1.45703,-1.466797 V 9.4708031 c 0,-0.8225555 0.64277,-1.4667967 1.45703,-1.4667969 z m 2.47071,0.9238281 c 0.38082,0.2545633 0.76637,0.4323997 1.12695,0.8886719 l 0.0176,0.021484 12.62695,12.7343749 c 0.37192,0.371984 0.57528,0.75943 0.82813,1.144532 h -13.16602 c -0.0687,0 -0.13319,-0.01063 -0.19922,-0.01953 -0.70854,-0.123274 -1.23436,-0.730184 -1.23437,-1.478515 z m -1.29492,19.0136718 -7.70899,22.011719 h 2.16016 l 7.66406,-22.011719 z m -8.97071,5.933594 -9.82422,4.162109 v 1.820313 l 9.82422,4.160156 0.58985,-1.75 -8.07227,-3.320312 8.07227,-3.320313 z m 12.35157,0 -0.5918,1.751953 8.07226,3.320313 -8.07226,3.320312 0.5918,1.75 9.82421,-4.162109 v -1.81836 z M 140.06957,51.8126 v 5.503906 h 0.74609 v -2.550781 h 2.97656 v 2.550781 h 0.7461 V 51.8126 h -0.7461 v 2.328125 h -2.97656 V 51.8126 Z m 5.30078,0 v 0.609375 h 1.89062 v 4.894531 h 0.74219 v -4.894531 h 1.89062 V 51.8126 Z m 5.36328,0 v 5.503906 h 0.66406 v -3.671875 l -0.0156,-0.738281 -0.0117,-0.433594 0.1289,0.429688 0.21875,0.664062 1.44141,3.75 h 0.52344 l 1.42187,-3.75 c 0.10156,-0.26302 0.21615,-0.627604 0.34375,-1.09375 -0.0234,0.375 -0.0351,0.765625 -0.0351,1.171875 v 3.671875 h 0.67187 V 51.8126 h -0.95703 l -1.4375,3.816406 c -0.0234,0.05469 -0.069,0.188802 -0.13672,0.402344 -0.0651,0.210937 -0.10807,0.36849 -0.12891,0.472656 -0.0156,-0.07813 -0.0482,-0.204427 -0.0976,-0.378906 -0.0469,-0.177083 -0.0964,-0.342448 -0.14844,-0.496094 L 151.7141,51.8126 Z m 6.66406,0 v 5.503906 h 3.52734 v -0.609375 h -2.78125 V 51.8126 Z"
       transform="translate(-118.4973,-1.0001)" />
  </g>
</svg>
