<?xml version="1.0" encoding="UTF-8" standalone="no"?>
<svg
   width="43.546024"
   height="55.538212"
   version="1.1"
   viewBox="0 0 43.546024 55.538212"
   id="svg3"
   xmlns:xlink="http://www.w3.org/1999/xlink"
   xmlns="http://www.w3.org/2000/svg"
   xmlns:svg="http://www.w3.org/2000/svg">
  <defs
     id="defs3">
    <linearGradient
       id="linearGradient7">
      <stop
         style="stop-color:#039bfc;stop-opacity:0;"
         offset="0"
         id="stop8" />
      <stop
         style="stop-color:#039bfc;stop-opacity:1;"
         offset="1"
         id="stop7" />
    </linearGradient>
    <linearGradient
       xlink:href="#linearGradient7"
       id="linearGradient8"
       x1="149.33788"
       y1="65.000099"
       x2="149.33788"
       y2="23.608795"
       gradientUnits="userSpaceOnUse" />
    <filter
       style="color-interpolation-filters:sRGB"
       id="filter8"
       x="-0.030947896"
       y="-0.023945386"
       width="1.0618958"
       height="1.0478908">
      <feGaussianBlur
         stdDeviation="0.52879393"
         id="feGaussianBlur8" />
    </filter>
  </defs>
  <g
     id="g8"
     transform="translate(-10.222995,-4.7308946)">
    <path
       id="path1"
       style="display:inline;opacity:0.6;fill:#039bfc;filter:url(#filter8)"
       d="m 151.80394,7.0001 -0.004,0.00195 -19.35351,0.00391 c -1.35355,0 -2.45703,1.1084593 -2.45703,2.4648437 V 57.533303 c 0,1.356386 1.10343,2.466797 2.45703,2.466797 h 36.09375 c 1.35354,0 2.45703,-1.110412 2.45703,-2.466797 V 26.183694 c 0,-0.440775 -0.10327,-0.93784 -0.29297,-1.464844 h 0.0606 l -0.35547,-0.722656 c -0.0256,-0.05172 -0.0587,-0.104197 -0.0859,-0.15625 l -0.0605,-0.125 h -0.008 c -0.33862,-0.618179 -0.7885,-1.252822 -1.38476,-1.84961 l -0.002,-0.002 L 156.26488,9.1524437 C 155.67159,8.4151755 155.0115,7.918962 154.36644,7.59385 154.28114,7.550863 154.19507,7.50998 154.11058,7.4727562 l -0.0859,-0.037109 -0.0312,-0.00195 C 153.20882,7.1007523 152.46804,7.0001 151.90941,7.0001 Z m 0.11523,1.0019531 c 0.37972,7.572e-4 0.91296,0.1248404 1.44727,0.3105469 v 13.935547 c 0,1.22231 0.89866,2.235584 2.06641,2.425781 0.12731,0.02382 0.25744,0.03746 0.39062,0.04102 0.0224,5.98e-4 0.0439,0.0039 0.0664,0.0039 h 13.69336 c 0.23563,0.562366 0.41406,1.117889 0.41406,1.464844 v 31.349609 c 0,0.822556 -0.64278,1.466797 -1.45703,1.466797 h -36.09375 c -0.81435,0 -1.45703,-0.644183 -1.45703,-1.466797 V 9.4708031 c 0,-0.8225555 0.64277,-1.4667967 1.45703,-1.4667969 z m 2.47071,0.9238281 c 0.38082,0.2545633 0.76637,0.4323997 1.12695,0.8886719 l 0.0176,0.021484 12.62695,12.7343749 c 0.37192,0.371984 0.57528,0.75943 0.82813,1.144532 h -13.16602 c -0.0687,0 -0.13319,-0.01063 -0.19922,-0.01953 -0.70854,-0.123274 -1.23436,-0.730184 -1.23437,-1.478515 z m -5.48047,20.0449218 c -1.75835,0 -3.17383,1.415481 -3.17383,3.173828 v 11.109375 c 0,1.758348 1.41548,3.173828 3.17383,3.173828 h 11.10937 c 1.75835,0 3.17383,-1.41548 3.17383,-3.173828 V 32.144631 c 0,-1.758347 -1.41548,-3.173828 -3.17383,-3.173828 z m 0,1.587891 h 11.10937 c 0.87918,0 1.58789,0.706764 1.58789,1.585937 v 11.109375 c 0,0.879175 -0.70871,1.585938 -1.58789,1.585938 h -11.10937 c -0.87917,0 -1.58594,-0.706763 -1.58594,-1.585938 V 32.144631 c 0,-0.879173 0.70677,-1.585937 1.58594,-1.585937 z m 4.11328,1.585937 -3.59375,11.109375 h 2.36719 l 0.76562,-2.634765 h 3.81446 l 0.75781,2.634765 h 2.36719 l -3.61133,-11.109375 z m 1.44531,1.558594 c 0.0252,0.176566 0.0703,0.390336 0.13086,0.642578 0.0605,0.25224 0.12191,0.507525 0.1875,0.759766 0.0706,0.247206 0.13478,0.470899 0.19531,0.677734 0.0605,0.206842 0.10644,0.356459 0.13672,0.447266 l 0.71289,2.423828 h -2.70312 l 0.70508,-2.423828 c 0.0151,-0.05549 0.0361,-0.141791 0.0664,-0.257813 0.0353,-0.116023 0.0749,-0.249035 0.11524,-0.40039 0.0404,-0.151347 0.0815,-0.310903 0.12695,-0.482422 0.0454,-0.171518 0.0905,-0.341331 0.13086,-0.507813 0.0454,-0.171528 0.081,-0.333034 0.11133,-0.484375 0.0353,-0.151348 0.0638,-0.28355 0.084,-0.394531 z m -13.49218,3.203125 c -1.75835,0 -3.17383,1.41548 -3.17383,3.173828 V 51.1876 c 0,1.758347 1.41548,3.175781 3.17383,3.175781 h 11.10937 c 1.75835,0 3.17383,-1.417434 3.17383,-3.175781 v -3.173828 h -1.58789 V 51.1876 c 0,0.879173 -0.70677,1.587891 -1.58594,1.587891 h -11.10937 c -0.87918,0 -1.5879,-0.708718 -1.5879,-1.587891 V 40.080178 c 0,-0.879175 0.70872,-1.58789 1.5879,-1.58789 h 1.58593 V 36.90635 Z m 0.17578,4.320313 v 7.958984 h 0.7207 v -1.183594 h 1.78125 v -1.74414 c -0.28559,-0.348971 -0.54089,-0.726481 -0.71875,-1.148438 v 2.048828 h -1.0625 v -5.08789 h 0.68945 v -0.84375 z m 3.63086,6.044921 c -0.41563,1.261869 -0.94171,2.634975 -1.35743,3.488282 L 144.218,51.1876 c 0.41839,-1.012924 0.90028,-2.339654 1.28907,-3.533203 -0.25517,-0.104908 -0.4942,-0.237162 -0.72461,-0.382813 z m 1.67578,0.65625 c -0.0937,0.558246 -0.1881,1.170449 -0.27539,1.59961 h 4.01757 c -0.061,0.366222 -0.14843,0.599621 -0.24609,0.697265 -0.12207,0.146493 -0.24414,0.169922 -0.43945,0.169922 -0.21973,0 -0.78075,-0.01368 -1.37891,-0.0625 0.13427,0.21973 0.22022,0.537598 0.23242,0.769532 0.57375,0.02441 1.1455,0.03616 1.46289,0.01172 0.35402,-0.03663 0.58496,-0.133284 0.80469,-0.414062 0.1587,-0.195324 0.26904,-0.537092 0.37891,-1.171875 h 0.69726 v -0.769531 h -0.59765 c 0.0237,-0.199131 0.0419,-0.509207 0.0625,-0.744141 h -0.78125 c -0.0206,0.234362 -0.0388,0.5545 -0.0625,0.744141 h -3.19922 c 0.0335,-0.224698 0.0783,-0.502945 0.11523,-0.75 -0.27021,-0.0041 -0.53375,-0.03304 -0.79101,-0.08008 z m 2.23242,0.08594 c 0.26593,0.243614 0.4982,0.487384 0.64062,0.685547 l 0.48633,-0.476563 c -0.0481,-0.06155 -0.1404,-0.141323 -0.20312,-0.208984 z"
       transform="translate(-118.4973,-1.0001)" />
    <path
       id="path7"
       style="fill:url(#linearGradient8);fill-opacity:1"
       d="m 151.80394,7.0001 -0.004,0.00195 -19.35351,0.00391 c -1.35355,0 -2.45703,1.1084593 -2.45703,2.4648437 V 57.533303 c 0,1.356386 1.10343,2.466797 2.45703,2.466797 h 36.09375 c 1.35354,0 2.45703,-1.110412 2.45703,-2.466797 V 26.183694 c 0,-0.440775 -0.10327,-0.93784 -0.29297,-1.464844 h 0.0606 l -0.35547,-0.722656 c -0.0256,-0.05172 -0.0587,-0.104197 -0.0859,-0.15625 l -0.0605,-0.125 h -0.008 c -0.33862,-0.618179 -0.7885,-1.252822 -1.38476,-1.84961 l -0.002,-0.002 L 156.26488,9.1524437 C 155.67159,8.4151755 155.0115,7.918962 154.36644,7.59385 154.28114,7.550863 154.19507,7.50998 154.11058,7.4727562 l -0.0859,-0.037109 -0.0312,-0.00195 C 153.20882,7.1007523 152.46804,7.0001 151.90941,7.0001 Z m 0.11523,1.0019531 c 0.37972,7.572e-4 0.91296,0.1248404 1.44727,0.3105469 v 13.935547 c 0,1.22231 0.89866,2.235584 2.06641,2.425781 0.12731,0.02382 0.25744,0.03746 0.39062,0.04102 0.0224,5.98e-4 0.0439,0.0039 0.0664,0.0039 h 13.69336 c 0.23563,0.562366 0.41406,1.117889 0.41406,1.464844 v 31.349609 c 0,0.822556 -0.64278,1.466797 -1.45703,1.466797 h -36.09375 c -0.81435,0 -1.45703,-0.644183 -1.45703,-1.466797 V 9.4708031 c 0,-0.8225555 0.64277,-1.4667967 1.45703,-1.4667969 z m 2.47071,0.9238281 c 0.38082,0.2545633 0.76637,0.4323997 1.12695,0.8886719 l 0.0176,0.021484 12.62695,12.7343749 c 0.37192,0.371984 0.57528,0.75943 0.82813,1.144532 h -13.16602 c -0.0687,0 -0.13319,-0.01063 -0.19922,-0.01953 -0.70854,-0.123274 -1.23436,-0.730184 -1.23437,-1.478515 z m -5.48047,20.0449218 c -1.75835,0 -3.17383,1.415481 -3.17383,3.173828 v 11.109375 c 0,1.758348 1.41548,3.173828 3.17383,3.173828 h 11.10937 c 1.75835,0 3.17383,-1.41548 3.17383,-3.173828 V 32.144631 c 0,-1.758347 -1.41548,-3.173828 -3.17383,-3.173828 z m 0,1.587891 h 11.10937 c 0.87918,0 1.58789,0.706764 1.58789,1.585937 v 11.109375 c 0,0.879175 -0.70871,1.585938 -1.58789,1.585938 h -11.10937 c -0.87917,0 -1.58594,-0.706763 -1.58594,-1.585938 V 32.144631 c 0,-0.879173 0.70677,-1.585937 1.58594,-1.585937 z m 4.11328,1.585937 -3.59375,11.109375 h 2.36719 l 0.76562,-2.634765 h 3.81446 l 0.75781,2.634765 h 2.36719 l -3.61133,-11.109375 z m 1.44531,1.558594 c 0.0252,0.176566 0.0703,0.390336 0.13086,0.642578 0.0605,0.25224 0.12191,0.507525 0.1875,0.759766 0.0706,0.247206 0.13478,0.470899 0.19531,0.677734 0.0605,0.206842 0.10644,0.356459 0.13672,0.447266 l 0.71289,2.423828 h -2.70312 l 0.70508,-2.423828 c 0.0151,-0.05549 0.0361,-0.141791 0.0664,-0.257813 0.0353,-0.116023 0.0749,-0.249035 0.11524,-0.40039 0.0404,-0.151347 0.0815,-0.310903 0.12695,-0.482422 0.0454,-0.171518 0.0905,-0.341331 0.13086,-0.507813 0.0454,-0.171528 0.081,-0.333034 0.11133,-0.484375 0.0353,-0.151348 0.0638,-0.28355 0.084,-0.394531 z m -13.49218,3.203125 c -1.75835,0 -3.17383,1.41548 -3.17383,3.173828 V 51.1876 c 0,1.758347 1.41548,3.175781 3.17383,3.175781 h 11.10937 c 1.75835,0 3.17383,-1.417434 3.17383,-3.175781 v -3.173828 h -1.58789 V 51.1876 c 0,0.879173 -0.70677,1.587891 -1.58594,1.587891 h -11.10937 c -0.87918,0 -1.5879,-0.708718 -1.5879,-1.587891 V 40.080178 c 0,-0.879175 0.70872,-1.58789 1.5879,-1.58789 h 1.58593 V 36.90635 Z m 0.17578,4.320313 v 7.958984 h 0.7207 v -1.183594 h 1.78125 v -1.74414 c -0.28559,-0.348971 -0.54089,-0.726481 -0.71875,-1.148438 v 2.048828 h -1.0625 v -5.08789 h 0.68945 v -0.84375 z m 3.63086,6.044921 c -0.41563,1.261869 -0.94171,2.634975 -1.35743,3.488282 L 144.218,51.1876 c 0.41839,-1.012924 0.90028,-2.339654 1.28907,-3.533203 -0.25517,-0.104908 -0.4942,-0.237162 -0.72461,-0.382813 z m 1.67578,0.65625 c -0.0937,0.558246 -0.1881,1.170449 -0.27539,1.59961 h 4.01757 c -0.061,0.366222 -0.14843,0.599621 -0.24609,0.697265 -0.12207,0.146493 -0.24414,0.169922 -0.43945,0.169922 -0.21973,0 -0.78075,-0.01368 -1.37891,-0.0625 0.13427,0.21973 0.22022,0.537598 0.23242,0.769532 0.57375,0.02441 1.1455,0.03616 1.46289,0.01172 0.35402,-0.03663 0.58496,-0.133284 0.80469,-0.414062 0.1587,-0.195324 0.26904,-0.537092 0.37891,-1.171875 h 0.69726 v -0.769531 h -0.59765 c 0.0237,-0.199131 0.0419,-0.509207 0.0625,-0.744141 h -0.78125 c -0.0206,0.234362 -0.0388,0.5545 -0.0625,0.744141 h -3.19922 c 0.0335,-0.224698 0.0783,-0.502945 0.11523,-0.75 -0.27021,-0.0041 -0.53375,-0.03304 -0.79101,-0.08008 z m 2.23242,0.08594 c 0.26593,0.243614 0.4982,0.487384 0.64062,0.685547 l 0.48633,-0.476563 c -0.0481,-0.06155 -0.1404,-0.141323 -0.20312,-0.208984 z"
       transform="translate(-118.4973,-1.0001)" />
  </g>
</svg>
