<?xml version="1.0" encoding="UTF-8" standalone="no"?>
<svg
   width="43.546024"
   height="55.538212"
   version="1.1"
   viewBox="0 0 43.546024 55.538212"
   id="svg3"
   xmlns:xlink="http://www.w3.org/1999/xlink"
   xmlns="http://www.w3.org/2000/svg"
   xmlns:svg="http://www.w3.org/2000/svg">
  <defs
     id="defs3">
    <linearGradient
       id="linearGradient48">
      <stop
         style="stop-color:#039bfc;stop-opacity:0;"
         offset="0"
         id="stop49" />
      <stop
         style="stop-color:#039bfc;stop-opacity:1;"
         offset="1"
         id="stop48" />
    </linearGradient>
    <linearGradient
       xlink:href="#linearGradient48"
       id="linearGradient49"
       x1="149.6857"
       y1="65.000099"
       x2="149.6857"
       y2="23.840679"
       gradientUnits="userSpaceOnUse" />
    <filter
       style="color-interpolation-filters:sRGB"
       id="filter49"
       x="-0.030947896"
       y="-0.023945386"
       width="1.0618958"
       height="1.0478908">
      <feGaussianBlur
         stdDeviation="0.52879393"
         id="feGaussianBlur49" />
    </filter>
  </defs>
  <g
     id="g49"
     transform="translate(-10.222995,-4.7308946)">
    <path
       id="path1"
       style="display:inline;opacity:0.6;fill:#039bfc;filter:url(#filter49)"
       d="m 151.80394,7.0001 -0.004,0.00195 -19.35351,0.00391 c -1.35355,0 -2.45703,1.1084593 -2.45703,2.4648437 V 57.533303 c 0,1.356386 1.10343,2.466797 2.45703,2.466797 h 36.09375 c 1.35354,0 2.45703,-1.110412 2.45703,-2.466797 V 26.183694 c 0,-0.440775 -0.10327,-0.93784 -0.29297,-1.464844 h 0.0606 l -0.35547,-0.722656 c -0.0256,-0.05172 -0.0587,-0.104197 -0.0859,-0.15625 l -0.0605,-0.125 h -0.008 c -0.33862,-0.618179 -0.7885,-1.252822 -1.38476,-1.84961 l -0.002,-0.002 L 156.26488,9.1524437 C 155.67159,8.4151755 155.0115,7.918962 154.36644,7.59385 154.28114,7.550863 154.19507,7.50998 154.11058,7.4727562 l -0.0859,-0.037109 -0.0312,-0.00195 C 153.20882,7.1007523 152.46804,7.0001 151.90941,7.0001 Z m 0.11523,1.0019531 c 0.37972,7.572e-4 0.91296,0.1248404 1.44727,0.3105469 v 13.935547 c 0,1.22231 0.89866,2.235584 2.06641,2.425781 0.12731,0.02382 0.25744,0.03746 0.39062,0.04102 0.0224,5.98e-4 0.0439,0.0039 0.0664,0.0039 h 13.69336 c 0.23563,0.562366 0.41406,1.117889 0.41406,1.464844 v 31.349609 c 0,0.822556 -0.64278,1.466797 -1.45703,1.466797 h -36.09375 c -0.81435,0 -1.45703,-0.644183 -1.45703,-1.466797 V 9.4708031 c 0,-0.8225555 0.64277,-1.4667967 1.45703,-1.4667969 z m 2.47071,0.9238281 c 0.38082,0.2545633 0.76637,0.4323997 1.12695,0.8886719 l 0.0176,0.021484 12.62695,12.7343749 c 0.37192,0.371984 0.57528,0.75943 0.82813,1.144532 h -13.16602 c -0.0687,0 -0.13319,-0.01063 -0.19922,-0.01953 -0.70854,-0.123274 -1.23436,-0.730184 -1.23437,-1.478515 z M 135.4973,29.666116 v 23 h 11 c 2.22411,1.81e-4 3.59766,1.792968 3.59766,1.792968 l 0.002,0.0039 0.39258,0.519531 0.40429,-0.511719 0.004,-0.0059 c 0,0 1.40778,-1.763715 3.59961,-1.798828 h 11 v -23 h -11 c -1.92283,0 -2.95899,0.826261 -3.65039,1.498046 l -0.34961,0.339844 -0.34766,-0.339844 c -0.69159,-0.671824 -1.73015,-1.498046 -3.65234,-1.498046 z m 1,1 h 10 c 2.23711,2.04e-4 3.5957,1.791015 3.5957,1.791015 l 0.002,0.0039 0.40234,0.539062 0.4043,-0.539062 0.002,-0.0039 c 0,0 1.35653,-1.791015 3.59375,-1.791015 h 10 v 21 h -10.00781 c -1.9019,0.02759 -2.94712,0.85185 -3.63867,1.509765 l -0.34961,0.332032 -0.34375,-0.335938 c -0.67436,-0.657348 -1.81919,-1.597893 -3.66016,-1.505859 h -10 v -20.5 z m 3.97461,3.5 -1.58594,4.177734 h -0.38867 v 0.322266 h 1.125 V 38.34385 h -0.36133 l 0.37695,-0.964844 h 1.86329 l 0.375,0.964844 h -0.48633 v 0.322266 h 1.61328 V 38.34385 h -0.44336 l -1.58789,-4.177734 z m 3.52539,0 v 0.5 h 3.5 v -0.5 z m 9.50195,0 v 0.5 h 9 v -0.5 z m -12.92968,0.722656 0.82031,2.169922 h -1.62696 z m 3.42773,1.277344 v 0.5 h 3.5 v -0.5 z m 9.50195,0 v 0.5 h 9 v -0.5 z m -9.50195,2 v 0.5 h 3.5 v -0.5 z m 9.50195,0 v 0.5 h 9 v -0.5 z m -15.00195,2 v 0.5 h 9 v -0.5 z m 15.00195,0 v 0.5 h 9 v -0.5 z m -15.00195,2 v 0.5 h 9 v -0.5 z m 15.00195,0 v 0.5 h 9 v -0.5 z m -15.00195,2 v 0.5 h 9 v -0.5 z m 15.00195,0 v 0.5 h 9 v -0.5 z m -15.00195,2 v 0.5 h 9 v -0.5 z m 15.00195,0 v 0.5 h 9 v -0.5 z m -15.00195,2 v 0.5 h 9 v -0.5 z m 15.00195,0 v 0.5 h 5 v -0.5 z"
       transform="translate(-118.4973,-1.0001)" />
    <path
       id="path48"
       style="fill:url(#linearGradient49);fill-opacity:1"
       d="m 151.80394,7.0001 -0.004,0.00195 -19.35351,0.00391 c -1.35355,0 -2.45703,1.1084593 -2.45703,2.4648437 V 57.533303 c 0,1.356386 1.10343,2.466797 2.45703,2.466797 h 36.09375 c 1.35354,0 2.45703,-1.110412 2.45703,-2.466797 V 26.183694 c 0,-0.440775 -0.10327,-0.93784 -0.29297,-1.464844 h 0.0606 l -0.35547,-0.722656 c -0.0256,-0.05172 -0.0587,-0.104197 -0.0859,-0.15625 l -0.0605,-0.125 h -0.008 c -0.33862,-0.618179 -0.7885,-1.252822 -1.38476,-1.84961 l -0.002,-0.002 L 156.26488,9.1524437 C 155.67159,8.4151755 155.0115,7.918962 154.36644,7.59385 154.28114,7.550863 154.19507,7.50998 154.11058,7.4727562 l -0.0859,-0.037109 -0.0312,-0.00195 C 153.20882,7.1007523 152.46804,7.0001 151.90941,7.0001 Z m 0.11523,1.0019531 c 0.37972,7.572e-4 0.91296,0.1248404 1.44727,0.3105469 v 13.935547 c 0,1.22231 0.89866,2.235584 2.06641,2.425781 0.12731,0.02382 0.25744,0.03746 0.39062,0.04102 0.0224,5.98e-4 0.0439,0.0039 0.0664,0.0039 h 13.69336 c 0.23563,0.562366 0.41406,1.117889 0.41406,1.464844 v 31.349609 c 0,0.822556 -0.64278,1.466797 -1.45703,1.466797 h -36.09375 c -0.81435,0 -1.45703,-0.644183 -1.45703,-1.466797 V 9.4708031 c 0,-0.8225555 0.64277,-1.4667967 1.45703,-1.4667969 z m 2.47071,0.9238281 c 0.38082,0.2545633 0.76637,0.4323997 1.12695,0.8886719 l 0.0176,0.021484 12.62695,12.7343749 c 0.37192,0.371984 0.57528,0.75943 0.82813,1.144532 h -13.16602 c -0.0687,0 -0.13319,-0.01063 -0.19922,-0.01953 -0.70854,-0.123274 -1.23436,-0.730184 -1.23437,-1.478515 z M 135.4973,29.666116 v 23 h 11 c 2.22411,1.81e-4 3.59766,1.792968 3.59766,1.792968 l 0.002,0.0039 0.39258,0.519531 0.40429,-0.511719 0.004,-0.0059 c 0,0 1.40778,-1.763715 3.59961,-1.798828 h 11 v -23 h -11 c -1.92283,0 -2.95899,0.826261 -3.65039,1.498046 l -0.34961,0.339844 -0.34766,-0.339844 c -0.69159,-0.671824 -1.73015,-1.498046 -3.65234,-1.498046 z m 1,1 h 10 c 2.23711,2.04e-4 3.5957,1.791015 3.5957,1.791015 l 0.002,0.0039 0.40234,0.539062 0.4043,-0.539062 0.002,-0.0039 c 0,0 1.35653,-1.791015 3.59375,-1.791015 h 10 v 21 h -10.00781 c -1.9019,0.02759 -2.94712,0.85185 -3.63867,1.509765 l -0.34961,0.332032 -0.34375,-0.335938 c -0.67436,-0.657348 -1.81919,-1.597893 -3.66016,-1.505859 h -10 v -20.5 z m 3.97461,3.5 -1.58594,4.177734 h -0.38867 v 0.322266 h 1.125 V 38.34385 h -0.36133 l 0.37695,-0.964844 h 1.86329 l 0.375,0.964844 h -0.48633 v 0.322266 h 1.61328 V 38.34385 h -0.44336 l -1.58789,-4.177734 z m 3.52539,0 v 0.5 h 3.5 v -0.5 z m 9.50195,0 v 0.5 h 9 v -0.5 z m -12.92968,0.722656 0.82031,2.169922 h -1.62696 z m 3.42773,1.277344 v 0.5 h 3.5 v -0.5 z m 9.50195,0 v 0.5 h 9 v -0.5 z m -9.50195,2 v 0.5 h 3.5 v -0.5 z m 9.50195,0 v 0.5 h 9 v -0.5 z m -15.00195,2 v 0.5 h 9 v -0.5 z m 15.00195,0 v 0.5 h 9 v -0.5 z m -15.00195,2 v 0.5 h 9 v -0.5 z m 15.00195,0 v 0.5 h 9 v -0.5 z m -15.00195,2 v 0.5 h 9 v -0.5 z m 15.00195,0 v 0.5 h 9 v -0.5 z m -15.00195,2 v 0.5 h 9 v -0.5 z m 15.00195,0 v 0.5 h 9 v -0.5 z m -15.00195,2 v 0.5 h 9 v -0.5 z m 15.00195,0 v 0.5 h 5 v -0.5 z"
       transform="translate(-118.4973,-1.0001)" />
  </g>
</svg>
