<?xml version="1.0" encoding="UTF-8" standalone="no"?>
<svg
   width="43.546032"
   height="55.538212"
   version="1.1"
   viewBox="0 0 43.546032 55.538212"
   id="svg5"
   xmlns:xlink="http://www.w3.org/1999/xlink"
   xmlns="http://www.w3.org/2000/svg"
   xmlns:svg="http://www.w3.org/2000/svg">
  <defs
     id="defs5">
    <linearGradient
       id="linearGradient6">
      <stop
         style="stop-color:#00abff;stop-opacity:0;"
         offset="0"
         id="stop7" />
      <stop
         style="stop-color:#00abff;stop-opacity:1;"
         offset="1"
         id="stop6" />
    </linearGradient>
    <linearGradient
       xlink:href="#linearGradient6"
       id="linearGradient7"
       x1="150.84183"
       y1="65.000702"
       x2="150.84183"
       y2="26.276062"
       gradientUnits="userSpaceOnUse" />
    <filter
       style="color-interpolation-filters:sRGB"
       id="filter7"
       x="-0.030947892"
       y="-0.023945388"
       width="1.0618958"
       height="1.0478908">
      <feGaussianBlur
         stdDeviation="0.52879399"
         id="feGaussianBlur7" />
    </filter>
  </defs>
  <g
     id="g7"
     transform="translate(-10.226894,-4.7308945)">
    <path
       id="path1"
       style="display:inline;opacity:0.6;fill:#00abff;fill-opacity:1;stroke:none;filter:url(#filter7)"
       d="m 151.80455,7.0007 -0.004,0.00195 -19.35352,0.00391 c -1.35355,0 -2.45703,1.1084593 -2.45703,2.4648437 V 57.533903 c 0,1.356386 1.10343,2.466797 2.45703,2.466797 h 36.09375 c 1.35355,0 2.45704,-1.110412 2.45704,-2.466797 V 26.184294 c 0,-0.440398 -0.1036,-0.938346 -0.29297,-1.464844 h 0.0605 l -0.35546,-0.722656 c -0.0264,-0.05334 -0.0597,-0.108424 -0.0879,-0.16211 l -0.0586,-0.11914 h -0.006 c -0.33871,-0.618687 -0.78993,-1.252303 -1.38672,-1.84961 l -0.002,-0.002 -12.60352,-12.7109372 c -0.67176,-0.8348309 -1.43073,-1.3609224 -2.15429,-1.6796875 l -0.0859,-0.037109 -0.0312,-0.00195 C 153.20943,7.1013523 152.46865,7.0007 151.91002,7.0007 Z m 0.11523,1.0019531 c 0.37972,7.572e-4 0.91296,0.1248404 1.44727,0.3105469 v 13.935547 c 0,1.22231 0.89865,2.235584 2.0664,2.425781 0.1487,0.02782 0.30052,0.04492 0.45703,0.04492 h 13.69336 c 0.23564,0.562366 0.41407,1.117889 0.41407,1.464844 v 31.349609 c 0,0.822556 -0.64279,1.466797 -1.45704,1.466797 h -36.09375 c -0.81434,0 -1.45703,-0.644183 -1.45703,-1.466797 V 9.4714031 c 0,-0.8225555 0.64277,-1.4667968 1.45703,-1.4667968 z m 2.4707,0.9238282 c 0.38082,0.2545631 0.76638,0.4323996 1.12696,0.8886718 l 0.0176,0.021484 12.62695,12.7343749 c 0.37192,0.371986 0.57527,0.759428 0.82812,1.144532 H 155.8241 c -0.059,0 -0.1149,-0.011 -0.17188,-0.01758 -0.72221,-0.112338 -1.26171,-0.722641 -1.26172,-1.480469 z m -4.01953,21.6640627 a 0.5,0.5 0 0 0 -0.0215,0.03516 0.5,0.5 0 0 0 -0.33203,0.318359 c -0.91491,3.413828 -2.62781,6.146513 -4.14258,8.53711 -1.51477,2.390597 -2.875,4.437896 -2.875,6.591797 0,4.136219 3.36378,7.5 7.5,7.5 4.13622,0 7.5,-3.363781 7.5,-7.5 0,-2.153901 -1.36023,-4.2012 -2.875,-6.591797 -1.51477,-2.390597 -3.22767,-5.123282 -4.14258,-8.53711 a 0.5,0.5 0 0 0 -0.01,-0.0059 0.5,0.5 0 0 0 -0.34375,-0.347656 0.5,0.5 0 0 0 -0.21094,0.02734 0.5,0.5 0 0 0 -0.0469,-0.02734 z m 0.12891,1.828125 c 1.00661,2.976232 2.45502,5.504613 3.78125,7.597656 1.51623,2.392903 2.71875,4.344541 2.71875,6.056641 0,3.595781 -2.90422,6.5 -6.5,6.5 -3.59578,0 -6.5,-2.904219 -6.5,-6.5 0,-1.7121 1.20252,-3.663738 2.71875,-6.056641 1.32623,-2.093043 2.77464,-4.621424 3.78125,-7.597656 z m 3.70117,10.763672 a 0.5,0.5 0 0 0 -0.12891,0.0918 0.5,0.5 0 0 0 -0.0547,-0.0078 0.5,0.5 0 0 0 -0.008,0.05273 0.5,0.5 0 0 0 -0.17968,0.464844 c 0.0853,0.360886 0.12877,0.730428 0.13086,1.101563 -0.002,2.711658 -2.18848,4.899315 -4.90039,4.90039 -0.36945,-0.0014 -0.73788,-0.04483 -1.09766,-0.128906 a 0.50005,0.50005 0 0 0 -0.41211,0.888672 c 0.8821,0.655313 1.95185,1.009614 3.05078,1.011719 2.82823,0 5.13281,-2.302533 5.13281,-5.13086 a 0.50005,0.50005 0 0 0 0,-0.002 c -0.002,-1.100895 -0.35808,-2.171611 -1.01562,-3.054687 a 0.5,0.5 0 0 0 -0.0527,-0.0078 0.5,0.5 0 0 0 -0.46484,-0.179687 z m 0.48047,3.082031 c 0.003,0.05807 0.0526,0.103797 0.0527,0.162109 0,2.287207 -1.844,4.129786 -4.13086,4.13086 -0.057,-1.1e-4 -0.10142,-0.05029 -0.1582,-0.05273 2.11242,-0.526374 3.71143,-2.127246 4.23633,-4.240234 z"
       transform="translate(-118.494,-1.0007)" />
    <path
       id="path6"
       style="fill:url(#linearGradient7);fill-opacity:1;stroke:none"
       d="m 151.80455,7.0007 -0.004,0.00195 -19.35352,0.00391 c -1.35355,0 -2.45703,1.1084593 -2.45703,2.4648437 V 57.533903 c 0,1.356386 1.10343,2.466797 2.45703,2.466797 h 36.09375 c 1.35355,0 2.45704,-1.110412 2.45704,-2.466797 V 26.184294 c 0,-0.440398 -0.1036,-0.938346 -0.29297,-1.464844 h 0.0605 l -0.35546,-0.722656 c -0.0264,-0.05334 -0.0597,-0.108424 -0.0879,-0.16211 l -0.0586,-0.11914 h -0.006 c -0.33871,-0.618687 -0.78993,-1.252303 -1.38672,-1.84961 l -0.002,-0.002 -12.60352,-12.7109372 c -0.67176,-0.8348309 -1.43073,-1.3609224 -2.15429,-1.6796875 l -0.0859,-0.037109 -0.0312,-0.00195 C 153.20943,7.1013523 152.46865,7.0007 151.91002,7.0007 Z m 0.11523,1.0019531 c 0.37972,7.572e-4 0.91296,0.1248404 1.44727,0.3105469 v 13.935547 c 0,1.22231 0.89865,2.235584 2.0664,2.425781 0.1487,0.02782 0.30052,0.04492 0.45703,0.04492 h 13.69336 c 0.23564,0.562366 0.41407,1.117889 0.41407,1.464844 v 31.349609 c 0,0.822556 -0.64279,1.466797 -1.45704,1.466797 h -36.09375 c -0.81434,0 -1.45703,-0.644183 -1.45703,-1.466797 V 9.4714031 c 0,-0.8225555 0.64277,-1.4667968 1.45703,-1.4667968 z m 2.4707,0.9238282 c 0.38082,0.2545631 0.76638,0.4323996 1.12696,0.8886718 l 0.0176,0.021484 12.62695,12.7343749 c 0.37192,0.371986 0.57527,0.759428 0.82812,1.144532 H 155.8241 c -0.059,0 -0.1149,-0.011 -0.17188,-0.01758 -0.72221,-0.112338 -1.26171,-0.722641 -1.26172,-1.480469 z m -4.01953,21.6640627 a 0.5,0.5 0 0 0 -0.0215,0.03516 0.5,0.5 0 0 0 -0.33203,0.318359 c -0.91491,3.413828 -2.62781,6.146513 -4.14258,8.53711 -1.51477,2.390597 -2.875,4.437896 -2.875,6.591797 0,4.136219 3.36378,7.5 7.5,7.5 4.13622,0 7.5,-3.363781 7.5,-7.5 0,-2.153901 -1.36023,-4.2012 -2.875,-6.591797 -1.51477,-2.390597 -3.22767,-5.123282 -4.14258,-8.53711 a 0.5,0.5 0 0 0 -0.01,-0.0059 0.5,0.5 0 0 0 -0.34375,-0.347656 0.5,0.5 0 0 0 -0.21094,0.02734 0.5,0.5 0 0 0 -0.0469,-0.02734 z m 0.12891,1.828125 c 1.00661,2.976232 2.45502,5.504613 3.78125,7.597656 1.51623,2.392903 2.71875,4.344541 2.71875,6.056641 0,3.595781 -2.90422,6.5 -6.5,6.5 -3.59578,0 -6.5,-2.904219 -6.5,-6.5 0,-1.7121 1.20252,-3.663738 2.71875,-6.056641 1.32623,-2.093043 2.77464,-4.621424 3.78125,-7.597656 z m 3.70117,10.763672 a 0.5,0.5 0 0 0 -0.12891,0.0918 0.5,0.5 0 0 0 -0.0547,-0.0078 0.5,0.5 0 0 0 -0.008,0.05273 0.5,0.5 0 0 0 -0.17968,0.464844 c 0.0853,0.360886 0.12877,0.730428 0.13086,1.101563 -0.002,2.711658 -2.18848,4.899315 -4.90039,4.90039 -0.36945,-0.0014 -0.73788,-0.04483 -1.09766,-0.128906 a 0.50005,0.50005 0 0 0 -0.41211,0.888672 c 0.8821,0.655313 1.95185,1.009614 3.05078,1.011719 2.82823,0 5.13281,-2.302533 5.13281,-5.13086 a 0.50005,0.50005 0 0 0 0,-0.002 c -0.002,-1.100895 -0.35808,-2.171611 -1.01562,-3.054687 a 0.5,0.5 0 0 0 -0.0527,-0.0078 0.5,0.5 0 0 0 -0.46484,-0.179687 z m 0.48047,3.082031 c 0.003,0.05807 0.0526,0.103797 0.0527,0.162109 0,2.287207 -1.844,4.129786 -4.13086,4.13086 -0.057,-1.1e-4 -0.10142,-0.05029 -0.1582,-0.05273 2.11242,-0.526374 3.71143,-2.127246 4.23633,-4.240234 z"
       transform="translate(-118.494,-1.0007)" />
  </g>
</svg>
