<?xml version="1.0" encoding="UTF-8" standalone="no"?>
<svg
   width="43.546024"
   height="55.538212"
   version="1.1"
   viewBox="0 0 43.546024 55.538212"
   id="svg5"
   xmlns:xlink="http://www.w3.org/1999/xlink"
   xmlns="http://www.w3.org/2000/svg"
   xmlns:svg="http://www.w3.org/2000/svg">
  <defs
     id="defs5">
    <linearGradient
       id="linearGradient6">
      <stop
         style="stop-color:#00abff;stop-opacity:0;"
         offset="0"
         id="stop7" />
      <stop
         style="stop-color:#00abff;stop-opacity:1;"
         offset="1"
         id="stop6" />
    </linearGradient>
    <linearGradient
       xlink:href="#linearGradient6"
       id="linearGradient7"
       x1="150.02623"
       y1="65.000099"
       x2="150.02623"
       y2="27.282183"
       gradientUnits="userSpaceOnUse" />
    <filter
       style="color-interpolation-filters:sRGB"
       id="filter7"
       x="-0.030947896"
       y="-0.023945386"
       width="1.0618958"
       height="1.0478908">
      <feGaussianBlur
         stdDeviation="0.52879393"
         id="feGaussianBlur7" />
    </filter>
  </defs>
  <g
     id="g7"
     transform="translate(-10.230795,-4.7308946)">
    <path
       id="path1"
       style="display:inline;opacity:0.6;fill:#00abff;fill-opacity:1;filter:url(#filter7)"
       d="m 151.80445,7.0001 -0.004,0.00195 -19.35352,0.00391 c -1.35355,0 -2.45703,1.1084593 -2.45703,2.4648437 V 57.533303 c 0,1.356386 1.10343,2.466797 2.45703,2.466797 h 36.09375 c 1.35354,0 2.45703,-1.110412 2.45703,-2.466797 V 26.183694 c 0,-0.440775 -0.10327,-0.93784 -0.29297,-1.464844 h 0.0606 l -0.35547,-0.722656 c -0.0256,-0.05172 -0.0587,-0.104197 -0.0859,-0.15625 l -0.0605,-0.125 h -0.008 c -0.33863,-0.618179 -0.78851,-1.252822 -1.38477,-1.84961 l -0.002,-0.002 -12.60352,-12.7109373 c -0.67176,-0.8348308 -1.43073,-1.3609223 -2.1543,-1.6796875 l -0.0859,-0.037109 -0.0312,-0.00195 C 153.20933,7.1007523 152.46856,7.0001 151.90992,7.0001 Z m 0.11524,1.0019531 c 0.37972,7.572e-4 0.91295,0.1248404 1.44726,0.3105469 v 13.935547 c 0,1.22231 0.89866,2.235584 2.06641,2.425781 0.1487,0.02782 0.30051,0.04492 0.45703,0.04492 h 13.69336 c 0.23563,0.562366 0.41406,1.117889 0.41406,1.464844 v 31.349609 c 0,0.822556 -0.64278,1.466797 -1.45703,1.466797 h -36.09375 c -0.81435,0 -1.45703,-0.644183 -1.45703,-1.466797 V 9.4708031 c 0,-0.8225555 0.64277,-1.4667968 1.45703,-1.4667969 z m 2.4707,0.9238281 c 0.38082,0.2545632 0.76637,0.4323997 1.12695,0.8886719 l 0.0176,0.021484 12.62696,12.7343749 c 0.37192,0.371984 0.57527,0.75943 0.82812,1.144532 H 155.824 c -0.067,0 -0.13091,-0.01107 -0.19531,-0.01953 -0.71046,-0.121762 -1.23827,-0.728848 -1.23828,-1.478515 z m -2.81445,18.0722658 -0.0449,0.0078 c -4.89493,0.871693 -9.77398,2.022024 -14.63086,2.871094 l -0.41407,0.07422 v 0.419922 c 0,7.417698 -0.003,14.84409 0,22.265625 v 0.419922 l 0.41407,0.06641 c 4.83251,0.846056 9.68553,1.983829 14.54297,2.871094 l 0.043,0.0078 h 2.00196 V 26.998147 Z m 0.0957,1.003906 h 0.82031 v 26.996094 h -0.90234 c -4.67596,-0.855324 -9.38143,-1.934164 -14.09961,-2.775391 -0.003,-7.145383 -1.1e-4,-14.294869 0,-21.4375 4.7444,-0.845347 9.47311,-1.943319 14.18164,-2.783203 z m 2.82031,2.998047 v 2.996094 3.005859 2.996094 3.003906 2.998047 2.996094 3.005859 H 165.49 V 31.0001 Z m 0.9961,1.003906 h 8.99804 v 18.994141 h -8.99804 V 50.0001 H 163.49 v -2 h -8.00195 V 46.996194 H 163.49 v -1.992188 h -8.00195 V 44.0001 H 163.49 v -2.001953 h -8.00195 V 41.002053 H 163.49 v -2 h -8.00195 V 38.005959 H 163.49 v -2.007812 h -8.00195 V 35.0001 H 163.49 v -2 h -8.00195 z m -4.91602,4.015625 -0.86328,0.05078 c -0.63127,0.03807 -1.26892,0.07363 -1.89844,0.0957 l -0.40625,0.01563 -0.0664,0.398437 c -0.23266,1.33231 -0.46216,2.667072 -0.69336,4.001953 -0.26212,-1.275985 -0.53103,-2.552117 -0.78321,-3.832031 l -0.0801,-0.419922 -0.43555,0.02149 c -0.60077,0.03164 -1.2066,0.05243 -1.81641,0.08789 l -0.37695,0.02344 -0.0801,0.375 c -0.26124,1.220246 -0.53105,2.440685 -0.79687,3.662109 -0.19205,-1.156228 -0.37633,-2.317302 -0.5625,-3.46875 l -0.0664,-0.435547 -0.44141,0.01367 c -0.54581,0.01916 -1.09468,0.04099 -1.64062,0.06641 l -0.56836,0.0293 0.0977,0.5625 c 0.49564,2.820575 1.11853,5.596371 1.64453,8.384766 l 0.0742,0.384765 0.38476,0.02149 c 0.61558,0.04146 1.2315,0.0794 1.8457,0.111328 l 0.42774,0.02148 0.0879,-0.412109 c 0.26038,-1.247317 0.5243,-2.51495 0.79102,-3.773438 0.27455,1.317439 0.54196,2.641509 0.80468,3.949219 l 0.0723,0.369141 2.65039,0.207031 2.33984,-9.802734 z m -1.47656,1.083985 -1.99414,8.365234 -1.04102,-0.08203 c -0.4071,-1.989903 -0.8634,-3.960587 -1.21679,-5.935547 h -0.98243 c -0.34315,1.894654 -0.79077,3.786121 -1.19531,5.691406 -0.33876,-0.01916 -0.67924,-0.03646 -1.01953,-0.05859 -0.47721,-2.490695 -1.00352,-4.958973 -1.45312,-7.433593 0.20171,-0.0085 0.4038,-0.02163 0.60546,-0.0293 0.31057,1.88752 0.6498,3.759723 0.91407,5.632812 l 0.98242,0.03711 c 0.4212,-1.953583 0.85708,-3.912576 1.27734,-5.869141 0.33215,-0.01742 0.66902,-0.03433 1.00391,-0.05078 0.39684,2.007541 0.79579,4.00648 1.22461,6.007812 l 0.98242,-0.02148 c 0.33729,-2.071532 0.70668,-4.141958 1.07031,-6.216797 0.28124,-0.01206 0.56203,-0.02176 0.8418,-0.03711 z"
       transform="translate(-118.49,-1.0001)" />
    <path
       id="path6"
       style="fill:url(#linearGradient7);fill-opacity:1"
       d="m 151.80445,7.0001 -0.004,0.00195 -19.35352,0.00391 c -1.35355,0 -2.45703,1.1084593 -2.45703,2.4648437 V 57.533303 c 0,1.356386 1.10343,2.466797 2.45703,2.466797 h 36.09375 c 1.35354,0 2.45703,-1.110412 2.45703,-2.466797 V 26.183694 c 0,-0.440775 -0.10327,-0.93784 -0.29297,-1.464844 h 0.0606 l -0.35547,-0.722656 c -0.0256,-0.05172 -0.0587,-0.104197 -0.0859,-0.15625 l -0.0605,-0.125 h -0.008 c -0.33863,-0.618179 -0.78851,-1.252822 -1.38477,-1.84961 l -0.002,-0.002 -12.60352,-12.7109373 c -0.67176,-0.8348308 -1.43073,-1.3609223 -2.1543,-1.6796875 l -0.0859,-0.037109 -0.0312,-0.00195 C 153.20933,7.1007523 152.46856,7.0001 151.90992,7.0001 Z m 0.11524,1.0019531 c 0.37972,7.572e-4 0.91295,0.1248404 1.44726,0.3105469 v 13.935547 c 0,1.22231 0.89866,2.235584 2.06641,2.425781 0.1487,0.02782 0.30051,0.04492 0.45703,0.04492 h 13.69336 c 0.23563,0.562366 0.41406,1.117889 0.41406,1.464844 v 31.349609 c 0,0.822556 -0.64278,1.466797 -1.45703,1.466797 h -36.09375 c -0.81435,0 -1.45703,-0.644183 -1.45703,-1.466797 V 9.4708031 c 0,-0.8225555 0.64277,-1.4667968 1.45703,-1.4667969 z m 2.4707,0.9238281 c 0.38082,0.2545632 0.76637,0.4323997 1.12695,0.8886719 l 0.0176,0.021484 12.62696,12.7343749 c 0.37192,0.371984 0.57527,0.75943 0.82812,1.144532 H 155.824 c -0.067,0 -0.13091,-0.01107 -0.19531,-0.01953 -0.71046,-0.121762 -1.23827,-0.728848 -1.23828,-1.478515 z m -2.81445,18.0722658 -0.0449,0.0078 c -4.89493,0.871693 -9.77398,2.022024 -14.63086,2.871094 l -0.41407,0.07422 v 0.419922 c 0,7.417698 -0.003,14.84409 0,22.265625 v 0.419922 l 0.41407,0.06641 c 4.83251,0.846056 9.68553,1.983829 14.54297,2.871094 l 0.043,0.0078 h 2.00196 V 26.998147 Z m 0.0957,1.003906 h 0.82031 v 26.996094 h -0.90234 c -4.67596,-0.855324 -9.38143,-1.934164 -14.09961,-2.775391 -0.003,-7.145383 -1.1e-4,-14.294869 0,-21.4375 4.7444,-0.845347 9.47311,-1.943319 14.18164,-2.783203 z m 2.82031,2.998047 v 2.996094 3.005859 2.996094 3.003906 2.998047 2.996094 3.005859 H 165.49 V 31.0001 Z m 0.9961,1.003906 h 8.99804 v 18.994141 h -8.99804 V 50.0001 H 163.49 v -2 h -8.00195 V 46.996194 H 163.49 v -1.992188 h -8.00195 V 44.0001 H 163.49 v -2.001953 h -8.00195 V 41.002053 H 163.49 v -2 h -8.00195 V 38.005959 H 163.49 v -2.007812 h -8.00195 V 35.0001 H 163.49 v -2 h -8.00195 z m -4.91602,4.015625 -0.86328,0.05078 c -0.63127,0.03807 -1.26892,0.07363 -1.89844,0.0957 l -0.40625,0.01563 -0.0664,0.398437 c -0.23266,1.33231 -0.46216,2.667072 -0.69336,4.001953 -0.26212,-1.275985 -0.53103,-2.552117 -0.78321,-3.832031 l -0.0801,-0.419922 -0.43555,0.02149 c -0.60077,0.03164 -1.2066,0.05243 -1.81641,0.08789 l -0.37695,0.02344 -0.0801,0.375 c -0.26124,1.220246 -0.53105,2.440685 -0.79687,3.662109 -0.19205,-1.156228 -0.37633,-2.317302 -0.5625,-3.46875 l -0.0664,-0.435547 -0.44141,0.01367 c -0.54581,0.01916 -1.09468,0.04099 -1.64062,0.06641 l -0.56836,0.0293 0.0977,0.5625 c 0.49564,2.820575 1.11853,5.596371 1.64453,8.384766 l 0.0742,0.384765 0.38476,0.02149 c 0.61558,0.04146 1.2315,0.0794 1.8457,0.111328 l 0.42774,0.02148 0.0879,-0.412109 c 0.26038,-1.247317 0.5243,-2.51495 0.79102,-3.773438 0.27455,1.317439 0.54196,2.641509 0.80468,3.949219 l 0.0723,0.369141 2.65039,0.207031 2.33984,-9.802734 z m -1.47656,1.083985 -1.99414,8.365234 -1.04102,-0.08203 c -0.4071,-1.989903 -0.8634,-3.960587 -1.21679,-5.935547 h -0.98243 c -0.34315,1.894654 -0.79077,3.786121 -1.19531,5.691406 -0.33876,-0.01916 -0.67924,-0.03646 -1.01953,-0.05859 -0.47721,-2.490695 -1.00352,-4.958973 -1.45312,-7.433593 0.20171,-0.0085 0.4038,-0.02163 0.60546,-0.0293 0.31057,1.88752 0.6498,3.759723 0.91407,5.632812 l 0.98242,0.03711 c 0.4212,-1.953583 0.85708,-3.912576 1.27734,-5.869141 0.33215,-0.01742 0.66902,-0.03433 1.00391,-0.05078 0.39684,2.007541 0.79579,4.00648 1.22461,6.007812 l 0.98242,-0.02148 c 0.33729,-2.071532 0.70668,-4.141958 1.07031,-6.216797 0.28124,-0.01206 0.56203,-0.02176 0.8418,-0.03711 z"
       transform="translate(-118.49,-1.0001)" />
  </g>
</svg>
