<?xml version="1.0" encoding="UTF-8" standalone="no"?>
<svg
   width="43.546024"
   height="55.538212"
   version="1.1"
   viewBox="0 0 43.546024 55.538212"
   id="svg3"
   xmlns:xlink="http://www.w3.org/1999/xlink"
   xmlns="http://www.w3.org/2000/svg"
   xmlns:svg="http://www.w3.org/2000/svg">
  <defs
     id="defs3">
    <linearGradient
       id="linearGradient12">
      <stop
         style="stop-color:#039bfc;stop-opacity:0;"
         offset="0"
         id="stop13" />
      <stop
         style="stop-color:#039bfc;stop-opacity:1;"
         offset="1"
         id="stop12" />
    </linearGradient>
    <linearGradient
       xlink:href="#linearGradient12"
       id="linearGradient13"
       x1="150.72919"
       y1="65.000099"
       x2="150.72919"
       y2="23.840679"
       gradientUnits="userSpaceOnUse" />
    <filter
       style="color-interpolation-filters:sRGB"
       id="filter13"
       x="-0.030947896"
       y="-0.023945386"
       width="1.0618958"
       height="1.0478908">
      <feGaussianBlur
         stdDeviation="0.52879393"
         id="feGaussianBlur13" />
    </filter>
  </defs>
  <g
     id="g13"
     transform="translate(-10.222995,-4.7308946)">
    <path
       id="path1"
       style="display:inline;opacity:0.6;fill:#039bfc;filter:url(#filter13)"
       d="m 151.80394,7.0001 -0.004,0.00195 -19.35351,0.00391 c -1.35355,0 -2.45703,1.1084593 -2.45703,2.4648437 V 57.533303 c 0,1.356386 1.10343,2.466797 2.45703,2.466797 h 36.09375 c 1.35354,0 2.45703,-1.110412 2.45703,-2.466797 V 26.183694 c 0,-0.440775 -0.10327,-0.93784 -0.29297,-1.464844 h 0.0606 l -0.35547,-0.722656 c -0.0256,-0.05172 -0.0587,-0.104197 -0.0859,-0.15625 l -0.0605,-0.125 h -0.008 c -0.33862,-0.618179 -0.7885,-1.252822 -1.38476,-1.84961 l -0.002,-0.002 L 156.26488,9.1524437 C 155.67159,8.4151755 155.0115,7.918962 154.36644,7.59385 154.28114,7.550863 154.19507,7.50998 154.11058,7.4727562 l -0.0859,-0.037109 -0.0312,-0.00195 C 153.20882,7.1007523 152.46804,7.0001 151.90941,7.0001 Z m 0.11523,1.0019531 c 0.37972,7.572e-4 0.91296,0.1248404 1.44727,0.3105469 v 13.935547 c 0,1.22231 0.89866,2.235584 2.06641,2.425781 0.12731,0.02382 0.25744,0.03746 0.39062,0.04102 0.0224,5.98e-4 0.0439,0.0039 0.0664,0.0039 h 13.69336 c 0.23563,0.562366 0.41406,1.117889 0.41406,1.464844 v 31.349609 c 0,0.822556 -0.64278,1.466797 -1.45703,1.466797 h -36.09375 c -0.81435,0 -1.45703,-0.644183 -1.45703,-1.466797 V 9.4708031 c 0,-0.8225555 0.64277,-1.4667967 1.45703,-1.4667969 z m 2.47071,0.9238281 c 0.38082,0.2545633 0.76637,0.4323997 1.12695,0.8886719 l 0.0176,0.021484 12.62695,12.7343749 c 0.37192,0.371984 0.57528,0.75943 0.82813,1.144532 h -13.16602 c -0.0687,0 -0.13319,-0.01063 -0.19922,-0.01953 -0.70854,-0.123274 -1.23436,-0.730184 -1.23437,-1.478515 z m -7.08789,17.1640628 c -2.64789,0 -4.79492,2.147319 -4.79492,4.794922 0,2.647602 2.14717,4.794922 4.79492,4.794922 2.64788,0 4.79297,-2.14732 4.79297,-4.794922 0,-2.647603 -2.14523,-4.794922 -4.79297,-4.794922 z m 7.98437,3.109375 0.006,0.0059 c -0.6205,0 -1.20396,0.142771 -1.73242,0.380859 0.0873,0.418775 0.13477,0.85152 0.13477,1.294922 0,1.761262 -0.72695,3.363231 -1.89258,4.523438 0.73511,1.118661 2.01411,1.869141 3.48437,1.869141 2.28961,0 4.14453,-1.805794 4.14453,-4.035157 0,-2.229362 -1.85509,-4.039062 -4.14453,-4.039062 z m -7.98437,9.669922 c -9.58904,0.0054 -9.58985,6.398437 -9.58985,6.398437 v 1.597656 h 19.17774 v -1.597656 c 0,0 7.8e-4,-6.408639 -9.58789,-6.392578 z m 7.99023,0.0039 v 0.002 c -0.31339,0 -0.59548,0.02099 -0.88476,0.03516 1.11477,0.638709 1.96415,1.400359 2.5625,2.199219 1.5022,2.013606 1.51757,4.15625 1.51757,4.15625 h 4.79493 v -1.599609 c 0,0 1.5e-4,-4.792969 -7.99024,-4.792969 z m -0.20312,12.035156 c -0.71615,0 -1.27431,0.206597 -1.67578,0.621094 -0.40148,0.412326 -0.60352,0.985243 -0.60352,1.71875 0,0.481771 0.0914,0.903212 0.27148,1.265625 0.18013,0.360243 0.44054,0.637153 0.78125,0.828125 0.34289,0.190972 0.74979,0.285156 1.22071,0.285156 0.46658,0 0.87001,-0.09592 1.21289,-0.289062 0.34288,-0.193143 0.60677,-0.469835 0.78906,-0.830078 0.18446,-0.360244 0.27539,-0.780165 0.27539,-1.259766 0,-0.481771 -0.0911,-0.900174 -0.27344,-1.253906 -0.18012,-0.353733 -0.44032,-0.622179 -0.7832,-0.806641 -0.34288,-0.186632 -0.74826,-0.279297 -1.21484,-0.279297 z m 9.66406,0 c -0.5599,0 -0.98937,0.105686 -1.29102,0.31836 -0.29948,0.212673 -0.44922,0.515407 -0.44922,0.908203 0,0.171441 0.0276,0.322699 0.084,0.455078 0.0586,0.132378 0.14149,0.249783 0.25,0.349609 0.10851,0.09766 0.25673,0.18533 0.44336,0.265625 0.1888,0.0803 0.46376,0.161892 0.82617,0.242188 0.20833,0.04774 0.39887,0.09158 0.57031,0.132812 0.17144,0.04123 0.31966,0.09158 0.44336,0.152344 0.1237,0.06076 0.21788,0.139106 0.28516,0.232422 0.0694,0.09332 0.10547,0.213541 0.10547,0.363281 0,0.266927 -0.1109,0.470486 -0.33008,0.609375 -0.21701,0.136719 -0.52626,0.205078 -0.92774,0.205078 -0.38845,0 -0.69422,-0.06337 -0.91992,-0.191406 -0.22569,-0.130209 -0.37391,-0.333767 -0.44336,-0.609375 l -0.60156,0.121094 c 0.17795,0.77691 0.82574,1.164062 1.94336,1.164062 0.60113,0 1.06662,-0.115451 1.39648,-0.347656 0.33204,-0.232205 0.49805,-0.559245 0.49805,-0.982422 0,-0.167101 -0.0245,-0.313802 -0.0723,-0.4375 -0.0456,-0.123698 -0.10894,-0.23112 -0.19141,-0.322266 -0.0825,-0.09115 -0.18012,-0.167534 -0.29297,-0.230468 -0.11068,-0.06293 -0.23134,-0.116537 -0.35937,-0.16211 -0.12804,-0.04774 -0.26129,-0.08854 -0.40235,-0.121093 -0.13889,-0.03472 -0.27886,-0.06901 -0.41992,-0.101563 -0.42101,-0.09332 -0.70269,-0.171441 -0.84375,-0.234375 -0.14106,-0.0651 -0.25022,-0.143229 -0.32617,-0.234375 -0.0738,-0.09332 -0.10938,-0.210503 -0.10938,-0.351562 0,-0.240886 0.0959,-0.421441 0.28907,-0.542969 0.19314,-0.121528 0.47309,-0.181641 0.83984,-0.181641 0.3342,0 0.59635,0.05534 0.78516,0.166016 0.1888,0.108507 0.31553,0.284288 0.38281,0.527344 l 0.61328,-0.107422 c -0.11068,-0.384115 -0.30447,-0.656033 -0.58008,-0.814453 -0.27561,-0.160591 -0.67448,-0.240235 -1.19531,-0.240235 z m -28.52149,0.06836 -1.87304,4.585937 h 0.64453 l 0.52734,-1.341797 h 2.08985 l 0.52539,1.341797 h 0.63476 l -1.84375,-4.585937 z m 3.07618,0 v 2.919921 c 0,0.360244 0.0764,0.669271 0.23047,0.929688 0.15408,0.260417 0.37044,0.458984 0.65039,0.595703 0.27994,0.136719 0.60894,0.205078 0.98437,0.205078 0.39063,0 0.72917,-0.06988 1.01563,-0.210937 0.28862,-0.14323 0.50976,-0.350044 0.66601,-0.619141 0.15842,-0.269097 0.23828,-0.58789 0.23828,-0.958984 v -2.861328 h -0.61914 v 2.824218 c 0,0.431858 -0.11371,0.760634 -0.34375,0.986328 -0.22786,0.223525 -0.54861,0.335938 -0.96094,0.335938 -0.40147,0 -0.7092,-0.109158 -0.92187,-0.326172 -0.21267,-0.217014 -0.31836,-0.534288 -0.31836,-0.953125 v -2.867187 z m 4.44922,0 v 0.507812 h 1.57617 V 55.5626 h 0.61718 v -4.078125 h 1.57618 v -0.507812 z m 4.46875,0 V 55.5626 h 0.62304 v -2.125 h 2.48047 v 2.125 h 0.62109 v -4.585937 h -0.62109 v 1.939453 h -2.48047 v -1.939453 z m 10.00195,0 V 55.5626 h 0.62109 v -1.904297 h 1.42969 l 1.19141,1.904297 h 0.71484 l -1.30078,-1.976562 c 0.34939,-0.06076 0.62283,-0.207249 0.82031,-0.439454 0.19965,-0.232205 0.29883,-0.518663 0.29883,-0.859375 0,-0.412326 -0.14171,-0.732855 -0.42383,-0.96289 -0.27995,-0.232205 -0.67686,-0.347656 -1.19336,-0.347656 z m -3.13867,0.439453 c 0.52083,0 0.92274,0.16276 1.20703,0.488281 0.28646,0.325521 0.42969,0.773003 0.42969,1.34375 0,0.596788 -0.1415,1.059027 -0.42579,1.386719 -0.28211,0.325521 -0.68728,0.488281 -1.21679,0.488281 -0.51433,0 -0.91819,-0.167535 -1.20899,-0.503906 -0.28863,-0.338542 -0.43164,-0.796007 -0.43164,-1.371094 0,-0.579427 0.14323,-1.030382 0.42969,-1.351563 0.28646,-0.32118 0.69162,-0.480468 1.2168,-0.480468 z m -18.51368,0.0293 0.0879,0.269531 c 0.0608,0.188802 0.12283,0.358073 0.18359,0.507812 l 0.58789,1.513672 h -1.71484 l 0.58593,-1.507812 c 0.10634,-0.282119 0.18598,-0.513238 0.24024,-0.69336 z m 22.27344,0.0293 h 1.47461 c 0.34071,0 0.60113,0.06988 0.78125,0.210938 0.18229,0.138889 0.27344,0.342448 0.27344,0.609375 0,0.275608 -0.0894,0.490451 -0.26953,0.644531 -0.17795,0.15191 -0.43208,0.226563 -0.75977,0.226563 h -1.5 z"
       transform="translate(-118.4973,-1.0001)" />
    <path
       id="path12"
       style="fill:url(#linearGradient13);fill-opacity:1"
       d="m 151.80394,7.0001 -0.004,0.00195 -19.35351,0.00391 c -1.35355,0 -2.45703,1.1084593 -2.45703,2.4648437 V 57.533303 c 0,1.356386 1.10343,2.466797 2.45703,2.466797 h 36.09375 c 1.35354,0 2.45703,-1.110412 2.45703,-2.466797 V 26.183694 c 0,-0.440775 -0.10327,-0.93784 -0.29297,-1.464844 h 0.0606 l -0.35547,-0.722656 c -0.0256,-0.05172 -0.0587,-0.104197 -0.0859,-0.15625 l -0.0605,-0.125 h -0.008 c -0.33862,-0.618179 -0.7885,-1.252822 -1.38476,-1.84961 l -0.002,-0.002 L 156.26488,9.1524437 C 155.67159,8.4151755 155.0115,7.918962 154.36644,7.59385 154.28114,7.550863 154.19507,7.50998 154.11058,7.4727562 l -0.0859,-0.037109 -0.0312,-0.00195 C 153.20882,7.1007523 152.46804,7.0001 151.90941,7.0001 Z m 0.11523,1.0019531 c 0.37972,7.572e-4 0.91296,0.1248404 1.44727,0.3105469 v 13.935547 c 0,1.22231 0.89866,2.235584 2.06641,2.425781 0.12731,0.02382 0.25744,0.03746 0.39062,0.04102 0.0224,5.98e-4 0.0439,0.0039 0.0664,0.0039 h 13.69336 c 0.23563,0.562366 0.41406,1.117889 0.41406,1.464844 v 31.349609 c 0,0.822556 -0.64278,1.466797 -1.45703,1.466797 h -36.09375 c -0.81435,0 -1.45703,-0.644183 -1.45703,-1.466797 V 9.4708031 c 0,-0.8225555 0.64277,-1.4667967 1.45703,-1.4667969 z m 2.47071,0.9238281 c 0.38082,0.2545633 0.76637,0.4323997 1.12695,0.8886719 l 0.0176,0.021484 12.62695,12.7343749 c 0.37192,0.371984 0.57528,0.75943 0.82813,1.144532 h -13.16602 c -0.0687,0 -0.13319,-0.01063 -0.19922,-0.01953 -0.70854,-0.123274 -1.23436,-0.730184 -1.23437,-1.478515 z m -7.08789,17.1640628 c -2.64789,0 -4.79492,2.147319 -4.79492,4.794922 0,2.647602 2.14717,4.794922 4.79492,4.794922 2.64788,0 4.79297,-2.14732 4.79297,-4.794922 0,-2.647603 -2.14523,-4.794922 -4.79297,-4.794922 z m 7.98437,3.109375 0.006,0.0059 c -0.6205,0 -1.20396,0.142771 -1.73242,0.380859 0.0873,0.418775 0.13477,0.85152 0.13477,1.294922 0,1.761262 -0.72695,3.363231 -1.89258,4.523438 0.73511,1.118661 2.01411,1.869141 3.48437,1.869141 2.28961,0 4.14453,-1.805794 4.14453,-4.035157 0,-2.229362 -1.85509,-4.039062 -4.14453,-4.039062 z m -7.98437,9.669922 c -9.58904,0.0054 -9.58985,6.398437 -9.58985,6.398437 v 1.597656 h 19.17774 v -1.597656 c 0,0 7.8e-4,-6.408639 -9.58789,-6.392578 z m 7.99023,0.0039 v 0.002 c -0.31339,0 -0.59548,0.02099 -0.88476,0.03516 1.11477,0.638709 1.96415,1.400359 2.5625,2.199219 1.5022,2.013606 1.51757,4.15625 1.51757,4.15625 h 4.79493 v -1.599609 c 0,0 1.5e-4,-4.792969 -7.99024,-4.792969 z m -0.20312,12.035156 c -0.71615,0 -1.27431,0.206597 -1.67578,0.621094 -0.40148,0.412326 -0.60352,0.985243 -0.60352,1.71875 0,0.481771 0.0914,0.903212 0.27148,1.265625 0.18013,0.360243 0.44054,0.637153 0.78125,0.828125 0.34289,0.190972 0.74979,0.285156 1.22071,0.285156 0.46658,0 0.87001,-0.09592 1.21289,-0.289062 0.34288,-0.193143 0.60677,-0.469835 0.78906,-0.830078 0.18446,-0.360244 0.27539,-0.780165 0.27539,-1.259766 0,-0.481771 -0.0911,-0.900174 -0.27344,-1.253906 -0.18012,-0.353733 -0.44032,-0.622179 -0.7832,-0.806641 -0.34288,-0.186632 -0.74826,-0.279297 -1.21484,-0.279297 z m 9.66406,0 c -0.5599,0 -0.98937,0.105686 -1.29102,0.31836 -0.29948,0.212673 -0.44922,0.515407 -0.44922,0.908203 0,0.171441 0.0276,0.322699 0.084,0.455078 0.0586,0.132378 0.14149,0.249783 0.25,0.349609 0.10851,0.09766 0.25673,0.18533 0.44336,0.265625 0.1888,0.0803 0.46376,0.161892 0.82617,0.242188 0.20833,0.04774 0.39887,0.09158 0.57031,0.132812 0.17144,0.04123 0.31966,0.09158 0.44336,0.152344 0.1237,0.06076 0.21788,0.139106 0.28516,0.232422 0.0694,0.09332 0.10547,0.213541 0.10547,0.363281 0,0.266927 -0.1109,0.470486 -0.33008,0.609375 -0.21701,0.136719 -0.52626,0.205078 -0.92774,0.205078 -0.38845,0 -0.69422,-0.06337 -0.91992,-0.191406 -0.22569,-0.130209 -0.37391,-0.333767 -0.44336,-0.609375 l -0.60156,0.121094 c 0.17795,0.77691 0.82574,1.164062 1.94336,1.164062 0.60113,0 1.06662,-0.115451 1.39648,-0.347656 0.33204,-0.232205 0.49805,-0.559245 0.49805,-0.982422 0,-0.167101 -0.0245,-0.313802 -0.0723,-0.4375 -0.0456,-0.123698 -0.10894,-0.23112 -0.19141,-0.322266 -0.0825,-0.09115 -0.18012,-0.167534 -0.29297,-0.230468 -0.11068,-0.06293 -0.23134,-0.116537 -0.35937,-0.16211 -0.12804,-0.04774 -0.26129,-0.08854 -0.40235,-0.121093 -0.13889,-0.03472 -0.27886,-0.06901 -0.41992,-0.101563 -0.42101,-0.09332 -0.70269,-0.171441 -0.84375,-0.234375 -0.14106,-0.0651 -0.25022,-0.143229 -0.32617,-0.234375 -0.0738,-0.09332 -0.10938,-0.210503 -0.10938,-0.351562 0,-0.240886 0.0959,-0.421441 0.28907,-0.542969 0.19314,-0.121528 0.47309,-0.181641 0.83984,-0.181641 0.3342,0 0.59635,0.05534 0.78516,0.166016 0.1888,0.108507 0.31553,0.284288 0.38281,0.527344 l 0.61328,-0.107422 c -0.11068,-0.384115 -0.30447,-0.656033 -0.58008,-0.814453 -0.27561,-0.160591 -0.67448,-0.240235 -1.19531,-0.240235 z m -28.52149,0.06836 -1.87304,4.585937 h 0.64453 l 0.52734,-1.341797 h 2.08985 l 0.52539,1.341797 h 0.63476 l -1.84375,-4.585937 z m 3.07618,0 v 2.919921 c 0,0.360244 0.0764,0.669271 0.23047,0.929688 0.15408,0.260417 0.37044,0.458984 0.65039,0.595703 0.27994,0.136719 0.60894,0.205078 0.98437,0.205078 0.39063,0 0.72917,-0.06988 1.01563,-0.210937 0.28862,-0.14323 0.50976,-0.350044 0.66601,-0.619141 0.15842,-0.269097 0.23828,-0.58789 0.23828,-0.958984 v -2.861328 h -0.61914 v 2.824218 c 0,0.431858 -0.11371,0.760634 -0.34375,0.986328 -0.22786,0.223525 -0.54861,0.335938 -0.96094,0.335938 -0.40147,0 -0.7092,-0.109158 -0.92187,-0.326172 -0.21267,-0.217014 -0.31836,-0.534288 -0.31836,-0.953125 v -2.867187 z m 4.44922,0 v 0.507812 h 1.57617 V 55.5626 h 0.61718 v -4.078125 h 1.57618 v -0.507812 z m 4.46875,0 V 55.5626 h 0.62304 v -2.125 h 2.48047 v 2.125 h 0.62109 v -4.585937 h -0.62109 v 1.939453 h -2.48047 v -1.939453 z m 10.00195,0 V 55.5626 h 0.62109 v -1.904297 h 1.42969 l 1.19141,1.904297 h 0.71484 l -1.30078,-1.976562 c 0.34939,-0.06076 0.62283,-0.207249 0.82031,-0.439454 0.19965,-0.232205 0.29883,-0.518663 0.29883,-0.859375 0,-0.412326 -0.14171,-0.732855 -0.42383,-0.96289 -0.27995,-0.232205 -0.67686,-0.347656 -1.19336,-0.347656 z m -3.13867,0.439453 c 0.52083,0 0.92274,0.16276 1.20703,0.488281 0.28646,0.325521 0.42969,0.773003 0.42969,1.34375 0,0.596788 -0.1415,1.059027 -0.42579,1.386719 -0.28211,0.325521 -0.68728,0.488281 -1.21679,0.488281 -0.51433,0 -0.91819,-0.167535 -1.20899,-0.503906 -0.28863,-0.338542 -0.43164,-0.796007 -0.43164,-1.371094 0,-0.579427 0.14323,-1.030382 0.42969,-1.351563 0.28646,-0.32118 0.69162,-0.480468 1.2168,-0.480468 z m -18.51368,0.0293 0.0879,0.269531 c 0.0608,0.188802 0.12283,0.358073 0.18359,0.507812 l 0.58789,1.513672 h -1.71484 l 0.58593,-1.507812 c 0.10634,-0.282119 0.18598,-0.513238 0.24024,-0.69336 z m 22.27344,0.0293 h 1.47461 c 0.34071,0 0.60113,0.06988 0.78125,0.210938 0.18229,0.138889 0.27344,0.342448 0.27344,0.609375 0,0.275608 -0.0894,0.490451 -0.26953,0.644531 -0.17795,0.15191 -0.43208,0.226563 -0.75977,0.226563 h -1.5 z"
       transform="translate(-118.4973,-1.0001)" />
  </g>
</svg>
