<?xml version="1.0" encoding="UTF-8" standalone="no"?>
<svg
   width="43.546024"
   height="55.538212"
   version="1.1"
   viewBox="0 0 11.521325 14.694196"
   id="svg5"
   xmlns:xlink="http://www.w3.org/1999/xlink"
   xmlns="http://www.w3.org/2000/svg"
   xmlns:svg="http://www.w3.org/2000/svg">
  <defs
     id="defs5">
    <linearGradient
       id="linearGradient6">
      <stop
         style="stop-color:#00abff;stop-opacity:0;"
         offset="0"
         id="stop7" />
      <stop
         style="stop-color:#00abff;stop-opacity:1;"
         offset="1"
         id="stop6" />
    </linearGradient>
    <linearGradient
       xlink:href="#linearGradient6"
       id="linearGradient7"
       x1="150.02991"
       y1="64.998032"
       x2="150.02991"
       y2="25.11426"
       gradientUnits="userSpaceOnUse" />
    <filter
       style="color-interpolation-filters:sRGB"
       id="filter7"
       x="-0.030947895"
       y="-0.023945385"
       width="1.0618958"
       height="1.0478908">
      <feGaussianBlur
         stdDeviation="0.52879019"
         id="feGaussianBlur7" />
    </filter>
  </defs>
  <g
     id="g7"
     transform="translate(-2.705813,-1.252208)">
    <path
       id="path1"
       style="display:inline;opacity:0.6;fill:#00abff;fill-opacity:1;stroke:none;filter:url(#filter7)"
       d="m 151.80421,7.0003988 -0.004,0.00195 -19.35338,0.00391 c -1.35355,0 -2.45701,1.1084419 -2.45701,2.4648263 V 57.533244 c 0,1.356386 1.10341,2.466779 2.45701,2.466779 h 36.0935 c 1.35354,0 2.45701,-1.110394 2.45701,-2.466779 V 26.183857 c 0,-0.440775 -0.10327,-0.93783 -0.29296,-1.464834 h 0.0605 l -0.35546,-0.722651 c -0.0256,-0.05172 -0.0587,-0.104196 -0.0859,-0.156249 l -0.0606,-0.124999 h -0.008 c -0.33862,-0.618179 -0.78849,-1.252809 -1.38476,-1.849596 l -0.002,-0.002 L 156.26511,9.1527273 C 155.59335,8.3178964 154.8344,7.7918168 154.11083,7.4730517 l -0.0859,-0.037109 -0.0312,-0.00195 C 153.20907,7.101048 152.46831,7.0003988 151.90968,7.0003988 Z m 0.11523,1.001946 c 0.37972,7.572e-4 0.91295,0.1248382 1.44726,0.3105447 V 22.248338 c 0,1.22231 0.89864,2.235567 2.06639,2.425764 0.1487,0.02782 0.30051,0.04492 0.45703,0.04492 h 13.69326 c 0.23563,0.562366 0.41406,1.117879 0.41406,1.464834 v 31.349387 c 0,0.822556 -0.64277,1.466786 -1.45702,1.466786 h -36.0935 c -0.81435,0 -1.45702,-0.644172 -1.45702,-1.466786 V 9.4710844 c 0,-0.8225555 0.64276,-1.4667865 1.45702,-1.4667865 z m 2.47069,0.9238216 c 0.38082,0.2545631 0.76636,0.4323933 1.12694,0.8886655 l 0.0176,0.021484 12.62686,12.7342851 c 0.37193,0.371983 0.57527,0.759422 0.82812,1.144523 h -13.16592 c -0.059,0 -0.11489,-0.011 -0.17187,-0.01758 -0.72221,-0.112338 -1.2617,-0.72263 -1.26171,-1.480458 z m -2.80858,18.0760436 -0.0449,0.0059 c -4.89488,0.871686 -9.77389,2.023961 -14.63075,2.873027 l -0.41211,0.07227 v 0.41406 c 0,7.417651 -0.003,14.842031 0,22.263514 v 0.421872 l 0.41211,0.07422 c 4.83247,0.84605 9.68544,1.976002 14.54286,2.863261 l 0.0449,0.0078 h 1.99999 V 27.00221 Z m 0.0957,0.996087 h 0.81249 v 27.003715 h -0.90038 c -4.67358,-0.854887 -9.37594,-1.942126 -14.0917,-2.783184 -0.003,-7.145339 -1.1e-4,-14.294765 0,-21.437348 4.74204,-0.845183 9.47336,-1.943713 14.17959,-2.783183 z m 3.02732,2.996072 v 3.005838 h 2.99607 v 0.996087 h -2.99607 v 1.999986 h 2.99607 v 1.003899 h -2.99607 v 2.001939 h 2.99607 v 0.996087 h -2.99607 v 1.999986 h 2.99607 v 0.996086 h -2.99607 v 2.001939 h 2.99607 v 1.003899 h -2.99607 v 1.999986 h 2.99607 v 0.996087 h -2.99607 v 3.003885 h 10.99797 V 30.994369 Z m 4.99801,3.005838 h 2.99607 v 0.996087 h -2.99607 z m -10.51164,1.681629 -0.84179,0.04492 c -0.72639,0.03519 -1.45584,0.08172 -2.17772,0.132811 l -0.31055,0.02148 -0.11914,0.281248 c -0.3642,0.885703 -0.73471,1.815368 -1.0996,2.738262 -0.31064,-0.852434 -0.6219,-1.71085 -0.93749,-2.539044 l -0.125,-0.339842 -0.36914,0.02344 c -0.70112,0.03825 -1.39581,0.07583 -2.09569,0.117186 l -0.73242,0.04492 0.30274,0.664058 c 0.70948,1.565842 1.45576,3.098297 2.14061,4.650357 -0.80417,1.527743 -1.56238,3.070157 -2.33983,4.591765 l -0.35351,0.693354 0.77538,0.0293 c 0.69647,0.02873 1.39765,0.05684 2.1035,0.06641 l 0.34766,0.0078 0.125,-0.324216 c 0.33419,-0.852635 0.71536,-1.738461 1.07811,-2.621075 0.37063,0.965757 0.75662,1.936364 1.1289,2.849589 l 0.11719,0.28906 0.31054,0.02148 c 0.76912,0.05427 1.53465,0.103838 2.30272,0.148437 l 0.85742,0.04297 -0.37695,-0.767572 c -0.84277,-1.710483 -1.70076,-3.404341 -2.53905,-5.107386 0.82832,-1.662109 1.64568,-3.331791 2.45897,-4.998012 z m -1.64648,1.093742 c -0.72489,1.482982 -1.44871,2.967114 -2.18553,4.443328 l -0.11133,0.222655 0.10352,0.220701 c 0.74906,1.525331 1.51286,3.036748 2.26561,4.554656 -0.37289,-0.02306 -0.74805,-0.04086 -1.12109,-0.06641 -0.5224,-1.242894 -1.10437,-2.4289 -1.44725,-3.654271 l -0.2793,-0.996087 0.33203,-1.064445 c 0.37441,-1.205511 0.93903,-2.380785 1.45312,-3.601537 0.32988,-0.02245 0.65975,-0.03935 0.99022,-0.05859 z m 12.15812,0.220702 h 2.99607 v 1.003899 h -2.99607 z m -16.80262,0.06641 c 0.43824,1.132157 0.90222,2.247518 1.24804,3.374976 l 0.29492,0.96679 -0.35351,1.062492 c -0.38109,1.13768 -0.92396,2.260602 -1.40233,3.431617 -0.31877,-0.0068 -0.64015,-0.02502 -0.96093,-0.03711 0.69395,-1.371751 1.38199,-2.745477 2.09764,-4.095674 l 0.10937,-0.207029 -0.0957,-0.220702 c -0.62429,-1.428706 -1.29591,-2.822986 -1.94139,-4.222626 0.33479,-0.01954 0.6694,-0.03406 1.00389,-0.05273 z"
       transform="matrix(0.26458,0,0,0.26458,-31.351116,-0.26418)" />
    <path
       id="path6"
       style="fill:url(#linearGradient7);fill-opacity:1;stroke:none"
       d="m 151.80421,7.0003988 -0.004,0.00195 -19.35338,0.00391 c -1.35355,0 -2.45701,1.1084419 -2.45701,2.4648263 V 57.533244 c 0,1.356386 1.10341,2.466779 2.45701,2.466779 h 36.0935 c 1.35354,0 2.45701,-1.110394 2.45701,-2.466779 V 26.183857 c 0,-0.440775 -0.10327,-0.93783 -0.29296,-1.464834 h 0.0605 l -0.35546,-0.722651 c -0.0256,-0.05172 -0.0587,-0.104196 -0.0859,-0.156249 l -0.0606,-0.124999 h -0.008 c -0.33862,-0.618179 -0.78849,-1.252809 -1.38476,-1.849596 l -0.002,-0.002 L 156.26511,9.1527273 C 155.59335,8.3178964 154.8344,7.7918168 154.11083,7.4730517 l -0.0859,-0.037109 -0.0312,-0.00195 C 153.20907,7.101048 152.46831,7.0003988 151.90968,7.0003988 Z m 0.11523,1.001946 c 0.37972,7.572e-4 0.91295,0.1248382 1.44726,0.3105447 V 22.248338 c 0,1.22231 0.89864,2.235567 2.06639,2.425764 0.1487,0.02782 0.30051,0.04492 0.45703,0.04492 h 13.69326 c 0.23563,0.562366 0.41406,1.117879 0.41406,1.464834 v 31.349387 c 0,0.822556 -0.64277,1.466786 -1.45702,1.466786 h -36.0935 c -0.81435,0 -1.45702,-0.644172 -1.45702,-1.466786 V 9.4710844 c 0,-0.8225555 0.64276,-1.4667865 1.45702,-1.4667865 z m 2.47069,0.9238216 c 0.38082,0.2545631 0.76636,0.4323933 1.12694,0.8886655 l 0.0176,0.021484 12.62686,12.7342851 c 0.37193,0.371983 0.57527,0.759422 0.82812,1.144523 h -13.16592 c -0.059,0 -0.11489,-0.011 -0.17187,-0.01758 -0.72221,-0.112338 -1.2617,-0.72263 -1.26171,-1.480458 z m -2.80858,18.0760436 -0.0449,0.0059 c -4.89488,0.871686 -9.77389,2.023961 -14.63075,2.873027 l -0.41211,0.07227 v 0.41406 c 0,7.417651 -0.003,14.842031 0,22.263514 v 0.421872 l 0.41211,0.07422 c 4.83247,0.84605 9.68544,1.976002 14.54286,2.863261 l 0.0449,0.0078 h 1.99999 V 27.00221 Z m 0.0957,0.996087 h 0.81249 v 27.003715 h -0.90038 c -4.67358,-0.854887 -9.37594,-1.942126 -14.0917,-2.783184 -0.003,-7.145339 -1.1e-4,-14.294765 0,-21.437348 4.74204,-0.845183 9.47336,-1.943713 14.17959,-2.783183 z m 3.02732,2.996072 v 3.005838 h 2.99607 v 0.996087 h -2.99607 v 1.999986 h 2.99607 v 1.003899 h -2.99607 v 2.001939 h 2.99607 v 0.996087 h -2.99607 v 1.999986 h 2.99607 v 0.996086 h -2.99607 v 2.001939 h 2.99607 v 1.003899 h -2.99607 v 1.999986 h 2.99607 v 0.996087 h -2.99607 v 3.003885 h 10.99797 V 30.994369 Z m 4.99801,3.005838 h 2.99607 v 0.996087 h -2.99607 z m -10.51164,1.681629 -0.84179,0.04492 c -0.72639,0.03519 -1.45584,0.08172 -2.17772,0.132811 l -0.31055,0.02148 -0.11914,0.281248 c -0.3642,0.885703 -0.73471,1.815368 -1.0996,2.738262 -0.31064,-0.852434 -0.6219,-1.71085 -0.93749,-2.539044 l -0.125,-0.339842 -0.36914,0.02344 c -0.70112,0.03825 -1.39581,0.07583 -2.09569,0.117186 l -0.73242,0.04492 0.30274,0.664058 c 0.70948,1.565842 1.45576,3.098297 2.14061,4.650357 -0.80417,1.527743 -1.56238,3.070157 -2.33983,4.591765 l -0.35351,0.693354 0.77538,0.0293 c 0.69647,0.02873 1.39765,0.05684 2.1035,0.06641 l 0.34766,0.0078 0.125,-0.324216 c 0.33419,-0.852635 0.71536,-1.738461 1.07811,-2.621075 0.37063,0.965757 0.75662,1.936364 1.1289,2.849589 l 0.11719,0.28906 0.31054,0.02148 c 0.76912,0.05427 1.53465,0.103838 2.30272,0.148437 l 0.85742,0.04297 -0.37695,-0.767572 c -0.84277,-1.710483 -1.70076,-3.404341 -2.53905,-5.107386 0.82832,-1.662109 1.64568,-3.331791 2.45897,-4.998012 z m -1.64648,1.093742 c -0.72489,1.482982 -1.44871,2.967114 -2.18553,4.443328 l -0.11133,0.222655 0.10352,0.220701 c 0.74906,1.525331 1.51286,3.036748 2.26561,4.554656 -0.37289,-0.02306 -0.74805,-0.04086 -1.12109,-0.06641 -0.5224,-1.242894 -1.10437,-2.4289 -1.44725,-3.654271 l -0.2793,-0.996087 0.33203,-1.064445 c 0.37441,-1.205511 0.93903,-2.380785 1.45312,-3.601537 0.32988,-0.02245 0.65975,-0.03935 0.99022,-0.05859 z m 12.15812,0.220702 h 2.99607 v 1.003899 h -2.99607 z m -16.80262,0.06641 c 0.43824,1.132157 0.90222,2.247518 1.24804,3.374976 l 0.29492,0.96679 -0.35351,1.062492 c -0.38109,1.13768 -0.92396,2.260602 -1.40233,3.431617 -0.31877,-0.0068 -0.64015,-0.02502 -0.96093,-0.03711 0.69395,-1.371751 1.38199,-2.745477 2.09764,-4.095674 l 0.10937,-0.207029 -0.0957,-0.220702 c -0.62429,-1.428706 -1.29591,-2.822986 -1.94139,-4.222626 0.33479,-0.01954 0.6694,-0.03406 1.00389,-0.05273 z"
       transform="matrix(0.26458,0,0,0.26458,-31.351116,-0.26418)" />
  </g>
</svg>
