<?xml version="1.0" encoding="UTF-8" standalone="no"?>
<svg
   width="43.546024"
   height="55.538212"
   version="1.1"
   viewBox="0 0 43.546024 55.538212"
   id="svg3"
   xmlns:xlink="http://www.w3.org/1999/xlink"
   xmlns="http://www.w3.org/2000/svg"
   xmlns:svg="http://www.w3.org/2000/svg">
  <defs
     id="defs3">
    <linearGradient
       id="linearGradient4">
      <stop
         style="stop-color:#00abff;stop-opacity:0;"
         offset="0"
         id="stop5" />
      <stop
         style="stop-color:#00abff;stop-opacity:1;"
         offset="1"
         id="stop4" />
    </linearGradient>
    <linearGradient
       xlink:href="#linearGradient4"
       id="linearGradient5"
       x1="150.38136"
       y1="65.000099"
       x2="150.38136"
       y2="25.347925"
       gradientUnits="userSpaceOnUse" />
    <filter
       style="color-interpolation-filters:sRGB"
       id="filter5"
       x="-0.030947896"
       y="-0.023945386"
       width="1.0618958"
       height="1.0478908">
      <feGaussianBlur
         stdDeviation="0.52879393"
         id="feGaussianBlur5" />
    </filter>
  </defs>
  <g
     id="g5"
     transform="translate(-10.222995,-4.7308946)">
    <path
       id="path1"
       style="display:inline;opacity:0.6;fill:#00abff;fill-opacity:1;stroke:none;filter:url(#filter5)"
       d="m 151.80394,7.0001 -0.004,0.00195 -19.35351,0.00391 c -1.35355,0 -2.45703,1.1084593 -2.45703,2.4648437 V 57.533303 c 0,1.356386 1.10343,2.466797 2.45703,2.466797 h 36.09375 c 1.35354,0 2.45703,-1.110412 2.45703,-2.466797 V 26.183694 c 0,-0.440775 -0.10327,-0.93784 -0.29297,-1.464844 h 0.0606 l -0.35547,-0.722656 c -0.0256,-0.05172 -0.0587,-0.104197 -0.0859,-0.15625 l -0.0605,-0.125 h -0.008 c -0.33862,-0.618179 -0.7885,-1.252822 -1.38476,-1.84961 l -0.002,-0.002 L 156.2647,9.1523967 c -0.67174,-0.8347508 -1.43078,-1.3609398 -2.1543,-1.6796875 l -0.0859,-0.037109 -0.0312,-0.00195 C 153.20882,7.1007523 152.46804,7.0001 151.90941,7.0001 Z m 0.11523,1.0019531 c 0.37972,7.572e-4 0.91296,0.1248404 1.44727,0.3105469 v 13.935547 c 0,1.22231 0.89866,2.235584 2.06641,2.425781 0.1487,0.02782 0.30051,0.04492 0.45703,0.04492 h 13.69336 c 0.23563,0.562366 0.41406,1.117889 0.41406,1.464844 v 31.349609 c 0,0.822556 -0.64278,1.466797 -1.45703,1.466797 h -36.09375 c -0.81435,0 -1.45703,-0.644183 -1.45703,-1.466797 V 9.4708031 c 0,-0.8225555 0.64277,-1.4667968 1.45703,-1.4667969 z m 2.47071,0.9238281 c 0.38082,0.2545632 0.76637,0.4323997 1.12695,0.8886719 l 0.0176,0.021484 12.62695,12.7343749 c 0.37192,0.371984 0.57528,0.75943 0.82813,1.144532 h -13.16602 c -0.0687,0 -0.13319,-0.01063 -0.19922,-0.01953 -0.70854,-0.123275 -1.23436,-0.730184 -1.23437,-1.478515 z m -1.34961,18.7753908 c -1.08088,0 -1.97656,0.870252 -1.97656,1.943359 v 3.966797 a 0.45004499,0.45004499 0 0 0 0.72461,0.357422 c 0.34554,-0.267385 0.77792,-0.429687 1.25195,-0.429687 0.0215,0 0.0195,0.0033 0.0195,0.0078 0,0.0045 0.002,0.0078 -0.0195,0.0078 -1.08088,0 -1.97656,0.870252 -1.97656,1.943359 v 15.101562 a 0.45004499,0.45004499 0 0 0 -0.0176,0.164063 c 0.0107,0.113767 0.0176,0.229989 0.0176,0.341797 0,2.148771 1.79113,3.894531 3.97265,3.894531 1.47277,0 2.82289,-0.796587 3.51367,-2.080078 0.003,-0.0048 0.005,-0.0066 0.01,-0.0078 a 0.45004499,0.45004499 0 0 0 0.002,0 c 1.72583,-0.454987 2.94141,-1.998133 2.94141,-3.757812 0,-0.26224 -0.0267,-0.525369 -0.0801,-0.783203 -5e-4,-0.0024 -0.003,-8.86e-4 0.008,-0.0059 1.2519,-0.544365 2.06836,-1.764196 2.06836,-3.111328 0,-0.610858 -0.16604,-1.20175 -0.47461,-1.71875 a 0.45004499,0.45004499 0 0 0 -0.67968,-0.109375 c -0.0621,0.05353 -0.16665,0.03672 -0.23243,0.08594 0.82061,-0.623811 1.38672,-1.55388 1.38672,-2.648438 0,-1.012835 -0.46026,-1.969806 -1.25195,-2.617187 l -0.002,-0.002 c 0.16851,-0.408535 0.25586,-0.842869 0.25586,-1.283203 0,-1.879857 -1.56849,-3.404297 -3.47461,-3.404297 -0.1494,0 -0.27724,0.0658 -0.42188,0.08398 0.0756,-0.0095 0.11828,-0.08506 0.19531,-0.08984 a 0.45004499,0.45004499 0 0 0 0.35547,-0.214843 c 0.22928,-0.37496 0.35352,-0.807813 0.35352,-1.251954 0,-1.001136 -0.62236,-1.862224 -1.50195,-2.232422 a 0.45004499,0.45004499 0 0 0 -0.043,-0.01563 c 0.0115,0.0035 -0.002,-1.64e-4 -0.0137,-0.0059 a 0.45004499,0.45004499 0 0 0 -0.043,-0.01953 c -0.27357,-0.102765 -0.56913,-0.15625 -0.875,-0.15625 -0.28835,0 -0.53625,0.132993 -0.79883,0.224609 0.0907,-0.03251 0.12438,-0.149716 0.21875,-0.171875 a 0.45004499,0.45004499 0 0 0 0.1289,-0.824219 c -1.2408,-0.739609 -2.47123,-1.179687 -3.53906,-1.179687 v 0.900391 c 0.56429,0 1.376,0.393919 2.14649,0.734375 -0.50451,0.324172 -0.94891,0.732491 -1.22266,1.283203 -0.22094,0.446863 -0.0232,1.003525 0.42383,1.216797 0.44842,0.212889 0.99976,0.03017 1.22265,-0.417969 0.26668,-0.53701 0.80159,-0.865233 1.41993,-0.865235 0.19982,0 0.38759,0.03537 0.55859,0.09961 l -0.043,-0.01953 c 0.0405,0.02022 0.0869,0.04252 0.15234,0.0625 l -0.043,-0.01563 c 0.56226,0.236642 0.95117,0.77348 0.95117,1.402343 0,0.230745 -0.083,0.443982 -0.1836,0.648438 -2.13375,0.29507 -3.80664,2.050957 -3.80664,4.228516 0,0.501227 0.42197,0.908203 0.91797,0.908203 0.49602,0 0.91797,-0.406989 0.91797,-0.908203 0,-1.38065 1.14301,-2.503907 2.57227,-2.503907 1.42927,0 2.57422,1.123565 2.57422,2.503907 0,0.321767 -0.062,0.635307 -0.1875,0.939453 -0.1513,0.36565 -0.0405,0.79407 0.26367,1.042968 0.589,0.48164 0.92187,1.178157 0.92187,1.919922 0,1.380209 -1.14549,2.507813 -2.57422,2.507813 -0.49601,0 -0.91797,0.405023 -0.91797,0.90625 0,0.501226 0.42196,0.908203 0.91797,0.908203 0.87817,0 1.66067,-0.308981 2.34961,-0.746094 0.0974,0.265635 0.22461,0.52267 0.22461,0.814453 0,0.983868 -0.59419,1.881327 -1.52734,2.28711 -0.38853,0.169126 -0.61584,0.593097 -0.5293,1.011718 0.0406,0.196126 0.0606,0.400442 0.0606,0.601563 0,1.345121 -0.92791,2.532506 -2.27149,2.886719 -0.24695,0.06462 -0.45262,0.228654 -0.57226,0.447265 a 0.45004499,0.45004499 0 0 0 0,0.0039 c -0.53255,0.990357 -1.57331,1.607421 -2.72266,1.607421 -1.70427,0 -3.07226,-1.344311 -3.07226,-2.99414 0,-0.129325 -0.009,-0.25658 -0.0195,-0.38086 0.007,-0.04201 0.0195,-0.07938 0.0195,-0.125 V 35.498147 c 0,-0.573393 0.47295,-1.042969 1.07617,-1.042969 0.49601,0 0.91797,-0.406976 0.91797,-0.908203 0,-0.501227 -0.42197,-0.90625 -0.91797,-0.90625 -0.40504,0 -0.72434,0.218791 -1.07617,0.367188 v -3.363282 c 0,-0.573392 0.47295,-1.042967 1.07617,-1.042969 z m -3.98828,0.002 c -1.07189,0 -2.29675,0.440355 -3.53711,1.179687 a 0.45004499,0.45004499 0 0 0 0.1289,0.824219 c 0.0941,0.02209 0.12834,0.137598 0.21875,0.169922 -0.26241,-0.09132 -0.51065,-0.222656 -0.79882,-0.222656 -0.30588,0 -0.60145,0.05403 -0.875,0.15625 a 0.45004499,0.45004499 0 0 0 -0.0586,0.02734 0.45004499,0.45004499 0 0 0 -0.0391,0.01367 c -0.87956,0.370181 -1.50195,1.231264 -1.50195,2.232422 0,0.44214 0.12135,0.875511 0.35156,1.251954 a 0.45004499,0.45004499 0 0 0 0.35547,0.214843 c 0.077,0.0048 0.11973,0.08031 0.19531,0.08984 -0.14466,-0.01818 -0.27248,-0.08398 -0.42187,-0.08398 -1.90615,0 -3.47266,1.524948 -3.47266,3.404297 0,0.438739 0.0855,0.874158 0.25586,1.283203 a 0.45004499,0.45004499 0 0 0 -0.002,0.002 c -0.79235,0.646513 -1.25196,1.604313 -1.25196,2.617187 0,1.0943 0.56482,2.024549 1.38477,2.648438 -0.0658,-0.04922 -0.17033,-0.03241 -0.23242,-0.08594 a 0.45004499,0.45004499 0 0 0 -0.67969,0.109375 c -0.3092,0.517962 -0.47266,1.109185 -0.47266,1.71875 0,1.348051 0.8166,2.566986 2.06836,3.111328 0.0113,0.0049 0.008,0.0034 0.008,0.0059 -0.0535,0.257979 -0.0801,0.521058 -0.0801,0.783203 0,1.759215 1.2149,3.304036 2.9414,3.757812 0.009,0.0022 0.0117,0.0058 0.0117,0.0059 0.69044,1.283543 2.03845,2.082031 3.51172,2.082031 2.18047,0 3.97266,-1.745571 3.97266,-3.894531 0,-1.759921 -1.21461,-3.305449 -2.94141,-3.759766 h -0.002 c -0.0107,-0.0029 -0.0105,-0.0029 -0.01,-0.0059 10e-4,-0.0049 0.007,-0.01259 0.0254,-0.0078 0.86843,0.229008 1.60363,0.726188 2.125,1.384766 A 0.45004499,0.45004499 0 0 0 151.03246,48.4376 V 37.449319 c 0,-1.073097 -0.89568,-1.94336 -1.97657,-1.94336 -0.0215,0 -0.0195,-0.0033 -0.0195,-0.0078 0,-0.0045 -0.002,-0.0078 0.0195,-0.0078 0.47541,0 0.90791,0.160786 1.25196,0.427735 a 0.45004499,0.45004499 0 0 0 0.72461,-0.355469 v -5.916016 c 0,-1.073096 -0.89568,-1.943359 -1.97657,-1.943359 v 0.900391 c 0.60323,0 1.07618,0.469585 1.07618,1.042968 v 5.3125 c -0.35191,-0.148531 -0.67047,-0.36914 -1.07618,-0.36914 -0.49601,0 -0.91797,0.406976 -0.91797,0.908203 0,0.501226 0.42196,0.90625 0.91797,0.90625 0.60323,0 1.07618,0.471538 1.07618,1.044922 V 47.422 c -0.52659,-0.4229 -1.1127,-0.78 -1.79883,-0.960937 v 0.002 c -0.48062,-0.126955 -0.99031,0.154325 -1.12305,0.638672 h 0.002 c -0.13307,0.483517 0.16795,0.988339 0.64844,1.115234 1.34411,0.353019 2.27149,1.541959 2.27149,2.888672 0,1.649639 -1.36934,2.99414 -3.07227,2.99414 -1.14933,0 -2.18594,-0.616711 -2.71875,-1.607421 a 0.45004499,0.45004499 0 0 0 -0.002,-0.002 c -0.12225,-0.225694 -0.33113,-0.385605 -0.57422,-0.449218 -1.3431,-0.353004 -2.26953,-1.541134 -2.26953,-2.886719 0,-0.201236 0.0199,-0.403629 0.0605,-0.599609 a 0.45004499,0.45004499 0 0 0 0,-0.002 c 0.0865,-0.4186 -0.14076,-0.84259 -0.52929,-1.011718 -0.93345,-0.405871 -1.52735,-1.30196 -1.52735,-2.28711 0,-0.292623 0.12603,-0.549153 0.22266,-0.814453 0.68894,0.437115 1.47144,0.746094 2.34961,0.746094 0.49601,0 0.91797,-0.406977 0.91797,-0.908203 0,-0.501227 -0.42197,-0.90625 -0.91797,-0.90625 -1.42885,0 -2.57227,-1.127162 -2.57227,-2.507813 0,-0.74135 0.33225,-1.439863 0.91992,-1.919922 h 0.002 c 0.30695,-0.250074 0.41555,-0.680392 0.26367,-1.044921 -0.12548,-0.300769 -0.1875,-0.6148 -0.1875,-0.9375 0,-1.38065 1.14301,-2.503907 2.57227,-2.503907 1.42927,0 2.57421,1.123565 2.57421,2.503907 0,0.501227 0.42197,0.908203 0.91797,0.908203 0.49602,0 0.91797,-0.406964 0.91797,-0.908203 0,-2.17781 -1.67489,-3.931317 -3.80859,-4.226563 -0.10027,-0.203988 -0.18164,-0.417401 -0.18164,-0.650391 0,-0.628861 0.38895,-1.165724 0.95117,-1.402343 l -0.0488,0.01758 c 0.0685,-0.01989 0.12578,-0.04817 0.16992,-0.07227 l -0.0586,0.02734 c 0.17334,-0.06478 0.36072,-0.09961 0.56055,-0.09961 0.61929,0 1.15536,0.329547 1.42187,0.865235 0.22203,0.446382 0.77124,0.630252 1.21875,0.417969 0.44793,-0.212655 0.64628,-0.771194 0.42578,-1.216797 -0.27348,-0.551086 -0.71672,-0.961232 -1.2207,-1.285157 0.76809,-0.339579 1.57533,-0.732421 2.14258,-0.732421 z m 5.83593,3.226562 c -0.0205,0.03648 -0.0633,0.05206 -0.082,0.08984 -0.003,0.0058 -0.012,0.01213 -0.0293,0.0039 v 0.002 c -0.0158,-0.0075 -0.009,0.0029 -0.006,-0.0039 0.0229,-0.04602 0.0915,-0.04754 0.11718,-0.0918 z m -7.66992,0.0098 c 0.0226,0.0395 0.0832,0.04113 0.10352,0.08203 l -0.002,0.002 a 0.45004499,0.45004499 0 0 0 -0.002,0.002 c -0.0155,0.0074 -0.0219,0.0011 -0.0254,-0.0059 -0.0168,-0.03386 -0.0559,-0.04725 -0.0742,-0.08008 z m -1.68164,3.638672 c 0.63225,0.618732 1.04297,1.442352 1.04297,2.382813 0,0.0045 0.004,0.0078 -0.0176,0.0078 -0.0215,0 -0.0176,-0.0033 -0.0176,-0.0078 0,-0.929866 -0.38919,-1.768058 -1.00781,-2.382813 z m 11.02344,0 c -0.61804,0.614815 -1.00586,1.453206 -1.00586,2.382813 0,0.0045 0.004,0.0078 -0.0176,0.0078 -0.0215,0 -0.0176,-0.0033 -0.0176,-0.0078 0,-0.940585 0.40939,-1.764113 1.04102,-2.382813 z m 3.46289,0.986328 c -0.49518,0.0011 -0.91602,0.407626 -0.91602,0.908203 0,1.380651 -1.143,2.50586 -2.57226,2.50586 -0.70523,0 -1.35372,-0.264854 -1.84375,-0.753907 a 0.45004499,0.45004499 0 0 0 0,-0.002 c -0.35384,-0.351555 -0.92959,-0.358908 -1.29102,-0.01367 -0.36025,0.344192 -0.36802,0.939068 -0.0137,1.291016 0.6661,0.664901 1.52594,1.061677 2.44727,1.207031 0.39497,1.426087 1.62829,2.525391 3.19336,2.525391 0.49601,0 0.91797,-0.406977 0.91797,-0.908203 0,-0.501227 -0.42196,-0.908203 -0.91797,-0.908203 -0.60494,0 -1.05387,-0.374119 -1.31836,-0.851563 1.84426,-0.514627 3.23242,-2.117537 3.23242,-4.091797 0,-0.500579 -0.42085,-0.907155 -0.91602,-0.908203 z m -16.95898,0.490235 c -0.49328,0 -0.91797,0.40307 -0.91797,0.904296 0,1.973792 1.38837,3.578975 3.23242,4.09375 -0.26442,0.476504 -0.7111,0.851563 -1.31641,0.851563 -0.49601,0 -0.91797,0.405023 -0.91797,0.90625 0,0.501226 0.42196,0.908203 0.91797,0.908203 1.56507,0 2.79925,-1.098904 3.19336,-2.525391 0.92031,-0.144836 1.77983,-0.538815 2.44727,-1.205078 0.35565,-0.353352 0.34795,-0.945413 -0.0137,-1.291015 -0.3593,-0.343286 -0.93843,-0.339017 -1.29102,0.01367 -0.49034,0.488641 -1.13809,0.755859 -1.8418,0.755859 -1.42884,0 -2.57422,-1.127586 -2.57422,-2.507813 0,-0.501226 -0.42468,-0.904295 -0.91796,-0.904296 z m 16.95898,0.410156 h 0.002 c 0.0159,4.62e-4 0.0176,0.0037 0.0176,0.0078 0,0.07424 -0.0714,0.120284 -0.0762,0.19336 0.004,-0.06766 0.041,-0.124698 0.041,-0.19336 0,-0.0041 1e-4,-0.0073 0.0156,-0.0078 z m -16.95898,0.488281 c 0.0242,0 0.0176,0.0014 0.0176,0.0059 0,0.06924 0.0368,0.127083 0.041,0.195313 -0.005,-0.07368 -0.0762,-0.120453 -0.0762,-0.195313 0,-0.0045 -0.007,-0.0059 0.0176,-0.0059 z m 16.19726,1.527344 c -0.0831,0.107576 -0.12347,0.217245 -0.21875,0.314453 0.0891,-0.09244 0.14052,-0.212732 0.21875,-0.314453 z m -5.24023,0.380859 c 0.008,-0.0075 0.0268,-0.0083 0.0352,0 0.0259,0.02584 0.0633,0.03367 0.0898,0.05859 -0.0349,-0.03215 -0.0912,-0.02489 -0.125,-0.05859 z m -4.98633,0.486328 c 0.01,-0.0096 0.0232,-0.0095 0.0332,0 0.008,0.0072 0.007,-0.0026 0,0.0039 -0.0366,0.03656 -0.0969,0.02975 -0.13476,0.06445 0.0304,-0.02826 0.072,-0.03891 0.10156,-0.06836 z m 8.18945,0.392578 c -0.0905,0.01881 -0.14141,0.109206 -0.23437,0.121094 a 0.45004499,0.45004499 0 0 0 -0.37696,0.515625 c -0.0106,-0.0484 -0.0627,-0.07562 -0.0703,-0.125 a 0.45004499,0.45004499 0 0 0 -0.39648,-0.378906 c -0.0972,-0.01032 -0.1608,-0.103196 -0.25586,-0.121094 0.21601,0.04058 0.42052,0.125 0.64453,0.125 0.24412,0 0.45905,-0.08912 0.68945,-0.136719 z m -11.36133,0.488282 c 0.23148,0.04808 0.44807,0.138672 0.69336,0.138672 0.21945,0 0.41915,-0.08393 0.63086,-0.123047 -0.0909,0.01669 -0.15125,0.105368 -0.24414,0.115234 a 0.45004499,0.45004499 0 0 0 -0.39648,0.378906 c -0.007,0.04785 -0.0582,0.07415 -0.0684,0.121094 a 0.45004499,0.45004499 0 0 0 -0.38086,-0.507812 c -0.0932,-0.01186 -0.14363,-0.1042 -0.23438,-0.123047 z m 11.13282,0.898437 c 0.0736,0.150224 0.1555,0.296371 0.25781,0.423828 -0.10406,-0.128366 -0.18473,-0.272234 -0.25781,-0.423828 z m -10.86133,0.404297 c -0.083,0.182367 -0.1762,0.355621 -0.29883,0.507813 0.12112,-0.151624 0.21536,-0.326588 0.29883,-0.507813 z m 11.94922,0.457031 c 0.30724,0.13426 0.58745,0.328125 0.94336,0.328125 0.0214,0 0.0176,0.0033 0.0176,0.0078 0,0.0045 0.004,0.0078 -0.0176,0.0078 -0.36194,0 -0.63339,-0.209928 -0.94336,-0.34375 z m -13.42188,0.634766 c -0.18807,0.09563 -0.37227,0.195312 -0.59961,0.195312 -0.0215,0 -0.0176,-0.0033 -0.0176,-0.0078 0,-0.0045 -0.004,-0.0059 0.0176,-0.0059 0.22276,0 0.41105,-0.09024 0.59961,-0.181641 z m 8.37891,0.257812 c -0.49601,0 -0.91797,0.405024 -0.91797,0.90625 0,0.501227 0.42196,0.908204 0.91797,0.908204 1.42884,0 2.57422,1.127585 2.57422,2.507812 0,0.03498 -0.004,0.07175 -0.006,0.107422 -1.44172,0.71017 -2.49024,2.105493 -2.49024,3.792969 0,0.501226 0.42196,0.908203 0.91797,0.908203 0.49602,0 0.91992,-0.406977 0.91992,-0.908203 0,-1.380209 1.14549,-2.507813 2.57422,-2.507813 0.49602,0 0.91797,-0.406976 0.91797,-0.908203 0,-0.501227 -0.42195,-0.90625 -0.91797,-0.90625 -0.0559,0 -0.10871,0.0096 -0.16406,0.01172 -0.22218,-2.182764 -2.05108,-3.91211 -4.32617,-3.91211 z m 0,0.898438 c 1.94523,0 3.50976,1.53897 3.50976,3.423828 0,-0.0072 -0.002,0.01526 -0.002,0.06445 a 0.45004499,0.45004499 0 0 0 0.51172,0.445313 c 0.15367,-0.02091 0.31234,-0.03125 0.4707,-0.03125 0.0215,0 0.0176,0.0014 0.0176,0.0059 0,0.0045 0.004,0.0078 -0.0176,0.0078 -0.50604,0 -0.98062,0.121138 -1.41601,0.314453 0.039,-0.01709 0.0579,-0.06043 0.0977,-0.07617 a 0.45004499,0.45004499 0 0 0 0.28125,-0.369141 c 0.0134,-0.117143 0.0215,-0.236595 0.0215,-0.361328 0,-1.879773 -1.56806,-3.408203 -3.47461,-3.408203 -0.0214,0 -0.0176,-0.0033 -0.0176,-0.0078 0,-0.0045 -0.004,-0.0078 0.0176,-0.0078 z m -5.48633,0.07617 c -2.27409,0 -4.10388,1.729224 -4.32617,3.912109 -0.0555,-0.0023 -0.10746,-0.01172 -0.16406,-0.01172 -0.49602,0 -0.91797,0.406977 -0.91797,0.908204 0,0.501227 0.42195,0.906251 0.91797,0.90625 1.42884,0 2.57617,1.127585 2.57617,2.507812 0,0.501227 0.42196,0.908203 0.91797,0.908203 0.49601,0 0.91797,-0.406976 0.91797,-0.908203 0,-1.687476 -1.04818,-3.08351 -2.49024,-3.792969 -0.002,-0.03517 -0.006,-0.07465 -0.006,-0.107422 0,-1.380208 1.14549,-2.507812 2.57422,-2.507812 0.49601,0 0.91797,-0.406989 0.91797,-0.908203 0,-0.501227 -0.42196,-0.90625 -0.91797,-0.90625 z m -5.5625,0.40039 c 0.0281,6.7e-4 0.0518,0.01563 0.0801,0.01563 0.0215,0 0.0176,0.0014 0.0176,0.0059 0,0.0045 0.004,0.0078 -0.0176,0.0078 -0.0307,0 -0.0495,-0.02853 -0.0801,-0.0293 z m 18.11328,0 c -0.0305,7.69e-4 -0.0493,0.0293 -0.0801,0.0293 -0.0215,0 -0.0176,-0.0033 -0.0176,-0.0078 0,-0.0045 -0.004,-0.0059 0.0176,-0.0059 0.0283,0 0.0519,-0.01496 0.0801,-0.01563 z m -12.55078,0.498047 c 0.0214,0 0.0176,0.0033 0.0176,0.0078 0,0.0045 0.004,0.0078 -0.0176,0.0078 -1.90647,0 -3.47461,1.528412 -3.47461,3.408203 0,0.128287 0.0102,0.247251 0.0215,0.357422 a 0.45004499,0.45004499 0 0 0 0.28125,0.373047 c 0.0397,0.0157 0.0587,0.05911 0.0976,0.07617 -0.43539,-0.193316 -0.90995,-0.3125 -1.41601,-0.3125 -0.0215,0 -0.0176,-0.0033 -0.0176,-0.0078 0,-0.0045 -0.004,-0.0078 0.0176,-0.0078 0.1564,0 0.31513,0.01273 0.47461,0.0332 a 0.45004499,0.45004499 0 0 0 0.50781,-0.447265 c 0,-0.05457 -0.002,-0.07434 -0.002,-0.06445 0,-1.884689 1.56587,-3.421875 3.50977,-3.421875 z m 6.57031,6.015625 c -0.0121,0.115237 -0.0684,0.215668 -0.0684,0.333985 0,0.0045 0.002,0.0078 -0.0195,0.0078 -0.0215,0 -0.0176,-0.0033 -0.0176,-0.0078 0,-0.123746 0.0923,-0.213608 0.10547,-0.333985 z m -7.65429,0.97461 c 0.0132,0.12039 0.10546,0.210238 0.10546,0.333984 0,0.0045 0.004,0.0078 -0.0176,0.0078 -0.0215,0 -0.0195,-0.0033 -0.0195,-0.0078 0,-0.118483 -0.0562,-0.218591 -0.0684,-0.333984 z"
       transform="translate(-118.4973,-1.0001)" />
    <path
       id="path4"
       style="fill:url(#linearGradient5);fill-opacity:1;stroke:none"
       d="m 151.80394,7.0001 -0.004,0.00195 -19.35351,0.00391 c -1.35355,0 -2.45703,1.1084593 -2.45703,2.4648437 V 57.533303 c 0,1.356386 1.10343,2.466797 2.45703,2.466797 h 36.09375 c 1.35354,0 2.45703,-1.110412 2.45703,-2.466797 V 26.183694 c 0,-0.440775 -0.10327,-0.93784 -0.29297,-1.464844 h 0.0606 l -0.35547,-0.722656 c -0.0256,-0.05172 -0.0587,-0.104197 -0.0859,-0.15625 l -0.0605,-0.125 h -0.008 c -0.33862,-0.618179 -0.7885,-1.252822 -1.38476,-1.84961 l -0.002,-0.002 L 156.2647,9.1523967 c -0.67174,-0.8347508 -1.43078,-1.3609398 -2.1543,-1.6796875 l -0.0859,-0.037109 -0.0312,-0.00195 C 153.20882,7.1007523 152.46804,7.0001 151.90941,7.0001 Z m 0.11523,1.0019531 c 0.37972,7.572e-4 0.91296,0.1248404 1.44727,0.3105469 v 13.935547 c 0,1.22231 0.89866,2.235584 2.06641,2.425781 0.1487,0.02782 0.30051,0.04492 0.45703,0.04492 h 13.69336 c 0.23563,0.562366 0.41406,1.117889 0.41406,1.464844 v 31.349609 c 0,0.822556 -0.64278,1.466797 -1.45703,1.466797 h -36.09375 c -0.81435,0 -1.45703,-0.644183 -1.45703,-1.466797 V 9.4708031 c 0,-0.8225555 0.64277,-1.4667968 1.45703,-1.4667969 z m 2.47071,0.9238281 c 0.38082,0.2545632 0.76637,0.4323997 1.12695,0.8886719 l 0.0176,0.021484 12.62695,12.7343749 c 0.37192,0.371984 0.57528,0.75943 0.82813,1.144532 h -13.16602 c -0.0687,0 -0.13319,-0.01063 -0.19922,-0.01953 -0.70854,-0.123275 -1.23436,-0.730184 -1.23437,-1.478515 z m -1.34961,18.7753908 c -1.08088,0 -1.97656,0.870252 -1.97656,1.943359 v 3.966797 a 0.45004499,0.45004499 0 0 0 0.72461,0.357422 c 0.34554,-0.267385 0.77792,-0.429687 1.25195,-0.429687 0.0215,0 0.0195,0.0033 0.0195,0.0078 0,0.0045 0.002,0.0078 -0.0195,0.0078 -1.08088,0 -1.97656,0.870252 -1.97656,1.943359 v 15.101562 a 0.45004499,0.45004499 0 0 0 -0.0176,0.164063 c 0.0107,0.113767 0.0176,0.229989 0.0176,0.341797 0,2.148771 1.79113,3.894531 3.97265,3.894531 1.47277,0 2.82289,-0.796587 3.51367,-2.080078 0.003,-0.0048 0.005,-0.0066 0.01,-0.0078 a 0.45004499,0.45004499 0 0 0 0.002,0 c 1.72583,-0.454987 2.94141,-1.998133 2.94141,-3.757812 0,-0.26224 -0.0267,-0.525369 -0.0801,-0.783203 -5e-4,-0.0024 -0.003,-8.86e-4 0.008,-0.0059 1.2519,-0.544365 2.06836,-1.764196 2.06836,-3.111328 0,-0.610858 -0.16604,-1.20175 -0.47461,-1.71875 a 0.45004499,0.45004499 0 0 0 -0.67968,-0.109375 c -0.0621,0.05353 -0.16665,0.03672 -0.23243,0.08594 0.82061,-0.623811 1.38672,-1.55388 1.38672,-2.648438 0,-1.012835 -0.46026,-1.969806 -1.25195,-2.617187 l -0.002,-0.002 c 0.16851,-0.408535 0.25586,-0.842869 0.25586,-1.283203 0,-1.879857 -1.56849,-3.404297 -3.47461,-3.404297 -0.1494,0 -0.27724,0.0658 -0.42188,0.08398 0.0756,-0.0095 0.11828,-0.08506 0.19531,-0.08984 a 0.45004499,0.45004499 0 0 0 0.35547,-0.214843 c 0.22928,-0.37496 0.35352,-0.807813 0.35352,-1.251954 0,-1.001136 -0.62236,-1.862224 -1.50195,-2.232422 a 0.45004499,0.45004499 0 0 0 -0.043,-0.01563 c 0.0115,0.0035 -0.002,-1.64e-4 -0.0137,-0.0059 a 0.45004499,0.45004499 0 0 0 -0.043,-0.01953 c -0.27357,-0.102765 -0.56913,-0.15625 -0.875,-0.15625 -0.28835,0 -0.53625,0.132993 -0.79883,0.224609 0.0907,-0.03251 0.12438,-0.149716 0.21875,-0.171875 a 0.45004499,0.45004499 0 0 0 0.1289,-0.824219 c -1.2408,-0.739609 -2.47123,-1.179687 -3.53906,-1.179687 v 0.900391 c 0.56429,0 1.376,0.393919 2.14649,0.734375 -0.50451,0.324172 -0.94891,0.732491 -1.22266,1.283203 -0.22094,0.446863 -0.0232,1.003525 0.42383,1.216797 0.44842,0.212889 0.99976,0.03017 1.22265,-0.417969 0.26668,-0.53701 0.80159,-0.865233 1.41993,-0.865235 0.19982,0 0.38759,0.03537 0.55859,0.09961 l -0.043,-0.01953 c 0.0405,0.02022 0.0869,0.04252 0.15234,0.0625 l -0.043,-0.01563 c 0.56226,0.236642 0.95117,0.77348 0.95117,1.402343 0,0.230745 -0.083,0.443982 -0.1836,0.648438 -2.13375,0.29507 -3.80664,2.050957 -3.80664,4.228516 0,0.501227 0.42197,0.908203 0.91797,0.908203 0.49602,0 0.91797,-0.406989 0.91797,-0.908203 0,-1.38065 1.14301,-2.503907 2.57227,-2.503907 1.42927,0 2.57422,1.123565 2.57422,2.503907 0,0.321767 -0.062,0.635307 -0.1875,0.939453 -0.1513,0.36565 -0.0405,0.79407 0.26367,1.042968 0.589,0.48164 0.92187,1.178157 0.92187,1.919922 0,1.380209 -1.14549,2.507813 -2.57422,2.507813 -0.49601,0 -0.91797,0.405023 -0.91797,0.90625 0,0.501226 0.42196,0.908203 0.91797,0.908203 0.87817,0 1.66067,-0.308981 2.34961,-0.746094 0.0974,0.265635 0.22461,0.52267 0.22461,0.814453 0,0.983868 -0.59419,1.881327 -1.52734,2.28711 -0.38853,0.169126 -0.61584,0.593097 -0.5293,1.011718 0.0406,0.196126 0.0606,0.400442 0.0606,0.601563 0,1.345121 -0.92791,2.532506 -2.27149,2.886719 -0.24695,0.06462 -0.45262,0.228654 -0.57226,0.447265 a 0.45004499,0.45004499 0 0 0 0,0.0039 c -0.53255,0.990357 -1.57331,1.607421 -2.72266,1.607421 -1.70427,0 -3.07226,-1.344311 -3.07226,-2.99414 0,-0.129325 -0.009,-0.25658 -0.0195,-0.38086 0.007,-0.04201 0.0195,-0.07938 0.0195,-0.125 V 35.498147 c 0,-0.573393 0.47295,-1.042969 1.07617,-1.042969 0.49601,0 0.91797,-0.406976 0.91797,-0.908203 0,-0.501227 -0.42197,-0.90625 -0.91797,-0.90625 -0.40504,0 -0.72434,0.218791 -1.07617,0.367188 v -3.363282 c 0,-0.573392 0.47295,-1.042967 1.07617,-1.042969 z m -3.98828,0.002 c -1.07189,0 -2.29675,0.440355 -3.53711,1.179687 a 0.45004499,0.45004499 0 0 0 0.1289,0.824219 c 0.0941,0.02209 0.12834,0.137598 0.21875,0.169922 -0.26241,-0.09132 -0.51065,-0.222656 -0.79882,-0.222656 -0.30588,0 -0.60145,0.05403 -0.875,0.15625 a 0.45004499,0.45004499 0 0 0 -0.0586,0.02734 0.45004499,0.45004499 0 0 0 -0.0391,0.01367 c -0.87956,0.370181 -1.50195,1.231264 -1.50195,2.232422 0,0.44214 0.12135,0.875511 0.35156,1.251954 a 0.45004499,0.45004499 0 0 0 0.35547,0.214843 c 0.077,0.0048 0.11973,0.08031 0.19531,0.08984 -0.14466,-0.01818 -0.27248,-0.08398 -0.42187,-0.08398 -1.90615,0 -3.47266,1.524948 -3.47266,3.404297 0,0.438739 0.0855,0.874158 0.25586,1.283203 a 0.45004499,0.45004499 0 0 0 -0.002,0.002 c -0.79235,0.646513 -1.25196,1.604313 -1.25196,2.617187 0,1.0943 0.56482,2.024549 1.38477,2.648438 -0.0658,-0.04922 -0.17033,-0.03241 -0.23242,-0.08594 a 0.45004499,0.45004499 0 0 0 -0.67969,0.109375 c -0.3092,0.517962 -0.47266,1.109185 -0.47266,1.71875 0,1.348051 0.8166,2.566986 2.06836,3.111328 0.0113,0.0049 0.008,0.0034 0.008,0.0059 -0.0535,0.257979 -0.0801,0.521058 -0.0801,0.783203 0,1.759215 1.2149,3.304036 2.9414,3.757812 0.009,0.0022 0.0117,0.0058 0.0117,0.0059 0.69044,1.283543 2.03845,2.082031 3.51172,2.082031 2.18047,0 3.97266,-1.745571 3.97266,-3.894531 0,-1.759921 -1.21461,-3.305449 -2.94141,-3.759766 h -0.002 c -0.0107,-0.0029 -0.0105,-0.0029 -0.01,-0.0059 10e-4,-0.0049 0.007,-0.01259 0.0254,-0.0078 0.86843,0.229008 1.60363,0.726188 2.125,1.384766 A 0.45004499,0.45004499 0 0 0 151.03246,48.4376 V 37.449319 c 0,-1.073097 -0.89568,-1.94336 -1.97657,-1.94336 -0.0215,0 -0.0195,-0.0033 -0.0195,-0.0078 0,-0.0045 -0.002,-0.0078 0.0195,-0.0078 0.47541,0 0.90791,0.160786 1.25196,0.427735 a 0.45004499,0.45004499 0 0 0 0.72461,-0.355469 v -5.916016 c 0,-1.073096 -0.89568,-1.943359 -1.97657,-1.943359 v 0.900391 c 0.60323,0 1.07618,0.469585 1.07618,1.042968 v 5.3125 c -0.35191,-0.148531 -0.67047,-0.36914 -1.07618,-0.36914 -0.49601,0 -0.91797,0.406976 -0.91797,0.908203 0,0.501226 0.42196,0.90625 0.91797,0.90625 0.60323,0 1.07618,0.471538 1.07618,1.044922 V 47.422 c -0.52659,-0.4229 -1.1127,-0.78 -1.79883,-0.960937 v 0.002 c -0.48062,-0.126955 -0.99031,0.154325 -1.12305,0.638672 h 0.002 c -0.13307,0.483517 0.16795,0.988339 0.64844,1.115234 1.34411,0.353019 2.27149,1.541959 2.27149,2.888672 0,1.649639 -1.36934,2.99414 -3.07227,2.99414 -1.14933,0 -2.18594,-0.616711 -2.71875,-1.607421 a 0.45004499,0.45004499 0 0 0 -0.002,-0.002 c -0.12225,-0.225694 -0.33113,-0.385605 -0.57422,-0.449218 -1.3431,-0.353004 -2.26953,-1.541134 -2.26953,-2.886719 0,-0.201236 0.0199,-0.403629 0.0605,-0.599609 a 0.45004499,0.45004499 0 0 0 0,-0.002 c 0.0865,-0.4186 -0.14076,-0.84259 -0.52929,-1.011718 -0.93345,-0.405871 -1.52735,-1.30196 -1.52735,-2.28711 0,-0.292623 0.12603,-0.549153 0.22266,-0.814453 0.68894,0.437115 1.47144,0.746094 2.34961,0.746094 0.49601,0 0.91797,-0.406977 0.91797,-0.908203 0,-0.501227 -0.42197,-0.90625 -0.91797,-0.90625 -1.42885,0 -2.57227,-1.127162 -2.57227,-2.507813 0,-0.74135 0.33225,-1.439863 0.91992,-1.919922 h 0.002 c 0.30695,-0.250074 0.41555,-0.680392 0.26367,-1.044921 -0.12548,-0.300769 -0.1875,-0.6148 -0.1875,-0.9375 0,-1.38065 1.14301,-2.503907 2.57227,-2.503907 1.42927,0 2.57421,1.123565 2.57421,2.503907 0,0.501227 0.42197,0.908203 0.91797,0.908203 0.49602,0 0.91797,-0.406964 0.91797,-0.908203 0,-2.17781 -1.67489,-3.931317 -3.80859,-4.226563 -0.10027,-0.203988 -0.18164,-0.417401 -0.18164,-0.650391 0,-0.628861 0.38895,-1.165724 0.95117,-1.402343 l -0.0488,0.01758 c 0.0685,-0.01989 0.12578,-0.04817 0.16992,-0.07227 l -0.0586,0.02734 c 0.17334,-0.06478 0.36072,-0.09961 0.56055,-0.09961 0.61929,0 1.15536,0.329547 1.42187,0.865235 0.22203,0.446382 0.77124,0.630252 1.21875,0.417969 0.44793,-0.212655 0.64628,-0.771194 0.42578,-1.216797 -0.27348,-0.551086 -0.71672,-0.961232 -1.2207,-1.285157 0.76809,-0.339579 1.57533,-0.732421 2.14258,-0.732421 z m 5.83593,3.226562 c -0.0205,0.03648 -0.0633,0.05206 -0.082,0.08984 -0.003,0.0058 -0.012,0.01213 -0.0293,0.0039 v 0.002 c -0.0158,-0.0075 -0.009,0.0029 -0.006,-0.0039 0.0229,-0.04602 0.0915,-0.04754 0.11718,-0.0918 z m -7.66992,0.0098 c 0.0226,0.0395 0.0832,0.04113 0.10352,0.08203 l -0.002,0.002 a 0.45004499,0.45004499 0 0 0 -0.002,0.002 c -0.0155,0.0074 -0.0219,0.0011 -0.0254,-0.0059 -0.0168,-0.03386 -0.0559,-0.04725 -0.0742,-0.08008 z m -1.68164,3.638672 c 0.63225,0.618732 1.04297,1.442352 1.04297,2.382813 0,0.0045 0.004,0.0078 -0.0176,0.0078 -0.0215,0 -0.0176,-0.0033 -0.0176,-0.0078 0,-0.929866 -0.38919,-1.768058 -1.00781,-2.382813 z m 11.02344,0 c -0.61804,0.614815 -1.00586,1.453206 -1.00586,2.382813 0,0.0045 0.004,0.0078 -0.0176,0.0078 -0.0215,0 -0.0176,-0.0033 -0.0176,-0.0078 0,-0.940585 0.40939,-1.764113 1.04102,-2.382813 z m 3.46289,0.986328 c -0.49518,0.0011 -0.91602,0.407626 -0.91602,0.908203 0,1.380651 -1.143,2.50586 -2.57226,2.50586 -0.70523,0 -1.35372,-0.264854 -1.84375,-0.753907 a 0.45004499,0.45004499 0 0 0 0,-0.002 c -0.35384,-0.351555 -0.92959,-0.358908 -1.29102,-0.01367 -0.36025,0.344192 -0.36802,0.939068 -0.0137,1.291016 0.6661,0.664901 1.52594,1.061677 2.44727,1.207031 0.39497,1.426087 1.62829,2.525391 3.19336,2.525391 0.49601,0 0.91797,-0.406977 0.91797,-0.908203 0,-0.501227 -0.42196,-0.908203 -0.91797,-0.908203 -0.60494,0 -1.05387,-0.374119 -1.31836,-0.851563 1.84426,-0.514627 3.23242,-2.117537 3.23242,-4.091797 0,-0.500579 -0.42085,-0.907155 -0.91602,-0.908203 z m -16.95898,0.490235 c -0.49328,0 -0.91797,0.40307 -0.91797,0.904296 0,1.973792 1.38837,3.578975 3.23242,4.09375 -0.26442,0.476504 -0.7111,0.851563 -1.31641,0.851563 -0.49601,0 -0.91797,0.405023 -0.91797,0.90625 0,0.501226 0.42196,0.908203 0.91797,0.908203 1.56507,0 2.79925,-1.098904 3.19336,-2.525391 0.92031,-0.144836 1.77983,-0.538815 2.44727,-1.205078 0.35565,-0.353352 0.34795,-0.945413 -0.0137,-1.291015 -0.3593,-0.343286 -0.93843,-0.339017 -1.29102,0.01367 -0.49034,0.488641 -1.13809,0.755859 -1.8418,0.755859 -1.42884,0 -2.57422,-1.127586 -2.57422,-2.507813 0,-0.501226 -0.42468,-0.904295 -0.91796,-0.904296 z m 16.95898,0.410156 h 0.002 c 0.0159,4.62e-4 0.0176,0.0037 0.0176,0.0078 0,0.07424 -0.0714,0.120284 -0.0762,0.19336 0.004,-0.06766 0.041,-0.124698 0.041,-0.19336 0,-0.0041 1e-4,-0.0073 0.0156,-0.0078 z m -16.95898,0.488281 c 0.0242,0 0.0176,0.0014 0.0176,0.0059 0,0.06924 0.0368,0.127083 0.041,0.195313 -0.005,-0.07368 -0.0762,-0.120453 -0.0762,-0.195313 0,-0.0045 -0.007,-0.0059 0.0176,-0.0059 z m 16.19726,1.527344 c -0.0831,0.107576 -0.12347,0.217245 -0.21875,0.314453 0.0891,-0.09244 0.14052,-0.212732 0.21875,-0.314453 z m -5.24023,0.380859 c 0.008,-0.0075 0.0268,-0.0083 0.0352,0 0.0259,0.02584 0.0633,0.03367 0.0898,0.05859 -0.0349,-0.03215 -0.0912,-0.02489 -0.125,-0.05859 z m -4.98633,0.486328 c 0.01,-0.0096 0.0232,-0.0095 0.0332,0 0.008,0.0072 0.007,-0.0026 0,0.0039 -0.0366,0.03656 -0.0969,0.02975 -0.13476,0.06445 0.0304,-0.02826 0.072,-0.03891 0.10156,-0.06836 z m 8.18945,0.392578 c -0.0905,0.01881 -0.14141,0.109206 -0.23437,0.121094 a 0.45004499,0.45004499 0 0 0 -0.37696,0.515625 c -0.0106,-0.0484 -0.0627,-0.07562 -0.0703,-0.125 a 0.45004499,0.45004499 0 0 0 -0.39648,-0.378906 c -0.0972,-0.01032 -0.1608,-0.103196 -0.25586,-0.121094 0.21601,0.04058 0.42052,0.125 0.64453,0.125 0.24412,0 0.45905,-0.08912 0.68945,-0.136719 z m -11.36133,0.488282 c 0.23148,0.04808 0.44807,0.138672 0.69336,0.138672 0.21945,0 0.41915,-0.08393 0.63086,-0.123047 -0.0909,0.01669 -0.15125,0.105368 -0.24414,0.115234 a 0.45004499,0.45004499 0 0 0 -0.39648,0.378906 c -0.007,0.04785 -0.0582,0.07415 -0.0684,0.121094 a 0.45004499,0.45004499 0 0 0 -0.38086,-0.507812 c -0.0932,-0.01186 -0.14363,-0.1042 -0.23438,-0.123047 z m 11.13282,0.898437 c 0.0736,0.150224 0.1555,0.296371 0.25781,0.423828 -0.10406,-0.128366 -0.18473,-0.272234 -0.25781,-0.423828 z m -10.86133,0.404297 c -0.083,0.182367 -0.1762,0.355621 -0.29883,0.507813 0.12112,-0.151624 0.21536,-0.326588 0.29883,-0.507813 z m 11.94922,0.457031 c 0.30724,0.13426 0.58745,0.328125 0.94336,0.328125 0.0214,0 0.0176,0.0033 0.0176,0.0078 0,0.0045 0.004,0.0078 -0.0176,0.0078 -0.36194,0 -0.63339,-0.209928 -0.94336,-0.34375 z m -13.42188,0.634766 c -0.18807,0.09563 -0.37227,0.195312 -0.59961,0.195312 -0.0215,0 -0.0176,-0.0033 -0.0176,-0.0078 0,-0.0045 -0.004,-0.0059 0.0176,-0.0059 0.22276,0 0.41105,-0.09024 0.59961,-0.181641 z m 8.37891,0.257812 c -0.49601,0 -0.91797,0.405024 -0.91797,0.90625 0,0.501227 0.42196,0.908204 0.91797,0.908204 1.42884,0 2.57422,1.127585 2.57422,2.507812 0,0.03498 -0.004,0.07175 -0.006,0.107422 -1.44172,0.71017 -2.49024,2.105493 -2.49024,3.792969 0,0.501226 0.42196,0.908203 0.91797,0.908203 0.49602,0 0.91992,-0.406977 0.91992,-0.908203 0,-1.380209 1.14549,-2.507813 2.57422,-2.507813 0.49602,0 0.91797,-0.406976 0.91797,-0.908203 0,-0.501227 -0.42195,-0.90625 -0.91797,-0.90625 -0.0559,0 -0.10871,0.0096 -0.16406,0.01172 -0.22218,-2.182764 -2.05108,-3.91211 -4.32617,-3.91211 z m 0,0.898438 c 1.94523,0 3.50976,1.53897 3.50976,3.423828 0,-0.0072 -0.002,0.01526 -0.002,0.06445 a 0.45004499,0.45004499 0 0 0 0.51172,0.445313 c 0.15367,-0.02091 0.31234,-0.03125 0.4707,-0.03125 0.0215,0 0.0176,0.0014 0.0176,0.0059 0,0.0045 0.004,0.0078 -0.0176,0.0078 -0.50604,0 -0.98062,0.121138 -1.41601,0.314453 0.039,-0.01709 0.0579,-0.06043 0.0977,-0.07617 a 0.45004499,0.45004499 0 0 0 0.28125,-0.369141 c 0.0134,-0.117143 0.0215,-0.236595 0.0215,-0.361328 0,-1.879773 -1.56806,-3.408203 -3.47461,-3.408203 -0.0214,0 -0.0176,-0.0033 -0.0176,-0.0078 0,-0.0045 -0.004,-0.0078 0.0176,-0.0078 z m -5.48633,0.07617 c -2.27409,0 -4.10388,1.729224 -4.32617,3.912109 -0.0555,-0.0023 -0.10746,-0.01172 -0.16406,-0.01172 -0.49602,0 -0.91797,0.406977 -0.91797,0.908204 0,0.501227 0.42195,0.906251 0.91797,0.90625 1.42884,0 2.57617,1.127585 2.57617,2.507812 0,0.501227 0.42196,0.908203 0.91797,0.908203 0.49601,0 0.91797,-0.406976 0.91797,-0.908203 0,-1.687476 -1.04818,-3.08351 -2.49024,-3.792969 -0.002,-0.03517 -0.006,-0.07465 -0.006,-0.107422 0,-1.380208 1.14549,-2.507812 2.57422,-2.507812 0.49601,0 0.91797,-0.406989 0.91797,-0.908203 0,-0.501227 -0.42196,-0.90625 -0.91797,-0.90625 z m -5.5625,0.40039 c 0.0281,6.7e-4 0.0518,0.01563 0.0801,0.01563 0.0215,0 0.0176,0.0014 0.0176,0.0059 0,0.0045 0.004,0.0078 -0.0176,0.0078 -0.0307,0 -0.0495,-0.02853 -0.0801,-0.0293 z m 18.11328,0 c -0.0305,7.69e-4 -0.0493,0.0293 -0.0801,0.0293 -0.0215,0 -0.0176,-0.0033 -0.0176,-0.0078 0,-0.0045 -0.004,-0.0059 0.0176,-0.0059 0.0283,0 0.0519,-0.01496 0.0801,-0.01563 z m -12.55078,0.498047 c 0.0214,0 0.0176,0.0033 0.0176,0.0078 0,0.0045 0.004,0.0078 -0.0176,0.0078 -1.90647,0 -3.47461,1.528412 -3.47461,3.408203 0,0.128287 0.0102,0.247251 0.0215,0.357422 a 0.45004499,0.45004499 0 0 0 0.28125,0.373047 c 0.0397,0.0157 0.0587,0.05911 0.0976,0.07617 -0.43539,-0.193316 -0.90995,-0.3125 -1.41601,-0.3125 -0.0215,0 -0.0176,-0.0033 -0.0176,-0.0078 0,-0.0045 -0.004,-0.0078 0.0176,-0.0078 0.1564,0 0.31513,0.01273 0.47461,0.0332 a 0.45004499,0.45004499 0 0 0 0.50781,-0.447265 c 0,-0.05457 -0.002,-0.07434 -0.002,-0.06445 0,-1.884689 1.56587,-3.421875 3.50977,-3.421875 z m 6.57031,6.015625 c -0.0121,0.115237 -0.0684,0.215668 -0.0684,0.333985 0,0.0045 0.002,0.0078 -0.0195,0.0078 -0.0215,0 -0.0176,-0.0033 -0.0176,-0.0078 0,-0.123746 0.0923,-0.213608 0.10547,-0.333985 z m -7.65429,0.97461 c 0.0132,0.12039 0.10546,0.210238 0.10546,0.333984 0,0.0045 0.004,0.0078 -0.0176,0.0078 -0.0215,0 -0.0195,-0.0033 -0.0195,-0.0078 0,-0.118483 -0.0562,-0.218591 -0.0684,-0.333984 z"
       transform="translate(-118.4973,-1.0001)" />
  </g>
</svg>
