<?xml version="1.0" encoding="UTF-8" standalone="no"?>
<svg
   width="43.546024"
   height="55.538212"
   version="1.1"
   viewBox="0 0 43.546024 55.538212"
   id="svg5"
   xmlns:xlink="http://www.w3.org/1999/xlink"
   xmlns="http://www.w3.org/2000/svg"
   xmlns:svg="http://www.w3.org/2000/svg">
  <defs
     id="defs5">
    <linearGradient
       id="linearGradient6">
      <stop
         style="stop-color:#00abff;stop-opacity:0;"
         offset="0"
         id="stop7" />
      <stop
         style="stop-color:#00abff;stop-opacity:1;"
         offset="1"
         id="stop6" />
    </linearGradient>
    <linearGradient
       xlink:href="#linearGradient6"
       id="linearGradient7"
       x1="150.83891"
       y1="64.96888"
       x2="150.83891"
       y2="24.621054"
       gradientUnits="userSpaceOnUse" />
    <filter
       style="color-interpolation-filters:sRGB"
       id="filter7"
       x="-0.030947896"
       y="-0.023945386"
       width="1.0618958"
       height="1.0478908">
      <feGaussianBlur
         stdDeviation="0.52879393"
         id="feGaussianBlur7" />
    </filter>
  </defs>
  <g
     id="g7"
     transform="translate(-10.230795,-4.7621446)">
    <path
       id="path1"
       style="display:inline;opacity:0.6;fill:#00abff;fill-opacity:1;stroke:none;filter:url(#filter7)"
       d="m 151.80554,7.00013 -0.004,0.00195 -19.35352,0.00391 c -1.35355,0 -2.45703,1.1084593 -2.45703,2.4648437 V 57.533333 c 0,1.356386 1.10343,2.466797 2.45703,2.466797 h 36.09375 c 1.35354,0 2.45703,-1.110412 2.45703,-2.466797 V 26.183724 c 0,-0.440775 -0.10522,-0.93784 -0.29492,-1.464844 h 0.0625 l -0.35547,-0.722656 c -0.0256,-0.05172 -0.0587,-0.104197 -0.0859,-0.15625 l -0.0605,-0.125 h -0.008 c -0.33862,-0.618179 -0.7885,-1.252822 -1.38476,-1.84961 l -0.002,-0.002 -12.60351,-12.7109372 c -0.67176,-0.8348309 -1.43074,-1.3609224 -2.1543,-1.6796875 l -0.0859,-0.037109 -0.0312,-0.00195 C 153.21042,7.1007823 152.46964,7.00013 151.91101,7.00013 Z m 0.11524,1.0019531 c 0.37972,7.572e-4 0.91295,0.1248404 1.44726,0.3105469 v 13.935547 c 0,1.22032 0.89558,2.23319 2.06055,2.425781 0.14988,0.02829 0.30505,0.04492 0.46289,0.04492 h 13.69336 c 0.23563,0.562366 0.41406,1.11789 0.41406,1.464844 v 31.349609 c 0,0.822556 -0.64278,1.466797 -1.45703,1.466797 h -36.09375 c -0.81435,0 -1.45703,-0.644183 -1.45703,-1.466797 V 9.4708331 c 0,-0.8225555 0.64277,-1.4667969 1.45703,-1.4667968 z m 2.4707,0.9238282 c 0.38082,0.2545631 0.76637,0.4323996 1.12695,0.8886718 l 0.0176,0.021484 12.62695,12.7343749 c 0.37193,0.371986 0.57528,0.759428 0.82813,1.144532 h -13.16602 c -0.069,0 -0.13495,-0.01057 -0.20117,-0.01953 -0.70854,-0.123275 -1.23241,-0.730184 -1.23242,-1.478515 z m -0.87891,18.5722657 -0.97851,0.173828 c -4.89489,0.871694 -9.77373,2.024069 -14.63086,2.873047 l -0.41406,0.07227 v 0.419922 c 0,7.417665 -0.003,14.838497 0,22.259766 v 0.419922 l 0.41406,0.07227 c 4.83245,0.846044 9.6833,1.979928 14.54101,2.867188 l 0.0449,0.0078 h 1.99804 v -29 h -1.05664 z m -0.84375,1.166015 h 0.81836 v 27 h -0.90234 c -4.67572,-0.855306 -9.37794,-1.936183 -14.0957,-2.777343 -0.003,-7.147276 -1e-4,-14.29477 0,-21.439453 4.74362,-0.845124 9.47215,-1.943413 14.17968,-2.783204 z m 3.21094,2.5 v 1 h 7 v 15 h -2 v -12 c 0,-0.553999 -0.446,-1 -1,-1 -1.556,-0.610999 -4.061,-0.985 -4,-2 v 5 h 3 v 4 h -3 v 2 h 3 v 1 h -3 v 2 h 3 v 1 h -3 v 2 h 3 v 1 h -3 v 3 h 4 c 0.554,0 1,-0.445999 1,-1 v -4 h 2 c 0.554,0 1,-0.445999 1,-1 v -15 c 0,-0.553999 -0.446,-1 -1,-1 z m -10.09766,5.304688 -0.50976,0.01172 c -1.01902,0.02162 -2.00173,0.212021 -2.91797,0.326172 l -0.43359,0.05273 -0.008,0.4375 c -0.04,3.564943 -0.0337,6.965244 -0.004,10.527344 l 0.004,0.457031 0.45703,0.03711 c 0.65786,0.05316 1.32,0.111268 1.98047,0.167969 l 0.54493,0.04687 -0.002,-0.546875 c -0.003,-1.135363 -4.2e-4,-2.270052 0.002,-3.40625 0.69372,0.01893 1.44148,0.01052 2.17187,-0.361328 1.23371,-0.606281 1.94256,-1.826346 2.14453,-3.103516 0.20219,-1.278547 -0.0803,-2.65173 -0.9082,-3.65625 l -0.0215,-0.02734 -0.0273,-0.02539 c -0.73183,-0.661938 -1.61003,-0.831973 -2.47266,-0.873047 z m -0.49023,1.011719 h 0.002 c 0.89207,-0.01892 1.63822,0.11018 2.25586,0.65039 0.59147,0.738439 0.83525,1.819701 0.67578,2.828125 -0.16159,1.021803 -0.70578,1.925392 -1.59961,2.363282 l -0.004,0.002 -0.006,0.002 c -0.60224,0.307732 -1.36963,0.278964 -2.20313,0.251953 l -0.51562,-0.01563 -0.002,0.513672 c -0.003,1.122073 -0.003,2.246247 -0.002,3.36914 -0.32808,-0.02823 -0.65574,-0.05658 -0.98437,-0.08398 -0.0254,-3.241901 -0.0292,-6.37011 0.004,-9.611328 0.80813,-0.112357 1.61432,-0.253311 2.37891,-0.269531 z m -0.10547,0.93164 c -0.30276,-0.0078 -0.58298,0.01873 -0.8125,0.0293 l -0.47266,0.02148 -0.008,0.474609 c -0.01,1.120825 -0.0166,2.249091 0.0547,3.388672 l 0.0332,0.529297 0.52539,-0.06445 c 0.29006,-0.03499 0.69073,-0.0361 1.11133,-0.132813 0.4206,-0.09671 0.89918,-0.333154 1.16992,-0.822266 l 0.01,-0.01367 0.008,-0.01563 c 0.38316,-0.814754 0.41486,-1.82639 -0.0644,-2.650391 l -0.0117,-0.01953 -0.0156,-0.01953 c -0.18302,-0.254581 -0.4619,-0.220759 -0.71093,-0.328125 l 0.34765,-0.347656 z m -0.0254,1 c 0.35736,0.0096 0.55615,0.07339 0.71484,0.277344 0.26326,0.476212 0.26305,1.151233 0.0254,1.671875 -0.10801,0.185515 -0.24249,0.261711 -0.50585,0.322266 -0.1225,0.02817 -0.30256,0.0386 -0.45508,0.05273 -0.0323,-0.765402 -0.0424,-1.536691 -0.0371,-2.314453 0.0842,-0.0032 0.18059,-0.01174 0.25781,-0.0098 z"
       transform="translate(-118.49109,-0.96888)" />
    <path
       id="path6"
       style="fill:url(#linearGradient7);fill-opacity:1;stroke:none"
       d="m 151.80554,7.00013 -0.004,0.00195 -19.35352,0.00391 c -1.35355,0 -2.45703,1.1084593 -2.45703,2.4648437 V 57.533333 c 0,1.356386 1.10343,2.466797 2.45703,2.466797 h 36.09375 c 1.35354,0 2.45703,-1.110412 2.45703,-2.466797 V 26.183724 c 0,-0.440775 -0.10522,-0.93784 -0.29492,-1.464844 h 0.0625 l -0.35547,-0.722656 c -0.0256,-0.05172 -0.0587,-0.104197 -0.0859,-0.15625 l -0.0605,-0.125 h -0.008 c -0.33862,-0.618179 -0.7885,-1.252822 -1.38476,-1.84961 l -0.002,-0.002 -12.60351,-12.7109372 c -0.67176,-0.8348309 -1.43074,-1.3609224 -2.1543,-1.6796875 l -0.0859,-0.037109 -0.0312,-0.00195 C 153.21042,7.1007823 152.46964,7.00013 151.91101,7.00013 Z m 0.11524,1.0019531 c 0.37972,7.572e-4 0.91295,0.1248404 1.44726,0.3105469 v 13.935547 c 0,1.22032 0.89558,2.23319 2.06055,2.425781 0.14988,0.02829 0.30505,0.04492 0.46289,0.04492 h 13.69336 c 0.23563,0.562366 0.41406,1.11789 0.41406,1.464844 v 31.349609 c 0,0.822556 -0.64278,1.466797 -1.45703,1.466797 h -36.09375 c -0.81435,0 -1.45703,-0.644183 -1.45703,-1.466797 V 9.4708331 c 0,-0.8225555 0.64277,-1.4667969 1.45703,-1.4667968 z m 2.4707,0.9238282 c 0.38082,0.2545631 0.76637,0.4323996 1.12695,0.8886718 l 0.0176,0.021484 12.62695,12.7343749 c 0.37193,0.371986 0.57528,0.759428 0.82813,1.144532 h -13.16602 c -0.069,0 -0.13495,-0.01057 -0.20117,-0.01953 -0.70854,-0.123275 -1.23241,-0.730184 -1.23242,-1.478515 z m -0.87891,18.5722657 -0.97851,0.173828 c -4.89489,0.871694 -9.77373,2.024069 -14.63086,2.873047 l -0.41406,0.07227 v 0.419922 c 0,7.417665 -0.003,14.838497 0,22.259766 v 0.419922 l 0.41406,0.07227 c 4.83245,0.846044 9.6833,1.979928 14.54101,2.867188 l 0.0449,0.0078 h 1.99804 v -29 h -1.05664 z m -0.84375,1.166015 h 0.81836 v 27 h -0.90234 c -4.67572,-0.855306 -9.37794,-1.936183 -14.0957,-2.777343 -0.003,-7.147276 -1e-4,-14.29477 0,-21.439453 4.74362,-0.845124 9.47215,-1.943413 14.17968,-2.783204 z m 3.21094,2.5 v 1 h 7 v 15 h -2 v -12 c 0,-0.553999 -0.446,-1 -1,-1 -1.556,-0.610999 -4.061,-0.985 -4,-2 v 5 h 3 v 4 h -3 v 2 h 3 v 1 h -3 v 2 h 3 v 1 h -3 v 2 h 3 v 1 h -3 v 3 h 4 c 0.554,0 1,-0.445999 1,-1 v -4 h 2 c 0.554,0 1,-0.445999 1,-1 v -15 c 0,-0.553999 -0.446,-1 -1,-1 z m -10.09766,5.304688 -0.50976,0.01172 c -1.01902,0.02162 -2.00173,0.212021 -2.91797,0.326172 l -0.43359,0.05273 -0.008,0.4375 c -0.04,3.564943 -0.0337,6.965244 -0.004,10.527344 l 0.004,0.457031 0.45703,0.03711 c 0.65786,0.05316 1.32,0.111268 1.98047,0.167969 l 0.54493,0.04687 -0.002,-0.546875 c -0.003,-1.135363 -4.2e-4,-2.270052 0.002,-3.40625 0.69372,0.01893 1.44148,0.01052 2.17187,-0.361328 1.23371,-0.606281 1.94256,-1.826346 2.14453,-3.103516 0.20219,-1.278547 -0.0803,-2.65173 -0.9082,-3.65625 l -0.0215,-0.02734 -0.0273,-0.02539 c -0.73183,-0.661938 -1.61003,-0.831973 -2.47266,-0.873047 z m -0.49023,1.011719 h 0.002 c 0.89207,-0.01892 1.63822,0.11018 2.25586,0.65039 0.59147,0.738439 0.83525,1.819701 0.67578,2.828125 -0.16159,1.021803 -0.70578,1.925392 -1.59961,2.363282 l -0.004,0.002 -0.006,0.002 c -0.60224,0.307732 -1.36963,0.278964 -2.20313,0.251953 l -0.51562,-0.01563 -0.002,0.513672 c -0.003,1.122073 -0.003,2.246247 -0.002,3.36914 -0.32808,-0.02823 -0.65574,-0.05658 -0.98437,-0.08398 -0.0254,-3.241901 -0.0292,-6.37011 0.004,-9.611328 0.80813,-0.112357 1.61432,-0.253311 2.37891,-0.269531 z m -0.10547,0.93164 c -0.30276,-0.0078 -0.58298,0.01873 -0.8125,0.0293 l -0.47266,0.02148 -0.008,0.474609 c -0.01,1.120825 -0.0166,2.249091 0.0547,3.388672 l 0.0332,0.529297 0.52539,-0.06445 c 0.29006,-0.03499 0.69073,-0.0361 1.11133,-0.132813 0.4206,-0.09671 0.89918,-0.333154 1.16992,-0.822266 l 0.01,-0.01367 0.008,-0.01563 c 0.38316,-0.814754 0.41486,-1.82639 -0.0644,-2.650391 l -0.0117,-0.01953 -0.0156,-0.01953 c -0.18302,-0.254581 -0.4619,-0.220759 -0.71093,-0.328125 l 0.34765,-0.347656 z m -0.0254,1 c 0.35736,0.0096 0.55615,0.07339 0.71484,0.277344 0.26326,0.476212 0.26305,1.151233 0.0254,1.671875 -0.10801,0.185515 -0.24249,0.261711 -0.50585,0.322266 -0.1225,0.02817 -0.30256,0.0386 -0.45508,0.05273 -0.0323,-0.765402 -0.0424,-1.536691 -0.0371,-2.314453 0.0842,-0.0032 0.18059,-0.01174 0.25781,-0.0098 z"
       transform="translate(-118.49109,-0.96888)" />
  </g>
</svg>
