<?xml version="1.0" encoding="UTF-8" standalone="no"?>
<svg
   width="43.546024"
   height="55.538212"
   version="1.1"
   viewBox="0 0 11.521325 14.694196"
   id="svg3"
   xmlns:xlink="http://www.w3.org/1999/xlink"
   xmlns="http://www.w3.org/2000/svg"
   xmlns:svg="http://www.w3.org/2000/svg">
  <defs
     id="defs3">
    <linearGradient
       id="linearGradient4">
      <stop
         style="stop-color:#00abff;stop-opacity:0;"
         offset="0"
         id="stop5" />
      <stop
         style="stop-color:#00abff;stop-opacity:1;"
         offset="1"
         id="stop4" />
    </linearGradient>
    <linearGradient
       xlink:href="#linearGradient4"
       id="linearGradient5"
       x1="150.26048"
       y1="64.998032"
       x2="150.26048"
       y2="21.983847"
       gradientUnits="userSpaceOnUse" />
    <filter
       style="color-interpolation-filters:sRGB"
       id="filter5"
       x="-0.030947895"
       y="-0.023945385"
       width="1.0618958"
       height="1.0478908">
      <feGaussianBlur
         stdDeviation="0.52879019"
         id="feGaussianBlur5" />
    </filter>
  </defs>
  <g
     id="g5"
     transform="translate(-2.7063317,-1.252208)">
    <path
       id="path1"
       style="display:inline;opacity:0.6;fill:#00abff;fill-opacity:1;stroke:none;filter:url(#filter5)"
       d="m 151.80487,7.0003988 -0.004,0.00195 -19.35338,0.00391 c -1.35355,0 -2.45701,1.1084419 -2.45701,2.4648263 V 57.533244 c 0,1.356386 1.10341,2.466779 2.45701,2.466779 h 36.0935 c 1.35354,0 2.45701,-1.110394 2.45701,-2.466779 V 26.183857 c 0,-0.440775 -0.10327,-0.93783 -0.29297,-1.464834 h 0.0606 l -0.35547,-0.722651 c -0.0256,-0.05172 -0.0587,-0.104196 -0.0859,-0.156249 l -0.0606,-0.124999 h -0.008 c -0.33862,-0.618179 -0.78849,-1.252809 -1.38476,-1.849596 l -0.002,-0.002 -12.60343,-12.7108477 c -0.59286,-0.7367819 -1.25379,-1.2334398 -1.89842,-1.5585827 -0.0858,-0.043269 -0.17088,-0.083655 -0.25586,-0.1210929 l -0.0859,-0.037109 -0.0312,-0.00195 C 153.20973,7.101048 152.46897,7.0003988 151.91033,7.0003988 Z m 0.11523,1.001946 c 0.37972,7.572e-4 0.91294,0.1248382 1.44725,0.3105447 V 22.248338 c 0,1.22231 0.89865,2.235567 2.0664,2.425764 0.12737,0.02381 0.25738,0.03748 0.39062,0.04101 0.0222,5.89e-4 0.0441,0.0039 0.0664,0.0039 h 13.69327 c 0.23563,0.562366 0.41406,1.117879 0.41406,1.464834 v 31.349387 c 0,0.822556 -0.64277,1.466786 -1.45702,1.466786 h -36.0935 c -0.81435,0 -1.45702,-0.644172 -1.45702,-1.466786 V 9.4710844 c 0,-0.8225555 0.64276,-1.4667865 1.45702,-1.4667865 z m 2.47068,0.9238216 c 0.38082,0.2545631 0.76637,0.4323933 1.12695,0.8886655 l 0.0176,0.021484 12.62686,12.7342851 c 0.37193,0.371985 0.57527,0.75942 0.82812,1.144523 h -13.16592 c -0.0603,0 -0.11757,-0.01071 -0.17578,-0.01758 -0.72125,-0.113118 -1.2578,-0.723296 -1.25781,-1.480458 z M 135.79326,26.539323 a 0.44758425,0.44758425 0 0 0 -0.16992,0.738276 l 14.79286,14.794817 a 0.44758425,0.44758425 0 0 0 0.76758,-0.318357 v -9.462824 a 0.44758425,0.44758425 0 0 0 -0.29492,-0.421872 l -14.80068,-5.33004 a 0.44758425,0.44758425 0 0 0 -0.29492,0 z m 1.87499,1.521473 12.61514,4.546843 v 8.062443 z m 17.1112,5.624961 a 0.44758425,0.44758425 0 0 0 -0.18359,0.857415 l 10.25969,4.613249 a 0.44758425,0.44758425 0 0 0 0.5918,-0.605465 l -2.25975,-4.613248 a 0.44758425,0.44758425 0 0 0 -0.40625,-0.251951 z m 2.08983,0.892571 h 5.63082 l 1.59569,3.248024 z m -4.27536,0.324217 a 0.44758425,0.44758425 0 0 0 -0.33984,0.429684 v 8.599549 a 0.44758425,0.44758425 0 0 0 0.7539,0.324216 l 6.17183,-5.794881 a 0.44758425,0.44758425 0 0 0 -0.12695,-0.730463 l -6.16988,-2.804668 a 0.44758425,0.44758425 0 0 0 -0.28906,-0.02344 z m 0.55469,1.123039 4.9316,2.244124 -4.9316,4.628874 z m -4.93161,5.802693 a 0.44758425,0.44758425 0 0 0 -0.32422,0.236326 l -6.83588,12.904206 a 0.44758425,0.44758425 0 0 0 0.71483,0.523434 l 9.914,-9.921805 a 0.44758425,0.44758425 0 0 0 0,-0.634761 l -3.08397,-2.982401 A 0.44758425,0.44758425 0 0 0 148.217,41.828277 Z m 0.19141,1.181632 2.32615,2.257797 -7.49213,7.486275 z"
       transform="matrix(0.26458,0,0,0.26458,-31.350772,-0.26418)" />
    <path
       id="path4"
       style="fill:url(#linearGradient5);fill-opacity:1;stroke:none"
       d="m 151.80487,7.0003988 -0.004,0.00195 -19.35338,0.00391 c -1.35355,0 -2.45701,1.1084419 -2.45701,2.4648263 V 57.533244 c 0,1.356386 1.10341,2.466779 2.45701,2.466779 h 36.0935 c 1.35354,0 2.45701,-1.110394 2.45701,-2.466779 V 26.183857 c 0,-0.440775 -0.10327,-0.93783 -0.29297,-1.464834 h 0.0606 l -0.35547,-0.722651 c -0.0256,-0.05172 -0.0587,-0.104196 -0.0859,-0.156249 l -0.0606,-0.124999 h -0.008 c -0.33862,-0.618179 -0.78849,-1.252809 -1.38476,-1.849596 l -0.002,-0.002 -12.60343,-12.7108477 c -0.59286,-0.7367819 -1.25379,-1.2334398 -1.89842,-1.5585827 -0.0858,-0.043269 -0.17088,-0.083655 -0.25586,-0.1210929 l -0.0859,-0.037109 -0.0312,-0.00195 C 153.20973,7.101048 152.46897,7.0003988 151.91033,7.0003988 Z m 0.11523,1.001946 c 0.37972,7.572e-4 0.91294,0.1248382 1.44725,0.3105447 V 22.248338 c 0,1.22231 0.89865,2.235567 2.0664,2.425764 0.12737,0.02381 0.25738,0.03748 0.39062,0.04101 0.0222,5.89e-4 0.0441,0.0039 0.0664,0.0039 h 13.69327 c 0.23563,0.562366 0.41406,1.117879 0.41406,1.464834 v 31.349387 c 0,0.822556 -0.64277,1.466786 -1.45702,1.466786 h -36.0935 c -0.81435,0 -1.45702,-0.644172 -1.45702,-1.466786 V 9.4710844 c 0,-0.8225555 0.64276,-1.4667865 1.45702,-1.4667865 z m 2.47068,0.9238216 c 0.38082,0.2545631 0.76637,0.4323933 1.12695,0.8886655 l 0.0176,0.021484 12.62686,12.7342851 c 0.37193,0.371985 0.57527,0.75942 0.82812,1.144523 h -13.16592 c -0.0603,0 -0.11757,-0.01071 -0.17578,-0.01758 -0.72125,-0.113118 -1.2578,-0.723296 -1.25781,-1.480458 z M 135.79326,26.539323 a 0.44758425,0.44758425 0 0 0 -0.16992,0.738276 l 14.79286,14.794817 a 0.44758425,0.44758425 0 0 0 0.76758,-0.318357 v -9.462824 a 0.44758425,0.44758425 0 0 0 -0.29492,-0.421872 l -14.80068,-5.33004 a 0.44758425,0.44758425 0 0 0 -0.29492,0 z m 1.87499,1.521473 12.61514,4.546843 v 8.062443 z m 17.1112,5.624961 a 0.44758425,0.44758425 0 0 0 -0.18359,0.857415 l 10.25969,4.613249 a 0.44758425,0.44758425 0 0 0 0.5918,-0.605465 l -2.25975,-4.613248 a 0.44758425,0.44758425 0 0 0 -0.40625,-0.251951 z m 2.08983,0.892571 h 5.63082 l 1.59569,3.248024 z m -4.27536,0.324217 a 0.44758425,0.44758425 0 0 0 -0.33984,0.429684 v 8.599549 a 0.44758425,0.44758425 0 0 0 0.7539,0.324216 l 6.17183,-5.794881 a 0.44758425,0.44758425 0 0 0 -0.12695,-0.730463 l -6.16988,-2.804668 a 0.44758425,0.44758425 0 0 0 -0.28906,-0.02344 z m 0.55469,1.123039 4.9316,2.244124 -4.9316,4.628874 z m -4.93161,5.802693 a 0.44758425,0.44758425 0 0 0 -0.32422,0.236326 l -6.83588,12.904206 a 0.44758425,0.44758425 0 0 0 0.71483,0.523434 l 9.914,-9.921805 a 0.44758425,0.44758425 0 0 0 0,-0.634761 l -3.08397,-2.982401 A 0.44758425,0.44758425 0 0 0 148.217,41.828277 Z m 0.19141,1.181632 2.32615,2.257797 -7.49213,7.486275 z"
       transform="matrix(0.26458,0,0,0.26458,-31.350772,-0.26418)" />
  </g>
</svg>
