<?xml version="1.0" encoding="UTF-8" standalone="no"?>
<svg
   width="43.546024"
   height="55.538212"
   version="1.1"
   viewBox="0 0 43.546024 55.538212"
   id="svg3"
   xmlns:xlink="http://www.w3.org/1999/xlink"
   xmlns="http://www.w3.org/2000/svg"
   xmlns:svg="http://www.w3.org/2000/svg">
  <defs
     id="defs3">
    <linearGradient
       id="linearGradient43">
      <stop
         style="stop-color:#039bfc;stop-opacity:0;"
         offset="0"
         id="stop44" />
      <stop
         style="stop-color:#039bfc;stop-opacity:1;"
         offset="1"
         id="stop43" />
    </linearGradient>
    <linearGradient
       xlink:href="#linearGradient43"
       id="linearGradient44"
       x1="150.38136"
       y1="65.000099"
       x2="150.38136"
       y2="24.188505"
       gradientUnits="userSpaceOnUse" />
    <filter
       style="color-interpolation-filters:sRGB"
       id="filter44"
       x="-0.030947896"
       y="-0.023945386"
       width="1.0618958"
       height="1.0478908">
      <feGaussianBlur
         stdDeviation="0.52879393"
         id="feGaussianBlur44" />
    </filter>
  </defs>
  <g
     id="g44"
     transform="translate(-10.222995,-4.7308946)">
    <path
       id="path1"
       style="display:inline;opacity:0.6;fill:#039bfc;filter:url(#filter44)"
       d="m 151.80394,7.0001 -0.004,0.00195 -19.35351,0.00391 c -1.35355,0 -2.45703,1.1084593 -2.45703,2.4648437 V 57.533303 c 0,1.356386 1.10343,2.466797 2.45703,2.466797 h 36.09375 c 1.35354,0 2.45703,-1.110412 2.45703,-2.466797 V 26.183694 c 0,-0.440775 -0.10327,-0.93784 -0.29297,-1.464844 h 0.0606 l -0.35547,-0.722656 c -0.0256,-0.05172 -0.0587,-0.104197 -0.0859,-0.15625 l -0.0605,-0.125 h -0.008 c -0.33862,-0.618179 -0.7885,-1.252822 -1.38476,-1.84961 l -0.002,-0.002 L 156.26488,9.1524437 C 155.67159,8.4151755 155.0115,7.918962 154.36644,7.59385 154.28114,7.550863 154.19507,7.50998 154.11058,7.4727562 l -0.0859,-0.037109 -0.0312,-0.00195 C 153.20882,7.1007523 152.46804,7.0001 151.90941,7.0001 Z m 0.11523,1.0019531 c 0.37972,7.572e-4 0.91296,0.1248404 1.44727,0.3105469 v 13.935547 c 0,1.22231 0.89866,2.235584 2.06641,2.425781 0.12731,0.02382 0.25744,0.03746 0.39062,0.04102 0.0224,5.98e-4 0.0439,0.0039 0.0664,0.0039 h 13.69336 c 0.23563,0.562366 0.41406,1.117889 0.41406,1.464844 v 31.349609 c 0,0.822556 -0.64278,1.466797 -1.45703,1.466797 h -36.09375 c -0.81435,0 -1.45703,-0.644183 -1.45703,-1.466797 V 9.4708031 c 0,-0.8225555 0.64277,-1.4667967 1.45703,-1.4667969 z m 2.47071,0.9238281 c 0.38082,0.2545633 0.76637,0.4323997 1.12695,0.8886719 l 0.0176,0.021484 12.62695,12.7343749 c 0.37192,0.371984 0.57528,0.75943 0.82813,1.144532 h -13.16602 c -0.0687,0 -0.13319,-0.01063 -0.19922,-0.01953 -0.70854,-0.123274 -1.23436,-0.730184 -1.23437,-1.478515 z M 150.4973,28.986428 c -7.03547,0 -12.73828,1.553681 -12.73828,3.472656 v 11.582032 a 12.73912,3.4743055 0 0 0 1.1582,1.4375 12.73912,3.4743055 0 0 0 0.0117,0.0078 12.73912,3.4743055 0 0 0 0.55273,0.291016 12.73912,3.4743055 0 0 0 0.0371,0.01563 12.73912,3.4743055 0 0 0 0.63672,0.269531 12.73912,3.4743055 0 0 0 0.0742,0.02734 12.73912,3.4743055 0 0 0 0.6836,0.232422 12.73912,3.4743055 0 0 0 0.15429,0.04883 12.73912,3.4743055 0 0 0 0.75196,0.207031 12.73912,3.4743055 0 0 0 0.11718,0.0293 12.73912,3.4743055 0 0 0 0.89453,0.205078 12.73912,3.4743055 0 0 0 0.0606,0.0098 12.73912,3.4743055 0 0 0 0.94336,0.175781 12.73912,3.4743055 0 0 0 0.16211,0.02539 12.73912,3.4743055 0 0 0 0.90234,0.134765 12.73912,3.4743055 0 0 0 0.25586,0.0332 12.73912,3.4743055 0 0 0 0.85157,0.0957 12.73912,3.4743055 0 0 0 0.42578,0.04297 12.73912,3.4743055 0 0 0 0.62304,0.05078 12.73912,3.4743055 0 0 0 0.68555,0.04883 12.73912,3.4743055 0 0 0 0.56836,0.0293 12.73912,3.4743055 0 0 0 0.66797,0.02734 12.73912,3.4743055 0 0 0 0.53515,0.01563 12.73912,3.4743055 0 0 0 0.98438,0.01367 12.73912,3.4743055 0 0 0 1.11133,-0.01563 12.73912,3.4743055 0 0 0 0.47851,-0.01563 12.73912,3.4743055 0 0 0 0.83008,-0.03516 12.73912,3.4743055 0 0 0 0.40039,-0.02539 12.73912,3.4743055 0 0 0 0.81836,-0.05664 12.73912,3.4743055 0 0 0 0.36914,-0.0332 12.73912,3.4743055 0 0 0 0.88867,-0.08789 12.73912,3.4743055 0 0 0 0.20899,-0.02539 12.73912,3.4743055 0 0 0 0.93555,-0.123047 12.73912,3.4743055 0 0 0 0.24609,-0.04101 12.73912,3.4743055 0 0 0 0.78516,-0.128907 12.73912,3.4743055 0 0 0 0.36328,-0.07031 12.73912,3.4743055 0 0 0 0.68945,-0.144531 12.73912,3.4743055 0 0 0 0.22656,-0.05469 12.73912,3.4743055 0 0 0 0.76563,-0.195312 12.73912,3.4743055 0 0 0 0.0156,-0.0039 12.73912,3.4743055 0 0 0 0.0273,-0.0098 12.73912,3.4743055 0 0 0 0.8125,-0.251953 12.73912,3.4743055 0 0 0 0.73828,-0.283203 12.73912,3.4743055 0 0 0 0.002,0 12.73912,3.4743055 0 0 0 0.006,-0.002 12.73912,3.4743055 0 0 0 0.62109,-0.294921 12.73912,3.4743055 0 0 0 0.006,-0.0039 12.73912,3.4743055 0 0 0 0.23438,-0.132812 12.73912,3.4743055 0 0 0 1.1582,-1.439453 V 32.459084 c 0,-1.918974 -5.70281,-3.472656 -12.73828,-3.472656 z m 0,18.529297 h -1.1582 v 3.474609 h 1.1582 v 1.158204 h -9.26563 v -1.158204 h -3.47265 v 3.472657 h 3.47265 v -1.158203 h 18.53125 v 1.158203 h 3.47266 v -3.472657 h -3.47266 v 1.158204 h -8.10742 v -1.158204 h 1.15821 v -3.474609 z m 0,-17.371094 c 6.3962,0 11.58008,1.034751 11.58008,2.314453 0,1.279703 -5.18388,2.316407 -11.58008,2.316407 -6.3962,0 -11.58008,-1.036704 -11.58008,-2.316407 0,-1.279702 5.18388,-2.314453 11.58008,-2.314453 z m -11.58008,3.753907 c 2.06606,1.238011 6.59098,2.03284 11.58008,2.035156 4.9891,-0.0012 9.51402,-0.795987 11.58008,-2.035156 V 38.2501 c 0,1.279702 -5.18388,2.316406 -11.58008,2.316406 -6.3962,0 -11.58008,-1.036704 -11.58008,-2.316406 z m 0,5.791015 c 2.06606,1.238011 6.59098,2.03284 11.58008,2.035156 4.9891,-0.0012 9.51402,-0.795987 11.58008,-2.035156 v 4.351563 a 11.581018,2.3162037 0 0 1 -11.58008,2.316406 11.581018,2.3162037 0 0 1 -11.58008,-2.316406 v -2.316407 z m 11.58008,8.984375 h 1.1582 v 1.158203 h -1.1582 z m -11.58008,3.47461 h 1.15625 v 1.15625 h -1.15625 z m 22.00391,0 h 1.15625 v 1.15625 h -1.15625 z"
       transform="translate(-118.4973,-1.0001)" />
    <path
       id="path43"
       style="fill:url(#linearGradient44);fill-opacity:1"
       d="m 151.80394,7.0001 -0.004,0.00195 -19.35351,0.00391 c -1.35355,0 -2.45703,1.1084593 -2.45703,2.4648437 V 57.533303 c 0,1.356386 1.10343,2.466797 2.45703,2.466797 h 36.09375 c 1.35354,0 2.45703,-1.110412 2.45703,-2.466797 V 26.183694 c 0,-0.440775 -0.10327,-0.93784 -0.29297,-1.464844 h 0.0606 l -0.35547,-0.722656 c -0.0256,-0.05172 -0.0587,-0.104197 -0.0859,-0.15625 l -0.0605,-0.125 h -0.008 c -0.33862,-0.618179 -0.7885,-1.252822 -1.38476,-1.84961 l -0.002,-0.002 L 156.26488,9.1524437 C 155.67159,8.4151755 155.0115,7.918962 154.36644,7.59385 154.28114,7.550863 154.19507,7.50998 154.11058,7.4727562 l -0.0859,-0.037109 -0.0312,-0.00195 C 153.20882,7.1007523 152.46804,7.0001 151.90941,7.0001 Z m 0.11523,1.0019531 c 0.37972,7.572e-4 0.91296,0.1248404 1.44727,0.3105469 v 13.935547 c 0,1.22231 0.89866,2.235584 2.06641,2.425781 0.12731,0.02382 0.25744,0.03746 0.39062,0.04102 0.0224,5.98e-4 0.0439,0.0039 0.0664,0.0039 h 13.69336 c 0.23563,0.562366 0.41406,1.117889 0.41406,1.464844 v 31.349609 c 0,0.822556 -0.64278,1.466797 -1.45703,1.466797 h -36.09375 c -0.81435,0 -1.45703,-0.644183 -1.45703,-1.466797 V 9.4708031 c 0,-0.8225555 0.64277,-1.4667967 1.45703,-1.4667969 z m 2.47071,0.9238281 c 0.38082,0.2545633 0.76637,0.4323997 1.12695,0.8886719 l 0.0176,0.021484 12.62695,12.7343749 c 0.37192,0.371984 0.57528,0.75943 0.82813,1.144532 h -13.16602 c -0.0687,0 -0.13319,-0.01063 -0.19922,-0.01953 -0.70854,-0.123274 -1.23436,-0.730184 -1.23437,-1.478515 z M 150.4973,28.986428 c -7.03547,0 -12.73828,1.553681 -12.73828,3.472656 v 11.582032 a 12.73912,3.4743055 0 0 0 1.1582,1.4375 12.73912,3.4743055 0 0 0 0.0117,0.0078 12.73912,3.4743055 0 0 0 0.55273,0.291016 12.73912,3.4743055 0 0 0 0.0371,0.01563 12.73912,3.4743055 0 0 0 0.63672,0.269531 12.73912,3.4743055 0 0 0 0.0742,0.02734 12.73912,3.4743055 0 0 0 0.6836,0.232422 12.73912,3.4743055 0 0 0 0.15429,0.04883 12.73912,3.4743055 0 0 0 0.75196,0.207031 12.73912,3.4743055 0 0 0 0.11718,0.0293 12.73912,3.4743055 0 0 0 0.89453,0.205078 12.73912,3.4743055 0 0 0 0.0606,0.0098 12.73912,3.4743055 0 0 0 0.94336,0.175781 12.73912,3.4743055 0 0 0 0.16211,0.02539 12.73912,3.4743055 0 0 0 0.90234,0.134765 12.73912,3.4743055 0 0 0 0.25586,0.0332 12.73912,3.4743055 0 0 0 0.85157,0.0957 12.73912,3.4743055 0 0 0 0.42578,0.04297 12.73912,3.4743055 0 0 0 0.62304,0.05078 12.73912,3.4743055 0 0 0 0.68555,0.04883 12.73912,3.4743055 0 0 0 0.56836,0.0293 12.73912,3.4743055 0 0 0 0.66797,0.02734 12.73912,3.4743055 0 0 0 0.53515,0.01563 12.73912,3.4743055 0 0 0 0.98438,0.01367 12.73912,3.4743055 0 0 0 1.11133,-0.01563 12.73912,3.4743055 0 0 0 0.47851,-0.01563 12.73912,3.4743055 0 0 0 0.83008,-0.03516 12.73912,3.4743055 0 0 0 0.40039,-0.02539 12.73912,3.4743055 0 0 0 0.81836,-0.05664 12.73912,3.4743055 0 0 0 0.36914,-0.0332 12.73912,3.4743055 0 0 0 0.88867,-0.08789 12.73912,3.4743055 0 0 0 0.20899,-0.02539 12.73912,3.4743055 0 0 0 0.93555,-0.123047 12.73912,3.4743055 0 0 0 0.24609,-0.04101 12.73912,3.4743055 0 0 0 0.78516,-0.128907 12.73912,3.4743055 0 0 0 0.36328,-0.07031 12.73912,3.4743055 0 0 0 0.68945,-0.144531 12.73912,3.4743055 0 0 0 0.22656,-0.05469 12.73912,3.4743055 0 0 0 0.76563,-0.195312 12.73912,3.4743055 0 0 0 0.0156,-0.0039 12.73912,3.4743055 0 0 0 0.0273,-0.0098 12.73912,3.4743055 0 0 0 0.8125,-0.251953 12.73912,3.4743055 0 0 0 0.73828,-0.283203 12.73912,3.4743055 0 0 0 0.002,0 12.73912,3.4743055 0 0 0 0.006,-0.002 12.73912,3.4743055 0 0 0 0.62109,-0.294921 12.73912,3.4743055 0 0 0 0.006,-0.0039 12.73912,3.4743055 0 0 0 0.23438,-0.132812 12.73912,3.4743055 0 0 0 1.1582,-1.439453 V 32.459084 c 0,-1.918974 -5.70281,-3.472656 -12.73828,-3.472656 z m 0,18.529297 h -1.1582 v 3.474609 h 1.1582 v 1.158204 h -9.26563 v -1.158204 h -3.47265 v 3.472657 h 3.47265 v -1.158203 h 18.53125 v 1.158203 h 3.47266 v -3.472657 h -3.47266 v 1.158204 h -8.10742 v -1.158204 h 1.15821 v -3.474609 z m 0,-17.371094 c 6.3962,0 11.58008,1.034751 11.58008,2.314453 0,1.279703 -5.18388,2.316407 -11.58008,2.316407 -6.3962,0 -11.58008,-1.036704 -11.58008,-2.316407 0,-1.279702 5.18388,-2.314453 11.58008,-2.314453 z m -11.58008,3.753907 c 2.06606,1.238011 6.59098,2.03284 11.58008,2.035156 4.9891,-0.0012 9.51402,-0.795987 11.58008,-2.035156 V 38.2501 c 0,1.279702 -5.18388,2.316406 -11.58008,2.316406 -6.3962,0 -11.58008,-1.036704 -11.58008,-2.316406 z m 0,5.791015 c 2.06606,1.238011 6.59098,2.03284 11.58008,2.035156 4.9891,-0.0012 9.51402,-0.795987 11.58008,-2.035156 v 4.351563 a 11.581018,2.3162037 0 0 1 -11.58008,2.316406 11.581018,2.3162037 0 0 1 -11.58008,-2.316406 v -2.316407 z m 11.58008,8.984375 h 1.1582 v 1.158203 h -1.1582 z m -11.58008,3.47461 h 1.15625 v 1.15625 h -1.15625 z m 22.00391,0 h 1.15625 v 1.15625 h -1.15625 z"
       transform="translate(-118.4973,-1.0001)" />
  </g>
</svg>
