<?xml version="1.0" encoding="UTF-8" standalone="no"?>
<svg
   width="43.546024"
   height="55.538212"
   version="1.1"
   viewBox="0 0 43.546024 55.538212"
   id="svg3"
   xmlns:xlink="http://www.w3.org/1999/xlink"
   xmlns="http://www.w3.org/2000/svg"
   xmlns:svg="http://www.w3.org/2000/svg">
  <defs
     id="defs3">
    <linearGradient
       id="linearGradient27">
      <stop
         style="stop-color:#039bfc;stop-opacity:0;"
         offset="0"
         id="stop28" />
      <stop
         style="stop-color:#039bfc;stop-opacity:1;"
         offset="1"
         id="stop27" />
    </linearGradient>
    <linearGradient
       xlink:href="#linearGradient27"
       id="linearGradient28"
       x1="149.6857"
       y1="65.000099"
       x2="149.6857"
       y2="24.072563"
       gradientUnits="userSpaceOnUse" />
    <filter
       style="color-interpolation-filters:sRGB"
       id="filter28"
       x="-0.030947896"
       y="-0.023945386"
       width="1.0618958"
       height="1.0478908">
      <feGaussianBlur
         stdDeviation="0.52879393"
         id="feGaussianBlur28" />
    </filter>
  </defs>
  <g
     id="g28"
     transform="translate(-10.222995,-4.7308946)">
    <path
       id="path1"
       style="display:inline;opacity:0.6;fill:#039bfc;filter:url(#filter28)"
       d="m 151.80394,7.0001 -0.004,0.00195 -19.35351,0.00391 c -1.35355,0 -2.45703,1.1084593 -2.45703,2.4648437 V 57.533303 c 0,1.356386 1.10343,2.466797 2.45703,2.466797 h 36.09375 c 1.35354,0 2.45703,-1.110412 2.45703,-2.466797 V 26.183694 c 0,-0.440775 -0.10327,-0.93784 -0.29297,-1.464844 h 0.0606 l -0.35547,-0.722656 c -0.0256,-0.05172 -0.0587,-0.104197 -0.0859,-0.15625 l -0.0605,-0.125 h -0.008 c -0.33862,-0.618179 -0.7885,-1.252822 -1.38476,-1.84961 l -0.002,-0.002 L 156.26488,9.1524437 C 155.67159,8.4151755 155.0115,7.918962 154.36644,7.59385 154.28114,7.550863 154.19507,7.50998 154.11058,7.4727562 l -0.0859,-0.037109 -0.0312,-0.00195 C 153.20882,7.1007523 152.46804,7.0001 151.90941,7.0001 Z m 0.11523,1.0019531 c 0.37972,7.572e-4 0.91296,0.1248404 1.44727,0.3105469 v 13.935547 c 0,1.22231 0.89866,2.235584 2.06641,2.425781 0.12731,0.02382 0.25744,0.03746 0.39062,0.04102 0.0224,5.98e-4 0.0439,0.0039 0.0664,0.0039 h 13.69336 c 0.23563,0.562366 0.41406,1.117889 0.41406,1.464844 v 31.349609 c 0,0.822556 -0.64278,1.466797 -1.45703,1.466797 h -36.09375 c -0.81435,0 -1.45703,-0.644183 -1.45703,-1.466797 V 9.4708031 c 0,-0.8225555 0.64277,-1.4667967 1.45703,-1.4667969 z m 2.47071,0.9238281 c 0.38082,0.2545633 0.76637,0.4323997 1.12695,0.8886719 l 0.0176,0.021484 12.62695,12.7343749 c 0.37192,0.371984 0.57528,0.75943 0.82813,1.144532 h -13.16602 c -0.0687,0 -0.13319,-0.01063 -0.19922,-0.01953 -0.70854,-0.123274 -1.23436,-0.730184 -1.23437,-1.478515 z M 150.4973,28.0001 a 8,3.0000005 0 0 0 -8,3 v 10 a 8,3.0000005 0 0 0 8,3 8,3.0000005 0 0 0 8,-3 v -10 a 8,3.0000005 0 0 0 -8,-3 z m 0,1 a 7,2 0 0 1 7,2 7,2 0 0 1 -7,2 7,2 0 0 1 -7,-2 7,2 0 0 1 7,-2 z m 7,3.445313 V 36.0001 a 7,2 0 0 1 -7,2 7,2 0 0 1 -7,-2 v -3.548828 a 8,3.0000005 0 0 0 7,1.548828 8,3.0000005 0 0 0 7,-1.554687 z m 0,5 V 41.0001 a 7,2 0 0 1 -7,2 7,2 0 0 1 -7,-2 v -3.548828 a 8,3.0000005 0 0 0 7,1.548828 8,3.0000005 0 0 0 7,-1.554687 z m -10.16797,11.759765 c -0.30505,4.05e-4 -0.67245,0.001 -0.92187,0.0039 -0.0656,0.0012 -0.1431,0.05802 -0.19532,0.109375 -0.5837,0.573353 -1.74414,1.726563 -1.74414,1.726563 l -4.63281,4.628906 c 0,0 1.40068,-0.0062 2.01172,0.002 0.1352,0.0064 0.26631,-0.04835 0.35742,-0.148437 1.31074,-1.312155 4.05469,-4.058594 4.05469,-4.058594 v 4.207031 h 1.61914 v -6.470703 c 0,0 -0.24378,-4.05e-4 -0.54883,0 z m 2.16602,0 v 6.462891 l 1.61718,0.0078 v -4.271484 l 2.41211,2.162109 c 0,0 1.69697,-1.439017 2.45118,-2.162109 v 4.279297 l 1.60742,-0.0078 v -6.470703 c -0.34318,0 -1.09686,0.01386 -1.42578,0.0078 -0.11487,-0.0065 -0.22849,0.03882 -0.30469,0.125 -0.52037,0.526055 -2.32227,2.044921 -2.32227,2.044922 0,0 -1.69,-1.425362 -2.33398,-2.064454 -0.0432,-0.04279 -0.10157,-0.09961 -0.1543,-0.09961 -0.42905,-0.0066 -1.54687,-0.01367 -1.54687,-0.01367 z m 9.70507,0 v 6.470703 h 6.07422 c -0.0498,-0.05668 -0.0822,-0.09974 -0.12109,-0.138672 -0.31062,-0.311063 -0.62229,-0.632958 -0.92773,-0.949218 -0.0824,-0.08983 -0.2006,-0.136652 -0.32227,-0.128907 -0.97203,0.0052 -3.08398,0.0039 -3.08398,0.0039 v -5.257813 z m -23.48046,0.002 3.36718,3.361328 -3.08593,3.109375 c 0,0 1.19383,-0.0012 1.66992,-0.002 0.14161,0.0085 0.27908,-0.04783 0.375,-0.152343 0.93794,-0.939741 1.88371,-1.871967 2.82422,-2.808594 1.04483,-1.041595 3.51172,-3.507813 3.51172,-3.507813 0,0 -1.3641,-1.62e-4 -1.70313,0 -0.17328,-0.0035 -0.29033,0.05076 -0.41016,0.171875 -0.7314,0.737852 -1.47001,1.469992 -2.21484,2.210938 -0.0578,-0.05388 -0.11059,-0.10082 -0.16016,-0.150391 -0.70169,-0.699513 -1.40307,-1.397492 -2.09961,-2.103515 -0.0815,-0.0891 -0.19978,-0.136227 -0.32031,-0.128907 -0.44088,-0.0014 -1.7539,0 -1.7539,0 z"
       transform="translate(-118.4973,-1.0001)" />
    <path
       id="path27"
       style="fill:url(#linearGradient28);fill-opacity:1"
       d="m 151.80394,7.0001 -0.004,0.00195 -19.35351,0.00391 c -1.35355,0 -2.45703,1.1084593 -2.45703,2.4648437 V 57.533303 c 0,1.356386 1.10343,2.466797 2.45703,2.466797 h 36.09375 c 1.35354,0 2.45703,-1.110412 2.45703,-2.466797 V 26.183694 c 0,-0.440775 -0.10327,-0.93784 -0.29297,-1.464844 h 0.0606 l -0.35547,-0.722656 c -0.0256,-0.05172 -0.0587,-0.104197 -0.0859,-0.15625 l -0.0605,-0.125 h -0.008 c -0.33862,-0.618179 -0.7885,-1.252822 -1.38476,-1.84961 l -0.002,-0.002 L 156.26488,9.1524437 C 155.67159,8.4151755 155.0115,7.918962 154.36644,7.59385 154.28114,7.550863 154.19507,7.50998 154.11058,7.4727562 l -0.0859,-0.037109 -0.0312,-0.00195 C 153.20882,7.1007523 152.46804,7.0001 151.90941,7.0001 Z m 0.11523,1.0019531 c 0.37972,7.572e-4 0.91296,0.1248404 1.44727,0.3105469 v 13.935547 c 0,1.22231 0.89866,2.235584 2.06641,2.425781 0.12731,0.02382 0.25744,0.03746 0.39062,0.04102 0.0224,5.98e-4 0.0439,0.0039 0.0664,0.0039 h 13.69336 c 0.23563,0.562366 0.41406,1.117889 0.41406,1.464844 v 31.349609 c 0,0.822556 -0.64278,1.466797 -1.45703,1.466797 h -36.09375 c -0.81435,0 -1.45703,-0.644183 -1.45703,-1.466797 V 9.4708031 c 0,-0.8225555 0.64277,-1.4667967 1.45703,-1.4667969 z m 2.47071,0.9238281 c 0.38082,0.2545633 0.76637,0.4323997 1.12695,0.8886719 l 0.0176,0.021484 12.62695,12.7343749 c 0.37192,0.371984 0.57528,0.75943 0.82813,1.144532 h -13.16602 c -0.0687,0 -0.13319,-0.01063 -0.19922,-0.01953 -0.70854,-0.123274 -1.23436,-0.730184 -1.23437,-1.478515 z M 150.4973,28.0001 a 8,3.0000005 0 0 0 -8,3 v 10 a 8,3.0000005 0 0 0 8,3 8,3.0000005 0 0 0 8,-3 v -10 a 8,3.0000005 0 0 0 -8,-3 z m 0,1 a 7,2 0 0 1 7,2 7,2 0 0 1 -7,2 7,2 0 0 1 -7,-2 7,2 0 0 1 7,-2 z m 7,3.445313 V 36.0001 a 7,2 0 0 1 -7,2 7,2 0 0 1 -7,-2 v -3.548828 a 8,3.0000005 0 0 0 7,1.548828 8,3.0000005 0 0 0 7,-1.554687 z m 0,5 V 41.0001 a 7,2 0 0 1 -7,2 7,2 0 0 1 -7,-2 v -3.548828 a 8,3.0000005 0 0 0 7,1.548828 8,3.0000005 0 0 0 7,-1.554687 z m -10.16797,11.759765 c -0.30505,4.05e-4 -0.67245,0.001 -0.92187,0.0039 -0.0656,0.0012 -0.1431,0.05802 -0.19532,0.109375 -0.5837,0.573353 -1.74414,1.726563 -1.74414,1.726563 l -4.63281,4.628906 c 0,0 1.40068,-0.0062 2.01172,0.002 0.1352,0.0064 0.26631,-0.04835 0.35742,-0.148437 1.31074,-1.312155 4.05469,-4.058594 4.05469,-4.058594 v 4.207031 h 1.61914 v -6.470703 c 0,0 -0.24378,-4.05e-4 -0.54883,0 z m 2.16602,0 v 6.462891 l 1.61718,0.0078 v -4.271484 l 2.41211,2.162109 c 0,0 1.69697,-1.439017 2.45118,-2.162109 v 4.279297 l 1.60742,-0.0078 v -6.470703 c -0.34318,0 -1.09686,0.01386 -1.42578,0.0078 -0.11487,-0.0065 -0.22849,0.03882 -0.30469,0.125 -0.52037,0.526055 -2.32227,2.044921 -2.32227,2.044922 0,0 -1.69,-1.425362 -2.33398,-2.064454 -0.0432,-0.04279 -0.10157,-0.09961 -0.1543,-0.09961 -0.42905,-0.0066 -1.54687,-0.01367 -1.54687,-0.01367 z m 9.70507,0 v 6.470703 h 6.07422 c -0.0498,-0.05668 -0.0822,-0.09974 -0.12109,-0.138672 -0.31062,-0.311063 -0.62229,-0.632958 -0.92773,-0.949218 -0.0824,-0.08983 -0.2006,-0.136652 -0.32227,-0.128907 -0.97203,0.0052 -3.08398,0.0039 -3.08398,0.0039 v -5.257813 z m -23.48046,0.002 3.36718,3.361328 -3.08593,3.109375 c 0,0 1.19383,-0.0012 1.66992,-0.002 0.14161,0.0085 0.27908,-0.04783 0.375,-0.152343 0.93794,-0.939741 1.88371,-1.871967 2.82422,-2.808594 1.04483,-1.041595 3.51172,-3.507813 3.51172,-3.507813 0,0 -1.3641,-1.62e-4 -1.70313,0 -0.17328,-0.0035 -0.29033,0.05076 -0.41016,0.171875 -0.7314,0.737852 -1.47001,1.469992 -2.21484,2.210938 -0.0578,-0.05388 -0.11059,-0.10082 -0.16016,-0.150391 -0.70169,-0.699513 -1.40307,-1.397492 -2.09961,-2.103515 -0.0815,-0.0891 -0.19978,-0.136227 -0.32031,-0.128907 -0.44088,-0.0014 -1.7539,0 -1.7539,0 z"
       transform="translate(-118.4973,-1.0001)" />
  </g>
</svg>
