<?xml version="1.0" encoding="UTF-8" standalone="no"?>
<svg
   width="43.546024"
   height="55.538212"
   version="1.1"
   viewBox="0 0 11.521325 14.694196"
   id="svg3"
   xmlns:xlink="http://www.w3.org/1999/xlink"
   xmlns="http://www.w3.org/2000/svg"
   xmlns:svg="http://www.w3.org/2000/svg">
  <defs
     id="defs3">
    <linearGradient
       id="linearGradient4">
      <stop
         style="stop-color:#00abff;stop-opacity:0;"
         offset="0"
         id="stop5" />
      <stop
         style="stop-color:#00abff;stop-opacity:1;"
         offset="1"
         id="stop4" />
    </linearGradient>
    <linearGradient
       xlink:href="#linearGradient4"
       id="linearGradient5"
       x1="150.84213"
       y1="64.999619"
       x2="150.84213"
       y2="27.318729"
       gradientUnits="userSpaceOnUse" />
    <filter
       style="color-interpolation-filters:sRGB"
       id="filter5"
       x="-0.030947895"
       y="-0.023945385"
       width="1.0618958"
       height="1.0478908">
      <feGaussianBlur
         stdDeviation="0.52879018"
         id="feGaussianBlur5" />
    </filter>
  </defs>
  <g
     id="g5"
     transform="translate(-2.7058107,-1.2516912)">
    <path
       id="path1"
       style="display:inline;opacity:0.6;fill:#00abff;fill-opacity:1;stroke:none;filter:url(#filter5)"
       d="m 151.80485,7.0000331 -0.004,0.00195 -19.35338,0.00391 c -1.35355,0 -2.45702,1.1084419 -2.45702,2.4648263 V 57.532878 c 0,1.356386 1.10342,2.466779 2.45702,2.466779 h 36.09349 c 1.35354,0 2.45701,-1.110394 2.45701,-2.466779 V 26.183491 c 0,-0.440775 -0.10326,-0.93783 -0.29296,-1.464833 h 0.0605 l -0.35546,-0.722652 c -0.0256,-0.05172 -0.0587,-0.104195 -0.0859,-0.156249 l -0.0605,-0.124999 h -0.008 c -0.33862,-0.618178 -0.78849,-1.252808 -1.38475,-1.849596 l -0.002,-0.002 L 156.26576,9.1523616 C 155.594,8.3175308 154.83504,7.7914512 154.11148,7.472686 l -0.0859,-0.037109 -0.0312,-0.00195 c -0.78457,-0.3329414 -1.52534,-0.4335906 -2.08397,-0.4335906 z m 0.11524,1.001946 c 0.37972,7.572e-4 0.91294,0.1248382 1.44725,0.3105447 V 22.247972 c 0,1.22231 0.89864,2.235567 2.06639,2.425764 0.14859,0.02778 0.30063,0.04492 0.45703,0.04492 h 13.69326 c 0.23564,0.562369 0.41406,1.117876 0.41406,1.464833 v 31.349387 c 0,0.822556 -0.64277,1.466787 -1.45702,1.466787 h -36.09349 c -0.81435,0 -1.45702,-0.644173 -1.45702,-1.466787 V 9.4707187 c 0,-0.8225555 0.64276,-1.4667865 1.45702,-1.4667865 z m 2.47068,0.9238216 c 0.38082,0.2545631 0.76637,0.4323934 1.12695,0.8886656 l 0.0176,0.021484 12.62687,12.7342847 c 0.37192,0.371983 0.57527,0.759423 0.82812,1.144523 h -13.16593 c -0.0676,0 -0.13226,-0.01091 -0.19726,-0.01953 -0.70977,-0.12231 -1.23631,-0.729322 -1.23632,-1.478505 z m -3.3906,15.0799713 c -0.56702,3e-5 -1.13337,0.215412 -1.56444,0.64648 l -13.28897,13.279202 c -0.86173,0.86173 -0.86149,2.276431 0,3.13865 l 13.28897,13.279203 c 0.86213,0.862136 2.26723,0.862378 3.12888,0 l 13.28897,-13.279203 c 0.86149,-0.862219 0.86173,-2.27692 0,-3.13865 l -2.28123,-2.281233 -12.57218,12.572176 -8.71869,-8.718688 8.71869,-8.724548 2.43553,2.43553 -6.28902,6.283159 3.85349,3.853488 10.13469,-10.136647 -8.57025,-8.562439 c -0.43082,-0.431189 -0.99742,-0.64651 -1.56444,-0.64648 z m 0,0.994134 c 0.31189,3e-5 0.62353,0.121375 0.86327,0.361325 l 7.85542,7.85346 -8.71869,8.718688 -2.43553,-2.435529 6.28121,-6.283159 -3.84568,-3.845676 -10.13469,10.134694 10.13469,10.128834 12.57218,-12.564364 1.57225,1.572255 c 0.47941,0.479415 0.47966,1.240628 0,1.720691 L 151.86344,53.64814 c -0.47949,0.4799 -1.2464,0.480142 -1.72655,0 L 136.85574,40.361125 c -0.47966,-0.480063 -0.47942,-1.241276 0,-1.720691 l 13.28115,-13.279203 c 0.24008,-0.240071 0.55139,-0.361356 0.86328,-0.361325 z"
       transform="matrix(0.26458,0,0,0.26458,-31.351285,-0.26460001)" />
    <path
       id="path4"
       style="fill:url(#linearGradient5);fill-opacity:1;stroke:none"
       d="m 151.80485,7.0000331 -0.004,0.00195 -19.35338,0.00391 c -1.35355,0 -2.45702,1.1084419 -2.45702,2.4648263 V 57.532878 c 0,1.356386 1.10342,2.466779 2.45702,2.466779 h 36.09349 c 1.35354,0 2.45701,-1.110394 2.45701,-2.466779 V 26.183491 c 0,-0.440775 -0.10326,-0.93783 -0.29296,-1.464833 h 0.0605 l -0.35546,-0.722652 c -0.0256,-0.05172 -0.0587,-0.104195 -0.0859,-0.156249 l -0.0605,-0.124999 h -0.008 c -0.33862,-0.618178 -0.78849,-1.252808 -1.38475,-1.849596 l -0.002,-0.002 L 156.26576,9.1523616 C 155.594,8.3175308 154.83504,7.7914512 154.11148,7.472686 l -0.0859,-0.037109 -0.0312,-0.00195 c -0.78457,-0.3329414 -1.52534,-0.4335906 -2.08397,-0.4335906 z m 0.11524,1.001946 c 0.37972,7.572e-4 0.91294,0.1248382 1.44725,0.3105447 V 22.247972 c 0,1.22231 0.89864,2.235567 2.06639,2.425764 0.14859,0.02778 0.30063,0.04492 0.45703,0.04492 h 13.69326 c 0.23564,0.562369 0.41406,1.117876 0.41406,1.464833 v 31.349387 c 0,0.822556 -0.64277,1.466787 -1.45702,1.466787 h -36.09349 c -0.81435,0 -1.45702,-0.644173 -1.45702,-1.466787 V 9.4707187 c 0,-0.8225555 0.64276,-1.4667865 1.45702,-1.4667865 z m 2.47068,0.9238216 c 0.38082,0.2545631 0.76637,0.4323934 1.12695,0.8886656 l 0.0176,0.021484 12.62687,12.7342847 c 0.37192,0.371983 0.57527,0.759423 0.82812,1.144523 h -13.16593 c -0.0676,0 -0.13226,-0.01091 -0.19726,-0.01953 -0.70977,-0.12231 -1.23631,-0.729322 -1.23632,-1.478505 z m -3.3906,15.0799713 c -0.56702,3e-5 -1.13337,0.215412 -1.56444,0.64648 l -13.28897,13.279202 c -0.86173,0.86173 -0.86149,2.276431 0,3.13865 l 13.28897,13.279203 c 0.86213,0.862136 2.26723,0.862378 3.12888,0 l 13.28897,-13.279203 c 0.86149,-0.862219 0.86173,-2.27692 0,-3.13865 l -2.28123,-2.281233 -12.57218,12.572176 -8.71869,-8.718688 8.71869,-8.724548 2.43553,2.43553 -6.28902,6.283159 3.85349,3.853488 10.13469,-10.136647 -8.57025,-8.562439 c -0.43082,-0.431189 -0.99742,-0.64651 -1.56444,-0.64648 z m 0,0.994134 c 0.31189,3e-5 0.62353,0.121375 0.86327,0.361325 l 7.85542,7.85346 -8.71869,8.718688 -2.43553,-2.435529 6.28121,-6.283159 -3.84568,-3.845676 -10.13469,10.134694 10.13469,10.128834 12.57218,-12.564364 1.57225,1.572255 c 0.47941,0.479415 0.47966,1.240628 0,1.720691 L 151.86344,53.64814 c -0.47949,0.4799 -1.2464,0.480142 -1.72655,0 L 136.85574,40.361125 c -0.47966,-0.480063 -0.47942,-1.241276 0,-1.720691 l 13.28115,-13.279203 c 0.24008,-0.240071 0.55139,-0.361356 0.86328,-0.361325 z"
       transform="matrix(0.26458,0,0,0.26458,-31.351285,-0.26460001)" />
  </g>
</svg>
