<?xml version="1.0" encoding="UTF-8" standalone="no"?>
<svg
   width="43.546024"
   height="55.538212"
   version="1.1"
   id="svg7"
   xmlns:xlink="http://www.w3.org/1999/xlink"
   xmlns="http://www.w3.org/2000/svg"
   xmlns:svg="http://www.w3.org/2000/svg">
  <defs
     id="defs7">
    <linearGradient
       id="linearGradient8">
      <stop
         style="stop-color:#00abff;stop-opacity:0;"
         offset="0"
         id="stop9" />
      <stop
         style="stop-color:#00abff;stop-opacity:1;"
         offset="1"
         id="stop8" />
    </linearGradient>
    <linearGradient
       xlink:href="#linearGradient8"
       id="linearGradient9"
       x1="150.84383"
       y1="65.000099"
       x2="150.84383"
       y2="25.463867"
       gradientUnits="userSpaceOnUse" />
    <filter
       style="color-interpolation-filters:sRGB"
       id="filter9"
       x="-0.030947896"
       y="-0.023945386"
       width="1.0618958"
       height="1.0478908">
      <feGaussianBlur
         stdDeviation="0.52879393"
         id="feGaussianBlur9" />
    </filter>
  </defs>
  <g
     id="g9"
     transform="translate(-10.224935,-4.7308946)">
    <path
       id="path1"
       style="display:inline;opacity:0.6;fill:#00abff;fill-opacity:1;stroke:none;filter:url(#filter9)"
       d="m 151.80459,7.0001 -0.004,0.00195 -19.35352,0.00391 c -1.35355,0 -2.45703,1.1084593 -2.45703,2.4648437 V 57.533303 c 0,1.356386 1.10343,2.466797 2.45703,2.466797 h 36.09375 c 1.35354,0 2.45703,-1.110412 2.45703,-2.466797 V 26.183694 c 0,-0.440775 -0.10327,-0.93784 -0.29297,-1.464844 h 0.0606 l -0.35547,-0.722656 c -0.0256,-0.05172 -0.0587,-0.104197 -0.0859,-0.15625 l -0.0605,-0.125 h -0.008 c -0.33863,-0.618179 -0.78851,-1.252822 -1.38477,-1.84961 l -0.002,-0.002 -12.60352,-12.7109373 c -0.59286,-0.7367818 -1.2538,-1.2334508 -1.89844,-1.5585937 -0.0858,-0.043269 -0.17087,-0.083655 -0.25586,-0.1210938 l -0.0859,-0.037109 -0.0312,-0.00195 C 153.20947,7.1007523 152.4687,7.0001 151.91006,7.0001 Z m 0.11524,1.0019531 c 0.37972,7.572e-4 0.91295,0.1248404 1.44726,0.3105469 v 13.935547 c 0,1.22231 0.89866,2.235584 2.06641,2.425781 0.12732,0.02382 0.25744,0.03746 0.39062,0.04102 0.0224,5.98e-4 0.0439,0.0039 0.0664,0.0039 h 13.69336 c 0.23563,0.562366 0.41406,1.117889 0.41406,1.464844 v 31.349609 c 0,0.822556 -0.64278,1.466797 -1.45703,1.466797 h -36.09375 c -0.81435,0 -1.45703,-0.644183 -1.45703,-1.466797 V 9.4708031 c 0,-0.8225555 0.64277,-1.4667968 1.45703,-1.4667969 z m 2.4707,0.9238281 c 0.38082,0.2545632 0.76637,0.4323997 1.12695,0.8886719 l 0.0176,0.021484 12.62696,12.7343749 c 0.37192,0.371986 0.57527,0.759428 0.82812,1.144532 h -13.16602 c -0.067,0 -0.13091,-0.01107 -0.19531,-0.01953 -0.71046,-0.121762 -1.23827,-0.728848 -1.23828,-1.478515 z m -3.88281,20.0390628 a 0.50005,0.50005 0 0 0 -0.22461,0.05273 L 138.2128,35.05283 a 0.50005,0.50005 0 0 0 -0.10743,0.09766 0.50005,0.50005 0 0 0 -0.0664,0.06055 0.50005,0.50005 0 0 0 -0.0996,0.279296 0.50005,0.50005 0 0 0 -0.002,0.0078 0.50005,0.50005 0 0 0 0,0.002 v 13.792969 a 0.50005,0.50005 0 0 0 0.27539,0.445312 l 12.07031,6.035157 a 0.50005,0.50005 0 0 0 0.0117,0.002 0.5,0.5 0 0 0 0.21094,0.05078 0.50005,0.50005 0 0 0 0.002,0 0.5,0.5 0 0 0 0.20703,-0.04883 0.50005,0.50005 0 0 0 0.0156,-0.0039 l 12.06836,-6.035157 a 0.50005,0.50005 0 0 0 0.27539,-0.445312 V 35.498147 a 0.50005,0.50005 0 0 0 -0.006,-0.01563 0.50005,0.50005 0 0 0 -0.0996,-0.28125 0.50005,0.50005 0 0 0 -0.0156,-0.02148 0.50005,0.50005 0 0 0 -0.1543,-0.126954 l -12.06836,-6.035156 a 0.50005,0.50005 0 0 0 -0.22265,-0.05273 z m -0.002,1.058593 10.95117,5.476563 -10.95117,5.474609 -10.95118,-5.474609 z m -11.56836,6.285157 11.06836,5.533203 v 12.675781 l -11.06836,-5.535156 z m 23.13671,0 v 3.43164 l -11.06835,5.535157 V 41.84385 Z m 0,4.550781 v 3.558594 l -11.06835,5.535156 v -3.560547 z m 0,4.675781 v 3.447266 l -11.06835,5.535156 v -3.447265 z"
       transform="translate(-118.496,-1.0001)" />
    <path
       id="path8"
       style="fill:url(#linearGradient9);fill-opacity:1;stroke:none"
       d="m 151.80459,7.0001 -0.004,0.00195 -19.35352,0.00391 c -1.35355,0 -2.45703,1.1084593 -2.45703,2.4648437 V 57.533303 c 0,1.356386 1.10343,2.466797 2.45703,2.466797 h 36.09375 c 1.35354,0 2.45703,-1.110412 2.45703,-2.466797 V 26.183694 c 0,-0.440775 -0.10327,-0.93784 -0.29297,-1.464844 h 0.0606 l -0.35547,-0.722656 c -0.0256,-0.05172 -0.0587,-0.104197 -0.0859,-0.15625 l -0.0605,-0.125 h -0.008 c -0.33863,-0.618179 -0.78851,-1.252822 -1.38477,-1.84961 l -0.002,-0.002 -12.60352,-12.7109373 c -0.59286,-0.7367818 -1.2538,-1.2334508 -1.89844,-1.5585937 -0.0858,-0.043269 -0.17087,-0.083655 -0.25586,-0.1210938 l -0.0859,-0.037109 -0.0312,-0.00195 C 153.20947,7.1007523 152.4687,7.0001 151.91006,7.0001 Z m 0.11524,1.0019531 c 0.37972,7.572e-4 0.91295,0.1248404 1.44726,0.3105469 v 13.935547 c 0,1.22231 0.89866,2.235584 2.06641,2.425781 0.12732,0.02382 0.25744,0.03746 0.39062,0.04102 0.0224,5.98e-4 0.0439,0.0039 0.0664,0.0039 h 13.69336 c 0.23563,0.562366 0.41406,1.117889 0.41406,1.464844 v 31.349609 c 0,0.822556 -0.64278,1.466797 -1.45703,1.466797 h -36.09375 c -0.81435,0 -1.45703,-0.644183 -1.45703,-1.466797 V 9.4708031 c 0,-0.8225555 0.64277,-1.4667968 1.45703,-1.4667969 z m 2.4707,0.9238281 c 0.38082,0.2545632 0.76637,0.4323997 1.12695,0.8886719 l 0.0176,0.021484 12.62696,12.7343749 c 0.37192,0.371986 0.57527,0.759428 0.82812,1.144532 h -13.16602 c -0.067,0 -0.13091,-0.01107 -0.19531,-0.01953 -0.71046,-0.121762 -1.23827,-0.728848 -1.23828,-1.478515 z m -3.88281,20.0390628 a 0.50005,0.50005 0 0 0 -0.22461,0.05273 L 138.2128,35.05283 a 0.50005,0.50005 0 0 0 -0.10743,0.09766 0.50005,0.50005 0 0 0 -0.0664,0.06055 0.50005,0.50005 0 0 0 -0.0996,0.279296 0.50005,0.50005 0 0 0 -0.002,0.0078 0.50005,0.50005 0 0 0 0,0.002 v 13.792969 a 0.50005,0.50005 0 0 0 0.27539,0.445312 l 12.07031,6.035157 a 0.50005,0.50005 0 0 0 0.0117,0.002 0.5,0.5 0 0 0 0.21094,0.05078 0.50005,0.50005 0 0 0 0.002,0 0.5,0.5 0 0 0 0.20703,-0.04883 0.50005,0.50005 0 0 0 0.0156,-0.0039 l 12.06836,-6.035157 a 0.50005,0.50005 0 0 0 0.27539,-0.445312 V 35.498147 a 0.50005,0.50005 0 0 0 -0.006,-0.01563 0.50005,0.50005 0 0 0 -0.0996,-0.28125 0.50005,0.50005 0 0 0 -0.0156,-0.02148 0.50005,0.50005 0 0 0 -0.1543,-0.126954 l -12.06836,-6.035156 a 0.50005,0.50005 0 0 0 -0.22265,-0.05273 z m -0.002,1.058593 10.95117,5.476563 -10.95117,5.474609 -10.95118,-5.474609 z m -11.56836,6.285157 11.06836,5.533203 v 12.675781 l -11.06836,-5.535156 z m 23.13671,0 v 3.43164 l -11.06835,5.535157 V 41.84385 Z m 0,4.550781 v 3.558594 l -11.06835,5.535156 v -3.560547 z m 0,4.675781 v 3.447266 l -11.06835,5.535156 v -3.447265 z"
       transform="translate(-118.496,-1.0001)" />
  </g>
</svg>
