<?xml version="1.0" encoding="UTF-8" standalone="no"?>
<svg
   width="43.544071"
   height="55.540165"
   version="1.1"
   viewBox="0 0 11.520809 14.694713"
   id="svg3"
   xmlns:xlink="http://www.w3.org/1999/xlink"
   xmlns="http://www.w3.org/2000/svg"
   xmlns:svg="http://www.w3.org/2000/svg">
  <defs
     id="defs3">
    <linearGradient
       id="linearGradient4">
      <stop
         style="stop-color:#00abff;stop-opacity:0;"
         offset="0"
         id="stop5" />
      <stop
         style="stop-color:#00abff;stop-opacity:1;"
         offset="1"
         id="stop4" />
    </linearGradient>
    <linearGradient
       xlink:href="#linearGradient4"
       id="linearGradient5"
       x1="-7.5917969"
       y1="16.933001"
       x2="-7.5917969"
       y2="6.7736135"
       gradientUnits="userSpaceOnUse" />
    <filter
       style="color-interpolation-filters:sRGB"
       id="filter5"
       x="-0.030949369"
       y="-0.023944504"
       width="1.0618987"
       height="1.047889">
      <feGaussianBlur
         stdDeviation="0.13990731"
         id="feGaussianBlur5" />
    </filter>
  </defs>
  <g
     transform="translate(13.476197,-1.2522079)"
     fill="none"
     stroke="#f66464"
     stroke-opacity="0.94902"
     id="g2">
    <path
       id="path1"
       style="display:inline;opacity:0.6;fill:#00abff;fill-opacity:1;stroke:none;filter:url(#filter5)"
       d="m -7.4080648,1.5879855 -5.0822772,0.00207 c -0.358122,0 -0.650077,0.293274 -0.650077,0.6521438 V 14.956932 c 0,0.358871 0.291943,0.654211 0.650077,0.654211 h 9.5506503 c 0.3581214,0 0.6485265,-0.295341 0.6485265,-0.654211 V 6.6640615 c 0,-0.1166429 -0.02631,-0.2489028 -0.075963,-0.3885991 h 0.015503 L -2.4451579,6.0837466 C -2.5375483,5.8970852 -2.6713441,5.7035996 -2.8533937,5.5215181 L -6.1776732,2.1677837 C -6.3368141,1.9664044 -6.5153349,1.8327274 -6.6892598,1.7450788 v -0.00103 l -0.040307,-0.01757 c -0.00943,-0.0044 -0.019038,-0.0093 -0.028422,-0.013436 l -0.023254,-0.00982 h -0.00362 C -6.9941734,1.6135406 -7.1909053,1.5879855 -7.3398532,1.5879855 Z m -5.0822772,0.2656116 h 5.1603071 c 0.099453,7.493e-4 0.2368709,0.032194 0.3751635,0.080097 v 3.6875576 c 0,0.3310294 0.2492713,0.6049558 0.5689463,0.6459427 0.020427,0.0031 0.041032,0.00503 0.06201,0.0062 0.00651,1.962e-4 0.012569,0.00207 0.01912,0.00207 h 0.01757 3.6229633 c 0.062423,0.1489677 0.1095519,0.2966754 0.1095519,0.3885991 v 8.2928705 c 0,0.21763 -0.1695433,0.388599 -0.3849819,0.388599 h -9.5506502 c -0.215467,0 -0.384465,-0.17095 -0.384465,-0.388599 V 2.2421963 c 0,-0.2176302 0.169026,-0.3885992 0.384465,-0.3885992 z m 5.8067665,0.243908 c 0.1003904,0.067268 0.2015623,0.114323 0.2966169,0.2346064 l 0.0062,0.00568 3.339782,3.369237 c 0.098432,0.098449 0.1524095,0.200907 0.2191038,0.302818 h -3.482923 c -0.021758,0 -0.042354,-0.00284 -0.063044,-0.0062 -1.679e-4,-2.73e-5 -3.489e-4,2.75e-5 -5.167e-4,0 -0.1819496,-0.036965 -0.3152191,-0.1959435 -0.315219,-0.3901462 z m -0.9833831,4.6761083 a 0.1323,0.1323 0 0 0 -0.023254,0.00155 c -1.2951,0.23063 -2.5844554,0.5354953 -3.8694554,0.7601453 a 0.1323,0.1323 0 0 0 -0.111102,0.1307388 c 0,1.9626 -8.5e-4,3.9248135 0,5.8884135 a 0.1323,0.1323 0 0 0 0.109552,0.131256 c 1.2786,0.22385 2.5625515,0.522812 3.8477515,0.757562 a 0.1323,0.1323 0 0 0 0.025321,0.0021 h 0.382398 A 0.1323,0.1323 0 0 0 -7.1724249,14.31464 V 6.9064192 A 0.1323,0.1323 0 0 0 -7.3057475,6.7736134 Z m 0.013952,0.2635446 h 0.21652 v 7.144643 h -0.2382236 c -1.2372,-0.2263 -2.4820478,-0.512244 -3.7304478,-0.734824 -7.6e-4,-1.8911 -3e-5,-3.7814941 0,-5.6718941 1.2553,-0.22366 2.5063514,-0.5157149 3.7521514,-0.7379249 z m 1.7357772,0.498151 c -0.3062071,0.00298 -0.6116128,0.026899 -0.9115543,0.068212 a 0.1323,0.1323 0 0 0 -0.1152362,0.1328058 v 1.0939685 a 0.1323,0.1323 0 0 0 0.1131692,0.1307388 c 0.84593,0.12765 1.7315828,0.1026036 2.5563828,-0.1756964 a 0.1323,0.1323 0 0 0 0.011885,-0.00413 c 0.08445,-0.036944 0.1872813,-0.079962 0.2831813,-0.1503755 0.0959,-0.070414 0.1882727,-0.1768976 0.2129027,-0.3203876 a 0.1323,0.1323 0 0 0 -0.00207,-0.046508 C -3.8006553,8.0942924 -3.915524,7.9767742 -4.036244,7.9006542 -4.156964,7.8245402 -4.2882108,7.7790304 -4.3917708,7.7404604 a 0.1323,0.1323 0 0 0 -0.00775,-0.00207 C -4.8933757,7.5876242 -5.4062827,7.5303427 -5.9167123,7.535309 Z m 0.00207,0.2635446 c 0.4878,-0.00479 0.9722227,0.050714 1.4339927,0.1911991 0.10603,0.039464 0.2205282,0.079949 0.3043682,0.1328058 0.07514,0.047378 0.1106556,0.1009151 0.1312556,0.1679451 -0.01547,0.047054 -0.037885,0.088921 -0.089915,0.1271215 -0.0603,0.044273 -0.144665,0.081249 -0.226855,0.1173032 -0.73781,0.24814 -1.5389921,0.2595898 -2.3160921,0.1560598 V 7.8572469 c 0.25325,-0.031119 0.5082959,-0.055928 0.7632456,-0.058393 z m 2.0065563,1.0464272 a 0.1323,0.1323 0 0 0 -0.063044,0.021704 0.1323,0.1323 0 0 0 -0.00568,0.011885 l -0.00413,-0.00413 c -0.28184,0.22642 -0.6599999,0.3087952 -1.0428099,0.3653452 -0.58688,0.076753 -1.1844332,0.078469 -1.7714332,0.00413 a 0.1323,0.1323 0 0 0 -0.1488252,0.1307388 v 1.1425432 a 0.1323,0.1323 0 0 0 0.1152362,0.130739 c 0.75973,0.09765 1.5451062,0.09464 2.3011062,-0.08371 a 0.1323,0.1323 0 0 0 0.00568,-0.0021 c 0.22427,-0.06395 0.5069284,-0.132461 0.6991684,-0.361211 a 0.1323,0.1323 0 0 0 0.029455,-0.0646 c 0.05941,-0.3954596 0.027388,-0.7821556 0.027388,-1.1580456 l -0.027388,0.050642 a 0.1323,0.1323 0 0 0 -0.048575,-0.1720792 0.1323,0.1323 0 0 0 -0.066145,-0.011885 z m 0.081647,0.2408074 c 10e-4,-8.111e-4 0.00262,8.145e-4 0.00362,0 l -0.00155,0.00155 z m -5.3907793,0.01757 c -0.20572,0.01583 -0.4112145,0.029946 -0.6170045,0.044958 a 0.1323,0.1323 0 0 0 -0.1173032,0.097667 c -0.2554499,0.9275698 -0.5235429,1.8514708 -0.7813329,2.7811708 a 0.1323,0.1323 0 0 0 0.11937,0.167945 c 0.17157,0.01144 0.343321,0.02401 0.515721,0.03721 a 0.1323,0.1323 0 0 0 0.1364236,-0.09973 c 0.0448,-0.17335 0.089196,-0.347465 0.1328058,-0.521405 0.20213,0.009 0.4044229,0.01545 0.6077029,0.01757 0.04915,0.18673 0.098624,0.373999 0.1441744,0.560679 a 0.1323,0.1323 0 0 0 0.1152362,0.101283 c 0.20354,0.01866 0.4088972,0.03375 0.6133872,0.04702 a 0.1323,0.1323 0 0 0 0.1348728,-0.170012 c -0.29162,-0.9876 -0.5712835,-1.98172 -0.8671135,-2.9708194 l 5.168e-4,0.00827 a 0.1323,0.1323 0 0 0 -0.137459,-0.1018067 z m 5.1835609,0.056326 c 0.005,0.30383 0.01724,0.6020031 -0.01912,0.8846828 -0.12479,0.13119 -0.3214373,0.200925 -0.5353573,0.261995 -6.34e-4,1.49e-4 -0.00137,-1.5e-4 -0.00207,0 -0.67883,0.15987 -1.3892867,0.155522 -2.0876867,0.07596 V 9.5056926 c 0.56155,0.059229 1.1310363,0.069831 1.6913363,-0.00362 a 0.1323,0.1323 0 0 0 0.00207,0 c 0.31978,-0.047247 0.6470877,-0.1699712 0.9508277,-0.3420912 z M -9.305586,9.3749538 c 0.26582,0.8920402 0.5204993,1.7887042 0.7833993,2.6835042 -0.10786,-0.0077 -0.2154146,-0.01607 -0.3224546,-0.02532 -0.04723,-0.19027 -0.096162,-0.379499 -0.1462415,-0.568429 a 0.1323,0.1323 0 0 0 -0.1271215,-0.09973 c -0.26813,-8.66e-4 -0.5361162,-0.01012 -0.8045862,-0.02325 A 0.1323,0.1323 0 0 0 -10.05953,11.44353 c -0.04312,0.17323 -0.08638,0.344681 -0.130739,0.517271 -0.08158,-0.0061 -0.162558,-0.01191 -0.243908,-0.01757 0.23587,-0.84664 0.4781639,-1.690213 0.7126039,-2.5388132 0.13825,-0.00997 0.2769271,-0.019067 0.4159871,-0.029455 z m -0.2242713,0.2578603 a 0.1323,0.1323 0 0 0 -0.1410739,0.1131692 c -0.05691,0.4034997 -0.1880073,0.8028777 -0.2790473,1.2247077 a 0.1323,0.1323 0 0 0 0.1286718,0.160193 c 0.19438,0.0017 0.3890222,0.0027 0.5839322,0.0036 a 0.1323,0.1323 0 0 0 0.1291886,-0.163811 c -0.10166,-0.41733 -0.223101,-0.821432 -0.300751,-1.230392 l 0.00207,0.023254 A 0.1323,0.1323 0 0 0 -9.5298573,9.6328141 Z m -0.00413,0.7069199 c 0.04489,0.17628 0.082652,0.355376 0.1271216,0.529156 -0.08285,-4.13e-4 -0.165422,-9.5e-4 -0.248042,-0.0015 0.04121,-0.1717 0.07754,-0.351896 0.1209204,-0.527606 z m 5.6228019,0.170012 a 0.1323,0.1323 0 0 0 -0.093533,0.09973 l 0.023254,-0.07028 c -0.28016,0.22555 -0.6553056,0.308308 -1.0371256,0.364828 -0.58867,0.07763 -1.1865505,0.07931 -1.7750505,0.0041 a 0.1323,0.1323 0 0 0 -0.1503755,0.130739 v 1.144611 a 0.1323,0.1323 0 0 0 0.1152362,0.130738 c 0.76139,0.09674 1.5484738,0.09234 2.3062738,-0.08785 a 0.1323,0.1323 0 0 0 0.0062,-0.0021 c 0.22326,-0.06391 0.5060144,-0.132138 0.6950344,-0.363278 a 0.1323,0.1323 0 0 0 0.029455,-0.06408 c 0.05512,-0.39799 0.00843,-0.784934 0.025321,-1.148744 a 0.1323,0.1323 0 0 0 -0.00413,-0.03876 0.1323,0.1323 0 0 0 -0.1405572,-0.09973 z m -0.1229874,0.314186 c -0.0015,0.30534 0.01465,0.60508 -0.01757,0.8852 -0.12131,0.1313 -0.3175132,0.198161 -0.5312232,0.259411 -6.33e-4,1.51e-4 -0.00137,-1.5e-4 -0.00207,0 -0.6799,0.16136 -1.3940878,0.158727 -2.0938878,0.0801 v -0.878999 c 0.56348,0.05985 1.1334704,0.07066 1.6954704,-0.0036 a 0.1323,0.1323 0 0 0 0.00207,0 c 0.31896,-0.04722 0.6452804,-0.170692 0.9472104,-0.342092 z m 0.1131691,1.302738 a 0.1323,0.1323 0 0 0 -0.075963,0.0863 l 0.015503,-0.05891 c -0.28217,0.22589 -0.6584329,0.309745 -1.0407429,0.365345 -0.58779,0.07763 -1.1838332,0.07931 -1.7714332,0.0041 a 0.1323,0.1323 0 0 0 -0.1503755,0.130739 c 0,0.38074 0.00207,0.758869 -0.00413,1.136859 a 0.1323,0.1323 0 0 0 0.1131692,0.134356 c 0.64252,0.09269 1.2995453,0.09039 1.9414453,-0.0078 a 0.1323,0.1323 0 0 0 0.0062,-0.0021 c 0.33577,-0.06819 0.7691695,-0.11451 1.0603795,-0.43149 a 0.1323,0.1323 0 0 0 0.033072,-0.07028 c 0.05907,-0.3994 0.00965,-0.787305 0.027388,-1.150295 h -0.00207 a 0.1323,0.1323 0 0 0 -0.00775,-0.05478 0.1323,0.1323 0 0 0 -0.1446912,-0.08216 z m -0.1131691,0.312636 c -0.0016,0.30355 0.013393,0.601819 -0.019637,0.878999 -0.20924,0.20616 -0.5441791,0.269867 -0.8805491,0.337957 -0.57824,0.08842 -1.1674793,0.08097 -1.7481793,0.0078 0.0033,-0.29358 0.00453,-0.586989 0.00413,-0.878999 0.5625,0.05983 1.1322033,0.07065 1.6934033,-0.0036 0.32022,-0.04657 0.6476977,-0.170381 0.9508277,-0.342091 z" />
    <path
       id="path4"
       style="fill:url(#linearGradient5);fill-opacity:1;stroke:none"
       d="m -7.4080648,1.5879855 -5.0822772,0.00207 c -0.358122,0 -0.650077,0.293274 -0.650077,0.6521438 V 14.956932 c 0,0.358871 0.291943,0.654211 0.650077,0.654211 h 9.5506503 c 0.3581214,0 0.6485265,-0.295341 0.6485265,-0.654211 V 6.6640615 c 0,-0.1166429 -0.02631,-0.2489028 -0.075963,-0.3885991 h 0.015503 L -2.4451579,6.0837466 C -2.5375483,5.8970852 -2.6713441,5.7035996 -2.8533937,5.5215181 L -6.1776732,2.1677837 C -6.3368141,1.9664044 -6.5153349,1.8327274 -6.6892598,1.7450788 v -0.00103 l -0.040307,-0.01757 c -0.00943,-0.0044 -0.019038,-0.0093 -0.028422,-0.013436 l -0.023254,-0.00982 h -0.00362 C -6.9941734,1.6135406 -7.1909053,1.5879855 -7.3398532,1.5879855 Z m -5.0822772,0.2656116 h 5.1603071 c 0.099453,7.493e-4 0.2368709,0.032194 0.3751635,0.080097 v 3.6875576 c 0,0.3310294 0.2492713,0.6049558 0.5689463,0.6459427 0.020427,0.0031 0.041032,0.00503 0.06201,0.0062 0.00651,1.962e-4 0.012569,0.00207 0.01912,0.00207 h 0.01757 3.6229633 c 0.062423,0.1489677 0.1095519,0.2966754 0.1095519,0.3885991 v 8.2928705 c 0,0.21763 -0.1695433,0.388599 -0.3849819,0.388599 h -9.5506502 c -0.215467,0 -0.384465,-0.17095 -0.384465,-0.388599 V 2.2421963 c 0,-0.2176302 0.169026,-0.3885992 0.384465,-0.3885992 z m 5.8067665,0.243908 c 0.1003904,0.067268 0.2015623,0.114323 0.2966169,0.2346064 l 0.0062,0.00568 3.339782,3.369237 c 0.098432,0.098449 0.1524095,0.200907 0.2191038,0.302818 h -3.482923 c -0.021758,0 -0.042354,-0.00284 -0.063044,-0.0062 -1.679e-4,-2.73e-5 -3.489e-4,2.75e-5 -5.167e-4,0 -0.1819496,-0.036965 -0.3152191,-0.1959435 -0.315219,-0.3901462 z m -0.9833831,4.6761083 a 0.1323,0.1323 0 0 0 -0.023254,0.00155 c -1.2951,0.23063 -2.5844554,0.5354953 -3.8694554,0.7601453 a 0.1323,0.1323 0 0 0 -0.111102,0.1307388 c 0,1.9626 -8.5e-4,3.9248135 0,5.8884135 a 0.1323,0.1323 0 0 0 0.109552,0.131256 c 1.2786,0.22385 2.5625515,0.522812 3.8477515,0.757562 a 0.1323,0.1323 0 0 0 0.025321,0.0021 h 0.382398 A 0.1323,0.1323 0 0 0 -7.1724249,14.31464 V 6.9064192 A 0.1323,0.1323 0 0 0 -7.3057475,6.7736134 Z m 0.013952,0.2635446 h 0.21652 v 7.144643 h -0.2382236 c -1.2372,-0.2263 -2.4820478,-0.512244 -3.7304478,-0.734824 -7.6e-4,-1.8911 -3e-5,-3.7814941 0,-5.6718941 1.2553,-0.22366 2.5063514,-0.5157149 3.7521514,-0.7379249 z m 1.7357772,0.498151 c -0.3062071,0.00298 -0.6116128,0.026899 -0.9115543,0.068212 a 0.1323,0.1323 0 0 0 -0.1152362,0.1328058 v 1.0939685 a 0.1323,0.1323 0 0 0 0.1131692,0.1307388 c 0.84593,0.12765 1.7315828,0.1026036 2.5563828,-0.1756964 a 0.1323,0.1323 0 0 0 0.011885,-0.00413 c 0.08445,-0.036944 0.1872813,-0.079962 0.2831813,-0.1503755 0.0959,-0.070414 0.1882727,-0.1768976 0.2129027,-0.3203876 a 0.1323,0.1323 0 0 0 -0.00207,-0.046508 C -3.8006553,8.0942924 -3.915524,7.9767742 -4.036244,7.9006542 -4.156964,7.8245402 -4.2882108,7.7790304 -4.3917708,7.7404604 a 0.1323,0.1323 0 0 0 -0.00775,-0.00207 C -4.8933757,7.5876242 -5.4062827,7.5303427 -5.9167123,7.535309 Z m 0.00207,0.2635446 c 0.4878,-0.00479 0.9722227,0.050714 1.4339927,0.1911991 0.10603,0.039464 0.2205282,0.079949 0.3043682,0.1328058 0.07514,0.047378 0.1106556,0.1009151 0.1312556,0.1679451 -0.01547,0.047054 -0.037885,0.088921 -0.089915,0.1271215 -0.0603,0.044273 -0.144665,0.081249 -0.226855,0.1173032 -0.73781,0.24814 -1.5389921,0.2595898 -2.3160921,0.1560598 V 7.8572469 c 0.25325,-0.031119 0.5082959,-0.055928 0.7632456,-0.058393 z m 2.0065563,1.0464272 a 0.1323,0.1323 0 0 0 -0.063044,0.021704 0.1323,0.1323 0 0 0 -0.00568,0.011885 l -0.00413,-0.00413 c -0.28184,0.22642 -0.6599999,0.3087952 -1.0428099,0.3653452 -0.58688,0.076753 -1.1844332,0.078469 -1.7714332,0.00413 a 0.1323,0.1323 0 0 0 -0.1488252,0.1307388 v 1.1425432 a 0.1323,0.1323 0 0 0 0.1152362,0.130739 c 0.75973,0.09765 1.5451062,0.09464 2.3011062,-0.08371 a 0.1323,0.1323 0 0 0 0.00568,-0.0021 c 0.22427,-0.06395 0.5069284,-0.132461 0.6991684,-0.361211 a 0.1323,0.1323 0 0 0 0.029455,-0.0646 c 0.05941,-0.3954596 0.027388,-0.7821556 0.027388,-1.1580456 l -0.027388,0.050642 a 0.1323,0.1323 0 0 0 -0.048575,-0.1720792 0.1323,0.1323 0 0 0 -0.066145,-0.011885 z m 0.081647,0.2408074 c 10e-4,-8.111e-4 0.00262,8.145e-4 0.00362,0 l -0.00155,0.00155 z m -5.3907793,0.01757 c -0.20572,0.01583 -0.4112145,0.029946 -0.6170045,0.044958 a 0.1323,0.1323 0 0 0 -0.1173032,0.097667 c -0.2554499,0.9275698 -0.5235429,1.8514708 -0.7813329,2.7811708 a 0.1323,0.1323 0 0 0 0.11937,0.167945 c 0.17157,0.01144 0.343321,0.02401 0.515721,0.03721 a 0.1323,0.1323 0 0 0 0.1364236,-0.09973 c 0.0448,-0.17335 0.089196,-0.347465 0.1328058,-0.521405 0.20213,0.009 0.4044229,0.01545 0.6077029,0.01757 0.04915,0.18673 0.098624,0.373999 0.1441744,0.560679 a 0.1323,0.1323 0 0 0 0.1152362,0.101283 c 0.20354,0.01866 0.4088972,0.03375 0.6133872,0.04702 a 0.1323,0.1323 0 0 0 0.1348728,-0.170012 c -0.29162,-0.9876 -0.5712835,-1.98172 -0.8671135,-2.9708194 l 5.168e-4,0.00827 a 0.1323,0.1323 0 0 0 -0.137459,-0.1018067 z m 5.1835609,0.056326 c 0.005,0.30383 0.01724,0.6020031 -0.01912,0.8846828 -0.12479,0.13119 -0.3214373,0.200925 -0.5353573,0.261995 -6.34e-4,1.49e-4 -0.00137,-1.5e-4 -0.00207,0 -0.67883,0.15987 -1.3892867,0.155522 -2.0876867,0.07596 V 9.5056926 c 0.56155,0.059229 1.1310363,0.069831 1.6913363,-0.00362 a 0.1323,0.1323 0 0 0 0.00207,0 c 0.31978,-0.047247 0.6470877,-0.1699712 0.9508277,-0.3420912 z M -9.305586,9.3749538 c 0.26582,0.8920402 0.5204993,1.7887042 0.7833993,2.6835042 -0.10786,-0.0077 -0.2154146,-0.01607 -0.3224546,-0.02532 -0.04723,-0.19027 -0.096162,-0.379499 -0.1462415,-0.568429 a 0.1323,0.1323 0 0 0 -0.1271215,-0.09973 c -0.26813,-8.66e-4 -0.5361162,-0.01012 -0.8045862,-0.02325 A 0.1323,0.1323 0 0 0 -10.05953,11.44353 c -0.04312,0.17323 -0.08638,0.344681 -0.130739,0.517271 -0.08158,-0.0061 -0.162558,-0.01191 -0.243908,-0.01757 0.23587,-0.84664 0.4781639,-1.690213 0.7126039,-2.5388132 0.13825,-0.00997 0.2769271,-0.019067 0.4159871,-0.029455 z m -0.2242713,0.2578603 a 0.1323,0.1323 0 0 0 -0.1410739,0.1131692 c -0.05691,0.4034997 -0.1880073,0.8028777 -0.2790473,1.2247077 a 0.1323,0.1323 0 0 0 0.1286718,0.160193 c 0.19438,0.0017 0.3890222,0.0027 0.5839322,0.0036 a 0.1323,0.1323 0 0 0 0.1291886,-0.163811 c -0.10166,-0.41733 -0.223101,-0.821432 -0.300751,-1.230392 l 0.00207,0.023254 A 0.1323,0.1323 0 0 0 -9.5298573,9.6328141 Z m -0.00413,0.7069199 c 0.04489,0.17628 0.082652,0.355376 0.1271216,0.529156 -0.08285,-4.13e-4 -0.165422,-9.5e-4 -0.248042,-0.0015 0.04121,-0.1717 0.07754,-0.351896 0.1209204,-0.527606 z m 5.6228019,0.170012 a 0.1323,0.1323 0 0 0 -0.093533,0.09973 l 0.023254,-0.07028 c -0.28016,0.22555 -0.6553056,0.308308 -1.0371256,0.364828 -0.58867,0.07763 -1.1865505,0.07931 -1.7750505,0.0041 a 0.1323,0.1323 0 0 0 -0.1503755,0.130739 v 1.144611 a 0.1323,0.1323 0 0 0 0.1152362,0.130738 c 0.76139,0.09674 1.5484738,0.09234 2.3062738,-0.08785 a 0.1323,0.1323 0 0 0 0.0062,-0.0021 c 0.22326,-0.06391 0.5060144,-0.132138 0.6950344,-0.363278 a 0.1323,0.1323 0 0 0 0.029455,-0.06408 c 0.05512,-0.39799 0.00843,-0.784934 0.025321,-1.148744 a 0.1323,0.1323 0 0 0 -0.00413,-0.03876 0.1323,0.1323 0 0 0 -0.1405572,-0.09973 z m -0.1229874,0.314186 c -0.0015,0.30534 0.01465,0.60508 -0.01757,0.8852 -0.12131,0.1313 -0.3175132,0.198161 -0.5312232,0.259411 -6.33e-4,1.51e-4 -0.00137,-1.5e-4 -0.00207,0 -0.6799,0.16136 -1.3940878,0.158727 -2.0938878,0.0801 v -0.878999 c 0.56348,0.05985 1.1334704,0.07066 1.6954704,-0.0036 a 0.1323,0.1323 0 0 0 0.00207,0 c 0.31896,-0.04722 0.6452804,-0.170692 0.9472104,-0.342092 z m 0.1131691,1.302738 a 0.1323,0.1323 0 0 0 -0.075963,0.0863 l 0.015503,-0.05891 c -0.28217,0.22589 -0.6584329,0.309745 -1.0407429,0.365345 -0.58779,0.07763 -1.1838332,0.07931 -1.7714332,0.0041 a 0.1323,0.1323 0 0 0 -0.1503755,0.130739 c 0,0.38074 0.00207,0.758869 -0.00413,1.136859 a 0.1323,0.1323 0 0 0 0.1131692,0.134356 c 0.64252,0.09269 1.2995453,0.09039 1.9414453,-0.0078 a 0.1323,0.1323 0 0 0 0.0062,-0.0021 c 0.33577,-0.06819 0.7691695,-0.11451 1.0603795,-0.43149 a 0.1323,0.1323 0 0 0 0.033072,-0.07028 c 0.05907,-0.3994 0.00965,-0.787305 0.027388,-1.150295 h -0.00207 a 0.1323,0.1323 0 0 0 -0.00775,-0.05478 0.1323,0.1323 0 0 0 -0.1446912,-0.08216 z m -0.1131691,0.312636 c -0.0016,0.30355 0.013393,0.601819 -0.019637,0.878999 -0.20924,0.20616 -0.5441791,0.269867 -0.8805491,0.337957 -0.57824,0.08842 -1.1674793,0.08097 -1.7481793,0.0078 0.0033,-0.29358 0.00453,-0.586989 0.00413,-0.878999 0.5625,0.05983 1.1322033,0.07065 1.6934033,-0.0036 0.32022,-0.04657 0.6476977,-0.170381 0.9508277,-0.342091 z" />
  </g>
</svg>
