<?xml version="1.0" encoding="UTF-8" standalone="no"?>
<svg
   version="1.1"
   viewBox="0 0 43.546032 55.538212"
   id="svg4"
   width="43.546032"
   height="55.538212"
   xmlns:xlink="http://www.w3.org/1999/xlink"
   xmlns="http://www.w3.org/2000/svg"
   xmlns:svg="http://www.w3.org/2000/svg">
  <defs
     id="defs4">
    <linearGradient
       id="linearGradient5">
      <stop
         style="stop-color:#00abff;stop-opacity:0;"
         offset="0"
         id="stop6" />
      <stop
         style="stop-color:#00abff;stop-opacity:1;"
         offset="1"
         id="stop5" />
    </linearGradient>
    <linearGradient
       xlink:href="#linearGradient5"
       id="linearGradient6"
       x1="150.61594"
       y1="65.000702"
       x2="150.61594"
       y2="25.928236"
       gradientUnits="userSpaceOnUse" />
    <filter
       style="color-interpolation-filters:sRGB"
       id="filter6"
       x="-0.030947892"
       y="-0.023945388"
       width="1.0618958"
       height="1.0478908">
      <feGaussianBlur
         stdDeviation="0.52879399"
         id="feGaussianBlur6" />
    </filter>
  </defs>
  <g
     id="g6"
     transform="translate(-10.221034,-4.7308945)">
    <path
       id="path1"
       style="display:inline;opacity:0.6;fill:#00abff;fill-opacity:1;stroke:none;filter:url(#filter6)"
       d="m 151.80469,7.0007 -0.004,0.00195 -19.35351,0.00391 c -1.35355,0 -2.45704,1.1084593 -2.45704,2.4648437 V 57.533903 c 0,1.356386 1.10344,2.466797 2.45704,2.466797 h 36.09375 c 1.35354,0 2.45703,-1.110412 2.45703,-2.466797 V 26.184294 c 0,-0.440398 -0.1036,-0.938346 -0.29297,-1.464844 h 0.0605 l -0.35546,-0.722656 c -0.0264,-0.05334 -0.0597,-0.108424 -0.0879,-0.16211 l -0.0586,-0.11914 h -0.006 c -0.33871,-0.618687 -0.78993,-1.252303 -1.38672,-1.84961 l -0.002,-0.002 L 156.26529,9.1529968 C 155.59353,8.3181659 154.83456,7.7920744 154.111,7.4733093 l -0.0859,-0.037109 -0.0312,-0.00195 C 153.20957,7.1013523 152.46879,7.0007 151.91016,7.0007 Z m 0.11523,1.0019531 c 0.37972,7.572e-4 0.91296,0.1248404 1.44727,0.3105469 v 13.935547 c 0,1.22231 0.89865,2.235584 2.0664,2.425781 0.1486,0.02778 0.30064,0.04492 0.45703,0.04492 h 13.69336 c 0.23564,0.562366 0.41407,1.117889 0.41407,1.464844 v 31.349609 c 0,0.822556 -0.64278,1.466797 -1.45703,1.466797 h -36.09375 c -0.81435,0 -1.45704,-0.644183 -1.45704,-1.466797 V 9.4714031 c 0,-0.8225555 0.64278,-1.4667968 1.45704,-1.4667968 z m 2.4707,0.9238282 c 0.38082,0.2545631 0.76638,0.4323996 1.12696,0.8886718 l 0.0176,0.021484 12.62695,12.7343749 c 0.37192,0.371986 0.57527,0.759428 0.82812,1.144532 h -13.16601 c -0.059,0 -0.1149,-0.011 -0.17188,-0.01758 -0.7222,-0.112338 -1.26171,-0.722641 -1.26172,-1.480469 z m 4.24024,18.2773437 0.29883,0.177734 -10.43555,1.595703 -0.0156,0.002 c -1.27255,0.270973 -2.0087,0.422089 -2.48438,0.990234 -0.23784,0.284072 -0.34273,0.634175 -0.38867,1.007812 -0.0459,0.373638 -0.0447,0.793406 -0.0469,1.326172 v 0.002 16.359375 l -0.3164,-0.212891 v 0.121094 c -0.67071,-0.338623 -1.39847,-0.603516 -2.30469,-0.603516 -1.56563,0 -2.6215,0.644599 -3.22266,1.484375 -0.60441,0.844419 -0.78515,1.848815 -0.78515,2.636719 0,0.96596 0.32644,1.99552 1.05273,2.792969 0.72469,0.795723 1.85603,1.341796 3.36719,1.341796 1.66858,0 2.97074,-0.485589 3.71484,-1.505859 0.56582,-0.775949 0.85439,-1.771217 0.95703,-2.941406 v -0.0039 -0.002 l 0.002,-0.01758 v -0.002 c 0.0133,-0.136931 0.0229,-0.274361 0.0312,-0.412109 0.0156,-0.261253 0.01,-0.661705 0.01,-0.664063 v -0.002 -13.246094 c 0,-0.473179 0.004,-0.824829 0.0352,-1.050781 0.0314,-0.225951 0.0711,-0.297041 0.13672,-0.363281 0.13075,-0.132073 0.68449,-0.315523 1.93164,-0.529297 l 0.006,-0.002 7.41601,-1.162109 c 1.24992,-0.163536 1.84003,-0.09502 1.88672,-0.06641 0.0233,0.01431 0.0211,-0.01204 0.0469,0.128907 0.0258,0.140946 0.0312,0.406403 0.0312,0.761718 v 11.214844 l -0.3086,-0.207031 v 0.121094 c -0.67059,-0.338526 -1.3984,-0.603516 -2.30468,-0.603516 -1.56564,0 -2.62152,0.644459 -3.22266,1.484375 -0.60443,0.844395 -0.7832,1.848815 -0.7832,2.636719 0,0.966108 0.32656,1.993642 1.05273,2.791015 0.72464,0.79571 1.85401,1.34375 3.36524,1.34375 1.66865,0 2.97078,-0.485624 3.71484,-1.505859 0.56618,-0.776438 0.85454,-1.772266 0.95703,-2.943359 v -0.002 -0.002 -0.0078 c 3.9e-4,-0.0039 0.002,-0.0078 0.002,-0.01172 v -0.002 c 0.0133,-0.136779 0.0229,-0.272355 0.0312,-0.410156 0.0156,-0.260684 0.0117,-0.661703 0.0117,-0.664063 v -0.002 -18.429688 c 0,-0.741089 -0.0165,-1.235189 -0.15429,-1.705078 l 0.43945,0.0039 -0.56836,-0.335938 c -0.11018,-0.198547 -0.2379,-0.400025 -0.44336,-0.507812 -0.25609,-0.134345 -0.5344,-0.172327 -0.84375,-0.175782 z m 1.85742,1.021484 c 0.2234,0.0025 0.34498,0.0366 0.39063,0.06055 0.0457,0.02395 0.0525,0.02314 0.0879,0.113281 0.0707,0.18028 0.10351,0.717981 0.10351,1.546875 v 18.433594 0.002 c 0,0 10e-4,0.42036 -0.01,0.59961 -0.008,0.139948 -0.0187,0.271294 -0.0312,0.396484 v 0.0098 l -0.002,0.0039 c -0.0927,1.05498 -0.34824,1.864387 -0.76757,2.439453 -0.50915,0.698125 -1.42391,1.095703 -2.90625,1.095703 -1.27918,0 -2.08928,-0.425215 -2.62696,-1.015625 -0.53606,-0.588626 -0.79101,-1.380949 -0.79101,-2.11914 0,-0.625497 0.16382,-1.448623 0.59765,-2.054688 0.43706,-0.610664 1.09784,-1.066406 2.40821,-1.066406 1.03706,0 1.76871,0.326913 2.52539,0.833984 0.0978,0.06553 0.196,0.135556 0.30078,0.208985 l 0.78711,0.550781 V 35.145231 c 0,-0.355385 0.006,-0.651728 -0.0469,-0.943359 -0.0533,-0.291631 -0.21483,-0.621244 -0.50781,-0.800781 -0.58596,-0.359075 -1.25957,-0.239671 -2.53906,-0.07227 h -0.008 l -7.44335,1.167969 -0.004,0.002 c -1.26958,0.21707 -1.98045,0.305476 -2.48047,0.810547 -0.25001,0.252535 -0.36857,0.590611 -0.41601,0.93164 -0.0474,0.34103 -0.0449,0.714329 -0.0449,1.1875 v 13.25 0.002 c 0,0 0.003,0.42093 -0.008,0.599609 -0.008,0.139964 -0.0187,0.271371 -0.0312,0.396484 v 0.0098 l -0.002,0.0039 c -0.0927,1.054778 -0.34823,1.866317 -0.76758,2.441406 -0.5091,0.69805 -1.42383,1.09375 -2.90625,1.09375 -1.27924,0 -2.08932,-0.425287 -2.62695,-1.015625 -0.53604,-0.588551 -0.79297,-1.3808 -0.79297,-2.11914 0,-0.625497 0.16576,-1.448567 0.59961,-2.054688 0.43724,-0.610804 1.09783,-1.066406 2.4082,-1.066406 1.03695,0 1.76878,0.32891 2.52539,0.835938 l 0.0723,0.04883 c 0.0775,0.05325 0.15392,0.106337 0.23632,0.164062 l 0.78711,0.552735 v -18.261719 -0.0039 c 0.002,-0.530922 0.005,-0.931687 0.0391,-1.205079 0.0337,-0.274277 0.0875,-0.39876 0.16406,-0.490234 0.15257,-0.182226 0.67699,-0.385416 1.91797,-0.650391 l 10.43359,-1.595703 v 0.002 c 0.6202,-0.09321 1.07636,-0.143819 1.375,-0.140625 z"
       transform="translate(-118.5,-1.0007)" />
    <path
       id="path5"
       style="fill:url(#linearGradient6);fill-opacity:1;stroke:none"
       d="m 151.80469,7.0007 -0.004,0.00195 -19.35351,0.00391 c -1.35355,0 -2.45704,1.1084593 -2.45704,2.4648437 V 57.533903 c 0,1.356386 1.10344,2.466797 2.45704,2.466797 h 36.09375 c 1.35354,0 2.45703,-1.110412 2.45703,-2.466797 V 26.184294 c 0,-0.440398 -0.1036,-0.938346 -0.29297,-1.464844 h 0.0605 l -0.35546,-0.722656 c -0.0264,-0.05334 -0.0597,-0.108424 -0.0879,-0.16211 l -0.0586,-0.11914 h -0.006 c -0.33871,-0.618687 -0.78993,-1.252303 -1.38672,-1.84961 l -0.002,-0.002 L 156.26529,9.1529968 C 155.59353,8.3181659 154.83456,7.7920744 154.111,7.4733093 l -0.0859,-0.037109 -0.0312,-0.00195 C 153.20957,7.1013523 152.46879,7.0007 151.91016,7.0007 Z m 0.11523,1.0019531 c 0.37972,7.572e-4 0.91296,0.1248404 1.44727,0.3105469 v 13.935547 c 0,1.22231 0.89865,2.235584 2.0664,2.425781 0.1486,0.02778 0.30064,0.04492 0.45703,0.04492 h 13.69336 c 0.23564,0.562366 0.41407,1.117889 0.41407,1.464844 v 31.349609 c 0,0.822556 -0.64278,1.466797 -1.45703,1.466797 h -36.09375 c -0.81435,0 -1.45704,-0.644183 -1.45704,-1.466797 V 9.4714031 c 0,-0.8225555 0.64278,-1.4667968 1.45704,-1.4667968 z m 2.4707,0.9238282 c 0.38082,0.2545631 0.76638,0.4323996 1.12696,0.8886718 l 0.0176,0.021484 12.62695,12.7343749 c 0.37192,0.371986 0.57527,0.759428 0.82812,1.144532 h -13.16601 c -0.059,0 -0.1149,-0.011 -0.17188,-0.01758 -0.7222,-0.112338 -1.26171,-0.722641 -1.26172,-1.480469 z m 4.24024,18.2773437 0.29883,0.177734 -10.43555,1.595703 -0.0156,0.002 c -1.27255,0.270973 -2.0087,0.422089 -2.48438,0.990234 -0.23784,0.284072 -0.34273,0.634175 -0.38867,1.007812 -0.0459,0.373638 -0.0447,0.793406 -0.0469,1.326172 v 0.002 16.359375 l -0.3164,-0.212891 v 0.121094 c -0.67071,-0.338623 -1.39847,-0.603516 -2.30469,-0.603516 -1.56563,0 -2.6215,0.644599 -3.22266,1.484375 -0.60441,0.844419 -0.78515,1.848815 -0.78515,2.636719 0,0.96596 0.32644,1.99552 1.05273,2.792969 0.72469,0.795723 1.85603,1.341796 3.36719,1.341796 1.66858,0 2.97074,-0.485589 3.71484,-1.505859 0.56582,-0.775949 0.85439,-1.771217 0.95703,-2.941406 v -0.0039 -0.002 l 0.002,-0.01758 v -0.002 c 0.0133,-0.136931 0.0229,-0.274361 0.0312,-0.412109 0.0156,-0.261253 0.01,-0.661705 0.01,-0.664063 v -0.002 -13.246094 c 0,-0.473179 0.004,-0.824829 0.0352,-1.050781 0.0314,-0.225951 0.0711,-0.297041 0.13672,-0.363281 0.13075,-0.132073 0.68449,-0.315523 1.93164,-0.529297 l 0.006,-0.002 7.41601,-1.162109 c 1.24992,-0.163536 1.84003,-0.09502 1.88672,-0.06641 0.0233,0.01431 0.0211,-0.01204 0.0469,0.128907 0.0258,0.140946 0.0312,0.406403 0.0312,0.761718 v 11.214844 l -0.3086,-0.207031 v 0.121094 c -0.67059,-0.338526 -1.3984,-0.603516 -2.30468,-0.603516 -1.56564,0 -2.62152,0.644459 -3.22266,1.484375 -0.60443,0.844395 -0.7832,1.848815 -0.7832,2.636719 0,0.966108 0.32656,1.993642 1.05273,2.791015 0.72464,0.79571 1.85401,1.34375 3.36524,1.34375 1.66865,0 2.97078,-0.485624 3.71484,-1.505859 0.56618,-0.776438 0.85454,-1.772266 0.95703,-2.943359 v -0.002 -0.002 -0.0078 c 3.9e-4,-0.0039 0.002,-0.0078 0.002,-0.01172 v -0.002 c 0.0133,-0.136779 0.0229,-0.272355 0.0312,-0.410156 0.0156,-0.260684 0.0117,-0.661703 0.0117,-0.664063 v -0.002 -18.429688 c 0,-0.741089 -0.0165,-1.235189 -0.15429,-1.705078 l 0.43945,0.0039 -0.56836,-0.335938 c -0.11018,-0.198547 -0.2379,-0.400025 -0.44336,-0.507812 -0.25609,-0.134345 -0.5344,-0.172327 -0.84375,-0.175782 z m 1.85742,1.021484 c 0.2234,0.0025 0.34498,0.0366 0.39063,0.06055 0.0457,0.02395 0.0525,0.02314 0.0879,0.113281 0.0707,0.18028 0.10351,0.717981 0.10351,1.546875 v 18.433594 0.002 c 0,0 10e-4,0.42036 -0.01,0.59961 -0.008,0.139948 -0.0187,0.271294 -0.0312,0.396484 v 0.0098 l -0.002,0.0039 c -0.0927,1.05498 -0.34824,1.864387 -0.76757,2.439453 -0.50915,0.698125 -1.42391,1.095703 -2.90625,1.095703 -1.27918,0 -2.08928,-0.425215 -2.62696,-1.015625 -0.53606,-0.588626 -0.79101,-1.380949 -0.79101,-2.11914 0,-0.625497 0.16382,-1.448623 0.59765,-2.054688 0.43706,-0.610664 1.09784,-1.066406 2.40821,-1.066406 1.03706,0 1.76871,0.326913 2.52539,0.833984 0.0978,0.06553 0.196,0.135556 0.30078,0.208985 l 0.78711,0.550781 V 35.145231 c 0,-0.355385 0.006,-0.651728 -0.0469,-0.943359 -0.0533,-0.291631 -0.21483,-0.621244 -0.50781,-0.800781 -0.58596,-0.359075 -1.25957,-0.239671 -2.53906,-0.07227 h -0.008 l -7.44335,1.167969 -0.004,0.002 c -1.26958,0.21707 -1.98045,0.305476 -2.48047,0.810547 -0.25001,0.252535 -0.36857,0.590611 -0.41601,0.93164 -0.0474,0.34103 -0.0449,0.714329 -0.0449,1.1875 v 13.25 0.002 c 0,0 0.003,0.42093 -0.008,0.599609 -0.008,0.139964 -0.0187,0.271371 -0.0312,0.396484 v 0.0098 l -0.002,0.0039 c -0.0927,1.054778 -0.34823,1.866317 -0.76758,2.441406 -0.5091,0.69805 -1.42383,1.09375 -2.90625,1.09375 -1.27924,0 -2.08932,-0.425287 -2.62695,-1.015625 -0.53604,-0.588551 -0.79297,-1.3808 -0.79297,-2.11914 0,-0.625497 0.16576,-1.448567 0.59961,-2.054688 0.43724,-0.610804 1.09783,-1.066406 2.4082,-1.066406 1.03695,0 1.76878,0.32891 2.52539,0.835938 l 0.0723,0.04883 c 0.0775,0.05325 0.15392,0.106337 0.23632,0.164062 l 0.78711,0.552735 v -18.261719 -0.0039 c 0.002,-0.530922 0.005,-0.931687 0.0391,-1.205079 0.0337,-0.274277 0.0875,-0.39876 0.16406,-0.490234 0.15257,-0.182226 0.67699,-0.385416 1.91797,-0.650391 l 10.43359,-1.595703 v 0.002 c 0.6202,-0.09321 1.07636,-0.143819 1.375,-0.140625 z"
       transform="translate(-118.5,-1.0007)" />
  </g>
</svg>
