<?xml version="1.0" encoding="UTF-8" standalone="no"?>
<svg
   width="43.546024"
   height="55.538212"
   version="1.1"
   viewBox="0 0 43.546024 55.538212"
   id="svg3"
   xmlns:xlink="http://www.w3.org/1999/xlink"
   xmlns="http://www.w3.org/2000/svg"
   xmlns:svg="http://www.w3.org/2000/svg">
  <defs
     id="defs3">
    <linearGradient
       id="linearGradient8">
      <stop
         style="stop-color:#00abff;stop-opacity:0;"
         offset="0"
         id="stop9" />
      <stop
         style="stop-color:#00abff;stop-opacity:1;"
         offset="1"
         id="stop8" />
    </linearGradient>
    <linearGradient
       xlink:href="#linearGradient8"
       id="linearGradient9"
       x1="150.4973"
       y1="65.000099"
       x2="150.4973"
       y2="25.695753"
       gradientUnits="userSpaceOnUse" />
    <filter
       style="color-interpolation-filters:sRGB"
       id="filter9"
       x="-0.030947896"
       y="-0.023945386"
       width="1.0618958"
       height="1.0478908">
      <feGaussianBlur
         stdDeviation="0.52879393"
         id="feGaussianBlur9" />
    </filter>
  </defs>
  <g
     id="g9"
     transform="translate(-10.222995,-4.7308946)">
    <path
       id="path1"
       style="display:inline;opacity:0.6;fill:#00abff;fill-opacity:1;stroke:none;filter:url(#filter9)"
       d="m 151.80394,7.0001 -0.004,0.00195 -19.35351,0.00391 c -1.35355,0 -2.45703,1.1084593 -2.45703,2.4648437 V 57.533303 c 0,1.356386 1.10343,2.466797 2.45703,2.466797 h 36.09375 c 1.35354,0 2.45703,-1.110412 2.45703,-2.466797 V 26.183694 c 0,-0.440775 -0.10327,-0.93784 -0.29297,-1.464844 h 0.0606 l -0.35547,-0.722656 c -0.0256,-0.05172 -0.0587,-0.104197 -0.0859,-0.15625 l -0.0605,-0.125 h -0.008 c -0.33862,-0.618179 -0.7885,-1.252822 -1.38476,-1.84961 l -0.002,-0.002 L 156.26488,9.1524437 C 155.67159,8.4151756 155.0115,7.918962 154.36644,7.59385 154.28114,7.550863 154.19507,7.50998 154.11058,7.4727562 l -0.0859,-0.037109 -0.0312,-0.00195 C 153.20882,7.1007523 152.46804,7.0001 151.90941,7.0001 Z m 0.11523,1.0019531 c 0.37972,7.572e-4 0.91296,0.1248404 1.44727,0.3105469 v 13.935547 c 0,1.22231 0.89866,2.235584 2.06641,2.425781 0.12731,0.02382 0.25744,0.03746 0.39062,0.04102 0.0224,5.98e-4 0.0439,0.0039 0.0664,0.0039 h 13.69336 c 0.23563,0.562366 0.41406,1.117889 0.41406,1.464844 v 31.349609 c 0,0.822556 -0.64278,1.466797 -1.45703,1.466797 h -36.09375 c -0.81435,0 -1.45703,-0.644183 -1.45703,-1.466797 V 9.4708031 c 0,-0.8225555 0.64277,-1.4667967 1.45703,-1.4667969 z m 2.47071,0.9238281 c 0.38082,0.2545634 0.76637,0.4323997 1.12695,0.8886719 l 0.0176,0.021484 12.62695,12.7343749 c 0.37192,0.371984 0.57528,0.75943 0.82813,1.144532 h -13.16602 c -0.0687,0 -0.13319,-0.01063 -0.19922,-0.01953 -0.70854,-0.123274 -1.23436,-0.730184 -1.23437,-1.478515 z M 140.97582,28.945412 c -1.75835,0 -3.17383,1.415482 -3.17383,3.173829 v 14.283203 c 0,1.758347 1.41548,3.173828 3.17383,3.173828 h 19.04296 c 1.75835,0 3.17383,-1.415481 3.17383,-3.173828 V 32.119241 c 0,-1.758347 -1.41548,-3.173829 -3.17383,-3.173829 z m 0,1.587891 h 19.04296 c 0.87918,0 1.58789,0.706764 1.58789,1.585938 v 14.283203 l -7.93554,-7.935547 -5.52149,6.347656 -4,-3.173828 -4.76172,4.761719 V 32.119241 c 0,-0.879174 0.70872,-1.585938 1.5879,-1.585938 z m 3.96679,3.173828 c -1.31468,0 -2.38086,1.066177 -2.38086,2.38086 0,1.314682 1.06618,2.378906 2.38086,2.378906 1.31468,0 2.38086,-1.064224 2.38086,-2.378906 0,-1.314683 -1.06618,-2.38086 -2.38086,-2.38086 z m 5.27735,17.488282 c -0.86719,-1e-6 -1.54037,0.244791 -2.01954,0.734375 -0.47916,0.489583 -0.71875,1.180989 -0.71875,2.074218 0,0.583334 0.10938,1.091146 0.32813,1.523438 0.22135,0.429687 0.54036,0.759114 0.95703,0.988281 0.41667,0.229167 0.91276,0.34375 1.48828,0.34375 0.49479,0 0.95313,-0.08073 1.375,-0.242187 0.42448,-0.164063 0.78255,-0.394532 1.07422,-0.691407 v -1.898437 h -2.33203 v 0.625 h 1.64453 v 0.992187 c -0.19271,0.1875 -0.44531,0.335938 -0.75781,0.445313 -0.3099,0.109375 -0.64453,0.164062 -1.00391,0.164062 -0.63021,0 -1.1237,-0.20052 -1.48047,-0.601562 -0.35677,-0.403646 -0.53515,-0.953126 -0.53515,-1.648438 0,-0.697916 0.16797,-1.238281 0.5039,-1.621093 0.33594,-0.385417 0.82162,-0.578125 1.45703,-0.578125 0.40886,0 0.75,0.07161 1.02344,0.214843 0.27604,0.143229 0.49219,0.371094 0.64844,0.683594 l 0.71094,-0.210937 c -0.20573,-0.453126 -0.4987,-0.782553 -0.87891,-0.988282 -0.38021,-0.205729 -0.875,-0.308593 -1.48437,-0.308593 z m -7.84766,0.08203 v 0.609375 h 1.89062 v 4.894531 h 0.74219 v -4.894531 h 1.89063 v -0.609375 z m 13.19141,0 -2.2461,5.503906 h 0.77344 l 0.63281,-1.609375 h 2.50781 l 0.62891,1.609375 h 0.76172 l -2.21094,-5.503906 z m 0.41406,0.5625 0.10547,0.324219 c 0.0729,0.226562 0.14583,0.429687 0.21875,0.609375 l 0.70703,1.816406 h -2.0586 l 0.70313,-1.808594 c 0.1276,-0.338541 0.22396,-0.615885 0.28906,-0.832031 z"
       transform="translate(-118.4973,-1.0001)" />
    <path
       id="path8"
       style="fill:url(#linearGradient9);fill-opacity:1;stroke:none"
       d="m 151.80394,7.0001 -0.004,0.00195 -19.35351,0.00391 c -1.35355,0 -2.45703,1.1084593 -2.45703,2.4648437 V 57.533303 c 0,1.356386 1.10343,2.466797 2.45703,2.466797 h 36.09375 c 1.35354,0 2.45703,-1.110412 2.45703,-2.466797 V 26.183694 c 0,-0.440775 -0.10327,-0.93784 -0.29297,-1.464844 h 0.0606 l -0.35547,-0.722656 c -0.0256,-0.05172 -0.0587,-0.104197 -0.0859,-0.15625 l -0.0605,-0.125 h -0.008 c -0.33862,-0.618179 -0.7885,-1.252822 -1.38476,-1.84961 l -0.002,-0.002 L 156.26488,9.1524437 C 155.67159,8.4151756 155.0115,7.918962 154.36644,7.59385 154.28114,7.550863 154.19507,7.50998 154.11058,7.4727562 l -0.0859,-0.037109 -0.0312,-0.00195 C 153.20882,7.1007523 152.46804,7.0001 151.90941,7.0001 Z m 0.11523,1.0019531 c 0.37972,7.572e-4 0.91296,0.1248404 1.44727,0.3105469 v 13.935547 c 0,1.22231 0.89866,2.235584 2.06641,2.425781 0.12731,0.02382 0.25744,0.03746 0.39062,0.04102 0.0224,5.98e-4 0.0439,0.0039 0.0664,0.0039 h 13.69336 c 0.23563,0.562366 0.41406,1.117889 0.41406,1.464844 v 31.349609 c 0,0.822556 -0.64278,1.466797 -1.45703,1.466797 h -36.09375 c -0.81435,0 -1.45703,-0.644183 -1.45703,-1.466797 V 9.4708031 c 0,-0.8225555 0.64277,-1.4667967 1.45703,-1.4667969 z m 2.47071,0.9238281 c 0.38082,0.2545634 0.76637,0.4323997 1.12695,0.8886719 l 0.0176,0.021484 12.62695,12.7343749 c 0.37192,0.371984 0.57528,0.75943 0.82813,1.144532 h -13.16602 c -0.0687,0 -0.13319,-0.01063 -0.19922,-0.01953 -0.70854,-0.123274 -1.23436,-0.730184 -1.23437,-1.478515 z M 140.97582,28.945412 c -1.75835,0 -3.17383,1.415482 -3.17383,3.173829 v 14.283203 c 0,1.758347 1.41548,3.173828 3.17383,3.173828 h 19.04296 c 1.75835,0 3.17383,-1.415481 3.17383,-3.173828 V 32.119241 c 0,-1.758347 -1.41548,-3.173829 -3.17383,-3.173829 z m 0,1.587891 h 19.04296 c 0.87918,0 1.58789,0.706764 1.58789,1.585938 v 14.283203 l -7.93554,-7.935547 -5.52149,6.347656 -4,-3.173828 -4.76172,4.761719 V 32.119241 c 0,-0.879174 0.70872,-1.585938 1.5879,-1.585938 z m 3.96679,3.173828 c -1.31468,0 -2.38086,1.066177 -2.38086,2.38086 0,1.314682 1.06618,2.378906 2.38086,2.378906 1.31468,0 2.38086,-1.064224 2.38086,-2.378906 0,-1.314683 -1.06618,-2.38086 -2.38086,-2.38086 z m 5.27735,17.488282 c -0.86719,-1e-6 -1.54037,0.244791 -2.01954,0.734375 -0.47916,0.489583 -0.71875,1.180989 -0.71875,2.074218 0,0.583334 0.10938,1.091146 0.32813,1.523438 0.22135,0.429687 0.54036,0.759114 0.95703,0.988281 0.41667,0.229167 0.91276,0.34375 1.48828,0.34375 0.49479,0 0.95313,-0.08073 1.375,-0.242187 0.42448,-0.164063 0.78255,-0.394532 1.07422,-0.691407 v -1.898437 h -2.33203 v 0.625 h 1.64453 v 0.992187 c -0.19271,0.1875 -0.44531,0.335938 -0.75781,0.445313 -0.3099,0.109375 -0.64453,0.164062 -1.00391,0.164062 -0.63021,0 -1.1237,-0.20052 -1.48047,-0.601562 -0.35677,-0.403646 -0.53515,-0.953126 -0.53515,-1.648438 0,-0.697916 0.16797,-1.238281 0.5039,-1.621093 0.33594,-0.385417 0.82162,-0.578125 1.45703,-0.578125 0.40886,0 0.75,0.07161 1.02344,0.214843 0.27604,0.143229 0.49219,0.371094 0.64844,0.683594 l 0.71094,-0.210937 c -0.20573,-0.453126 -0.4987,-0.782553 -0.87891,-0.988282 -0.38021,-0.205729 -0.875,-0.308593 -1.48437,-0.308593 z m -7.84766,0.08203 v 0.609375 h 1.89062 v 4.894531 h 0.74219 v -4.894531 h 1.89063 v -0.609375 z m 13.19141,0 -2.2461,5.503906 h 0.77344 l 0.63281,-1.609375 h 2.50781 l 0.62891,1.609375 h 0.76172 l -2.21094,-5.503906 z m 0.41406,0.5625 0.10547,0.324219 c 0.0729,0.226562 0.14583,0.429687 0.21875,0.609375 l 0.70703,1.816406 h -2.0586 l 0.70313,-1.808594 c 0.1276,-0.338541 0.22396,-0.615885 0.28906,-0.832031 z"
       transform="translate(-118.4973,-1.0001)" />
  </g>
</svg>
