<?xml version="1.0" encoding="UTF-8" standalone="no"?>
<svg
   width="43.546024"
   height="55.538212"
   version="1.1"
   viewBox="0 0 43.546024 55.538212"
   id="svg3"
   xmlns:xlink="http://www.w3.org/1999/xlink"
   xmlns="http://www.w3.org/2000/svg"
   xmlns:svg="http://www.w3.org/2000/svg">
  <defs
     id="defs3">
    <linearGradient
       id="linearGradient6">
      <stop
         style="stop-color:#00abff;stop-opacity:0;"
         offset="0"
         id="stop7" />
      <stop
         style="stop-color:#00abff;stop-opacity:1;"
         offset="1"
         id="stop6" />
    </linearGradient>
    <linearGradient
       xlink:href="#linearGradient6"
       id="linearGradient7"
       x1="150.72919"
       y1="65.000099"
       x2="150.72919"
       y2="24.884157"
       gradientUnits="userSpaceOnUse" />
    <filter
       style="color-interpolation-filters:sRGB"
       id="filter7"
       x="-0.030947896"
       y="-0.023945386"
       width="1.0618958"
       height="1.0478908">
      <feGaussianBlur
         stdDeviation="0.52879393"
         id="feGaussianBlur7" />
    </filter>
  </defs>
  <g
     id="g7"
     transform="translate(-10.222995,-4.7308946)">
    <path
       id="path1"
       style="display:inline;opacity:0.6;fill:#00abff;fill-opacity:1;stroke:none;filter:url(#filter7)"
       d="m 151.80394,7.0001 -0.004,0.00195 -19.35351,0.00391 c -1.35355,0 -2.45703,1.1084593 -2.45703,2.4648437 V 57.533303 c 0,1.356386 1.10343,2.466797 2.45703,2.466797 h 36.09375 c 1.35354,0 2.45703,-1.110412 2.45703,-2.466797 V 26.183694 c 0,-0.440775 -0.10327,-0.93784 -0.29297,-1.464844 h 0.0606 l -0.35547,-0.722656 c -0.0256,-0.05172 -0.0587,-0.104197 -0.0859,-0.15625 l -0.0605,-0.125 h -0.008 c -0.33862,-0.618179 -0.7885,-1.252822 -1.38476,-1.84961 l -0.002,-0.002 L 156.26488,9.1524437 C 155.67159,8.4151756 155.0115,7.918962 154.36644,7.59385 154.28114,7.550863 154.19507,7.50998 154.11058,7.4727562 l -0.0859,-0.037109 -0.0312,-0.00195 C 153.20882,7.1007523 152.46804,7.0001 151.90941,7.0001 Z m 0.11523,1.0019531 c 0.37972,7.572e-4 0.91296,0.1248404 1.44727,0.3105469 v 13.935547 c 0,1.22231 0.89866,2.235584 2.06641,2.425781 0.12731,0.02382 0.25744,0.03746 0.39062,0.04102 0.0224,5.98e-4 0.0439,0.0039 0.0664,0.0039 h 13.69336 c 0.23563,0.562366 0.41406,1.117889 0.41406,1.464844 v 31.349609 c 0,0.822556 -0.64278,1.466797 -1.45703,1.466797 h -36.09375 c -0.81435,0 -1.45703,-0.644183 -1.45703,-1.466797 V 9.4708031 c 0,-0.8225555 0.64277,-1.4667967 1.45703,-1.4667969 z m 2.47071,0.9238281 c 0.38082,0.2545634 0.76637,0.4323997 1.12695,0.8886719 l 0.0176,0.021484 12.62695,12.7343749 c 0.37192,0.371984 0.57528,0.75943 0.82813,1.144532 h -13.16602 c -0.0687,0 -0.13319,-0.01063 -0.19922,-0.01953 -0.70854,-0.123274 -1.23436,-0.730184 -1.23437,-1.478515 z M 140.97582,28.945412 c -1.75835,0 -3.17383,1.415482 -3.17383,3.173829 v 14.283203 c 0,1.758347 1.41548,3.173828 3.17383,3.173828 h 19.04296 c 1.75835,0 3.17383,-1.415481 3.17383,-3.173828 V 32.119241 c 0,-1.758347 -1.41548,-3.173829 -3.17383,-3.173829 z m 0,1.587891 h 19.04296 c 0.87918,0 1.58789,0.706764 1.58789,1.585938 v 14.283203 l -7.93554,-7.935547 -5.52149,6.347656 -4,-3.173828 -4.76172,4.761719 V 32.119241 c 0,-0.879174 0.70872,-1.585938 1.5879,-1.585938 z m 3.96679,3.173828 c -1.31468,0 -2.38086,1.066177 -2.38086,2.38086 0,1.314682 1.06618,2.378906 2.38086,2.378906 1.31468,0 2.38086,-1.064224 2.38086,-2.378906 0,-1.314683 -1.06618,-2.38086 -2.38086,-2.38086 z m -2.57422,17.570313 v 5.503906 h 2.23438 c 0.63542,0 1.13151,-0.135417 1.48828,-0.40625 0.35677,-0.273437 0.53516,-0.654948 0.53516,-1.144531 0,-0.367188 -0.11849,-0.670573 -0.35547,-0.910156 -0.23698,-0.242184 -0.57422,-0.38932 -1.01172,-0.441407 0.33333,-0.07552 0.59114,-0.223958 0.77344,-0.445312 0.18229,-0.221354 0.27343,-0.494792 0.27343,-0.820313 0,-0.890625 -0.64583,-1.335937 -1.9375,-1.335937 z m 5.33594,0 v 5.503906 h 0.66406 v -3.671875 l -0.0156,-0.738281 -0.0117,-0.433594 0.12891,0.429688 0.21875,0.664062 1.4414,3.75 h 0.52344 l 1.42187,-3.75 c 0.10157,-0.263021 0.21615,-0.627604 0.34375,-1.09375 -0.0234,0.375 -0.0352,0.765625 -0.0352,1.171875 v 3.671875 h 0.67187 v -5.503906 h -0.95703 l -1.4375,3.816406 c -0.0234,0.05469 -0.069,0.188802 -0.13672,0.402344 -0.0651,0.210937 -0.10807,0.368489 -0.1289,0.472656 -0.0156,-0.07813 -0.0482,-0.204427 -0.0977,-0.378906 -0.0469,-0.177084 -0.0964,-0.342448 -0.14844,-0.496094 l -1.46484,-3.816406 z m 6.66406,0 v 5.503906 h 0.7461 v -2.144531 h 1.61718 c 0.58334,0 1.04428,-0.153646 1.38282,-0.460938 0.34114,-0.307292 0.51172,-0.721354 0.51172,-1.242187 0,-0.526042 -0.16927,-0.933594 -0.50782,-1.222656 -0.33854,-0.289063 -0.8164,-0.433594 -1.43359,-0.433594 z m -11.2539,0.597656 h 1.2539 c 0.38542,0 0.67969,0.0638 0.88282,0.191406 0.20312,0.127604 0.30468,0.339844 0.30468,0.636719 0,0.309896 -0.099,0.540364 -0.29687,0.691406 -0.19531,0.148438 -0.49219,0.222657 -0.89063,0.222657 h -1.2539 z m 12,0 h 1.48047 c 0.85416,0 1.28125,0.355468 1.28125,1.066406 0,0.736979 -0.41667,1.105469 -1.25,1.105469 h -1.51172 z m -12,2.324219 h 1.39062 c 0.91146,0 1.36719,0.324219 1.36719,0.972656 0,0.335938 -0.10417,0.588542 -0.3125,0.757813 -0.20833,0.16927 -0.54036,0.253906 -0.99609,0.253906 h -1.44922 z"
       transform="translate(-118.4973,-1.0001)" />
    <path
       id="path6"
       style="fill:url(#linearGradient7);fill-opacity:1;stroke:none"
       d="m 151.80394,7.0001 -0.004,0.00195 -19.35351,0.00391 c -1.35355,0 -2.45703,1.1084593 -2.45703,2.4648437 V 57.533303 c 0,1.356386 1.10343,2.466797 2.45703,2.466797 h 36.09375 c 1.35354,0 2.45703,-1.110412 2.45703,-2.466797 V 26.183694 c 0,-0.440775 -0.10327,-0.93784 -0.29297,-1.464844 h 0.0606 l -0.35547,-0.722656 c -0.0256,-0.05172 -0.0587,-0.104197 -0.0859,-0.15625 l -0.0605,-0.125 h -0.008 c -0.33862,-0.618179 -0.7885,-1.252822 -1.38476,-1.84961 l -0.002,-0.002 L 156.26488,9.1524437 C 155.67159,8.4151756 155.0115,7.918962 154.36644,7.59385 154.28114,7.550863 154.19507,7.50998 154.11058,7.4727562 l -0.0859,-0.037109 -0.0312,-0.00195 C 153.20882,7.1007523 152.46804,7.0001 151.90941,7.0001 Z m 0.11523,1.0019531 c 0.37972,7.572e-4 0.91296,0.1248404 1.44727,0.3105469 v 13.935547 c 0,1.22231 0.89866,2.235584 2.06641,2.425781 0.12731,0.02382 0.25744,0.03746 0.39062,0.04102 0.0224,5.98e-4 0.0439,0.0039 0.0664,0.0039 h 13.69336 c 0.23563,0.562366 0.41406,1.117889 0.41406,1.464844 v 31.349609 c 0,0.822556 -0.64278,1.466797 -1.45703,1.466797 h -36.09375 c -0.81435,0 -1.45703,-0.644183 -1.45703,-1.466797 V 9.4708031 c 0,-0.8225555 0.64277,-1.4667967 1.45703,-1.4667969 z m 2.47071,0.9238281 c 0.38082,0.2545634 0.76637,0.4323997 1.12695,0.8886719 l 0.0176,0.021484 12.62695,12.7343749 c 0.37192,0.371984 0.57528,0.75943 0.82813,1.144532 h -13.16602 c -0.0687,0 -0.13319,-0.01063 -0.19922,-0.01953 -0.70854,-0.123274 -1.23436,-0.730184 -1.23437,-1.478515 z M 140.97582,28.945412 c -1.75835,0 -3.17383,1.415482 -3.17383,3.173829 v 14.283203 c 0,1.758347 1.41548,3.173828 3.17383,3.173828 h 19.04296 c 1.75835,0 3.17383,-1.415481 3.17383,-3.173828 V 32.119241 c 0,-1.758347 -1.41548,-3.173829 -3.17383,-3.173829 z m 0,1.587891 h 19.04296 c 0.87918,0 1.58789,0.706764 1.58789,1.585938 v 14.283203 l -7.93554,-7.935547 -5.52149,6.347656 -4,-3.173828 -4.76172,4.761719 V 32.119241 c 0,-0.879174 0.70872,-1.585938 1.5879,-1.585938 z m 3.96679,3.173828 c -1.31468,0 -2.38086,1.066177 -2.38086,2.38086 0,1.314682 1.06618,2.378906 2.38086,2.378906 1.31468,0 2.38086,-1.064224 2.38086,-2.378906 0,-1.314683 -1.06618,-2.38086 -2.38086,-2.38086 z m -2.57422,17.570313 v 5.503906 h 2.23438 c 0.63542,0 1.13151,-0.135417 1.48828,-0.40625 0.35677,-0.273437 0.53516,-0.654948 0.53516,-1.144531 0,-0.367188 -0.11849,-0.670573 -0.35547,-0.910156 -0.23698,-0.242184 -0.57422,-0.38932 -1.01172,-0.441407 0.33333,-0.07552 0.59114,-0.223958 0.77344,-0.445312 0.18229,-0.221354 0.27343,-0.494792 0.27343,-0.820313 0,-0.890625 -0.64583,-1.335937 -1.9375,-1.335937 z m 5.33594,0 v 5.503906 h 0.66406 v -3.671875 l -0.0156,-0.738281 -0.0117,-0.433594 0.12891,0.429688 0.21875,0.664062 1.4414,3.75 h 0.52344 l 1.42187,-3.75 c 0.10157,-0.263021 0.21615,-0.627604 0.34375,-1.09375 -0.0234,0.375 -0.0352,0.765625 -0.0352,1.171875 v 3.671875 h 0.67187 v -5.503906 h -0.95703 l -1.4375,3.816406 c -0.0234,0.05469 -0.069,0.188802 -0.13672,0.402344 -0.0651,0.210937 -0.10807,0.368489 -0.1289,0.472656 -0.0156,-0.07813 -0.0482,-0.204427 -0.0977,-0.378906 -0.0469,-0.177084 -0.0964,-0.342448 -0.14844,-0.496094 l -1.46484,-3.816406 z m 6.66406,0 v 5.503906 h 0.7461 v -2.144531 h 1.61718 c 0.58334,0 1.04428,-0.153646 1.38282,-0.460938 0.34114,-0.307292 0.51172,-0.721354 0.51172,-1.242187 0,-0.526042 -0.16927,-0.933594 -0.50782,-1.222656 -0.33854,-0.289063 -0.8164,-0.433594 -1.43359,-0.433594 z m -11.2539,0.597656 h 1.2539 c 0.38542,0 0.67969,0.0638 0.88282,0.191406 0.20312,0.127604 0.30468,0.339844 0.30468,0.636719 0,0.309896 -0.099,0.540364 -0.29687,0.691406 -0.19531,0.148438 -0.49219,0.222657 -0.89063,0.222657 h -1.2539 z m 12,0 h 1.48047 c 0.85416,0 1.28125,0.355468 1.28125,1.066406 0,0.736979 -0.41667,1.105469 -1.25,1.105469 h -1.51172 z m -12,2.324219 h 1.39062 c 0.91146,0 1.36719,0.324219 1.36719,0.972656 0,0.335938 -0.10417,0.588542 -0.3125,0.757813 -0.20833,0.16927 -0.54036,0.253906 -0.99609,0.253906 h -1.44922 z"
       transform="translate(-118.4973,-1.0001)" />
  </g>
</svg>
