<?xml version="1.0" encoding="UTF-8" standalone="no"?>
<svg
   width="43.546024"
   height="55.538212"
   version="1.1"
   viewBox="0 0 43.546024 55.538212"
   id="svg3"
   xmlns:xlink="http://www.w3.org/1999/xlink"
   xmlns="http://www.w3.org/2000/svg"
   xmlns:svg="http://www.w3.org/2000/svg">
  <defs
     id="defs3">
    <linearGradient
       id="linearGradient24">
      <stop
         style="stop-color:#039bfc;stop-opacity:0;"
         offset="0"
         id="stop25" />
      <stop
         style="stop-color:#039bfc;stop-opacity:1;"
         offset="1"
         id="stop24" />
    </linearGradient>
    <linearGradient
       xlink:href="#linearGradient24"
       id="linearGradient25"
       x1="151.3089"
       y1="65.000099"
       x2="151.3089"
       y2="23.840679"
       gradientUnits="userSpaceOnUse" />
    <filter
       style="color-interpolation-filters:sRGB"
       id="filter25"
       x="-0.030947896"
       y="-0.023945386"
       width="1.0618958"
       height="1.0478908">
      <feGaussianBlur
         stdDeviation="0.52879393"
         id="feGaussianBlur25" />
    </filter>
  </defs>
  <g
     id="g25"
     transform="translate(-10.222995,-4.7308946)">
    <path
       id="path1"
       style="display:inline;opacity:0.6;fill:#039bfc;filter:url(#filter25)"
       d="m 151.80394,7.0001 -0.004,0.00195 -19.35351,0.00391 c -1.35355,0 -2.45703,1.1084593 -2.45703,2.4648437 V 57.533303 c 0,1.356386 1.10343,2.466797 2.45703,2.466797 h 36.09375 c 1.35354,0 2.45703,-1.110412 2.45703,-2.466797 V 26.183694 c 0,-0.440775 -0.10327,-0.93784 -0.29297,-1.464844 h 0.0606 l -0.35547,-0.722656 c -0.0256,-0.05172 -0.0587,-0.104197 -0.0859,-0.15625 l -0.0605,-0.125 h -0.008 c -0.33862,-0.618179 -0.7885,-1.252822 -1.38476,-1.84961 l -0.002,-0.002 L 156.26488,9.1524437 C 155.67159,8.4151755 155.0115,7.918962 154.36644,7.59385 154.28114,7.550863 154.19507,7.50998 154.11058,7.4727562 l -0.0859,-0.037109 -0.0312,-0.00195 C 153.20882,7.1007523 152.46804,7.0001 151.90941,7.0001 Z m 0.11523,1.0019531 c 0.37972,7.572e-4 0.91296,0.1248404 1.44727,0.3105469 v 13.935547 c 0,1.22231 0.89866,2.235584 2.06641,2.425781 0.12731,0.02382 0.25744,0.03746 0.39062,0.04102 0.0224,5.98e-4 0.0439,0.0039 0.0664,0.0039 h 13.69336 c 0.23563,0.562366 0.41406,1.117889 0.41406,1.464844 v 31.349609 c 0,0.822556 -0.64278,1.466797 -1.45703,1.466797 h -36.09375 c -0.81435,0 -1.45703,-0.644183 -1.45703,-1.466797 V 9.4708031 c 0,-0.8225555 0.64277,-1.4667967 1.45703,-1.4667969 z m 2.47071,0.9238281 c 0.38082,0.2545633 0.76637,0.4323997 1.12695,0.8886719 l 0.0176,0.021484 12.62695,12.7343749 c 0.37192,0.371984 0.57528,0.75943 0.82813,1.144532 h -13.16602 c -0.0687,0 -0.13319,-0.01063 -0.19922,-0.01953 -0.70854,-0.123274 -1.23436,-0.730184 -1.23437,-1.478515 z m 8.3164,21.0566408 a 0.187,0.187 0 0 0 -0.14843,0.0098 c -0.12,0.059 -0.22708,0.2505 -0.33008,0.5625 -0.246,0.735 -1.81689,5.306063 -9.83789,6.539063 a 3.988,3.989 0 0 1 2.16992,3.548828 3.988,3.989 0 0 1 -3.98828,3.986328 3.988,3.989 0 0 1 -3.62891,-2.34375 3.165,3.166 0 0 1 -2.66015,1.457032 3.165,3.166 0 0 1 -3.14258,-2.804688 3.24,3.24 0 0 1 -0.39453,0.621094 c -0.061,-0.096 -0.099,-0.205828 -0.16602,-0.298828 a 5.894,5.894 0 0 0 -1.39062,-1.388672 c -0.583,-0.405 -1.18911,-0.671766 -1.78711,-0.759766 -0.69,-0.1 -1.35772,0.04869 -1.88672,0.429688 -0.53,0.382 -0.83994,0.968296 -0.96094,1.654297 -0.105,0.594 -0.0682,1.237968 0.13281,1.917968 0.175,0.591 0.45533,1.187 0.86133,1.75 a 6.022,6.022 0 0 0 1.52149,1.488282 c 0.63,0.414 1.29912,0.654406 1.95312,0.691406 0.203,0.012 0.4097,-0.03645 0.5957,-0.06445 4.241,3.356 12.66024,6.48725 18.24024,2.90625 0.121,0.041 0.24128,0.09276 0.36328,0.134765 0.003,0.057 -0.015,0.115016 0,0.166016 l 0.26562,-0.101563 c 0.047,0.015 0.0829,0.05436 0.13086,0.06836 0.01,0.003 0.0232,-0.003 0.0332,0 l 0.0996,0.0957 2.51562,0.894531 c -0.104,0.872 0.32983,1.861297 1.42383,2.279297 a 40.233,40.233 0 0 1 3.80664,1.71875 c -0.94,-3.186 -1.28323,-5.744531 -3.74023,-5.519531 -0.457,0.042 -0.8016,0.230093 -1.0586,0.496094 l -2.21875,-1.419922 h -0.0996 l -0.0332,-0.03516 c 2.986,-2.934 4.73283,-8.447968 3.67383,-18.042968 -0.046,-0.36 -0.17046,-0.586719 -0.31446,-0.636719 z m -21.26562,2.917969 -0.13281,5.949218 c 0,0 0.0517,0.182688 0.0937,0.429688 a 3.165,3.166 0 0 1 2.88086,-1.867188 3.165,3.166 0 0 1 2.69531,1.511719 3.988,3.989 0 0 1 1.31445,-1.548828 c -4.792,-0.253 -6.85156,-4.474609 -6.85156,-4.474609 z m 3.33203,5.90625 a 2.216,2.174 0 0 0 -0.66016,0.09961 1.097,1.076 0 0 1 0.63868,0.974609 1.097,1.076 0 0 1 -1.09766,1.076172 1.097,1.076 0 0 1 -0.99609,-0.625 2.216,2.174 0 0 0 -0.10157,0.648438 2.216,2.174 0 0 0 2.2168,2.173828 2.216,2.174 0 0 0 2.21484,-2.173828 2.216,2.174 0 0 0 -2.21484,-2.173829 z m 6.66797,0.421875 a 2.216,2.174 0 0 0 -0.66016,0.09961 1.097,1.076 0 0 1 0.63867,0.976563 1.097,1.076 0 0 1 -1.09765,1.074218 1.097,1.076 0 0 1 -0.99414,-0.625 2.216,2.174 0 0 0 -0.10156,0.648438 2.216,2.174 0 0 0 2.21484,2.173828 2.216,2.174 0 0 0 2.2168,-2.173828 2.216,2.174 0 0 0 -2.2168,-2.173829 z m -14.42578,1.30664 a 1.152,1.287 0 0 1 1.15234,1.289063 1.152,1.287 0 0 1 -1.15234,1.287109 1.152,1.287 0 0 1 -1.15235,-1.287109 1.152,1.287 0 0 1 1.15235,-1.289063 z"
       transform="translate(-118.4973,-1.0001)" />
    <path
       id="path24"
       style="fill:url(#linearGradient25);fill-opacity:1"
       d="m 151.80394,7.0001 -0.004,0.00195 -19.35351,0.00391 c -1.35355,0 -2.45703,1.1084593 -2.45703,2.4648437 V 57.533303 c 0,1.356386 1.10343,2.466797 2.45703,2.466797 h 36.09375 c 1.35354,0 2.45703,-1.110412 2.45703,-2.466797 V 26.183694 c 0,-0.440775 -0.10327,-0.93784 -0.29297,-1.464844 h 0.0606 l -0.35547,-0.722656 c -0.0256,-0.05172 -0.0587,-0.104197 -0.0859,-0.15625 l -0.0605,-0.125 h -0.008 c -0.33862,-0.618179 -0.7885,-1.252822 -1.38476,-1.84961 l -0.002,-0.002 L 156.26488,9.1524437 C 155.67159,8.4151755 155.0115,7.918962 154.36644,7.59385 154.28114,7.550863 154.19507,7.50998 154.11058,7.4727562 l -0.0859,-0.037109 -0.0312,-0.00195 C 153.20882,7.1007523 152.46804,7.0001 151.90941,7.0001 Z m 0.11523,1.0019531 c 0.37972,7.572e-4 0.91296,0.1248404 1.44727,0.3105469 v 13.935547 c 0,1.22231 0.89866,2.235584 2.06641,2.425781 0.12731,0.02382 0.25744,0.03746 0.39062,0.04102 0.0224,5.98e-4 0.0439,0.0039 0.0664,0.0039 h 13.69336 c 0.23563,0.562366 0.41406,1.117889 0.41406,1.464844 v 31.349609 c 0,0.822556 -0.64278,1.466797 -1.45703,1.466797 h -36.09375 c -0.81435,0 -1.45703,-0.644183 -1.45703,-1.466797 V 9.4708031 c 0,-0.8225555 0.64277,-1.4667967 1.45703,-1.4667969 z m 2.47071,0.9238281 c 0.38082,0.2545633 0.76637,0.4323997 1.12695,0.8886719 l 0.0176,0.021484 12.62695,12.7343749 c 0.37192,0.371984 0.57528,0.75943 0.82813,1.144532 h -13.16602 c -0.0687,0 -0.13319,-0.01063 -0.19922,-0.01953 -0.70854,-0.123274 -1.23436,-0.730184 -1.23437,-1.478515 z m 8.3164,21.0566408 a 0.187,0.187 0 0 0 -0.14843,0.0098 c -0.12,0.059 -0.22708,0.2505 -0.33008,0.5625 -0.246,0.735 -1.81689,5.306063 -9.83789,6.539063 a 3.988,3.989 0 0 1 2.16992,3.548828 3.988,3.989 0 0 1 -3.98828,3.986328 3.988,3.989 0 0 1 -3.62891,-2.34375 3.165,3.166 0 0 1 -2.66015,1.457032 3.165,3.166 0 0 1 -3.14258,-2.804688 3.24,3.24 0 0 1 -0.39453,0.621094 c -0.061,-0.096 -0.099,-0.205828 -0.16602,-0.298828 a 5.894,5.894 0 0 0 -1.39062,-1.388672 c -0.583,-0.405 -1.18911,-0.671766 -1.78711,-0.759766 -0.69,-0.1 -1.35772,0.04869 -1.88672,0.429688 -0.53,0.382 -0.83994,0.968296 -0.96094,1.654297 -0.105,0.594 -0.0682,1.237968 0.13281,1.917968 0.175,0.591 0.45533,1.187 0.86133,1.75 a 6.022,6.022 0 0 0 1.52149,1.488282 c 0.63,0.414 1.29912,0.654406 1.95312,0.691406 0.203,0.012 0.4097,-0.03645 0.5957,-0.06445 4.241,3.356 12.66024,6.48725 18.24024,2.90625 0.121,0.041 0.24128,0.09276 0.36328,0.134765 0.003,0.057 -0.015,0.115016 0,0.166016 l 0.26562,-0.101563 c 0.047,0.015 0.0829,0.05436 0.13086,0.06836 0.01,0.003 0.0232,-0.003 0.0332,0 l 0.0996,0.0957 2.51562,0.894531 c -0.104,0.872 0.32983,1.861297 1.42383,2.279297 a 40.233,40.233 0 0 1 3.80664,1.71875 c -0.94,-3.186 -1.28323,-5.744531 -3.74023,-5.519531 -0.457,0.042 -0.8016,0.230093 -1.0586,0.496094 l -2.21875,-1.419922 h -0.0996 l -0.0332,-0.03516 c 2.986,-2.934 4.73283,-8.447968 3.67383,-18.042968 -0.046,-0.36 -0.17046,-0.586719 -0.31446,-0.636719 z m -21.26562,2.917969 -0.13281,5.949218 c 0,0 0.0517,0.182688 0.0937,0.429688 a 3.165,3.166 0 0 1 2.88086,-1.867188 3.165,3.166 0 0 1 2.69531,1.511719 3.988,3.989 0 0 1 1.31445,-1.548828 c -4.792,-0.253 -6.85156,-4.474609 -6.85156,-4.474609 z m 3.33203,5.90625 a 2.216,2.174 0 0 0 -0.66016,0.09961 1.097,1.076 0 0 1 0.63868,0.974609 1.097,1.076 0 0 1 -1.09766,1.076172 1.097,1.076 0 0 1 -0.99609,-0.625 2.216,2.174 0 0 0 -0.10157,0.648438 2.216,2.174 0 0 0 2.2168,2.173828 2.216,2.174 0 0 0 2.21484,-2.173828 2.216,2.174 0 0 0 -2.21484,-2.173829 z m 6.66797,0.421875 a 2.216,2.174 0 0 0 -0.66016,0.09961 1.097,1.076 0 0 1 0.63867,0.976563 1.097,1.076 0 0 1 -1.09765,1.074218 1.097,1.076 0 0 1 -0.99414,-0.625 2.216,2.174 0 0 0 -0.10156,0.648438 2.216,2.174 0 0 0 2.21484,2.173828 2.216,2.174 0 0 0 2.2168,-2.173828 2.216,2.174 0 0 0 -2.2168,-2.173829 z m -14.42578,1.30664 a 1.152,1.287 0 0 1 1.15234,1.289063 1.152,1.287 0 0 1 -1.15234,1.287109 1.152,1.287 0 0 1 -1.15235,-1.287109 1.152,1.287 0 0 1 1.15235,-1.289063 z"
       transform="translate(-118.4973,-1.0001)" />
  </g>
</svg>
