<?xml version="1.0" encoding="UTF-8" standalone="no"?>
<svg
   width="43.546024"
   height="55.538212"
   version="1.1"
   viewBox="0 0 43.546024 55.538212"
   id="svg3"
   xmlns:xlink="http://www.w3.org/1999/xlink"
   xmlns="http://www.w3.org/2000/svg"
   xmlns:svg="http://www.w3.org/2000/svg">
  <defs
     id="defs3">
    <linearGradient
       id="linearGradient17">
      <stop
         style="stop-color:#00abff;stop-opacity:0;"
         offset="0"
         id="stop18" />
      <stop
         style="stop-color:#00abff;stop-opacity:1;"
         offset="1"
         id="stop17" />
    </linearGradient>
    <linearGradient
       xlink:href="#linearGradient17"
       id="linearGradient18"
       x1="149.98393"
       y1="65.000099"
       x2="149.98393"
       y2="25.185484"
       gradientUnits="userSpaceOnUse" />
    <filter
       style="color-interpolation-filters:sRGB"
       id="filter18"
       x="-0.030947896"
       y="-0.023945386"
       width="1.0618958"
       height="1.0478908">
      <feGaussianBlur
         stdDeviation="0.52879393"
         id="feGaussianBlur18" />
    </filter>
  </defs>
  <g
     id="g18"
     transform="translate(-10.222995,-4.7308946)">
    <path
       id="path1"
       style="display:inline;opacity:0.6;fill:#00abff;fill-opacity:1;stroke:none;filter:url(#filter18)"
       d="m 151.80394,7.0001 -0.004,0.00195 -19.35351,0.00391 c -1.35355,0 -2.45703,1.1084593 -2.45703,2.4648437 V 57.533303 c 0,1.356386 1.10343,2.466797 2.45703,2.466797 h 36.09375 c 1.35354,0 2.45703,-1.110412 2.45703,-2.466797 V 26.183694 c 0,-0.440775 -0.10327,-0.93784 -0.29297,-1.464844 h 0.0606 l -0.35547,-0.722656 c -0.0256,-0.05172 -0.0587,-0.104197 -0.0859,-0.15625 l -0.0605,-0.125 h -0.008 c -0.33862,-0.618179 -0.7885,-1.252822 -1.38476,-1.84961 l -0.002,-0.002 L 156.26488,9.1524437 C 155.67159,8.4151755 155.0115,7.918962 154.36644,7.59385 154.28114,7.550863 154.19507,7.50998 154.11058,7.4727562 l -0.0859,-0.037109 -0.0312,-0.00195 C 153.20882,7.1007523 152.46804,7.0001 151.90941,7.0001 Z m 0.11523,1.0019531 c 0.37972,7.572e-4 0.91296,0.1248404 1.44727,0.3105469 v 13.935547 c 0,1.22231 0.89866,2.235584 2.06641,2.425781 0.12731,0.02382 0.25744,0.03746 0.39062,0.04102 0.0224,5.98e-4 0.0439,0.0039 0.0664,0.0039 h 13.69336 c 0.23563,0.562366 0.41406,1.117889 0.41406,1.464844 v 31.349609 c 0,0.822556 -0.64278,1.466797 -1.45703,1.466797 h -36.09375 c -0.81435,0 -1.45703,-0.644183 -1.45703,-1.466797 V 9.4708031 c 0,-0.8225555 0.64277,-1.4667967 1.45703,-1.4667969 z m 2.47071,0.9238281 c 0.38082,0.2545633 0.76637,0.4323997 1.12695,0.8886719 l 0.0176,0.021484 12.62695,12.7343749 c 0.37192,0.371984 0.57528,0.75943 0.82813,1.144532 h -13.16602 c -0.0687,0 -0.13319,-0.01063 -0.19922,-0.01953 -0.70854,-0.123274 -1.23436,-0.730184 -1.23437,-1.478515 z m 3.25781,20.3964848 c -3.56556,0 -5.84766,2.279161 -5.84766,5.273437 0,3.250609 1.91392,4.788237 4.79493,6.015625 l 0.99804,0.429688 c 1.82086,0.796438 2.90625,1.281381 2.90625,2.65039 0,1.142423 -1.05668,1.96875 -2.71093,1.96875 -1.96914,0 -3.08169,-1.028462 -3.9375,-2.425781 l -3.24415,1.886719 c 1.17206,2.315838 3.56761,4.082031 7.2754,4.082031 3.79215,0 6.61523,-1.969938 6.61523,-5.564453 0,-3.334214 -1.91445,-4.816828 -5.30664,-6.271484 l -0.99805,-0.427735 c -1.71295,-0.741823 -2.45508,-1.22611 -2.45508,-2.423828 0,-0.96909 0.74075,-1.710937 1.91016,-1.710937 1.14647,-1e-6 1.88387,0.483549 2.56836,1.710937 l 3.10937,-1.996094 c -1.3153,-2.313154 -3.13931,-3.197265 -5.67773,-3.197265 z m -13.19141,0.228515 v 13.576172 c 0,1.995516 -0.82895,2.507813 -2.14062,2.507813 -1.37169,0 -1.94117,-0.939982 -2.56836,-2.052735 l -3.25,1.966797 c 0.9415,1.992455 2.79168,3.646485 5.98828,3.646485 3.53782,0 5.96289,-1.881496 5.96289,-6.015625 V 29.550881 Z m 4.36329,23.181641 c -0.44792,0 -0.79384,0.08572 -1.03516,0.255859 -0.23958,0.170139 -0.35938,0.412327 -0.35938,0.726563 0,0.137152 0.0232,0.259331 0.0684,0.365234 0.0469,0.105903 0.11437,0.197483 0.20118,0.277344 0.0868,0.07813 0.20421,0.15061 0.35351,0.214844 0.15104,0.06424 0.37218,0.127173 0.66211,0.191406 0.16667,0.03819 0.31793,0.07443 0.45508,0.107422 0.13715,0.03298 0.25456,0.07443 0.35351,0.123047 0.099,0.04861 0.17665,0.108941 0.23047,0.183593 0.0556,0.07465 0.082,0.173177 0.082,0.292969 0,0.213541 -0.0864,0.375218 -0.26171,0.486328 -0.17362,0.109376 -0.42101,0.164063 -0.74219,0.164063 -0.31077,0 -0.55773,-0.05187 -0.73828,-0.154297 -0.18056,-0.104167 -0.29797,-0.265842 -0.35352,-0.486328 l -0.48242,0.0957 c 0.14236,0.621527 0.66059,0.933594 1.55469,0.933594 0.4809,0 0.8533,-0.09353 1.11718,-0.279297 0.26563,-0.185764 0.39844,-0.448568 0.39844,-0.78711 0,-0.13368 -0.0184,-0.248698 -0.0566,-0.347656 -0.0365,-0.09896 -0.0883,-0.184896 -0.1543,-0.257812 -0.066,-0.07292 -0.14409,-0.135201 -0.23437,-0.185547 -0.0885,-0.05035 -0.18273,-0.0944 -0.28516,-0.13086 -0.10243,-0.03819 -0.21137,-0.06966 -0.32422,-0.0957 -0.11111,-0.02778 -0.22309,-0.05404 -0.33593,-0.08008 -0.33681,-0.07465 -0.56098,-0.137153 -0.67383,-0.1875 -0.11285,-0.05208 -0.199,-0.114583 -0.25977,-0.1875 -0.059,-0.07465 -0.0898,-0.168403 -0.0898,-0.28125 0,-0.192709 0.0779,-0.338325 0.23242,-0.435547 0.15451,-0.09722 0.37847,-0.146484 0.67188,-0.146484 0.26736,0 0.47591,0.04427 0.62695,0.132812 0.15104,0.08681 0.25477,0.227431 0.30859,0.421875 l 0.48828,-0.08594 c -0.0885,-0.307291 -0.2424,-0.523655 -0.46289,-0.650391 -0.22048,-0.128472 -0.53841,-0.193359 -0.95507,-0.193359 z m 3.80664,0 c -0.55903,0 -0.99653,0.166449 -1.3125,0.498047 -0.31598,0.331596 -0.47461,0.78993 -0.47461,1.375 0,0.390624 0.0703,0.729167 0.21093,1.015625 0.14237,0.284722 0.34809,0.503689 0.61719,0.658203 0.27083,0.152777 0.59115,0.230469 0.96094,0.230469 0.36111,0 0.6786,-0.08312 0.95117,-0.248047 0.27431,-0.164931 0.48763,-0.404731 0.63867,-0.720703 l -0.40625,-0.203125 c -0.25868,0.50868 -0.64626,0.761718 -1.16015,0.761718 -0.40104,0 -0.71897,-0.135634 -0.95508,-0.408203 -0.23438,-0.274306 -0.35156,-0.636285 -0.35156,-1.085937 0,-0.454862 0.11219,-0.81185 0.33789,-1.072266 0.22569,-0.262153 0.54297,-0.394531 0.94922,-0.394531 0.25868,0 0.48046,0.05707 0.66796,0.169922 0.18924,0.112847 0.32704,0.276692 0.41211,0.490234 l 0.47071,-0.15625 c -0.12327,-0.300347 -0.31598,-0.52691 -0.57813,-0.679687 -0.26215,-0.152778 -0.58789,-0.230469 -0.97851,-0.230469 z m -17.0918,0.05469 v 0.40625 h 0.70703 v 2.179688 c 0,0.239583 -0.0521,0.421875 -0.15625,0.546875 -0.10417,0.123264 -0.24718,0.185547 -0.42773,0.185547 -0.16493,0 -0.30274,-0.05708 -0.41211,-0.169922 -0.10938,-0.112847 -0.17969,-0.269315 -0.21094,-0.470703 l -0.48633,0.08008 c 0.11632,0.642361 0.4859,0.964844 1.10742,0.964844 0.33507,0 0.59831,-0.101563 0.79102,-0.304688 0.19271,-0.204861 0.28906,-0.485894 0.28906,-0.841797 v -2.576172 z m 3.10547,0 -1.49805,3.669922 h 0.51563 l 0.42187,-1.072265 h 1.67188 l 0.41992,1.072265 h 0.50781 l -1.47461,-3.669922 z m 1.67578,0 1.49805,3.669922 h 0.51562 l 1.49805,-3.669922 h -0.52344 l -1.01172,2.583985 -0.21875,0.648437 -0.21875,-0.648437 -1.01562,-2.583985 z m 4.64648,0 -1.49804,3.669922 h 0.51562 l 0.42188,-1.072265 h 1.67187 l 0.41992,1.072265 h 0.50782 l -1.47461,-3.669922 z m 9.89649,0 v 3.669922 h 0.49609 v -1.523437 h 1.14453 l 0.95313,1.523437 h 0.57226 l -1.04101,-1.580078 c 0.27951,-0.04861 0.49826,-0.165799 0.65625,-0.351562 0.15972,-0.185764 0.23828,-0.414931 0.23828,-0.6875 0,-0.329861 -0.1122,-0.587457 -0.33789,-0.771485 -0.22396,-0.185764 -0.54189,-0.279297 -0.95508,-0.279297 z m 3.90625,0 v 3.669922 h 0.49609 v -3.669922 z m 1.42578,0 v 3.669922 h 0.49805 v -1.429687 h 1.07812 c 0.38889,0 0.69618,-0.10178 0.92188,-0.306641 0.22743,-0.204861 0.34179,-0.480903 0.34179,-0.828125 0,-0.350694 -0.11415,-0.623698 -0.33984,-0.816406 -0.22569,-0.192709 -0.54362,-0.289063 -0.95508,-0.289063 z m 3.24023,0 v 0.40625 h 1.25977 v 3.263672 h 0.49609 v -3.263672 h 1.25977 v -0.40625 z m -24.51562,0.375 0.0703,0.216797 c 0.0486,0.151042 0.0979,0.286458 0.14649,0.40625 l 0.4707,1.210938 h -1.37305 l 0.46875,-1.205078 c 0.0851,-0.225694 0.14996,-0.410591 0.19336,-0.554688 z m 6.32226,0 0.0703,0.216797 c 0.0486,0.151042 0.0979,0.286458 0.14648,0.40625 l 0.4707,1.210938 h -1.37109 l 0.46875,-1.205078 c 0.0851,-0.225694 0.14801,-0.410591 0.19141,-0.554688 z m 10.11719,0.02344 h 1.17969 c 0.27257,0 0.4809,0.05707 0.625,0.169922 0.14583,0.111111 0.21875,0.272787 0.21875,0.486328 0,0.220486 -0.0708,0.392361 -0.21484,0.515625 -0.14237,0.121528 -0.34527,0.183594 -0.60743,0.183594 h -1.20117 z m 5.33399,0 h 0.98632 c 0.56945,0 0.85547,0.236979 0.85547,0.710937 0,0.49132 -0.27843,0.738282 -0.83398,0.738282 h -1.00781 z"
       transform="translate(-118.4973,-1.0001)" />
    <path
       id="path17"
       style="fill:url(#linearGradient18);fill-opacity:1;stroke:none"
       d="m 151.80394,7.0001 -0.004,0.00195 -19.35351,0.00391 c -1.35355,0 -2.45703,1.1084593 -2.45703,2.4648437 V 57.533303 c 0,1.356386 1.10343,2.466797 2.45703,2.466797 h 36.09375 c 1.35354,0 2.45703,-1.110412 2.45703,-2.466797 V 26.183694 c 0,-0.440775 -0.10327,-0.93784 -0.29297,-1.464844 h 0.0606 l -0.35547,-0.722656 c -0.0256,-0.05172 -0.0587,-0.104197 -0.0859,-0.15625 l -0.0605,-0.125 h -0.008 c -0.33862,-0.618179 -0.7885,-1.252822 -1.38476,-1.84961 l -0.002,-0.002 L 156.26488,9.1524437 C 155.67159,8.4151755 155.0115,7.918962 154.36644,7.59385 154.28114,7.550863 154.19507,7.50998 154.11058,7.4727562 l -0.0859,-0.037109 -0.0312,-0.00195 C 153.20882,7.1007523 152.46804,7.0001 151.90941,7.0001 Z m 0.11523,1.0019531 c 0.37972,7.572e-4 0.91296,0.1248404 1.44727,0.3105469 v 13.935547 c 0,1.22231 0.89866,2.235584 2.06641,2.425781 0.12731,0.02382 0.25744,0.03746 0.39062,0.04102 0.0224,5.98e-4 0.0439,0.0039 0.0664,0.0039 h 13.69336 c 0.23563,0.562366 0.41406,1.117889 0.41406,1.464844 v 31.349609 c 0,0.822556 -0.64278,1.466797 -1.45703,1.466797 h -36.09375 c -0.81435,0 -1.45703,-0.644183 -1.45703,-1.466797 V 9.4708031 c 0,-0.8225555 0.64277,-1.4667967 1.45703,-1.4667969 z m 2.47071,0.9238281 c 0.38082,0.2545633 0.76637,0.4323997 1.12695,0.8886719 l 0.0176,0.021484 12.62695,12.7343749 c 0.37192,0.371984 0.57528,0.75943 0.82813,1.144532 h -13.16602 c -0.0687,0 -0.13319,-0.01063 -0.19922,-0.01953 -0.70854,-0.123274 -1.23436,-0.730184 -1.23437,-1.478515 z m 3.25781,20.3964848 c -3.56556,0 -5.84766,2.279161 -5.84766,5.273437 0,3.250609 1.91392,4.788237 4.79493,6.015625 l 0.99804,0.429688 c 1.82086,0.796438 2.90625,1.281381 2.90625,2.65039 0,1.142423 -1.05668,1.96875 -2.71093,1.96875 -1.96914,0 -3.08169,-1.028462 -3.9375,-2.425781 l -3.24415,1.886719 c 1.17206,2.315838 3.56761,4.082031 7.2754,4.082031 3.79215,0 6.61523,-1.969938 6.61523,-5.564453 0,-3.334214 -1.91445,-4.816828 -5.30664,-6.271484 l -0.99805,-0.427735 c -1.71295,-0.741823 -2.45508,-1.22611 -2.45508,-2.423828 0,-0.96909 0.74075,-1.710937 1.91016,-1.710937 1.14647,-1e-6 1.88387,0.483549 2.56836,1.710937 l 3.10937,-1.996094 c -1.3153,-2.313154 -3.13931,-3.197265 -5.67773,-3.197265 z m -13.19141,0.228515 v 13.576172 c 0,1.995516 -0.82895,2.507813 -2.14062,2.507813 -1.37169,0 -1.94117,-0.939982 -2.56836,-2.052735 l -3.25,1.966797 c 0.9415,1.992455 2.79168,3.646485 5.98828,3.646485 3.53782,0 5.96289,-1.881496 5.96289,-6.015625 V 29.550881 Z m 4.36329,23.181641 c -0.44792,0 -0.79384,0.08572 -1.03516,0.255859 -0.23958,0.170139 -0.35938,0.412327 -0.35938,0.726563 0,0.137152 0.0232,0.259331 0.0684,0.365234 0.0469,0.105903 0.11437,0.197483 0.20118,0.277344 0.0868,0.07813 0.20421,0.15061 0.35351,0.214844 0.15104,0.06424 0.37218,0.127173 0.66211,0.191406 0.16667,0.03819 0.31793,0.07443 0.45508,0.107422 0.13715,0.03298 0.25456,0.07443 0.35351,0.123047 0.099,0.04861 0.17665,0.108941 0.23047,0.183593 0.0556,0.07465 0.082,0.173177 0.082,0.292969 0,0.213541 -0.0864,0.375218 -0.26171,0.486328 -0.17362,0.109376 -0.42101,0.164063 -0.74219,0.164063 -0.31077,0 -0.55773,-0.05187 -0.73828,-0.154297 -0.18056,-0.104167 -0.29797,-0.265842 -0.35352,-0.486328 l -0.48242,0.0957 c 0.14236,0.621527 0.66059,0.933594 1.55469,0.933594 0.4809,0 0.8533,-0.09353 1.11718,-0.279297 0.26563,-0.185764 0.39844,-0.448568 0.39844,-0.78711 0,-0.13368 -0.0184,-0.248698 -0.0566,-0.347656 -0.0365,-0.09896 -0.0883,-0.184896 -0.1543,-0.257812 -0.066,-0.07292 -0.14409,-0.135201 -0.23437,-0.185547 -0.0885,-0.05035 -0.18273,-0.0944 -0.28516,-0.13086 -0.10243,-0.03819 -0.21137,-0.06966 -0.32422,-0.0957 -0.11111,-0.02778 -0.22309,-0.05404 -0.33593,-0.08008 -0.33681,-0.07465 -0.56098,-0.137153 -0.67383,-0.1875 -0.11285,-0.05208 -0.199,-0.114583 -0.25977,-0.1875 -0.059,-0.07465 -0.0898,-0.168403 -0.0898,-0.28125 0,-0.192709 0.0779,-0.338325 0.23242,-0.435547 0.15451,-0.09722 0.37847,-0.146484 0.67188,-0.146484 0.26736,0 0.47591,0.04427 0.62695,0.132812 0.15104,0.08681 0.25477,0.227431 0.30859,0.421875 l 0.48828,-0.08594 c -0.0885,-0.307291 -0.2424,-0.523655 -0.46289,-0.650391 -0.22048,-0.128472 -0.53841,-0.193359 -0.95507,-0.193359 z m 3.80664,0 c -0.55903,0 -0.99653,0.166449 -1.3125,0.498047 -0.31598,0.331596 -0.47461,0.78993 -0.47461,1.375 0,0.390624 0.0703,0.729167 0.21093,1.015625 0.14237,0.284722 0.34809,0.503689 0.61719,0.658203 0.27083,0.152777 0.59115,0.230469 0.96094,0.230469 0.36111,0 0.6786,-0.08312 0.95117,-0.248047 0.27431,-0.164931 0.48763,-0.404731 0.63867,-0.720703 l -0.40625,-0.203125 c -0.25868,0.50868 -0.64626,0.761718 -1.16015,0.761718 -0.40104,0 -0.71897,-0.135634 -0.95508,-0.408203 -0.23438,-0.274306 -0.35156,-0.636285 -0.35156,-1.085937 0,-0.454862 0.11219,-0.81185 0.33789,-1.072266 0.22569,-0.262153 0.54297,-0.394531 0.94922,-0.394531 0.25868,0 0.48046,0.05707 0.66796,0.169922 0.18924,0.112847 0.32704,0.276692 0.41211,0.490234 l 0.47071,-0.15625 c -0.12327,-0.300347 -0.31598,-0.52691 -0.57813,-0.679687 -0.26215,-0.152778 -0.58789,-0.230469 -0.97851,-0.230469 z m -17.0918,0.05469 v 0.40625 h 0.70703 v 2.179688 c 0,0.239583 -0.0521,0.421875 -0.15625,0.546875 -0.10417,0.123264 -0.24718,0.185547 -0.42773,0.185547 -0.16493,0 -0.30274,-0.05708 -0.41211,-0.169922 -0.10938,-0.112847 -0.17969,-0.269315 -0.21094,-0.470703 l -0.48633,0.08008 c 0.11632,0.642361 0.4859,0.964844 1.10742,0.964844 0.33507,0 0.59831,-0.101563 0.79102,-0.304688 0.19271,-0.204861 0.28906,-0.485894 0.28906,-0.841797 v -2.576172 z m 3.10547,0 -1.49805,3.669922 h 0.51563 l 0.42187,-1.072265 h 1.67188 l 0.41992,1.072265 h 0.50781 l -1.47461,-3.669922 z m 1.67578,0 1.49805,3.669922 h 0.51562 l 1.49805,-3.669922 h -0.52344 l -1.01172,2.583985 -0.21875,0.648437 -0.21875,-0.648437 -1.01562,-2.583985 z m 4.64648,0 -1.49804,3.669922 h 0.51562 l 0.42188,-1.072265 h 1.67187 l 0.41992,1.072265 h 0.50782 l -1.47461,-3.669922 z m 9.89649,0 v 3.669922 h 0.49609 v -1.523437 h 1.14453 l 0.95313,1.523437 h 0.57226 l -1.04101,-1.580078 c 0.27951,-0.04861 0.49826,-0.165799 0.65625,-0.351562 0.15972,-0.185764 0.23828,-0.414931 0.23828,-0.6875 0,-0.329861 -0.1122,-0.587457 -0.33789,-0.771485 -0.22396,-0.185764 -0.54189,-0.279297 -0.95508,-0.279297 z m 3.90625,0 v 3.669922 h 0.49609 v -3.669922 z m 1.42578,0 v 3.669922 h 0.49805 v -1.429687 h 1.07812 c 0.38889,0 0.69618,-0.10178 0.92188,-0.306641 0.22743,-0.204861 0.34179,-0.480903 0.34179,-0.828125 0,-0.350694 -0.11415,-0.623698 -0.33984,-0.816406 -0.22569,-0.192709 -0.54362,-0.289063 -0.95508,-0.289063 z m 3.24023,0 v 0.40625 h 1.25977 v 3.263672 h 0.49609 v -3.263672 h 1.25977 v -0.40625 z m -24.51562,0.375 0.0703,0.216797 c 0.0486,0.151042 0.0979,0.286458 0.14649,0.40625 l 0.4707,1.210938 h -1.37305 l 0.46875,-1.205078 c 0.0851,-0.225694 0.14996,-0.410591 0.19336,-0.554688 z m 6.32226,0 0.0703,0.216797 c 0.0486,0.151042 0.0979,0.286458 0.14648,0.40625 l 0.4707,1.210938 h -1.37109 l 0.46875,-1.205078 c 0.0851,-0.225694 0.14801,-0.410591 0.19141,-0.554688 z m 10.11719,0.02344 h 1.17969 c 0.27257,0 0.4809,0.05707 0.625,0.169922 0.14583,0.111111 0.21875,0.272787 0.21875,0.486328 0,0.220486 -0.0708,0.392361 -0.21484,0.515625 -0.14237,0.121528 -0.34527,0.183594 -0.60743,0.183594 h -1.20117 z m 5.33399,0 h 0.98632 c 0.56945,0 0.85547,0.236979 0.85547,0.710937 0,0.49132 -0.27843,0.738282 -0.83398,0.738282 h -1.00781 z"
       transform="translate(-118.4973,-1.0001)" />
  </g>
</svg>
