<?xml version="1.0" encoding="UTF-8" standalone="no"?>
<svg
   width="43.546024"
   height="55.538212"
   version="1.1"
   viewBox="0 0 43.546024 55.538212"
   id="svg3"
   xmlns:xlink="http://www.w3.org/1999/xlink"
   xmlns="http://www.w3.org/2000/svg"
   xmlns:svg="http://www.w3.org/2000/svg">
  <defs
     id="defs3">
    <linearGradient
       id="linearGradient22">
      <stop
         style="stop-color:#039bfc;stop-opacity:0;"
         offset="0"
         id="stop23" />
      <stop
         style="stop-color:#039bfc;stop-opacity:1;"
         offset="1"
         id="stop22" />
    </linearGradient>
    <linearGradient
       xlink:href="#linearGradient22"
       id="linearGradient23"
       x1="150.03354"
       y1="65.000099"
       x2="150.03354"
       y2="23.840679"
       gradientUnits="userSpaceOnUse" />
    <filter
       style="color-interpolation-filters:sRGB"
       id="filter23"
       x="-0.030947896"
       y="-0.023945386"
       width="1.0618958"
       height="1.0478908">
      <feGaussianBlur
         stdDeviation="0.52879393"
         id="feGaussianBlur23" />
    </filter>
  </defs>
  <g
     id="g23"
     transform="translate(-10.222995,-4.7308946)">
    <path
       id="path1"
       style="display:inline;opacity:0.6;fill:#039bfc;filter:url(#filter23)"
       d="m 151.80394,7.0001 -0.004,0.00195 -19.35351,0.00391 c -1.35355,0 -2.45703,1.1084593 -2.45703,2.4648437 V 57.533303 c 0,1.356386 1.10343,2.466797 2.45703,2.466797 h 36.09375 c 1.35354,0 2.45703,-1.110412 2.45703,-2.466797 V 26.183694 c 0,-0.440775 -0.10327,-0.93784 -0.29297,-1.464844 h 0.0606 l -0.35547,-0.722656 c -0.0256,-0.05172 -0.0587,-0.104197 -0.0859,-0.15625 l -0.0605,-0.125 h -0.008 c -0.33862,-0.618179 -0.7885,-1.252822 -1.38476,-1.84961 l -0.002,-0.002 L 156.26488,9.1524437 C 155.67159,8.4151755 155.0115,7.918962 154.36644,7.59385 154.28114,7.550863 154.19507,7.50998 154.11058,7.4727562 l -0.0859,-0.037109 -0.0312,-0.00195 C 153.20882,7.1007523 152.46804,7.0001 151.90941,7.0001 Z m 0.11523,1.0019531 c 0.37972,7.572e-4 0.91296,0.1248404 1.44727,0.3105469 v 13.935547 c 0,1.22231 0.89866,2.235584 2.06641,2.425781 0.12731,0.02382 0.25744,0.03746 0.39062,0.04102 0.0224,5.98e-4 0.0439,0.0039 0.0664,0.0039 h 13.69336 c 0.23563,0.562366 0.41406,1.117889 0.41406,1.464844 v 31.349609 c 0,0.822556 -0.64278,1.466797 -1.45703,1.466797 h -36.09375 c -0.81435,0 -1.45703,-0.644183 -1.45703,-1.466797 V 9.4708031 c 0,-0.8225555 0.64277,-1.4667967 1.45703,-1.4667969 z m 2.47071,0.9238281 c 0.38082,0.2545633 0.76637,0.4323997 1.12695,0.8886719 l 0.0176,0.021484 12.62695,12.7343749 c 0.37192,0.371984 0.57528,0.75943 0.82813,1.144532 h -13.16602 c -0.0687,0 -0.13319,-0.01063 -0.19922,-0.01953 -0.70854,-0.123274 -1.23436,-0.730184 -1.23437,-1.478515 z M 141.90355,29.5626 c -0.95219,0 -1.71875,0.766562 -1.71875,1.71875 v 1.71875 c -1.90438,0 -3.4375,1.533125 -3.4375,3.4375 v 13.75 c 0,1.904375 1.53312,3.4375 3.4375,3.4375 h 20.625 c 1.90438,0 3.4375,-1.533125 3.4375,-3.4375 v -13.75 c 0,-1.904375 -1.53312,-3.4375 -3.4375,-3.4375 v -1.71875 c 0,-0.952188 -0.76656,-1.71875 -1.71875,-1.71875 z m 0,1.71875 h 17.1875 v 1.71875 1.71875 4.087891 l -7.66797,6.107422 c -0.52523,0.418257 -1.32641,0.418256 -1.85156,0 l -7.66797,-6.107422 V 34.71885 33.0001 Z m 2.57812,1.71875 c -0.47609,0 -0.85937,0.383281 -0.85937,0.859375 0,0.476094 0.38328,0.859375 0.85937,0.859375 h 12.03125 c 0.4761,0 0.85938,-0.383281 0.85938,-0.859375 0,-0.476094 -0.38328,-0.859375 -0.85938,-0.859375 z m -4.29687,1.71875 v 2.722656 l -1.6543,-1.320312 c 0.15195,-0.794664 0.81404,-1.402344 1.6543,-1.402344 z m 20.625,0 c 0.84026,0 1.50234,0.60768 1.6543,1.402344 l -1.6543,1.320312 z m -16.32813,1.71875 c -0.47609,0 -0.85937,0.383281 -0.85937,0.859375 0,0.476094 0.38328,0.859375 0.85937,0.859375 h 12.03125 c 0.4761,0 0.85938,-0.383281 0.85938,-0.859375 0,-0.476094 -0.38328,-0.859375 -0.85938,-0.859375 z m -6.01562,1.802734 6.36719,5.072266 -6.36719,5.072266 z m 24.0625,0 V 48.384866 L 156.16136,43.3126 Z m -16.33203,6.160157 2.01172,1.601562 c 1.25618,1.00033 3.32189,1.00033 4.57812,0 l 2.01172,-1.601562 7.66602,6.103515 c -0.15196,0.794664 -0.81404,1.402344 -1.6543,1.402344 h -20.625 c -0.84026,0 -1.50234,-0.60768 -1.6543,-1.402344 z"
       transform="translate(-118.4973,-1.0001)" />
    <path
       id="path22"
       style="fill:url(#linearGradient23);fill-opacity:1"
       d="m 151.80394,7.0001 -0.004,0.00195 -19.35351,0.00391 c -1.35355,0 -2.45703,1.1084593 -2.45703,2.4648437 V 57.533303 c 0,1.356386 1.10343,2.466797 2.45703,2.466797 h 36.09375 c 1.35354,0 2.45703,-1.110412 2.45703,-2.466797 V 26.183694 c 0,-0.440775 -0.10327,-0.93784 -0.29297,-1.464844 h 0.0606 l -0.35547,-0.722656 c -0.0256,-0.05172 -0.0587,-0.104197 -0.0859,-0.15625 l -0.0605,-0.125 h -0.008 c -0.33862,-0.618179 -0.7885,-1.252822 -1.38476,-1.84961 l -0.002,-0.002 L 156.26488,9.1524437 C 155.67159,8.4151755 155.0115,7.918962 154.36644,7.59385 154.28114,7.550863 154.19507,7.50998 154.11058,7.4727562 l -0.0859,-0.037109 -0.0312,-0.00195 C 153.20882,7.1007523 152.46804,7.0001 151.90941,7.0001 Z m 0.11523,1.0019531 c 0.37972,7.572e-4 0.91296,0.1248404 1.44727,0.3105469 v 13.935547 c 0,1.22231 0.89866,2.235584 2.06641,2.425781 0.12731,0.02382 0.25744,0.03746 0.39062,0.04102 0.0224,5.98e-4 0.0439,0.0039 0.0664,0.0039 h 13.69336 c 0.23563,0.562366 0.41406,1.117889 0.41406,1.464844 v 31.349609 c 0,0.822556 -0.64278,1.466797 -1.45703,1.466797 h -36.09375 c -0.81435,0 -1.45703,-0.644183 -1.45703,-1.466797 V 9.4708031 c 0,-0.8225555 0.64277,-1.4667967 1.45703,-1.4667969 z m 2.47071,0.9238281 c 0.38082,0.2545633 0.76637,0.4323997 1.12695,0.8886719 l 0.0176,0.021484 12.62695,12.7343749 c 0.37192,0.371984 0.57528,0.75943 0.82813,1.144532 h -13.16602 c -0.0687,0 -0.13319,-0.01063 -0.19922,-0.01953 -0.70854,-0.123274 -1.23436,-0.730184 -1.23437,-1.478515 z M 141.90355,29.5626 c -0.95219,0 -1.71875,0.766562 -1.71875,1.71875 v 1.71875 c -1.90438,0 -3.4375,1.533125 -3.4375,3.4375 v 13.75 c 0,1.904375 1.53312,3.4375 3.4375,3.4375 h 20.625 c 1.90438,0 3.4375,-1.533125 3.4375,-3.4375 v -13.75 c 0,-1.904375 -1.53312,-3.4375 -3.4375,-3.4375 v -1.71875 c 0,-0.952188 -0.76656,-1.71875 -1.71875,-1.71875 z m 0,1.71875 h 17.1875 v 1.71875 1.71875 4.087891 l -7.66797,6.107422 c -0.52523,0.418257 -1.32641,0.418256 -1.85156,0 l -7.66797,-6.107422 V 34.71885 33.0001 Z m 2.57812,1.71875 c -0.47609,0 -0.85937,0.383281 -0.85937,0.859375 0,0.476094 0.38328,0.859375 0.85937,0.859375 h 12.03125 c 0.4761,0 0.85938,-0.383281 0.85938,-0.859375 0,-0.476094 -0.38328,-0.859375 -0.85938,-0.859375 z m -4.29687,1.71875 v 2.722656 l -1.6543,-1.320312 c 0.15195,-0.794664 0.81404,-1.402344 1.6543,-1.402344 z m 20.625,0 c 0.84026,0 1.50234,0.60768 1.6543,1.402344 l -1.6543,1.320312 z m -16.32813,1.71875 c -0.47609,0 -0.85937,0.383281 -0.85937,0.859375 0,0.476094 0.38328,0.859375 0.85937,0.859375 h 12.03125 c 0.4761,0 0.85938,-0.383281 0.85938,-0.859375 0,-0.476094 -0.38328,-0.859375 -0.85938,-0.859375 z m -6.01562,1.802734 6.36719,5.072266 -6.36719,5.072266 z m 24.0625,0 V 48.384866 L 156.16136,43.3126 Z m -16.33203,6.160157 2.01172,1.601562 c 1.25618,1.00033 3.32189,1.00033 4.57812,0 l 2.01172,-1.601562 7.66602,6.103515 c -0.15196,0.794664 -0.81404,1.402344 -1.6543,1.402344 h -20.625 c -0.84026,0 -1.50234,-0.60768 -1.6543,-1.402344 z"
       transform="translate(-118.4973,-1.0001)" />
  </g>
</svg>
