<?xml version="1.0" encoding="UTF-8" standalone="no"?>
<svg
   width="43.546024"
   height="55.538212"
   version="1.1"
   viewBox="0 0 11.521325 14.694196"
   id="svg16"
   xmlns:xlink="http://www.w3.org/1999/xlink"
   xmlns="http://www.w3.org/2000/svg"
   xmlns:svg="http://www.w3.org/2000/svg">
  <defs
     id="defs16">
    <linearGradient
       id="linearGradient17">
      <stop
         style="stop-color:#00abff;stop-opacity:0;"
         offset="0"
         id="stop18" />
      <stop
         style="stop-color:#00abff;stop-opacity:1;"
         offset="1"
         id="stop17" />
    </linearGradient>
    <linearGradient
       xlink:href="#linearGradient17"
       id="linearGradient18"
       x1="150.26183"
       y1="64.998032"
       x2="150.26183"
       y2="26.15773"
       gradientUnits="userSpaceOnUse" />
    <filter
       style="color-interpolation-filters:sRGB"
       id="filter18"
       x="-0.030947895"
       y="-0.023945385"
       width="1.0618958"
       height="1.0478908">
      <feGaussianBlur
         stdDeviation="0.52879019"
         id="feGaussianBlur18" />
    </filter>
  </defs>
  <g
     id="g18"
     transform="translate(-2.7058126,-1.252208)">
    <path
       id="path1"
       style="display:inline;opacity:0.6;fill:#00abff;fill-opacity:1;stroke:none;filter:url(#filter18)"
       d="m 151.80425,7.0003988 -0.004,0.00195 -19.35338,0.00391 c -1.35355,0 -2.45701,1.1084419 -2.45701,2.4648263 V 57.533244 c 0,1.356386 1.10341,2.466779 2.45701,2.466779 h 36.09349 c 1.35354,0 2.45702,-1.110394 2.45702,-2.466779 V 26.183857 c 0,-0.440775 -0.10327,-0.93783 -0.29297,-1.464834 h 0.0606 l -0.35547,-0.722651 c -0.0256,-0.05172 -0.0587,-0.104196 -0.0859,-0.156249 l -0.0605,-0.124999 h -0.008 c -0.33863,-0.618179 -0.7885,-1.252809 -1.38476,-1.849596 l -0.002,-0.002 -12.60343,-12.7108477 c -0.59286,-0.7367819 -1.25379,-1.2334398 -1.89842,-1.5585827 -0.0858,-0.043269 -0.17088,-0.083655 -0.25586,-0.1210929 l -0.0859,-0.037109 -0.0312,-0.00195 C 153.20912,7.101048 152.46836,7.0003988 151.90972,7.0003988 Z m 0.11524,1.001946 c 0.37972,7.572e-4 0.91294,0.1248382 1.44725,0.3105447 V 22.248338 c 0,1.22231 0.89864,2.235567 2.06639,2.425764 0.12732,0.02382 0.25744,0.03745 0.39063,0.04101 0.0224,5.98e-4 0.0439,0.0039 0.0664,0.0039 h 13.69327 c 0.23563,0.562366 0.41405,1.117879 0.41405,1.464834 v 31.349387 c 0,0.822556 -0.64277,1.466786 -1.45702,1.466786 h -36.09349 c -0.81435,0 -1.45702,-0.644172 -1.45702,-1.466786 V 9.4710844 c 0,-0.8225555 0.64276,-1.4667865 1.45702,-1.4667865 z m 2.47068,0.9238216 c 0.38082,0.2545631 0.76637,0.4323933 1.12695,0.8886655 l 0.0176,0.021484 12.62686,12.7342851 c 0.37192,0.371983 0.57527,0.759422 0.82812,1.144523 h -13.16592 c -0.059,0 -0.1149,-0.011 -0.17188,-0.01758 -0.72221,-0.112338 -1.2617,-0.72263 -1.26171,-1.480458 z M 147.18124,26.76979 c -0.90737,0 -1.59706,0.376021 -2.06639,1.126945 -0.43805,0.719621 -0.65625,1.814566 -0.65625,3.285133 0,1.470544 0.2182,2.581084 0.65625,3.332008 0.46933,0.719642 1.15902,1.078117 2.06639,1.078117 0.93866,0 1.62639,-0.358475 2.06444,-1.078117 0.46933,-0.750902 0.70507,-1.861441 0.70507,-3.332008 0,-1.470544 -0.23574,-2.56549 -0.70507,-3.285133 -0.43805,-0.750924 -1.12578,-1.126945 -2.06444,-1.126945 z m 6.61714,0 c -0.90737,0 -1.59511,0.376021 -2.06444,1.126945 -0.43804,0.719621 -0.6582,1.814566 -0.6582,3.285133 0,1.470544 0.22016,2.581084 0.6582,3.332008 0.46933,0.719642 1.15707,1.078117 2.06444,1.078117 0.93866,0 1.62639,-0.358475 2.06444,-1.078117 0.46933,-0.750902 0.70507,-1.861441 0.70507,-3.332008 0,-1.470544 -0.23574,-2.56549 -0.70507,-3.285133 -0.43805,-0.750924 -1.12578,-1.126945 -2.06444,-1.126945 z m 6.61909,0 c -0.90735,0 -1.59706,0.376021 -2.06639,1.126945 -0.43804,0.719621 -0.65624,1.814566 -0.65624,3.285133 0,1.470544 0.2182,2.581084 0.65624,3.332008 0.46933,0.719642 1.15904,1.078117 2.06639,1.078117 0.93866,0 1.6264,-0.358475 2.06444,-1.078117 0.46933,-0.750902 0.70312,-1.861441 0.70312,-3.332008 0,-1.470544 -0.23379,-2.56549 -0.70312,-3.285133 -0.43804,-0.750924 -1.12578,-1.126945 -2.06444,-1.126945 z m -19.85337,0.140624 -2.25389,1.78319 0.56445,0.705074 1.59569,-1.361319 c -0.0313,0.657058 -0.0469,1.360389 -0.0469,2.111313 v 5.349572 h 1.03124 v -8.58783 z m 6.61714,0.796869 c 0.53191,0 0.9391,0.25134 1.22069,0.751948 0.31288,0.500609 0.46875,1.40852 0.46875,2.722637 0,1.345398 -0.15587,2.26695 -0.46875,2.767559 -0.28159,0.500608 -0.68878,0.751947 -1.22069,0.751947 -0.50063,0 -0.90782,-0.235745 -1.22069,-0.705073 -0.2816,-0.500608 -0.42188,-1.437732 -0.42188,-2.814433 0,-1.345398 0.14028,-2.25331 0.42188,-2.722637 0.3129,-0.500608 0.72008,-0.751948 1.22069,-0.751948 z m 6.61714,0 c 0.53191,0 0.9391,0.25134 1.2207,0.751948 0.31287,0.500609 0.46874,1.40852 0.46874,2.722637 0,1.345398 -0.15587,2.26695 -0.46874,2.767559 -0.2816,0.500608 -0.68879,0.751947 -1.2207,0.751947 -0.50063,0 -0.90782,-0.235745 -1.22069,-0.705073 -0.2816,-0.500608 -0.42188,-1.437732 -0.42188,-2.814433 0,-1.345398 0.14028,-2.25331 0.42188,-2.722637 0.3129,-0.500608 0.72008,-0.751948 1.22069,-0.751948 z m 6.61909,0 c 0.53192,0 0.9391,0.25134 1.2207,0.751948 0.31288,0.500609 0.46875,1.40852 0.46875,2.722637 0,1.345398 -0.15587,2.26695 -0.46875,2.767559 -0.2816,0.500608 -0.68878,0.751947 -1.2207,0.751947 -0.50063,0 -0.90781,-0.235745 -1.22069,-0.705073 -0.2816,-0.500608 -0.42187,-1.437732 -0.42187,-2.814433 0,-1.345398 0.14027,-2.25331 0.42187,-2.722637 0.3129,-0.500608 0.72009,-0.751948 1.22069,-0.751948 z m -19.85337,9.650323 c -0.90737,0 -1.59706,0.376021 -2.06639,1.126945 -0.43805,0.71962 -0.65625,1.814566 -0.65625,3.285133 0,1.470544 0.2182,2.581083 0.65625,3.332007 0.46933,0.719643 1.15902,1.080071 2.06639,1.080071 0.93865,0 1.62639,-0.360428 2.06444,-1.080071 0.46933,-0.750901 0.70312,-1.861441 0.70312,-3.332007 0,-1.470545 -0.23379,-2.565491 -0.70312,-3.285133 -0.43805,-0.750924 -1.12579,-1.126945 -2.06444,-1.126945 z m 13.23428,0 c -0.90737,0 -1.59511,0.376021 -2.06444,1.126945 -0.43804,0.71962 -0.6582,1.814566 -0.6582,3.285133 0,1.470544 0.22016,2.581083 0.6582,3.332007 0.46933,0.719643 1.15707,1.080071 2.06444,1.080071 0.93866,0 1.62639,-0.360428 2.06444,-1.080071 0.46933,-0.750901 0.70507,-1.861441 0.70507,-3.332007 0,-1.470545 -0.23574,-2.565491 -0.70507,-3.285133 -0.43805,-0.750924 -1.12578,-1.126945 -2.06444,-1.126945 z m 6.61909,0 c -0.90735,0 -1.59706,0.376021 -2.06639,1.126945 -0.43804,0.71962 -0.65624,1.814566 -0.65624,3.285133 0,1.470544 0.2182,2.581083 0.65624,3.332007 0.46933,0.719643 1.15904,1.080071 2.06639,1.080071 0.93866,0 1.6264,-0.360428 2.06444,-1.080071 0.46933,-0.750901 0.70312,-1.861441 0.70312,-3.332007 0,-1.470545 -0.23379,-2.565491 -0.70312,-3.285133 -0.43804,-0.750924 -1.12578,-1.126945 -2.06444,-1.126945 z m -13.23623,0.140624 -2.25389,1.785143 0.56445,0.70312 1.59569,-1.361318 c -0.0313,0.657058 -0.0469,1.362342 -0.0469,2.113266 v 5.349571 h 1.03124 V 37.49823 Z m -6.61714,0.798822 c 0.53191,0 0.93714,0.249386 1.21874,0.749995 0.31288,0.500608 0.4707,1.40852 0.4707,2.722637 0,1.345397 -0.15782,2.268903 -0.4707,2.769511 -0.2816,0.500609 -0.68683,0.749995 -1.21874,0.749995 -0.50063,0 -0.90782,-0.233793 -1.22069,-0.70312 -0.2816,-0.500609 -0.42188,-1.439685 -0.42188,-2.816386 0,-1.345398 0.14028,-2.25331 0.42188,-2.722637 0.31289,-0.500609 0.72008,-0.749995 1.22069,-0.749995 z m 13.23428,0 c 0.53191,0 0.9391,0.249386 1.2207,0.749995 0.31287,0.500608 0.46874,1.40852 0.46874,2.722637 0,1.345397 -0.15587,2.268903 -0.46874,2.769511 -0.2816,0.500609 -0.68879,0.749995 -1.2207,0.749995 -0.50063,0 -0.90782,-0.233793 -1.22069,-0.70312 -0.2816,-0.500609 -0.42188,-1.439685 -0.42188,-2.816386 0,-1.345398 0.14028,-2.25331 0.42188,-2.722637 0.3129,-0.500609 0.72008,-0.749995 1.22069,-0.749995 z m 6.61909,0 c 0.53192,0 0.9391,0.249386 1.2207,0.749995 0.31288,0.500608 0.46875,1.40852 0.46875,2.722637 0,1.345397 -0.15587,2.268903 -0.46875,2.769511 -0.2816,0.500609 -0.68878,0.749995 -1.2207,0.749995 -0.50063,0 -0.90781,-0.233793 -1.22069,-0.70312 -0.2816,-0.500609 -0.42187,-1.439685 -0.42187,-2.816386 0,-1.345398 0.14027,-2.25331 0.42187,-2.722637 0.3129,-0.500609 0.72009,-0.749995 1.22069,-0.749995 z m -19.88657,9.648369 c -0.90738,0 -1.59707,0.376021 -2.06639,1.126945 -0.43805,0.719621 -0.65625,1.814567 -0.65625,3.285133 0,1.470545 0.2182,2.581084 0.65625,3.332008 0.46932,0.719643 1.15901,1.08007 2.06639,1.08007 0.93865,0 1.62639,-0.360427 2.06444,-1.08007 0.46932,-0.750924 0.70312,-1.861463 0.70312,-3.332008 0,-1.470544 -0.2338,-2.56549 -0.70312,-3.285133 -0.43805,-0.750924 -1.12579,-1.126945 -2.06444,-1.126945 z m 6.61714,0 c -0.90738,0 -1.59511,0.376021 -2.06444,1.126945 -0.43805,0.719621 -0.6582,1.814567 -0.6582,3.285133 0,1.470545 0.22015,2.581084 0.6582,3.332008 0.46933,0.719643 1.15706,1.08007 2.06444,1.08007 0.93865,0 1.62639,-0.360427 2.06444,-1.08007 0.46932,-0.750924 0.70507,-1.861463 0.70507,-3.332008 0,-1.470544 -0.23575,-2.56549 -0.70507,-3.285133 -0.43805,-0.750924 -1.12579,-1.126945 -2.06444,-1.126945 z m 13.23623,0 c -0.90737,0 -1.59706,0.376021 -2.06639,1.126945 -0.43805,0.719621 -0.65625,1.814567 -0.65625,3.285133 0,1.470545 0.2182,2.581084 0.65625,3.332008 0.46933,0.719643 1.15902,1.08007 2.06639,1.08007 0.93863,0 1.62639,-0.360427 2.06444,-1.08007 0.46933,-0.750924 0.70312,-1.861463 0.70312,-3.332008 0,-1.470544 -0.23379,-2.56549 -0.70312,-3.285133 -0.43802,-0.750924 -1.12578,-1.126945 -2.06444,-1.126945 z m -6.61909,0.142577 -2.25194,1.783191 0.5625,0.70312 1.59569,-1.361319 c -0.0313,0.657059 -0.0469,1.362343 -0.0469,2.113267 v 5.349571 h 1.0332 v -8.58783 z m -13.23428,0.79687 c 0.53191,0 0.93714,0.249386 1.21874,0.749994 0.31288,0.500609 0.4707,1.40852 0.4707,2.722637 0,1.345398 -0.15782,2.268903 -0.4707,2.769512 -0.2816,0.500608 -0.68683,0.749995 -1.21874,0.749995 -0.50063,0 -0.90782,-0.233793 -1.2207,-0.703121 -0.28159,-0.50063 -0.42187,-1.439707 -0.42187,-2.816386 0,-1.345398 0.14028,-2.253309 0.42187,-2.722637 0.3129,-0.500608 0.72009,-0.749994 1.2207,-0.749994 z m 6.61714,0 c 0.53191,0 0.9391,0.249386 1.22069,0.749994 0.31288,0.500609 0.46875,1.40852 0.46875,2.722637 0,1.345398 -0.15587,2.268903 -0.46875,2.769512 -0.28159,0.500608 -0.68878,0.749995 -1.22069,0.749995 -0.50063,0 -0.90782,-0.233793 -1.2207,-0.703121 -0.28159,-0.50063 -0.42187,-1.439707 -0.42187,-2.816386 0,-1.345398 0.14028,-2.253309 0.42187,-2.722637 0.3129,-0.500608 0.72009,-0.749994 1.2207,-0.749994 z m 13.23623,0 c 0.53191,0 0.93715,0.249386 1.21874,0.749994 0.31288,0.500609 0.4707,1.40852 0.4707,2.722637 0,1.345398 -0.15782,2.268903 -0.4707,2.769512 -0.28159,0.500608 -0.68683,0.749995 -1.21874,0.749995 -0.50063,0 -0.90782,-0.233793 -1.22069,-0.703121 -0.2816,-0.50063 -0.42187,-1.439707 -0.42187,-2.816386 0,-1.345398 0.14027,-2.253309 0.42187,-2.722637 0.3129,-0.500608 0.72008,-0.749994 1.22069,-0.749994 z"
       transform="matrix(0.26458,0,0,0.26458,-31.351127,-0.26418)" />
    <path
       id="path17"
       style="fill:url(#linearGradient18);fill-opacity:1;stroke:none"
       d="m 151.80425,7.0003988 -0.004,0.00195 -19.35338,0.00391 c -1.35355,0 -2.45701,1.1084419 -2.45701,2.4648263 V 57.533244 c 0,1.356386 1.10341,2.466779 2.45701,2.466779 h 36.09349 c 1.35354,0 2.45702,-1.110394 2.45702,-2.466779 V 26.183857 c 0,-0.440775 -0.10327,-0.93783 -0.29297,-1.464834 h 0.0606 l -0.35547,-0.722651 c -0.0256,-0.05172 -0.0587,-0.104196 -0.0859,-0.156249 l -0.0605,-0.124999 h -0.008 c -0.33863,-0.618179 -0.7885,-1.252809 -1.38476,-1.849596 l -0.002,-0.002 -12.60343,-12.7108477 c -0.59286,-0.7367819 -1.25379,-1.2334398 -1.89842,-1.5585827 -0.0858,-0.043269 -0.17088,-0.083655 -0.25586,-0.1210929 l -0.0859,-0.037109 -0.0312,-0.00195 C 153.20912,7.101048 152.46836,7.0003988 151.90972,7.0003988 Z m 0.11524,1.001946 c 0.37972,7.572e-4 0.91294,0.1248382 1.44725,0.3105447 V 22.248338 c 0,1.22231 0.89864,2.235567 2.06639,2.425764 0.12732,0.02382 0.25744,0.03745 0.39063,0.04101 0.0224,5.98e-4 0.0439,0.0039 0.0664,0.0039 h 13.69327 c 0.23563,0.562366 0.41405,1.117879 0.41405,1.464834 v 31.349387 c 0,0.822556 -0.64277,1.466786 -1.45702,1.466786 h -36.09349 c -0.81435,0 -1.45702,-0.644172 -1.45702,-1.466786 V 9.4710844 c 0,-0.8225555 0.64276,-1.4667865 1.45702,-1.4667865 z m 2.47068,0.9238216 c 0.38082,0.2545631 0.76637,0.4323933 1.12695,0.8886655 l 0.0176,0.021484 12.62686,12.7342851 c 0.37192,0.371983 0.57527,0.759422 0.82812,1.144523 h -13.16592 c -0.059,0 -0.1149,-0.011 -0.17188,-0.01758 -0.72221,-0.112338 -1.2617,-0.72263 -1.26171,-1.480458 z M 147.18124,26.76979 c -0.90737,0 -1.59706,0.376021 -2.06639,1.126945 -0.43805,0.719621 -0.65625,1.814566 -0.65625,3.285133 0,1.470544 0.2182,2.581084 0.65625,3.332008 0.46933,0.719642 1.15902,1.078117 2.06639,1.078117 0.93866,0 1.62639,-0.358475 2.06444,-1.078117 0.46933,-0.750902 0.70507,-1.861441 0.70507,-3.332008 0,-1.470544 -0.23574,-2.56549 -0.70507,-3.285133 -0.43805,-0.750924 -1.12578,-1.126945 -2.06444,-1.126945 z m 6.61714,0 c -0.90737,0 -1.59511,0.376021 -2.06444,1.126945 -0.43804,0.719621 -0.6582,1.814566 -0.6582,3.285133 0,1.470544 0.22016,2.581084 0.6582,3.332008 0.46933,0.719642 1.15707,1.078117 2.06444,1.078117 0.93866,0 1.62639,-0.358475 2.06444,-1.078117 0.46933,-0.750902 0.70507,-1.861441 0.70507,-3.332008 0,-1.470544 -0.23574,-2.56549 -0.70507,-3.285133 -0.43805,-0.750924 -1.12578,-1.126945 -2.06444,-1.126945 z m 6.61909,0 c -0.90735,0 -1.59706,0.376021 -2.06639,1.126945 -0.43804,0.719621 -0.65624,1.814566 -0.65624,3.285133 0,1.470544 0.2182,2.581084 0.65624,3.332008 0.46933,0.719642 1.15904,1.078117 2.06639,1.078117 0.93866,0 1.6264,-0.358475 2.06444,-1.078117 0.46933,-0.750902 0.70312,-1.861441 0.70312,-3.332008 0,-1.470544 -0.23379,-2.56549 -0.70312,-3.285133 -0.43804,-0.750924 -1.12578,-1.126945 -2.06444,-1.126945 z m -19.85337,0.140624 -2.25389,1.78319 0.56445,0.705074 1.59569,-1.361319 c -0.0313,0.657058 -0.0469,1.360389 -0.0469,2.111313 v 5.349572 h 1.03124 v -8.58783 z m 6.61714,0.796869 c 0.53191,0 0.9391,0.25134 1.22069,0.751948 0.31288,0.500609 0.46875,1.40852 0.46875,2.722637 0,1.345398 -0.15587,2.26695 -0.46875,2.767559 -0.28159,0.500608 -0.68878,0.751947 -1.22069,0.751947 -0.50063,0 -0.90782,-0.235745 -1.22069,-0.705073 -0.2816,-0.500608 -0.42188,-1.437732 -0.42188,-2.814433 0,-1.345398 0.14028,-2.25331 0.42188,-2.722637 0.3129,-0.500608 0.72008,-0.751948 1.22069,-0.751948 z m 6.61714,0 c 0.53191,0 0.9391,0.25134 1.2207,0.751948 0.31287,0.500609 0.46874,1.40852 0.46874,2.722637 0,1.345398 -0.15587,2.26695 -0.46874,2.767559 -0.2816,0.500608 -0.68879,0.751947 -1.2207,0.751947 -0.50063,0 -0.90782,-0.235745 -1.22069,-0.705073 -0.2816,-0.500608 -0.42188,-1.437732 -0.42188,-2.814433 0,-1.345398 0.14028,-2.25331 0.42188,-2.722637 0.3129,-0.500608 0.72008,-0.751948 1.22069,-0.751948 z m 6.61909,0 c 0.53192,0 0.9391,0.25134 1.2207,0.751948 0.31288,0.500609 0.46875,1.40852 0.46875,2.722637 0,1.345398 -0.15587,2.26695 -0.46875,2.767559 -0.2816,0.500608 -0.68878,0.751947 -1.2207,0.751947 -0.50063,0 -0.90781,-0.235745 -1.22069,-0.705073 -0.2816,-0.500608 -0.42187,-1.437732 -0.42187,-2.814433 0,-1.345398 0.14027,-2.25331 0.42187,-2.722637 0.3129,-0.500608 0.72009,-0.751948 1.22069,-0.751948 z m -19.85337,9.650323 c -0.90737,0 -1.59706,0.376021 -2.06639,1.126945 -0.43805,0.71962 -0.65625,1.814566 -0.65625,3.285133 0,1.470544 0.2182,2.581083 0.65625,3.332007 0.46933,0.719643 1.15902,1.080071 2.06639,1.080071 0.93865,0 1.62639,-0.360428 2.06444,-1.080071 0.46933,-0.750901 0.70312,-1.861441 0.70312,-3.332007 0,-1.470545 -0.23379,-2.565491 -0.70312,-3.285133 -0.43805,-0.750924 -1.12579,-1.126945 -2.06444,-1.126945 z m 13.23428,0 c -0.90737,0 -1.59511,0.376021 -2.06444,1.126945 -0.43804,0.71962 -0.6582,1.814566 -0.6582,3.285133 0,1.470544 0.22016,2.581083 0.6582,3.332007 0.46933,0.719643 1.15707,1.080071 2.06444,1.080071 0.93866,0 1.62639,-0.360428 2.06444,-1.080071 0.46933,-0.750901 0.70507,-1.861441 0.70507,-3.332007 0,-1.470545 -0.23574,-2.565491 -0.70507,-3.285133 -0.43805,-0.750924 -1.12578,-1.126945 -2.06444,-1.126945 z m 6.61909,0 c -0.90735,0 -1.59706,0.376021 -2.06639,1.126945 -0.43804,0.71962 -0.65624,1.814566 -0.65624,3.285133 0,1.470544 0.2182,2.581083 0.65624,3.332007 0.46933,0.719643 1.15904,1.080071 2.06639,1.080071 0.93866,0 1.6264,-0.360428 2.06444,-1.080071 0.46933,-0.750901 0.70312,-1.861441 0.70312,-3.332007 0,-1.470545 -0.23379,-2.565491 -0.70312,-3.285133 -0.43804,-0.750924 -1.12578,-1.126945 -2.06444,-1.126945 z m -13.23623,0.140624 -2.25389,1.785143 0.56445,0.70312 1.59569,-1.361318 c -0.0313,0.657058 -0.0469,1.362342 -0.0469,2.113266 v 5.349571 h 1.03124 V 37.49823 Z m -6.61714,0.798822 c 0.53191,0 0.93714,0.249386 1.21874,0.749995 0.31288,0.500608 0.4707,1.40852 0.4707,2.722637 0,1.345397 -0.15782,2.268903 -0.4707,2.769511 -0.2816,0.500609 -0.68683,0.749995 -1.21874,0.749995 -0.50063,0 -0.90782,-0.233793 -1.22069,-0.70312 -0.2816,-0.500609 -0.42188,-1.439685 -0.42188,-2.816386 0,-1.345398 0.14028,-2.25331 0.42188,-2.722637 0.31289,-0.500609 0.72008,-0.749995 1.22069,-0.749995 z m 13.23428,0 c 0.53191,0 0.9391,0.249386 1.2207,0.749995 0.31287,0.500608 0.46874,1.40852 0.46874,2.722637 0,1.345397 -0.15587,2.268903 -0.46874,2.769511 -0.2816,0.500609 -0.68879,0.749995 -1.2207,0.749995 -0.50063,0 -0.90782,-0.233793 -1.22069,-0.70312 -0.2816,-0.500609 -0.42188,-1.439685 -0.42188,-2.816386 0,-1.345398 0.14028,-2.25331 0.42188,-2.722637 0.3129,-0.500609 0.72008,-0.749995 1.22069,-0.749995 z m 6.61909,0 c 0.53192,0 0.9391,0.249386 1.2207,0.749995 0.31288,0.500608 0.46875,1.40852 0.46875,2.722637 0,1.345397 -0.15587,2.268903 -0.46875,2.769511 -0.2816,0.500609 -0.68878,0.749995 -1.2207,0.749995 -0.50063,0 -0.90781,-0.233793 -1.22069,-0.70312 -0.2816,-0.500609 -0.42187,-1.439685 -0.42187,-2.816386 0,-1.345398 0.14027,-2.25331 0.42187,-2.722637 0.3129,-0.500609 0.72009,-0.749995 1.22069,-0.749995 z m -19.88657,9.648369 c -0.90738,0 -1.59707,0.376021 -2.06639,1.126945 -0.43805,0.719621 -0.65625,1.814567 -0.65625,3.285133 0,1.470545 0.2182,2.581084 0.65625,3.332008 0.46932,0.719643 1.15901,1.08007 2.06639,1.08007 0.93865,0 1.62639,-0.360427 2.06444,-1.08007 0.46932,-0.750924 0.70312,-1.861463 0.70312,-3.332008 0,-1.470544 -0.2338,-2.56549 -0.70312,-3.285133 -0.43805,-0.750924 -1.12579,-1.126945 -2.06444,-1.126945 z m 6.61714,0 c -0.90738,0 -1.59511,0.376021 -2.06444,1.126945 -0.43805,0.719621 -0.6582,1.814567 -0.6582,3.285133 0,1.470545 0.22015,2.581084 0.6582,3.332008 0.46933,0.719643 1.15706,1.08007 2.06444,1.08007 0.93865,0 1.62639,-0.360427 2.06444,-1.08007 0.46932,-0.750924 0.70507,-1.861463 0.70507,-3.332008 0,-1.470544 -0.23575,-2.56549 -0.70507,-3.285133 -0.43805,-0.750924 -1.12579,-1.126945 -2.06444,-1.126945 z m 13.23623,0 c -0.90737,0 -1.59706,0.376021 -2.06639,1.126945 -0.43805,0.719621 -0.65625,1.814567 -0.65625,3.285133 0,1.470545 0.2182,2.581084 0.65625,3.332008 0.46933,0.719643 1.15902,1.08007 2.06639,1.08007 0.93863,0 1.62639,-0.360427 2.06444,-1.08007 0.46933,-0.750924 0.70312,-1.861463 0.70312,-3.332008 0,-1.470544 -0.23379,-2.56549 -0.70312,-3.285133 -0.43802,-0.750924 -1.12578,-1.126945 -2.06444,-1.126945 z m -6.61909,0.142577 -2.25194,1.783191 0.5625,0.70312 1.59569,-1.361319 c -0.0313,0.657059 -0.0469,1.362343 -0.0469,2.113267 v 5.349571 h 1.0332 v -8.58783 z m -13.23428,0.79687 c 0.53191,0 0.93714,0.249386 1.21874,0.749994 0.31288,0.500609 0.4707,1.40852 0.4707,2.722637 0,1.345398 -0.15782,2.268903 -0.4707,2.769512 -0.2816,0.500608 -0.68683,0.749995 -1.21874,0.749995 -0.50063,0 -0.90782,-0.233793 -1.2207,-0.703121 -0.28159,-0.50063 -0.42187,-1.439707 -0.42187,-2.816386 0,-1.345398 0.14028,-2.253309 0.42187,-2.722637 0.3129,-0.500608 0.72009,-0.749994 1.2207,-0.749994 z m 6.61714,0 c 0.53191,0 0.9391,0.249386 1.22069,0.749994 0.31288,0.500609 0.46875,1.40852 0.46875,2.722637 0,1.345398 -0.15587,2.268903 -0.46875,2.769512 -0.28159,0.500608 -0.68878,0.749995 -1.22069,0.749995 -0.50063,0 -0.90782,-0.233793 -1.2207,-0.703121 -0.28159,-0.50063 -0.42187,-1.439707 -0.42187,-2.816386 0,-1.345398 0.14028,-2.253309 0.42187,-2.722637 0.3129,-0.500608 0.72009,-0.749994 1.2207,-0.749994 z m 13.23623,0 c 0.53191,0 0.93715,0.249386 1.21874,0.749994 0.31288,0.500609 0.4707,1.40852 0.4707,2.722637 0,1.345398 -0.15782,2.268903 -0.4707,2.769512 -0.28159,0.500608 -0.68683,0.749995 -1.21874,0.749995 -0.50063,0 -0.90782,-0.233793 -1.22069,-0.703121 -0.2816,-0.50063 -0.42187,-1.439707 -0.42187,-2.816386 0,-1.345398 0.14027,-2.253309 0.42187,-2.722637 0.3129,-0.500608 0.72008,-0.749994 1.22069,-0.749994 z"
       transform="matrix(0.26458,0,0,0.26458,-31.351127,-0.26418)" />
  </g>
</svg>
