<?xml version="1.0" encoding="UTF-8" standalone="no"?>
<svg
   width="64"
   height="64"
   version="1.1"
   viewBox="0 0 64 64"
   id="svg3"
   sodipodi:docname="IMAGES.svg"
   inkscape:version="1.4 (e7c3feb100, 2024-10-09)"
   xmlns:inkscape="http://www.inkscape.org/namespaces/inkscape"
   xmlns:sodipodi="http://sodipodi.sourceforge.net/DTD/sodipodi-0.dtd"
   xmlns="http://www.w3.org/2000/svg"
   xmlns:svg="http://www.w3.org/2000/svg">
  <defs
     id="defs3" />
  <sodipodi:namedview
     id="namedview3"
     pagecolor="#ffffff"
     bordercolor="#000000"
     borderopacity="0.25"
     inkscape:showpageshadow="2"
     inkscape:pageopacity="0.0"
     inkscape:pagecheckerboard="0"
     inkscape:deskcolor="#d1d1d1"
     showgrid="false"
     inkscape:zoom="8.625"
     inkscape:cx="31.884058"
     inkscape:cy="32"
     inkscape:window-width="1240"
     inkscape:window-height="755"
     inkscape:window-x="67"
     inkscape:window-y="27"
     inkscape:window-maximized="0"
     inkscape:current-layer="svg3" />
  <path
     id="path1"
     style="fill:#00abff;stroke:none;fill-opacity:1"
     d="M 151.80394 7.0001 L 151.80003 7.0020531 L 132.44652 7.0059594 C 131.09297 7.0059594 129.98949 8.1144187 129.98949 9.4708031 L 129.98949 57.533303 C 129.98949 58.889689 131.09292 60.0001 132.44652 60.0001 L 168.54027 60.0001 C 169.89381 60.0001 170.9973 58.889688 170.9973 57.533303 L 170.9973 26.183694 C 170.9973 25.742919 170.89403 25.245854 170.70433 24.71885 L 170.76488 24.71885 L 170.40941 23.996194 C 170.38381 23.944471 170.35075 23.891997 170.32347 23.839944 L 170.26292 23.714944 L 170.25511 23.714944 C 169.91649 23.096765 169.46661 22.462122 168.87035 21.865334 L 168.86839 21.863381 L 156.26488 9.1524437 C 155.67159 8.4151755 155.0115 7.918962 154.36644 7.59385 C 154.28115 7.5508633 154.19507 7.5099797 154.11058 7.4727562 L 154.02464 7.4356469 L 153.99339 7.4336937 C 153.20882 7.1007523 152.46804 7.0001 151.90941 7.0001 L 151.80394 7.0001 z M 151.91917 8.0020531 C 152.29889 8.0028103 152.83213 8.1268935 153.36644 8.3126 L 153.36644 22.248147 C 153.36644 23.470457 154.2651 24.483731 155.43285 24.673928 C 155.56016 24.69775 155.69029 24.711383 155.82347 24.714944 C 155.84584 24.715542 155.86737 24.71885 155.88988 24.71885 L 169.58324 24.71885 C 169.81887 25.281216 169.9973 25.836739 169.9973 26.183694 L 169.9973 57.533303 C 169.9973 58.355859 169.35452 59.0001 168.54027 59.0001 L 132.44652 59.0001 C 131.63217 59.0001 130.98949 58.355917 130.98949 57.533303 L 130.98949 9.4708031 C 130.98949 8.6482476 131.63226 8.0040064 132.44652 8.0040062 L 151.91917 8.0020531 z M 154.38988 8.9258812 C 154.7707 9.1804445 155.15625 9.3582809 155.51683 9.8145531 L 155.53441 9.8360375 L 168.16136 22.570412 C 168.53328 22.942396 168.73664 23.329842 168.98949 23.714944 L 155.82347 23.714944 C 155.75472 23.714944 155.69028 23.704315 155.62425 23.695412 C 154.91571 23.572138 154.38989 22.965228 154.38988 22.216897 L 154.38988 8.9258812 z M 140.97582 28.945412 C 139.21747 28.945412 137.80199 30.360894 137.80199 32.119241 L 137.80199 46.402444 C 137.80199 48.160791 139.21747 49.576272 140.97582 49.576272 L 160.01878 49.576272 C 161.77713 49.576272 163.19261 48.160791 163.19261 46.402444 L 163.19261 32.119241 C 163.19261 30.360894 161.77713 28.945412 160.01878 28.945412 L 140.97582 28.945412 z M 140.97582 30.533303 L 160.01878 30.533303 C 160.89796 30.533303 161.60667 31.240067 161.60667 32.119241 L 161.60667 46.402444 L 153.67113 38.466897 L 148.14964 44.814553 L 144.14964 41.640725 L 139.38792 46.402444 L 139.38792 32.119241 C 139.38792 31.240067 140.09664 30.533303 140.97582 30.533303 z M 144.94261 33.707131 C 143.62793 33.707131 142.56175 34.773308 142.56175 36.087991 C 142.56175 37.402673 143.62793 38.466897 144.94261 38.466897 C 146.25729 38.466897 147.32347 37.402673 147.32347 36.087991 C 147.32347 34.773308 146.25729 33.707131 144.94261 33.707131 z "
     transform="translate(-118.4973,-1.0001)" />
</svg>
