<?xml version="1.0" encoding="UTF-8" standalone="no"?>
<svg
   width="43.546024"
   height="55.538212"
   version="1.1"
   viewBox="0 0 43.546024 55.538212"
   id="svg3"
   xmlns:xlink="http://www.w3.org/1999/xlink"
   xmlns="http://www.w3.org/2000/svg"
   xmlns:svg="http://www.w3.org/2000/svg">
  <defs
     id="defs3">
    <linearGradient
       id="linearGradient25">
      <stop
         style="stop-color:#00abff;stop-opacity:0;"
         offset="0"
         id="stop26" />
      <stop
         style="stop-color:#00abff;stop-opacity:1;"
         offset="1"
         id="stop25" />
    </linearGradient>
    <linearGradient
       xlink:href="#linearGradient25"
       id="linearGradient26"
       x1="148.99005"
       y1="65.000099"
       x2="148.99005"
       y2="23.724737"
       gradientUnits="userSpaceOnUse" />
    <filter
       style="color-interpolation-filters:sRGB"
       id="filter26"
       x="-0.030947896"
       y="-0.023945386"
       width="1.0618958"
       height="1.0478908">
      <feGaussianBlur
         stdDeviation="0.52879393"
         id="feGaussianBlur26" />
    </filter>
  </defs>
  <g
     id="g26"
     transform="translate(-10.222995,-4.7308946)">
    <path
       id="path1"
       style="display:inline;opacity:0.6;fill:#00abff;fill-opacity:1;stroke:none;filter:url(#filter26)"
       d="m 151.80394,7.0001 -0.004,0.00195 -19.35351,0.00391 c -1.35355,0 -2.45703,1.1084593 -2.45703,2.4648437 V 57.533303 c 0,1.356386 1.10343,2.466797 2.45703,2.466797 h 36.09375 c 1.35354,0 2.45703,-1.110412 2.45703,-2.466797 V 26.183694 c 0,-0.440775 -0.10327,-0.93784 -0.29297,-1.464844 h 0.0606 l -0.35547,-0.722656 c -0.0256,-0.05172 -0.0587,-0.104197 -0.0859,-0.15625 l -0.0605,-0.125 h -0.008 c -0.33862,-0.618179 -0.7885,-1.252822 -1.38476,-1.84961 l -0.002,-0.002 L 156.26488,9.1524437 C 155.67159,8.4151755 155.0115,7.918962 154.36644,7.59385 154.28114,7.550863 154.19507,7.50998 154.11058,7.4727562 l -0.0859,-0.037109 -0.0312,-0.00195 C 153.20882,7.1007523 152.46804,7.0001 151.90941,7.0001 Z m 0.11523,1.0019531 c 0.37972,7.572e-4 0.91296,0.1248404 1.44727,0.3105469 v 13.935547 c 0,1.22231 0.89866,2.235584 2.06641,2.425781 0.12731,0.02382 0.25744,0.03746 0.39062,0.04102 0.0224,5.98e-4 0.0439,0.0039 0.0664,0.0039 h 13.69336 c 0.23563,0.562366 0.41406,1.117889 0.41406,1.464844 v 31.349609 c 0,0.822556 -0.64278,1.466797 -1.45703,1.466797 h -36.09375 c -0.81435,0 -1.45703,-0.644183 -1.45703,-1.466797 V 9.4708031 c 0,-0.8225555 0.64277,-1.4667967 1.45703,-1.4667969 z m 2.47071,0.9238281 c 0.38082,0.2545633 0.76637,0.4323997 1.12695,0.8886719 l 0.0176,0.021484 12.62695,12.7343749 c 0.37192,0.371984 0.57528,0.75943 0.82813,1.144532 h -13.16602 c -0.0687,0 -0.13319,-0.01063 -0.19922,-0.01953 -0.70854,-0.123274 -1.23436,-0.730184 -1.23437,-1.478515 z m -7.35156,18.2285158 v 19.546875 h 2.64257 v -7.855469 h 3.32618 c 2.1908,0 3.84373,-0.492223 4.96093,-1.478515 1.12595,-0.986294 1.68946,-2.444116 1.68946,-4.373047 0,-1.911502 -0.56351,-3.361364 -1.68946,-4.347657 -1.1172,-0.995034 -2.77013,-1.492187 -4.96093,-1.492187 z m 2.64257,2.173828 h 3.32618 c 1.23068,0 2.18143,0.31791 2.85351,0.955078 0.67208,0.637167 1.00977,1.54134 1.00977,2.710938 0,1.178284 -0.33769,2.085489 -1.00977,2.722656 -0.67208,0.637167 -1.62283,0.955078 -2.85351,0.955078 h -3.32618 z m -7.12304,5.15625 a 1.2216673,1.2216673 0 0 0 -1.22071,1.222656 1.2216673,1.2216673 0 0 0 1.22071,1.220703 1.2216673,1.2216673 0 0 0 1.22265,-1.220703 1.2216673,1.2216673 0 0 0 -1.22265,-1.222656 z m 5.04492,15.439453 c -0.67188,0 -1.1888,0.127604 -1.55078,0.382813 -0.35938,0.255208 -0.53907,0.618489 -0.53907,1.089843 0,0.20573 0.0339,0.388021 0.10157,0.546875 0.0703,0.158855 0.17057,0.298177 0.30078,0.417969 0.13021,0.117188 0.30729,0.223958 0.53125,0.320313 0.22656,0.09635 0.55729,0.192708 0.99219,0.289062 0.25,0.05729 0.47786,0.110677 0.68359,0.160156 0.20573,0.04948 0.38281,0.110677 0.53125,0.183594 0.14844,0.07292 0.26302,0.165365 0.34375,0.277344 0.0833,0.111979 0.125,0.257812 0.125,0.4375 0,0.320312 -0.13151,0.563802 -0.39453,0.730469 -0.26042,0.164062 -0.63151,0.246093 -1.11328,0.246093 -0.46615,0 -0.83464,-0.07682 -1.10547,-0.230468 -0.27083,-0.15625 -0.44792,-0.39974 -0.53125,-0.730469 l -0.72266,0.144531 c 0.21354,0.932292 0.99089,1.398438 2.33203,1.398438 0.72136,0 1.27995,-0.139323 1.67578,-0.417969 0.39844,-0.278646 0.59766,-0.671875 0.59766,-1.179688 0,-0.20052 -0.0286,-0.375 -0.0859,-0.523437 -0.0547,-0.148438 -0.13151,-0.277344 -0.23047,-0.386719 -0.099,-0.109375 -0.21614,-0.201823 -0.35156,-0.277344 -0.13281,-0.07552 -0.27604,-0.140625 -0.42969,-0.195312 -0.15364,-0.05729 -0.3151,-0.105469 -0.48437,-0.144531 -0.16667,-0.04167 -0.33464,-0.08203 -0.50391,-0.121094 -0.5052,-0.111979 -0.84244,-0.205729 -1.01172,-0.28125 -0.16927,-0.07813 -0.29947,-0.171875 -0.39062,-0.28125 -0.0885,-0.111979 -0.13281,-0.252604 -0.13281,-0.421875 0,-0.289063 0.11588,-0.506511 0.34765,-0.652344 0.23177,-0.145833 0.56771,-0.21875 1.00782,-0.21875 0.40104,0 0.71484,0.06641 0.9414,0.199219 0.22656,0.130208 0.38021,0.341146 0.46094,0.632812 l 0.73437,-0.128906 c -0.13281,-0.460937 -0.36458,-0.786458 -0.69531,-0.976562 -0.33073,-0.192709 -0.80859,-0.289063 -1.43359,-0.289063 z m 5.71094,0 c -0.83855,0 -1.4948,0.248698 -1.96875,0.746094 -0.47396,0.497396 -0.71094,1.184896 -0.71094,2.0625 0,0.585937 0.10547,1.09375 0.3164,1.523437 0.21355,0.427084 0.52214,0.756511 0.92579,0.988282 0.40625,0.229166 0.88671,0.34375 1.4414,0.34375 0.54167,0 1.01693,-0.123698 1.42578,-0.371094 0.41146,-0.247396 0.73047,-0.608073 0.95703,-1.082031 l -0.60937,-0.304688 c -0.38802,0.763021 -0.96745,1.144531 -1.73828,1.144531 -0.60156,0 -1.07943,-0.204427 -1.4336,-0.613281 -0.35156,-0.411458 -0.52734,-0.954427 -0.52734,-1.628906 0,-0.682292 0.16927,-1.21875 0.50781,-1.609375 0.33855,-0.393229 0.8125,-0.589844 1.42188,-0.589844 0.38802,0 0.72265,0.08464 1.0039,0.253906 0.28386,0.169271 0.48959,0.414063 0.61719,0.734375 l 0.70703,-0.234375 c -0.18489,-0.45052 -0.47395,-0.790364 -0.86718,-1.019531 -0.39323,-0.229167 -0.88282,-0.34375 -1.46875,-0.34375 z m -17.84375,0.08203 v 5.503907 h 0.74609 v -2.144532 h 1.61719 c 0.58333,0 1.04427,-0.153645 1.38281,-0.460937 0.34115,-0.307292 0.51172,-0.721354 0.51172,-1.242188 0,-0.526041 -0.16927,-0.933593 -0.50781,-1.222656 -0.33855,-0.289062 -0.81641,-0.433594 -1.4336,-0.433594 z m 6.34765,0 -2.24609,5.503907 h 0.77344 l 0.63281,-1.609375 h 2.50781 l 0.62891,1.609375 h 0.76172 l -2.21094,-5.503907 z m 16.44922,0 -2.24609,5.503907 h 0.77343 l 0.63282,-1.609375 h 2.50781 l 0.62891,1.609375 h 0.76171 l -2.21093,-5.503907 z m 3.73047,0 v 5.503907 h 3.52734 V 54.90049 h -2.78125 v -4.894532 z m -19.76563,0.5625 0.10547,0.324219 c 0.0729,0.226563 0.14584,0.429688 0.21875,0.609375 l 0.70703,1.816406 h -2.05859 l 0.70313,-1.808593 c 0.1276,-0.338542 0.22395,-0.615886 0.28906,-0.832032 z m 16.44922,0 0.10547,0.324219 c 0.0729,0.226563 0.14584,0.429688 0.21875,0.609375 l 0.70703,1.816406 h -2.05859 l 0.70312,-1.808593 c 0.12761,-0.338542 0.22396,-0.615886 0.28907,-0.832032 z m -22.46484,0.03516 h 1.48047 c 0.85417,0 1.28125,0.355468 1.28125,1.066406 0,0.736979 -0.41667,1.105469 -1.25,1.105469 h -1.51172 z"
       transform="translate(-118.4973,-1.0001)" />
    <path
       id="path25"
       style="fill:url(#linearGradient26);fill-opacity:1;stroke:none"
       d="m 151.80394,7.0001 -0.004,0.00195 -19.35351,0.00391 c -1.35355,0 -2.45703,1.1084593 -2.45703,2.4648437 V 57.533303 c 0,1.356386 1.10343,2.466797 2.45703,2.466797 h 36.09375 c 1.35354,0 2.45703,-1.110412 2.45703,-2.466797 V 26.183694 c 0,-0.440775 -0.10327,-0.93784 -0.29297,-1.464844 h 0.0606 l -0.35547,-0.722656 c -0.0256,-0.05172 -0.0587,-0.104197 -0.0859,-0.15625 l -0.0605,-0.125 h -0.008 c -0.33862,-0.618179 -0.7885,-1.252822 -1.38476,-1.84961 l -0.002,-0.002 L 156.26488,9.1524437 C 155.67159,8.4151755 155.0115,7.918962 154.36644,7.59385 154.28114,7.550863 154.19507,7.50998 154.11058,7.4727562 l -0.0859,-0.037109 -0.0312,-0.00195 C 153.20882,7.1007523 152.46804,7.0001 151.90941,7.0001 Z m 0.11523,1.0019531 c 0.37972,7.572e-4 0.91296,0.1248404 1.44727,0.3105469 v 13.935547 c 0,1.22231 0.89866,2.235584 2.06641,2.425781 0.12731,0.02382 0.25744,0.03746 0.39062,0.04102 0.0224,5.98e-4 0.0439,0.0039 0.0664,0.0039 h 13.69336 c 0.23563,0.562366 0.41406,1.117889 0.41406,1.464844 v 31.349609 c 0,0.822556 -0.64278,1.466797 -1.45703,1.466797 h -36.09375 c -0.81435,0 -1.45703,-0.644183 -1.45703,-1.466797 V 9.4708031 c 0,-0.8225555 0.64277,-1.4667967 1.45703,-1.4667969 z m 2.47071,0.9238281 c 0.38082,0.2545633 0.76637,0.4323997 1.12695,0.8886719 l 0.0176,0.021484 12.62695,12.7343749 c 0.37192,0.371984 0.57528,0.75943 0.82813,1.144532 h -13.16602 c -0.0687,0 -0.13319,-0.01063 -0.19922,-0.01953 -0.70854,-0.123274 -1.23436,-0.730184 -1.23437,-1.478515 z m -7.35156,18.2285158 v 19.546875 h 2.64257 v -7.855469 h 3.32618 c 2.1908,0 3.84373,-0.492223 4.96093,-1.478515 1.12595,-0.986294 1.68946,-2.444116 1.68946,-4.373047 0,-1.911502 -0.56351,-3.361364 -1.68946,-4.347657 -1.1172,-0.995034 -2.77013,-1.492187 -4.96093,-1.492187 z m 2.64257,2.173828 h 3.32618 c 1.23068,0 2.18143,0.31791 2.85351,0.955078 0.67208,0.637167 1.00977,1.54134 1.00977,2.710938 0,1.178284 -0.33769,2.085489 -1.00977,2.722656 -0.67208,0.637167 -1.62283,0.955078 -2.85351,0.955078 h -3.32618 z m -7.12304,5.15625 a 1.2216673,1.2216673 0 0 0 -1.22071,1.222656 1.2216673,1.2216673 0 0 0 1.22071,1.220703 1.2216673,1.2216673 0 0 0 1.22265,-1.220703 1.2216673,1.2216673 0 0 0 -1.22265,-1.222656 z m 5.04492,15.439453 c -0.67188,0 -1.1888,0.127604 -1.55078,0.382813 -0.35938,0.255208 -0.53907,0.618489 -0.53907,1.089843 0,0.20573 0.0339,0.388021 0.10157,0.546875 0.0703,0.158855 0.17057,0.298177 0.30078,0.417969 0.13021,0.117188 0.30729,0.223958 0.53125,0.320313 0.22656,0.09635 0.55729,0.192708 0.99219,0.289062 0.25,0.05729 0.47786,0.110677 0.68359,0.160156 0.20573,0.04948 0.38281,0.110677 0.53125,0.183594 0.14844,0.07292 0.26302,0.165365 0.34375,0.277344 0.0833,0.111979 0.125,0.257812 0.125,0.4375 0,0.320312 -0.13151,0.563802 -0.39453,0.730469 -0.26042,0.164062 -0.63151,0.246093 -1.11328,0.246093 -0.46615,0 -0.83464,-0.07682 -1.10547,-0.230468 -0.27083,-0.15625 -0.44792,-0.39974 -0.53125,-0.730469 l -0.72266,0.144531 c 0.21354,0.932292 0.99089,1.398438 2.33203,1.398438 0.72136,0 1.27995,-0.139323 1.67578,-0.417969 0.39844,-0.278646 0.59766,-0.671875 0.59766,-1.179688 0,-0.20052 -0.0286,-0.375 -0.0859,-0.523437 -0.0547,-0.148438 -0.13151,-0.277344 -0.23047,-0.386719 -0.099,-0.109375 -0.21614,-0.201823 -0.35156,-0.277344 -0.13281,-0.07552 -0.27604,-0.140625 -0.42969,-0.195312 -0.15364,-0.05729 -0.3151,-0.105469 -0.48437,-0.144531 -0.16667,-0.04167 -0.33464,-0.08203 -0.50391,-0.121094 -0.5052,-0.111979 -0.84244,-0.205729 -1.01172,-0.28125 -0.16927,-0.07813 -0.29947,-0.171875 -0.39062,-0.28125 -0.0885,-0.111979 -0.13281,-0.252604 -0.13281,-0.421875 0,-0.289063 0.11588,-0.506511 0.34765,-0.652344 0.23177,-0.145833 0.56771,-0.21875 1.00782,-0.21875 0.40104,0 0.71484,0.06641 0.9414,0.199219 0.22656,0.130208 0.38021,0.341146 0.46094,0.632812 l 0.73437,-0.128906 c -0.13281,-0.460937 -0.36458,-0.786458 -0.69531,-0.976562 -0.33073,-0.192709 -0.80859,-0.289063 -1.43359,-0.289063 z m 5.71094,0 c -0.83855,0 -1.4948,0.248698 -1.96875,0.746094 -0.47396,0.497396 -0.71094,1.184896 -0.71094,2.0625 0,0.585937 0.10547,1.09375 0.3164,1.523437 0.21355,0.427084 0.52214,0.756511 0.92579,0.988282 0.40625,0.229166 0.88671,0.34375 1.4414,0.34375 0.54167,0 1.01693,-0.123698 1.42578,-0.371094 0.41146,-0.247396 0.73047,-0.608073 0.95703,-1.082031 l -0.60937,-0.304688 c -0.38802,0.763021 -0.96745,1.144531 -1.73828,1.144531 -0.60156,0 -1.07943,-0.204427 -1.4336,-0.613281 -0.35156,-0.411458 -0.52734,-0.954427 -0.52734,-1.628906 0,-0.682292 0.16927,-1.21875 0.50781,-1.609375 0.33855,-0.393229 0.8125,-0.589844 1.42188,-0.589844 0.38802,0 0.72265,0.08464 1.0039,0.253906 0.28386,0.169271 0.48959,0.414063 0.61719,0.734375 l 0.70703,-0.234375 c -0.18489,-0.45052 -0.47395,-0.790364 -0.86718,-1.019531 -0.39323,-0.229167 -0.88282,-0.34375 -1.46875,-0.34375 z m -17.84375,0.08203 v 5.503907 h 0.74609 v -2.144532 h 1.61719 c 0.58333,0 1.04427,-0.153645 1.38281,-0.460937 0.34115,-0.307292 0.51172,-0.721354 0.51172,-1.242188 0,-0.526041 -0.16927,-0.933593 -0.50781,-1.222656 -0.33855,-0.289062 -0.81641,-0.433594 -1.4336,-0.433594 z m 6.34765,0 -2.24609,5.503907 h 0.77344 l 0.63281,-1.609375 h 2.50781 l 0.62891,1.609375 h 0.76172 l -2.21094,-5.503907 z m 16.44922,0 -2.24609,5.503907 h 0.77343 l 0.63282,-1.609375 h 2.50781 l 0.62891,1.609375 h 0.76171 l -2.21093,-5.503907 z m 3.73047,0 v 5.503907 h 3.52734 V 54.90049 h -2.78125 v -4.894532 z m -19.76563,0.5625 0.10547,0.324219 c 0.0729,0.226563 0.14584,0.429688 0.21875,0.609375 l 0.70703,1.816406 h -2.05859 l 0.70313,-1.808593 c 0.1276,-0.338542 0.22395,-0.615886 0.28906,-0.832032 z m 16.44922,0 0.10547,0.324219 c 0.0729,0.226563 0.14584,0.429688 0.21875,0.609375 l 0.70703,1.816406 h -2.05859 l 0.70312,-1.808593 c 0.12761,-0.338542 0.22396,-0.615886 0.28907,-0.832032 z m -22.46484,0.03516 h 1.48047 c 0.85417,0 1.28125,0.355468 1.28125,1.066406 0,0.736979 -0.41667,1.105469 -1.25,1.105469 h -1.51172 z"
       transform="translate(-118.4973,-1.0001)" />
  </g>
</svg>
