<?xml version="1.0" encoding="UTF-8" standalone="no"?>
<svg
   width="43.546024"
   height="55.538212"
   version="1.1"
   viewBox="0 0 43.546024 55.538212"
   id="svg3"
   xmlns:xlink="http://www.w3.org/1999/xlink"
   xmlns="http://www.w3.org/2000/svg"
   xmlns:svg="http://www.w3.org/2000/svg">
  <defs
     id="defs3">
    <linearGradient
       id="linearGradient20">
      <stop
         style="stop-color:#039bfc;stop-opacity:0;"
         offset="0"
         id="stop21" />
      <stop
         style="stop-color:#039bfc;stop-opacity:1;"
         offset="1"
         id="stop20" />
    </linearGradient>
    <linearGradient
       xlink:href="#linearGradient20"
       id="linearGradient21"
       x1="150.96107"
       y1="65.000099"
       x2="150.96107"
       y2="24.072563"
       gradientUnits="userSpaceOnUse" />
    <filter
       style="color-interpolation-filters:sRGB"
       id="filter21"
       x="-0.030947896"
       y="-0.023945386"
       width="1.0618958"
       height="1.0478908">
      <feGaussianBlur
         stdDeviation="0.52879393"
         id="feGaussianBlur21" />
    </filter>
  </defs>
  <g
     id="g21"
     transform="translate(-10.222995,-4.7308946)">
    <path
       id="path1"
       style="display:inline;opacity:0.6;fill:#039bfc;filter:url(#filter21)"
       d="m 151.80394,7.0001 -0.004,0.00195 -19.35351,0.00391 c -1.35355,0 -2.45703,1.1084593 -2.45703,2.4648437 V 57.533303 c 0,1.356386 1.10343,2.466797 2.45703,2.466797 h 36.09375 c 1.35354,0 2.45703,-1.110412 2.45703,-2.466797 V 26.183694 c 0,-0.440775 -0.10327,-0.93784 -0.29297,-1.464844 h 0.0606 l -0.35547,-0.722656 c -0.0256,-0.05172 -0.0587,-0.104197 -0.0859,-0.15625 l -0.0605,-0.125 h -0.008 c -0.33862,-0.618179 -0.7885,-1.252822 -1.38476,-1.84961 l -0.002,-0.002 L 156.26488,9.1524437 C 155.67159,8.4151755 155.0115,7.918962 154.36644,7.59385 154.28114,7.550863 154.19507,7.50998 154.11058,7.4727562 l -0.0859,-0.037109 -0.0312,-0.00195 C 153.20882,7.1007523 152.46804,7.0001 151.90941,7.0001 Z m 0.11523,1.0019531 c 0.37972,7.572e-4 0.91296,0.1248404 1.44727,0.3105469 v 13.935547 c 0,1.22231 0.89866,2.235584 2.06641,2.425781 0.12731,0.02382 0.25744,0.03746 0.39062,0.04102 0.0224,5.98e-4 0.0439,0.0039 0.0664,0.0039 h 13.69336 c 0.23563,0.562366 0.41406,1.117889 0.41406,1.464844 v 31.349609 c 0,0.822556 -0.64278,1.466797 -1.45703,1.466797 h -36.09375 c -0.81435,0 -1.45703,-0.644183 -1.45703,-1.466797 V 9.4708031 c 0,-0.8225555 0.64277,-1.4667967 1.45703,-1.4667969 z m 2.47071,0.9238281 c 0.38082,0.2545633 0.76637,0.4323997 1.12695,0.8886719 l 0.0176,0.021484 12.62695,12.7343749 c 0.37192,0.371984 0.57528,0.75943 0.82813,1.144532 h -13.16602 c -0.0687,0 -0.13319,-0.01063 -0.19922,-0.01953 -0.70854,-0.123274 -1.23436,-0.730184 -1.23437,-1.478515 z m 7.76172,20.9648438 v 1.541016 l 0.45703,0.03906 c 0.43207,0.05451 0.74158,0.227894 0.89844,0.501953 0.12153,0.212355 0.13659,0.380287 0.16796,1.927735 0.0319,1.574724 0.0439,1.715573 0.17579,1.966797 0.19526,0.37192 0.57862,0.706667 1.02539,0.894531 l 0.37695,0.158203 -0.4082,0.1875 c -0.54615,0.251506 -0.81429,0.46998 -0.99024,0.804687 -0.13765,0.261797 -0.14992,0.382231 -0.18164,1.97461 -0.0303,1.516894 -0.0475,1.722998 -0.16406,1.960937 -0.15932,0.325333 -0.47202,0.499866 -0.90039,0.5 h -0.45703 v 0.763672 0.765625 l 0.6875,-0.002 c 1.01384,-0.0021 1.97945,-0.318076 2.30859,-0.755859 0.3439,-0.457377 0.37948,-0.670643 0.42188,-2.634766 0.0363,-1.679245 0.0504,-1.849504 0.17578,-2.09375 0.18367,-0.357683 0.56935,-0.572887 1.11328,-0.617187 l 0.42187,-0.0332 v -1.626953 l -0.39648,-0.03516 c -0.5145,-0.04733 -0.97394,-0.281683 -1.14453,-0.582031 -0.12098,-0.212989 -0.1339,-0.389837 -0.16992,-2.09375 -0.0312,-1.476968 -0.0627,-1.921479 -0.14649,-2.146485 -0.31057,-0.834301 -1.02842,-1.235789 -2.47266,-1.318359 z m -21.49219,0.0039 -1.58789,0.0332 c -1.68844,0.03598 -2.03979,0.09013 -2.6543,0.408203 -0.37548,0.194347 -0.61893,0.449154 -0.77148,0.804688 -0.11693,0.272579 -0.13264,0.533483 -0.17969,3.025391 -0.0171,0.905908 -0.037,1.064401 -0.16211,1.30664 -0.1787,0.346019 -0.53881,0.533433 -1.14648,0.595703 l -0.44336,0.04492 v 1.626953 l 0.42187,0.0332 c 0.61134,0.04976 0.97606,0.249503 1.16406,0.636718 0.14382,0.296225 0.15493,0.403727 0.18946,2.140625 0.0332,1.662435 0.0483,1.857555 0.17187,2.132813 0.26324,0.586425 0.72362,0.911772 1.54883,1.09375 0.22296,0.04916 0.64785,0.09085 0.94531,0.09375 l 0.6875,0.0059 v -1.513672 l -0.50976,-0.03125 c -0.22127,-0.01861 -0.43287,-0.08092 -0.54102,-0.162109 -0.34933,-0.262255 -0.37083,-0.383872 -0.40625,-2.216797 -0.0311,-1.608166 -0.0401,-1.712075 -0.18555,-2.011719 -0.19265,-0.39687 -0.52596,-0.679526 -1.01562,-0.861328 l -0.38086,-0.140625 0.4707,-0.251953 c 0.57272,-0.305775 0.7376,-0.458055 0.92969,-0.853516 0.13849,-0.28509 0.15063,-0.411912 0.18164,-1.966796 0.0284,-1.431052 0.0495,-1.69601 0.15235,-1.906251 0.13842,-0.282834 0.38827,-0.420048 0.88085,-0.486328 l 0.34375,-0.04687 0.002,3.679688 c 0.002,3.997068 0.0306,4.406364 0.35547,5.080078 0.34686,0.719243 0.98918,1.080251 2.03711,1.144531 0.33284,0.02043 0.84292,-6.35e-4 1.16406,-0.04687 l 0.57226,-0.08203 V 40.82045 c 0,-0.210594 -0.0192,-0.51523 -0.041,-0.675782 l -0.0391,-0.291015 h -0.74219 c -0.84865,0 -1.01033,-0.07036 -1.24414,-0.53711 -0.12679,-0.253021 -0.13207,-0.413217 -0.15039,-4.841797 z m 5.64062,3.011719 c -0.3539,1.87e-4 -0.70753,0.02459 -0.92968,0.07227 -0.85686,0.183917 -1.61056,0.694868 -2.10547,1.429687 -0.58812,0.873206 -0.8515,2.142805 -0.70508,3.402344 0.12961,1.114739 0.49865,1.92935 1.17187,2.585937 0.37185,0.362653 1.21105,0.78441 1.75,0.88086 0.21561,0.03857 0.46573,0.08326 0.55665,0.09961 h 0.002 c 0.34551,0.06139 1.57905,-0.03515 2.06836,-0.162109 0.28132,-0.07302 0.70781,-0.223981 0.94726,-0.335938 l 0.43555,-0.203125 -0.26367,-1.36914 -0.39844,0.1875 c -0.62973,0.298939 -1.34802,0.458984 -2.06836,0.458984 -0.77052,0 -1.12936,-0.110703 -1.53906,-0.476562 -0.47405,-0.423337 -0.67461,-0.851675 -0.78125,-1.667969 l -0.0312,-0.25 h 5.36719 v -0.810547 c 0,-0.959543 -0.11,-1.484752 -0.44922,-2.146484 -0.43253,-0.843852 -1.19487,-1.434423 -2.09571,-1.625 -0.22416,-0.0475 -0.57773,-0.0705 -0.93164,-0.07031 z m 6.72266,0.01172 c -1.08043,0.01832 -1.73819,0.250192 -2.25781,0.777344 -0.68654,0.696514 -0.71706,2.179786 -0.0606,2.902343 0.38686,0.425766 0.80857,0.672944 1.94336,1.138672 1.19498,0.490432 1.49436,0.67528 1.62891,1.001953 0.20481,0.497338 -0.11584,1.055082 -0.70118,1.216797 -0.61574,0.170138 -2.12166,-0.07481 -2.88281,-0.46875 -0.14018,-0.07252 -0.2668,-0.132812 -0.28125,-0.132812 -0.0143,0 -0.0618,0.276862 -0.10547,0.615234 -0.0437,0.338373 -0.0928,0.664909 -0.10937,0.724609 -0.0546,0.19618 0.98536,0.546036 1.95703,0.658204 0.60968,0.07037 1.64359,0.01812 2.11133,-0.105469 0.77009,-0.203474 1.35037,-0.651319 1.65625,-1.283203 0.16506,-0.340945 0.18164,-0.442659 0.18164,-1.107422 0,-0.667053 -0.0157,-0.762629 -0.17774,-1.074219 -0.32244,-0.620184 -0.94371,-1.037252 -2.30273,-1.548828 -1.23889,-0.466328 -1.61719,-0.734214 -1.61719,-1.146484 0,-0.874792 1.28435,-1.103334 2.91602,-0.517579 0.28791,0.103353 0.52775,0.183182 0.53515,0.175782 0.007,-0.0073 0.11559,-0.304361 0.24024,-0.658203 l 0.22656,-0.642579 -0.25586,-0.103515 c -0.70677,-0.286888 -1.21089,-0.385549 -2.1543,-0.417969 -0.1724,-0.0059 -0.33588,-0.0065 -0.49023,-0.0039 z m 5.94141,0.002 c -0.21487,0.01126 -0.38095,0.03574 -0.55078,0.07617 -1.20964,0.28805 -1.80672,0.938433 -1.8711,2.041015 -0.0763,1.306091 0.47552,1.93121 2.36719,2.681641 1.47073,0.58343 1.80727,0.867163 1.72851,1.462891 -0.0448,0.338901 -0.36961,0.662729 -0.77734,0.77539 -0.61187,0.169081 -2.11974,-0.08064 -2.88476,-0.476562 -0.14509,-0.07509 -0.2702,-0.126865 -0.2793,-0.115235 -0.009,0.0117 -0.0607,0.342227 -0.11328,0.734375 l -0.0957,0.712891 0.39844,0.160156 c 0.4917,0.197272 0.94554,0.307937 1.56055,0.378907 0.60968,0.07037 1.64554,0.02007 2.11328,-0.103516 0.50477,-0.133382 0.84923,-0.324905 1.21484,-0.671875 0.43402,-0.411882 0.60483,-0.836442 0.64063,-1.597656 0.0639,-1.357929 -0.4677,-1.966817 -2.33985,-2.683594 -1.51203,-0.578918 -1.74414,-0.743792 -1.74414,-1.242188 0,-0.251224 0.0333,-0.329258 0.21094,-0.490234 0.45829,-0.415411 1.38389,-0.427304 2.53711,-0.03516 0.36325,0.123512 0.66768,0.218337 0.67578,0.210937 0.008,-0.0074 0.11642,-0.301829 0.24219,-0.654297 l 0.23047,-0.640625 -0.375,-0.142578 c -0.73676,-0.279665 -1.09607,-0.346486 -2.04688,-0.378906 -0.36436,-0.01244 -0.62693,-0.01322 -0.84179,-0.002 z M 146.343,34.24233 c 0.13315,0.0032 0.26848,0.02068 0.40821,0.05469 0.71758,0.174613 1.17016,0.770093 1.23828,1.630859 l 0.0352,0.433594 h -3.57617 l 0.043,-0.283203 c 0.1744,-1.146437 0.91956,-1.85807 1.85156,-1.835937 z m 6.27735,15.154296 c -0.67188,0 -1.18881,0.127605 -1.55078,0.382813 -0.35938,0.255209 -0.53907,0.61849 -0.53907,1.089844 0,0.205729 0.0339,0.388021 0.10157,0.546875 0.0703,0.158854 0.17057,0.298176 0.30078,0.417968 0.1302,0.117188 0.30729,0.223959 0.53125,0.320313 0.22656,0.09635 0.55729,0.192708 0.99218,0.289062 0.25,0.05729 0.47787,0.110677 0.6836,0.160157 0.20573,0.04948 0.38281,0.110677 0.53125,0.183593 0.14844,0.07292 0.26302,0.165365 0.34375,0.277344 0.0833,0.111979 0.125,0.257812 0.125,0.4375 0,0.320312 -0.13151,0.563802 -0.39453,0.730469 -0.26042,0.164063 -0.63151,0.246094 -1.11328,0.246094 -0.46615,0 -0.83464,-0.07682 -1.10547,-0.230469 -0.27084,-0.15625 -0.44792,-0.39974 -0.53125,-0.730469 l -0.72266,0.144531 c 0.21354,0.932292 0.99089,1.398438 2.33203,1.398438 0.72136,0 1.27995,-0.139324 1.67578,-0.417969 0.39844,-0.278646 0.59766,-0.671875 0.59766,-1.179687 0,-0.200521 -0.0286,-0.375001 -0.0859,-0.523438 -0.0547,-0.148438 -0.13151,-0.277344 -0.23047,-0.386719 -0.099,-0.109375 -0.21614,-0.201823 -0.35156,-0.277343 -0.13281,-0.07552 -0.27604,-0.140626 -0.42969,-0.195313 -0.15364,-0.05729 -0.3151,-0.105471 -0.48437,-0.144531 -0.16667,-0.04167 -0.33464,-0.08203 -0.50391,-0.121094 -0.50521,-0.111979 -0.84245,-0.205729 -1.01172,-0.28125 -0.16927,-0.07813 -0.29948,-0.171875 -0.39062,-0.28125 -0.0885,-0.111979 -0.13281,-0.252604 -0.13281,-0.421875 0,-0.289063 0.11588,-0.50651 0.34765,-0.652344 0.23177,-0.145833 0.56771,-0.21875 1.00781,-0.21875 0.40105,0 0.71485,0.06641 0.94141,0.199219 0.22656,0.130208 0.38021,0.341146 0.46094,0.632813 l 0.73437,-0.128907 c -0.13281,-0.460937 -0.36458,-0.786457 -0.69531,-0.976562 -0.33073,-0.192708 -0.80859,-0.289063 -1.43359,-0.289063 z m 5.33593,0 c -0.67187,0 -1.1888,0.127605 -1.55078,0.382813 -0.35937,0.255209 -0.53906,0.61849 -0.53906,1.089844 0,0.205729 0.0339,0.388021 0.10156,0.546875 0.0703,0.158854 0.17058,0.298176 0.30078,0.417968 0.13021,0.117188 0.3073,0.223959 0.53125,0.320313 0.22657,0.09635 0.5573,0.192708 0.99219,0.289062 0.25,0.05729 0.47787,0.110677 0.6836,0.160157 0.20572,0.04948 0.38281,0.110677 0.53125,0.183593 0.14843,0.07292 0.26302,0.165365 0.34375,0.277344 0.0833,0.111979 0.125,0.257812 0.125,0.4375 0,0.320312 -0.13151,0.563802 -0.39454,0.730469 -0.26041,0.164063 -0.63151,0.246094 -1.11328,0.246094 -0.46614,0 -0.83463,-0.07682 -1.10547,-0.230469 -0.27083,-0.15625 -0.44791,-0.39974 -0.53125,-0.730469 l -0.72265,0.144531 c 0.21354,0.932292 0.99088,1.398438 2.33203,1.398438 0.72135,0 1.27995,-0.139324 1.67578,-0.417969 0.39844,-0.278646 0.59766,-0.671875 0.59766,-1.179687 0,-0.200521 -0.0286,-0.375001 -0.0859,-0.523438 -0.0547,-0.148438 -0.13151,-0.277344 -0.23047,-0.386719 -0.099,-0.109375 -0.21615,-0.201823 -0.35156,-0.277343 -0.13281,-0.07552 -0.27604,-0.140626 -0.42969,-0.195313 -0.15365,-0.05729 -0.3151,-0.105471 -0.48437,-0.144531 -0.16667,-0.04167 -0.33464,-0.08203 -0.50391,-0.121094 -0.50521,-0.111979 -0.84245,-0.205729 -1.01172,-0.28125 -0.16927,-0.07813 -0.29948,-0.171875 -0.39062,-0.28125 -0.0885,-0.111979 -0.13282,-0.252604 -0.13282,-0.421875 0,-0.289063 0.11589,-0.50651 0.34766,-0.652344 0.23177,-0.145833 0.56771,-0.21875 1.00781,-0.21875 0.40104,0 0.71485,0.06641 0.94141,0.199219 0.22656,0.130208 0.38021,0.341146 0.46094,0.632813 l 0.73437,-0.128907 c -0.13281,-0.460937 -0.36458,-0.786457 -0.69531,-0.976562 -0.33073,-0.192708 -0.8086,-0.289063 -1.4336,-0.289063 z m -17.17578,0.08203 v 5.503906 h 3.52735 v -0.609375 h -2.78125 v -4.894531 z m 4.44922,0 v 5.503906 h 4.33594 v -0.609375 h -3.58984 v -1.917969 h 3.19531 v -0.601562 h -3.19531 v -1.765625 h 3.42968 v -0.609375 z"
       transform="translate(-118.4973,-1.0001)" />
    <path
       id="path20"
       style="fill:url(#linearGradient21);fill-opacity:1"
       d="m 151.80394,7.0001 -0.004,0.00195 -19.35351,0.00391 c -1.35355,0 -2.45703,1.1084593 -2.45703,2.4648437 V 57.533303 c 0,1.356386 1.10343,2.466797 2.45703,2.466797 h 36.09375 c 1.35354,0 2.45703,-1.110412 2.45703,-2.466797 V 26.183694 c 0,-0.440775 -0.10327,-0.93784 -0.29297,-1.464844 h 0.0606 l -0.35547,-0.722656 c -0.0256,-0.05172 -0.0587,-0.104197 -0.0859,-0.15625 l -0.0605,-0.125 h -0.008 c -0.33862,-0.618179 -0.7885,-1.252822 -1.38476,-1.84961 l -0.002,-0.002 L 156.26488,9.1524437 C 155.67159,8.4151755 155.0115,7.918962 154.36644,7.59385 154.28114,7.550863 154.19507,7.50998 154.11058,7.4727562 l -0.0859,-0.037109 -0.0312,-0.00195 C 153.20882,7.1007523 152.46804,7.0001 151.90941,7.0001 Z m 0.11523,1.0019531 c 0.37972,7.572e-4 0.91296,0.1248404 1.44727,0.3105469 v 13.935547 c 0,1.22231 0.89866,2.235584 2.06641,2.425781 0.12731,0.02382 0.25744,0.03746 0.39062,0.04102 0.0224,5.98e-4 0.0439,0.0039 0.0664,0.0039 h 13.69336 c 0.23563,0.562366 0.41406,1.117889 0.41406,1.464844 v 31.349609 c 0,0.822556 -0.64278,1.466797 -1.45703,1.466797 h -36.09375 c -0.81435,0 -1.45703,-0.644183 -1.45703,-1.466797 V 9.4708031 c 0,-0.8225555 0.64277,-1.4667967 1.45703,-1.4667969 z m 2.47071,0.9238281 c 0.38082,0.2545633 0.76637,0.4323997 1.12695,0.8886719 l 0.0176,0.021484 12.62695,12.7343749 c 0.37192,0.371984 0.57528,0.75943 0.82813,1.144532 h -13.16602 c -0.0687,0 -0.13319,-0.01063 -0.19922,-0.01953 -0.70854,-0.123274 -1.23436,-0.730184 -1.23437,-1.478515 z m 7.76172,20.9648438 v 1.541016 l 0.45703,0.03906 c 0.43207,0.05451 0.74158,0.227894 0.89844,0.501953 0.12153,0.212355 0.13659,0.380287 0.16796,1.927735 0.0319,1.574724 0.0439,1.715573 0.17579,1.966797 0.19526,0.37192 0.57862,0.706667 1.02539,0.894531 l 0.37695,0.158203 -0.4082,0.1875 c -0.54615,0.251506 -0.81429,0.46998 -0.99024,0.804687 -0.13765,0.261797 -0.14992,0.382231 -0.18164,1.97461 -0.0303,1.516894 -0.0475,1.722998 -0.16406,1.960937 -0.15932,0.325333 -0.47202,0.499866 -0.90039,0.5 h -0.45703 v 0.763672 0.765625 l 0.6875,-0.002 c 1.01384,-0.0021 1.97945,-0.318076 2.30859,-0.755859 0.3439,-0.457377 0.37948,-0.670643 0.42188,-2.634766 0.0363,-1.679245 0.0504,-1.849504 0.17578,-2.09375 0.18367,-0.357683 0.56935,-0.572887 1.11328,-0.617187 l 0.42187,-0.0332 v -1.626953 l -0.39648,-0.03516 c -0.5145,-0.04733 -0.97394,-0.281683 -1.14453,-0.582031 -0.12098,-0.212989 -0.1339,-0.389837 -0.16992,-2.09375 -0.0312,-1.476968 -0.0627,-1.921479 -0.14649,-2.146485 -0.31057,-0.834301 -1.02842,-1.235789 -2.47266,-1.318359 z m -21.49219,0.0039 -1.58789,0.0332 c -1.68844,0.03598 -2.03979,0.09013 -2.6543,0.408203 -0.37548,0.194347 -0.61893,0.449154 -0.77148,0.804688 -0.11693,0.272579 -0.13264,0.533483 -0.17969,3.025391 -0.0171,0.905908 -0.037,1.064401 -0.16211,1.30664 -0.1787,0.346019 -0.53881,0.533433 -1.14648,0.595703 l -0.44336,0.04492 v 1.626953 l 0.42187,0.0332 c 0.61134,0.04976 0.97606,0.249503 1.16406,0.636718 0.14382,0.296225 0.15493,0.403727 0.18946,2.140625 0.0332,1.662435 0.0483,1.857555 0.17187,2.132813 0.26324,0.586425 0.72362,0.911772 1.54883,1.09375 0.22296,0.04916 0.64785,0.09085 0.94531,0.09375 l 0.6875,0.0059 v -1.513672 l -0.50976,-0.03125 c -0.22127,-0.01861 -0.43287,-0.08092 -0.54102,-0.162109 -0.34933,-0.262255 -0.37083,-0.383872 -0.40625,-2.216797 -0.0311,-1.608166 -0.0401,-1.712075 -0.18555,-2.011719 -0.19265,-0.39687 -0.52596,-0.679526 -1.01562,-0.861328 l -0.38086,-0.140625 0.4707,-0.251953 c 0.57272,-0.305775 0.7376,-0.458055 0.92969,-0.853516 0.13849,-0.28509 0.15063,-0.411912 0.18164,-1.966796 0.0284,-1.431052 0.0495,-1.69601 0.15235,-1.906251 0.13842,-0.282834 0.38827,-0.420048 0.88085,-0.486328 l 0.34375,-0.04687 0.002,3.679688 c 0.002,3.997068 0.0306,4.406364 0.35547,5.080078 0.34686,0.719243 0.98918,1.080251 2.03711,1.144531 0.33284,0.02043 0.84292,-6.35e-4 1.16406,-0.04687 l 0.57226,-0.08203 V 40.82045 c 0,-0.210594 -0.0192,-0.51523 -0.041,-0.675782 l -0.0391,-0.291015 h -0.74219 c -0.84865,0 -1.01033,-0.07036 -1.24414,-0.53711 -0.12679,-0.253021 -0.13207,-0.413217 -0.15039,-4.841797 z m 5.64062,3.011719 c -0.3539,1.87e-4 -0.70753,0.02459 -0.92968,0.07227 -0.85686,0.183917 -1.61056,0.694868 -2.10547,1.429687 -0.58812,0.873206 -0.8515,2.142805 -0.70508,3.402344 0.12961,1.114739 0.49865,1.92935 1.17187,2.585937 0.37185,0.362653 1.21105,0.78441 1.75,0.88086 0.21561,0.03857 0.46573,0.08326 0.55665,0.09961 h 0.002 c 0.34551,0.06139 1.57905,-0.03515 2.06836,-0.162109 0.28132,-0.07302 0.70781,-0.223981 0.94726,-0.335938 l 0.43555,-0.203125 -0.26367,-1.36914 -0.39844,0.1875 c -0.62973,0.298939 -1.34802,0.458984 -2.06836,0.458984 -0.77052,0 -1.12936,-0.110703 -1.53906,-0.476562 -0.47405,-0.423337 -0.67461,-0.851675 -0.78125,-1.667969 l -0.0312,-0.25 h 5.36719 v -0.810547 c 0,-0.959543 -0.11,-1.484752 -0.44922,-2.146484 -0.43253,-0.843852 -1.19487,-1.434423 -2.09571,-1.625 -0.22416,-0.0475 -0.57773,-0.0705 -0.93164,-0.07031 z m 6.72266,0.01172 c -1.08043,0.01832 -1.73819,0.250192 -2.25781,0.777344 -0.68654,0.696514 -0.71706,2.179786 -0.0606,2.902343 0.38686,0.425766 0.80857,0.672944 1.94336,1.138672 1.19498,0.490432 1.49436,0.67528 1.62891,1.001953 0.20481,0.497338 -0.11584,1.055082 -0.70118,1.216797 -0.61574,0.170138 -2.12166,-0.07481 -2.88281,-0.46875 -0.14018,-0.07252 -0.2668,-0.132812 -0.28125,-0.132812 -0.0143,0 -0.0618,0.276862 -0.10547,0.615234 -0.0437,0.338373 -0.0928,0.664909 -0.10937,0.724609 -0.0546,0.19618 0.98536,0.546036 1.95703,0.658204 0.60968,0.07037 1.64359,0.01812 2.11133,-0.105469 0.77009,-0.203474 1.35037,-0.651319 1.65625,-1.283203 0.16506,-0.340945 0.18164,-0.442659 0.18164,-1.107422 0,-0.667053 -0.0157,-0.762629 -0.17774,-1.074219 -0.32244,-0.620184 -0.94371,-1.037252 -2.30273,-1.548828 -1.23889,-0.466328 -1.61719,-0.734214 -1.61719,-1.146484 0,-0.874792 1.28435,-1.103334 2.91602,-0.517579 0.28791,0.103353 0.52775,0.183182 0.53515,0.175782 0.007,-0.0073 0.11559,-0.304361 0.24024,-0.658203 l 0.22656,-0.642579 -0.25586,-0.103515 c -0.70677,-0.286888 -1.21089,-0.385549 -2.1543,-0.417969 -0.1724,-0.0059 -0.33588,-0.0065 -0.49023,-0.0039 z m 5.94141,0.002 c -0.21487,0.01126 -0.38095,0.03574 -0.55078,0.07617 -1.20964,0.28805 -1.80672,0.938433 -1.8711,2.041015 -0.0763,1.306091 0.47552,1.93121 2.36719,2.681641 1.47073,0.58343 1.80727,0.867163 1.72851,1.462891 -0.0448,0.338901 -0.36961,0.662729 -0.77734,0.77539 -0.61187,0.169081 -2.11974,-0.08064 -2.88476,-0.476562 -0.14509,-0.07509 -0.2702,-0.126865 -0.2793,-0.115235 -0.009,0.0117 -0.0607,0.342227 -0.11328,0.734375 l -0.0957,0.712891 0.39844,0.160156 c 0.4917,0.197272 0.94554,0.307937 1.56055,0.378907 0.60968,0.07037 1.64554,0.02007 2.11328,-0.103516 0.50477,-0.133382 0.84923,-0.324905 1.21484,-0.671875 0.43402,-0.411882 0.60483,-0.836442 0.64063,-1.597656 0.0639,-1.357929 -0.4677,-1.966817 -2.33985,-2.683594 -1.51203,-0.578918 -1.74414,-0.743792 -1.74414,-1.242188 0,-0.251224 0.0333,-0.329258 0.21094,-0.490234 0.45829,-0.415411 1.38389,-0.427304 2.53711,-0.03516 0.36325,0.123512 0.66768,0.218337 0.67578,0.210937 0.008,-0.0074 0.11642,-0.301829 0.24219,-0.654297 l 0.23047,-0.640625 -0.375,-0.142578 c -0.73676,-0.279665 -1.09607,-0.346486 -2.04688,-0.378906 -0.36436,-0.01244 -0.62693,-0.01322 -0.84179,-0.002 z M 146.343,34.24233 c 0.13315,0.0032 0.26848,0.02068 0.40821,0.05469 0.71758,0.174613 1.17016,0.770093 1.23828,1.630859 l 0.0352,0.433594 h -3.57617 l 0.043,-0.283203 c 0.1744,-1.146437 0.91956,-1.85807 1.85156,-1.835937 z m 6.27735,15.154296 c -0.67188,0 -1.18881,0.127605 -1.55078,0.382813 -0.35938,0.255209 -0.53907,0.61849 -0.53907,1.089844 0,0.205729 0.0339,0.388021 0.10157,0.546875 0.0703,0.158854 0.17057,0.298176 0.30078,0.417968 0.1302,0.117188 0.30729,0.223959 0.53125,0.320313 0.22656,0.09635 0.55729,0.192708 0.99218,0.289062 0.25,0.05729 0.47787,0.110677 0.6836,0.160157 0.20573,0.04948 0.38281,0.110677 0.53125,0.183593 0.14844,0.07292 0.26302,0.165365 0.34375,0.277344 0.0833,0.111979 0.125,0.257812 0.125,0.4375 0,0.320312 -0.13151,0.563802 -0.39453,0.730469 -0.26042,0.164063 -0.63151,0.246094 -1.11328,0.246094 -0.46615,0 -0.83464,-0.07682 -1.10547,-0.230469 -0.27084,-0.15625 -0.44792,-0.39974 -0.53125,-0.730469 l -0.72266,0.144531 c 0.21354,0.932292 0.99089,1.398438 2.33203,1.398438 0.72136,0 1.27995,-0.139324 1.67578,-0.417969 0.39844,-0.278646 0.59766,-0.671875 0.59766,-1.179687 0,-0.200521 -0.0286,-0.375001 -0.0859,-0.523438 -0.0547,-0.148438 -0.13151,-0.277344 -0.23047,-0.386719 -0.099,-0.109375 -0.21614,-0.201823 -0.35156,-0.277343 -0.13281,-0.07552 -0.27604,-0.140626 -0.42969,-0.195313 -0.15364,-0.05729 -0.3151,-0.105471 -0.48437,-0.144531 -0.16667,-0.04167 -0.33464,-0.08203 -0.50391,-0.121094 -0.50521,-0.111979 -0.84245,-0.205729 -1.01172,-0.28125 -0.16927,-0.07813 -0.29948,-0.171875 -0.39062,-0.28125 -0.0885,-0.111979 -0.13281,-0.252604 -0.13281,-0.421875 0,-0.289063 0.11588,-0.50651 0.34765,-0.652344 0.23177,-0.145833 0.56771,-0.21875 1.00781,-0.21875 0.40105,0 0.71485,0.06641 0.94141,0.199219 0.22656,0.130208 0.38021,0.341146 0.46094,0.632813 l 0.73437,-0.128907 c -0.13281,-0.460937 -0.36458,-0.786457 -0.69531,-0.976562 -0.33073,-0.192708 -0.80859,-0.289063 -1.43359,-0.289063 z m 5.33593,0 c -0.67187,0 -1.1888,0.127605 -1.55078,0.382813 -0.35937,0.255209 -0.53906,0.61849 -0.53906,1.089844 0,0.205729 0.0339,0.388021 0.10156,0.546875 0.0703,0.158854 0.17058,0.298176 0.30078,0.417968 0.13021,0.117188 0.3073,0.223959 0.53125,0.320313 0.22657,0.09635 0.5573,0.192708 0.99219,0.289062 0.25,0.05729 0.47787,0.110677 0.6836,0.160157 0.20572,0.04948 0.38281,0.110677 0.53125,0.183593 0.14843,0.07292 0.26302,0.165365 0.34375,0.277344 0.0833,0.111979 0.125,0.257812 0.125,0.4375 0,0.320312 -0.13151,0.563802 -0.39454,0.730469 -0.26041,0.164063 -0.63151,0.246094 -1.11328,0.246094 -0.46614,0 -0.83463,-0.07682 -1.10547,-0.230469 -0.27083,-0.15625 -0.44791,-0.39974 -0.53125,-0.730469 l -0.72265,0.144531 c 0.21354,0.932292 0.99088,1.398438 2.33203,1.398438 0.72135,0 1.27995,-0.139324 1.67578,-0.417969 0.39844,-0.278646 0.59766,-0.671875 0.59766,-1.179687 0,-0.200521 -0.0286,-0.375001 -0.0859,-0.523438 -0.0547,-0.148438 -0.13151,-0.277344 -0.23047,-0.386719 -0.099,-0.109375 -0.21615,-0.201823 -0.35156,-0.277343 -0.13281,-0.07552 -0.27604,-0.140626 -0.42969,-0.195313 -0.15365,-0.05729 -0.3151,-0.105471 -0.48437,-0.144531 -0.16667,-0.04167 -0.33464,-0.08203 -0.50391,-0.121094 -0.50521,-0.111979 -0.84245,-0.205729 -1.01172,-0.28125 -0.16927,-0.07813 -0.29948,-0.171875 -0.39062,-0.28125 -0.0885,-0.111979 -0.13282,-0.252604 -0.13282,-0.421875 0,-0.289063 0.11589,-0.50651 0.34766,-0.652344 0.23177,-0.145833 0.56771,-0.21875 1.00781,-0.21875 0.40104,0 0.71485,0.06641 0.94141,0.199219 0.22656,0.130208 0.38021,0.341146 0.46094,0.632813 l 0.73437,-0.128907 c -0.13281,-0.460937 -0.36458,-0.786457 -0.69531,-0.976562 -0.33073,-0.192708 -0.8086,-0.289063 -1.4336,-0.289063 z m -17.17578,0.08203 v 5.503906 h 3.52735 v -0.609375 h -2.78125 v -4.894531 z m 4.44922,0 v 5.503906 h 4.33594 v -0.609375 h -3.58984 v -1.917969 h 3.19531 v -0.601562 h -3.19531 v -1.765625 h 3.42968 v -0.609375 z"
       transform="translate(-118.4973,-1.0001)" />
  </g>
</svg>
