<?xml version="1.0" encoding="UTF-8" standalone="no"?>
<svg
   width="43.546024"
   height="55.538212"
   version="1.1"
   viewBox="0 0 43.546024 55.538212"
   id="svg3"
   xmlns:xlink="http://www.w3.org/1999/xlink"
   xmlns="http://www.w3.org/2000/svg"
   xmlns:svg="http://www.w3.org/2000/svg">
  <defs
     id="defs3">
    <linearGradient
       id="linearGradient13">
      <stop
         style="stop-color:#039bfc;stop-opacity:0;"
         offset="0"
         id="stop14" />
      <stop
         style="stop-color:#039bfc;stop-opacity:1;"
         offset="1"
         id="stop13" />
    </linearGradient>
    <linearGradient
       xlink:href="#linearGradient13"
       id="linearGradient14"
       x1="151.19295"
       y1="65.000099"
       x2="151.19295"
       y2="23.145027"
       gradientUnits="userSpaceOnUse" />
    <filter
       style="color-interpolation-filters:sRGB"
       id="filter14"
       x="-0.030947896"
       y="-0.023945386"
       width="1.0618958"
       height="1.0478908">
      <feGaussianBlur
         stdDeviation="0.52879393"
         id="feGaussianBlur14" />
    </filter>
  </defs>
  <g
     id="g14"
     transform="translate(-10.222995,-4.7308946)">
    <path
       id="path1"
       style="display:inline;opacity:0.6;fill:#039bfc;filter:url(#filter14)"
       d="m 151.80394,7.0001 -0.004,0.00195 -19.35351,0.00391 c -1.35355,0 -2.45703,1.1084593 -2.45703,2.4648437 V 57.533303 c 0,1.356386 1.10343,2.466797 2.45703,2.466797 h 36.09375 c 1.35354,0 2.45703,-1.110412 2.45703,-2.466797 V 26.183694 c 0,-0.440775 -0.10327,-0.93784 -0.29297,-1.464844 h 0.0606 l -0.35547,-0.722656 c -0.0256,-0.05172 -0.0587,-0.104197 -0.0859,-0.15625 l -0.0605,-0.125 h -0.008 c -0.33862,-0.618179 -0.7885,-1.252822 -1.38476,-1.84961 l -0.002,-0.002 L 156.26488,9.1524437 C 155.67159,8.4151755 155.0115,7.918962 154.36644,7.59385 154.28114,7.550863 154.19507,7.50998 154.11058,7.4727562 l -0.0859,-0.037109 -0.0312,-0.00195 C 153.20882,7.1007523 152.46804,7.0001 151.90941,7.0001 Z m 0.11523,1.0019531 c 0.37972,7.572e-4 0.91296,0.1248404 1.44727,0.3105469 v 13.935547 c 0,1.22231 0.89866,2.235584 2.06641,2.425781 0.12731,0.02382 0.25744,0.03746 0.39062,0.04102 0.0224,5.98e-4 0.0439,0.0039 0.0664,0.0039 h 13.69336 c 0.23563,0.562366 0.41406,1.117889 0.41406,1.464844 v 31.349609 c 0,0.822556 -0.64278,1.466797 -1.45703,1.466797 h -36.09375 c -0.81435,0 -1.45703,-0.644183 -1.45703,-1.466797 V 9.4708031 c 0,-0.8225555 0.64277,-1.4667967 1.45703,-1.4667969 z m 2.47071,0.9238281 c 0.38082,0.2545633 0.76637,0.4323997 1.12695,0.8886719 l 0.0176,0.021484 12.62695,12.7343749 c 0.37192,0.371984 0.57528,0.75943 0.82813,1.144532 h -13.16602 c -0.0687,0 -0.13319,-0.01063 -0.19922,-0.01953 -0.70854,-0.123274 -1.23436,-0.730184 -1.23437,-1.478515 z m -3.76367,18.7695308 c -1.72985,0 -3.39536,0.323295 -4.9961,0.96875 -1.57488,0.619629 -2.96818,1.523287 -4.18164,2.710938 -1.18765,1.187652 -2.14427,2.658412 -2.86719,4.414063 -0.72291,1.729923 -1.08398,3.692155 -1.08398,5.886718 0,2.220365 0.36107,4.195958 1.08398,5.925782 0.72292,1.729848 1.67954,3.202561 2.86719,4.416015 1.21343,1.187651 2.60673,2.102592 4.18164,2.748047 1.60076,0.619653 3.26627,0.929688 4.9961,0.929688 1.72972,0 3.38212,-0.310035 4.95703,-0.929688 1.60068,-0.645455 2.99399,-1.560396 4.18164,-2.748047 1.21345,-1.213479 2.18138,-2.686193 2.90429,-4.416015 0.72292,-1.729798 1.08594,-3.705392 1.08594,-5.925782 0,-2.194664 -0.36302,-4.156896 -1.08594,-5.886718 -0.72291,-1.755651 -1.69084,-3.226411 -2.90429,-4.414063 -1.1876,-1.187626 -2.58091,-2.091284 -4.18164,-2.710938 -1.57481,-0.645455 -3.22721,-0.96875 -4.95703,-0.96875 z m 0,2.052735 c 1.57491,0 3.0192,0.283564 4.33593,0.851562 1.34254,0.568024 2.49199,1.380913 3.44727,2.439454 0.95528,1.032738 1.7039,2.286161 2.24609,3.757812 0.5422,1.471777 0.81446,3.097454 0.81446,4.878906 0,1.781578 -0.27226,3.409208 -0.81446,4.88086 -0.54219,1.471776 -1.29081,2.736381 -2.24609,3.794922 -0.95528,1.032738 -2.1047,1.845627 -3.44727,2.439453 -1.31673,0.567998 -2.76102,0.853515 -4.33593,0.853515 -1.57479,0 -3.03439,-0.285517 -4.37696,-0.853515 -1.31673,-0.593826 -2.45292,-1.406715 -3.4082,-2.439453 -0.95526,-1.058667 -1.7039,-2.323272 -2.24609,-3.794922 -0.5422,-1.471652 -0.8125,-3.099282 -0.8125,-4.88086 0,-1.781578 0.2703,-3.407255 0.8125,-4.878906 0.54217,-1.471651 1.29081,-2.725074 2.24609,-3.757812 0.95528,-1.058566 2.09147,-1.871455 3.4082,-2.439454 1.34244,-0.567998 2.80205,-0.851562 4.37696,-0.851562 z m 0.34765,4.027344 c -0.95528,0 -1.87217,0.181512 -2.75,0.542968 -0.87782,0.335654 -1.65098,0.851744 -2.32226,1.548829 -0.67129,0.671282 -1.21387,1.497431 -1.62696,2.478515 -0.38728,0.955282 -0.58203,2.051735 -0.58203,3.291016 0,1.265108 0.18152,2.401292 0.54297,3.408203 0.36146,0.981083 0.86431,1.807233 1.50977,2.478516 0.64548,0.671282 1.39409,1.189325 2.24609,1.550781 0.87783,0.361456 1.82121,0.541015 2.82813,0.541015 1.2651,0 2.32378,-0.141782 3.17578,-0.425781 0.85202,-0.309827 1.44562,-0.566895 1.78125,-0.773437 l -0.65821,-1.859375 c -0.284,0.18074 -0.74907,0.400031 -1.39453,0.658203 -0.61963,0.23237 -1.48355,0.347656 -2.59375,0.347656 -1.57493,0 -2.82836,-0.502854 -3.75781,-1.509766 -0.90365,-1.032738 -1.35547,-2.503498 -1.35547,-4.414062 0,-1.859035 0.46508,-3.291917 1.39453,-4.298828 0.95528,-1.006912 2.14251,-1.511719 3.5625,-1.511719 1.03274,0 1.84563,0.128547 2.43946,0.386719 0.61962,0.23237 1.12443,0.453613 1.51171,0.660156 l 0.73438,-1.744141 c -0.284,-0.206567 -0.82463,-0.476871 -1.625,-0.8125 -0.77454,-0.361456 -1.79544,-0.542968 -3.06055,-0.542968 z"
       transform="translate(-118.4973,-1.0001)" />
    <path
       id="path13"
       style="fill:url(#linearGradient14);fill-opacity:1"
       d="m 151.80394,7.0001 -0.004,0.00195 -19.35351,0.00391 c -1.35355,0 -2.45703,1.1084593 -2.45703,2.4648437 V 57.533303 c 0,1.356386 1.10343,2.466797 2.45703,2.466797 h 36.09375 c 1.35354,0 2.45703,-1.110412 2.45703,-2.466797 V 26.183694 c 0,-0.440775 -0.10327,-0.93784 -0.29297,-1.464844 h 0.0606 l -0.35547,-0.722656 c -0.0256,-0.05172 -0.0587,-0.104197 -0.0859,-0.15625 l -0.0605,-0.125 h -0.008 c -0.33862,-0.618179 -0.7885,-1.252822 -1.38476,-1.84961 l -0.002,-0.002 L 156.26488,9.1524437 C 155.67159,8.4151755 155.0115,7.918962 154.36644,7.59385 154.28114,7.550863 154.19507,7.50998 154.11058,7.4727562 l -0.0859,-0.037109 -0.0312,-0.00195 C 153.20882,7.1007523 152.46804,7.0001 151.90941,7.0001 Z m 0.11523,1.0019531 c 0.37972,7.572e-4 0.91296,0.1248404 1.44727,0.3105469 v 13.935547 c 0,1.22231 0.89866,2.235584 2.06641,2.425781 0.12731,0.02382 0.25744,0.03746 0.39062,0.04102 0.0224,5.98e-4 0.0439,0.0039 0.0664,0.0039 h 13.69336 c 0.23563,0.562366 0.41406,1.117889 0.41406,1.464844 v 31.349609 c 0,0.822556 -0.64278,1.466797 -1.45703,1.466797 h -36.09375 c -0.81435,0 -1.45703,-0.644183 -1.45703,-1.466797 V 9.4708031 c 0,-0.8225555 0.64277,-1.4667967 1.45703,-1.4667969 z m 2.47071,0.9238281 c 0.38082,0.2545633 0.76637,0.4323997 1.12695,0.8886719 l 0.0176,0.021484 12.62695,12.7343749 c 0.37192,0.371984 0.57528,0.75943 0.82813,1.144532 h -13.16602 c -0.0687,0 -0.13319,-0.01063 -0.19922,-0.01953 -0.70854,-0.123274 -1.23436,-0.730184 -1.23437,-1.478515 z m -3.76367,18.7695308 c -1.72985,0 -3.39536,0.323295 -4.9961,0.96875 -1.57488,0.619629 -2.96818,1.523287 -4.18164,2.710938 -1.18765,1.187652 -2.14427,2.658412 -2.86719,4.414063 -0.72291,1.729923 -1.08398,3.692155 -1.08398,5.886718 0,2.220365 0.36107,4.195958 1.08398,5.925782 0.72292,1.729848 1.67954,3.202561 2.86719,4.416015 1.21343,1.187651 2.60673,2.102592 4.18164,2.748047 1.60076,0.619653 3.26627,0.929688 4.9961,0.929688 1.72972,0 3.38212,-0.310035 4.95703,-0.929688 1.60068,-0.645455 2.99399,-1.560396 4.18164,-2.748047 1.21345,-1.213479 2.18138,-2.686193 2.90429,-4.416015 0.72292,-1.729798 1.08594,-3.705392 1.08594,-5.925782 0,-2.194664 -0.36302,-4.156896 -1.08594,-5.886718 -0.72291,-1.755651 -1.69084,-3.226411 -2.90429,-4.414063 -1.1876,-1.187626 -2.58091,-2.091284 -4.18164,-2.710938 -1.57481,-0.645455 -3.22721,-0.96875 -4.95703,-0.96875 z m 0,2.052735 c 1.57491,0 3.0192,0.283564 4.33593,0.851562 1.34254,0.568024 2.49199,1.380913 3.44727,2.439454 0.95528,1.032738 1.7039,2.286161 2.24609,3.757812 0.5422,1.471777 0.81446,3.097454 0.81446,4.878906 0,1.781578 -0.27226,3.409208 -0.81446,4.88086 -0.54219,1.471776 -1.29081,2.736381 -2.24609,3.794922 -0.95528,1.032738 -2.1047,1.845627 -3.44727,2.439453 -1.31673,0.567998 -2.76102,0.853515 -4.33593,0.853515 -1.57479,0 -3.03439,-0.285517 -4.37696,-0.853515 -1.31673,-0.593826 -2.45292,-1.406715 -3.4082,-2.439453 -0.95526,-1.058667 -1.7039,-2.323272 -2.24609,-3.794922 -0.5422,-1.471652 -0.8125,-3.099282 -0.8125,-4.88086 0,-1.781578 0.2703,-3.407255 0.8125,-4.878906 0.54217,-1.471651 1.29081,-2.725074 2.24609,-3.757812 0.95528,-1.058566 2.09147,-1.871455 3.4082,-2.439454 1.34244,-0.567998 2.80205,-0.851562 4.37696,-0.851562 z m 0.34765,4.027344 c -0.95528,0 -1.87217,0.181512 -2.75,0.542968 -0.87782,0.335654 -1.65098,0.851744 -2.32226,1.548829 -0.67129,0.671282 -1.21387,1.497431 -1.62696,2.478515 -0.38728,0.955282 -0.58203,2.051735 -0.58203,3.291016 0,1.265108 0.18152,2.401292 0.54297,3.408203 0.36146,0.981083 0.86431,1.807233 1.50977,2.478516 0.64548,0.671282 1.39409,1.189325 2.24609,1.550781 0.87783,0.361456 1.82121,0.541015 2.82813,0.541015 1.2651,0 2.32378,-0.141782 3.17578,-0.425781 0.85202,-0.309827 1.44562,-0.566895 1.78125,-0.773437 l -0.65821,-1.859375 c -0.284,0.18074 -0.74907,0.400031 -1.39453,0.658203 -0.61963,0.23237 -1.48355,0.347656 -2.59375,0.347656 -1.57493,0 -2.82836,-0.502854 -3.75781,-1.509766 -0.90365,-1.032738 -1.35547,-2.503498 -1.35547,-4.414062 0,-1.859035 0.46508,-3.291917 1.39453,-4.298828 0.95528,-1.006912 2.14251,-1.511719 3.5625,-1.511719 1.03274,0 1.84563,0.128547 2.43946,0.386719 0.61962,0.23237 1.12443,0.453613 1.51171,0.660156 l 0.73438,-1.744141 c -0.284,-0.206567 -0.82463,-0.476871 -1.625,-0.8125 -0.77454,-0.361456 -1.79544,-0.542968 -3.06055,-0.542968 z"
       transform="translate(-118.4973,-1.0001)" />
  </g>
</svg>
