<?xml version="1.0" encoding="UTF-8" standalone="no"?>
<svg
   width="43.546024"
   height="55.538212"
   version="1.1"
   viewBox="0 0 43.546024 55.538212"
   id="svg3"
   xmlns:xlink="http://www.w3.org/1999/xlink"
   xmlns="http://www.w3.org/2000/svg"
   xmlns:svg="http://www.w3.org/2000/svg">
  <defs
     id="defs3">
    <linearGradient
       id="linearGradient4">
      <stop
         style="stop-color:#039bfc;stop-opacity:0;"
         offset="0"
         id="stop5" />
      <stop
         style="stop-color:#039bfc;stop-opacity:1;"
         offset="1"
         id="stop4" />
    </linearGradient>
    <linearGradient
       xlink:href="#linearGradient4"
       id="linearGradient5"
       x1="147.59875"
       y1="65.000099"
       x2="147.59875"
       y2="24.072563"
       gradientUnits="userSpaceOnUse" />
    <filter
       style="color-interpolation-filters:sRGB"
       id="filter5"
       x="-0.030947896"
       y="-0.023945386"
       width="1.0618958"
       height="1.0478908">
      <feGaussianBlur
         stdDeviation="0.52879393"
         id="feGaussianBlur5" />
    </filter>
  </defs>
  <g
     id="g5"
     transform="translate(-10.222995,-4.7308946)">
    <path
       id="path1"
       style="display:inline;opacity:0.6;fill:#039bfc;filter:url(#filter5)"
       d="m 151.80394,7.0001 -0.004,0.00195 -19.35351,0.00391 c -1.35355,0 -2.45703,1.1084593 -2.45703,2.4648437 V 57.533303 c 0,1.356386 1.10343,2.466797 2.45703,2.466797 h 36.09375 c 1.35354,0 2.45703,-1.110412 2.45703,-2.466797 V 26.183694 c 0,-0.440775 -0.10327,-0.93784 -0.29297,-1.464844 h 0.0606 l -0.35547,-0.722656 c -0.0256,-0.05172 -0.0587,-0.104197 -0.0859,-0.15625 l -0.0605,-0.125 h -0.008 c -0.33862,-0.618179 -0.7885,-1.252822 -1.38476,-1.84961 l -0.002,-0.002 L 156.26488,9.1524437 C 155.67159,8.4151755 155.0115,7.918962 154.36644,7.59385 154.28114,7.550863 154.19507,7.50998 154.11058,7.4727562 l -0.0859,-0.037109 -0.0312,-0.00195 C 153.20882,7.1007523 152.46804,7.0001 151.90941,7.0001 Z m 0.11523,1.0019531 c 0.37972,7.572e-4 0.91296,0.1248404 1.44727,0.3105469 v 13.935547 c 0,1.22231 0.89866,2.235584 2.06641,2.425781 0.12731,0.02382 0.25744,0.03746 0.39062,0.04102 0.0224,5.98e-4 0.0439,0.0039 0.0664,0.0039 h 13.69336 c 0.23563,0.562366 0.41406,1.117889 0.41406,1.464844 v 31.349609 c 0,0.822556 -0.64278,1.466797 -1.45703,1.466797 h -36.09375 c -0.81435,0 -1.45703,-0.644183 -1.45703,-1.466797 V 9.4708031 c 0,-0.8225555 0.64277,-1.4667967 1.45703,-1.4667969 z m 2.47071,0.9238281 c 0.38082,0.2545633 0.76637,0.4323997 1.12695,0.8886719 l 0.0176,0.021484 12.62695,12.7343749 c 0.37192,0.371984 0.57528,0.75943 0.82813,1.144532 h -13.16602 c -0.0687,0 -0.13319,-0.01063 -0.19922,-0.01953 -0.70854,-0.123274 -1.23436,-0.730184 -1.23437,-1.478515 z M 137.99925,27.783303 v 2 h 1.5 c 0.69417,0 1.25895,-0.04603 1.81055,0.130859 0.55159,0.176885 0.99645,0.659787 1.22266,1.38086 0.45245,1.442144 0.46359,4.0369 0.46484,9.498047 -7.5e-4,2.078479 -0.0145,3.644368 -0.0449,4.988281 h 0.0234 l -0.008,0.507813 c -0.0336,2.12493 -0.0947,4.278729 -0.21679,5.019531 -0.12212,0.740727 -0.37551,1.130163 -0.61329,1.404297 -0.26785,0.308832 -0.58352,0.583612 -1.00585,0.763672 -0.42237,0.180061 -0.92743,0.269398 -1.60938,0.302734 -0.70429,0.0344 -1.16668,0.01058 -1.52344,0 v 2 h 13.99805 v -2 c -0.36473,0.0087 -0.85076,0.02835 -1.52148,0 -1.24735,-0.05276 -1.9626,-0.433297 -2.51563,-0.986328 -0.37214,-0.37214 -0.63217,-0.876888 -0.75977,-1.675781 -0.12763,-0.798895 -0.1725,-2.940668 -0.20312,-4.828125 V 42.78135 h 1.5 c 2.04828,0 3.72681,0.451912 4.68555,1.699219 l 0.0332,0.04297 0.0234,0.05078 c 0.65534,1.403745 0.72292,2.89721 0.73437,4.207031 h 2.02344 v -13 h -2 l -0.002,0.578125 c -0.001,1.541964 -0.55776,2.722198 -1.55274,3.439453 -0.99494,0.717256 -2.42977,1.487566 -3.94531,0.982422 h -1.5 V 29.783303 h 4.5 c 3.96972,0 5.66689,-0.02965 6.75391,0.605469 l 0.043,0.02539 0.0371,0.0332 c 1.27793,1.140041 1.96801,2.362707 2.31055,3.664062 0.30294,1.150813 0.33744,2.367584 0.34375,3.669922 h 2.00977 v -9.998047 z"
       transform="translate(-118.4973,-1.0001)" />
    <path
       id="path4"
       style="fill:url(#linearGradient5);fill-opacity:1"
       d="m 151.80394,7.0001 -0.004,0.00195 -19.35351,0.00391 c -1.35355,0 -2.45703,1.1084593 -2.45703,2.4648437 V 57.533303 c 0,1.356386 1.10343,2.466797 2.45703,2.466797 h 36.09375 c 1.35354,0 2.45703,-1.110412 2.45703,-2.466797 V 26.183694 c 0,-0.440775 -0.10327,-0.93784 -0.29297,-1.464844 h 0.0606 l -0.35547,-0.722656 c -0.0256,-0.05172 -0.0587,-0.104197 -0.0859,-0.15625 l -0.0605,-0.125 h -0.008 c -0.33862,-0.618179 -0.7885,-1.252822 -1.38476,-1.84961 l -0.002,-0.002 L 156.26488,9.1524437 C 155.67159,8.4151755 155.0115,7.918962 154.36644,7.59385 154.28114,7.550863 154.19507,7.50998 154.11058,7.4727562 l -0.0859,-0.037109 -0.0312,-0.00195 C 153.20882,7.1007523 152.46804,7.0001 151.90941,7.0001 Z m 0.11523,1.0019531 c 0.37972,7.572e-4 0.91296,0.1248404 1.44727,0.3105469 v 13.935547 c 0,1.22231 0.89866,2.235584 2.06641,2.425781 0.12731,0.02382 0.25744,0.03746 0.39062,0.04102 0.0224,5.98e-4 0.0439,0.0039 0.0664,0.0039 h 13.69336 c 0.23563,0.562366 0.41406,1.117889 0.41406,1.464844 v 31.349609 c 0,0.822556 -0.64278,1.466797 -1.45703,1.466797 h -36.09375 c -0.81435,0 -1.45703,-0.644183 -1.45703,-1.466797 V 9.4708031 c 0,-0.8225555 0.64277,-1.4667967 1.45703,-1.4667969 z m 2.47071,0.9238281 c 0.38082,0.2545633 0.76637,0.4323997 1.12695,0.8886719 l 0.0176,0.021484 12.62695,12.7343749 c 0.37192,0.371984 0.57528,0.75943 0.82813,1.144532 h -13.16602 c -0.0687,0 -0.13319,-0.01063 -0.19922,-0.01953 -0.70854,-0.123274 -1.23436,-0.730184 -1.23437,-1.478515 z M 137.99925,27.783303 v 2 h 1.5 c 0.69417,0 1.25895,-0.04603 1.81055,0.130859 0.55159,0.176885 0.99645,0.659787 1.22266,1.38086 0.45245,1.442144 0.46359,4.0369 0.46484,9.498047 -7.5e-4,2.078479 -0.0145,3.644368 -0.0449,4.988281 h 0.0234 l -0.008,0.507813 c -0.0336,2.12493 -0.0947,4.278729 -0.21679,5.019531 -0.12212,0.740727 -0.37551,1.130163 -0.61329,1.404297 -0.26785,0.308832 -0.58352,0.583612 -1.00585,0.763672 -0.42237,0.180061 -0.92743,0.269398 -1.60938,0.302734 -0.70429,0.0344 -1.16668,0.01058 -1.52344,0 v 2 h 13.99805 v -2 c -0.36473,0.0087 -0.85076,0.02835 -1.52148,0 -1.24735,-0.05276 -1.9626,-0.433297 -2.51563,-0.986328 -0.37214,-0.37214 -0.63217,-0.876888 -0.75977,-1.675781 -0.12763,-0.798895 -0.1725,-2.940668 -0.20312,-4.828125 V 42.78135 h 1.5 c 2.04828,0 3.72681,0.451912 4.68555,1.699219 l 0.0332,0.04297 0.0234,0.05078 c 0.65534,1.403745 0.72292,2.89721 0.73437,4.207031 h 2.02344 v -13 h -2 l -0.002,0.578125 c -0.001,1.541964 -0.55776,2.722198 -1.55274,3.439453 -0.99494,0.717256 -2.42977,1.487566 -3.94531,0.982422 h -1.5 V 29.783303 h 4.5 c 3.96972,0 5.66689,-0.02965 6.75391,0.605469 l 0.043,0.02539 0.0371,0.0332 c 1.27793,1.140041 1.96801,2.362707 2.31055,3.664062 0.30294,1.150813 0.33744,2.367584 0.34375,3.669922 h 2.00977 v -9.998047 z"
       transform="translate(-118.4973,-1.0001)" />
  </g>
</svg>
