<?xml version="1.0" encoding="UTF-8" standalone="no"?>
<svg
   width="43.546024"
   height="55.538212"
   version="1.1"
   viewBox="0 0 43.546024 55.538212"
   id="svg3"
   xmlns:xlink="http://www.w3.org/1999/xlink"
   xmlns="http://www.w3.org/2000/svg"
   xmlns:svg="http://www.w3.org/2000/svg">
  <defs
     id="defs3">
    <linearGradient
       id="linearGradient7">
      <stop
         style="stop-color:#00abff;stop-opacity:0;"
         offset="0"
         id="stop8" />
      <stop
         style="stop-color:#00abff;stop-opacity:1;"
         offset="1"
         id="stop7" />
    </linearGradient>
    <linearGradient
       xlink:href="#linearGradient7"
       id="linearGradient8"
       x1="149.6857"
       y1="65.000099"
       x2="149.6857"
       y2="25.231983"
       gradientUnits="userSpaceOnUse" />
    <filter
       style="color-interpolation-filters:sRGB"
       id="filter8"
       x="-0.030947896"
       y="-0.023945386"
       width="1.0618958"
       height="1.0478908">
      <feGaussianBlur
         stdDeviation="0.52879393"
         id="feGaussianBlur8" />
    </filter>
  </defs>
  <g
     id="g8"
     transform="translate(-10.222995,-4.7308946)">
    <path
       id="path1"
       style="display:inline;opacity:0.6;fill:#00abff;fill-opacity:1;stroke:none;filter:url(#filter8)"
       d="m 151.80394,7.0001 -0.004,0.00195 -19.35351,0.00391 c -1.35355,0 -2.45703,1.1084593 -2.45703,2.4648437 V 57.533303 c 0,1.356386 1.10343,2.466797 2.45703,2.466797 h 36.09375 c 1.35354,0 2.45703,-1.110412 2.45703,-2.466797 V 26.183694 c 0,-0.440775 -0.10327,-0.93784 -0.29297,-1.464844 h 0.0606 l -0.35547,-0.722656 c -0.0256,-0.05172 -0.0587,-0.104197 -0.0859,-0.15625 l -0.0605,-0.125 h -0.008 c -0.33862,-0.618179 -0.7885,-1.252822 -1.38476,-1.84961 l -0.002,-0.002 L 156.26488,9.1524437 C 155.67159,8.4151755 155.0115,7.918962 154.36644,7.59385 154.28114,7.550863 154.19507,7.50998 154.11058,7.4727562 l -0.0859,-0.037109 -0.0312,-0.00195 C 153.20882,7.1007523 152.46804,7.0001 151.90941,7.0001 Z m 0.11523,1.0019531 c 0.37972,7.572e-4 0.91296,0.1248404 1.44727,0.3105469 v 13.935547 c 0,1.22231 0.89866,2.235584 2.06641,2.425781 0.12731,0.02382 0.25744,0.03746 0.39062,0.04102 0.0224,5.98e-4 0.0439,0.0039 0.0664,0.0039 h 13.69336 c 0.23563,0.562366 0.41406,1.117889 0.41406,1.464844 v 31.349609 c 0,0.822556 -0.64278,1.466797 -1.45703,1.466797 h -36.09375 c -0.81435,0 -1.45703,-0.644183 -1.45703,-1.466797 V 9.4708031 c 0,-0.8225555 0.64277,-1.4667967 1.45703,-1.4667969 z m 2.47071,0.9238281 c 0.38082,0.2545633 0.76637,0.4323997 1.12695,0.8886719 l 0.0176,0.021484 12.62695,12.7343749 c 0.37192,0.371984 0.57528,0.75943 0.82813,1.144532 h -13.16602 c -0.0687,0 -0.13319,-0.01063 -0.19922,-0.01953 -0.70854,-0.123274 -1.23436,-0.730184 -1.23437,-1.478515 z m -16.11133,20.2558598 5.85937,8.789062 -5.85937,8.791016 h 4.39453 l 5.85938,-8.791016 -5.85938,-8.789062 z m 5.85937,0 5.86133,8.789062 -5.86133,8.791016 h 4.39454 l 3.66406,-5.494141 3.66211,5.494141 h 4.39453 l -11.7207,-17.580078 z m 8.91016,4.794922 2.13086,3.195312 h 7.53711 v -3.195312 z m 3.19727,4.792968 2.1289,3.197266 h 4.3418 v -3.197266 z m -9.39844,11.929688 c -0.5599,0 -0.99132,0.105685 -1.29297,0.318359 -0.29948,0.212674 -0.44922,0.515408 -0.44922,0.908203 0,0.171441 0.0276,0.3227 0.084,0.455078 0.0586,0.132379 0.14344,0.249783 0.25195,0.34961 0.10851,0.09766 0.25477,0.18533 0.44141,0.265625 0.1888,0.08029 0.46571,0.161892 0.82812,0.242187 0.20833,0.04774 0.39692,0.09158 0.56836,0.132813 0.17144,0.04123 0.31966,0.09158 0.44336,0.152344 0.1237,0.06076 0.21983,0.139105 0.28711,0.232421 0.0694,0.09332 0.10351,0.213542 0.10351,0.363282 0,0.266927 -0.10894,0.470486 -0.32812,0.609375 -0.21701,0.136718 -0.52626,0.205078 -0.92774,0.205078 -0.38845,0 -0.69618,-0.06337 -0.92187,-0.191406 -0.22569,-0.130209 -0.37391,-0.333768 -0.44336,-0.609375 l -0.60156,0.121093 c 0.17795,0.77691 0.82574,1.164063 1.94336,1.164063 0.60113,0 1.06662,-0.115452 1.39648,-0.347656 0.33203,-0.232205 0.49805,-0.559245 0.49805,-0.982422 0,-0.167101 -0.0245,-0.313802 -0.0723,-0.4375 -0.0456,-0.123698 -0.10894,-0.23112 -0.1914,-0.322266 -0.0825,-0.09115 -0.18012,-0.167535 -0.29297,-0.230469 -0.11068,-0.06293 -0.22939,-0.116536 -0.35742,-0.162109 -0.12804,-0.04774 -0.26324,-0.08854 -0.4043,-0.121094 -0.13889,-0.03472 -0.27886,-0.06901 -0.41992,-0.101562 -0.42101,-0.09332 -0.70269,-0.171441 -0.84375,-0.234375 -0.14106,-0.06511 -0.24827,-0.143229 -0.32422,-0.234375 -0.0738,-0.09332 -0.11133,-0.210504 -0.11133,-0.351563 0,-0.240885 0.0959,-0.421441 0.28906,-0.542969 0.19315,-0.121527 0.47309,-0.18164 0.83985,-0.18164 0.3342,0 0.59635,0.05534 0.78515,0.166015 0.18881,0.108507 0.31749,0.284288 0.38477,0.527344 l 0.61133,-0.107422 c -0.11068,-0.384115 -0.30447,-0.656033 -0.58008,-0.814453 -0.27561,-0.16059 -0.67253,-0.240234 -1.19336,-0.240234 z m -10.97461,0.06836 v 4.585938 h 0.62305 v -2.125 h 2.48047 v 2.125 h 0.62109 v -4.585938 h -0.62109 v 1.939453 h -2.48047 v -1.939453 z m 6.15234,0 -1.87109,4.585938 h 0.64453 l 0.52734,-1.341797 h 2.08985 l 0.52344,1.341797 h 0.63476 l -1.8418,-4.585938 z m 7.55664,0 v 4.585938 h 0.6211 v -1.757813 l 0.59961,-0.455078 1.83203,2.212891 h 0.77148 l -2.21289,-2.59375 1.95313,-1.992188 h -0.73242 l -2.21094,2.296875 v -2.296875 z m 4.44727,0 v 4.585938 h 3.61328 v -0.507813 h -2.99219 v -1.597656 h 2.66211 v -0.501953 h -2.66211 v -1.470703 h 2.85743 v -0.507813 z m 4.44531,0 v 4.585938 h 2.93946 v -0.507813 h -2.31641 v -4.078125 z m 3.70899,0 v 4.585938 h 2.93945 v -0.507813 h -2.31836 v -4.078125 z m -19.8125,0.46875 0.0879,0.269531 c 0.0608,0.188803 0.12087,0.358073 0.18164,0.507813 l 0.58984,1.513672 h -1.71484 l 0.58594,-1.507813 c 0.10633,-0.282118 0.18598,-0.513238 0.24023,-0.693359 z"
       transform="translate(-118.4973,-1.0001)" />
    <path
       id="path7"
       style="fill:url(#linearGradient8);fill-opacity:1;stroke:none"
       d="m 151.80394,7.0001 -0.004,0.00195 -19.35351,0.00391 c -1.35355,0 -2.45703,1.1084593 -2.45703,2.4648437 V 57.533303 c 0,1.356386 1.10343,2.466797 2.45703,2.466797 h 36.09375 c 1.35354,0 2.45703,-1.110412 2.45703,-2.466797 V 26.183694 c 0,-0.440775 -0.10327,-0.93784 -0.29297,-1.464844 h 0.0606 l -0.35547,-0.722656 c -0.0256,-0.05172 -0.0587,-0.104197 -0.0859,-0.15625 l -0.0605,-0.125 h -0.008 c -0.33862,-0.618179 -0.7885,-1.252822 -1.38476,-1.84961 l -0.002,-0.002 L 156.26488,9.1524437 C 155.67159,8.4151755 155.0115,7.918962 154.36644,7.59385 154.28114,7.550863 154.19507,7.50998 154.11058,7.4727562 l -0.0859,-0.037109 -0.0312,-0.00195 C 153.20882,7.1007523 152.46804,7.0001 151.90941,7.0001 Z m 0.11523,1.0019531 c 0.37972,7.572e-4 0.91296,0.1248404 1.44727,0.3105469 v 13.935547 c 0,1.22231 0.89866,2.235584 2.06641,2.425781 0.12731,0.02382 0.25744,0.03746 0.39062,0.04102 0.0224,5.98e-4 0.0439,0.0039 0.0664,0.0039 h 13.69336 c 0.23563,0.562366 0.41406,1.117889 0.41406,1.464844 v 31.349609 c 0,0.822556 -0.64278,1.466797 -1.45703,1.466797 h -36.09375 c -0.81435,0 -1.45703,-0.644183 -1.45703,-1.466797 V 9.4708031 c 0,-0.8225555 0.64277,-1.4667967 1.45703,-1.4667969 z m 2.47071,0.9238281 c 0.38082,0.2545633 0.76637,0.4323997 1.12695,0.8886719 l 0.0176,0.021484 12.62695,12.7343749 c 0.37192,0.371984 0.57528,0.75943 0.82813,1.144532 h -13.16602 c -0.0687,0 -0.13319,-0.01063 -0.19922,-0.01953 -0.70854,-0.123274 -1.23436,-0.730184 -1.23437,-1.478515 z m -16.11133,20.2558598 5.85937,8.789062 -5.85937,8.791016 h 4.39453 l 5.85938,-8.791016 -5.85938,-8.789062 z m 5.85937,0 5.86133,8.789062 -5.86133,8.791016 h 4.39454 l 3.66406,-5.494141 3.66211,5.494141 h 4.39453 l -11.7207,-17.580078 z m 8.91016,4.794922 2.13086,3.195312 h 7.53711 v -3.195312 z m 3.19727,4.792968 2.1289,3.197266 h 4.3418 v -3.197266 z m -9.39844,11.929688 c -0.5599,0 -0.99132,0.105685 -1.29297,0.318359 -0.29948,0.212674 -0.44922,0.515408 -0.44922,0.908203 0,0.171441 0.0276,0.3227 0.084,0.455078 0.0586,0.132379 0.14344,0.249783 0.25195,0.34961 0.10851,0.09766 0.25477,0.18533 0.44141,0.265625 0.1888,0.08029 0.46571,0.161892 0.82812,0.242187 0.20833,0.04774 0.39692,0.09158 0.56836,0.132813 0.17144,0.04123 0.31966,0.09158 0.44336,0.152344 0.1237,0.06076 0.21983,0.139105 0.28711,0.232421 0.0694,0.09332 0.10351,0.213542 0.10351,0.363282 0,0.266927 -0.10894,0.470486 -0.32812,0.609375 -0.21701,0.136718 -0.52626,0.205078 -0.92774,0.205078 -0.38845,0 -0.69618,-0.06337 -0.92187,-0.191406 -0.22569,-0.130209 -0.37391,-0.333768 -0.44336,-0.609375 l -0.60156,0.121093 c 0.17795,0.77691 0.82574,1.164063 1.94336,1.164063 0.60113,0 1.06662,-0.115452 1.39648,-0.347656 0.33203,-0.232205 0.49805,-0.559245 0.49805,-0.982422 0,-0.167101 -0.0245,-0.313802 -0.0723,-0.4375 -0.0456,-0.123698 -0.10894,-0.23112 -0.1914,-0.322266 -0.0825,-0.09115 -0.18012,-0.167535 -0.29297,-0.230469 -0.11068,-0.06293 -0.22939,-0.116536 -0.35742,-0.162109 -0.12804,-0.04774 -0.26324,-0.08854 -0.4043,-0.121094 -0.13889,-0.03472 -0.27886,-0.06901 -0.41992,-0.101562 -0.42101,-0.09332 -0.70269,-0.171441 -0.84375,-0.234375 -0.14106,-0.06511 -0.24827,-0.143229 -0.32422,-0.234375 -0.0738,-0.09332 -0.11133,-0.210504 -0.11133,-0.351563 0,-0.240885 0.0959,-0.421441 0.28906,-0.542969 0.19315,-0.121527 0.47309,-0.18164 0.83985,-0.18164 0.3342,0 0.59635,0.05534 0.78515,0.166015 0.18881,0.108507 0.31749,0.284288 0.38477,0.527344 l 0.61133,-0.107422 c -0.11068,-0.384115 -0.30447,-0.656033 -0.58008,-0.814453 -0.27561,-0.16059 -0.67253,-0.240234 -1.19336,-0.240234 z m -10.97461,0.06836 v 4.585938 h 0.62305 v -2.125 h 2.48047 v 2.125 h 0.62109 v -4.585938 h -0.62109 v 1.939453 h -2.48047 v -1.939453 z m 6.15234,0 -1.87109,4.585938 h 0.64453 l 0.52734,-1.341797 h 2.08985 l 0.52344,1.341797 h 0.63476 l -1.8418,-4.585938 z m 7.55664,0 v 4.585938 h 0.6211 v -1.757813 l 0.59961,-0.455078 1.83203,2.212891 h 0.77148 l -2.21289,-2.59375 1.95313,-1.992188 h -0.73242 l -2.21094,2.296875 v -2.296875 z m 4.44727,0 v 4.585938 h 3.61328 v -0.507813 h -2.99219 v -1.597656 h 2.66211 v -0.501953 h -2.66211 v -1.470703 h 2.85743 v -0.507813 z m 4.44531,0 v 4.585938 h 2.93946 v -0.507813 h -2.31641 v -4.078125 z m 3.70899,0 v 4.585938 h 2.93945 v -0.507813 h -2.31836 v -4.078125 z m -19.8125,0.46875 0.0879,0.269531 c 0.0608,0.188803 0.12087,0.358073 0.18164,0.507813 l 0.58984,1.513672 h -1.71484 l 0.58594,-1.507813 c 0.10633,-0.282118 0.18598,-0.513238 0.24023,-0.693359 z"
       transform="translate(-118.4973,-1.0001)" />
  </g>
</svg>
