<?xml version="1.0" encoding="UTF-8" standalone="no"?>
<svg
   width="43.546024"
   height="55.538212"
   version="1.1"
   viewBox="0 0 43.546024 55.538212"
   id="svg3"
   xmlns:xlink="http://www.w3.org/1999/xlink"
   xmlns="http://www.w3.org/2000/svg"
   xmlns:svg="http://www.w3.org/2000/svg">
  <defs
     id="defs3">
    <linearGradient
       id="linearGradient17">
      <stop
         style="stop-color:#00abff;stop-opacity:0;"
         offset="0"
         id="stop18" />
      <stop
         style="stop-color:#00abff;stop-opacity:1;"
         offset="1"
         id="stop17" />
    </linearGradient>
    <linearGradient
       xlink:href="#linearGradient17"
       id="linearGradient18"
       x1="150.38136"
       y1="65.000099"
       x2="150.38136"
       y2="24.072563"
       gradientUnits="userSpaceOnUse" />
    <filter
       style="color-interpolation-filters:sRGB"
       id="filter18"
       x="-0.030947896"
       y="-0.023945386"
       width="1.0618958"
       height="1.0478908">
      <feGaussianBlur
         stdDeviation="0.52879393"
         id="feGaussianBlur18" />
    </filter>
  </defs>
  <g
     id="g18"
     transform="translate(-10.222995,-4.7308946)">
    <path
       id="path1"
       style="display:inline;opacity:0.6;fill:#00abff;fill-opacity:1;stroke:none;filter:url(#filter18)"
       d="m 151.80394,7.0001 -0.004,0.00195 -19.35351,0.00391 c -1.35355,0 -2.45703,1.1084593 -2.45703,2.4648437 V 57.533303 c 0,1.356386 1.10343,2.466797 2.45703,2.466797 h 36.09375 c 1.35354,0 2.45703,-1.110412 2.45703,-2.466797 V 26.183694 c 0,-0.440775 -0.10327,-0.93784 -0.29297,-1.464844 h 0.0606 l -0.35547,-0.722656 c -0.0256,-0.05172 -0.0587,-0.104197 -0.0859,-0.15625 l -0.0605,-0.125 h -0.008 c -0.33862,-0.618179 -0.7885,-1.252822 -1.38476,-1.84961 l -0.002,-0.002 L 156.26488,9.1524437 C 155.67159,8.4151755 155.0115,7.918962 154.36644,7.59385 154.28114,7.550863 154.19507,7.50998 154.11058,7.4727562 l -0.0859,-0.037109 -0.0312,-0.00195 C 153.20882,7.1007523 152.46804,7.0001 151.90941,7.0001 Z m 0.11523,1.0019531 c 0.37972,7.572e-4 0.91296,0.1248404 1.44727,0.3105469 v 13.935547 c 0,1.22231 0.89866,2.235584 2.06641,2.425781 0.12731,0.02382 0.25744,0.03746 0.39062,0.04102 0.0224,5.98e-4 0.0439,0.0039 0.0664,0.0039 h 13.69336 c 0.23563,0.562366 0.41406,1.117889 0.41406,1.464844 v 31.349609 c 0,0.822556 -0.64278,1.466797 -1.45703,1.466797 h -36.09375 c -0.81435,0 -1.45703,-0.644183 -1.45703,-1.466797 V 9.4708031 c 0,-0.8225555 0.64277,-1.4667967 1.45703,-1.4667969 z m 2.47071,0.9238281 c 0.38082,0.2545633 0.76637,0.4323997 1.12695,0.8886719 l 0.0176,0.021484 12.62695,12.7343749 c 0.37192,0.371984 0.57528,0.75943 0.82813,1.144532 h -13.16602 c -0.0687,0 -0.13319,-0.01063 -0.19922,-0.01953 -0.70854,-0.123274 -1.23436,-0.730184 -1.23437,-1.478515 z m -9.19922,19.5605468 -0.19531,0.230469 0.53125,3.779297 0.35351,0.0918 2.65039,-3.779297 -0.15625,-0.322266 z m 7.42969,0 -0.16211,0.314453 2.2539,3.582032 0.35352,-0.06055 0.92969,-3.580079 -0.19141,-0.255859 z m -9.4375,0.07227 -3.97852,5.171875 0.15234,0.326172 h 5.57032 l 0.18945,-0.261719 -1.5918,-5.171875 z m 7.16211,0 -3.97852,5.171875 0.15234,0.326172 h 7.95704 l 0.15234,-0.326172 -3.97852,-5.171875 z m 7.46679,0 -0.34179,0.06445 -1.5918,5.171875 0.18945,0.261719 h 5.57031 l 0.15235,-0.326172 z m -18.45508,6.294922 -0.14648,0.333984 10.3457,11.539063 0.32813,-0.214844 -4.77344,-11.53711 -0.18359,-0.121093 z m 7.16211,0 -0.18359,0.27539 3.97852,9.947266 h 0.36718 l 3.97852,-9.947266 -0.18359,-0.27539 z m 9.54883,0 -0.18359,0.121093 -4.77344,11.53711 0.32813,0.214844 10.3457,-11.539063 -0.14649,-0.333984 z m -16.26758,15.384765 v 5.503907 h 0.7461 v -2.285157 h 1.71484 l 1.42969,2.285157 h 0.85937 l -1.5625,-2.371094 c 0.41928,-0.07292 0.7474,-0.248698 0.98438,-0.527344 0.23958,-0.278646 0.35937,-0.622396 0.35937,-1.03125 0,-0.494792 -0.16927,-0.880208 -0.50781,-1.15625 -0.33594,-0.278646 -0.8138,-0.417969 -1.43359,-0.417969 z m 5.73829,0 v 3.503907 c 0,0.432291 0.0924,0.804687 0.27734,1.117187 0.1849,0.3125 0.44531,0.550781 0.78125,0.714844 0.33594,0.164062 0.72917,0.246094 1.17969,0.246094 0.46875,-10e-7 0.875,-0.08464 1.21875,-0.253907 0.34635,-0.171875 0.61328,-0.419271 0.80078,-0.742187 0.1901,-0.322917 0.28515,-0.707031 0.28515,-1.152344 v -3.433594 h -0.74218 v 3.390625 c 0,0.518229 -0.13802,0.912761 -0.41407,1.183594 -0.27343,0.268229 -0.65755,0.402344 -1.15234,0.402344 -0.48177,0 -0.85026,-0.130209 -1.10547,-0.390625 -0.25521,-0.260417 -0.38281,-0.641927 -0.38281,-1.144531 v -3.441407 z m 5.8164,0 v 5.503907 h 2.23438 c 0.63541,-10e-7 1.13151,-0.135417 1.48828,-0.40625 0.35677,-0.273438 0.53515,-0.654948 0.53515,-1.144532 0,-0.367187 -0.11849,-0.670573 -0.35546,-0.910156 -0.23698,-0.242188 -0.57422,-0.389323 -1.01172,-0.441406 0.33333,-0.07552 0.59114,-0.223959 0.77343,-0.445313 0.1823,-0.221354 0.27344,-0.494791 0.27344,-0.820312 0,-0.890625 -0.64583,-1.335938 -1.9375,-1.335938 z m 4.85547,0 2.11719,3.222657 v 2.28125 h 0.74219 v -2.28125 l 2.125,-3.222657 h -0.82032 l -1.66797,2.621094 -1.67578,-2.621094 z m -15.66406,0.597657 h 1.76953 c 0.40885,0 0.72135,0.08463 0.9375,0.253906 0.21875,0.166666 0.32812,0.410156 0.32812,0.730469 0,0.330729 -0.10807,0.588541 -0.32421,0.773437 -0.21355,0.182292 -0.51693,0.273438 -0.91016,0.273438 h -1.80078 z m 11.55469,0 h 1.2539 c 0.38542,-10e-7 0.67969,0.0638 0.88281,0.191406 0.20313,0.127604 0.30469,0.339844 0.30469,0.636719 0,0.309895 -0.099,0.540364 -0.29687,0.691406 -0.19532,0.148437 -0.49219,0.222656 -0.89063,0.222656 h -1.2539 z m 0,2.324218 h 1.39062 c 0.91146,0 1.36719,0.324219 1.36719,0.972657 0,0.335937 -0.10417,0.588541 -0.3125,0.757812 -0.20834,0.169271 -0.54037,0.253906 -0.9961,0.253906 h -1.44921 z"
       transform="translate(-118.4973,-1.0001)" />
    <path
       id="path17"
       style="fill:url(#linearGradient18);fill-opacity:1;stroke:none"
       d="m 151.80394,7.0001 -0.004,0.00195 -19.35351,0.00391 c -1.35355,0 -2.45703,1.1084593 -2.45703,2.4648437 V 57.533303 c 0,1.356386 1.10343,2.466797 2.45703,2.466797 h 36.09375 c 1.35354,0 2.45703,-1.110412 2.45703,-2.466797 V 26.183694 c 0,-0.440775 -0.10327,-0.93784 -0.29297,-1.464844 h 0.0606 l -0.35547,-0.722656 c -0.0256,-0.05172 -0.0587,-0.104197 -0.0859,-0.15625 l -0.0605,-0.125 h -0.008 c -0.33862,-0.618179 -0.7885,-1.252822 -1.38476,-1.84961 l -0.002,-0.002 L 156.26488,9.1524437 C 155.67159,8.4151755 155.0115,7.918962 154.36644,7.59385 154.28114,7.550863 154.19507,7.50998 154.11058,7.4727562 l -0.0859,-0.037109 -0.0312,-0.00195 C 153.20882,7.1007523 152.46804,7.0001 151.90941,7.0001 Z m 0.11523,1.0019531 c 0.37972,7.572e-4 0.91296,0.1248404 1.44727,0.3105469 v 13.935547 c 0,1.22231 0.89866,2.235584 2.06641,2.425781 0.12731,0.02382 0.25744,0.03746 0.39062,0.04102 0.0224,5.98e-4 0.0439,0.0039 0.0664,0.0039 h 13.69336 c 0.23563,0.562366 0.41406,1.117889 0.41406,1.464844 v 31.349609 c 0,0.822556 -0.64278,1.466797 -1.45703,1.466797 h -36.09375 c -0.81435,0 -1.45703,-0.644183 -1.45703,-1.466797 V 9.4708031 c 0,-0.8225555 0.64277,-1.4667967 1.45703,-1.4667969 z m 2.47071,0.9238281 c 0.38082,0.2545633 0.76637,0.4323997 1.12695,0.8886719 l 0.0176,0.021484 12.62695,12.7343749 c 0.37192,0.371984 0.57528,0.75943 0.82813,1.144532 h -13.16602 c -0.0687,0 -0.13319,-0.01063 -0.19922,-0.01953 -0.70854,-0.123274 -1.23436,-0.730184 -1.23437,-1.478515 z m -9.19922,19.5605468 -0.19531,0.230469 0.53125,3.779297 0.35351,0.0918 2.65039,-3.779297 -0.15625,-0.322266 z m 7.42969,0 -0.16211,0.314453 2.2539,3.582032 0.35352,-0.06055 0.92969,-3.580079 -0.19141,-0.255859 z m -9.4375,0.07227 -3.97852,5.171875 0.15234,0.326172 h 5.57032 l 0.18945,-0.261719 -1.5918,-5.171875 z m 7.16211,0 -3.97852,5.171875 0.15234,0.326172 h 7.95704 l 0.15234,-0.326172 -3.97852,-5.171875 z m 7.46679,0 -0.34179,0.06445 -1.5918,5.171875 0.18945,0.261719 h 5.57031 l 0.15235,-0.326172 z m -18.45508,6.294922 -0.14648,0.333984 10.3457,11.539063 0.32813,-0.214844 -4.77344,-11.53711 -0.18359,-0.121093 z m 7.16211,0 -0.18359,0.27539 3.97852,9.947266 h 0.36718 l 3.97852,-9.947266 -0.18359,-0.27539 z m 9.54883,0 -0.18359,0.121093 -4.77344,11.53711 0.32813,0.214844 10.3457,-11.539063 -0.14649,-0.333984 z m -16.26758,15.384765 v 5.503907 h 0.7461 v -2.285157 h 1.71484 l 1.42969,2.285157 h 0.85937 l -1.5625,-2.371094 c 0.41928,-0.07292 0.7474,-0.248698 0.98438,-0.527344 0.23958,-0.278646 0.35937,-0.622396 0.35937,-1.03125 0,-0.494792 -0.16927,-0.880208 -0.50781,-1.15625 -0.33594,-0.278646 -0.8138,-0.417969 -1.43359,-0.417969 z m 5.73829,0 v 3.503907 c 0,0.432291 0.0924,0.804687 0.27734,1.117187 0.1849,0.3125 0.44531,0.550781 0.78125,0.714844 0.33594,0.164062 0.72917,0.246094 1.17969,0.246094 0.46875,-10e-7 0.875,-0.08464 1.21875,-0.253907 0.34635,-0.171875 0.61328,-0.419271 0.80078,-0.742187 0.1901,-0.322917 0.28515,-0.707031 0.28515,-1.152344 v -3.433594 h -0.74218 v 3.390625 c 0,0.518229 -0.13802,0.912761 -0.41407,1.183594 -0.27343,0.268229 -0.65755,0.402344 -1.15234,0.402344 -0.48177,0 -0.85026,-0.130209 -1.10547,-0.390625 -0.25521,-0.260417 -0.38281,-0.641927 -0.38281,-1.144531 v -3.441407 z m 5.8164,0 v 5.503907 h 2.23438 c 0.63541,-10e-7 1.13151,-0.135417 1.48828,-0.40625 0.35677,-0.273438 0.53515,-0.654948 0.53515,-1.144532 0,-0.367187 -0.11849,-0.670573 -0.35546,-0.910156 -0.23698,-0.242188 -0.57422,-0.389323 -1.01172,-0.441406 0.33333,-0.07552 0.59114,-0.223959 0.77343,-0.445313 0.1823,-0.221354 0.27344,-0.494791 0.27344,-0.820312 0,-0.890625 -0.64583,-1.335938 -1.9375,-1.335938 z m 4.85547,0 2.11719,3.222657 v 2.28125 h 0.74219 v -2.28125 l 2.125,-3.222657 h -0.82032 l -1.66797,2.621094 -1.67578,-2.621094 z m -15.66406,0.597657 h 1.76953 c 0.40885,0 0.72135,0.08463 0.9375,0.253906 0.21875,0.166666 0.32812,0.410156 0.32812,0.730469 0,0.330729 -0.10807,0.588541 -0.32421,0.773437 -0.21355,0.182292 -0.51693,0.273438 -0.91016,0.273438 h -1.80078 z m 11.55469,0 h 1.2539 c 0.38542,-10e-7 0.67969,0.0638 0.88281,0.191406 0.20313,0.127604 0.30469,0.339844 0.30469,0.636719 0,0.309895 -0.099,0.540364 -0.29687,0.691406 -0.19532,0.148437 -0.49219,0.222656 -0.89063,0.222656 h -1.2539 z m 0,2.324218 h 1.39062 c 0.91146,0 1.36719,0.324219 1.36719,0.972657 0,0.335937 -0.10417,0.588541 -0.3125,0.757812 -0.20834,0.169271 -0.54037,0.253906 -0.9961,0.253906 h -1.44921 z"
       transform="translate(-118.4973,-1.0001)" />
  </g>
</svg>
