<?xml version="1.0" encoding="UTF-8" standalone="no"?>
<svg
   width="43.546024"
   height="55.538212"
   version="1.1"
   viewBox="0 0 43.546024 55.538212"
   id="svg3"
   xmlns:xlink="http://www.w3.org/1999/xlink"
   xmlns="http://www.w3.org/2000/svg"
   xmlns:svg="http://www.w3.org/2000/svg">
  <defs
     id="defs3">
    <linearGradient
       id="linearGradient15">
      <stop
         style="stop-color:#039bfc;stop-opacity:0;"
         offset="0"
         id="stop16" />
      <stop
         style="stop-color:#039bfc;stop-opacity:1;"
         offset="1"
         id="stop15" />
    </linearGradient>
    <linearGradient
       xlink:href="#linearGradient15"
       id="linearGradient16"
       x1="150.72919"
       y1="65.000099"
       x2="150.72919"
       y2="24.087"
       gradientUnits="userSpaceOnUse" />
    <filter
       style="color-interpolation-filters:sRGB"
       id="filter16"
       x="-0.030947896"
       y="-0.023945386"
       width="1.0618958"
       height="1.0478908">
      <feGaussianBlur
         stdDeviation="0.52879393"
         id="feGaussianBlur16" />
    </filter>
  </defs>
  <g
     id="g16"
     transform="translate(-10.222995,-4.7308946)">
    <path
       id="path1"
       style="display:inline;opacity:0.6;fill:#039bfc;filter:url(#filter16)"
       d="m 151.80394,7.0001 -0.004,0.00195 -19.35351,0.00391 c -1.35355,0 -2.45703,1.1084593 -2.45703,2.4648437 V 57.533303 c 0,1.356386 1.10343,2.466797 2.45703,2.466797 h 36.09375 c 1.35354,0 2.45703,-1.110412 2.45703,-2.466797 V 26.183694 c 0,-0.440775 -0.10327,-0.93784 -0.29297,-1.464844 h 0.0606 l -0.35547,-0.722656 c -0.0256,-0.05172 -0.0587,-0.104197 -0.0859,-0.15625 l -0.0605,-0.125 h -0.008 c -0.33862,-0.618179 -0.7885,-1.252822 -1.38476,-1.84961 l -0.002,-0.002 L 156.26488,9.1524437 C 155.67159,8.4151755 155.0115,7.918962 154.36644,7.59385 154.28114,7.550863 154.19507,7.50998 154.11058,7.4727562 l -0.0859,-0.037109 -0.0312,-0.00195 C 153.20882,7.1007523 152.46804,7.0001 151.90941,7.0001 Z m 0.11523,1.0019531 c 0.37972,7.572e-4 0.91296,0.1248404 1.44727,0.3105469 v 13.935547 c 0,1.22231 0.89866,2.235584 2.06641,2.425781 0.12731,0.02382 0.25744,0.03746 0.39062,0.04102 0.0224,5.98e-4 0.0439,0.0039 0.0664,0.0039 h 13.69336 c 0.23563,0.562366 0.41406,1.117889 0.41406,1.464844 v 31.349609 c 0,0.822556 -0.64278,1.466797 -1.45703,1.466797 h -36.09375 c -0.81435,0 -1.45703,-0.644183 -1.45703,-1.466797 V 9.4708031 c 0,-0.8225555 0.64277,-1.4667967 1.45703,-1.4667969 z m 2.47071,0.9238281 c 0.38082,0.2545633 0.76637,0.4323997 1.12695,0.8886719 l 0.0176,0.021484 12.62695,12.7343749 c 0.37192,0.371984 0.57528,0.75943 0.82813,1.144532 h -13.16602 c -0.0687,0 -0.13319,-0.01063 -0.19922,-0.01953 -0.70854,-0.123274 -1.23436,-0.730184 -1.23437,-1.478515 z M 137.49535,27.449319 c -0.27591,0 -0.49805,0.224089 -0.49805,0.5 v 2.001953 c 0,0.27554 0.22251,0.5 0.49805,0.5 h 2 c 0.27701,0.0021 0.50196,-0.222978 0.50195,-0.5 v -2.001953 c 0,-0.275911 -0.22213,-0.5 -0.49805,-0.5 z m 4.92187,0 c -0.22677,0.01512 -0.4237,0.193958 -0.41992,0.386718 v 2.228516 c 0,0.204098 0.21904,0.386719 0.46094,0.386719 h 17.07617 c 0.24189,0 0.46472,-0.18262 0.46094,-0.386719 v -2.228516 c 0,-0.204098 -0.21903,-0.386718 -0.46094,-0.386718 h -17.11328 z m -2.92187,6.001953 c -0.27591,0 -0.5,0.223961 -0.5,0.496094 v 2.001953 a 0.49890746,0.49890746 0 0 0 0.5,0.5 h 1.99804 a 0.49890746,0.49890746 0 0 0 0.50391,-0.5 v -1.998047 c 0,-0.275911 -0.22409,-0.5 -0.5,-0.5 z m 4.91992,0 c -0.22678,0.01512 -0.42175,0.190053 -0.41797,0.382812 V 36.0626 c 0,0.204098 0.21917,0.390499 0.46484,0.386719 h 17.07227 c 0.24189,0 0.46472,-0.182495 0.46094,-0.382813 v -2.228515 c 0,-0.204098 -0.21903,-0.390498 -0.46094,-0.386719 z m -2.92188,5.998047 c -0.27213,0 -0.49804,0.224089 -0.49804,0.5 v 2.001953 a 0.49890746,0.49890746 0 0 0 0.49804,0.5 h 2.00391 a 0.49890746,0.49890746 0 0 0 0.5,-0.5 v -2.001953 c 0,-0.272131 -0.22409,-0.5 -0.5,-0.5 z m 4.92578,0 c -0.23055,0.01512 -0.4276,0.193958 -0.42382,0.386719 v 2.228515 c 0,0.204098 0.21917,0.386719 0.46484,0.386719 h 17.07227 c 0.24189,0 0.46484,-0.18262 0.46484,-0.386719 v -2.228515 c 0,-0.204098 -0.22296,-0.386719 -0.46484,-0.386719 z m -6.92382,6.001953 c -0.27591,0 -0.5,0.223961 -0.5,0.496094 v 2.001953 a 0.49890746,0.49890746 0 0 0 0.5,0.5 h 1.99804 a 0.49890746,0.49890746 0 0 0 0.50391,-0.5 v -1.998047 c 0,-0.275911 -0.22409,-0.5 -0.5,-0.5 z m 4.91992,0 c -0.22678,0.01512 -0.42175,0.190053 -0.41797,0.382812 V 48.0626 c 0,0.204098 0.21917,0.390499 0.46484,0.386719 h 17.07227 c 0.24189,0 0.46472,-0.182495 0.46094,-0.382813 v -2.228515 c 0,-0.204098 -0.21903,-0.390499 -0.46094,-0.386719 z m -8.83789,6.386719 c -0.55903,0 -0.99653,0.166449 -1.3125,0.498047 -0.31597,0.331596 -0.47266,0.78993 -0.47266,1.375 0,0.390624 0.0703,0.729167 0.21094,1.015625 0.14236,0.284722 0.34809,0.503689 0.61719,0.658203 0.27083,0.152777 0.59114,0.230468 0.96093,0.230468 0.36112,0 0.67665,-0.08312 0.94922,-0.248046 0.27431,-0.164931 0.48763,-0.404732 0.63867,-0.720704 l -0.40625,-0.203125 c -0.25868,0.508681 -0.64431,0.761719 -1.1582,0.761719 -0.40104,0 -0.72092,-0.135634 -0.95703,-0.408203 -0.23437,-0.274305 -0.35156,-0.636285 -0.35156,-1.085937 0,-0.454861 0.11415,-0.811849 0.33984,-1.072266 0.2257,-0.262153 0.54102,-0.394531 0.94727,-0.394531 0.25868,0 0.48242,0.05707 0.66992,0.169922 0.18924,0.112846 0.32509,0.276692 0.41016,0.490234 l 0.47265,-0.15625 c -0.12326,-0.300347 -0.31597,-0.52691 -0.57812,-0.679688 -0.26216,-0.152778 -0.58985,-0.230468 -0.98047,-0.230468 z m 15.14844,0 c -0.57813,0 -1.02626,0.163845 -1.34571,0.490234 -0.31944,0.326389 -0.47851,0.787327 -0.47851,1.382813 0,0.388888 0.0729,0.72743 0.21875,1.015625 0.14757,0.286457 0.35894,0.505425 0.63672,0.658203 0.27777,0.152777 0.6085,0.230468 0.99218,0.230468 0.32986,0 0.63672,-0.05447 0.91797,-0.162109 0.28299,-0.109375 0.5204,-0.263021 0.71485,-0.460937 v -1.265625 h -1.55469 v 0.416015 h 1.09765 v 0.66211 c -0.12847,0.124999 -0.29752,0.223958 -0.50586,0.296875 -0.20659,0.07292 -0.43033,0.109375 -0.66992,0.109375 -0.42014,0 -0.74848,-0.13303 -0.98633,-0.400391 -0.23784,-0.269097 -0.35742,-0.636068 -0.35742,-1.099609 0,-0.465278 0.11198,-0.82487 0.33594,-1.080079 0.22396,-0.256944 0.54905,-0.386718 0.97266,-0.386718 0.27257,0 0.49935,0.04904 0.68164,0.144531 0.18403,0.09549 0.32747,0.246745 0.43164,0.455078 l 0.47461,-0.140625 c -0.13716,-0.302083 -0.33247,-0.52105 -0.58594,-0.658203 -0.25347,-0.137153 -0.58399,-0.207031 -0.99023,-0.207031 z m 10.65429,0 c -0.57291,0 -1.02061,0.166449 -1.34179,0.498047 -0.32119,0.32986 -0.48047,0.788194 -0.48047,1.375 0,0.385415 0.0707,0.723741 0.21484,1.013671 0.1441,0.288194 0.35243,0.507379 0.625,0.660157 0.27431,0.152777 0.59983,0.230468 0.97656,0.230468 0.37327,0 0.69835,-0.07791 0.97266,-0.232421 0.2743,-0.154514 0.48307,-0.375869 0.62891,-0.664063 0.14756,-0.288195 0.22265,-0.624132 0.22265,-1.007812 0,-0.385417 -0.0729,-0.718968 -0.21875,-1.001954 -0.14409,-0.282986 -0.3546,-0.498915 -0.6289,-0.646484 -0.27431,-0.149305 -0.59744,-0.224609 -0.97071,-0.224609 z m 4.16602,0 c -0.57813,0 -1.02626,0.163845 -1.34571,0.490234 -0.31944,0.326389 -0.47851,0.787327 -0.47851,1.382813 0,0.388888 0.0729,0.72743 0.21875,1.015625 0.14757,0.286457 0.35894,0.505425 0.63672,0.658203 0.27778,0.152777 0.60851,0.230468 0.99219,0.230468 0.32986,0 0.63671,-0.05447 0.91796,-0.162109 0.28299,-0.109375 0.5204,-0.263021 0.71485,-0.460937 v -1.265625 h -1.55469 v 0.416015 h 1.09766 v 0.66211 c -0.12848,0.124999 -0.29753,0.223958 -0.50586,0.296875 -0.2066,0.07292 -0.43034,0.109375 -0.66992,0.109375 -0.42014,0 -0.74849,-0.13303 -0.98633,-0.400391 -0.23785,-0.269097 -0.35742,-0.636068 -0.35742,-1.099609 0,-0.465278 0.11198,-0.82487 0.33593,-1.080079 0.22396,-0.256944 0.54905,-0.386718 0.97266,-0.386718 0.27257,0 0.49935,0.04904 0.68164,0.144531 0.18403,0.09549 0.32747,0.246745 0.43164,0.455078 l 0.47461,-0.140625 c -0.13715,-0.302083 -0.33247,-0.52105 -0.58594,-0.658203 -0.25347,-0.137153 -0.58398,-0.207031 -0.99023,-0.207031 z m -27.73633,0.05469 V 55.5626 h 0.49805 v -1.701172 h 1.98437 V 55.5626 h 0.4961 v -3.669922 h -0.4961 v 1.552735 h -1.98437 v -1.552735 z m 4.92187,0 -1.49804,3.669922 h 0.51562 l 0.42188,-1.072266 h 1.67187 l 0.41992,1.072266 h 0.50782 l -1.47461,-3.669922 z m 2.48633,0 V 55.5626 h 0.44336 v -2.4375 l -0.0137,-0.435547 -0.0117,-0.251953 1.96289,3.125 h 0.59961 v -3.669922 h -0.44922 v 2.40625 c 0,0.152778 0.0104,0.399957 0.0312,0.740235 l -1.98437,-3.146485 z m 8,0 V 55.5626 h 2.89063 v -0.40625 h -2.39258 v -1.279297 h 2.13086 v -0.40039 h -2.13086 v -1.177735 h 2.28711 v -0.40625 z m 3.5586,0 V 55.5626 h 2.35156 v -0.40625 h -1.85547 v -3.263672 z m 4.60351,0.351563 c 0.41667,0 0.73937,0.130208 0.9668,0.390625 0.22917,0.260416 0.34375,0.619574 0.34375,1.076172 0,0.47743 -0.11437,0.847222 -0.3418,1.109375 -0.22569,0.260416 -0.551,0.390625 -0.97461,0.390625 -0.41146,-1e-6 -0.7322,-0.1352 -0.96484,-0.404297 -0.2309,-0.270833 -0.34766,-0.635634 -0.34766,-1.095703 0,-0.463542 0.11459,-0.823134 0.34375,-1.080079 0.22917,-0.256944 0.55447,-0.386718 0.97461,-0.386718 z m -18.37304,0.02344 0.0703,0.216797 c 0.0486,0.151041 0.0979,0.286458 0.14648,0.40625 l 0.47071,1.210938 h -1.3711 l 0.46875,-1.205079 c 0.0851,-0.225694 0.14801,-0.41059 0.19141,-0.554687 z"
       transform="translate(-118.4973,-1.0001)" />
    <path
       id="path15"
       style="fill:url(#linearGradient16);fill-opacity:1"
       d="m 151.80394,7.0001 -0.004,0.00195 -19.35351,0.00391 c -1.35355,0 -2.45703,1.1084593 -2.45703,2.4648437 V 57.533303 c 0,1.356386 1.10343,2.466797 2.45703,2.466797 h 36.09375 c 1.35354,0 2.45703,-1.110412 2.45703,-2.466797 V 26.183694 c 0,-0.440775 -0.10327,-0.93784 -0.29297,-1.464844 h 0.0606 l -0.35547,-0.722656 c -0.0256,-0.05172 -0.0587,-0.104197 -0.0859,-0.15625 l -0.0605,-0.125 h -0.008 c -0.33862,-0.618179 -0.7885,-1.252822 -1.38476,-1.84961 l -0.002,-0.002 L 156.26488,9.1524437 C 155.67159,8.4151755 155.0115,7.918962 154.36644,7.59385 154.28114,7.550863 154.19507,7.50998 154.11058,7.4727562 l -0.0859,-0.037109 -0.0312,-0.00195 C 153.20882,7.1007523 152.46804,7.0001 151.90941,7.0001 Z m 0.11523,1.0019531 c 0.37972,7.572e-4 0.91296,0.1248404 1.44727,0.3105469 v 13.935547 c 0,1.22231 0.89866,2.235584 2.06641,2.425781 0.12731,0.02382 0.25744,0.03746 0.39062,0.04102 0.0224,5.98e-4 0.0439,0.0039 0.0664,0.0039 h 13.69336 c 0.23563,0.562366 0.41406,1.117889 0.41406,1.464844 v 31.349609 c 0,0.822556 -0.64278,1.466797 -1.45703,1.466797 h -36.09375 c -0.81435,0 -1.45703,-0.644183 -1.45703,-1.466797 V 9.4708031 c 0,-0.8225555 0.64277,-1.4667967 1.45703,-1.4667969 z m 2.47071,0.9238281 c 0.38082,0.2545633 0.76637,0.4323997 1.12695,0.8886719 l 0.0176,0.021484 12.62695,12.7343749 c 0.37192,0.371984 0.57528,0.75943 0.82813,1.144532 h -13.16602 c -0.0687,0 -0.13319,-0.01063 -0.19922,-0.01953 -0.70854,-0.123274 -1.23436,-0.730184 -1.23437,-1.478515 z M 137.49535,27.449319 c -0.27591,0 -0.49805,0.224089 -0.49805,0.5 v 2.001953 c 0,0.27554 0.22251,0.5 0.49805,0.5 h 2 c 0.27701,0.0021 0.50196,-0.222978 0.50195,-0.5 v -2.001953 c 0,-0.275911 -0.22213,-0.5 -0.49805,-0.5 z m 4.92187,0 c -0.22677,0.01512 -0.4237,0.193958 -0.41992,0.386718 v 2.228516 c 0,0.204098 0.21904,0.386719 0.46094,0.386719 h 17.07617 c 0.24189,0 0.46472,-0.18262 0.46094,-0.386719 v -2.228516 c 0,-0.204098 -0.21903,-0.386718 -0.46094,-0.386718 h -17.11328 z m -2.92187,6.001953 c -0.27591,0 -0.5,0.223961 -0.5,0.496094 v 2.001953 a 0.49890746,0.49890746 0 0 0 0.5,0.5 h 1.99804 a 0.49890746,0.49890746 0 0 0 0.50391,-0.5 v -1.998047 c 0,-0.275911 -0.22409,-0.5 -0.5,-0.5 z m 4.91992,0 c -0.22678,0.01512 -0.42175,0.190053 -0.41797,0.382812 V 36.0626 c 0,0.204098 0.21917,0.390499 0.46484,0.386719 h 17.07227 c 0.24189,0 0.46472,-0.182495 0.46094,-0.382813 v -2.228515 c 0,-0.204098 -0.21903,-0.390498 -0.46094,-0.386719 z m -2.92188,5.998047 c -0.27213,0 -0.49804,0.224089 -0.49804,0.5 v 2.001953 a 0.49890746,0.49890746 0 0 0 0.49804,0.5 h 2.00391 a 0.49890746,0.49890746 0 0 0 0.5,-0.5 v -2.001953 c 0,-0.272131 -0.22409,-0.5 -0.5,-0.5 z m 4.92578,0 c -0.23055,0.01512 -0.4276,0.193958 -0.42382,0.386719 v 2.228515 c 0,0.204098 0.21917,0.386719 0.46484,0.386719 h 17.07227 c 0.24189,0 0.46484,-0.18262 0.46484,-0.386719 v -2.228515 c 0,-0.204098 -0.22296,-0.386719 -0.46484,-0.386719 z m -6.92382,6.001953 c -0.27591,0 -0.5,0.223961 -0.5,0.496094 v 2.001953 a 0.49890746,0.49890746 0 0 0 0.5,0.5 h 1.99804 a 0.49890746,0.49890746 0 0 0 0.50391,-0.5 v -1.998047 c 0,-0.275911 -0.22409,-0.5 -0.5,-0.5 z m 4.91992,0 c -0.22678,0.01512 -0.42175,0.190053 -0.41797,0.382812 V 48.0626 c 0,0.204098 0.21917,0.390499 0.46484,0.386719 h 17.07227 c 0.24189,0 0.46472,-0.182495 0.46094,-0.382813 v -2.228515 c 0,-0.204098 -0.21903,-0.390499 -0.46094,-0.386719 z m -8.83789,6.386719 c -0.55903,0 -0.99653,0.166449 -1.3125,0.498047 -0.31597,0.331596 -0.47266,0.78993 -0.47266,1.375 0,0.390624 0.0703,0.729167 0.21094,1.015625 0.14236,0.284722 0.34809,0.503689 0.61719,0.658203 0.27083,0.152777 0.59114,0.230468 0.96093,0.230468 0.36112,0 0.67665,-0.08312 0.94922,-0.248046 0.27431,-0.164931 0.48763,-0.404732 0.63867,-0.720704 l -0.40625,-0.203125 c -0.25868,0.508681 -0.64431,0.761719 -1.1582,0.761719 -0.40104,0 -0.72092,-0.135634 -0.95703,-0.408203 -0.23437,-0.274305 -0.35156,-0.636285 -0.35156,-1.085937 0,-0.454861 0.11415,-0.811849 0.33984,-1.072266 0.2257,-0.262153 0.54102,-0.394531 0.94727,-0.394531 0.25868,0 0.48242,0.05707 0.66992,0.169922 0.18924,0.112846 0.32509,0.276692 0.41016,0.490234 l 0.47265,-0.15625 c -0.12326,-0.300347 -0.31597,-0.52691 -0.57812,-0.679688 -0.26216,-0.152778 -0.58985,-0.230468 -0.98047,-0.230468 z m 15.14844,0 c -0.57813,0 -1.02626,0.163845 -1.34571,0.490234 -0.31944,0.326389 -0.47851,0.787327 -0.47851,1.382813 0,0.388888 0.0729,0.72743 0.21875,1.015625 0.14757,0.286457 0.35894,0.505425 0.63672,0.658203 0.27777,0.152777 0.6085,0.230468 0.99218,0.230468 0.32986,0 0.63672,-0.05447 0.91797,-0.162109 0.28299,-0.109375 0.5204,-0.263021 0.71485,-0.460937 v -1.265625 h -1.55469 v 0.416015 h 1.09765 v 0.66211 c -0.12847,0.124999 -0.29752,0.223958 -0.50586,0.296875 -0.20659,0.07292 -0.43033,0.109375 -0.66992,0.109375 -0.42014,0 -0.74848,-0.13303 -0.98633,-0.400391 -0.23784,-0.269097 -0.35742,-0.636068 -0.35742,-1.099609 0,-0.465278 0.11198,-0.82487 0.33594,-1.080079 0.22396,-0.256944 0.54905,-0.386718 0.97266,-0.386718 0.27257,0 0.49935,0.04904 0.68164,0.144531 0.18403,0.09549 0.32747,0.246745 0.43164,0.455078 l 0.47461,-0.140625 c -0.13716,-0.302083 -0.33247,-0.52105 -0.58594,-0.658203 -0.25347,-0.137153 -0.58399,-0.207031 -0.99023,-0.207031 z m 10.65429,0 c -0.57291,0 -1.02061,0.166449 -1.34179,0.498047 -0.32119,0.32986 -0.48047,0.788194 -0.48047,1.375 0,0.385415 0.0707,0.723741 0.21484,1.013671 0.1441,0.288194 0.35243,0.507379 0.625,0.660157 0.27431,0.152777 0.59983,0.230468 0.97656,0.230468 0.37327,0 0.69835,-0.07791 0.97266,-0.232421 0.2743,-0.154514 0.48307,-0.375869 0.62891,-0.664063 0.14756,-0.288195 0.22265,-0.624132 0.22265,-1.007812 0,-0.385417 -0.0729,-0.718968 -0.21875,-1.001954 -0.14409,-0.282986 -0.3546,-0.498915 -0.6289,-0.646484 -0.27431,-0.149305 -0.59744,-0.224609 -0.97071,-0.224609 z m 4.16602,0 c -0.57813,0 -1.02626,0.163845 -1.34571,0.490234 -0.31944,0.326389 -0.47851,0.787327 -0.47851,1.382813 0,0.388888 0.0729,0.72743 0.21875,1.015625 0.14757,0.286457 0.35894,0.505425 0.63672,0.658203 0.27778,0.152777 0.60851,0.230468 0.99219,0.230468 0.32986,0 0.63671,-0.05447 0.91796,-0.162109 0.28299,-0.109375 0.5204,-0.263021 0.71485,-0.460937 v -1.265625 h -1.55469 v 0.416015 h 1.09766 v 0.66211 c -0.12848,0.124999 -0.29753,0.223958 -0.50586,0.296875 -0.2066,0.07292 -0.43034,0.109375 -0.66992,0.109375 -0.42014,0 -0.74849,-0.13303 -0.98633,-0.400391 -0.23785,-0.269097 -0.35742,-0.636068 -0.35742,-1.099609 0,-0.465278 0.11198,-0.82487 0.33593,-1.080079 0.22396,-0.256944 0.54905,-0.386718 0.97266,-0.386718 0.27257,0 0.49935,0.04904 0.68164,0.144531 0.18403,0.09549 0.32747,0.246745 0.43164,0.455078 l 0.47461,-0.140625 c -0.13715,-0.302083 -0.33247,-0.52105 -0.58594,-0.658203 -0.25347,-0.137153 -0.58398,-0.207031 -0.99023,-0.207031 z m -27.73633,0.05469 V 55.5626 h 0.49805 v -1.701172 h 1.98437 V 55.5626 h 0.4961 v -3.669922 h -0.4961 v 1.552735 h -1.98437 v -1.552735 z m 4.92187,0 -1.49804,3.669922 h 0.51562 l 0.42188,-1.072266 h 1.67187 l 0.41992,1.072266 h 0.50782 l -1.47461,-3.669922 z m 2.48633,0 V 55.5626 h 0.44336 v -2.4375 l -0.0137,-0.435547 -0.0117,-0.251953 1.96289,3.125 h 0.59961 v -3.669922 h -0.44922 v 2.40625 c 0,0.152778 0.0104,0.399957 0.0312,0.740235 l -1.98437,-3.146485 z m 8,0 V 55.5626 h 2.89063 v -0.40625 h -2.39258 v -1.279297 h 2.13086 v -0.40039 h -2.13086 v -1.177735 h 2.28711 v -0.40625 z m 3.5586,0 V 55.5626 h 2.35156 v -0.40625 h -1.85547 v -3.263672 z m 4.60351,0.351563 c 0.41667,0 0.73937,0.130208 0.9668,0.390625 0.22917,0.260416 0.34375,0.619574 0.34375,1.076172 0,0.47743 -0.11437,0.847222 -0.3418,1.109375 -0.22569,0.260416 -0.551,0.390625 -0.97461,0.390625 -0.41146,-1e-6 -0.7322,-0.1352 -0.96484,-0.404297 -0.2309,-0.270833 -0.34766,-0.635634 -0.34766,-1.095703 0,-0.463542 0.11459,-0.823134 0.34375,-1.080079 0.22917,-0.256944 0.55447,-0.386718 0.97461,-0.386718 z m -18.37304,0.02344 0.0703,0.216797 c 0.0486,0.151041 0.0979,0.286458 0.14648,0.40625 l 0.47071,1.210938 h -1.3711 l 0.46875,-1.205079 c 0.0851,-0.225694 0.14801,-0.41059 0.19141,-0.554687 z"
       transform="translate(-118.4973,-1.0001)" />
  </g>
</svg>
