<?xml version="1.0" encoding="UTF-8" standalone="no"?>
<svg
   width="43.546024"
   height="55.538212"
   version="1.1"
   viewBox="0 0 43.546024 55.538212"
   id="svg3"
   xmlns:xlink="http://www.w3.org/1999/xlink"
   xmlns="http://www.w3.org/2000/svg"
   xmlns:svg="http://www.w3.org/2000/svg">
  <defs
     id="defs3">
    <linearGradient
       id="linearGradient9">
      <stop
         style="stop-color:#00abff;stop-opacity:0;"
         offset="0"
         id="stop10" />
      <stop
         style="stop-color:#00abff;stop-opacity:1;"
         offset="1"
         id="stop9" />
    </linearGradient>
    <linearGradient
       xlink:href="#linearGradient9"
       id="linearGradient10"
       x1="150.03354"
       y1="65.000099"
       x2="150.03354"
       y2="24.652273"
       gradientUnits="userSpaceOnUse" />
    <filter
       style="color-interpolation-filters:sRGB"
       id="filter10"
       x="-0.030947896"
       y="-0.023945386"
       width="1.0618958"
       height="1.0478908">
      <feGaussianBlur
         stdDeviation="0.52879393"
         id="feGaussianBlur10" />
    </filter>
  </defs>
  <g
     id="g10"
     transform="translate(-10.222995,-4.7308946)">
    <path
       id="path1"
       style="display:inline;opacity:0.6;fill:#00abff;fill-opacity:1;stroke:none;filter:url(#filter10)"
       d="m 151.80394,7.0001 -0.004,0.00195 -19.35351,0.00391 c -1.35355,0 -2.45703,1.1084593 -2.45703,2.4648437 V 57.533303 c 0,1.356386 1.10343,2.466797 2.45703,2.466797 h 36.09375 c 1.35354,0 2.45703,-1.110412 2.45703,-2.466797 V 26.183694 c 0,-0.440775 -0.10327,-0.93784 -0.29297,-1.464844 h 0.0606 l -0.35547,-0.722656 c -0.0256,-0.05172 -0.0587,-0.104197 -0.0859,-0.15625 l -0.0605,-0.125 h -0.008 c -0.33862,-0.618179 -0.7885,-1.252822 -1.38476,-1.84961 l -0.002,-0.002 L 156.26488,9.1524437 C 155.67159,8.4151755 155.0115,7.918962 154.36644,7.59385 154.28114,7.550863 154.19507,7.50998 154.11058,7.4727562 l -0.0859,-0.037109 -0.0312,-0.00195 C 153.20882,7.1007523 152.46804,7.0001 151.90941,7.0001 Z m 0.11523,1.0019531 c 0.37972,7.572e-4 0.91296,0.1248404 1.44727,0.3105469 v 13.935547 c 0,1.22231 0.89866,2.235584 2.06641,2.425781 0.12731,0.02382 0.25744,0.03746 0.39062,0.04102 0.0224,5.98e-4 0.0439,0.0039 0.0664,0.0039 h 13.69336 c 0.23563,0.562366 0.41406,1.117889 0.41406,1.464844 v 31.349609 c 0,0.822556 -0.64278,1.466797 -1.45703,1.466797 h -36.09375 c -0.81435,0 -1.45703,-0.644183 -1.45703,-1.466797 V 9.4708031 c 0,-0.8225555 0.64277,-1.4667967 1.45703,-1.4667969 z m 2.47071,0.9238281 c 0.38082,0.2545633 0.76637,0.4323997 1.12695,0.8886719 l 0.0176,0.021484 12.62695,12.7343749 c 0.37192,0.371984 0.57528,0.75943 0.82813,1.144532 h -13.16602 c -0.0687,0 -0.13319,-0.01063 -0.19922,-0.01953 -0.70854,-0.123274 -1.23436,-0.730184 -1.23437,-1.478515 z M 150.4973,28.160256 c -0.0906,0 -0.18132,0.03935 -0.23047,0.119141 l -0.48633,0.787109 -0.23047,0.02344 -0.63281,-0.677735 c -0.12806,-0.137013 -0.38551,-0.08664 -0.45117,0.08984 l -0.32422,0.867188 -0.22266,0.06641 -0.75,-0.539063 c -0.15244,-0.110102 -0.39761,-0.0093 -0.42773,0.175782 l -0.14844,0.914062 -0.20508,0.109375 -0.84179,-0.384766 c -0.17109,-0.0782 -0.39,0.07021 -0.38281,0.257813 l 0.0312,0.925781 -0.17774,0.146485 -0.90234,-0.212891 c -0.18328,-0.04269 -0.36922,0.142896 -0.32617,0.326172 l 0.21289,0.902344 -0.14649,0.177734 -0.92578,-0.0332 c -0.18689,-0.0054 -0.33369,0.213304 -0.25586,0.384766 l 0.38281,0.841796 -0.10937,0.205079 -0.91406,0.148437 c -0.18545,0.03009 -0.2852,0.273314 -0.17579,0.425781 l 0.54102,0.75 -0.0684,0.22461 -0.86523,0.322265 c -0.17577,0.06564 -0.22917,0.324687 -0.0918,0.453125 l 0.67773,0.63086 -0.0215,0.230468 -0.78906,0.488282 c -0.15963,0.09864 -0.15963,0.362648 0,0.460937 l 0.78906,0.488281 0.0215,0.228516 -0.67773,0.632813 c -0.13737,0.128059 -0.084,0.385181 0.0918,0.451171 l 0.86523,0.324219 0.0684,0.222656 -0.54102,0.75 c -0.10974,0.152797 -0.008,0.397965 0.17774,0.427735 l 0.91211,0.148437 0.10937,0.205078 -0.38281,0.841797 c -0.0782,0.171084 0.069,0.390349 0.25586,0.382813 l 0.92578,-0.0332 0.14649,0.179687 -0.21289,0.902344 c -0.043,0.182945 0.14289,0.369197 0.32617,0.326172 l 0.90234,-0.212891 0.17774,0.144531 -0.0312,0.927735 c -0.007,0.1876 0.21172,0.334065 0.38281,0.255859 l 0.84179,-0.382812 0.20508,0.109375 0.14844,0.912109 c 0.0301,0.185805 0.27529,0.287127 0.42773,0.177734 l 0.75,-0.541015 0.22266,0.06836 0.32422,0.865235 c 0.0656,0.175739 0.32314,0.227572 0.45117,0.08984 l 0.63281,-0.677734 0.22852,0.02344 0.48828,0.78711 c 0.0983,0.15887 0.3623,0.159248 0.46094,0 l 0.48828,-0.78711 0.23047,-0.02344 0.63086,0.677734 c 0.12806,0.137745 0.38746,0.0859 0.45312,-0.08984 l 0.32227,-0.865235 0.22461,-0.06836 0.75,0.541015 c 0.15244,0.109393 0.39566,0.0078 0.42578,-0.177734 l 0.14844,-0.912109 0.20507,-0.109375 0.8418,0.382812 c 0.17109,0.0782 0.3916,-0.0679 0.38477,-0.255859 l -0.0332,-0.927735 0.17774,-0.144531 0.90234,0.212891 c 0.1833,0.04303 0.36922,-0.143227 0.32617,-0.326172 l -0.21289,-0.902344 0.14649,-0.179687 0.92578,0.0332 c 0.18687,0.0075 0.33442,-0.211729 0.25586,-0.382813 l -0.38281,-0.841797 0.10937,-0.205078 0.91406,-0.148437 c 0.18581,-0.02976 0.28591,-0.274914 0.17578,-0.427735 l -0.54101,-0.75 0.0684,-0.222656 0.86523,-0.324219 c 0.17612,-0.06599 0.2276,-0.323112 0.0899,-0.451171 l -0.67578,-0.632813 0.0215,-0.228516 0.78906,-0.488281 c 0.15963,-0.09829 0.15964,-0.362294 0,-0.460937 l -0.78906,-0.488282 -0.0215,-0.230468 0.67578,-0.63086 c 0.13774,-0.128438 0.0863,-0.387489 -0.0899,-0.453125 l -0.86523,-0.322265 -0.0684,-0.22461 0.54101,-0.75 c 0.11013,-0.152466 0.01,-0.395278 -0.17578,-0.425781 l -0.91406,-0.148437 -0.10937,-0.205079 0.38281,-0.841796 c 0.0786,-0.171461 -0.0672,-0.391949 -0.25586,-0.384766 l -0.92578,0.0332 -0.14649,-0.177734 0.21289,-0.902344 c 0.043,-0.183278 -0.14289,-0.36922 -0.32617,-0.326172 l -0.90234,0.212891 -0.17774,-0.146485 0.0332,-0.925781 c 0.007,-0.187598 -0.21366,-0.335663 -0.38477,-0.257813 l -0.8418,0.384766 -0.20507,-0.111328 -0.14844,-0.912109 c -0.0301,-0.185072 -0.27336,-0.285578 -0.42578,-0.175782 l -0.75,0.539063 -0.22461,-0.06836 -0.32227,-0.865234 c -0.0656,-0.176472 -0.32506,-0.22685 -0.45312,-0.08984 l -0.63086,0.677735 -0.23047,-0.02344 -0.48828,-0.787109 c -0.0493,-0.07979 -0.13981,-0.119141 -0.23047,-0.119141 z m -0.0293,1.650391 c 0.27878,0 0.55679,0.186867 0.55664,0.558594 -3.1e-4,0.742932 -1.11299,0.742932 -1.11328,0 -1.5e-4,-0.371727 0.27787,-0.558594 0.55664,-0.558594 z m -1.24414,0.919922 0.85938,0.902343 c 0.19405,0.203193 0.51572,0.209792 0.71875,0.01563 l 0.95898,-0.917968 c 1.98149,0.371159 3.70074,1.594316 4.69922,3.345703 l -0.6582,1.484375 c -0.11353,0.257016 0.004,0.557991 0.25976,0.671875 l 1.26563,0.5625 c 0.0394,0.395944 0.0434,0.794611 0.0137,1.191406 h -0.70313 c -0.0705,0 -0.0996,0.04617 -0.0996,0.115235 v 0.322265 c 0,0.761149 -0.42862,0.926623 -0.80469,0.96875 -0.35817,0.04036 -0.75571,-0.149975 -0.80469,-0.36914 -0.21127,-1.188352 -0.56319,-1.442387 -1.11914,-1.88086 0.68994,-0.438142 1.4082,-1.084062 1.4082,-1.949219 0,-0.934218 -0.64161,-1.521988 -1.07812,-1.810546 -0.61247,-0.403694 -1.28971,-0.441407 -1.47266,-0.441407 h -7.2832 c 1.00666,-1.12489 2.35655,-1.930601 3.83984,-2.210937 z m -5.40625,4.126953 c 0.27878,0 0.55874,0.186844 0.5586,0.558594 -3.2e-4,0.742909 -1.11496,0.742909 -1.11524,0 -1.5e-4,-0.371726 0.27787,-0.558594 0.55664,-0.558594 z m 13.29883,0.02734 c 0.27878,0 0.55874,0.184891 0.55859,0.55664 -3.1e-4,0.74291 -1.11495,0.74291 -1.11523,0 -1.6e-4,-0.371749 0.27786,-0.55664 0.55664,-0.55664 z m -12.12891,0.220703 h 0.82227 l -0.004,4.34375 h -1.91015 c -0.2422,-0.850746 -0.31616,-1.831605 -0.22071,-2.710938 l 1.19922,-0.533203 c 0.25648,-0.113883 0.37365,-0.414883 0.25977,-0.671875 z m 3.70704,0 h 2.53515 c 0.11963,0 0.84375,0.04767 0.84375,0.589844 0,0.450122 -0.55634,0.671875 -1.01367,0.671875 h -2.36523 z m 0,2.884765 h 2.02148 c 0.16194,0 0.86672,0.225254 1.0918,1.125 0.0705,0.276722 0.2262,1.178592 0.33203,1.466797 0.10545,0.323172 0.53467,1.013672 0.99219,1.013672 h 2.89453 c -0.19422,0.259945 -0.4058,0.459584 -0.63477,0.689453 l -1.17969,-0.253906 c -0.27457,-0.05883 -0.54468,0.117463 -0.60351,0.392578 l -0.2793,1.304688 c -1.82066,0.824707 -3.90998,0.814824 -5.72266,-0.02734 l -0.27929,-1.304688 c -0.0588,-0.274737 -0.32911,-0.451574 -0.60352,-0.392578 l -1.15234,0.248047 c -0.21416,-0.22056 -0.41495,-0.408992 -0.59766,-0.65625 h 5.52344 v -2.164062 h -1.80273 z m -2.35547,4.722657 c 0.27877,0 0.55678,0.184914 0.55664,0.55664 -3.1e-4,0.74291 -1.11493,0.74291 -1.11524,0 -1.5e-4,-0.37175 0.27982,-0.55664 0.5586,-0.55664 z m 8.25781,0.02539 c 0.27878,0 0.55874,0.186867 0.55859,0.558594 -3.1e-4,0.742933 -1.11495,0.742933 -1.11523,0 -1.6e-4,-0.37175 0.27786,-0.558594 0.55664,-0.558594 z m -0.95899,7.302735 c -0.67187,0 -1.1888,0.127604 -1.55078,0.382812 -0.35937,0.255208 -0.53906,0.61849 -0.53906,1.089844 0,0.205729 0.0339,0.388021 0.10156,0.546875 0.0703,0.158854 0.17058,0.298177 0.30078,0.417969 0.13021,0.117187 0.3073,0.223958 0.53125,0.320312 0.22657,0.09635 0.5573,0.192708 0.99219,0.289063 0.25,0.05729 0.47787,0.110677 0.6836,0.160156 0.20573,0.04948 0.38281,0.110677 0.53125,0.183594 0.14843,0.07292 0.26302,0.165364 0.34375,0.277343 0.0833,0.11198 0.125,0.257813 0.125,0.4375 0,0.320313 -0.13151,0.563802 -0.39454,0.730469 -0.26041,0.164063 -0.63151,0.246094 -1.11328,0.246094 -0.46614,0 -0.83463,-0.07682 -1.10547,-0.230469 -0.27083,-0.15625 -0.44791,-0.399739 -0.53125,-0.730469 l -0.72265,0.144532 c 0.21354,0.932291 0.99088,1.398437 2.33203,1.398437 0.72135,0 1.27995,-0.139323 1.67578,-0.417969 0.39844,-0.278645 0.59766,-0.671875 0.59766,-1.179687 0,-0.200521 -0.0286,-0.375 -0.0859,-0.523438 -0.0547,-0.148437 -0.13151,-0.277343 -0.23047,-0.386718 -0.099,-0.109375 -0.21614,-0.201823 -0.35156,-0.277344 -0.13281,-0.07552 -0.27604,-0.140625 -0.42969,-0.195313 -0.15364,-0.05729 -0.3151,-0.105468 -0.48437,-0.144531 -0.16667,-0.04167 -0.33464,-0.08203 -0.50391,-0.121094 -0.50521,-0.111979 -0.84245,-0.205729 -1.01172,-0.28125 -0.16927,-0.07813 -0.29948,-0.171875 -0.39062,-0.28125 -0.0885,-0.111979 -0.13282,-0.252604 -0.13282,-0.421875 0,-0.289062 0.11589,-0.50651 0.34766,-0.652343 0.23177,-0.145834 0.56771,-0.21875 1.00781,-0.21875 0.40104,0 0.71485,0.06641 0.94141,0.199218 0.22656,0.130209 0.38021,0.341146 0.46094,0.632813 l 0.73437,-0.128906 c -0.13281,-0.460938 -0.36458,-0.786459 -0.69531,-0.976563 -0.33073,-0.192708 -0.8086,-0.289062 -1.4336,-0.289062 z m -13.60937,0.08203 v 5.503906 h 0.74609 v -2.285156 h 1.71485 l 1.42968,2.285156 h 0.85938 l -1.5625,-2.371094 c 0.41927,-0.07292 0.7474,-0.248698 0.98437,-0.527343 0.23959,-0.278646 0.35938,-0.622396 0.35938,-1.03125 0,-0.494792 -0.16927,-0.880209 -0.50781,-1.15625 -0.33594,-0.278646 -0.8138,-0.417969 -1.4336,-0.417969 z m 5.73828,0 v 3.503906 c 0,0.432292 0.0925,0.804688 0.27734,1.117188 0.1849,0.3125 0.44532,0.550781 0.78125,0.714843 0.33594,0.164063 0.72917,0.246094 1.17969,0.246094 0.46875,0 0.875,-0.08463 1.21875,-0.253906 0.34636,-0.171875 0.61328,-0.419271 0.80078,-0.742188 0.19011,-0.322916 0.28516,-0.707031 0.28516,-1.152343 v -3.433594 h -0.74219 v 3.390625 c 0,0.518229 -0.13802,0.91276 -0.41406,1.183594 -0.27344,0.268229 -0.65755,0.402343 -1.15234,0.402343 -0.48177,0 -0.85026,-0.130208 -1.10547,-0.390625 -0.25521,-0.260416 -0.38282,-0.641927 -0.38282,-1.144531 v -3.441406 z m 10.67578,0 v 0.609375 h 1.89063 v 4.894531 h 0.74218 v -4.894531 h 1.89063 v -0.609375 z m -15.66797,0.597656 h 1.76953 c 0.40886,0 0.72136,0.08464 0.9375,0.253906 0.21875,0.166667 0.32813,0.410157 0.32813,0.730469 0,0.330729 -0.10807,0.588542 -0.32422,0.773438 -0.21354,0.182291 -0.51693,0.273437 -0.91016,0.273437 h -1.80078 z"
       transform="translate(-118.4973,-1.0001)" />
    <path
       id="path9"
       style="fill:url(#linearGradient10);fill-opacity:1;stroke:none"
       d="m 151.80394,7.0001 -0.004,0.00195 -19.35351,0.00391 c -1.35355,0 -2.45703,1.1084593 -2.45703,2.4648437 V 57.533303 c 0,1.356386 1.10343,2.466797 2.45703,2.466797 h 36.09375 c 1.35354,0 2.45703,-1.110412 2.45703,-2.466797 V 26.183694 c 0,-0.440775 -0.10327,-0.93784 -0.29297,-1.464844 h 0.0606 l -0.35547,-0.722656 c -0.0256,-0.05172 -0.0587,-0.104197 -0.0859,-0.15625 l -0.0605,-0.125 h -0.008 c -0.33862,-0.618179 -0.7885,-1.252822 -1.38476,-1.84961 l -0.002,-0.002 L 156.26488,9.1524437 C 155.67159,8.4151755 155.0115,7.918962 154.36644,7.59385 154.28114,7.550863 154.19507,7.50998 154.11058,7.4727562 l -0.0859,-0.037109 -0.0312,-0.00195 C 153.20882,7.1007523 152.46804,7.0001 151.90941,7.0001 Z m 0.11523,1.0019531 c 0.37972,7.572e-4 0.91296,0.1248404 1.44727,0.3105469 v 13.935547 c 0,1.22231 0.89866,2.235584 2.06641,2.425781 0.12731,0.02382 0.25744,0.03746 0.39062,0.04102 0.0224,5.98e-4 0.0439,0.0039 0.0664,0.0039 h 13.69336 c 0.23563,0.562366 0.41406,1.117889 0.41406,1.464844 v 31.349609 c 0,0.822556 -0.64278,1.466797 -1.45703,1.466797 h -36.09375 c -0.81435,0 -1.45703,-0.644183 -1.45703,-1.466797 V 9.4708031 c 0,-0.8225555 0.64277,-1.4667967 1.45703,-1.4667969 z m 2.47071,0.9238281 c 0.38082,0.2545633 0.76637,0.4323997 1.12695,0.8886719 l 0.0176,0.021484 12.62695,12.7343749 c 0.37192,0.371984 0.57528,0.75943 0.82813,1.144532 h -13.16602 c -0.0687,0 -0.13319,-0.01063 -0.19922,-0.01953 -0.70854,-0.123274 -1.23436,-0.730184 -1.23437,-1.478515 z M 150.4973,28.160256 c -0.0906,0 -0.18132,0.03935 -0.23047,0.119141 l -0.48633,0.787109 -0.23047,0.02344 -0.63281,-0.677735 c -0.12806,-0.137013 -0.38551,-0.08664 -0.45117,0.08984 l -0.32422,0.867188 -0.22266,0.06641 -0.75,-0.539063 c -0.15244,-0.110102 -0.39761,-0.0093 -0.42773,0.175782 l -0.14844,0.914062 -0.20508,0.109375 -0.84179,-0.384766 c -0.17109,-0.0782 -0.39,0.07021 -0.38281,0.257813 l 0.0312,0.925781 -0.17774,0.146485 -0.90234,-0.212891 c -0.18328,-0.04269 -0.36922,0.142896 -0.32617,0.326172 l 0.21289,0.902344 -0.14649,0.177734 -0.92578,-0.0332 c -0.18689,-0.0054 -0.33369,0.213304 -0.25586,0.384766 l 0.38281,0.841796 -0.10937,0.205079 -0.91406,0.148437 c -0.18545,0.03009 -0.2852,0.273314 -0.17579,0.425781 l 0.54102,0.75 -0.0684,0.22461 -0.86523,0.322265 c -0.17577,0.06564 -0.22917,0.324687 -0.0918,0.453125 l 0.67773,0.63086 -0.0215,0.230468 -0.78906,0.488282 c -0.15963,0.09864 -0.15963,0.362648 0,0.460937 l 0.78906,0.488281 0.0215,0.228516 -0.67773,0.632813 c -0.13737,0.128059 -0.084,0.385181 0.0918,0.451171 l 0.86523,0.324219 0.0684,0.222656 -0.54102,0.75 c -0.10974,0.152797 -0.008,0.397965 0.17774,0.427735 l 0.91211,0.148437 0.10937,0.205078 -0.38281,0.841797 c -0.0782,0.171084 0.069,0.390349 0.25586,0.382813 l 0.92578,-0.0332 0.14649,0.179687 -0.21289,0.902344 c -0.043,0.182945 0.14289,0.369197 0.32617,0.326172 l 0.90234,-0.212891 0.17774,0.144531 -0.0312,0.927735 c -0.007,0.1876 0.21172,0.334065 0.38281,0.255859 l 0.84179,-0.382812 0.20508,0.109375 0.14844,0.912109 c 0.0301,0.185805 0.27529,0.287127 0.42773,0.177734 l 0.75,-0.541015 0.22266,0.06836 0.32422,0.865235 c 0.0656,0.175739 0.32314,0.227572 0.45117,0.08984 l 0.63281,-0.677734 0.22852,0.02344 0.48828,0.78711 c 0.0983,0.15887 0.3623,0.159248 0.46094,0 l 0.48828,-0.78711 0.23047,-0.02344 0.63086,0.677734 c 0.12806,0.137745 0.38746,0.0859 0.45312,-0.08984 l 0.32227,-0.865235 0.22461,-0.06836 0.75,0.541015 c 0.15244,0.109393 0.39566,0.0078 0.42578,-0.177734 l 0.14844,-0.912109 0.20507,-0.109375 0.8418,0.382812 c 0.17109,0.0782 0.3916,-0.0679 0.38477,-0.255859 l -0.0332,-0.927735 0.17774,-0.144531 0.90234,0.212891 c 0.1833,0.04303 0.36922,-0.143227 0.32617,-0.326172 l -0.21289,-0.902344 0.14649,-0.179687 0.92578,0.0332 c 0.18687,0.0075 0.33442,-0.211729 0.25586,-0.382813 l -0.38281,-0.841797 0.10937,-0.205078 0.91406,-0.148437 c 0.18581,-0.02976 0.28591,-0.274914 0.17578,-0.427735 l -0.54101,-0.75 0.0684,-0.222656 0.86523,-0.324219 c 0.17612,-0.06599 0.2276,-0.323112 0.0899,-0.451171 l -0.67578,-0.632813 0.0215,-0.228516 0.78906,-0.488281 c 0.15963,-0.09829 0.15964,-0.362294 0,-0.460937 l -0.78906,-0.488282 -0.0215,-0.230468 0.67578,-0.63086 c 0.13774,-0.128438 0.0863,-0.387489 -0.0899,-0.453125 l -0.86523,-0.322265 -0.0684,-0.22461 0.54101,-0.75 c 0.11013,-0.152466 0.01,-0.395278 -0.17578,-0.425781 l -0.91406,-0.148437 -0.10937,-0.205079 0.38281,-0.841796 c 0.0786,-0.171461 -0.0672,-0.391949 -0.25586,-0.384766 l -0.92578,0.0332 -0.14649,-0.177734 0.21289,-0.902344 c 0.043,-0.183278 -0.14289,-0.36922 -0.32617,-0.326172 l -0.90234,0.212891 -0.17774,-0.146485 0.0332,-0.925781 c 0.007,-0.187598 -0.21366,-0.335663 -0.38477,-0.257813 l -0.8418,0.384766 -0.20507,-0.111328 -0.14844,-0.912109 c -0.0301,-0.185072 -0.27336,-0.285578 -0.42578,-0.175782 l -0.75,0.539063 -0.22461,-0.06836 -0.32227,-0.865234 c -0.0656,-0.176472 -0.32506,-0.22685 -0.45312,-0.08984 l -0.63086,0.677735 -0.23047,-0.02344 -0.48828,-0.787109 c -0.0493,-0.07979 -0.13981,-0.119141 -0.23047,-0.119141 z m -0.0293,1.650391 c 0.27878,0 0.55679,0.186867 0.55664,0.558594 -3.1e-4,0.742932 -1.11299,0.742932 -1.11328,0 -1.5e-4,-0.371727 0.27787,-0.558594 0.55664,-0.558594 z m -1.24414,0.919922 0.85938,0.902343 c 0.19405,0.203193 0.51572,0.209792 0.71875,0.01563 l 0.95898,-0.917968 c 1.98149,0.371159 3.70074,1.594316 4.69922,3.345703 l -0.6582,1.484375 c -0.11353,0.257016 0.004,0.557991 0.25976,0.671875 l 1.26563,0.5625 c 0.0394,0.395944 0.0434,0.794611 0.0137,1.191406 h -0.70313 c -0.0705,0 -0.0996,0.04617 -0.0996,0.115235 v 0.322265 c 0,0.761149 -0.42862,0.926623 -0.80469,0.96875 -0.35817,0.04036 -0.75571,-0.149975 -0.80469,-0.36914 -0.21127,-1.188352 -0.56319,-1.442387 -1.11914,-1.88086 0.68994,-0.438142 1.4082,-1.084062 1.4082,-1.949219 0,-0.934218 -0.64161,-1.521988 -1.07812,-1.810546 -0.61247,-0.403694 -1.28971,-0.441407 -1.47266,-0.441407 h -7.2832 c 1.00666,-1.12489 2.35655,-1.930601 3.83984,-2.210937 z m -5.40625,4.126953 c 0.27878,0 0.55874,0.186844 0.5586,0.558594 -3.2e-4,0.742909 -1.11496,0.742909 -1.11524,0 -1.5e-4,-0.371726 0.27787,-0.558594 0.55664,-0.558594 z m 13.29883,0.02734 c 0.27878,0 0.55874,0.184891 0.55859,0.55664 -3.1e-4,0.74291 -1.11495,0.74291 -1.11523,0 -1.6e-4,-0.371749 0.27786,-0.55664 0.55664,-0.55664 z m -12.12891,0.220703 h 0.82227 l -0.004,4.34375 h -1.91015 c -0.2422,-0.850746 -0.31616,-1.831605 -0.22071,-2.710938 l 1.19922,-0.533203 c 0.25648,-0.113883 0.37365,-0.414883 0.25977,-0.671875 z m 3.70704,0 h 2.53515 c 0.11963,0 0.84375,0.04767 0.84375,0.589844 0,0.450122 -0.55634,0.671875 -1.01367,0.671875 h -2.36523 z m 0,2.884765 h 2.02148 c 0.16194,0 0.86672,0.225254 1.0918,1.125 0.0705,0.276722 0.2262,1.178592 0.33203,1.466797 0.10545,0.323172 0.53467,1.013672 0.99219,1.013672 h 2.89453 c -0.19422,0.259945 -0.4058,0.459584 -0.63477,0.689453 l -1.17969,-0.253906 c -0.27457,-0.05883 -0.54468,0.117463 -0.60351,0.392578 l -0.2793,1.304688 c -1.82066,0.824707 -3.90998,0.814824 -5.72266,-0.02734 l -0.27929,-1.304688 c -0.0588,-0.274737 -0.32911,-0.451574 -0.60352,-0.392578 l -1.15234,0.248047 c -0.21416,-0.22056 -0.41495,-0.408992 -0.59766,-0.65625 h 5.52344 v -2.164062 h -1.80273 z m -2.35547,4.722657 c 0.27877,0 0.55678,0.184914 0.55664,0.55664 -3.1e-4,0.74291 -1.11493,0.74291 -1.11524,0 -1.5e-4,-0.37175 0.27982,-0.55664 0.5586,-0.55664 z m 8.25781,0.02539 c 0.27878,0 0.55874,0.186867 0.55859,0.558594 -3.1e-4,0.742933 -1.11495,0.742933 -1.11523,0 -1.6e-4,-0.37175 0.27786,-0.558594 0.55664,-0.558594 z m -0.95899,7.302735 c -0.67187,0 -1.1888,0.127604 -1.55078,0.382812 -0.35937,0.255208 -0.53906,0.61849 -0.53906,1.089844 0,0.205729 0.0339,0.388021 0.10156,0.546875 0.0703,0.158854 0.17058,0.298177 0.30078,0.417969 0.13021,0.117187 0.3073,0.223958 0.53125,0.320312 0.22657,0.09635 0.5573,0.192708 0.99219,0.289063 0.25,0.05729 0.47787,0.110677 0.6836,0.160156 0.20573,0.04948 0.38281,0.110677 0.53125,0.183594 0.14843,0.07292 0.26302,0.165364 0.34375,0.277343 0.0833,0.11198 0.125,0.257813 0.125,0.4375 0,0.320313 -0.13151,0.563802 -0.39454,0.730469 -0.26041,0.164063 -0.63151,0.246094 -1.11328,0.246094 -0.46614,0 -0.83463,-0.07682 -1.10547,-0.230469 -0.27083,-0.15625 -0.44791,-0.399739 -0.53125,-0.730469 l -0.72265,0.144532 c 0.21354,0.932291 0.99088,1.398437 2.33203,1.398437 0.72135,0 1.27995,-0.139323 1.67578,-0.417969 0.39844,-0.278645 0.59766,-0.671875 0.59766,-1.179687 0,-0.200521 -0.0286,-0.375 -0.0859,-0.523438 -0.0547,-0.148437 -0.13151,-0.277343 -0.23047,-0.386718 -0.099,-0.109375 -0.21614,-0.201823 -0.35156,-0.277344 -0.13281,-0.07552 -0.27604,-0.140625 -0.42969,-0.195313 -0.15364,-0.05729 -0.3151,-0.105468 -0.48437,-0.144531 -0.16667,-0.04167 -0.33464,-0.08203 -0.50391,-0.121094 -0.50521,-0.111979 -0.84245,-0.205729 -1.01172,-0.28125 -0.16927,-0.07813 -0.29948,-0.171875 -0.39062,-0.28125 -0.0885,-0.111979 -0.13282,-0.252604 -0.13282,-0.421875 0,-0.289062 0.11589,-0.50651 0.34766,-0.652343 0.23177,-0.145834 0.56771,-0.21875 1.00781,-0.21875 0.40104,0 0.71485,0.06641 0.94141,0.199218 0.22656,0.130209 0.38021,0.341146 0.46094,0.632813 l 0.73437,-0.128906 c -0.13281,-0.460938 -0.36458,-0.786459 -0.69531,-0.976563 -0.33073,-0.192708 -0.8086,-0.289062 -1.4336,-0.289062 z m -13.60937,0.08203 v 5.503906 h 0.74609 v -2.285156 h 1.71485 l 1.42968,2.285156 h 0.85938 l -1.5625,-2.371094 c 0.41927,-0.07292 0.7474,-0.248698 0.98437,-0.527343 0.23959,-0.278646 0.35938,-0.622396 0.35938,-1.03125 0,-0.494792 -0.16927,-0.880209 -0.50781,-1.15625 -0.33594,-0.278646 -0.8138,-0.417969 -1.4336,-0.417969 z m 5.73828,0 v 3.503906 c 0,0.432292 0.0925,0.804688 0.27734,1.117188 0.1849,0.3125 0.44532,0.550781 0.78125,0.714843 0.33594,0.164063 0.72917,0.246094 1.17969,0.246094 0.46875,0 0.875,-0.08463 1.21875,-0.253906 0.34636,-0.171875 0.61328,-0.419271 0.80078,-0.742188 0.19011,-0.322916 0.28516,-0.707031 0.28516,-1.152343 v -3.433594 h -0.74219 v 3.390625 c 0,0.518229 -0.13802,0.91276 -0.41406,1.183594 -0.27344,0.268229 -0.65755,0.402343 -1.15234,0.402343 -0.48177,0 -0.85026,-0.130208 -1.10547,-0.390625 -0.25521,-0.260416 -0.38282,-0.641927 -0.38282,-1.144531 v -3.441406 z m 10.67578,0 v 0.609375 h 1.89063 v 4.894531 h 0.74218 v -4.894531 h 1.89063 v -0.609375 z m -15.66797,0.597656 h 1.76953 c 0.40886,0 0.72136,0.08464 0.9375,0.253906 0.21875,0.166667 0.32813,0.410157 0.32813,0.730469 0,0.330729 -0.10807,0.588542 -0.32422,0.773438 -0.21354,0.182291 -0.51693,0.273437 -0.91016,0.273437 h -1.80078 z"
       transform="translate(-118.4973,-1.0001)" />
  </g>
</svg>
