<?xml version="1.0" encoding="UTF-8" standalone="no"?>
<svg
   width="43.546024"
   height="55.538212"
   version="1.1"
   viewBox="0 0 43.546024 55.538212"
   id="svg3"
   xmlns:xlink="http://www.w3.org/1999/xlink"
   xmlns="http://www.w3.org/2000/svg"
   xmlns:svg="http://www.w3.org/2000/svg">
  <defs
     id="defs3">
    <linearGradient
       id="linearGradient19">
      <stop
         style="stop-color:#00abff;stop-opacity:0;"
         offset="0"
         id="stop20" />
      <stop
         style="stop-color:#00abff;stop-opacity:1;"
         offset="1"
         id="stop19" />
    </linearGradient>
    <linearGradient
       xlink:href="#linearGradient19"
       id="linearGradient20"
       x1="150.66843"
       y1="65.000099"
       x2="150.66843"
       y2="25.755894"
       gradientUnits="userSpaceOnUse" />
    <filter
       style="color-interpolation-filters:sRGB"
       id="filter20"
       x="-0.030947896"
       y="-0.023945386"
       width="1.0618958"
       height="1.0478908">
      <feGaussianBlur
         stdDeviation="0.52879393"
         id="feGaussianBlur20" />
    </filter>
  </defs>
  <g
     id="g20"
     transform="translate(-10.222995,-4.7308946)">
    <path
       id="path1"
       style="display:inline;opacity:0.6;fill:#00abff;fill-opacity:1;stroke:none;filter:url(#filter20)"
       d="m 151.80394,7.0001 -0.004,0.00195 -19.35351,0.00391 c -1.35355,0 -2.45703,1.1084593 -2.45703,2.4648437 V 57.533303 c 0,1.356386 1.10343,2.466797 2.45703,2.466797 h 36.09375 c 1.35354,0 2.45703,-1.110412 2.45703,-2.466797 V 26.183694 c 0,-0.440775 -0.10327,-0.93784 -0.29297,-1.464844 h 0.0606 l -0.35547,-0.722656 c -0.0256,-0.05172 -0.0587,-0.104197 -0.0859,-0.15625 l -0.0605,-0.125 h -0.008 c -0.33862,-0.618179 -0.7885,-1.252822 -1.38476,-1.84961 l -0.002,-0.002 L 156.26488,9.1524437 C 155.67159,8.4151755 155.0115,7.918962 154.36644,7.59385 154.28114,7.550863 154.19507,7.50998 154.11058,7.4727562 l -0.0859,-0.037109 -0.0312,-0.00195 C 153.20882,7.1007523 152.46804,7.0001 151.90941,7.0001 Z m 0.11523,1.0019531 c 0.37972,7.572e-4 0.91296,0.1248404 1.44727,0.3105469 v 13.935547 c 0,1.22231 0.89866,2.235584 2.06641,2.425781 0.12731,0.02382 0.25744,0.03746 0.39062,0.04102 0.0224,5.98e-4 0.0439,0.0039 0.0664,0.0039 h 13.69336 c 0.23563,0.562366 0.41406,1.117889 0.41406,1.464844 v 31.349609 c 0,0.822556 -0.64278,1.466797 -1.45703,1.466797 h -36.09375 c -0.81435,0 -1.45703,-0.644183 -1.45703,-1.466797 V 9.4708031 c 0,-0.8225555 0.64277,-1.4667967 1.45703,-1.4667969 z m 2.47071,0.9238281 c 0.38082,0.2545633 0.76637,0.4323997 1.12695,0.8886719 l 0.0176,0.021484 12.62695,12.7343749 c 0.37192,0.371984 0.57528,0.75943 0.82813,1.144532 h -13.16602 c -0.0687,0 -0.13319,-0.01063 -0.19922,-0.01953 -0.70854,-0.123274 -1.23436,-0.730184 -1.23437,-1.478515 z m -0.89063,16.1621098 c 1.25721,4.95279 -4.43406,6.44867 -6.48828,9.533203 -1.39887,2.10161 0.68594,4.360565 3.5293,6.925781 -1.10879,-2.506481 -4.86843,-4.699997 0.002,-8.546875 6.07346,-4.794048 2.95703,-7.912109 2.95703,-7.912109 z m 3.75782,6.126953 c 6e-5,0 -10.27003,2.565007 -5.36524,8.216797 1.44793,1.666729 -0.37891,3.166015 -0.37891,3.166015 0,0 3.6734,-1.897315 1.98633,-4.273437 -1.57628,-2.214771 -2.78468,-3.315335 3.75782,-7.109375 z m 1.81835,10.095703 c -0.36083,0.0012 -0.74363,0.06498 -1.13671,0.203125 -0.31515,0.111574 -0.48047,0.371094 -0.48047,0.371094 0,0 0.19836,-0.08111 0.64258,-0.173828 1.81662,-0.378527 4.41978,2.431303 -1.20899,5.355468 -0.0261,0.0697 -0.1114,0.148438 -0.11133,0.148438 6.69406,-1.759745 5.23341,-5.909966 2.29492,-5.904297 z m -12.06054,0.287109 c -0.44093,-0.0102 -2.34703,0.0172 -4.625,1.119141 -3.07962,1.489088 7.6168,2.167407 13.15429,0.710937 0.57571,-0.39289 1.3711,-0.734375 1.3711,-0.734375 0,0 -2.26484,0.406308 -4.52149,0.595704 -2.7622,0.231727 -5.72561,0.277152 -7.21289,0.07813 -3.52145,-0.470788 1.92969,-1.765625 1.92969,-1.765625 0,0 -0.0326,-0.0027 -0.0957,-0.0039 z m -1.17383,3.40625 c -5.08016,1.686042 2.82787,3.600254 9.92773,1.523438 -0.75437,-0.265895 -1.23242,-0.753906 -1.23242,-0.753906 -3.47141,0.668083 -5.47768,0.646956 -8.01758,0.384765 -1.96357,-0.202964 -0.67773,-1.154297 -0.67773,-1.154297 z m 0.71875,3.283203 c -4.61263,1.288845 2.8063,3.951968 8.67969,1.435547 -0.96195,-0.373802 -1.65235,-0.804687 -1.65235,-0.804687 -2.61911,0.495052 -3.83356,0.533133 -6.21093,0.261719 -1.96211,-0.225037 -0.81641,-0.892579 -0.81641,-0.892579 z m -3.20508,2.177735 c -2.072,0.06495 -6.11972,1.9263 -2.41601,2.527344 11.97378,1.940863 21.8264,-0.874141 18.7207,-2.275391 0,0 0.84879,0.699487 -0.93359,1.240234 -3.38925,1.026578 -14.11032,1.336169 -17.0879,0.04102 -1.06958,-0.465874 0.93698,-1.111679 1.56836,-1.248047 0.65834,-0.142415 1.03516,-0.115234 1.03516,-0.115234 -0.18566,-0.130734 -0.50209,-0.181513 -0.88477,-0.169922 z m 18.20508,1.78125 c 0,0 -0.37781,0.967444 -4.46484,1.736328 -4.61112,0.868099 -10.29934,0.767748 -13.67188,0.210937 0,0 0.69189,0.572267 4.24219,0.800782 5.40181,0.345342 13.69799,-0.191789 13.89453,-2.748047 z"
       transform="translate(-118.4973,-1.0001)" />
    <path
       id="path19"
       style="fill:url(#linearGradient20);fill-opacity:1;stroke:none"
       d="m 151.80394,7.0001 -0.004,0.00195 -19.35351,0.00391 c -1.35355,0 -2.45703,1.1084593 -2.45703,2.4648437 V 57.533303 c 0,1.356386 1.10343,2.466797 2.45703,2.466797 h 36.09375 c 1.35354,0 2.45703,-1.110412 2.45703,-2.466797 V 26.183694 c 0,-0.440775 -0.10327,-0.93784 -0.29297,-1.464844 h 0.0606 l -0.35547,-0.722656 c -0.0256,-0.05172 -0.0587,-0.104197 -0.0859,-0.15625 l -0.0605,-0.125 h -0.008 c -0.33862,-0.618179 -0.7885,-1.252822 -1.38476,-1.84961 l -0.002,-0.002 L 156.26488,9.1524437 C 155.67159,8.4151755 155.0115,7.918962 154.36644,7.59385 154.28114,7.550863 154.19507,7.50998 154.11058,7.4727562 l -0.0859,-0.037109 -0.0312,-0.00195 C 153.20882,7.1007523 152.46804,7.0001 151.90941,7.0001 Z m 0.11523,1.0019531 c 0.37972,7.572e-4 0.91296,0.1248404 1.44727,0.3105469 v 13.935547 c 0,1.22231 0.89866,2.235584 2.06641,2.425781 0.12731,0.02382 0.25744,0.03746 0.39062,0.04102 0.0224,5.98e-4 0.0439,0.0039 0.0664,0.0039 h 13.69336 c 0.23563,0.562366 0.41406,1.117889 0.41406,1.464844 v 31.349609 c 0,0.822556 -0.64278,1.466797 -1.45703,1.466797 h -36.09375 c -0.81435,0 -1.45703,-0.644183 -1.45703,-1.466797 V 9.4708031 c 0,-0.8225555 0.64277,-1.4667967 1.45703,-1.4667969 z m 2.47071,0.9238281 c 0.38082,0.2545633 0.76637,0.4323997 1.12695,0.8886719 l 0.0176,0.021484 12.62695,12.7343749 c 0.37192,0.371984 0.57528,0.75943 0.82813,1.144532 h -13.16602 c -0.0687,0 -0.13319,-0.01063 -0.19922,-0.01953 -0.70854,-0.123274 -1.23436,-0.730184 -1.23437,-1.478515 z m -0.89063,16.1621098 c 1.25721,4.95279 -4.43406,6.44867 -6.48828,9.533203 -1.39887,2.10161 0.68594,4.360565 3.5293,6.925781 -1.10879,-2.506481 -4.86843,-4.699997 0.002,-8.546875 6.07346,-4.794048 2.95703,-7.912109 2.95703,-7.912109 z m 3.75782,6.126953 c 6e-5,0 -10.27003,2.565007 -5.36524,8.216797 1.44793,1.666729 -0.37891,3.166015 -0.37891,3.166015 0,0 3.6734,-1.897315 1.98633,-4.273437 -1.57628,-2.214771 -2.78468,-3.315335 3.75782,-7.109375 z m 1.81835,10.095703 c -0.36083,0.0012 -0.74363,0.06498 -1.13671,0.203125 -0.31515,0.111574 -0.48047,0.371094 -0.48047,0.371094 0,0 0.19836,-0.08111 0.64258,-0.173828 1.81662,-0.378527 4.41978,2.431303 -1.20899,5.355468 -0.0261,0.0697 -0.1114,0.148438 -0.11133,0.148438 6.69406,-1.759745 5.23341,-5.909966 2.29492,-5.904297 z m -12.06054,0.287109 c -0.44093,-0.0102 -2.34703,0.0172 -4.625,1.119141 -3.07962,1.489088 7.6168,2.167407 13.15429,0.710937 0.57571,-0.39289 1.3711,-0.734375 1.3711,-0.734375 0,0 -2.26484,0.406308 -4.52149,0.595704 -2.7622,0.231727 -5.72561,0.277152 -7.21289,0.07813 -3.52145,-0.470788 1.92969,-1.765625 1.92969,-1.765625 0,0 -0.0326,-0.0027 -0.0957,-0.0039 z m -1.17383,3.40625 c -5.08016,1.686042 2.82787,3.600254 9.92773,1.523438 -0.75437,-0.265895 -1.23242,-0.753906 -1.23242,-0.753906 -3.47141,0.668083 -5.47768,0.646956 -8.01758,0.384765 -1.96357,-0.202964 -0.67773,-1.154297 -0.67773,-1.154297 z m 0.71875,3.283203 c -4.61263,1.288845 2.8063,3.951968 8.67969,1.435547 -0.96195,-0.373802 -1.65235,-0.804687 -1.65235,-0.804687 -2.61911,0.495052 -3.83356,0.533133 -6.21093,0.261719 -1.96211,-0.225037 -0.81641,-0.892579 -0.81641,-0.892579 z m -3.20508,2.177735 c -2.072,0.06495 -6.11972,1.9263 -2.41601,2.527344 11.97378,1.940863 21.8264,-0.874141 18.7207,-2.275391 0,0 0.84879,0.699487 -0.93359,1.240234 -3.38925,1.026578 -14.11032,1.336169 -17.0879,0.04102 -1.06958,-0.465874 0.93698,-1.111679 1.56836,-1.248047 0.65834,-0.142415 1.03516,-0.115234 1.03516,-0.115234 -0.18566,-0.130734 -0.50209,-0.181513 -0.88477,-0.169922 z m 18.20508,1.78125 c 0,0 -0.37781,0.967444 -4.46484,1.736328 -4.61112,0.868099 -10.29934,0.767748 -13.67188,0.210937 0,0 0.69189,0.572267 4.24219,0.800782 5.40181,0.345342 13.69799,-0.191789 13.89453,-2.748047 z"
       transform="translate(-118.4973,-1.0001)" />
  </g>
</svg>
