<?xml version="1.0" encoding="UTF-8" standalone="no"?>
<svg
   width="43.546024"
   height="55.538212"
   version="1.1"
   viewBox="0 0 43.546024 55.538212"
   id="svg3"
   xmlns:xlink="http://www.w3.org/1999/xlink"
   xmlns="http://www.w3.org/2000/svg"
   xmlns:svg="http://www.w3.org/2000/svg">
  <defs
     id="defs3">
    <linearGradient
       id="linearGradient27">
      <stop
         style="stop-color:#00abff;stop-opacity:0;"
         offset="0"
         id="stop28" />
      <stop
         style="stop-color:#00abff;stop-opacity:1;"
         offset="1"
         id="stop27" />
    </linearGradient>
    <linearGradient
       xlink:href="#linearGradient27"
       id="linearGradient28"
       x1="150.26541"
       y1="65.000099"
       x2="150.26541"
       y2="25.231983"
       gradientUnits="userSpaceOnUse" />
    <filter
       style="color-interpolation-filters:sRGB"
       id="filter28"
       x="-0.030947896"
       y="-0.023945386"
       width="1.0618958"
       height="1.0478908">
      <feGaussianBlur
         stdDeviation="0.52879393"
         id="feGaussianBlur28" />
    </filter>
  </defs>
  <g
     id="g28"
     transform="translate(-10.222995,-4.7308946)">
    <path
       id="path1"
       style="display:inline;opacity:0.6;fill:#00abff;fill-opacity:1;stroke:none;filter:url(#filter28)"
       d="m 151.80394,7.0001 -0.004,0.00195 -19.35351,0.00391 c -1.35355,0 -2.45703,1.1084593 -2.45703,2.4648437 V 57.533303 c 0,1.356386 1.10343,2.466797 2.45703,2.466797 h 36.09375 c 1.35354,0 2.45703,-1.110412 2.45703,-2.466797 V 26.183694 c 0,-0.440775 -0.10327,-0.93784 -0.29297,-1.464844 h 0.0606 l -0.35547,-0.722656 c -0.0256,-0.05172 -0.0587,-0.104197 -0.0859,-0.15625 l -0.0605,-0.125 h -0.008 c -0.33862,-0.618179 -0.7885,-1.252822 -1.38476,-1.84961 l -0.002,-0.002 L 156.26488,9.1524437 C 155.67159,8.4151755 155.0115,7.918962 154.36644,7.59385 154.28114,7.550863 154.19507,7.50998 154.11058,7.4727562 l -0.0859,-0.037109 -0.0312,-0.00195 C 153.20882,7.1007523 152.46804,7.0001 151.90941,7.0001 Z m 0.11523,1.0019531 c 0.37972,7.572e-4 0.91296,0.1248404 1.44727,0.3105469 v 13.935547 c 0,1.22231 0.89866,2.235584 2.06641,2.425781 0.12731,0.02382 0.25744,0.03746 0.39062,0.04102 0.0224,5.98e-4 0.0439,0.0039 0.0664,0.0039 h 13.69336 c 0.23563,0.562366 0.41406,1.117889 0.41406,1.464844 v 31.349609 c 0,0.822556 -0.64278,1.466797 -1.45703,1.466797 h -36.09375 c -0.81435,0 -1.45703,-0.644183 -1.45703,-1.466797 V 9.4708031 c 0,-0.8225555 0.64277,-1.4667967 1.45703,-1.4667969 z m 2.47071,0.9238281 c 0.38082,0.2545633 0.76637,0.4323997 1.12695,0.8886719 l 0.0176,0.021484 12.62695,12.7343749 c 0.37192,0.371984 0.57528,0.75943 0.82813,1.144532 h -13.16602 c -0.0687,0 -0.13319,-0.01063 -0.19922,-0.01953 -0.70854,-0.123274 -1.23436,-0.730184 -1.23437,-1.478515 z m -3.85742,19.1113278 c -2.64049,0 -3.74278,0.437651 -2.05274,0.814453 0.50761,0.113252 1.46242,0.656185 2.12305,1.208985 1.69877,1.422403 1.63013,2.491441 -0.3086,4.794922 -0.82917,0.984892 -1.71022,1.791015 -1.95898,1.791015 -0.5494,0 -7.94922,6.880366 -7.94922,7.390625 0,0.385597 2.27243,2.875 2.625,2.875 0.1146,0 1.77744,-1.63347 3.69531,-3.630859 1.91788,-1.99676 3.66875,-4.072665 3.89258,-4.613281 0.22381,-0.539965 1.1055,-1.607357 1.96094,-2.371094 2.23805,-1.999433 3.54489,-1.84269 4.66797,0.560547 0.2865,0.612768 0.67949,1.113281 0.875,1.113281 0.44626,0 2.50586,-2.003908 2.50586,-2.439453 0,-0.562881 -1.05719,-1.535156 -1.66992,-1.535156 -0.64715,0 -1.26563,-0.927087 -1.26563,-1.896485 0,-0.734787 -2.02269,-2.779715 -3.49023,-3.529297 -0.69973,-0.357284 -1.90444,-0.533203 -3.65039,-0.533203 z m -11.20508,21.886719 c -0.83854,0 -1.49479,0.248698 -1.96875,0.746094 -0.47396,0.497396 -0.71094,1.184896 -0.71094,2.0625 0,0.585937 0.10547,1.09375 0.31641,1.523437 0.21354,0.427084 0.52213,0.756511 0.92578,0.988282 0.40625,0.229166 0.88672,0.34375 1.4414,0.34375 0.54167,0 1.01693,-0.123698 1.42579,-0.371094 0.41145,-0.247396 0.73046,-0.608073 0.95703,-1.082031 l -0.60938,-0.304688 c -0.38802,0.763021 -0.96745,1.144531 -1.73828,1.144531 -0.60156,0 -1.07943,-0.204427 -1.43359,-0.613281 -0.35157,-0.411458 -0.52735,-0.954427 -0.52735,-1.628906 0,-0.682292 0.16927,-1.21875 0.50782,-1.609375 0.33854,-0.393229 0.8125,-0.589844 1.42187,-0.589844 0.38802,0 0.72266,0.08464 1.00391,0.253906 0.28385,0.169271 0.48958,0.414063 0.61718,0.734375 l 0.70704,-0.234375 c -0.1849,-0.45052 -0.47396,-0.790364 -0.86719,-1.019531 -0.39323,-0.229167 -0.88281,-0.34375 -1.46875,-0.34375 z m 3.34765,0.08203 v 5.503907 h 0.66407 V 51.83799 l -0.0156,-0.738282 -0.0117,-0.433593 0.12891,0.429687 0.21875,0.664063 1.44141,3.75 h 0.52343 l 1.42188,-3.75 c 0.10156,-0.263021 0.21614,-0.627605 0.34375,-1.09375 -0.0234,0.375 -0.0352,0.765625 -0.0352,1.171875 v 3.671875 h 0.67188 v -5.503907 h -0.95703 l -1.4375,3.816407 c -0.0234,0.05469 -0.069,0.188802 -0.13672,0.402343 -0.0651,0.210938 -0.10808,0.36849 -0.12891,0.472657 -0.0156,-0.07813 -0.0482,-0.204427 -0.0977,-0.378907 -0.0469,-0.177083 -0.0964,-0.342448 -0.14843,-0.496093 l -1.46485,-3.816407 z m 8.26954,0 -2.2461,5.503907 h 0.77344 l 0.63281,-1.609375 h 2.50781 l 0.62891,1.609375 h 0.76172 l -2.21094,-5.503907 z m 3.73046,0 v 5.503907 h 0.7461 V 53.40049 l 0.71875,-0.546875 2.19922,2.65625 h 0.92578 l -2.65625,-3.113282 2.34375,-2.390625 h -0.87891 l -2.65234,2.757813 v -2.757813 z m 5.33594,0 v 5.503907 h 4.33594 V 54.90049 h -3.58984 v -1.917969 h 3.19531 v -0.601563 h -3.19531 v -1.765625 h 3.42968 v -0.609375 z m -8.65234,0.5625 0.10547,0.324219 c 0.0729,0.226563 0.14583,0.429688 0.21875,0.609375 l 0.70703,1.816406 h -2.0586 l 0.70313,-1.808593 c 0.1276,-0.338542 0.22396,-0.615886 0.28906,-0.832032 z"
       transform="translate(-118.4973,-1.0001)" />
    <path
       id="path27"
       style="fill:url(#linearGradient28);fill-opacity:1;stroke:none"
       d="m 151.80394,7.0001 -0.004,0.00195 -19.35351,0.00391 c -1.35355,0 -2.45703,1.1084593 -2.45703,2.4648437 V 57.533303 c 0,1.356386 1.10343,2.466797 2.45703,2.466797 h 36.09375 c 1.35354,0 2.45703,-1.110412 2.45703,-2.466797 V 26.183694 c 0,-0.440775 -0.10327,-0.93784 -0.29297,-1.464844 h 0.0606 l -0.35547,-0.722656 c -0.0256,-0.05172 -0.0587,-0.104197 -0.0859,-0.15625 l -0.0605,-0.125 h -0.008 c -0.33862,-0.618179 -0.7885,-1.252822 -1.38476,-1.84961 l -0.002,-0.002 L 156.26488,9.1524437 C 155.67159,8.4151755 155.0115,7.918962 154.36644,7.59385 154.28114,7.550863 154.19507,7.50998 154.11058,7.4727562 l -0.0859,-0.037109 -0.0312,-0.00195 C 153.20882,7.1007523 152.46804,7.0001 151.90941,7.0001 Z m 0.11523,1.0019531 c 0.37972,7.572e-4 0.91296,0.1248404 1.44727,0.3105469 v 13.935547 c 0,1.22231 0.89866,2.235584 2.06641,2.425781 0.12731,0.02382 0.25744,0.03746 0.39062,0.04102 0.0224,5.98e-4 0.0439,0.0039 0.0664,0.0039 h 13.69336 c 0.23563,0.562366 0.41406,1.117889 0.41406,1.464844 v 31.349609 c 0,0.822556 -0.64278,1.466797 -1.45703,1.466797 h -36.09375 c -0.81435,0 -1.45703,-0.644183 -1.45703,-1.466797 V 9.4708031 c 0,-0.8225555 0.64277,-1.4667967 1.45703,-1.4667969 z m 2.47071,0.9238281 c 0.38082,0.2545633 0.76637,0.4323997 1.12695,0.8886719 l 0.0176,0.021484 12.62695,12.7343749 c 0.37192,0.371984 0.57528,0.75943 0.82813,1.144532 h -13.16602 c -0.0687,0 -0.13319,-0.01063 -0.19922,-0.01953 -0.70854,-0.123274 -1.23436,-0.730184 -1.23437,-1.478515 z m -3.85742,19.1113278 c -2.64049,0 -3.74278,0.437651 -2.05274,0.814453 0.50761,0.113252 1.46242,0.656185 2.12305,1.208985 1.69877,1.422403 1.63013,2.491441 -0.3086,4.794922 -0.82917,0.984892 -1.71022,1.791015 -1.95898,1.791015 -0.5494,0 -7.94922,6.880366 -7.94922,7.390625 0,0.385597 2.27243,2.875 2.625,2.875 0.1146,0 1.77744,-1.63347 3.69531,-3.630859 1.91788,-1.99676 3.66875,-4.072665 3.89258,-4.613281 0.22381,-0.539965 1.1055,-1.607357 1.96094,-2.371094 2.23805,-1.999433 3.54489,-1.84269 4.66797,0.560547 0.2865,0.612768 0.67949,1.113281 0.875,1.113281 0.44626,0 2.50586,-2.003908 2.50586,-2.439453 0,-0.562881 -1.05719,-1.535156 -1.66992,-1.535156 -0.64715,0 -1.26563,-0.927087 -1.26563,-1.896485 0,-0.734787 -2.02269,-2.779715 -3.49023,-3.529297 -0.69973,-0.357284 -1.90444,-0.533203 -3.65039,-0.533203 z m -11.20508,21.886719 c -0.83854,0 -1.49479,0.248698 -1.96875,0.746094 -0.47396,0.497396 -0.71094,1.184896 -0.71094,2.0625 0,0.585937 0.10547,1.09375 0.31641,1.523437 0.21354,0.427084 0.52213,0.756511 0.92578,0.988282 0.40625,0.229166 0.88672,0.34375 1.4414,0.34375 0.54167,0 1.01693,-0.123698 1.42579,-0.371094 0.41145,-0.247396 0.73046,-0.608073 0.95703,-1.082031 l -0.60938,-0.304688 c -0.38802,0.763021 -0.96745,1.144531 -1.73828,1.144531 -0.60156,0 -1.07943,-0.204427 -1.43359,-0.613281 -0.35157,-0.411458 -0.52735,-0.954427 -0.52735,-1.628906 0,-0.682292 0.16927,-1.21875 0.50782,-1.609375 0.33854,-0.393229 0.8125,-0.589844 1.42187,-0.589844 0.38802,0 0.72266,0.08464 1.00391,0.253906 0.28385,0.169271 0.48958,0.414063 0.61718,0.734375 l 0.70704,-0.234375 c -0.1849,-0.45052 -0.47396,-0.790364 -0.86719,-1.019531 -0.39323,-0.229167 -0.88281,-0.34375 -1.46875,-0.34375 z m 3.34765,0.08203 v 5.503907 h 0.66407 V 51.83799 l -0.0156,-0.738282 -0.0117,-0.433593 0.12891,0.429687 0.21875,0.664063 1.44141,3.75 h 0.52343 l 1.42188,-3.75 c 0.10156,-0.263021 0.21614,-0.627605 0.34375,-1.09375 -0.0234,0.375 -0.0352,0.765625 -0.0352,1.171875 v 3.671875 h 0.67188 v -5.503907 h -0.95703 l -1.4375,3.816407 c -0.0234,0.05469 -0.069,0.188802 -0.13672,0.402343 -0.0651,0.210938 -0.10808,0.36849 -0.12891,0.472657 -0.0156,-0.07813 -0.0482,-0.204427 -0.0977,-0.378907 -0.0469,-0.177083 -0.0964,-0.342448 -0.14843,-0.496093 l -1.46485,-3.816407 z m 8.26954,0 -2.2461,5.503907 h 0.77344 l 0.63281,-1.609375 h 2.50781 l 0.62891,1.609375 h 0.76172 l -2.21094,-5.503907 z m 3.73046,0 v 5.503907 h 0.7461 V 53.40049 l 0.71875,-0.546875 2.19922,2.65625 h 0.92578 l -2.65625,-3.113282 2.34375,-2.390625 h -0.87891 l -2.65234,2.757813 v -2.757813 z m 5.33594,0 v 5.503907 h 4.33594 V 54.90049 h -3.58984 v -1.917969 h 3.19531 v -0.601563 h -3.19531 v -1.765625 h 3.42968 v -0.609375 z m -8.65234,0.5625 0.10547,0.324219 c 0.0729,0.226563 0.14583,0.429688 0.21875,0.609375 l 0.70703,1.816406 h -2.0586 l 0.70313,-1.808593 c 0.1276,-0.338542 0.22396,-0.615886 0.28906,-0.832032 z"
       transform="translate(-118.4973,-1.0001)" />
  </g>
</svg>
