<?xml version="1.0" encoding="UTF-8" standalone="no"?>
<svg
   width="43.546024"
   height="55.538212"
   version="1.1"
   viewBox="0 0 43.546024 55.538212"
   id="svg3"
   xmlns:xlink="http://www.w3.org/1999/xlink"
   xmlns="http://www.w3.org/2000/svg"
   xmlns:svg="http://www.w3.org/2000/svg">
  <defs
     id="defs3">
    <linearGradient
       id="linearGradient4">
      <stop
         style="stop-color:#00abff;stop-opacity:0;"
         offset="0"
         id="stop5" />
      <stop
         style="stop-color:#00abff;stop-opacity:1;"
         offset="1"
         id="stop4" />
    </linearGradient>
    <linearGradient
       xlink:href="#linearGradient4"
       id="linearGradient5"
       x1="149.91759"
       y1="65.000099"
       x2="149.91759"
       y2="26.855173"
       gradientUnits="userSpaceOnUse" />
    <filter
       style="color-interpolation-filters:sRGB"
       id="filter5"
       x="-0.030947896"
       y="-0.023945386"
       width="1.0618958"
       height="1.0478908">
      <feGaussianBlur
         stdDeviation="0.52879393"
         id="feGaussianBlur5" />
    </filter>
  </defs>
  <g
     id="g5"
     transform="translate(-10.222995,-4.7308946)">
    <path
       id="path1"
       style="display:inline;opacity:0.6;fill:#00abff;fill-opacity:1;stroke:none;filter:url(#filter5)"
       d="m 151.80394,7.0001 -0.004,0.00195 -19.35351,0.00391 c -1.35355,0 -2.45703,1.1084593 -2.45703,2.4648437 V 57.533303 c 0,1.356386 1.10343,2.466797 2.45703,2.466797 h 36.09375 c 1.35354,0 2.45703,-1.110412 2.45703,-2.466797 V 26.183694 c 0,-0.440775 -0.10327,-0.93784 -0.29297,-1.464844 h 0.0606 l -0.35547,-0.722656 c -0.0256,-0.05172 -0.0587,-0.104197 -0.0859,-0.15625 l -0.0605,-0.125 h -0.008 c -0.33862,-0.618179 -0.7885,-1.252822 -1.38476,-1.84961 l -0.002,-0.002 L 156.26488,9.1524437 C 155.67159,8.4151755 155.0115,7.918962 154.36644,7.59385 154.28114,7.550863 154.19507,7.50998 154.11058,7.4727562 l -0.0859,-0.037109 -0.0312,-0.00195 C 153.20882,7.1007523 152.46804,7.0001 151.90941,7.0001 Z m 0.11523,1.0019531 c 0.37972,7.572e-4 0.91296,0.1248404 1.44727,0.3105469 v 13.935547 c 0,1.22231 0.89866,2.235584 2.06641,2.425781 0.12731,0.02382 0.25744,0.03746 0.39062,0.04102 0.0224,5.98e-4 0.0439,0.0039 0.0664,0.0039 h 13.69336 c 0.23563,0.562366 0.41406,1.117889 0.41406,1.464844 v 31.349609 c 0,0.822556 -0.64278,1.466797 -1.45703,1.466797 h -36.09375 c -0.81435,0 -1.45703,-0.644183 -1.45703,-1.466797 V 9.4708031 c 0,-0.8225555 0.64277,-1.4667967 1.45703,-1.4667969 z m 2.47071,0.9238281 c 0.38082,0.2545633 0.76637,0.4323997 1.12695,0.8886719 l 0.0176,0.021484 12.62695,12.7343749 c 0.37192,0.371984 0.57528,0.75943 0.82813,1.144532 h -13.16602 c -0.0687,0 -0.13319,-0.01063 -0.19922,-0.01953 -0.70854,-0.123274 -1.23436,-0.730184 -1.23437,-1.478515 z m -12.74414,21.3632808 -0.64063,1.931641 6.51367,2.613281 -6.51367,2.613282 0.64063,1.929687 8.38281,-3.548828 v -1.988281 z m 8.37109,11.740235 V 44.0001 h 9.97266 v -1.970703 z m 0.93945,7.779297 c -0.83854,0 -1.49479,0.248698 -1.96875,0.746094 -0.47395,0.497395 -0.71093,1.184895 -0.71093,2.0625 0,0.585937 0.10547,1.09375 0.3164,1.523437 0.21354,0.427083 0.52214,0.75651 0.92578,0.988281 0.40625,0.229167 0.88672,0.34375 1.44141,0.34375 0.54167,0 1.01693,-0.123698 1.42578,-0.371093 0.41146,-0.247396 0.73047,-0.608073 0.95703,-1.082032 l -0.60937,-0.304687 c -0.38802,0.763021 -0.96745,1.144531 -1.73828,1.144531 -0.60157,0 -1.07943,-0.204427 -1.4336,-0.613281 -0.35156,-0.411459 -0.52734,-0.954427 -0.52734,-1.628906 0,-0.682292 0.16927,-1.21875 0.50781,-1.609375 0.33854,-0.39323 0.8125,-0.589844 1.42188,-0.589844 0.38802,0 0.72265,0.08463 1.0039,0.253906 0.28386,0.169271 0.48959,0.414063 0.61719,0.734375 l 0.70703,-0.234375 c -0.18489,-0.450521 -0.47396,-0.790365 -0.86719,-1.019531 -0.39322,-0.229167 -0.88281,-0.34375 -1.46875,-0.34375 z m -7.79296,0.08203 V 50.5001 h 1.89062 v 4.894531 h 0.74219 V 50.5001 h 1.89062 v -0.609375 z m 11.14062,0 v 5.503906 h 3.52734 v -0.609375 h -2.78125 v -4.894531 z"
       transform="translate(-118.4973,-1.0001)" />
    <path
       id="path4"
       style="fill:url(#linearGradient5);fill-opacity:1;stroke:none"
       d="m 151.80394,7.0001 -0.004,0.00195 -19.35351,0.00391 c -1.35355,0 -2.45703,1.1084593 -2.45703,2.4648437 V 57.533303 c 0,1.356386 1.10343,2.466797 2.45703,2.466797 h 36.09375 c 1.35354,0 2.45703,-1.110412 2.45703,-2.466797 V 26.183694 c 0,-0.440775 -0.10327,-0.93784 -0.29297,-1.464844 h 0.0606 l -0.35547,-0.722656 c -0.0256,-0.05172 -0.0587,-0.104197 -0.0859,-0.15625 l -0.0605,-0.125 h -0.008 c -0.33862,-0.618179 -0.7885,-1.252822 -1.38476,-1.84961 l -0.002,-0.002 L 156.26488,9.1524437 C 155.67159,8.4151755 155.0115,7.918962 154.36644,7.59385 154.28114,7.550863 154.19507,7.50998 154.11058,7.4727562 l -0.0859,-0.037109 -0.0312,-0.00195 C 153.20882,7.1007523 152.46804,7.0001 151.90941,7.0001 Z m 0.11523,1.0019531 c 0.37972,7.572e-4 0.91296,0.1248404 1.44727,0.3105469 v 13.935547 c 0,1.22231 0.89866,2.235584 2.06641,2.425781 0.12731,0.02382 0.25744,0.03746 0.39062,0.04102 0.0224,5.98e-4 0.0439,0.0039 0.0664,0.0039 h 13.69336 c 0.23563,0.562366 0.41406,1.117889 0.41406,1.464844 v 31.349609 c 0,0.822556 -0.64278,1.466797 -1.45703,1.466797 h -36.09375 c -0.81435,0 -1.45703,-0.644183 -1.45703,-1.466797 V 9.4708031 c 0,-0.8225555 0.64277,-1.4667967 1.45703,-1.4667969 z m 2.47071,0.9238281 c 0.38082,0.2545633 0.76637,0.4323997 1.12695,0.8886719 l 0.0176,0.021484 12.62695,12.7343749 c 0.37192,0.371984 0.57528,0.75943 0.82813,1.144532 h -13.16602 c -0.0687,0 -0.13319,-0.01063 -0.19922,-0.01953 -0.70854,-0.123274 -1.23436,-0.730184 -1.23437,-1.478515 z m -12.74414,21.3632808 -0.64063,1.931641 6.51367,2.613281 -6.51367,2.613282 0.64063,1.929687 8.38281,-3.548828 v -1.988281 z m 8.37109,11.740235 V 44.0001 h 9.97266 v -1.970703 z m 0.93945,7.779297 c -0.83854,0 -1.49479,0.248698 -1.96875,0.746094 -0.47395,0.497395 -0.71093,1.184895 -0.71093,2.0625 0,0.585937 0.10547,1.09375 0.3164,1.523437 0.21354,0.427083 0.52214,0.75651 0.92578,0.988281 0.40625,0.229167 0.88672,0.34375 1.44141,0.34375 0.54167,0 1.01693,-0.123698 1.42578,-0.371093 0.41146,-0.247396 0.73047,-0.608073 0.95703,-1.082032 l -0.60937,-0.304687 c -0.38802,0.763021 -0.96745,1.144531 -1.73828,1.144531 -0.60157,0 -1.07943,-0.204427 -1.4336,-0.613281 -0.35156,-0.411459 -0.52734,-0.954427 -0.52734,-1.628906 0,-0.682292 0.16927,-1.21875 0.50781,-1.609375 0.33854,-0.39323 0.8125,-0.589844 1.42188,-0.589844 0.38802,0 0.72265,0.08463 1.0039,0.253906 0.28386,0.169271 0.48959,0.414063 0.61719,0.734375 l 0.70703,-0.234375 c -0.18489,-0.450521 -0.47396,-0.790365 -0.86719,-1.019531 -0.39322,-0.229167 -0.88281,-0.34375 -1.46875,-0.34375 z m -7.79296,0.08203 V 50.5001 h 1.89062 v 4.894531 h 0.74219 V 50.5001 h 1.89062 v -0.609375 z m 11.14062,0 v 5.503906 h 3.52734 v -0.609375 h -2.78125 v -4.894531 z"
       transform="translate(-118.4973,-1.0001)" />
  </g>
</svg>
