<?xml version="1.0" encoding="UTF-8" standalone="no"?>
<svg
   width="43.546024"
   height="55.538212"
   version="1.1"
   viewBox="0 0 43.546024 55.538212"
   id="svg3"
   xmlns:xlink="http://www.w3.org/1999/xlink"
   xmlns="http://www.w3.org/2000/svg"
   xmlns:svg="http://www.w3.org/2000/svg">
  <defs
     id="defs3">
    <linearGradient
       id="linearGradient5">
      <stop
         style="stop-color:#00abff;stop-opacity:0;"
         offset="0"
         id="stop6" />
      <stop
         style="stop-color:#00abff;stop-opacity:1;"
         offset="1"
         id="stop5" />
    </linearGradient>
    <linearGradient
       xlink:href="#linearGradient5"
       id="linearGradient6"
       x1="150.14948"
       y1="65.000099"
       x2="150.14948"
       y2="26.043579"
       gradientUnits="userSpaceOnUse" />
    <filter
       style="color-interpolation-filters:sRGB"
       id="filter6"
       x="-0.030947896"
       y="-0.023945386"
       width="1.0618958"
       height="1.0478908">
      <feGaussianBlur
         stdDeviation="0.52879393"
         id="feGaussianBlur6" />
    </filter>
  </defs>
  <g
     id="g6"
     transform="translate(-10.222995,-4.7308946)">
    <path
       id="path1"
       style="display:inline;opacity:0.6;fill:#00abff;fill-opacity:1;stroke:none;filter:url(#filter6)"
       d="m 151.80394,7.0001 -0.004,0.00195 -19.35351,0.00391 c -1.35355,0 -2.45703,1.1084593 -2.45703,2.4648437 V 57.533303 c 0,1.356386 1.10343,2.466797 2.45703,2.466797 h 36.09375 c 1.35354,0 2.45703,-1.110412 2.45703,-2.466797 V 26.183694 c 0,-0.440775 -0.10327,-0.93784 -0.29297,-1.464844 h 0.0606 l -0.35547,-0.722656 c -0.0256,-0.05172 -0.0587,-0.104197 -0.0859,-0.15625 l -0.0605,-0.125 h -0.008 c -0.33862,-0.618179 -0.7885,-1.252822 -1.38476,-1.84961 l -0.002,-0.002 L 156.26488,9.1524437 C 155.67159,8.4151755 155.0115,7.918962 154.36644,7.59385 154.28114,7.550863 154.19507,7.50998 154.11058,7.4727562 l -0.0859,-0.037109 -0.0312,-0.00195 C 153.20882,7.1007523 152.46804,7.0001 151.90941,7.0001 Z m 0.11523,1.0019531 c 0.37972,7.572e-4 0.91296,0.1248404 1.44727,0.3105469 v 13.935547 c 0,1.22231 0.89866,2.235584 2.06641,2.425781 0.12731,0.02382 0.25744,0.03746 0.39062,0.04102 0.0224,5.98e-4 0.0439,0.0039 0.0664,0.0039 h 13.69336 c 0.23563,0.562366 0.41406,1.117889 0.41406,1.464844 v 31.349609 c 0,0.822556 -0.64278,1.466797 -1.45703,1.466797 h -36.09375 c -0.81435,0 -1.45703,-0.644183 -1.45703,-1.466797 V 9.4708031 c 0,-0.8225555 0.64277,-1.4667967 1.45703,-1.4667969 z m 2.47071,0.9238281 c 0.38082,0.2545633 0.76637,0.4323997 1.12695,0.8886719 l 0.0176,0.021484 12.62695,12.7343749 c 0.37192,0.371984 0.57528,0.75943 0.82813,1.144532 h -13.16602 c -0.0687,0 -0.13319,-0.01063 -0.19922,-0.01953 -0.70854,-0.123274 -1.23436,-0.730184 -1.23437,-1.478515 z m 4.02148,20.6152348 c -0.5829,-0.01742 -1.16789,0.0018 -1.51953,0.06836 -2.16681,0.411636 -3.66731,1.799594 -4.0918,3.789063 -0.12037,0.570229 -0.0837,1.982996 0.0684,2.546875 0.18377,0.677946 0.6288,1.48921 1.09766,1.996093 0.81099,0.874335 1.69669,1.425465 3.75586,2.3125 1.79935,0.779316 2.43368,1.154159 2.74414,1.597657 0.24077,0.348478 0.29687,0.551161 0.29687,1.013671 0,0.513232 -0.15204,0.861449 -0.51953,1.197266 -0.86171,0.773004 -2.60931,0.866911 -3.88281,0.195313 -0.4435,-0.234412 -1.17785,-0.936025 -1.51367,-1.449219 l -0.24219,-0.355469 -1.14648,0.666016 c -0.63358,0.367453 -1.30501,0.752146 -1.48242,0.853515 -0.18377,0.107681 -0.34829,0.209055 -0.36719,0.234375 -0.0443,0.07605 0.67157,1.135502 1.03906,1.541016 0.93761,1.039088 2.45758,1.830101 4.06055,2.115234 0.73494,0.133119 2.35675,0.153583 3.04101,0.0332 2.21118,-0.373803 3.78244,-1.502107 4.41602,-3.162109 0.57658,-1.526845 0.38807,-3.580989 -0.46094,-4.867187 -0.76008,-1.15312 -1.9843,-1.964195 -4.8418,-3.19336 -1.55228,-0.671597 -2.04637,-0.999564 -2.3125,-1.550781 -0.12669,-0.253422 -0.16992,-0.437591 -0.16992,-0.748047 -0.006,-1.0581 0.77227,-1.691735 1.98242,-1.609375 0.82369,0.05703 1.36181,0.379309 1.875,1.126953 0.17107,0.253422 0.32331,0.419851 0.36133,0.394531 1.05179,-0.652587 2.78824,-1.81846 2.77539,-1.86914 -0.0444,-0.171065 -0.58954,-0.888436 -0.95703,-1.28125 -0.70962,-0.734981 -1.48236,-1.184078 -2.49609,-1.4375 -0.34531,-0.08554 -0.92686,-0.140779 -1.50977,-0.158203 z m -14.85547,0.177734 c -3.83319,-0.0063 -6.99477,0.0059 -7.01367,0.03125 -0.0254,0.01901 -0.0449,0.759449 -0.0449,1.646484 V 33.0001 h 5.19531 v 14.763672 h 3.67578 V 33.0001 h 5.19532 l -0.0137,-1.634766 -0.0195,-1.628906 z m 5.93555,22.332031 c -0.44792,0 -0.79188,0.08572 -1.0332,0.25586 -0.23959,0.170138 -0.35938,0.412326 -0.35938,0.726562 0,0.137153 0.0232,0.257379 0.0684,0.363281 0.0469,0.105903 0.11242,0.199436 0.19922,0.279297 0.0868,0.07813 0.20616,0.148655 0.35547,0.212891 0.15104,0.06424 0.37023,0.129123 0.66016,0.193359 0.16666,0.0382 0.31987,0.07444 0.45703,0.107422 0.13715,0.03299 0.25455,0.07248 0.35351,0.121094 0.099,0.04861 0.1747,0.110894 0.22852,0.185547 0.0555,0.07465 0.084,0.171224 0.084,0.291015 0,0.213542 -0.0883,0.377171 -0.26367,0.488282 -0.17361,0.109375 -0.42101,0.164062 -0.74219,0.164062 -0.31076,0 -0.55577,-0.05187 -0.73633,-0.154297 -0.18055,-0.104166 -0.29796,-0.265842 -0.35351,-0.486328 l -0.48242,0.0957 c 0.14236,0.621528 0.66059,0.931641 1.55468,0.931641 0.48091,0 0.8533,-0.09158 1.11719,-0.277344 0.26563,-0.185764 0.39844,-0.448568 0.39844,-0.787109 0,-0.133681 -0.0185,-0.250651 -0.0566,-0.34961 -0.0365,-0.09896 -0.0883,-0.184896 -0.1543,-0.257812 -0.066,-0.07292 -0.14409,-0.133247 -0.23437,-0.183594 -0.0885,-0.05035 -0.18468,-0.0944 -0.28711,-0.130859 -0.10243,-0.0382 -0.20942,-0.06966 -0.32227,-0.0957 -0.11111,-0.02778 -0.22309,-0.05599 -0.33594,-0.08203 -0.3368,-0.07465 -0.56098,-0.137152 -0.67382,-0.1875 -0.11285,-0.05208 -0.20096,-0.114583 -0.26172,-0.1875 -0.059,-0.07465 -0.0879,-0.168402 -0.0879,-0.28125 0,-0.192708 0.0779,-0.336371 0.23242,-0.433593 0.15451,-0.09722 0.37847,-0.146485 0.67187,-0.146485 0.26737,0 0.47592,0.04427 0.62696,0.132813 0.15104,0.0868 0.25282,0.22743 0.30664,0.421875 l 0.49023,-0.08594 c -0.0885,-0.307291 -0.2424,-0.523654 -0.46289,-0.65039 -0.22048,-0.128473 -0.54036,-0.19336 -0.95703,-0.19336 z m 3.80859,0 c -0.55902,0 -0.99652,0.16645 -1.3125,0.498047 -0.31597,0.331597 -0.47461,0.789931 -0.47461,1.375 0,0.390625 0.0703,0.729167 0.21094,1.015625 0.14236,0.284722 0.34809,0.503689 0.61719,0.658203 0.27083,0.152778 0.59115,0.228516 0.96094,0.228516 0.36111,0 0.6786,-0.08116 0.95117,-0.246094 0.2743,-0.16493 0.48568,-0.406684 0.63672,-0.722656 l -0.40625,-0.203125 c -0.25868,0.50868 -0.64432,0.763672 -1.15821,0.763672 -0.40104,0 -0.71896,-0.135634 -0.95507,-0.408203 -0.23438,-0.274306 -0.35157,-0.636285 -0.35157,-1.085938 0,-0.454861 0.1122,-0.813802 0.33789,-1.074219 0.2257,-0.262152 0.54102,-0.392578 0.94727,-0.392578 0.25868,0 0.48242,0.05708 0.66992,0.169922 0.18924,0.112847 0.32704,0.27474 0.41211,0.488281 l 0.4707,-0.15625 c -0.12326,-0.300347 -0.31597,-0.526909 -0.57812,-0.679687 -0.26215,-0.152778 -0.58789,-0.228516 -0.97852,-0.228516 z m -19.42578,0.05469 v 0.40625 h 1.26172 v 3.263672 h 0.49414 v -3.263672 h 1.25977 v -0.40625 z m 3.25586,0 1.41211,2.148437 v 1.521485 h 0.49414 v -1.521485 l 1.41602,-2.148437 h -0.54688 l -1.11133,1.748047 -1.11718,-1.748047 z m 3.87696,0 v 3.669922 h 0.49804 v -1.429688 h 1.07813 c 0.38889,0 0.69618,-0.103733 0.92187,-0.308594 0.22743,-0.204861 0.3418,-0.480903 0.3418,-0.828125 0,-0.350694 -0.11415,-0.621745 -0.33984,-0.814453 -0.2257,-0.192708 -0.54362,-0.289062 -0.95508,-0.289062 z m 3.55859,0 v 3.669922 h 2.89062 v -0.40625 h -2.39453 v -1.279297 h 2.13086 v -0.400391 h -2.13086 v -1.177734 h 2.28711 v -0.40625 z m 10.96484,0 v 3.669922 h 0.49805 v -1.523438 h 1.14258 l 0.95312,1.523438 h 0.57422 l -1.04297,-1.582032 c 0.27952,-0.04861 0.49827,-0.165798 0.65625,-0.351562 0.15973,-0.185764 0.24024,-0.414931 0.24024,-0.6875 0,-0.329861 -0.1122,-0.585504 -0.33789,-0.769531 -0.22396,-0.185764 -0.54384,-0.279297 -0.95703,-0.279297 z m 3.90625,0 v 3.669922 h 0.49805 v -3.669922 z m 1.42774,0 v 3.669922 h 0.49804 v -1.429688 h 1.07813 c 0.38889,0 0.69618,-0.103733 0.92187,-0.308594 0.22743,-0.204861 0.33985,-0.480903 0.33985,-0.828125 0,-0.350694 -0.1122,-0.621745 -0.33789,-0.814453 -0.2257,-0.192708 -0.54362,-0.289062 -0.95508,-0.289062 z m 3.24023,0 v 0.40625 h 1.25977 v 3.263672 h 0.49414 v -3.263672 h 1.26172 v -0.40625 z m -22.59961,0.398437 h 0.98633 c 0.56944,0 0.85547,0.23698 0.85547,0.710938 0,0.491319 -0.27843,0.736328 -0.83399,0.736328 h -1.00781 z m 14.52344,0 h 1.17969 c 0.27257,0 0.4809,0.05708 0.625,0.169922 0.14583,0.111111 0.21875,0.272787 0.21875,0.486328 0,0.220486 -0.0727,0.392361 -0.2168,0.515625 -0.14236,0.121528 -0.34332,0.181641 -0.60547,0.181641 h -1.20117 z m 5.33398,0 h 0.98633 c 0.56945,0 0.85352,0.23698 0.85352,0.710938 0,0.491319 -0.27648,0.736328 -0.83203,0.736328 h -1.00782 z"
       transform="translate(-118.4973,-1.0001)" />
    <path
       id="path5"
       style="fill:url(#linearGradient6);fill-opacity:1;stroke:none"
       d="m 151.80394,7.0001 -0.004,0.00195 -19.35351,0.00391 c -1.35355,0 -2.45703,1.1084593 -2.45703,2.4648437 V 57.533303 c 0,1.356386 1.10343,2.466797 2.45703,2.466797 h 36.09375 c 1.35354,0 2.45703,-1.110412 2.45703,-2.466797 V 26.183694 c 0,-0.440775 -0.10327,-0.93784 -0.29297,-1.464844 h 0.0606 l -0.35547,-0.722656 c -0.0256,-0.05172 -0.0587,-0.104197 -0.0859,-0.15625 l -0.0605,-0.125 h -0.008 c -0.33862,-0.618179 -0.7885,-1.252822 -1.38476,-1.84961 l -0.002,-0.002 L 156.26488,9.1524437 C 155.67159,8.4151755 155.0115,7.918962 154.36644,7.59385 154.28114,7.550863 154.19507,7.50998 154.11058,7.4727562 l -0.0859,-0.037109 -0.0312,-0.00195 C 153.20882,7.1007523 152.46804,7.0001 151.90941,7.0001 Z m 0.11523,1.0019531 c 0.37972,7.572e-4 0.91296,0.1248404 1.44727,0.3105469 v 13.935547 c 0,1.22231 0.89866,2.235584 2.06641,2.425781 0.12731,0.02382 0.25744,0.03746 0.39062,0.04102 0.0224,5.98e-4 0.0439,0.0039 0.0664,0.0039 h 13.69336 c 0.23563,0.562366 0.41406,1.117889 0.41406,1.464844 v 31.349609 c 0,0.822556 -0.64278,1.466797 -1.45703,1.466797 h -36.09375 c -0.81435,0 -1.45703,-0.644183 -1.45703,-1.466797 V 9.4708031 c 0,-0.8225555 0.64277,-1.4667967 1.45703,-1.4667969 z m 2.47071,0.9238281 c 0.38082,0.2545633 0.76637,0.4323997 1.12695,0.8886719 l 0.0176,0.021484 12.62695,12.7343749 c 0.37192,0.371984 0.57528,0.75943 0.82813,1.144532 h -13.16602 c -0.0687,0 -0.13319,-0.01063 -0.19922,-0.01953 -0.70854,-0.123274 -1.23436,-0.730184 -1.23437,-1.478515 z m 4.02148,20.6152348 c -0.5829,-0.01742 -1.16789,0.0018 -1.51953,0.06836 -2.16681,0.411636 -3.66731,1.799594 -4.0918,3.789063 -0.12037,0.570229 -0.0837,1.982996 0.0684,2.546875 0.18377,0.677946 0.6288,1.48921 1.09766,1.996093 0.81099,0.874335 1.69669,1.425465 3.75586,2.3125 1.79935,0.779316 2.43368,1.154159 2.74414,1.597657 0.24077,0.348478 0.29687,0.551161 0.29687,1.013671 0,0.513232 -0.15204,0.861449 -0.51953,1.197266 -0.86171,0.773004 -2.60931,0.866911 -3.88281,0.195313 -0.4435,-0.234412 -1.17785,-0.936025 -1.51367,-1.449219 l -0.24219,-0.355469 -1.14648,0.666016 c -0.63358,0.367453 -1.30501,0.752146 -1.48242,0.853515 -0.18377,0.107681 -0.34829,0.209055 -0.36719,0.234375 -0.0443,0.07605 0.67157,1.135502 1.03906,1.541016 0.93761,1.039088 2.45758,1.830101 4.06055,2.115234 0.73494,0.133119 2.35675,0.153583 3.04101,0.0332 2.21118,-0.373803 3.78244,-1.502107 4.41602,-3.162109 0.57658,-1.526845 0.38807,-3.580989 -0.46094,-4.867187 -0.76008,-1.15312 -1.9843,-1.964195 -4.8418,-3.19336 -1.55228,-0.671597 -2.04637,-0.999564 -2.3125,-1.550781 -0.12669,-0.253422 -0.16992,-0.437591 -0.16992,-0.748047 -0.006,-1.0581 0.77227,-1.691735 1.98242,-1.609375 0.82369,0.05703 1.36181,0.379309 1.875,1.126953 0.17107,0.253422 0.32331,0.419851 0.36133,0.394531 1.05179,-0.652587 2.78824,-1.81846 2.77539,-1.86914 -0.0444,-0.171065 -0.58954,-0.888436 -0.95703,-1.28125 -0.70962,-0.734981 -1.48236,-1.184078 -2.49609,-1.4375 -0.34531,-0.08554 -0.92686,-0.140779 -1.50977,-0.158203 z m -14.85547,0.177734 c -3.83319,-0.0063 -6.99477,0.0059 -7.01367,0.03125 -0.0254,0.01901 -0.0449,0.759449 -0.0449,1.646484 V 33.0001 h 5.19531 v 14.763672 h 3.67578 V 33.0001 h 5.19532 l -0.0137,-1.634766 -0.0195,-1.628906 z m 5.93555,22.332031 c -0.44792,0 -0.79188,0.08572 -1.0332,0.25586 -0.23959,0.170138 -0.35938,0.412326 -0.35938,0.726562 0,0.137153 0.0232,0.257379 0.0684,0.363281 0.0469,0.105903 0.11242,0.199436 0.19922,0.279297 0.0868,0.07813 0.20616,0.148655 0.35547,0.212891 0.15104,0.06424 0.37023,0.129123 0.66016,0.193359 0.16666,0.0382 0.31987,0.07444 0.45703,0.107422 0.13715,0.03299 0.25455,0.07248 0.35351,0.121094 0.099,0.04861 0.1747,0.110894 0.22852,0.185547 0.0555,0.07465 0.084,0.171224 0.084,0.291015 0,0.213542 -0.0883,0.377171 -0.26367,0.488282 -0.17361,0.109375 -0.42101,0.164062 -0.74219,0.164062 -0.31076,0 -0.55577,-0.05187 -0.73633,-0.154297 -0.18055,-0.104166 -0.29796,-0.265842 -0.35351,-0.486328 l -0.48242,0.0957 c 0.14236,0.621528 0.66059,0.931641 1.55468,0.931641 0.48091,0 0.8533,-0.09158 1.11719,-0.277344 0.26563,-0.185764 0.39844,-0.448568 0.39844,-0.787109 0,-0.133681 -0.0185,-0.250651 -0.0566,-0.34961 -0.0365,-0.09896 -0.0883,-0.184896 -0.1543,-0.257812 -0.066,-0.07292 -0.14409,-0.133247 -0.23437,-0.183594 -0.0885,-0.05035 -0.18468,-0.0944 -0.28711,-0.130859 -0.10243,-0.0382 -0.20942,-0.06966 -0.32227,-0.0957 -0.11111,-0.02778 -0.22309,-0.05599 -0.33594,-0.08203 -0.3368,-0.07465 -0.56098,-0.137152 -0.67382,-0.1875 -0.11285,-0.05208 -0.20096,-0.114583 -0.26172,-0.1875 -0.059,-0.07465 -0.0879,-0.168402 -0.0879,-0.28125 0,-0.192708 0.0779,-0.336371 0.23242,-0.433593 0.15451,-0.09722 0.37847,-0.146485 0.67187,-0.146485 0.26737,0 0.47592,0.04427 0.62696,0.132813 0.15104,0.0868 0.25282,0.22743 0.30664,0.421875 l 0.49023,-0.08594 c -0.0885,-0.307291 -0.2424,-0.523654 -0.46289,-0.65039 -0.22048,-0.128473 -0.54036,-0.19336 -0.95703,-0.19336 z m 3.80859,0 c -0.55902,0 -0.99652,0.16645 -1.3125,0.498047 -0.31597,0.331597 -0.47461,0.789931 -0.47461,1.375 0,0.390625 0.0703,0.729167 0.21094,1.015625 0.14236,0.284722 0.34809,0.503689 0.61719,0.658203 0.27083,0.152778 0.59115,0.228516 0.96094,0.228516 0.36111,0 0.6786,-0.08116 0.95117,-0.246094 0.2743,-0.16493 0.48568,-0.406684 0.63672,-0.722656 l -0.40625,-0.203125 c -0.25868,0.50868 -0.64432,0.763672 -1.15821,0.763672 -0.40104,0 -0.71896,-0.135634 -0.95507,-0.408203 -0.23438,-0.274306 -0.35157,-0.636285 -0.35157,-1.085938 0,-0.454861 0.1122,-0.813802 0.33789,-1.074219 0.2257,-0.262152 0.54102,-0.392578 0.94727,-0.392578 0.25868,0 0.48242,0.05708 0.66992,0.169922 0.18924,0.112847 0.32704,0.27474 0.41211,0.488281 l 0.4707,-0.15625 c -0.12326,-0.300347 -0.31597,-0.526909 -0.57812,-0.679687 -0.26215,-0.152778 -0.58789,-0.228516 -0.97852,-0.228516 z m -19.42578,0.05469 v 0.40625 h 1.26172 v 3.263672 h 0.49414 v -3.263672 h 1.25977 v -0.40625 z m 3.25586,0 1.41211,2.148437 v 1.521485 h 0.49414 v -1.521485 l 1.41602,-2.148437 h -0.54688 l -1.11133,1.748047 -1.11718,-1.748047 z m 3.87696,0 v 3.669922 h 0.49804 v -1.429688 h 1.07813 c 0.38889,0 0.69618,-0.103733 0.92187,-0.308594 0.22743,-0.204861 0.3418,-0.480903 0.3418,-0.828125 0,-0.350694 -0.11415,-0.621745 -0.33984,-0.814453 -0.2257,-0.192708 -0.54362,-0.289062 -0.95508,-0.289062 z m 3.55859,0 v 3.669922 h 2.89062 v -0.40625 h -2.39453 v -1.279297 h 2.13086 v -0.400391 h -2.13086 v -1.177734 h 2.28711 v -0.40625 z m 10.96484,0 v 3.669922 h 0.49805 v -1.523438 h 1.14258 l 0.95312,1.523438 h 0.57422 l -1.04297,-1.582032 c 0.27952,-0.04861 0.49827,-0.165798 0.65625,-0.351562 0.15973,-0.185764 0.24024,-0.414931 0.24024,-0.6875 0,-0.329861 -0.1122,-0.585504 -0.33789,-0.769531 -0.22396,-0.185764 -0.54384,-0.279297 -0.95703,-0.279297 z m 3.90625,0 v 3.669922 h 0.49805 v -3.669922 z m 1.42774,0 v 3.669922 h 0.49804 v -1.429688 h 1.07813 c 0.38889,0 0.69618,-0.103733 0.92187,-0.308594 0.22743,-0.204861 0.33985,-0.480903 0.33985,-0.828125 0,-0.350694 -0.1122,-0.621745 -0.33789,-0.814453 -0.2257,-0.192708 -0.54362,-0.289062 -0.95508,-0.289062 z m 3.24023,0 v 0.40625 h 1.25977 v 3.263672 h 0.49414 v -3.263672 h 1.26172 v -0.40625 z m -22.59961,0.398437 h 0.98633 c 0.56944,0 0.85547,0.23698 0.85547,0.710938 0,0.491319 -0.27843,0.736328 -0.83399,0.736328 h -1.00781 z m 14.52344,0 h 1.17969 c 0.27257,0 0.4809,0.05708 0.625,0.169922 0.14583,0.111111 0.21875,0.272787 0.21875,0.486328 0,0.220486 -0.0727,0.392361 -0.2168,0.515625 -0.14236,0.121528 -0.34332,0.181641 -0.60547,0.181641 h -1.20117 z m 5.33398,0 h 0.98633 c 0.56945,0 0.85352,0.23698 0.85352,0.710938 0,0.491319 -0.27648,0.736328 -0.83203,0.736328 h -1.00782 z"
       transform="translate(-118.4973,-1.0001)" />
  </g>
</svg>
