<?xml version="1.0" encoding="UTF-8" standalone="no"?>
<svg
   width="43.546024"
   height="55.538212"
   version="1.1"
   viewBox="0 0 43.546024 55.538212"
   id="svg3"
   xmlns:xlink="http://www.w3.org/1999/xlink"
   xmlns="http://www.w3.org/2000/svg"
   xmlns:svg="http://www.w3.org/2000/svg">
  <defs
     id="defs3">
    <linearGradient
       id="linearGradient17">
      <stop
         style="stop-color:#039bfc;stop-opacity:0;"
         offset="0"
         id="stop18" />
      <stop
         style="stop-color:#039bfc;stop-opacity:1;"
         offset="1"
         id="stop17" />
    </linearGradient>
    <linearGradient
       xlink:href="#linearGradient17"
       id="linearGradient18"
       x1="150.4973"
       y1="65.000099"
       x2="150.4973"
       y2="24.884157"
       gradientUnits="userSpaceOnUse" />
    <filter
       style="color-interpolation-filters:sRGB"
       id="filter18"
       x="-0.030947896"
       y="-0.023945386"
       width="1.0618958"
       height="1.0478908">
      <feGaussianBlur
         stdDeviation="0.52879393"
         id="feGaussianBlur18" />
    </filter>
  </defs>
  <g
     id="g18"
     transform="translate(-10.222995,-4.7308946)">
    <path
       id="path1"
       style="display:inline;opacity:0.6;fill:#039bfc;filter:url(#filter18)"
       d="m 151.80394,7.0001 -0.004,0.00195 -19.35351,0.00391 c -1.35355,0 -2.45703,1.1084593 -2.45703,2.4648437 V 57.533303 c 0,1.356386 1.10343,2.466797 2.45703,2.466797 h 36.09375 c 1.35354,0 2.45703,-1.110412 2.45703,-2.466797 V 26.183694 c 0,-0.440775 -0.10327,-0.93784 -0.29297,-1.464844 h 0.0606 l -0.35547,-0.722656 c -0.0256,-0.05172 -0.0587,-0.104197 -0.0859,-0.15625 l -0.0605,-0.125 h -0.008 c -0.33862,-0.618179 -0.7885,-1.252822 -1.38476,-1.84961 l -0.002,-0.002 L 156.26488,9.1524437 C 155.67159,8.4151755 155.0115,7.918962 154.36644,7.59385 154.28114,7.550863 154.19507,7.50998 154.11058,7.4727562 l -0.0859,-0.037109 -0.0312,-0.00195 C 153.20882,7.1007523 152.46804,7.0001 151.90941,7.0001 Z m 0.11523,1.0019531 c 0.37972,7.572e-4 0.91296,0.1248404 1.44727,0.3105469 v 13.935547 c 0,1.22231 0.89866,2.235584 2.06641,2.425781 0.12731,0.02382 0.25744,0.03746 0.39062,0.04102 0.0224,5.98e-4 0.0439,0.0039 0.0664,0.0039 h 13.69336 c 0.23563,0.562366 0.41406,1.117889 0.41406,1.464844 v 31.349609 c 0,0.822556 -0.64278,1.466797 -1.45703,1.466797 h -36.09375 c -0.81435,0 -1.45703,-0.644183 -1.45703,-1.466797 V 9.4708031 c 0,-0.8225555 0.64277,-1.4667967 1.45703,-1.4667969 z m 2.47071,0.9238281 c 0.38082,0.2545633 0.76637,0.4323997 1.12695,0.8886719 l 0.0176,0.021484 12.62695,12.7343749 c 0.37192,0.371984 0.57528,0.75943 0.82813,1.144532 h -13.16602 c -0.0687,0 -0.13319,-0.01063 -0.19922,-0.01953 -0.70854,-0.123274 -1.23436,-0.730184 -1.23437,-1.478515 z m 0.28711,20.5371098 -6.39453,0.01563 c 0.69544,0.438434 1.61738,1.424586 2.38086,2.554687 0.84663,1.258607 1.52295,2.710397 2.0332,3.976563 l -1.80664,1.042968 5.75586,-0.01172 2.6875,-5.033203 -1.43164,0.951171 -0.90625,-1.714843 c -0.60852,-0.967578 -1.16936,-1.671515 -2.31836,-1.777344 z m -7.97852,0.205078 a 3.2504577,3.2504577 0 0 0 -1.20508,0.242187 l -2.78906,4.103516 4.91211,3.269531 2.63477,-4.943359 c -0.72947,-1.069628 -1.79893,-2.634079 -3.49219,-2.671875 z m 13.5586,6.984375 -4.95118,3.160156 2.28907,4.931641 1.96875,0.01563 c 1.12254,0.01134 2.91091,-1.587402 2.93359,-2.796875 v -0.08594 z m -16.41602,1.228515 -5.34375,0.291016 1.71289,0.929688 -0.57617,1.208984 c -1.85956,3.945905 0.49165,5.870861 3.27344,9.710937 a 4.0592925,4.0592925 0 0 1 -0.0215,-2.96289 l 2.4668,-5.25 1.55078,0.800781 z m 10.50391,5.658204 -2.63477,4.992187 2.63477,4.933594 0.0156,-2.033203 h 1.28906 c 4.1689,0 4.74694,-3.077286 6.75391,-7.423828 a 3.5717239,3.5717239 0 0 1 -2.49414,1.333984 l -5.54883,0.01563 z m -4.15821,1.625 -5.74023,0.193359 -0.89649,1.839844 c -0.52914,1.084746 0.0765,3.594083 1.13477,4.070312 h 5.46484 z"
       transform="translate(-118.4973,-1.0001)" />
    <path
       id="path17"
       style="fill:url(#linearGradient18);fill-opacity:1"
       d="m 151.80394,7.0001 -0.004,0.00195 -19.35351,0.00391 c -1.35355,0 -2.45703,1.1084593 -2.45703,2.4648437 V 57.533303 c 0,1.356386 1.10343,2.466797 2.45703,2.466797 h 36.09375 c 1.35354,0 2.45703,-1.110412 2.45703,-2.466797 V 26.183694 c 0,-0.440775 -0.10327,-0.93784 -0.29297,-1.464844 h 0.0606 l -0.35547,-0.722656 c -0.0256,-0.05172 -0.0587,-0.104197 -0.0859,-0.15625 l -0.0605,-0.125 h -0.008 c -0.33862,-0.618179 -0.7885,-1.252822 -1.38476,-1.84961 l -0.002,-0.002 L 156.26488,9.1524437 C 155.67159,8.4151755 155.0115,7.918962 154.36644,7.59385 154.28114,7.550863 154.19507,7.50998 154.11058,7.4727562 l -0.0859,-0.037109 -0.0312,-0.00195 C 153.20882,7.1007523 152.46804,7.0001 151.90941,7.0001 Z m 0.11523,1.0019531 c 0.37972,7.572e-4 0.91296,0.1248404 1.44727,0.3105469 v 13.935547 c 0,1.22231 0.89866,2.235584 2.06641,2.425781 0.12731,0.02382 0.25744,0.03746 0.39062,0.04102 0.0224,5.98e-4 0.0439,0.0039 0.0664,0.0039 h 13.69336 c 0.23563,0.562366 0.41406,1.117889 0.41406,1.464844 v 31.349609 c 0,0.822556 -0.64278,1.466797 -1.45703,1.466797 h -36.09375 c -0.81435,0 -1.45703,-0.644183 -1.45703,-1.466797 V 9.4708031 c 0,-0.8225555 0.64277,-1.4667967 1.45703,-1.4667969 z m 2.47071,0.9238281 c 0.38082,0.2545633 0.76637,0.4323997 1.12695,0.8886719 l 0.0176,0.021484 12.62695,12.7343749 c 0.37192,0.371984 0.57528,0.75943 0.82813,1.144532 h -13.16602 c -0.0687,0 -0.13319,-0.01063 -0.19922,-0.01953 -0.70854,-0.123274 -1.23436,-0.730184 -1.23437,-1.478515 z m 0.28711,20.5371098 -6.39453,0.01563 c 0.69544,0.438434 1.61738,1.424586 2.38086,2.554687 0.84663,1.258607 1.52295,2.710397 2.0332,3.976563 l -1.80664,1.042968 5.75586,-0.01172 2.6875,-5.033203 -1.43164,0.951171 -0.90625,-1.714843 c -0.60852,-0.967578 -1.16936,-1.671515 -2.31836,-1.777344 z m -7.97852,0.205078 a 3.2504577,3.2504577 0 0 0 -1.20508,0.242187 l -2.78906,4.103516 4.91211,3.269531 2.63477,-4.943359 c -0.72947,-1.069628 -1.79893,-2.634079 -3.49219,-2.671875 z m 13.5586,6.984375 -4.95118,3.160156 2.28907,4.931641 1.96875,0.01563 c 1.12254,0.01134 2.91091,-1.587402 2.93359,-2.796875 v -0.08594 z m -16.41602,1.228515 -5.34375,0.291016 1.71289,0.929688 -0.57617,1.208984 c -1.85956,3.945905 0.49165,5.870861 3.27344,9.710937 a 4.0592925,4.0592925 0 0 1 -0.0215,-2.96289 l 2.4668,-5.25 1.55078,0.800781 z m 10.50391,5.658204 -2.63477,4.992187 2.63477,4.933594 0.0156,-2.033203 h 1.28906 c 4.1689,0 4.74694,-3.077286 6.75391,-7.423828 a 3.5717239,3.5717239 0 0 1 -2.49414,1.333984 l -5.54883,0.01563 z m -4.15821,1.625 -5.74023,0.193359 -0.89649,1.839844 c -0.52914,1.084746 0.0765,3.594083 1.13477,4.070312 h 5.46484 z"
       transform="translate(-118.4973,-1.0001)" />
  </g>
</svg>
