<?xml version="1.0" encoding="UTF-8" standalone="no"?>
<svg
   width="43.546024"
   height="55.538212"
   version="1.1"
   viewBox="0 0 43.546024 55.538212"
   id="svg3"
   xmlns:xlink="http://www.w3.org/1999/xlink"
   xmlns="http://www.w3.org/2000/svg"
   xmlns:svg="http://www.w3.org/2000/svg">
  <defs
     id="defs3">
    <linearGradient
       id="linearGradient10">
      <stop
         style="stop-color:#00abff;stop-opacity:0;"
         offset="0"
         id="stop11" />
      <stop
         style="stop-color:#00abff;stop-opacity:1;"
         offset="1"
         id="stop10" />
    </linearGradient>
    <linearGradient
       xlink:href="#linearGradient10"
       id="linearGradient11"
       x1="151.19295"
       y1="65.000099"
       x2="151.19295"
       y2="25.347925"
       gradientUnits="userSpaceOnUse" />
    <filter
       style="color-interpolation-filters:sRGB"
       id="filter11"
       x="-0.030947896"
       y="-0.023945386"
       width="1.0618958"
       height="1.0478908">
      <feGaussianBlur
         stdDeviation="0.52879393"
         id="feGaussianBlur11" />
    </filter>
  </defs>
  <g
     id="g11"
     transform="translate(-10.222995,-4.7308946)">
    <path
       id="path1"
       style="display:inline;opacity:0.6;fill:#00abff;fill-opacity:1;stroke:none;filter:url(#filter11)"
       d="m 151.80394,7.0001 -0.004,0.00195 -19.35351,0.00391 c -1.35355,0 -2.45703,1.1084593 -2.45703,2.4648437 V 57.533303 c 0,1.356386 1.10343,2.466797 2.45703,2.466797 h 36.09375 c 1.35354,0 2.45703,-1.110412 2.45703,-2.466797 V 26.183694 c 0,-0.440775 -0.10327,-0.93784 -0.29297,-1.464844 h 0.0606 l -0.35547,-0.722656 c -0.0256,-0.05172 -0.0587,-0.104197 -0.0859,-0.15625 l -0.0605,-0.125 h -0.008 c -0.33862,-0.618179 -0.7885,-1.252822 -1.38476,-1.84961 l -0.002,-0.002 L 156.26488,9.1524437 C 155.67159,8.4151755 155.0115,7.918962 154.36644,7.59385 154.28114,7.550863 154.19507,7.50998 154.11058,7.4727562 l -0.0859,-0.037109 -0.0312,-0.00195 C 153.20882,7.1007523 152.46804,7.0001 151.90941,7.0001 Z m 0.11523,1.0019531 c 0.37972,7.572e-4 0.91296,0.1248404 1.44727,0.3105469 v 13.935547 c 0,1.22231 0.89866,2.235584 2.06641,2.425781 0.12731,0.02382 0.25744,0.03746 0.39062,0.04102 0.0224,5.98e-4 0.0439,0.0039 0.0664,0.0039 h 13.69336 c 0.23563,0.562366 0.41406,1.117889 0.41406,1.464844 v 31.349609 c 0,0.822556 -0.64278,1.466797 -1.45703,1.466797 h -36.09375 c -0.81435,0 -1.45703,-0.644183 -1.45703,-1.466797 V 9.4708031 c 0,-0.8225555 0.64277,-1.4667967 1.45703,-1.4667969 z m 2.47071,0.9238281 c 0.38082,0.2545633 0.76637,0.4323997 1.12695,0.8886719 l 0.0176,0.021484 12.62695,12.7343749 c 0.37192,0.371984 0.57528,0.75943 0.82813,1.144532 h -13.16602 c -0.0687,0 -0.13319,-0.01063 -0.19922,-0.01953 -0.70854,-0.123274 -1.23436,-0.730184 -1.23437,-1.478515 z M 150.4973,28.224709 c -5.26969,0 -9.55078,4.281414 -9.55078,9.550782 0,5.269367 4.28109,9.550781 9.55078,9.550781 5.26969,0 9.55078,-4.281414 9.55078,-9.550781 0,-5.269368 -4.28109,-9.550782 -9.55078,-9.550782 z m 0,0.955078 a 8.5960327,8.5960327 0 0 1 8.5957,8.595704 8.5960327,8.5960327 0 0 1 -8.5957,8.595703 8.5960327,8.5960327 0 0 1 -8.5957,-8.595703 8.5960327,8.5960327 0 0 1 8.5957,-8.595704 z m 0,3.820313 c -0.52749,2e-6 -0.95508,0.427585 -0.95508,0.955078 0,0.527494 0.42759,0.955078 0.95508,0.955078 0.52749,-3e-6 0.95508,-0.427584 0.95508,-0.955078 0,-0.527493 -0.42759,-0.955078 -0.95508,-0.955078 z m -0.63672,3.501953 v 6.367188 h 1.27344 v -6.367188 z m -15.97656,14.095703 v 5.503907 h 0.74609 v -2.285157 h 1.71485 l 1.42968,2.285157 h 0.85938 l -1.5625,-2.371094 c 0.41927,-0.07292 0.74739,-0.248698 0.98437,-0.527344 0.23959,-0.278646 0.35938,-0.622396 0.35938,-1.03125 0,-0.494792 -0.16927,-0.880208 -0.50781,-1.15625 -0.33594,-0.278646 -0.81381,-0.417969 -1.4336,-0.417969 z m 5.77734,0 v 5.503907 h 4.33594 v -0.609375 h -3.58984 v -1.917969 h 3.19531 v -0.601563 h -3.19531 v -1.765625 h 3.42968 v -0.609375 z m 6.94141,0 -2.2461,5.503907 h 0.77344 l 0.63281,-1.609375 h 2.50782 l 0.6289,1.609375 h 0.76172 l -2.21094,-5.503907 z m 3.73047,0 v 5.503907 h 2.05859 c 0.53125,0 1,-0.113282 1.40625,-0.339844 0.40625,-0.226563 0.72005,-0.552084 0.94141,-0.976563 0.22135,-0.427083 0.33203,-0.924479 0.33203,-1.492187 0,-0.861979 -0.25391,-1.526042 -0.76172,-1.992188 -0.50521,-0.46875 -1.22396,-0.703125 -2.15625,-0.703125 z m 5.77734,0 v 5.503907 h 0.66406 v -3.671875 l -0.0156,-0.738282 -0.0117,-0.433593 0.12891,0.429687 0.21875,0.664063 1.4414,3.75 h 0.52344 l 1.42187,-3.75 c 0.10157,-0.263021 0.21615,-0.627605 0.34375,-1.09375 -0.0234,0.375 -0.0352,0.765625 -0.0352,1.171875 v 3.671875 h 0.67187 v -5.503907 h -0.95703 l -1.4375,3.816407 c -0.0234,0.05469 -0.069,0.188802 -0.13672,0.402343 -0.0651,0.210938 -0.10807,0.36849 -0.1289,0.472657 -0.0156,-0.07813 -0.0482,-0.204428 -0.0977,-0.378907 -0.0469,-0.177083 -0.0964,-0.342448 -0.14844,-0.496093 L 157.091,50.597756 Z m 6.66406,0 v 5.503907 h 4.33594 v -0.609375 h -3.58984 v -1.917969 h 3.19531 v -0.601563 h -3.19531 v -1.765625 h 3.42968 v -0.609375 z m -15.75781,0.5625 0.10547,0.324219 c 0.0729,0.226563 0.14583,0.429688 0.21875,0.609375 l 0.70703,1.816406 h -2.05859 l 0.70312,-1.808593 c 0.12761,-0.338542 0.22396,-0.615886 0.28906,-0.832032 z m -12.38672,0.03516 h 1.76953 c 0.40886,0 0.72136,0.08463 0.9375,0.253906 0.21875,0.166666 0.32813,0.410156 0.32813,0.730469 0,0.330729 -0.10807,0.588541 -0.32422,0.773437 -0.21354,0.182292 -0.51693,0.273438 -0.91016,0.273438 h -1.80078 z m 16.44922,0 h 1.05859 c 0.70834,0 1.2487,0.179687 1.6211,0.539062 0.375,0.356771 0.5625,0.876302 0.5625,1.558594 0,0.453125 -0.082,0.846354 -0.2461,1.179687 -0.16406,0.333334 -0.39973,0.588542 -0.70703,0.765625 -0.30468,0.177084 -0.65885,0.265625 -1.0625,0.265625 h -1.22656 z"
       transform="translate(-118.4973,-1.0001)" />
    <path
       id="path10"
       style="fill:url(#linearGradient11);fill-opacity:1;stroke:none"
       d="m 151.80394,7.0001 -0.004,0.00195 -19.35351,0.00391 c -1.35355,0 -2.45703,1.1084593 -2.45703,2.4648437 V 57.533303 c 0,1.356386 1.10343,2.466797 2.45703,2.466797 h 36.09375 c 1.35354,0 2.45703,-1.110412 2.45703,-2.466797 V 26.183694 c 0,-0.440775 -0.10327,-0.93784 -0.29297,-1.464844 h 0.0606 l -0.35547,-0.722656 c -0.0256,-0.05172 -0.0587,-0.104197 -0.0859,-0.15625 l -0.0605,-0.125 h -0.008 c -0.33862,-0.618179 -0.7885,-1.252822 -1.38476,-1.84961 l -0.002,-0.002 L 156.26488,9.1524437 C 155.67159,8.4151755 155.0115,7.918962 154.36644,7.59385 154.28114,7.550863 154.19507,7.50998 154.11058,7.4727562 l -0.0859,-0.037109 -0.0312,-0.00195 C 153.20882,7.1007523 152.46804,7.0001 151.90941,7.0001 Z m 0.11523,1.0019531 c 0.37972,7.572e-4 0.91296,0.1248404 1.44727,0.3105469 v 13.935547 c 0,1.22231 0.89866,2.235584 2.06641,2.425781 0.12731,0.02382 0.25744,0.03746 0.39062,0.04102 0.0224,5.98e-4 0.0439,0.0039 0.0664,0.0039 h 13.69336 c 0.23563,0.562366 0.41406,1.117889 0.41406,1.464844 v 31.349609 c 0,0.822556 -0.64278,1.466797 -1.45703,1.466797 h -36.09375 c -0.81435,0 -1.45703,-0.644183 -1.45703,-1.466797 V 9.4708031 c 0,-0.8225555 0.64277,-1.4667967 1.45703,-1.4667969 z m 2.47071,0.9238281 c 0.38082,0.2545633 0.76637,0.4323997 1.12695,0.8886719 l 0.0176,0.021484 12.62695,12.7343749 c 0.37192,0.371984 0.57528,0.75943 0.82813,1.144532 h -13.16602 c -0.0687,0 -0.13319,-0.01063 -0.19922,-0.01953 -0.70854,-0.123274 -1.23436,-0.730184 -1.23437,-1.478515 z M 150.4973,28.224709 c -5.26969,0 -9.55078,4.281414 -9.55078,9.550782 0,5.269367 4.28109,9.550781 9.55078,9.550781 5.26969,0 9.55078,-4.281414 9.55078,-9.550781 0,-5.269368 -4.28109,-9.550782 -9.55078,-9.550782 z m 0,0.955078 a 8.5960327,8.5960327 0 0 1 8.5957,8.595704 8.5960327,8.5960327 0 0 1 -8.5957,8.595703 8.5960327,8.5960327 0 0 1 -8.5957,-8.595703 8.5960327,8.5960327 0 0 1 8.5957,-8.595704 z m 0,3.820313 c -0.52749,2e-6 -0.95508,0.427585 -0.95508,0.955078 0,0.527494 0.42759,0.955078 0.95508,0.955078 0.52749,-3e-6 0.95508,-0.427584 0.95508,-0.955078 0,-0.527493 -0.42759,-0.955078 -0.95508,-0.955078 z m -0.63672,3.501953 v 6.367188 h 1.27344 v -6.367188 z m -15.97656,14.095703 v 5.503907 h 0.74609 v -2.285157 h 1.71485 l 1.42968,2.285157 h 0.85938 l -1.5625,-2.371094 c 0.41927,-0.07292 0.74739,-0.248698 0.98437,-0.527344 0.23959,-0.278646 0.35938,-0.622396 0.35938,-1.03125 0,-0.494792 -0.16927,-0.880208 -0.50781,-1.15625 -0.33594,-0.278646 -0.81381,-0.417969 -1.4336,-0.417969 z m 5.77734,0 v 5.503907 h 4.33594 v -0.609375 h -3.58984 v -1.917969 h 3.19531 v -0.601563 h -3.19531 v -1.765625 h 3.42968 v -0.609375 z m 6.94141,0 -2.2461,5.503907 h 0.77344 l 0.63281,-1.609375 h 2.50782 l 0.6289,1.609375 h 0.76172 l -2.21094,-5.503907 z m 3.73047,0 v 5.503907 h 2.05859 c 0.53125,0 1,-0.113282 1.40625,-0.339844 0.40625,-0.226563 0.72005,-0.552084 0.94141,-0.976563 0.22135,-0.427083 0.33203,-0.924479 0.33203,-1.492187 0,-0.861979 -0.25391,-1.526042 -0.76172,-1.992188 -0.50521,-0.46875 -1.22396,-0.703125 -2.15625,-0.703125 z m 5.77734,0 v 5.503907 h 0.66406 v -3.671875 l -0.0156,-0.738282 -0.0117,-0.433593 0.12891,0.429687 0.21875,0.664063 1.4414,3.75 h 0.52344 l 1.42187,-3.75 c 0.10157,-0.263021 0.21615,-0.627605 0.34375,-1.09375 -0.0234,0.375 -0.0352,0.765625 -0.0352,1.171875 v 3.671875 h 0.67187 v -5.503907 h -0.95703 l -1.4375,3.816407 c -0.0234,0.05469 -0.069,0.188802 -0.13672,0.402343 -0.0651,0.210938 -0.10807,0.36849 -0.1289,0.472657 -0.0156,-0.07813 -0.0482,-0.204428 -0.0977,-0.378907 -0.0469,-0.177083 -0.0964,-0.342448 -0.14844,-0.496093 L 157.091,50.597756 Z m 6.66406,0 v 5.503907 h 4.33594 v -0.609375 h -3.58984 v -1.917969 h 3.19531 v -0.601563 h -3.19531 v -1.765625 h 3.42968 v -0.609375 z m -15.75781,0.5625 0.10547,0.324219 c 0.0729,0.226563 0.14583,0.429688 0.21875,0.609375 l 0.70703,1.816406 h -2.05859 l 0.70312,-1.808593 c 0.12761,-0.338542 0.22396,-0.615886 0.28906,-0.832032 z m -12.38672,0.03516 h 1.76953 c 0.40886,0 0.72136,0.08463 0.9375,0.253906 0.21875,0.166666 0.32813,0.410156 0.32813,0.730469 0,0.330729 -0.10807,0.588541 -0.32422,0.773437 -0.21354,0.182292 -0.51693,0.273438 -0.91016,0.273438 h -1.80078 z m 16.44922,0 h 1.05859 c 0.70834,0 1.2487,0.179687 1.6211,0.539062 0.375,0.356771 0.5625,0.876302 0.5625,1.558594 0,0.453125 -0.082,0.846354 -0.2461,1.179687 -0.16406,0.333334 -0.39973,0.588542 -0.70703,0.765625 -0.30468,0.177084 -0.65885,0.265625 -1.0625,0.265625 h -1.22656 z"
       transform="translate(-118.4973,-1.0001)" />
  </g>
</svg>
