<?xml version="1.0" encoding="UTF-8" standalone="no"?>
<svg
   width="43.546024"
   height="55.538212"
   version="1.1"
   viewBox="0 0 43.546024 55.538212"
   id="svg3"
   xmlns:xlink="http://www.w3.org/1999/xlink"
   xmlns="http://www.w3.org/2000/svg"
   xmlns:svg="http://www.w3.org/2000/svg">
  <defs
     id="defs3">
    <linearGradient
       id="linearGradient19">
      <stop
         style="stop-color:#00abff;stop-opacity:0;"
         offset="0"
         id="stop20" />
      <stop
         style="stop-color:#00abff;stop-opacity:1;"
         offset="1"
         id="stop19" />
    </linearGradient>
    <linearGradient
       xlink:href="#linearGradient19"
       id="linearGradient20"
       x1="150.96107"
       y1="65.000099"
       x2="150.96107"
       y2="24.768215"
       gradientUnits="userSpaceOnUse" />
    <filter
       style="color-interpolation-filters:sRGB"
       id="filter20"
       x="-0.030947896"
       y="-0.023945386"
       width="1.0618958"
       height="1.0478908">
      <feGaussianBlur
         stdDeviation="0.52879393"
         id="feGaussianBlur20" />
    </filter>
  </defs>
  <g
     id="g20"
     transform="translate(-10.222995,-4.7308946)">
    <path
       id="path1"
       style="display:inline;opacity:0.6;fill:#00abff;fill-opacity:1;stroke:none;filter:url(#filter20)"
       d="m 151.80394,7.0001 -0.004,0.00195 -19.35351,0.00391 c -1.35355,0 -2.45703,1.1084593 -2.45703,2.4648437 V 57.533303 c 0,1.356386 1.10343,2.466797 2.45703,2.466797 h 36.09375 c 1.35354,0 2.45703,-1.110412 2.45703,-2.466797 V 26.183694 c 0,-0.440775 -0.10327,-0.93784 -0.29297,-1.464844 h 0.0606 l -0.35547,-0.722656 c -0.0256,-0.05172 -0.0587,-0.104197 -0.0859,-0.15625 l -0.0605,-0.125 h -0.008 c -0.33862,-0.618179 -0.7885,-1.252822 -1.38476,-1.84961 l -0.002,-0.002 L 156.26488,9.1524437 C 155.67159,8.4151755 155.0115,7.918962 154.36644,7.59385 154.28114,7.550863 154.19507,7.50998 154.11058,7.4727562 l -0.0859,-0.037109 -0.0312,-0.00195 C 153.20882,7.1007523 152.46804,7.0001 151.90941,7.0001 Z m 0.11523,1.0019531 c 0.37972,7.572e-4 0.91296,0.1248404 1.44727,0.3105469 v 13.935547 c 0,1.22231 0.89866,2.235584 2.06641,2.425781 0.12731,0.02382 0.25744,0.03746 0.39062,0.04102 0.0224,5.98e-4 0.0439,0.0039 0.0664,0.0039 h 13.69336 c 0.23563,0.562366 0.41406,1.117889 0.41406,1.464844 v 31.349609 c 0,0.822556 -0.64278,1.466797 -1.45703,1.466797 h -36.09375 c -0.81435,0 -1.45703,-0.644183 -1.45703,-1.466797 V 9.4708031 c 0,-0.8225555 0.64277,-1.4667967 1.45703,-1.4667969 z m 2.47071,0.9238281 c 0.38082,0.2545633 0.76637,0.4323997 1.12695,0.8886719 l 0.0176,0.021484 12.62695,12.7343749 c 0.37192,0.371984 0.57528,0.75943 0.82813,1.144532 h -13.16602 c -0.0687,0 -0.13319,-0.01063 -0.19922,-0.01953 -0.70854,-0.123274 -1.23436,-0.730184 -1.23437,-1.478515 z M 140.48363,27.109475 v 10.013672 h 5.46094 v 6.373047 l 3.64257,3.640625 v -3.640625 h 10.92383 V 32.570413 h -5.46094 v -5.460938 z m 14.5664,6.373047 h 4.55079 v 9.103516 h -12.7461 v -5.462891 h 3.64258 v 4.552734 l 4.55273,-4.552734 z M 153.0305,50.15635 c -0.85937,0 -1.52994,0.248698 -2.01172,0.746094 -0.48177,0.494791 -0.72265,1.182291 -0.72265,2.0625 0,0.578125 0.10807,1.084635 0.32422,1.519531 0.21614,0.432292 0.52864,0.763021 0.9375,0.992188 0.41146,0.229166 0.89974,0.34375 1.46484,0.34375 0.5599,-1e-6 1.04557,-0.115886 1.45703,-0.347657 0.41146,-0.231771 0.72656,-0.563802 0.94531,-0.996093 0.22136,-0.432292 0.33204,-0.936198 0.33204,-1.511719 0,-0.578125 -0.10938,-1.079427 -0.32813,-1.503906 -0.21615,-0.42448 -0.52995,-0.747396 -0.94141,-0.96875 -0.41145,-0.223959 -0.89713,-0.335938 -1.45703,-0.335938 z m -7.79297,0.08203 v 5.503907 h 0.7461 v -2.144532 h 1.61719 c 0.58333,0 1.04427,-0.153646 1.38281,-0.460937 0.34114,-0.307292 0.51172,-0.721354 0.51172,-1.242188 0,-0.526041 -0.16927,-0.933593 -0.50782,-1.222656 -0.33854,-0.289062 -0.8164,-0.433594 -1.43359,-0.433594 z m 7.79297,0.527344 c 0.625,0 1.10808,0.195313 1.44922,0.585938 0.34375,0.390625 0.51563,0.928385 0.51563,1.613281 0,0.716146 -0.17058,1.270833 -0.51172,1.664062 -0.33854,0.390625 -0.82552,0.585938 -1.46094,0.585938 -0.61719,0 -1.10026,-0.201823 -1.44922,-0.605469 -0.34635,-0.40625 -0.51953,-0.954427 -0.51953,-1.644531 0,-0.695313 0.17188,-1.235677 0.51563,-1.621094 0.34375,-0.385417 0.83072,-0.578125 1.46093,-0.578125 z m -7.04687,0.07031 h 1.48047 c 0.85416,0 1.28125,0.355468 1.28125,1.066406 0,0.736979 -0.41667,1.105469 -1.25,1.105469 h -1.51172 z"
       transform="translate(-118.4973,-1.0001)" />
    <path
       id="path19"
       style="fill:url(#linearGradient20);fill-opacity:1;stroke:none"
       d="m 151.80394,7.0001 -0.004,0.00195 -19.35351,0.00391 c -1.35355,0 -2.45703,1.1084593 -2.45703,2.4648437 V 57.533303 c 0,1.356386 1.10343,2.466797 2.45703,2.466797 h 36.09375 c 1.35354,0 2.45703,-1.110412 2.45703,-2.466797 V 26.183694 c 0,-0.440775 -0.10327,-0.93784 -0.29297,-1.464844 h 0.0606 l -0.35547,-0.722656 c -0.0256,-0.05172 -0.0587,-0.104197 -0.0859,-0.15625 l -0.0605,-0.125 h -0.008 c -0.33862,-0.618179 -0.7885,-1.252822 -1.38476,-1.84961 l -0.002,-0.002 L 156.26488,9.1524437 C 155.67159,8.4151755 155.0115,7.918962 154.36644,7.59385 154.28114,7.550863 154.19507,7.50998 154.11058,7.4727562 l -0.0859,-0.037109 -0.0312,-0.00195 C 153.20882,7.1007523 152.46804,7.0001 151.90941,7.0001 Z m 0.11523,1.0019531 c 0.37972,7.572e-4 0.91296,0.1248404 1.44727,0.3105469 v 13.935547 c 0,1.22231 0.89866,2.235584 2.06641,2.425781 0.12731,0.02382 0.25744,0.03746 0.39062,0.04102 0.0224,5.98e-4 0.0439,0.0039 0.0664,0.0039 h 13.69336 c 0.23563,0.562366 0.41406,1.117889 0.41406,1.464844 v 31.349609 c 0,0.822556 -0.64278,1.466797 -1.45703,1.466797 h -36.09375 c -0.81435,0 -1.45703,-0.644183 -1.45703,-1.466797 V 9.4708031 c 0,-0.8225555 0.64277,-1.4667967 1.45703,-1.4667969 z m 2.47071,0.9238281 c 0.38082,0.2545633 0.76637,0.4323997 1.12695,0.8886719 l 0.0176,0.021484 12.62695,12.7343749 c 0.37192,0.371984 0.57528,0.75943 0.82813,1.144532 h -13.16602 c -0.0687,0 -0.13319,-0.01063 -0.19922,-0.01953 -0.70854,-0.123274 -1.23436,-0.730184 -1.23437,-1.478515 z M 140.48363,27.109475 v 10.013672 h 5.46094 v 6.373047 l 3.64257,3.640625 v -3.640625 h 10.92383 V 32.570413 h -5.46094 v -5.460938 z m 14.5664,6.373047 h 4.55079 v 9.103516 h -12.7461 v -5.462891 h 3.64258 v 4.552734 l 4.55273,-4.552734 z M 153.0305,50.15635 c -0.85937,0 -1.52994,0.248698 -2.01172,0.746094 -0.48177,0.494791 -0.72265,1.182291 -0.72265,2.0625 0,0.578125 0.10807,1.084635 0.32422,1.519531 0.21614,0.432292 0.52864,0.763021 0.9375,0.992188 0.41146,0.229166 0.89974,0.34375 1.46484,0.34375 0.5599,-1e-6 1.04557,-0.115886 1.45703,-0.347657 0.41146,-0.231771 0.72656,-0.563802 0.94531,-0.996093 0.22136,-0.432292 0.33204,-0.936198 0.33204,-1.511719 0,-0.578125 -0.10938,-1.079427 -0.32813,-1.503906 -0.21615,-0.42448 -0.52995,-0.747396 -0.94141,-0.96875 -0.41145,-0.223959 -0.89713,-0.335938 -1.45703,-0.335938 z m -7.79297,0.08203 v 5.503907 h 0.7461 v -2.144532 h 1.61719 c 0.58333,0 1.04427,-0.153646 1.38281,-0.460937 0.34114,-0.307292 0.51172,-0.721354 0.51172,-1.242188 0,-0.526041 -0.16927,-0.933593 -0.50782,-1.222656 -0.33854,-0.289062 -0.8164,-0.433594 -1.43359,-0.433594 z m 7.79297,0.527344 c 0.625,0 1.10808,0.195313 1.44922,0.585938 0.34375,0.390625 0.51563,0.928385 0.51563,1.613281 0,0.716146 -0.17058,1.270833 -0.51172,1.664062 -0.33854,0.390625 -0.82552,0.585938 -1.46094,0.585938 -0.61719,0 -1.10026,-0.201823 -1.44922,-0.605469 -0.34635,-0.40625 -0.51953,-0.954427 -0.51953,-1.644531 0,-0.695313 0.17188,-1.235677 0.51563,-1.621094 0.34375,-0.385417 0.83072,-0.578125 1.46093,-0.578125 z m -7.04687,0.07031 h 1.48047 c 0.85416,0 1.28125,0.355468 1.28125,1.066406 0,0.736979 -0.41667,1.105469 -1.25,1.105469 h -1.51172 z"
       transform="translate(-118.4973,-1.0001)" />
  </g>
</svg>
