<?xml version="1.0" encoding="UTF-8" standalone="no"?>
<svg
   width="43.546024"
   height="55.538212"
   version="1.1"
   viewBox="0 0 43.546024 55.538212"
   id="svg3"
   xmlns:xlink="http://www.w3.org/1999/xlink"
   xmlns="http://www.w3.org/2000/svg"
   xmlns:svg="http://www.w3.org/2000/svg">
  <defs
     id="defs3">
    <linearGradient
       id="linearGradient3">
      <stop
         style="stop-color:#00abff;stop-opacity:0;"
         offset="0"
         id="stop4" />
      <stop
         style="stop-color:#00abff;stop-opacity:1;"
         offset="1"
         id="stop3" />
    </linearGradient>
    <linearGradient
       xlink:href="#linearGradient3"
       id="linearGradient4"
       x1="150.84512"
       y1="65.000099"
       x2="150.84512"
       y2="25.231983"
       gradientUnits="userSpaceOnUse" />
    <filter
       style="color-interpolation-filters:sRGB"
       id="filter4"
       x="-0.030947896"
       y="-0.023945386"
       width="1.0618958"
       height="1.0478908">
      <feGaussianBlur
         stdDeviation="0.52879393"
         id="feGaussianBlur4" />
    </filter>
  </defs>
  <g
     id="g4"
     transform="translate(-10.222995,-4.7308946)">
    <path
       id="path1"
       style="display:inline;opacity:0.6;fill:#00abff;fill-opacity:1;stroke:none;filter:url(#filter4)"
       d="m 151.80394,7.0001 -0.004,0.00195 -19.35351,0.00391 c -1.35355,0 -2.45703,1.1084593 -2.45703,2.4648437 V 57.533303 c 0,1.356386 1.10343,2.466797 2.45703,2.466797 h 36.09375 c 1.35354,0 2.45703,-1.110412 2.45703,-2.466797 V 26.183694 c 0,-0.440775 -0.10327,-0.93784 -0.29297,-1.464844 h 0.0606 l -0.35547,-0.722656 c -0.0256,-0.05172 -0.0587,-0.104197 -0.0859,-0.15625 l -0.0605,-0.125 h -0.008 c -0.33862,-0.618179 -0.7885,-1.252822 -1.38476,-1.84961 l -0.002,-0.002 L 156.26488,9.1524437 C 155.67159,8.4151755 155.0115,7.918962 154.36644,7.59385 154.28114,7.550863 154.19507,7.50998 154.11058,7.4727562 l -0.0859,-0.037109 -0.0312,-0.00195 C 153.20882,7.1007523 152.46804,7.0001 151.90941,7.0001 Z m 0.11523,1.0019531 c 0.37972,7.572e-4 0.91296,0.1248404 1.44727,0.3105469 v 13.935547 c 0,1.22231 0.89866,2.235584 2.06641,2.425781 0.12731,0.02382 0.25744,0.03746 0.39062,0.04102 0.0224,5.98e-4 0.0439,0.0039 0.0664,0.0039 h 13.69336 c 0.23563,0.562366 0.41406,1.117889 0.41406,1.464844 v 31.349609 c 0,0.822556 -0.64278,1.466797 -1.45703,1.466797 h -36.09375 c -0.81435,0 -1.45703,-0.644183 -1.45703,-1.466797 V 9.4708031 c 0,-0.8225555 0.64277,-1.4667967 1.45703,-1.4667969 z m 2.47071,0.9238281 c 0.38082,0.2545633 0.76637,0.4323997 1.12695,0.8886719 l 0.0176,0.021484 12.62695,12.7343749 c 0.37192,0.371984 0.57528,0.75943 0.82813,1.144532 h -13.16602 c -0.0687,0 -0.13319,-0.01063 -0.19922,-0.01953 -0.70854,-0.123274 -1.23436,-0.730184 -1.23437,-1.478515 z M 150.4973,28.627053 a 9.2862318,3.4823376 0 0 0 -9.28711,3.482422 v 11.607422 a 9.2862318,3.4823376 0 0 0 9.28711,3.482422 9.2862318,3.4823376 0 0 0 9.28711,-3.482422 V 32.109475 a 9.2862318,3.4823376 0 0 0 -9.28711,-3.482422 z m 0,1.160156 a 8.1254528,2.321558 0 0 1 8.125,2.322266 8.1254528,2.321558 0 0 1 -8.125,2.322266 8.1254528,2.321558 0 0 1 -8.125,-2.322266 8.1254528,2.321558 0 0 1 8.125,-2.322266 z m 8.125,4 v 4.125 a 8.1254528,2.321558 0 0 1 -8.125,2.322266 8.1254528,2.321558 0 0 1 -8.125,-2.322266 v -4.11914 a 9.2862318,3.4823376 0 0 0 8.125,1.798828 9.2862318,3.4823376 0 0 0 8.125,-1.804688 z m 0,5.802735 v 4.126953 a 8.1254528,2.321558 0 0 1 -8.125,2.322266 8.1254528,2.321558 0 0 1 -8.125,-2.322266 v -4.119141 a 9.2862318,3.4823376 0 0 0 8.125,1.796875 9.2862318,3.4823376 0 0 0 8.125,-1.804687 z m -13.4668,10.103515 c -0.67187,0 -1.1888,0.127605 -1.55078,0.382813 -0.35937,0.255208 -0.53906,0.618489 -0.53906,1.089844 0,0.205729 0.0339,0.38802 0.10156,0.546875 0.0703,0.158854 0.17057,0.298177 0.30078,0.417968 0.13021,0.117188 0.30729,0.223959 0.53125,0.320313 0.22657,0.09635 0.55729,0.192708 0.99219,0.289062 0.25,0.05729 0.47787,0.110677 0.68359,0.160157 0.20573,0.04948 0.38282,0.110677 0.53125,0.183593 0.14844,0.07292 0.26303,0.165365 0.34375,0.277344 0.0833,0.111979 0.125,0.257813 0.125,0.4375 0,0.320313 -0.13151,0.563802 -0.39453,0.730469 -0.26041,0.164062 -0.63151,0.246094 -1.11328,0.246094 -0.46614,0 -0.83463,-0.07682 -1.10547,-0.230469 -0.27083,-0.15625 -0.44791,-0.39974 -0.53125,-0.730469 l -0.72265,0.144531 c 0.21354,0.932292 0.99088,1.398438 2.33203,1.398438 0.72135,0 1.27995,-0.139323 1.67578,-0.417969 0.39844,-0.278646 0.59766,-0.671875 0.59766,-1.179687 0,-0.200521 -0.0286,-0.375 -0.0859,-0.523438 -0.0547,-0.148437 -0.13151,-0.277344 -0.23047,-0.386719 -0.099,-0.109375 -0.21615,-0.201823 -0.35156,-0.277343 -0.13282,-0.07552 -0.27604,-0.140625 -0.42969,-0.195313 -0.15365,-0.05729 -0.3151,-0.105469 -0.48438,-0.144531 -0.16666,-0.04167 -0.33463,-0.08203 -0.5039,-0.121094 -0.50521,-0.111979 -0.84245,-0.205729 -1.01172,-0.28125 -0.16927,-0.07813 -0.29948,-0.171875 -0.39063,-0.28125 -0.0885,-0.111979 -0.13281,-0.252604 -0.13281,-0.421875 0,-0.289062 0.11589,-0.50651 0.34766,-0.652344 0.23177,-0.145833 0.56771,-0.21875 1.00781,-0.21875 0.40104,0 0.71484,0.06641 0.94141,0.199219 0.22656,0.130208 0.38021,0.341146 0.46093,0.632813 l 0.73438,-0.128907 c -0.13281,-0.460937 -0.36458,-0.786458 -0.69531,-0.976562 -0.33073,-0.192708 -0.8086,-0.289063 -1.4336,-0.289063 z m 5.73828,0 c -0.85937,0 -1.52994,0.248698 -2.01171,0.746094 -0.48178,0.494792 -0.72266,1.182292 -0.72266,2.0625 0,0.554688 0.0977,1.042969 0.29297,1.464844 0.19791,0.419271 0.48307,0.747396 0.85547,0.984375 0.375,0.234375 0.82031,0.364583 1.33593,0.390625 0.16146,0.520833 0.36849,0.891927 0.6211,1.113281 0.25521,0.223958 0.57943,0.335938 0.97265,0.335938 0.22136,0 0.45313,-0.02865 0.69532,-0.08594 v -0.523437 c -0.15625,0.03385 -0.30599,0.05078 -0.44922,0.05078 -0.26563,0 -0.48568,-0.07292 -0.66016,-0.21875 -0.17187,-0.145833 -0.3112,-0.382813 -0.41797,-0.710938 0.69532,-0.09114 1.23828,-0.386718 1.62891,-0.886718 0.39062,-0.5 0.58594,-1.138021 0.58594,-1.914063 0,-0.578125 -0.10938,-1.079427 -0.32813,-1.503906 -0.21614,-0.424479 -0.52995,-0.747396 -0.9414,-0.96875 -0.41146,-0.223958 -0.89714,-0.335938 -1.45704,-0.335938 z m 3.76563,0.08203 v 5.503906 h 3.52734 V 54.67002 h -2.78125 v -4.894531 z m -3.76563,0.527343 c 0.625,0 1.10808,0.195313 1.44922,0.585938 0.34375,0.390625 0.51563,0.928385 0.51563,1.613281 0,0.716146 -0.17057,1.270833 -0.51172,1.664063 -0.33854,0.390625 -0.82552,0.585937 -1.46094,0.585937 -0.61719,0 -1.10026,-0.201823 -1.44922,-0.605469 -0.34635,-0.40625 -0.51953,-0.954427 -0.51953,-1.644531 0,-0.695312 0.17188,-1.235677 0.51563,-1.621094 0.34375,-0.385416 0.83073,-0.578125 1.46093,-0.578125 z"
       transform="translate(-118.4973,-1.0001)" />
    <path
       id="path3"
       style="fill:url(#linearGradient4);fill-opacity:1;stroke:none"
       d="m 151.80394,7.0001 -0.004,0.00195 -19.35351,0.00391 c -1.35355,0 -2.45703,1.1084593 -2.45703,2.4648437 V 57.533303 c 0,1.356386 1.10343,2.466797 2.45703,2.466797 h 36.09375 c 1.35354,0 2.45703,-1.110412 2.45703,-2.466797 V 26.183694 c 0,-0.440775 -0.10327,-0.93784 -0.29297,-1.464844 h 0.0606 l -0.35547,-0.722656 c -0.0256,-0.05172 -0.0587,-0.104197 -0.0859,-0.15625 l -0.0605,-0.125 h -0.008 c -0.33862,-0.618179 -0.7885,-1.252822 -1.38476,-1.84961 l -0.002,-0.002 L 156.26488,9.1524437 C 155.67159,8.4151755 155.0115,7.918962 154.36644,7.59385 154.28114,7.550863 154.19507,7.50998 154.11058,7.4727562 l -0.0859,-0.037109 -0.0312,-0.00195 C 153.20882,7.1007523 152.46804,7.0001 151.90941,7.0001 Z m 0.11523,1.0019531 c 0.37972,7.572e-4 0.91296,0.1248404 1.44727,0.3105469 v 13.935547 c 0,1.22231 0.89866,2.235584 2.06641,2.425781 0.12731,0.02382 0.25744,0.03746 0.39062,0.04102 0.0224,5.98e-4 0.0439,0.0039 0.0664,0.0039 h 13.69336 c 0.23563,0.562366 0.41406,1.117889 0.41406,1.464844 v 31.349609 c 0,0.822556 -0.64278,1.466797 -1.45703,1.466797 h -36.09375 c -0.81435,0 -1.45703,-0.644183 -1.45703,-1.466797 V 9.4708031 c 0,-0.8225555 0.64277,-1.4667967 1.45703,-1.4667969 z m 2.47071,0.9238281 c 0.38082,0.2545633 0.76637,0.4323997 1.12695,0.8886719 l 0.0176,0.021484 12.62695,12.7343749 c 0.37192,0.371984 0.57528,0.75943 0.82813,1.144532 h -13.16602 c -0.0687,0 -0.13319,-0.01063 -0.19922,-0.01953 -0.70854,-0.123274 -1.23436,-0.730184 -1.23437,-1.478515 z M 150.4973,28.627053 a 9.2862318,3.4823376 0 0 0 -9.28711,3.482422 v 11.607422 a 9.2862318,3.4823376 0 0 0 9.28711,3.482422 9.2862318,3.4823376 0 0 0 9.28711,-3.482422 V 32.109475 a 9.2862318,3.4823376 0 0 0 -9.28711,-3.482422 z m 0,1.160156 a 8.1254528,2.321558 0 0 1 8.125,2.322266 8.1254528,2.321558 0 0 1 -8.125,2.322266 8.1254528,2.321558 0 0 1 -8.125,-2.322266 8.1254528,2.321558 0 0 1 8.125,-2.322266 z m 8.125,4 v 4.125 a 8.1254528,2.321558 0 0 1 -8.125,2.322266 8.1254528,2.321558 0 0 1 -8.125,-2.322266 v -4.11914 a 9.2862318,3.4823376 0 0 0 8.125,1.798828 9.2862318,3.4823376 0 0 0 8.125,-1.804688 z m 0,5.802735 v 4.126953 a 8.1254528,2.321558 0 0 1 -8.125,2.322266 8.1254528,2.321558 0 0 1 -8.125,-2.322266 v -4.119141 a 9.2862318,3.4823376 0 0 0 8.125,1.796875 9.2862318,3.4823376 0 0 0 8.125,-1.804687 z m -13.4668,10.103515 c -0.67187,0 -1.1888,0.127605 -1.55078,0.382813 -0.35937,0.255208 -0.53906,0.618489 -0.53906,1.089844 0,0.205729 0.0339,0.38802 0.10156,0.546875 0.0703,0.158854 0.17057,0.298177 0.30078,0.417968 0.13021,0.117188 0.30729,0.223959 0.53125,0.320313 0.22657,0.09635 0.55729,0.192708 0.99219,0.289062 0.25,0.05729 0.47787,0.110677 0.68359,0.160157 0.20573,0.04948 0.38282,0.110677 0.53125,0.183593 0.14844,0.07292 0.26303,0.165365 0.34375,0.277344 0.0833,0.111979 0.125,0.257813 0.125,0.4375 0,0.320313 -0.13151,0.563802 -0.39453,0.730469 -0.26041,0.164062 -0.63151,0.246094 -1.11328,0.246094 -0.46614,0 -0.83463,-0.07682 -1.10547,-0.230469 -0.27083,-0.15625 -0.44791,-0.39974 -0.53125,-0.730469 l -0.72265,0.144531 c 0.21354,0.932292 0.99088,1.398438 2.33203,1.398438 0.72135,0 1.27995,-0.139323 1.67578,-0.417969 0.39844,-0.278646 0.59766,-0.671875 0.59766,-1.179687 0,-0.200521 -0.0286,-0.375 -0.0859,-0.523438 -0.0547,-0.148437 -0.13151,-0.277344 -0.23047,-0.386719 -0.099,-0.109375 -0.21615,-0.201823 -0.35156,-0.277343 -0.13282,-0.07552 -0.27604,-0.140625 -0.42969,-0.195313 -0.15365,-0.05729 -0.3151,-0.105469 -0.48438,-0.144531 -0.16666,-0.04167 -0.33463,-0.08203 -0.5039,-0.121094 -0.50521,-0.111979 -0.84245,-0.205729 -1.01172,-0.28125 -0.16927,-0.07813 -0.29948,-0.171875 -0.39063,-0.28125 -0.0885,-0.111979 -0.13281,-0.252604 -0.13281,-0.421875 0,-0.289062 0.11589,-0.50651 0.34766,-0.652344 0.23177,-0.145833 0.56771,-0.21875 1.00781,-0.21875 0.40104,0 0.71484,0.06641 0.94141,0.199219 0.22656,0.130208 0.38021,0.341146 0.46093,0.632813 l 0.73438,-0.128907 c -0.13281,-0.460937 -0.36458,-0.786458 -0.69531,-0.976562 -0.33073,-0.192708 -0.8086,-0.289063 -1.4336,-0.289063 z m 5.73828,0 c -0.85937,0 -1.52994,0.248698 -2.01171,0.746094 -0.48178,0.494792 -0.72266,1.182292 -0.72266,2.0625 0,0.554688 0.0977,1.042969 0.29297,1.464844 0.19791,0.419271 0.48307,0.747396 0.85547,0.984375 0.375,0.234375 0.82031,0.364583 1.33593,0.390625 0.16146,0.520833 0.36849,0.891927 0.6211,1.113281 0.25521,0.223958 0.57943,0.335938 0.97265,0.335938 0.22136,0 0.45313,-0.02865 0.69532,-0.08594 v -0.523437 c -0.15625,0.03385 -0.30599,0.05078 -0.44922,0.05078 -0.26563,0 -0.48568,-0.07292 -0.66016,-0.21875 -0.17187,-0.145833 -0.3112,-0.382813 -0.41797,-0.710938 0.69532,-0.09114 1.23828,-0.386718 1.62891,-0.886718 0.39062,-0.5 0.58594,-1.138021 0.58594,-1.914063 0,-0.578125 -0.10938,-1.079427 -0.32813,-1.503906 -0.21614,-0.424479 -0.52995,-0.747396 -0.9414,-0.96875 -0.41146,-0.223958 -0.89714,-0.335938 -1.45704,-0.335938 z m 3.76563,0.08203 v 5.503906 h 3.52734 V 54.67002 h -2.78125 v -4.894531 z m -3.76563,0.527343 c 0.625,0 1.10808,0.195313 1.44922,0.585938 0.34375,0.390625 0.51563,0.928385 0.51563,1.613281 0,0.716146 -0.17057,1.270833 -0.51172,1.664063 -0.33854,0.390625 -0.82552,0.585937 -1.46094,0.585937 -0.61719,0 -1.10026,-0.201823 -1.44922,-0.605469 -0.34635,-0.40625 -0.51953,-0.954427 -0.51953,-1.644531 0,-0.695312 0.17188,-1.235677 0.51563,-1.621094 0.34375,-0.385416 0.83073,-0.578125 1.46093,-0.578125 z"
       transform="translate(-118.4973,-1.0001)" />
  </g>
</svg>
