<?xml version="1.0" encoding="UTF-8" standalone="no"?>
<svg
   width="43.546024"
   height="55.538212"
   version="1.1"
   viewBox="0 0 43.546024 55.538212"
   id="svg3"
   xmlns:xlink="http://www.w3.org/1999/xlink"
   xmlns="http://www.w3.org/2000/svg"
   xmlns:svg="http://www.w3.org/2000/svg">
  <defs
     id="defs3">
    <linearGradient
       id="linearGradient6">
      <stop
         style="stop-color:#039bfc;stop-opacity:0;"
         offset="0"
         id="stop7" />
      <stop
         style="stop-color:#039bfc;stop-opacity:1;"
         offset="1"
         id="stop6" />
    </linearGradient>
    <linearGradient
       xlink:href="#linearGradient6"
       id="linearGradient7"
       x1="150.26541"
       y1="65.000099"
       x2="150.26541"
       y2="24.072563"
       gradientUnits="userSpaceOnUse" />
    <filter
       style="color-interpolation-filters:sRGB"
       id="filter7"
       x="-0.030947896"
       y="-0.023945386"
       width="1.0618958"
       height="1.0478908">
      <feGaussianBlur
         stdDeviation="0.52879393"
         id="feGaussianBlur7" />
    </filter>
  </defs>
  <g
     id="g7"
     transform="translate(-10.222995,-4.7308946)">
    <path
       id="path1"
       style="display:inline;opacity:0.6;fill:#039bfc;filter:url(#filter7)"
       d="m 151.80394,7.0001 -0.004,0.00195 -19.35351,0.00391 c -1.35355,0 -2.45703,1.1084593 -2.45703,2.4648437 V 57.533303 c 0,1.356386 1.10343,2.466797 2.45703,2.466797 h 36.09375 c 1.35354,0 2.45703,-1.110412 2.45703,-2.466797 V 26.183694 c 0,-0.440775 -0.10327,-0.93784 -0.29297,-1.464844 h 0.0606 l -0.35547,-0.722656 c -0.0256,-0.05172 -0.0587,-0.104197 -0.0859,-0.15625 l -0.0605,-0.125 h -0.008 c -0.33862,-0.618179 -0.7885,-1.252822 -1.38476,-1.84961 l -0.002,-0.002 L 156.26488,9.1524437 C 155.67159,8.4151755 155.0115,7.918962 154.36644,7.59385 154.28114,7.550863 154.19507,7.50998 154.11058,7.4727562 l -0.0859,-0.037109 -0.0312,-0.00195 C 153.20882,7.1007523 152.46804,7.0001 151.90941,7.0001 Z m 0.11523,1.0019531 c 0.37972,7.572e-4 0.91296,0.1248404 1.44727,0.3105469 v 13.935547 c 0,1.22231 0.89866,2.235584 2.06641,2.425781 0.12731,0.02382 0.25744,0.03746 0.39062,0.04102 0.0224,5.98e-4 0.0439,0.0039 0.0664,0.0039 h 13.69336 c 0.23563,0.562366 0.41406,1.117889 0.41406,1.464844 v 31.349609 c 0,0.822556 -0.64278,1.466797 -1.45703,1.466797 h -36.09375 c -0.81435,0 -1.45703,-0.644183 -1.45703,-1.466797 V 9.4708031 c 0,-0.8225555 0.64277,-1.4667967 1.45703,-1.4667969 z m 2.47071,0.9238281 c 0.38082,0.2545633 0.76637,0.4323997 1.12695,0.8886719 l 0.0176,0.021484 12.62695,12.7343749 c 0.37192,0.371984 0.57528,0.75943 0.82813,1.144532 h -13.16602 c -0.0687,0 -0.13319,-0.01063 -0.19922,-0.01953 -0.70854,-0.123274 -1.23436,-0.730184 -1.23437,-1.478515 z M 143.95433,29.396584 c -0.46626,0.01017 -0.93995,0.06199 -1.41797,0.148438 -2.33926,0.427169 -4.25107,1.627784 -5.69531,3.519531 -1.34253,1.749359 -1.99491,3.741775 -1.73047,5.958985 0.22376,1.871405 1.07872,3.376508 2.58399,4.515625 1.6273,1.220482 3.47724,1.608187 5.4707,1.34375 2.42062,-0.325462 4.33425,-1.524602 5.79883,-3.457032 0.33846,-0.446159 0.62652,-0.917701 0.86718,-1.408203 0.35001,1.23989 1.04585,2.307112 2.05079,3.175781 1.44118,1.235393 3.1478,1.769368 5.02148,1.810547 0.53532,-0.06177 1.09251,-0.08064 1.64844,-0.183593 1.91473,-0.391165 3.58443,-1.257208 4.94336,-2.636719 1.91475,-1.935481 2.71722,-4.200822 2.36718,-6.980469 -0.26769,-1.976572 -1.2777,-3.479938 -2.90429,-4.591797 -1.79126,-1.214801 -3.76694,-1.419447 -5.86719,-1.048828 -2.45012,0.432458 -4.26256,1.460867 -5.76563,3.4375 -0.66952,0.876326 -1.16098,1.806631 -1.45507,2.791016 h -6.52149 c -0.30512,0 -0.44679,0.20217 -0.50781,0.324218 -0.28478,0.528875 -0.77267,1.586215 -1.03711,2.216797 -0.14239,0.345803 -0.0405,0.611328 0.38672,0.611328 h 3.92578 c -0.20341,0.284779 -0.36575,0.526245 -0.54883,0.75 -0.91536,1.03741 -2.07577,1.526823 -3.45898,1.34375 -1.60697,-0.223754 -2.72575,-1.56605 -2.7461,-3.193359 -0.0203,-1.647651 0.69101,-2.970213 2.07422,-3.865234 1.15946,-0.752631 2.40014,-0.935271 3.68164,-0.304688 0.42717,0.203413 0.65191,0.427635 0.95703,0.773438 0.26444,0.30512 0.28473,0.28449 0.58985,0.203125 1.26116,-0.325462 2.13646,-0.569071 3.41797,-0.894532 0.24409,-0.06102 0.32517,-0.164583 0.20312,-0.347656 -0.50853,-1.179799 -1.28128,-2.155239 -2.35937,-2.867187 -1.23574,-0.839082 -2.57387,-1.175044 -3.97266,-1.144532 z m 14.31641,3.775391 c 1.67407,-0.05492 3.15031,1.052329 3.47461,2.835938 0.0412,0.205895 0.04,0.412015 0.0605,0.679687 -0.10292,1.770716 -0.98863,3.087455 -2.61523,3.931641 -1.09132,0.555936 -2.22498,0.619152 -3.35742,0.125 -1.48248,-0.658857 -2.2632,-2.288519 -1.89258,-3.894532 0.453,-1.935541 1.68671,-3.147682 3.60156,-3.580078 0.2445,-0.05662 0.48936,-0.08981 0.72852,-0.09766 z m 0.58008,16.386719 c -0.86719,0 -1.54037,0.244791 -2.01954,0.734375 -0.47916,0.489583 -0.71875,1.180989 -0.71875,2.074219 0,0.583333 0.10938,1.091145 0.32813,1.523437 0.22135,0.429687 0.54036,0.759115 0.95703,0.988281 0.41667,0.229167 0.91276,0.34375 1.48828,0.34375 0.49479,0 0.95313,-0.08073 1.375,-0.242187 0.42448,-0.164062 0.78255,-0.394531 1.07422,-0.691406 v -1.898438 h -2.33203 v 0.625 h 1.64453 v 0.992188 c -0.19271,0.1875 -0.44531,0.335937 -0.75781,0.445312 -0.3099,0.109375 -0.64453,0.164063 -1.00391,0.164063 -0.63021,0 -1.1237,-0.200522 -1.48047,-0.601563 -0.35677,-0.403646 -0.53515,-0.953125 -0.53515,-1.648437 0,-0.697917 0.16797,-1.238282 0.5039,-1.621094 0.33594,-0.385417 0.82162,-0.578125 1.45703,-0.578125 0.40886,0 0.75,0.07161 1.02344,0.214844 0.27604,0.143229 0.49219,0.371093 0.64844,0.683593 l 0.71094,-0.210937 c -0.20573,-0.453125 -0.4987,-0.782552 -0.87891,-0.988281 -0.38021,-0.20573 -0.875,-0.308594 -1.48437,-0.308594 z m 6.19531,0 c -0.85938,0 -1.52995,0.248698 -2.01172,0.746094 -0.48177,0.494792 -0.72266,1.182292 -0.72266,2.0625 0,0.578125 0.10808,1.084635 0.32422,1.519531 0.21615,0.432292 0.52865,0.763021 0.9375,0.992187 0.41146,0.229167 0.89974,0.34375 1.46485,0.34375 0.55989,0 1.04557,-0.115885 1.45703,-0.347656 0.41145,-0.231771 0.72656,-0.563802 0.94531,-0.996094 0.22135,-0.432292 0.33203,-0.936198 0.33203,-1.511718 0,-0.578125 -0.10937,-1.079427 -0.32812,-1.503907 -0.21615,-0.424479 -0.52995,-0.747396 -0.94141,-0.96875 -0.41146,-0.223958 -0.89714,-0.335937 -1.45703,-0.335937 z m -31.82422,0.08203 V 50.2501 h 1.89062 v 4.894531 h 0.74219 V 50.2501 h 1.89063 v -0.609375 z m 5.36328,0 v 5.503906 h 4.33594 v -0.609375 h -3.58985 v -1.917968 h 3.19532 v -0.601563 h -3.19532 V 50.2501 h 3.42969 v -0.609375 z m 5.01953,0 1.9336,2.644531 -2.09375,2.859375 h 0.82421 l 1.6875,-2.40625 1.65235,2.40625 h 0.82422 l -2.04297,-2.886718 1.88281,-2.617188 h -0.82422 l -1.48828,2.160156 -1.53125,-2.160156 z m 5.17578,0 V 50.2501 h 1.89063 v 4.894531 h 0.74219 V 50.2501 h 1.89062 v -0.609375 z m 16.26563,0.527344 c 0.625,0 1.10807,0.195312 1.44922,0.585937 0.34375,0.390625 0.51562,0.928386 0.51562,1.613282 0,0.716146 -0.17057,1.270833 -0.51172,1.664062 -0.33854,0.390625 -0.82552,0.585938 -1.46093,0.585938 -0.61719,-10e-7 -1.10027,-0.201823 -1.44922,-0.605469 -0.34636,-0.40625 -0.51953,-0.954427 -0.51953,-1.644531 0,-0.695313 0.17187,-1.235678 0.51562,-1.621094 0.34375,-0.385417 0.83073,-0.578125 1.46094,-0.578125 z M 153.4016,52.70713 v 0.625 h 1.95312 v -0.625 z"
       transform="translate(-118.4973,-1.0001)" />
    <path
       id="path6"
       style="fill:url(#linearGradient7);fill-opacity:1"
       d="m 151.80394,7.0001 -0.004,0.00195 -19.35351,0.00391 c -1.35355,0 -2.45703,1.1084593 -2.45703,2.4648437 V 57.533303 c 0,1.356386 1.10343,2.466797 2.45703,2.466797 h 36.09375 c 1.35354,0 2.45703,-1.110412 2.45703,-2.466797 V 26.183694 c 0,-0.440775 -0.10327,-0.93784 -0.29297,-1.464844 h 0.0606 l -0.35547,-0.722656 c -0.0256,-0.05172 -0.0587,-0.104197 -0.0859,-0.15625 l -0.0605,-0.125 h -0.008 c -0.33862,-0.618179 -0.7885,-1.252822 -1.38476,-1.84961 l -0.002,-0.002 L 156.26488,9.1524437 C 155.67159,8.4151755 155.0115,7.918962 154.36644,7.59385 154.28114,7.550863 154.19507,7.50998 154.11058,7.4727562 l -0.0859,-0.037109 -0.0312,-0.00195 C 153.20882,7.1007523 152.46804,7.0001 151.90941,7.0001 Z m 0.11523,1.0019531 c 0.37972,7.572e-4 0.91296,0.1248404 1.44727,0.3105469 v 13.935547 c 0,1.22231 0.89866,2.235584 2.06641,2.425781 0.12731,0.02382 0.25744,0.03746 0.39062,0.04102 0.0224,5.98e-4 0.0439,0.0039 0.0664,0.0039 h 13.69336 c 0.23563,0.562366 0.41406,1.117889 0.41406,1.464844 v 31.349609 c 0,0.822556 -0.64278,1.466797 -1.45703,1.466797 h -36.09375 c -0.81435,0 -1.45703,-0.644183 -1.45703,-1.466797 V 9.4708031 c 0,-0.8225555 0.64277,-1.4667967 1.45703,-1.4667969 z m 2.47071,0.9238281 c 0.38082,0.2545633 0.76637,0.4323997 1.12695,0.8886719 l 0.0176,0.021484 12.62695,12.7343749 c 0.37192,0.371984 0.57528,0.75943 0.82813,1.144532 h -13.16602 c -0.0687,0 -0.13319,-0.01063 -0.19922,-0.01953 -0.70854,-0.123274 -1.23436,-0.730184 -1.23437,-1.478515 z M 143.95433,29.396584 c -0.46626,0.01017 -0.93995,0.06199 -1.41797,0.148438 -2.33926,0.427169 -4.25107,1.627784 -5.69531,3.519531 -1.34253,1.749359 -1.99491,3.741775 -1.73047,5.958985 0.22376,1.871405 1.07872,3.376508 2.58399,4.515625 1.6273,1.220482 3.47724,1.608187 5.4707,1.34375 2.42062,-0.325462 4.33425,-1.524602 5.79883,-3.457032 0.33846,-0.446159 0.62652,-0.917701 0.86718,-1.408203 0.35001,1.23989 1.04585,2.307112 2.05079,3.175781 1.44118,1.235393 3.1478,1.769368 5.02148,1.810547 0.53532,-0.06177 1.09251,-0.08064 1.64844,-0.183593 1.91473,-0.391165 3.58443,-1.257208 4.94336,-2.636719 1.91475,-1.935481 2.71722,-4.200822 2.36718,-6.980469 -0.26769,-1.976572 -1.2777,-3.479938 -2.90429,-4.591797 -1.79126,-1.214801 -3.76694,-1.419447 -5.86719,-1.048828 -2.45012,0.432458 -4.26256,1.460867 -5.76563,3.4375 -0.66952,0.876326 -1.16098,1.806631 -1.45507,2.791016 h -6.52149 c -0.30512,0 -0.44679,0.20217 -0.50781,0.324218 -0.28478,0.528875 -0.77267,1.586215 -1.03711,2.216797 -0.14239,0.345803 -0.0405,0.611328 0.38672,0.611328 h 3.92578 c -0.20341,0.284779 -0.36575,0.526245 -0.54883,0.75 -0.91536,1.03741 -2.07577,1.526823 -3.45898,1.34375 -1.60697,-0.223754 -2.72575,-1.56605 -2.7461,-3.193359 -0.0203,-1.647651 0.69101,-2.970213 2.07422,-3.865234 1.15946,-0.752631 2.40014,-0.935271 3.68164,-0.304688 0.42717,0.203413 0.65191,0.427635 0.95703,0.773438 0.26444,0.30512 0.28473,0.28449 0.58985,0.203125 1.26116,-0.325462 2.13646,-0.569071 3.41797,-0.894532 0.24409,-0.06102 0.32517,-0.164583 0.20312,-0.347656 -0.50853,-1.179799 -1.28128,-2.155239 -2.35937,-2.867187 -1.23574,-0.839082 -2.57387,-1.175044 -3.97266,-1.144532 z m 14.31641,3.775391 c 1.67407,-0.05492 3.15031,1.052329 3.47461,2.835938 0.0412,0.205895 0.04,0.412015 0.0605,0.679687 -0.10292,1.770716 -0.98863,3.087455 -2.61523,3.931641 -1.09132,0.555936 -2.22498,0.619152 -3.35742,0.125 -1.48248,-0.658857 -2.2632,-2.288519 -1.89258,-3.894532 0.453,-1.935541 1.68671,-3.147682 3.60156,-3.580078 0.2445,-0.05662 0.48936,-0.08981 0.72852,-0.09766 z m 0.58008,16.386719 c -0.86719,0 -1.54037,0.244791 -2.01954,0.734375 -0.47916,0.489583 -0.71875,1.180989 -0.71875,2.074219 0,0.583333 0.10938,1.091145 0.32813,1.523437 0.22135,0.429687 0.54036,0.759115 0.95703,0.988281 0.41667,0.229167 0.91276,0.34375 1.48828,0.34375 0.49479,0 0.95313,-0.08073 1.375,-0.242187 0.42448,-0.164062 0.78255,-0.394531 1.07422,-0.691406 v -1.898438 h -2.33203 v 0.625 h 1.64453 v 0.992188 c -0.19271,0.1875 -0.44531,0.335937 -0.75781,0.445312 -0.3099,0.109375 -0.64453,0.164063 -1.00391,0.164063 -0.63021,0 -1.1237,-0.200522 -1.48047,-0.601563 -0.35677,-0.403646 -0.53515,-0.953125 -0.53515,-1.648437 0,-0.697917 0.16797,-1.238282 0.5039,-1.621094 0.33594,-0.385417 0.82162,-0.578125 1.45703,-0.578125 0.40886,0 0.75,0.07161 1.02344,0.214844 0.27604,0.143229 0.49219,0.371093 0.64844,0.683593 l 0.71094,-0.210937 c -0.20573,-0.453125 -0.4987,-0.782552 -0.87891,-0.988281 -0.38021,-0.20573 -0.875,-0.308594 -1.48437,-0.308594 z m 6.19531,0 c -0.85938,0 -1.52995,0.248698 -2.01172,0.746094 -0.48177,0.494792 -0.72266,1.182292 -0.72266,2.0625 0,0.578125 0.10808,1.084635 0.32422,1.519531 0.21615,0.432292 0.52865,0.763021 0.9375,0.992187 0.41146,0.229167 0.89974,0.34375 1.46485,0.34375 0.55989,0 1.04557,-0.115885 1.45703,-0.347656 0.41145,-0.231771 0.72656,-0.563802 0.94531,-0.996094 0.22135,-0.432292 0.33203,-0.936198 0.33203,-1.511718 0,-0.578125 -0.10937,-1.079427 -0.32812,-1.503907 -0.21615,-0.424479 -0.52995,-0.747396 -0.94141,-0.96875 -0.41146,-0.223958 -0.89714,-0.335937 -1.45703,-0.335937 z m -31.82422,0.08203 V 50.2501 h 1.89062 v 4.894531 h 0.74219 V 50.2501 h 1.89063 v -0.609375 z m 5.36328,0 v 5.503906 h 4.33594 v -0.609375 h -3.58985 v -1.917968 h 3.19532 v -0.601563 h -3.19532 V 50.2501 h 3.42969 v -0.609375 z m 5.01953,0 1.9336,2.644531 -2.09375,2.859375 h 0.82421 l 1.6875,-2.40625 1.65235,2.40625 h 0.82422 l -2.04297,-2.886718 1.88281,-2.617188 h -0.82422 l -1.48828,2.160156 -1.53125,-2.160156 z m 5.17578,0 V 50.2501 h 1.89063 v 4.894531 h 0.74219 V 50.2501 h 1.89062 v -0.609375 z m 16.26563,0.527344 c 0.625,0 1.10807,0.195312 1.44922,0.585937 0.34375,0.390625 0.51562,0.928386 0.51562,1.613282 0,0.716146 -0.17057,1.270833 -0.51172,1.664062 -0.33854,0.390625 -0.82552,0.585938 -1.46093,0.585938 -0.61719,-10e-7 -1.10027,-0.201823 -1.44922,-0.605469 -0.34636,-0.40625 -0.51953,-0.954427 -0.51953,-1.644531 0,-0.695313 0.17187,-1.235678 0.51562,-1.621094 0.34375,-0.385417 0.83073,-0.578125 1.46094,-0.578125 z M 153.4016,52.70713 v 0.625 h 1.95312 v -0.625 z"
       transform="translate(-118.4973,-1.0001)" />
  </g>
</svg>
