<?xml version="1.0" encoding="UTF-8" standalone="no"?>
<svg
   width="43.546024"
   height="55.538212"
   version="1.1"
   viewBox="0 0 43.546024 55.538212"
   id="svg3"
   xmlns:xlink="http://www.w3.org/1999/xlink"
   xmlns="http://www.w3.org/2000/svg"
   xmlns:svg="http://www.w3.org/2000/svg">
  <defs
     id="defs3">
    <linearGradient
       id="linearGradient8">
      <stop
         style="stop-color:#039bfc;stop-opacity:0;"
         offset="0"
         id="stop9" />
      <stop
         style="stop-color:#039bfc;stop-opacity:1;"
         offset="1"
         id="stop8" />
    </linearGradient>
    <linearGradient
       xlink:href="#linearGradient8"
       id="linearGradient9"
       x1="148.75816"
       y1="65.000099"
       x2="148.75816"
       y2="28.752052"
       gradientUnits="userSpaceOnUse" />
    <filter
       style="color-interpolation-filters:sRGB"
       id="filter9"
       x="-0.030947896"
       y="-0.023945386"
       width="1.0618958"
       height="1.0478908">
      <feGaussianBlur
         stdDeviation="0.52879393"
         id="feGaussianBlur9" />
    </filter>
  </defs>
  <g
     id="g9"
     transform="translate(-10.222995,-4.7308946)">
    <path
       id="path1"
       style="display:inline;opacity:0.6;fill:#039bfc;filter:url(#filter9)"
       d="m 151.80394,7.0001 -0.004,0.00195 -19.35351,0.00391 c -1.35355,0 -2.45703,1.1084593 -2.45703,2.4648437 V 57.533303 c 0,1.356386 1.10343,2.466797 2.45703,2.466797 h 36.09375 c 1.35354,0 2.45703,-1.110412 2.45703,-2.466797 V 26.183694 c 0,-0.440775 -0.10327,-0.93784 -0.29297,-1.464844 h 0.0606 l -0.35547,-0.722656 c -0.0256,-0.05172 -0.0587,-0.104197 -0.0859,-0.15625 l -0.0605,-0.125 h -0.008 c -0.33862,-0.618179 -0.7885,-1.252822 -1.38476,-1.84961 l -0.002,-0.002 L 156.26488,9.1524437 C 155.67159,8.4151755 155.0115,7.918962 154.36644,7.59385 154.28114,7.550863 154.19507,7.50998 154.11058,7.4727562 l -0.0859,-0.037109 -0.0312,-0.00195 C 153.20882,7.1007523 152.46804,7.0001 151.90941,7.0001 Z m 0.11523,1.0019531 c 0.37972,7.572e-4 0.91296,0.1248404 1.44727,0.3105469 v 13.935547 c 0,1.22231 0.89866,2.235584 2.06641,2.425781 0.12731,0.02382 0.25744,0.03746 0.39062,0.04102 0.0224,5.98e-4 0.0439,0.0039 0.0664,0.0039 h 13.69336 c 0.23563,0.562366 0.41406,1.117889 0.41406,1.464844 v 31.349609 c 0,0.822556 -0.64278,1.466797 -1.45703,1.466797 h -36.09375 c -0.81435,0 -1.45703,-0.644183 -1.45703,-1.466797 V 9.4708031 c 0,-0.8225555 0.64277,-1.4667967 1.45703,-1.4667969 z m 2.47071,0.9238281 c 0.38082,0.2545633 0.76637,0.4323997 1.12695,0.8886719 l 0.0176,0.021484 12.62695,12.7343749 c 0.37192,0.371984 0.57528,0.75943 0.82813,1.144532 h -13.16602 c -0.0687,0 -0.13319,-0.01063 -0.19922,-0.01953 -0.70854,-0.123274 -1.23436,-0.730184 -1.23437,-1.478515 z M 142.93285,28.752053 v 3.783203 h 11.35156 l -0.32813,2.523438 h -5.97851 v 3.783203 h 5.60156 l -0.55664,4.205078 -2.52344,0.921875 -2.52148,-0.880859 v -1.722657 h -3.78516 v 4.458985 l 6.30664,1.847656 6.625,-1.847656 0.9375,-17.072266 z m 3.6914,21.972656 c -0.58333,0 -1.03125,0.1875 -1.34375,0.5625 -0.3125,0.372396 -0.46875,0.914063 -0.46875,1.625 0,0.716146 0.15495,1.261719 0.46485,1.636719 0.3125,0.372396 0.76432,0.558594 1.35547,0.558594 0.44791,0 0.8177,-0.121094 1.10937,-0.363281 0.29167,-0.242188 0.46484,-0.566407 0.51953,-0.972657 l -0.71094,-0.04687 c -0.0391,0.28125 -0.14322,0.489584 -0.3125,0.625 -0.16666,0.135417 -0.375,0.203125 -0.625,0.203125 -0.35677,0 -0.62369,-0.135416 -0.80078,-0.40625 -0.17708,-0.270833 -0.26562,-0.6875 -0.26562,-1.25 0,-0.585937 0.0833,-1.002604 0.25,-1.25 0.16666,-0.247395 0.4362,-0.371093 0.80859,-0.371093 0.27344,0 0.48438,0.06901 0.63281,0.207031 0.14844,0.138021 0.24089,0.324219 0.27735,0.558594 l 0.72265,-0.05469 c -0.0729,-0.393229 -0.2526,-0.701823 -0.53906,-0.925781 -0.28385,-0.223958 -0.64193,-0.335938 -1.07422,-0.335938 z m 3.85157,0.01172 c -0.52605,0 -0.92709,0.101563 -1.20313,0.304688 -0.27344,0.20052 -0.41016,0.493489 -0.41016,0.878906 0,0.208333 0.0482,0.384114 0.14454,0.527344 0.0964,0.143229 0.22916,0.265625 0.39843,0.367187 0.17188,0.09896 0.45964,0.200521 0.86328,0.304688 l 0.50391,0.132812 c 0.25521,0.06771 0.4401,0.153646 0.55469,0.257813 0.11458,0.104166 0.17187,0.239583 0.17187,0.40625 0,0.21875 -0.0833,0.382812 -0.25,0.492187 -0.16406,0.109375 -0.42448,0.164063 -0.78125,0.164063 -0.33333,0 -0.59375,-0.05208 -0.78125,-0.15625 -0.1875,-0.106771 -0.31119,-0.273438 -0.37109,-0.5 l -0.62109,0.121093 c 0.0859,0.367188 0.27083,0.638021 0.55468,0.8125 0.28646,0.171875 0.69271,0.257813 1.21875,0.257813 0.54167,0 0.96224,-0.108073 1.26172,-0.324219 0.30209,-0.216146 0.45313,-0.523437 0.45313,-0.921875 0,-0.161458 -0.026,-0.304687 -0.0781,-0.429687 -0.0521,-0.127605 -0.1263,-0.239584 -0.22265,-0.335938 -0.0937,-0.09635 -0.22266,-0.183594 -0.38672,-0.261719 -0.16407,-0.08073 -0.43229,-0.167968 -0.80469,-0.261718 -0.39323,-0.09636 -0.65104,-0.171875 -0.77344,-0.226563 -0.12239,-0.05469 -0.21484,-0.121094 -0.27734,-0.199219 -0.0625,-0.07813 -0.0937,-0.177083 -0.0937,-0.296875 0,-0.195312 0.0755,-0.341145 0.22656,-0.4375 0.15104,-0.09635 0.38542,-0.144531 0.70313,-0.144531 0.28645,0 0.51432,0.05078 0.68359,0.152344 0.17187,0.09896 0.27734,0.242187 0.31641,0.429687 l 0.63281,-0.07813 c -0.0729,-0.361979 -0.2474,-0.625 -0.52344,-0.789062 -0.27344,-0.164063 -0.64323,-0.246094 -1.10937,-0.246094 z m 4,0 c -0.52605,0 -0.92709,0.101563 -1.20313,0.304688 -0.27344,0.20052 -0.41016,0.493489 -0.41016,0.878906 0,0.208333 0.0482,0.384114 0.14454,0.527344 0.0964,0.143229 0.22916,0.265625 0.39843,0.367187 0.17188,0.09896 0.45964,0.200521 0.86328,0.304688 l 0.50391,0.132812 c 0.25521,0.06771 0.4401,0.153646 0.55469,0.257813 0.11458,0.104166 0.17187,0.239583 0.17187,0.40625 0,0.21875 -0.0833,0.382812 -0.25,0.492187 -0.16406,0.109375 -0.42448,0.164063 -0.78125,0.164063 -0.33333,0 -0.59375,-0.05208 -0.78125,-0.15625 -0.1875,-0.106771 -0.31119,-0.273438 -0.37109,-0.5 l -0.62109,0.121093 c 0.0859,0.367188 0.27083,0.638021 0.55468,0.8125 0.28646,0.171875 0.69271,0.257813 1.21875,0.257813 0.54167,0 0.96224,-0.108073 1.26172,-0.324219 0.30209,-0.216146 0.45313,-0.523437 0.45313,-0.921875 0,-0.161458 -0.026,-0.304687 -0.0781,-0.429687 -0.0521,-0.127605 -0.1263,-0.239584 -0.22265,-0.335938 -0.0937,-0.09635 -0.22266,-0.183594 -0.38672,-0.261719 -0.16407,-0.08073 -0.43229,-0.167968 -0.80469,-0.261718 -0.39323,-0.09636 -0.65104,-0.171875 -0.77344,-0.226563 -0.12239,-0.05469 -0.21484,-0.121094 -0.27734,-0.199219 -0.0625,-0.07813 -0.0937,-0.177083 -0.0937,-0.296875 0,-0.195312 0.0755,-0.341145 0.22656,-0.4375 0.15104,-0.09635 0.38542,-0.144531 0.70313,-0.144531 0.28645,0 0.51432,0.05078 0.68359,0.152344 0.17187,0.09896 0.27734,0.242187 0.31641,0.429687 l 0.63281,-0.07813 c -0.0729,-0.361979 -0.2474,-0.625 -0.52344,-0.789062 -0.27344,-0.164063 -0.64323,-0.246094 -1.10937,-0.246094 z"
       transform="translate(-118.4973,-1.0001)" />
    <path
       id="path8"
       style="fill:url(#linearGradient9);fill-opacity:1"
       d="m 151.80394,7.0001 -0.004,0.00195 -19.35351,0.00391 c -1.35355,0 -2.45703,1.1084593 -2.45703,2.4648437 V 57.533303 c 0,1.356386 1.10343,2.466797 2.45703,2.466797 h 36.09375 c 1.35354,0 2.45703,-1.110412 2.45703,-2.466797 V 26.183694 c 0,-0.440775 -0.10327,-0.93784 -0.29297,-1.464844 h 0.0606 l -0.35547,-0.722656 c -0.0256,-0.05172 -0.0587,-0.104197 -0.0859,-0.15625 l -0.0605,-0.125 h -0.008 c -0.33862,-0.618179 -0.7885,-1.252822 -1.38476,-1.84961 l -0.002,-0.002 L 156.26488,9.1524437 C 155.67159,8.4151755 155.0115,7.918962 154.36644,7.59385 154.28114,7.550863 154.19507,7.50998 154.11058,7.4727562 l -0.0859,-0.037109 -0.0312,-0.00195 C 153.20882,7.1007523 152.46804,7.0001 151.90941,7.0001 Z m 0.11523,1.0019531 c 0.37972,7.572e-4 0.91296,0.1248404 1.44727,0.3105469 v 13.935547 c 0,1.22231 0.89866,2.235584 2.06641,2.425781 0.12731,0.02382 0.25744,0.03746 0.39062,0.04102 0.0224,5.98e-4 0.0439,0.0039 0.0664,0.0039 h 13.69336 c 0.23563,0.562366 0.41406,1.117889 0.41406,1.464844 v 31.349609 c 0,0.822556 -0.64278,1.466797 -1.45703,1.466797 h -36.09375 c -0.81435,0 -1.45703,-0.644183 -1.45703,-1.466797 V 9.4708031 c 0,-0.8225555 0.64277,-1.4667967 1.45703,-1.4667969 z m 2.47071,0.9238281 c 0.38082,0.2545633 0.76637,0.4323997 1.12695,0.8886719 l 0.0176,0.021484 12.62695,12.7343749 c 0.37192,0.371984 0.57528,0.75943 0.82813,1.144532 h -13.16602 c -0.0687,0 -0.13319,-0.01063 -0.19922,-0.01953 -0.70854,-0.123274 -1.23436,-0.730184 -1.23437,-1.478515 z M 142.93285,28.752053 v 3.783203 h 11.35156 l -0.32813,2.523438 h -5.97851 v 3.783203 h 5.60156 l -0.55664,4.205078 -2.52344,0.921875 -2.52148,-0.880859 v -1.722657 h -3.78516 v 4.458985 l 6.30664,1.847656 6.625,-1.847656 0.9375,-17.072266 z m 3.6914,21.972656 c -0.58333,0 -1.03125,0.1875 -1.34375,0.5625 -0.3125,0.372396 -0.46875,0.914063 -0.46875,1.625 0,0.716146 0.15495,1.261719 0.46485,1.636719 0.3125,0.372396 0.76432,0.558594 1.35547,0.558594 0.44791,0 0.8177,-0.121094 1.10937,-0.363281 0.29167,-0.242188 0.46484,-0.566407 0.51953,-0.972657 l -0.71094,-0.04687 c -0.0391,0.28125 -0.14322,0.489584 -0.3125,0.625 -0.16666,0.135417 -0.375,0.203125 -0.625,0.203125 -0.35677,0 -0.62369,-0.135416 -0.80078,-0.40625 -0.17708,-0.270833 -0.26562,-0.6875 -0.26562,-1.25 0,-0.585937 0.0833,-1.002604 0.25,-1.25 0.16666,-0.247395 0.4362,-0.371093 0.80859,-0.371093 0.27344,0 0.48438,0.06901 0.63281,0.207031 0.14844,0.138021 0.24089,0.324219 0.27735,0.558594 l 0.72265,-0.05469 c -0.0729,-0.393229 -0.2526,-0.701823 -0.53906,-0.925781 -0.28385,-0.223958 -0.64193,-0.335938 -1.07422,-0.335938 z m 3.85157,0.01172 c -0.52605,0 -0.92709,0.101563 -1.20313,0.304688 -0.27344,0.20052 -0.41016,0.493489 -0.41016,0.878906 0,0.208333 0.0482,0.384114 0.14454,0.527344 0.0964,0.143229 0.22916,0.265625 0.39843,0.367187 0.17188,0.09896 0.45964,0.200521 0.86328,0.304688 l 0.50391,0.132812 c 0.25521,0.06771 0.4401,0.153646 0.55469,0.257813 0.11458,0.104166 0.17187,0.239583 0.17187,0.40625 0,0.21875 -0.0833,0.382812 -0.25,0.492187 -0.16406,0.109375 -0.42448,0.164063 -0.78125,0.164063 -0.33333,0 -0.59375,-0.05208 -0.78125,-0.15625 -0.1875,-0.106771 -0.31119,-0.273438 -0.37109,-0.5 l -0.62109,0.121093 c 0.0859,0.367188 0.27083,0.638021 0.55468,0.8125 0.28646,0.171875 0.69271,0.257813 1.21875,0.257813 0.54167,0 0.96224,-0.108073 1.26172,-0.324219 0.30209,-0.216146 0.45313,-0.523437 0.45313,-0.921875 0,-0.161458 -0.026,-0.304687 -0.0781,-0.429687 -0.0521,-0.127605 -0.1263,-0.239584 -0.22265,-0.335938 -0.0937,-0.09635 -0.22266,-0.183594 -0.38672,-0.261719 -0.16407,-0.08073 -0.43229,-0.167968 -0.80469,-0.261718 -0.39323,-0.09636 -0.65104,-0.171875 -0.77344,-0.226563 -0.12239,-0.05469 -0.21484,-0.121094 -0.27734,-0.199219 -0.0625,-0.07813 -0.0937,-0.177083 -0.0937,-0.296875 0,-0.195312 0.0755,-0.341145 0.22656,-0.4375 0.15104,-0.09635 0.38542,-0.144531 0.70313,-0.144531 0.28645,0 0.51432,0.05078 0.68359,0.152344 0.17187,0.09896 0.27734,0.242187 0.31641,0.429687 l 0.63281,-0.07813 c -0.0729,-0.361979 -0.2474,-0.625 -0.52344,-0.789062 -0.27344,-0.164063 -0.64323,-0.246094 -1.10937,-0.246094 z m 4,0 c -0.52605,0 -0.92709,0.101563 -1.20313,0.304688 -0.27344,0.20052 -0.41016,0.493489 -0.41016,0.878906 0,0.208333 0.0482,0.384114 0.14454,0.527344 0.0964,0.143229 0.22916,0.265625 0.39843,0.367187 0.17188,0.09896 0.45964,0.200521 0.86328,0.304688 l 0.50391,0.132812 c 0.25521,0.06771 0.4401,0.153646 0.55469,0.257813 0.11458,0.104166 0.17187,0.239583 0.17187,0.40625 0,0.21875 -0.0833,0.382812 -0.25,0.492187 -0.16406,0.109375 -0.42448,0.164063 -0.78125,0.164063 -0.33333,0 -0.59375,-0.05208 -0.78125,-0.15625 -0.1875,-0.106771 -0.31119,-0.273438 -0.37109,-0.5 l -0.62109,0.121093 c 0.0859,0.367188 0.27083,0.638021 0.55468,0.8125 0.28646,0.171875 0.69271,0.257813 1.21875,0.257813 0.54167,0 0.96224,-0.108073 1.26172,-0.324219 0.30209,-0.216146 0.45313,-0.523437 0.45313,-0.921875 0,-0.161458 -0.026,-0.304687 -0.0781,-0.429687 -0.0521,-0.127605 -0.1263,-0.239584 -0.22265,-0.335938 -0.0937,-0.09635 -0.22266,-0.183594 -0.38672,-0.261719 -0.16407,-0.08073 -0.43229,-0.167968 -0.80469,-0.261718 -0.39323,-0.09636 -0.65104,-0.171875 -0.77344,-0.226563 -0.12239,-0.05469 -0.21484,-0.121094 -0.27734,-0.199219 -0.0625,-0.07813 -0.0937,-0.177083 -0.0937,-0.296875 0,-0.195312 0.0755,-0.341145 0.22656,-0.4375 0.15104,-0.09635 0.38542,-0.144531 0.70313,-0.144531 0.28645,0 0.51432,0.05078 0.68359,0.152344 0.17187,0.09896 0.27734,0.242187 0.31641,0.429687 l 0.63281,-0.07813 c -0.0729,-0.361979 -0.2474,-0.625 -0.52344,-0.789062 -0.27344,-0.164063 -0.64323,-0.246094 -1.10937,-0.246094 z"
       transform="translate(-118.4973,-1.0001)" />
  </g>
</svg>
