<?xml version="1.0" encoding="UTF-8" standalone="no"?>
<svg
   width="43.546024"
   height="55.538212"
   version="1.1"
   viewBox="0 0 43.546024 55.538212"
   id="svg3"
   xmlns:xlink="http://www.w3.org/1999/xlink"
   xmlns="http://www.w3.org/2000/svg"
   xmlns:svg="http://www.w3.org/2000/svg">
  <defs
     id="defs3">
    <linearGradient
       id="linearGradient3">
      <stop
         style="stop-color:#00abff;stop-opacity:0;"
         offset="0"
         id="stop4" />
      <stop
         style="stop-color:#00abff;stop-opacity:1;"
         offset="1"
         id="stop3" />
    </linearGradient>
    <linearGradient
       xlink:href="#linearGradient3"
       id="linearGradient4"
       x1="149.80165"
       y1="65.000099"
       x2="149.80165"
       y2="25.463867"
       gradientUnits="userSpaceOnUse" />
    <filter
       style="color-interpolation-filters:sRGB"
       id="filter4"
       x="-0.030947896"
       y="-0.023945386"
       width="1.0618958"
       height="1.0478908">
      <feGaussianBlur
         stdDeviation="0.52879393"
         id="feGaussianBlur4" />
    </filter>
  </defs>
  <g
     id="g4"
     transform="translate(-10.222995,-4.7308946)">
    <path
       id="path1"
       style="display:inline;opacity:0.6;fill:#00abff;fill-opacity:1;stroke:none;filter:url(#filter4)"
       d="m 151.80394,7.0001 -0.004,0.00195 -19.35351,0.00391 c -1.35355,0 -2.45703,1.1084593 -2.45703,2.4648437 V 57.533303 c 0,1.356386 1.10343,2.466797 2.45703,2.466797 h 36.09375 c 1.35354,0 2.45703,-1.110412 2.45703,-2.466797 V 26.183694 c 0,-0.440775 -0.10327,-0.93784 -0.29297,-1.464844 h 0.0606 l -0.35547,-0.722656 c -0.0256,-0.05172 -0.0587,-0.104197 -0.0859,-0.15625 l -0.0605,-0.125 h -0.008 c -0.33862,-0.618179 -0.7885,-1.252822 -1.38476,-1.84961 l -0.002,-0.002 L 156.26488,9.1524437 C 155.67159,8.4151755 155.0115,7.918962 154.36644,7.59385 154.28114,7.550863 154.19507,7.50998 154.11058,7.4727562 l -0.0859,-0.037109 -0.0312,-0.00195 C 153.20882,7.1007523 152.46804,7.0001 151.90941,7.0001 Z m 0.11523,1.0019531 c 0.37972,7.572e-4 0.91296,0.1248404 1.44727,0.3105469 v 13.935547 c 0,1.22231 0.89866,2.235584 2.06641,2.425781 0.12731,0.02382 0.25744,0.03746 0.39062,0.04102 0.0224,5.98e-4 0.0439,0.0039 0.0664,0.0039 h 13.69336 c 0.23563,0.562366 0.41406,1.117889 0.41406,1.464844 v 31.349609 c 0,0.822556 -0.64278,1.466797 -1.45703,1.466797 h -36.09375 c -0.81435,0 -1.45703,-0.644183 -1.45703,-1.466797 V 9.4708031 c 0,-0.8225555 0.64277,-1.4667967 1.45703,-1.4667969 z m 2.47071,0.9238281 c 0.38082,0.2545633 0.76637,0.4323997 1.12695,0.8886719 l 0.0176,0.021484 12.62695,12.7343749 c 0.37192,0.371984 0.57528,0.75943 0.82813,1.144532 h -13.16602 c -0.0687,0 -0.13319,-0.01063 -0.19922,-0.01953 -0.70854,-0.123274 -1.23436,-0.730184 -1.23437,-1.478515 z m -20.59766,19.1328128 -0.35351,4.273437 h 0.4707 c 0.26578,-3.056527 0.54539,-3.685547 3.41211,-3.685547 0.34171,0 0.82968,0.0011 1.01953,0.03906 0.39867,0.07593 0.43164,0.26842 0.43164,0.705078 v 10.21875 c 0,0.64548 -0.007,0.981092 -2,0.941406 h -0.78516 v 0.587891 c 0.77838,-0.05696 2.73606,-0.07813 3.60938,-0.07813 0.87331,0 2.82905,0.02119 3.60742,0.07813 v -0.587891 h -0.78516 c -1.9934,0 -1.96093,-0.295926 -1.96093,-0.941406 v -10.21875 c 0,-0.379698 -0.0273,-0.629146 0.31445,-0.705078 0.20882,-0.03795 0.73693,-0.03906 1.09766,-0.03906 2.86667,0 3.14632,0.62902 3.41211,3.685547 h 0.4707 l -0.35352,-4.273437 z m 20.45117,0 v 0.58789 h 0.39063 c 1.04415,0 1.40494,0.134415 1.76562,0.666016 l 3.49024,5.294922 -3.13672,4.587891 c -0.26578,0.379698 -0.82866,1.253906 -2.74609,1.253906 v 0.589844 l 2.11718,-0.08008 c 0.70244,0 1.74818,0.02315 2.43164,0.08008 v -0.589844 c -0.87331,-0.0189 -1.21484,-0.558677 -1.21484,-0.900391 0,-0.170838 0.0624,-0.222818 0.19531,-0.43164 l 2.70703,-4 2.98047,4.548828 c 0.038,0.07589 0.11719,0.138353 0.11719,0.195312 0,0.227796 -0.4395,0.568918 -1.25586,0.587891 v 0.589844 c 0.66445,-0.05696 2.06374,-0.08008 2.78516,-0.08008 l 2.4707,0.08008 v -0.589844 h -0.35352 c -0.98719,0 -1.40601,-0.116556 -1.80468,-0.705078 l -4,-6.039063 2.58984,-3.804687 c 0.41765,-0.607495 1.09353,-1.234934 2.7832,-1.253907 v -0.58789 l -2.11718,0.07813 c -0.7594,0 -1.67225,-0.02124 -2.43164,-0.07813 v 0.58789 c 0.75939,0.0189 1.17578,0.426662 1.17578,0.863282 0,0.189849 -0.0232,0.261842 -0.15625,0.470703 l -2.19532,3.175781 -2.43164,-3.646484 c -0.038,-0.05696 -0.11718,-0.199458 -0.11718,-0.275391 0,-0.227834 0.39852,-0.568918 1.21484,-0.587891 v -0.58789 c -0.66445,0.05696 -2.06179,0.07813 -2.7832,0.07813 z m 0.39844,4.998047 -10.66601,0.002 v 0.58789 h 0.4707 c 1.4618,0 1.49023,0.179854 1.49023,0.863282 V 44.5626 c 0,0.683428 -0.0284,0.902344 -1.49023,0.902344 h -0.4707 v 0.58789 h 10.9414 l 0.82422,-4.90039 h -0.50977 c -0.4746,2.923635 -0.89289,4.3125 -4.1582,4.3125 h -2.50976 c -0.89229,0 -0.94141,-0.156734 -0.94141,-0.783203 v -5.107422 h 1.6875 c 1.8415,0 2.07812,0.622627 2.07812,2.236328 h 0.47071 v -5.058594 h -0.47071 c 0,1.632675 -0.23658,2.234375 -2.07812,2.234375 h -1.6875 v -4.595703 c 0,-0.626507 0.0492,-0.746094 0.94141,-0.746094 h 2.43164 c 2.90466,0 3.42283,1.009558 3.72656,3.648438 h 0.4707 z m -12.3418,17.064453 v 0.609375 h 1.89063 V 55.6251 h 0.74219 v -4.894531 h 1.89062 v -0.609375 z m 5.36329,0 V 55.6251 h 4.33593 v -0.609375 h -3.58984 v -1.917969 h 3.19531 v -0.601562 h -3.19531 v -1.765625 h 3.42969 v -0.609375 z m 5.01953,0 1.93359,2.644531 -2.09375,2.859375 h 0.82422 l 1.6875,-2.40625 1.65234,2.40625 h 0.82422 l -2.04297,-2.886719 1.88282,-2.617187 h -0.82422 l -1.48828,2.160156 -1.53125,-2.160156 z"
       transform="translate(-118.4973,-1.0001)" />
    <path
       id="path3"
       style="fill:url(#linearGradient4);fill-opacity:1;stroke:none"
       d="m 151.80394,7.0001 -0.004,0.00195 -19.35351,0.00391 c -1.35355,0 -2.45703,1.1084593 -2.45703,2.4648437 V 57.533303 c 0,1.356386 1.10343,2.466797 2.45703,2.466797 h 36.09375 c 1.35354,0 2.45703,-1.110412 2.45703,-2.466797 V 26.183694 c 0,-0.440775 -0.10327,-0.93784 -0.29297,-1.464844 h 0.0606 l -0.35547,-0.722656 c -0.0256,-0.05172 -0.0587,-0.104197 -0.0859,-0.15625 l -0.0605,-0.125 h -0.008 c -0.33862,-0.618179 -0.7885,-1.252822 -1.38476,-1.84961 l -0.002,-0.002 L 156.26488,9.1524437 C 155.67159,8.4151755 155.0115,7.918962 154.36644,7.59385 154.28114,7.550863 154.19507,7.50998 154.11058,7.4727562 l -0.0859,-0.037109 -0.0312,-0.00195 C 153.20882,7.1007523 152.46804,7.0001 151.90941,7.0001 Z m 0.11523,1.0019531 c 0.37972,7.572e-4 0.91296,0.1248404 1.44727,0.3105469 v 13.935547 c 0,1.22231 0.89866,2.235584 2.06641,2.425781 0.12731,0.02382 0.25744,0.03746 0.39062,0.04102 0.0224,5.98e-4 0.0439,0.0039 0.0664,0.0039 h 13.69336 c 0.23563,0.562366 0.41406,1.117889 0.41406,1.464844 v 31.349609 c 0,0.822556 -0.64278,1.466797 -1.45703,1.466797 h -36.09375 c -0.81435,0 -1.45703,-0.644183 -1.45703,-1.466797 V 9.4708031 c 0,-0.8225555 0.64277,-1.4667967 1.45703,-1.4667969 z m 2.47071,0.9238281 c 0.38082,0.2545633 0.76637,0.4323997 1.12695,0.8886719 l 0.0176,0.021484 12.62695,12.7343749 c 0.37192,0.371984 0.57528,0.75943 0.82813,1.144532 h -13.16602 c -0.0687,0 -0.13319,-0.01063 -0.19922,-0.01953 -0.70854,-0.123274 -1.23436,-0.730184 -1.23437,-1.478515 z m -20.59766,19.1328128 -0.35351,4.273437 h 0.4707 c 0.26578,-3.056527 0.54539,-3.685547 3.41211,-3.685547 0.34171,0 0.82968,0.0011 1.01953,0.03906 0.39867,0.07593 0.43164,0.26842 0.43164,0.705078 v 10.21875 c 0,0.64548 -0.007,0.981092 -2,0.941406 h -0.78516 v 0.587891 c 0.77838,-0.05696 2.73606,-0.07813 3.60938,-0.07813 0.87331,0 2.82905,0.02119 3.60742,0.07813 v -0.587891 h -0.78516 c -1.9934,0 -1.96093,-0.295926 -1.96093,-0.941406 v -10.21875 c 0,-0.379698 -0.0273,-0.629146 0.31445,-0.705078 0.20882,-0.03795 0.73693,-0.03906 1.09766,-0.03906 2.86667,0 3.14632,0.62902 3.41211,3.685547 h 0.4707 l -0.35352,-4.273437 z m 20.45117,0 v 0.58789 h 0.39063 c 1.04415,0 1.40494,0.134415 1.76562,0.666016 l 3.49024,5.294922 -3.13672,4.587891 c -0.26578,0.379698 -0.82866,1.253906 -2.74609,1.253906 v 0.589844 l 2.11718,-0.08008 c 0.70244,0 1.74818,0.02315 2.43164,0.08008 v -0.589844 c -0.87331,-0.0189 -1.21484,-0.558677 -1.21484,-0.900391 0,-0.170838 0.0624,-0.222818 0.19531,-0.43164 l 2.70703,-4 2.98047,4.548828 c 0.038,0.07589 0.11719,0.138353 0.11719,0.195312 0,0.227796 -0.4395,0.568918 -1.25586,0.587891 v 0.589844 c 0.66445,-0.05696 2.06374,-0.08008 2.78516,-0.08008 l 2.4707,0.08008 v -0.589844 h -0.35352 c -0.98719,0 -1.40601,-0.116556 -1.80468,-0.705078 l -4,-6.039063 2.58984,-3.804687 c 0.41765,-0.607495 1.09353,-1.234934 2.7832,-1.253907 v -0.58789 l -2.11718,0.07813 c -0.7594,0 -1.67225,-0.02124 -2.43164,-0.07813 v 0.58789 c 0.75939,0.0189 1.17578,0.426662 1.17578,0.863282 0,0.189849 -0.0232,0.261842 -0.15625,0.470703 l -2.19532,3.175781 -2.43164,-3.646484 c -0.038,-0.05696 -0.11718,-0.199458 -0.11718,-0.275391 0,-0.227834 0.39852,-0.568918 1.21484,-0.587891 v -0.58789 c -0.66445,0.05696 -2.06179,0.07813 -2.7832,0.07813 z m 0.39844,4.998047 -10.66601,0.002 v 0.58789 h 0.4707 c 1.4618,0 1.49023,0.179854 1.49023,0.863282 V 44.5626 c 0,0.683428 -0.0284,0.902344 -1.49023,0.902344 h -0.4707 v 0.58789 h 10.9414 l 0.82422,-4.90039 h -0.50977 c -0.4746,2.923635 -0.89289,4.3125 -4.1582,4.3125 h -2.50976 c -0.89229,0 -0.94141,-0.156734 -0.94141,-0.783203 v -5.107422 h 1.6875 c 1.8415,0 2.07812,0.622627 2.07812,2.236328 h 0.47071 v -5.058594 h -0.47071 c 0,1.632675 -0.23658,2.234375 -2.07812,2.234375 h -1.6875 v -4.595703 c 0,-0.626507 0.0492,-0.746094 0.94141,-0.746094 h 2.43164 c 2.90466,0 3.42283,1.009558 3.72656,3.648438 h 0.4707 z m -12.3418,17.064453 v 0.609375 h 1.89063 V 55.6251 h 0.74219 v -4.894531 h 1.89062 v -0.609375 z m 5.36329,0 V 55.6251 h 4.33593 v -0.609375 h -3.58984 v -1.917969 h 3.19531 v -0.601562 h -3.19531 v -1.765625 h 3.42969 v -0.609375 z m 5.01953,0 1.93359,2.644531 -2.09375,2.859375 h 0.82422 l 1.6875,-2.40625 1.65234,2.40625 h 0.82422 l -2.04297,-2.886719 1.88282,-2.617187 h -0.82422 l -1.48828,2.160156 -1.53125,-2.160156 z"
       transform="translate(-118.4973,-1.0001)" />
  </g>
</svg>
