<?xml version="1.0" encoding="UTF-8" standalone="no"?>
<svg
   width="43.546024"
   height="55.538212"
   version="1.1"
   viewBox="0 0 43.546024 55.538212"
   id="svg3"
   xmlns:xlink="http://www.w3.org/1999/xlink"
   xmlns="http://www.w3.org/2000/svg"
   xmlns:svg="http://www.w3.org/2000/svg">
  <defs
     id="defs3">
    <linearGradient
       id="linearGradient2">
      <stop
         style="stop-color:#00abff;stop-opacity:0;"
         offset="0"
         id="stop3" />
      <stop
         style="stop-color:#00abff;stop-opacity:1;"
         offset="1"
         id="stop2" />
    </linearGradient>
    <linearGradient
       id="linearGradient4">
      <stop
         style="stop-color:#00abff;stop-opacity:0;"
         offset="0"
         id="stop5" />
      <stop
         style="stop-color:#00abff;stop-opacity:1;"
         offset="1"
         id="stop4" />
    </linearGradient>
    <linearGradient
       xlink:href="#linearGradient4"
       id="linearGradient5"
       x1="150.49152"
       y1="64.998489"
       x2="150.49152"
       y2="27.549215"
       gradientUnits="userSpaceOnUse" />
    <filter
       style="color-interpolation-filters:sRGB"
       id="filter5"
       x="-0.030947896"
       y="-0.023945386"
       width="1.0618958"
       height="1.0478908">
      <feGaussianBlur
         stdDeviation="0.52879393"
         id="feGaussianBlur5" />
    </filter>
    <linearGradient
       xlink:href="#linearGradient2"
       id="linearGradient3"
       x1="32.001865"
       y1="59.001953"
       x2="32.001865"
       y2="25.056614"
       gradientUnits="userSpaceOnUse" />
    <filter
       style="color-interpolation-filters:sRGB"
       id="filter3"
       x="-0.030200769"
       y="-0.024412672"
       width="1.0604015"
       height="1.0488253">
      <feGaussianBlur
         stdDeviation="0.33568447"
         id="feGaussianBlur3" />
    </filter>
  </defs>
  <g
     id="g5"
     transform="translate(-10.228855,-4.7328477)">
    <path
       id="path6"
       style="fill:url(#linearGradient3);fill-opacity:1;stroke-width:3.14638"
       d="m 31.493814,23.388126 c -2.767127,0 -4.994782,1.113827 -4.994782,2.497391 v 3.329855 h 4.994782 v 0.832464 h -9.1571 c -1.383564,0 -2.497392,2.227653 -2.497392,4.994782 v 0.832463 c 0,2.76713 1.113828,4.994784 2.497392,4.994784 h 3.329855 v -2.497393 c 0,0 -2.3e-5,-3.329854 3.329855,-3.329854 h 6.65971 c 0,0 1.664927,1.2e-5 1.664927,-1.664927 v -7.492174 c 0,-1.383564 -2.227653,-2.497391 -4.994783,-2.497391 z m -2.49739,1.664927 c 0.459751,0 0.832463,0.372712 0.832463,0.832464 0,0.459752 -0.372712,0.832464 -0.832463,0.832464 -0.459753,0 -0.832464,-0.372712 -0.832464,-0.832464 0,-0.459752 0.372711,-0.832464 0.832464,-0.832464 z m 9.157101,4.994783 v 3.329855 c 0,2.497409 -2.497391,2.49739 -2.497391,2.49739 h -6.65971 c -2.497409,0 -2.497392,2.497391 -2.497392,2.497391 v 6.659709 c 0,1.383565 2.227655,2.497393 4.994782,2.497393 h 0.832464 c 2.76713,0 4.994783,-1.113828 4.994783,-2.497393 v -3.329853 h -4.994783 v -0.832463 h 9.1571 c 1.383565,0 2.497393,-2.227654 2.497393,-4.994784 v -0.832463 c 0,-2.767129 -1.113828,-4.994782 -2.497393,-4.994782 z m -3.329856,13.319418 c 0.459752,0 0.832465,0.372711 0.832465,0.832464 0,0.459751 -0.372713,0.832463 -0.832465,0.832463 -0.459752,0 -0.832464,-0.372712 -0.832464,-0.832463 0,-0.459753 0.372712,-0.832464 0.832464,-0.832464 z m 3.279453,7.840119 c -0.702546,0 -1.264533,0.235035 -1.686064,0.705643 -0.419308,0.468369 -0.629226,1.096516 -0.629226,1.88605 0,0.789531 0.209917,1.419305 0.629226,1.887675 0.421531,0.46837 0.983518,0.702392 1.686064,0.702392 0.700301,0 1.260252,-0.234028 1.679561,-0.702392 0.419306,-0.470592 0.629223,-1.100368 0.629223,-1.887675 0,-0.789534 -0.209926,-1.417681 -0.629223,-1.88605 -0.419286,-0.470595 -0.979239,-0.705643 -1.679561,-0.705643 z m -19.532005,0.08778 v 4.994784 h 0.676376 v -2.007992 h 0.850349 c 0.559805,0 0.981099,-0.125194 1.266581,-0.377212 0.287705,-0.252025 0.432491,-0.625731 0.432491,-1.118622 0,-0.488445 -0.144787,-0.858468 -0.432491,-1.110493 -0.28548,-0.25426 -0.706776,-0.380465 -1.266581,-0.380465 z m 3.29571,0.0016 1.765734,2.616085 v 2.378697 H 24.31219 V 53.91285 l 1.733214,-2.565679 v 0.517035 h 1.773865 v 4.427386 h 0.678003 V 51.86424 h 1.773862 V 51.2968 h -4.191585 -0.72678 l -1.375517,2.053521 -1.38527,-2.053521 z m 9.056294,0 v 4.994782 h 0.676378 V 53.91285 h 2.455117 v 2.378697 h 0.67475 v -4.994821 h -0.67475 v 2.047017 h -2.455117 v -2.047017 z m 10.544,0 v 4.994782 h 0.655241 v -4.178576 l 2.214482,4.178576 h 0.910506 v -4.994782 h -0.65524 v 4.176953 l -2.214484,-4.176953 z m -3.363999,0.458506 c 0.490666,0 0.878665,0.183779 1.16415,0.549556 0.287705,0.365755 0.432489,0.863022 0.432489,1.494207 0,0.62894 -0.144796,1.126805 -0.432489,1.492581 -0.285471,0.365776 -0.673484,0.54793 -1.16415,0.54793 -0.490667,0 -0.880703,-0.182144 -1.170652,-0.54793 -0.287705,-0.365776 -0.430866,-0.863641 -0.430866,-1.492581 0,-0.631163 0.14316,-1.12843 0.430866,-1.494207 0.289939,-0.365779 0.679985,-0.549556 1.170652,-0.549556 z m -18.855629,0.09426 h 0.850349 c 0.314465,0 0.556672,0.08108 0.728407,0.243875 0.171732,0.162826 0.258518,0.39377 0.258518,0.692635 0,0.301078 -0.08679,0.533073 -0.258518,0.695889 -0.17173,0.162825 -0.413936,0.245512 -0.728407,0.245512 h -0.850349 z" />
    <path
       id="path1"
       style="display:inline;opacity:0.6;fill:#00abff;stroke:none;filter:url(#filter5)"
       d="m 151.80402,7.0004431 -0.004,0.00195 -19.35351,0.00391 c -1.35355,0 -2.45703,1.1084593 -2.45703,2.4648438 V 57.533646 c 0,1.356386 1.10343,2.466797 2.45703,2.466797 h 36.09375 c 1.35354,0 2.45703,-1.110412 2.45703,-2.466797 V 26.184037 c 0,-0.440397 -0.10359,-0.938346 -0.29297,-1.464844 h 0.0606 l -0.35547,-0.722656 c -0.0256,-0.05172 -0.0587,-0.104197 -0.0859,-0.15625 l -0.0606,-0.125 h -0.008 c -0.33862,-0.618179 -0.7885,-1.252822 -1.38477,-1.849609 l -0.002,-0.002 -12.60351,-12.7109371 c -0.59329,-0.7372684 -1.25338,-1.2334818 -1.89844,-1.5585938 -0.0853,-0.042987 -0.17137,-0.08387 -0.25586,-0.1210937 l -0.0859,-0.037109 -0.0312,-0.00195 c -0.78437,-0.332899 -1.52515,-0.4335513 -2.08378,-0.4335513 z m 0.11523,1.0019532 c 0.37972,7.572e-4 0.91296,0.1248403 1.44727,0.3105468 V 22.24849 c 0,1.22231 0.89865,2.235584 2.0664,2.425781 0.12732,0.02382 0.25744,0.03745 0.39063,0.04102 0.0224,5.98e-4 0.0439,0.0039 0.0664,0.0039 h 13.69336 c 0.23563,0.562366 0.41406,1.117889 0.41406,1.464844 v 31.349609 c 0,0.822556 -0.64278,1.466797 -1.45703,1.466797 H 132.4466 c -0.81435,0 -1.45703,-0.644183 -1.45703,-1.466797 V 9.4711463 c 0,-0.8225555 0.64277,-1.4667969 1.45703,-1.4667969 z m 2.47071,0.9238281 c 0.38082,0.2545631 0.76637,0.4323996 1.12695,0.8886719 l 0.0176,0.021484 12.62695,12.7343757 c 0.37192,0.371983 0.57528,0.75943 0.82813,1.144531 h -13.16602 c -0.06,0 -0.11587,-0.01077 -0.17383,-0.01758 -0.72125,-0.113118 -1.25975,-0.723307 -1.25976,-1.480469 z"
       transform="translate(-118.49152,-0.99849)" />
    <path
       id="path4"
       style="fill:url(#linearGradient5);fill-opacity:1;stroke:none"
       d="m 151.80402,7.0004431 -0.004,0.00195 -19.35351,0.00391 c -1.35355,0 -2.45703,1.1084593 -2.45703,2.4648438 V 57.533646 c 0,1.356386 1.10343,2.466797 2.45703,2.466797 h 36.09375 c 1.35354,0 2.45703,-1.110412 2.45703,-2.466797 V 26.184037 c 0,-0.440397 -0.10359,-0.938346 -0.29297,-1.464844 h 0.0606 l -0.35547,-0.722656 c -0.0256,-0.05172 -0.0587,-0.104197 -0.0859,-0.15625 l -0.0606,-0.125 h -0.008 c -0.33862,-0.618179 -0.7885,-1.252822 -1.38477,-1.849609 l -0.002,-0.002 -12.60351,-12.7109371 c -0.59329,-0.7372684 -1.25338,-1.2334818 -1.89844,-1.5585938 -0.0853,-0.042987 -0.17137,-0.08387 -0.25586,-0.1210937 l -0.0859,-0.037109 -0.0312,-0.00195 c -0.78437,-0.332899 -1.52515,-0.4335513 -2.08378,-0.4335513 z m 0.11523,1.0019532 c 0.37972,7.572e-4 0.91296,0.1248403 1.44727,0.3105468 V 22.24849 c 0,1.22231 0.89865,2.235584 2.0664,2.425781 0.12732,0.02382 0.25744,0.03745 0.39063,0.04102 0.0224,5.98e-4 0.0439,0.0039 0.0664,0.0039 h 13.69336 c 0.23563,0.562366 0.41406,1.117889 0.41406,1.464844 v 31.349609 c 0,0.822556 -0.64278,1.466797 -1.45703,1.466797 H 132.4466 c -0.81435,0 -1.45703,-0.644183 -1.45703,-1.466797 V 9.4711463 c 0,-0.8225555 0.64277,-1.4667969 1.45703,-1.4667969 z m 2.47071,0.9238281 c 0.38082,0.2545631 0.76637,0.4323996 1.12695,0.8886719 l 0.0176,0.021484 12.62695,12.7343757 c 0.37192,0.371983 0.57528,0.75943 0.82813,1.144531 h -13.16602 c -0.06,0 -0.11587,-0.01077 -0.17383,-0.01758 -0.72125,-0.113118 -1.25975,-0.723307 -1.25976,-1.480469 z"
       transform="translate(-118.49152,-0.99849)" />
    <path
       id="path2"
       style="display:inline;opacity:0.6;fill:#00abff;fill-opacity:1;stroke-width:3.14638;filter:url(#filter3)"
       d="m 31.493814,23.388126 c -2.767127,0 -4.994782,1.113827 -4.994782,2.497391 v 3.329855 h 4.994782 v 0.832464 h -9.1571 c -1.383564,0 -2.497392,2.227653 -2.497392,4.994782 v 0.832463 c 0,2.76713 1.113828,4.994784 2.497392,4.994784 h 3.329855 v -2.497393 c 0,0 -2.3e-5,-3.329854 3.329855,-3.329854 h 6.65971 c 0,0 1.664927,1.2e-5 1.664927,-1.664927 v -7.492174 c 0,-1.383564 -2.227653,-2.497391 -4.994783,-2.497391 z m -2.49739,1.664927 c 0.459751,0 0.832463,0.372712 0.832463,0.832464 0,0.459752 -0.372712,0.832464 -0.832463,0.832464 -0.459753,0 -0.832464,-0.372712 -0.832464,-0.832464 0,-0.459752 0.372711,-0.832464 0.832464,-0.832464 z m 9.157101,4.994783 v 3.329855 c 0,2.497409 -2.497391,2.49739 -2.497391,2.49739 h -6.65971 c -2.497409,0 -2.497392,2.497391 -2.497392,2.497391 v 6.659709 c 0,1.383565 2.227655,2.497393 4.994782,2.497393 h 0.832464 c 2.76713,0 4.994783,-1.113828 4.994783,-2.497393 v -3.329853 h -4.994783 v -0.832463 h 9.1571 c 1.383565,0 2.497393,-2.227654 2.497393,-4.994784 v -0.832463 c 0,-2.767129 -1.113828,-4.994782 -2.497393,-4.994782 z m -3.329856,13.319418 c 0.459752,0 0.832465,0.372711 0.832465,0.832464 0,0.459751 -0.372713,0.832463 -0.832465,0.832463 -0.459752,0 -0.832464,-0.372712 -0.832464,-0.832463 0,-0.459753 0.372712,-0.832464 0.832464,-0.832464 z m 3.279453,7.840119 c -0.702546,0 -1.264533,0.235035 -1.686064,0.705643 -0.419308,0.468369 -0.629226,1.096516 -0.629226,1.88605 0,0.789531 0.209917,1.419305 0.629226,1.887675 0.421531,0.46837 0.983518,0.702392 1.686064,0.702392 0.700301,0 1.260252,-0.234028 1.679561,-0.702392 0.419306,-0.470592 0.629223,-1.100368 0.629223,-1.887675 0,-0.789534 -0.209926,-1.417681 -0.629223,-1.88605 -0.419286,-0.470595 -0.979239,-0.705643 -1.679561,-0.705643 z m -19.532005,0.08778 v 4.994784 h 0.676376 v -2.007992 h 0.850349 c 0.559805,0 0.981099,-0.125194 1.266581,-0.377212 0.287705,-0.252025 0.432491,-0.625731 0.432491,-1.118622 0,-0.488445 -0.144787,-0.858468 -0.432491,-1.110493 -0.28548,-0.25426 -0.706776,-0.380465 -1.266581,-0.380465 z m 3.29571,0.0016 1.765734,2.616085 v 2.378697 H 24.31219 V 53.91285 l 1.733214,-2.565679 v 0.517035 h 1.773865 v 4.427386 h 0.678003 V 51.86424 h 1.773862 V 51.2968 h -4.191585 -0.72678 l -1.375517,2.053521 -1.38527,-2.053521 z m 9.056294,0 v 4.994782 h 0.676378 V 53.91285 h 2.455117 v 2.378697 h 0.67475 v -4.994821 h -0.67475 v 2.047017 h -2.455117 v -2.047017 z m 10.544,0 v 4.994782 h 0.655241 v -4.178576 l 2.214482,4.178576 h 0.910506 v -4.994782 h -0.65524 v 4.176953 l -2.214484,-4.176953 z m -3.363999,0.458506 c 0.490666,0 0.878665,0.183779 1.16415,0.549556 0.287705,0.365755 0.432489,0.863022 0.432489,1.494207 0,0.62894 -0.144796,1.126805 -0.432489,1.492581 -0.285471,0.365776 -0.673484,0.54793 -1.16415,0.54793 -0.490667,0 -0.880703,-0.182144 -1.170652,-0.54793 -0.287705,-0.365776 -0.430866,-0.863641 -0.430866,-1.492581 0,-0.631163 0.14316,-1.12843 0.430866,-1.494207 0.289939,-0.365779 0.679985,-0.549556 1.170652,-0.549556 z m -18.855629,0.09426 h 0.850349 c 0.314465,0 0.556672,0.08108 0.728407,0.243875 0.171732,0.162826 0.258518,0.39377 0.258518,0.692635 0,0.301078 -0.08679,0.533073 -0.258518,0.695889 -0.17173,0.162825 -0.413936,0.245512 -0.728407,0.245512 h -0.850349 z" />
  </g>
</svg>
