<?xml version="1.0" encoding="UTF-8" standalone="no"?>
<svg
   width="163.97044"
   height="135.96458"
   version="1.1"
   viewBox="0 0 43.38412 35.97419"
   id="svg8"
   xmlns:xlink="http://www.w3.org/1999/xlink"
   xmlns="http://www.w3.org/2000/svg"
   xmlns:svg="http://www.w3.org/2000/svg"
   xmlns:rdf="http://www.w3.org/1999/02/22-rdf-syntax-ns#"
   xmlns:cc="http://creativecommons.org/ns#"
   xmlns:dc="http://purl.org/dc/elements/1.1/">
  <defs
     id="defs5">
    <linearGradient
       id="linearGradient12">
      <stop
         style="stop-color:#00abff;stop-opacity:0;"
         offset="0"
         id="stop13" />
      <stop
         style="stop-color:#00abff;stop-opacity:1;"
         offset="1"
         id="stop12" />
    </linearGradient>
    <linearGradient
       xlink:href="#linearGradient12"
       id="linearGradient13"
       x1="24.849735"
       y1="65.389999"
       x2="24.945084"
       y2="34.621143"
       gradientUnits="userSpaceOnUse" />
    <filter
       style="color-interpolation-filters:sRGB"
       id="filter13"
       x="-0.024580868"
       y="-0.029947267"
       width="1.0491617"
       height="1.0598945">
      <feGaussianBlur
         stdDeviation="0.42352042"
         id="feGaussianBlur13" />
    </filter>
  </defs>
  <metadata
     id="metadata5">
    <rdf:RDF>
      <cc:Work
         rdf:about="">
        <dc:format>image/svg+xml</dc:format>
        <dc:type
           rdf:resource="http://purl.org/dc/dcmitype/StillImage" />
        <dc:title />
      </cc:Work>
    </rdf:RDF>
  </metadata>
  <g
     transform="translate(-3.2532805,-20.302062)"
     fill="none"
     stroke="#059bff"
     id="g8">
    <path
       id="path6"
       style="display:inline;opacity:0.6;fill:#00abff;fill-opacity:1;stroke:none;stroke-opacity:1;filter:url(#filter13)"
       d="m 5.9373382,21.318511 -1.6660587,1.666058 v 8.308589 L 6.1579979,29.40644 H 16.740364 l 3.023091,-3.023607 h 23.970781 l 1.886718,1.886718 V 26.00766 L 43.954895,24.341601 H 16.894361 v -1.357032 l -1.666059,-1.666058 z m 0.2191094,0.52917 H 15.00971 l 1.357548,1.355481 v 1.668126 h 27.366978 l 1.357548,1.357031 v 0.763783 L 43.954895,25.853663 H 19.544862 l -3.023607,3.02309 H 5.9394052 L 4.8009663,30.015709 V 23.203162 Z M 19.544862,29.0292 16.521255,32.052807 H 5.9373382 l -1.6660587,1.666058 -0.00155,19.874881 1.667609,1.666059 H 43.953345 l 1.667609,-1.666059 V 30.695258 L 43.953345,29.0292 Z m 0.218593,0.52917 h 23.970781 l 1.357548,1.355481 v 22.461303 l -1.357548,1.357031 H 6.1564476 L 4.7988992,53.375154 4.8009663,33.937458 6.1564476,32.581977 H 16.740364 Z m 5.181628,5.062772 -2.103244,5.457065 -5.833789,0.308511 4.535152,3.69127 -1.498109,5.644653 4.89999,-3.173987 4.902574,3.173987 -1.498109,-5.644653 4.533085,-3.69127 -5.833789,-0.308511 z m 0,1.439197 1.742541,4.517583 4.826092,0.254249 -3.752249,3.054613 1.240242,4.671579 -4.056626,-2.626729 -4.056625,2.626729 1.240242,-4.671579 -3.751733,-3.054613 4.82816,-0.254249 z" />
    <path
       id="path12"
       style="fill:url(#linearGradient13);fill-opacity:1;stroke:none;stroke-opacity:1"
       d="m 5.9373382,21.318511 -1.6660587,1.666058 v 8.308589 L 6.1579979,29.40644 H 16.740364 l 3.023091,-3.023607 h 23.970781 l 1.886718,1.886718 V 26.00766 L 43.954895,24.341601 H 16.894361 v -1.357032 l -1.666059,-1.666058 z m 0.2191094,0.52917 H 15.00971 l 1.357548,1.355481 v 1.668126 h 27.366978 l 1.357548,1.357031 v 0.763783 L 43.954895,25.853663 H 19.544862 l -3.023607,3.02309 H 5.9394052 L 4.8009663,30.015709 V 23.203162 Z M 19.544862,29.0292 16.521255,32.052807 H 5.9373382 l -1.6660587,1.666058 -0.00155,19.874881 1.667609,1.666059 H 43.953345 l 1.667609,-1.666059 V 30.695258 L 43.953345,29.0292 Z m 0.218593,0.52917 h 23.970781 l 1.357548,1.355481 v 22.461303 l -1.357548,1.357031 H 6.1564476 L 4.7988992,53.375154 4.8009663,33.937458 6.1564476,32.581977 H 16.740364 Z m 5.181628,5.062772 -2.103244,5.457065 -5.833789,0.308511 4.535152,3.69127 -1.498109,5.644653 4.89999,-3.173987 4.902574,3.173987 -1.498109,-5.644653 4.533085,-3.69127 -5.833789,-0.308511 z m 0,1.439197 1.742541,4.517583 4.826092,0.254249 -3.752249,3.054613 1.240242,4.671579 -4.056626,-2.626729 -4.056625,2.626729 1.240242,-4.671579 -3.751733,-3.054613 4.82816,-0.254249 z" />
  </g>
</svg>
