<?xml version="1.0" encoding="UTF-8" standalone="no"?>
<svg
   width="167.13663"
   height="139.13072"
   version="1.1"
   id="svg18"
   xmlns:xlink="http://www.w3.org/1999/xlink"
   xmlns="http://www.w3.org/2000/svg"
   xmlns:svg="http://www.w3.org/2000/svg"
   xmlns:rdf="http://www.w3.org/1999/02/22-rdf-syntax-ns#"
   xmlns:cc="http://creativecommons.org/ns#"
   xmlns:dc="http://purl.org/dc/elements/1.1/">
  <metadata
     id="metadata1">
    <rdf:RDF>
      <cc:Work
         rdf:about="">
        <dc:format>image/svg+xml</dc:format>
        <dc:type
           rdf:resource="http://purl.org/dc/dcmitype/StillImage" />
        <dc:title />
      </cc:Work>
    </rdf:RDF>
  </metadata>
  <defs
     id="defs13">
    <linearGradient
       id="linearGradient2">
      <stop
         style="stop-color:#00abff;stop-opacity:0;"
         offset="0"
         id="stop3" />
      <stop
         style="stop-color:#00abff;stop-opacity:1;"
         offset="1"
         id="stop2" />
    </linearGradient>
    <style
       id="current-color-scheme"
       type="text/css">.ColorScheme-Text {
        color:#4d4d4d;
      }</style>
    <style
       type="text/css"
       id="style9">.ColorScheme-Text {
        color:#4d4d4d;
      }</style>
    <linearGradient
       xlink:href="#linearGradient2"
       id="linearGradient3"
       x1="-120.99819"
       y1="171.05003"
       x2="-120.99819"
       y2="87.604271"
       gradientUnits="userSpaceOnUse" />
    <filter
       style="color-interpolation-filters:sRGB"
       id="filter3"
       x="-0.024626484"
       y="-0.029879837"
       width="1.049253"
       height="1.0597597">
      <feGaussianBlur
         stdDeviation="1.6344912"
         id="feGaussianBlur3" />
    </filter>
  </defs>
  <g
     id="g3"
     transform="translate(1.5810288,1.5809819)">
    <path
       id="path1"
       d="m -194.73097,31.926788 -7.17969,7.177734 v 35.640625 l 9.25195,-9.246093 h 40 l 11.42969,-11.427735 h 89.357423 l 9.25,9.246094 V 50.53421 l -7.179687,-7.177735 H -151.19582 v -4.251953 l -7.17968,-7.177734 z m 2.07031,5 h 32.21484 l 4.25,4.25 v 7.179687 h 104.324223 l 0.714844,0.714844 h -92.142577 l -11.42969,11.427735 h -40 l -2.18164,2.179687 V 41.176788 Z m 49.35742,24.142578 -11.42773,11.429688 h -40 l -7.17969,7.175781 -0.002,76.359375 7.17969,7.17773 h 144.929683 l 7.179687,-7.17773 V 68.2471 l -7.179687,-7.177734 z m 2.07227,5 h 89.35742 l 4.25,4.25 v 83.640624 l -4.25,4.25195 h -140.78906 l -4.25,-4.25195 0.002,-72.210936 4.25,-4.25 h 40 z m 2.66992,18.275391 c -4.74558,0 -8.63867,3.892979 -8.63867,8.638672 v 43.431641 c 0,4.74558 3.89298,8.63867 8.63867,8.63867 h 25.75781 l 15.453128,-15.45312 V 92.985382 c 0,-4.746179 -3.894478,-8.640625 -8.640628,-8.640625 z m -0.006,6.423828 h 32.57617 c 1.31909,0 2.21875,0.897888 2.21875,2.214844 v 32.072261 h -5.38867 c -4.00539,0 -7.2832,3.27497 -7.2832,7.28125 v 6.29297 h -22.11719 c -1.31816,0 -2.2168,-0.89889 -2.2168,-2.21679 V 92.983429 c 0,-1.315501 0.89579,-2.211438 2.21094,-2.214844 z m 1.22656,2.076172 v 5.71289 h 30.14258 v -5.71289 z m 0,8.144533 v 5.71484 h 30.14258 v -5.71484 z m 0,8.14062 v 5.71485 h 30.14258 v -5.71485 z m 0,8.14063 v 5.71289 h 19.28711 v -5.71289 z"
       transform="translate(204.25441,-29.584991)"
       style="display:inline;opacity:0.6;fill:#00abff;fill-opacity:1;filter:url(#filter3)" />
    <path
       id="path2"
       d="m -194.73097,31.926788 -7.17969,7.177734 v 35.640625 l 9.25195,-9.246093 h 40 l 11.42969,-11.427735 h 89.357423 l 9.25,9.246094 V 50.53421 l -7.179687,-7.177735 H -151.19582 v -4.251953 l -7.17968,-7.177734 z m 2.07031,5 h 32.21484 l 4.25,4.25 v 7.179687 h 104.324223 l 0.714844,0.714844 h -92.142577 l -11.42969,11.427735 h -40 l -2.18164,2.179687 V 41.176788 Z m 49.35742,24.142578 -11.42773,11.429688 h -40 l -7.17969,7.175781 -0.002,76.359375 7.17969,7.17773 h 144.929683 l 7.179687,-7.17773 V 68.2471 l -7.179687,-7.177734 z m 2.07227,5 h 89.35742 l 4.25,4.25 v 83.640624 l -4.25,4.25195 h -140.78906 l -4.25,-4.25195 0.002,-72.210936 4.25,-4.25 h 40 z m 2.66992,18.275391 c -4.74558,0 -8.63867,3.892979 -8.63867,8.638672 v 43.431641 c 0,4.74558 3.89298,8.63867 8.63867,8.63867 h 25.75781 l 15.453128,-15.45312 V 92.985382 c 0,-4.746179 -3.894478,-8.640625 -8.640628,-8.640625 z m -0.006,6.423828 h 32.57617 c 1.31909,0 2.21875,0.897888 2.21875,2.214844 v 32.072261 h -5.38867 c -4.00539,0 -7.2832,3.27497 -7.2832,7.28125 v 6.29297 h -22.11719 c -1.31816,0 -2.2168,-0.89889 -2.2168,-2.21679 V 92.983429 c 0,-1.315501 0.89579,-2.211438 2.21094,-2.214844 z m 1.22656,2.076172 v 5.71289 h 30.14258 v -5.71289 z m 0,8.144533 v 5.71484 h 30.14258 v -5.71484 z m 0,8.14062 v 5.71485 h 30.14258 v -5.71485 z m 0,8.14063 v 5.71289 h 19.28711 v -5.71289 z"
       transform="translate(204.25441,-29.584991)"
       style="fill:url(#linearGradient3);fill-opacity:1" />
  </g>
</svg>
