<?xml version="1.0" encoding="UTF-8" standalone="no"?>
<svg
   width="167.57248"
   height="134.74437"
   version="1.1"
   id="svg8"
   xmlns:xlink="http://www.w3.org/1999/xlink"
   xmlns="http://www.w3.org/2000/svg"
   xmlns:svg="http://www.w3.org/2000/svg"
   xmlns:rdf="http://www.w3.org/1999/02/22-rdf-syntax-ns#"
   xmlns:cc="http://creativecommons.org/ns#"
   xmlns:dc="http://purl.org/dc/elements/1.1/">
  <metadata
     id="metadata1">
    <rdf:RDF>
      <cc:Work
         rdf:about="">
        <dc:format>image/svg+xml</dc:format>
        <dc:type
           rdf:resource="http://purl.org/dc/dcmitype/StillImage" />
        <dc:title />
      </cc:Work>
    </rdf:RDF>
  </metadata>
  <defs
     id="defs5">
    <linearGradient
       id="linearGradient8">
      <stop
         style="stop-color:#00abff;stop-opacity:0;"
         offset="0"
         id="stop9" />
      <stop
         style="stop-color:#00abff;stop-opacity:1;"
         offset="1"
         id="stop8" />
    </linearGradient>
    <style
       id="current-color-scheme"
       type="text/css">.ColorScheme-Text {
        color:#4d4d4d;
      }</style>
    <style
       type="text/css"
       id="style1">.ColorScheme-Text {
        color:#4d4d4d;
      }</style>
    <linearGradient
       xlink:href="#linearGradient8"
       id="linearGradient9"
       x1="75"
       y1="200"
       x2="75"
       y2="84.420288"
       gradientUnits="userSpaceOnUse" />
    <filter
       style="color-interpolation-filters:sRGB"
       id="filter9"
       x="-0.024227149"
       y="-0.030489604"
       width="1.0484543"
       height="1.0609792">
      <feGaussianBlur
         stdDeviation="1.6134082"
         id="feGaussianBlur9" />
    </filter>
  </defs>
  <g
     transform="translate(211.28624,-30.12782)"
     fill="none"
     stroke="#059bff"
     id="g7">
    <path
       id="path5"
       style="display:inline;opacity:0.6;fill:#00abff;fill-opacity:1;stroke:none;filter:url(#filter9)"
       d="M -3.5,34 V 141 H 102.91406 L 153.5,90.414062 V 34 Z m 2,2 h 153 V 89.585938 L 102.08594,139 H -1.5 Z m 28,8 v 87 H 92.914062 L 138.5,85.414062 V 44 Z M 6.5234375,44.023438 V 131.97656 H 18.476562 V 44.023438 Z m 1.953125,1.953124 H 16.523438 V 130.02344 H 8.4765625 Z M 28.5,46 h 108 V 84.585938 L 92.085938,129 H 28.5 Z M 12.085938,144 -4.9140625,161 H 137.91406 l 17,-17 z m 0.828124,2 H 150.08594 l -13,13 H -0.0859375 Z"
       transform="translate(-202.5)" />
    <path
       id="path8"
       style="fill:url(#linearGradient9);fill-opacity:1;stroke:none"
       d="M -3.5,34 V 141 H 102.91406 L 153.5,90.414062 V 34 Z m 2,2 h 153 V 89.585938 L 102.08594,139 H -1.5 Z m 28,8 v 87 H 92.914062 L 138.5,85.414062 V 44 Z M 6.5234375,44.023438 V 131.97656 H 18.476562 V 44.023438 Z m 1.953125,1.953124 H 16.523438 V 130.02344 H 8.4765625 Z M 28.5,46 h 108 V 84.585938 L 92.085938,129 H 28.5 Z M 12.085938,144 -4.9140625,161 H 137.91406 l 17,-17 z m 0.828124,2 H 150.08594 l -13,13 H -0.0859375 Z"
       transform="translate(-202.5)" />
  </g>
</svg>
