<?xml version="1.0" encoding="UTF-8" standalone="no"?>
<svg
   width="167.13663"
   height="139.13072"
   version="1.1"
   id="svg48"
   xmlns:xlink="http://www.w3.org/1999/xlink"
   xmlns="http://www.w3.org/2000/svg"
   xmlns:svg="http://www.w3.org/2000/svg"
   xmlns:rdf="http://www.w3.org/1999/02/22-rdf-syntax-ns#"
   xmlns:cc="http://creativecommons.org/ns#"
   xmlns:dc="http://purl.org/dc/elements/1.1/">
  <metadata
     id="metadata1">
    <rdf:RDF>
      <cc:Work
         rdf:about="">
        <dc:format>image/svg+xml</dc:format>
        <dc:type
           rdf:resource="http://purl.org/dc/dcmitype/StillImage" />
        <dc:title />
      </cc:Work>
    </rdf:RDF>
  </metadata>
  <defs
     id="defs11">
    <linearGradient
       id="linearGradient2">
      <stop
         style="stop-color:#00abff;stop-opacity:0;"
         offset="0"
         id="stop3" />
      <stop
         style="stop-color:#00abff;stop-opacity:1;"
         offset="1"
         id="stop2" />
    </linearGradient>
    <style
       type="text/css"
       id="style1" />
    <style
       type="text/css"
       id="style2" />
    <style
       type="text/css"
       id="style3" />
    <style
       type="text/css"
       id="style4" />
    <style
       id="current-color-scheme"
       type="text/css">.ColorScheme-Text {
        color:#4d4d4d;
      }</style>
    <style
       type="text/css"
       id="style5">.ColorScheme-Text {
        color:#4d4d4d;
      }</style>
    <style
       type="text/css"
       id="style6" />
    <style
       type="text/css"
       id="style7" />
    <linearGradient
       xlink:href="#linearGradient2"
       id="linearGradient3"
       x1="-147.32883"
       y1="173.10587"
       x2="-147.32883"
       y2="87.063591"
       gradientUnits="userSpaceOnUse" />
    <filter
       style="color-interpolation-filters:sRGB"
       id="filter3"
       x="-0.024626484"
       y="-0.029879835"
       width="1.049253"
       height="1.0597597">
      <feGaussianBlur
         stdDeviation="1.6344912"
         id="feGaussianBlur3" />
    </filter>
  </defs>
  <g
     id="g3"
     transform="translate(1.5810289,1.5809818)">
    <path
       id="path1"
       d="m -223.15096,31.927752 -7.17969,7.179687 v 35.638672 l 9.25195,-9.246094 h 40 l 11.42969,-11.427734 h 89.357424 l 9.25,9.248047 V 50.537127 l -7.179688,-7.179688 H -179.61581 v -4.25 l -7.17968,-7.179687 z m 2.07031,5 h 32.21484 l 4.25,4.25 v 7.179687 h 104.324224 l 0.714843,0.714844 h -92.142577 l -11.42969,11.427734 h -40 l -2.18164,2.181641 V 41.177752 Z m 49.35742,24.142578 -11.42773,11.429687 h -40 l -7.17969,7.177735 -0.002,76.357418 7.17969,7.17774 h 144.929683 l 7.179687,-7.17774 V 68.250017 l -7.179687,-7.179687 z m 2.07032,5 h 89.35937 l 4.25,4.25 v 83.64258 l -4.25,4.25 H -221.0826 l -4.25,-4.25 0.002,-72.212893 4.25,-4.25 h 40 z m 30.41406,16.521484 c -1.28824,-0.04253 -2.37607,0.70852 -3.00781,1.802735 l -30.25196,52.398441 c -0.84153,1.4576 -0.70177,3.50888 0.89649,4.43164 1.59902,0.92321 3.44526,0.0186 4.28711,-1.43946 l 30.25,-52.398434 c 0.84074,-1.456214 0.70473,-3.50829 -0.89454,-4.43164 -0.40209,-0.232139 -0.85199,-0.349175 -1.27929,-0.363282 z m -18.5586,53.013676 c -0.8746,0 -1.69375,0.22867 -2.37695,0.70312 -0.6832,0.47446 -1.27148,1.296 -1.27148,2.28906 0,0.99305 0.58829,1.81462 1.27148,2.28907 0.6832,0.47445 1.50235,0.70312 2.37695,0.70312 h 25.77344 c 0.8746,0 1.69181,-0.22867 2.375,-0.70312 0.6832,-0.47446 1.27344,-1.29602 1.27344,-2.28907 0,-0.99305 -0.59024,-1.8146 -1.27344,-2.28906 -0.68319,-0.47445 -1.50041,-0.70312 -2.375,-0.70312 z"
       transform="translate(232.6744,-29.585955)"
       style="display:inline;opacity:0.6;fill:#00abff;fill-opacity:1;filter:url(#filter3)" />
    <path
       id="path2"
       d="m -223.15096,31.927752 -7.17969,7.179687 v 35.638672 l 9.25195,-9.246094 h 40 l 11.42969,-11.427734 h 89.357424 l 9.25,9.248047 V 50.537127 l -7.179688,-7.179688 H -179.61581 v -4.25 l -7.17968,-7.179687 z m 2.07031,5 h 32.21484 l 4.25,4.25 v 7.179687 h 104.324224 l 0.714843,0.714844 h -92.142577 l -11.42969,11.427734 h -40 l -2.18164,2.181641 V 41.177752 Z m 49.35742,24.142578 -11.42773,11.429687 h -40 l -7.17969,7.177735 -0.002,76.357418 7.17969,7.17774 h 144.929683 l 7.179687,-7.17774 V 68.250017 l -7.179687,-7.179687 z m 2.07032,5 h 89.35937 l 4.25,4.25 v 83.64258 l -4.25,4.25 H -221.0826 l -4.25,-4.25 0.002,-72.212893 4.25,-4.25 h 40 z m 30.41406,16.521484 c -1.28824,-0.04253 -2.37607,0.70852 -3.00781,1.802735 l -30.25196,52.398441 c -0.84153,1.4576 -0.70177,3.50888 0.89649,4.43164 1.59902,0.92321 3.44526,0.0186 4.28711,-1.43946 l 30.25,-52.398434 c 0.84074,-1.456214 0.70473,-3.50829 -0.89454,-4.43164 -0.40209,-0.232139 -0.85199,-0.349175 -1.27929,-0.363282 z m -18.5586,53.013676 c -0.8746,0 -1.69375,0.22867 -2.37695,0.70312 -0.6832,0.47446 -1.27148,1.296 -1.27148,2.28906 0,0.99305 0.58829,1.81462 1.27148,2.28907 0.6832,0.47445 1.50235,0.70312 2.37695,0.70312 h 25.77344 c 0.8746,0 1.69181,-0.22867 2.375,-0.70312 0.6832,-0.47446 1.27344,-1.29602 1.27344,-2.28907 0,-0.99305 -0.59024,-1.8146 -1.27344,-2.28906 -0.68319,-0.47445 -1.50041,-0.70312 -2.375,-0.70312 z"
       transform="translate(232.6744,-29.585955)"
       style="fill:url(#linearGradient3);fill-opacity:1" />
  </g>
</svg>
