<?xml version="1.0" encoding="UTF-8" standalone="no"?>
<svg
   width="167.13663"
   height="139.13072"
   version="1.1"
   id="svg158"
   xmlns:xlink="http://www.w3.org/1999/xlink"
   xmlns="http://www.w3.org/2000/svg"
   xmlns:svg="http://www.w3.org/2000/svg"
   xmlns:rdf="http://www.w3.org/1999/02/22-rdf-syntax-ns#"
   xmlns:cc="http://creativecommons.org/ns#"
   xmlns:dc="http://purl.org/dc/elements/1.1/">
  <metadata
     id="metadata1">
    <rdf:RDF>
      <cc:Work
         rdf:about="">
        <dc:format>image/svg+xml</dc:format>
        <dc:type
           rdf:resource="http://purl.org/dc/dcmitype/StillImage" />
        <dc:title />
      </cc:Work>
    </rdf:RDF>
  </metadata>
  <defs
     id="defs54">
    <linearGradient
       id="linearGradient2">
      <stop
         style="stop-color:#00abff;stop-opacity:0;"
         offset="0"
         id="stop3" />
      <stop
         style="stop-color:#00abff;stop-opacity:1;"
         offset="1"
         id="stop2" />
    </linearGradient>
    <style
       type="text/css"
       id="style1" />
    <style
       id="current-color-scheme"
       type="text/css">.ColorScheme-Text {
        color:#4d4d4d;
      }</style>
    <style
       type="text/css"
       id="style2">.ColorScheme-Text {
        color:#4d4d4d;
      }</style>
    <style
       type="text/css"
       id="style49" />
    <style
       type="text/css"
       id="style50" />
    <linearGradient
       xlink:href="#linearGradient2"
       id="linearGradient3"
       x1="-120.81902"
       y1="171.71246"
       x2="-120.81902"
       y2="87.063591"
       gradientUnits="userSpaceOnUse" />
    <filter
       style="color-interpolation-filters:sRGB"
       id="filter3"
       x="-0.024626484"
       y="-0.029879835"
       width="1.049253"
       height="1.0597597">
      <feGaussianBlur
         stdDeviation="1.6344912"
         id="feGaussianBlur3" />
    </filter>
  </defs>
  <g
     id="g3"
     transform="translate(1.5810289,1.5809818)">
    <path
       id="path1"
       d="m -192.46096,31.927752 -7.17969,7.179687 v 35.638672 l 9.25195,-9.246094 h 40 l 11.42969,-11.427734 h 89.357424 l 9.25,9.248047 V 50.537127 l -7.177735,-7.179688 H -148.92581 v -4.25 l -7.17773,-7.179687 z m 2.07031,5 h 32.21484 l 4.25,4.25 v 7.179687 h 104.324224 l 0.714843,0.714844 h -92.142577 l -11.42969,11.427734 h -40 l -2.18164,2.181641 V 41.177752 Z m 49.35938,24.142578 -11.42969,11.429687 h -40 l -7.17969,7.177735 -0.002,76.357418 7.17969,7.17774 h 144.929683 l 7.179687,-7.17774 V 68.250017 l -7.179687,-7.179687 z m 2.07031,5 h 89.35742 l 4.25,4.25 v 83.64258 l -4.25,4.25 H -190.3926 l -4.25,-4.25 0.002,-72.212893 4.25,-4.25 h 40 z m 1.32031,19.162109 c -3.81285,0 -6.92773,3.117494 -6.92773,6.929688 v 46.140623 c 0,3.8122 3.11488,6.92969 6.92773,6.92969 h 35.28516 c 3.812842,0 6.929685,-3.11684 6.929685,-6.92969 V 92.162127 c 0,-3.812842 -3.116844,-6.929688 -6.929685,-6.929688 h -8.14649 -0.002 c -1.55608,0.0064 -2.84608,1.301323 -2.8457,2.857422 -3.8e-4,1.556098 1.28962,2.851069 2.8457,2.857422 h 0.002 c 0.004,9e-6 0.009,9e-6 0.0137,0 h 8.13282 c 0.69819,0 1.21484,0.516741 1.21484,1.214844 v 46.140623 c 0,0.69819 -0.51674,1.21485 -1.21484,1.21485 h -35.28516 c -0.69821,0 -1.21484,-0.51674 -1.21484,-1.21485 V 92.162127 c 0,-0.698193 0.51672,-1.214844 1.21484,-1.214844 h 10.85156 c 0.003,2e-6 0.007,6e-6 0.01,0 h 0.002 c 1.55608,-0.0064 2.84609,-1.301324 2.84571,-2.857422 3.8e-4,-1.556099 -1.28963,-2.85107 -2.84571,-2.857422 h -0.002 -0.01 z m 17.63867,0 c -1.55732,0 -2.85741,1.300091 -2.85742,2.857422 v 36.525389 l -6.63867,-6.63867 c -1.10134,-1.10134 -2.93968,-1.10132 -4.04102,0 -1.10133,1.10135 -1.10133,2.93967 0,4.04102 l 11.44141,11.43945 0.0195,0.0195 c 0.0181,0.0202 0.0131,0.0186 0.0469,0.0527 l 0.002,0.004 0.006,0.004 0.002,0.002 c 0.97256,0.97255 2.5105,1.09863 3.6211,0.3457 l 0.11718,-0.0801 0.0996,-0.0996 0.004,-0.004 c 0.0662,-0.0545 0.13172,-0.0966 0.19726,-0.16211 l 11.51563,-11.51563 c 1.10135,-1.10134 1.10132,-2.93967 0,-4.04101 -1.10134,-1.10134 -2.93968,-1.10132 -4.04102,0 l -6.63867,6.63867 V 88.089861 c 0,-1.554724 -1.29816,-2.857422 -2.85547,-2.857422 z"
       transform="translate(201.9844,-29.585955)"
       style="display:inline;opacity:0.6;fill:#00abff;fill-opacity:1;filter:url(#filter3)" />
    <path
       id="path2"
       d="m -192.46096,31.927752 -7.17969,7.179687 v 35.638672 l 9.25195,-9.246094 h 40 l 11.42969,-11.427734 h 89.357424 l 9.25,9.248047 V 50.537127 l -7.177735,-7.179688 H -148.92581 v -4.25 l -7.17773,-7.179687 z m 2.07031,5 h 32.21484 l 4.25,4.25 v 7.179687 h 104.324224 l 0.714843,0.714844 h -92.142577 l -11.42969,11.427734 h -40 l -2.18164,2.181641 V 41.177752 Z m 49.35938,24.142578 -11.42969,11.429687 h -40 l -7.17969,7.177735 -0.002,76.357418 7.17969,7.17774 h 144.929683 l 7.179687,-7.17774 V 68.250017 l -7.179687,-7.179687 z m 2.07031,5 h 89.35742 l 4.25,4.25 v 83.64258 l -4.25,4.25 H -190.3926 l -4.25,-4.25 0.002,-72.212893 4.25,-4.25 h 40 z m 1.32031,19.162109 c -3.81285,0 -6.92773,3.117494 -6.92773,6.929688 v 46.140623 c 0,3.8122 3.11488,6.92969 6.92773,6.92969 h 35.28516 c 3.812842,0 6.929685,-3.11684 6.929685,-6.92969 V 92.162127 c 0,-3.812842 -3.116844,-6.929688 -6.929685,-6.929688 h -8.14649 -0.002 c -1.55608,0.0064 -2.84608,1.301323 -2.8457,2.857422 -3.8e-4,1.556098 1.28962,2.851069 2.8457,2.857422 h 0.002 c 0.004,9e-6 0.009,9e-6 0.0137,0 h 8.13282 c 0.69819,0 1.21484,0.516741 1.21484,1.214844 v 46.140623 c 0,0.69819 -0.51674,1.21485 -1.21484,1.21485 h -35.28516 c -0.69821,0 -1.21484,-0.51674 -1.21484,-1.21485 V 92.162127 c 0,-0.698193 0.51672,-1.214844 1.21484,-1.214844 h 10.85156 c 0.003,2e-6 0.007,6e-6 0.01,0 h 0.002 c 1.55608,-0.0064 2.84609,-1.301324 2.84571,-2.857422 3.8e-4,-1.556099 -1.28963,-2.85107 -2.84571,-2.857422 h -0.002 -0.01 z m 17.63867,0 c -1.55732,0 -2.85741,1.300091 -2.85742,2.857422 v 36.525389 l -6.63867,-6.63867 c -1.10134,-1.10134 -2.93968,-1.10132 -4.04102,0 -1.10133,1.10135 -1.10133,2.93967 0,4.04102 l 11.44141,11.43945 0.0195,0.0195 c 0.0181,0.0202 0.0131,0.0186 0.0469,0.0527 l 0.002,0.004 0.006,0.004 0.002,0.002 c 0.97256,0.97255 2.5105,1.09863 3.6211,0.3457 l 0.11718,-0.0801 0.0996,-0.0996 0.004,-0.004 c 0.0662,-0.0545 0.13172,-0.0966 0.19726,-0.16211 l 11.51563,-11.51563 c 1.10135,-1.10134 1.10132,-2.93967 0,-4.04101 -1.10134,-1.10134 -2.93968,-1.10132 -4.04102,0 l -6.63867,6.63867 V 88.089861 c 0,-1.554724 -1.29816,-2.857422 -2.85547,-2.857422 z"
       transform="translate(201.9844,-29.585955)"
       style="fill:url(#linearGradient3);fill-opacity:1" />
  </g>
</svg>
