<?xml version="1.0" encoding="UTF-8" standalone="no"?>
<svg
   width="163.97464"
   height="135.96873"
   version="1.1"
   id="svg18"
   xmlns:xlink="http://www.w3.org/1999/xlink"
   xmlns="http://www.w3.org/2000/svg"
   xmlns:svg="http://www.w3.org/2000/svg"
   xmlns:rdf="http://www.w3.org/1999/02/22-rdf-syntax-ns#"
   xmlns:cc="http://creativecommons.org/ns#"
   xmlns:dc="http://purl.org/dc/elements/1.1/">
  <metadata
     id="metadata1">
    <rdf:RDF>
      <cc:Work
         rdf:about="">
        <dc:format>image/svg+xml</dc:format>
        <dc:type
           rdf:resource="http://purl.org/dc/dcmitype/StillImage" />
        <dc:title />
      </cc:Work>
    </rdf:RDF>
  </metadata>
  <defs
     id="defs13">
    <linearGradient
       id="linearGradient22">
      <stop
         style="stop-color:#00abff;stop-opacity:0;"
         offset="0"
         id="stop23" />
      <stop
         style="stop-color:#00abff;stop-opacity:1;"
         offset="1"
         id="stop22" />
    </linearGradient>
    <style
       id="current-color-scheme"
       type="text/css">.ColorScheme-Text {
        color:#4d4d4d;
      }</style>
    <style
       type="text/css"
       id="style9">.ColorScheme-Text {
        color:#4d4d4d;
      }</style>
    <linearGradient
       xlink:href="#linearGradient22"
       id="linearGradient23"
       x1="-121.18304"
       y1="199.99709"
       x2="-121.18304"
       y2="88.040558"
       gradientUnits="userSpaceOnUse" />
    <filter
       style="color-interpolation-filters:sRGB"
       id="filter23"
       x="-0.024580925"
       y="-0.029947182"
       width="1.0491619"
       height="1.0598944">
      <feGaussianBlur
         stdDeviation="1.6007413"
         id="feGaussianBlur23" />
    </filter>
  </defs>
  <g
     id="g23"
     transform="translate(-18.015591,-29.587909)">
    <path
       id="path1"
       style="display:inline;opacity:0.6;fill:#00abff;fill-opacity:1;filter:url(#filter23)"
       d="m -194.10984,33.42677 -6.30079,6.300781 v 31.398437 l 7.13086,-7.126953 h 40 l 11.42969,-11.427734 h 90.599611 l 7.128906,7.126953 v -8.541016 l -6.300781,-6.300781 H -152.69578 v -5.128906 l -6.30078,-6.300781 z m 0.82812,2 h 33.45703 l 5.12891,5.128906 v 6.300781 h 103.445311 l 5.128906,5.128906 v 2.884766 l -4.300781,-4.298828 H -142.6782 l -11.42969,11.427734 h -40 l -4.30274,4.300781 v -25.74414 z m 50.59961,27.142578 -11.42773,11.429687 h -40 l -6.30079,6.298828 -0.002,75.115237 6.30078,6.29883 h 143.687503 l 6.300781,-6.29883 V 68.870129 l -6.300781,-6.300781 z m 0.83008,2 h 90.599608 l 5.128906,5.128906 v 84.884766 l -5.128906,5.12891 H -193.28367 l -5.12891,-5.12891 0.002,-73.455079 5.12891,-5.128906 h 40 z m 3.29101,21.27539 c -3.92843,0 -7.13867,3.210139 -7.13867,7.138672 v 43.43164 c 0,3.92843 3.21014,7.13867 7.13867,7.13867 h 25.13672 L -98.850078,128.9795 V 92.985363 c 0,-3.928552 -3.212092,-7.140625 -7.140622,-7.140625 z m -0.01,3.423828 h 32.58008 c 2.09361,0 3.71875,1.621537 3.71875,3.714844 v 33.57227 h -6.88868 c -3.19732,0 -5.7832,2.58367 -5.7832,5.78125 v 7.79296 h -23.61719 c -2.09361,0 -3.71679,-1.62348 -3.71679,-3.71679 V 92.98341 c 0,-2.089919 1.61847,-3.709435 3.70703,-3.714844 z m 2.73047,5.076172 v 2.712891 h 27.14258 v -2.712891 z m 0,8.144532 v 2.71484 h 27.14258 v -2.71484 z m 0,8.14062 v 2.71485 h 27.14258 v -2.71485 z m 0,8.14063 v 2.71289 h 16.28711 v -2.71289 z"
       transform="translate(222.27,0.0029179)" />
    <path
       id="path22"
       style="fill:url(#linearGradient23);fill-opacity:1"
       d="m -194.10984,33.42677 -6.30079,6.300781 v 31.398437 l 7.13086,-7.126953 h 40 l 11.42969,-11.427734 h 90.599611 l 7.128906,7.126953 v -8.541016 l -6.300781,-6.300781 H -152.69578 v -5.128906 l -6.30078,-6.300781 z m 0.82812,2 h 33.45703 l 5.12891,5.128906 v 6.300781 h 103.445311 l 5.128906,5.128906 v 2.884766 l -4.300781,-4.298828 H -142.6782 l -11.42969,11.427734 h -40 l -4.30274,4.300781 v -25.74414 z m 50.59961,27.142578 -11.42773,11.429687 h -40 l -6.30079,6.298828 -0.002,75.115237 6.30078,6.29883 h 143.687503 l 6.300781,-6.29883 V 68.870129 l -6.300781,-6.300781 z m 0.83008,2 h 90.599608 l 5.128906,5.128906 v 84.884766 l -5.128906,5.12891 H -193.28367 l -5.12891,-5.12891 0.002,-73.455079 5.12891,-5.128906 h 40 z m 3.29101,21.27539 c -3.92843,0 -7.13867,3.210139 -7.13867,7.138672 v 43.43164 c 0,3.92843 3.21014,7.13867 7.13867,7.13867 h 25.13672 L -98.850078,128.9795 V 92.985363 c 0,-3.928552 -3.212092,-7.140625 -7.140622,-7.140625 z m -0.01,3.423828 h 32.58008 c 2.09361,0 3.71875,1.621537 3.71875,3.714844 v 33.57227 h -6.88868 c -3.19732,0 -5.7832,2.58367 -5.7832,5.78125 v 7.79296 h -23.61719 c -2.09361,0 -3.71679,-1.62348 -3.71679,-3.71679 V 92.98341 c 0,-2.089919 1.61847,-3.709435 3.70703,-3.714844 z m 2.73047,5.076172 v 2.712891 h 27.14258 v -2.712891 z m 0,8.144532 v 2.71484 h 27.14258 v -2.71484 z m 0,8.14062 v 2.71485 h 27.14258 v -2.71485 z m 0,8.14063 v 2.71289 h 16.28711 v -2.71289 z"
       transform="translate(222.27,0.0029179)" />
  </g>
</svg>
