<?xml version="1.0" encoding="UTF-8" standalone="no"?>
<svg
   width="167.13663"
   height="139.13072"
   version="1.1"
   id="svg14"
   xmlns:xlink="http://www.w3.org/1999/xlink"
   xmlns="http://www.w3.org/2000/svg"
   xmlns:svg="http://www.w3.org/2000/svg"
   xmlns:rdf="http://www.w3.org/1999/02/22-rdf-syntax-ns#"
   xmlns:cc="http://creativecommons.org/ns#"
   xmlns:dc="http://purl.org/dc/elements/1.1/">
  <metadata
     id="metadata1">
    <rdf:RDF>
      <cc:Work
         rdf:about="">
        <dc:format>image/svg+xml</dc:format>
        <dc:type
           rdf:resource="http://purl.org/dc/dcmitype/StillImage" />
        <dc:title />
      </cc:Work>
    </rdf:RDF>
  </metadata>
  <defs
     id="defs5">
    <linearGradient
       id="linearGradient2">
      <stop
         style="stop-color:#00abff;stop-opacity:0;"
         offset="0"
         id="stop3" />
      <stop
         style="stop-color:#00abff;stop-opacity:1;"
         offset="1"
         id="stop2" />
    </linearGradient>
    <style
       id="current-color-scheme"
       type="text/css">.ColorScheme-Text {
        color:#4d4d4d;
      }</style>
    <style
       type="text/css"
       id="style1">.ColorScheme-Text {
        color:#4d4d4d;
      }</style>
    <linearGradient
       xlink:href="#linearGradient2"
       id="linearGradient3"
       x1="-118.87522"
       y1="170.66742"
       x2="-118.87522"
       y2="85.670189"
       gradientUnits="userSpaceOnUse" />
    <filter
       style="color-interpolation-filters:sRGB"
       id="filter3"
       x="-0.024626484"
       y="-0.029879835"
       width="1.049253"
       height="1.0597597">
      <feGaussianBlur
         stdDeviation="1.6344912"
         id="feGaussianBlur3" />
    </filter>
  </defs>
  <g
     id="g3"
     transform="translate(1.5810289,1.5809818)">
    <path
       id="path1"
       d="m -194.35096,31.927752 -7.17774,7.179687 v 35.638672 l 9.25195,-9.246094 h 40 l 11.42774,-11.427734 h 89.359374 l 9.25,9.248047 V 50.537127 l -7.179688,-7.179688 H -150.81386 v -4.25 l -7.17968,-7.179687 z m 2.07031,5 h 32.21679 l 4.25,4.25 v 7.179687 h 104.324224 l 0.714843,0.714844 h -92.144527 l -11.42969,11.427734 h -39.99805 l -2.18164,2.181641 V 41.177752 Z m 49.35937,24.142578 -11.42968,11.429687 h -40 l -7.17774,7.177735 -0.002,76.357418 7.17773,7.17774 h 144.931643 l 7.177734,-7.17774 V 68.250017 l -7.177734,-7.179687 z m 2.07032,5 h 89.35937 l 4.248047,4.25 v 83.64258 l -4.248047,4.25 h -140.78906 l -4.25,-4.25 0.002,-72.212893 4.25,-4.25 h 39.99805 z m -1.85938,18.429687 v 58.498043 h 19.89063 V 84.500017 Z m 28.64648,0 c -1.02675,0 -1.92336,0.2464 -2.60937,0.707032 -0.68601,0.460633 -1.10331,1.087511 -1.35938,1.599609 -0.55924,1.11891 -0.54687,2.193359 -0.54687,2.193359 v 0.0078 36.597663 l 0.0625,0.29882 0.004,0.0156 c 0.11567,0.50505 0.50906,2.04559 1.41015,4.69141 1.01532,2.98154 4.11589,8.579 5.93164,12.08007 l 1.33008,2.56641 1.33203,-2.56836 c 1.81328,-3.49765 4.91602,-9.09526 5.93164,-12.07812 0.90117,-2.64654 1.2988,-4.19899 1.41211,-4.69141 l 0.004,-0.0137 0.0606,-0.29883 V 89.015642 c 0,-1.026747 -0.24641,-1.923362 -0.70704,-2.609375 -0.46064,-0.686012 -1.08555,-1.103306 -1.59765,-1.359375 -1.12007,-0.559743 -2.19727,-0.546875 -2.19727,-0.546875 h -0.008 z m -23.23242,5.41211 h 9.06446 v 1.826172 h -4.82618 v 5.414062 h 4.82618 v 4.238279 h -4.82618 v 5.41406 h 4.82618 v 4.23829 h -4.82618 v 5.41211 h 4.82618 v 4.24023 h -4.82618 v 5.41211 h 4.82618 v 4.24023 h -4.82618 v 5.41211 h 4.82618 v 1.82618 h -9.06446 z m 24.12891,0 h 6.65234 v 4.240234 h -6.65234 z m 0,33.783203 h 6.65234 v 1.25195 c -0.0803,0.33521 -0.38941,1.57427 -1.1875,3.91797 -0.21319,0.62616 -1.2861,2.71116 -2.13867,4.42969 -0.85239,-1.71816 -1.92534,-3.80317 -2.13867,-4.42969 -0.79978,-2.34829 -1.10842,-3.58709 -1.1875,-3.91797 z"
       transform="translate(203.87245,-29.585955)"
       style="display:inline;opacity:0.6;fill:#00abff;fill-opacity:1;filter:url(#filter3)" />
    <path
       id="path2"
       d="m -194.35096,31.927752 -7.17774,7.179687 v 35.638672 l 9.25195,-9.246094 h 40 l 11.42774,-11.427734 h 89.359374 l 9.25,9.248047 V 50.537127 l -7.179688,-7.179688 H -150.81386 v -4.25 l -7.17968,-7.179687 z m 2.07031,5 h 32.21679 l 4.25,4.25 v 7.179687 h 104.324224 l 0.714843,0.714844 h -92.144527 l -11.42969,11.427734 h -39.99805 l -2.18164,2.181641 V 41.177752 Z m 49.35937,24.142578 -11.42968,11.429687 h -40 l -7.17774,7.177735 -0.002,76.357418 7.17773,7.17774 h 144.931643 l 7.177734,-7.17774 V 68.250017 l -7.177734,-7.179687 z m 2.07032,5 h 89.35937 l 4.248047,4.25 v 83.64258 l -4.248047,4.25 h -140.78906 l -4.25,-4.25 0.002,-72.212893 4.25,-4.25 h 39.99805 z m -1.85938,18.429687 v 58.498043 h 19.89063 V 84.500017 Z m 28.64648,0 c -1.02675,0 -1.92336,0.2464 -2.60937,0.707032 -0.68601,0.460633 -1.10331,1.087511 -1.35938,1.599609 -0.55924,1.11891 -0.54687,2.193359 -0.54687,2.193359 v 0.0078 36.597663 l 0.0625,0.29882 0.004,0.0156 c 0.11567,0.50505 0.50906,2.04559 1.41015,4.69141 1.01532,2.98154 4.11589,8.579 5.93164,12.08007 l 1.33008,2.56641 1.33203,-2.56836 c 1.81328,-3.49765 4.91602,-9.09526 5.93164,-12.07812 0.90117,-2.64654 1.2988,-4.19899 1.41211,-4.69141 l 0.004,-0.0137 0.0606,-0.29883 V 89.015642 c 0,-1.026747 -0.24641,-1.923362 -0.70704,-2.609375 -0.46064,-0.686012 -1.08555,-1.103306 -1.59765,-1.359375 -1.12007,-0.559743 -2.19727,-0.546875 -2.19727,-0.546875 h -0.008 z m -23.23242,5.41211 h 9.06446 v 1.826172 h -4.82618 v 5.414062 h 4.82618 v 4.238279 h -4.82618 v 5.41406 h 4.82618 v 4.23829 h -4.82618 v 5.41211 h 4.82618 v 4.24023 h -4.82618 v 5.41211 h 4.82618 v 4.24023 h -4.82618 v 5.41211 h 4.82618 v 1.82618 h -9.06446 z m 24.12891,0 h 6.65234 v 4.240234 h -6.65234 z m 0,33.783203 h 6.65234 v 1.25195 c -0.0803,0.33521 -0.38941,1.57427 -1.1875,3.91797 -0.21319,0.62616 -1.2861,2.71116 -2.13867,4.42969 -0.85239,-1.71816 -1.92534,-3.80317 -2.13867,-4.42969 -0.79978,-2.34829 -1.10842,-3.58709 -1.1875,-3.91797 z"
       transform="translate(203.87245,-29.585955)"
       style="fill:url(#linearGradient3);fill-opacity:1" />
  </g>
</svg>
