<?xml version="1.0" encoding="UTF-8" standalone="no"?>
<svg
   width="167.13663"
   height="139.13072"
   version="1.1"
   id="svg19"
   xmlns:xlink="http://www.w3.org/1999/xlink"
   xmlns="http://www.w3.org/2000/svg"
   xmlns:svg="http://www.w3.org/2000/svg"
   xmlns:rdf="http://www.w3.org/1999/02/22-rdf-syntax-ns#"
   xmlns:cc="http://creativecommons.org/ns#"
   xmlns:dc="http://purl.org/dc/elements/1.1/">
  <metadata
     id="metadata1">
    <rdf:RDF>
      <cc:Work
         rdf:about="">
        <dc:format>image/svg+xml</dc:format>
        <dc:type
           rdf:resource="http://purl.org/dc/dcmitype/StillImage" />
        <dc:title />
      </cc:Work>
    </rdf:RDF>
  </metadata>
  <defs
     id="defs5">
    <linearGradient
       id="linearGradient2">
      <stop
         style="stop-color:#00abff;stop-opacity:0;"
         offset="0"
         id="stop3" />
      <stop
         style="stop-color:#00abff;stop-opacity:1;"
         offset="1"
         id="stop2" />
    </linearGradient>
    <style
       id="current-color-scheme"
       type="text/css">.ColorScheme-Text {
        color:#4d4d4d;
      }</style>
    <style
       type="text/css"
       id="style1">.ColorScheme-Text {
        color:#4d4d4d;
      }</style>
    <linearGradient
       xlink:href="#linearGradient2"
       id="linearGradient3"
       x1="-140.47067"
       y1="171.01576"
       x2="-140.47067"
       y2="88.805336"
       gradientUnits="userSpaceOnUse" />
    <filter
       style="color-interpolation-filters:sRGB"
       id="filter3"
       x="-0.024626484"
       y="-0.029879835"
       width="1.049253"
       height="1.0597597">
      <feGaussianBlur
         stdDeviation="1.6344912"
         id="feGaussianBlur3" />
    </filter>
  </defs>
  <g
     id="g3"
     transform="translate(1.5810289,1.5809818)">
    <path
       id="path1"
       d="m -212.46096,31.927752 -7.17969,7.179687 v 35.638672 l 9.25195,-9.246094 h 40 l 11.42969,-11.427734 h 89.357424 l 9.25,9.248047 V 50.537127 l -7.177735,-7.179688 H -168.92581 v -4.25 l -7.17773,-7.179687 z m 2.07031,5 h 32.21484 l 4.25,4.25 v 7.179687 h 104.324224 l 0.714843,0.714844 h -92.142577 l -11.42969,11.427734 h -40 l -2.18164,2.181641 V 41.177752 Z m 49.35938,24.142578 -11.42969,11.429687 h -40 l -7.17969,7.177735 -0.002,76.357418 7.17969,7.17774 h 144.929683 l 7.179687,-7.17774 V 68.250017 l -7.179687,-7.179687 z m 2.07031,5 h 89.35742 l 4.25,4.25 v 83.64258 l -4.25,4.25 H -210.3926 l -4.25,-4.25 0.002,-72.212893 4.25,-4.25 h 40 z m 18.96289,16.478516 c -16.55062,3.35e-4 -29.99966,13.449375 -30,30.000004 3.4e-4,16.55062 13.44938,29.99966 30,30 16.55063,-3.4e-4 29.99967,-13.44938 30,-30 -3.3e-4,-16.550629 -13.44937,-29.999669 -30,-30.000004 z m 0,6 c 13.27255,1.44e-4 23.99986,10.727448 24,24.000004 -1.4e-4,13.27255 -10.72745,23.99985 -24,24 -13.27255,-1.5e-4 -23.99985,-10.72745 -24,-24 1.5e-4,-13.272556 10.72745,-23.99986 24,-24.000004 z m 0,6 c -1.63602,0 -3,1.363969 -3,3 v 17.705074 l 0.0312,-0.30078 c -0.25185,1.23075 0.30337,2.54249 1.4375,3.19727 l 15.58789,9 c 1.41756,0.81843 3.28063,0.32084 4.09961,-1.09766 0.81945,-1.41931 0.3179,-3.28122 -1.09961,-4.09961 l -14.05664,-8.11328 V 97.548846 c 0,-1.636019 -1.36397,-3 -3,-3 z"
       transform="translate(221.9844,-29.585955)"
       style="display:inline;opacity:0.6;fill:#00abff;fill-opacity:1;filter:url(#filter3)" />
    <path
       id="path2"
       d="m -212.46096,31.927752 -7.17969,7.179687 v 35.638672 l 9.25195,-9.246094 h 40 l 11.42969,-11.427734 h 89.357424 l 9.25,9.248047 V 50.537127 l -7.177735,-7.179688 H -168.92581 v -4.25 l -7.17773,-7.179687 z m 2.07031,5 h 32.21484 l 4.25,4.25 v 7.179687 h 104.324224 l 0.714843,0.714844 h -92.142577 l -11.42969,11.427734 h -40 l -2.18164,2.181641 V 41.177752 Z m 49.35938,24.142578 -11.42969,11.429687 h -40 l -7.17969,7.177735 -0.002,76.357418 7.17969,7.17774 h 144.929683 l 7.179687,-7.17774 V 68.250017 l -7.179687,-7.179687 z m 2.07031,5 h 89.35742 l 4.25,4.25 v 83.64258 l -4.25,4.25 H -210.3926 l -4.25,-4.25 0.002,-72.212893 4.25,-4.25 h 40 z m 18.96289,16.478516 c -16.55062,3.35e-4 -29.99966,13.449375 -30,30.000004 3.4e-4,16.55062 13.44938,29.99966 30,30 16.55063,-3.4e-4 29.99967,-13.44938 30,-30 -3.3e-4,-16.550629 -13.44937,-29.999669 -30,-30.000004 z m 0,6 c 13.27255,1.44e-4 23.99986,10.727448 24,24.000004 -1.4e-4,13.27255 -10.72745,23.99985 -24,24 -13.27255,-1.5e-4 -23.99985,-10.72745 -24,-24 1.5e-4,-13.272556 10.72745,-23.99986 24,-24.000004 z m 0,6 c -1.63602,0 -3,1.363969 -3,3 v 17.705074 l 0.0312,-0.30078 c -0.25185,1.23075 0.30337,2.54249 1.4375,3.19727 l 15.58789,9 c 1.41756,0.81843 3.28063,0.32084 4.09961,-1.09766 0.81945,-1.41931 0.3179,-3.28122 -1.09961,-4.09961 l -14.05664,-8.11328 V 97.548846 c 0,-1.636019 -1.36397,-3 -3,-3 z"
       transform="translate(221.9844,-29.585955)"
       style="fill:url(#linearGradient3);fill-opacity:1" />
  </g>
</svg>
