<?xml version="1.0" encoding="UTF-8" standalone="no"?>
<svg
   width="163.97461"
   height="135.96872"
   version="1.1"
   id="svg14"
   xmlns:xlink="http://www.w3.org/1999/xlink"
   xmlns="http://www.w3.org/2000/svg"
   xmlns:svg="http://www.w3.org/2000/svg"
   xmlns:rdf="http://www.w3.org/1999/02/22-rdf-syntax-ns#"
   xmlns:cc="http://creativecommons.org/ns#"
   xmlns:dc="http://purl.org/dc/elements/1.1/">
  <metadata
     id="metadata1">
    <rdf:RDF>
      <cc:Work
         rdf:about="">
        <dc:format>image/svg+xml</dc:format>
        <dc:type
           rdf:resource="http://purl.org/dc/dcmitype/StillImage" />
        <dc:title />
      </cc:Work>
    </rdf:RDF>
  </metadata>
  <defs
     id="defs5">
    <linearGradient
       id="linearGradient14">
      <stop
         style="stop-color:#00abff;stop-opacity:0;"
         offset="0"
         id="stop15" />
      <stop
         style="stop-color:#00abff;stop-opacity:1;"
         offset="1"
         id="stop14" />
    </linearGradient>
    <style
       id="current-color-scheme"
       type="text/css">.ColorScheme-Text {
        color:#4d4d4d;
      }</style>
    <style
       type="text/css"
       id="style1">.ColorScheme-Text {
        color:#4d4d4d;
      }</style>
    <linearGradient
       xlink:href="#linearGradient14"
       id="linearGradient15"
       x1="-118.99145"
       y1="200"
       x2="-118.99145"
       y2="88.4058"
       gradientUnits="userSpaceOnUse" />
    <filter
       style="color-interpolation-filters:sRGB"
       id="filter15"
       x="-0.024580924"
       y="-0.029947181"
       width="1.0491618"
       height="1.0598944">
      <feGaussianBlur
         stdDeviation="1.6007412"
         id="feGaussianBlur15" />
    </filter>
  </defs>
  <g
     id="g15"
     transform="translate(-18.017551,-29.585955)">
    <path
       id="path9"
       style="display:inline;opacity:0.6;fill:#00abff;fill-opacity:1;filter:url(#filter15)"
       d="m -193.72984,33.427734 -6.29883,6.300782 V 71.126953 L -192.89781,64 h 40 l 11.42773,-11.427734 h 90.601564 l 7.128907,7.126953 v -8.541016 l -6.300782,-6.300781 H -152.31383 v -5.128906 l -6.30078,-6.300782 z m 0.82812,2 h 33.45899 l 5.1289,5.128907 v 6.300781 h 103.445314 l 5.128907,5.128906 v 2.884766 l -4.300782,-4.298828 H -142.2982 L -153.72789,62 h -39.99805 l -4.30273,4.300781 V 40.556641 Z M -142.30016,62.570312 -153.72984,74 h -40 l -6.29883,6.298828 -0.002,75.115232 6.29882,6.29883 h 143.689456 l 6.298828,-6.29883 V 68.871094 l -6.298828,-6.300782 z m 0.82813,2 h 90.601561 l 5.126953,5.128907 v 84.884761 l -5.126953,5.12891 H -192.90367 l -5.12695,-5.12891 0.002,-73.455074 L -192.90172,76 h 40 z M -141.21031,86 v 55.49805 h 16.89062 V 86 Z m 27.14648,0 c -1.60868,0 -2.24642,0.715563 -2.62695,1.476562 -0.38035,0.761 -0.38867,1.539063 -0.38867,1.539063 v 36.437495 l 0.0273,0.13282 c 0.0961,0.41958 0.48254,1.93775 1.36914,4.54101 0.88533,2.59983 4.01093,8.34283 5.8418,11.87305 1.82881,-3.52763 4.95848,-9.27304 5.84375,-11.87305 0.88647,-2.60338 1.27467,-4.13245 1.36914,-4.54297 l 0.0273,-0.13086 V 89.015625 c 0,-1.608687 -0.71556,-2.246423 -1.47656,-2.626953 C -104.83886,86.008184 -105.61852,86 -105.61852,86 Z m -24.73242,2.412109 h 12.06445 v 4.826172 h -4.82617 v 2.414063 h 4.82617 v 7.238276 h -4.82617 v 2.41407 h 4.82617 v 7.23828 h -4.82617 v 2.41211 h 4.82617 v 7.24023 h -4.82617 v 2.41211 h 4.82617 v 7.24024 h -4.82617 v 2.41211 h 4.82617 v 4.82617 h -12.06445 V 89.015625 Z m 24.12891,0 h 9.65234 v 7.240235 h -9.65234 z m 0,33.783201 h 9.65234 v 2.96094 c -0.0785,0.33357 -0.42737,1.72595 -1.26758,4.19336 -0.45581,1.33873 -2.00191,4.38596 -3.55859,7.39648 -1.55663,-3.01015 -3.1026,-6.05727 -3.5586,-7.39648 -0.84056,-2.46802 -1.18855,-3.85254 -1.26757,-4.18945 z"
       transform="translate(221.89)" />
    <path
       id="path14"
       style="fill:url(#linearGradient15);fill-opacity:1"
       d="m -193.72984,33.427734 -6.29883,6.300782 V 71.126953 L -192.89781,64 h 40 l 11.42773,-11.427734 h 90.601564 l 7.128907,7.126953 v -8.541016 l -6.300782,-6.300781 H -152.31383 v -5.128906 l -6.30078,-6.300782 z m 0.82812,2 h 33.45899 l 5.1289,5.128907 v 6.300781 h 103.445314 l 5.128907,5.128906 v 2.884766 l -4.300782,-4.298828 H -142.2982 L -153.72789,62 h -39.99805 l -4.30273,4.300781 V 40.556641 Z M -142.30016,62.570312 -153.72984,74 h -40 l -6.29883,6.298828 -0.002,75.115232 6.29882,6.29883 h 143.689456 l 6.298828,-6.29883 V 68.871094 l -6.298828,-6.300782 z m 0.82813,2 h 90.601561 l 5.126953,5.128907 v 84.884761 l -5.126953,5.12891 H -192.90367 l -5.12695,-5.12891 0.002,-73.455074 L -192.90172,76 h 40 z M -141.21031,86 v 55.49805 h 16.89062 V 86 Z m 27.14648,0 c -1.60868,0 -2.24642,0.715563 -2.62695,1.476562 -0.38035,0.761 -0.38867,1.539063 -0.38867,1.539063 v 36.437495 l 0.0273,0.13282 c 0.0961,0.41958 0.48254,1.93775 1.36914,4.54101 0.88533,2.59983 4.01093,8.34283 5.8418,11.87305 1.82881,-3.52763 4.95848,-9.27304 5.84375,-11.87305 0.88647,-2.60338 1.27467,-4.13245 1.36914,-4.54297 l 0.0273,-0.13086 V 89.015625 c 0,-1.608687 -0.71556,-2.246423 -1.47656,-2.626953 C -104.83886,86.008184 -105.61852,86 -105.61852,86 Z m -24.73242,2.412109 h 12.06445 v 4.826172 h -4.82617 v 2.414063 h 4.82617 v 7.238276 h -4.82617 v 2.41407 h 4.82617 v 7.23828 h -4.82617 v 2.41211 h 4.82617 v 7.24023 h -4.82617 v 2.41211 h 4.82617 v 7.24024 h -4.82617 v 2.41211 h 4.82617 v 4.82617 h -12.06445 V 89.015625 Z m 24.12891,0 h 9.65234 v 7.240235 h -9.65234 z m 0,33.783201 h 9.65234 v 2.96094 c -0.0785,0.33357 -0.42737,1.72595 -1.26758,4.19336 -0.45581,1.33873 -2.00191,4.38596 -3.55859,7.39648 -1.55663,-3.01015 -3.1026,-6.05727 -3.5586,-7.39648 -0.84056,-2.46802 -1.18855,-3.85254 -1.26757,-4.18945 z"
       transform="translate(221.89)" />
  </g>
</svg>
