<?xml version="1.0" encoding="UTF-8" standalone="no"?>
<svg
   width="167.13663"
   height="139.13072"
   version="1.1"
   id="svg22"
   xmlns:xlink="http://www.w3.org/1999/xlink"
   xmlns="http://www.w3.org/2000/svg"
   xmlns:svg="http://www.w3.org/2000/svg"
   xmlns:rdf="http://www.w3.org/1999/02/22-rdf-syntax-ns#"
   xmlns:cc="http://creativecommons.org/ns#"
   xmlns:dc="http://purl.org/dc/elements/1.1/">
  <metadata
     id="metadata1">
    <rdf:RDF>
      <cc:Work
         rdf:about="">
        <dc:format>image/svg+xml</dc:format>
        <dc:type
           rdf:resource="http://purl.org/dc/dcmitype/StillImage" />
        <dc:title />
      </cc:Work>
    </rdf:RDF>
  </metadata>
  <defs
     id="defs5">
    <linearGradient
       id="linearGradient2">
      <stop
         style="stop-color:#00abff;stop-opacity:0;"
         offset="0"
         id="stop3" />
      <stop
         style="stop-color:#00abff;stop-opacity:1;"
         offset="1"
         id="stop2" />
    </linearGradient>
    <style
       id="current-color-scheme"
       type="text/css">.ColorScheme-Text {
        color:#4d4d4d;
      }</style>
    <style
       type="text/css"
       id="style1">.ColorScheme-Text {
        color:#4d4d4d;
      }</style>
    <linearGradient
       xlink:href="#linearGradient2"
       id="linearGradient3"
       x1="100.57287"
       y1="169.27402"
       x2="100.57287"
       y2="89.502029"
       gradientUnits="userSpaceOnUse" />
    <filter
       style="color-interpolation-filters:sRGB"
       id="filter3"
       x="-0.024626484"
       y="-0.029879835"
       width="1.049253"
       height="1.0597597">
      <feGaussianBlur
         stdDeviation="1.6344912"
         id="feGaussianBlur3" />
    </filter>
  </defs>
  <g
     id="g3"
     transform="translate(1.5810288,1.5809818)">
    <path
       id="path1"
       d="m 27.535571,31.927752 -7.177734,7.179687 v 35.638672 l 9.251953,-9.246094 h 40 L 81.037525,54.072283 H 170.3969 l 9.25,9.248047 V 50.537127 l -7.17969,-7.179688 H 71.072681 v -4.25 l -7.179688,-7.179687 z m 2.072266,5 h 32.214844 l 4.25,4.25 v 7.179687 H 170.3969 l 0.71484,0.714844 H 78.967212 L 67.539478,60.500017 h -40 l -2.181641,2.181641 V 41.177752 Z M 78.965259,61.07033 67.535571,72.500017 h -40 l -7.177734,7.177735 -0.002,76.357418 7.177734,7.17774 H 172.46526 l 7.17969,-7.17774 V 68.250017 l -7.17969,-7.179687 z m 2.070312,5 h 89.359379 l 4.25,4.25 v 83.64258 l -4.25,4.25 H 29.605884 l -4.25,-4.25 0.002,-72.212893 4.25,-4.25 h 40 z m 18.962891,17.681641 c -1.042227,0 -2.058907,0.08194 -3.021484,0.18164 -0.002,1.85e-4 -0.0038,0.0018 -0.0059,0.002 -1.937804,0.176121 -3.853454,0.546976 -5.716797,1.107422 l -0.0078,0.002 -0.0078,0.002 C 81.960934,87.944633 74.69209,95.21294 71.793369,104.49039 l -0.002,0.008 -0.002,0.008 c -0.559146,1.86163 -0.929873,3.77511 -1.105469,5.71093 -0.113053,1.00267 -0.175479,2.01055 -0.185547,3.01954 v 0.008 0.008 c 0,1.04633 0.08566,2.06324 0.183594,3.02148 1.84e-4,0.002 0.0018,0.004 0.002,0.006 0.17545,1.93773 0.545721,3.85339 1.105469,5.7168 l 0.002,0.01 0.002,0.008 c 2.898145,9.27824 10.167067,16.54716 19.445312,19.44531 l 0.0078,0.002 0.0078,0.002 c 1.860203,0.56021 3.772423,0.93223 5.707032,1.10937 0.0025,2.5e-4 0.0053,-2.5e-4 0.0078,0 0.0027,2.5e-4 0.0051,0.002 0.0078,0.002 0.961974,0.0969 1.978958,0.17773 3.021484,0.17773 1.043186,0 2.060346,-0.0829 3.021486,-0.18164 0.002,-1.8e-4 0.004,-0.002 0.006,-0.002 1.93836,-0.17465 3.8546,-0.54238 5.71875,-1.10157 l 0.0137,-0.006 0.0137,-0.004 c 1.84961,-0.59404 3.63698,-1.36615 5.33789,-2.30469 6.75434,-3.65604 11.81358,-9.80742 14.09766,-17.14062 l 0.004,-0.008 0.002,-0.008 c 0.55922,-1.86427 0.92888,-3.78027 1.10351,-5.71875 0.10044,-0.96464 0.18164,-1.98418 0.18164,-3.02734 0,-1.04099 -0.0835,-2.06344 -0.18164,-3.02149 -1.9e-4,-0.002 -0.002,-0.004 -0.002,-0.006 -0.17477,-1.93766 -0.54251,-3.8533 -1.10156,-5.71679 l -0.002,-0.008 -0.004,-0.008 c -1.14587,-3.66853 -2.99169,-7.080264 -5.4375,-10.044919 h -0.002 c -0.64607,-0.7818 -1.3162,-1.413665 -1.93359,-2.03125 -2.64925,-2.649152 -5.76585,-4.861934 -9.31445,-6.359375 -0.90279,-0.380971 -1.82453,-0.717383 -2.75977,-1.009766 l -0.008,-0.002 -0.008,-0.0039 c -1.86034,-0.558826 -3.77257,-0.927714 -5.70704,-1.103516 -1.00334,-0.111214 -2.01205,-0.172767 -3.02148,-0.183593 h -0.008 z m -0.06055,4.302734 -1.054687,1.001953 0.427734,-0.960937 a 25.396,25.396 0 0 1 0.626953,-0.04102 z m 0.04102,1.498047 h 0.01953 c 3.067118,0 5.912818,0.727738 8.595708,1.783203 -0.0559,0.122736 -0.16793,0.193196 -0.18946,0.322266 v 0.002 c -0.0259,0.15613 0.0532,0.28577 0.0762,0.447265 -0.0594,0.133244 -0.13865,0.19339 -0.16211,0.332032 l -0.0937,0.55664 0.29493,0.480469 c 0.26758,0.434618 0.81594,0.782805 1.25976,0.865234 0.22234,0.0413 0.33544,-0.01136 0.5,-0.02734 l -0.0488,0.208984 0.22852,0.478516 c 0.01,0.0205 0.0322,0.02299 0.043,0.04297 -0.57566,0.0246 -1.49486,0.287535 -1.9707,1.035157 l -0.26172,0.410156 0.0312,0.488281 c 0.0326,0.525977 0.053,0.496858 0.043,0.544922 -0.13092,0.171734 -0.42843,0.506163 -0.39063,1.195312 0.0481,0.871316 0.27608,0.863025 0.3418,0.945313 -0.007,0.159559 -0.0953,0.194866 0.0957,0.552728 0.0308,0.0572 0.1317,0.0684 0.17578,0.125 -0.51393,0.48443 -0.68089,0.95507 -0.66797,0.9336 l -0.004,0.006 -0.002,0.006 c -0.0168,0.0285 -0.11503,0.11381 -0.2832,0.46875 -0.0605,0.12776 -0.0281,0.31203 -0.0606,0.47656 -0.0399,0.0866 -0.10792,0.15481 -0.19531,0.19336 l -0.0234,0.0117 -0.0234,0.01 c -0.23697,0.11444 -0.46194,0.25214 -0.67383,0.40821 l -0.0254,0.0176 -0.0254,0.0195 c -0.21545,0.17309 -0.41015,0.36951 -0.58203,0.58593 l 0.0664,-0.0781 c 0.0719,-0.0788 0.0844,-0.071 -0.0215,0 -0.10592,0.071 -0.36963,0.18198 -0.66211,0.64062 l -0.0117,0.0176 -0.01,0.0176 c -0.25539,0.42551 -0.18175,0.50994 -0.17187,0.65625 -0.003,-0.0153 -0.0921,0.0822 -0.31641,0.41797 l -0.0215,0.0332 -0.0215,0.0332 c 0.15521,-0.26045 -0.0414,-0.0656 -0.29687,0.41797 -0.0281,0.0482 -0.10441,0.15066 -0.23242,0.38086 -0.13296,0.23909 -0.34352,0.69037 -0.27735,1.27735 0.0354,0.30615 0.16615,0.33236 0.29102,0.52929 -0.0149,0.0949 -0.0467,0.0797 -0.0449,0.19922 v 0.0195 l 0.002,0.0176 c 0.0124,0.30271 0.0356,0.27683 0.0625,0.35547 -0.057,0.0924 -0.0992,0.13083 -0.17578,0.39844 -0.0613,0.21488 -0.0301,0.27083 -0.0273,0.40429 -0.1659,0.21829 -0.3627,0.36351 -0.3789,0.83399 -0.0159,0.52334 0.12928,0.5447 0.2539,0.71289 -0.0448,0.17489 -0.12332,0.24771 -0.0625,0.57226 l 0.002,0.006 v 0.004 c 0.17514,0.90753 0.54004,1.03851 0.76562,1.25586 0.22558,0.21736 0.43968,0.39865 0.43946,0.39844 0.37958,0.38456 0.45903,0.50869 0.37304,0.30273 h 0.002 c -0.028,-0.0667 0.0167,0.0832 0.0879,0.31836 0.0721,0.23823 0.1455,0.61568 0.60156,1.05664 0.33624,0.325 0.58047,0.39916 0.70117,0.45508 0.11792,0.0546 0.12625,0.0752 0.0254,-0.004 0.54266,0.42606 0.77138,0.47056 0.6211,0.35352 0.031,0.0256 0.24673,0.24069 0.58203,0.48437 0.33879,0.2462 0.89937,0.5821 1.66992,0.52735 0.59115,-0.0403 0.84801,-0.1733 0.93555,-0.19141 0.36154,-0.0626 0.56537,-0.0937 0.61523,-0.11719 0.17299,0.0641 0.45689,0.16406 0.88281,0.13868 l 0.006,-0.002 h 0.006 c 0.63663,-0.0427 1.01597,-0.22784 1.36914,-0.38086 0.51586,-0.22363 0.82551,-0.30513 0.99024,-0.3457 0.11725,0.20851 0.14583,0.39125 0.58398,0.66992 l 0.31641,0.20117 0.37304,0.0293 c 0.11136,0.009 0.0356,-0.01 0.12696,-0.006 -0.0165,0.0943 -0.0664,0.33097 -0.0605,0.3086 -0.0422,0.13117 -0.14103,0.39701 -0.13867,0.83398 0.002,0.85768 0.22656,0.87796 0.34375,1.06836 0.11446,0.18597 0.22383,0.33285 0.33008,0.46484 0.36506,0.46371 0.61027,0.61567 0.64843,0.66016 l 0.004,0.004 0.002,0.004 c 0.049,0.0564 0.22749,0.47698 0.39063,0.84961 -0.0819,0.53082 -0.21777,0.82851 -0.71289,1.66602 -0.32443,0.37359 -0.74476,0.90115 -0.74024,1.83789 -0.007,0.71617 0.18904,1.29671 0.30274,1.63086 0.11562,0.33978 0.13953,0.42628 0.13281,0.58007 l 0.004,-0.0508 c -0.0995,1.28126 -0.0145,1.45888 -0.0801,1.90821 l -0.1543,1.0664 0.20899,0.10743 c -0.0134,0.0248 -0.0197,0.0493 -0.0391,0.084 -0.07,0.12569 -0.22097,0.3897 -0.32031,0.73047 l -0.11133,0.38476 c -4.37424,4.01963 -10.05556,6.34177 -16.031248,6.32422 h -0.002 -0.002 c -1.946017,0.001 -3.858676,-0.32404 -5.738281,-0.79492 0.337909,-0.36249 0.547853,-0.79585 0.601562,-1.29101 0.329068,-0.17417 0.637442,-0.35384 0.804688,-0.5293 0.231984,-0.24337 0.403163,-0.42859 0.595703,-0.8125 v -0.002 c 0.226241,-0.44743 0.155952,-0.53269 0.132812,-0.64844 0.06131,-0.11168 0.06621,0.0166 0.126953,-0.16602 l 0.01563,-0.0469 0.01367,-0.0488 c 0.0034,-0.013 -7.58e-4,-0.0238 0,-0.0352 0.03696,-0.0347 0.08384,-0.0857 0.236328,-0.27343 0.09357,-0.11457 0.230913,-0.27399 0.378907,-0.47266 l 0.01563,-0.0195 c 0.07642,-0.0975 0.195675,-0.2218 0.345703,-0.47656 l 0.138672,-0.23633 0.04687,-0.27149 c 0.07764,-0.45189 -0.03237,-0.66596 -0.105469,-0.92383 0.0962,-0.0503 0.168494,-0.0934 0.296875,-0.15429 0.19513,-0.0888 0.301164,-0.14045 0.396484,-0.18946 0.08115,0.021 0.33023,0.006 0.898438,-0.20312 0.641574,-0.23426 1.063223,-0.72473 1.287113,-1.08203 0.22033,-0.35161 0.3225,-0.61386 0.39062,-0.74414 0.0504,-0.0922 0.29928,-0.25063 0.41602,-1.01367 0.0785,-0.48799 0.0544,-0.69374 0.006,-0.41407 v -0.004 c 0.026,-0.15108 0.0339,-0.19239 0.0605,-0.28907 l 0.0137,-0.0508 0.01,-0.0508 c 0.0778,-0.38595 0.1169,-0.77814 0.11719,-1.17187 v -0.002 c 0,-0.1875 -0.0421,-0.2887 -0.0781,-0.43359 0.0422,-0.0452 0.0347,-0.0172 0.16016,-0.20117 l 0.002,-0.004 c 0.22648,-0.32961 0.27897,-0.54847 0.32422,-0.67969 l 0.002,-0.002 c 0.0752,-0.0904 0.24998,-0.24427 0.56445,-0.63086 0.34533,-0.4245 0.73136,-1.22398 0.68555,-2.0664 v -0.002 c -0.0152,-0.27056 -0.0515,-0.55846 -0.14649,-0.91015 -0.0475,-0.17585 -0.10498,-0.36475 -0.22851,-0.59766 -0.12353,-0.23291 -0.30291,-0.58308 -0.8711,-0.83203 l -0.0195,-0.01 -0.0215,-0.008 c -0.49328,-0.19887 -0.59015,-0.13653 -0.6836,-0.12891 0.0214,0.002 -0.10219,-0.0706 -0.38476,-0.29296 -0.30699,-0.24157 -0.818699,-0.66577 -1.648442,-0.73243 l -0.02539,-0.004 h -0.02734 c -0.150984,-0.007 -0.166833,-0.002 -0.21875,0 -0.132479,-0.0651 -0.358471,-0.20467 -0.820313,-0.25586 l -0.0098,-0.002 h -0.0098 c -0.02616,-0.003 -0.01722,0.002 -0.04102,0 -0.08532,-0.0849 0.0038,-0.0897 -0.126953,-0.17968 l -0.0078,-0.004 -0.0059,-0.004 c -0.452383,-0.3046 -0.606471,-0.29055 -0.689453,-0.30859 -0.350676,-0.15304 -0.724725,-0.23824 -1.105469,-0.27344 -0.137803,-0.36523 -0.345545,-0.59533 -0.496093,-0.74218 -0.0024,-0.13611 0.05022,-0.14376 -0.03516,-0.38282 -0.13786,-0.38067 -0.393049,-0.69649 -0.574218,-0.85547 -0.174813,-0.1534 -0.270688,-0.21156 -0.337891,-0.25976 -0.367992,-0.2884 -1.032662,-0.80215 -1.960938,-0.91992 h -0.0098 l -0.0098,-0.002 c -0.466624,-0.0529 -0.633552,-0.0147 -0.738281,-0.006 -0.01079,-0.0189 0.0052,0.007 -0.01367,-0.0273 -0.06829,-0.12277 -0.293473,-0.4237 -0.617187,-0.68164 l 0.24414,-0.48633 -1.357422,-0.66797 c -0.08406,-0.0414 -0.302728,-0.013 -0.439453,-0.0488 -0.07238,-0.0529 -0.0618,-0.0951 -0.152344,-0.14454 -0.48073,-0.26243 -1.066144,-0.2759 -1.484375,-0.19726 l -0.01758,0.004 -0.01563,0.004 c -0.242784,0.0516 -0.188201,0.10087 -0.322265,0.17188 -0.157546,-0.0756 -0.148432,-0.15837 -0.390625,-0.19141 h -0.002 c -0.226957,-0.0306 -0.19258,0.0448 -0.339844,0.0625 -0.05162,-0.0417 -0.02183,-0.0488 -0.08398,-0.0898 l 0.01563,0.01 c 0.03596,0.0244 -0.09767,-0.0752 -0.236328,-0.17773 -0.06933,-0.0513 -0.142515,-0.10733 -0.263672,-0.17969 -0.116312,-0.0695 -0.164828,-0.2763 -0.9375,-0.23633 -0.06158,0.003 -0.06303,0.0383 -0.11914,0.0469 -0.131586,-0.0653 -0.190437,-0.16059 -0.365235,-0.18946 -0.433462,-0.0716 -0.870356,0.0774 -1.08789,0.20508 -0.421161,0.24716 -0.412482,0.29356 -0.236328,0.17774 -0.104332,0.0695 -0.164669,0.10265 -0.185547,0.11523 -0.117158,0.0283 -0.394133,0.0168 -0.988281,0.32617 l -0.0059,0.002 -0.0039,0.002 c -0.342128,0.1813 -0.578146,0.48401 -0.740234,0.72265 -0.375129,-0.0589 -0.703417,-0.081 -0.982422,-0.0254 0.02991,-0.15854 0.04379,-0.12781 0.06641,-0.35546 -0.02887,0.2804 -0.0993,0.32544 -0.0332,0.20312 0.06609,-0.12231 0.289302,-0.42638 0.302734,-1.02344 v -0.002 -0.002 c 0.01907,-0.97915 -0.547378,-1.40022 -0.882812,-1.64649 -0.247142,-0.18146 -0.494272,-0.25976 -0.777344,-0.34765 0.09926,-0.13902 0.199595,-0.16809 0.25,-0.55079 l 0.002,-0.0234 0.002,-0.0234 c 0.05603,-0.56204 -0.101581,-0.87436 -0.242187,-1.13867 -0.140605,-0.2643 -0.288701,-0.47318 -0.566407,-0.69922 l -0.412109,-0.33399 -0.53125,-0.002 c -0.04269,-7e-5 -0.08238,0.0222 -0.125,0.0234 0.102222,-0.28748 0.161964,-0.58767 0.275391,-0.87109 0.283688,-0.10418 0.578389,-0.15141 0.740234,-0.27344 0.04864,-0.005 0.179305,0.005 0.207031,0.002 0.04239,0.0294 0.273552,0.0724 0.337891,0.12109 0.0096,0.0703 -0.0248,0.0814 -0.0059,0.15625 l 0.09961,0.39454 0.287109,0.29101 c 0.724604,0.73391 1.329797,0.76586 1.539063,0.85352 l 0.832031,0.34961 0.699219,-0.57227 c 0.355343,-0.29183 0.559957,-0.7363 0.621094,-1.05859 0.06114,-0.32229 0.03291,-0.5491 0.0078,-0.72266 -0.04541,-0.31422 -0.08691,-0.45537 -0.08594,-0.41211 0.01488,0.0383 0.04596,-0.024 -0.01563,-0.42187 -0.02245,-0.15778 -0.02283,-0.0865 -0.0332,-0.14063 0.06108,-0.0413 0.09447,-0.0667 0.271485,-0.16992 l 0.002,-0.002 0.002,-0.002 c 0.503728,-0.29562 0.78,-0.51798 0.519531,-0.38867 l 0.002,-0.002 c 0.103328,-0.0482 0.268645,-0.0643 0.677735,-0.29492 0.439947,-0.24737 0.87109,-0.51985 1.273437,-0.85547 l 0.279297,-0.23242 0.140625,-0.33399 c 0.142751,-0.33663 0.09491,-0.53724 0.0957,-0.7832 0.04959,-0.06007 0.167988,-0.101869 0.203125,-0.154296 0.106753,-0.01344 0.157507,0.03037 0.482422,-0.230469 0.175055,-0.140565 0.187019,-0.215453 0.283203,-0.347656 l 0.002,-0.002 0.002,-0.002 c 0.427449,-0.125625 0.507253,-0.196555 0.568359,-0.234375 0.01529,-0.0017 0.01378,-0.0022 0.04102,-0.0039 0.07106,-0.0043 0.157911,-0.0062 0.300781,-0.02734 0.141108,-0.02084 0.33984,0.143194 0.941406,-0.464844 0.356937,-0.361025 0.326337,-0.577057 0.34375,-0.789063 0.05917,-0.01321 0.136011,-0.03975 0.216797,-0.06055 0.193233,0.117335 0.362216,0.286249 0.554687,0.316407 0.701396,0.109903 0.996278,-0.127397 1.199219,-0.242188 0.173264,-0.09801 0.265605,-0.171107 0.341797,-0.228515 -0.06094,0.04199 0.498809,-0.06167 1.160156,-0.300782 0.228443,-0.07968 0.574763,-0.161176 1.041016,-0.5625 0.125964,-0.108423 0.217944,-0.394194 0.34375,-0.597656 0.02008,-4.8e-5 0.075,0.03386 0.0918,0.0332 0.246963,-0.0097 0.26752,-0.0091 0.197265,-0.01758 -0.05257,-0.0049 0.09863,0.03298 0.373047,0.07813 0.167152,0.02811 -0.01061,-0.01655 0.09766,-0.0039 0.24605,0.186159 0.646726,0.375 1.02539,0.375 0.297437,0 0.66276,-0.061 1.015625,-0.289063 0.352865,-0.228062 0.63714,-0.639886 0.732422,-1.027343 0.102933,-0.418571 0.05179,-0.754434 -0.05664,-1.042969 0.03297,-0.277676 0.105268,-0.565324 -0.09375,-0.957031 -0.05798,-0.113203 -0.182531,-0.108365 -0.267578,-0.203125 l -0.002,-0.0293 c 0.165181,-0.301705 0.394165,-0.59995 0.337891,-1.095703 l -0.002,-0.01953 -0.002,-0.01953 c -0.0684,-0.483928 -0.406897,-0.850146 -0.638672,-1.058594 -0.02465,-0.12214 -0.02461,-0.257901 -0.404297,-0.578125 l -0.002,-0.002 c -0.163099,-0.137101 -0.1417,-0.07716 -0.263672,-0.144531 -0.0014,-0.04376 0.0037,-0.03877 0,-0.08984 1.076033,-0.145208 2.130341,-0.44585 3.21875,-0.443359 z m 8.820308,1.90039 c -0.0312,0.03469 -0.0807,0.194238 -0.13086,0.269532 l 0.0117,-0.05469 c 0.0808,-0.190627 0.23357,-0.341861 0.11914,-0.214844 z m -0.01,1.544922 c 0.0278,0.02973 0.0847,0.115664 0.0977,0.128907 0.0399,0.04123 0.001,0.02006 -0.0957,-0.123047 -7.2e-4,-0.0011 -9.5e-4,-0.0048 -0.002,-0.0059 z m -11.703126,0.802735 c 0.04268,0.02593 0.121273,0.02897 0.152343,0.05469 -0.0076,0.01736 -0.0078,0.02647 -0.01563,0.04297 -0.01784,-0.02603 -0.109097,-0.06256 -0.136718,-0.09766 z m 0.271484,0.175781 c 0.01113,0.01618 0.07277,0.07955 0.06641,0.07031 -0.0024,-0.0035 -0.07274,-0.04817 -0.07813,-0.05664 0.0045,-0.0048 0.0071,-0.0087 0.01172,-0.01367 z m -14.175781,0.824219 0.08789,0.208984 c -0.0205,0.0213 -0.08197,0.03667 -0.09961,0.05664 -0.03715,0.04206 -0.04603,0.06397 -0.06445,0.0918 -0.03745,0.0066 -0.06891,0.0066 -0.117188,0.01367 l -0.04492,-0.117187 z m 9.179687,1.986328 c 0.01405,0.0032 0.02461,0.0028 0.03906,0.0059 -0.05088,0.0043 -0.02705,0.01811 -0.08398,0.01563 l -0.04297,-0.002 c -0.0099,-7.19e-4 -0.0039,-0.0029 -0.01367,-0.0039 0.03875,-0.0081 0.06663,-0.0063 0.101562,-0.01563 z m -0.390625,0.06055 c -0.009,0.01912 0.0024,0.03212 -0.0078,0.05078 -0.166101,0.30365 -0.373127,0.423621 -0.394531,0.4375 -0.01927,0.01249 0.218262,-0.33749 0.384765,-0.486328 0.008,5.5e-5 0.0096,-0.0019 0.01758,-0.002 z m 25.087891,1.205078 c 0.001,0.01493 -10e-4,0.03044 0,0.04492 -0.0174,-0.005 -0.0202,-0.0099 -0.0977,-0.01758 0.0438,-0.01223 0.0719,-0.02204 0.0977,-0.02734 z m -8.84961,1.113281 c -0.006,0.05066 0.0915,0.343094 0.082,0.474609 0.0156,0.0545 0.002,0.09912 -0.0566,-0.205078 v -0.002 c -0.0715,-0.397342 -0.0127,-0.376825 -0.0254,-0.267578 z m 12.51758,2.736324 c 7e-4,0.001 9.5e-4,0.003 0.002,0.004 -3e-4,0.003 -0.004,0.005 -0.004,0.008 z m -39.763673,2.33203 c 0.01463,0.0108 0.03335,0.0189 0.04883,0.0293 -0.07216,0.009 -0.13937,0.0194 -0.212891,0.0391 0.05315,-0.0339 0.09325,-0.0385 0.164063,-0.0684 z m 23.373043,4.53125 c -0.0405,0.0407 -0.10578,0.30767 -0.18554,0.40821 l 0.0176,-0.0625 c 0.14916,-0.46287 0.29662,-0.47512 0.16797,-0.34571 z m -20.773434,1.49805 -0.02734,0.0117 c -0.0031,0.001 -0.01606,0.003 -0.01953,0.004 0.005,-0.001 0.02267,-0.007 0.04687,-0.0156 z m 5.109375,0.75976 c -0.183736,0.12718 -0.454459,0.27496 -0.478515,0.30274 -0.04065,0.0469 0.07649,-0.12958 0.363281,-0.2832 0.03891,-0.0208 0.07358,-0.003 0.115234,-0.0195 z m -7.605469,0.38282 h 0.02734 c -0.0057,0 -0.006,0.006 -0.01172,0.006 -0.0059,4e-5 -0.0097,-0.006 -0.01563,-0.006 z m -4.447265,0.50781 c -0.0016,0.0133 0.01622,0.0869 0.01367,0.10547 l -0.002,-0.004 c -0.01933,-0.18126 0.0031,-0.22595 -0.01172,-0.10156 z m -0.652344,0.31055 c 0.01725,0.006 0.01847,0.002 0.03516,0.008 0.01292,0.004 0.008,0.006 0.02148,0.01 z m 0.404297,0.084 c 0.07429,0.0117 0.177435,0.041 0.232422,0.0469 0.01086,0.0201 0.07338,0.0664 0.08594,0.0898 0.01089,0.16166 -0.04134,0.22247 0.06055,0.45312 l 0.06641,0.1504 0.0957,0.13281 c 0.50496,0.68682 0.87912,0.75997 0.986328,0.75195 0.105545,0.15554 0.292397,0.44368 0.818359,0.68555 l 0.03516,0.0156 0.03711,0.0137 c 0.16571,0.0661 0.137027,0.006 0.255859,0.0254 0.07346,0.0919 0.102397,0.1629 0.296875,0.30078 0.184654,0.13092 0.539406,0.10454 0.857422,0.14648 -0.05482,0.0599 -0.07114,0.0459 -0.128906,0.12305 -0.121295,0.16175 -0.248742,0.32701 -0.199219,0.26953 l -0.01758,0.0195 -0.01758,0.0234 c 0.09635,-0.12058 -0.05933,-0.0912 -0.421875,0.44531 -0.272225,0.40345 -0.27546,0.58996 -0.279297,0.69727 -0.04078,0.0662 -0.08288,0.11852 -0.189453,0.37695 -0.123731,0.30003 -0.141135,0.83822 -0.05273,1.32226 -0.129318,0.18698 -0.288357,0.29278 -0.332031,0.58204 v 0.002 c -0.131374,0.87303 0.126247,1.0043 0.205078,1.1875 0.07883,0.18321 0.120789,0.33174 0.08203,0.16797 l -0.01172,-0.0527 c 0.157153,0.78911 0.555268,0.98467 0.722656,1.11914 0.06202,0.0498 0.09653,0.0817 0.128906,0.11133 0.09788,0.11471 0.213565,0.26027 0.316406,0.42188 l 0.0039,0.006 0.0039,0.004 c 0.13406,0.20699 0.279728,0.80257 0.785156,1.57813 l 0.002,0.006 0.0039,0.004 c 0.192717,0.29056 0.322904,0.38155 0.435546,0.47852 -0.0093,0.15464 -0.104236,0.13953 0.05273,0.50781 l 0.0039,0.008 0.0039,0.0117 c 0.377711,0.8566 0.846315,1.0277 1.234375,1.26953 0.381868,0.23797 0.741596,0.41125 0.947266,0.51172 0.241912,0.12176 0.364156,0.17466 0.455078,0.22657 h 0.002 l 0.002,0.002 c 0.132721,0.0754 0.281789,0.16123 0.402344,0.23828 0.02804,0.13416 0.05783,0.29962 0.08789,0.46875 0.01721,0.1 -0.04682,0.39407 -0.02148,1.10352 v 0.0234 l 0.002,0.0215 c 0.03204,0.48695 0.08398,0.60209 0.08398,0.60351 0,0.15734 -0.0019,0.34123 0.0039,0.25196 l -0.002,0.0351 -0.002,0.0312 c -0.0083,0.43724 0.01703,0.73529 0.0059,0.87305 l -0.002,0.006 v 0.008 c -0.01644,0.22838 -0.01409,0.45705 0,0.68555 -4.950935,-4.33344 -8.203125,-10.53803 -8.203125,-17.64258 0,-0.31543 0.05862,-0.63507 0.07617,-0.94727 z m 2.904297,2.38867 c 0.138153,-0.009 0.420871,0.0462 0.443359,0.043 0.04716,-0.007 -0.116852,0.0427 -0.410156,-0.0352 z m 1.527344,0.52539 c 0.002,-5.6e-4 0.0039,0.003 0.0059,0.002 l -0.01367,0.004 c 0.0037,-0.001 0.0041,-0.005 0.0078,-0.006 z m 36.806639,5.61524 c 0.0194,0.0438 0.018,0.041 0.0391,0.0879 0.007,0.1402 -0.0377,0.21548 0.002,0.33203 z m -19.382811,8.69922 c -0.0037,0.001 0.009,6.3e-4 0.0059,0.002 -0.01845,0.006 0.0021,-0.004 -0.01953,0.004 l 0.0078,-0.004 z m -13.722657,2.26367 c 0.0012,0.011 0.0065,0.009 0.0078,0.0195 0.0017,0.0129 -0.0038,0.0121 -0.002,0.0254 z m 11.767579,1.22851 c -0.0077,0.0175 0.0011,0.0105 -0.0078,0.0293 -0.15115,0.29567 -0.361435,0.4603 -0.378906,0.47266 -0.01138,0.008 0.217901,-0.31771 0.386719,-0.50196 z"
       transform="translate(-18.014087,-29.585955)"
       style="display:inline;opacity:0.6;fill:#00abff;fill-opacity:1;filter:url(#filter3)" />
    <path
       id="path2"
       d="m 27.535571,31.927752 -7.177734,7.179687 v 35.638672 l 9.251953,-9.246094 h 40 L 81.037525,54.072283 H 170.3969 l 9.25,9.248047 V 50.537127 l -7.17969,-7.179688 H 71.072681 v -4.25 l -7.179688,-7.179687 z m 2.072266,5 h 32.214844 l 4.25,4.25 v 7.179687 H 170.3969 l 0.71484,0.714844 H 78.967212 L 67.539478,60.500017 h -40 l -2.181641,2.181641 V 41.177752 Z M 78.965259,61.07033 67.535571,72.500017 h -40 l -7.177734,7.177735 -0.002,76.357418 7.177734,7.17774 H 172.46526 l 7.17969,-7.17774 V 68.250017 l -7.17969,-7.179687 z m 2.070312,5 h 89.359379 l 4.25,4.25 v 83.64258 l -4.25,4.25 H 29.605884 l -4.25,-4.25 0.002,-72.212893 4.25,-4.25 h 40 z m 18.962891,17.681641 c -1.042227,0 -2.058907,0.08194 -3.021484,0.18164 -0.002,1.85e-4 -0.0038,0.0018 -0.0059,0.002 -1.937804,0.176121 -3.853454,0.546976 -5.716797,1.107422 l -0.0078,0.002 -0.0078,0.002 C 81.960934,87.944633 74.69209,95.21294 71.793369,104.49039 l -0.002,0.008 -0.002,0.008 c -0.559146,1.86163 -0.929873,3.77511 -1.105469,5.71093 -0.113053,1.00267 -0.175479,2.01055 -0.185547,3.01954 v 0.008 0.008 c 0,1.04633 0.08566,2.06324 0.183594,3.02148 1.84e-4,0.002 0.0018,0.004 0.002,0.006 0.17545,1.93773 0.545721,3.85339 1.105469,5.7168 l 0.002,0.01 0.002,0.008 c 2.898145,9.27824 10.167067,16.54716 19.445312,19.44531 l 0.0078,0.002 0.0078,0.002 c 1.860203,0.56021 3.772423,0.93223 5.707032,1.10937 0.0025,2.5e-4 0.0053,-2.5e-4 0.0078,0 0.0027,2.5e-4 0.0051,0.002 0.0078,0.002 0.961974,0.0969 1.978958,0.17773 3.021484,0.17773 1.043186,0 2.060346,-0.0829 3.021486,-0.18164 0.002,-1.8e-4 0.004,-0.002 0.006,-0.002 1.93836,-0.17465 3.8546,-0.54238 5.71875,-1.10157 l 0.0137,-0.006 0.0137,-0.004 c 1.84961,-0.59404 3.63698,-1.36615 5.33789,-2.30469 6.75434,-3.65604 11.81358,-9.80742 14.09766,-17.14062 l 0.004,-0.008 0.002,-0.008 c 0.55922,-1.86427 0.92888,-3.78027 1.10351,-5.71875 0.10044,-0.96464 0.18164,-1.98418 0.18164,-3.02734 0,-1.04099 -0.0835,-2.06344 -0.18164,-3.02149 -1.9e-4,-0.002 -0.002,-0.004 -0.002,-0.006 -0.17477,-1.93766 -0.54251,-3.8533 -1.10156,-5.71679 l -0.002,-0.008 -0.004,-0.008 c -1.14587,-3.66853 -2.99169,-7.080264 -5.4375,-10.044919 h -0.002 c -0.64607,-0.7818 -1.3162,-1.413665 -1.93359,-2.03125 -2.64925,-2.649152 -5.76585,-4.861934 -9.31445,-6.359375 -0.90279,-0.380971 -1.82453,-0.717383 -2.75977,-1.009766 l -0.008,-0.002 -0.008,-0.0039 c -1.86034,-0.558826 -3.77257,-0.927714 -5.70704,-1.103516 -1.00334,-0.111214 -2.01205,-0.172767 -3.02148,-0.183593 h -0.008 z m -0.06055,4.302734 -1.054687,1.001953 0.427734,-0.960937 a 25.396,25.396 0 0 1 0.626953,-0.04102 z m 0.04102,1.498047 h 0.01953 c 3.067118,0 5.912818,0.727738 8.595708,1.783203 -0.0559,0.122736 -0.16793,0.193196 -0.18946,0.322266 v 0.002 c -0.0259,0.15613 0.0532,0.28577 0.0762,0.447265 -0.0594,0.133244 -0.13865,0.19339 -0.16211,0.332032 l -0.0937,0.55664 0.29493,0.480469 c 0.26758,0.434618 0.81594,0.782805 1.25976,0.865234 0.22234,0.0413 0.33544,-0.01136 0.5,-0.02734 l -0.0488,0.208984 0.22852,0.478516 c 0.01,0.0205 0.0322,0.02299 0.043,0.04297 -0.57566,0.0246 -1.49486,0.287535 -1.9707,1.035157 l -0.26172,0.410156 0.0312,0.488281 c 0.0326,0.525977 0.053,0.496858 0.043,0.544922 -0.13092,0.171734 -0.42843,0.506163 -0.39063,1.195312 0.0481,0.871316 0.27608,0.863025 0.3418,0.945313 -0.007,0.159559 -0.0953,0.194866 0.0957,0.552728 0.0308,0.0572 0.1317,0.0684 0.17578,0.125 -0.51393,0.48443 -0.68089,0.95507 -0.66797,0.9336 l -0.004,0.006 -0.002,0.006 c -0.0168,0.0285 -0.11503,0.11381 -0.2832,0.46875 -0.0605,0.12776 -0.0281,0.31203 -0.0606,0.47656 -0.0399,0.0866 -0.10792,0.15481 -0.19531,0.19336 l -0.0234,0.0117 -0.0234,0.01 c -0.23697,0.11444 -0.46194,0.25214 -0.67383,0.40821 l -0.0254,0.0176 -0.0254,0.0195 c -0.21545,0.17309 -0.41015,0.36951 -0.58203,0.58593 l 0.0664,-0.0781 c 0.0719,-0.0788 0.0844,-0.071 -0.0215,0 -0.10592,0.071 -0.36963,0.18198 -0.66211,0.64062 l -0.0117,0.0176 -0.01,0.0176 c -0.25539,0.42551 -0.18175,0.50994 -0.17187,0.65625 -0.003,-0.0153 -0.0921,0.0822 -0.31641,0.41797 l -0.0215,0.0332 -0.0215,0.0332 c 0.15521,-0.26045 -0.0414,-0.0656 -0.29687,0.41797 -0.0281,0.0482 -0.10441,0.15066 -0.23242,0.38086 -0.13296,0.23909 -0.34352,0.69037 -0.27735,1.27735 0.0354,0.30615 0.16615,0.33236 0.29102,0.52929 -0.0149,0.0949 -0.0467,0.0797 -0.0449,0.19922 v 0.0195 l 0.002,0.0176 c 0.0124,0.30271 0.0356,0.27683 0.0625,0.35547 -0.057,0.0924 -0.0992,0.13083 -0.17578,0.39844 -0.0613,0.21488 -0.0301,0.27083 -0.0273,0.40429 -0.1659,0.21829 -0.3627,0.36351 -0.3789,0.83399 -0.0159,0.52334 0.12928,0.5447 0.2539,0.71289 -0.0448,0.17489 -0.12332,0.24771 -0.0625,0.57226 l 0.002,0.006 v 0.004 c 0.17514,0.90753 0.54004,1.03851 0.76562,1.25586 0.22558,0.21736 0.43968,0.39865 0.43946,0.39844 0.37958,0.38456 0.45903,0.50869 0.37304,0.30273 h 0.002 c -0.028,-0.0667 0.0167,0.0832 0.0879,0.31836 0.0721,0.23823 0.1455,0.61568 0.60156,1.05664 0.33624,0.325 0.58047,0.39916 0.70117,0.45508 0.11792,0.0546 0.12625,0.0752 0.0254,-0.004 0.54266,0.42606 0.77138,0.47056 0.6211,0.35352 0.031,0.0256 0.24673,0.24069 0.58203,0.48437 0.33879,0.2462 0.89937,0.5821 1.66992,0.52735 0.59115,-0.0403 0.84801,-0.1733 0.93555,-0.19141 0.36154,-0.0626 0.56537,-0.0937 0.61523,-0.11719 0.17299,0.0641 0.45689,0.16406 0.88281,0.13868 l 0.006,-0.002 h 0.006 c 0.63663,-0.0427 1.01597,-0.22784 1.36914,-0.38086 0.51586,-0.22363 0.82551,-0.30513 0.99024,-0.3457 0.11725,0.20851 0.14583,0.39125 0.58398,0.66992 l 0.31641,0.20117 0.37304,0.0293 c 0.11136,0.009 0.0356,-0.01 0.12696,-0.006 -0.0165,0.0943 -0.0664,0.33097 -0.0605,0.3086 -0.0422,0.13117 -0.14103,0.39701 -0.13867,0.83398 0.002,0.85768 0.22656,0.87796 0.34375,1.06836 0.11446,0.18597 0.22383,0.33285 0.33008,0.46484 0.36506,0.46371 0.61027,0.61567 0.64843,0.66016 l 0.004,0.004 0.002,0.004 c 0.049,0.0564 0.22749,0.47698 0.39063,0.84961 -0.0819,0.53082 -0.21777,0.82851 -0.71289,1.66602 -0.32443,0.37359 -0.74476,0.90115 -0.74024,1.83789 -0.007,0.71617 0.18904,1.29671 0.30274,1.63086 0.11562,0.33978 0.13953,0.42628 0.13281,0.58007 l 0.004,-0.0508 c -0.0995,1.28126 -0.0145,1.45888 -0.0801,1.90821 l -0.1543,1.0664 0.20899,0.10743 c -0.0134,0.0248 -0.0197,0.0493 -0.0391,0.084 -0.07,0.12569 -0.22097,0.3897 -0.32031,0.73047 l -0.11133,0.38476 c -4.37424,4.01963 -10.05556,6.34177 -16.031248,6.32422 h -0.002 -0.002 c -1.946017,0.001 -3.858676,-0.32404 -5.738281,-0.79492 0.337909,-0.36249 0.547853,-0.79585 0.601562,-1.29101 0.329068,-0.17417 0.637442,-0.35384 0.804688,-0.5293 0.231984,-0.24337 0.403163,-0.42859 0.595703,-0.8125 v -0.002 c 0.226241,-0.44743 0.155952,-0.53269 0.132812,-0.64844 0.06131,-0.11168 0.06621,0.0166 0.126953,-0.16602 l 0.01563,-0.0469 0.01367,-0.0488 c 0.0034,-0.013 -7.58e-4,-0.0238 0,-0.0352 0.03696,-0.0347 0.08384,-0.0857 0.236328,-0.27343 0.09357,-0.11457 0.230913,-0.27399 0.378907,-0.47266 l 0.01563,-0.0195 c 0.07642,-0.0975 0.195675,-0.2218 0.345703,-0.47656 l 0.138672,-0.23633 0.04687,-0.27149 c 0.07764,-0.45189 -0.03237,-0.66596 -0.105469,-0.92383 0.0962,-0.0503 0.168494,-0.0934 0.296875,-0.15429 0.19513,-0.0888 0.301164,-0.14045 0.396484,-0.18946 0.08115,0.021 0.33023,0.006 0.898438,-0.20312 0.641574,-0.23426 1.063223,-0.72473 1.287113,-1.08203 0.22033,-0.35161 0.3225,-0.61386 0.39062,-0.74414 0.0504,-0.0922 0.29928,-0.25063 0.41602,-1.01367 0.0785,-0.48799 0.0544,-0.69374 0.006,-0.41407 v -0.004 c 0.026,-0.15108 0.0339,-0.19239 0.0605,-0.28907 l 0.0137,-0.0508 0.01,-0.0508 c 0.0778,-0.38595 0.1169,-0.77814 0.11719,-1.17187 v -0.002 c 0,-0.1875 -0.0421,-0.2887 -0.0781,-0.43359 0.0422,-0.0452 0.0347,-0.0172 0.16016,-0.20117 l 0.002,-0.004 c 0.22648,-0.32961 0.27897,-0.54847 0.32422,-0.67969 l 0.002,-0.002 c 0.0752,-0.0904 0.24998,-0.24427 0.56445,-0.63086 0.34533,-0.4245 0.73136,-1.22398 0.68555,-2.0664 v -0.002 c -0.0152,-0.27056 -0.0515,-0.55846 -0.14649,-0.91015 -0.0475,-0.17585 -0.10498,-0.36475 -0.22851,-0.59766 -0.12353,-0.23291 -0.30291,-0.58308 -0.8711,-0.83203 l -0.0195,-0.01 -0.0215,-0.008 c -0.49328,-0.19887 -0.59015,-0.13653 -0.6836,-0.12891 0.0214,0.002 -0.10219,-0.0706 -0.38476,-0.29296 -0.30699,-0.24157 -0.818699,-0.66577 -1.648442,-0.73243 l -0.02539,-0.004 h -0.02734 c -0.150984,-0.007 -0.166833,-0.002 -0.21875,0 -0.132479,-0.0651 -0.358471,-0.20467 -0.820313,-0.25586 l -0.0098,-0.002 h -0.0098 c -0.02616,-0.003 -0.01722,0.002 -0.04102,0 -0.08532,-0.0849 0.0038,-0.0897 -0.126953,-0.17968 l -0.0078,-0.004 -0.0059,-0.004 c -0.452383,-0.3046 -0.606471,-0.29055 -0.689453,-0.30859 -0.350676,-0.15304 -0.724725,-0.23824 -1.105469,-0.27344 -0.137803,-0.36523 -0.345545,-0.59533 -0.496093,-0.74218 -0.0024,-0.13611 0.05022,-0.14376 -0.03516,-0.38282 -0.13786,-0.38067 -0.393049,-0.69649 -0.574218,-0.85547 -0.174813,-0.1534 -0.270688,-0.21156 -0.337891,-0.25976 -0.367992,-0.2884 -1.032662,-0.80215 -1.960938,-0.91992 h -0.0098 l -0.0098,-0.002 c -0.466624,-0.0529 -0.633552,-0.0147 -0.738281,-0.006 -0.01079,-0.0189 0.0052,0.007 -0.01367,-0.0273 -0.06829,-0.12277 -0.293473,-0.4237 -0.617187,-0.68164 l 0.24414,-0.48633 -1.357422,-0.66797 c -0.08406,-0.0414 -0.302728,-0.013 -0.439453,-0.0488 -0.07238,-0.0529 -0.0618,-0.0951 -0.152344,-0.14454 -0.48073,-0.26243 -1.066144,-0.2759 -1.484375,-0.19726 l -0.01758,0.004 -0.01563,0.004 c -0.242784,0.0516 -0.188201,0.10087 -0.322265,0.17188 -0.157546,-0.0756 -0.148432,-0.15837 -0.390625,-0.19141 h -0.002 c -0.226957,-0.0306 -0.19258,0.0448 -0.339844,0.0625 -0.05162,-0.0417 -0.02183,-0.0488 -0.08398,-0.0898 l 0.01563,0.01 c 0.03596,0.0244 -0.09767,-0.0752 -0.236328,-0.17773 -0.06933,-0.0513 -0.142515,-0.10733 -0.263672,-0.17969 -0.116312,-0.0695 -0.164828,-0.2763 -0.9375,-0.23633 -0.06158,0.003 -0.06303,0.0383 -0.11914,0.0469 -0.131586,-0.0653 -0.190437,-0.16059 -0.365235,-0.18946 -0.433462,-0.0716 -0.870356,0.0774 -1.08789,0.20508 -0.421161,0.24716 -0.412482,0.29356 -0.236328,0.17774 -0.104332,0.0695 -0.164669,0.10265 -0.185547,0.11523 -0.117158,0.0283 -0.394133,0.0168 -0.988281,0.32617 l -0.0059,0.002 -0.0039,0.002 c -0.342128,0.1813 -0.578146,0.48401 -0.740234,0.72265 -0.375129,-0.0589 -0.703417,-0.081 -0.982422,-0.0254 0.02991,-0.15854 0.04379,-0.12781 0.06641,-0.35546 -0.02887,0.2804 -0.0993,0.32544 -0.0332,0.20312 0.06609,-0.12231 0.289302,-0.42638 0.302734,-1.02344 v -0.002 -0.002 c 0.01907,-0.97915 -0.547378,-1.40022 -0.882812,-1.64649 -0.247142,-0.18146 -0.494272,-0.25976 -0.777344,-0.34765 0.09926,-0.13902 0.199595,-0.16809 0.25,-0.55079 l 0.002,-0.0234 0.002,-0.0234 c 0.05603,-0.56204 -0.101581,-0.87436 -0.242187,-1.13867 -0.140605,-0.2643 -0.288701,-0.47318 -0.566407,-0.69922 l -0.412109,-0.33399 -0.53125,-0.002 c -0.04269,-7e-5 -0.08238,0.0222 -0.125,0.0234 0.102222,-0.28748 0.161964,-0.58767 0.275391,-0.87109 0.283688,-0.10418 0.578389,-0.15141 0.740234,-0.27344 0.04864,-0.005 0.179305,0.005 0.207031,0.002 0.04239,0.0294 0.273552,0.0724 0.337891,0.12109 0.0096,0.0703 -0.0248,0.0814 -0.0059,0.15625 l 0.09961,0.39454 0.287109,0.29101 c 0.724604,0.73391 1.329797,0.76586 1.539063,0.85352 l 0.832031,0.34961 0.699219,-0.57227 c 0.355343,-0.29183 0.559957,-0.7363 0.621094,-1.05859 0.06114,-0.32229 0.03291,-0.5491 0.0078,-0.72266 -0.04541,-0.31422 -0.08691,-0.45537 -0.08594,-0.41211 0.01488,0.0383 0.04596,-0.024 -0.01563,-0.42187 -0.02245,-0.15778 -0.02283,-0.0865 -0.0332,-0.14063 0.06108,-0.0413 0.09447,-0.0667 0.271485,-0.16992 l 0.002,-0.002 0.002,-0.002 c 0.503728,-0.29562 0.78,-0.51798 0.519531,-0.38867 l 0.002,-0.002 c 0.103328,-0.0482 0.268645,-0.0643 0.677735,-0.29492 0.439947,-0.24737 0.87109,-0.51985 1.273437,-0.85547 l 0.279297,-0.23242 0.140625,-0.33399 c 0.142751,-0.33663 0.09491,-0.53724 0.0957,-0.7832 0.04959,-0.06007 0.167988,-0.101869 0.203125,-0.154296 0.106753,-0.01344 0.157507,0.03037 0.482422,-0.230469 0.175055,-0.140565 0.187019,-0.215453 0.283203,-0.347656 l 0.002,-0.002 0.002,-0.002 c 0.427449,-0.125625 0.507253,-0.196555 0.568359,-0.234375 0.01529,-0.0017 0.01378,-0.0022 0.04102,-0.0039 0.07106,-0.0043 0.157911,-0.0062 0.300781,-0.02734 0.141108,-0.02084 0.33984,0.143194 0.941406,-0.464844 0.356937,-0.361025 0.326337,-0.577057 0.34375,-0.789063 0.05917,-0.01321 0.136011,-0.03975 0.216797,-0.06055 0.193233,0.117335 0.362216,0.286249 0.554687,0.316407 0.701396,0.109903 0.996278,-0.127397 1.199219,-0.242188 0.173264,-0.09801 0.265605,-0.171107 0.341797,-0.228515 -0.06094,0.04199 0.498809,-0.06167 1.160156,-0.300782 0.228443,-0.07968 0.574763,-0.161176 1.041016,-0.5625 0.125964,-0.108423 0.217944,-0.394194 0.34375,-0.597656 0.02008,-4.8e-5 0.075,0.03386 0.0918,0.0332 0.246963,-0.0097 0.26752,-0.0091 0.197265,-0.01758 -0.05257,-0.0049 0.09863,0.03298 0.373047,0.07813 0.167152,0.02811 -0.01061,-0.01655 0.09766,-0.0039 0.24605,0.186159 0.646726,0.375 1.02539,0.375 0.297437,0 0.66276,-0.061 1.015625,-0.289063 0.352865,-0.228062 0.63714,-0.639886 0.732422,-1.027343 0.102933,-0.418571 0.05179,-0.754434 -0.05664,-1.042969 0.03297,-0.277676 0.105268,-0.565324 -0.09375,-0.957031 -0.05798,-0.113203 -0.182531,-0.108365 -0.267578,-0.203125 l -0.002,-0.0293 c 0.165181,-0.301705 0.394165,-0.59995 0.337891,-1.095703 l -0.002,-0.01953 -0.002,-0.01953 c -0.0684,-0.483928 -0.406897,-0.850146 -0.638672,-1.058594 -0.02465,-0.12214 -0.02461,-0.257901 -0.404297,-0.578125 l -0.002,-0.002 c -0.163099,-0.137101 -0.1417,-0.07716 -0.263672,-0.144531 -0.0014,-0.04376 0.0037,-0.03877 0,-0.08984 1.076033,-0.145208 2.130341,-0.44585 3.21875,-0.443359 z m 8.820308,1.90039 c -0.0312,0.03469 -0.0807,0.194238 -0.13086,0.269532 l 0.0117,-0.05469 c 0.0808,-0.190627 0.23357,-0.341861 0.11914,-0.214844 z m -0.01,1.544922 c 0.0278,0.02973 0.0847,0.115664 0.0977,0.128907 0.0399,0.04123 0.001,0.02006 -0.0957,-0.123047 -7.2e-4,-0.0011 -9.5e-4,-0.0048 -0.002,-0.0059 z m -11.703126,0.802735 c 0.04268,0.02593 0.121273,0.02897 0.152343,0.05469 -0.0076,0.01736 -0.0078,0.02647 -0.01563,0.04297 -0.01784,-0.02603 -0.109097,-0.06256 -0.136718,-0.09766 z m 0.271484,0.175781 c 0.01113,0.01618 0.07277,0.07955 0.06641,0.07031 -0.0024,-0.0035 -0.07274,-0.04817 -0.07813,-0.05664 0.0045,-0.0048 0.0071,-0.0087 0.01172,-0.01367 z m -14.175781,0.824219 0.08789,0.208984 c -0.0205,0.0213 -0.08197,0.03667 -0.09961,0.05664 -0.03715,0.04206 -0.04603,0.06397 -0.06445,0.0918 -0.03745,0.0066 -0.06891,0.0066 -0.117188,0.01367 l -0.04492,-0.117187 z m 9.179687,1.986328 c 0.01405,0.0032 0.02461,0.0028 0.03906,0.0059 -0.05088,0.0043 -0.02705,0.01811 -0.08398,0.01563 l -0.04297,-0.002 c -0.0099,-7.19e-4 -0.0039,-0.0029 -0.01367,-0.0039 0.03875,-0.0081 0.06663,-0.0063 0.101562,-0.01563 z m -0.390625,0.06055 c -0.009,0.01912 0.0024,0.03212 -0.0078,0.05078 -0.166101,0.30365 -0.373127,0.423621 -0.394531,0.4375 -0.01927,0.01249 0.218262,-0.33749 0.384765,-0.486328 0.008,5.5e-5 0.0096,-0.0019 0.01758,-0.002 z m 25.087891,1.205078 c 0.001,0.01493 -10e-4,0.03044 0,0.04492 -0.0174,-0.005 -0.0202,-0.0099 -0.0977,-0.01758 0.0438,-0.01223 0.0719,-0.02204 0.0977,-0.02734 z m -8.84961,1.113281 c -0.006,0.05066 0.0915,0.343094 0.082,0.474609 0.0156,0.0545 0.002,0.09912 -0.0566,-0.205078 v -0.002 c -0.0715,-0.397342 -0.0127,-0.376825 -0.0254,-0.267578 z m 12.51758,2.736324 c 7e-4,0.001 9.5e-4,0.003 0.002,0.004 -3e-4,0.003 -0.004,0.005 -0.004,0.008 z m -39.763673,2.33203 c 0.01463,0.0108 0.03335,0.0189 0.04883,0.0293 -0.07216,0.009 -0.13937,0.0194 -0.212891,0.0391 0.05315,-0.0339 0.09325,-0.0385 0.164063,-0.0684 z m 23.373043,4.53125 c -0.0405,0.0407 -0.10578,0.30767 -0.18554,0.40821 l 0.0176,-0.0625 c 0.14916,-0.46287 0.29662,-0.47512 0.16797,-0.34571 z m -20.773434,1.49805 -0.02734,0.0117 c -0.0031,0.001 -0.01606,0.003 -0.01953,0.004 0.005,-0.001 0.02267,-0.007 0.04687,-0.0156 z m 5.109375,0.75976 c -0.183736,0.12718 -0.454459,0.27496 -0.478515,0.30274 -0.04065,0.0469 0.07649,-0.12958 0.363281,-0.2832 0.03891,-0.0208 0.07358,-0.003 0.115234,-0.0195 z m -7.605469,0.38282 h 0.02734 c -0.0057,0 -0.006,0.006 -0.01172,0.006 -0.0059,4e-5 -0.0097,-0.006 -0.01563,-0.006 z m -4.447265,0.50781 c -0.0016,0.0133 0.01622,0.0869 0.01367,0.10547 l -0.002,-0.004 c -0.01933,-0.18126 0.0031,-0.22595 -0.01172,-0.10156 z m -0.652344,0.31055 c 0.01725,0.006 0.01847,0.002 0.03516,0.008 0.01292,0.004 0.008,0.006 0.02148,0.01 z m 0.404297,0.084 c 0.07429,0.0117 0.177435,0.041 0.232422,0.0469 0.01086,0.0201 0.07338,0.0664 0.08594,0.0898 0.01089,0.16166 -0.04134,0.22247 0.06055,0.45312 l 0.06641,0.1504 0.0957,0.13281 c 0.50496,0.68682 0.87912,0.75997 0.986328,0.75195 0.105545,0.15554 0.292397,0.44368 0.818359,0.68555 l 0.03516,0.0156 0.03711,0.0137 c 0.16571,0.0661 0.137027,0.006 0.255859,0.0254 0.07346,0.0919 0.102397,0.1629 0.296875,0.30078 0.184654,0.13092 0.539406,0.10454 0.857422,0.14648 -0.05482,0.0599 -0.07114,0.0459 -0.128906,0.12305 -0.121295,0.16175 -0.248742,0.32701 -0.199219,0.26953 l -0.01758,0.0195 -0.01758,0.0234 c 0.09635,-0.12058 -0.05933,-0.0912 -0.421875,0.44531 -0.272225,0.40345 -0.27546,0.58996 -0.279297,0.69727 -0.04078,0.0662 -0.08288,0.11852 -0.189453,0.37695 -0.123731,0.30003 -0.141135,0.83822 -0.05273,1.32226 -0.129318,0.18698 -0.288357,0.29278 -0.332031,0.58204 v 0.002 c -0.131374,0.87303 0.126247,1.0043 0.205078,1.1875 0.07883,0.18321 0.120789,0.33174 0.08203,0.16797 l -0.01172,-0.0527 c 0.157153,0.78911 0.555268,0.98467 0.722656,1.11914 0.06202,0.0498 0.09653,0.0817 0.128906,0.11133 0.09788,0.11471 0.213565,0.26027 0.316406,0.42188 l 0.0039,0.006 0.0039,0.004 c 0.13406,0.20699 0.279728,0.80257 0.785156,1.57813 l 0.002,0.006 0.0039,0.004 c 0.192717,0.29056 0.322904,0.38155 0.435546,0.47852 -0.0093,0.15464 -0.104236,0.13953 0.05273,0.50781 l 0.0039,0.008 0.0039,0.0117 c 0.377711,0.8566 0.846315,1.0277 1.234375,1.26953 0.381868,0.23797 0.741596,0.41125 0.947266,0.51172 0.241912,0.12176 0.364156,0.17466 0.455078,0.22657 h 0.002 l 0.002,0.002 c 0.132721,0.0754 0.281789,0.16123 0.402344,0.23828 0.02804,0.13416 0.05783,0.29962 0.08789,0.46875 0.01721,0.1 -0.04682,0.39407 -0.02148,1.10352 v 0.0234 l 0.002,0.0215 c 0.03204,0.48695 0.08398,0.60209 0.08398,0.60351 0,0.15734 -0.0019,0.34123 0.0039,0.25196 l -0.002,0.0351 -0.002,0.0312 c -0.0083,0.43724 0.01703,0.73529 0.0059,0.87305 l -0.002,0.006 v 0.008 c -0.01644,0.22838 -0.01409,0.45705 0,0.68555 -4.950935,-4.33344 -8.203125,-10.53803 -8.203125,-17.64258 0,-0.31543 0.05862,-0.63507 0.07617,-0.94727 z m 2.904297,2.38867 c 0.138153,-0.009 0.420871,0.0462 0.443359,0.043 0.04716,-0.007 -0.116852,0.0427 -0.410156,-0.0352 z m 1.527344,0.52539 c 0.002,-5.6e-4 0.0039,0.003 0.0059,0.002 l -0.01367,0.004 c 0.0037,-0.001 0.0041,-0.005 0.0078,-0.006 z m 36.806639,5.61524 c 0.0194,0.0438 0.018,0.041 0.0391,0.0879 0.007,0.1402 -0.0377,0.21548 0.002,0.33203 z m -19.382811,8.69922 c -0.0037,0.001 0.009,6.3e-4 0.0059,0.002 -0.01845,0.006 0.0021,-0.004 -0.01953,0.004 l 0.0078,-0.004 z m -13.722657,2.26367 c 0.0012,0.011 0.0065,0.009 0.0078,0.0195 0.0017,0.0129 -0.0038,0.0121 -0.002,0.0254 z m 11.767579,1.22851 c -0.0077,0.0175 0.0011,0.0105 -0.0078,0.0293 -0.15115,0.29567 -0.361435,0.4603 -0.378906,0.47266 -0.01138,0.008 0.217901,-0.31771 0.386719,-0.50196 z"
       transform="translate(-18.014087,-29.585955)"
       style="fill:url(#linearGradient3);fill-opacity:1" />
  </g>
</svg>
