<?xml version="1.0" encoding="UTF-8" standalone="no"?>
<svg
   width="167.13663"
   height="139.13072"
   version="1.1"
   id="svg21"
   xmlns:xlink="http://www.w3.org/1999/xlink"
   xmlns="http://www.w3.org/2000/svg"
   xmlns:svg="http://www.w3.org/2000/svg"
   xmlns:rdf="http://www.w3.org/1999/02/22-rdf-syntax-ns#"
   xmlns:cc="http://creativecommons.org/ns#"
   xmlns:dc="http://purl.org/dc/elements/1.1/">
  <metadata
     id="metadata1">
    <rdf:RDF>
      <cc:Work
         rdf:about="">
        <dc:format>image/svg+xml</dc:format>
        <dc:type
           rdf:resource="http://purl.org/dc/dcmitype/StillImage" />
        <dc:title />
      </cc:Work>
    </rdf:RDF>
  </metadata>
  <defs
     id="defs5">
    <linearGradient
       id="linearGradient2">
      <stop
         style="stop-color:#00abff;stop-opacity:0;"
         offset="0"
         id="stop3" />
      <stop
         style="stop-color:#00abff;stop-opacity:1;"
         offset="1"
         id="stop2" />
    </linearGradient>
    <style
       id="current-color-scheme"
       type="text/css">.ColorScheme-Text {
        color:#4d4d4d;
      }</style>
    <style
       type="text/css"
       id="style1">.ColorScheme-Text {
        color:#4d4d4d;
      }</style>
    <linearGradient
       xlink:href="#linearGradient2"
       id="linearGradient3"
       x1="-108.03222"
       y1="171.71246"
       x2="-108.03222"
       y2="83.231743"
       gradientUnits="userSpaceOnUse" />
    <filter
       style="color-interpolation-filters:sRGB"
       id="filter3"
       x="-0.024626484"
       y="-0.029879835"
       width="1.049253"
       height="1.0597597">
      <feGaussianBlur
         stdDeviation="1.6344912"
         id="feGaussianBlur3" />
    </filter>
  </defs>
  <g
     id="g3"
     transform="translate(1.5810289,1.5809818)">
    <path
       id="path1"
       d="m -182.46096,31.927752 -7.17969,7.179687 v 35.638672 l 9.25195,-9.246094 h 40 l 11.42969,-11.427734 h 89.357424 l 9.25,9.248047 V 50.537127 l -7.177735,-7.179688 H -138.92581 v -4.25 l -7.17773,-7.179687 z m 2.07031,5 h 32.21484 l 4.25,4.25 v 7.179687 h 104.324224 l 0.714843,0.714844 h -92.142577 l -11.42969,11.427734 h -40 l -2.18164,2.181641 V 41.177752 Z m 49.35938,24.142578 -11.42969,11.429687 h -40 l -7.17969,7.177735 -0.002,76.357418 7.17969,7.17774 h 144.929683 l 7.179687,-7.17774 V 68.250017 l -7.179687,-7.179687 z m 2.07031,5 h 89.35742 l 4.25,4.25 v 83.64258 l -4.25,4.25 H -180.3926 l -4.25,-4.25 0.002,-72.212893 4.25,-4.25 h 40 z m -8.66211,17.931641 c -4.40603,0 -8,3.594073 -8,8 v 42.246089 c 0,4.406 3.594,8 8,8 h 55.246093 c 4.406004,0 8,-3.594 8,-8 V 92.001971 c 0,-4.405927 -3.593968,-8 -8,-8 z m 0,6.25 h 55.246093 c 0.995245,0 1.75,0.754755 1.75,1.75 V 127.2715 l -18.060547,-21.0625 -0.0059,-0.006 c -0.644251,-0.73665 -1.600356,-1.12659 -2.576176,-1.05664 -0.90866,0.0595 -1.74811,0.51167 -2.29492,1.24024 l -9.6875,12.91015 -9.69726,-12.92969 v -0.002 c -0.58796,-0.78194 -1.51192,-1.2437 -2.49024,-1.24609 h -0.006 -0.006 c -0.95387,0.006 -1.85573,0.44795 -2.44336,1.19922 l -0.002,0.002 -11.47656,14.33398 V 92.001971 c 0,-0.995245 0.75476,-1.75 1.75,-1.75 z m 47.115234,0.25 c -4.399708,0.0011 -7.998251,3.600293 -7.998047,8 0.0011,4.398789 3.599261,7.996929 7.998047,7.998049 4.399705,2e-4 7.99888,-3.59834 8,-7.998049 2.03e-4,-4.400629 -3.599372,-8.000203 -8,-8 z m -0.05469,6.25 c 0.01042,-2.3e-5 0.02083,-1.63e-4 0.03125,0 h 0.01172 0.01172 c 0.984245,-6e-5 1.75006,0.765754 1.75,1.75 5.8e-5,0.984245 -0.765755,1.750059 -1.75,1.749999 -0.983802,-5.3e-4 -1.748107,-0.766198 -1.748047,-1.749999 -5.45e-4,-0.961216 0.732629,-1.719442 1.693359,-1.75 z m -10.332034,16.484379 16.955081,19.77343 c 0.822172,0.98224 2.148417,1.32242 3.3125,0.97266 v 0.26562 c 0,0.99524 -0.754755,1.75 -1.75,1.75 h -21.259761 c 0.78995,-1.07925 1.02957,-2.5038 0.19336,-3.62304 l -6.30469,-8.40625 c 0.51652,-0.19776 1.06394,-0.35489 1.42187,-0.81836 l 0.006,-0.008 z m -24.65625,0.12695 17.00196,22.63476 h -29.07422 c -0.99524,0 -1.75,-0.75476 -1.75,-1.75 v -6.76953 c 1.1916,0.36375 2.5509,0.005 3.36914,-1.01953 z m 21.46875,23.39062 -0.008,0.006 c 10e-4,-9.3e-4 6.6e-4,-0.003 0.002,-0.004 0.002,-0.001 0.004,-6e-4 0.006,-0.002 z"
       transform="translate(191.9844,-29.585955)"
       style="display:inline;opacity:0.6;fill:#00abff;fill-opacity:1;filter:url(#filter3)" />
    <path
       id="path2"
       d="m -182.46096,31.927752 -7.17969,7.179687 v 35.638672 l 9.25195,-9.246094 h 40 l 11.42969,-11.427734 h 89.357424 l 9.25,9.248047 V 50.537127 l -7.177735,-7.179688 H -138.92581 v -4.25 l -7.17773,-7.179687 z m 2.07031,5 h 32.21484 l 4.25,4.25 v 7.179687 h 104.324224 l 0.714843,0.714844 h -92.142577 l -11.42969,11.427734 h -40 l -2.18164,2.181641 V 41.177752 Z m 49.35938,24.142578 -11.42969,11.429687 h -40 l -7.17969,7.177735 -0.002,76.357418 7.17969,7.17774 h 144.929683 l 7.179687,-7.17774 V 68.250017 l -7.179687,-7.179687 z m 2.07031,5 h 89.35742 l 4.25,4.25 v 83.64258 l -4.25,4.25 H -180.3926 l -4.25,-4.25 0.002,-72.212893 4.25,-4.25 h 40 z m -8.66211,17.931641 c -4.40603,0 -8,3.594073 -8,8 v 42.246089 c 0,4.406 3.594,8 8,8 h 55.246093 c 4.406004,0 8,-3.594 8,-8 V 92.001971 c 0,-4.405927 -3.593968,-8 -8,-8 z m 0,6.25 h 55.246093 c 0.995245,0 1.75,0.754755 1.75,1.75 V 127.2715 l -18.060547,-21.0625 -0.0059,-0.006 c -0.644251,-0.73665 -1.600356,-1.12659 -2.576176,-1.05664 -0.90866,0.0595 -1.74811,0.51167 -2.29492,1.24024 l -9.6875,12.91015 -9.69726,-12.92969 v -0.002 c -0.58796,-0.78194 -1.51192,-1.2437 -2.49024,-1.24609 h -0.006 -0.006 c -0.95387,0.006 -1.85573,0.44795 -2.44336,1.19922 l -0.002,0.002 -11.47656,14.33398 V 92.001971 c 0,-0.995245 0.75476,-1.75 1.75,-1.75 z m 47.115234,0.25 c -4.399708,0.0011 -7.998251,3.600293 -7.998047,8 0.0011,4.398789 3.599261,7.996929 7.998047,7.998049 4.399705,2e-4 7.99888,-3.59834 8,-7.998049 2.03e-4,-4.400629 -3.599372,-8.000203 -8,-8 z m -0.05469,6.25 c 0.01042,-2.3e-5 0.02083,-1.63e-4 0.03125,0 h 0.01172 0.01172 c 0.984245,-6e-5 1.75006,0.765754 1.75,1.75 5.8e-5,0.984245 -0.765755,1.750059 -1.75,1.749999 -0.983802,-5.3e-4 -1.748107,-0.766198 -1.748047,-1.749999 -5.45e-4,-0.961216 0.732629,-1.719442 1.693359,-1.75 z m -10.332034,16.484379 16.955081,19.77343 c 0.822172,0.98224 2.148417,1.32242 3.3125,0.97266 v 0.26562 c 0,0.99524 -0.754755,1.75 -1.75,1.75 h -21.259761 c 0.78995,-1.07925 1.02957,-2.5038 0.19336,-3.62304 l -6.30469,-8.40625 c 0.51652,-0.19776 1.06394,-0.35489 1.42187,-0.81836 l 0.006,-0.008 z m -24.65625,0.12695 17.00196,22.63476 h -29.07422 c -0.99524,0 -1.75,-0.75476 -1.75,-1.75 v -6.76953 c 1.1916,0.36375 2.5509,0.005 3.36914,-1.01953 z m 21.46875,23.39062 -0.008,0.006 c 10e-4,-9.3e-4 6.6e-4,-0.003 0.002,-0.004 0.002,-0.001 0.004,-6e-4 0.006,-0.002 z"
       transform="translate(191.9844,-29.585955)"
       style="fill:url(#linearGradient3);fill-opacity:1" />
  </g>
</svg>
