<?xml version="1.0" encoding="UTF-8" standalone="no"?>
<svg
   width="163.97461"
   height="135.96872"
   version="1.1"
   id="svg26"
   xmlns:xlink="http://www.w3.org/1999/xlink"
   xmlns="http://www.w3.org/2000/svg"
   xmlns:svg="http://www.w3.org/2000/svg"
   xmlns:rdf="http://www.w3.org/1999/02/22-rdf-syntax-ns#"
   xmlns:cc="http://creativecommons.org/ns#"
   xmlns:dc="http://purl.org/dc/elements/1.1/">
  <metadata
     id="metadata1">
    <rdf:RDF>
      <cc:Work
         rdf:about="">
        <dc:format>image/svg+xml</dc:format>
        <dc:type
           rdf:resource="http://purl.org/dc/dcmitype/StillImage" />
        <dc:title />
      </cc:Work>
    </rdf:RDF>
  </metadata>
  <defs
     id="defs5">
    <linearGradient
       id="linearGradient26">
      <stop
         style="stop-color:#00abff;stop-opacity:0;"
         offset="0"
         id="stop27" />
      <stop
         style="stop-color:#00abff;stop-opacity:1;"
         offset="1"
         id="stop26" />
    </linearGradient>
    <style
       id="current-color-scheme"
       type="text/css">.ColorScheme-Text {
        color:#4d4d4d;
      }</style>
    <style
       type="text/css"
       id="style1">.ColorScheme-Text {
        color:#4d4d4d;
      }</style>
    <linearGradient
       xlink:href="#linearGradient26"
       id="linearGradient27"
       x1="-100.7971"
       y1="200"
       x2="-100.7971"
       y2="85.650749"
       gradientUnits="userSpaceOnUse" />
    <filter
       style="color-interpolation-filters:sRGB"
       id="filter27"
       x="-0.024580925"
       y="-0.029947181"
       width="1.0491618"
       height="1.0598944">
      <feGaussianBlur
         stdDeviation="1.6007412"
         id="feGaussianBlur27" />
    </filter>
  </defs>
  <g
     id="g27"
     transform="translate(-18.015601,-29.585955)">
    <path
       id="path22"
       style="display:inline;opacity:0.6;fill:#00abff;fill-opacity:1;filter:url(#filter27)"
       d="m -166.83984,33.427734 -6.30078,6.300782 V 71.126953 L -166.00977,64 h 40 l 11.42969,-11.427734 h 90.599611 l 7.128907,7.126953 v -8.541016 l -6.298829,-6.300781 H -125.42578 v -5.128906 l -6.29883,-6.300782 z m 0.82812,2 h 33.45703 l 5.12891,5.128907 v 6.300781 h 103.445311 l 5.128907,5.128906 v 2.884766 l -4.298829,-4.298828 H -115.4082 L -126.83789,62 h -40 l -4.30273,4.300781 V 40.556641 Z M -115.41016,62.570312 -126.83984,74 h -40 l -6.30078,6.298828 -0.002,75.115232 6.30078,6.29883 h 143.687503 l 6.300781,-6.29883 V 68.871094 l -6.300781,-6.300782 z m 0.82813,2 h 90.599608 l 5.128906,5.128907 v 84.884761 l -5.128906,5.12891 H -166.01367 l -5.12891,-5.12891 0.002,-73.455074 L -166.01172,76 h 40 z m 19.580077,20.382813 a 24.428936,24.428936 0 0 0 -24.427737,24.427735 24.428936,24.428936 0 0 0 24.427737,24.42969 24.428936,24.428936 0 0 0 12.207031,-3.33008 l 7.009766,10.84961 c 0.407984,0.63156 1.245396,0.81032 1.876953,0.40234 0.631557,-0.40798 0.810328,-1.24343 0.402344,-1.875 l -7.021485,-10.87304 a 24.428936,24.428936 0 0 0 9.955078,-19.60352 24.428936,24.428936 0 0 0 -24.429687,-24.427735 z m 0,2.714844 a 21.71461,21.71461 0 0 1 21.714844,21.712891 21.71461,21.71461 0 0 1 -21.714844,21.71484 21.71461,21.71461 0 0 1 -21.714847,-21.71484 21.71461,21.71461 0 0 1 21.714847,-21.712891 z"
       transform="translate(195)" />
    <path
       id="path26"
       style="fill:url(#linearGradient27);fill-opacity:1"
       d="m -166.83984,33.427734 -6.30078,6.300782 V 71.126953 L -166.00977,64 h 40 l 11.42969,-11.427734 h 90.599611 l 7.128907,7.126953 v -8.541016 l -6.298829,-6.300781 H -125.42578 v -5.128906 l -6.29883,-6.300782 z m 0.82812,2 h 33.45703 l 5.12891,5.128907 v 6.300781 h 103.445311 l 5.128907,5.128906 v 2.884766 l -4.298829,-4.298828 H -115.4082 L -126.83789,62 h -40 l -4.30273,4.300781 V 40.556641 Z M -115.41016,62.570312 -126.83984,74 h -40 l -6.30078,6.298828 -0.002,75.115232 6.30078,6.29883 h 143.687503 l 6.300781,-6.29883 V 68.871094 l -6.300781,-6.300782 z m 0.82813,2 h 90.599608 l 5.128906,5.128907 v 84.884761 l -5.128906,5.12891 H -166.01367 l -5.12891,-5.12891 0.002,-73.455074 L -166.01172,76 h 40 z m 19.580077,20.382813 a 24.428936,24.428936 0 0 0 -24.427737,24.427735 24.428936,24.428936 0 0 0 24.427737,24.42969 24.428936,24.428936 0 0 0 12.207031,-3.33008 l 7.009766,10.84961 c 0.407984,0.63156 1.245396,0.81032 1.876953,0.40234 0.631557,-0.40798 0.810328,-1.24343 0.402344,-1.875 l -7.021485,-10.87304 a 24.428936,24.428936 0 0 0 9.955078,-19.60352 24.428936,24.428936 0 0 0 -24.429687,-24.427735 z m 0,2.714844 a 21.71461,21.71461 0 0 1 21.714844,21.712891 21.71461,21.71461 0 0 1 -21.714844,21.71484 21.71461,21.71461 0 0 1 -21.714847,-21.71484 21.71461,21.71461 0 0 1 21.714847,-21.712891 z"
       transform="translate(195)" />
  </g>
</svg>
