<?xml version="1.0" encoding="UTF-8" standalone="no"?>
<svg
   width="167.13663"
   height="139.13072"
   version="1.1"
   id="svg19"
   xmlns:xlink="http://www.w3.org/1999/xlink"
   xmlns="http://www.w3.org/2000/svg"
   xmlns:svg="http://www.w3.org/2000/svg"
   xmlns:rdf="http://www.w3.org/1999/02/22-rdf-syntax-ns#"
   xmlns:cc="http://creativecommons.org/ns#"
   xmlns:dc="http://purl.org/dc/elements/1.1/">
  <metadata
     id="metadata1">
    <rdf:RDF>
      <cc:Work
         rdf:about="">
        <dc:format>image/svg+xml</dc:format>
        <dc:type
           rdf:resource="http://purl.org/dc/dcmitype/StillImage" />
        <dc:title />
      </cc:Work>
    </rdf:RDF>
  </metadata>
  <defs
     id="defs5">
    <linearGradient
       id="linearGradient2">
      <stop
         style="stop-color:#00abff;stop-opacity:0;"
         offset="0"
         id="stop3" />
      <stop
         style="stop-color:#00abff;stop-opacity:1;"
         offset="1"
         id="stop2" />
    </linearGradient>
    <style
       id="current-color-scheme"
       type="text/css">.ColorScheme-Text {
        color:#4d4d4d;
      }</style>
    <style
       type="text/css"
       id="style1">.ColorScheme-Text {
        color:#4d4d4d;
      }</style>
    <linearGradient
       xlink:href="#linearGradient2"
       id="linearGradient3"
       x1="-126.05388"
       y1="173.45421"
       x2="-126.05388"
       y2="86.018539"
       gradientUnits="userSpaceOnUse" />
    <filter
       style="color-interpolation-filters:sRGB"
       id="filter3"
       x="-0.024626484"
       y="-0.029879835"
       width="1.049253"
       height="1.0597597">
      <feGaussianBlur
         stdDeviation="1.6344912"
         id="feGaussianBlur3" />
    </filter>
  </defs>
  <g
     id="g3"
     transform="translate(1.5810288,1.5809818)">
    <path
       id="path1"
       d="m -200.83292,31.927752 -7.17774,7.179687 v 35.638672 l 9.25195,-9.246094 h 40 l 11.42969,-11.427734 h 89.357423 l 9.25,9.248047 V 50.537127 l -7.179687,-7.179688 H -157.29582 v -4.25 l -7.17968,-7.179687 z m 2.07226,5 h 32.21289 l 4.25195,4.25 v 7.179687 h 104.32227 l 0.714844,0.714844 h -92.144534 l -11.42773,11.427734 h -39.99805 l -2.18164,2.181641 V 41.177752 Z m 49.35547,24.142578 -11.42773,11.429687 h -39.99805 l -7.17969,7.177735 -0.002,76.357418 7.17773,7.17774 h 144.931643 l 7.179687,-7.17774 V 68.250017 l -7.179687,-7.179687 z m 2.07227,5 h 89.357417 l 4.251953,4.25 v 83.64258 l -4.251953,4.25 H -198.76261 l -4.25,-4.25 0.002,-72.212893 4.25,-4.25 h 40 z m 30.33789,17.429687 c -6.1956,-3.11e-4 -11.25031,5.054399 -11.25,11.25 v 0.002 0.002 c 0.004,1.219969 0.27251,2.407107 0.66211,3.55664 l -18.24805,10.535153 c -1.98124,-1.57751 -4.35545,-2.59734 -6.91211,-2.59766 -6.1956,-3.2e-4 -11.25031,5.05439 -11.25,11.25 -3.1e-4,6.1956 5.0544,11.25031 11.25,11.25 3.90648,-0.004 7.41697,-2.106 9.45117,-5.37109 l 28.13086,7.53711 c 0.2334,5.99137 5.1156,10.83113 11.16211,10.83203 h 0.002 c 6.194728,3.1e-4 11.24907,-5.05332 11.250003,-11.24805 3.13e-4,-6.1956 -5.054403,-11.25031 -11.250003,-11.25 h -0.002 c -4.00876,0.004 -7.58895,2.21613 -9.58984,5.61524 l -27.91993,-7.47852 c -0.0122,-1.18268 -0.2654,-2.33322 -0.64062,-3.44922 l 18.26367,-10.54296 c 1.97281,1.57486 4.3365,2.59643 6.88477,2.60546 h 0.002 0.006 c 6.19386,-9.4e-4 11.24712,-5.05418 11.24805,-11.24804 3.1e-4,-6.194734 -5.05332,-11.249072 -11.24805,-11.25 z m -0.002,6.25 h 0.002 c 2.77767,0.0018 4.99818,2.222059 4.99804,5 -7e-4,2.77734 -2.22097,4.996287 -4.99804,4.998047 -2.77861,1.4e-4 -4.99931,-2.219436 -5,-4.998047 -1.4e-4,-2.778544 2.21976,-4.999074 4.99804,-5 z m -35.74804,22.748043 h 0.002 c 2.77768,0.002 4.99819,2.22205 4.99805,5 1.4e-4,2.77794 -2.22037,4.99824 -4.99805,5 -2.77921,1.4e-4 -5.00014,-2.22079 -5,-5 -1.4e-4,-2.77855 2.21977,-4.99908 4.99805,-5 z m 48.74804,13 c 2.77921,-1.4e-4 5.000143,2.22079 5.000003,5 1.4e-4,2.77921 -2.220793,5.00014 -5.000003,5 -2.77922,1.4e-4 -5.00014,-2.22079 -5,-5 -1.4e-4,-2.77922 2.22078,-5.00014 5,-5 z"
       transform="translate(210.35441,-29.585955)"
       style="display:inline;opacity:0.6;fill:#00abff;fill-opacity:1;filter:url(#filter3)" />
    <path
       id="path2"
       d="m -200.83292,31.927752 -7.17774,7.179687 v 35.638672 l 9.25195,-9.246094 h 40 l 11.42969,-11.427734 h 89.357423 l 9.25,9.248047 V 50.537127 l -7.179687,-7.179688 H -157.29582 v -4.25 l -7.17968,-7.179687 z m 2.07226,5 h 32.21289 l 4.25195,4.25 v 7.179687 h 104.32227 l 0.714844,0.714844 h -92.144534 l -11.42773,11.427734 h -39.99805 l -2.18164,2.181641 V 41.177752 Z m 49.35547,24.142578 -11.42773,11.429687 h -39.99805 l -7.17969,7.177735 -0.002,76.357418 7.17773,7.17774 h 144.931643 l 7.179687,-7.17774 V 68.250017 l -7.179687,-7.179687 z m 2.07227,5 h 89.357417 l 4.251953,4.25 v 83.64258 l -4.251953,4.25 H -198.76261 l -4.25,-4.25 0.002,-72.212893 4.25,-4.25 h 40 z m 30.33789,17.429687 c -6.1956,-3.11e-4 -11.25031,5.054399 -11.25,11.25 v 0.002 0.002 c 0.004,1.219969 0.27251,2.407107 0.66211,3.55664 l -18.24805,10.535153 c -1.98124,-1.57751 -4.35545,-2.59734 -6.91211,-2.59766 -6.1956,-3.2e-4 -11.25031,5.05439 -11.25,11.25 -3.1e-4,6.1956 5.0544,11.25031 11.25,11.25 3.90648,-0.004 7.41697,-2.106 9.45117,-5.37109 l 28.13086,7.53711 c 0.2334,5.99137 5.1156,10.83113 11.16211,10.83203 h 0.002 c 6.194728,3.1e-4 11.24907,-5.05332 11.250003,-11.24805 3.13e-4,-6.1956 -5.054403,-11.25031 -11.250003,-11.25 h -0.002 c -4.00876,0.004 -7.58895,2.21613 -9.58984,5.61524 l -27.91993,-7.47852 c -0.0122,-1.18268 -0.2654,-2.33322 -0.64062,-3.44922 l 18.26367,-10.54296 c 1.97281,1.57486 4.3365,2.59643 6.88477,2.60546 h 0.002 0.006 c 6.19386,-9.4e-4 11.24712,-5.05418 11.24805,-11.24804 3.1e-4,-6.194734 -5.05332,-11.249072 -11.24805,-11.25 z m -0.002,6.25 h 0.002 c 2.77767,0.0018 4.99818,2.222059 4.99804,5 -7e-4,2.77734 -2.22097,4.996287 -4.99804,4.998047 -2.77861,1.4e-4 -4.99931,-2.219436 -5,-4.998047 -1.4e-4,-2.778544 2.21976,-4.999074 4.99804,-5 z m -35.74804,22.748043 h 0.002 c 2.77768,0.002 4.99819,2.22205 4.99805,5 1.4e-4,2.77794 -2.22037,4.99824 -4.99805,5 -2.77921,1.4e-4 -5.00014,-2.22079 -5,-5 -1.4e-4,-2.77855 2.21977,-4.99908 4.99805,-5 z m 48.74804,13 c 2.77921,-1.4e-4 5.000143,2.22079 5.000003,5 1.4e-4,2.77921 -2.220793,5.00014 -5.000003,5 -2.77922,1.4e-4 -5.00014,-2.22079 -5,-5 -1.4e-4,-2.77922 2.22078,-5.00014 5,-5 z"
       transform="translate(210.35441,-29.585955)"
       style="fill:url(#linearGradient3);fill-opacity:1" />
  </g>
</svg>
