<?xml version="1.0" encoding="UTF-8" standalone="no"?>
<svg
   width="163.97461"
   height="135.96872"
   version="1.1"
   id="svg19"
   xmlns:xlink="http://www.w3.org/1999/xlink"
   xmlns="http://www.w3.org/2000/svg"
   xmlns:svg="http://www.w3.org/2000/svg"
   xmlns:rdf="http://www.w3.org/1999/02/22-rdf-syntax-ns#"
   xmlns:cc="http://creativecommons.org/ns#"
   xmlns:dc="http://purl.org/dc/elements/1.1/">
  <metadata
     id="metadata1">
    <rdf:RDF>
      <cc:Work
         rdf:about="">
        <dc:format>image/svg+xml</dc:format>
        <dc:type
           rdf:resource="http://purl.org/dc/dcmitype/StillImage" />
        <dc:title />
      </cc:Work>
    </rdf:RDF>
  </metadata>
  <defs
     id="defs5">
    <linearGradient
       id="linearGradient19">
      <stop
         style="stop-color:#00abff;stop-opacity:0;"
         offset="0"
         id="stop20" />
      <stop
         style="stop-color:#00abff;stop-opacity:1;"
         offset="1"
         id="stop19" />
    </linearGradient>
    <style
       id="current-color-scheme"
       type="text/css">.ColorScheme-Text {
        color:#4d4d4d;
      }</style>
    <style
       type="text/css"
       id="style1">.ColorScheme-Text {
        color:#4d4d4d;
      }</style>
    <linearGradient
       xlink:href="#linearGradient19"
       id="linearGradient20"
       x1="-140.72464"
       y1="200"
       x2="-140.72464"
       y2="87.059189"
       gradientUnits="userSpaceOnUse" />
    <filter
       style="color-interpolation-filters:sRGB"
       id="filter20"
       x="-0.024580925"
       y="-0.029947181"
       width="1.0491618"
       height="1.0598944">
      <feGaussianBlur
         stdDeviation="1.6007412"
         id="feGaussianBlur20" />
    </filter>
  </defs>
  <g
     id="g20"
     transform="translate(-18.015601,-29.585955)">
    <path
       id="path14"
       style="display:inline;opacity:0.6;fill:#00abff;fill-opacity:1;filter:url(#filter20)"
       d="m -211.83984,33.427734 -6.30078,6.300782 V 71.126953 L -211.00977,64 h 40 l 11.42969,-11.427734 h 90.599611 l 7.128907,7.126953 v -8.541016 l -6.298829,-6.300781 H -170.42578 v -5.128906 l -6.29883,-6.300782 z m 0.82812,2 h 33.45703 l 5.12891,5.128907 v 6.300781 h 103.445311 l 5.128907,5.128906 v 2.884766 l -4.298829,-4.298828 H -160.4082 L -171.83789,62 h -40 l -4.30273,4.300781 V 40.556641 Z M -160.41016,62.570312 -171.83984,74 h -40 l -6.30078,6.298828 -0.002,75.115232 6.30078,6.29883 h 143.687503 l 6.300781,-6.29883 V 68.871094 l -6.300781,-6.300782 z m 0.82813,2 h 90.599608 l 5.128906,5.128907 v 84.884761 l -5.128906,5.12891 H -211.01367 l -5.12891,-5.12891 0.002,-73.455074 L -211.01172,76 h 40 z m 19.58398,19.478516 a 28.500577,28.500577 0 0 0 -28.5,28.500002 28.500577,28.500577 0 0 0 28.5,28.5 28.500577,28.500577 0 0 0 28.5,-28.5 28.500577,28.500577 0 0 0 -28.5,-28.500002 z m 0,3 a 25.500277,25.500277 0 0 1 25.5,25.500002 25.500277,25.500277 0 0 1 -25.5,25.5 25.500277,25.500277 0 0 1 -25.5,-25.5 25.500277,25.500277 0 0 1 25.5,-25.500002 z m 0,9 c -0.83102,0 -1.5,0.668976 -1.5,1.5 v 17.705082 c -0.12586,0.61504 0.14372,1.26566 0.71875,1.59765 l 15.58789,9 c 0.7197,0.41552 1.63527,0.17086 2.05079,-0.54883 0.41551,-0.71968 0.16891,-1.63526 -0.55079,-2.05078 l -14.80664,-8.54687 V 97.548828 c 0,-0.831024 -0.66897,-1.5 -1.5,-1.5 z"
       transform="translate(240)" />
    <path
       id="path19"
       style="fill:url(#linearGradient20);fill-opacity:1"
       d="m -211.83984,33.427734 -6.30078,6.300782 V 71.126953 L -211.00977,64 h 40 l 11.42969,-11.427734 h 90.599611 l 7.128907,7.126953 v -8.541016 l -6.298829,-6.300781 H -170.42578 v -5.128906 l -6.29883,-6.300782 z m 0.82812,2 h 33.45703 l 5.12891,5.128907 v 6.300781 h 103.445311 l 5.128907,5.128906 v 2.884766 l -4.298829,-4.298828 H -160.4082 L -171.83789,62 h -40 l -4.30273,4.300781 V 40.556641 Z M -160.41016,62.570312 -171.83984,74 h -40 l -6.30078,6.298828 -0.002,75.115232 6.30078,6.29883 h 143.687503 l 6.300781,-6.29883 V 68.871094 l -6.300781,-6.300782 z m 0.82813,2 h 90.599608 l 5.128906,5.128907 v 84.884761 l -5.128906,5.12891 H -211.01367 l -5.12891,-5.12891 0.002,-73.455074 L -211.01172,76 h 40 z m 19.58398,19.478516 a 28.500577,28.500577 0 0 0 -28.5,28.500002 28.500577,28.500577 0 0 0 28.5,28.5 28.500577,28.500577 0 0 0 28.5,-28.5 28.500577,28.500577 0 0 0 -28.5,-28.500002 z m 0,3 a 25.500277,25.500277 0 0 1 25.5,25.500002 25.500277,25.500277 0 0 1 -25.5,25.5 25.500277,25.500277 0 0 1 -25.5,-25.5 25.500277,25.500277 0 0 1 25.5,-25.500002 z m 0,9 c -0.83102,0 -1.5,0.668976 -1.5,1.5 v 17.705082 c -0.12586,0.61504 0.14372,1.26566 0.71875,1.59765 l 15.58789,9 c 0.7197,0.41552 1.63527,0.17086 2.05079,-0.54883 0.41551,-0.71968 0.16891,-1.63526 -0.55079,-2.05078 l -14.80664,-8.54687 V 97.548828 c 0,-0.831024 -0.66897,-1.5 -1.5,-1.5 z"
       transform="translate(240)" />
  </g>
</svg>
