<?xml version="1.0" encoding="UTF-8" standalone="no"?>
<svg
   width="163.97461"
   height="135.96872"
   version="1.1"
   id="svg37"
   xmlns:xlink="http://www.w3.org/1999/xlink"
   xmlns="http://www.w3.org/2000/svg"
   xmlns:svg="http://www.w3.org/2000/svg"
   xmlns:rdf="http://www.w3.org/1999/02/22-rdf-syntax-ns#"
   xmlns:cc="http://creativecommons.org/ns#"
   xmlns:dc="http://purl.org/dc/elements/1.1/">
  <metadata
     id="metadata1">
    <rdf:RDF>
      <cc:Work
         rdf:about="">
        <dc:format>image/svg+xml</dc:format>
        <dc:type
           rdf:resource="http://purl.org/dc/dcmitype/StillImage" />
        <dc:title />
      </cc:Work>
    </rdf:RDF>
  </metadata>
  <defs
     id="defs10">
    <linearGradient
       id="linearGradient37">
      <stop
         style="stop-color:#00abff;stop-opacity:0;"
         offset="0"
         id="stop38" />
      <stop
         style="stop-color:#00abff;stop-opacity:1;"
         offset="1"
         id="stop37" />
    </linearGradient>
    <style
       type="text/css"
       id="style1" />
    <style
       type="text/css"
       id="style2" />
    <style
       type="text/css"
       id="style3" />
    <style
       id="current-color-scheme"
       type="text/css">.ColorScheme-Text {
        color:#4d4d4d;
      }</style>
    <style
       type="text/css"
       id="style4">.ColorScheme-Text {
        color:#4d4d4d;
      }</style>
    <style
       type="text/css"
       id="style5" />
    <style
       type="text/css"
       id="style6" />
    <linearGradient
       xlink:href="#linearGradient37"
       id="linearGradient38"
       x1="-112.53623"
       y1="200"
       x2="-112.53623"
       y2="87.863815"
       gradientUnits="userSpaceOnUse" />
    <filter
       style="color-interpolation-filters:sRGB"
       id="filter38"
       x="-0.024580925"
       y="-0.029947181"
       width="1.0491618"
       height="1.0598944">
      <feGaussianBlur
         stdDeviation="1.6007412"
         id="feGaussianBlur38" />
    </filter>
  </defs>
  <g
     id="g38"
     transform="translate(-18.015601,-29.585955)">
    <path
       id="path30"
       style="display:inline;opacity:0.6;fill:#00abff;fill-opacity:1;filter:url(#filter38)"
       d="m -181.83984,33.427734 -6.30078,6.300782 V 71.126953 L -181.00977,64 h 40 l 11.42969,-11.427734 h 90.599611 l 7.128907,7.126953 v -8.541016 l -6.298829,-6.300781 H -140.42578 v -5.128906 l -6.29883,-6.300782 z m 0.82812,2 h 33.45703 l 5.12891,5.128907 v 6.300781 h 103.445311 l 5.128907,5.128906 v 2.884766 l -4.298829,-4.298828 H -130.4082 L -141.83789,62 h -40 l -4.30273,4.300781 V 40.556641 Z M -130.41016,62.570312 -141.83984,74 h -40 l -6.30078,6.298828 -0.002,75.115232 6.30078,6.29883 h 143.687503 l 6.300781,-6.29883 V 68.871094 l -6.300781,-6.300782 z m 0.82813,2 h 90.599608 l 5.128906,5.128907 v 84.884761 l -5.128906,5.12891 H -181.01367 l -5.12891,-5.12891 0.002,-73.455074 L -181.01172,76 h 40 z m 18.76562,19.478516 c -0.21374,0 -0.42671,0.04831 -0.62304,0.146484 l -24.61719,12.308594 c -0.65451,0.327255 -0.8881,1.044499 -0.70313,1.65625 -0.0407,0.130959 -0.0684,0.267761 -0.0684,0.41211 v 26.257814 c 0,0.48923 0.25665,0.94296 0.67578,1.19531 l 24.61718,14.82227 c 0.003,0.002 0.005,0.002 0.008,0.004 0.0163,0.01 0.034,0.0164 0.0508,0.0254 0.0821,0.0443 0.16573,0.079 0.25195,0.10547 0.0289,0.009 0.0584,0.0144 0.0879,0.0215 0.0712,0.0168 0.14292,0.0278 0.21484,0.0332 0.0592,0.005 0.1176,0.0109 0.17774,0.008 0.002,-1e-4 0.004,1.1e-4 0.006,0 0.16453,-0.009 0.33043,-0.0498 0.49219,-0.12304 0.0125,-0.006 0.0247,-0.0116 0.0371,-0.0176 0.0261,-0.0127 0.0523,-0.0225 0.0781,-0.0371 l 26.257813,-14.82227 c 0.438229,-0.24736 0.708984,-0.71163 0.708985,-1.21484 v -18.05274 c 0,-0.77039 -0.624136,-1.39453 -1.394532,-1.39453 -0.770395,0 -1.394531,0.62414 -1.394531,1.39453 v 17.23828 l -23.468755,13.24805 v -24.41211 c 0,-0.10845 -0.0137,-0.21312 -0.0371,-0.31445 l 23.947261,-13.572266 c 0.971294,-0.550406 0.934107,-1.961658 -0.06445,-2.460938 L -110.19336,84.195312 c -0.19636,-0.09818 -0.40931,-0.146484 -0.62305,-0.146484 z m 0,2.955078 21.652348,10.826172 -21.652348,12.269532 -21.65234,-12.269532 z m -23.22265,13.140624 21.86523,12.39258 c -0.0234,0.10133 -0.0371,0.206 -0.0371,0.31445 v 24.33203 l -21.82812,-13.14257 z m 5.23242,6.88086 c -0.4944,-0.0212 -0.9853,0.22161 -1.25781,0.67578 -0.39638,0.66062 -0.18211,1.51769 0.47851,1.91406 l 8.20508,4.92383 c 0.66065,0.39637 1.51769,0.18211 1.91406,-0.47851 0.39638,-0.66065 0.18211,-1.51769 -0.47851,-1.91407 l -8.20508,-4.92382 c -0.20645,-0.12387 -0.43152,-0.18765 -0.65625,-0.19727 z"
       transform="translate(210)" />
    <path
       id="path37"
       style="fill:url(#linearGradient38);fill-opacity:1"
       d="m -181.83984,33.427734 -6.30078,6.300782 V 71.126953 L -181.00977,64 h 40 l 11.42969,-11.427734 h 90.599611 l 7.128907,7.126953 v -8.541016 l -6.298829,-6.300781 H -140.42578 v -5.128906 l -6.29883,-6.300782 z m 0.82812,2 h 33.45703 l 5.12891,5.128907 v 6.300781 h 103.445311 l 5.128907,5.128906 v 2.884766 l -4.298829,-4.298828 H -130.4082 L -141.83789,62 h -40 l -4.30273,4.300781 V 40.556641 Z M -130.41016,62.570312 -141.83984,74 h -40 l -6.30078,6.298828 -0.002,75.115232 6.30078,6.29883 h 143.687503 l 6.300781,-6.29883 V 68.871094 l -6.300781,-6.300782 z m 0.82813,2 h 90.599608 l 5.128906,5.128907 v 84.884761 l -5.128906,5.12891 H -181.01367 l -5.12891,-5.12891 0.002,-73.455074 L -181.01172,76 h 40 z m 18.76562,19.478516 c -0.21374,0 -0.42671,0.04831 -0.62304,0.146484 l -24.61719,12.308594 c -0.65451,0.327255 -0.8881,1.044499 -0.70313,1.65625 -0.0407,0.130959 -0.0684,0.267761 -0.0684,0.41211 v 26.257814 c 0,0.48923 0.25665,0.94296 0.67578,1.19531 l 24.61718,14.82227 c 0.003,0.002 0.005,0.002 0.008,0.004 0.0163,0.01 0.034,0.0164 0.0508,0.0254 0.0821,0.0443 0.16573,0.079 0.25195,0.10547 0.0289,0.009 0.0584,0.0144 0.0879,0.0215 0.0712,0.0168 0.14292,0.0278 0.21484,0.0332 0.0592,0.005 0.1176,0.0109 0.17774,0.008 0.002,-1e-4 0.004,1.1e-4 0.006,0 0.16453,-0.009 0.33043,-0.0498 0.49219,-0.12304 0.0125,-0.006 0.0247,-0.0116 0.0371,-0.0176 0.0261,-0.0127 0.0523,-0.0225 0.0781,-0.0371 l 26.257813,-14.82227 c 0.438229,-0.24736 0.708984,-0.71163 0.708985,-1.21484 v -18.05274 c 0,-0.77039 -0.624136,-1.39453 -1.394532,-1.39453 -0.770395,0 -1.394531,0.62414 -1.394531,1.39453 v 17.23828 l -23.468755,13.24805 v -24.41211 c 0,-0.10845 -0.0137,-0.21312 -0.0371,-0.31445 l 23.947261,-13.572266 c 0.971294,-0.550406 0.934107,-1.961658 -0.06445,-2.460938 L -110.19336,84.195312 c -0.19636,-0.09818 -0.40931,-0.146484 -0.62305,-0.146484 z m 0,2.955078 21.652348,10.826172 -21.652348,12.269532 -21.65234,-12.269532 z m -23.22265,13.140624 21.86523,12.39258 c -0.0234,0.10133 -0.0371,0.206 -0.0371,0.31445 v 24.33203 l -21.82812,-13.14257 z m 5.23242,6.88086 c -0.4944,-0.0212 -0.9853,0.22161 -1.25781,0.67578 -0.39638,0.66062 -0.18211,1.51769 0.47851,1.91406 l 8.20508,4.92383 c 0.66065,0.39637 1.51769,0.18211 1.91406,-0.47851 0.39638,-0.66065 0.18211,-1.51769 -0.47851,-1.91407 l -8.20508,-4.92382 c -0.20645,-0.12387 -0.43152,-0.18765 -0.65625,-0.19727 z"
       transform="translate(210)" />
  </g>
</svg>
