<?xml version="1.0" encoding="UTF-8" standalone="no"?>
<svg
   width="167.13663"
   height="139.13072"
   version="1.1"
   id="svg16"
   xmlns:xlink="http://www.w3.org/1999/xlink"
   xmlns="http://www.w3.org/2000/svg"
   xmlns:svg="http://www.w3.org/2000/svg"
   xmlns:rdf="http://www.w3.org/1999/02/22-rdf-syntax-ns#"
   xmlns:cc="http://creativecommons.org/ns#"
   xmlns:dc="http://purl.org/dc/elements/1.1/">
  <metadata
     id="metadata1">
    <rdf:RDF>
      <cc:Work
         rdf:about="">
        <dc:format>image/svg+xml</dc:format>
        <dc:type
           rdf:resource="http://purl.org/dc/dcmitype/StillImage" />
        <dc:title />
      </cc:Work>
    </rdf:RDF>
  </metadata>
  <defs
     id="defs5">
    <linearGradient
       id="linearGradient3">
      <stop
         style="stop-color:#00abff;stop-opacity:0;"
         offset="0"
         id="stop4" />
      <stop
         style="stop-color:#00abff;stop-opacity:1;"
         offset="1"
         id="stop3" />
    </linearGradient>
    <style
       id="current-color-scheme"
       type="text/css">.ColorScheme-Text {
        color:#4d4d4d;
      }</style>
    <style
       type="text/css"
       id="style1">.ColorScheme-Text {
        color:#4d4d4d;
      }</style>
    <linearGradient
       xlink:href="#linearGradient3"
       id="linearGradient4"
       x1="-108.09721"
       y1="173.97714"
       x2="-108.09721"
       y2="90.674538"
       gradientUnits="userSpaceOnUse" />
    <filter
       style="color-interpolation-filters:sRGB"
       id="filter4"
       x="-0.024626484"
       y="-0.029879835"
       width="1.049253"
       height="1.0597597">
      <feGaussianBlur
         stdDeviation="1.6344912"
         id="feGaussianBlur4" />
    </filter>
  </defs>
  <g
     id="path16"
     transform="translate(193.56543,-28.004973)">
    <path
       id="path1"
       d="m -182.46096,31.927752 -7.17969,7.179687 v 35.638672 l 9.25195,-9.246094 h 40 l 11.42969,-11.427734 h 89.357423 l 9.25,9.248047 V 50.537127 l -7.177735,-7.179688 H -138.92581 v -4.25 l -7.17773,-7.179687 z m 2.07031,5 h 32.21484 l 4.25,4.25 v 7.179687 h 104.324223 l 0.714843,0.714844 h -92.142576 l -11.42969,11.427734 h -40 l -2.18164,2.181641 V 41.177752 Z m 49.35938,24.142578 -11.42969,11.429687 h -40 l -7.17969,7.177735 -0.002,76.357418 7.17968,7.17774 h 144.929692 l 7.179687,-7.17774 V 68.250017 l -7.179687,-7.179687 z m 2.07031,5 h 89.357419 l 4.25,4.25 v 83.64258 l -4.25,4.25 H -180.3926 l -4.25,-4.25 0.002,-72.212893 4.25,-4.25 h 40 z m 18.96094,16.785156 -31.55469,32.189454 3.7832,3.69336 3.38086,-3.44922 v 27.20898 h 32.75781 v -0.004 h 2.289065 V 124.6172 c 0,-1.05808 -0.100202,-2.04944 -0.310547,-2.9746 -0.222279,-0.97786 -0.635908,-1.87258 -1.236328,-2.625 -0.60127,-0.794 -1.42104,-1.40483 -2.36523,-1.79883 -0.99628,-0.43415 -2.12801,-0.61328 -3.39258,-0.61328 -1.31789,0 -2.50649,0.084 -3.57617,0.26562 -0.98564,0.16745 -1.78558,0.32595 -2.42774,0.48633 l -1.13672,0.2832 V 137.209 h -15.30468 l -0.008,-27.3125 19.09961,-19.480467 19.103518,19.482417 v 32.59961 h 5.294921 l -0.0059,-27.20507 3.378906,3.44531 3.783203,-3.69336 z m 12.39062,10.865235 12,11.986329 V 93.720721 Z"
       style="display:inline;opacity:0.6;fill:#00abff;fill-opacity:1;filter:url(#filter4)" />
    <path
       id="path3"
       d="m -182.46096,31.927752 -7.17969,7.179687 v 35.638672 l 9.25195,-9.246094 h 40 l 11.42969,-11.427734 h 89.357423 l 9.25,9.248047 V 50.537127 l -7.177735,-7.179688 H -138.92581 v -4.25 l -7.17773,-7.179687 z m 2.07031,5 h 32.21484 l 4.25,4.25 v 7.179687 h 104.324223 l 0.714843,0.714844 h -92.142576 l -11.42969,11.427734 h -40 l -2.18164,2.181641 V 41.177752 Z m 49.35938,24.142578 -11.42969,11.429687 h -40 l -7.17969,7.177735 -0.002,76.357418 7.17968,7.17774 h 144.929692 l 7.179687,-7.17774 V 68.250017 l -7.179687,-7.179687 z m 2.07031,5 h 89.357419 l 4.25,4.25 v 83.64258 l -4.25,4.25 H -180.3926 l -4.25,-4.25 0.002,-72.212893 4.25,-4.25 h 40 z m 18.96094,16.785156 -31.55469,32.189454 3.7832,3.69336 3.38086,-3.44922 v 27.20898 h 32.75781 v -0.004 h 2.289065 V 124.6172 c 0,-1.05808 -0.100202,-2.04944 -0.310547,-2.9746 -0.222279,-0.97786 -0.635908,-1.87258 -1.236328,-2.625 -0.60127,-0.794 -1.42104,-1.40483 -2.36523,-1.79883 -0.99628,-0.43415 -2.12801,-0.61328 -3.39258,-0.61328 -1.31789,0 -2.50649,0.084 -3.57617,0.26562 -0.98564,0.16745 -1.78558,0.32595 -2.42774,0.48633 l -1.13672,0.2832 V 137.209 h -15.30468 l -0.008,-27.3125 19.09961,-19.480467 19.103518,19.482417 v 32.59961 h 5.294921 l -0.0059,-27.20507 3.378906,3.44531 3.783203,-3.69336 z m 12.39062,10.865235 12,11.986329 V 93.720721 Z"
       style="fill:url(#linearGradient4);fill-opacity:1" />
  </g>
</svg>
