<?xml version="1.0" encoding="UTF-8" standalone="no"?>
<svg
   width="140.74812"
   height="140.74812"
   version="1.1"
   viewBox="0 0 37.239843 37.239843"
   id="svg34"
   xmlns:xlink="http://www.w3.org/1999/xlink"
   xmlns="http://www.w3.org/2000/svg"
   xmlns:svg="http://www.w3.org/2000/svg"
   xmlns:rdf="http://www.w3.org/1999/02/22-rdf-syntax-ns#"
   xmlns:cc="http://creativecommons.org/ns#"
   xmlns:dc="http://purl.org/dc/elements/1.1/">
  <metadata
     id="metadata1">
    <rdf:RDF>
      <cc:Work
         rdf:about="">
        <dc:format>image/svg+xml</dc:format>
        <dc:type
           rdf:resource="http://purl.org/dc/dcmitype/StillImage" />
        <dc:title />
      </cc:Work>
    </rdf:RDF>
  </metadata>
  <defs
     id="defs9">
    <linearGradient
       id="linearGradient2">
      <stop
         style="stop-color:#00abff;stop-opacity:0;"
         offset="0"
         id="stop3" />
      <stop
         style="stop-color:#00abff;stop-opacity:1;"
         offset="1"
         id="stop2" />
    </linearGradient>
    <style
       id="current-color-scheme"
       type="text/css">.ColorScheme-Text {
        color:#4d4d4d;
      }</style>
    <style
       type="text/css"
       id="style1">.ColorScheme-Text {
        color:#4d4d4d;
      }</style>
    <style
       type="text/css"
       id="style2" />
    <style
       type="text/css"
       id="style3" />
    <style
       type="text/css"
       id="style4">.ColorScheme-Text {
        color:#4d4d4d;
      }</style>
    <style
       type="text/css"
       id="style5">.ColorScheme-Text {
        color:#4d4d4d;
      }</style>
    <linearGradient
       xlink:href="#linearGradient2"
       id="linearGradient3"
       x1="17.906223"
       y1="37.677677"
       x2="17.906223"
       y2="14.362283"
       gradientUnits="userSpaceOnUse" />
    <filter
       style="color-interpolation-filters:sRGB"
       id="filter3"
       x="-0.027"
       y="-0.027"
       width="1.054"
       height="1.054">
      <feGaussianBlur
         stdDeviation="0.39748406"
         id="feGaussianBlur3" />
    </filter>
  </defs>
  <g
     id="g3"
     transform="translate(0.41859056,0.41859056)">
    <path
       id="path1"
       d="m 18.203138,0.53537122 c -9.7486654,0 -17.66776678,7.91697638 -17.66776678,17.66569978 0,9.748723 7.91905838,17.666217 17.66776678,17.666217 9.748709,0 17.66415,-7.917566 17.66415,-17.666217 0,-9.7486517 -7.915484,-17.66569978 -17.66415,-17.66569978 z m 0,1.32395858 c 9.033768,0 16.339674,7.3079717 16.339674,16.3417412 0,9.033768 -7.305965,16.341741 -16.339674,16.341741 -9.0337097,0 -16.3438092,-7.308047 -16.3438082,-16.341741 0,-9.0336956 7.3100393,-16.3417412 16.3438082,-16.3417412 z m 0,1.1038155 c -8.4072285,0 -15.2384425,6.8306969 -15.2384424,15.2379257 0,8.407228 6.8312138,15.236375 15.2384424,15.236375 8.407228,0 15.234308,-6.829231 15.234308,-15.236375 0,-8.4071453 -6.82708,-15.2379257 -15.234308,-15.2379257 z m 0,1.3239586 c 7.692245,0 13.9119,6.2217051 13.9119,13.9139671 0,7.692261 -6.219638,13.912417 -13.9119,13.912417 -7.692262,0 -13.9139671,-6.220173 -13.9139671,-13.912417 0,-7.692245 6.2217221,-13.9139671 13.9139671,-13.9139671 z m 0.01344,4.900507 c -1.759537,0 -2.958051,0.5845249 -3.628742,1.5704571 -0.661279,0.972094 -0.804849,2.255713 -0.724508,3.651996 -0.133992,0.02166 -0.165637,-0.01286 -0.330215,0.07442 -0.189826,0.10066 -0.390801,0.277904 -0.498163,0.538988 -0.107362,0.261083 -0.114703,0.578987 -0.01912,0.937417 0.166743,0.625286 0.405426,1.269356 0.704871,1.798868 0.24326,0.430159 0.581432,0.708244 0.968939,0.900209 0.151996,0.408502 0.330175,0.770193 0.525036,1.101748 v 0.463024 l 0.0041,0.02532 c 0,0 0.04245,0.355086 -0.03927,0.777218 -0.08172,0.422131 -0.268512,0.850683 -0.716757,1.084178 -0.571782,0.297794 -1.841622,0.912552 -2.990017,1.491908 -0.574197,0.289678 -1.119963,0.570356 -1.5410008,0.804607 -0.2105186,0.117126 -0.3890876,0.221984 -0.5312371,0.314712 -0.1421495,0.09273 -0.2314716,0.107584 -0.3596702,0.316262 -0.1471456,0.239504 -0.2957485,0.602717 -0.286806,1.035085 0.00447,0.216184 0.057976,0.454902 0.2051567,0.666114 0.147181,0.211213 0.3847501,0.375124 0.6774823,0.457339 l 0.05271,0.0155 H 26.714817 l 0.05271,-0.0155 c 0.292738,-0.08221 0.532364,-0.246126 0.67955,-0.457339 0.147186,-0.211212 0.198617,-0.449928 0.203089,-0.666114 0.0089,-0.432374 -0.139639,-0.79557 -0.286806,-1.035085 -0.128193,-0.208636 -0.217514,-0.223533 -0.35967,-0.316262 -0.142155,-0.09273 -0.320714,-0.197588 -0.531237,-0.314712 -0.421042,-0.234248 -0.964737,-0.514936 -1.538934,-0.804607 -1.148395,-0.579343 -2.420374,-1.194104 -2.992084,-1.491908 -0.448234,-0.233449 -0.635039,-0.662036 -0.716757,-1.084178 -0.08172,-0.422142 -0.03721,-0.777218 -0.03721,-0.777218 l 0.0021,-0.02532 v -0.413931 c 0.185137,-0.307366 0.356529,-0.64282 0.503848,-1.019582 0.401001,-0.187455 0.741558,-0.478866 0.990127,-0.918296 0.299457,-0.529393 0.536574,-1.173568 0.703321,-1.798868 0.0914,-0.342757 0.09139,-0.64707 -0.0021,-0.902277 -0.09342,-0.255207 -0.277879,-0.438821 -0.45889,-0.54674 -0.17827,-0.106286 -0.247477,-0.07399 -0.388609,-0.09767 0.09148,-1.374084 -0.005,-2.648956 -0.605652,-3.630809 C 21.39765,10.02377 20.372574,9.5351086 19.042882,9.3514302 l 0.172084,-0.1638153 z m 3.144531,9.7948131 -0.01137,0.0078 -0.06873,-0.0057 c 0.02938,0.0052 0.05232,-0.0023 0.0801,-0.0021 z"
       style="display:inline;opacity:0.6;fill:#00abff;fill-opacity:1;filter:url(#filter3)" />
    <path
       id="path2"
       d="m 18.203138,0.53537122 c -9.7486654,0 -17.66776678,7.91697638 -17.66776678,17.66569978 0,9.748723 7.91905838,17.666217 17.66776678,17.666217 9.748709,0 17.66415,-7.917566 17.66415,-17.666217 0,-9.7486517 -7.915484,-17.66569978 -17.66415,-17.66569978 z m 0,1.32395858 c 9.033768,0 16.339674,7.3079717 16.339674,16.3417412 0,9.033768 -7.305965,16.341741 -16.339674,16.341741 -9.0337097,0 -16.3438092,-7.308047 -16.3438082,-16.341741 0,-9.0336956 7.3100393,-16.3417412 16.3438082,-16.3417412 z m 0,1.1038155 c -8.4072285,0 -15.2384425,6.8306969 -15.2384424,15.2379257 0,8.407228 6.8312138,15.236375 15.2384424,15.236375 8.407228,0 15.234308,-6.829231 15.234308,-15.236375 0,-8.4071453 -6.82708,-15.2379257 -15.234308,-15.2379257 z m 0,1.3239586 c 7.692245,0 13.9119,6.2217051 13.9119,13.9139671 0,7.692261 -6.219638,13.912417 -13.9119,13.912417 -7.692262,0 -13.9139671,-6.220173 -13.9139671,-13.912417 0,-7.692245 6.2217221,-13.9139671 13.9139671,-13.9139671 z m 0.01344,4.900507 c -1.759537,0 -2.958051,0.5845249 -3.628742,1.5704571 -0.661279,0.972094 -0.804849,2.255713 -0.724508,3.651996 -0.133992,0.02166 -0.165637,-0.01286 -0.330215,0.07442 -0.189826,0.10066 -0.390801,0.277904 -0.498163,0.538988 -0.107362,0.261083 -0.114703,0.578987 -0.01912,0.937417 0.166743,0.625286 0.405426,1.269356 0.704871,1.798868 0.24326,0.430159 0.581432,0.708244 0.968939,0.900209 0.151996,0.408502 0.330175,0.770193 0.525036,1.101748 v 0.463024 l 0.0041,0.02532 c 0,0 0.04245,0.355086 -0.03927,0.777218 -0.08172,0.422131 -0.268512,0.850683 -0.716757,1.084178 -0.571782,0.297794 -1.841622,0.912552 -2.990017,1.491908 -0.574197,0.289678 -1.119963,0.570356 -1.5410008,0.804607 -0.2105186,0.117126 -0.3890876,0.221984 -0.5312371,0.314712 -0.1421495,0.09273 -0.2314716,0.107584 -0.3596702,0.316262 -0.1471456,0.239504 -0.2957485,0.602717 -0.286806,1.035085 0.00447,0.216184 0.057976,0.454902 0.2051567,0.666114 0.147181,0.211213 0.3847501,0.375124 0.6774823,0.457339 l 0.05271,0.0155 H 26.714817 l 0.05271,-0.0155 c 0.292738,-0.08221 0.532364,-0.246126 0.67955,-0.457339 0.147186,-0.211212 0.198617,-0.449928 0.203089,-0.666114 0.0089,-0.432374 -0.139639,-0.79557 -0.286806,-1.035085 -0.128193,-0.208636 -0.217514,-0.223533 -0.35967,-0.316262 -0.142155,-0.09273 -0.320714,-0.197588 -0.531237,-0.314712 -0.421042,-0.234248 -0.964737,-0.514936 -1.538934,-0.804607 -1.148395,-0.579343 -2.420374,-1.194104 -2.992084,-1.491908 -0.448234,-0.233449 -0.635039,-0.662036 -0.716757,-1.084178 -0.08172,-0.422142 -0.03721,-0.777218 -0.03721,-0.777218 l 0.0021,-0.02532 v -0.413931 c 0.185137,-0.307366 0.356529,-0.64282 0.503848,-1.019582 0.401001,-0.187455 0.741558,-0.478866 0.990127,-0.918296 0.299457,-0.529393 0.536574,-1.173568 0.703321,-1.798868 0.0914,-0.342757 0.09139,-0.64707 -0.0021,-0.902277 -0.09342,-0.255207 -0.277879,-0.438821 -0.45889,-0.54674 -0.17827,-0.106286 -0.247477,-0.07399 -0.388609,-0.09767 0.09148,-1.374084 -0.005,-2.648956 -0.605652,-3.630809 C 21.39765,10.02377 20.372574,9.5351086 19.042882,9.3514302 l 0.172084,-0.1638153 z m 3.144531,9.7948131 -0.01137,0.0078 -0.06873,-0.0057 c 0.02938,0.0052 0.05232,-0.0023 0.0801,-0.0021 z"
       style="fill:url(#linearGradient3);fill-opacity:1" />
  </g>
</svg>
