<?xml version="1.0" encoding="UTF-8" standalone="no"?>
<svg
   width="137.582"
   height="137.582"
   version="1.1"
   viewBox="0 0 36.402134 36.402134"
   id="svg34"
   xmlns:xlink="http://www.w3.org/1999/xlink"
   xmlns="http://www.w3.org/2000/svg"
   xmlns:svg="http://www.w3.org/2000/svg"
   xmlns:rdf="http://www.w3.org/1999/02/22-rdf-syntax-ns#"
   xmlns:cc="http://creativecommons.org/ns#"
   xmlns:dc="http://purl.org/dc/elements/1.1/">
  <metadata
     id="metadata1">
    <rdf:RDF>
      <cc:Work
         rdf:about="">
        <dc:format>image/svg+xml</dc:format>
        <dc:type
           rdf:resource="http://purl.org/dc/dcmitype/StillImage" />
        <dc:title />
      </cc:Work>
    </rdf:RDF>
  </metadata>
  <defs
     id="defs9">
    <linearGradient
       id="linearGradient34">
      <stop
         style="stop-color:#00abff;stop-opacity:0;"
         offset="0"
         id="stop35" />
      <stop
         style="stop-color:#00abff;stop-opacity:1;"
         offset="1"
         id="stop34" />
    </linearGradient>
    <style
       id="current-color-scheme"
       type="text/css">.ColorScheme-Text {
        color:#4d4d4d;
      }</style>
    <style
       type="text/css"
       id="style1">.ColorScheme-Text {
        color:#4d4d4d;
      }</style>
    <style
       type="text/css"
       id="style2" />
    <style
       type="text/css"
       id="style3" />
    <style
       type="text/css"
       id="style4">.ColorScheme-Text {
        color:#4d4d4d;
      }</style>
    <style
       type="text/css"
       id="style5">.ColorScheme-Text {
        color:#4d4d4d;
      }</style>
    <linearGradient
       xlink:href="#linearGradient34"
       id="linearGradient35"
       x1="-43.341774"
       y1="52.917"
       x2="-43.341774"
       y2="22.623936"
       gradientUnits="userSpaceOnUse"
       gradientTransform="translate(61.735341,-7.028302)" />
    <filter
       style="color-interpolation-filters:sRGB"
       id="filter35"
       x="-0.027"
       y="-0.027"
       width="1.054"
       height="1.054">
      <feGaussianBlur
         stdDeviation="0.38854269"
         id="feGaussianBlur35" />
    </filter>
  </defs>
  <path
     id="circle26"
     style="display:inline;opacity:0.6;fill:#00abff;fill-opacity:1;filter:url(#filter35)"
     d="m 18.202358,0.93250247 c -9.5340416,0 -17.26985558,7.73374653 -17.26985558,17.26778853 0,9.534042 7.73581398,17.269339 17.26985558,17.269339 9.534042,0 17.267272,-7.735297 17.267272,-17.269339 0,-9.534042 -7.73323,-17.26778853 -17.267272,-17.26778853 z m 0,0.52968683 c 9.248057,0 16.738102,7.4900437 16.738102,16.7381017 0,9.248057 -7.490045,16.740169 -16.738102,16.740169 -9.2480576,0 -16.7406866,-7.492112 -16.7406856,-16.740169 0,-9.248058 7.492628,-16.7381017 16.7406856,-16.7381017 z m 0,1.8980877 c -8.192543,0 -14.8400146,6.647471 -14.8400146,14.840014 0,8.192542 6.6474716,14.840015 14.8400146,14.840015 8.192542,0 14.83743,-6.647473 14.83743,-14.840015 0,-8.192543 -6.644888,-14.840014 -14.83743,-14.840014 z m 0,0.52917 c 7.906558,0 14.310328,6.404286 14.310328,14.310844 0,7.906557 -6.40377,14.310328 -14.310328,14.310328 -7.906558,0 -14.3108446,-6.403771 -14.3108446,-14.310328 0,-7.906558 6.4042866,-14.310844 14.3108446,-14.310844 z m 0.01447,5.695812 c -3.35307,0 -4.129128,2.103753 -3.958439,4.856065 0.0055,0.08847 0.01535,0.179988 0.02274,0.269752 -8.33e-4,-3.31e-4 -0.0018,-8.34e-4 -0.0026,-10e-4 0,0 -1.197849,-0.04825 -0.878505,1.149291 0.319343,1.197537 0.926183,2.475297 1.596811,2.618978 0.01641,0.0035 0.03177,0.0038 0.04599,0.0026 0.16606,0.454054 0.355245,0.854128 0.568961,1.198384 v 0.520385 c 0,0 0.207616,1.652695 -0.965839,2.263959 -1.173474,0.611167 -5.0583246,2.444322 -5.2668946,2.783827 -0.208608,0.339543 -0.521259,1.31938 0.365355,1.568389 H 26.660277 C 27.54691,26.5669 27.234259,25.587043 27.025631,25.2475 26.817004,24.907956 22.932133,23.074897 21.758736,22.463673 20.585262,21.852506 20.792898,20.199714 20.792898,20.199714 v -0.475943 c 0.207474,-0.32623 0.393242,-0.702859 0.556558,-1.130687 h 5.17e-4 c 0.0174,0.0031 0.0364,0.0024 0.05736,-0.0021 0.670629,-0.143681 1.277469,-1.420924 1.596812,-2.618461 0.305903,-1.147143 -0.76898,-1.151476 -0.860935,-1.149808 0.264879,-2.935879 -0.420961,-5.237439 -3.9264,-5.237439 z" />
  <path
     id="path34"
     style="fill:url(#linearGradient35);fill-opacity:1"
     d="m 18.202358,0.93250247 c -9.5340416,0 -17.26985558,7.73374653 -17.26985558,17.26778853 0,9.534042 7.73581398,17.269339 17.26985558,17.269339 9.534042,0 17.267272,-7.735297 17.267272,-17.269339 0,-9.534042 -7.73323,-17.26778853 -17.267272,-17.26778853 z m 0,0.52968683 c 9.248057,0 16.738102,7.4900437 16.738102,16.7381017 0,9.248057 -7.490045,16.740169 -16.738102,16.740169 -9.2480576,0 -16.7406866,-7.492112 -16.7406856,-16.740169 0,-9.248058 7.492628,-16.7381017 16.7406856,-16.7381017 z m 0,1.8980877 c -8.192543,0 -14.8400146,6.647471 -14.8400146,14.840014 0,8.192542 6.6474716,14.840015 14.8400146,14.840015 8.192542,0 14.83743,-6.647473 14.83743,-14.840015 0,-8.192543 -6.644888,-14.840014 -14.83743,-14.840014 z m 0,0.52917 c 7.906558,0 14.310328,6.404286 14.310328,14.310844 0,7.906557 -6.40377,14.310328 -14.310328,14.310328 -7.906558,0 -14.3108446,-6.403771 -14.3108446,-14.310328 0,-7.906558 6.4042866,-14.310844 14.3108446,-14.310844 z m 0.01447,5.695812 c -3.35307,0 -4.129128,2.103753 -3.958439,4.856065 0.0055,0.08847 0.01535,0.179988 0.02274,0.269752 -8.33e-4,-3.31e-4 -0.0018,-8.34e-4 -0.0026,-10e-4 0,0 -1.197849,-0.04825 -0.878505,1.149291 0.319343,1.197537 0.926183,2.475297 1.596811,2.618978 0.01641,0.0035 0.03177,0.0038 0.04599,0.0026 0.16606,0.454054 0.355245,0.854128 0.568961,1.198384 v 0.520385 c 0,0 0.207616,1.652695 -0.965839,2.263959 -1.173474,0.611167 -5.0583246,2.444322 -5.2668946,2.783827 -0.208608,0.339543 -0.521259,1.31938 0.365355,1.568389 H 26.660277 C 27.54691,26.5669 27.234259,25.587043 27.025631,25.2475 26.817004,24.907956 22.932133,23.074897 21.758736,22.463673 20.585262,21.852506 20.792898,20.199714 20.792898,20.199714 v -0.475943 c 0.207474,-0.32623 0.393242,-0.702859 0.556558,-1.130687 h 5.17e-4 c 0.0174,0.0031 0.0364,0.0024 0.05736,-0.0021 0.670629,-0.143681 1.277469,-1.420924 1.596812,-2.618461 0.305903,-1.147143 -0.76898,-1.151476 -0.860935,-1.149808 0.264879,-2.935879 -0.420961,-5.237439 -3.9264,-5.237439 z" />
</svg>
