<?xml version="1.0" encoding="UTF-8" standalone="no"?>
<svg
   width="39.505539"
   height="54.346085"
   version="1.1"
   viewBox="0 0 39.505539 54.346085"
   id="svg24"
   xmlns:xlink="http://www.w3.org/1999/xlink"
   xmlns="http://www.w3.org/2000/svg"
   xmlns:svg="http://www.w3.org/2000/svg">
  <defs
     id="defs18">
    <linearGradient
       id="linearGradient29">
      <stop
         style="stop-color:#00abff;stop-opacity:0;"
         offset="0"
         id="stop30" />
      <stop
         style="stop-color:#00abff;stop-opacity:1;"
         offset="1"
         id="stop29" />
    </linearGradient>
    <linearGradient
       xlink:href="#linearGradient29"
       id="linearGradient30"
       x1="33.449226"
       y1="65.422752"
       x2="33.449226"
       y2="24.595018"
       gradientUnits="userSpaceOnUse" />
    <filter
       style="color-interpolation-filters:sRGB"
       id="filter30"
       x="-0.032399998"
       y="-0.023142856"
       width="1.0648"
       height="1.0462857">
      <feGaussianBlur
         stdDeviation="0.50086846"
         id="feGaussianBlur30" />
    </filter>
  </defs>
  <g
     id="g30"
     transform="translate(-12.874965,-4.8127332)">
    <path
       id="rect1"
       style="color:#dedede;display:inline;opacity:0.6;fill:#00abff;fill-opacity:1;stroke-width:3.71014;filter:url(#filter30)"
       class="ColorScheme-Text"
       d="m 32.627732,6.0148174 c -6.166247,0 -11.13041,4.9641636 -11.13041,11.1304106 v 14.840547 c 0,6.166247 4.964163,11.13041 11.13041,11.13041 6.166249,0 11.130411,-4.964163 11.130411,-11.13041 V 17.145228 c 0,-6.166247 -4.964162,-11.1304106 -11.130411,-11.1304106 z M 15.932118,24.565501 c -1.027708,0 -1.855069,0.82736 -1.855069,1.855068 v 5.565206 c 0,9.649324 7.297839,17.529687 16.695616,18.45648 v 3.804341 h -7.420274 c -1.027709,0 -1.855069,0.82736 -1.855069,1.855068 0,1.027707 0.82736,1.855068 1.855069,1.855068 h 18.550684 c 1.027707,0 1.855068,-0.827361 1.855068,-1.855068 0,-1.027708 -0.827361,-1.855068 -1.855068,-1.855068 h -7.420274 v -3.804341 c 9.397777,-0.926904 16.695616,-8.807156 16.695616,-18.45648 v -5.565206 c 0,-1.027708 -0.827361,-1.855068 -1.855069,-1.855068 -1.027707,0 -1.855068,0.82736 -1.855068,1.855068 v 5.565206 c 0,8.221663 -6.618884,14.840547 -14.840548,14.840547 -8.221662,0 -14.840547,-6.618884 -14.840547,-14.840547 v -5.565206 c 0,-1.027708 -0.82736,-1.855068 -1.855067,-1.855068 z" />
    <path
       id="path29"
       style="color:#dedede;fill:url(#linearGradient30);fill-opacity:1;stroke-width:3.71014"
       class="ColorScheme-Text"
       d="m 32.627732,6.0148174 c -6.166247,0 -11.13041,4.9641636 -11.13041,11.1304106 v 14.840547 c 0,6.166247 4.964163,11.13041 11.13041,11.13041 6.166249,0 11.130411,-4.964163 11.130411,-11.13041 V 17.145228 c 0,-6.166247 -4.964162,-11.1304106 -11.130411,-11.1304106 z M 15.932118,24.565501 c -1.027708,0 -1.855069,0.82736 -1.855069,1.855068 v 5.565206 c 0,9.649324 7.297839,17.529687 16.695616,18.45648 v 3.804341 h -7.420274 c -1.027709,0 -1.855069,0.82736 -1.855069,1.855068 0,1.027707 0.82736,1.855068 1.855069,1.855068 h 18.550684 c 1.027707,0 1.855068,-0.827361 1.855068,-1.855068 0,-1.027708 -0.827361,-1.855068 -1.855068,-1.855068 h -7.420274 v -3.804341 c 9.397777,-0.926904 16.695616,-8.807156 16.695616,-18.45648 v -5.565206 c 0,-1.027708 -0.827361,-1.855068 -1.855069,-1.855068 -1.027707,0 -1.855068,0.82736 -1.855068,1.855068 v 5.565206 c 0,8.221663 -6.618884,14.840547 -14.840548,14.840547 -8.221662,0 -14.840547,-6.618884 -14.840547,-14.840547 v -5.565206 c 0,-1.027708 -0.82736,-1.855068 -1.855067,-1.855068 z" />
  </g>
</svg>
