<?xml version="1.0" encoding="UTF-8" standalone="no"?>
<svg
   width="58.842518"
   height="58.846077"
   version="1.1"
   id="svg33"
   xmlns:xlink="http://www.w3.org/1999/xlink"
   xmlns="http://www.w3.org/2000/svg"
   xmlns:svg="http://www.w3.org/2000/svg">
  <defs
     id="defs19">
    <filter
       style="color-interpolation-filters:sRGB"
       id="filter3"
       x="-0.027000859"
       y="-0.026999142"
       width="1.0540017"
       height="1.0539983">
      <feGaussianBlur
         stdDeviation="0.18000573"
         id="feGaussianBlur3" />
    </filter>
    <linearGradient
       xlink:href="#linearGradient2"
       id="linearGradient3"
       x1="1121.1299"
       y1="77.901184"
       x2="1121.1299"
       y2="66.443672"
       gradientUnits="userSpaceOnUse" />
    <linearGradient
       id="linearGradient2">
      <stop
         style="stop-color:#00abff;stop-opacity:0;"
         offset="0"
         id="stop3-3" />
      <stop
         style="stop-color:#00abff;stop-opacity:1;"
         offset="1"
         id="stop2-6" />
    </linearGradient>
  </defs>
  <g
     transform="matrix(3.4892329,0,0,3.4892329,-3882.0451,-211.33338)"
     style="color:#dedede;fill:currentColor"
     class="ColorScheme-Text"
     id="g2">
    <path
       id="path1"
       style="display:inline;opacity:0.6;fill:#00abff;fill-opacity:1;stroke:none;stroke-opacity:1;filter:url(#filter3)"
       d="M 1126.9994,60.999307 A 1,1 0 0 0 1126,62.000884 v 0.999376 h -11.4906 c -0.822,0 -1.499,0.677063 -1.499,1.499063 v 8.99438 c 0,0.823 0.677,1.501264 1.499,1.501264 H 1126 v 2.005355 h 0.9994 v -3.999703 h 2.001 l 0.01,-7.004434 -2.0032,0.0044 v -3.500016 c 0,0 -3e-4,-0.499688 0.4997,-0.499688 h 1.4991 v -1.001577 z m -12.49,3.000328 H 1126 v 9.993756 h -11.4906 a 0.488,0.488 0 0 1 -0.4997,-0.499688 v -8.99438 c 0,-0.286 0.2137,-0.499688 0.4997,-0.499688 z m 8.1909,0.979564 a 0.385,0.385 0 0 0 -0.1783,0.01101 l -4.0899,1.124848 c -0.252,0.069 -0.4557,0.345958 -0.4557,0.622958 v 4.261654 a 2.237,2.237 0 0 0 -0.8695,0.03962 c -0.803,0.196 -1.287,0.773943 -1.083,1.289943 0.203,0.517 1.0197,0.778135 1.8227,0.581135 0.685,-0.168 1.1542,-0.621426 1.1292,-1.087426 V 67.81003 l 3.0003,-0.823275 v 3.013536 a 2.237,2.237 0 0 0 -0.8695,0.03962 c -0.803,0.196 -1.2892,0.773943 -1.0852,1.289943 0.203,0.517 1.0197,0.778134 1.8227,0.581134 0.666,-0.164 1.1312,-0.598407 1.1292,-1.054407 v -5.492163 c 0,-0.207 -0.1144,-0.35302 -0.2774,-0.38302 z m 4.3101,2.01416 h 0.9994 v 1.001577 h -0.9994 z m 0,2.000953 h 0.9994 v 0.999375 h -0.9994 z m 0,1.998751 h 0.9994 v 1.001576 h -0.9994 z" />
    <path
       id="path2"
       style="fill:url(#linearGradient3);fill-opacity:1;stroke:none;stroke-opacity:1"
       d="M 1126.9994,60.999307 A 1,1 0 0 0 1126,62.000884 v 0.999376 h -11.4906 c -0.822,0 -1.499,0.677063 -1.499,1.499063 v 8.99438 c 0,0.823 0.677,1.501264 1.499,1.501264 H 1126 v 2.005355 h 0.9994 v -3.999703 h 2.001 l 0.01,-7.004434 -2.0032,0.0044 v -3.500016 c 0,0 -3e-4,-0.499688 0.4997,-0.499688 h 1.4991 v -1.001577 z m -12.49,3.000328 H 1126 v 9.993756 h -11.4906 a 0.488,0.488 0 0 1 -0.4997,-0.499688 v -8.99438 c 0,-0.286 0.2137,-0.499688 0.4997,-0.499688 z m 8.1909,0.979564 a 0.385,0.385 0 0 0 -0.1783,0.01101 l -4.0899,1.124848 c -0.252,0.069 -0.4557,0.345958 -0.4557,0.622958 v 4.261654 a 2.237,2.237 0 0 0 -0.8695,0.03962 c -0.803,0.196 -1.287,0.773943 -1.083,1.289943 0.203,0.517 1.0197,0.778135 1.8227,0.581135 0.685,-0.168 1.1542,-0.621426 1.1292,-1.087426 V 67.81003 l 3.0003,-0.823275 v 3.013536 a 2.237,2.237 0 0 0 -0.8695,0.03962 c -0.803,0.196 -1.2892,0.773943 -1.0852,1.289943 0.203,0.517 1.0197,0.778134 1.8227,0.581134 0.666,-0.164 1.1312,-0.598407 1.1292,-1.054407 v -5.492163 c 0,-0.207 -0.1144,-0.35302 -0.2774,-0.38302 z m 4.3101,2.01416 h 0.9994 v 1.001577 h -0.9994 z m 0,2.000953 h 0.9994 v 0.999375 h -0.9994 z m 0,1.998751 h 0.9994 v 1.001576 h -0.9994 z" />
  </g>
</svg>
