<?xml version="1.0" encoding="UTF-8" standalone="no"?>
<svg
   id="App-Store"
   width="58.813225"
   height="49.78672"
   enable-background="new 0 0 1024 1024"
   image-rendering="optimizeSpeed"
   version="1.1"
   viewBox="0 0 58.813225 49.78672"
   xmlns:xlink="http://www.w3.org/1999/xlink"
   xmlns="http://www.w3.org/2000/svg"
   xmlns:svg="http://www.w3.org/2000/svg">
  <defs
     id="defs4">
    <linearGradient
       id="linearGradient10">
      <stop
         style="stop-color:#00abff;stop-opacity:0;"
         offset="0"
         id="stop11" />
      <stop
         style="stop-color:#00abff;stop-opacity:1;"
         offset="1"
         id="stop10" />
    </linearGradient>
    <linearGradient
       xlink:href="#linearGradient10"
       id="linearGradient11"
       x1="8.1698074"
       y1="16.831814"
       x2="8.1698074"
       y2="5.7404075"
       gradientUnits="userSpaceOnUse" />
    <filter
       style="color-interpolation-filters:sRGB"
       id="filter11"
       x="-0.024825182"
       y="-0.029592457"
       width="1.0496504"
       height="1.0591849">
      <feGaussianBlur
         stdDeviation="0.1655055"
         id="feGaussianBlur11" />
    </filter>
  </defs>
  <g
     id="g11"
     transform="translate(-2.2320609,-8.0637363)">
    <path
       id="rect1"
       style="color:#dedede;display:inline;opacity:0.6;fill:#00abff;fill-opacity:1;filter:url(#filter11)"
       d="m 12.737842,1.290063 c -0.375631,0.026826 -0.623548,0.4892152 -0.282215,0.8700727 1.6202,1.5104 2.541105,3.6246266 2.544405,5.8395266 -0.0026,2.2204997 -0.927675,4.3402967 -2.554445,5.8517967 -0.44531,0.47165 0.180553,1.148287 0.677653,0.728407 1.8304,-1.6992 2.872875,-4.082604 2.877375,-6.5802037 -0.0026,-2.4925 -1.039058,-4.8717378 -2.861758,-6.5718378 C 13.002492,1.320892 12.863053,1.2811211 12.737842,1.290063 Z m -2.389911,1.4160991 c -0.3956165,0.011891 -0.6429673,0.5342619 -0.25656,0.9146919 1.2147,1.1326 1.905425,2.7185661 1.908025,4.3793661 -0.0019,1.6654 -0.695773,3.2546899 -1.915833,4.3882899 -0.4683502,0.44623 0.173654,1.147145 0.679884,0.728965 1.423,-1.3216 2.232675,-3.1751549 2.235975,-5.1172549 -0.0019,-1.9383 -0.807053,-3.7893774 -2.224263,-5.1116774 -0.146852,-0.13372 -0.295356,-0.1863443 -0.427228,-0.1823806 z M 5.9997984,3.0000905 3.0002784,6.0001683 H 1.0002266 c -0.55400006,0 -1.00002594249,0.4460259 -1.00002594249,1.0000259 V 9.000246 c 0,0.554 0.44602588249,1.000026 1.00002594249,1.000026 h 2.0000518 l 2.99952,2.99952 z m 2.0173417,1.183522 C 7.6411116,4.1999977 7.3729256,4.697069 7.7265581,5.079899 c 0.81045,0.75501 1.271418,1.8127211 1.273318,2.9203211 -0.00128,1.1103 -0.4638822,2.1696409 -1.2772222,2.9253409 -0.47259,0.42993 0.1397638,1.152368 0.6798838,0.730638 C 9.4193377,10.711949 9.997702,9.3878201 9.999902,8.0002201 9.998182,6.6158201 9.422766,5.2940187 8.410346,4.3498187 8.2801085,4.2263962 8.1424829,4.1781508 8.0171401,4.1836125 Z"
       transform="matrix(3.5018624,0,0,3.5018624,3.6223442,4.9413614)" />
    <path
       id="path10"
       style="color:#dedede;fill:url(#linearGradient11);fill-opacity:1"
       d="m 12.737842,1.290063 c -0.375631,0.026826 -0.623548,0.4892152 -0.282215,0.8700727 1.6202,1.5104 2.541105,3.6246266 2.544405,5.8395266 -0.0026,2.2204997 -0.927675,4.3402967 -2.554445,5.8517967 -0.44531,0.47165 0.180553,1.148287 0.677653,0.728407 1.8304,-1.6992 2.872875,-4.082604 2.877375,-6.5802037 -0.0026,-2.4925 -1.039058,-4.8717378 -2.861758,-6.5718378 C 13.002492,1.320892 12.863053,1.2811211 12.737842,1.290063 Z m -2.389911,1.4160991 c -0.3956165,0.011891 -0.6429673,0.5342619 -0.25656,0.9146919 1.2147,1.1326 1.905425,2.7185661 1.908025,4.3793661 -0.0019,1.6654 -0.695773,3.2546899 -1.915833,4.3882899 -0.4683502,0.44623 0.173654,1.147145 0.679884,0.728965 1.423,-1.3216 2.232675,-3.1751549 2.235975,-5.1172549 -0.0019,-1.9383 -0.807053,-3.7893774 -2.224263,-5.1116774 -0.146852,-0.13372 -0.295356,-0.1863443 -0.427228,-0.1823806 z M 5.9997984,3.0000905 3.0002784,6.0001683 H 1.0002266 c -0.55400006,0 -1.00002594249,0.4460259 -1.00002594249,1.0000259 V 9.000246 c 0,0.554 0.44602588249,1.000026 1.00002594249,1.000026 h 2.0000518 l 2.99952,2.99952 z m 2.0173417,1.183522 C 7.6411116,4.1999977 7.3729256,4.697069 7.7265581,5.079899 c 0.81045,0.75501 1.271418,1.8127211 1.273318,2.9203211 -0.00128,1.1103 -0.4638822,2.1696409 -1.2772222,2.9253409 -0.47259,0.42993 0.1397638,1.152368 0.6798838,0.730638 C 9.4193377,10.711949 9.997702,9.3878201 9.999902,8.0002201 9.998182,6.6158201 9.422766,5.2940187 8.410346,4.3498187 8.2801085,4.2263962 8.1424829,4.1781508 8.0171401,4.1836125 Z"
       transform="matrix(3.5018624,0,0,3.5018624,3.6223442,4.9413614)" />
  </g>
</svg>
