<?xml version="1.0" encoding="UTF-8" standalone="no"?>
<svg
   width="48.325909"
   height="42.318096"
   version="1.1"
   viewBox="0 0 12.785978 11.196443"
   id="svg106"
   xmlns:xlink="http://www.w3.org/1999/xlink"
   xmlns="http://www.w3.org/2000/svg"
   xmlns:svg="http://www.w3.org/2000/svg"
   xmlns:rdf="http://www.w3.org/1999/02/22-rdf-syntax-ns#"
   xmlns:cc="http://creativecommons.org/ns#"
   xmlns:dc="http://purl.org/dc/elements/1.1/">
  <metadata
     id="metadata110">
    <rdf:RDF>
      <cc:Work
         rdf:about="">
        <dc:format>image/svg+xml</dc:format>
        <dc:type
           rdf:resource="http://purl.org/dc/dcmitype/StillImage" />
        <dc:title />
      </cc:Work>
    </rdf:RDF>
  </metadata>
  <defs
     id="defs54">
    <linearGradient
       id="linearGradient1">
      <stop
         style="stop-color:#00abff;stop-opacity:0;"
         offset="0"
         id="stop3" />
      <stop
         style="stop-color:#00abff;stop-opacity:1;"
         offset="1"
         id="stop1" />
    </linearGradient>
    <style
       type="text/css"
       id="style937" />
    <linearGradient
       xlink:href="#linearGradient1"
       id="linearGradient3"
       x1="9.0002966"
       y1="17"
       x2="9.0002966"
       y2="8"
       gradientUnits="userSpaceOnUse" />
    <filter
       style="color-interpolation-filters:sRGB"
       id="filter3"
       x="-0.025236987"
       y="-0.029027834"
       width="1.050474"
       height="1.0580557">
      <feGaussianBlur
         stdDeviation="0.12798967"
         id="feGaussianBlur3" />
    </filter>
  </defs>
  <g
     id="g1494"
     transform="translate(-2.0738078,-3.7064543)">
    <path
       id="rect1478"
       style="display:inline;opacity:0.6;fill:#00abff;fill-opacity:1;stroke-width:0.243376;stroke-linecap:round;paint-order:stroke fill markers;filter:url(#filter3)"
       d="m 6.572376,4.0136295 c -0.5878501,0 -0.9096146,0.3297603 -1.1502948,0.6211385 C 5.3017411,4.7804571 5.194499,4.9160169 5.07999,5.0099315 4.965481,5.1038465 4.8497211,5.1603069 4.6779552,5.1603069 H 3.5958721 c -0.673565,0 -1.2150392,0.5766579 -1.2148891,1.2774163 v 5.3360038 1.542511 c -2.001e-4,0.700753 0.5413268,1.279697 1.2148891,1.279483 h 9.7418489 c 0.673565,1.61e-4 1.214889,-0.578724 1.214889,-1.279483 V 6.4377232 c 0,-0.7007908 -0.541297,-1.2774162 -1.214889,-1.2774163 v 0.2635447 c 0.522135,0 0.949278,0.4480644 0.949278,1.0138716 v 5.2037138 h -2.513493 c -0.07329,0 -0.132289,0.059 -0.132289,0.13229 0,0.07329 0.059,0.132289 0.132289,0.132289 h 2.513493 v 1.410222 c 0,0.565756 -0.427193,1.016063 -0.949278,1.015938 H 3.5958721 C 3.0738265,14.332342 2.6464332,13.881955 2.6465947,13.316238 v -1.410222 h 2.5124587 c 0.073288,0 0.132289,-0.059 0.132289,-0.132289 0,-0.07329 -0.059001,-0.13229 -0.132289,-0.13229 H 2.6465947 V 6.4377232 C 2.6464735,5.8719678 3.0737871,5.4238516 3.5958721,5.4238516 h 1.0820831 c 0.2340496,0 0.4223963,-0.087727 0.5699799,-0.2087687 C 5.3955187,5.094042 5.5087663,4.9436313 5.6251656,4.8027131 5.8579642,4.5208767 6.0779421,4.277174 6.572376,4.2771741 h 3.788841 c 0.494568,0 0.712868,0.2437112 0.94566,0.525539 0.116395,0.1409138 0.229164,0.2913286 0.376714,0.4123698 0.147549,0.1210411 0.3365,0.2087687 0.570497,0.2087687 h 1.082083 V 5.1603069 h -1.082083 c -0.171695,0 -0.28807,-0.056461 -0.402552,-0.1503754 C 11.737055,4.9160175 11.631855,4.7804615 11.511512,4.634768 11.270824,4.3433811 10.94918,4.0136295 10.361217,4.0136295 Z m 0.4387242,1.0133549 c -0.073288,0 -0.132289,0.059001 -0.132289,0.132289 0,0.073288 0.059001,0.1322891 0.132289,0.1322891 h 3.1749378 c 0.07329,0 0.132289,-0.059001 0.132289,-0.1322891 0,-0.073288 -0.059,-0.132289 -0.132289,-0.132289 z m 5.4243688,1.5885022 c -0.436801,0 -0.794768,0.3559005 -0.794768,0.7927009 0,0.4368005 0.357967,0.7932176 0.794768,0.7932176 0.4368,0 0.793217,-0.3564171 0.793217,-0.7932176 0,-0.4368004 -0.356417,-0.7927009 -0.793217,-0.7927009 z m 0,0.2635446 c 0.293812,0 0.529156,0.2353444 0.529156,0.5291563 0,0.2938119 -0.235344,0.5291563 -0.529156,0.5291562 -0.293812,0 -0.529157,-0.2353443 -0.529157,-0.5291562 0,-0.2938119 0.235345,-0.5291563 0.529157,-0.5291563 z M 8.4667967,7.4081875 c -1.4596577,0 -2.646298,1.1866399 -2.646298,2.6462985 0,1.459657 1.1866403,2.644747 2.646298,2.644747 1.4596576,0 2.6447473,-1.18509 2.6447473,-2.644747 0,-1.4596586 -1.1850897,-2.6462985 -2.6447473,-2.6462985 z m 0,0.2635446 c 1.316669,0 2.3806863,1.0660838 2.3806863,2.3827539 0,1.316669 -1.0640173,2.381203 -2.3806863,2.381203 -1.3166691,0 -2.3806864,-1.064534 -2.3806864,-2.381203 0,-1.3166701 1.0640173,-2.3827539 2.3806864,-2.3827539 z m 0,1.0588293 c -0.7290454,0 -1.3223739,0.5948782 -1.3223739,1.3239246 0,0.729045 0.5933285,1.322373 1.3223739,1.322373 0.7290454,0 1.3223738,-0.593328 1.3223738,-1.322373 0,-0.7290464 -0.5933284,-1.3239246 -1.3223738,-1.3239246 z m 3.9681553,5.167e-4 A 0.26457813,0.26457813 0 0 0 12.170374,8.9956562 0.26457813,0.26457813 0 0 0 12.434952,9.2602344 0.26457813,0.26457813 0 0 0 12.69953,8.9956562 0.26457813,0.26457813 0 0 0 12.434952,8.7310781 Z M 8.4667967,8.996173 c 0.5860568,0 1.0588292,0.4722552 1.0588292,1.058313 0,0.586056 -0.4727724,1.056762 -1.0588292,1.056762 -0.5860568,0 -1.0588293,-0.470706 -1.0588293,-1.056762 0,-0.5860578 0.4727725,-1.0583131 1.0588293,-1.058313 z" />
    <path
       id="path1"
       style="fill:url(#linearGradient3);fill-opacity:1;stroke-width:0.243376;stroke-linecap:round;paint-order:stroke fill markers"
       d="m 6.572376,4.0136295 c -0.5878501,0 -0.9096146,0.3297603 -1.1502948,0.6211385 C 5.3017411,4.7804571 5.194499,4.9160169 5.07999,5.0099315 4.965481,5.1038465 4.8497211,5.1603069 4.6779552,5.1603069 H 3.5958721 c -0.673565,0 -1.2150392,0.5766579 -1.2148891,1.2774163 v 5.3360038 1.542511 c -2.001e-4,0.700753 0.5413268,1.279697 1.2148891,1.279483 h 9.7418489 c 0.673565,1.61e-4 1.214889,-0.578724 1.214889,-1.279483 V 6.4377232 c 0,-0.7007908 -0.541297,-1.2774162 -1.214889,-1.2774163 v 0.2635447 c 0.522135,0 0.949278,0.4480644 0.949278,1.0138716 v 5.2037138 h -2.513493 c -0.07329,0 -0.132289,0.059 -0.132289,0.13229 0,0.07329 0.059,0.132289 0.132289,0.132289 h 2.513493 v 1.410222 c 0,0.565756 -0.427193,1.016063 -0.949278,1.015938 H 3.5958721 C 3.0738265,14.332342 2.6464332,13.881955 2.6465947,13.316238 v -1.410222 h 2.5124587 c 0.073288,0 0.132289,-0.059 0.132289,-0.132289 0,-0.07329 -0.059001,-0.13229 -0.132289,-0.13229 H 2.6465947 V 6.4377232 C 2.6464735,5.8719678 3.0737871,5.4238516 3.5958721,5.4238516 h 1.0820831 c 0.2340496,0 0.4223963,-0.087727 0.5699799,-0.2087687 C 5.3955187,5.094042 5.5087663,4.9436313 5.6251656,4.8027131 5.8579642,4.5208767 6.0779421,4.277174 6.572376,4.2771741 h 3.788841 c 0.494568,0 0.712868,0.2437112 0.94566,0.525539 0.116395,0.1409138 0.229164,0.2913286 0.376714,0.4123698 0.147549,0.1210411 0.3365,0.2087687 0.570497,0.2087687 h 1.082083 V 5.1603069 h -1.082083 c -0.171695,0 -0.28807,-0.056461 -0.402552,-0.1503754 C 11.737055,4.9160175 11.631855,4.7804615 11.511512,4.634768 11.270824,4.3433811 10.94918,4.0136295 10.361217,4.0136295 Z m 0.4387242,1.0133549 c -0.073288,0 -0.132289,0.059001 -0.132289,0.132289 0,0.073288 0.059001,0.1322891 0.132289,0.1322891 h 3.1749378 c 0.07329,0 0.132289,-0.059001 0.132289,-0.1322891 0,-0.073288 -0.059,-0.132289 -0.132289,-0.132289 z m 5.4243688,1.5885022 c -0.436801,0 -0.794768,0.3559005 -0.794768,0.7927009 0,0.4368005 0.357967,0.7932176 0.794768,0.7932176 0.4368,0 0.793217,-0.3564171 0.793217,-0.7932176 0,-0.4368004 -0.356417,-0.7927009 -0.793217,-0.7927009 z m 0,0.2635446 c 0.293812,0 0.529156,0.2353444 0.529156,0.5291563 0,0.2938119 -0.235344,0.5291563 -0.529156,0.5291562 -0.293812,0 -0.529157,-0.2353443 -0.529157,-0.5291562 0,-0.2938119 0.235345,-0.5291563 0.529157,-0.5291563 z M 8.4667967,7.4081875 c -1.4596577,0 -2.646298,1.1866399 -2.646298,2.6462985 0,1.459657 1.1866403,2.644747 2.646298,2.644747 1.4596576,0 2.6447473,-1.18509 2.6447473,-2.644747 0,-1.4596586 -1.1850897,-2.6462985 -2.6447473,-2.6462985 z m 0,0.2635446 c 1.316669,0 2.3806863,1.0660838 2.3806863,2.3827539 0,1.316669 -1.0640173,2.381203 -2.3806863,2.381203 -1.3166691,0 -2.3806864,-1.064534 -2.3806864,-2.381203 0,-1.3166701 1.0640173,-2.3827539 2.3806864,-2.3827539 z m 0,1.0588293 c -0.7290454,0 -1.3223739,0.5948782 -1.3223739,1.3239246 0,0.729045 0.5933285,1.322373 1.3223739,1.322373 0.7290454,0 1.3223738,-0.593328 1.3223738,-1.322373 0,-0.7290464 -0.5933284,-1.3239246 -1.3223738,-1.3239246 z m 3.9681553,5.167e-4 A 0.26457813,0.26457813 0 0 0 12.170374,8.9956562 0.26457813,0.26457813 0 0 0 12.434952,9.2602344 0.26457813,0.26457813 0 0 0 12.69953,8.9956562 0.26457813,0.26457813 0 0 0 12.434952,8.7310781 Z M 8.4667967,8.996173 c 0.5860568,0 1.0588292,0.4722552 1.0588292,1.058313 0,0.586056 -0.4727724,1.056762 -1.0588292,1.056762 -0.5860568,0 -1.0588293,-0.470706 -1.0588293,-1.056762 0,-0.5860578 0.4727725,-1.0583131 1.0588293,-1.058313 z" />
  </g>
</svg>
