<?xml version="1.0" encoding="UTF-8" standalone="no"?>
<svg
   width="49.242798"
   height="59.200352"
   version="1.1"
   viewBox="0 0 13.028567 15.663118"
   id="svg30"
   xmlns:xlink="http://www.w3.org/1999/xlink"
   xmlns="http://www.w3.org/2000/svg"
   xmlns:svg="http://www.w3.org/2000/svg">
  <defs
     id="defs10">
    <linearGradient
       id="linearGradient33">
      <stop
         style="stop-color:#00abff;stop-opacity:0;"
         offset="0"
         id="stop34" />
      <stop
         style="stop-color:#00abff;stop-opacity:1;"
         offset="1"
         id="stop33" />
    </linearGradient>
    <linearGradient
       xlink:href="#linearGradient33"
       id="linearGradient34"
       x1="8.3489914"
       y1="18.671394"
       x2="8.3489914"
       y2="6.5676413"
       gradientUnits="userSpaceOnUse" />
    <filter
       style="color-interpolation-filters:sRGB"
       id="filter34"
       x="-0.029893089"
       y="-0.024617489"
       width="1.0597862"
       height="1.049235">
      <feGaussianBlur
         stdDeviation="0.17437415"
         id="feGaussianBlur34" />
    </filter>
  </defs>
  <g
     class="ColorScheme-Text"
     transform="matrix(0.87812402,0,0,0.87812402,-0.51023821,0.36763748)"
     fill="currentColor"
     id="g2"
     style="color:#dedede">
    <path
       id="path1"
       d="M 7.905897,-8.0536567e-6 A 6.9999998,6.9999998 0 0 0 0.99955282,6.9999037 6.9999998,6.9999998 0 0 0 7.9994645,13.999815 6.9999998,6.9999998 0 0 0 14.999376,6.9999037 6.9999998,6.9999998 0 0 0 7.9994645,-8.0536567e-6 a 6.9999998,6.9999998 0 0 0 -0.093567,0 z M 7.9994645,0.9998112 A 6,6 0 0 1 13.999557,6.9999037 6,6 0 0 1 7.9994645,12.999996 6,6 0 0 1 1.9993721,6.9999037 6,6 0 0 1 7.9994645,0.9998112 Z m -0.05002,3.0000462 A 3,3 0 0 0 5.0000068,6.9999037 3,3 0 0 0 8.000053,9.9999499 3,3 0 0 0 11.000099,6.9999037 3,3 0 0 0 8.000053,3.9998574 a 3,3 0 0 0 -0.050608,0 z m 0.050609,2.000227 A 1,1 0 0 1 8.9998723,6.9999037 1,1 0 0 1 8.000053,7.9997229 1,1 0 0 1 7.0002338,6.9999037 1,1 0 0 1 8.0000535,6.0000844 Z m -3.999866,9.0001386 c -1.108,0 -2.0002269,0.891639 -2.0002269,1.999639 h 0.9998192 c 0,-0.554 0.4464077,-0.99982 1.0004077,-0.99982 h 7.9997315 c 0.554,0 0.999819,0.44582 0.999819,0.99982 h 1.000407 c 0,-1.108 -0.892226,-1.999639 -2.000226,-1.999639 z"
       style="display:inline;opacity:0.6;fill:#00abff;fill-opacity:1;filter:url(#filter34)" />
    <path
       id="path33"
       d="M 7.905897,-8.0536567e-6 A 6.9999998,6.9999998 0 0 0 0.99955282,6.9999037 6.9999998,6.9999998 0 0 0 7.9994645,13.999815 6.9999998,6.9999998 0 0 0 14.999376,6.9999037 6.9999998,6.9999998 0 0 0 7.9994645,-8.0536567e-6 a 6.9999998,6.9999998 0 0 0 -0.093567,0 z M 7.9994645,0.9998112 A 6,6 0 0 1 13.999557,6.9999037 6,6 0 0 1 7.9994645,12.999996 6,6 0 0 1 1.9993721,6.9999037 6,6 0 0 1 7.9994645,0.9998112 Z m -0.05002,3.0000462 A 3,3 0 0 0 5.0000068,6.9999037 3,3 0 0 0 8.000053,9.9999499 3,3 0 0 0 11.000099,6.9999037 3,3 0 0 0 8.000053,3.9998574 a 3,3 0 0 0 -0.050608,0 z m 0.050609,2.000227 A 1,1 0 0 1 8.9998723,6.9999037 1,1 0 0 1 8.000053,7.9997229 1,1 0 0 1 7.0002338,6.9999037 1,1 0 0 1 8.0000535,6.0000844 Z m -3.999866,9.0001386 c -1.108,0 -2.0002269,0.891639 -2.0002269,1.999639 h 0.9998192 c 0,-0.554 0.4464077,-0.99982 1.0004077,-0.99982 h 7.9997315 c 0.554,0 0.999819,0.44582 0.999819,0.99982 h 1.000407 c 0,-1.108 -0.892226,-1.999639 -2.000226,-1.999639 z"
       style="fill:url(#linearGradient34);fill-opacity:1" />
  </g>
</svg>
