<?xml version="1.0" encoding="UTF-8" standalone="no"?>
<svg
   width="52.217529"
   height="55.239006"
   version="1.1"
   viewBox="0 0 52.217529 55.239006"
   id="svg24"
   xmlns:xlink="http://www.w3.org/1999/xlink"
   xmlns="http://www.w3.org/2000/svg"
   xmlns:svg="http://www.w3.org/2000/svg">
  <defs
     id="defs18">
    <linearGradient
       id="linearGradient31">
      <stop
         style="stop-color:#00abff;stop-opacity:0;"
         offset="0"
         id="stop32" />
      <stop
         style="stop-color:#00abff;stop-opacity:1;"
         offset="1"
         id="stop31" />
    </linearGradient>
    <linearGradient
       xlink:href="#linearGradient31"
       id="linearGradient32"
       x1="8.1896601"
       y1="19.17898"
       x2="8.1896601"
       y2="5.7673965"
       gradientUnits="userSpaceOnUse" />
    <filter
       style="color-interpolation-filters:sRGB"
       id="filter32"
       x="-0.027824626"
       y="-0.026222844"
       width="1.0556493"
       height="1.0524457">
      <feGaussianBlur
         stdDeviation="0.1970888"
         id="feGaussianBlur32" />
    </filter>
  </defs>
  <g
     class="ColorScheme-Text"
     transform="matrix(2.9097308,0,0,2.9097308,1.3757244,4.3958624)"
     fill="currentColor"
     id="g2"
     style="color:#dedede">
    <path
       id="path1"
       d="m 1.999833,-1.0377323 c -1.10799998,0 -1.99962117628,0.89229239 -1.99962117628,2.00029239 V 15.000183 c 0,1.108 0.89162119628,2.000292 1.99962117628,2.000292 h 11.000266 c 1.108,0 1.999621,-0.892292 1.999621,-2.000292 V 0.96256009 c 0,-1.108 -0.891621,-2.00029239 -1.999621,-2.00029239 z m 0,1.00014618 h 11.000266 c 0.554,0 1.000146,0.44614621 1.000146,1.00014621 V 15.000183 c 0,0.554 -0.446146,1.000146 -1.000146,1.000146 H 1.999833 c -0.554,0 -1.0001462,-0.446146 -1.0001462,-1.000146 V 0.96256009 c 0,-0.554 0.4461462,-1.00014621 1.0001462,-1.00014621 z M 2.4999061,1.0001495 A 0.5,0.5 0 0 0 1.999833,1.5002226 0.5,0.5 0 0 0 2.4999061,2.0002957 0.5,0.5 0 0 0 2.9999792,1.5002226 0.5,0.5 0 0 0 2.4999061,1.0001495 Z M 16.499939,2.9997707 c -0.277,0 -0.500073,0.2230731 -0.500073,0.5000731 V 12.99989 l 0.500073,1.000147 0.500074,-1.000147 V 3.4998438 c 0,-0.277 -0.223074,-0.5000731 -0.500074,-0.5000731 z"
       style="display:inline;opacity:0.6;fill:#00abff;fill-opacity:1;filter:url(#filter32)" />
    <path
       id="path31"
       d="m 1.999833,-1.0377323 c -1.10799998,0 -1.99962117628,0.89229239 -1.99962117628,2.00029239 V 15.000183 c 0,1.108 0.89162119628,2.000292 1.99962117628,2.000292 h 11.000266 c 1.108,0 1.999621,-0.892292 1.999621,-2.000292 V 0.96256009 c 0,-1.108 -0.891621,-2.00029239 -1.999621,-2.00029239 z m 0,1.00014618 h 11.000266 c 0.554,0 1.000146,0.44614621 1.000146,1.00014621 V 15.000183 c 0,0.554 -0.446146,1.000146 -1.000146,1.000146 H 1.999833 c -0.554,0 -1.0001462,-0.446146 -1.0001462,-1.000146 V 0.96256009 c 0,-0.554 0.4461462,-1.00014621 1.0001462,-1.00014621 z M 2.4999061,1.0001495 A 0.5,0.5 0 0 0 1.999833,1.5002226 0.5,0.5 0 0 0 2.4999061,2.0002957 0.5,0.5 0 0 0 2.9999792,1.5002226 0.5,0.5 0 0 0 2.4999061,1.0001495 Z M 16.499939,2.9997707 c -0.277,0 -0.500073,0.2230731 -0.500073,0.5000731 V 12.99989 l 0.500073,1.000147 0.500074,-1.000147 V 3.4998438 c 0,-0.277 -0.223074,-0.5000731 -0.500074,-0.5000731 z"
       style="fill:url(#linearGradient32);fill-opacity:1" />
  </g>
</svg>
