<?xml version="1.0" encoding="UTF-8" standalone="no"?>
<svg
   width="163.69403"
   height="137.72527"
   version="1.1"
   id="svg18"
   xmlns:xlink="http://www.w3.org/1999/xlink"
   xmlns="http://www.w3.org/2000/svg"
   xmlns:svg="http://www.w3.org/2000/svg"
   xmlns:rdf="http://www.w3.org/1999/02/22-rdf-syntax-ns#"
   xmlns:cc="http://creativecommons.org/ns#"
   xmlns:dc="http://purl.org/dc/elements/1.1/">
  <metadata
     id="metadata1">
    <rdf:RDF>
      <cc:Work
         rdf:about="">
        <dc:format>image/svg+xml</dc:format>
        <dc:type
           rdf:resource="http://purl.org/dc/dcmitype/StillImage" />
        <dc:title />
      </cc:Work>
    </rdf:RDF>
  </metadata>
  <defs
     id="defs5">
    <linearGradient
       id="linearGradient19">
      <stop
         style="stop-color:#00abff;stop-opacity:0;"
         offset="0"
         id="stop20" />
      <stop
         style="stop-color:#00abff;stop-opacity:1;"
         offset="1"
         id="stop19" />
    </linearGradient>
    <linearGradient
       xlink:href="#linearGradient19"
       id="linearGradient20"
       x1="-120.82609"
       y1="198.55072"
       x2="-120.82609"
       y2="82.971016"
       gradientUnits="userSpaceOnUse" />
    <filter
       style="color-interpolation-filters:sRGB"
       id="filter20"
       x="-0.024752312"
       y="-0.029696675"
       width="1.0495046"
       height="1.0593933">
      <feGaussianBlur
         stdDeviation="1.6086182"
         id="feGaussianBlur20" />
    </filter>
  </defs>
  <g
     id="g20"
     transform="translate(-18.152986,-26.139316)">
    <path
       id="circle5"
       style="display:inline;opacity:0.6;fill:#00abff;fill-opacity:1;paint-order:stroke fill markers;filter:url(#filter20)"
       d="m -192.875,30 c -4.47599,0 -8.11133,3.633397 -8.11133,8.109375 v 23.78125 c 0,4.475978 3.63534,8.109375 8.11133,8.109375 h 139.75 c 4.475979,0 8.111328,-3.633395 8.111328,-8.109375 V 38.109375 C -45.013672,33.633395 -48.649021,30 -53.125,30 Z m 0,1.951172 h 139.75 c 3.428603,0 6.160156,2.729599 6.160156,6.158203 v 23.78125 c 0,3.428604 -2.731553,6.158203 -6.160156,6.158203 h -139.75 c -3.42861,0 -6.16016,-2.729597 -6.16016,-6.158203 v -23.78125 c 0,-3.428606 2.73155,-6.158203 6.16016,-6.158203 z M -67.5,41.5 c -4.682576,0 -8.5,3.817424 -8.5,8.5 0,4.682576 3.817424,8.5 8.5,8.5 4.682576,0 8.5,-3.817424 8.5,-8.5 0,-4.682576 -3.817424,-8.5 -8.5,-8.5 z m 0,2 c 3.601696,0 6.5,2.898304 6.5,6.5 0,3.601696 -2.898304,6.5 -6.5,6.5 -3.601696,0 -6.5,-2.898304 -6.5,-6.5 0,-3.601696 2.898304,-6.5 6.5,-6.5 z M -180,45 a 5,5 0 0 0 -5,5 5,5 0 0 0 5,5 5,5 0 0 0 5,-5 5,5 0 0 0 -5,-5 z m 15,0 a 5,5 0 0 0 -5,5 5,5 0 0 0 5,5 5,5 0 0 0 5,-5 5,5 0 0 0 -5,-5 z m 15,0 a 5,5 0 0 0 -5,5 5,5 0 0 0 5,5 5,5 0 0 0 5,-5 5,5 0 0 0 -5,-5 z m -42.875,30.023438 c -4.47599,0 -8.11133,3.63535 -8.11133,8.111328 v 23.779294 c 0,4.47598 3.63534,8.10938 8.11133,8.10938 h 139.75 c 4.475979,0 8.111328,-3.6334 8.111328,-8.10938 V 83.134766 c 0,-4.475979 -3.635349,-8.11133 -8.111328,-8.111328 z m 0,1.953124 h 139.75 c 3.428603,0 6.160156,2.7296 6.160156,6.158204 v 23.779294 c 0,3.4286 -2.731553,6.15821 -6.160156,6.15821 h -139.75 c -3.42861,0 -6.16016,-2.7296 -6.16016,-6.15821 V 83.134766 c 0,-3.428605 2.73155,-6.158204 6.16016,-6.158204 z M -67.5,86.5 c -4.682576,0 -8.5,3.817424 -8.5,8.5 0,4.682576 3.817424,8.5 8.5,8.5 4.682576,0 8.5,-3.817424 8.5,-8.5 0,-4.682576 -3.817424,-8.5 -8.5,-8.5 z m 0,2 c 3.601696,0 6.5,2.898304 6.5,6.5 0,3.601696 -2.898304,6.5 -6.5,6.5 -3.601696,0 -6.5,-2.898304 -6.5,-6.5 0,-3.601696 2.898304,-6.5 6.5,-6.5 z M -180,90 a 5,5 0 0 0 -5,5 5,5 0 0 0 5,5 5,5 0 0 0 5,-5 5,5 0 0 0 -5,-5 z m 15,0 a 5,5 0 0 0 -5,5 5,5 0 0 0 5,5 5,5 0 0 0 5,-5 5,5 0 0 0 -5,-5 z m 15,0 a 5,5 0 0 0 -5,5 5,5 0 0 0 5,5 5,5 0 0 0 5,-5 5,5 0 0 0 -5,-5 z m -42.875,30.00391 c -4.47599,0 -8.11133,3.63339 -8.11133,8.10937 v 23.78125 c 0,4.47599 3.63534,8.10938 8.11133,8.10938 h 139.75 c 4.475977,0 8.111328,-3.63339 8.111328,-8.10938 v -23.78125 c 0,-4.47598 -3.635349,-8.10937 -8.111328,-8.10937 z m 0,1.95117 h 139.75 c 3.428603,0 6.160156,2.7296 6.160156,6.1582 v 23.78125 c 0,3.42861 -2.731551,6.1582 -6.160156,6.1582 h -139.75 c -3.42861,0 -6.16016,-2.72958 -6.16016,-6.1582 v -23.78125 c 0,-3.4286 2.73155,-6.1582 6.16016,-6.1582 z M -67.5,131.5 c -4.682576,0 -8.5,3.81742 -8.5,8.5 0,4.68258 3.817424,8.5 8.5,8.5 4.682576,0 8.5,-3.81742 8.5,-8.5 0,-4.68258 -3.817424,-8.5 -8.5,-8.5 z m 0,2 c 3.601696,0 6.5,2.8983 6.5,6.5 0,3.6017 -2.898304,6.5 -6.5,6.5 -3.601696,0 -6.5,-2.8983 -6.5,-6.5 0,-3.6017 2.898304,-6.5 6.5,-6.5 z M -180,135 a 5,5 0 0 0 -5,5 5,5 0 0 0 5,5 5,5 0 0 0 5,-5 5,5 0 0 0 -5,-5 z m 15,0 a 5,5 0 0 0 -5,5 5,5 0 0 0 5,5 5,5 0 0 0 5,-5 5,5 0 0 0 -5,-5 z m 15,0 a 5,5 0 0 0 -5,5 5,5 0 0 0 5,5 5,5 0 0 0 5,-5 5,5 0 0 0 -5,-5 z"
       transform="translate(223)" />
    <path
       id="path18"
       style="fill:url(#linearGradient20);fill-opacity:1;paint-order:stroke fill markers"
       d="m -192.875,30 c -4.47599,0 -8.11133,3.633397 -8.11133,8.109375 v 23.78125 c 0,4.475978 3.63534,8.109375 8.11133,8.109375 h 139.75 c 4.475979,0 8.111328,-3.633395 8.111328,-8.109375 V 38.109375 C -45.013672,33.633395 -48.649021,30 -53.125,30 Z m 0,1.951172 h 139.75 c 3.428603,0 6.160156,2.729599 6.160156,6.158203 v 23.78125 c 0,3.428604 -2.731553,6.158203 -6.160156,6.158203 h -139.75 c -3.42861,0 -6.16016,-2.729597 -6.16016,-6.158203 v -23.78125 c 0,-3.428606 2.73155,-6.158203 6.16016,-6.158203 z M -67.5,41.5 c -4.682576,0 -8.5,3.817424 -8.5,8.5 0,4.682576 3.817424,8.5 8.5,8.5 4.682576,0 8.5,-3.817424 8.5,-8.5 0,-4.682576 -3.817424,-8.5 -8.5,-8.5 z m 0,2 c 3.601696,0 6.5,2.898304 6.5,6.5 0,3.601696 -2.898304,6.5 -6.5,6.5 -3.601696,0 -6.5,-2.898304 -6.5,-6.5 0,-3.601696 2.898304,-6.5 6.5,-6.5 z M -180,45 a 5,5 0 0 0 -5,5 5,5 0 0 0 5,5 5,5 0 0 0 5,-5 5,5 0 0 0 -5,-5 z m 15,0 a 5,5 0 0 0 -5,5 5,5 0 0 0 5,5 5,5 0 0 0 5,-5 5,5 0 0 0 -5,-5 z m 15,0 a 5,5 0 0 0 -5,5 5,5 0 0 0 5,5 5,5 0 0 0 5,-5 5,5 0 0 0 -5,-5 z m -42.875,30.023438 c -4.47599,0 -8.11133,3.63535 -8.11133,8.111328 v 23.779294 c 0,4.47598 3.63534,8.10938 8.11133,8.10938 h 139.75 c 4.475979,0 8.111328,-3.6334 8.111328,-8.10938 V 83.134766 c 0,-4.475979 -3.635349,-8.11133 -8.111328,-8.111328 z m 0,1.953124 h 139.75 c 3.428603,0 6.160156,2.7296 6.160156,6.158204 v 23.779294 c 0,3.4286 -2.731553,6.15821 -6.160156,6.15821 h -139.75 c -3.42861,0 -6.16016,-2.7296 -6.16016,-6.15821 V 83.134766 c 0,-3.428605 2.73155,-6.158204 6.16016,-6.158204 z M -67.5,86.5 c -4.682576,0 -8.5,3.817424 -8.5,8.5 0,4.682576 3.817424,8.5 8.5,8.5 4.682576,0 8.5,-3.817424 8.5,-8.5 0,-4.682576 -3.817424,-8.5 -8.5,-8.5 z m 0,2 c 3.601696,0 6.5,2.898304 6.5,6.5 0,3.601696 -2.898304,6.5 -6.5,6.5 -3.601696,0 -6.5,-2.898304 -6.5,-6.5 0,-3.601696 2.898304,-6.5 6.5,-6.5 z M -180,90 a 5,5 0 0 0 -5,5 5,5 0 0 0 5,5 5,5 0 0 0 5,-5 5,5 0 0 0 -5,-5 z m 15,0 a 5,5 0 0 0 -5,5 5,5 0 0 0 5,5 5,5 0 0 0 5,-5 5,5 0 0 0 -5,-5 z m 15,0 a 5,5 0 0 0 -5,5 5,5 0 0 0 5,5 5,5 0 0 0 5,-5 5,5 0 0 0 -5,-5 z m -42.875,30.00391 c -4.47599,0 -8.11133,3.63339 -8.11133,8.10937 v 23.78125 c 0,4.47599 3.63534,8.10938 8.11133,8.10938 h 139.75 c 4.475977,0 8.111328,-3.63339 8.111328,-8.10938 v -23.78125 c 0,-4.47598 -3.635349,-8.10937 -8.111328,-8.10937 z m 0,1.95117 h 139.75 c 3.428603,0 6.160156,2.7296 6.160156,6.1582 v 23.78125 c 0,3.42861 -2.731551,6.1582 -6.160156,6.1582 h -139.75 c -3.42861,0 -6.16016,-2.72958 -6.16016,-6.1582 v -23.78125 c 0,-3.4286 2.73155,-6.1582 6.16016,-6.1582 z M -67.5,131.5 c -4.682576,0 -8.5,3.81742 -8.5,8.5 0,4.68258 3.817424,8.5 8.5,8.5 4.682576,0 8.5,-3.81742 8.5,-8.5 0,-4.68258 -3.817424,-8.5 -8.5,-8.5 z m 0,2 c 3.601696,0 6.5,2.8983 6.5,6.5 0,3.6017 -2.898304,6.5 -6.5,6.5 -3.601696,0 -6.5,-2.8983 -6.5,-6.5 0,-3.6017 2.898304,-6.5 6.5,-6.5 z M -180,135 a 5,5 0 0 0 -5,5 5,5 0 0 0 5,5 5,5 0 0 0 5,-5 5,5 0 0 0 -5,-5 z m 15,0 a 5,5 0 0 0 -5,5 5,5 0 0 0 5,5 5,5 0 0 0 5,-5 5,5 0 0 0 -5,-5 z m 15,0 a 5,5 0 0 0 -5,5 5,5 0 0 0 5,5 5,5 0 0 0 5,-5 5,5 0 0 0 -5,-5 z"
       transform="translate(223)" />
  </g>
</svg>
