<?xml version="1.0" encoding="UTF-8" standalone="no"?>
<svg
   width="163.97461"
   height="135.96872"
   version="1.1"
   id="svg48"
   xmlns:xlink="http://www.w3.org/1999/xlink"
   xmlns="http://www.w3.org/2000/svg"
   xmlns:svg="http://www.w3.org/2000/svg"
   xmlns:rdf="http://www.w3.org/1999/02/22-rdf-syntax-ns#"
   xmlns:cc="http://creativecommons.org/ns#"
   xmlns:dc="http://purl.org/dc/elements/1.1/">
  <metadata
     id="metadata1">
    <rdf:RDF>
      <cc:Work
         rdf:about="">
        <dc:format>image/svg+xml</dc:format>
        <dc:type
           rdf:resource="http://purl.org/dc/dcmitype/StillImage" />
        <dc:title />
      </cc:Work>
    </rdf:RDF>
  </metadata>
  <defs
     id="defs11">
    <linearGradient
       id="linearGradient48">
      <stop
         style="stop-color:#00abff;stop-opacity:0;"
         offset="0"
         id="stop49" />
      <stop
         style="stop-color:#00abff;stop-opacity:1;"
         offset="1"
         id="stop48" />
    </linearGradient>
    <style
       type="text/css"
       id="style1" />
    <style
       type="text/css"
       id="style2" />
    <style
       type="text/css"
       id="style3" />
    <style
       type="text/css"
       id="style4" />
    <style
       id="current-color-scheme"
       type="text/css">.ColorScheme-Text {
        color:#4d4d4d;
      }</style>
    <style
       type="text/css"
       id="style5">.ColorScheme-Text {
        color:#4d4d4d;
      }</style>
    <style
       type="text/css"
       id="style6" />
    <style
       type="text/css"
       id="style7" />
    <linearGradient
       xlink:href="#linearGradient48"
       id="linearGradient49"
       x1="-149.96536"
       y1="200"
       x2="-149.96536"
       y2="86.231888"
       gradientUnits="userSpaceOnUse" />
    <filter
       style="color-interpolation-filters:sRGB"
       id="filter49"
       x="-0.024580925"
       y="-0.029947181"
       width="1.0491618"
       height="1.0598944">
      <feGaussianBlur
         stdDeviation="1.6007412"
         id="feGaussianBlur49" />
    </filter>
  </defs>
  <g
     id="g49"
     transform="translate(-18.015601,-29.585955)">
    <path
       id="path44"
       style="display:inline;opacity:0.6;fill:#00abff;fill-opacity:1;filter:url(#filter49)"
       d="m -222.52984,33.427734 -6.30078,6.300782 V 71.126953 L -221.69977,64 h 40 l 11.42969,-11.427734 h 90.599611 l 7.128907,7.126953 v -8.541016 l -6.300782,-6.300781 H -181.11578 v -5.128906 l -6.30078,-6.300782 z m 0.82812,2 h 33.45703 l 5.12891,5.128907 v 6.300781 h 103.445311 l 5.128907,5.128906 v 2.884766 l -4.300782,-4.298828 H -171.0982 L -182.52789,62 h -40 l -4.30273,4.300781 V 40.556641 Z M -171.10211,62.570312 -182.52984,74 h -40 l -6.30078,6.298828 -0.002,75.115232 6.30078,6.29883 h 143.687503 l 6.300781,-6.29883 V 68.871094 l -6.300781,-6.300782 z m 0.82813,2 h 90.601558 l 5.128906,5.128907 v 84.884761 l -5.128906,5.12891 H -221.70367 l -5.12891,-5.12891 0.002,-73.455074 L -221.70172,76 h 40 z m 30.98632,19.521485 c -0.60728,-0.02005 -1.26734,0.372364 -1.66015,1.052734 l -30.25196,52.398439 c -0.52374,0.90716 -0.36828,1.96946 0.34766,2.38281 0.71593,0.41335 1.71453,0.0165 2.23828,-0.89062 l 30.25,-52.398441 c 0.52375,-0.907161 0.37023,-1.969468 -0.3457,-2.382813 -0.17899,-0.103337 -0.3757,-0.155426 -0.57813,-0.162109 z m -18.50976,53.013673 c -1.18995,0 -2.14844,0.66546 -2.14844,1.49219 0,0.82671 0.95849,1.49218 2.14844,1.49218 h 25.77344 c 1.18995,0 2.14843,-0.66547 2.14843,-1.49218 0,-0.82673 -0.95848,-1.49219 -2.14843,-1.49219 z"
       transform="translate(250.69)" />
    <path
       id="path48"
       style="fill:url(#linearGradient49);fill-opacity:1"
       d="m -222.52984,33.427734 -6.30078,6.300782 V 71.126953 L -221.69977,64 h 40 l 11.42969,-11.427734 h 90.599611 l 7.128907,7.126953 v -8.541016 l -6.300782,-6.300781 H -181.11578 v -5.128906 l -6.30078,-6.300782 z m 0.82812,2 h 33.45703 l 5.12891,5.128907 v 6.300781 h 103.445311 l 5.128907,5.128906 v 2.884766 l -4.300782,-4.298828 H -171.0982 L -182.52789,62 h -40 l -4.30273,4.300781 V 40.556641 Z M -171.10211,62.570312 -182.52984,74 h -40 l -6.30078,6.298828 -0.002,75.115232 6.30078,6.29883 h 143.687503 l 6.300781,-6.29883 V 68.871094 l -6.300781,-6.300782 z m 0.82813,2 h 90.601558 l 5.128906,5.128907 v 84.884761 l -5.128906,5.12891 H -221.70367 l -5.12891,-5.12891 0.002,-73.455074 L -221.70172,76 h 40 z m 30.98632,19.521485 c -0.60728,-0.02005 -1.26734,0.372364 -1.66015,1.052734 l -30.25196,52.398439 c -0.52374,0.90716 -0.36828,1.96946 0.34766,2.38281 0.71593,0.41335 1.71453,0.0165 2.23828,-0.89062 l 30.25,-52.398441 c 0.52375,-0.907161 0.37023,-1.969468 -0.3457,-2.382813 -0.17899,-0.103337 -0.3757,-0.155426 -0.57813,-0.162109 z m -18.50976,53.013673 c -1.18995,0 -2.14844,0.66546 -2.14844,1.49219 0,0.82671 0.95849,1.49218 2.14844,1.49218 h 25.77344 c 1.18995,0 2.14843,-0.66547 2.14843,-1.49218 0,-0.82673 -0.95848,-1.49219 -2.14843,-1.49219 z"
       transform="translate(250.69)" />
  </g>
</svg>
