<?xml version="1.0" encoding="UTF-8" standalone="no"?>
<svg
   width="62.737514"
   height="51.522671"
   version="1.1"
   viewBox="0 0 62.737514 51.522671"
   id="svg24"
   xmlns:xlink="http://www.w3.org/1999/xlink"
   xmlns="http://www.w3.org/2000/svg"
   xmlns:svg="http://www.w3.org/2000/svg">
  <defs
     id="defs18">
    <linearGradient
       id="linearGradient24">
      <stop
         style="stop-color:#00abff;stop-opacity:0;"
         offset="0"
         id="stop25" />
      <stop
         style="stop-color:#00abff;stop-opacity:1;"
         offset="1"
         id="stop24" />
    </linearGradient>
    <linearGradient
       xlink:href="#linearGradient24"
       id="linearGradient25"
       x1="33.941124"
       y1="65.422752"
       x2="33.941124"
       y2="20.49585"
       gradientUnits="userSpaceOnUse" />
    <filter
       style="color-interpolation-filters:sRGB"
       id="filter25"
       x="-0.024468667"
       y="-0.030115509"
       width="1.0489373"
       height="1.060231">
      <feGaussianBlur
         stdDeviation="0.60978515"
         id="feGaussianBlur25" />
    </filter>
  </defs>
  <g
     id="g25"
     transform="translate(-0.65175011,-6.6595625)">
    <path
       id="path1"
       style="color:#dedede;display:inline;opacity:0.6;fill:#00abff;fill-opacity:1;stroke-width:3.73816;filter:url(#filter25)"
       class="ColorScheme-Text"
       d="m 24.542969,8.1230469 c -5.605359,0 -9.504469,3.8761181 -10.958985,7.6015621 L 2.859375,43.701172 c -0.011905,0.02841 -0.01771,0.05937 -0.029297,0.08789 l -0.21875,0.5625 h 0.042969 c -0.3254751,0.952299 -0.5390625,1.956224 -0.5390625,3.021485 0,5.177342 4.1664101,9.345703 9.3437495,9.345703 h 41.121094 c 5.17734,0 9.345703,-4.168361 9.345703,-9.345703 0,-1.065298 -0.215609,-2.069189 -0.541015,-3.021485 h 0.04297 l -0.21875,-0.5625 -0.01367,-0.05859 c -0.0041,-0.01005 -0.01149,-0.01921 -0.01562,-0.0293 L 50.455078,15.724609 c -1.454739,-3.725405 -5.354,-7.6015621 -10.958984,-7.6015621 h -7.476563 z m 0,3.7382811 h 14.953125 c 4.141872,0 6.386889,2.429798 7.476562,5.220703 l 8.175782,21.347657 c -0.820935,-0.23442 -1.670157,-0.400391 -2.56836,-0.400391 H 11.458984 c -0.898204,0 -1.7493771,0.166008 -2.5703121,0.400391 L 17.066406,17.082031 c 1.089784,-2.79083 3.334691,-5.220703 7.476563,-5.220703 z m -13.083985,29.90625 h 41.121094 c 3.106405,0 5.605469,2.499064 5.605469,5.605469 0,3.106404 -2.499064,5.607422 -5.605469,5.607422 H 11.458984 c -3.1064045,0 -5.6074215,-2.501018 -5.6074215,-5.607422 0,-3.106405 2.501017,-5.605469 5.6074215,-5.605469 z m 37.382813,3.736328 a 1.8690761,1.8690761 0 0 0 -1.869141,1.869141 1.8690761,1.8690761 0 0 0 1.869141,1.869141 1.8690761,1.8690761 0 0 0 1.869141,-1.869141 1.8690761,1.8690761 0 0 0 -1.869141,-1.869141 z" />
    <path
       id="path24"
       style="color:#dedede;fill:url(#linearGradient25);fill-opacity:1;stroke-width:3.73816"
       class="ColorScheme-Text"
       d="m 24.542969,8.1230469 c -5.605359,0 -9.504469,3.8761181 -10.958985,7.6015621 L 2.859375,43.701172 c -0.011905,0.02841 -0.01771,0.05937 -0.029297,0.08789 l -0.21875,0.5625 h 0.042969 c -0.3254751,0.952299 -0.5390625,1.956224 -0.5390625,3.021485 0,5.177342 4.1664101,9.345703 9.3437495,9.345703 h 41.121094 c 5.17734,0 9.345703,-4.168361 9.345703,-9.345703 0,-1.065298 -0.215609,-2.069189 -0.541015,-3.021485 h 0.04297 l -0.21875,-0.5625 -0.01367,-0.05859 c -0.0041,-0.01005 -0.01149,-0.01921 -0.01562,-0.0293 L 50.455078,15.724609 c -1.454739,-3.725405 -5.354,-7.6015621 -10.958984,-7.6015621 h -7.476563 z m 0,3.7382811 h 14.953125 c 4.141872,0 6.386889,2.429798 7.476562,5.220703 l 8.175782,21.347657 c -0.820935,-0.23442 -1.670157,-0.400391 -2.56836,-0.400391 H 11.458984 c -0.898204,0 -1.7493771,0.166008 -2.5703121,0.400391 L 17.066406,17.082031 c 1.089784,-2.79083 3.334691,-5.220703 7.476563,-5.220703 z m -13.083985,29.90625 h 41.121094 c 3.106405,0 5.605469,2.499064 5.605469,5.605469 0,3.106404 -2.499064,5.607422 -5.605469,5.607422 H 11.458984 c -3.1064045,0 -5.6074215,-2.501018 -5.6074215,-5.607422 0,-3.106405 2.501017,-5.605469 5.6074215,-5.605469 z m 37.382813,3.736328 a 1.8690761,1.8690761 0 0 0 -1.869141,1.869141 1.8690761,1.8690761 0 0 0 1.869141,1.869141 1.8690761,1.8690761 0 0 0 1.869141,-1.869141 1.8690761,1.8690761 0 0 0 -1.869141,-1.869141 z" />
  </g>
</svg>
