<?xml version="1.0" encoding="UTF-8" standalone="no"?>
<svg
   width="62.24839"
   height="45.726906"
   version="1.1"
   viewBox="0 0 62.24839 45.726906"
   id="svg24"
   xmlns:xlink="http://www.w3.org/1999/xlink"
   xmlns="http://www.w3.org/2000/svg"
   xmlns:svg="http://www.w3.org/2000/svg">
  <defs
     id="defs18">
    <linearGradient
       id="linearGradient25">
      <stop
         style="stop-color:#00abff;stop-opacity:0;"
         offset="0"
         id="stop26" />
      <stop
         style="stop-color:#00abff;stop-opacity:1;"
         offset="1"
         id="stop25" />
    </linearGradient>
    <linearGradient
       xlink:href="#linearGradient25"
       id="linearGradient26"
       x1="7.5802288"
       y1="18.118944"
       x2="7.5802288"
       y2="5.069654"
       gradientUnits="userSpaceOnUse" />
    <filter
       style="color-interpolation-filters:sRGB"
       id="filter26"
       x="-0.02325032"
       y="-0.032191695"
       width="1.0465006"
       height="1.0643834">
      <feGaussianBlur
         stdDeviation="0.17437395"
         id="feGaussianBlur26" />
    </filter>
  </defs>
  <g
     class="ColorScheme-Text"
     transform="matrix(3.3046443,0,0,3.3046443,4.6861241,-5.2266097)"
     fill="currentColor"
     id="g3"
     style="color:#dedede">
    <path
       id="path1"
       d="m 4.9999427,2.0000927 c -1.4995,0 -2.5423804,1.0365235 -2.9314804,2.0331235 l -2.86883187,7.4841408 c -0.003232,0.0076 -0.005115,0.01601 -0.008274,0.02364 l -0.0585114,0.150711 h 0.0118205 c -0.08705,0.25475 -0.14420993,0.523551 -0.14420993,0.808521 0,1.385 1.11444166,2.500033 2.4994416,2.500033 H 14.500067 c 1.385,0 2.500033,-1.115033 2.500033,-2.500033 0,-0.28498 -0.05716,-0.553771 -0.14421,-0.808521 h 0.01123 l -0.05851,-0.150711 -0.0035,-0.01537 c -0.0011,-0.0027 -0.003,-0.0056 -0.0041,-0.0083 L 13.931502,4.0332162 C 13.542342,3.0366262 12.499421,2.0000927 11.000021,2.0000927 H 7.9999819 Z m 0,1.0000131 h 6.0000783 c 1.108,0 1.708526,0.6499903 2.000026,1.3965903 l 2.187381,5.7104769 c -0.21961,-0.0627 -0.447081,-0.106976 -0.687361,-0.106976 H 1.4998969 c -0.24028,0 -0.4677512,0.04428 -0.68736122,0.106976 L 2.9999165,4.3966961 c 0.29153,-0.74658 0.8920262,-1.3965903 2.0000262,-1.3965903 z M 1.4998969,11.00021 H 14.500067 c 0.831,0 1.500019,0.66902 1.500019,1.50002 0,0.831 -0.669019,1.50002 -1.500019,1.50002 H 1.4998969 c -0.83099999,0 -1.50001959853,-0.66902 -1.50001959853,-1.50002 0,-0.831 0.66901960853,-1.50002 1.50001959853,-1.50002 z m 7.0000915,1.000013 A 0.5,0.5 0 0 0 7.9999819,12.50023 0.5,0.5 0 0 0 8.4999884,13.000236 0.5,0.5 0 0 0 8.999995,12.50023 0.5,0.5 0 0 0 8.4999884,12.000223 Z m 2.0000266,0 a 0.5,0.5 0 0 0 -0.500007,0.500007 0.5,0.5 0 0 0 0.500007,0.500006 0.5,0.5 0 0 0 0.500006,-0.500006 0.5,0.5 0 0 0 -0.500006,-0.500007 z m 2.000026,0 a 0.5,0.5 0 0 0 -0.500007,0.500007 0.5,0.5 0 0 0 0.500007,0.500006 0.5,0.5 0 0 0 0.500006,-0.500006 0.5,0.5 0 0 0 -0.500006,-0.500007 z"
       style="display:inline;opacity:0.6;fill:#00abff;fill-opacity:1;filter:url(#filter26)" />
    <path
       id="path25"
       d="m 4.9999427,2.0000927 c -1.4995,0 -2.5423804,1.0365235 -2.9314804,2.0331235 l -2.86883187,7.4841408 c -0.003232,0.0076 -0.005115,0.01601 -0.008274,0.02364 l -0.0585114,0.150711 h 0.0118205 c -0.08705,0.25475 -0.14420993,0.523551 -0.14420993,0.808521 0,1.385 1.11444166,2.500033 2.4994416,2.500033 H 14.500067 c 1.385,0 2.500033,-1.115033 2.500033,-2.500033 0,-0.28498 -0.05716,-0.553771 -0.14421,-0.808521 h 0.01123 l -0.05851,-0.150711 -0.0035,-0.01537 c -0.0011,-0.0027 -0.003,-0.0056 -0.0041,-0.0083 L 13.931502,4.0332162 C 13.542342,3.0366262 12.499421,2.0000927 11.000021,2.0000927 H 7.9999819 Z m 0,1.0000131 h 6.0000783 c 1.108,0 1.708526,0.6499903 2.000026,1.3965903 l 2.187381,5.7104769 c -0.21961,-0.0627 -0.447081,-0.106976 -0.687361,-0.106976 H 1.4998969 c -0.24028,0 -0.4677512,0.04428 -0.68736122,0.106976 L 2.9999165,4.3966961 c 0.29153,-0.74658 0.8920262,-1.3965903 2.0000262,-1.3965903 z M 1.4998969,11.00021 H 14.500067 c 0.831,0 1.500019,0.66902 1.500019,1.50002 0,0.831 -0.669019,1.50002 -1.500019,1.50002 H 1.4998969 c -0.83099999,0 -1.50001959853,-0.66902 -1.50001959853,-1.50002 0,-0.831 0.66901960853,-1.50002 1.50001959853,-1.50002 z m 7.0000915,1.000013 A 0.5,0.5 0 0 0 7.9999819,12.50023 0.5,0.5 0 0 0 8.4999884,13.000236 0.5,0.5 0 0 0 8.999995,12.50023 0.5,0.5 0 0 0 8.4999884,12.000223 Z m 2.0000266,0 a 0.5,0.5 0 0 0 -0.500007,0.500007 0.5,0.5 0 0 0 0.500007,0.500006 0.5,0.5 0 0 0 0.500006,-0.500006 0.5,0.5 0 0 0 -0.500006,-0.500007 z m 2.000026,0 a 0.5,0.5 0 0 0 -0.500007,0.500007 0.5,0.5 0 0 0 0.500007,0.500006 0.5,0.5 0 0 0 0.500006,-0.500006 0.5,0.5 0 0 0 -0.500006,-0.500007 z"
       style="display:inline;fill:url(#linearGradient26);fill-opacity:1" />
  </g>
</svg>
