<?xml version="1.0" encoding="UTF-8" standalone="no"?>
<svg
   width="60.344543"
   height="60.344543"
   version="1.1"
   viewBox="0 0 15.965846 15.965846"
   id="svg7"
   xmlns:xlink="http://www.w3.org/1999/xlink"
   xmlns="http://www.w3.org/2000/svg"
   xmlns:svg="http://www.w3.org/2000/svg"
   xmlns:rdf="http://www.w3.org/1999/02/22-rdf-syntax-ns#"
   xmlns:cc="http://creativecommons.org/ns#"
   xmlns:dc="http://purl.org/dc/elements/1.1/">
  <metadata
     id="metadata1">
    <rdf:RDF>
      <cc:Work
         rdf:about="">
        <dc:format>image/svg+xml</dc:format>
        <dc:type
           rdf:resource="http://purl.org/dc/dcmitype/StillImage" />
        <dc:title />
      </cc:Work>
    </rdf:RDF>
  </metadata>
  <defs
     id="defs2">
    <linearGradient
       id="linearGradient12">
      <stop
         style="stop-color:#00abff;stop-opacity:0;"
         offset="0"
         id="stop13" />
      <stop
         style="stop-color:#00abff;stop-opacity:1;"
         offset="1"
         id="stop12" />
    </linearGradient>
    <linearGradient
       xlink:href="#linearGradient12"
       id="linearGradient13"
       x1="-2.0426755"
       y1="46.242584"
       x2="-2.0426755"
       y2="0.0039483551"
       gradientUnits="userSpaceOnUse" />
    <filter
       style="color-interpolation-filters:sRGB"
       id="filter13"
       x="-0.026999999"
       y="-0.026999999"
       width="1.054"
       height="1.054">
      <feGaussianBlur
         stdDeviation="0.64409497"
         id="feGaussianBlur13" />
    </filter>
  </defs>
  <g
     style="color:#dedede;fill:currentColor"
     class="ColorScheme-Text"
     id="g3"
     transform="matrix(0.26457812,0,0,0.26457812,8.6081951,4.738365)">
    <path
       id="path1"
       d="m -13.098196,-16.363306 c -3.964763,0 -7.287578,3.193996 -7.156612,7.1566106 v 3.5783057 h -3.578305 c -3.964762,0 -7.156611,3.1918482 -7.156611,7.1566106 V 22.998054 c 0,3.964762 3.191849,7.156609 7.156611,7.156609 h 3.578305 v 3.578306 c 0,3.964762 3.191849,7.156611 7.156612,7.156611 H 8.3716357 c 3.9647623,0 7.1566093,-3.191849 7.1566093,-7.156611 v -3.578306 h 3.578306 c 3.964763,0 7.156611,-3.191847 7.156611,-7.156609 V 1.5282209 c 0,-3.9647624 -3.191848,-7.1566106 -7.156611,-7.1566106 h -3.578306 v -3.5783057 c 0,-3.9647616 -3.191847,-7.1566106 -7.1566093,-7.1566106 z m 0,3.578306 H 8.3716357 c 1.9823803,0 3.7278783,1.601577 3.5783053,3.5783046 v 3.5783057 h -28.626443 v -3.5783057 c 0,-1.9823806 1.595924,-3.5783046 3.578306,-3.5783046 z m -10.734917,10.7349155 h 3.578305 3.578306 28.626443 3.578304 3.578306 c 1.982382,0 3.578305,1.59592432 3.578305,3.5783054 V 22.998054 c 0,1.98238 -1.595923,3.578304 -3.578305,3.578304 H 15.528245 V 15.841443 c 0,-3.964763 -3.191847,-7.1566113 -7.1566093,-7.1566113 H -13.098196 c -3.964763,0 -7.156612,3.1918483 -7.156612,7.1566113 v 10.734915 h -3.578305 c -1.982381,0 -3.578305,-1.595924 -3.578305,-3.578304 V 1.5282209 c 0,-1.98238108 1.595924,-3.5783054 3.578305,-3.5783054 z M 17.317398,1.5282209 A 1.7891526,1.7891526 0 0 0 15.528245,3.3173737 1.7891526,1.7891526 0 0 0 17.317398,5.1065263 1.7891526,1.7891526 0 0 0 19.106551,3.3173737 1.7891526,1.7891526 0 0 0 17.317398,1.5282209 Z M -13.098196,12.263137 H 8.3716357 c 1.9823803,0 3.5783053,1.595925 3.5783053,3.578306 v 10.734915 3.578305 3.578306 c 0,1.982381 -1.595925,3.578305 -3.5783053,3.578305 H -13.098196 c -1.982382,0 -3.578306,-1.595924 -3.578306,-3.578305 V 30.154663 26.576358 15.841443 c 0,-1.982381 1.595924,-3.578306 3.578306,-3.578306 z m 0,7.156611 v 3.578306 H 8.3716357 v -3.578306 z m 0,7.15661 v 3.578305 H 8.3716357 v -3.578305 z"
       style="display:inline;opacity:0.6;fill:#00abff;fill-opacity:1;stroke-width:3.57831;filter:url(#filter13)" />
    <path
       id="path12"
       d="m -13.098196,-16.363306 c -3.964763,0 -7.287578,3.193996 -7.156612,7.1566106 v 3.5783057 h -3.578305 c -3.964762,0 -7.156611,3.1918482 -7.156611,7.1566106 V 22.998054 c 0,3.964762 3.191849,7.156609 7.156611,7.156609 h 3.578305 v 3.578306 c 0,3.964762 3.191849,7.156611 7.156612,7.156611 H 8.3716357 c 3.9647623,0 7.1566093,-3.191849 7.1566093,-7.156611 v -3.578306 h 3.578306 c 3.964763,0 7.156611,-3.191847 7.156611,-7.156609 V 1.5282209 c 0,-3.9647624 -3.191848,-7.1566106 -7.156611,-7.1566106 h -3.578306 v -3.5783057 c 0,-3.9647616 -3.191847,-7.1566106 -7.1566093,-7.1566106 z m 0,3.578306 H 8.3716357 c 1.9823803,0 3.7278783,1.601577 3.5783053,3.5783046 v 3.5783057 h -28.626443 v -3.5783057 c 0,-1.9823806 1.595924,-3.5783046 3.578306,-3.5783046 z m -10.734917,10.7349155 h 3.578305 3.578306 28.626443 3.578304 3.578306 c 1.982382,0 3.578305,1.59592432 3.578305,3.5783054 V 22.998054 c 0,1.98238 -1.595923,3.578304 -3.578305,3.578304 H 15.528245 V 15.841443 c 0,-3.964763 -3.191847,-7.1566113 -7.1566093,-7.1566113 H -13.098196 c -3.964763,0 -7.156612,3.1918483 -7.156612,7.1566113 v 10.734915 h -3.578305 c -1.982381,0 -3.578305,-1.595924 -3.578305,-3.578304 V 1.5282209 c 0,-1.98238108 1.595924,-3.5783054 3.578305,-3.5783054 z M 17.317398,1.5282209 A 1.7891526,1.7891526 0 0 0 15.528245,3.3173737 1.7891526,1.7891526 0 0 0 17.317398,5.1065263 1.7891526,1.7891526 0 0 0 19.106551,3.3173737 1.7891526,1.7891526 0 0 0 17.317398,1.5282209 Z M -13.098196,12.263137 H 8.3716357 c 1.9823803,0 3.5783053,1.595925 3.5783053,3.578306 v 10.734915 3.578305 3.578306 c 0,1.982381 -1.595925,3.578305 -3.5783053,3.578305 H -13.098196 c -1.982382,0 -3.578306,-1.595924 -3.578306,-3.578305 V 30.154663 26.576358 15.841443 c 0,-1.982381 1.595924,-3.578306 3.578306,-3.578306 z m 0,7.156611 v 3.578306 H 8.3716357 v -3.578306 z m 0,7.15661 v 3.578305 H 8.3716357 v -3.578305 z"
       style="fill:url(#linearGradient13);fill-opacity:1;stroke-width:3.57831" />
  </g>
</svg>
