<?xml version="1.0" encoding="UTF-8" standalone="no"?>
<svg
   width="59.683064"
   height="45.436966"
   version="1.1"
   viewBox="0 0 15.790833 12.021627"
   id="svg30"
   xmlns:xlink="http://www.w3.org/1999/xlink"
   xmlns="http://www.w3.org/2000/svg"
   xmlns:svg="http://www.w3.org/2000/svg">
  <defs
     id="defs10">
    <linearGradient
       id="linearGradient37">
      <stop
         style="stop-color:#00abff;stop-opacity:0;"
         offset="0"
         id="stop38" />
      <stop
         style="stop-color:#00abff;stop-opacity:1;"
         offset="1"
         id="stop37" />
    </linearGradient>
    <linearGradient
       xlink:href="#linearGradient37"
       id="linearGradient38"
       x1="7.937418"
       y1="15.712342"
       x2="7.937418"
       y2="6.3677998"
       gradientUnits="userSpaceOnUse" />
    <filter
       style="color-interpolation-filters:sRGB"
       id="filter38"
       x="-0.023625348"
       y="-0.031499385"
       width="1.0472507"
       height="1.0629988">
      <feGaussianBlur
         stdDeviation="0.15749746"
         id="feGaussianBlur38" />
    </filter>
  </defs>
  <g
     style="color:#dedede;fill:currentColor"
     class="ColorScheme-Text"
     id="g3"
     transform="matrix(0.94242713,0,0,0.94242713,0.35609019,-1.5286121)">
    <path
       id="path1"
       style="color:#dedede;display:inline;opacity:0.6;fill:#00abff;fill-opacity:1;filter:url(#filter38)"
       class="ColorScheme-Text"
       d="m 8.0001778,1.9999889 c -1.6418,0 -2.9573769,0.049774 -4.0120769,0.2675814 -0.52734,0.1089 -0.9974674,0.2588499 -1.4196074,0.5198099 -0.42216,0.26096 -0.7986663,0.6784619 -0.9590163,1.1893119 -0.77524002,2.4696 -1.60932702635,4.6499934 -1.60932702635,7.3573939 0,1.5304 1.35781752635,2.665944 2.95271752635,2.665944 1.5290022,0 2.6410514,-1.085245 3.1056995,-2.255799 v -5.48e-4 l 0.4726542,-1.050587 c 0.4943,-0.09501 0.9688133,-0.161213 1.4568933,-0.155723 h 0.012063 0.011515 c 0.48811,-0.0055 0.9626233,0.06071 1.4568933,0.155723 l 0.472654,1.050587 v 5.48e-4 c 0.46462,1.170554 1.576697,2.255799 3.1057,2.255799 1.5949,0 2.952717,-1.135544 2.952717,-2.665944 0,-2.7074005 -0.834067,-4.8878939 -1.609327,-7.3573939 -0.16035,-0.51081 -0.536856,-0.9283019 -0.959016,-1.1893119 -0.42216,-0.26096 -0.892298,-0.4109099 -1.419608,-0.5198099 -1.0547,-0.2178 -2.3697282,-0.2675814 -4.0115282,-0.2675814 z m 0,1.0001405 c 3.2352002,0 5.1105672,0.2348885 5.4371672,1.2753985 0.7848,2.5 1.56272,4.5585576 1.56272,7.0585581 0,0.83333 -0.871405,1.665804 -1.953125,1.665804 -1.08172,0 -1.852891,-0.765684 -2.193291,-1.665804 l -0.543388,-1.206859 c -0.03027,-0.10322 -0.1295,-0.3303124 -0.3103505,-0.3750524 -0.70039,-0.16831 -1.3495327,-0.2222624 -1.9997327,-0.2149424 -0.65023,-0.00731 -1.2998811,0.046634 -2.0002811,0.2149424 -0.18085,0.044742 -0.2800806,0.2718324 -0.3103506,0.3750524 l -0.5428394,1.206859 c -0.34039,0.90014 -1.112039,1.665804 -2.193839,1.665804 -1.0817,0 -1.95312532,-0.832484 -1.95312532,-1.665804 0,-2.5000005 0.77791962,-4.5585581 1.56271962,-7.0585581 0.32663,-1.0405 2.2025158,-1.2753985 5.4377158,-1.2753985 z M 5.4998264,4.0002699 c -0.277,0 -0.5000702,0.222522 -0.5000702,0.499522 V 6.0000027 H 3.5000937 c -0.277,0 -0.5000703,0.2230702 -0.5000703,0.5000702 0,0.277 0.2230703,0.5000703 0.5000703,0.5000703 h 1.4996625 v 1.4996625 c 0,0.277 0.2230702,0.5000702 0.5000702,0.5000702 0.277,0 0.5000703,-0.2230702 0.5000703,-0.5000702 V 7.0001432 h 1.5002108 c 0.277,0 0.5000703,-0.2230703 0.5000703,-0.5000703 0,-0.277 -0.2230703,-0.5000702 -0.5000703,-0.5000702 H 5.9998967 V 4.4997919 c 0,-0.277 -0.2230703,-0.499522 -0.5000703,-0.499522 z M 12.000192,4.9998621 A 1,1 0 0 0 11.000051,6.0000027 1,1 0 0 0 12.000192,7.0001432 1,1 0 0 0 12.999784,6.0000027 1,1 0 0 0 12.000192,4.9998621 Z M 9.9999105,7.0001432 A 1,1 0 0 0 8.99977,7.9997354 1,1 0 0 0 9.9999105,8.9998759 1,1 0 0 0 11.000051,7.9997354 1,1 0 0 0 9.9999105,7.0001432 Z" />
    <path
       id="path37"
       style="color:#dedede;fill:url(#linearGradient38);fill-opacity:1"
       class="ColorScheme-Text"
       d="m 8.0001778,1.9999889 c -1.6418,0 -2.9573769,0.049774 -4.0120769,0.2675814 -0.52734,0.1089 -0.9974674,0.2588499 -1.4196074,0.5198099 -0.42216,0.26096 -0.7986663,0.6784619 -0.9590163,1.1893119 -0.77524002,2.4696 -1.60932702635,4.6499934 -1.60932702635,7.3573939 0,1.5304 1.35781752635,2.665944 2.95271752635,2.665944 1.5290022,0 2.6410514,-1.085245 3.1056995,-2.255799 v -5.48e-4 l 0.4726542,-1.050587 c 0.4943,-0.09501 0.9688133,-0.161213 1.4568933,-0.155723 h 0.012063 0.011515 c 0.48811,-0.0055 0.9626233,0.06071 1.4568933,0.155723 l 0.472654,1.050587 v 5.48e-4 c 0.46462,1.170554 1.576697,2.255799 3.1057,2.255799 1.5949,0 2.952717,-1.135544 2.952717,-2.665944 0,-2.7074005 -0.834067,-4.8878939 -1.609327,-7.3573939 -0.16035,-0.51081 -0.536856,-0.9283019 -0.959016,-1.1893119 -0.42216,-0.26096 -0.892298,-0.4109099 -1.419608,-0.5198099 -1.0547,-0.2178 -2.3697282,-0.2675814 -4.0115282,-0.2675814 z m 0,1.0001405 c 3.2352002,0 5.1105672,0.2348885 5.4371672,1.2753985 0.7848,2.5 1.56272,4.5585576 1.56272,7.0585581 0,0.83333 -0.871405,1.665804 -1.953125,1.665804 -1.08172,0 -1.852891,-0.765684 -2.193291,-1.665804 l -0.543388,-1.206859 c -0.03027,-0.10322 -0.1295,-0.3303124 -0.3103505,-0.3750524 -0.70039,-0.16831 -1.3495327,-0.2222624 -1.9997327,-0.2149424 -0.65023,-0.00731 -1.2998811,0.046634 -2.0002811,0.2149424 -0.18085,0.044742 -0.2800806,0.2718324 -0.3103506,0.3750524 l -0.5428394,1.206859 c -0.34039,0.90014 -1.112039,1.665804 -2.193839,1.665804 -1.0817,0 -1.95312532,-0.832484 -1.95312532,-1.665804 0,-2.5000005 0.77791962,-4.5585581 1.56271962,-7.0585581 0.32663,-1.0405 2.2025158,-1.2753985 5.4377158,-1.2753985 z M 5.4998264,4.0002699 c -0.277,0 -0.5000702,0.222522 -0.5000702,0.499522 V 6.0000027 H 3.5000937 c -0.277,0 -0.5000703,0.2230702 -0.5000703,0.5000702 0,0.277 0.2230703,0.5000703 0.5000703,0.5000703 h 1.4996625 v 1.4996625 c 0,0.277 0.2230702,0.5000702 0.5000702,0.5000702 0.277,0 0.5000703,-0.2230702 0.5000703,-0.5000702 V 7.0001432 h 1.5002108 c 0.277,0 0.5000703,-0.2230703 0.5000703,-0.5000703 0,-0.277 -0.2230703,-0.5000702 -0.5000703,-0.5000702 H 5.9998967 V 4.4997919 c 0,-0.277 -0.2230703,-0.499522 -0.5000703,-0.499522 z M 12.000192,4.9998621 A 1,1 0 0 0 11.000051,6.0000027 1,1 0 0 0 12.000192,7.0001432 1,1 0 0 0 12.999784,6.0000027 1,1 0 0 0 12.000192,4.9998621 Z M 9.9999105,7.0001432 A 1,1 0 0 0 8.99977,7.9997354 1,1 0 0 0 9.9999105,8.9998759 1,1 0 0 0 11.000051,7.9997354 1,1 0 0 0 9.9999105,7.0001432 Z" />
  </g>
</svg>
