<?xml version="1.0" encoding="UTF-8" standalone="no"?>
<svg
   width="61.010487"
   height="61.008541"
   version="1.1"
   viewBox="0 0 16.14204 16.141525"
   id="svg7"
   xmlns:xlink="http://www.w3.org/1999/xlink"
   xmlns="http://www.w3.org/2000/svg"
   xmlns:svg="http://www.w3.org/2000/svg"
   xmlns:rdf="http://www.w3.org/1999/02/22-rdf-syntax-ns#"
   xmlns:cc="http://creativecommons.org/ns#"
   xmlns:dc="http://purl.org/dc/elements/1.1/">
  <metadata
     id="metadata1">
    <rdf:RDF>
      <cc:Work
         rdf:about="">
        <dc:format>image/svg+xml</dc:format>
        <dc:type
           rdf:resource="http://purl.org/dc/dcmitype/StillImage" />
        <dc:title />
      </cc:Work>
    </rdf:RDF>
  </metadata>
  <defs
     id="defs2">
    <linearGradient
       id="linearGradient10">
      <stop
         style="stop-color:#00abff;stop-opacity:0;"
         offset="0"
         id="stop11" />
      <stop
         style="stop-color:#00abff;stop-opacity:1;"
         offset="1"
         id="stop10" />
    </linearGradient>
    <linearGradient
       xlink:href="#linearGradient10"
       id="linearGradient11"
       x1="8.4665003"
       y1="16.963676"
       x2="8.4665003"
       y2="5.7363605"
       gradientUnits="userSpaceOnUse" />
    <filter
       style="color-interpolation-filters:sRGB"
       id="filter11"
       x="-0.026999545"
       y="-0.027000453"
       width="1.0539991"
       height="1.0540009">
      <feGaussianBlur
         stdDeviation="0.17229133"
         id="feGaussianBlur11" />
    </filter>
  </defs>
  <g
     id="g7"
     transform="translate(-0.38385248,-0.52234147)">
    <path
       id="path79"
       style="display:inline;opacity:0.6;fill:#00abff;fill-opacity:1;filter:url(#filter11)"
       d="M 8.4468633,0.93584177 A 7.6574278,7.6574278 0 0 0 0.79735165,8.5931048 7.6574278,7.6574278 0 0 0 8.4551314,16.250368 7.6574278,7.6574278 0 0 0 16.112394,8.5931048 7.6574278,7.6574278 0 0 0 8.4551314,0.93584177 a 7.6574278,7.6574278 0 0 0 -0.00827,0 z m 0.00827,0.85057733 A 6.8066027,6.8066027 0 0 1 15.261817,8.5931048 6.8066027,6.8066027 0 0 1 8.4551314,15.39979 6.8066027,6.8066027 0 0 1 1.6484457,8.5931048 6.8066027,6.8066027 0 0 1 8.4551314,1.7864191 Z m 0,4.2539202 c -1.4293865,0 -2.5522487,1.1233792 -2.5522487,2.5527655 0,1.4293872 1.1228622,2.5522492 2.5522487,2.5522492 1.4293863,0 2.5527657,-1.122862 2.5527657,-2.5522492 0,-1.4293863 -1.1233794,-2.5527655 -2.5527657,-2.5527655 z m 0.00517,0.8562616 A 1.7033522,1.7033522 0 0 1 10.158357,8.594655 1.7033522,1.7033522 0 0 1 8.4603033,10.293226 c -0.9342059,0 -1.7135568,-0.7635057 -1.7135568,-1.698571 0,-0.9342064 0.7793254,-1.6980541 1.7135568,-1.6980541 z m 0.8361082,5.0094151 c -0.018739,-1.65e-4 -0.037074,0.001 -0.054259,0.0062 -0.018931,0.0058 -0.030338,0.02289 -0.041857,0.03721 -0.014494,0.01853 -0.031023,0.03596 -0.046508,0.05374 -0.072134,0.08241 -0.144386,0.164591 -0.21652,0.247009 -0.070236,0.08061 -0.1416342,0.160122 -0.2098022,0.242358 -0.031528,0.03831 -0.061011,0.07811 -0.091982,0.116786 -0.027595,0.0345 -0.05662,0.06706 -0.082681,0.102317 -0.012842,0.0176 -0.025458,0.03609 -0.035656,0.05529 -0.00411,0.008 -0.00802,0.01627 -0.010852,0.0248 -0.00449,0 -0.00986,-0.0064 -0.010335,-0.0124 -0.00359,-0.04684 -0.015481,-0.09104 -0.029455,-0.136423 -0.030587,-0.0993 -0.06127,-0.198583 -0.09715,-0.296617 -0.035115,-0.09567 -0.073791,-0.190371 -0.1043843,-0.287315 -0.012464,-0.0394 -0.023122,-0.08006 -0.040307,-0.11782 -0.00524,-0.012 -0.00974,-0.03015 -0.024804,-0.03152 -0.012653,-0.0011 -0.025259,5.17e-4 -0.037723,5.17e-4 H 6.1240534 l -5.167e-4,5.16e-4 c -0.020196,0.07897 -0.040207,0.157708 -0.06046,0.236674 -0.00491,0.01873 -0.014469,0.04103 -0.014469,0.06046 0,0.0073 0.019838,0.0036 0.027388,0.0036 h 0.155543 c 0.1123574,0 0.2240589,3.1e-4 0.336407,0 0.098185,-1.8e-4 0.1972596,-0.0025 0.2950666,0.0078 0.1616268,0.01671 0.3594688,0.08434 0.3792975,0.264061 0.01794,0.161562 -0.097359,0.308243 -0.2382236,0.383948 -0.03776,0.02035 -0.077732,0.0346 -0.1188535,0.04806 -0.050407,0.01646 -0.1021402,0.03111 -0.1550262,0.03927 -0.1051771,0.01697 -0.2131835,0.01137 -0.3198709,0.01137 0.052876,-0.214595 0.1055876,-0.429816 0.1586436,-0.644392 H 6.0289707 c -0.010032,0 -0.00746,0.0044 -0.00982,0.01292 -0.00581,0.02307 -0.011383,0.04603 -0.017053,0.06925 -0.052872,0.210595 -0.1051071,0.421222 -0.1576101,0.63199 -0.012463,0.05101 -0.023749,0.102815 -0.037723,0.153476 -0.00642,0.02359 -0.018086,0.04959 -0.018086,0.0739 h 0.4175373 c 0.1104502,0 0.2207799,3.12e-4 0.3312395,5.17e-4 0.1032788,5.48e-4 0.2056508,-0.0048 0.3079854,-0.02067 0.1890375,-0.02903 0.3742812,-0.08698 0.5394914,-0.181381 0.1567169,-0.08968 0.3160925,-0.21667 0.3885991,-0.381881 0.039185,-0.08894 0.048523,-0.186324 0.039273,-0.281631 -0.00359,-0.03867 -0.00981,-0.07609 -0.021704,-0.11317 -0.00925,-0.02759 -0.01757,-0.05329 -0.01757,-0.08216 0.025305,0 0.03375,0.04878 0.03979,0.06511 0.011519,0.03068 0.022914,0.06129 0.034623,0.09198 0.023218,0.06318 0.047379,0.126291 0.070795,0.189649 0.075528,0.205523 0.1508148,0.411494 0.2263383,0.617004 0.03682,0.09949 0.071583,0.200621 0.1116189,0.299201 0.00963,0.02362 0.019321,0.04714 0.026871,0.07131 0.00377,0.01126 0.00647,0.0221 0.0093,0.03359 0.0017,0.0081 0.00227,0.0062 0.00982,0.0062 0,-9.82e-4 3.043e-4,-0.0013 5.168e-4,-0.0015 0.00383,-0.0098 0.013543,-0.01854 0.020153,-0.02636 0.068534,-0.08012 0.1433623,-0.155566 0.2154865,-0.232539 0.1193447,-0.127429 0.2362958,-0.256636 0.3544933,-0.384982 0.1499138,-0.162674 0.299419,-0.325881 0.4500929,-0.487816 0.037953,-0.04049 0.075395,-0.0808 0.1131692,-0.121437 0.01963,-0.02126 0.038753,-0.04231 0.058393,-0.06356 0.014324,-0.01541 0.03014,-0.04182 0.053226,-0.04547 0.026996,-0.0046 0.057882,-0.0014 0.085265,-0.0016 h 0.080614 c 0.056082,-7.8e-5 0.1120521,-3.06e-4 0.1679451,-5.16e-4 0.1927717,-9.13e-4 0.3948927,-0.01968 0.5823817,0.03152 0.07514,0.02033 0.151211,0.0529 0.200501,0.113169 0.04018,0.04865 0.05769,0.11054 0.05529,0.172079 -0.006,0.145421 -0.108373,0.266026 -0.23564,0.335373 -0.04173,0.02267 -0.08588,0.04097 -0.131772,0.05529 -0.04966,0.01596 -0.10411,0.03014 -0.15606,0.03721 -0.101957,0.01382 -0.204891,0.01033 -0.3079849,0.01033 0.02378,-0.110572 0.051917,-0.220038 0.079063,-0.329689 0.013219,-0.05427 0.026004,-0.109037 0.03979,-0.162777 0.01279,-0.05046 0.02867,-0.100188 0.03566,-0.151926 H 9.7180786 c -0.040224,0 -0.080133,-2.3e-4 -0.1204038,-0.0015 -0.016963,0 -0.03421,2.3e-4 -0.051159,0.0015 -0.00774,7.3e-4 -0.020318,0.0015 -0.025838,0.0078 -0.010954,0.01233 -0.01487,0.03456 -0.01912,0.04961 -0.00793,0.02868 -0.015094,0.05691 -0.021704,0.08578 -0.014164,0.06045 -0.028161,0.120776 -0.042891,0.180864 -0.026249,0.105651 -0.052487,0.21111 -0.078547,0.31677 -0.012841,0.05211 -0.025587,0.104465 -0.03824,0.156577 -0.01185,0.04755 -0.029339,0.09533 -0.033589,0.144174 h 0.5028018 c 0.2146824,0 0.4310374,0.0077 0.6423254,-0.03617 0.100078,-0.0207 0.198263,-0.05059 0.292483,-0.0894 0.09555,-0.03977 0.181905,-0.09102 0.268195,-0.146758 0.138588,-0.08987 0.255765,-0.2249 0.303335,-0.380848 0.02364,-0.07715 0.02794,-0.159463 0.0057,-0.237707 -0.0236,-0.08369 -0.07655,-0.15747 -0.140557,-0.217554 -0.136307,-0.127269 -0.324715,-0.192543 -0.509003,-0.223237 -0.05003,-0.0085 -0.100272,-0.01444 -0.150892,-0.01809 -0.05495,-0.0041 -0.109904,-0.0024 -0.164844,-0.0026 -0.111598,-1.82e-4 -0.223075,-5.16e-4 -0.334857,-5.16e-4 H 9.6658864 c -0.1046148,0 -0.2097747,0.0024 -0.3141865,-0.0016 -0.017563,-8.45e-4 -0.036554,-0.0024 -0.055293,-0.0026 z m -0.7456763,1.705288 a 2.841158,0.44890587 0 0 0 -2.8411143,0.448543 2.841158,0.44890587 0 0 0 2.8411143,0.449059 2.841158,0.44890587 0 0 0 2.8411138,-0.449059 2.841158,0.44890587 0 0 0 -2.8411138,-0.448543 z m 0,0.339508 a 0.69126346,0.10922204 0 0 1 0.6914171,0.109035 0.69126346,0.10922204 0 0 1 -0.6914171,0.109552 0.69126346,0.10922204 0 0 1 -0.691417,-0.109552 0.69126346,0.10922204 0 0 1 0.691417,-0.109035 z" />
    <path
       id="path10"
       style="fill:url(#linearGradient11);fill-opacity:1"
       d="M 8.4468633,0.93584177 A 7.6574278,7.6574278 0 0 0 0.79735165,8.5931048 7.6574278,7.6574278 0 0 0 8.4551314,16.250368 7.6574278,7.6574278 0 0 0 16.112394,8.5931048 7.6574278,7.6574278 0 0 0 8.4551314,0.93584177 a 7.6574278,7.6574278 0 0 0 -0.00827,0 z m 0.00827,0.85057733 A 6.8066027,6.8066027 0 0 1 15.261817,8.5931048 6.8066027,6.8066027 0 0 1 8.4551314,15.39979 6.8066027,6.8066027 0 0 1 1.6484457,8.5931048 6.8066027,6.8066027 0 0 1 8.4551314,1.7864191 Z m 0,4.2539202 c -1.4293865,0 -2.5522487,1.1233792 -2.5522487,2.5527655 0,1.4293872 1.1228622,2.5522492 2.5522487,2.5522492 1.4293863,0 2.5527657,-1.122862 2.5527657,-2.5522492 0,-1.4293863 -1.1233794,-2.5527655 -2.5527657,-2.5527655 z m 0.00517,0.8562616 A 1.7033522,1.7033522 0 0 1 10.158357,8.594655 1.7033522,1.7033522 0 0 1 8.4603033,10.293226 c -0.9342059,0 -1.7135568,-0.7635057 -1.7135568,-1.698571 0,-0.9342064 0.7793254,-1.6980541 1.7135568,-1.6980541 z m 0.8361082,5.0094151 c -0.018739,-1.65e-4 -0.037074,0.001 -0.054259,0.0062 -0.018931,0.0058 -0.030338,0.02289 -0.041857,0.03721 -0.014494,0.01853 -0.031023,0.03596 -0.046508,0.05374 -0.072134,0.08241 -0.144386,0.164591 -0.21652,0.247009 -0.070236,0.08061 -0.1416342,0.160122 -0.2098022,0.242358 -0.031528,0.03831 -0.061011,0.07811 -0.091982,0.116786 -0.027595,0.0345 -0.05662,0.06706 -0.082681,0.102317 -0.012842,0.0176 -0.025458,0.03609 -0.035656,0.05529 -0.00411,0.008 -0.00802,0.01627 -0.010852,0.0248 -0.00449,0 -0.00986,-0.0064 -0.010335,-0.0124 -0.00359,-0.04684 -0.015481,-0.09104 -0.029455,-0.136423 -0.030587,-0.0993 -0.06127,-0.198583 -0.09715,-0.296617 -0.035115,-0.09567 -0.073791,-0.190371 -0.1043843,-0.287315 -0.012464,-0.0394 -0.023122,-0.08006 -0.040307,-0.11782 -0.00524,-0.012 -0.00974,-0.03015 -0.024804,-0.03152 -0.012653,-0.0011 -0.025259,5.17e-4 -0.037723,5.17e-4 H 6.1240534 l -5.167e-4,5.16e-4 c -0.020196,0.07897 -0.040207,0.157708 -0.06046,0.236674 -0.00491,0.01873 -0.014469,0.04103 -0.014469,0.06046 0,0.0073 0.019838,0.0036 0.027388,0.0036 h 0.155543 c 0.1123574,0 0.2240589,3.1e-4 0.336407,0 0.098185,-1.8e-4 0.1972596,-0.0025 0.2950666,0.0078 0.1616268,0.01671 0.3594688,0.08434 0.3792975,0.264061 0.01794,0.161562 -0.097359,0.308243 -0.2382236,0.383948 -0.03776,0.02035 -0.077732,0.0346 -0.1188535,0.04806 -0.050407,0.01646 -0.1021402,0.03111 -0.1550262,0.03927 -0.1051771,0.01697 -0.2131835,0.01137 -0.3198709,0.01137 0.052876,-0.214595 0.1055876,-0.429816 0.1586436,-0.644392 H 6.0289707 c -0.010032,0 -0.00746,0.0044 -0.00982,0.01292 -0.00581,0.02307 -0.011383,0.04603 -0.017053,0.06925 -0.052872,0.210595 -0.1051071,0.421222 -0.1576101,0.63199 -0.012463,0.05101 -0.023749,0.102815 -0.037723,0.153476 -0.00642,0.02359 -0.018086,0.04959 -0.018086,0.0739 h 0.4175373 c 0.1104502,0 0.2207799,3.12e-4 0.3312395,5.17e-4 0.1032788,5.48e-4 0.2056508,-0.0048 0.3079854,-0.02067 0.1890375,-0.02903 0.3742812,-0.08698 0.5394914,-0.181381 0.1567169,-0.08968 0.3160925,-0.21667 0.3885991,-0.381881 0.039185,-0.08894 0.048523,-0.186324 0.039273,-0.281631 -0.00359,-0.03867 -0.00981,-0.07609 -0.021704,-0.11317 -0.00925,-0.02759 -0.01757,-0.05329 -0.01757,-0.08216 0.025305,0 0.03375,0.04878 0.03979,0.06511 0.011519,0.03068 0.022914,0.06129 0.034623,0.09198 0.023218,0.06318 0.047379,0.126291 0.070795,0.189649 0.075528,0.205523 0.1508148,0.411494 0.2263383,0.617004 0.03682,0.09949 0.071583,0.200621 0.1116189,0.299201 0.00963,0.02362 0.019321,0.04714 0.026871,0.07131 0.00377,0.01126 0.00647,0.0221 0.0093,0.03359 0.0017,0.0081 0.00227,0.0062 0.00982,0.0062 0,-9.82e-4 3.043e-4,-0.0013 5.168e-4,-0.0015 0.00383,-0.0098 0.013543,-0.01854 0.020153,-0.02636 0.068534,-0.08012 0.1433623,-0.155566 0.2154865,-0.232539 0.1193447,-0.127429 0.2362958,-0.256636 0.3544933,-0.384982 0.1499138,-0.162674 0.299419,-0.325881 0.4500929,-0.487816 0.037953,-0.04049 0.075395,-0.0808 0.1131692,-0.121437 0.01963,-0.02126 0.038753,-0.04231 0.058393,-0.06356 0.014324,-0.01541 0.03014,-0.04182 0.053226,-0.04547 0.026996,-0.0046 0.057882,-0.0014 0.085265,-0.0016 h 0.080614 c 0.056082,-7.8e-5 0.1120521,-3.06e-4 0.1679451,-5.16e-4 0.1927717,-9.13e-4 0.3948927,-0.01968 0.5823817,0.03152 0.07514,0.02033 0.151211,0.0529 0.200501,0.113169 0.04018,0.04865 0.05769,0.11054 0.05529,0.172079 -0.006,0.145421 -0.108373,0.266026 -0.23564,0.335373 -0.04173,0.02267 -0.08588,0.04097 -0.131772,0.05529 -0.04966,0.01596 -0.10411,0.03014 -0.15606,0.03721 -0.101957,0.01382 -0.204891,0.01033 -0.3079849,0.01033 0.02378,-0.110572 0.051917,-0.220038 0.079063,-0.329689 0.013219,-0.05427 0.026004,-0.109037 0.03979,-0.162777 0.01279,-0.05046 0.02867,-0.100188 0.03566,-0.151926 H 9.7180786 c -0.040224,0 -0.080133,-2.3e-4 -0.1204038,-0.0015 -0.016963,0 -0.03421,2.3e-4 -0.051159,0.0015 -0.00774,7.3e-4 -0.020318,0.0015 -0.025838,0.0078 -0.010954,0.01233 -0.01487,0.03456 -0.01912,0.04961 -0.00793,0.02868 -0.015094,0.05691 -0.021704,0.08578 -0.014164,0.06045 -0.028161,0.120776 -0.042891,0.180864 -0.026249,0.105651 -0.052487,0.21111 -0.078547,0.31677 -0.012841,0.05211 -0.025587,0.104465 -0.03824,0.156577 -0.01185,0.04755 -0.029339,0.09533 -0.033589,0.144174 h 0.5028018 c 0.2146824,0 0.4310374,0.0077 0.6423254,-0.03617 0.100078,-0.0207 0.198263,-0.05059 0.292483,-0.0894 0.09555,-0.03977 0.181905,-0.09102 0.268195,-0.146758 0.138588,-0.08987 0.255765,-0.2249 0.303335,-0.380848 0.02364,-0.07715 0.02794,-0.159463 0.0057,-0.237707 -0.0236,-0.08369 -0.07655,-0.15747 -0.140557,-0.217554 -0.136307,-0.127269 -0.324715,-0.192543 -0.509003,-0.223237 -0.05003,-0.0085 -0.100272,-0.01444 -0.150892,-0.01809 -0.05495,-0.0041 -0.109904,-0.0024 -0.164844,-0.0026 -0.111598,-1.82e-4 -0.223075,-5.16e-4 -0.334857,-5.16e-4 H 9.6658864 c -0.1046148,0 -0.2097747,0.0024 -0.3141865,-0.0016 -0.017563,-8.45e-4 -0.036554,-0.0024 -0.055293,-0.0026 z m -0.7456763,1.705288 a 2.841158,0.44890587 0 0 0 -2.8411143,0.448543 2.841158,0.44890587 0 0 0 2.8411143,0.449059 2.841158,0.44890587 0 0 0 2.8411138,-0.449059 2.841158,0.44890587 0 0 0 -2.8411138,-0.448543 z m 0,0.339508 a 0.69126346,0.10922204 0 0 1 0.6914171,0.109035 0.69126346,0.10922204 0 0 1 -0.6914171,0.109552 0.69126346,0.10922204 0 0 1 -0.691417,-0.109552 0.69126346,0.10922204 0 0 1 0.691417,-0.109035 z" />
  </g>
</svg>
