<?xml version="1.0" encoding="UTF-8" standalone="no"?>
<svg
   width="57.93029"
   height="50.351967"
   version="1.1"
   viewBox="0 0 15.327088 13.322029"
   id="svg30"
   xmlns:xlink="http://www.w3.org/1999/xlink"
   xmlns="http://www.w3.org/2000/svg"
   xmlns:svg="http://www.w3.org/2000/svg">
  <defs
     id="defs10">
    <linearGradient
       id="linearGradient41">
      <stop
         style="stop-color:#00abff;stop-opacity:0;"
         offset="0"
         id="stop42" />
      <stop
         style="stop-color:#00abff;stop-opacity:1;"
         offset="1"
         id="stop41" />
    </linearGradient>
    <linearGradient
       xlink:href="#linearGradient41"
       id="linearGradient42"
       x1="1081.2396"
       y1="38.301743"
       x2="1081.2396"
       y2="27.855322"
       gradientUnits="userSpaceOnUse" />
    <filter
       style="color-interpolation-filters:sRGB"
       id="filter42"
       x="-0.025145143"
       y="-0.029150302"
       width="1.0502903"
       height="1.0583006">
      <feGaussianBlur
         stdDeviation="0.1466821"
         id="feGaussianBlur42" />
    </filter>
  </defs>
  <g
     transform="matrix(1.0423559,0,0,1.0423559,-1119.1233,-24.569522)"
     id="g2">
    <path
       id="path1"
       d="m 1083.8209,23.923183 c -0.517,0.029 -0.894,0.458981 -1.217,0.819981 -0.313,0.403 -0.6319,0.843875 -0.7199,1.357875 -10e-4,0.153 0.1902,0.22803 0.2732,0.34703 0.316,0.284 0.6407,0.716086 0.4397,1.158086 -0.282,0.561 -0.816,0.934065 -1.228,1.394065 -0.334,0.335 -0.761,0.78989 -1.282,0.59689 -0.387,-0.146 -0.6141,-0.503112 -0.9161,-0.746112 -0.417,0.032 -0.7838,0.291175 -1.1328,0.505175 -0.447,0.324 -0.9099,0.721631 -1.0719,1.269631 -0.095,0.435 0.362,0.66931 0.645,0.89831 0.707,0.512 1.6569,0.580043 2.4649,0.287043 1.301,-0.462 2.35,-1.424281 3.273,-2.420281 0.79,-0.898 1.5429,-1.949787 1.6439,-3.178787 0.07,-0.864 -0.3701,-1.720237 -1.0361,-2.250237 l -0.067,-0.02677 -0.068,-0.0119 z m 0.086,7.076917 c -0.782,0.648 -1.7031,1.250825 -2.8441,1.655825 -1.614,0.586 -3.5821,0.507115 -5.1881,-0.655885 a 3.447,3.447 0 0 1 -0.125,-0.09419 c 0.058,0.048 -0.1298,-0.06661 -0.3748,-0.279606 L 1074,32.999979 v 2.99982 h 14.0002 v -2.99982 l -2.0004,-1.999879 z m -0.407,1.797115 c 0.39,0 0.703,0.312982 0.703,0.702982 0,0.39 -0.313,0.702982 -0.703,0.702982 a 0.702,0.702 0 0 1 -0.703,-0.702982 c 0,-0.39 0.314,-0.702982 0.703,-0.702982 z m 1.9999,0.0228 c 0.377,0 0.6801,0.303177 0.6801,0.680177 0,0.377 -0.3031,0.679682 -0.6801,0.679682 a 0.678,0.678 0 0 1 -0.6802,-0.679682 c 0,-0.377 0.3042,-0.680177 0.6802,-0.680177 z"
       style="display:inline;opacity:0.6;fill:#00abff;fill-opacity:1;filter:url(#filter42)" />
    <path
       id="path41"
       d="m 1083.8209,23.923183 c -0.517,0.029 -0.894,0.458981 -1.217,0.819981 -0.313,0.403 -0.6319,0.843875 -0.7199,1.357875 -10e-4,0.153 0.1902,0.22803 0.2732,0.34703 0.316,0.284 0.6407,0.716086 0.4397,1.158086 -0.282,0.561 -0.816,0.934065 -1.228,1.394065 -0.334,0.335 -0.761,0.78989 -1.282,0.59689 -0.387,-0.146 -0.6141,-0.503112 -0.9161,-0.746112 -0.417,0.032 -0.7838,0.291175 -1.1328,0.505175 -0.447,0.324 -0.9099,0.721631 -1.0719,1.269631 -0.095,0.435 0.362,0.66931 0.645,0.89831 0.707,0.512 1.6569,0.580043 2.4649,0.287043 1.301,-0.462 2.35,-1.424281 3.273,-2.420281 0.79,-0.898 1.5429,-1.949787 1.6439,-3.178787 0.07,-0.864 -0.3701,-1.720237 -1.0361,-2.250237 l -0.067,-0.02677 -0.068,-0.0119 z m 0.086,7.076917 c -0.782,0.648 -1.7031,1.250825 -2.8441,1.655825 -1.614,0.586 -3.5821,0.507115 -5.1881,-0.655885 a 3.447,3.447 0 0 1 -0.125,-0.09419 c 0.058,0.048 -0.1298,-0.06661 -0.3748,-0.279606 L 1074,32.999979 v 2.99982 h 14.0002 v -2.99982 l -2.0004,-1.999879 z m -0.407,1.797115 c 0.39,0 0.703,0.312982 0.703,0.702982 0,0.39 -0.313,0.702982 -0.703,0.702982 a 0.702,0.702 0 0 1 -0.703,-0.702982 c 0,-0.39 0.314,-0.702982 0.703,-0.702982 z m 1.9999,0.0228 c 0.377,0 0.6801,0.303177 0.6801,0.680177 0,0.377 -0.3031,0.679682 -0.6801,0.679682 a 0.678,0.678 0 0 1 -0.6802,-0.679682 c 0,-0.377 0.3042,-0.680177 0.6802,-0.680177 z"
       style="fill:url(#linearGradient42);fill-opacity:1" />
  </g>
</svg>
