<?xml version="1.0" encoding="UTF-8" standalone="no"?>
<svg
   width="60.543972"
   height="60.544197"
   version="1.1"
   viewBox="0 0 16.018611 16.01867"
   id="svg30"
   xmlns:xlink="http://www.w3.org/1999/xlink"
   xmlns="http://www.w3.org/2000/svg"
   xmlns:svg="http://www.w3.org/2000/svg">
  <defs
     id="defs10">
    <filter
       style="color-interpolation-filters:sRGB"
       id="filter3"
       x="-0.027000052"
       y="-0.026999945"
       width="1.0540001"
       height="1.0539999">
      <feGaussianBlur
         stdDeviation="0.15740282"
         id="feGaussianBlur3" />
    </filter>
    <linearGradient
       xlink:href="#linearGradient2"
       id="linearGradient3"
       x1="7.7884226"
       y1="16.396679"
       x2="7.7884226"
       y2="6.558672"
       gradientUnits="userSpaceOnUse" />
    <linearGradient
       id="linearGradient2">
      <stop
         style="stop-color:#00abff;stop-opacity:0;"
         offset="0"
         id="stop3-7" />
      <stop
         style="stop-color:#00abff;stop-opacity:1;"
         offset="1"
         id="stop2-5" />
    </linearGradient>
  </defs>
  <g
     id="g3"
     transform="matrix(1.0862381,0,0,1.0862381,-0.53298003,-0.70749343)">
    <path
       class="ColorScheme-Text"
       d="m 7.8641724,1.0290912 a 6.9957021,6.9957021 0 0 0 -0.1332157,0.00512 l -0.00175,0.00171 a 6.9957021,6.9957021 0 0 0 -0.030746,0.00171 7.1439236,7.1439236 0 0 0 -0.025622,-0.00171 6.9957021,6.9957021 0 0 0 -0.0854,0.00683 6.9957021,6.9957021 0 0 0 -0.5892392,0.046114 6.9957021,6.9957021 0 0 0 -0.088811,0.013664 6.9957021,6.9957021 0 0 0 -0.5806957,0.1041835 6.9957021,6.9957021 0 0 0 -0.13834,0.034158 6.9957021,6.9957021 0 0 0 -0.5550828,0.1605426 6.9957021,6.9957021 0 0 0 -0.06661,0.023911 6.9957021,6.9957021 0 0 0 -0.599488,0.2373992 6.9957021,6.9957021 0 0 0 -0.013663,0.00683 6.9957021,6.9957021 0 0 0 -0.6028983,0.3108453 6.9957021,6.9957021 0 0 0 -0.029035,0.018787 6.9957021,6.9957021 0 0 0 -0.5619123,0.3672044 6.9957021,6.9957021 0 0 0 -0.011956,0.00854 6.9957021,6.9957021 0 0 0 -0.5175071,0.4167339 6.9957021,6.9957021 0 0 0 -0.063194,0.05807 6.9957021,6.9957021 0 0 0 -0.4372314,0.4304018 6.9957021,6.9957021 0 0 0 -0.054654,0.061485 6.9957021,6.9957021 0 0 0 -0.401361,0.4850557 6.9957021,6.9957021 0 0 0 -0.022203,0.03245 6.9957021,6.9957021 0 0 0 -0.3603728,0.5328826 6.9957021,6.9957021 0 0 0 -0.052946,0.090524 6.9957021,6.9957021 0 0 0 -0.2749748,0.5123827 6.9957021,6.9957021 0 0 0 -0.054654,0.1212617 6.9957021,6.9957021 0 0 0 -0.22374,0.5448341 6.9957021,6.9957021 0 0 0 -0.020496,0.059777 6.9957021,6.9957021 0 0 0 -0.1776209,0.58582 6.9957021,6.9957021 0 0 0 -0.056362,0.2339888 c 0.00116,4.914e-4 0.00226,0.00122 0.00342,0.00166 a 6.9957021,6.9957021 0 0 0 -0.015371,0.073437 6.9957021,6.9957021 0 0 0 -0.0819809,0.4833418 6.9957021,6.9957021 0 0 0 -0.0290348,0.2373991 6.9957021,6.9957021 0 0 0 -0.035867,0.5397097 6.9957021,6.9957021 0 0 0 -0.005124,0.1485887 6.9957021,6.9957021 0 0 0 4.0101988,6.3176432 6.9957021,6.9957021 0 0 0 0.010248,0.0052 6.9957021,6.9957021 0 0 0 0.3398775,0.152008 v 0.0017 a 6.9957021,6.9957021 0 0 0 0.00854,0.0034 6.9957021,6.9957021 0 0 0 0.5397096,0.189584 6.9957021,6.9957021 0 0 0 0.1349296,0.0444 6.9957021,6.9957021 0 0 0 0.4713879,0.114432 6.9957021,6.9957021 0 0 0 0.2254453,0.04953 6.9957021,6.9957021 0 0 0 0.4491853,0.0632 6.9957021,6.9957021 0 0 0 0.2425235,0.02903 6.9957021,6.9957021 0 0 0 0.5636175,0.02562 6.9957021,6.9957021 0 0 0 0.5789905,-0.02733 v -0.0017 a 6.9957021,6.9957021 0 0 0 0.011954,0 6.9957021,6.9957021 0 0 0 0.6438932,-0.08711 6.9957021,6.9957021 0 0 0 0.04953,-0.0068 6.9957021,6.9957021 0 0 0 0.010249,-0.0017 6.9957021,6.9957021 0 0 0 0.6695152,-0.162256 6.9957021,6.9957021 0 0 0 3.1955494,-1.996574 6.9957021,6.9957021 0 0 0 0.01708,-0.01878 6.9957021,6.9957021 0 0 0 0.17421,-0.186164 6.9957021,6.9957021 0 0 0 0.0017,-0.0034 c -0.0045,0.0017 -0.0091,0.0034 -0.01367,0.0052 a 6.9957021,6.9957021 0 0 0 1.65667,-4.5089038 6.9957021,6.9957021 0 0 0 -0.228865,-1.7403558 c 0.0011,-3.49e-5 0.0023,3.59e-5 0.0034,0 a 6.9957021,6.9957021 0 0 0 -0.01879,-0.056362 6.9957021,6.9957021 0 0 0 -0.0034,-0.011956 6.9957021,6.9957021 0 0 0 -0.169086,-0.54312 6.9957021,6.9957021 0 0 0 -0.03758,-0.1041835 6.9957021,6.9957021 0 0 0 -0.963308,-1.7540849 6.9957021,6.9957021 0 0 0 -0.02562,-0.03245 6.9957021,6.9957021 0 0 0 -0.0205,-0.025619 6.9957021,6.9957021 0 0 0 -0.905244,-0.96838 6.9957021,6.9957021 0 0 0 -0.04099,-0.034159 6.9957021,6.9957021 0 0 0 -0.0086,-0.00854 6.9957021,6.9957021 0 0 0 -0.49359,-0.3911209 6.9957021,6.9957021 0 0 0 -0.06148,-0.044406 6.9957021,6.9957021 0 0 0 -0.503839,-0.321094 6.9957021,6.9957021 0 0 0 -0.07856,-0.046114 A 6.9957021,6.9957021 0 0 0 7.8639271,1.029292 Z m 0,0.8744628 a 6.1212394,6.1212394 0 0 1 0.020497,0.00171 c -0.00428,0.1071479 -0.020497,0.2111128 -0.020497,0.31938 0,0.8616956 0.1100424,1.696895 0.2971774,2.5021003 -0.9698666,0.8197652 -2.1803854,1.3632 -3.5132416,1.5080985 0.3754943,-1.5928339 1.1284942,-3.034036 2.1537144,-4.2373842 a 6.1212394,6.1212394 0 0 1 0.432107,-0.054654 6.1212394,6.1212394 0 0 1 0.1861644,-0.022204 6.1212394,6.1212394 0 0 1 0.4440609,-0.017079 z m 0.8898533,0.071733 a 6.1212394,6.1212394 0 0 1 0.013668,0.00342 6.1212394,6.1212394 0 0 1 0.5841152,0.1161374 6.1212394,6.1212394 0 0 1 0.00175,0 6.1212394,6.1212394 0 0 1 0.00175,0 6.1212394,6.1212394 0 0 1 0.5841148,0.1793348 6.1212394,6.1212394 0 0 1 0.020497,0.00683 C 9.6934963,2.9056367 9.3388317,3.4833068 8.9026931,3.9906701 8.8020949,3.4159732 8.7387313,2.8284217 8.7387313,2.2246926 c 0,-0.084421 0.013012,-0.1655183 0.015373,-0.2493618 z M 5.3774626,2.4398454 C 4.6051109,3.5818938 4.037261,4.8715514 3.7395939,6.26562 3.1683948,6.24932 2.6194945,6.1538549 2.0948169,6.0008939 A 6.1212394,6.1212394 0 0 1 2.3202621,5.4475251 6.1212394,6.1212394 0 0 1 2.3373411,5.4116581 6.1212394,6.1212394 0 0 1 2.6089055,4.8992754 6.1212394,6.1212394 0 0 1 2.6174455,4.8856124 6.1212394,6.1212394 0 0 1 2.9521986,4.3851836 6.1212394,6.1212394 0 0 1 3.3381952,3.9155009 6.1212394,6.1212394 0 0 1 3.3450252,3.9069609 6.1212394,6.1212394 0 0 1 3.7668835,3.4868078 6.1212394,6.1212394 0 0 1 3.7873795,3.4697288 6.1212394,6.1212394 0 0 1 4.23827,3.1025244 6.1212394,6.1212394 0 0 1 4.265597,3.0837374 6.1212394,6.1212394 0 0 1 4.7540632,2.7609382 6.1212394,6.1212394 0 0 1 4.7677262,2.7541082 6.1212394,6.1212394 0 0 1 5.3023115,2.474009 6.1212394,6.1212394 0 0 1 5.3774615,2.43985 Z M 10.75401,2.6311341 a 6.1212394,6.1212394 0 0 1 0.0052,0.00342 6.1212394,6.1212394 0 0 1 0.519212,0.3125504 6.1212394,6.1212394 0 0 1 0.437232,0.3262184 6.1212394,6.1212394 0 0 1 0.05295,0.039283 6.1212394,6.1212394 0 0 1 0.0052,0.00512 6.1212394,6.1212394 0 0 1 0.394531,0.3603749 6.1212394,6.1212394 0 0 1 0.05124,0.047823 6.1212394,6.1212394 0 0 1 0.0034,0.00512 6.1212394,6.1212394 0 0 1 0.293767,0.3262183 6.1212394,6.1212394 0 0 1 0.121262,0.140054 6.1212394,6.1212394 0 0 1 0.227159,0.30914 6.1212394,6.1212394 0 0 1 0.131511,0.1861644 6.1212394,6.1212394 0 0 1 0.256191,0.4389366 6.1212394,6.1212394 0 0 1 0.0427,0.073441 6.1212394,6.1212394 0 0 1 0.0017,0.00512 6.1212394,6.1212394 0 0 1 0.208367,0.4526045 6.1212394,6.1212394 0 0 1 0.0444,0.099059 6.1212394,6.1212394 0 0 1 0.0034,0.010248 6.1212394,6.1212394 0 0 1 0.136634,0.3996558 6.1212394,6.1212394 0 0 1 0.06661,0.1981182 C 12.508103,6.5577369 11.359322,7.0513974 10.39374,7.7805856 9.8425397,6.9368165 9.4173147,6.0066505 9.1349504,5.013698 9.8214914,4.3388751 10.370304,3.5285979 10.754106,2.6311367 Z M 8.4090501,5.6353509 C 8.7244689,6.6051301 9.1665885,7.517632 9.7224935,8.3492461 8.6476036,9.3799754 7.8784261,10.72621 7.5739382,12.241654 6.5749519,12.071694 5.6274715,11.757552 4.7507352,11.319359 4.5070399,10.44612 4.3664525,9.5296834 4.3664525,8.578093 c 0,-0.4962576 0.047655,-0.9796606 0.1161374,-1.4568549 1.46901,-0.1090455 2.8177814,-0.6447064 3.9265127,-1.4858872 z M 1.8608106,6.8309164 C 2.4163568,6.9961024 2.9948139,7.1064422 3.597756,7.1332182 3.53555,7.607177 3.4918673,8.0873445 3.4918673,8.578093 c 0,0.7341115 0.076534,1.450908 0.2134913,2.145144 C 3.0183807,10.270965 2.400223,9.7278366 1.8453763,9.1262937 a 6.1212394,6.1212394 0 0 1 0,-0.00175 A 6.1212394,6.1212394 0 0 1 1.7855989,8.6856082 6.1212394,6.1212394 0 0 1 1.7616876,8.4909004 6.1212394,6.1212394 0 0 1 1.7429007,8.0246368 6.1212394,6.1212394 0 0 1 1.7736433,7.413195 6.1212394,6.1212394 0 0 1 1.8607477,6.8307853 Z M 13.925774,7.2254478 a 6.1212394,6.1212394 0 0 1 0.05123,0.5806957 6.1212394,6.1212394 0 0 1 0.0086,0.2186157 6.1212394,6.1212394 0 0 1 -0.618271,2.6609898 6.1212394,6.1212394 0 0 1 -0.0205,0.04611 C 12.414457,10.119211 11.586953,9.3624512 10.901024,8.4858897 11.766393,7.8294305 12.799745,7.3868649 13.925791,7.2254391 Z m -3.684025,1.8274523 c 0.750027,0.9505409 1.658069,1.7643159 2.676294,2.4252349 a 6.1212394,6.1212394 0 0 1 -0.0017,0.0034 6.1212394,6.1212394 0 0 1 -0.247648,0.324505 c -1.05775,0.373421 -2.19018,0.590944 -3.3765634,0.590944 -0.2868063,0 -0.568086,-0.01949 -0.848841,-0.0427 C 8.7107398,11.076092 9.3494477,9.9378913 10.241662,9.0528476 Z M 2.4604297,10.890671 c 0.4855018,0.38848 1.0037958,0.73816 1.5541827,1.038424 0.1304699,0.409327 0.2879956,0.805966 0.4645583,1.192155 a 6.1212394,6.1212394 0 0 1 -0.00512,-0.0034 6.1212394,6.1212394 0 0 1 -0.4628531,-0.343297 6.1212394,6.1212394 0 0 1 -0.027327,-0.0205 A 6.1212394,6.1212394 0 0 1 3.534681,12.345847 6.1212394,6.1212394 0 0 1 3.1247766,11.891537 6.1212394,6.1212394 0 0 1 2.7626965,11.399652 6.1212394,6.1212394 0 0 1 2.4603948,10.890688 Z m 2.6728829,1.562752 c 0.7383089,0.300981 1.5168431,0.516877 2.3244969,0.652428 -0.016142,0.199614 -0.030746,0.399183 -0.030746,0.602898 0,0.140736 0.010651,0.278167 0.018783,0.416734 a 6.1212394,6.1212394 0 0 1 -0.00857,-0.0017 6.1212394,6.1212394 0 0 1 -1.6191553,-0.338172 6.1212394,6.1212394 0 0 1 -0.00683,-0.0017 C 5.5531072,13.360573 5.3244265,12.917588 5.1332427,12.453318 Z m 6.1741444,0.625101 a 6.1212394,6.1212394 0 0 1 -0.0034,0.0034 6.1212394,6.1212394 0 0 1 -0.508964,0.30914 6.1212394,6.1212394 0 0 1 -0.01025,0.0068 6.1212394,6.1212394 0 0 1 -0.0052,0.0017 6.1212394,6.1212394 0 0 1 -0.466263,0.227159 6.1212394,6.1212394 0 0 1 -0.114433,0.04953 6.1212394,6.1212394 0 0 1 -0.4491848,0.163962 6.1212394,6.1212394 0 0 1 -0.1263861,0.04099 6.1212394,6.1212394 0 0 1 -0.4218586,0.109308 6.1212394,6.1212394 0 0 1 -0.1895835,0.0427 6.1212394,6.1212394 0 0 1 -0.3928262,0.05807 6.1212394,6.1212394 0 0 1 -0.2920531,0.03587 c -0.010992,-0.138978 -0.025622,-0.276417 -0.025622,-0.418448 0,-0.163822 0.012164,-0.324285 0.023908,-0.485055 0.3191089,0.02778 0.6404653,0.04782 0.9667186,0.04782 0.6898639,0 1.3629377,-0.06732 2.0153747,-0.192994 z"
       fill="currentColor"
       id="path1"
       style="color:#dedede;display:inline;opacity:0.6;fill:#00abff;fill-opacity:1;stroke-width:0.874463;filter:url(#filter3)" />
    <path
       class="ColorScheme-Text"
       d="m 7.8641724,1.0290912 a 6.9957021,6.9957021 0 0 0 -0.1332157,0.00512 l -0.00175,0.00171 a 6.9957021,6.9957021 0 0 0 -0.030746,0.00171 7.1439236,7.1439236 0 0 0 -0.025622,-0.00171 6.9957021,6.9957021 0 0 0 -0.0854,0.00683 6.9957021,6.9957021 0 0 0 -0.5892392,0.046114 6.9957021,6.9957021 0 0 0 -0.088811,0.013664 6.9957021,6.9957021 0 0 0 -0.5806957,0.1041835 6.9957021,6.9957021 0 0 0 -0.13834,0.034158 6.9957021,6.9957021 0 0 0 -0.5550828,0.1605426 6.9957021,6.9957021 0 0 0 -0.06661,0.023911 6.9957021,6.9957021 0 0 0 -0.599488,0.2373992 6.9957021,6.9957021 0 0 0 -0.013663,0.00683 6.9957021,6.9957021 0 0 0 -0.6028983,0.3108453 6.9957021,6.9957021 0 0 0 -0.029035,0.018787 6.9957021,6.9957021 0 0 0 -0.5619123,0.3672044 6.9957021,6.9957021 0 0 0 -0.011956,0.00854 6.9957021,6.9957021 0 0 0 -0.5175071,0.4167339 6.9957021,6.9957021 0 0 0 -0.063194,0.05807 6.9957021,6.9957021 0 0 0 -0.4372314,0.4304018 6.9957021,6.9957021 0 0 0 -0.054654,0.061485 6.9957021,6.9957021 0 0 0 -0.401361,0.4850557 6.9957021,6.9957021 0 0 0 -0.022203,0.03245 6.9957021,6.9957021 0 0 0 -0.3603728,0.5328826 6.9957021,6.9957021 0 0 0 -0.052946,0.090524 6.9957021,6.9957021 0 0 0 -0.2749748,0.5123827 6.9957021,6.9957021 0 0 0 -0.054654,0.1212617 6.9957021,6.9957021 0 0 0 -0.22374,0.5448341 6.9957021,6.9957021 0 0 0 -0.020496,0.059777 6.9957021,6.9957021 0 0 0 -0.1776209,0.58582 6.9957021,6.9957021 0 0 0 -0.056362,0.2339888 c 0.00116,4.914e-4 0.00226,0.00122 0.00342,0.00166 a 6.9957021,6.9957021 0 0 0 -0.015371,0.073437 6.9957021,6.9957021 0 0 0 -0.0819809,0.4833418 6.9957021,6.9957021 0 0 0 -0.0290348,0.2373991 6.9957021,6.9957021 0 0 0 -0.035867,0.5397097 6.9957021,6.9957021 0 0 0 -0.005124,0.1485887 6.9957021,6.9957021 0 0 0 4.0101988,6.3176432 6.9957021,6.9957021 0 0 0 0.010248,0.0052 6.9957021,6.9957021 0 0 0 0.3398775,0.152008 v 0.0017 a 6.9957021,6.9957021 0 0 0 0.00854,0.0034 6.9957021,6.9957021 0 0 0 0.5397096,0.189584 6.9957021,6.9957021 0 0 0 0.1349296,0.0444 6.9957021,6.9957021 0 0 0 0.4713879,0.114432 6.9957021,6.9957021 0 0 0 0.2254453,0.04953 6.9957021,6.9957021 0 0 0 0.4491853,0.0632 6.9957021,6.9957021 0 0 0 0.2425235,0.02903 6.9957021,6.9957021 0 0 0 0.5636175,0.02562 6.9957021,6.9957021 0 0 0 0.5789905,-0.02733 v -0.0017 a 6.9957021,6.9957021 0 0 0 0.011954,0 6.9957021,6.9957021 0 0 0 0.6438932,-0.08711 6.9957021,6.9957021 0 0 0 0.04953,-0.0068 6.9957021,6.9957021 0 0 0 0.010249,-0.0017 6.9957021,6.9957021 0 0 0 0.6695152,-0.162256 6.9957021,6.9957021 0 0 0 3.1955494,-1.996574 6.9957021,6.9957021 0 0 0 0.01708,-0.01878 6.9957021,6.9957021 0 0 0 0.17421,-0.186164 6.9957021,6.9957021 0 0 0 0.0017,-0.0034 c -0.0045,0.0017 -0.0091,0.0034 -0.01367,0.0052 a 6.9957021,6.9957021 0 0 0 1.65667,-4.5089038 6.9957021,6.9957021 0 0 0 -0.228865,-1.7403558 c 0.0011,-3.49e-5 0.0023,3.59e-5 0.0034,0 a 6.9957021,6.9957021 0 0 0 -0.01879,-0.056362 6.9957021,6.9957021 0 0 0 -0.0034,-0.011956 6.9957021,6.9957021 0 0 0 -0.169086,-0.54312 6.9957021,6.9957021 0 0 0 -0.03758,-0.1041835 6.9957021,6.9957021 0 0 0 -0.963308,-1.7540849 6.9957021,6.9957021 0 0 0 -0.02562,-0.03245 6.9957021,6.9957021 0 0 0 -0.0205,-0.025619 6.9957021,6.9957021 0 0 0 -0.905244,-0.96838 6.9957021,6.9957021 0 0 0 -0.04099,-0.034159 6.9957021,6.9957021 0 0 0 -0.0086,-0.00854 6.9957021,6.9957021 0 0 0 -0.49359,-0.3911209 6.9957021,6.9957021 0 0 0 -0.06148,-0.044406 6.9957021,6.9957021 0 0 0 -0.503839,-0.321094 6.9957021,6.9957021 0 0 0 -0.07856,-0.046114 A 6.9957021,6.9957021 0 0 0 7.8639271,1.029292 Z m 0,0.8744628 a 6.1212394,6.1212394 0 0 1 0.020497,0.00171 c -0.00428,0.1071479 -0.020497,0.2111128 -0.020497,0.31938 0,0.8616956 0.1100424,1.696895 0.2971774,2.5021003 -0.9698666,0.8197652 -2.1803854,1.3632 -3.5132416,1.5080985 0.3754943,-1.5928339 1.1284942,-3.034036 2.1537144,-4.2373842 a 6.1212394,6.1212394 0 0 1 0.432107,-0.054654 6.1212394,6.1212394 0 0 1 0.1861644,-0.022204 6.1212394,6.1212394 0 0 1 0.4440609,-0.017079 z m 0.8898533,0.071733 a 6.1212394,6.1212394 0 0 1 0.013668,0.00342 6.1212394,6.1212394 0 0 1 0.5841152,0.1161374 6.1212394,6.1212394 0 0 1 0.00175,0 6.1212394,6.1212394 0 0 1 0.00175,0 6.1212394,6.1212394 0 0 1 0.5841148,0.1793348 6.1212394,6.1212394 0 0 1 0.020497,0.00683 C 9.6934963,2.9056367 9.3388317,3.4833068 8.9026931,3.9906701 8.8020949,3.4159732 8.7387313,2.8284217 8.7387313,2.2246926 c 0,-0.084421 0.013012,-0.1655183 0.015373,-0.2493618 z M 5.3774626,2.4398454 C 4.6051109,3.5818938 4.037261,4.8715514 3.7395939,6.26562 3.1683948,6.24932 2.6194945,6.1538549 2.0948169,6.0008939 A 6.1212394,6.1212394 0 0 1 2.3202621,5.4475251 6.1212394,6.1212394 0 0 1 2.3373411,5.4116581 6.1212394,6.1212394 0 0 1 2.6089055,4.8992754 6.1212394,6.1212394 0 0 1 2.6174455,4.8856124 6.1212394,6.1212394 0 0 1 2.9521986,4.3851836 6.1212394,6.1212394 0 0 1 3.3381952,3.9155009 6.1212394,6.1212394 0 0 1 3.3450252,3.9069609 6.1212394,6.1212394 0 0 1 3.7668835,3.4868078 6.1212394,6.1212394 0 0 1 3.7873795,3.4697288 6.1212394,6.1212394 0 0 1 4.23827,3.1025244 6.1212394,6.1212394 0 0 1 4.265597,3.0837374 6.1212394,6.1212394 0 0 1 4.7540632,2.7609382 6.1212394,6.1212394 0 0 1 4.7677262,2.7541082 6.1212394,6.1212394 0 0 1 5.3023115,2.474009 6.1212394,6.1212394 0 0 1 5.3774615,2.43985 Z M 10.75401,2.6311341 a 6.1212394,6.1212394 0 0 1 0.0052,0.00342 6.1212394,6.1212394 0 0 1 0.519212,0.3125504 6.1212394,6.1212394 0 0 1 0.437232,0.3262184 6.1212394,6.1212394 0 0 1 0.05295,0.039283 6.1212394,6.1212394 0 0 1 0.0052,0.00512 6.1212394,6.1212394 0 0 1 0.394531,0.3603749 6.1212394,6.1212394 0 0 1 0.05124,0.047823 6.1212394,6.1212394 0 0 1 0.0034,0.00512 6.1212394,6.1212394 0 0 1 0.293767,0.3262183 6.1212394,6.1212394 0 0 1 0.121262,0.140054 6.1212394,6.1212394 0 0 1 0.227159,0.30914 6.1212394,6.1212394 0 0 1 0.131511,0.1861644 6.1212394,6.1212394 0 0 1 0.256191,0.4389366 6.1212394,6.1212394 0 0 1 0.0427,0.073441 6.1212394,6.1212394 0 0 1 0.0017,0.00512 6.1212394,6.1212394 0 0 1 0.208367,0.4526045 6.1212394,6.1212394 0 0 1 0.0444,0.099059 6.1212394,6.1212394 0 0 1 0.0034,0.010248 6.1212394,6.1212394 0 0 1 0.136634,0.3996558 6.1212394,6.1212394 0 0 1 0.06661,0.1981182 C 12.508103,6.5577369 11.359322,7.0513974 10.39374,7.7805856 9.8425397,6.9368165 9.4173147,6.0066505 9.1349504,5.013698 9.8214914,4.3388751 10.370304,3.5285979 10.754106,2.6311367 Z M 8.4090501,5.6353509 C 8.7244689,6.6051301 9.1665885,7.517632 9.7224935,8.3492461 8.6476036,9.3799754 7.8784261,10.72621 7.5739382,12.241654 6.5749519,12.071694 5.6274715,11.757552 4.7507352,11.319359 4.5070399,10.44612 4.3664525,9.5296834 4.3664525,8.578093 c 0,-0.4962576 0.047655,-0.9796606 0.1161374,-1.4568549 1.46901,-0.1090455 2.8177814,-0.6447064 3.9265127,-1.4858872 z M 1.8608106,6.8309164 C 2.4163568,6.9961024 2.9948139,7.1064422 3.597756,7.1332182 3.53555,7.607177 3.4918673,8.0873445 3.4918673,8.578093 c 0,0.7341115 0.076534,1.450908 0.2134913,2.145144 C 3.0183807,10.270965 2.400223,9.7278366 1.8453763,9.1262937 a 6.1212394,6.1212394 0 0 1 0,-0.00175 A 6.1212394,6.1212394 0 0 1 1.7855989,8.6856082 6.1212394,6.1212394 0 0 1 1.7616876,8.4909004 6.1212394,6.1212394 0 0 1 1.7429007,8.0246368 6.1212394,6.1212394 0 0 1 1.7736433,7.413195 6.1212394,6.1212394 0 0 1 1.8607477,6.8307853 Z M 13.925774,7.2254478 a 6.1212394,6.1212394 0 0 1 0.05123,0.5806957 6.1212394,6.1212394 0 0 1 0.0086,0.2186157 6.1212394,6.1212394 0 0 1 -0.618271,2.6609898 6.1212394,6.1212394 0 0 1 -0.0205,0.04611 C 12.414457,10.119211 11.586953,9.3624512 10.901024,8.4858897 11.766393,7.8294305 12.799745,7.3868649 13.925791,7.2254391 Z m -3.684025,1.8274523 c 0.750027,0.9505409 1.658069,1.7643159 2.676294,2.4252349 a 6.1212394,6.1212394 0 0 1 -0.0017,0.0034 6.1212394,6.1212394 0 0 1 -0.247648,0.324505 c -1.05775,0.373421 -2.19018,0.590944 -3.3765634,0.590944 -0.2868063,0 -0.568086,-0.01949 -0.848841,-0.0427 C 8.7107398,11.076092 9.3494477,9.9378913 10.241662,9.0528476 Z M 2.4604297,10.890671 c 0.4855018,0.38848 1.0037958,0.73816 1.5541827,1.038424 0.1304699,0.409327 0.2879956,0.805966 0.4645583,1.192155 a 6.1212394,6.1212394 0 0 1 -0.00512,-0.0034 6.1212394,6.1212394 0 0 1 -0.4628531,-0.343297 6.1212394,6.1212394 0 0 1 -0.027327,-0.0205 A 6.1212394,6.1212394 0 0 1 3.534681,12.345847 6.1212394,6.1212394 0 0 1 3.1247766,11.891537 6.1212394,6.1212394 0 0 1 2.7626965,11.399652 6.1212394,6.1212394 0 0 1 2.4603948,10.890688 Z m 2.6728829,1.562752 c 0.7383089,0.300981 1.5168431,0.516877 2.3244969,0.652428 -0.016142,0.199614 -0.030746,0.399183 -0.030746,0.602898 0,0.140736 0.010651,0.278167 0.018783,0.416734 a 6.1212394,6.1212394 0 0 1 -0.00857,-0.0017 6.1212394,6.1212394 0 0 1 -1.6191553,-0.338172 6.1212394,6.1212394 0 0 1 -0.00683,-0.0017 C 5.5531072,13.360573 5.3244265,12.917588 5.1332427,12.453318 Z m 6.1741444,0.625101 a 6.1212394,6.1212394 0 0 1 -0.0034,0.0034 6.1212394,6.1212394 0 0 1 -0.508964,0.30914 6.1212394,6.1212394 0 0 1 -0.01025,0.0068 6.1212394,6.1212394 0 0 1 -0.0052,0.0017 6.1212394,6.1212394 0 0 1 -0.466263,0.227159 6.1212394,6.1212394 0 0 1 -0.114433,0.04953 6.1212394,6.1212394 0 0 1 -0.4491848,0.163962 6.1212394,6.1212394 0 0 1 -0.1263861,0.04099 6.1212394,6.1212394 0 0 1 -0.4218586,0.109308 6.1212394,6.1212394 0 0 1 -0.1895835,0.0427 6.1212394,6.1212394 0 0 1 -0.3928262,0.05807 6.1212394,6.1212394 0 0 1 -0.2920531,0.03587 c -0.010992,-0.138978 -0.025622,-0.276417 -0.025622,-0.418448 0,-0.163822 0.012164,-0.324285 0.023908,-0.485055 0.3191089,0.02778 0.6404653,0.04782 0.9667186,0.04782 0.6898639,0 1.3629377,-0.06732 2.0153747,-0.192994 z"
       fill="currentColor"
       id="path2"
       style="color:#dedede;fill:url(#linearGradient3);fill-opacity:1;stroke-width:0.874463" />
  </g>
</svg>
