<?xml version="1.0" encoding="UTF-8" standalone="no"?>
<svg
   width="48.484001"
   height="48.484001"
   version="1.1"
   id="svg36"
   xmlns:xlink="http://www.w3.org/1999/xlink"
   xmlns="http://www.w3.org/2000/svg"
   xmlns:svg="http://www.w3.org/2000/svg"
   xmlns:rdf="http://www.w3.org/1999/02/22-rdf-syntax-ns#"
   xmlns:cc="http://creativecommons.org/ns#"
   xmlns:dc="http://purl.org/dc/elements/1.1/">
  <metadata
     id="metadata2">
    <rdf:RDF>
      <cc:Work
         rdf:about="">
        <dc:format>image/svg+xml</dc:format>
        <dc:type
           rdf:resource="http://purl.org/dc/dcmitype/StillImage" />
        <dc:title />
      </cc:Work>
    </rdf:RDF>
  </metadata>
  <defs
     id="defs12">
    <linearGradient
       id="linearGradient1">
      <stop
         style="stop-color:#00abff;stop-opacity:0;"
         offset="0"
         id="stop2" />
      <stop
         style="stop-color:#00abff;stop-opacity:1;"
         offset="1"
         id="stop1" />
    </linearGradient>
    <style
       type="text/css"
       id="style865" />
    <style
       type="text/css"
       id="style875" />
    <style
       type="text/css"
       id="style877" />
    <style
       type="text/css"
       id="style879" />
    <style
       type="text/css"
       id="style881" />
    <style
       type="text/css"
       id="style883" />
    <style
       type="text/css"
       id="style885" />
    <style
       type="text/css"
       id="style887" />
    <linearGradient
       xlink:href="#linearGradient1"
       id="linearGradient2"
       x1="-440.33047"
       y1="1054.9139"
       x2="-440.33047"
       y2="396.3696"
       gradientUnits="userSpaceOnUse" />
    <filter
       style="color-interpolation-filters:sRGB"
       id="filter2"
       x="-0.027000001"
       y="-0.027000001"
       width="1.054"
       height="1.054">
      <feGaussianBlur
         stdDeviation="8.7972801"
         id="feGaussianBlur3" />
    </filter>
  </defs>
  <g
     transform="matrix(0.058825,0,0,0.058825,51.107135,-5.8133099)"
     fill="#009eff"
     stroke-width="0.41667"
     id="g955"
     style="fill:none;fill-opacity:1;stroke:#46dcdc;stroke-width:16.9996;stroke-miterlimit:4;stroke-dasharray:none;stroke-opacity:1">
    <path
       id="path947"
       style="display:inline;opacity:0.6;fill:#00abff;fill-opacity:1;stroke:none;filter:url(#filter2)"
       d="m -762.68823,119.93727 c -47.0888,0 -84.99787,37.90905 -84.99787,84.99788 v 611.9847 c 0,47.08877 37.90907,84.99787 84.99787,84.99787 h 611.9847 c 47.08883,0 84.997878,-37.9091 84.997878,-84.99787 v -611.9847 c 0,-47.08883 -37.909048,-84.99788 -84.997878,-84.99788 z m 0,16.99958 h 611.9847 c 37.67101,0 67.998303,30.32724 67.998303,67.9983 v 611.9847 c 0,37.67102 -30.327293,67.9983 -67.998303,67.9983 h -611.9847 c -37.67106,0 -67.9983,-30.32728 -67.9983,-67.9983 v -611.9847 c 0,-37.67106 30.32724,-67.9983 67.9983,-67.9983 z m 305.99235,147.41819 c -118.05043,0 -229.61673,52.10933 -305.95915,142.93588 -12.88645,15.32748 -10.86514,38.48273 4.48231,51.36395 6.77646,5.69064 15.12779,8.53299 23.40762,8.53299 10.38304,0 20.74572,-4.45017 27.92313,-12.9821 62.49259,-74.35452 153.63953,-116.97168 250.14609,-116.97169 96.50662,0 187.65777,42.60294 250.14609,116.93849 7.17785,8.53091 17.53939,12.98209 27.92313,12.98209 8.26136,0 16.64591,-2.80448 23.44082,-8.53299 15.32815,-12.87172 17.3377,-36.01786 4.44911,-51.33074 h -0.0332 l -5.94321,-7.07209 -0.16601,0.16601 c -76.11196,-86.48586 -184.84554,-136.0298 -299.81673,-136.0298 z m 0,16.99957 c 113.04971,0 219.79781,49.85358 292.94385,136.89306 v 0.0332 c 6.93715,8.26769 5.88392,20.38139 -2.39056,27.32548 -3.67173,3.0972 -8.04251,4.58192 -12.48407,4.58192 -5.56295,0 -11.01985,-2.32037 -14.90783,-6.93928 -65.67168,-78.12245 -161.64801,-123.0145 -263.16139,-123.0145 -101.51344,0 -197.48598,44.87301 -263.16139,123.0145 -3.88637,4.61718 -9.34661,6.93928 -14.90783,6.93928 -4.42331,0 -8.79291,-1.44853 -12.48406,-4.54871 -8.31255,-6.97678 -9.36412,-19.09737 -2.39057,-27.3919 73.15757,-87.03745 179.89429,-136.89306 292.94385,-136.89306 z m 0,101.36661 c -85.04508,0 -165.41467,37.55944 -220.39683,102.96031 -12.88507,15.32738 -10.86532,38.44937 4.48231,51.33075 6.78381,5.69681 15.12709,8.53299 23.40762,8.53299 10.38303,0 20.75942,-4.43864 27.92313,-12.9821 41.12385,-48.9387 101.09015,-76.96292 164.58377,-76.96292 63.49361,0 123.43498,28.02201 164.58378,76.96292 7.18208,8.5606 17.56687,12.9821 27.92313,12.9821 8.26136,0 16.64533,-2.80509 23.44082,-8.53299 15.34139,-12.88527 17.33767,-36.01728 4.44911,-51.33075 v -0.0332 C -291.30037,440.25215 -371.64728,402.72122 -456.69588,402.72122 Z m 0,16.99957 c 80.05,0 155.56298,35.27057 207.38154,96.8843 6.96188,8.26969 5.91702,20.41869 -2.39057,27.39189 -3.67316,3.0978 -8.0425,4.54872 -12.48406,4.54872 -5.55175,0 -11.02391,-2.27668 -14.90783,-6.90608 v -0.0332 c -44.33101,-52.73046 -109.09594,-83.00574 -177.59908,-83.00574 -68.50315,0 -133.29109,30.30626 -177.59907,83.03894 h -0.0332 c -3.86428,4.60854 -9.31166,6.90608 -14.87462,6.90608 -4.42462,0 -8.80026,-1.45471 -12.48407,-4.54872 -8.31236,-6.97663 -9.36349,-19.09727 -2.39056,-27.39189 51.79783,-61.61313 127.33662,-96.8843 207.38153,-96.8843 z m 0,105.91532 c -52.04749,0.003 -101.23416,22.99477 -134.83452,62.98476 -12.88528,15.32749 -10.89792,38.44987 4.44911,51.33074 6.7843,5.69722 15.16119,8.53299 23.44082,8.53299 10.3797,0 20.72613,-4.44254 27.88993,-12.98209 19.77762,-23.53512 48.56897,-36.98736 79.05466,-36.98736 30.4843,0 59.24506,13.45451 79.02146,36.98736 7.18234,8.56093 17.56689,12.98209 27.92313,12.98209 8.26047,0 16.64542,-2.80408 23.44082,-8.53299 15.33815,-12.88276 17.32904,-36.00702 4.44911,-51.33074 -33.59648,-39.98844 -82.78463,-62.9813 -134.83452,-62.98476 z m 0,16.99958 c 47.05398,0.003 91.41084,20.7132 121.81922,56.90873 6.97251,8.29343 5.92228,20.41418 -2.39056,27.3919 -3.67125,3.09678 -8.04162,4.54871 -12.48407,4.54871 -5.55376,0 -11.02418,-2.27701 -14.90783,-6.90608 -22.95747,-27.32183 -56.53937,-43.06337 -92.03676,-43.06337 -35.49738,0 -69.11164,15.74181 -92.06996,43.06337 -3.86401,4.60822 -9.31095,6.90608 -14.87463,6.90608 -4.4255,0 -8.83394,-1.45511 -12.51726,-4.54871 -8.31255,-6.97678 -9.36412,-19.09737 -2.39057,-27.3919 30.41256,-36.19598 74.80264,-56.90528 121.85242,-56.90873 z m 1.62691,88.88254 c -1.60781,0.0193 -3.21938,0.11366 -4.81433,0.26562 -23.01933,2.19329 -45.48666,18.21294 -50.33468,42.69815 h -0.99607 v 8.49979 c 0,30.00507 24.51415,54.51817 54.51817,54.51817 30.00403,0 54.51817,-24.5131 54.51817,-54.51817 v -0.49804 l -0.0664,-0.49803 c -2.15813,-18.13154 -9.88528,-31.79187 -20.68503,-40.14157 -8.09981,-6.26227 -17.64102,-9.48569 -27.29229,-10.19311 -1.60855,-0.1179 -3.23972,-0.15212 -4.84754,-0.13281 z m 0.19922,16.99958 c 1.12679,-0.0152 2.24364,0.0203 3.35343,0.0996 6.65877,0.47571 12.977,2.63954 18.19486,6.67367 6.86374,5.30663 12.3044,13.97127 14.11097,28.15554 -0.25866,20.58002 -16.84211,37.05376 -37.48539,37.05376 -20.75777,0 -37.44137,-16.64601 -37.51859,-37.38578 0.66223,-19.48269 17.80455,-32.70111 35.95808,-34.43078 1.13697,-0.10833 2.25985,-0.15082 3.38664,-0.16601 z" />
    <path
       id="path1"
       style="fill:url(#linearGradient2);fill-opacity:1;stroke:none"
       d="m -762.68823,119.93727 c -47.0888,0 -84.99787,37.90905 -84.99787,84.99788 v 611.9847 c 0,47.08877 37.90907,84.99787 84.99787,84.99787 h 611.9847 c 47.08883,0 84.997878,-37.9091 84.997878,-84.99787 v -611.9847 c 0,-47.08883 -37.909048,-84.99788 -84.997878,-84.99788 z m 0,16.99958 h 611.9847 c 37.67101,0 67.998303,30.32724 67.998303,67.9983 v 611.9847 c 0,37.67102 -30.327293,67.9983 -67.998303,67.9983 h -611.9847 c -37.67106,0 -67.9983,-30.32728 -67.9983,-67.9983 v -611.9847 c 0,-37.67106 30.32724,-67.9983 67.9983,-67.9983 z m 305.99235,147.41819 c -118.05043,0 -229.61673,52.10933 -305.95915,142.93588 -12.88645,15.32748 -10.86514,38.48273 4.48231,51.36395 6.77646,5.69064 15.12779,8.53299 23.40762,8.53299 10.38304,0 20.74572,-4.45017 27.92313,-12.9821 62.49259,-74.35452 153.63953,-116.97168 250.14609,-116.97169 96.50662,0 187.65777,42.60294 250.14609,116.93849 7.17785,8.53091 17.53939,12.98209 27.92313,12.98209 8.26136,0 16.64591,-2.80448 23.44082,-8.53299 15.32815,-12.87172 17.3377,-36.01786 4.44911,-51.33074 h -0.0332 l -5.94321,-7.07209 -0.16601,0.16601 c -76.11196,-86.48586 -184.84554,-136.0298 -299.81673,-136.0298 z m 0,16.99957 c 113.04971,0 219.79781,49.85358 292.94385,136.89306 v 0.0332 c 6.93715,8.26769 5.88392,20.38139 -2.39056,27.32548 -3.67173,3.0972 -8.04251,4.58192 -12.48407,4.58192 -5.56295,0 -11.01985,-2.32037 -14.90783,-6.93928 -65.67168,-78.12245 -161.64801,-123.0145 -263.16139,-123.0145 -101.51344,0 -197.48598,44.87301 -263.16139,123.0145 -3.88637,4.61718 -9.34661,6.93928 -14.90783,6.93928 -4.42331,0 -8.79291,-1.44853 -12.48406,-4.54871 -8.31255,-6.97678 -9.36412,-19.09737 -2.39057,-27.3919 73.15757,-87.03745 179.89429,-136.89306 292.94385,-136.89306 z m 0,101.36661 c -85.04508,0 -165.41467,37.55944 -220.39683,102.96031 -12.88507,15.32738 -10.86532,38.44937 4.48231,51.33075 6.78381,5.69681 15.12709,8.53299 23.40762,8.53299 10.38303,0 20.75942,-4.43864 27.92313,-12.9821 41.12385,-48.9387 101.09015,-76.96292 164.58377,-76.96292 63.49361,0 123.43498,28.02201 164.58378,76.96292 7.18208,8.5606 17.56687,12.9821 27.92313,12.9821 8.26136,0 16.64533,-2.80509 23.44082,-8.53299 15.34139,-12.88527 17.33767,-36.01728 4.44911,-51.33075 v -0.0332 C -291.30037,440.25215 -371.64728,402.72122 -456.69588,402.72122 Z m 0,16.99957 c 80.05,0 155.56298,35.27057 207.38154,96.8843 6.96188,8.26969 5.91702,20.41869 -2.39057,27.39189 -3.67316,3.0978 -8.0425,4.54872 -12.48406,4.54872 -5.55175,0 -11.02391,-2.27668 -14.90783,-6.90608 v -0.0332 c -44.33101,-52.73046 -109.09594,-83.00574 -177.59908,-83.00574 -68.50315,0 -133.29109,30.30626 -177.59907,83.03894 h -0.0332 c -3.86428,4.60854 -9.31166,6.90608 -14.87462,6.90608 -4.42462,0 -8.80026,-1.45471 -12.48407,-4.54872 -8.31236,-6.97663 -9.36349,-19.09727 -2.39056,-27.39189 51.79783,-61.61313 127.33662,-96.8843 207.38153,-96.8843 z m 0,105.91532 c -52.04749,0.003 -101.23416,22.99477 -134.83452,62.98476 -12.88528,15.32749 -10.89792,38.44987 4.44911,51.33074 6.7843,5.69722 15.16119,8.53299 23.44082,8.53299 10.3797,0 20.72613,-4.44254 27.88993,-12.98209 19.77762,-23.53512 48.56897,-36.98736 79.05466,-36.98736 30.4843,0 59.24506,13.45451 79.02146,36.98736 7.18234,8.56093 17.56689,12.98209 27.92313,12.98209 8.26047,0 16.64542,-2.80408 23.44082,-8.53299 15.33815,-12.88276 17.32904,-36.00702 4.44911,-51.33074 -33.59648,-39.98844 -82.78463,-62.9813 -134.83452,-62.98476 z m 0,16.99958 c 47.05398,0.003 91.41084,20.7132 121.81922,56.90873 6.97251,8.29343 5.92228,20.41418 -2.39056,27.3919 -3.67125,3.09678 -8.04162,4.54871 -12.48407,4.54871 -5.55376,0 -11.02418,-2.27701 -14.90783,-6.90608 -22.95747,-27.32183 -56.53937,-43.06337 -92.03676,-43.06337 -35.49738,0 -69.11164,15.74181 -92.06996,43.06337 -3.86401,4.60822 -9.31095,6.90608 -14.87463,6.90608 -4.4255,0 -8.83394,-1.45511 -12.51726,-4.54871 -8.31255,-6.97678 -9.36412,-19.09737 -2.39057,-27.3919 30.41256,-36.19598 74.80264,-56.90528 121.85242,-56.90873 z m 1.62691,88.88254 c -1.60781,0.0193 -3.21938,0.11366 -4.81433,0.26562 -23.01933,2.19329 -45.48666,18.21294 -50.33468,42.69815 h -0.99607 v 8.49979 c 0,30.00507 24.51415,54.51817 54.51817,54.51817 30.00403,0 54.51817,-24.5131 54.51817,-54.51817 v -0.49804 l -0.0664,-0.49803 c -2.15813,-18.13154 -9.88528,-31.79187 -20.68503,-40.14157 -8.09981,-6.26227 -17.64102,-9.48569 -27.29229,-10.19311 -1.60855,-0.1179 -3.23972,-0.15212 -4.84754,-0.13281 z m 0.19922,16.99958 c 1.12679,-0.0152 2.24364,0.0203 3.35343,0.0996 6.65877,0.47571 12.977,2.63954 18.19486,6.67367 6.86374,5.30663 12.3044,13.97127 14.11097,28.15554 -0.25866,20.58002 -16.84211,37.05376 -37.48539,37.05376 -20.75777,0 -37.44137,-16.64601 -37.51859,-37.38578 0.66223,-19.48269 17.80455,-32.70111 35.95808,-34.43078 1.13697,-0.10833 2.25985,-0.15082 3.38664,-0.16601 z" />
  </g>
</svg>
