<?xml version="1.0" encoding="UTF-8" standalone="no"?>
<svg
   width="59.624966"
   height="50.656555"
   version="1.1"
   viewBox="0 0 59.624966 50.656555"
   id="svg24"
   xmlns:xlink="http://www.w3.org/1999/xlink"
   xmlns="http://www.w3.org/2000/svg"
   xmlns:svg="http://www.w3.org/2000/svg">
  <defs
     id="defs18">
    <filter
       style="color-interpolation-filters:sRGB"
       id="filter3"
       x="-0.024868422"
       y="-0.029531251"
       width="1.0497368"
       height="1.0590625">
      <feGaussianBlur
         stdDeviation="0.196875"
         id="feGaussianBlur3-6" />
    </filter>
    <linearGradient
       xlink:href="#linearGradient2"
       id="linearGradient3"
       x1="10.217391"
       y1="23"
       x2="10.217391"
       y2="8.173913"
       gradientUnits="userSpaceOnUse" />
    <linearGradient
       id="linearGradient2">
      <stop
         style="stop-color:#00abff;stop-opacity:0;"
         offset="0"
         id="stop3-7" />
      <stop
         style="stop-color:#00abff;stop-opacity:1;"
         offset="1"
         id="stop2-5" />
    </linearGradient>
  </defs>
  <g
     class="ColorScheme-Text"
     transform="matrix(2.9894692,0,0,2.9894692,-1.576945,-7.5558833)"
     fill="currentColor"
     id="g2"
     style="color:#dedede">
    <path
       id="path1"
       class="ColorScheme-Text"
       d="M 3,3 C 1.892,3 1,3.892 1,5 v 12 c 0,1.108 0.892,2 2,2 h 15 c 1.108,0 2,-0.892 2,-2 V 5 C 20,3.892 19.108,3 18,3 Z m 0,1 h 15 c 0.554,0 1,0.446 1,1 v 9 H 2 V 5 C 2,4.446 2.446,4 3,4 Z M 2,15 h 8 v 3 H 3 C 2.446,18 2,17.554 2,17 Z m 9,0 h 8 v 2 c 0,0.554 -0.446,1 -1,1 h -7 z"
       style="color:#dedede;display:inline;opacity:0.6;fill:#00abff;fill-opacity:1;filter:url(#filter3)" />
    <path
       id="path2"
       class="ColorScheme-Text"
       d="M 3,3 C 1.892,3 1,3.892 1,5 v 12 c 0,1.108 0.892,2 2,2 h 15 c 1.108,0 2,-0.892 2,-2 V 5 C 20,3.892 19.108,3 18,3 Z m 0,1 h 15 c 0.554,0 1,0.446 1,1 v 9 H 2 V 5 C 2,4.446 2.446,4 3,4 Z M 2,15 h 8 v 3 H 3 C 2.446,18 2,17.554 2,17 Z m 9,0 h 8 v 2 c 0,0.554 -0.446,1 -1,1 h -7 z"
       style="color:#dedede;fill:url(#linearGradient3);fill-opacity:1" />
  </g>
</svg>
