<?xml version="1.0" encoding="UTF-8" standalone="no"?>
<svg
   width="56.923042"
   height="47.882023"
   version="1.1"
   viewBox="0 0 56.923042 47.882023"
   id="svg24"
   xmlns:xlink="http://www.w3.org/1999/xlink"
   xmlns="http://www.w3.org/2000/svg"
   xmlns:svg="http://www.w3.org/2000/svg">
  <defs
     id="defs18">
    <linearGradient
       id="linearGradient28">
      <stop
         style="stop-color:#00abff;stop-opacity:0;"
         offset="0"
         id="stop29" />
      <stop
         style="stop-color:#00abff;stop-opacity:1;"
         offset="1"
         id="stop28" />
    </linearGradient>
    <linearGradient
       xlink:href="#linearGradient28"
       id="linearGradient29"
       x1="8.1829834"
       y1="17.962835"
       x2="8.1829834"
       y2="4.9571466"
       gradientUnits="userSpaceOnUse" />
    <filter
       style="color-interpolation-filters:sRGB"
       id="filter29"
       x="-0.024749675"
       y="-0.029700467"
       width="1.0494994"
       height="1.0594009">
      <feGaussianBlur
         stdDeviation="0.18562812"
         id="feGaussianBlur29" />
    </filter>
  </defs>
  <g
     transform="matrix(3.0131478,0,0,3.0131478,4.3562484,1.3423883)"
     fill="currentColor"
     id="g2"
     style="fill:#00abff;fill-opacity:1">
    <path
       id="path1"
       style="color:#dedede;display:inline;opacity:0.6;fill:#00abff;fill-opacity:1;filter:url(#filter29)"
       class="ColorScheme-Text"
       d="m 1.0001086,-2.7794853e-6 c -1.10799997,0 -2.0003478,0.8916996594853 -2.0003478,1.9996996794853 v 9.0002691 c 0,1.108 0.89234783,2.000348 2.0003478,2.000348 H 14.999951 c 1.108,0 2.000348,-0.892348 2.000348,-2.000348 V 1.9996969 c 0,-1.10800002 -0.892348,-1.9996996794853 -2.000348,-1.9996996794853 z m 0,1.0001738794853 H 14.999951 c 0.554,0 1.000174,0.4455258 1.000174,0.9995258 v 9.0002691 c 0,0.554 -0.446174,1.000174 -1.000174,1.000174 H 1.0001086 c -0.55399997,0 -1.000173897162,-0.446174 -1.000173897162,-1.000174 V 1.9996969 c 0,-0.554 0.446173927162,-0.9995258 1.000173897162,-0.9995258 z M 3.5002194,13.999839 c -0.277,0 -0.5004111,0.223411 -0.5004111,0.500411 0,0.277 0.2234111,0.499763 0.5004111,0.499763 H 12.49984 c 0.277,0 0.500411,-0.222763 0.500411,-0.499763 0,-0.277 -0.223411,-0.500411 -0.500411,-0.500411 z" />
    <path
       id="path28"
       style="color:#dedede;fill:url(#linearGradient29);fill-opacity:1"
       class="ColorScheme-Text"
       d="m 1.0001086,-2.7794853e-6 c -1.10799997,0 -2.0003478,0.8916996594853 -2.0003478,1.9996996794853 v 9.0002691 c 0,1.108 0.89234783,2.000348 2.0003478,2.000348 H 14.999951 c 1.108,0 2.000348,-0.892348 2.000348,-2.000348 V 1.9996969 c 0,-1.10800002 -0.892348,-1.9996996794853 -2.000348,-1.9996996794853 z m 0,1.0001738794853 H 14.999951 c 0.554,0 1.000174,0.4455258 1.000174,0.9995258 v 9.0002691 c 0,0.554 -0.446174,1.000174 -1.000174,1.000174 H 1.0001086 c -0.55399997,0 -1.000173897162,-0.446174 -1.000173897162,-1.000174 V 1.9996969 c 0,-0.554 0.446173927162,-0.9995258 1.000173897162,-0.9995258 z M 3.5002194,13.999839 c -0.277,0 -0.5004111,0.223411 -0.5004111,0.500411 0,0.277 0.2234111,0.499763 0.5004111,0.499763 H 12.49984 c 0.277,0 0.500411,-0.222763 0.500411,-0.499763 0,-0.277 -0.223411,-0.500411 -0.500411,-0.500411 z" />
  </g>
</svg>
