<?xml version="1.0" encoding="UTF-8" standalone="no"?>
<svg
   width="43.546024"
   height="55.538212"
   version="1.1"
   viewBox="0 0 43.546024 55.538212"
   id="svg3"
   xmlns:xlink="http://www.w3.org/1999/xlink"
   xmlns="http://www.w3.org/2000/svg"
   xmlns:svg="http://www.w3.org/2000/svg">
  <defs
     id="defs3">
    <linearGradient
       id="linearGradient30">
      <stop
         style="stop-color:#039bfc;stop-opacity:0;"
         offset="0"
         id="stop31" />
      <stop
         style="stop-color:#039bfc;stop-opacity:1;"
         offset="1"
         id="stop30" />
    </linearGradient>
    <linearGradient
       xlink:href="#linearGradient30"
       id="linearGradient31"
       x1="149.56976"
       y1="65.000099"
       x2="149.56976"
       y2="22.101549"
       gradientUnits="userSpaceOnUse" />
    <filter
       style="color-interpolation-filters:sRGB"
       id="filter31"
       x="-0.030947896"
       y="-0.023945386"
       width="1.0618958"
       height="1.0478908">
      <feGaussianBlur
         stdDeviation="0.52879393"
         id="feGaussianBlur31" />
    </filter>
  </defs>
  <g
     id="g31"
     transform="translate(-10.222995,-4.7308946)">
    <path
       id="path1"
       style="display:inline;opacity:0.6;fill:#039bfc;filter:url(#filter31)"
       d="m 151.80394,7.0001 -0.004,0.00195 -19.35351,0.00391 c -1.35355,0 -2.45703,1.1084593 -2.45703,2.4648437 V 57.533303 c 0,1.356386 1.10343,2.466797 2.45703,2.466797 h 36.09375 c 1.35354,0 2.45703,-1.110412 2.45703,-2.466797 V 26.183694 c 0,-0.440775 -0.10327,-0.93784 -0.29297,-1.464844 h 0.0606 l -0.35547,-0.722656 c -0.0256,-0.05172 -0.0587,-0.104197 -0.0859,-0.15625 l -0.0605,-0.125 h -0.008 c -0.33862,-0.618179 -0.7885,-1.252822 -1.38476,-1.84961 l -0.002,-0.002 L 156.26488,9.1524437 C 155.67159,8.4151755 155.0115,7.918962 154.36644,7.59385 154.28114,7.550863 154.19507,7.50998 154.11058,7.4727562 l -0.0859,-0.037109 -0.0312,-0.00195 C 153.20882,7.1007523 152.46804,7.0001 151.90941,7.0001 Z m 0.11523,1.0019531 c 0.37972,7.572e-4 0.91296,0.1248404 1.44727,0.3105469 v 13.935547 c 0,1.22231 0.89866,2.235584 2.06641,2.425781 0.12731,0.02382 0.25744,0.03746 0.39062,0.04102 0.0224,5.98e-4 0.0439,0.0039 0.0664,0.0039 h 13.69336 c 0.23563,0.562366 0.41406,1.117889 0.41406,1.464844 v 31.349609 c 0,0.822556 -0.64278,1.466797 -1.45703,1.466797 h -36.09375 c -0.81435,0 -1.45703,-0.644183 -1.45703,-1.466797 V 9.4708031 c 0,-0.8225555 0.64277,-1.4667967 1.45703,-1.4667969 z m 2.47071,0.9238281 c 0.38082,0.2545633 0.76637,0.4323997 1.12695,0.8886719 l 0.0176,0.021484 12.62695,12.7343749 c 0.37192,0.371984 0.57528,0.75943 0.82813,1.144532 h -13.16602 c -0.0687,0 -0.13319,-0.01063 -0.19922,-0.01953 -0.70854,-0.123274 -1.23436,-0.730184 -1.23437,-1.478515 z M 136.67503,29.894631 c -0.33247,0.04187 -0.58229,0.323118 -0.58593,0.658203 v 11.990235 c 0,0.351982 0.30231,0.660156 0.65429,0.660156 h 5.99024 v 2.216797 h -4.42774 v 2.21875 h 7.75586 v -6.654297 h -7.26562 c -0.2454,-0.01065 -0.44248,-0.207731 -0.45313,-0.453125 v -7.962891 c -0.008,-0.209514 0.14262,-0.41346 0.34375,-0.451171 0.0348,-0.0043 0.0707,-0.0043 0.10547,0 h 12.33594 c 0.22627,0 0.44726,0.208419 0.44726,0.447265 V 35.4376 h 2.25196 v -4.884766 c -0.013,-0.357832 -0.30037,-0.645254 -0.65821,-0.658203 z m 27.56836,6.650391 -16.47656,0.0039 a 0.6913947,0.6913947 0 0 0 -0.59766,0.658203 v 11.986328 c 0,0.347793 0.31794,0.660157 0.66993,0.660157 h 5.98047 v 2.21289 h -4.43555 v 2.220703 h 13.30469 V 52.0665 h -4.4336 v -2.21289 h 5.98828 a 0.68720444,0.68720444 0 0 0 0.66211,-0.660157 V 37.207131 a 0.6913947,0.6913947 0 0 0 -0.66211,-0.662109 z m -14.46875,2.216797 v 0.0039 a 0.26817734,0.26817734 0 0 1 0.084,0 h 12.35742 a 0.46092981,0.46092981 0 0 1 0.44336,0.445313 v 7.982421 a 0.46092981,0.46092981 0 0 1 -0.44336,0.445313 h -12.36133 a 0.46092981,0.46092981 0 0 1 -0.44531,-0.445313 v -7.982421 a 0.46092981,0.46092981 0 0 1 0.36523,-0.449219 z"
       transform="translate(-118.4973,-1.0001)" />
    <path
       id="path30"
       style="fill:url(#linearGradient31);fill-opacity:1"
       d="m 151.80394,7.0001 -0.004,0.00195 -19.35351,0.00391 c -1.35355,0 -2.45703,1.1084593 -2.45703,2.4648437 V 57.533303 c 0,1.356386 1.10343,2.466797 2.45703,2.466797 h 36.09375 c 1.35354,0 2.45703,-1.110412 2.45703,-2.466797 V 26.183694 c 0,-0.440775 -0.10327,-0.93784 -0.29297,-1.464844 h 0.0606 l -0.35547,-0.722656 c -0.0256,-0.05172 -0.0587,-0.104197 -0.0859,-0.15625 l -0.0605,-0.125 h -0.008 c -0.33862,-0.618179 -0.7885,-1.252822 -1.38476,-1.84961 l -0.002,-0.002 L 156.26488,9.1524437 C 155.67159,8.4151755 155.0115,7.918962 154.36644,7.59385 154.28114,7.550863 154.19507,7.50998 154.11058,7.4727562 l -0.0859,-0.037109 -0.0312,-0.00195 C 153.20882,7.1007523 152.46804,7.0001 151.90941,7.0001 Z m 0.11523,1.0019531 c 0.37972,7.572e-4 0.91296,0.1248404 1.44727,0.3105469 v 13.935547 c 0,1.22231 0.89866,2.235584 2.06641,2.425781 0.12731,0.02382 0.25744,0.03746 0.39062,0.04102 0.0224,5.98e-4 0.0439,0.0039 0.0664,0.0039 h 13.69336 c 0.23563,0.562366 0.41406,1.117889 0.41406,1.464844 v 31.349609 c 0,0.822556 -0.64278,1.466797 -1.45703,1.466797 h -36.09375 c -0.81435,0 -1.45703,-0.644183 -1.45703,-1.466797 V 9.4708031 c 0,-0.8225555 0.64277,-1.4667967 1.45703,-1.4667969 z m 2.47071,0.9238281 c 0.38082,0.2545633 0.76637,0.4323997 1.12695,0.8886719 l 0.0176,0.021484 12.62695,12.7343749 c 0.37192,0.371984 0.57528,0.75943 0.82813,1.144532 h -13.16602 c -0.0687,0 -0.13319,-0.01063 -0.19922,-0.01953 -0.70854,-0.123274 -1.23436,-0.730184 -1.23437,-1.478515 z M 136.67503,29.894631 c -0.33247,0.04187 -0.58229,0.323118 -0.58593,0.658203 v 11.990235 c 0,0.351982 0.30231,0.660156 0.65429,0.660156 h 5.99024 v 2.216797 h -4.42774 v 2.21875 h 7.75586 v -6.654297 h -7.26562 c -0.2454,-0.01065 -0.44248,-0.207731 -0.45313,-0.453125 v -7.962891 c -0.008,-0.209514 0.14262,-0.41346 0.34375,-0.451171 0.0348,-0.0043 0.0707,-0.0043 0.10547,0 h 12.33594 c 0.22627,0 0.44726,0.208419 0.44726,0.447265 V 35.4376 h 2.25196 v -4.884766 c -0.013,-0.357832 -0.30037,-0.645254 -0.65821,-0.658203 z m 27.56836,6.650391 -16.47656,0.0039 a 0.6913947,0.6913947 0 0 0 -0.59766,0.658203 v 11.986328 c 0,0.347793 0.31794,0.660157 0.66993,0.660157 h 5.98047 v 2.21289 h -4.43555 v 2.220703 h 13.30469 V 52.0665 h -4.4336 v -2.21289 h 5.98828 a 0.68720444,0.68720444 0 0 0 0.66211,-0.660157 V 37.207131 a 0.6913947,0.6913947 0 0 0 -0.66211,-0.662109 z m -14.46875,2.216797 v 0.0039 a 0.26817734,0.26817734 0 0 1 0.084,0 h 12.35742 a 0.46092981,0.46092981 0 0 1 0.44336,0.445313 v 7.982421 a 0.46092981,0.46092981 0 0 1 -0.44336,0.445313 h -12.36133 a 0.46092981,0.46092981 0 0 1 -0.44531,-0.445313 v -7.982421 a 0.46092981,0.46092981 0 0 1 0.36523,-0.449219 z"
       transform="translate(-118.4973,-1.0001)" />
  </g>
</svg>
