<?xml version="1.0" encoding="UTF-8" standalone="no"?>
<svg
   width="43.546024"
   height="55.538212"
   version="1.1"
   viewBox="0 0 43.546024 55.538212"
   id="svg3"
   xmlns:xlink="http://www.w3.org/1999/xlink"
   xmlns="http://www.w3.org/2000/svg"
   xmlns:svg="http://www.w3.org/2000/svg">
  <defs
     id="defs3">
    <linearGradient
       id="linearGradient4">
      <stop
         style="stop-color:#00abff;stop-opacity:0;"
         offset="0"
         id="stop5" />
      <stop
         style="stop-color:#00abff;stop-opacity:1;"
         offset="1"
         id="stop4" />
    </linearGradient>
    <linearGradient
       xlink:href="#linearGradient4"
       id="linearGradient5"
       x1="151.0708"
       y1="64.996902"
       x2="151.0708"
       y2="24.996901"
       gradientUnits="userSpaceOnUse" />
    <filter
       style="color-interpolation-filters:sRGB"
       id="filter5"
       x="-0.030947896"
       y="-0.023945386"
       width="1.0618958"
       height="1.0478908">
      <feGaussianBlur
         stdDeviation="0.52879393"
         id="feGaussianBlur5" />
    </filter>
  </defs>
  <g
     id="g5"
     transform="translate(-10.230795,-4.7348009)">
    <path
       id="path1"
       style="display:inline;opacity:0.6;fill:#00abff;fill-opacity:1;stroke:none;filter:url(#filter5)"
       d="m 151.80554,7.0008063 -0.004,0.00195 -19.35352,0.00391 c -1.35355,0 -2.45703,1.1084594 -2.45703,2.4648438 V 57.534009 c 0,1.356386 1.10343,2.466797 2.45703,2.466797 h 36.09375 c 1.35354,0 2.45703,-1.110412 2.45703,-2.466797 V 26.1844 c 0,-0.440397 -0.10554,-0.938346 -0.29492,-1.464844 h 0.0625 L 170.41101,23.9969 c -0.0264,-0.05334 -0.0597,-0.108424 -0.0879,-0.162109 l -0.0586,-0.119141 h -0.006 c -0.33871,-0.618687 -0.78994,-1.252302 -1.38672,-1.849609 l -0.002,-0.002 L 156.26648,9.15315 c -0.67176,-0.8348308 -1.43074,-1.3609223 -2.1543,-1.6796875 l -0.0859,-0.037109 -0.0312,-0.00195 C 153.21051,7.101462 152.46973,7.0008098 151.9111,7.0008098 Z m 0.11524,1.0019531 c 0.37972,7.572e-4 0.91295,0.1248404 1.44726,0.3105469 V 22.248853 c 0,1.230404 0.91077,2.249356 2.08985,2.429688 0.14074,0.02482 0.28595,0.04102 0.43359,0.04102 h 13.69336 c 0.23563,0.562366 0.41406,1.11789 0.41406,1.464844 v 31.349609 c 0,0.822556 -0.64278,1.466797 -1.45703,1.466797 h -36.09375 c -0.81435,0 -1.45703,-0.644183 -1.45703,-1.466797 V 9.4715094 c 0,-0.8225555 0.64277,-1.4667969 1.45703,-1.4667969 z m 2.4707,0.9238281 c 0.38082,0.2545631 0.76637,0.4323997 1.12695,0.8886719 l 0.0176,0.021484 12.62695,12.7343756 c 0.37193,0.371985 0.57528,0.759428 0.82813,1.144531 h -13.16602 c -0.0603,0 -0.11757,-0.01071 -0.17578,-0.01758 -0.72125,-0.113118 -1.2578,-0.723307 -1.25781,-1.480469 z M 142.65515,31.09065 c -3.21562,0 -5.83398,2.616152 -5.83398,5.832031 0,3.21572 2.61852,5.833985 5.83398,5.833985 3.21562,0 5.83203,-2.618106 5.83203,-5.833985 v -0.5 h -5.33203 V 31.09065 Z m -0.5,1.101562 v 5.230469 h 5.23242 c -0.26041,2.427321 -2.2346,4.333985 -4.73242,4.333985 -2.67494,0 -4.83398,-2.158705 -4.83398,-4.833985 0,-2.497828 1.90738,-4.46963 4.33398,-4.730469 z m 8,0.230469 v 3 h 14 v -3 z m 1,1 h 12 v 1 h -12 z m -0.82226,5 -0.21485,3 h 14.03711 v -3 z m 0.93164,1 h 11.89062 v 1 h -11.96289 z m -13.10938,7 v 3 h 21 v -3 z m 1,1 h 19 v 1 h -19 z"
       transform="translate(-118.49109,-0.9969)" />
    <path
       id="path4"
       style="fill:url(#linearGradient5);fill-opacity:1;stroke:none"
       d="m 151.80554,7.0008063 -0.004,0.00195 -19.35352,0.00391 c -1.35355,0 -2.45703,1.1084594 -2.45703,2.4648438 V 57.534009 c 0,1.356386 1.10343,2.466797 2.45703,2.466797 h 36.09375 c 1.35354,0 2.45703,-1.110412 2.45703,-2.466797 V 26.1844 c 0,-0.440397 -0.10554,-0.938346 -0.29492,-1.464844 h 0.0625 L 170.41101,23.9969 c -0.0264,-0.05334 -0.0597,-0.108424 -0.0879,-0.162109 l -0.0586,-0.119141 h -0.006 c -0.33871,-0.618687 -0.78994,-1.252302 -1.38672,-1.849609 l -0.002,-0.002 L 156.26648,9.15315 c -0.67176,-0.8348308 -1.43074,-1.3609223 -2.1543,-1.6796875 l -0.0859,-0.037109 -0.0312,-0.00195 C 153.21051,7.101462 152.46973,7.0008098 151.9111,7.0008098 Z m 0.11524,1.0019531 c 0.37972,7.572e-4 0.91295,0.1248404 1.44726,0.3105469 V 22.248853 c 0,1.230404 0.91077,2.249356 2.08985,2.429688 0.14074,0.02482 0.28595,0.04102 0.43359,0.04102 h 13.69336 c 0.23563,0.562366 0.41406,1.11789 0.41406,1.464844 v 31.349609 c 0,0.822556 -0.64278,1.466797 -1.45703,1.466797 h -36.09375 c -0.81435,0 -1.45703,-0.644183 -1.45703,-1.466797 V 9.4715094 c 0,-0.8225555 0.64277,-1.4667969 1.45703,-1.4667969 z m 2.4707,0.9238281 c 0.38082,0.2545631 0.76637,0.4323997 1.12695,0.8886719 l 0.0176,0.021484 12.62695,12.7343756 c 0.37193,0.371985 0.57528,0.759428 0.82813,1.144531 h -13.16602 c -0.0603,0 -0.11757,-0.01071 -0.17578,-0.01758 -0.72125,-0.113118 -1.2578,-0.723307 -1.25781,-1.480469 z M 142.65515,31.09065 c -3.21562,0 -5.83398,2.616152 -5.83398,5.832031 0,3.21572 2.61852,5.833985 5.83398,5.833985 3.21562,0 5.83203,-2.618106 5.83203,-5.833985 v -0.5 h -5.33203 V 31.09065 Z m -0.5,1.101562 v 5.230469 h 5.23242 c -0.26041,2.427321 -2.2346,4.333985 -4.73242,4.333985 -2.67494,0 -4.83398,-2.158705 -4.83398,-4.833985 0,-2.497828 1.90738,-4.46963 4.33398,-4.730469 z m 8,0.230469 v 3 h 14 v -3 z m 1,1 h 12 v 1 h -12 z m -0.82226,5 -0.21485,3 h 14.03711 v -3 z m 0.93164,1 h 11.89062 v 1 h -11.96289 z m -13.10938,7 v 3 h 21 v -3 z m 1,1 h 19 v 1 h -19 z"
       transform="translate(-118.49109,-0.9969)" />
  </g>
</svg>
