<?xml version="1.0" encoding="UTF-8" standalone="no"?>
<svg
   width="43.546024"
   height="55.538212"
   version="1.1"
   viewBox="0 0 43.546024 55.538212"
   id="svg3"
   xmlns:xlink="http://www.w3.org/1999/xlink"
   xmlns="http://www.w3.org/2000/svg"
   xmlns:svg="http://www.w3.org/2000/svg">
  <defs
     id="defs3">
    <linearGradient
       id="linearGradient22">
      <stop
         style="stop-color:#00abff;stop-opacity:0;"
         offset="0"
         id="stop23" />
      <stop
         style="stop-color:#00abff;stop-opacity:1;"
         offset="1"
         id="stop22" />
    </linearGradient>
    <linearGradient
       xlink:href="#linearGradient22"
       id="linearGradient23"
       x1="149.45383"
       y1="65.000099"
       x2="149.45383"
       y2="24.536331"
       gradientUnits="userSpaceOnUse" />
    <filter
       style="color-interpolation-filters:sRGB"
       id="filter23"
       x="-0.030947896"
       y="-0.023945386"
       width="1.0618958"
       height="1.0478908">
      <feGaussianBlur
         stdDeviation="0.52879393"
         id="feGaussianBlur23" />
    </filter>
  </defs>
  <g
     id="g23"
     transform="translate(-10.222995,-4.7308946)">
    <path
       id="path1"
       style="display:inline;opacity:0.6;fill:#00abff;fill-opacity:1;stroke:none;filter:url(#filter23)"
       d="m 151.80394,7.0001 -0.004,0.00195 -19.35351,0.00391 c -1.35355,0 -2.45703,1.1084593 -2.45703,2.4648437 V 57.533303 c 0,1.356386 1.10343,2.466797 2.45703,2.466797 h 36.09375 c 1.35354,0 2.45703,-1.110412 2.45703,-2.466797 V 26.183694 c 0,-0.440775 -0.10327,-0.93784 -0.29297,-1.464844 h 0.0606 l -0.35547,-0.722656 c -0.0256,-0.05172 -0.0587,-0.104197 -0.0859,-0.15625 l -0.0605,-0.125 h -0.008 c -0.33862,-0.618179 -0.7885,-1.252822 -1.38476,-1.84961 l -0.002,-0.002 L 156.26488,9.1524437 C 155.67159,8.4151755 155.0115,7.918962 154.36644,7.59385 154.28114,7.550863 154.19507,7.50998 154.11058,7.4727562 l -0.0859,-0.037109 -0.0312,-0.00195 C 153.20882,7.1007523 152.46804,7.0001 151.90941,7.0001 Z m 0.11523,1.0019531 c 0.37972,7.572e-4 0.91296,0.1248404 1.44727,0.3105469 v 13.935547 c 0,1.22231 0.89866,2.235584 2.06641,2.425781 0.12731,0.02382 0.25744,0.03746 0.39062,0.04102 0.0224,5.98e-4 0.0439,0.0039 0.0664,0.0039 h 13.69336 c 0.23563,0.562366 0.41406,1.117889 0.41406,1.464844 v 31.349609 c 0,0.822556 -0.64278,1.466797 -1.45703,1.466797 h -36.09375 c -0.81435,0 -1.45703,-0.644183 -1.45703,-1.466797 V 9.4708031 c 0,-0.8225555 0.64277,-1.4667967 1.45703,-1.4667969 z m 2.47071,0.9238281 c 0.38082,0.2545633 0.76637,0.4323997 1.12695,0.8886719 l 0.0176,0.021484 12.62695,12.7343749 c 0.37192,0.371984 0.57528,0.75943 0.82813,1.144532 h -13.16602 c -0.0687,0 -0.13319,-0.01063 -0.19922,-0.01953 -0.70854,-0.123274 -1.23436,-0.730184 -1.23437,-1.478515 z M 139.68675,29.328225 c -0.90035,0.01064 -1.50781,0.193359 -1.50781,0.193359 l -0.38281,0.109375 0.11523,0.382813 c 0,0 0.40378,1.272506 1.19531,2.498047 0.39577,0.612778 0.89212,1.225391 1.51172,1.662109 0.59259,0.417715 1.31746,0.65856 2.11719,0.556641 0.0642,0.603493 0.16163,1.207499 0.27149,1.779297 0.27951,1.45489 0.58935,2.477808 0.73828,2.949218 -0.21634,0.548935 -0.44297,1.1439 -0.66993,1.800782 -0.76127,2.203369 -1.48163,4.776013 -1.14648,6.541015 0.28997,1.52718 0.89292,2.776796 1.91211,3.701172 -0.1797,0.780229 -0.18439,1.458859 0.0273,2.023438 0.22223,0.592614 0.6952,1.02606 1.31641,1.251953 1.2133,0.4412 3.00728,0.181436 5.30664,-0.56836 2.30305,0.751753 4.0999,1.010017 5.31445,0.56836 0.62119,-0.225875 1.09616,-0.659339 1.31836,-1.251953 0.21131,-0.563541 0.20247,-1.241148 0.0234,-2.019532 1.02273,-0.924848 1.62943,-2.175073 1.91992,-3.705078 0.33508,-1.765001 -0.38715,-4.337647 -1.14844,-6.541015 -0.22694,-0.656858 -0.45358,-1.251902 -0.66992,-1.800782 0.14893,-0.47141 0.46073,-1.496283 0.74024,-2.951171 0.10985,-0.571806 0.20533,-1.173913 0.26953,-1.777344 0.7984,0.100348 1.52577,-0.139735 2.11719,-0.556641 0.61956,-0.436733 1.11003,-1.051291 1.50586,-1.664062 0.79149,-1.225541 1.19531,-2.496094 1.19531,-2.496094 l 0.12109,-0.382813 -0.38281,-0.109375 c 0,0 -0.7952,-0.2375 -1.91211,-0.185547 -0.98097,0.04563 -2.20849,0.31669 -3.35742,1.158204 -0.23973,-0.283246 -0.53171,-0.522258 -0.84766,-0.707032 -0.48879,-0.285826 -1.02295,-0.457031 -1.51367,-0.457031 -0.8469,0 -1.4775,0.177268 -2.15039,0.341797 -0.67289,0.164524 -1.40207,0.324219 -2.53711,0.324219 -1.13512,0 -1.86422,-0.159695 -2.53711,-0.324219 -0.67299,-0.164524 -1.30341,-0.341797 -2.15039,-0.341797 -0.49074,0 -1.02492,0.171211 -1.51367,0.457031 -0.31599,0.184773 -0.60796,0.423793 -0.84766,0.707032 -1.14893,-0.84149 -2.37653,-1.112523 -3.35742,-1.158204 -0.13961,-0.0065 -0.27567,-0.0093 -0.4043,-0.0078 z m 0.38672,0.771484 c 0.81269,0.01413 1.88952,0.253046 2.96875,1.080078 -0.3297,0.796359 -0.41484,1.767808 -0.36523,2.777344 -0.60398,0.08928 -1.12079,-0.08275 -1.60742,-0.425781 -0.49765,-0.350787 -0.94731,-0.884039 -1.3086,-1.443359 -0.58283,-0.902398 -0.76909,-1.531417 -0.88672,-1.865235 0.23252,-0.0514 0.65755,-0.132466 1.19922,-0.123047 z m 20.84766,0 c 0.54171,-0.0094 0.96673,0.07165 1.19922,0.123047 -0.11754,0.333566 -0.30964,0.962602 -0.89258,1.865235 -0.36125,0.559335 -0.80503,1.092588 -1.30274,1.443359 -0.48659,0.343001 -1.00156,0.515016 -1.60546,0.425781 0.0496,-1.009459 -0.0356,-1.981064 -0.36524,-2.777344 1.07908,-0.826656 2.15419,-1.06595 2.9668,-1.080078 z m -15.11133,0.0059 c 0.73748,0 1.27562,0.155717 1.96484,0.324218 0.68922,0.168504 1.51352,0.341797 2.72266,0.341797 1.20906,0 2.03344,-0.173286 2.72266,-0.341797 0.68918,-0.168502 1.22735,-0.324218 1.96484,-0.324218 0.29067,0 0.73245,0.127409 1.11914,0.353515 0.38667,0.226104 0.71743,0.551613 0.87305,0.876953 0.53441,1.11754 0.38783,3.232358 0.043,5.027344 -0.14017,0.729673 -0.3027,1.372849 -0.44922,1.919922 -0.2454,-0.576508 -0.44922,-1.033203 -0.44922,-1.033203 a 0.39073838,0.39073838 0 0 0 -0.37695,-0.232422 0.39073838,0.39073838 0 0 0 -0.33008,0.5625 c 0,0 0.35807,0.793374 0.80664,1.916016 -0.005,0.01537 -0.043,0.142578 -0.043,0.142578 l 0.11523,0.03711 c 0.22009,0.557294 0.45031,1.162722 0.6836,1.837891 0.74652,2.16067 1.38499,4.74216 1.11914,6.142578 -0.40288,2.121897 -1.28467,3.460592 -3.25586,4.240234 -0.19704,0.0779 -0.60256,0.111825 -1.07031,0.06445 -0.46779,-0.04734 -0.99894,-0.157952 -1.4961,-0.283204 -0.85719,-0.215973 -1.39779,-0.418405 -1.58789,-0.486328 V 46.21885 c 0.31188,-0.121215 1.45996,-1.134147 2.56055,-2.914062 -0.0477,0.183928 -0.0866,0.403483 -0.13867,0.544921 -0.0554,0.150643 -0.11538,0.270325 -0.15625,0.330079 -0.013,0.01899 -0.0134,0.01792 -0.0176,0.02148 a 0.39073838,0.39073838 0 0 0 0.17383,0.759766 c 0.24736,-0.03803 0.39127,-0.194216 0.49218,-0.341797 0.10093,-0.147588 0.17554,-0.317398 0.24414,-0.503907 0.13721,-0.373015 0.24196,-0.825337 0.33008,-1.273437 0.17446,-0.887249 0.26376,-1.732575 0.26563,-1.75 2e-5,-1.77e-4 0.008,-0.01758 0.008,-0.01758 a 0.39210292,0.39210292 0 0 0 -0.77734,-0.103516 c -0.56508,3.521133 -3.0397,4.498747 -3.37305,4.617188 -0.33637,-0.119681 -2.80644,-1.098722 -3.37109,-4.617188 a 0.3917303,0.3917303 0 0 0 -0.77735,0.09766 c 0,0 0.006,0.02314 0.006,0.02344 h -0.006 c 5.5e-4,0.0034 0.005,0.0025 0.006,0.0059 0.003,0.02809 0.0794,0.844184 0.24414,1.708985 0.0838,0.439787 0.19005,0.884622 0.32422,1.251953 0.0671,0.183661 0.13777,0.345919 0.23828,0.492187 0.10052,0.146252 0.24212,0.304255 0.48633,0.341797 A 0.39084657,0.39084657 0 0 0 147.82183,44.131 c -0.005,-0.0035 -0.005,-0.0017 -0.0176,-0.01953 -0.0394,-0.05731 -0.0967,-0.171377 -0.15039,-0.318359 -0.0501,-0.137235 -0.0891,-0.348566 -0.13477,-0.527344 1.09816,1.804956 2.26743,2.824019 2.58594,2.951172 v 4.974609 c -0.19221,0.06876 -0.72849,0.271275 -1.58203,0.486328 -0.49719,0.12525 -1.03415,0.235857 -1.50195,0.283204 -0.46778,0.04734 -0.86932,0.01358 -1.06641,-0.06445 -1.97128,-0.779758 -2.85297,-2.118417 -3.25586,-4.240234 -0.26588,-1.400417 0.37261,-3.981907 1.11914,-6.142578 0.23329,-0.675208 0.46546,-1.280613 0.68555,-1.837891 l 0.11328,-0.03906 c 0,0 -0.0361,-0.123667 -0.041,-0.138672 0.44883,-1.123426 0.80665,-1.917969 0.80665,-1.917969 a 0.39073838,0.39073838 0 0 0 -0.3418,-0.5625 0.39073838,0.39073838 0 0 0 -0.36524,0.232422 c 0,0 -0.20628,0.45795 -0.45117,1.033203 -0.14641,-0.546769 -0.30722,-1.190986 -0.44726,-1.919922 -0.34486,-1.794985 -0.4934,-3.911837 0.041,-5.029297 0.1556,-0.325372 0.48636,-0.648917 0.87305,-0.875 0.38667,-0.226105 0.82849,-0.353515 1.11914,-0.353515 z m 1.53711,2.99414 c -0.0957,-0.003 -0.1935,-0.0028 -0.29297,0.002 -0.37423,0.01785 -0.77102,0.103168 -1.16797,0.27539 a 0.39073838,0.39073838 0 0 0 -0.0625,0.01758 h 0.0137 c -0.009,0.004 -0.0186,0.0037 -0.0273,0.0078 a 0.39073838,0.39073838 0 0 0 -0.22656,0.353515 c 5.5e-4,0.279793 0.0379,0.809077 0.24414,1.34375 0.20627,0.534674 0.63382,1.113625 1.36719,1.22461 0.4166,0.06307 0.80456,-0.08472 1.08398,-0.306641 0.27939,-0.221915 0.47586,-0.513041 0.63086,-0.794922 0.27951,-0.508371 0.37624,-0.92346 0.40039,-1.019531 8.6e-4,-0.0013 0.0586,-0.195563 0.0586,-0.197266 5e-5,-0.0017 -0.0247,-0.148335 -0.0254,-0.15039 -7.3e-4,-0.002 -0.026,-0.06118 -0.0391,-0.08203 -0.0131,-0.02086 -0.0239,-0.03731 -0.0352,-0.05078 -0.045,-0.05388 -0.0801,-0.07966 -0.11523,-0.105468 -0.0703,-0.05163 -0.14797,-0.09126 -0.24414,-0.138672 -0.19235,-0.09482 -0.45376,-0.198536 -0.76953,-0.273438 -0.23684,-0.05617 -0.50577,-0.09637 -0.79297,-0.105469 z m 6.30078,0 c -0.2872,0.0091 -0.55419,0.04929 -0.79102,0.105469 -0.31576,0.07489 -0.57913,0.178614 -0.77148,0.273438 -0.0962,0.04741 -0.17379,0.08704 -0.24414,0.138672 -0.0352,0.02581 -0.0703,0.0516 -0.11523,0.105468 -0.0112,0.01347 -0.0221,0.02992 -0.0352,0.05078 -0.0131,0.02085 -0.0383,0.07998 -0.0391,0.08203 -7.4e-4,0.002 -0.0235,0.148679 -0.0234,0.15039 4e-5,0.0017 0.0558,0.195925 0.0566,0.197266 0.0241,0.09607 0.12087,0.511183 0.40039,1.019531 0.155,0.281897 0.35147,0.573024 0.63086,0.794922 0.27939,0.221898 0.66156,0.369708 1.07812,0.306641 0.73337,-0.111001 1.16678,-0.689936 1.37305,-1.22461 0.20627,-0.534665 0.24358,-1.063934 0.24414,-1.34375 a 0.39073838,0.39073838 0 0 0 -0.22656,-0.353515 c -0.42183,-0.19598 -0.8462,-0.281803 -1.24414,-0.300781 -0.0995,-0.0047 -0.19723,-0.005 -0.29297,-0.002 z m -6.03516,0.816407 c 0.1218,0.0066 0.2396,0.02321 0.34766,0.04883 0.22894,0.0543 0.40438,0.129389 0.53906,0.191406 -0.0476,0.163698 -0.0914,0.358382 -0.27343,0.689453 -0.12391,0.22536 -0.27721,0.432423 -0.4336,0.556641 -0.15639,0.124226 -0.28693,0.172944 -0.47461,0.144531 -0.39875,-0.06035 -0.60857,-0.332677 -0.75976,-0.724609 -0.10439,-0.270594 -0.11124,-0.504666 -0.13282,-0.736328 0.40711,-0.126409 0.82206,-0.189615 1.1875,-0.169922 z m 5.76954,0 c 0.3654,-0.0197 0.78236,0.04351 1.18945,0.169922 -0.0216,0.231662 -0.0284,0.465734 -0.13281,0.736328 -0.15119,0.391924 -0.36102,0.66425 -0.75977,0.724609 -0.18768,0.02841 -0.31822,-0.02031 -0.47461,-0.144531 -0.15639,-0.124218 -0.31163,-0.331288 -0.43555,-0.556641 -0.18203,-0.33107 -0.22386,-0.525754 -0.27148,-0.689453 0.13456,-0.06167 0.31011,-0.137559 0.53711,-0.191406 0.10806,-0.02564 0.22585,-0.04226 0.34766,-0.04883 z m -2.88672,17.980468 c 0.17624,0.06301 0.87019,0.309996 1.78711,0.541016 0.52052,0.131153 1.08223,0.245447 1.60937,0.298828 0.52709,0.05337 1.01703,0.05888 1.4375,-0.107422 0.41818,-0.165387 0.78485,-0.369146 1.12695,-0.591797 0.0781,0.508473 0.0515,0.911891 -0.0605,1.210938 -0.14406,0.384143 -0.40418,0.63599 -0.85742,0.800781 -0.90649,0.329634 -2.61279,0.17726 -4.91993,-0.591797 l -0.12109,-0.04101 -0.12695,0.04101 c -2.30721,0.769046 -4.01149,0.921446 -4.91797,0.591797 -0.45324,-0.164824 -0.7095,-0.416662 -0.85352,-0.800781 -0.11232,-0.299551 -0.14356,-0.705006 -0.0664,-1.214844 0.34335,0.223889 0.71275,0.429557 1.13281,0.595703 0.42051,0.166307 0.91044,0.16079 1.4375,0.107422 0.52709,-0.05336 1.08883,-0.167693 1.60937,-0.298828 0.91637,-0.23086 1.60731,-0.477777 1.78321,-0.541016 z"
       transform="translate(-118.4973,-1.0001)" />
    <path
       id="path22"
       style="fill:url(#linearGradient23);fill-opacity:1;stroke:none"
       d="m 151.80394,7.0001 -0.004,0.00195 -19.35351,0.00391 c -1.35355,0 -2.45703,1.1084593 -2.45703,2.4648437 V 57.533303 c 0,1.356386 1.10343,2.466797 2.45703,2.466797 h 36.09375 c 1.35354,0 2.45703,-1.110412 2.45703,-2.466797 V 26.183694 c 0,-0.440775 -0.10327,-0.93784 -0.29297,-1.464844 h 0.0606 l -0.35547,-0.722656 c -0.0256,-0.05172 -0.0587,-0.104197 -0.0859,-0.15625 l -0.0605,-0.125 h -0.008 c -0.33862,-0.618179 -0.7885,-1.252822 -1.38476,-1.84961 l -0.002,-0.002 L 156.26488,9.1524437 C 155.67159,8.4151755 155.0115,7.918962 154.36644,7.59385 154.28114,7.550863 154.19507,7.50998 154.11058,7.4727562 l -0.0859,-0.037109 -0.0312,-0.00195 C 153.20882,7.1007523 152.46804,7.0001 151.90941,7.0001 Z m 0.11523,1.0019531 c 0.37972,7.572e-4 0.91296,0.1248404 1.44727,0.3105469 v 13.935547 c 0,1.22231 0.89866,2.235584 2.06641,2.425781 0.12731,0.02382 0.25744,0.03746 0.39062,0.04102 0.0224,5.98e-4 0.0439,0.0039 0.0664,0.0039 h 13.69336 c 0.23563,0.562366 0.41406,1.117889 0.41406,1.464844 v 31.349609 c 0,0.822556 -0.64278,1.466797 -1.45703,1.466797 h -36.09375 c -0.81435,0 -1.45703,-0.644183 -1.45703,-1.466797 V 9.4708031 c 0,-0.8225555 0.64277,-1.4667967 1.45703,-1.4667969 z m 2.47071,0.9238281 c 0.38082,0.2545633 0.76637,0.4323997 1.12695,0.8886719 l 0.0176,0.021484 12.62695,12.7343749 c 0.37192,0.371984 0.57528,0.75943 0.82813,1.144532 h -13.16602 c -0.0687,0 -0.13319,-0.01063 -0.19922,-0.01953 -0.70854,-0.123274 -1.23436,-0.730184 -1.23437,-1.478515 z M 139.68675,29.328225 c -0.90035,0.01064 -1.50781,0.193359 -1.50781,0.193359 l -0.38281,0.109375 0.11523,0.382813 c 0,0 0.40378,1.272506 1.19531,2.498047 0.39577,0.612778 0.89212,1.225391 1.51172,1.662109 0.59259,0.417715 1.31746,0.65856 2.11719,0.556641 0.0642,0.603493 0.16163,1.207499 0.27149,1.779297 0.27951,1.45489 0.58935,2.477808 0.73828,2.949218 -0.21634,0.548935 -0.44297,1.1439 -0.66993,1.800782 -0.76127,2.203369 -1.48163,4.776013 -1.14648,6.541015 0.28997,1.52718 0.89292,2.776796 1.91211,3.701172 -0.1797,0.780229 -0.18439,1.458859 0.0273,2.023438 0.22223,0.592614 0.6952,1.02606 1.31641,1.251953 1.2133,0.4412 3.00728,0.181436 5.30664,-0.56836 2.30305,0.751753 4.0999,1.010017 5.31445,0.56836 0.62119,-0.225875 1.09616,-0.659339 1.31836,-1.251953 0.21131,-0.563541 0.20247,-1.241148 0.0234,-2.019532 1.02273,-0.924848 1.62943,-2.175073 1.91992,-3.705078 0.33508,-1.765001 -0.38715,-4.337647 -1.14844,-6.541015 -0.22694,-0.656858 -0.45358,-1.251902 -0.66992,-1.800782 0.14893,-0.47141 0.46073,-1.496283 0.74024,-2.951171 0.10985,-0.571806 0.20533,-1.173913 0.26953,-1.777344 0.7984,0.100348 1.52577,-0.139735 2.11719,-0.556641 0.61956,-0.436733 1.11003,-1.051291 1.50586,-1.664062 0.79149,-1.225541 1.19531,-2.496094 1.19531,-2.496094 l 0.12109,-0.382813 -0.38281,-0.109375 c 0,0 -0.7952,-0.2375 -1.91211,-0.185547 -0.98097,0.04563 -2.20849,0.31669 -3.35742,1.158204 -0.23973,-0.283246 -0.53171,-0.522258 -0.84766,-0.707032 -0.48879,-0.285826 -1.02295,-0.457031 -1.51367,-0.457031 -0.8469,0 -1.4775,0.177268 -2.15039,0.341797 -0.67289,0.164524 -1.40207,0.324219 -2.53711,0.324219 -1.13512,0 -1.86422,-0.159695 -2.53711,-0.324219 -0.67299,-0.164524 -1.30341,-0.341797 -2.15039,-0.341797 -0.49074,0 -1.02492,0.171211 -1.51367,0.457031 -0.31599,0.184773 -0.60796,0.423793 -0.84766,0.707032 -1.14893,-0.84149 -2.37653,-1.112523 -3.35742,-1.158204 -0.13961,-0.0065 -0.27567,-0.0093 -0.4043,-0.0078 z m 0.38672,0.771484 c 0.81269,0.01413 1.88952,0.253046 2.96875,1.080078 -0.3297,0.796359 -0.41484,1.767808 -0.36523,2.777344 -0.60398,0.08928 -1.12079,-0.08275 -1.60742,-0.425781 -0.49765,-0.350787 -0.94731,-0.884039 -1.3086,-1.443359 -0.58283,-0.902398 -0.76909,-1.531417 -0.88672,-1.865235 0.23252,-0.0514 0.65755,-0.132466 1.19922,-0.123047 z m 20.84766,0 c 0.54171,-0.0094 0.96673,0.07165 1.19922,0.123047 -0.11754,0.333566 -0.30964,0.962602 -0.89258,1.865235 -0.36125,0.559335 -0.80503,1.092588 -1.30274,1.443359 -0.48659,0.343001 -1.00156,0.515016 -1.60546,0.425781 0.0496,-1.009459 -0.0356,-1.981064 -0.36524,-2.777344 1.07908,-0.826656 2.15419,-1.06595 2.9668,-1.080078 z m -15.11133,0.0059 c 0.73748,0 1.27562,0.155717 1.96484,0.324218 0.68922,0.168504 1.51352,0.341797 2.72266,0.341797 1.20906,0 2.03344,-0.173286 2.72266,-0.341797 0.68918,-0.168502 1.22735,-0.324218 1.96484,-0.324218 0.29067,0 0.73245,0.127409 1.11914,0.353515 0.38667,0.226104 0.71743,0.551613 0.87305,0.876953 0.53441,1.11754 0.38783,3.232358 0.043,5.027344 -0.14017,0.729673 -0.3027,1.372849 -0.44922,1.919922 -0.2454,-0.576508 -0.44922,-1.033203 -0.44922,-1.033203 a 0.39073838,0.39073838 0 0 0 -0.37695,-0.232422 0.39073838,0.39073838 0 0 0 -0.33008,0.5625 c 0,0 0.35807,0.793374 0.80664,1.916016 -0.005,0.01537 -0.043,0.142578 -0.043,0.142578 l 0.11523,0.03711 c 0.22009,0.557294 0.45031,1.162722 0.6836,1.837891 0.74652,2.16067 1.38499,4.74216 1.11914,6.142578 -0.40288,2.121897 -1.28467,3.460592 -3.25586,4.240234 -0.19704,0.0779 -0.60256,0.111825 -1.07031,0.06445 -0.46779,-0.04734 -0.99894,-0.157952 -1.4961,-0.283204 -0.85719,-0.215973 -1.39779,-0.418405 -1.58789,-0.486328 V 46.21885 c 0.31188,-0.121215 1.45996,-1.134147 2.56055,-2.914062 -0.0477,0.183928 -0.0866,0.403483 -0.13867,0.544921 -0.0554,0.150643 -0.11538,0.270325 -0.15625,0.330079 -0.013,0.01899 -0.0134,0.01792 -0.0176,0.02148 a 0.39073838,0.39073838 0 0 0 0.17383,0.759766 c 0.24736,-0.03803 0.39127,-0.194216 0.49218,-0.341797 0.10093,-0.147588 0.17554,-0.317398 0.24414,-0.503907 0.13721,-0.373015 0.24196,-0.825337 0.33008,-1.273437 0.17446,-0.887249 0.26376,-1.732575 0.26563,-1.75 2e-5,-1.77e-4 0.008,-0.01758 0.008,-0.01758 a 0.39210292,0.39210292 0 0 0 -0.77734,-0.103516 c -0.56508,3.521133 -3.0397,4.498747 -3.37305,4.617188 -0.33637,-0.119681 -2.80644,-1.098722 -3.37109,-4.617188 a 0.3917303,0.3917303 0 0 0 -0.77735,0.09766 c 0,0 0.006,0.02314 0.006,0.02344 h -0.006 c 5.5e-4,0.0034 0.005,0.0025 0.006,0.0059 0.003,0.02809 0.0794,0.844184 0.24414,1.708985 0.0838,0.439787 0.19005,0.884622 0.32422,1.251953 0.0671,0.183661 0.13777,0.345919 0.23828,0.492187 0.10052,0.146252 0.24212,0.304255 0.48633,0.341797 A 0.39084657,0.39084657 0 0 0 147.82183,44.131 c -0.005,-0.0035 -0.005,-0.0017 -0.0176,-0.01953 -0.0394,-0.05731 -0.0967,-0.171377 -0.15039,-0.318359 -0.0501,-0.137235 -0.0891,-0.348566 -0.13477,-0.527344 1.09816,1.804956 2.26743,2.824019 2.58594,2.951172 v 4.974609 c -0.19221,0.06876 -0.72849,0.271275 -1.58203,0.486328 -0.49719,0.12525 -1.03415,0.235857 -1.50195,0.283204 -0.46778,0.04734 -0.86932,0.01358 -1.06641,-0.06445 -1.97128,-0.779758 -2.85297,-2.118417 -3.25586,-4.240234 -0.26588,-1.400417 0.37261,-3.981907 1.11914,-6.142578 0.23329,-0.675208 0.46546,-1.280613 0.68555,-1.837891 l 0.11328,-0.03906 c 0,0 -0.0361,-0.123667 -0.041,-0.138672 0.44883,-1.123426 0.80665,-1.917969 0.80665,-1.917969 a 0.39073838,0.39073838 0 0 0 -0.3418,-0.5625 0.39073838,0.39073838 0 0 0 -0.36524,0.232422 c 0,0 -0.20628,0.45795 -0.45117,1.033203 -0.14641,-0.546769 -0.30722,-1.190986 -0.44726,-1.919922 -0.34486,-1.794985 -0.4934,-3.911837 0.041,-5.029297 0.1556,-0.325372 0.48636,-0.648917 0.87305,-0.875 0.38667,-0.226105 0.82849,-0.353515 1.11914,-0.353515 z m 1.53711,2.99414 c -0.0957,-0.003 -0.1935,-0.0028 -0.29297,0.002 -0.37423,0.01785 -0.77102,0.103168 -1.16797,0.27539 a 0.39073838,0.39073838 0 0 0 -0.0625,0.01758 h 0.0137 c -0.009,0.004 -0.0186,0.0037 -0.0273,0.0078 a 0.39073838,0.39073838 0 0 0 -0.22656,0.353515 c 5.5e-4,0.279793 0.0379,0.809077 0.24414,1.34375 0.20627,0.534674 0.63382,1.113625 1.36719,1.22461 0.4166,0.06307 0.80456,-0.08472 1.08398,-0.306641 0.27939,-0.221915 0.47586,-0.513041 0.63086,-0.794922 0.27951,-0.508371 0.37624,-0.92346 0.40039,-1.019531 8.6e-4,-0.0013 0.0586,-0.195563 0.0586,-0.197266 5e-5,-0.0017 -0.0247,-0.148335 -0.0254,-0.15039 -7.3e-4,-0.002 -0.026,-0.06118 -0.0391,-0.08203 -0.0131,-0.02086 -0.0239,-0.03731 -0.0352,-0.05078 -0.045,-0.05388 -0.0801,-0.07966 -0.11523,-0.105468 -0.0703,-0.05163 -0.14797,-0.09126 -0.24414,-0.138672 -0.19235,-0.09482 -0.45376,-0.198536 -0.76953,-0.273438 -0.23684,-0.05617 -0.50577,-0.09637 -0.79297,-0.105469 z m 6.30078,0 c -0.2872,0.0091 -0.55419,0.04929 -0.79102,0.105469 -0.31576,0.07489 -0.57913,0.178614 -0.77148,0.273438 -0.0962,0.04741 -0.17379,0.08704 -0.24414,0.138672 -0.0352,0.02581 -0.0703,0.0516 -0.11523,0.105468 -0.0112,0.01347 -0.0221,0.02992 -0.0352,0.05078 -0.0131,0.02085 -0.0383,0.07998 -0.0391,0.08203 -7.4e-4,0.002 -0.0235,0.148679 -0.0234,0.15039 4e-5,0.0017 0.0558,0.195925 0.0566,0.197266 0.0241,0.09607 0.12087,0.511183 0.40039,1.019531 0.155,0.281897 0.35147,0.573024 0.63086,0.794922 0.27939,0.221898 0.66156,0.369708 1.07812,0.306641 0.73337,-0.111001 1.16678,-0.689936 1.37305,-1.22461 0.20627,-0.534665 0.24358,-1.063934 0.24414,-1.34375 a 0.39073838,0.39073838 0 0 0 -0.22656,-0.353515 c -0.42183,-0.19598 -0.8462,-0.281803 -1.24414,-0.300781 -0.0995,-0.0047 -0.19723,-0.005 -0.29297,-0.002 z m -6.03516,0.816407 c 0.1218,0.0066 0.2396,0.02321 0.34766,0.04883 0.22894,0.0543 0.40438,0.129389 0.53906,0.191406 -0.0476,0.163698 -0.0914,0.358382 -0.27343,0.689453 -0.12391,0.22536 -0.27721,0.432423 -0.4336,0.556641 -0.15639,0.124226 -0.28693,0.172944 -0.47461,0.144531 -0.39875,-0.06035 -0.60857,-0.332677 -0.75976,-0.724609 -0.10439,-0.270594 -0.11124,-0.504666 -0.13282,-0.736328 0.40711,-0.126409 0.82206,-0.189615 1.1875,-0.169922 z m 5.76954,0 c 0.3654,-0.0197 0.78236,0.04351 1.18945,0.169922 -0.0216,0.231662 -0.0284,0.465734 -0.13281,0.736328 -0.15119,0.391924 -0.36102,0.66425 -0.75977,0.724609 -0.18768,0.02841 -0.31822,-0.02031 -0.47461,-0.144531 -0.15639,-0.124218 -0.31163,-0.331288 -0.43555,-0.556641 -0.18203,-0.33107 -0.22386,-0.525754 -0.27148,-0.689453 0.13456,-0.06167 0.31011,-0.137559 0.53711,-0.191406 0.10806,-0.02564 0.22585,-0.04226 0.34766,-0.04883 z m -2.88672,17.980468 c 0.17624,0.06301 0.87019,0.309996 1.78711,0.541016 0.52052,0.131153 1.08223,0.245447 1.60937,0.298828 0.52709,0.05337 1.01703,0.05888 1.4375,-0.107422 0.41818,-0.165387 0.78485,-0.369146 1.12695,-0.591797 0.0781,0.508473 0.0515,0.911891 -0.0605,1.210938 -0.14406,0.384143 -0.40418,0.63599 -0.85742,0.800781 -0.90649,0.329634 -2.61279,0.17726 -4.91993,-0.591797 l -0.12109,-0.04101 -0.12695,0.04101 c -2.30721,0.769046 -4.01149,0.921446 -4.91797,0.591797 -0.45324,-0.164824 -0.7095,-0.416662 -0.85352,-0.800781 -0.11232,-0.299551 -0.14356,-0.705006 -0.0664,-1.214844 0.34335,0.223889 0.71275,0.429557 1.13281,0.595703 0.42051,0.166307 0.91044,0.16079 1.4375,0.107422 0.52709,-0.05336 1.08883,-0.167693 1.60937,-0.298828 0.91637,-0.23086 1.60731,-0.477777 1.78321,-0.541016 z"
       transform="translate(-118.4973,-1.0001)" />
  </g>
</svg>
