<?xml version="1.0" encoding="UTF-8" standalone="no"?>
<svg
   width="43.546024"
   height="55.538212"
   version="1.1"
   viewBox="0 0 43.546024 55.538212"
   id="svg3"
   xmlns:xlink="http://www.w3.org/1999/xlink"
   xmlns="http://www.w3.org/2000/svg"
   xmlns:svg="http://www.w3.org/2000/svg">
  <defs
     id="defs3">
    <linearGradient
       id="linearGradient16">
      <stop
         style="stop-color:#00abff;stop-opacity:0;"
         offset="0"
         id="stop17" />
      <stop
         style="stop-color:#00abff;stop-opacity:1;"
         offset="1"
         id="stop16" />
    </linearGradient>
    <linearGradient
       xlink:href="#linearGradient16"
       id="linearGradient17"
       x1="149.64168"
       y1="65.000099"
       x2="149.64168"
       y2="26.440386"
       gradientUnits="userSpaceOnUse" />
    <filter
       style="color-interpolation-filters:sRGB"
       id="filter17"
       x="-0.030947896"
       y="-0.023945386"
       width="1.0618958"
       height="1.0478908">
      <feGaussianBlur
         stdDeviation="0.52879393"
         id="feGaussianBlur17" />
    </filter>
  </defs>
  <g
     id="g17"
     transform="translate(-10.222995,-4.7308946)">
    <path
       id="path1"
       style="display:inline;opacity:0.6;fill:#00abff;fill-opacity:1;stroke:none;filter:url(#filter17)"
       d="m 151.80394,7.0001 -0.004,0.00195 -19.35351,0.00391 c -1.35355,0 -2.45703,1.1084593 -2.45703,2.4648437 V 57.533303 c 0,1.356386 1.10343,2.466797 2.45703,2.466797 h 36.09375 c 1.35354,0 2.45703,-1.110412 2.45703,-2.466797 V 26.183694 c 0,-0.440775 -0.10327,-0.93784 -0.29297,-1.464844 h 0.0606 l -0.35547,-0.722656 c -0.0256,-0.05172 -0.0587,-0.104197 -0.0859,-0.15625 l -0.0605,-0.125 h -0.008 c -0.33862,-0.618179 -0.7885,-1.252822 -1.38476,-1.84961 l -0.002,-0.002 L 156.26488,9.1524437 C 155.67159,8.4151755 155.0115,7.918962 154.36644,7.59385 154.28114,7.550863 154.19507,7.50998 154.11058,7.4727562 l -0.0859,-0.037109 -0.0312,-0.00195 C 153.20882,7.1007523 152.46804,7.0001 151.90941,7.0001 Z m 0.11523,1.0019531 c 0.37972,7.572e-4 0.91296,0.1248404 1.44727,0.3105469 v 13.935547 c 0,1.22231 0.89866,2.235584 2.06641,2.425781 0.12731,0.02382 0.25744,0.03746 0.39062,0.04102 0.0224,5.98e-4 0.0439,0.0039 0.0664,0.0039 h 13.69336 c 0.23563,0.562366 0.41406,1.117889 0.41406,1.464844 v 31.349609 c 0,0.822556 -0.64278,1.466797 -1.45703,1.466797 h -36.09375 c -0.81435,0 -1.45703,-0.644183 -1.45703,-1.466797 V 9.4708031 c 0,-0.8225555 0.64277,-1.4667967 1.45703,-1.4667969 z m 2.47071,0.9238281 c 0.38082,0.2545633 0.76637,0.4323997 1.12695,0.8886719 l 0.0176,0.021484 12.62695,12.7343749 c 0.37192,0.371984 0.57528,0.75943 0.82813,1.144532 h -13.16602 c -0.0687,0 -0.13319,-0.01063 -0.19922,-0.01953 -0.70854,-0.123274 -1.23436,-0.730184 -1.23437,-1.478515 z m -1.81836,19.9238278 c 0.86829,3.420624 -3.06369,4.453664 -4.48242,6.583985 -0.96613,1.451468 0.47374,3.009594 2.4375,4.78125 -0.76578,-1.731091 -3.36182,-3.245512 0.002,-5.902344 4.19461,-3.31099 2.04297,-5.462891 2.04297,-5.462891 z m 2.59375,4.230469 c -0.002,0.0013 -0.004,0.0026 -0.006,0.0039 9e-5,-2.2e-5 0.006,-0.002 0.006,-0.002 z m -0.006,0.0039 c -0.0353,0.0088 -7.07821,1.778259 -3.69922,5.671875 1.00001,1.151119 -0.26172,2.185547 -0.26172,2.185547 0,0 2.53821,-1.310112 1.37305,-2.951172 -1.08813,-1.528888 -1.92335,-2.288955 2.58789,-4.90625 z m 1.26172,6.96875 c -0.24921,8.29e-4 -0.51368,0.04524 -0.78516,0.140625 -0.21765,0.07706 -0.33203,0.25586 -0.33203,0.25586 0,0 0.13852,-0.05511 0.44531,-0.119141 1.25465,-0.261428 3.05156,1.679655 -0.83593,3.699219 -0.018,0.04814 -0.0762,0.101562 -0.0762,0.101562 4.62322,-1.215361 3.61344,-4.082041 1.58399,-4.078125 z M 148.093,40.2501 c -0.30452,-0.0071 -1.62204,0.01238 -3.19531,0.773438 -2.12693,1.028432 5.25954,1.498092 9.08398,0.492187 0.39762,-0.271347 0.94727,-0.507812 0.94727,-0.507812 0,0 -1.5645,0.279351 -3.12305,0.410156 -1.90771,0.160042 -3.95328,0.19214 -4.98047,0.05469 -2.43207,-0.325148 1.33399,-1.21875 1.33399,-1.21875 0,0 -0.0229,-0.0031 -0.0664,-0.0039 z m -0.81054,2.353516 c -3.5086,1.164459 1.95197,2.487078 6.85546,1.052734 -0.521,-0.183666 -0.85156,-0.521484 -0.85156,-0.521484 -2.39752,0.461408 -3.78294,0.446706 -5.53711,0.265625 -1.35613,-0.140151 -0.46679,-0.796875 -0.46679,-0.796875 z m 0.49609,2.267578 c -3.18569,0.890136 1.93771,2.730144 5.99414,0.992187 -0.66436,-0.258165 -1.14062,-0.55664 -1.14062,-0.55664 -1.80888,0.341905 -2.6491,0.36909 -4.29102,0.18164 -1.35512,-0.155421 -0.5625,-0.617187 -0.5625,-0.617187 z m -2.21289,1.503906 c -1.43064,0.04414 -4.22863,1.330863 -1.66992,1.746094 8.26964,1.34045 15.07462,-0.602546 12.92968,-1.570313 0,0 0.58452,0.482004 -0.64648,0.855469 -2.34077,0.709001 -9.74433,0.92377 -11.80078,0.0293 -0.73871,-0.321755 0.64792,-0.769099 1.08398,-0.863281 0.45468,-0.09836 0.71485,-0.08008 0.71485,-0.08008 -0.12846,-0.09045 -0.34641,-0.125358 -0.61133,-0.117189 z m 12.57226,1.230469 c 0,0 -0.26129,0.668192 -3.08398,1.199219 -3.18465,0.59955 -7.11218,0.531043 -9.44141,0.146484 0,0 0.47574,0.39491 2.92774,0.552734 3.73073,0.238509 9.46192,-0.132967 9.59765,-1.898437 z m -15.5,4.152344 v 0.609375 h 1.0586 v 3.269531 c 0,0.359375 -0.0781,0.632812 -0.23438,0.820312 -0.15625,0.184896 -0.36979,0.277344 -0.64062,0.277344 -0.2474,0 -0.45313,-0.08464 -0.61719,-0.253906 -0.16406,-0.169271 -0.26953,-0.404948 -0.31641,-0.707031 l -0.73046,0.121093 c 0.17447,0.963542 0.72786,1.445313 1.66015,1.445313 0.50261,0 0.89844,-0.152344 1.1875,-0.457031 0.28907,-0.307292 0.4336,-0.727865 0.4336,-1.261719 v -3.863281 z m 4.65625,0 -2.24609,5.503906 h 0.77344 l 0.63281,-1.609375 h 2.50781 l 0.62891,1.609375 h 0.76172 l -2.21094,-5.503906 z m 2.51563,0 2.24609,5.503906 h 0.77344 l 2.24609,-5.503906 h -0.78515 l -1.51563,3.875 -0.32812,0.972656 -0.32813,-0.972656 -1.52343,-3.875 z m 6.96875,0 -2.24609,5.503906 h 0.77343 l 0.63282,-1.609375 h 2.50781 l 0.6289,1.609375 h 0.76172 l -2.21093,-5.503906 z m -9.07031,0.5625 0.10547,0.324218 c 0.0729,0.226563 0.14583,0.429688 0.21875,0.609375 l 0.70703,1.816407 h -2.0586 l 0.70313,-1.808594 c 0.1276,-0.338542 0.22395,-0.615885 0.28906,-0.832031 z m 9.48437,0 0.10547,0.324218 c 0.0729,0.226563 0.14583,0.429688 0.21875,0.609375 l 0.70703,1.816407 h -2.05859 l 0.70312,-1.808594 c 0.12761,-0.338542 0.22396,-0.615885 0.28907,-0.832031 z"
       transform="translate(-118.4973,-1.0001)" />
    <path
       id="path16"
       style="fill:url(#linearGradient17);fill-opacity:1;stroke:none"
       d="m 151.80394,7.0001 -0.004,0.00195 -19.35351,0.00391 c -1.35355,0 -2.45703,1.1084593 -2.45703,2.4648437 V 57.533303 c 0,1.356386 1.10343,2.466797 2.45703,2.466797 h 36.09375 c 1.35354,0 2.45703,-1.110412 2.45703,-2.466797 V 26.183694 c 0,-0.440775 -0.10327,-0.93784 -0.29297,-1.464844 h 0.0606 l -0.35547,-0.722656 c -0.0256,-0.05172 -0.0587,-0.104197 -0.0859,-0.15625 l -0.0605,-0.125 h -0.008 c -0.33862,-0.618179 -0.7885,-1.252822 -1.38476,-1.84961 l -0.002,-0.002 L 156.26488,9.1524437 C 155.67159,8.4151755 155.0115,7.918962 154.36644,7.59385 154.28114,7.550863 154.19507,7.50998 154.11058,7.4727562 l -0.0859,-0.037109 -0.0312,-0.00195 C 153.20882,7.1007523 152.46804,7.0001 151.90941,7.0001 Z m 0.11523,1.0019531 c 0.37972,7.572e-4 0.91296,0.1248404 1.44727,0.3105469 v 13.935547 c 0,1.22231 0.89866,2.235584 2.06641,2.425781 0.12731,0.02382 0.25744,0.03746 0.39062,0.04102 0.0224,5.98e-4 0.0439,0.0039 0.0664,0.0039 h 13.69336 c 0.23563,0.562366 0.41406,1.117889 0.41406,1.464844 v 31.349609 c 0,0.822556 -0.64278,1.466797 -1.45703,1.466797 h -36.09375 c -0.81435,0 -1.45703,-0.644183 -1.45703,-1.466797 V 9.4708031 c 0,-0.8225555 0.64277,-1.4667967 1.45703,-1.4667969 z m 2.47071,0.9238281 c 0.38082,0.2545633 0.76637,0.4323997 1.12695,0.8886719 l 0.0176,0.021484 12.62695,12.7343749 c 0.37192,0.371984 0.57528,0.75943 0.82813,1.144532 h -13.16602 c -0.0687,0 -0.13319,-0.01063 -0.19922,-0.01953 -0.70854,-0.123274 -1.23436,-0.730184 -1.23437,-1.478515 z m -1.81836,19.9238278 c 0.86829,3.420624 -3.06369,4.453664 -4.48242,6.583985 -0.96613,1.451468 0.47374,3.009594 2.4375,4.78125 -0.76578,-1.731091 -3.36182,-3.245512 0.002,-5.902344 4.19461,-3.31099 2.04297,-5.462891 2.04297,-5.462891 z m 2.59375,4.230469 c -0.002,0.0013 -0.004,0.0026 -0.006,0.0039 9e-5,-2.2e-5 0.006,-0.002 0.006,-0.002 z m -0.006,0.0039 c -0.0353,0.0088 -7.07821,1.778259 -3.69922,5.671875 1.00001,1.151119 -0.26172,2.185547 -0.26172,2.185547 0,0 2.53821,-1.310112 1.37305,-2.951172 -1.08813,-1.528888 -1.92335,-2.288955 2.58789,-4.90625 z m 1.26172,6.96875 c -0.24921,8.29e-4 -0.51368,0.04524 -0.78516,0.140625 -0.21765,0.07706 -0.33203,0.25586 -0.33203,0.25586 0,0 0.13852,-0.05511 0.44531,-0.119141 1.25465,-0.261428 3.05156,1.679655 -0.83593,3.699219 -0.018,0.04814 -0.0762,0.101562 -0.0762,0.101562 4.62322,-1.215361 3.61344,-4.082041 1.58399,-4.078125 z M 148.093,40.2501 c -0.30452,-0.0071 -1.62204,0.01238 -3.19531,0.773438 -2.12693,1.028432 5.25954,1.498092 9.08398,0.492187 0.39762,-0.271347 0.94727,-0.507812 0.94727,-0.507812 0,0 -1.5645,0.279351 -3.12305,0.410156 -1.90771,0.160042 -3.95328,0.19214 -4.98047,0.05469 -2.43207,-0.325148 1.33399,-1.21875 1.33399,-1.21875 0,0 -0.0229,-0.0031 -0.0664,-0.0039 z m -0.81054,2.353516 c -3.5086,1.164459 1.95197,2.487078 6.85546,1.052734 -0.521,-0.183666 -0.85156,-0.521484 -0.85156,-0.521484 -2.39752,0.461408 -3.78294,0.446706 -5.53711,0.265625 -1.35613,-0.140151 -0.46679,-0.796875 -0.46679,-0.796875 z m 0.49609,2.267578 c -3.18569,0.890136 1.93771,2.730144 5.99414,0.992187 -0.66436,-0.258165 -1.14062,-0.55664 -1.14062,-0.55664 -1.80888,0.341905 -2.6491,0.36909 -4.29102,0.18164 -1.35512,-0.155421 -0.5625,-0.617187 -0.5625,-0.617187 z m -2.21289,1.503906 c -1.43064,0.04414 -4.22863,1.330863 -1.66992,1.746094 8.26964,1.34045 15.07462,-0.602546 12.92968,-1.570313 0,0 0.58452,0.482004 -0.64648,0.855469 -2.34077,0.709001 -9.74433,0.92377 -11.80078,0.0293 -0.73871,-0.321755 0.64792,-0.769099 1.08398,-0.863281 0.45468,-0.09836 0.71485,-0.08008 0.71485,-0.08008 -0.12846,-0.09045 -0.34641,-0.125358 -0.61133,-0.117189 z m 12.57226,1.230469 c 0,0 -0.26129,0.668192 -3.08398,1.199219 -3.18465,0.59955 -7.11218,0.531043 -9.44141,0.146484 0,0 0.47574,0.39491 2.92774,0.552734 3.73073,0.238509 9.46192,-0.132967 9.59765,-1.898437 z m -15.5,4.152344 v 0.609375 h 1.0586 v 3.269531 c 0,0.359375 -0.0781,0.632812 -0.23438,0.820312 -0.15625,0.184896 -0.36979,0.277344 -0.64062,0.277344 -0.2474,0 -0.45313,-0.08464 -0.61719,-0.253906 -0.16406,-0.169271 -0.26953,-0.404948 -0.31641,-0.707031 l -0.73046,0.121093 c 0.17447,0.963542 0.72786,1.445313 1.66015,1.445313 0.50261,0 0.89844,-0.152344 1.1875,-0.457031 0.28907,-0.307292 0.4336,-0.727865 0.4336,-1.261719 v -3.863281 z m 4.65625,0 -2.24609,5.503906 h 0.77344 l 0.63281,-1.609375 h 2.50781 l 0.62891,1.609375 h 0.76172 l -2.21094,-5.503906 z m 2.51563,0 2.24609,5.503906 h 0.77344 l 2.24609,-5.503906 h -0.78515 l -1.51563,3.875 -0.32812,0.972656 -0.32813,-0.972656 -1.52343,-3.875 z m 6.96875,0 -2.24609,5.503906 h 0.77343 l 0.63282,-1.609375 h 2.50781 l 0.6289,1.609375 h 0.76172 l -2.21093,-5.503906 z m -9.07031,0.5625 0.10547,0.324218 c 0.0729,0.226563 0.14583,0.429688 0.21875,0.609375 l 0.70703,1.816407 h -2.0586 l 0.70313,-1.808594 c 0.1276,-0.338542 0.22395,-0.615885 0.28906,-0.832031 z m 9.48437,0 0.10547,0.324218 c 0.0729,0.226563 0.14583,0.429688 0.21875,0.609375 l 0.70703,1.816407 h -2.05859 l 0.70312,-1.808594 c 0.12761,-0.338542 0.22396,-0.615885 0.28907,-0.832031 z"
       transform="translate(-118.4973,-1.0001)" />
  </g>
</svg>
