<?xml version="1.0" encoding="UTF-8" standalone="no"?>
<svg
   width="43.546021"
   height="55.538212"
   version="1.1"
   viewBox="0 0 43.546021 55.538212"
   id="svg4"
   xmlns:xlink="http://www.w3.org/1999/xlink"
   xmlns="http://www.w3.org/2000/svg"
   xmlns:svg="http://www.w3.org/2000/svg">
  <defs
     id="defs4">
    <linearGradient
       id="linearGradient5">
      <stop
         style="stop-color:#00abff;stop-opacity:0;"
         offset="0"
         id="stop6" />
      <stop
         style="stop-color:#00abff;stop-opacity:1;"
         offset="1"
         id="stop5" />
    </linearGradient>
    <linearGradient
       xlink:href="#linearGradient5"
       id="linearGradient6"
       x1="31.649473"
       y1="64"
       x2="31.649473"
       y2="23.42029"
       gradientUnits="userSpaceOnUse" />
    <filter
       style="color-interpolation-filters:sRGB"
       id="filter6"
       x="-0.030947899"
       y="-0.023945386"
       width="1.0618958"
       height="1.0478908">
      <feGaussianBlur
         stdDeviation="0.52879391"
         id="feGaussianBlur6" />
    </filter>
  </defs>
  <g
     id="g6"
     transform="translate(-10.223089,-4.7308946)">
    <path
       id="path1"
       style="display:inline;opacity:0.6;fill:#00abff;fill-opacity:1;stroke:none;paint-order:stroke fill markers;filter:url(#filter6)"
       d="m 33.303941,6 -0.0039,0.00195 -19.353515,0.00391 c -1.35355,0 -2.457032,1.1084593 -2.457032,2.4648437 V 56.533203 C 11.489487,57.889589 12.592919,59 13.946519,59 h 36.09375 c 1.35354,0 2.457031,-1.110412 2.457031,-2.466797 V 25.183594 c 0,-0.440775 -0.103272,-0.93784 -0.292969,-1.464844 h 0.06055 l -0.355469,-0.722656 c -0.0256,-0.05172 -0.05866,-0.104197 -0.08594,-0.15625 l -0.06055,-0.125 h -0.0078 c -0.338621,-0.618179 -0.788502,-1.252822 -1.384766,-1.84961 l -0.002,-0.002 L 37.764878,8.1523438 C 37.17159,7.4150754 36.511498,6.918862 35.866441,6.59375 35.78115,6.5507633 35.695074,6.5098797 35.610581,6.4726562 l -0.08594,-0.037109 -0.03125,-0.00195 C 34.70882,6.1006523 33.968043,6 33.409409,6 Z m 0.115234,1.0019531 c 0.37972,7.572e-4 0.912956,0.1248404 1.447266,0.3105469 v 13.935547 c 0,1.22231 0.898655,2.235584 2.066406,2.425781 0.127318,0.02382 0.257439,0.03746 0.390625,0.04102 0.02237,5.98e-4 0.0439,0.0039 0.06641,0.0039 h 13.69336 c 0.235632,0.562366 0.414062,1.117889 0.414062,1.464844 V 56.533203 C 51.4973,57.355759 50.854519,58 50.040269,58 h -36.09375 c -0.81435,0 -1.457032,-0.644183 -1.457032,-1.466797 V 8.4707031 c 0,-0.8225555 0.642772,-1.4667968 1.457032,-1.4667969 z m 2.470703,0.9238281 c 0.38082,0.2545632 0.766373,0.4323997 1.126953,0.8886719 l 0.01758,0.021484 12.626954,12.7343749 c 0.371921,0.371984 0.575276,0.75943 0.828125,1.144532 H 37.323472 c -0.06876,0 -0.133195,-0.01063 -0.199219,-0.01953 -0.708541,-0.123275 -1.234366,-0.730184 -1.234375,-1.478515 z m 3.109375,21.0273438 -3.332031,3.333984 h -8.06836 c -0.3168,-1.5518 -1.681825,-2.667768 -3.265625,-2.667968 -1.8409,0 -3.333984,1.493084 -3.333984,3.333984 0.0026,1.5819 1.118069,2.943366 2.667969,3.259766 V 48.28125 h 5.332031 v 2.666016 h 6.667969 V 48.28125 h 4 v -12 l 3.332031,-3.333984 z m -11.414062,4.666016 h 8.074218 l 2.666016,2.667968 v 10.666016 h -2.666016 v -2.666016 h -6.667968 v 2.666016 h -4 V 36.21875 c 1.3068,-0.26907 2.32715,-1.290256 2.59375,-2.597656 z"
       transform="translate(0.0027)" />
    <path
       id="path5"
       style="fill:url(#linearGradient6);fill-opacity:1;stroke:none;paint-order:stroke fill markers"
       d="m 33.303941,6 -0.0039,0.00195 -19.353515,0.00391 c -1.35355,0 -2.457032,1.1084593 -2.457032,2.4648437 V 56.533203 C 11.489487,57.889589 12.592919,59 13.946519,59 h 36.09375 c 1.35354,0 2.457031,-1.110412 2.457031,-2.466797 V 25.183594 c 0,-0.440775 -0.103272,-0.93784 -0.292969,-1.464844 h 0.06055 l -0.355469,-0.722656 c -0.0256,-0.05172 -0.05866,-0.104197 -0.08594,-0.15625 l -0.06055,-0.125 h -0.0078 c -0.338621,-0.618179 -0.788502,-1.252822 -1.384766,-1.84961 l -0.002,-0.002 L 37.764878,8.1523438 C 37.17159,7.4150754 36.511498,6.918862 35.866441,6.59375 35.78115,6.5507633 35.695074,6.5098797 35.610581,6.4726562 l -0.08594,-0.037109 -0.03125,-0.00195 C 34.70882,6.1006523 33.968043,6 33.409409,6 Z m 0.115234,1.0019531 c 0.37972,7.572e-4 0.912956,0.1248404 1.447266,0.3105469 v 13.935547 c 0,1.22231 0.898655,2.235584 2.066406,2.425781 0.127318,0.02382 0.257439,0.03746 0.390625,0.04102 0.02237,5.98e-4 0.0439,0.0039 0.06641,0.0039 h 13.69336 c 0.235632,0.562366 0.414062,1.117889 0.414062,1.464844 V 56.533203 C 51.4973,57.355759 50.854519,58 50.040269,58 h -36.09375 c -0.81435,0 -1.457032,-0.644183 -1.457032,-1.466797 V 8.4707031 c 0,-0.8225555 0.642772,-1.4667968 1.457032,-1.4667969 z m 2.470703,0.9238281 c 0.38082,0.2545632 0.766373,0.4323997 1.126953,0.8886719 l 0.01758,0.021484 12.626954,12.7343749 c 0.371921,0.371984 0.575276,0.75943 0.828125,1.144532 H 37.323472 c -0.06876,0 -0.133195,-0.01063 -0.199219,-0.01953 -0.708541,-0.123275 -1.234366,-0.730184 -1.234375,-1.478515 z m 3.109375,21.0273438 -3.332031,3.333984 h -8.06836 c -0.3168,-1.5518 -1.681825,-2.667768 -3.265625,-2.667968 -1.8409,0 -3.333984,1.493084 -3.333984,3.333984 0.0026,1.5819 1.118069,2.943366 2.667969,3.259766 V 48.28125 h 5.332031 v 2.666016 h 6.667969 V 48.28125 h 4 v -12 l 3.332031,-3.333984 z m -11.414062,4.666016 h 8.074218 l 2.666016,2.667968 v 10.666016 h -2.666016 v -2.666016 h -6.667968 v 2.666016 h -4 V 36.21875 c 1.3068,-0.26907 2.32715,-1.290256 2.59375,-2.597656 z"
       transform="translate(0.0027)" />
  </g>
</svg>
