<?xml version="1.0" encoding="UTF-8" standalone="no"?>
<svg
   width="43.546024"
   height="55.538212"
   version="1.1"
   viewBox="0 0 43.546024 55.538212"
   id="svg3"
   xmlns:xlink="http://www.w3.org/1999/xlink"
   xmlns="http://www.w3.org/2000/svg"
   xmlns:svg="http://www.w3.org/2000/svg">
  <defs
     id="defs3">
    <linearGradient
       id="linearGradient10">
      <stop
         style="stop-color:#00abff;stop-opacity:0;"
         offset="0"
         id="stop11" />
      <stop
         style="stop-color:#00abff;stop-opacity:1;"
         offset="1"
         id="stop10" />
    </linearGradient>
    <linearGradient
       xlink:href="#linearGradient10"
       id="linearGradient11"
       x1="150.89659"
       y1="65.000099"
       x2="150.89659"
       y2="26.440386"
       gradientUnits="userSpaceOnUse" />
    <filter
       style="color-interpolation-filters:sRGB"
       id="filter11"
       x="-0.030947896"
       y="-0.023945386"
       width="1.0618958"
       height="1.0478908">
      <feGaussianBlur
         stdDeviation="0.52879393"
         id="feGaussianBlur11" />
    </filter>
  </defs>
  <g
     id="g11"
     transform="translate(-10.222995,-4.7308946)">
    <path
       id="path1"
       style="display:inline;opacity:0.6;fill:#00abff;fill-opacity:1;stroke:none;filter:url(#filter11)"
       d="m 151.80394,7.0001 -0.004,0.00195 -19.35351,0.00391 c -1.35355,0 -2.45703,1.1084593 -2.45703,2.4648437 V 57.533303 c 0,1.356386 1.10343,2.466797 2.45703,2.466797 h 36.09375 c 1.35354,0 2.45703,-1.110412 2.45703,-2.466797 V 26.183694 c 0,-0.440775 -0.10327,-0.93784 -0.29297,-1.464844 h 0.0606 l -0.35547,-0.722656 c -0.0256,-0.05172 -0.0587,-0.104197 -0.0859,-0.15625 l -0.0605,-0.125 h -0.008 c -0.33862,-0.618179 -0.7885,-1.252822 -1.38476,-1.84961 l -0.002,-0.002 L 156.26488,9.1524437 C 155.67159,8.4151755 155.0115,7.918962 154.36644,7.59385 154.28114,7.550863 154.19507,7.50998 154.11058,7.4727562 l -0.0859,-0.037109 -0.0312,-0.00195 C 153.20882,7.1007523 152.46804,7.0001 151.90941,7.0001 Z m 0.11523,1.0019531 c 0.37972,7.572e-4 0.91296,0.1248404 1.44727,0.3105469 v 13.935547 c 0,1.22231 0.89866,2.235584 2.06641,2.425781 0.12731,0.02382 0.25744,0.03746 0.39062,0.04102 0.0224,5.98e-4 0.0439,0.0039 0.0664,0.0039 h 13.69336 c 0.23563,0.562366 0.41406,1.117889 0.41406,1.464844 v 31.349609 c 0,0.822556 -0.64278,1.466797 -1.45703,1.466797 h -36.09375 c -0.81435,0 -1.45703,-0.644183 -1.45703,-1.466797 V 9.4708031 c 0,-0.8225555 0.64277,-1.4667967 1.45703,-1.4667969 z m 2.47071,0.9238281 c 0.38082,0.2545633 0.76637,0.4323997 1.12695,0.8886719 l 0.0176,0.021484 12.62695,12.7343749 c 0.37192,0.371984 0.57528,0.75943 0.82813,1.144532 h -13.16602 c -0.0687,0 -0.13319,-0.01063 -0.19922,-0.01953 -0.70854,-0.123274 -1.23436,-0.730184 -1.23437,-1.478515 z m -0.11719,21.6171878 v 0.0039 c -3.983,0 -7.21094,3.228031 -7.21094,7.207031 0,1.082 0.24488,2.102532 0.67188,3.019532 l -1.23438,1.460937 -0.10742,1.369141 c -0.011,0.01 -1.34375,0.04883 -1.34375,0.04883 l -0.68555,0.496094 c 0,0 0.006,1.494609 0,1.474609 l -0.002,0.002 -1.4668,0.02344 -0.62109,0.708984 -0.0137,1.339844 c 0,0 -1.26749,-0.08284 -1.39649,0.03516 -0.81,0.746 -1.35351,1.277344 -1.35351,1.277344 l 0.006,3.505859 c 0,0 0.4685,-0.002 0.6875,-0.002 l 9.33789,-9.335938 c 0.23838,0.207563 0.49156,0.399396 0.75586,0.574219 -0.26285,-0.174105 -0.51816,-0.3595 -0.75586,-0.566406 l -9.34375,9.337891 h 3.43555 l 8.15234,-8.009766 c -0.36192,-0.133546 -0.7059,-0.298495 -1.03711,-0.484375 -0.13172,-0.07393 -0.26029,-0.152578 -0.38672,-0.234375 0.12668,0.08185 0.25479,0.1604 0.38672,0.234375 0.14395,0.08071 0.29166,0.155562 0.44141,0.226562 l 0.002,-0.002 c 0.936,0.444 1.97898,0.701172 3.08398,0.701172 3.983,0 7.21094,-3.227031 7.21094,-7.207031 0,-3.979 -3.22789,-7.206078 -7.21289,-7.205078 z m 1.37695,3.433594 c 1.0108,0 1.87411,0.625512 2.22852,1.509765 -0.35651,-0.881127 -1.22191,-1.503906 -2.23047,-1.503906 -0.68358,0 -1.30076,0.286395 -1.73828,0.744141 v -0.002 c 0.43761,-0.459688 1.05548,-0.748046 1.74023,-0.748046 z m -0.002,1.378906 c 0.569,0 1.0293,0.46225 1.0293,1.03125 0,0.569 -0.4613,1.027344 -1.0293,1.027344 -0.569,0 -1.03125,-0.459344 -1.03125,-1.027344 0,-0.569 0.46325,-1.03125 1.03125,-1.03125 z m 2.39063,0.785156 c 0.008,0.07892 0.0137,0.159265 0.0137,0.240234 0,0.07437 -0.005,0.148061 -0.0117,0.220704 0.006,-0.07131 0.01,-0.141868 0.01,-0.214844 0,-0.08294 -0.003,-0.165311 -0.0117,-0.246094 z"
       transform="translate(-118.4973,-1.0001)" />
    <path
       id="path10"
       style="fill:url(#linearGradient11);fill-opacity:1;stroke:none"
       d="m 151.80394,7.0001 -0.004,0.00195 -19.35351,0.00391 c -1.35355,0 -2.45703,1.1084593 -2.45703,2.4648437 V 57.533303 c 0,1.356386 1.10343,2.466797 2.45703,2.466797 h 36.09375 c 1.35354,0 2.45703,-1.110412 2.45703,-2.466797 V 26.183694 c 0,-0.440775 -0.10327,-0.93784 -0.29297,-1.464844 h 0.0606 l -0.35547,-0.722656 c -0.0256,-0.05172 -0.0587,-0.104197 -0.0859,-0.15625 l -0.0605,-0.125 h -0.008 c -0.33862,-0.618179 -0.7885,-1.252822 -1.38476,-1.84961 l -0.002,-0.002 L 156.26488,9.1524437 C 155.67159,8.4151755 155.0115,7.918962 154.36644,7.59385 154.28114,7.550863 154.19507,7.50998 154.11058,7.4727562 l -0.0859,-0.037109 -0.0312,-0.00195 C 153.20882,7.1007523 152.46804,7.0001 151.90941,7.0001 Z m 0.11523,1.0019531 c 0.37972,7.572e-4 0.91296,0.1248404 1.44727,0.3105469 v 13.935547 c 0,1.22231 0.89866,2.235584 2.06641,2.425781 0.12731,0.02382 0.25744,0.03746 0.39062,0.04102 0.0224,5.98e-4 0.0439,0.0039 0.0664,0.0039 h 13.69336 c 0.23563,0.562366 0.41406,1.117889 0.41406,1.464844 v 31.349609 c 0,0.822556 -0.64278,1.466797 -1.45703,1.466797 h -36.09375 c -0.81435,0 -1.45703,-0.644183 -1.45703,-1.466797 V 9.4708031 c 0,-0.8225555 0.64277,-1.4667967 1.45703,-1.4667969 z m 2.47071,0.9238281 c 0.38082,0.2545633 0.76637,0.4323997 1.12695,0.8886719 l 0.0176,0.021484 12.62695,12.7343749 c 0.37192,0.371984 0.57528,0.75943 0.82813,1.144532 h -13.16602 c -0.0687,0 -0.13319,-0.01063 -0.19922,-0.01953 -0.70854,-0.123274 -1.23436,-0.730184 -1.23437,-1.478515 z m -0.11719,21.6171878 v 0.0039 c -3.983,0 -7.21094,3.228031 -7.21094,7.207031 0,1.082 0.24488,2.102532 0.67188,3.019532 l -1.23438,1.460937 -0.10742,1.369141 c -0.011,0.01 -1.34375,0.04883 -1.34375,0.04883 l -0.68555,0.496094 c 0,0 0.006,1.494609 0,1.474609 l -0.002,0.002 -1.4668,0.02344 -0.62109,0.708984 -0.0137,1.339844 c 0,0 -1.26749,-0.08284 -1.39649,0.03516 -0.81,0.746 -1.35351,1.277344 -1.35351,1.277344 l 0.006,3.505859 c 0,0 0.4685,-0.002 0.6875,-0.002 l 9.33789,-9.335938 c 0.23838,0.207563 0.49156,0.399396 0.75586,0.574219 -0.26285,-0.174105 -0.51816,-0.3595 -0.75586,-0.566406 l -9.34375,9.337891 h 3.43555 l 8.15234,-8.009766 c -0.36192,-0.133546 -0.7059,-0.298495 -1.03711,-0.484375 -0.13172,-0.07393 -0.26029,-0.152578 -0.38672,-0.234375 0.12668,0.08185 0.25479,0.1604 0.38672,0.234375 0.14395,0.08071 0.29166,0.155562 0.44141,0.226562 l 0.002,-0.002 c 0.936,0.444 1.97898,0.701172 3.08398,0.701172 3.983,0 7.21094,-3.227031 7.21094,-7.207031 0,-3.979 -3.22789,-7.206078 -7.21289,-7.205078 z m 1.37695,3.433594 c 1.0108,0 1.87411,0.625512 2.22852,1.509765 -0.35651,-0.881127 -1.22191,-1.503906 -2.23047,-1.503906 -0.68358,0 -1.30076,0.286395 -1.73828,0.744141 v -0.002 c 0.43761,-0.459688 1.05548,-0.748046 1.74023,-0.748046 z m -0.002,1.378906 c 0.569,0 1.0293,0.46225 1.0293,1.03125 0,0.569 -0.4613,1.027344 -1.0293,1.027344 -0.569,0 -1.03125,-0.459344 -1.03125,-1.027344 0,-0.569 0.46325,-1.03125 1.03125,-1.03125 z m 2.39063,0.785156 c 0.008,0.07892 0.0137,0.159265 0.0137,0.240234 0,0.07437 -0.005,0.148061 -0.0117,0.220704 0.006,-0.07131 0.01,-0.141868 0.01,-0.214844 0,-0.08294 -0.003,-0.165311 -0.0117,-0.246094 z"
       transform="translate(-118.4973,-1.0001)" />
  </g>
</svg>
