<?xml version="1.0" encoding="UTF-8" standalone="no"?>
<svg
   width="43.546024"
   height="55.538212"
   version="1.1"
   id="svg6"
   xmlns:xlink="http://www.w3.org/1999/xlink"
   xmlns="http://www.w3.org/2000/svg"
   xmlns:svg="http://www.w3.org/2000/svg">
  <defs
     id="defs6">
    <linearGradient
       id="linearGradient7">
      <stop
         style="stop-color:#00abff;stop-opacity:0;"
         offset="0"
         id="stop8" />
      <stop
         style="stop-color:#00abff;stop-opacity:1;"
         offset="1"
         id="stop7" />
    </linearGradient>
    <linearGradient
       xlink:href="#linearGradient7"
       id="linearGradient8"
       x1="150.14513"
       y1="64.998489"
       x2="150.14513"
       y2="24.766605"
       gradientUnits="userSpaceOnUse" />
    <filter
       style="color-interpolation-filters:sRGB"
       id="filter8"
       x="-0.030947896"
       y="-0.023945386"
       width="1.0618958"
       height="1.0478908">
      <feGaussianBlur
         stdDeviation="0.52879393"
         id="feGaussianBlur8" />
    </filter>
  </defs>
  <g
     id="g8"
     transform="translate(-10.228855,-4.7328477)">
    <path
       id="path1"
       style="display:inline;opacity:0.6;fill:#00abff;fill-opacity:1;stroke:none;filter:url(#filter8)"
       d="m 151.80546,7.0004431 -0.004,0.00195 -19.35351,0.00391 c -1.35355,0 -2.45703,1.1084593 -2.45703,2.4648438 V 57.533646 c 0,1.356386 1.10343,2.466797 2.45703,2.466797 h 36.09375 c 1.35354,0 2.45703,-1.110412 2.45703,-2.466797 V 26.184037 c 0,-0.440397 -0.10555,-0.938346 -0.29492,-1.464844 h 0.0625 l -0.35547,-0.722656 c -0.0256,-0.05172 -0.0587,-0.104197 -0.0859,-0.15625 l -0.0606,-0.125 h -0.008 c -0.33862,-0.618179 -0.7885,-1.252822 -1.38476,-1.849609 l -0.002,-0.002 L 156.2664,9.1527869 c -0.67176,-0.8348308 -1.43074,-1.3609223 -2.1543,-1.6796875 l -0.0859,-0.037109 -0.0312,-0.00195 c -0.78457,-0.3329415 -1.52535,-0.4335938 -2.08398,-0.4335938 z m 0.11523,1.0019532 c 0.37972,7.572e-4 0.91296,0.1248403 1.44727,0.3105468 V 22.24849 c 0,1.220321 0.89558,2.23319 2.06055,2.425781 0.14988,0.02829 0.30504,0.04492 0.46289,0.04492 h 13.69336 c 0.23563,0.562366 0.41406,1.117889 0.41406,1.464844 v 31.349609 c 0,0.822556 -0.64278,1.466797 -1.45703,1.466797 h -36.09375 c -0.81435,0 -1.45703,-0.644183 -1.45703,-1.466797 V 9.4711463 c 0,-0.8225555 0.64277,-1.4667969 1.45703,-1.4667969 z m 2.47071,0.9238281 c 0.38082,0.2545631 0.76637,0.4323996 1.12695,0.8886719 l 0.0176,0.021484 12.62695,12.7343757 c 0.37193,0.371985 0.57528,0.759427 0.82813,1.144531 h -13.16602 c -0.0603,0 -0.11757,-0.01071 -0.17578,-0.01758 -0.72125,-0.113118 -1.2578,-0.723307 -1.25781,-1.480469 z M 136.98905,23.021928 v 32.999999 h 7 V 23.021928 Z m 1,1 h 5 v 30.999999 h -5 z m 19,7 v 24.999999 h 7 V 31.021928 Z m 1,0.999999 h 5 v 23 h -5 z m -11,7 v 17 h 7 v -17 z m 1,1 h 5 v 15 h -5 z"
       transform="translate(-118.49296,-0.99849)" />
    <path
       id="path7"
       style="fill:url(#linearGradient8);fill-opacity:1;stroke:none"
       d="m 151.80546,7.0004431 -0.004,0.00195 -19.35351,0.00391 c -1.35355,0 -2.45703,1.1084593 -2.45703,2.4648438 V 57.533646 c 0,1.356386 1.10343,2.466797 2.45703,2.466797 h 36.09375 c 1.35354,0 2.45703,-1.110412 2.45703,-2.466797 V 26.184037 c 0,-0.440397 -0.10555,-0.938346 -0.29492,-1.464844 h 0.0625 l -0.35547,-0.722656 c -0.0256,-0.05172 -0.0587,-0.104197 -0.0859,-0.15625 l -0.0606,-0.125 h -0.008 c -0.33862,-0.618179 -0.7885,-1.252822 -1.38476,-1.849609 l -0.002,-0.002 L 156.2664,9.1527869 c -0.67176,-0.8348308 -1.43074,-1.3609223 -2.1543,-1.6796875 l -0.0859,-0.037109 -0.0312,-0.00195 c -0.78457,-0.3329415 -1.52535,-0.4335938 -2.08398,-0.4335938 z m 0.11523,1.0019532 c 0.37972,7.572e-4 0.91296,0.1248403 1.44727,0.3105468 V 22.24849 c 0,1.220321 0.89558,2.23319 2.06055,2.425781 0.14988,0.02829 0.30504,0.04492 0.46289,0.04492 h 13.69336 c 0.23563,0.562366 0.41406,1.117889 0.41406,1.464844 v 31.349609 c 0,0.822556 -0.64278,1.466797 -1.45703,1.466797 h -36.09375 c -0.81435,0 -1.45703,-0.644183 -1.45703,-1.466797 V 9.4711463 c 0,-0.8225555 0.64277,-1.4667969 1.45703,-1.4667969 z m 2.47071,0.9238281 c 0.38082,0.2545631 0.76637,0.4323996 1.12695,0.8886719 l 0.0176,0.021484 12.62695,12.7343757 c 0.37193,0.371985 0.57528,0.759427 0.82813,1.144531 h -13.16602 c -0.0603,0 -0.11757,-0.01071 -0.17578,-0.01758 -0.72125,-0.113118 -1.2578,-0.723307 -1.25781,-1.480469 z M 136.98905,23.021928 v 32.999999 h 7 V 23.021928 Z m 1,1 h 5 v 30.999999 h -5 z m 19,7 v 24.999999 h 7 V 31.021928 Z m 1,0.999999 h 5 v 23 h -5 z m -11,7 v 17 h 7 v -17 z m 1,1 h 5 v 15 h -5 z"
       transform="translate(-118.49296,-0.99849)" />
  </g>
</svg>
