<?xml version="1.0" encoding="UTF-8" standalone="no"?>
<svg
   width="43.546024"
   height="55.538212"
   version="1.1"
   id="svg6"
   xmlns:xlink="http://www.w3.org/1999/xlink"
   xmlns="http://www.w3.org/2000/svg"
   xmlns:svg="http://www.w3.org/2000/svg">
  <defs
     id="defs6">
    <linearGradient
       id="linearGradient7">
      <stop
         style="stop-color:#00abff;stop-opacity:0;"
         offset="0"
         id="stop8" />
      <stop
         style="stop-color:#00abff;stop-opacity:1;"
         offset="1"
         id="stop7" />
    </linearGradient>
    <linearGradient
       xlink:href="#linearGradient7"
       id="linearGradient8"
       x1="151.07771"
       y1="65.000099"
       x2="151.07771"
       y2="26.623289"
       gradientUnits="userSpaceOnUse" />
    <filter
       style="color-interpolation-filters:sRGB"
       id="filter8"
       x="-0.030947896"
       y="-0.023945386"
       width="1.0618958"
       height="1.0478908">
      <feGaussianBlur
         stdDeviation="0.52879393"
         id="feGaussianBlur8" />
    </filter>
  </defs>
  <g
     id="g8"
     transform="translate(-10.222995,-4.7308946)">
    <path
       id="path1"
       style="display:inline;opacity:0.6;fill:#00abff;fill-opacity:1;stroke:none;filter:url(#filter8)"
       d="m 151.80464,7.0001 -0.004,0.00195 -19.35351,0.00391 c -1.35355,0 -2.45703,1.1084593 -2.45703,2.4648437 V 57.533303 c 0,1.356386 1.10343,2.466797 2.45703,2.466797 h 36.09375 c 1.35354,0 2.45703,-1.110412 2.45703,-2.466797 V 26.183694 c 0,-0.440775 -0.10327,-0.93784 -0.29297,-1.464844 h 0.0606 l -0.35547,-0.722656 c -0.0256,-0.05172 -0.0587,-0.104197 -0.0859,-0.15625 l -0.0606,-0.125 h -0.008 c -0.33862,-0.618179 -0.7885,-1.252822 -1.38476,-1.84961 l -0.002,-0.002 L 156.2653,9.1523967 C 155.59354,8.3175659 154.83456,7.7914744 154.111,7.4727092 l -0.0859,-0.037109 -0.0312,-0.00195 C 153.20952,7.1007523 152.46874,7.0001 151.91011,7.0001 Z m 0.11523,1.0019531 c 0.37972,7.572e-4 0.91296,0.1248404 1.44727,0.3105469 v 13.935547 c 0,1.22231 0.89866,2.235584 2.06641,2.425781 0.1487,0.02782 0.30051,0.04492 0.45703,0.04492 h 13.69336 c 0.23563,0.562366 0.41406,1.117889 0.41406,1.464844 v 31.349609 c 0,0.822556 -0.64278,1.466797 -1.45703,1.466797 h -36.09375 c -0.81435,0 -1.45703,-0.644183 -1.45703,-1.466797 V 9.4708031 c 0,-0.8225555 0.64277,-1.4667968 1.45703,-1.4667969 z m 2.47071,0.9238281 c 0.38082,0.2545632 0.76637,0.4323997 1.12695,0.8886719 l 0.0176,0.021484 12.62695,12.7343749 c 0.37193,0.371986 0.57528,0.759428 0.82813,1.144532 h -13.16602 c -0.067,0 -0.13092,-0.01107 -0.19531,-0.01953 -0.71046,-0.121762 -1.23827,-0.728848 -1.23828,-1.478515 z m -3.88672,20.0371098 a 0.50005058,0.50005058 0 0 0 -0.22266,0.05469 l -12.07031,6.033203 a 0.50005058,0.50005058 0 0 0 -0.10547,0.09766 0.50005058,0.50005058 0 0 0 -0.0703,0.06445 0.50005058,0.50005058 0 0 0 -0.0996,0.292968 v 13.78711 a 0.50005058,0.50005058 0 0 0 0.27539,0.447265 l 12.07031,6.035157 a 0.50005058,0.50005058 0 0 0 0.0176,0.0039 0.50000058,0.50000058 0 0 0 0.16016,0.03711 0.50005058,0.50005058 0 0 0 0.0566,0.0098 0.50000058,0.50000058 0 0 0 0.20117,-0.04883 0.50005058,0.50005058 0 0 0 0.0117,-0.002 l 12.06836,-6.035157 a 0.50005058,0.50005058 0 0 0 0.27734,-0.447265 V 35.5001 a 0.50005058,0.50005058 0 0 0 -0.006,-0.0332 0.50005058,0.50005058 0 0 0 -0.0176,-0.101563 0.50005058,0.50005058 0 0 0 -0.0176,-0.05469 0.50005058,0.50005058 0 0 0 -0.0527,-0.0957 0.50005058,0.50005058 0 0 0 -0.0332,-0.04297 0.50005058,0.50005058 0 0 0 -0.0762,-0.06836 0.50005058,0.50005058 0 0 0 -0.0547,-0.03906 0.50005058,0.50005058 0 0 0 -0.0195,-0.01367 l -12.06836,-6.033203 a 0.50005058,0.50005058 0 0 0 -0.22461,-0.05469 z m 0,1.060546 10.94922,5.476563 -10.94922,5.474609 -10.94727,-5.474609 z m -11.56836,6.285157 11.06836,5.535156 V 54.517678 L 138.9355,48.982522 Z m 23.13867,0 v 12.673828 l -11.07031,5.535156 V 41.84385 Z"
       transform="translate(-118.498,-1.0001)" />
    <path
       id="path7"
       style="fill:url(#linearGradient8);fill-opacity:1;stroke:none"
       d="m 151.80464,7.0001 -0.004,0.00195 -19.35351,0.00391 c -1.35355,0 -2.45703,1.1084593 -2.45703,2.4648437 V 57.533303 c 0,1.356386 1.10343,2.466797 2.45703,2.466797 h 36.09375 c 1.35354,0 2.45703,-1.110412 2.45703,-2.466797 V 26.183694 c 0,-0.440775 -0.10327,-0.93784 -0.29297,-1.464844 h 0.0606 l -0.35547,-0.722656 c -0.0256,-0.05172 -0.0587,-0.104197 -0.0859,-0.15625 l -0.0606,-0.125 h -0.008 c -0.33862,-0.618179 -0.7885,-1.252822 -1.38476,-1.84961 l -0.002,-0.002 L 156.2653,9.1523967 C 155.59354,8.3175659 154.83456,7.7914744 154.111,7.4727092 l -0.0859,-0.037109 -0.0312,-0.00195 C 153.20952,7.1007523 152.46874,7.0001 151.91011,7.0001 Z m 0.11523,1.0019531 c 0.37972,7.572e-4 0.91296,0.1248404 1.44727,0.3105469 v 13.935547 c 0,1.22231 0.89866,2.235584 2.06641,2.425781 0.1487,0.02782 0.30051,0.04492 0.45703,0.04492 h 13.69336 c 0.23563,0.562366 0.41406,1.117889 0.41406,1.464844 v 31.349609 c 0,0.822556 -0.64278,1.466797 -1.45703,1.466797 h -36.09375 c -0.81435,0 -1.45703,-0.644183 -1.45703,-1.466797 V 9.4708031 c 0,-0.8225555 0.64277,-1.4667968 1.45703,-1.4667969 z m 2.47071,0.9238281 c 0.38082,0.2545632 0.76637,0.4323997 1.12695,0.8886719 l 0.0176,0.021484 12.62695,12.7343749 c 0.37193,0.371986 0.57528,0.759428 0.82813,1.144532 h -13.16602 c -0.067,0 -0.13092,-0.01107 -0.19531,-0.01953 -0.71046,-0.121762 -1.23827,-0.728848 -1.23828,-1.478515 z m -3.88672,20.0371098 a 0.50005058,0.50005058 0 0 0 -0.22266,0.05469 l -12.07031,6.033203 a 0.50005058,0.50005058 0 0 0 -0.10547,0.09766 0.50005058,0.50005058 0 0 0 -0.0703,0.06445 0.50005058,0.50005058 0 0 0 -0.0996,0.292968 v 13.78711 a 0.50005058,0.50005058 0 0 0 0.27539,0.447265 l 12.07031,6.035157 a 0.50005058,0.50005058 0 0 0 0.0176,0.0039 0.50000058,0.50000058 0 0 0 0.16016,0.03711 0.50005058,0.50005058 0 0 0 0.0566,0.0098 0.50000058,0.50000058 0 0 0 0.20117,-0.04883 0.50005058,0.50005058 0 0 0 0.0117,-0.002 l 12.06836,-6.035157 a 0.50005058,0.50005058 0 0 0 0.27734,-0.447265 V 35.5001 a 0.50005058,0.50005058 0 0 0 -0.006,-0.0332 0.50005058,0.50005058 0 0 0 -0.0176,-0.101563 0.50005058,0.50005058 0 0 0 -0.0176,-0.05469 0.50005058,0.50005058 0 0 0 -0.0527,-0.0957 0.50005058,0.50005058 0 0 0 -0.0332,-0.04297 0.50005058,0.50005058 0 0 0 -0.0762,-0.06836 0.50005058,0.50005058 0 0 0 -0.0547,-0.03906 0.50005058,0.50005058 0 0 0 -0.0195,-0.01367 l -12.06836,-6.033203 a 0.50005058,0.50005058 0 0 0 -0.22461,-0.05469 z m 0,1.060546 10.94922,5.476563 -10.94922,5.474609 -10.94727,-5.474609 z m -11.56836,6.285157 11.06836,5.535156 V 54.517678 L 138.9355,48.982522 Z m 23.13867,0 v 12.673828 l -11.07031,5.535156 V 41.84385 Z"
       transform="translate(-118.498,-1.0001)" />
  </g>
</svg>
