<?xml version="1.0" encoding="UTF-8" standalone="no"?>
<svg
   width="43.546024"
   height="55.538212"
   version="1.1"
   viewBox="0 0 43.546024 55.538212"
   id="svg3"
   xmlns:xlink="http://www.w3.org/1999/xlink"
   xmlns="http://www.w3.org/2000/svg"
   xmlns:svg="http://www.w3.org/2000/svg">
  <defs
     id="defs3">
    <linearGradient
       id="linearGradient21">
      <stop
         style="stop-color:#00abff;stop-opacity:0;"
         offset="0"
         id="stop22" />
      <stop
         style="stop-color:#00abff;stop-opacity:1;"
         offset="1"
         id="stop21" />
    </linearGradient>
    <linearGradient
       xlink:href="#linearGradient21"
       id="linearGradient22"
       x1="150.4973"
       y1="65.000099"
       x2="150.4973"
       y2="23.724737"
       gradientUnits="userSpaceOnUse" />
    <filter
       style="color-interpolation-filters:sRGB"
       id="filter22"
       x="-0.030947896"
       y="-0.023945386"
       width="1.0618958"
       height="1.0478908">
      <feGaussianBlur
         stdDeviation="0.52879393"
         id="feGaussianBlur22" />
    </filter>
  </defs>
  <g
     id="g22"
     transform="translate(-10.222995,-4.7308946)">
    <path
       id="path1"
       style="display:inline;opacity:0.6;fill:#00abff;fill-opacity:1;stroke:none;filter:url(#filter22)"
       d="m 151.80394,7.0001 -0.004,0.00195 -19.35351,0.00391 c -1.35355,0 -2.45703,1.1084593 -2.45703,2.4648437 V 57.533303 c 0,1.356386 1.10343,2.466797 2.45703,2.466797 h 36.09375 c 1.35354,0 2.45703,-1.110412 2.45703,-2.466797 V 26.183694 c 0,-0.440775 -0.10327,-0.93784 -0.29297,-1.464844 h 0.0606 l -0.35547,-0.722656 c -0.0256,-0.05172 -0.0587,-0.104197 -0.0859,-0.15625 l -0.0605,-0.125 h -0.008 c -0.33862,-0.618179 -0.7885,-1.252822 -1.38476,-1.84961 l -0.002,-0.002 L 156.26488,9.1524437 C 155.67159,8.4151755 155.0115,7.918962 154.36644,7.59385 154.28114,7.550863 154.19507,7.50998 154.11058,7.4727562 l -0.0859,-0.037109 -0.0312,-0.00195 C 153.20882,7.1007523 152.46804,7.0001 151.90941,7.0001 Z m 0.11523,1.0019531 c 0.37972,7.572e-4 0.91296,0.1248404 1.44727,0.3105469 v 13.935547 c 0,1.22231 0.89866,2.235584 2.06641,2.425781 0.12731,0.02382 0.25744,0.03746 0.39062,0.04102 0.0224,5.98e-4 0.0439,0.0039 0.0664,0.0039 h 13.69336 c 0.23563,0.562366 0.41406,1.117889 0.41406,1.464844 v 31.349609 c 0,0.822556 -0.64278,1.466797 -1.45703,1.466797 h -36.09375 c -0.81435,0 -1.45703,-0.644183 -1.45703,-1.466797 V 9.4708031 c 0,-0.8225555 0.64277,-1.4667967 1.45703,-1.4667969 z m 2.47071,0.9238281 c 0.38082,0.2545633 0.76637,0.4323997 1.12695,0.8886719 l 0.0176,0.021484 12.62695,12.7343749 c 0.37192,0.371984 0.57528,0.75943 0.82813,1.144532 h -13.16602 c -0.0687,0 -0.13319,-0.01063 -0.19922,-0.01953 -0.70854,-0.123274 -1.23436,-0.730184 -1.23437,-1.478515 z m -4.25586,20.0097658 c -0.7286,0 -1.41956,0.08306 -2.07227,0.25 -0.63754,0.166984 -1.21436,0.386965 -1.73047,0.660156 l 0.59375,1.640625 c 0.95629,-0.516108 1.93372,-0.77539 2.93555,-0.775391 0.78934,0 1.38901,0.205411 1.79883,0.615235 0.40982,0.394668 0.61523,0.91128 0.61523,1.548828 0,0.394669 -0.0913,0.757867 -0.27343,1.091797 -0.16699,0.333929 -0.38697,0.653413 -0.66016,0.957031 -0.27323,0.303579 -0.56166,0.606576 -0.86523,0.910156 -0.30358,0.288423 -0.59201,0.607908 -0.86524,0.957032 -0.27323,0.333929 -0.4995,0.697128 -0.68164,1.091797 -0.16698,0.394669 -0.25195,0.834593 -0.25195,1.320312 0,0.333968 0.0312,0.653453 0.0918,0.957031 h 1.77539 c -0.0154,-0.0759 -0.0234,-0.158911 -0.0234,-0.25 v -0.25 c 0,-0.500914 0.0995,-0.94912 0.29687,-1.34375 0.19734,-0.409824 0.44009,-0.781305 0.72852,-1.115234 0.28838,-0.349123 0.60791,-0.683178 0.95703,-1.001953 0.34912,-0.318773 0.66665,-0.652868 0.95508,-1.001953 0.28842,-0.349123 0.53118,-0.720605 0.72851,-1.115235 0.19734,-0.409863 0.29688,-0.874517 0.29688,-1.390625 0,-0.409823 -0.0685,-0.833262 -0.20508,-1.273437 -0.12144,-0.455368 -0.34963,-0.866188 -0.68359,-1.230469 -0.33393,-0.364278 -0.78015,-0.660988 -1.3418,-0.888672 -0.54646,-0.242879 -1.25391,-0.363281 -2.11914,-0.363281 z m -6.04297,4.257812 -9.83594,4.166016 v 1.822266 l 9.83594,4.166015 0.5918,-1.751953 -8.08399,-3.324219 8.08399,-3.324218 z m 12.8125,0 -0.5918,1.753907 8.08203,3.324218 -8.08203,3.324219 0.5918,1.751953 9.83594,-4.166015 v -1.822266 z m -7.13281,9.13086 c -0.47057,0 -0.84396,0.151499 -1.11719,0.455078 -0.27323,0.303579 -0.4082,0.66045 -0.4082,1.070312 0,0.409862 0.13497,0.766696 0.4082,1.070313 0.27323,0.30358 0.64662,0.455078 1.11719,0.455078 0.47056,0 0.842,-0.151498 1.11523,-0.455078 0.27323,-0.303579 0.41016,-0.660451 0.41016,-1.070313 0,-0.409825 -0.13693,-0.766694 -0.41016,-1.070312 -0.27323,-0.303579 -0.64467,-0.455078 -1.11523,-0.455078 z m -6.95899,7.68164 v 5.503907 h 0.7461 v -2.144532 h 1.61718 c 0.58334,0 1.04428,-0.153645 1.38282,-0.460937 0.34114,-0.307292 0.51172,-0.721354 0.51172,-1.242188 0,-0.526041 -0.16928,-0.933593 -0.50782,-1.222656 -0.33854,-0.289062 -0.8164,-0.433594 -1.43359,-0.433594 z m 5.33594,0 v 5.503907 h 0.74609 v -2.550782 h 2.97657 v 2.550782 h 0.74609 v -5.503907 h -0.74609 v 2.328125 h -2.97657 v -2.328125 z m 5.77734,0 v 5.503907 h 0.7461 v -2.144532 h 1.61719 c 0.58333,0 1.04427,-0.153645 1.38281,-0.460937 0.34114,-0.307292 0.51172,-0.721354 0.51172,-1.242188 0,-0.526041 -0.16927,-0.933593 -0.50782,-1.222656 -0.33854,-0.289062 -0.8164,-0.433594 -1.43359,-0.433594 z m -10.36718,0.597657 h 1.48047 c 0.85416,0 1.28125,0.355468 1.28125,1.066406 0,0.736979 -0.41667,1.105469 -1.25,1.105469 h -1.51172 z m 11.11328,0 h 1.48047 c 0.85416,0 1.28125,0.355468 1.28125,1.066406 0,0.736979 -0.41667,1.105469 -1.25,1.105469 h -1.51172 z"
       transform="translate(-118.4973,-1.0001)" />
    <path
       id="path21"
       style="fill:url(#linearGradient22);fill-opacity:1;stroke:none"
       d="m 151.80394,7.0001 -0.004,0.00195 -19.35351,0.00391 c -1.35355,0 -2.45703,1.1084593 -2.45703,2.4648437 V 57.533303 c 0,1.356386 1.10343,2.466797 2.45703,2.466797 h 36.09375 c 1.35354,0 2.45703,-1.110412 2.45703,-2.466797 V 26.183694 c 0,-0.440775 -0.10327,-0.93784 -0.29297,-1.464844 h 0.0606 l -0.35547,-0.722656 c -0.0256,-0.05172 -0.0587,-0.104197 -0.0859,-0.15625 l -0.0605,-0.125 h -0.008 c -0.33862,-0.618179 -0.7885,-1.252822 -1.38476,-1.84961 l -0.002,-0.002 L 156.26488,9.1524437 C 155.67159,8.4151755 155.0115,7.918962 154.36644,7.59385 154.28114,7.550863 154.19507,7.50998 154.11058,7.4727562 l -0.0859,-0.037109 -0.0312,-0.00195 C 153.20882,7.1007523 152.46804,7.0001 151.90941,7.0001 Z m 0.11523,1.0019531 c 0.37972,7.572e-4 0.91296,0.1248404 1.44727,0.3105469 v 13.935547 c 0,1.22231 0.89866,2.235584 2.06641,2.425781 0.12731,0.02382 0.25744,0.03746 0.39062,0.04102 0.0224,5.98e-4 0.0439,0.0039 0.0664,0.0039 h 13.69336 c 0.23563,0.562366 0.41406,1.117889 0.41406,1.464844 v 31.349609 c 0,0.822556 -0.64278,1.466797 -1.45703,1.466797 h -36.09375 c -0.81435,0 -1.45703,-0.644183 -1.45703,-1.466797 V 9.4708031 c 0,-0.8225555 0.64277,-1.4667967 1.45703,-1.4667969 z m 2.47071,0.9238281 c 0.38082,0.2545633 0.76637,0.4323997 1.12695,0.8886719 l 0.0176,0.021484 12.62695,12.7343749 c 0.37192,0.371984 0.57528,0.75943 0.82813,1.144532 h -13.16602 c -0.0687,0 -0.13319,-0.01063 -0.19922,-0.01953 -0.70854,-0.123274 -1.23436,-0.730184 -1.23437,-1.478515 z m -4.25586,20.0097658 c -0.7286,0 -1.41956,0.08306 -2.07227,0.25 -0.63754,0.166984 -1.21436,0.386965 -1.73047,0.660156 l 0.59375,1.640625 c 0.95629,-0.516108 1.93372,-0.77539 2.93555,-0.775391 0.78934,0 1.38901,0.205411 1.79883,0.615235 0.40982,0.394668 0.61523,0.91128 0.61523,1.548828 0,0.394669 -0.0913,0.757867 -0.27343,1.091797 -0.16699,0.333929 -0.38697,0.653413 -0.66016,0.957031 -0.27323,0.303579 -0.56166,0.606576 -0.86523,0.910156 -0.30358,0.288423 -0.59201,0.607908 -0.86524,0.957032 -0.27323,0.333929 -0.4995,0.697128 -0.68164,1.091797 -0.16698,0.394669 -0.25195,0.834593 -0.25195,1.320312 0,0.333968 0.0312,0.653453 0.0918,0.957031 h 1.77539 c -0.0154,-0.0759 -0.0234,-0.158911 -0.0234,-0.25 v -0.25 c 0,-0.500914 0.0995,-0.94912 0.29687,-1.34375 0.19734,-0.409824 0.44009,-0.781305 0.72852,-1.115234 0.28838,-0.349123 0.60791,-0.683178 0.95703,-1.001953 0.34912,-0.318773 0.66665,-0.652868 0.95508,-1.001953 0.28842,-0.349123 0.53118,-0.720605 0.72851,-1.115235 0.19734,-0.409863 0.29688,-0.874517 0.29688,-1.390625 0,-0.409823 -0.0685,-0.833262 -0.20508,-1.273437 -0.12144,-0.455368 -0.34963,-0.866188 -0.68359,-1.230469 -0.33393,-0.364278 -0.78015,-0.660988 -1.3418,-0.888672 -0.54646,-0.242879 -1.25391,-0.363281 -2.11914,-0.363281 z m -6.04297,4.257812 -9.83594,4.166016 v 1.822266 l 9.83594,4.166015 0.5918,-1.751953 -8.08399,-3.324219 8.08399,-3.324218 z m 12.8125,0 -0.5918,1.753907 8.08203,3.324218 -8.08203,3.324219 0.5918,1.751953 9.83594,-4.166015 v -1.822266 z m -7.13281,9.13086 c -0.47057,0 -0.84396,0.151499 -1.11719,0.455078 -0.27323,0.303579 -0.4082,0.66045 -0.4082,1.070312 0,0.409862 0.13497,0.766696 0.4082,1.070313 0.27323,0.30358 0.64662,0.455078 1.11719,0.455078 0.47056,0 0.842,-0.151498 1.11523,-0.455078 0.27323,-0.303579 0.41016,-0.660451 0.41016,-1.070313 0,-0.409825 -0.13693,-0.766694 -0.41016,-1.070312 -0.27323,-0.303579 -0.64467,-0.455078 -1.11523,-0.455078 z m -6.95899,7.68164 v 5.503907 h 0.7461 v -2.144532 h 1.61718 c 0.58334,0 1.04428,-0.153645 1.38282,-0.460937 0.34114,-0.307292 0.51172,-0.721354 0.51172,-1.242188 0,-0.526041 -0.16928,-0.933593 -0.50782,-1.222656 -0.33854,-0.289062 -0.8164,-0.433594 -1.43359,-0.433594 z m 5.33594,0 v 5.503907 h 0.74609 v -2.550782 h 2.97657 v 2.550782 h 0.74609 v -5.503907 h -0.74609 v 2.328125 h -2.97657 v -2.328125 z m 5.77734,0 v 5.503907 h 0.7461 v -2.144532 h 1.61719 c 0.58333,0 1.04427,-0.153645 1.38281,-0.460937 0.34114,-0.307292 0.51172,-0.721354 0.51172,-1.242188 0,-0.526041 -0.16927,-0.933593 -0.50782,-1.222656 -0.33854,-0.289062 -0.8164,-0.433594 -1.43359,-0.433594 z m -10.36718,0.597657 h 1.48047 c 0.85416,0 1.28125,0.355468 1.28125,1.066406 0,0.736979 -0.41667,1.105469 -1.25,1.105469 h -1.51172 z m 11.11328,0 h 1.48047 c 0.85416,0 1.28125,0.355468 1.28125,1.066406 0,0.736979 -0.41667,1.105469 -1.25,1.105469 h -1.51172 z"
       transform="translate(-118.4973,-1.0001)" />
  </g>
</svg>
