<?xml version="1.0" encoding="UTF-8" standalone="no"?>
<svg
   width="43.546024"
   height="55.538212"
   version="1.1"
   viewBox="0 0 11.521325 14.694196"
   id="svg6"
   xmlns:xlink="http://www.w3.org/1999/xlink"
   xmlns="http://www.w3.org/2000/svg"
   xmlns:svg="http://www.w3.org/2000/svg">
  <defs
     id="defs6">
    <linearGradient
       id="linearGradient7">
      <stop
         style="stop-color:#00abff;stop-opacity:0;"
         offset="0"
         id="stop8" />
      <stop
         style="stop-color:#00abff;stop-opacity:1;"
         offset="1"
         id="stop7" />
    </linearGradient>
    <linearGradient
       xlink:href="#linearGradient7"
       id="linearGradient8"
       x1="151.30635"
       y1="64.998032"
       x2="151.30635"
       y2="24.704306"
       gradientUnits="userSpaceOnUse" />
    <filter
       style="color-interpolation-filters:sRGB"
       id="filter8"
       x="-0.030947895"
       y="-0.023945385"
       width="1.0618958"
       height="1.0478908">
      <feGaussianBlur
         stdDeviation="0.52879019"
         id="feGaussianBlur8" />
    </filter>
  </defs>
  <g
     id="g8"
     transform="translate(-2.7058124,-1.252208)">
    <path
       id="path1"
       style="display:inline;opacity:0.6;fill:#00abff;fill-opacity:1;stroke:none;filter:url(#filter8)"
       d="m 151.8053,7.0003988 -0.004,0.00195 -19.35338,0.00391 c -1.35355,0 -2.45701,1.1084419 -2.45701,2.4648263 V 57.533244 c 0,1.356386 1.10341,2.466779 2.45701,2.466779 h 36.0935 c 1.35354,0 2.45701,-1.110394 2.45701,-2.466779 V 26.183857 c 0,-0.440736 -0.1033,-0.937882 -0.29297,-1.464834 h 0.0606 l -0.35547,-0.722651 c -0.0256,-0.05172 -0.0587,-0.104196 -0.0859,-0.156249 l -0.0606,-0.124999 h -0.008 c -0.33862,-0.618179 -0.78849,-1.252809 -1.38476,-1.849596 l -0.002,-0.002 L 156.2662,9.1527273 c -0.59286,-0.7367819 -1.25379,-1.2334398 -1.89842,-1.5585827 -0.0858,-0.043269 -0.17088,-0.083655 -0.25586,-0.1210929 l -0.0859,-0.037109 -0.0312,-0.00195 C 153.21016,7.101048 152.4694,7.0003988 151.91077,7.0003988 Z m 0.11523,1.001946 c 0.37972,7.572e-4 0.91295,0.1248382 1.44726,0.3105447 V 22.248338 c 0,1.22032 0.89556,2.233173 2.06053,2.425764 0.12867,0.02428 0.2618,0.03744 0.39648,0.04101 0.0222,5.89e-4 0.0441,0.0039 0.0664,0.0039 h 13.69326 c 0.23563,0.562366 0.41406,1.117879 0.41406,1.464834 v 31.349387 c 0,0.822556 -0.64277,1.466786 -1.45702,1.466786 H 132.448 c -0.81435,0 -1.45702,-0.644172 -1.45702,-1.466786 V 9.4710844 c 0,-0.8225555 0.64276,-1.4667865 1.45702,-1.4667865 z m 2.47069,0.9238216 c 0.38082,0.2545631 0.76636,0.4323933 1.12694,0.8886655 l 0.0176,0.021484 12.62686,12.7342851 c 0.37193,0.371985 0.57527,0.75942 0.82812,1.144523 H 155.8248 c -0.0603,0 -0.11757,-0.01071 -0.17578,-0.01758 -0.72125,-0.113118 -1.25779,-0.723296 -1.2578,-1.480458 z m -3.99998,18.0721376 c -0.20735,0.0016 -0.41419,0.0084 -0.61913,0.01953 -0.002,1.11e-4 -0.004,-1.12e-4 -0.006,0 -6.64461,0.363623 -11.96165,5.693137 -12.32999,12.326085 -2.7e-4,0.0046 -0.002,0.01102 -0.002,0.01562 -0.013,0.238395 -0.0215,0.477162 -0.0215,0.718745 0,7.218346 5.86359,13.081939 13.08194,13.081939 7.21835,0 13.07999,-5.863593 13.07999,-13.081939 0,-7.218346 -5.86164,-13.079985 -13.07999,-13.079985 -0.0329,-1.24e-4 -0.0628,-1.24e-4 -0.0957,0 a 0.50005,0.50005 0 0 0 -0.008,0 z m 0.10352,1.003899 c 1.31937,0.0029 2.60319,0.300254 3.83982,0.748042 0.20492,0.07457 0.40975,0.150997 0.61132,0.23242 l -1.96483,3.445288 c -0.68556,-0.223169 -1.41195,-0.356799 -2.16405,-0.386716 -0.10652,-0.0065 -0.21381,-0.0098 -0.32226,-0.0098 h -0.008 c -0.86512,9.51e-4 -1.69725,0.142111 -2.4785,0.396482 l -1.96288,-3.447241 c 1.42155,-0.575094 2.91219,-0.975157 4.44919,-0.978509 z m -5.4277,1.281241 2.0039,3.517553 c -1.68931,0.797548 -3.0598,2.162536 -3.8574,3.851535 l -3.51755,-2.001939 c 1.1655,-2.315313 3.05333,-4.202738 5.37105,-5.367149 z m 10.85344,0.0039 c 2.31547,1.164872 4.20277,3.051395 5.36715,5.36715 l -3.51365,1.999985 c -0.7973,-1.689477 -2.16421,-3.057773 -3.85348,-3.855441 z m -5.43355,3.742161 h 0.008 c 0.21997,0 0.4368,0.01113 0.65234,0.0332 0.001,1.33e-4 0.003,-1.34e-4 0.004,0 0.0277,0.0028 0.0544,0.01048 0.082,0.01367 0.61669,0.0725 1.20988,0.2281 1.77928,0.447262 l 0.40625,0.154296 0.004,-0.0078 c 1.53929,0.703286 2.77716,1.941158 3.48045,3.480444 l -0.008,0.0039 0.1543,0.406247 c 0.22833,0.591041 0.39313,1.21908 0.46093,1.865221 0.0226,0.215609 0.0332,0.432373 0.0332,0.652339 -0.007,0.645826 -0.10362,1.289388 -0.28516,1.90819 -9.7e-4,0.0033 -0.003,0.0064 -0.004,0.0098 v 0.002 c -0.0597,0.202213 -0.12755,0.401233 -0.20508,0.597652 l -0.1543,0.398434 0.01,0.0059 -0.002,0.002 0.002,0.002 c -0.70399,1.542649 -1.94518,2.783081 -3.48826,3.486303 l -0.006,-0.01172 -0.39843,0.156249 c -0.59191,0.228702 -1.21605,0.391346 -1.86327,0.458981 -0.21545,0.02253 -0.43347,0.03516 -0.65429,0.03516 -0.22017,0 -0.43918,-0.01274 -0.65429,-0.03516 h -0.002 c -0.21509,-0.02248 -0.42719,-0.05508 -0.63671,-0.09766 h -0.002 c -0.20951,-0.04264 -0.41574,-0.09582 -0.61914,-0.156249 h -0.002 c -0.20398,-0.06066 -0.40426,-0.128843 -0.60156,-0.205076 l -0.40625,-0.156249 -0.004,0.0078 c -1.54028,-0.703666 -2.77929,-1.941817 -3.4824,-3.482397 l 0.002,-0.002 -0.002,-0.002 0.01,-0.0059 -0.15429,-0.398434 c -0.0775,-0.196218 -0.14541,-0.395645 -0.20508,-0.597652 -0.0615,-0.208036 -0.11492,-0.418728 -0.1582,-0.632808 -0.0843,-0.425931 -0.12895,-0.859806 -0.13281,-1.294913 2.6e-4,-0.217989 0.0127,-0.432772 0.0352,-0.64648 1.4e-4,-0.0013 -1.3e-4,-0.0026 0,-0.0039 0.0453,-0.429297 0.13313,-0.849133 0.25391,-1.255851 v -0.002 c 0.0605,-0.203641 0.13105,-0.404907 0.20703,-0.601558 l 0.15429,-0.406247 -0.008,-0.0059 c 0.70357,-1.538467 1.94145,-2.775523 3.48045,-3.478491 l 0.004,0.0078 0.40625,-0.154296 c 0.5944,-0.228783 1.21528,-0.393272 1.86131,-0.460934 h 0.002 c 0.0372,-0.0039 0.0759,-0.0026 0.11328,-0.0059 0.17668,-0.01341 0.35307,-0.02714 0.5332,-0.02734 z m -11.08781,2.597638 3.44333,1.962877 c -0.17653,0.541669 -0.29781,1.108317 -0.35547,1.693347 -0.0286,0.261488 -0.0469,0.525805 -0.0469,0.794916 6.5e-4,0.07326 0.0101,0.145761 0.0137,0.218749 0.0212,0.788596 0.15372,1.548971 0.38672,2.265609 l -1.68554,0.962884 -1.7578,0.999992 c -0.24635,-0.608091 -0.46358,-1.231797 -0.63281,-1.873033 -0.21426,-0.826617 -0.34765,-1.682894 -0.34765,-2.574201 0,-1.587513 0.41973,-3.060154 0.98242,-4.45114 z m 22.19124,0 c 0.56269,1.390987 0.98047,2.863627 0.98047,4.45114 0,1.586132 -0.4145,3.057257 -0.97851,4.449188 l -1.05468,-0.601559 -2.39061,-1.367177 c 0.22193,-0.683699 0.35494,-1.406449 0.38476,-2.156235 0.006,-0.106675 0.01,-0.21545 0.01,-0.324217 0,-0.139057 -0.004,-0.276951 -0.0117,-0.414059 -0.0365,-0.718117 -0.16962,-1.409746 -0.38281,-2.066392 z m -18.37682,7.872991 c 0.79716,1.690671 2.16527,3.059345 3.85544,3.857395 l -2.00389,3.517553 c -2.31492,-1.165783 -4.20369,-3.052011 -5.3691,-5.36715 z m 14.5624,0 3.51169,2.003892 c -1.16373,2.316277 -3.04909,4.204602 -5.36324,5.371056 l -2.00975,-3.5156 c 1.69263,-0.797712 3.06332,-2.166863 3.8613,-3.859348 z m -9.76946,4.230439 c 0.784,0.255364 1.61981,0.394528 2.48826,0.394528 0.86862,0 1.70413,-0.139068 2.48826,-0.394528 l 1.96288,3.443335 c -0.3476,0.140895 -0.70253,0.272267 -1.06054,0.390622 -0.71662,0.236811 -1.45752,0.421624 -2.22264,0.517575 -0.3829,0.04794 -0.77121,0.07422 -1.16796,0.07422 -0.59446,0 -1.17397,-0.05918 -1.73827,-0.162108 h -0.002 c -0.18767,-0.03427 -0.37403,-0.07364 -0.55859,-0.117187 h -0.002 c -0.18455,-0.04358 -0.36726,-0.09271 -0.54882,-0.14453 h -0.002 c -0.54646,-0.156048 -1.07824,-0.346951 -1.5996,-0.55859 z"
       transform="matrix(0.26458,0,0,0.26458,-31.351405,-0.26418)" />
    <path
       id="path7"
       style="fill:url(#linearGradient8);fill-opacity:1;stroke:none"
       d="m 151.8053,7.0003988 -0.004,0.00195 -19.35338,0.00391 c -1.35355,0 -2.45701,1.1084419 -2.45701,2.4648263 V 57.533244 c 0,1.356386 1.10341,2.466779 2.45701,2.466779 h 36.0935 c 1.35354,0 2.45701,-1.110394 2.45701,-2.466779 V 26.183857 c 0,-0.440736 -0.1033,-0.937882 -0.29297,-1.464834 h 0.0606 l -0.35547,-0.722651 c -0.0256,-0.05172 -0.0587,-0.104196 -0.0859,-0.156249 l -0.0606,-0.124999 h -0.008 c -0.33862,-0.618179 -0.78849,-1.252809 -1.38476,-1.849596 l -0.002,-0.002 L 156.2662,9.1527273 c -0.59286,-0.7367819 -1.25379,-1.2334398 -1.89842,-1.5585827 -0.0858,-0.043269 -0.17088,-0.083655 -0.25586,-0.1210929 l -0.0859,-0.037109 -0.0312,-0.00195 C 153.21016,7.101048 152.4694,7.0003988 151.91077,7.0003988 Z m 0.11523,1.001946 c 0.37972,7.572e-4 0.91295,0.1248382 1.44726,0.3105447 V 22.248338 c 0,1.22032 0.89556,2.233173 2.06053,2.425764 0.12867,0.02428 0.2618,0.03744 0.39648,0.04101 0.0222,5.89e-4 0.0441,0.0039 0.0664,0.0039 h 13.69326 c 0.23563,0.562366 0.41406,1.117879 0.41406,1.464834 v 31.349387 c 0,0.822556 -0.64277,1.466786 -1.45702,1.466786 H 132.448 c -0.81435,0 -1.45702,-0.644172 -1.45702,-1.466786 V 9.4710844 c 0,-0.8225555 0.64276,-1.4667865 1.45702,-1.4667865 z m 2.47069,0.9238216 c 0.38082,0.2545631 0.76636,0.4323933 1.12694,0.8886655 l 0.0176,0.021484 12.62686,12.7342851 c 0.37193,0.371985 0.57527,0.75942 0.82812,1.144523 H 155.8248 c -0.0603,0 -0.11757,-0.01071 -0.17578,-0.01758 -0.72125,-0.113118 -1.25779,-0.723296 -1.2578,-1.480458 z m -3.99998,18.0721376 c -0.20735,0.0016 -0.41419,0.0084 -0.61913,0.01953 -0.002,1.11e-4 -0.004,-1.12e-4 -0.006,0 -6.64461,0.363623 -11.96165,5.693137 -12.32999,12.326085 -2.7e-4,0.0046 -0.002,0.01102 -0.002,0.01562 -0.013,0.238395 -0.0215,0.477162 -0.0215,0.718745 0,7.218346 5.86359,13.081939 13.08194,13.081939 7.21835,0 13.07999,-5.863593 13.07999,-13.081939 0,-7.218346 -5.86164,-13.079985 -13.07999,-13.079985 -0.0329,-1.24e-4 -0.0628,-1.24e-4 -0.0957,0 a 0.50005,0.50005 0 0 0 -0.008,0 z m 0.10352,1.003899 c 1.31937,0.0029 2.60319,0.300254 3.83982,0.748042 0.20492,0.07457 0.40975,0.150997 0.61132,0.23242 l -1.96483,3.445288 c -0.68556,-0.223169 -1.41195,-0.356799 -2.16405,-0.386716 -0.10652,-0.0065 -0.21381,-0.0098 -0.32226,-0.0098 h -0.008 c -0.86512,9.51e-4 -1.69725,0.142111 -2.4785,0.396482 l -1.96288,-3.447241 c 1.42155,-0.575094 2.91219,-0.975157 4.44919,-0.978509 z m -5.4277,1.281241 2.0039,3.517553 c -1.68931,0.797548 -3.0598,2.162536 -3.8574,3.851535 l -3.51755,-2.001939 c 1.1655,-2.315313 3.05333,-4.202738 5.37105,-5.367149 z m 10.85344,0.0039 c 2.31547,1.164872 4.20277,3.051395 5.36715,5.36715 l -3.51365,1.999985 c -0.7973,-1.689477 -2.16421,-3.057773 -3.85348,-3.855441 z m -5.43355,3.742161 h 0.008 c 0.21997,0 0.4368,0.01113 0.65234,0.0332 0.001,1.33e-4 0.003,-1.34e-4 0.004,0 0.0277,0.0028 0.0544,0.01048 0.082,0.01367 0.61669,0.0725 1.20988,0.2281 1.77928,0.447262 l 0.40625,0.154296 0.004,-0.0078 c 1.53929,0.703286 2.77716,1.941158 3.48045,3.480444 l -0.008,0.0039 0.1543,0.406247 c 0.22833,0.591041 0.39313,1.21908 0.46093,1.865221 0.0226,0.215609 0.0332,0.432373 0.0332,0.652339 -0.007,0.645826 -0.10362,1.289388 -0.28516,1.90819 -9.7e-4,0.0033 -0.003,0.0064 -0.004,0.0098 v 0.002 c -0.0597,0.202213 -0.12755,0.401233 -0.20508,0.597652 l -0.1543,0.398434 0.01,0.0059 -0.002,0.002 0.002,0.002 c -0.70399,1.542649 -1.94518,2.783081 -3.48826,3.486303 l -0.006,-0.01172 -0.39843,0.156249 c -0.59191,0.228702 -1.21605,0.391346 -1.86327,0.458981 -0.21545,0.02253 -0.43347,0.03516 -0.65429,0.03516 -0.22017,0 -0.43918,-0.01274 -0.65429,-0.03516 h -0.002 c -0.21509,-0.02248 -0.42719,-0.05508 -0.63671,-0.09766 h -0.002 c -0.20951,-0.04264 -0.41574,-0.09582 -0.61914,-0.156249 h -0.002 c -0.20398,-0.06066 -0.40426,-0.128843 -0.60156,-0.205076 l -0.40625,-0.156249 -0.004,0.0078 c -1.54028,-0.703666 -2.77929,-1.941817 -3.4824,-3.482397 l 0.002,-0.002 -0.002,-0.002 0.01,-0.0059 -0.15429,-0.398434 c -0.0775,-0.196218 -0.14541,-0.395645 -0.20508,-0.597652 -0.0615,-0.208036 -0.11492,-0.418728 -0.1582,-0.632808 -0.0843,-0.425931 -0.12895,-0.859806 -0.13281,-1.294913 2.6e-4,-0.217989 0.0127,-0.432772 0.0352,-0.64648 1.4e-4,-0.0013 -1.3e-4,-0.0026 0,-0.0039 0.0453,-0.429297 0.13313,-0.849133 0.25391,-1.255851 v -0.002 c 0.0605,-0.203641 0.13105,-0.404907 0.20703,-0.601558 l 0.15429,-0.406247 -0.008,-0.0059 c 0.70357,-1.538467 1.94145,-2.775523 3.48045,-3.478491 l 0.004,0.0078 0.40625,-0.154296 c 0.5944,-0.228783 1.21528,-0.393272 1.86131,-0.460934 h 0.002 c 0.0372,-0.0039 0.0759,-0.0026 0.11328,-0.0059 0.17668,-0.01341 0.35307,-0.02714 0.5332,-0.02734 z m -11.08781,2.597638 3.44333,1.962877 c -0.17653,0.541669 -0.29781,1.108317 -0.35547,1.693347 -0.0286,0.261488 -0.0469,0.525805 -0.0469,0.794916 6.5e-4,0.07326 0.0101,0.145761 0.0137,0.218749 0.0212,0.788596 0.15372,1.548971 0.38672,2.265609 l -1.68554,0.962884 -1.7578,0.999992 c -0.24635,-0.608091 -0.46358,-1.231797 -0.63281,-1.873033 -0.21426,-0.826617 -0.34765,-1.682894 -0.34765,-2.574201 0,-1.587513 0.41973,-3.060154 0.98242,-4.45114 z m 22.19124,0 c 0.56269,1.390987 0.98047,2.863627 0.98047,4.45114 0,1.586132 -0.4145,3.057257 -0.97851,4.449188 l -1.05468,-0.601559 -2.39061,-1.367177 c 0.22193,-0.683699 0.35494,-1.406449 0.38476,-2.156235 0.006,-0.106675 0.01,-0.21545 0.01,-0.324217 0,-0.139057 -0.004,-0.276951 -0.0117,-0.414059 -0.0365,-0.718117 -0.16962,-1.409746 -0.38281,-2.066392 z m -18.37682,7.872991 c 0.79716,1.690671 2.16527,3.059345 3.85544,3.857395 l -2.00389,3.517553 c -2.31492,-1.165783 -4.20369,-3.052011 -5.3691,-5.36715 z m 14.5624,0 3.51169,2.003892 c -1.16373,2.316277 -3.04909,4.204602 -5.36324,5.371056 l -2.00975,-3.5156 c 1.69263,-0.797712 3.06332,-2.166863 3.8613,-3.859348 z m -9.76946,4.230439 c 0.784,0.255364 1.61981,0.394528 2.48826,0.394528 0.86862,0 1.70413,-0.139068 2.48826,-0.394528 l 1.96288,3.443335 c -0.3476,0.140895 -0.70253,0.272267 -1.06054,0.390622 -0.71662,0.236811 -1.45752,0.421624 -2.22264,0.517575 -0.3829,0.04794 -0.77121,0.07422 -1.16796,0.07422 -0.59446,0 -1.17397,-0.05918 -1.73827,-0.162108 h -0.002 c -0.18767,-0.03427 -0.37403,-0.07364 -0.55859,-0.117187 h -0.002 c -0.18455,-0.04358 -0.36726,-0.09271 -0.54882,-0.14453 h -0.002 c -0.54646,-0.156048 -1.07824,-0.346951 -1.5996,-0.55859 z"
       transform="matrix(0.26458,0,0,0.26458,-31.351405,-0.26418)" />
  </g>
</svg>
