<?xml version="1.0" encoding="UTF-8" standalone="no"?>
<svg
   width="43.546024"
   height="55.538212"
   version="1.1"
   viewBox="0 0 11.521325 14.694196"
   id="svg3"
   xmlns:xlink="http://www.w3.org/1999/xlink"
   xmlns="http://www.w3.org/2000/svg"
   xmlns:svg="http://www.w3.org/2000/svg">
  <defs
     id="defs3">
    <linearGradient
       id="linearGradient4">
      <stop
         style="stop-color:#00abff;stop-opacity:0;"
         offset="0"
         id="stop5" />
      <stop
         style="stop-color:#00abff;stop-opacity:1;"
         offset="1"
         id="stop4" />
    </linearGradient>
    <linearGradient
       xlink:href="#linearGradient4"
       id="linearGradient5"
       x1="150.14693"
       y1="64.998032"
       x2="150.14693"
       y2="25.578024"
       gradientUnits="userSpaceOnUse" />
    <filter
       style="color-interpolation-filters:sRGB"
       id="filter5"
       x="-0.030947895"
       y="-0.023945385"
       width="1.0618958"
       height="1.0478908">
      <feGaussianBlur
         stdDeviation="0.52879019"
         id="feGaussianBlur5" />
    </filter>
  </defs>
  <g
     id="g5"
     transform="translate(-2.7058128,-1.252208)">
    <path
       id="path1"
       style="display:inline;opacity:0.6;fill:#00abff;fill-opacity:1;stroke:none;filter:url(#filter5)"
       d="m 151.80529,7.0003988 -0.004,0.00195 -19.35337,0.00391 c -1.35355,0 -2.45702,1.1084419 -2.45702,2.4648263 V 57.533244 c 0,1.356386 1.10342,2.466779 2.45702,2.466779 h 36.09349 c 1.35354,0 2.45701,-1.110394 2.45701,-2.466779 V 26.183857 c 0,-0.440736 -0.1033,-0.937882 -0.29296,-1.464834 h 0.0605 l -0.35546,-0.722651 c -0.0256,-0.05172 -0.0587,-0.104196 -0.0859,-0.156249 l -0.0606,-0.124999 h -0.008 c -0.33862,-0.618179 -0.78849,-1.252809 -1.38475,-1.849596 l -0.002,-0.002 L 156.2662,9.1527273 c -0.67177,-0.8348309 -1.43072,-1.3609105 -2.15429,-1.6796756 l -0.0859,-0.037109 -0.0312,-0.00195 C 153.21015,7.101048 152.46939,7.0003988 151.91076,7.0003988 Z m 0.11523,1.001946 c 0.37972,7.572e-4 0.91295,0.1248382 1.44726,0.3105447 V 22.248338 c 0,1.22032 0.89557,2.233173 2.06053,2.425764 0.14988,0.02829 0.30504,0.04492 0.46289,0.04492 h 13.69326 c 0.23563,0.562366 0.41406,1.117879 0.41406,1.464834 v 31.349387 c 0,0.822556 -0.64277,1.466786 -1.45702,1.466786 h -36.09349 c -0.81435,0 -1.45703,-0.644172 -1.45703,-1.466786 V 9.4710844 c 0,-0.8225555 0.64277,-1.4667865 1.45703,-1.4667865 z m 2.47069,0.9238216 c 0.38082,0.2545631 0.76636,0.4323933 1.12694,0.8886655 l 0.0176,0.021484 12.62687,12.7342851 c 0.37192,0.371985 0.57526,0.75942 0.82811,1.144523 h -13.16592 c -0.0603,0 -0.11757,-0.01071 -0.17578,-0.01758 -0.72125,-0.113118 -1.25779,-0.723296 -1.2578,-1.480458 z m -3.7988,18.2694016 c -0.0588,-0.0036 -0.11643,-0.0027 -0.17188,0.002 -0.23536,0.01991 -0.47565,0.09916 -0.66405,0.257811 -0.18841,0.158654 -0.29546,0.367839 -0.36914,0.576168 -0.11345,0.320765 -0.17155,0.754137 -0.24414,1.210929 -0.2103,0.02409 -0.41813,0.05328 -0.62695,0.08789 -0.19695,-0.472561 -0.36938,-0.919129 -0.56835,-1.203117 -0.12887,-0.183918 -0.29165,-0.358643 -0.52539,-0.451169 -0.23375,-0.09252 -0.49589,-0.07123 -0.70703,0 -0.22624,0.07631 -0.4469,0.211172 -0.59179,0.41406 -0.14489,0.202888 -0.20121,0.435779 -0.2207,0.658199 -0.0304,0.346696 0.0257,0.794678 0.0664,1.275381 -0.19738,0.07558 -0.39652,0.150946 -0.58984,0.236327 -0.33803,-0.407242 -0.64561,-0.785871 -0.92382,-1.0039 -0.1775,-0.139105 -0.38313,-0.2588 -0.63476,-0.279294 -0.25163,-0.02049 -0.49837,0.0766 -0.67968,0.207029 -0.19194,0.138095 -0.36177,0.335085 -0.4414,0.568356 -0.0796,0.233267 -0.0677,0.468955 -0.0234,0.685542 0.0678,0.33137 0.24243,0.72757 0.41406,1.152335 -0.17081,0.124515 -0.33766,0.249885 -0.50195,0.38281 -0.42417,-0.312253 -0.81461,-0.608611 -1.13671,-0.751948 -0.20627,-0.09179 -0.4388,-0.152539 -0.6875,-0.111327 -0.24869,0.04121 -0.46097,0.191301 -0.60546,0.361325 -0.15368,0.18077 -0.26707,0.417015 -0.28711,0.664058 -0.02,0.247045 0.0516,0.466735 0.14844,0.666011 0.14899,0.306735 0.41936,0.655622 0.69335,1.033196 -0.12953,0.159305 -0.25542,0.320888 -0.37695,0.486325 -0.43014,-0.166447 -0.83269,-0.342347 -1.16601,-0.406247 -0.21705,-0.04161 -0.45511,-0.05285 -0.68749,0.0293 -0.23238,0.08214 -0.42467,0.257623 -0.56054,0.451169 -0.12824,0.182602 -0.22251,0.428567 -0.19922,0.679683 0.0233,0.251115 0.14594,0.459034 0.28711,0.634761 0.22022,0.274136 0.60346,0.571785 1.01171,0.900384 -0.087,0.194467 -0.16529,0.391217 -0.24219,0.589839 -0.45494,-0.04908 -0.8815,-0.113451 -1.21874,-0.08789 -0.21967,0.01663 -0.44832,0.06746 -0.65039,0.20703 -0.20206,0.139569 -0.34701,0.352808 -0.42773,0.574215 -0.076,0.208421 -0.0998,0.468116 -0.0137,0.70312 0.0861,0.235003 0.25593,0.40431 0.43554,0.537106 0.2781,0.205608 0.71463,0.393663 1.17968,0.599605 -0.0319,0.205079 -0.0526,0.412726 -0.0742,0.619136 -0.45366,0.08111 -0.88481,0.138905 -1.20312,0.257811 -0.20617,0.07703 -0.41301,0.194113 -0.56836,0.384762 -0.15534,0.190642 -0.22721,0.436411 -0.24218,0.671871 -0.0141,0.220047 0.029,0.472206 0.17578,0.67187 0.14675,0.199675 0.35569,0.313496 0.56249,0.390622 0.3171,0.118263 0.77762,0.171545 1.26171,0.236327 0.0248,0.230365 0.0581,0.458853 0.0957,0.687495 -0.41071,0.173407 -0.80849,0.323381 -1.08593,0.507809 -0.18228,0.121173 -0.35756,0.276576 -0.46484,0.49609 -0.10728,0.219518 -0.11739,0.47558 -0.0801,0.707026 0.0354,0.219669 0.13323,0.45777 0.32421,0.621089 0.19099,0.163316 0.42002,0.229918 0.64258,0.257811 0.35002,0.04384 0.83357,-0.01048 1.35741,-0.05859 0.0823,0.213508 0.16583,0.426064 0.25976,0.634761 -0.3446,0.259846 -0.68901,0.503848 -0.90819,0.746088 -0.14627,0.161653 -0.27613,0.3515 -0.32617,0.58984 -0.05,0.23834 -0.003,0.494152 0.0898,0.708979 0.0885,0.205118 0.24656,0.412027 0.47265,0.523434 0.22609,0.111422 0.46188,0.117661 0.68555,0.08984 0.35256,-0.04384 0.8124,-0.221705 1.31444,-0.398434 0.11758,0.159913 0.23627,0.31653 0.36133,0.470699 -0.27293,0.387014 -0.53887,0.745321 -0.68555,1.056633 -0.0948,0.201225 -0.16357,0.424339 -0.14062,0.671871 0.0229,0.247524 0.14619,0.476946 0.30273,0.656245 0.14643,0.167775 0.35721,0.317822 0.60547,0.355466 0.24825,0.0378 0.47394,-0.0256 0.67773,-0.119139 0.31717,-0.145892 0.69499,-0.447882 1.10741,-0.759761 0.16694,0.135347 0.33607,0.271789 0.50976,0.398435 -0.17037,0.451225 -0.34077,0.869274 -0.40625,1.210929 -0.0421,0.219858 -0.0547,0.458178 0.0293,0.693354 0.084,0.235166 0.2617,0.42528 0.45898,0.560543 0.18459,0.126616 0.42603,0.219853 0.67773,0.193358 0.25171,-0.02646 0.46193,-0.15306 0.63672,-0.296873 0.27963,-0.230062 0.5806,-0.623559 0.92186,-1.05468 0.1686,0.07378 0.33806,0.148511 0.50977,0.214843 -0.0383,0.469003 -0.0924,0.903394 -0.0586,1.246084 0.0217,0.22001 0.0832,0.450885 0.22852,0.650386 0.14527,0.199524 0.35745,0.331329 0.58202,0.406248 0.20894,0.0697 0.47024,0.09041 0.70117,0 0.23093,-0.09041 0.39019,-0.263271 0.51758,-0.443357 0.19587,-0.276929 0.36485,-0.704638 0.55273,-1.158195 0.21996,0.03515 0.44447,0.06427 0.66601,0.08789 0.0888,0.529893 0.15457,1.020395 0.2871,1.351553 0.084,0.210031 0.20594,0.416776 0.41406,0.560543 0.20813,0.143775 0.47103,0.176293 0.69336,0.154296 0.23516,-0.02343 0.47846,-0.103668 0.66406,-0.265623 0.18559,-0.161955 0.29147,-0.37299 0.36132,-0.582027 0.10693,-0.319979 0.15798,-0.751344 0.22266,-1.203117 0.21966,-0.02268 0.43808,-0.04783 0.65624,-0.08203 0.19014,0.459301 0.35817,0.902352 0.55469,1.181632 0.12785,0.181722 0.29166,0.351785 0.52343,0.443356 0.23177,0.09154 0.49113,0.07004 0.70117,0 0.22446,-0.07487 0.44448,-0.21463 0.58984,-0.414059 0.14535,-0.199449 0.20093,-0.422618 0.22265,-0.642574 0.0337,-0.341031 -0.0147,-0.781937 -0.0527,-1.248038 0.20042,-0.07589 0.40138,-0.150341 0.59765,-0.236326 0.31887,0.401269 0.60907,0.779119 0.8789,0.998039 0.17371,0.140941 0.37764,0.262125 0.62695,0.287108 0.2493,0.02495 0.49636,-0.0657 0.67968,-0.191405 0.1945,-0.133381 0.36632,-0.323812 0.45117,-0.554684 0.0848,-0.230856 0.0822,-0.46108 0.043,-0.677729 -0.0605,-0.33385 -0.2279,-0.738053 -0.39063,-1.167961 0.18517,-0.133381 0.36927,-0.268917 0.54688,-0.412106 0.39166,0.294731 0.75235,0.576801 1.06249,0.714838 0.20137,0.08965 0.42798,0.150938 0.67187,0.111328 0.24389,-0.03965 0.45305,-0.187855 0.59765,-0.353513 0.15364,-0.176053 0.27707,-0.400538 0.30273,-0.642574 0.0257,-0.242044 -0.0354,-0.465433 -0.125,-0.664058 -0.13689,-0.303273 -0.39496,-0.635975 -0.65038,-0.99804 0.13281,-0.160858 0.26017,-0.326928 0.38476,-0.494137 0.49199,0.172954 0.94188,0.342874 1.29101,0.384763 0.22144,0.02646 0.45581,0.01576 0.67968,-0.0957 0.22386,-0.111535 0.38483,-0.313863 0.47265,-0.517575 0.0921,-0.213432 0.13657,-0.46396 0.0879,-0.701167 -0.0487,-0.237206 -0.17946,-0.428712 -0.32421,-0.589839 -0.21759,-0.242233 -0.55046,-0.480362 -0.89258,-0.738276 0.0968,-0.214264 0.18686,-0.431035 0.27149,-0.650386 0.51212,0.0469 0.98428,0.102587 1.33007,0.05859 0.22091,-0.02797 0.4526,-0.09529 0.64257,-0.257811 0.18996,-0.162521 0.28888,-0.402025 0.32422,-0.621089 0.037,-0.229911 0.0234,-0.482904 -0.082,-0.701167 -0.10538,-0.21827 -0.27688,-0.372665 -0.45703,-0.494137 -0.27175,-0.183234 -0.66405,-0.333562 -1.0625,-0.501949 0.0363,-0.232822 0.057,-0.46669 0.0801,-0.701167 0.48161,-0.06486 0.93962,-0.116665 1.25585,-0.236327 0.20561,-0.07782 0.40749,-0.191378 0.55273,-0.390622 0.14525,-0.199221 0.19165,-0.452598 0.17774,-0.67187 -0.0147,-0.233616 -0.0911,-0.474327 -0.24414,-0.664058 -0.15308,-0.189735 -0.35676,-0.307236 -0.56055,-0.384763 -0.31291,-0.119019 -0.73304,-0.17912 -1.17382,-0.257811 -0.0234,-0.215624 -0.053,-0.428475 -0.0879,-0.642573 0.45831,-0.203001 0.89048,-0.38521 1.16601,-0.58984 0.17776,-0.13202 0.34273,-0.297308 0.42773,-0.531246 0.085,-0.233944 0.0543,-0.495859 -0.0215,-0.70312 -0.0802,-0.219839 -0.21418,-0.434632 -0.41406,-0.574215 -0.19986,-0.139583 -0.4324,-0.189296 -0.65039,-0.20703 -0.33162,-0.02699 -0.75314,0.03236 -1.1953,0.08008 -0.0784,-0.204581 -0.16095,-0.405253 -0.25,-0.605464 0.39869,-0.321351 0.77976,-0.613097 0.99609,-0.88476 0.13916,-0.174741 0.25132,-0.385288 0.27343,-0.634761 0.0219,-0.249475 -0.0717,-0.490412 -0.19921,-0.67187 -0.1355,-0.192932 -0.32313,-0.361213 -0.55469,-0.443356 -0.23157,-0.08214 -0.46936,-0.0783 -0.68554,-0.03711 -0.33045,0.06298 -0.72875,0.234277 -1.15233,0.398434 -0.1287,-0.174397 -0.26867,-0.340277 -0.40625,-0.507809 0.29764,-0.4208 0.5823,-0.808866 0.71679,-1.130851 0.0861,-0.206115 0.14261,-0.431677 0.0957,-0.67773 -0.0469,-0.24605 -0.2046,-0.459805 -0.37695,-0.599605 -0.18134,-0.147101 -0.40586,-0.253873 -0.64843,-0.271482 -0.24257,-0.01761 -0.46251,0.05043 -0.6582,0.146483 -0.2998,0.147162 -0.63192,0.410994 -0.98827,0.679683 -0.17213,-0.138665 -0.34616,-0.276809 -0.52539,-0.406247 0.19499,-0.475954 0.39172,-0.913399 0.45117,-1.255851 0.0383,-0.220394 0.0426,-0.455554 -0.0586,-0.685542 -0.10114,-0.229987 -0.30252,-0.396617 -0.50195,-0.494137 -0.21403,-0.10466 -0.46366,-0.168335 -0.70897,-0.126952 -0.2453,0.04138 -0.45028,0.166985 -0.62109,0.310545 -0.26621,0.223865 -0.5373,0.583682 -0.84765,0.953118 -0.20208,-0.08872 -0.4068,-0.173923 -0.61328,-0.251952 0.0444,-0.526847 0.0962,-1.014922 0.0508,-1.365224 -0.029,-0.223439 -0.0923,-0.451617 -0.25781,-0.642574 -0.16554,-0.190957 -0.40609,-0.290777 -0.62695,-0.324216 -0.23263,-0.03519 -0.48975,-0.02167 -0.70898,0.08789 -0.21923,0.109554 -0.37409,0.288565 -0.49414,0.472653 -0.18356,0.281494 -0.33673,0.68176 -0.50976,1.099601 -0.21643,-0.03218 -0.43257,-0.05916 -0.65038,-0.08008 -0.0782,-0.510269 -0.14044,-0.989266 -0.26563,-1.314444 -0.0805,-0.209118 -0.19947,-0.414618 -0.40429,-0.560543 -0.15362,-0.109444 -0.33935,-0.160953 -0.51562,-0.171874 z m -0.0547,0.996087 c -0.007,-0.0043 0.009,0.004 0.0449,0.09765 0.0821,0.213134 0.16539,0.718234 0.28125,1.476552 l 0.0664,0.398435 0.39843,0.0293 c 0.44091,0.02876 0.87971,0.08353 1.31444,0.162108 l 0.39063,0.06641 0.15429,-0.361326 c 0.27613,-0.642905 0.45768,-1.097326 0.58398,-1.291006 0.0631,-0.09684 0.1044,-0.115678 0.11133,-0.11914 0.007,-0.0035 0.009,-0.01432 0.10351,0 0.0237,0.0036 0.0252,0.005 0.0312,0.0059 -0.007,-0.009 0.006,-0.0051 0.0195,0.09766 0.0298,0.22993 -0.009,0.75455 -0.0742,1.529286 l -0.0293,0.390622 0.36914,0.124999 c 0.40959,0.141069 0.81197,0.302522 1.20312,0.488278 l 0.33984,0.162108 0.25195,-0.281248 c 0.47917,-0.553183 0.79511,-0.951633 0.98046,-1.107414 0.0927,-0.07789 0.13356,-0.0867 0.14062,-0.08789 0.007,-0.0012 0.0225,-0.01421 0.11133,0.0293 0.0166,0.0081 0.0139,0.0067 0.0195,0.0098 -0.005,-0.0118 0.006,0.007 -0.0117,0.109375 -0.0387,0.223112 -0.2192,0.70059 -0.50976,1.408193 l -0.15625,0.37695 0.33984,0.228514 c 0.36855,0.249173 0.71937,0.515019 1.05664,0.804682 l 0.30273,0.265623 0.3164,-0.236326 c 0.55322,-0.406666 0.93389,-0.697314 1.13671,-0.79687 0.10141,-0.04978 0.14081,-0.05133 0.14844,-0.05078 0.008,5.54e-4 0.0224,-0.0087 0.0957,0.05078 0.0153,0.01242 0.0149,0.0114 0.0195,0.01563 -0.002,-0.01381 0.007,0.0067 -0.0332,0.103515 -0.0868,0.207865 -0.37374,0.627517 -0.81249,1.246085 l -0.22852,0.32617 0.26563,0.294919 c 0.2863,0.327931 0.54953,0.675277 0.79687,1.033196 l 0.2207,0.318357 0.36132,-0.132811 c 0.66057,-0.245537 1.12213,-0.436739 1.35156,-0.480466 0.11471,-0.02185 0.14753,-0.01023 0.15429,-0.0078 0.007,0.0024 0.0193,0.0039 0.0742,0.08203 h 0.008 c 0.009,0.01332 0.007,0.01036 0.01,0.01563 0.002,-0.01069 0.008,0.0085 -0.0547,0.08789 -0.1403,0.176177 -0.52947,0.505127 -1.12109,0.980461 l -0.31054,0.251952 0.16992,0.353513 c 0.19019,0.394518 0.35802,0.805314 0.50195,1.218741 l 0.125,0.369138 0.39257,-0.03711 c 0.68801,-0.06581 1.16718,-0.122012 1.39453,-0.103515 0.11365,0.0093 0.14798,0.02488 0.15429,0.0293 0.006,0.0044 0.0203,0.0071 0.0527,0.0957 0.006,0.01701 0.006,0.01558 0.008,0.02148 0.006,-0.01269 0.007,0.0076 -0.0742,0.06836 -0.177,0.131458 -0.63283,0.348089 -1.31444,0.648433 l -0.36133,0.162109 0.0723,0.392575 c 0.0829,0.425607 0.14349,0.851018 0.17773,1.283194 l 0.0293,0.384763 0.37695,0.06641 c 0.67473,0.129299 1.14471,0.213999 1.35741,0.294919 0.10636,0.04044 0.13631,0.06889 0.14062,0.07422 0.004,0.0053 0.0174,0.01039 0.0234,0.103514 9.4e-4,0.01489 1e-5,0.01153 0,0.01758 0.008,-0.0098 0.003,0.0059 -0.0898,0.04102 -0.20168,0.07631 -0.68829,0.157764 -1.4082,0.251951 l -0.40624,0.05859 -0.0293,0.406247 c -0.0302,0.455918 -0.0856,0.90827 -0.16992,1.357412 l -0.0742,0.390622 0.36133,0.164061 c 0.62114,0.270618 1.06261,0.449183 1.24803,0.574215 0.0927,0.06251 0.11386,0.09664 0.11719,0.103515 0.003,0.0068 0.007,0.0119 -0.008,0.103515 -0.003,0.02006 -0.003,0.01966 -0.004,0.02539 0.008,-0.0063 0.002,0.0067 -0.0976,0.01953 -0.22372,0.02835 -0.73323,-0.0046 -1.48437,-0.07422 l -0.39062,-0.03711 -0.12695,0.369138 c -0.15085,0.429258 -0.33057,0.847271 -0.53125,1.255851 l -0.17773,0.369138 0.32617,0.249998 c 0.53428,0.412529 0.91421,0.692354 1.06249,0.857416 0.0741,0.08255 0.0807,0.118347 0.082,0.124999 10e-4,0.0068 0.0132,0.01832 -0.0234,0.103515 -0.008,0.01752 -0.007,0.01595 -0.01,0.02148 0.0109,-0.0054 -0.005,0.0047 -0.10742,-0.0078 -0.22421,-0.02683 -0.71173,-0.183884 -1.42577,-0.435543 l -0.35352,-0.124999 -0.22265,0.310544 c -0.24231,0.345945 -0.50233,0.678572 -0.78125,0.996087 l -0.25781,0.29492 0.2207,0.318357 c 0.38765,0.563814 0.66696,0.952601 0.75976,1.158195 0.0464,0.102804 0.0457,0.141331 0.0449,0.148436 -7.6e-4,0.0072 0.003,0.01744 -0.0586,0.08789 -0.0148,0.01696 -0.0161,0.01869 -0.0195,0.02344 0.009,-0.0023 -0.004,0.0019 -0.0918,-0.03711 -0.19836,-0.08829 -0.59781,-0.370197 -1.18164,-0.812494 l -0.32421,-0.244139 -0.30274,0.259764 c -0.34072,0.292539 -0.70553,0.567144 -1.07811,0.818354 l -0.31641,0.214842 0.13281,0.369138 c 0.2405,0.662522 0.41553,1.120641 0.45703,1.3496 0.0208,0.114483 0.0101,0.149861 0.008,0.156249 -0.002,0.0064 0.005,0.0181 -0.0742,0.07227 -0.0198,0.0136 -0.021,0.01465 -0.0254,0.01758 0.0104,0.0015 -0.006,0.0042 -0.0859,-0.06055 -0.17639,-0.143132 -0.5077,-0.532455 -0.98046,-1.128898 l -0.24414,-0.318357 -0.36133,0.169921 c -0.39114,0.185766 -0.79352,0.353087 -1.20311,0.494137 l -0.36328,0.124999 0.0312,0.384763 c 0.0479,0.710329 0.0954,1.197349 0.0723,1.43163 -0.0116,0.117129 -0.033,0.156477 -0.0371,0.162108 -0.004,0.0057 -0.0117,0.01423 -0.10351,0.04492 -0.0198,0.0066 -0.0182,0.0073 -0.0234,0.0098 0.006,0.0027 -0.009,0.0028 -0.0645,-0.07617 -0.12815,-0.182138 -0.3287,-0.644266 -0.61328,-1.335928 l -0.15429,-0.37695 -0.40625,0.07422 c -0.43822,0.08273 -0.87542,0.137908 -1.3203,0.169921 l -0.39844,0.0293 -0.0605,0.390622 c -0.11022,0.698674 -0.17579,1.18804 -0.25,1.410147 -0.0371,0.111044 -0.0613,0.143938 -0.0664,0.148436 -0.005,0.0045 -0.008,0.01204 -0.10351,0.02148 -0.026,0.0026 -0.0294,0.0031 -0.0352,0.0039 0.008,0.0053 -0.008,-0.003 -0.0469,-0.09961 -0.0866,-0.216267 -0.17914,-0.733277 -0.3086,-1.505849 l -0.0684,-0.384763 -0.39063,-0.0293 c -0.44119,-0.03364 -0.88,-0.09221 -1.31444,-0.17578 l -0.40625,-0.07422 -0.15429,0.374998 c -0.28056,0.681835 -0.47944,1.136267 -0.60547,1.314444 -0.0551,0.07787 -0.0668,0.08081 -0.0586,0.07812 -0.005,-0.0024 -0.007,-0.0043 -0.0293,-0.01172 -0.0917,-0.03061 -0.0915,-0.03722 -0.0957,-0.04297 -0.004,-0.0057 -0.0255,-0.04682 -0.0371,-0.164061 -0.0232,-0.234523 0.0263,-0.72194 0.0742,-1.431631 l 0.0215,-0.38281 -0.35546,-0.126952 c -0.45599,-0.160707 -0.90371,-0.34451 -1.33593,-0.560543 -0.01,-0.0049 -0.0195,-0.0088 -0.0293,-0.01367 l -0.3164,0.574215 -0.0586,-0.302732 c -0.48728,0.614846 -0.8246,1.024712 -1.00585,1.17382 -0.0447,0.03675 -0.0744,0.05476 -0.0918,0.0625 h -0.002 c -0.005,-0.0031 -0.004,-0.0043 -0.0234,-0.01758 -0.0815,-0.05586 -0.0797,-0.06779 -0.082,-0.07422 -0.002,-0.0064 -0.007,-0.04992 0.0156,-0.169921 0.046,-0.24004 0.23722,-0.710463 0.48632,-1.402333 l 0.12696,-0.361326 -0.31836,-0.220702 c -0.36055,-0.246012 -0.71071,-0.513702 -1.04101,-0.798822 l -0.30273,-0.265623 -0.32422,0.244139 c -0.61068,0.462775 -1.02419,0.767504 -1.23241,0.863275 -0.0948,0.0436 -0.11283,0.0324 -0.10156,0.0332 -0.004,-0.0044 -0.004,-0.0022 -0.0176,-0.01758 -0.0643,-0.07359 -0.058,-0.08368 -0.0586,-0.08984 -5.8e-4,-0.006 -0.006,-0.04552 0.0449,-0.154296 0.1025,-0.217553 0.40326,-0.625077 0.81249,-1.224601 l 0.2207,-0.318357 -0.25195,-0.29492 c -0.26942,-0.312007 -0.5254,-0.635695 -0.75976,-0.974602 l -0.21289,-0.316404 -0.36328,0.132811 c -0.7307,0.257541 -1.23032,0.420529 -1.46092,0.449216 -0.0566,0.0071 -0.0896,0.0049 -0.10742,0.002 -0.003,-0.0051 -0.003,-0.0039 -0.0117,-0.02344 -0.0368,-0.08546 -0.023,-0.09652 -0.0215,-0.103515 0.001,-0.0072 0.006,-0.04098 0.082,-0.124999 0.15207,-0.16804 0.5427,-0.452508 1.08398,-0.871088 l 0.31836,-0.251951 -0.17774,-0.369138 c -0.19757,-0.403689 -0.3745,-0.816241 -0.52343,-1.240226 l -0.125,-0.369138 -0.39257,0.03711 c -0.76464,0.07083 -1.27856,0.110529 -1.50585,0.08203 -0.10429,-0.01318 -0.11684,-0.03438 -0.10742,-0.02734 -0.001,-0.0058 -6.2e-4,-0.005 -0.004,-0.02539 -0.015,-0.09309 -0.003,-0.09713 0,-0.103515 0.003,-0.0064 0.0238,-0.04017 0.11914,-0.103515 0.19061,-0.126691 0.64231,-0.31223 1.27733,-0.589839 l 0.36914,-0.162109 -0.082,-0.390622 c -0.0877,-0.445223 -0.14916,-0.899183 -0.18359,-1.351553 l -0.0293,-0.398434 -0.40624,-0.05859 c -0.72874,-0.09524 -1.22068,-0.175453 -1.42578,-0.251951 -0.0941,-0.03509 -0.0963,-0.05101 -0.0879,-0.04102 -4e-5,-0.0061 -9.5e-4,-0.0026 0,-0.01758 0.006,-0.09483 0.0172,-0.0983 0.0215,-0.103514 0.004,-0.0053 0.0311,-0.0411 0.14062,-0.08203 0.21915,-0.08187 0.71039,-0.161236 1.40234,-0.29492 l 0.36913,-0.07422 0.0293,-0.374997 c 0.0314,-0.424443 0.0916,-0.85112 0.16992,-1.269523 l 0.0664,-0.384763 -0.36133,-0.162108 c -0.69367,-0.305682 -1.15456,-0.524109 -1.33593,-0.658198 -0.0807,-0.05968 -0.0816,-0.07356 -0.0781,-0.06445 0.002,-0.005 0.003,-0.0078 0.0117,-0.03125 0.0327,-0.0896 0.0445,-0.09139 0.0508,-0.0957 0.006,-0.0043 0.0398,-0.02049 0.15625,-0.0293 0.23287,-0.01765 0.72248,0.03724 1.42382,0.103515 l 0.38476,0.03711 0.13281,-0.361325 c 0.14337,-0.407008 0.30588,-0.80875 0.49414,-1.197258 l 0.17773,-0.361325 -0.31054,-0.249998 c -0.60389,-0.485122 -1.00765,-0.817934 -1.15234,-0.99804 -0.0646,-0.08041 -0.06,-0.09598 -0.0586,-0.08594 0.003,-0.0051 0.003,-0.0052 0.0156,-0.02344 0.0552,-0.07869 0.0652,-0.07955 0.0723,-0.08203 0.007,-0.0025 0.0481,-0.01441 0.16406,0.0078 0.23192,0.04446 0.69039,0.233028 1.35741,0.480466 l 0.36914,0.132811 0.2207,-0.318357 c 0.24075,-0.349664 0.49742,-0.682654 0.77539,-1.003899 l 0.25976,-0.29492 -0.23047,-0.324216 c -0.41392,-0.589012 -0.71442,-0.989151 -0.81835,-1.203117 -0.052,-0.106984 -0.0454,-0.150371 -0.0449,-0.156249 4.7e-4,-0.0059 -0.0102,-0.01382 0.0527,-0.08789 0.0138,-0.01619 0.0135,-0.01519 0.0176,-0.01953 -0.009,7.65e-4 0.0119,-0.0093 0.10742,0.0332 0.21204,0.09436 0.63572,0.395742 1.26171,0.857416 l 0.32617,0.236327 0.30078,-0.259764 c 0.32921,-0.283736 0.67596,-0.543938 1.03515,-0.789057 l 0.32421,-0.228514 -0.14062,-0.369138 c -0.25683,-0.661351 -0.44707,-1.113552 -0.49414,-1.343741 -0.0235,-0.115095 -0.018,-0.155078 -0.0156,-0.162108 0.002,-0.007 0.004,-0.02577 0.082,-0.08203 0.0182,-0.01311 0.0184,-0.01228 0.0234,-0.01562 -0.0114,-0.0013 0.005,-0.0043 0.0879,0.06055 0.18302,0.143439 0.5283,0.54557 1.02538,1.144523 l 0.24414,0.29492 0.35351,-0.169921 c 0.38749,-0.185371 0.78365,-0.34487 1.18945,-0.486324 l 0.36132,-0.126953 -0.0234,-0.382809 c -0.0505,-0.730773 -0.10908,-1.234672 -0.0879,-1.476552 0.0106,-0.120939 0.0333,-0.156749 0.0371,-0.162109 0.004,-0.0054 0.01,-0.02117 0.10352,-0.05273 0.0183,-0.0062 0.0157,-0.0041 0.0215,-0.0059 -0.011,-0.0051 0.006,-0.0058 0.0664,0.08008 0.13157,0.187791 0.34021,0.663825 0.63476,1.373037 l 0.16406,0.37695 0.39844,-0.08203 c 0.42323,-0.08359 0.85323,-0.139594 1.28319,-0.17578 l 0.38476,-0.03125 0.0664,-0.38281 c 0.12101,-0.699963 0.18747,-1.189168 0.26562,-1.410146 0.0391,-0.110489 0.0684,-0.135726 0.0742,-0.140624 0.006,-0.0049 0.0126,-0.02113 0.10937,-0.0293 0.023,-0.0019 0.0238,-0.0012 0.0293,-0.002 z m 0.67187,2.681621 -1.24022,0.02148 c -0.83572,0.01398 -1.57757,0.0586 -2.1328,0.480465 -0.50742,0.323543 -0.89708,0.790792 -1.06249,1.351553 -0.16841,0.570907 -0.0875,1.222452 0.25781,1.822253 0.79201,1.455476 1.64899,2.9231 2.53904,4.347625 l 0.0156,0.02344 0.0215,0.0293 c 0.3069,0.376521 0.71747,0.528916 1.01171,0.576168 0.29424,0.04724 0.49375,0.04844 0.8496,0.212889 l 0.0215,0.01563 0.0293,0.0078 c 0.12535,0.04335 0.2914,0.178301 0.48827,0.390623 0.1768,0.190641 0.39171,0.427349 0.67187,0.626948 0.1387,0.140865 0.25714,0.199415 0.4043,0.251952 0.1573,0.05613 0.337,0.09347 0.53906,0.0957 1.60802,0.01739 3.66833,0.10218 5.24215,-0.04492 0.69969,-0.06406 1.15781,-0.550095 1.46874,-0.958977 l 0.008,-0.0078 v -0.0078 c 0.43318,-0.613833 0.47443,-1.347271 0.34765,-1.955064 v -0.0078 c -0.12431,-0.561587 -0.39203,-1.129774 -0.74023,-1.705066 -1.82256,-3.011123 -4.04027,-4.362285 -6.36323,-5.072229 -0.36946,-0.154303 -0.86915,-0.254694 -1.50585,-0.339842 -0.29871,-0.03995 -0.64082,-0.03543 -0.96679,-0.05859 z m -1.21679,1.025384 c 0.63689,-0.01058 1.34877,0.03807 1.95507,0.11914 0.60629,0.08108 1.13195,0.210403 1.27733,0.273435 l 0.0293,0.01367 0.0234,0.0078 c 2.16667,0.658939 4.10286,1.819436 5.81636,4.650358 0.31117,0.514133 0.52407,0.998693 0.61328,1.402334 0.0823,0.402699 0.0411,0.8452 -0.17774,1.160148 -0.24915,0.325384 -0.48137,0.535764 -0.75194,0.560543 -1.45498,0.135989 -3.51402,0.06238 -5.14645,0.04492 -0.0706,-7.74e-4 -0.15331,-0.02368 -0.21289,-0.04492 -0.0298,-0.01058 -0.0573,-0.02966 -0.0664,-0.03516 l -0.008,-0.0098 -0.0605,-0.03711 c -0.14534,-0.09143 -0.32582,-0.294989 -0.54491,-0.531246 -0.21705,-0.234062 -0.48318,-0.505452 -0.88672,-0.648433 -0.4763,-0.210599 -0.87183,-0.255933 -1.07811,-0.28906 -0.20846,-0.03348 -0.2188,-0.01313 -0.38281,-0.21289 -0.87316,-1.399326 -1.71325,-2.834747 -2.48827,-4.259735 l -0.008,-0.0078 v -0.0078 c -0.22613,-0.392739 -0.25322,-0.732134 -0.16211,-1.041008 0.0911,-0.308874 0.31801,-0.59322 0.6582,-0.804682 l 0.0215,-0.01367 0.0215,-0.01563 c 0.11755,-0.09098 0.79365,-0.260649 1.55858,-0.273435 z m -5.9941,2.05272 -0.59179,0.02148 0.0449,0.214842 c -0.37648,0.119669 -0.78448,0.199973 -1.05468,0.435544 v 0.0078 c -0.42801,0.382096 -0.79874,0.882656 -1.13085,1.46874 -1.73655,3.06475 -1.83391,5.661433 -1.31249,8.031193 0.0372,0.314801 0.14521,0.676093 0.30859,1.123039 0.16866,0.461365 0.39401,0.984532 0.65039,1.498036 0.25637,0.513505 0.54394,1.012778 0.8496,1.431631 0.29996,0.41104 0.59945,0.75393 1.01757,0.937493 0.53256,0.284942 1.1326,0.395988 1.70507,0.265623 0.58011,-0.132096 1.10855,-0.518693 1.46288,-1.113273 v 0.01367 c 0.88552,-1.406653 1.74265,-2.885354 2.55272,-4.363251 l 0.0156,-0.0293 0.0137,-0.0293 c 0.17842,-0.451931 0.1113,-0.879111 0.008,-1.158195 -0.10347,-0.279084 -0.19756,-0.46019 -0.22851,-0.849603 v -0.02148 l -0.008,-0.02344 c -0.0235,-0.129224 0.0144,-0.344278 0.10351,-0.619136 0.0817,-0.252173 0.18846,-0.556216 0.22266,-0.908197 0.0472,-0.17798 0.039,-0.308895 0.0137,-0.457028 -0.0282,-0.164865 -0.08,-0.340089 -0.17773,-0.517574 -0.77435,-1.40646 -1.71254,-3.237471 -2.61327,-4.533171 -0.40014,-0.577959 -1.04661,-0.741134 -1.55663,-0.810541 h -0.008 -0.008 c -0.0913,-0.0094 -0.18583,-0.0185 -0.2793,-0.01563 z m 0.0293,1.003899 c 0.0437,-0.0013 0.0928,0.0032 0.14063,0.0078 0.003,2.42e-4 0.003,-2.59e-4 0.006,0 0.39773,0.05726 0.69808,0.16394 0.84961,0.38281 h 0.008 c 0.83296,1.198215 1.76899,3.017904 2.55467,4.445281 0.0336,0.061 0.0616,0.144629 0.0723,0.20703 0.005,0.03036 0.002,0.06074 0,0.07226 l -0.006,0.01563 v 0.06641 c -0.008,0.170232 -0.10009,0.432251 -0.19922,0.738276 -0.0978,0.30195 -0.20438,0.665973 -0.13281,1.085929 0.0499,0.51795 0.20687,0.880844 0.27929,1.076165 0.0712,0.191964 0.085,0.208764 0,0.429684 -0.79491,1.448568 -1.63575,2.889675 -2.50193,4.265595 v 0.0078 l -0.008,0.0078 c -0.23196,0.389239 -0.51191,0.578827 -0.82616,0.650386 -0.31425,0.07155 -0.68073,0.01453 -1.0332,-0.177733 l -0.0234,-0.01563 -0.0215,-0.0059 c -0.0934,-0.03956 -0.35691,-0.269789 -0.61328,-0.621089 -0.25636,-0.3513 -0.52897,-0.815051 -0.76757,-1.29296 -0.2386,-0.477904 -0.45107,-0.972176 -0.60546,-1.394521 -0.1544,-0.422348 -0.24482,-0.790455 -0.25781,-0.916009 l -0.008,-0.0293 v -0.0293 c -0.48775,-2.206626 -0.42807,-4.459023 1.20312,-7.337839 0.29568,-0.521786 0.61345,-0.939718 0.92382,-1.216788 0.27438,-0.239219 0.62792,-0.411326 0.96679,-0.421872 z m 6.46675,5.234338 c -0.82246,0 -1.49803,0.683386 -1.49803,1.505848 0,0.822466 0.67557,1.498037 1.49803,1.498037 0.82246,0 1.49804,-0.675571 1.49804,-1.498037 0,-0.822462 -0.67558,-1.505848 -1.49804,-1.505848 z m 0,1.003899 c 0.28194,0 0.49414,0.219834 0.49414,0.501949 0,0.282108 -0.2122,0.494138 -0.49414,0.494138 -0.28194,0 -0.50195,-0.21203 -0.50195,-0.494138 0,-0.282107 0.22001,-0.501949 0.50195,-0.501949 z m 3.99997,1.091789 0.0156,0.01563 c -0.35188,0.0042 -0.70668,-2.57e-4 -1.05663,0.0078 h -0.0293 l -0.0293,0.0078 c -0.48125,0.07174 -0.8216,0.34501 -1.01171,0.574214 -0.19011,0.229194 -0.29653,0.399607 -0.61914,0.62109 l -0.0215,0.01367 -0.0156,0.01562 c -0.10026,0.08474 -0.30598,0.154634 -0.58984,0.214843 -0.25602,0.05431 -0.56975,0.117361 -0.88672,0.25781 -0.19154,0.04709 -0.29907,0.121186 -0.41992,0.220702 -0.12923,0.106471 -0.25774,0.248284 -0.36327,0.421872 -0.83417,1.372265 -1.95267,3.091652 -2.62694,4.517546 -0.30259,0.63659 -0.11438,1.280433 0.0801,1.755847 v 0.0078 l 0.008,0.0078 c 0.30855,0.683736 0.9184,1.085087 1.50585,1.285147 l 0.008,0.0059 c 0.54459,0.178169 1.17049,0.242336 1.84569,0.236327 3.52707,-0.03175 5.82334,-1.244212 7.61909,-2.878886 0.25331,-0.189206 0.51288,-0.462881 0.81835,-0.826166 0.31643,-0.376332 0.66443,-0.828443 0.98242,-1.306631 0.31797,-0.478189 0.60722,-0.979572 0.81835,-1.453115 0.20765,-0.465723 0.34576,-0.896175 0.29492,-1.351553 -0.0212,-0.599785 -0.22136,-1.173431 -0.61914,-1.601551 -0.40539,-0.436311 -1.00399,-0.707884 -1.69725,-0.716792 -0.82615,-0.02986 -1.6644,-0.04662 -2.50389,-0.05078 h -0.006 z m 1.49218,1.003899 h 0.008 c 0.83453,0.0042 1.66664,0.01499 2.48631,0.04492 h 0.008 0.008 c 0.45392,0.0057 0.75474,0.161799 0.9746,0.398434 0.21986,0.23664 0.35214,0.574852 0.36133,0.974603 v 0.0293 l 0.008,0.02344 c 0.0125,0.09895 -0.0515,0.442797 -0.22851,0.839838 -0.17704,0.397044 -0.44231,0.861544 -0.73828,1.306631 -0.29598,0.445087 -0.62622,0.874105 -0.91601,1.218741 -0.28978,0.344622 -0.56093,0.613004 -0.66406,0.687495 l -0.0215,0.01367 -0.0234,0.02344 c -1.67149,1.524888 -3.65353,2.59697 -6.9687,2.626934 -0.59748,0.0053 -1.12342,-0.06282 -1.51952,-0.191405 h -0.008 c -0.39061,-0.134515 -0.74682,-0.397816 -0.9082,-0.746088 -0.15217,-0.377255 -0.2101,-0.696818 -0.0957,-0.937494 0.62371,-1.318984 1.72998,-3.037355 2.57615,-4.429656 0.0359,-0.059 0.0916,-0.121667 0.14063,-0.162108 0.0491,-0.04044 0.11945,-0.05118 0.0137,-0.0293 l 0.0664,-0.01563 0.0586,-0.0293 c 0.15195,-0.07782 0.42258,-0.132243 0.73827,-0.199218 0.31102,-0.06599 0.68323,-0.149119 1.01171,-0.419918 0.42935,-0.303689 0.66285,-0.629434 0.79687,-0.79101 0.13271,-0.15999 0.13264,-0.174943 0.37695,-0.21289 0.81704,-0.01814 1.64208,-0.02759 2.45897,-0.02344 z"
       transform="matrix(0.26458,0,0,0.26458,-31.351402,-0.26418)" />
    <path
       id="path4"
       style="fill:url(#linearGradient5);fill-opacity:1;stroke:none"
       d="m 151.80529,7.0003988 -0.004,0.00195 -19.35337,0.00391 c -1.35355,0 -2.45702,1.1084419 -2.45702,2.4648263 V 57.533244 c 0,1.356386 1.10342,2.466779 2.45702,2.466779 h 36.09349 c 1.35354,0 2.45701,-1.110394 2.45701,-2.466779 V 26.183857 c 0,-0.440736 -0.1033,-0.937882 -0.29296,-1.464834 h 0.0605 l -0.35546,-0.722651 c -0.0256,-0.05172 -0.0587,-0.104196 -0.0859,-0.156249 l -0.0606,-0.124999 h -0.008 c -0.33862,-0.618179 -0.78849,-1.252809 -1.38475,-1.849596 l -0.002,-0.002 L 156.2662,9.1527273 c -0.67177,-0.8348309 -1.43072,-1.3609105 -2.15429,-1.6796756 l -0.0859,-0.037109 -0.0312,-0.00195 C 153.21015,7.101048 152.46939,7.0003988 151.91076,7.0003988 Z m 0.11523,1.001946 c 0.37972,7.572e-4 0.91295,0.1248382 1.44726,0.3105447 V 22.248338 c 0,1.22032 0.89557,2.233173 2.06053,2.425764 0.14988,0.02829 0.30504,0.04492 0.46289,0.04492 h 13.69326 c 0.23563,0.562366 0.41406,1.117879 0.41406,1.464834 v 31.349387 c 0,0.822556 -0.64277,1.466786 -1.45702,1.466786 h -36.09349 c -0.81435,0 -1.45703,-0.644172 -1.45703,-1.466786 V 9.4710844 c 0,-0.8225555 0.64277,-1.4667865 1.45703,-1.4667865 z m 2.47069,0.9238216 c 0.38082,0.2545631 0.76636,0.4323933 1.12694,0.8886655 l 0.0176,0.021484 12.62687,12.7342851 c 0.37192,0.371985 0.57526,0.75942 0.82811,1.144523 h -13.16592 c -0.0603,0 -0.11757,-0.01071 -0.17578,-0.01758 -0.72125,-0.113118 -1.25779,-0.723296 -1.2578,-1.480458 z m -3.7988,18.2694016 c -0.0588,-0.0036 -0.11643,-0.0027 -0.17188,0.002 -0.23536,0.01991 -0.47565,0.09916 -0.66405,0.257811 -0.18841,0.158654 -0.29546,0.367839 -0.36914,0.576168 -0.11345,0.320765 -0.17155,0.754137 -0.24414,1.210929 -0.2103,0.02409 -0.41813,0.05328 -0.62695,0.08789 -0.19695,-0.472561 -0.36938,-0.919129 -0.56835,-1.203117 -0.12887,-0.183918 -0.29165,-0.358643 -0.52539,-0.451169 -0.23375,-0.09252 -0.49589,-0.07123 -0.70703,0 -0.22624,0.07631 -0.4469,0.211172 -0.59179,0.41406 -0.14489,0.202888 -0.20121,0.435779 -0.2207,0.658199 -0.0304,0.346696 0.0257,0.794678 0.0664,1.275381 -0.19738,0.07558 -0.39652,0.150946 -0.58984,0.236327 -0.33803,-0.407242 -0.64561,-0.785871 -0.92382,-1.0039 -0.1775,-0.139105 -0.38313,-0.2588 -0.63476,-0.279294 -0.25163,-0.02049 -0.49837,0.0766 -0.67968,0.207029 -0.19194,0.138095 -0.36177,0.335085 -0.4414,0.568356 -0.0796,0.233267 -0.0677,0.468955 -0.0234,0.685542 0.0678,0.33137 0.24243,0.72757 0.41406,1.152335 -0.17081,0.124515 -0.33766,0.249885 -0.50195,0.38281 -0.42417,-0.312253 -0.81461,-0.608611 -1.13671,-0.751948 -0.20627,-0.09179 -0.4388,-0.152539 -0.6875,-0.111327 -0.24869,0.04121 -0.46097,0.191301 -0.60546,0.361325 -0.15368,0.18077 -0.26707,0.417015 -0.28711,0.664058 -0.02,0.247045 0.0516,0.466735 0.14844,0.666011 0.14899,0.306735 0.41936,0.655622 0.69335,1.033196 -0.12953,0.159305 -0.25542,0.320888 -0.37695,0.486325 -0.43014,-0.166447 -0.83269,-0.342347 -1.16601,-0.406247 -0.21705,-0.04161 -0.45511,-0.05285 -0.68749,0.0293 -0.23238,0.08214 -0.42467,0.257623 -0.56054,0.451169 -0.12824,0.182602 -0.22251,0.428567 -0.19922,0.679683 0.0233,0.251115 0.14594,0.459034 0.28711,0.634761 0.22022,0.274136 0.60346,0.571785 1.01171,0.900384 -0.087,0.194467 -0.16529,0.391217 -0.24219,0.589839 -0.45494,-0.04908 -0.8815,-0.113451 -1.21874,-0.08789 -0.21967,0.01663 -0.44832,0.06746 -0.65039,0.20703 -0.20206,0.139569 -0.34701,0.352808 -0.42773,0.574215 -0.076,0.208421 -0.0998,0.468116 -0.0137,0.70312 0.0861,0.235003 0.25593,0.40431 0.43554,0.537106 0.2781,0.205608 0.71463,0.393663 1.17968,0.599605 -0.0319,0.205079 -0.0526,0.412726 -0.0742,0.619136 -0.45366,0.08111 -0.88481,0.138905 -1.20312,0.257811 -0.20617,0.07703 -0.41301,0.194113 -0.56836,0.384762 -0.15534,0.190642 -0.22721,0.436411 -0.24218,0.671871 -0.0141,0.220047 0.029,0.472206 0.17578,0.67187 0.14675,0.199675 0.35569,0.313496 0.56249,0.390622 0.3171,0.118263 0.77762,0.171545 1.26171,0.236327 0.0248,0.230365 0.0581,0.458853 0.0957,0.687495 -0.41071,0.173407 -0.80849,0.323381 -1.08593,0.507809 -0.18228,0.121173 -0.35756,0.276576 -0.46484,0.49609 -0.10728,0.219518 -0.11739,0.47558 -0.0801,0.707026 0.0354,0.219669 0.13323,0.45777 0.32421,0.621089 0.19099,0.163316 0.42002,0.229918 0.64258,0.257811 0.35002,0.04384 0.83357,-0.01048 1.35741,-0.05859 0.0823,0.213508 0.16583,0.426064 0.25976,0.634761 -0.3446,0.259846 -0.68901,0.503848 -0.90819,0.746088 -0.14627,0.161653 -0.27613,0.3515 -0.32617,0.58984 -0.05,0.23834 -0.003,0.494152 0.0898,0.708979 0.0885,0.205118 0.24656,0.412027 0.47265,0.523434 0.22609,0.111422 0.46188,0.117661 0.68555,0.08984 0.35256,-0.04384 0.8124,-0.221705 1.31444,-0.398434 0.11758,0.159913 0.23627,0.31653 0.36133,0.470699 -0.27293,0.387014 -0.53887,0.745321 -0.68555,1.056633 -0.0948,0.201225 -0.16357,0.424339 -0.14062,0.671871 0.0229,0.247524 0.14619,0.476946 0.30273,0.656245 0.14643,0.167775 0.35721,0.317822 0.60547,0.355466 0.24825,0.0378 0.47394,-0.0256 0.67773,-0.119139 0.31717,-0.145892 0.69499,-0.447882 1.10741,-0.759761 0.16694,0.135347 0.33607,0.271789 0.50976,0.398435 -0.17037,0.451225 -0.34077,0.869274 -0.40625,1.210929 -0.0421,0.219858 -0.0547,0.458178 0.0293,0.693354 0.084,0.235166 0.2617,0.42528 0.45898,0.560543 0.18459,0.126616 0.42603,0.219853 0.67773,0.193358 0.25171,-0.02646 0.46193,-0.15306 0.63672,-0.296873 0.27963,-0.230062 0.5806,-0.623559 0.92186,-1.05468 0.1686,0.07378 0.33806,0.148511 0.50977,0.214843 -0.0383,0.469003 -0.0924,0.903394 -0.0586,1.246084 0.0217,0.22001 0.0832,0.450885 0.22852,0.650386 0.14527,0.199524 0.35745,0.331329 0.58202,0.406248 0.20894,0.0697 0.47024,0.09041 0.70117,0 0.23093,-0.09041 0.39019,-0.263271 0.51758,-0.443357 0.19587,-0.276929 0.36485,-0.704638 0.55273,-1.158195 0.21996,0.03515 0.44447,0.06427 0.66601,0.08789 0.0888,0.529893 0.15457,1.020395 0.2871,1.351553 0.084,0.210031 0.20594,0.416776 0.41406,0.560543 0.20813,0.143775 0.47103,0.176293 0.69336,0.154296 0.23516,-0.02343 0.47846,-0.103668 0.66406,-0.265623 0.18559,-0.161955 0.29147,-0.37299 0.36132,-0.582027 0.10693,-0.319979 0.15798,-0.751344 0.22266,-1.203117 0.21966,-0.02268 0.43808,-0.04783 0.65624,-0.08203 0.19014,0.459301 0.35817,0.902352 0.55469,1.181632 0.12785,0.181722 0.29166,0.351785 0.52343,0.443356 0.23177,0.09154 0.49113,0.07004 0.70117,0 0.22446,-0.07487 0.44448,-0.21463 0.58984,-0.414059 0.14535,-0.199449 0.20093,-0.422618 0.22265,-0.642574 0.0337,-0.341031 -0.0147,-0.781937 -0.0527,-1.248038 0.20042,-0.07589 0.40138,-0.150341 0.59765,-0.236326 0.31887,0.401269 0.60907,0.779119 0.8789,0.998039 0.17371,0.140941 0.37764,0.262125 0.62695,0.287108 0.2493,0.02495 0.49636,-0.0657 0.67968,-0.191405 0.1945,-0.133381 0.36632,-0.323812 0.45117,-0.554684 0.0848,-0.230856 0.0822,-0.46108 0.043,-0.677729 -0.0605,-0.33385 -0.2279,-0.738053 -0.39063,-1.167961 0.18517,-0.133381 0.36927,-0.268917 0.54688,-0.412106 0.39166,0.294731 0.75235,0.576801 1.06249,0.714838 0.20137,0.08965 0.42798,0.150938 0.67187,0.111328 0.24389,-0.03965 0.45305,-0.187855 0.59765,-0.353513 0.15364,-0.176053 0.27707,-0.400538 0.30273,-0.642574 0.0257,-0.242044 -0.0354,-0.465433 -0.125,-0.664058 -0.13689,-0.303273 -0.39496,-0.635975 -0.65038,-0.99804 0.13281,-0.160858 0.26017,-0.326928 0.38476,-0.494137 0.49199,0.172954 0.94188,0.342874 1.29101,0.384763 0.22144,0.02646 0.45581,0.01576 0.67968,-0.0957 0.22386,-0.111535 0.38483,-0.313863 0.47265,-0.517575 0.0921,-0.213432 0.13657,-0.46396 0.0879,-0.701167 -0.0487,-0.237206 -0.17946,-0.428712 -0.32421,-0.589839 -0.21759,-0.242233 -0.55046,-0.480362 -0.89258,-0.738276 0.0968,-0.214264 0.18686,-0.431035 0.27149,-0.650386 0.51212,0.0469 0.98428,0.102587 1.33007,0.05859 0.22091,-0.02797 0.4526,-0.09529 0.64257,-0.257811 0.18996,-0.162521 0.28888,-0.402025 0.32422,-0.621089 0.037,-0.229911 0.0234,-0.482904 -0.082,-0.701167 -0.10538,-0.21827 -0.27688,-0.372665 -0.45703,-0.494137 -0.27175,-0.183234 -0.66405,-0.333562 -1.0625,-0.501949 0.0363,-0.232822 0.057,-0.46669 0.0801,-0.701167 0.48161,-0.06486 0.93962,-0.116665 1.25585,-0.236327 0.20561,-0.07782 0.40749,-0.191378 0.55273,-0.390622 0.14525,-0.199221 0.19165,-0.452598 0.17774,-0.67187 -0.0147,-0.233616 -0.0911,-0.474327 -0.24414,-0.664058 -0.15308,-0.189735 -0.35676,-0.307236 -0.56055,-0.384763 -0.31291,-0.119019 -0.73304,-0.17912 -1.17382,-0.257811 -0.0234,-0.215624 -0.053,-0.428475 -0.0879,-0.642573 0.45831,-0.203001 0.89048,-0.38521 1.16601,-0.58984 0.17776,-0.13202 0.34273,-0.297308 0.42773,-0.531246 0.085,-0.233944 0.0543,-0.495859 -0.0215,-0.70312 -0.0802,-0.219839 -0.21418,-0.434632 -0.41406,-0.574215 -0.19986,-0.139583 -0.4324,-0.189296 -0.65039,-0.20703 -0.33162,-0.02699 -0.75314,0.03236 -1.1953,0.08008 -0.0784,-0.204581 -0.16095,-0.405253 -0.25,-0.605464 0.39869,-0.321351 0.77976,-0.613097 0.99609,-0.88476 0.13916,-0.174741 0.25132,-0.385288 0.27343,-0.634761 0.0219,-0.249475 -0.0717,-0.490412 -0.19921,-0.67187 -0.1355,-0.192932 -0.32313,-0.361213 -0.55469,-0.443356 -0.23157,-0.08214 -0.46936,-0.0783 -0.68554,-0.03711 -0.33045,0.06298 -0.72875,0.234277 -1.15233,0.398434 -0.1287,-0.174397 -0.26867,-0.340277 -0.40625,-0.507809 0.29764,-0.4208 0.5823,-0.808866 0.71679,-1.130851 0.0861,-0.206115 0.14261,-0.431677 0.0957,-0.67773 -0.0469,-0.24605 -0.2046,-0.459805 -0.37695,-0.599605 -0.18134,-0.147101 -0.40586,-0.253873 -0.64843,-0.271482 -0.24257,-0.01761 -0.46251,0.05043 -0.6582,0.146483 -0.2998,0.147162 -0.63192,0.410994 -0.98827,0.679683 -0.17213,-0.138665 -0.34616,-0.276809 -0.52539,-0.406247 0.19499,-0.475954 0.39172,-0.913399 0.45117,-1.255851 0.0383,-0.220394 0.0426,-0.455554 -0.0586,-0.685542 -0.10114,-0.229987 -0.30252,-0.396617 -0.50195,-0.494137 -0.21403,-0.10466 -0.46366,-0.168335 -0.70897,-0.126952 -0.2453,0.04138 -0.45028,0.166985 -0.62109,0.310545 -0.26621,0.223865 -0.5373,0.583682 -0.84765,0.953118 -0.20208,-0.08872 -0.4068,-0.173923 -0.61328,-0.251952 0.0444,-0.526847 0.0962,-1.014922 0.0508,-1.365224 -0.029,-0.223439 -0.0923,-0.451617 -0.25781,-0.642574 -0.16554,-0.190957 -0.40609,-0.290777 -0.62695,-0.324216 -0.23263,-0.03519 -0.48975,-0.02167 -0.70898,0.08789 -0.21923,0.109554 -0.37409,0.288565 -0.49414,0.472653 -0.18356,0.281494 -0.33673,0.68176 -0.50976,1.099601 -0.21643,-0.03218 -0.43257,-0.05916 -0.65038,-0.08008 -0.0782,-0.510269 -0.14044,-0.989266 -0.26563,-1.314444 -0.0805,-0.209118 -0.19947,-0.414618 -0.40429,-0.560543 -0.15362,-0.109444 -0.33935,-0.160953 -0.51562,-0.171874 z m -0.0547,0.996087 c -0.007,-0.0043 0.009,0.004 0.0449,0.09765 0.0821,0.213134 0.16539,0.718234 0.28125,1.476552 l 0.0664,0.398435 0.39843,0.0293 c 0.44091,0.02876 0.87971,0.08353 1.31444,0.162108 l 0.39063,0.06641 0.15429,-0.361326 c 0.27613,-0.642905 0.45768,-1.097326 0.58398,-1.291006 0.0631,-0.09684 0.1044,-0.115678 0.11133,-0.11914 0.007,-0.0035 0.009,-0.01432 0.10351,0 0.0237,0.0036 0.0252,0.005 0.0312,0.0059 -0.007,-0.009 0.006,-0.0051 0.0195,0.09766 0.0298,0.22993 -0.009,0.75455 -0.0742,1.529286 l -0.0293,0.390622 0.36914,0.124999 c 0.40959,0.141069 0.81197,0.302522 1.20312,0.488278 l 0.33984,0.162108 0.25195,-0.281248 c 0.47917,-0.553183 0.79511,-0.951633 0.98046,-1.107414 0.0927,-0.07789 0.13356,-0.0867 0.14062,-0.08789 0.007,-0.0012 0.0225,-0.01421 0.11133,0.0293 0.0166,0.0081 0.0139,0.0067 0.0195,0.0098 -0.005,-0.0118 0.006,0.007 -0.0117,0.109375 -0.0387,0.223112 -0.2192,0.70059 -0.50976,1.408193 l -0.15625,0.37695 0.33984,0.228514 c 0.36855,0.249173 0.71937,0.515019 1.05664,0.804682 l 0.30273,0.265623 0.3164,-0.236326 c 0.55322,-0.406666 0.93389,-0.697314 1.13671,-0.79687 0.10141,-0.04978 0.14081,-0.05133 0.14844,-0.05078 0.008,5.54e-4 0.0224,-0.0087 0.0957,0.05078 0.0153,0.01242 0.0149,0.0114 0.0195,0.01563 -0.002,-0.01381 0.007,0.0067 -0.0332,0.103515 -0.0868,0.207865 -0.37374,0.627517 -0.81249,1.246085 l -0.22852,0.32617 0.26563,0.294919 c 0.2863,0.327931 0.54953,0.675277 0.79687,1.033196 l 0.2207,0.318357 0.36132,-0.132811 c 0.66057,-0.245537 1.12213,-0.436739 1.35156,-0.480466 0.11471,-0.02185 0.14753,-0.01023 0.15429,-0.0078 0.007,0.0024 0.0193,0.0039 0.0742,0.08203 h 0.008 c 0.009,0.01332 0.007,0.01036 0.01,0.01563 0.002,-0.01069 0.008,0.0085 -0.0547,0.08789 -0.1403,0.176177 -0.52947,0.505127 -1.12109,0.980461 l -0.31054,0.251952 0.16992,0.353513 c 0.19019,0.394518 0.35802,0.805314 0.50195,1.218741 l 0.125,0.369138 0.39257,-0.03711 c 0.68801,-0.06581 1.16718,-0.122012 1.39453,-0.103515 0.11365,0.0093 0.14798,0.02488 0.15429,0.0293 0.006,0.0044 0.0203,0.0071 0.0527,0.0957 0.006,0.01701 0.006,0.01558 0.008,0.02148 0.006,-0.01269 0.007,0.0076 -0.0742,0.06836 -0.177,0.131458 -0.63283,0.348089 -1.31444,0.648433 l -0.36133,0.162109 0.0723,0.392575 c 0.0829,0.425607 0.14349,0.851018 0.17773,1.283194 l 0.0293,0.384763 0.37695,0.06641 c 0.67473,0.129299 1.14471,0.213999 1.35741,0.294919 0.10636,0.04044 0.13631,0.06889 0.14062,0.07422 0.004,0.0053 0.0174,0.01039 0.0234,0.103514 9.4e-4,0.01489 1e-5,0.01153 0,0.01758 0.008,-0.0098 0.003,0.0059 -0.0898,0.04102 -0.20168,0.07631 -0.68829,0.157764 -1.4082,0.251951 l -0.40624,0.05859 -0.0293,0.406247 c -0.0302,0.455918 -0.0856,0.90827 -0.16992,1.357412 l -0.0742,0.390622 0.36133,0.164061 c 0.62114,0.270618 1.06261,0.449183 1.24803,0.574215 0.0927,0.06251 0.11386,0.09664 0.11719,0.103515 0.003,0.0068 0.007,0.0119 -0.008,0.103515 -0.003,0.02006 -0.003,0.01966 -0.004,0.02539 0.008,-0.0063 0.002,0.0067 -0.0976,0.01953 -0.22372,0.02835 -0.73323,-0.0046 -1.48437,-0.07422 l -0.39062,-0.03711 -0.12695,0.369138 c -0.15085,0.429258 -0.33057,0.847271 -0.53125,1.255851 l -0.17773,0.369138 0.32617,0.249998 c 0.53428,0.412529 0.91421,0.692354 1.06249,0.857416 0.0741,0.08255 0.0807,0.118347 0.082,0.124999 10e-4,0.0068 0.0132,0.01832 -0.0234,0.103515 -0.008,0.01752 -0.007,0.01595 -0.01,0.02148 0.0109,-0.0054 -0.005,0.0047 -0.10742,-0.0078 -0.22421,-0.02683 -0.71173,-0.183884 -1.42577,-0.435543 l -0.35352,-0.124999 -0.22265,0.310544 c -0.24231,0.345945 -0.50233,0.678572 -0.78125,0.996087 l -0.25781,0.29492 0.2207,0.318357 c 0.38765,0.563814 0.66696,0.952601 0.75976,1.158195 0.0464,0.102804 0.0457,0.141331 0.0449,0.148436 -7.6e-4,0.0072 0.003,0.01744 -0.0586,0.08789 -0.0148,0.01696 -0.0161,0.01869 -0.0195,0.02344 0.009,-0.0023 -0.004,0.0019 -0.0918,-0.03711 -0.19836,-0.08829 -0.59781,-0.370197 -1.18164,-0.812494 l -0.32421,-0.244139 -0.30274,0.259764 c -0.34072,0.292539 -0.70553,0.567144 -1.07811,0.818354 l -0.31641,0.214842 0.13281,0.369138 c 0.2405,0.662522 0.41553,1.120641 0.45703,1.3496 0.0208,0.114483 0.0101,0.149861 0.008,0.156249 -0.002,0.0064 0.005,0.0181 -0.0742,0.07227 -0.0198,0.0136 -0.021,0.01465 -0.0254,0.01758 0.0104,0.0015 -0.006,0.0042 -0.0859,-0.06055 -0.17639,-0.143132 -0.5077,-0.532455 -0.98046,-1.128898 l -0.24414,-0.318357 -0.36133,0.169921 c -0.39114,0.185766 -0.79352,0.353087 -1.20311,0.494137 l -0.36328,0.124999 0.0312,0.384763 c 0.0479,0.710329 0.0954,1.197349 0.0723,1.43163 -0.0116,0.117129 -0.033,0.156477 -0.0371,0.162108 -0.004,0.0057 -0.0117,0.01423 -0.10351,0.04492 -0.0198,0.0066 -0.0182,0.0073 -0.0234,0.0098 0.006,0.0027 -0.009,0.0028 -0.0645,-0.07617 -0.12815,-0.182138 -0.3287,-0.644266 -0.61328,-1.335928 l -0.15429,-0.37695 -0.40625,0.07422 c -0.43822,0.08273 -0.87542,0.137908 -1.3203,0.169921 l -0.39844,0.0293 -0.0605,0.390622 c -0.11022,0.698674 -0.17579,1.18804 -0.25,1.410147 -0.0371,0.111044 -0.0613,0.143938 -0.0664,0.148436 -0.005,0.0045 -0.008,0.01204 -0.10351,0.02148 -0.026,0.0026 -0.0294,0.0031 -0.0352,0.0039 0.008,0.0053 -0.008,-0.003 -0.0469,-0.09961 -0.0866,-0.216267 -0.17914,-0.733277 -0.3086,-1.505849 l -0.0684,-0.384763 -0.39063,-0.0293 c -0.44119,-0.03364 -0.88,-0.09221 -1.31444,-0.17578 l -0.40625,-0.07422 -0.15429,0.374998 c -0.28056,0.681835 -0.47944,1.136267 -0.60547,1.314444 -0.0551,0.07787 -0.0668,0.08081 -0.0586,0.07812 -0.005,-0.0024 -0.007,-0.0043 -0.0293,-0.01172 -0.0917,-0.03061 -0.0915,-0.03722 -0.0957,-0.04297 -0.004,-0.0057 -0.0255,-0.04682 -0.0371,-0.164061 -0.0232,-0.234523 0.0263,-0.72194 0.0742,-1.431631 l 0.0215,-0.38281 -0.35546,-0.126952 c -0.45599,-0.160707 -0.90371,-0.34451 -1.33593,-0.560543 -0.01,-0.0049 -0.0195,-0.0088 -0.0293,-0.01367 l -0.3164,0.574215 -0.0586,-0.302732 c -0.48728,0.614846 -0.8246,1.024712 -1.00585,1.17382 -0.0447,0.03675 -0.0744,0.05476 -0.0918,0.0625 h -0.002 c -0.005,-0.0031 -0.004,-0.0043 -0.0234,-0.01758 -0.0815,-0.05586 -0.0797,-0.06779 -0.082,-0.07422 -0.002,-0.0064 -0.007,-0.04992 0.0156,-0.169921 0.046,-0.24004 0.23722,-0.710463 0.48632,-1.402333 l 0.12696,-0.361326 -0.31836,-0.220702 c -0.36055,-0.246012 -0.71071,-0.513702 -1.04101,-0.798822 l -0.30273,-0.265623 -0.32422,0.244139 c -0.61068,0.462775 -1.02419,0.767504 -1.23241,0.863275 -0.0948,0.0436 -0.11283,0.0324 -0.10156,0.0332 -0.004,-0.0044 -0.004,-0.0022 -0.0176,-0.01758 -0.0643,-0.07359 -0.058,-0.08368 -0.0586,-0.08984 -5.8e-4,-0.006 -0.006,-0.04552 0.0449,-0.154296 0.1025,-0.217553 0.40326,-0.625077 0.81249,-1.224601 l 0.2207,-0.318357 -0.25195,-0.29492 c -0.26942,-0.312007 -0.5254,-0.635695 -0.75976,-0.974602 l -0.21289,-0.316404 -0.36328,0.132811 c -0.7307,0.257541 -1.23032,0.420529 -1.46092,0.449216 -0.0566,0.0071 -0.0896,0.0049 -0.10742,0.002 -0.003,-0.0051 -0.003,-0.0039 -0.0117,-0.02344 -0.0368,-0.08546 -0.023,-0.09652 -0.0215,-0.103515 0.001,-0.0072 0.006,-0.04098 0.082,-0.124999 0.15207,-0.16804 0.5427,-0.452508 1.08398,-0.871088 l 0.31836,-0.251951 -0.17774,-0.369138 c -0.19757,-0.403689 -0.3745,-0.816241 -0.52343,-1.240226 l -0.125,-0.369138 -0.39257,0.03711 c -0.76464,0.07083 -1.27856,0.110529 -1.50585,0.08203 -0.10429,-0.01318 -0.11684,-0.03438 -0.10742,-0.02734 -0.001,-0.0058 -6.2e-4,-0.005 -0.004,-0.02539 -0.015,-0.09309 -0.003,-0.09713 0,-0.103515 0.003,-0.0064 0.0238,-0.04017 0.11914,-0.103515 0.19061,-0.126691 0.64231,-0.31223 1.27733,-0.589839 l 0.36914,-0.162109 -0.082,-0.390622 c -0.0877,-0.445223 -0.14916,-0.899183 -0.18359,-1.351553 l -0.0293,-0.398434 -0.40624,-0.05859 c -0.72874,-0.09524 -1.22068,-0.175453 -1.42578,-0.251951 -0.0941,-0.03509 -0.0963,-0.05101 -0.0879,-0.04102 -4e-5,-0.0061 -9.5e-4,-0.0026 0,-0.01758 0.006,-0.09483 0.0172,-0.0983 0.0215,-0.103514 0.004,-0.0053 0.0311,-0.0411 0.14062,-0.08203 0.21915,-0.08187 0.71039,-0.161236 1.40234,-0.29492 l 0.36913,-0.07422 0.0293,-0.374997 c 0.0314,-0.424443 0.0916,-0.85112 0.16992,-1.269523 l 0.0664,-0.384763 -0.36133,-0.162108 c -0.69367,-0.305682 -1.15456,-0.524109 -1.33593,-0.658198 -0.0807,-0.05968 -0.0816,-0.07356 -0.0781,-0.06445 0.002,-0.005 0.003,-0.0078 0.0117,-0.03125 0.0327,-0.0896 0.0445,-0.09139 0.0508,-0.0957 0.006,-0.0043 0.0398,-0.02049 0.15625,-0.0293 0.23287,-0.01765 0.72248,0.03724 1.42382,0.103515 l 0.38476,0.03711 0.13281,-0.361325 c 0.14337,-0.407008 0.30588,-0.80875 0.49414,-1.197258 l 0.17773,-0.361325 -0.31054,-0.249998 c -0.60389,-0.485122 -1.00765,-0.817934 -1.15234,-0.99804 -0.0646,-0.08041 -0.06,-0.09598 -0.0586,-0.08594 0.003,-0.0051 0.003,-0.0052 0.0156,-0.02344 0.0552,-0.07869 0.0652,-0.07955 0.0723,-0.08203 0.007,-0.0025 0.0481,-0.01441 0.16406,0.0078 0.23192,0.04446 0.69039,0.233028 1.35741,0.480466 l 0.36914,0.132811 0.2207,-0.318357 c 0.24075,-0.349664 0.49742,-0.682654 0.77539,-1.003899 l 0.25976,-0.29492 -0.23047,-0.324216 c -0.41392,-0.589012 -0.71442,-0.989151 -0.81835,-1.203117 -0.052,-0.106984 -0.0454,-0.150371 -0.0449,-0.156249 4.7e-4,-0.0059 -0.0102,-0.01382 0.0527,-0.08789 0.0138,-0.01619 0.0135,-0.01519 0.0176,-0.01953 -0.009,7.65e-4 0.0119,-0.0093 0.10742,0.0332 0.21204,0.09436 0.63572,0.395742 1.26171,0.857416 l 0.32617,0.236327 0.30078,-0.259764 c 0.32921,-0.283736 0.67596,-0.543938 1.03515,-0.789057 l 0.32421,-0.228514 -0.14062,-0.369138 c -0.25683,-0.661351 -0.44707,-1.113552 -0.49414,-1.343741 -0.0235,-0.115095 -0.018,-0.155078 -0.0156,-0.162108 0.002,-0.007 0.004,-0.02577 0.082,-0.08203 0.0182,-0.01311 0.0184,-0.01228 0.0234,-0.01562 -0.0114,-0.0013 0.005,-0.0043 0.0879,0.06055 0.18302,0.143439 0.5283,0.54557 1.02538,1.144523 l 0.24414,0.29492 0.35351,-0.169921 c 0.38749,-0.185371 0.78365,-0.34487 1.18945,-0.486324 l 0.36132,-0.126953 -0.0234,-0.382809 c -0.0505,-0.730773 -0.10908,-1.234672 -0.0879,-1.476552 0.0106,-0.120939 0.0333,-0.156749 0.0371,-0.162109 0.004,-0.0054 0.01,-0.02117 0.10352,-0.05273 0.0183,-0.0062 0.0157,-0.0041 0.0215,-0.0059 -0.011,-0.0051 0.006,-0.0058 0.0664,0.08008 0.13157,0.187791 0.34021,0.663825 0.63476,1.373037 l 0.16406,0.37695 0.39844,-0.08203 c 0.42323,-0.08359 0.85323,-0.139594 1.28319,-0.17578 l 0.38476,-0.03125 0.0664,-0.38281 c 0.12101,-0.699963 0.18747,-1.189168 0.26562,-1.410146 0.0391,-0.110489 0.0684,-0.135726 0.0742,-0.140624 0.006,-0.0049 0.0126,-0.02113 0.10937,-0.0293 0.023,-0.0019 0.0238,-0.0012 0.0293,-0.002 z m 0.67187,2.681621 -1.24022,0.02148 c -0.83572,0.01398 -1.57757,0.0586 -2.1328,0.480465 -0.50742,0.323543 -0.89708,0.790792 -1.06249,1.351553 -0.16841,0.570907 -0.0875,1.222452 0.25781,1.822253 0.79201,1.455476 1.64899,2.9231 2.53904,4.347625 l 0.0156,0.02344 0.0215,0.0293 c 0.3069,0.376521 0.71747,0.528916 1.01171,0.576168 0.29424,0.04724 0.49375,0.04844 0.8496,0.212889 l 0.0215,0.01563 0.0293,0.0078 c 0.12535,0.04335 0.2914,0.178301 0.48827,0.390623 0.1768,0.190641 0.39171,0.427349 0.67187,0.626948 0.1387,0.140865 0.25714,0.199415 0.4043,0.251952 0.1573,0.05613 0.337,0.09347 0.53906,0.0957 1.60802,0.01739 3.66833,0.10218 5.24215,-0.04492 0.69969,-0.06406 1.15781,-0.550095 1.46874,-0.958977 l 0.008,-0.0078 v -0.0078 c 0.43318,-0.613833 0.47443,-1.347271 0.34765,-1.955064 v -0.0078 c -0.12431,-0.561587 -0.39203,-1.129774 -0.74023,-1.705066 -1.82256,-3.011123 -4.04027,-4.362285 -6.36323,-5.072229 -0.36946,-0.154303 -0.86915,-0.254694 -1.50585,-0.339842 -0.29871,-0.03995 -0.64082,-0.03543 -0.96679,-0.05859 z m -1.21679,1.025384 c 0.63689,-0.01058 1.34877,0.03807 1.95507,0.11914 0.60629,0.08108 1.13195,0.210403 1.27733,0.273435 l 0.0293,0.01367 0.0234,0.0078 c 2.16667,0.658939 4.10286,1.819436 5.81636,4.650358 0.31117,0.514133 0.52407,0.998693 0.61328,1.402334 0.0823,0.402699 0.0411,0.8452 -0.17774,1.160148 -0.24915,0.325384 -0.48137,0.535764 -0.75194,0.560543 -1.45498,0.135989 -3.51402,0.06238 -5.14645,0.04492 -0.0706,-7.74e-4 -0.15331,-0.02368 -0.21289,-0.04492 -0.0298,-0.01058 -0.0573,-0.02966 -0.0664,-0.03516 l -0.008,-0.0098 -0.0605,-0.03711 c -0.14534,-0.09143 -0.32582,-0.294989 -0.54491,-0.531246 -0.21705,-0.234062 -0.48318,-0.505452 -0.88672,-0.648433 -0.4763,-0.210599 -0.87183,-0.255933 -1.07811,-0.28906 -0.20846,-0.03348 -0.2188,-0.01313 -0.38281,-0.21289 -0.87316,-1.399326 -1.71325,-2.834747 -2.48827,-4.259735 l -0.008,-0.0078 v -0.0078 c -0.22613,-0.392739 -0.25322,-0.732134 -0.16211,-1.041008 0.0911,-0.308874 0.31801,-0.59322 0.6582,-0.804682 l 0.0215,-0.01367 0.0215,-0.01563 c 0.11755,-0.09098 0.79365,-0.260649 1.55858,-0.273435 z m -5.9941,2.05272 -0.59179,0.02148 0.0449,0.214842 c -0.37648,0.119669 -0.78448,0.199973 -1.05468,0.435544 v 0.0078 c -0.42801,0.382096 -0.79874,0.882656 -1.13085,1.46874 -1.73655,3.06475 -1.83391,5.661433 -1.31249,8.031193 0.0372,0.314801 0.14521,0.676093 0.30859,1.123039 0.16866,0.461365 0.39401,0.984532 0.65039,1.498036 0.25637,0.513505 0.54394,1.012778 0.8496,1.431631 0.29996,0.41104 0.59945,0.75393 1.01757,0.937493 0.53256,0.284942 1.1326,0.395988 1.70507,0.265623 0.58011,-0.132096 1.10855,-0.518693 1.46288,-1.113273 v 0.01367 c 0.88552,-1.406653 1.74265,-2.885354 2.55272,-4.363251 l 0.0156,-0.0293 0.0137,-0.0293 c 0.17842,-0.451931 0.1113,-0.879111 0.008,-1.158195 -0.10347,-0.279084 -0.19756,-0.46019 -0.22851,-0.849603 v -0.02148 l -0.008,-0.02344 c -0.0235,-0.129224 0.0144,-0.344278 0.10351,-0.619136 0.0817,-0.252173 0.18846,-0.556216 0.22266,-0.908197 0.0472,-0.17798 0.039,-0.308895 0.0137,-0.457028 -0.0282,-0.164865 -0.08,-0.340089 -0.17773,-0.517574 -0.77435,-1.40646 -1.71254,-3.237471 -2.61327,-4.533171 -0.40014,-0.577959 -1.04661,-0.741134 -1.55663,-0.810541 h -0.008 -0.008 c -0.0913,-0.0094 -0.18583,-0.0185 -0.2793,-0.01563 z m 0.0293,1.003899 c 0.0437,-0.0013 0.0928,0.0032 0.14063,0.0078 0.003,2.42e-4 0.003,-2.59e-4 0.006,0 0.39773,0.05726 0.69808,0.16394 0.84961,0.38281 h 0.008 c 0.83296,1.198215 1.76899,3.017904 2.55467,4.445281 0.0336,0.061 0.0616,0.144629 0.0723,0.20703 0.005,0.03036 0.002,0.06074 0,0.07226 l -0.006,0.01563 v 0.06641 c -0.008,0.170232 -0.10009,0.432251 -0.19922,0.738276 -0.0978,0.30195 -0.20438,0.665973 -0.13281,1.085929 0.0499,0.51795 0.20687,0.880844 0.27929,1.076165 0.0712,0.191964 0.085,0.208764 0,0.429684 -0.79491,1.448568 -1.63575,2.889675 -2.50193,4.265595 v 0.0078 l -0.008,0.0078 c -0.23196,0.389239 -0.51191,0.578827 -0.82616,0.650386 -0.31425,0.07155 -0.68073,0.01453 -1.0332,-0.177733 l -0.0234,-0.01563 -0.0215,-0.0059 c -0.0934,-0.03956 -0.35691,-0.269789 -0.61328,-0.621089 -0.25636,-0.3513 -0.52897,-0.815051 -0.76757,-1.29296 -0.2386,-0.477904 -0.45107,-0.972176 -0.60546,-1.394521 -0.1544,-0.422348 -0.24482,-0.790455 -0.25781,-0.916009 l -0.008,-0.0293 v -0.0293 c -0.48775,-2.206626 -0.42807,-4.459023 1.20312,-7.337839 0.29568,-0.521786 0.61345,-0.939718 0.92382,-1.216788 0.27438,-0.239219 0.62792,-0.411326 0.96679,-0.421872 z m 6.46675,5.234338 c -0.82246,0 -1.49803,0.683386 -1.49803,1.505848 0,0.822466 0.67557,1.498037 1.49803,1.498037 0.82246,0 1.49804,-0.675571 1.49804,-1.498037 0,-0.822462 -0.67558,-1.505848 -1.49804,-1.505848 z m 0,1.003899 c 0.28194,0 0.49414,0.219834 0.49414,0.501949 0,0.282108 -0.2122,0.494138 -0.49414,0.494138 -0.28194,0 -0.50195,-0.21203 -0.50195,-0.494138 0,-0.282107 0.22001,-0.501949 0.50195,-0.501949 z m 3.99997,1.091789 0.0156,0.01563 c -0.35188,0.0042 -0.70668,-2.57e-4 -1.05663,0.0078 h -0.0293 l -0.0293,0.0078 c -0.48125,0.07174 -0.8216,0.34501 -1.01171,0.574214 -0.19011,0.229194 -0.29653,0.399607 -0.61914,0.62109 l -0.0215,0.01367 -0.0156,0.01562 c -0.10026,0.08474 -0.30598,0.154634 -0.58984,0.214843 -0.25602,0.05431 -0.56975,0.117361 -0.88672,0.25781 -0.19154,0.04709 -0.29907,0.121186 -0.41992,0.220702 -0.12923,0.106471 -0.25774,0.248284 -0.36327,0.421872 -0.83417,1.372265 -1.95267,3.091652 -2.62694,4.517546 -0.30259,0.63659 -0.11438,1.280433 0.0801,1.755847 v 0.0078 l 0.008,0.0078 c 0.30855,0.683736 0.9184,1.085087 1.50585,1.285147 l 0.008,0.0059 c 0.54459,0.178169 1.17049,0.242336 1.84569,0.236327 3.52707,-0.03175 5.82334,-1.244212 7.61909,-2.878886 0.25331,-0.189206 0.51288,-0.462881 0.81835,-0.826166 0.31643,-0.376332 0.66443,-0.828443 0.98242,-1.306631 0.31797,-0.478189 0.60722,-0.979572 0.81835,-1.453115 0.20765,-0.465723 0.34576,-0.896175 0.29492,-1.351553 -0.0212,-0.599785 -0.22136,-1.173431 -0.61914,-1.601551 -0.40539,-0.436311 -1.00399,-0.707884 -1.69725,-0.716792 -0.82615,-0.02986 -1.6644,-0.04662 -2.50389,-0.05078 h -0.006 z m 1.49218,1.003899 h 0.008 c 0.83453,0.0042 1.66664,0.01499 2.48631,0.04492 h 0.008 0.008 c 0.45392,0.0057 0.75474,0.161799 0.9746,0.398434 0.21986,0.23664 0.35214,0.574852 0.36133,0.974603 v 0.0293 l 0.008,0.02344 c 0.0125,0.09895 -0.0515,0.442797 -0.22851,0.839838 -0.17704,0.397044 -0.44231,0.861544 -0.73828,1.306631 -0.29598,0.445087 -0.62622,0.874105 -0.91601,1.218741 -0.28978,0.344622 -0.56093,0.613004 -0.66406,0.687495 l -0.0215,0.01367 -0.0234,0.02344 c -1.67149,1.524888 -3.65353,2.59697 -6.9687,2.626934 -0.59748,0.0053 -1.12342,-0.06282 -1.51952,-0.191405 h -0.008 c -0.39061,-0.134515 -0.74682,-0.397816 -0.9082,-0.746088 -0.15217,-0.377255 -0.2101,-0.696818 -0.0957,-0.937494 0.62371,-1.318984 1.72998,-3.037355 2.57615,-4.429656 0.0359,-0.059 0.0916,-0.121667 0.14063,-0.162108 0.0491,-0.04044 0.11945,-0.05118 0.0137,-0.0293 l 0.0664,-0.01563 0.0586,-0.0293 c 0.15195,-0.07782 0.42258,-0.132243 0.73827,-0.199218 0.31102,-0.06599 0.68323,-0.149119 1.01171,-0.419918 0.42935,-0.303689 0.66285,-0.629434 0.79687,-0.79101 0.13271,-0.15999 0.13264,-0.174943 0.37695,-0.21289 0.81704,-0.01814 1.64208,-0.02759 2.45897,-0.02344 z"
       transform="matrix(0.26458,0,0,0.26458,-31.351402,-0.26418)" />
  </g>
</svg>
