<?xml version="1.0" encoding="UTF-8" standalone="no"?>
<svg
   width="43.546024"
   height="55.538212"
   version="1.1"
   viewBox="0 0 43.546024 55.538212"
   id="svg6"
   xmlns:xlink="http://www.w3.org/1999/xlink"
   xmlns="http://www.w3.org/2000/svg"
   xmlns:svg="http://www.w3.org/2000/svg"
   xmlns:rdf="http://www.w3.org/1999/02/22-rdf-syntax-ns#"
   xmlns:cc="http://creativecommons.org/ns#"
   xmlns:dc="http://purl.org/dc/elements/1.1/">
  <defs
     id="defs6">
    <linearGradient
       id="linearGradient7">
      <stop
         style="stop-color:#00abff;stop-opacity:0;"
         offset="0"
         id="stop8" />
      <stop
         style="stop-color:#00abff;stop-opacity:1;"
         offset="1"
         id="stop7" />
    </linearGradient>
    <linearGradient
       xlink:href="#linearGradient7"
       id="linearGradient8"
       x1="149.80104"
       y1="65.000099"
       x2="149.80104"
       y2="27.087057"
       gradientUnits="userSpaceOnUse" />
    <filter
       style="color-interpolation-filters:sRGB"
       id="filter8"
       x="-0.030947896"
       y="-0.023945386"
       width="1.0618958"
       height="1.0478908">
      <feGaussianBlur
         stdDeviation="0.52879393"
         id="feGaussianBlur8" />
    </filter>
  </defs>
  <metadata
     id="metadata1">
    <rdf:RDF>
      <cc:Work
         rdf:about="">
        <dc:format>image/svg+xml</dc:format>
        <dc:type
           rdf:resource="http://purl.org/dc/dcmitype/StillImage" />
      </cc:Work>
    </rdf:RDF>
  </metadata>
  <g
     id="g8"
     transform="translate(-10.224935,-4.7308946)">
    <path
       id="path1"
       style="display:inline;opacity:0.6;fill:#00abff;fill-opacity:1;stroke:none;stroke-opacity:1;filter:url(#filter8)"
       d="m 151.80529,7.0001 -0.004,0.00195 -8.79688,0.00195 -10.55664,0.00195 c -1.35355,0 -2.45703,1.1084593 -2.45703,2.4648437 V 57.533303 c 0,1.356386 1.10343,2.466797 2.45703,2.466797 h 36.09375 c 1.35354,0 2.45703,-1.110412 2.45703,-2.466797 V 26.183694 c 0,-0.440775 -0.10522,-0.93784 -0.29492,-1.464844 h 0.0625 l -0.35547,-0.722656 c -0.0256,-0.05172 -0.0587,-0.104197 -0.0859,-0.15625 l -0.0605,-0.125 h -0.008 c -0.33863,-0.618179 -0.78851,-1.252822 -1.38477,-1.84961 l -0.002,-0.002 -12.60352,-12.7109373 c -0.59286,-0.7367818 -1.2538,-1.2334508 -1.89844,-1.5585937 -0.0858,-0.043269 -0.17087,-0.083655 -0.25586,-0.1210938 l -0.0859,-0.037109 -0.0312,-0.00195 C 153.21017,7.1007523 152.4694,7.0001 151.91076,7.0001 Z m -8.80078,1.0019531 v 1.0019531 h -2.00195 v 2.9980468 h 2.00195 v 1.003906 h -2.00195 v 2.996094 h 2.00195 V 17.0001 h -2.00195 v 3.003906 h 2.00195 V 21.0001 h -2.00195 v 3.005859 h 2.00195 v 0.996094 h -2.00195 v 3.003906 h 2.00195 v 0.996094 h -2.00195 V 32.0001 h 2.00195 v 2 h -2.00195 v 7.005859 c 0,0.545349 0.4527,0.996094 0.99805,0.996094 h 3.0039 c 0.54535,0 0.9961,-0.450745 0.9961,-0.996094 V 34.0001 31.004006 h -2 v -0.998047 h 2 v -3.003906 h -2 v -0.996094 h 2 v -3.003906 h -2 v -0.998047 h 2 V 19.0001 h -2 v -0.996094 h 2 v -2.998047 h -2 v -1.003906 h 2 v -2.996094 h -2 v -1.003906 h 2 V 8.0020531 h 5.91992 c 0.37972,7.572e-4 0.91295,0.1248404 1.44726,0.3105469 v 13.935547 c 0,1.22032 0.89559,2.23319 2.06055,2.425781 0.12867,0.02428 0.26181,0.03744 0.39649,0.04102 0.0222,5.89e-4 0.0441,0.0039 0.0664,0.0039 h 13.69336 c 0.23563,0.562366 0.41406,1.117889 0.41406,1.464844 v 31.349609 c 0,0.822556 -0.64278,1.466797 -1.45703,1.466797 h -36.09375 c -0.81435,0 -1.45703,-0.644183 -1.45703,-1.466797 V 9.4708031 c 0,-0.8225555 0.64277,-1.4667968 1.45703,-1.4667969 z m 0.9961,0 h 1.0039 v 1.0019531 h -1.0039 z m 10.39062,0.9238281 c 0.38082,0.2545632 0.76637,0.4323997 1.12695,0.8886719 l 0.0176,0.021484 12.62696,12.7343749 c 0.37192,0.371986 0.57527,0.759428 0.82812,1.144532 h -13.16601 c -0.069,0 -0.13496,-0.01057 -0.20118,-0.01953 -0.70854,-0.123275 -1.23241,-0.730184 -1.23242,-1.478515 z m -12.39062,1.0761718 h 1.0039 v 1.003906 h -1.0039 z m 2,2 h 1.0039 v 1.003906 h -1.0039 z m -2,2 h 1.0039 v 1.003906 h -1.0039 z m 2,2 h 1.0039 V 17.0001 h -1.0039 z m -2,2.001953 h 1.0039 V 19.0001 h -1.0039 z m 2,2 h 1.0039 V 21.0001 h -1.0039 z m -2,2 h 1.0039 v 0.998047 h -1.0039 z m 2,2.001953 h 1.0039 v 0.996094 h -1.0039 z m -2,2 h 1.0039 v 0.996094 h -1.0039 z m 2,2 h 1.0039 v 0.996094 h -1.0039 z m -2,2 h 1.0039 v 0.998047 h -1.0039 z m 2,1.994141 h 1.0039 v 1.003906 h -1.0039 z m -2,3.003906 h 3.0039 v 2.998047 h -3.0039 z m 1.0039,4.001953 h 0.9961 v 0.996094 h -0.9961 z m 11.94922,4.996094 c -0.34865,-2e-6 -0.69731,0.133198 -0.95508,0.398438 l -2.23632,2.300781 c -1.29846,-0.613761 -2.73443,-0.996094 -4.26172,-0.996094 -1.54421,0 -2.98545,0.383577 -4.29688,0.998047 l -2.2539,-2.302734 c -0.25764,-0.264307 -0.60526,-0.396485 -0.95313,-0.396485 -0.34848,1e-6 -0.69731,0.131245 -0.95508,0.396485 -0.51554,0.530462 -0.51557,1.393394 0,1.923828 l 1.83008,1.880859 c -2.33652,1.975002 -3.87109,4.926775 -3.87109,8.289063 a 0.50690069,0.50690069 0 0 0 0.50586,0.505859 h 19.98632 a 0.50690069,0.50690069 0 0 0 0.50782,-0.505859 c 0,-3.361603 -1.53655,-6.329339 -3.90235,-8.306641 l 1.81055,-1.863281 c 0.51554,-0.530462 0.51557,-1.393394 0,-1.923828 -0.25777,-0.265232 -0.60642,-0.398436 -0.95508,-0.398438 z m -14.95703,0.988281 c 0.0761,-2e-6 0.15319,0.03968 0.22852,0.117188 a 0.50690069,0.50690069 0 0 0 0.002,0.002 l 2.48047,2.535156 a 0.50690069,0.50690069 0 0 0 0.59375,0.09766 c 1.26489,-0.650894 2.68361,-1.023438 4.19922,-1.023438 1.49813,0 2.91571,0.372102 4.16211,1.021484 a 0.50690069,0.50690069 0 0 0 0.59765,-0.0957 l 2.46485,-2.537109 c 0.15063,-0.155001 0.30637,-0.155017 0.45703,0 0.15062,0.154966 0.15065,0.354749 0,0.509766 l -2.16602,2.228515 0.008,-0.002 a 0.50690069,0.50690069 0 0 0 0.0527,0.761719 c 2.24482,1.678226 3.69467,4.347217 3.84961,7.380859 h -18.85156 c 0.15497,-3.032015 1.60286,-5.688268 3.81835,-7.367187 a 0.50690069,0.50690069 0 0 0 0.0586,-0.75586 l -2.18164,-2.246093 c -0.15063,-0.154965 -0.15066,-0.354748 0,-0.509766 0.0753,-0.0775 0.15045,-0.117186 0.22656,-0.117188 z m 2.50781,5.855469 a 0.50690069,0.50690069 0 0 0 -0.50781,0.50586 v 1.46875 a 0.50690069,0.50690069 0 0 0 0.50781,0.507812 h 1.42774 a 0.50690069,0.50690069 0 0 0 0.50586,-0.507812 v -1.46875 a 0.50690069,0.50690069 0 0 0 -0.50586,-0.50586 z m 8.56446,0 a 0.50690069,0.50690069 0 0 0 -0.50586,0.50586 v 1.46875 a 0.50690069,0.50690069 0 0 0 0.50586,0.507812 h 1.42773 a 0.50690069,0.50690069 0 0 0 0.50781,-0.507812 v -1.46875 a 0.50690069,0.50690069 0 0 0 -0.50781,-0.50586 z m -8.0586,1.013672 h 0.41406 v 0.455078 h -0.41406 z m 8.56641,0 h 0.41406 v 0.455078 h -0.41406 z"
       transform="translate(-118.4967,-1.0001)" />
    <path
       id="path7"
       style="fill:url(#linearGradient8);fill-opacity:1;stroke:none;stroke-opacity:1"
       d="m 151.80529,7.0001 -0.004,0.00195 -8.79688,0.00195 -10.55664,0.00195 c -1.35355,0 -2.45703,1.1084593 -2.45703,2.4648437 V 57.533303 c 0,1.356386 1.10343,2.466797 2.45703,2.466797 h 36.09375 c 1.35354,0 2.45703,-1.110412 2.45703,-2.466797 V 26.183694 c 0,-0.440775 -0.10522,-0.93784 -0.29492,-1.464844 h 0.0625 l -0.35547,-0.722656 c -0.0256,-0.05172 -0.0587,-0.104197 -0.0859,-0.15625 l -0.0605,-0.125 h -0.008 c -0.33863,-0.618179 -0.78851,-1.252822 -1.38477,-1.84961 l -0.002,-0.002 -12.60352,-12.7109373 c -0.59286,-0.7367818 -1.2538,-1.2334508 -1.89844,-1.5585937 -0.0858,-0.043269 -0.17087,-0.083655 -0.25586,-0.1210938 l -0.0859,-0.037109 -0.0312,-0.00195 C 153.21017,7.1007523 152.4694,7.0001 151.91076,7.0001 Z m -8.80078,1.0019531 v 1.0019531 h -2.00195 v 2.9980468 h 2.00195 v 1.003906 h -2.00195 v 2.996094 h 2.00195 V 17.0001 h -2.00195 v 3.003906 h 2.00195 V 21.0001 h -2.00195 v 3.005859 h 2.00195 v 0.996094 h -2.00195 v 3.003906 h 2.00195 v 0.996094 h -2.00195 V 32.0001 h 2.00195 v 2 h -2.00195 v 7.005859 c 0,0.545349 0.4527,0.996094 0.99805,0.996094 h 3.0039 c 0.54535,0 0.9961,-0.450745 0.9961,-0.996094 V 34.0001 31.004006 h -2 v -0.998047 h 2 v -3.003906 h -2 v -0.996094 h 2 v -3.003906 h -2 v -0.998047 h 2 V 19.0001 h -2 v -0.996094 h 2 v -2.998047 h -2 v -1.003906 h 2 v -2.996094 h -2 v -1.003906 h 2 V 8.0020531 h 5.91992 c 0.37972,7.572e-4 0.91295,0.1248404 1.44726,0.3105469 v 13.935547 c 0,1.22032 0.89559,2.23319 2.06055,2.425781 0.12867,0.02428 0.26181,0.03744 0.39649,0.04102 0.0222,5.89e-4 0.0441,0.0039 0.0664,0.0039 h 13.69336 c 0.23563,0.562366 0.41406,1.117889 0.41406,1.464844 v 31.349609 c 0,0.822556 -0.64278,1.466797 -1.45703,1.466797 h -36.09375 c -0.81435,0 -1.45703,-0.644183 -1.45703,-1.466797 V 9.4708031 c 0,-0.8225555 0.64277,-1.4667968 1.45703,-1.4667969 z m 0.9961,0 h 1.0039 v 1.0019531 h -1.0039 z m 10.39062,0.9238281 c 0.38082,0.2545632 0.76637,0.4323997 1.12695,0.8886719 l 0.0176,0.021484 12.62696,12.7343749 c 0.37192,0.371986 0.57527,0.759428 0.82812,1.144532 h -13.16601 c -0.069,0 -0.13496,-0.01057 -0.20118,-0.01953 -0.70854,-0.123275 -1.23241,-0.730184 -1.23242,-1.478515 z m -12.39062,1.0761718 h 1.0039 v 1.003906 h -1.0039 z m 2,2 h 1.0039 v 1.003906 h -1.0039 z m -2,2 h 1.0039 v 1.003906 h -1.0039 z m 2,2 h 1.0039 V 17.0001 h -1.0039 z m -2,2.001953 h 1.0039 V 19.0001 h -1.0039 z m 2,2 h 1.0039 V 21.0001 h -1.0039 z m -2,2 h 1.0039 v 0.998047 h -1.0039 z m 2,2.001953 h 1.0039 v 0.996094 h -1.0039 z m -2,2 h 1.0039 v 0.996094 h -1.0039 z m 2,2 h 1.0039 v 0.996094 h -1.0039 z m -2,2 h 1.0039 v 0.998047 h -1.0039 z m 2,1.994141 h 1.0039 v 1.003906 h -1.0039 z m -2,3.003906 h 3.0039 v 2.998047 h -3.0039 z m 1.0039,4.001953 h 0.9961 v 0.996094 h -0.9961 z m 11.94922,4.996094 c -0.34865,-2e-6 -0.69731,0.133198 -0.95508,0.398438 l -2.23632,2.300781 c -1.29846,-0.613761 -2.73443,-0.996094 -4.26172,-0.996094 -1.54421,0 -2.98545,0.383577 -4.29688,0.998047 l -2.2539,-2.302734 c -0.25764,-0.264307 -0.60526,-0.396485 -0.95313,-0.396485 -0.34848,1e-6 -0.69731,0.131245 -0.95508,0.396485 -0.51554,0.530462 -0.51557,1.393394 0,1.923828 l 1.83008,1.880859 c -2.33652,1.975002 -3.87109,4.926775 -3.87109,8.289063 a 0.50690069,0.50690069 0 0 0 0.50586,0.505859 h 19.98632 a 0.50690069,0.50690069 0 0 0 0.50782,-0.505859 c 0,-3.361603 -1.53655,-6.329339 -3.90235,-8.306641 l 1.81055,-1.863281 c 0.51554,-0.530462 0.51557,-1.393394 0,-1.923828 -0.25777,-0.265232 -0.60642,-0.398436 -0.95508,-0.398438 z m -14.95703,0.988281 c 0.0761,-2e-6 0.15319,0.03968 0.22852,0.117188 a 0.50690069,0.50690069 0 0 0 0.002,0.002 l 2.48047,2.535156 a 0.50690069,0.50690069 0 0 0 0.59375,0.09766 c 1.26489,-0.650894 2.68361,-1.023438 4.19922,-1.023438 1.49813,0 2.91571,0.372102 4.16211,1.021484 a 0.50690069,0.50690069 0 0 0 0.59765,-0.0957 l 2.46485,-2.537109 c 0.15063,-0.155001 0.30637,-0.155017 0.45703,0 0.15062,0.154966 0.15065,0.354749 0,0.509766 l -2.16602,2.228515 0.008,-0.002 a 0.50690069,0.50690069 0 0 0 0.0527,0.761719 c 2.24482,1.678226 3.69467,4.347217 3.84961,7.380859 h -18.85156 c 0.15497,-3.032015 1.60286,-5.688268 3.81835,-7.367187 a 0.50690069,0.50690069 0 0 0 0.0586,-0.75586 l -2.18164,-2.246093 c -0.15063,-0.154965 -0.15066,-0.354748 0,-0.509766 0.0753,-0.0775 0.15045,-0.117186 0.22656,-0.117188 z m 2.50781,5.855469 a 0.50690069,0.50690069 0 0 0 -0.50781,0.50586 v 1.46875 a 0.50690069,0.50690069 0 0 0 0.50781,0.507812 h 1.42774 a 0.50690069,0.50690069 0 0 0 0.50586,-0.507812 v -1.46875 a 0.50690069,0.50690069 0 0 0 -0.50586,-0.50586 z m 8.56446,0 a 0.50690069,0.50690069 0 0 0 -0.50586,0.50586 v 1.46875 a 0.50690069,0.50690069 0 0 0 0.50586,0.507812 h 1.42773 a 0.50690069,0.50690069 0 0 0 0.50781,-0.507812 v -1.46875 a 0.50690069,0.50690069 0 0 0 -0.50781,-0.50586 z m -8.0586,1.013672 h 0.41406 v 0.455078 h -0.41406 z m 8.56641,0 h 0.41406 v 0.455078 h -0.41406 z"
       transform="translate(-118.4967,-1.0001)" />
  </g>
</svg>
