<?xml version="1.0" encoding="UTF-8" standalone="no"?>
<svg
   width="43.546024"
   height="55.538212"
   version="1.1"
   id="svg3"
   xmlns:xlink="http://www.w3.org/1999/xlink"
   xmlns="http://www.w3.org/2000/svg"
   xmlns:svg="http://www.w3.org/2000/svg">
  <defs
     id="defs3">
    <linearGradient
       id="linearGradient4">
      <stop
         style="stop-color:#00abff;stop-opacity:0;"
         offset="0"
         id="stop5" />
      <stop
         style="stop-color:#00abff;stop-opacity:1;"
         offset="1"
         id="stop4" />
    </linearGradient>
    <linearGradient
       xlink:href="#linearGradient4"
       id="linearGradient5"
       x1="150.84512"
       y1="65.000099"
       x2="150.84512"
       y2="26.967604"
       gradientUnits="userSpaceOnUse" />
    <filter
       style="color-interpolation-filters:sRGB"
       id="filter5"
       x="-0.030947896"
       y="-0.023945386"
       width="1.0618958"
       height="1.0478908">
      <feGaussianBlur
         stdDeviation="0.52879393"
         id="feGaussianBlur5" />
    </filter>
  </defs>
  <g
     id="g5"
     transform="translate(-10.222995,-4.7308946)">
    <path
       id="path1"
       style="display:inline;opacity:0.6;fill:#00abff;fill-opacity:1;stroke:none;filter:url(#filter5)"
       d="m 151.80394,7.0001 -0.004,0.00195 -19.35351,0.00391 c -1.35355,0 -2.45703,1.1084593 -2.45703,2.4648437 V 57.533303 c 0,1.356386 1.10343,2.466797 2.45703,2.466797 h 36.09375 c 1.35354,0 2.45703,-1.110412 2.45703,-2.466797 V 26.183694 c 0,-0.440775 -0.10327,-0.93784 -0.29297,-1.464844 h 0.0606 l -0.35547,-0.722656 c -0.0256,-0.05172 -0.0587,-0.104197 -0.0859,-0.15625 l -0.0605,-0.125 h -0.008 c -0.33862,-0.618179 -0.7885,-1.252822 -1.38476,-1.84961 l -0.002,-0.002 L 156.26488,9.1524437 C 155.67159,8.4151754 155.0115,7.918962 154.36644,7.59385 154.28114,7.550863 154.19507,7.50998 154.11058,7.4727562 l -0.0859,-0.037109 -0.0312,-0.00195 C 153.20882,7.1007523 152.46804,7.0001 151.90941,7.0001 Z m 0.11523,1.0019531 c 0.37972,7.572e-4 0.91296,0.1248404 1.44727,0.3105469 v 13.935547 c 0,1.22231 0.89866,2.235584 2.06641,2.425781 0.12731,0.02382 0.25744,0.03746 0.39062,0.04102 0.0224,5.98e-4 0.0439,0.0039 0.0664,0.0039 h 13.69336 c 0.23563,0.562366 0.41406,1.117889 0.41406,1.464844 v 31.349609 c 0,0.822556 -0.64278,1.466797 -1.45703,1.466797 h -36.09375 c -0.81435,0 -1.45703,-0.644183 -1.45703,-1.466797 V 9.4708031 c 0,-0.8225555 0.64277,-1.4667968 1.45703,-1.4667969 z m 2.47071,0.9238281 c 0.38082,0.2545632 0.76637,0.4323997 1.12695,0.8886719 l 0.0176,0.021484 12.62695,12.7343749 c 0.37192,0.371984 0.57528,0.75943 0.82813,1.144532 h -13.16602 c -0.0687,0 -0.13319,-0.01063 -0.19922,-0.01953 -0.70854,-0.123275 -1.23436,-0.730184 -1.23437,-1.478515 z m -5.33008,16.7753908 -1.38867,1.792969 -2.20703,-0.501954 -0.59961,2.183594 -2.23242,0.382813 0.28515,2.248047 -1.91797,1.207031 1.125,1.966797 -1.31054,1.849609 1.78906,1.388672 -0.49805,2.208984 2.1836,0.595704 0.38281,2.232421 0.72461,-0.0918 v 10.818359 l 5.09375,-3.705078 5.09375,3.705078 V 43.613381 l 0.55273,-2.011718 2.23242,-0.384766 -0.28515,-2.246094 1.91601,-1.207031 -1.12304,-1.96875 1.30664,-1.847656 -1.78711,-1.388672 0.5,-2.207032 -2.1836,-0.599609 -0.38281,-2.230469 -2.24609,0.285157 -1.20899,-1.917969 -1.96679,1.123047 z m 0.20312,1.371094 1.58594,1.123046 1.68946,-0.96289 1.0371,1.644531 1.92969,-0.242187 0.32813,1.914062 1.875,0.513672 -0.42969,1.894531 1.53711,1.19336 -1.12305,1.585937 0.96289,1.691406 -1.64648,1.035157 0.24609,1.929687 -1.91601,0.330078 -0.51172,1.869141 -0.24414,-0.05859 v 9.484375 l -4.09375,-2.978515 -4.09375,2.978515 v -9.990234 l -0.90039,0.115234 -0.32813,-1.916015 -1.875,-0.511719 0.42774,-1.896485 -1.53516,-1.191406 1.12305,-1.58789 -0.96485,-1.689454 1.64453,-1.037109 -0.24218,-1.929688 1.91601,-0.328125 0.51367,-1.875 1.89454,0.431641 z m 1.23633,3.121093 c -3.03164,0 -5.5,2.468357 -5.5,5.5 0,3.031644 2.46836,5.5 5.5,5.5 3.03165,0 5.5,-2.468356 5.5,-5.5 0,-3.031643 -2.46835,-5.5 -5.5,-5.5 z m 0,1 c 2.49121,0 4.5,2.008797 4.5,4.5 0,2.491204 -2.00879,4.5 -4.5,4.5 -2.4912,0 -4.5,-2.008796 -4.5,-4.5 0,-2.491203 2.0088,-4.5 4.5,-4.5 z"
       transform="translate(-118.4973,-1.0001)" />
    <path
       id="path4"
       style="fill:url(#linearGradient5);fill-opacity:1;stroke:none"
       d="m 151.80394,7.0001 -0.004,0.00195 -19.35351,0.00391 c -1.35355,0 -2.45703,1.1084593 -2.45703,2.4648437 V 57.533303 c 0,1.356386 1.10343,2.466797 2.45703,2.466797 h 36.09375 c 1.35354,0 2.45703,-1.110412 2.45703,-2.466797 V 26.183694 c 0,-0.440775 -0.10327,-0.93784 -0.29297,-1.464844 h 0.0606 l -0.35547,-0.722656 c -0.0256,-0.05172 -0.0587,-0.104197 -0.0859,-0.15625 l -0.0605,-0.125 h -0.008 c -0.33862,-0.618179 -0.7885,-1.252822 -1.38476,-1.84961 l -0.002,-0.002 L 156.26488,9.1524437 C 155.67159,8.4151754 155.0115,7.918962 154.36644,7.59385 154.28114,7.550863 154.19507,7.50998 154.11058,7.4727562 l -0.0859,-0.037109 -0.0312,-0.00195 C 153.20882,7.1007523 152.46804,7.0001 151.90941,7.0001 Z m 0.11523,1.0019531 c 0.37972,7.572e-4 0.91296,0.1248404 1.44727,0.3105469 v 13.935547 c 0,1.22231 0.89866,2.235584 2.06641,2.425781 0.12731,0.02382 0.25744,0.03746 0.39062,0.04102 0.0224,5.98e-4 0.0439,0.0039 0.0664,0.0039 h 13.69336 c 0.23563,0.562366 0.41406,1.117889 0.41406,1.464844 v 31.349609 c 0,0.822556 -0.64278,1.466797 -1.45703,1.466797 h -36.09375 c -0.81435,0 -1.45703,-0.644183 -1.45703,-1.466797 V 9.4708031 c 0,-0.8225555 0.64277,-1.4667968 1.45703,-1.4667969 z m 2.47071,0.9238281 c 0.38082,0.2545632 0.76637,0.4323997 1.12695,0.8886719 l 0.0176,0.021484 12.62695,12.7343749 c 0.37192,0.371984 0.57528,0.75943 0.82813,1.144532 h -13.16602 c -0.0687,0 -0.13319,-0.01063 -0.19922,-0.01953 -0.70854,-0.123275 -1.23436,-0.730184 -1.23437,-1.478515 z m -5.33008,16.7753908 -1.38867,1.792969 -2.20703,-0.501954 -0.59961,2.183594 -2.23242,0.382813 0.28515,2.248047 -1.91797,1.207031 1.125,1.966797 -1.31054,1.849609 1.78906,1.388672 -0.49805,2.208984 2.1836,0.595704 0.38281,2.232421 0.72461,-0.0918 v 10.818359 l 5.09375,-3.705078 5.09375,3.705078 V 43.613381 l 0.55273,-2.011718 2.23242,-0.384766 -0.28515,-2.246094 1.91601,-1.207031 -1.12304,-1.96875 1.30664,-1.847656 -1.78711,-1.388672 0.5,-2.207032 -2.1836,-0.599609 -0.38281,-2.230469 -2.24609,0.285157 -1.20899,-1.917969 -1.96679,1.123047 z m 0.20312,1.371094 1.58594,1.123046 1.68946,-0.96289 1.0371,1.644531 1.92969,-0.242187 0.32813,1.914062 1.875,0.513672 -0.42969,1.894531 1.53711,1.19336 -1.12305,1.585937 0.96289,1.691406 -1.64648,1.035157 0.24609,1.929687 -1.91601,0.330078 -0.51172,1.869141 -0.24414,-0.05859 v 9.484375 l -4.09375,-2.978515 -4.09375,2.978515 v -9.990234 l -0.90039,0.115234 -0.32813,-1.916015 -1.875,-0.511719 0.42774,-1.896485 -1.53516,-1.191406 1.12305,-1.58789 -0.96485,-1.689454 1.64453,-1.037109 -0.24218,-1.929688 1.91601,-0.328125 0.51367,-1.875 1.89454,0.431641 z m 1.23633,3.121093 c -3.03164,0 -5.5,2.468357 -5.5,5.5 0,3.031644 2.46836,5.5 5.5,5.5 3.03165,0 5.5,-2.468356 5.5,-5.5 0,-3.031643 -2.46835,-5.5 -5.5,-5.5 z m 0,1 c 2.49121,0 4.5,2.008797 4.5,4.5 0,2.491204 -2.00879,4.5 -4.5,4.5 -2.4912,0 -4.5,-2.008796 -4.5,-4.5 0,-2.491203 2.0088,-4.5 4.5,-4.5 z"
       transform="translate(-118.4973,-1.0001)" />
  </g>
</svg>
