<?xml version="1.0" encoding="UTF-8" standalone="no"?>
<svg
   width="43.546017"
   height="55.538212"
   version="1.1"
   viewBox="0 0 43.546017 55.538212"
   id="svg3"
   xmlns:xlink="http://www.w3.org/1999/xlink"
   xmlns="http://www.w3.org/2000/svg"
   xmlns:svg="http://www.w3.org/2000/svg">
  <defs
     id="defs3">
    <linearGradient
       id="linearGradient6">
      <stop
         style="stop-color:#00abff;stop-opacity:0;"
         offset="0"
         id="stop7" />
      <stop
         style="stop-color:#00abff;stop-opacity:1;"
         offset="1"
         id="stop6" />
    </linearGradient>
    <linearGradient
       xlink:href="#linearGradient6"
       id="linearGradient7"
       x1="31.768116"
       y1="64"
       x2="32"
       y2="26.434782"
       gradientUnits="userSpaceOnUse" />
    <filter
       style="color-interpolation-filters:sRGB"
       id="filter7"
       x="-0.030947896"
       y="-0.023945383"
       width="1.0618958"
       height="1.0478908">
      <feGaussianBlur
         stdDeviation="0.5287939"
         id="feGaussianBlur7" />
    </filter>
  </defs>
  <g
     id="g7"
     transform="translate(-10.22309,-4.7308947)">
    <path
       id="path21"
       style="display:inline;opacity:0.6;fill:#00abff;fill-rule:evenodd;filter:url(#filter7)"
       d="m 33.306641,6 -0.0039,0.00195 -19.353515,0.00391 c -1.35355,0 -2.457031,1.1084593 -2.457031,2.4648437 V 56.533203 C 11.492188,57.889589 12.595619,59 13.949219,59 h 36.09375 C 51.396509,59 52.5,57.889588 52.5,56.533203 V 25.183594 c 0,-0.440775 -0.103269,-0.93784 -0.292969,-1.464844 h 0.06055 l -0.355469,-0.722656 c -0.0256,-0.05172 -0.05866,-0.104197 -0.08594,-0.15625 l -0.06055,-0.125 h -0.0078 c -0.338619,-0.618179 -0.788505,-1.252822 -1.384765,-1.84961 l -0.002,-0.002 L 37.767578,8.1523438 C 37.174288,7.4150755 36.514201,6.918862 35.869141,6.59375 35.783851,6.550763 35.697771,6.50988 35.613281,6.4726562 l -0.08594,-0.037109 -0.03125,-0.00195 C 34.711524,6.1006523 33.970739,6 33.412109,6 Z m 0.115234,1.0019531 c 0.37972,7.572e-4 0.912956,0.1248404 1.447266,0.3105469 v 13.935547 c 0,1.22231 0.898656,2.235584 2.066406,2.425781 0.12731,0.02382 0.257445,0.03746 0.390625,0.04102 0.02237,5.98e-4 0.0439,0.0039 0.06641,0.0039 h 13.69336 C 51.321568,24.281116 51.5,24.836639 51.5,25.183594 V 56.533203 C 51.5,57.355759 50.857219,58 50.042969,58 h -36.09375 c -0.81435,0 -1.457031,-0.644183 -1.457031,-1.466797 V 8.4707031 c 0,-0.8225555 0.642771,-1.4667967 1.457031,-1.4667969 z m 2.470703,0.9238281 c 0.38082,0.2545633 0.766373,0.4323997 1.126953,0.8886719 l 0.01758,0.021484 12.626953,12.7343749 c 0.37192,0.371984 0.575276,0.75943 0.828126,1.144532 H 37.326172 c -0.06875,0 -0.133189,-0.01063 -0.199219,-0.01953 -0.70854,-0.123274 -1.234365,-0.730184 -1.234375,-1.478515 z M 32,27.054688 c -5.480914,0 -9.945312,4.464397 -9.945312,9.945312 0,2.865315 1.577847,6.625901 3.509765,9.849609 0.965959,1.611854 2.02597,3.067985 3.083985,4.16211 1.058015,1.094125 2.075067,1.933595 3.351562,1.933593 1.276503,0 2.293541,-0.839466 3.351562,-1.933593 1.058023,-1.094127 2.118033,-2.550254 3.083985,-4.16211 1.931904,-3.22371 3.509765,-6.984301 3.509765,-9.849609 0,-5.480915 -4.464397,-9.945312 -9.945312,-9.945312 z m 0,1.890624 c 4.459439,0 8.054688,3.595249 8.054688,8.054688 0,2.104868 -1.422141,5.845108 -3.240235,8.878906 -0.909047,1.516899 -1.911541,2.87851 -2.822265,3.820313 -0.910725,0.941803 -1.768699,1.355469 -1.992188,1.355469 -0.22344,0 -1.081466,-0.413665 -1.992188,-1.355469 C 29.097091,48.757414 28.094601,47.395806 27.185547,45.878906 25.367438,42.845106 23.945312,39.104861 23.945312,37 c 0,-4.459439 3.59525,-8.054687 8.054688,-8.054688 z m 0,2.109376 c -3.272362,0 -5.945312,2.673146 -5.945312,5.945312 0,3.272319 2.672993,5.945313 5.945312,5.945312 3.272363,0 5.945313,-2.673147 5.945312,-5.945312 0,-3.272363 -2.673146,-5.945312 -5.945312,-5.945312 z m 0,1.890624 c 2.250816,0 4.054688,1.803691 4.054688,4.054688 0,2.250815 -1.803691,4.056641 -4.054688,4.056641 -2.251039,0 -4.054688,-1.805602 -4.054688,-4.056641 0,-2.250816 1.803692,-4.054688 4.054688,-4.054688 z" />
    <path
       id="path6"
       style="fill:url(#linearGradient7);fill-opacity:1;fill-rule:evenodd"
       d="m 33.306641,6 -0.0039,0.00195 -19.353515,0.00391 c -1.35355,0 -2.457031,1.1084593 -2.457031,2.4648437 V 56.533203 C 11.492188,57.889589 12.595619,59 13.949219,59 h 36.09375 C 51.396509,59 52.5,57.889588 52.5,56.533203 V 25.183594 c 0,-0.440775 -0.103269,-0.93784 -0.292969,-1.464844 h 0.06055 l -0.355469,-0.722656 c -0.0256,-0.05172 -0.05866,-0.104197 -0.08594,-0.15625 l -0.06055,-0.125 h -0.0078 c -0.338619,-0.618179 -0.788505,-1.252822 -1.384765,-1.84961 l -0.002,-0.002 L 37.767578,8.1523438 C 37.174288,7.4150755 36.514201,6.918862 35.869141,6.59375 35.783851,6.550763 35.697771,6.50988 35.613281,6.4726562 l -0.08594,-0.037109 -0.03125,-0.00195 C 34.711524,6.1006523 33.970739,6 33.412109,6 Z m 0.115234,1.0019531 c 0.37972,7.572e-4 0.912956,0.1248404 1.447266,0.3105469 v 13.935547 c 0,1.22231 0.898656,2.235584 2.066406,2.425781 0.12731,0.02382 0.257445,0.03746 0.390625,0.04102 0.02237,5.98e-4 0.0439,0.0039 0.06641,0.0039 h 13.69336 C 51.321568,24.281116 51.5,24.836639 51.5,25.183594 V 56.533203 C 51.5,57.355759 50.857219,58 50.042969,58 h -36.09375 c -0.81435,0 -1.457031,-0.644183 -1.457031,-1.466797 V 8.4707031 c 0,-0.8225555 0.642771,-1.4667967 1.457031,-1.4667969 z m 2.470703,0.9238281 c 0.38082,0.2545633 0.766373,0.4323997 1.126953,0.8886719 l 0.01758,0.021484 12.626953,12.7343749 c 0.37192,0.371984 0.575276,0.75943 0.828126,1.144532 H 37.326172 c -0.06875,0 -0.133189,-0.01063 -0.199219,-0.01953 -0.70854,-0.123274 -1.234365,-0.730184 -1.234375,-1.478515 z M 32,27.054688 c -5.480914,0 -9.945312,4.464397 -9.945312,9.945312 0,2.865315 1.577847,6.625901 3.509765,9.849609 0.965959,1.611854 2.02597,3.067985 3.083985,4.16211 1.058015,1.094125 2.075067,1.933595 3.351562,1.933593 1.276503,0 2.293541,-0.839466 3.351562,-1.933593 1.058023,-1.094127 2.118033,-2.550254 3.083985,-4.16211 1.931904,-3.22371 3.509765,-6.984301 3.509765,-9.849609 0,-5.480915 -4.464397,-9.945312 -9.945312,-9.945312 z m 0,1.890624 c 4.459439,0 8.054688,3.595249 8.054688,8.054688 0,2.104868 -1.422141,5.845108 -3.240235,8.878906 -0.909047,1.516899 -1.911541,2.87851 -2.822265,3.820313 -0.910725,0.941803 -1.768699,1.355469 -1.992188,1.355469 -0.22344,0 -1.081466,-0.413665 -1.992188,-1.355469 C 29.097091,48.757414 28.094601,47.395806 27.185547,45.878906 25.367438,42.845106 23.945312,39.104861 23.945312,37 c 0,-4.459439 3.59525,-8.054687 8.054688,-8.054688 z m 0,2.109376 c -3.272362,0 -5.945312,2.673146 -5.945312,5.945312 0,3.272319 2.672993,5.945313 5.945312,5.945312 3.272363,0 5.945313,-2.673147 5.945312,-5.945312 0,-3.272363 -2.673146,-5.945312 -5.945312,-5.945312 z m 0,1.890624 c 2.250816,0 4.054688,1.803691 4.054688,4.054688 0,2.250815 -1.803691,4.056641 -4.054688,4.056641 -2.251039,0 -4.054688,-1.805602 -4.054688,-4.056641 0,-2.250816 1.803692,-4.054688 4.054688,-4.054688 z" />
  </g>
</svg>
