<?xml version="1.0" encoding="UTF-8" standalone="no"?>
<svg
   width="43.546024"
   height="55.538212"
   version="1.1"
   viewBox="0 0 43.546024 55.538212"
   id="svg3"
   xmlns:xlink="http://www.w3.org/1999/xlink"
   xmlns="http://www.w3.org/2000/svg"
   xmlns:svg="http://www.w3.org/2000/svg">
  <defs
     id="defs3">
    <linearGradient
       id="linearGradient3">
      <stop
         style="stop-color:#00abff;stop-opacity:0;"
         offset="0"
         id="stop4" />
      <stop
         style="stop-color:#00abff;stop-opacity:1;"
         offset="1"
         id="stop3" />
    </linearGradient>
    <linearGradient
       xlink:href="#linearGradient3"
       id="linearGradient4"
       x1="150.49339"
       y1="66.043579"
       x2="150.49339"
       y2="26.507347"
       gradientUnits="userSpaceOnUse" />
    <filter
       style="color-interpolation-filters:sRGB"
       id="filter4"
       x="-0.030947896"
       y="-0.023945386"
       width="1.0618958"
       height="1.0478908">
      <feGaussianBlur
         stdDeviation="0.52879393"
         id="feGaussianBlur4" />
    </filter>
  </defs>
  <g
     id="g4"
     transform="translate(-10.222995,-4.7308946)">
    <path
       id="path1"
       style="display:inline;opacity:0.6;fill:#00abff;fill-opacity:1;stroke:none;filter:url(#filter4)"
       d="m 151.80394,7.0001 -0.004,0.00195 -19.35351,0.00391 c -1.35355,0 -2.45703,1.1084593 -2.45703,2.4648437 V 57.533303 c 0,1.356386 1.10343,2.466797 2.45703,2.466797 h 36.09375 c 1.35354,0 2.45703,-1.110412 2.45703,-2.466797 V 26.183694 c 0,-0.440775 -0.10327,-0.93784 -0.29297,-1.464844 h 0.0606 l -0.35547,-0.722656 c -0.0256,-0.05172 -0.0587,-0.104197 -0.0859,-0.15625 l -0.0605,-0.125 h -0.008 c -0.33862,-0.618179 -0.7885,-1.252822 -1.38476,-1.84961 l -0.002,-0.002 L 156.26488,9.1524437 C 155.67159,8.4151755 155.0115,7.918962 154.36644,7.59385 154.28114,7.550863 154.19507,7.50998 154.11058,7.4727562 l -0.0859,-0.037109 -0.0312,-0.00195 C 153.20882,7.1007523 152.46804,7.0001 151.90941,7.0001 Z m 0.11523,1.0019531 c 0.37972,7.572e-4 0.91296,0.1248404 1.44727,0.3105469 v 13.935547 c 0,1.22231 0.89866,2.235584 2.06641,2.425781 0.12731,0.02382 0.25744,0.03746 0.39062,0.04102 0.0224,5.98e-4 0.0439,0.0039 0.0664,0.0039 h 13.69336 c 0.23563,0.562366 0.41406,1.117889 0.41406,1.464844 v 31.349609 c 0,0.822556 -0.64278,1.466797 -1.45703,1.466797 h -36.09375 c -0.81435,0 -1.45703,-0.644183 -1.45703,-1.466797 V 9.4708031 c 0,-0.8225555 0.64277,-1.4667967 1.45703,-1.4667969 z m 2.47071,0.9238281 c 0.38082,0.2545633 0.76637,0.4323997 1.12695,0.8886719 l 0.0176,0.021484 12.62695,12.7343749 c 0.37192,0.371984 0.57528,0.75943 0.82813,1.144532 h -13.16602 c -0.0687,0 -0.13319,-0.01063 -0.19922,-0.01953 -0.70854,-0.123274 -1.23436,-0.730184 -1.23437,-1.478515 z M 141.19261,29.449319 c -1.7182,0 -3.10156,1.383359 -3.10156,3.101562 v 13.957032 c 0,1.718203 1.38336,3.101562 3.10156,3.101562 h 18.60938 c 1.7182,0 3.10156,-1.383359 3.10156,-3.101562 V 32.550881 c 0,-1.718203 -1.38336,-3.101562 -3.10156,-3.101562 z m 0,1.550781 h 18.60938 c 0.8591,0 1.55078,0.69168 1.55078,1.550781 v 13.957032 l -7.75391,-7.753907 -5.39648,6.203125 -3.90821,-3.101562 -4.65234,4.652344 V 32.550881 c 0,-0.859101 0.69168,-1.550781 1.55078,-1.550781 z m 3.87696,3.101563 c -1.28467,0 -2.32618,1.041504 -2.32618,2.326171 0,1.284667 1.04151,2.326172 2.32618,2.326172 1.28466,0 2.32617,-1.041505 2.32617,-2.326172 0,-1.284667 -1.04151,-2.326171 -2.32617,-2.326171 z m 10.79492,17.521484 c -0.8737,0 -1.55849,0.255843 -2.05274,0.767578 -0.49175,0.509214 -0.73828,1.221135 -0.73828,2.134766 0,0.911111 0.24653,1.62108 0.73828,2.132812 0.49425,0.509237 1.17904,0.763672 2.05274,0.763672 0.3994,0 0.77694,-0.0514 1.1289,-0.15625 0.35196,-0.107303 0.67083,-0.265477 0.96289,-0.472656 v -2.398438 h -1.98242 v 0.621094 h 1.23438 v 1.501953 c -0.16725,0.09736 -0.35477,0.169363 -0.56446,0.216797 -0.20969,0.04494 -0.44775,0.06641 -0.71484,0.06641 -0.68398,0 -1.1985,-0.19034 -1.54297,-0.572265 -0.34198,-0.38194 -0.51172,-0.949272 -0.51172,-1.703125 0,-0.756374 0.16974,-1.327071 0.51172,-1.708985 0.3445,-0.381917 0.85901,-0.572265 1.54297,-0.572265 0.34699,0 0.67767,0.05987 0.99219,0.179687 0.3145,0.119851 0.61104,0.29802 0.89062,0.535156 v -0.804687 c -0.27708,-0.174731 -0.57869,-0.30664 -0.9082,-0.396484 -0.32701,-0.08984 -0.67266,-0.134766 -1.03711,-0.134766 z m -12.82813,0.09961 V 57.3126 h 0.75586 v -2.246094 h 0.95117 c 0.62656,0 1.1004,-0.141734 1.41993,-0.423828 0.32202,-0.282072 0.48242,-0.69833 0.48242,-1.25 0,-0.546656 -0.1604,-0.962057 -0.48242,-1.24414 -0.31953,-0.284566 -0.79337,-0.425782 -1.41993,-0.425782 z m 4.625,0.002 v 5.589844 h 0.73438 v -4.677734 l 2.47851,4.677734 h 1.01953 v -5.589844 h -0.73437 v 4.675782 l -2.48047,-4.675782 z m -3.86914,0.619141 h 0.95117 c 0.35198,0 0.6242,0.09118 0.81641,0.273438 0.19221,0.182214 0.29102,0.440895 0.29102,0.77539 0,0.336989 -0.0988,0.597071 -0.29102,0.779297 -0.19223,0.182214 -0.46445,0.273438 -0.81641,0.273438 h -0.95117 z"
       transform="translate(-118.4973,-1.0001)" />
    <path
       id="path3"
       style="fill:url(#linearGradient4);fill-opacity:1;stroke:none"
       d="m 151.80394,7.0001 -0.004,0.00195 -19.35351,0.00391 c -1.35355,0 -2.45703,1.1084593 -2.45703,2.4648437 V 57.533303 c 0,1.356386 1.10343,2.466797 2.45703,2.466797 h 36.09375 c 1.35354,0 2.45703,-1.110412 2.45703,-2.466797 V 26.183694 c 0,-0.440775 -0.10327,-0.93784 -0.29297,-1.464844 h 0.0606 l -0.35547,-0.722656 c -0.0256,-0.05172 -0.0587,-0.104197 -0.0859,-0.15625 l -0.0605,-0.125 h -0.008 c -0.33862,-0.618179 -0.7885,-1.252822 -1.38476,-1.84961 l -0.002,-0.002 L 156.26488,9.1524437 C 155.67159,8.4151755 155.0115,7.918962 154.36644,7.59385 154.28114,7.550863 154.19507,7.50998 154.11058,7.4727562 l -0.0859,-0.037109 -0.0312,-0.00195 C 153.20882,7.1007523 152.46804,7.0001 151.90941,7.0001 Z m 0.11523,1.0019531 c 0.37972,7.572e-4 0.91296,0.1248404 1.44727,0.3105469 v 13.935547 c 0,1.22231 0.89866,2.235584 2.06641,2.425781 0.12731,0.02382 0.25744,0.03746 0.39062,0.04102 0.0224,5.98e-4 0.0439,0.0039 0.0664,0.0039 h 13.69336 c 0.23563,0.562366 0.41406,1.117889 0.41406,1.464844 v 31.349609 c 0,0.822556 -0.64278,1.466797 -1.45703,1.466797 h -36.09375 c -0.81435,0 -1.45703,-0.644183 -1.45703,-1.466797 V 9.4708031 c 0,-0.8225555 0.64277,-1.4667967 1.45703,-1.4667969 z m 2.47071,0.9238281 c 0.38082,0.2545633 0.76637,0.4323997 1.12695,0.8886719 l 0.0176,0.021484 12.62695,12.7343749 c 0.37192,0.371984 0.57528,0.75943 0.82813,1.144532 h -13.16602 c -0.0687,0 -0.13319,-0.01063 -0.19922,-0.01953 -0.70854,-0.123274 -1.23436,-0.730184 -1.23437,-1.478515 z M 141.19261,29.449319 c -1.7182,0 -3.10156,1.383359 -3.10156,3.101562 v 13.957032 c 0,1.718203 1.38336,3.101562 3.10156,3.101562 h 18.60938 c 1.7182,0 3.10156,-1.383359 3.10156,-3.101562 V 32.550881 c 0,-1.718203 -1.38336,-3.101562 -3.10156,-3.101562 z m 0,1.550781 h 18.60938 c 0.8591,0 1.55078,0.69168 1.55078,1.550781 v 13.957032 l -7.75391,-7.753907 -5.39648,6.203125 -3.90821,-3.101562 -4.65234,4.652344 V 32.550881 c 0,-0.859101 0.69168,-1.550781 1.55078,-1.550781 z m 3.87696,3.101563 c -1.28467,0 -2.32618,1.041504 -2.32618,2.326171 0,1.284667 1.04151,2.326172 2.32618,2.326172 1.28466,0 2.32617,-1.041505 2.32617,-2.326172 0,-1.284667 -1.04151,-2.326171 -2.32617,-2.326171 z m 10.79492,17.521484 c -0.8737,0 -1.55849,0.255843 -2.05274,0.767578 -0.49175,0.509214 -0.73828,1.221135 -0.73828,2.134766 0,0.911111 0.24653,1.62108 0.73828,2.132812 0.49425,0.509237 1.17904,0.763672 2.05274,0.763672 0.3994,0 0.77694,-0.0514 1.1289,-0.15625 0.35196,-0.107303 0.67083,-0.265477 0.96289,-0.472656 v -2.398438 h -1.98242 v 0.621094 h 1.23438 v 1.501953 c -0.16725,0.09736 -0.35477,0.169363 -0.56446,0.216797 -0.20969,0.04494 -0.44775,0.06641 -0.71484,0.06641 -0.68398,0 -1.1985,-0.19034 -1.54297,-0.572265 -0.34198,-0.38194 -0.51172,-0.949272 -0.51172,-1.703125 0,-0.756374 0.16974,-1.327071 0.51172,-1.708985 0.3445,-0.381917 0.85901,-0.572265 1.54297,-0.572265 0.34699,0 0.67767,0.05987 0.99219,0.179687 0.3145,0.119851 0.61104,0.29802 0.89062,0.535156 v -0.804687 c -0.27708,-0.174731 -0.57869,-0.30664 -0.9082,-0.396484 -0.32701,-0.08984 -0.67266,-0.134766 -1.03711,-0.134766 z m -12.82813,0.09961 V 57.3126 h 0.75586 v -2.246094 h 0.95117 c 0.62656,0 1.1004,-0.141734 1.41993,-0.423828 0.32202,-0.282072 0.48242,-0.69833 0.48242,-1.25 0,-0.546656 -0.1604,-0.962057 -0.48242,-1.24414 -0.31953,-0.284566 -0.79337,-0.425782 -1.41993,-0.425782 z m 4.625,0.002 v 5.589844 h 0.73438 v -4.677734 l 2.47851,4.677734 h 1.01953 v -5.589844 h -0.73437 v 4.675782 l -2.48047,-4.675782 z m -3.86914,0.619141 h 0.95117 c 0.35198,0 0.6242,0.09118 0.81641,0.273438 0.19221,0.182214 0.29102,0.440895 0.29102,0.77539 0,0.336989 -0.0988,0.597071 -0.29102,0.779297 -0.19223,0.182214 -0.46445,0.273438 -0.81641,0.273438 h -0.95117 z"
       transform="translate(-118.4973,-1.0001)" />
  </g>
</svg>
