<?xml version="1.0" encoding="UTF-8" standalone="no"?>
<svg
   width="43.546036"
   height="55.538212"
   version="1.1"
   viewBox="0 0 11.521328 14.694196"
   id="svg7"
   xmlns:xlink="http://www.w3.org/1999/xlink"
   xmlns="http://www.w3.org/2000/svg"
   xmlns:svg="http://www.w3.org/2000/svg">
  <defs
     id="defs7">
    <linearGradient
       id="linearGradient8">
      <stop
         style="stop-color:#00abff;stop-opacity:0;"
         offset="0"
         id="stop9" />
      <stop
         style="stop-color:#00abff;stop-opacity:1;"
         offset="1"
         id="stop8" />
    </linearGradient>
    <linearGradient
       xlink:href="#linearGradient8"
       id="linearGradient9"
       x1="149.45081"
       y1="64.998032"
       x2="149.45081"
       y2="25.346142"
       gradientUnits="userSpaceOnUse" />
    <filter
       style="color-interpolation-filters:sRGB"
       id="filter9"
       x="-0.030947891"
       y="-0.023945388"
       width="1.0618958"
       height="1.0478908">
      <feGaussianBlur
         stdDeviation="0.52879024"
         id="feGaussianBlur9" />
    </filter>
  </defs>
  <g
     id="g9"
     transform="translate(-2.7058101,-1.252208)">
    <path
       id="path1"
       style="display:inline;opacity:0.6;fill:#00abff;fill-opacity:1;stroke:none;filter:url(#filter9)"
       d="m 151.80481,7.0003988 -0.004,0.00195 -19.35338,0.00391 c -1.35355,0 -2.45702,1.1084419 -2.45702,2.4648263 V 57.533244 c 0,1.356386 1.10342,2.466779 2.45702,2.466779 h 36.09349 c 1.35354,0 2.45702,-1.110394 2.45702,-2.466779 V 26.183857 c 0,-0.440775 -0.10327,-0.93783 -0.29297,-1.464834 h 0.0606 l -0.35547,-0.722651 c -0.0256,-0.05172 -0.0587,-0.104196 -0.0859,-0.156249 l -0.0605,-0.124999 h -0.008 c -0.33862,-0.618179 -0.78849,-1.252809 -1.38475,-1.849596 l -0.002,-0.002 L 156.26572,9.1527273 C 155.59396,8.3178964 154.835,7.7918168 154.11144,7.4730517 l -0.0859,-0.037109 -0.0312,-0.00195 C 153.20968,7.101048 152.46892,7.0003988 151.91028,7.0003988 Z m 0.11524,1.001946 c 0.37972,7.572e-4 0.91294,0.1248382 1.44725,0.3105447 V 22.248338 c 0,1.22231 0.89864,2.235567 2.06639,2.425764 0.1486,0.02778 0.30063,0.04492 0.45703,0.04492 h 13.69326 c 0.23564,0.562366 0.41406,1.117879 0.41406,1.464834 v 31.349387 c 0,0.822556 -0.64277,1.466786 -1.45702,1.466786 h -36.09349 c -0.81435,0 -1.45702,-0.644172 -1.45702,-1.466786 V 9.4710844 c 0,-0.8225555 0.64276,-1.4667865 1.45702,-1.4667865 z m 2.47068,0.9238216 c 0.38082,0.2545631 0.76637,0.4323933 1.12695,0.8886655 l 0.0176,0.021484 12.62686,12.7342851 c 0.37192,0.371985 0.57527,0.75942 0.82812,1.144523 h -13.16592 c -0.0596,0 -0.11624,-0.01086 -0.17383,-0.01758 -0.72167,-0.11278 -1.25975,-0.723008 -1.25976,-1.480458 z m 4.88864,18.9178346 c -0.1981,-0.0015 -0.40119,0.05141 -0.58398,0.166014 l 0.20703,0.332029 -0.28125,-0.273435 c -0.23528,0.243174 -0.45111,0.500526 -0.64843,0.775385 l -0.26562,0.345701 0.13281,0.0957 c -0.32396,-0.215941 -0.74553,-0.298884 -1.10156,-0.138671 -0.27756,0.124903 -0.35085,0.283424 -0.76757,0.810541 -0.41672,0.527117 -1.1084,1.429642 -2.31053,3.011698 -0.93687,1.211935 -1.85194,2.439564 -2.75389,3.677708 l -0.0801,0.103515 v 0.132811 c 0,1.78e-4 0.0214,0.116953 0.0215,0.117187 7e-5,2.33e-4 0.0233,0.06612 0.0234,0.06641 2.9e-4,5.76e-4 0.0365,0.05194 0.0371,0.05273 0.001,0.0016 0.0263,0.03371 0.0351,0.04297 0.0177,0.01852 0.0317,0.03306 0.0449,0.04492 0.0264,0.02374 0.0511,0.05163 0.0879,0.08203 0.0736,0.0608 0.17873,0.136886 0.30274,0.234373 0.24801,0.194977 0.58321,0.457526 0.95311,0.738276 l 1.66796,1.263663 2.0371,-2.679669 c 0.47768,-0.632013 0.91341,-1.19112 1.24022,-1.609363 0.009,0.154596 0.0269,0.355749 0.0234,0.406247 -0.0222,0.210598 -0.0672,0.41778 -0.13281,0.619136 -0.0617,0.188926 -0.0512,0.196838 -0.33984,0.605465 -0.28861,0.408624 -0.85184,1.152822 -1.96483,2.621075 -0.61477,0.813376 -1.18108,1.568287 -1.59374,2.124985 -0.20634,0.278365 -0.3749,0.506548 -0.49414,0.67187 -0.0596,0.08266 -0.10561,0.148269 -0.14062,0.199217 -0.0175,0.02532 -0.0316,0.04528 -0.0449,0.06641 -0.007,0.01058 -0.0132,0.02199 -0.0215,0.03711 -0.004,0.0076 -0.009,0.01607 -0.0156,0.0293 -0.003,0.0057 -0.009,0.01764 -0.0137,0.03125 -0.001,0.0028 0.001,0.0028 0,0.0059 -0.0687,0.188828 -0.0537,0.346598 -0.0234,0.50195 0.0301,0.154546 0.0811,0.309771 0.17773,0.451168 0.17124,0.250019 0.43063,0.387388 0.69335,0.435544 0.26273,0.04815 0.55704,0.0158 0.80469,-0.162108 0.003,-0.0021 0.0482,-0.04064 0.0605,-0.05273 0.0124,-0.0121 0.0192,-0.01834 0.0293,-0.0293 0.0201,-0.02192 0.0429,-0.0464 0.0664,-0.07422 0.047,-0.05563 0.10704,-0.132108 0.17774,-0.220702 0.1414,-0.177224 0.32332,-0.413397 0.54492,-0.701167 0.44319,-0.575538 1.01596,-1.334315 1.58787,-2.095688 0.57192,-0.761373 1.14265,-1.530186 1.58007,-2.126938 0.21869,-0.298375 0.40818,-0.553095 0.54492,-0.746088 0.0684,-0.0965 0.11879,-0.177726 0.16211,-0.242186 0.0433,-0.06446 0.071,-0.08401 0.11133,-0.169921 0.45427,-0.971647 0.54036,-2.178486 0.27343,-3.359351 -0.0816,-0.373123 -0.20298,-0.729496 -0.33984,-1.08593 0.0464,-0.07477 0.15195,-0.219966 0.34765,-0.478512 h 0.008 c 0.19691,-0.26383 0.31893,-0.438288 0.40624,-0.58398 0.086,-0.14353 0.14485,-0.292686 0.1543,-0.435544 v -0.0078 c 0.0113,-0.18792 -0.018,-0.390804 -0.11133,-0.568355 -0.0854,-0.162694 -0.20924,-0.289756 -0.35351,-0.406247 l 0.29492,-0.390622 c 0.21895,-0.293197 0.35724,-0.475078 0.45117,-0.626949 0.0939,-0.151871 0.16149,-0.306979 0.16992,-0.458981 0.0196,-0.430329 -0.20212,-0.815427 -0.52539,-1.017571 -0.16163,-0.101071 -0.35463,-0.156662 -0.55273,-0.158202 z m 0.006,0.802729 c 0.0439,-0.0016 0.0864,0.0098 0.12695,0.03516 0.0878,0.05487 0.15325,0.152835 0.14648,0.300779 0.002,-0.01357 0.009,-0.02235 -0.0508,0.07422 -0.0639,0.103251 -0.19054,0.287311 -0.40624,0.576168 l -0.76758,1.011711 0.57617,0.449216 c 0.11955,0.09245 0.16055,0.148687 0.17578,0.177733 0.0151,0.02906 0.0299,0.05512 0.0234,0.156249 4.9e-4,-0.0088 0.0103,-0.01235 -0.0449,0.08008 -0.0554,0.09242 -0.16895,0.252007 -0.36133,0.509762 -0.2075,0.274098 -0.33036,0.436473 -0.41406,0.576167 -0.0418,0.06985 -0.0802,0.130385 -0.10351,0.228514 -0.0234,0.09813 -0.0112,0.243277 0.0293,0.332029 0.14128,0.350851 0.25123,0.716408 0.33203,1.08593 h 0.008 c 0.23199,1.026407 0.14138,2.06726 -0.22071,2.841777 0.0223,-0.04764 -0.008,0.01131 -0.0449,0.06641 -0.037,0.05511 -0.096,0.127342 -0.16211,0.220701 -0.13228,0.186719 -0.31401,0.4419 -0.53124,0.738276 -0.43449,0.592752 -1.0018,1.359692 -1.57226,2.119126 -0.57046,0.759434 -1.14783,1.510571 -1.58788,2.082016 -0.22002,0.285736 -0.40292,0.530557 -0.53905,0.701167 -0.0681,0.0853 -0.12379,0.153863 -0.16211,0.199218 -0.01,0.01134 -0.0144,0.01317 -0.0215,0.02148 -0.0243,0.01474 -0.0934,0.03893 -0.17773,0.02344 -0.0878,-0.01625 -0.15999,-0.07176 -0.17773,-0.09765 -0.013,-0.01852 -0.0468,-0.08586 -0.0586,-0.146484 -0.0118,-0.06066 0.008,-0.115604 -0.008,-0.07422 0.0287,-0.04173 0.0751,-0.103541 0.13281,-0.183592 0.11545,-0.160065 0.28311,-0.389237 0.48828,-0.666011 0.40942,-0.552317 0.97588,-1.301558 1.58788,-2.111314 v -0.0059 c 1.1089,-1.463405 1.67042,-2.203257 1.97655,-2.6367 0.30668,-0.434221 0.38817,-0.633355 0.45117,-0.826166 0.0849,-0.260557 0.14259,-0.524186 0.16992,-0.796869 v -0.0078 -0.0078 c 0.0163,-0.23698 -0.0108,-0.563356 -0.0449,-0.8789 -0.017,-0.157771 -0.0369,-0.305711 -0.0586,-0.427732 -0.0106,-0.06101 -0.022,-0.107712 -0.0371,-0.162108 -0.008,-0.02721 -0.0134,-0.05825 -0.0293,-0.0957 -0.008,-0.01871 -0.0182,-0.03689 -0.0371,-0.06641 -0.009,-0.01478 -0.036,-0.05156 -0.0371,-0.05273 -8.1e-4,-9.32e-4 -0.0391,-0.03324 -0.0586,-0.05078 l -0.25196,0.310545 c -2.4e-4,1.1e-5 -0.14614,-0.369282 -0.14648,-0.369138 -6.9e-4,2.81e-4 -0.0888,0.04999 -0.0898,0.05078 -0.002,0.0016 -0.0403,0.03464 -0.0508,0.04492 -0.0209,0.0206 -0.0364,0.03222 -0.0527,0.05078 -0.0327,0.03715 -0.0679,0.08029 -0.11718,0.140624 -0.0985,0.120674 -0.23968,0.296853 -0.40625,0.509762 -0.33276,0.425801 -0.78482,1.016319 -1.27734,1.667957 l -1.54881,2.037095 -1.03515,-0.781244 c -0.36711,-0.278627 -0.70097,-0.534063 -0.94335,-0.724605 -0.0414,-0.03254 -0.0621,-0.05179 -0.0977,-0.08008 0.82573,-1.127909 1.66262,-2.253404 2.51756,-3.359351 1.20167,-1.581449 1.89745,-2.488784 2.30467,-3.003885 0.33674,-0.425949 0.52188,-0.579457 0.50586,-0.587887 0.0773,-0.0272 0.13847,-0.01576 0.29101,0.08594 v -0.0078 l 0.48633,0.339841 0.73046,-0.96679 h 0.008 c 0.15829,-0.220482 0.33939,-0.431323 0.52539,-0.628902 0.0496,-0.02629 0.0948,-0.03941 0.13867,-0.04101 z m -8.91009,8.900327 c -0.0121,0.0047 -0.26549,0.103387 -0.26563,0.103515 -2.8e-4,2.59e-4 -0.0168,0.02431 -0.0215,0.0293 -0.009,0.01002 -0.0176,0.0091 -0.0215,0.01367 -0.008,0.0092 -0.008,0.0218 -0.0156,0.03125 -0.0151,0.0189 -0.0413,0.03999 -0.0664,0.07227 -0.0503,0.06455 -0.12255,0.161065 -0.21484,0.281248 -0.18455,0.240368 -0.4473,0.58396 -0.77343,1.011711 -0.65226,0.855503 -1.54852,2.039403 -2.53319,3.335914 -3.16392,4.17321 -3.6216,4.795893 -3.93356,5.367149 -0.60561,1.101112 -1.24091,2.729577 -1.67577,4.230439 -0.0674,0.234031 -0.12033,0.400447 -0.15625,0.531246 -0.0359,0.130812 -0.0883,0.174333 -0.0586,0.390623 0.004,0.02721 0.008,0.05915 0.0215,0.0957 0.0134,0.03666 0.0645,0.116759 0.0664,0.11914 0.002,0.0024 0.13026,0.107938 0.13281,0.109374 0.003,0.0014 0.13742,0.04443 0.14062,0.04492 0.003,4.87e-4 0.0811,0.01046 0.11133,0.0078 0.0302,-0.003 0.0536,-0.01033 0.0742,-0.01563 0.0413,-0.01096 0.0714,-0.02615 0.0957,-0.03711 0.0971,-0.04354 0.14586,-0.08078 0.22851,-0.124999 1.19504,-0.636318 2.71727,-1.638356 3.63865,-2.414045 0.43911,-0.368471 0.73032,-0.632763 1.34374,-1.386709 0.61342,-0.753946 1.57134,-2.016613 3.41013,-4.437469 l 3.78123,-4.974574 -1.68359,-1.277335 c -0.3746,-0.283789 -0.71546,-0.536943 -0.96679,-0.724604 -0.12566,-0.09383 -0.22863,-0.174643 -0.30273,-0.228514 -0.037,-0.02695 -0.0651,-0.04931 -0.0898,-0.06641 -0.0124,-0.0085 -0.0197,-0.01185 -0.0352,-0.02148 -0.008,-0.0048 -0.0356,-0.02264 -0.0371,-0.02344 -7.6e-4,-3.93e-4 -0.0523,-0.0213 -0.0527,-0.02148 -2.4e-4,-8.5e-5 -0.0662,-0.01363 -0.0664,-0.01367 l -0.0508,-0.0078 c 0,0 -0.0109,-2.26e-4 -0.0156,0 z m 0.082,0.951165 c 0.0347,0.02582 0.0559,0.03671 0.0957,0.06641 0.24853,0.185574 0.59304,0.449266 0.96679,0.732417 l 1.04101,0.789057 -3.29881,4.339813 c -1.83873,2.42078 -2.79355,3.676745 -3.38865,4.408172 -0.59509,0.731427 -0.81003,0.922206 -1.24022,1.283194 -0.71324,0.600465 -1.91135,1.356567 -2.94529,1.957017 0.4184,-1.398027 1.00774,-2.925283 1.54296,-3.89841 0.27009,-0.494584 0.70408,-1.097402 3.86716,-5.269494 0.98449,-1.296281 1.88149,-2.475296 2.53318,-3.330054 0.32585,-0.427376 0.58996,-0.772779 0.77343,-1.011712 0.0223,-0.02899 0.0329,-0.04064 0.0527,-0.06641 z m 2.82029,4.458953 c -0.005,0.0102 -0.006,0.02004 -0.008,0.02344 h -0.008 c 0.002,-0.0031 0.0107,-0.01588 0.0156,-0.02344 z m -2.73045,5.812459 c -0.0762,0.0034 -0.15087,0.01029 -0.22656,0.02148 l -0.008,-0.0039 c -0.61611,0.16838 -1.13871,0.577724 -1.45117,1.134758 -0.11243,0.226699 -0.20694,0.461832 -0.2832,0.70312 -0.0439,0.155302 -0.0941,0.308919 -0.14843,0.460934 -0.0378,0.05291 -1.08887,0.302372 -1.70116,0.4082 -1.45136,0.253232 -1.84452,0.346227 -1.98436,0.478512 -0.27969,0.257011 -0.063,0.515728 0.33007,0.402341 0.10583,-0.03402 0.55155,-0.121673 0.98242,-0.197264 0.43087,-0.07559 1.0887,-0.20799 1.46288,-0.29492 0.23082,-0.06584 0.46778,-0.109289 0.70702,-0.128905 -0.0256,0.226661 -0.0774,0.450575 -0.15234,0.666011 l -0.17383,0.634761 -0.39648,0.169921 c -0.23848,0.105563 -0.46809,0.230113 -0.68749,0.371091 -0.49135,0.325043 -0.58991,0.733469 -0.24219,0.998039 0.18898,0.143624 0.71414,0.139845 1.04296,0 0.29103,-0.132285 0.45291,-0.31491 0.67969,-0.794916 0.12094,-0.249452 0.21346,-0.377583 0.28906,-0.396481 0.0605,-0.02268 0.57796,-0.121113 1.15624,-0.23828 l 1.17186,-0.242186 c 0.11339,-0.02646 0.12386,-0.02184 0.0899,0.08398 -0.0602,0.143095 -0.13165,0.281031 -0.21484,0.412107 -0.0875,0.131642 -0.14797,0.278363 -0.17774,0.43359 0,0.162522 0.13661,0.324777 0.25,0.283201 0.0386,-0.02003 0.0795,-0.03093 0.12305,-0.0332 0.0956,-0.04827 0.18323,-0.112613 0.25781,-0.189451 0.21543,-0.196538 0.74023,-1.149156 0.74023,-1.345694 0,-0.102048 0.0759,-0.128199 0.125,-0.04883 0.0151,0.02646 0.14102,0.07523 0.26953,0.105468 0.18897,0.04913 0.23632,0.08299 0.23632,0.169921 0,0.162522 0.2697,0.401908 0.50781,0.447262 0.23013,0.02873 0.46275,-0.0092 0.67187,-0.109374 0.0907,-0.0378 0.0947,-0.02656 0.0644,0.113281 -0.0929,0.210068 -0.20651,0.408685 -0.33984,0.595699 -0.3543,0.532768 -0.64847,1.103533 -0.87694,1.701159 -0.0869,0.309926 -0.0493,0.540779 0.11328,0.650386 0.14362,0.09449 0.38516,0.05403 0.51366,-0.08203 0.35305,-0.633835 0.66356,-1.291827 0.92968,-1.966783 0.11685,-0.344017 0.32006,-0.651158 0.58984,-0.894525 0.29481,-0.309925 0.39043,-0.38657 0.32617,-0.265623 -0.10204,0.226774 -0.0996,0.400027 0.0176,0.505856 0.24567,0.226774 0.60609,7.87e-4 0.91601,-0.55859 0.1852,-0.340162 0.3198,-0.438497 1.0039,-0.75976 l 0.35937,-0.162109 -0.0371,0.193358 c -0.0712,0.228022 -0.16356,0.448042 -0.27343,0.660152 -0.24567,0.521581 -0.29389,0.855069 -0.14649,1.134757 0.10205,0.196538 0.20762,0.199631 0.69141,0.03711 0.67276,-0.226775 1.55055,-0.748282 1.77733,-1.046868 0.30992,-0.423312 0.40382,-0.830599 0.21484,-0.962884 -0.19654,-0.143624 -0.30328,-0.08354 -0.55273,0.279295 -0.28283,0.445536 -0.67155,0.811983 -1.13281,1.068352 -0.18897,0.09827 -0.35206,0.163428 -0.36718,0.14453 0.18123,-0.570149 0.38875,-1.131133 0.62304,-1.681629 0.0438,-0.09593 0.0741,-0.198189 0.0879,-0.302732 0,-0.151183 -0.18866,-0.318357 -0.33984,-0.318357 -0.26839,0.07578 -0.52754,0.1832 -0.77148,0.318357 -0.71812,0.35906 -0.6736,0.389563 -0.49218,-0.283201 0.11338,-0.415753 0.0756,-0.526273 -0.17383,-0.55273 -0.24189,-0.02646 -0.33937,0.05809 -0.55859,0.451168 -0.18089,0.312798 -0.4147,0.591883 -0.6914,0.824213 -0.48001,0.44221 -0.49989,0.456322 -0.61328,0.376951 -0.17008,-0.120947 -0.26367,-0.102536 -0.67187,0.101561 -0.40063,0.200318 -0.53271,0.226415 -0.63476,0.105468 -0.0831,-0.09827 0.048,-0.149342 0.78125,-0.292966 0.70678,-0.136065 0.79491,-0.17486 0.79491,-0.322264 0,-0.234333 -0.18938,-0.460267 -0.5371,-0.61523 -0.60096,-0.26457 -0.66902,-0.284827 -0.93359,-0.216795 -0.28347,0.07559 -0.70319,0.481138 -0.76367,0.73437 -0.0567,0.260791 -0.23437,0.185559 -0.23437,-0.105468 -0.0288,-0.179681 -0.11043,-0.347198 -0.23437,-0.480465 -0.17764,-0.120947 -0.46828,0.143036 -0.6875,0.623042 l -0.17383,0.374997 -0.38476,0.08203 c -0.50646,0.113387 -1.97337,0.40556 -2.16991,0.443356 -0.1285,0.02268 -0.15132,0.02248 -0.12109,-0.06445 l 0.14649,-0.517575 c 0.16252,-0.650087 0.20914,-0.737156 0.44726,-0.820307 0.50366,-0.195517 0.99946,-0.408491 1.48827,-0.638667 0.18924,-0.112745 0.36669,-0.245916 0.52929,-0.394528 0.52914,-0.495125 0.61233,-0.950718 0.23437,-1.287101 -0.0923,-0.08198 -0.19413,-0.15423 -0.30273,-0.212889 -0.22164,-0.05978 -0.45124,-0.08432 -0.67968,-0.07422 z m -0.29492,0.611324 c 0.0728,-0.0045 0.15891,-0.0018 0.26758,0.0039 0.27968,0.02646 0.38937,0.04575 0.46874,0.128905 v -0.0039 c 0.10583,0.105828 0.10621,0.11218 0.0117,0.312498 -0.0992,0.162673 -0.23474,0.299662 -0.39648,0.400388 -0.32126,0.219215 -1.32352,0.624542 -1.36132,0.55273 -0.0378,-0.120946 0.28431,-0.843657 0.49219,-1.074211 0.20409,-0.232444 0.29912,-0.306845 0.51757,-0.32031 z m -2.6992,4.406219 c 0.0406,0.0043 0.0418,0.03945 0.008,0.109374 l -0.004,-0.0059 c -0.068,0.128506 -0.24548,0.225295 -0.34375,0.187499 -0.11339,-0.04913 -0.0875,-0.11254 0.0976,-0.20703 0.12095,-0.06047 0.20156,-0.08824 0.24219,-0.08398 z"
       transform="matrix(0.26458,0,0,0.26458,-31.351275,-0.26418)" />
    <path
       id="path8"
       style="fill:url(#linearGradient9);fill-opacity:1;stroke:none"
       d="m 151.80481,7.0003988 -0.004,0.00195 -19.35338,0.00391 c -1.35355,0 -2.45702,1.1084419 -2.45702,2.4648263 V 57.533244 c 0,1.356386 1.10342,2.466779 2.45702,2.466779 h 36.09349 c 1.35354,0 2.45702,-1.110394 2.45702,-2.466779 V 26.183857 c 0,-0.440775 -0.10327,-0.93783 -0.29297,-1.464834 h 0.0606 l -0.35547,-0.722651 c -0.0256,-0.05172 -0.0587,-0.104196 -0.0859,-0.156249 l -0.0605,-0.124999 h -0.008 c -0.33862,-0.618179 -0.78849,-1.252809 -1.38475,-1.849596 l -0.002,-0.002 L 156.26572,9.1527273 C 155.59396,8.3178964 154.835,7.7918168 154.11144,7.4730517 l -0.0859,-0.037109 -0.0312,-0.00195 C 153.20968,7.101048 152.46892,7.0003988 151.91028,7.0003988 Z m 0.11524,1.001946 c 0.37972,7.572e-4 0.91294,0.1248382 1.44725,0.3105447 V 22.248338 c 0,1.22231 0.89864,2.235567 2.06639,2.425764 0.1486,0.02778 0.30063,0.04492 0.45703,0.04492 h 13.69326 c 0.23564,0.562366 0.41406,1.117879 0.41406,1.464834 v 31.349387 c 0,0.822556 -0.64277,1.466786 -1.45702,1.466786 h -36.09349 c -0.81435,0 -1.45702,-0.644172 -1.45702,-1.466786 V 9.4710844 c 0,-0.8225555 0.64276,-1.4667865 1.45702,-1.4667865 z m 2.47068,0.9238216 c 0.38082,0.2545631 0.76637,0.4323933 1.12695,0.8886655 l 0.0176,0.021484 12.62686,12.7342851 c 0.37192,0.371985 0.57527,0.75942 0.82812,1.144523 h -13.16592 c -0.0596,0 -0.11624,-0.01086 -0.17383,-0.01758 -0.72167,-0.11278 -1.25975,-0.723008 -1.25976,-1.480458 z m 4.88864,18.9178346 c -0.1981,-0.0015 -0.40119,0.05141 -0.58398,0.166014 l 0.20703,0.332029 -0.28125,-0.273435 c -0.23528,0.243174 -0.45111,0.500526 -0.64843,0.775385 l -0.26562,0.345701 0.13281,0.0957 c -0.32396,-0.215941 -0.74553,-0.298884 -1.10156,-0.138671 -0.27756,0.124903 -0.35085,0.283424 -0.76757,0.810541 -0.41672,0.527117 -1.1084,1.429642 -2.31053,3.011698 -0.93687,1.211935 -1.85194,2.439564 -2.75389,3.677708 l -0.0801,0.103515 v 0.132811 c 0,1.78e-4 0.0214,0.116953 0.0215,0.117187 7e-5,2.33e-4 0.0233,0.06612 0.0234,0.06641 2.9e-4,5.76e-4 0.0365,0.05194 0.0371,0.05273 0.001,0.0016 0.0263,0.03371 0.0351,0.04297 0.0177,0.01852 0.0317,0.03306 0.0449,0.04492 0.0264,0.02374 0.0511,0.05163 0.0879,0.08203 0.0736,0.0608 0.17873,0.136886 0.30274,0.234373 0.24801,0.194977 0.58321,0.457526 0.95311,0.738276 l 1.66796,1.263663 2.0371,-2.679669 c 0.47768,-0.632013 0.91341,-1.19112 1.24022,-1.609363 0.009,0.154596 0.0269,0.355749 0.0234,0.406247 -0.0222,0.210598 -0.0672,0.41778 -0.13281,0.619136 -0.0617,0.188926 -0.0512,0.196838 -0.33984,0.605465 -0.28861,0.408624 -0.85184,1.152822 -1.96483,2.621075 -0.61477,0.813376 -1.18108,1.568287 -1.59374,2.124985 -0.20634,0.278365 -0.3749,0.506548 -0.49414,0.67187 -0.0596,0.08266 -0.10561,0.148269 -0.14062,0.199217 -0.0175,0.02532 -0.0316,0.04528 -0.0449,0.06641 -0.007,0.01058 -0.0132,0.02199 -0.0215,0.03711 -0.004,0.0076 -0.009,0.01607 -0.0156,0.0293 -0.003,0.0057 -0.009,0.01764 -0.0137,0.03125 -0.001,0.0028 0.001,0.0028 0,0.0059 -0.0687,0.188828 -0.0537,0.346598 -0.0234,0.50195 0.0301,0.154546 0.0811,0.309771 0.17773,0.451168 0.17124,0.250019 0.43063,0.387388 0.69335,0.435544 0.26273,0.04815 0.55704,0.0158 0.80469,-0.162108 0.003,-0.0021 0.0482,-0.04064 0.0605,-0.05273 0.0124,-0.0121 0.0192,-0.01834 0.0293,-0.0293 0.0201,-0.02192 0.0429,-0.0464 0.0664,-0.07422 0.047,-0.05563 0.10704,-0.132108 0.17774,-0.220702 0.1414,-0.177224 0.32332,-0.413397 0.54492,-0.701167 0.44319,-0.575538 1.01596,-1.334315 1.58787,-2.095688 0.57192,-0.761373 1.14265,-1.530186 1.58007,-2.126938 0.21869,-0.298375 0.40818,-0.553095 0.54492,-0.746088 0.0684,-0.0965 0.11879,-0.177726 0.16211,-0.242186 0.0433,-0.06446 0.071,-0.08401 0.11133,-0.169921 0.45427,-0.971647 0.54036,-2.178486 0.27343,-3.359351 -0.0816,-0.373123 -0.20298,-0.729496 -0.33984,-1.08593 0.0464,-0.07477 0.15195,-0.219966 0.34765,-0.478512 h 0.008 c 0.19691,-0.26383 0.31893,-0.438288 0.40624,-0.58398 0.086,-0.14353 0.14485,-0.292686 0.1543,-0.435544 v -0.0078 c 0.0113,-0.18792 -0.018,-0.390804 -0.11133,-0.568355 -0.0854,-0.162694 -0.20924,-0.289756 -0.35351,-0.406247 l 0.29492,-0.390622 c 0.21895,-0.293197 0.35724,-0.475078 0.45117,-0.626949 0.0939,-0.151871 0.16149,-0.306979 0.16992,-0.458981 0.0196,-0.430329 -0.20212,-0.815427 -0.52539,-1.017571 -0.16163,-0.101071 -0.35463,-0.156662 -0.55273,-0.158202 z m 0.006,0.802729 c 0.0439,-0.0016 0.0864,0.0098 0.12695,0.03516 0.0878,0.05487 0.15325,0.152835 0.14648,0.300779 0.002,-0.01357 0.009,-0.02235 -0.0508,0.07422 -0.0639,0.103251 -0.19054,0.287311 -0.40624,0.576168 l -0.76758,1.011711 0.57617,0.449216 c 0.11955,0.09245 0.16055,0.148687 0.17578,0.177733 0.0151,0.02906 0.0299,0.05512 0.0234,0.156249 4.9e-4,-0.0088 0.0103,-0.01235 -0.0449,0.08008 -0.0554,0.09242 -0.16895,0.252007 -0.36133,0.509762 -0.2075,0.274098 -0.33036,0.436473 -0.41406,0.576167 -0.0418,0.06985 -0.0802,0.130385 -0.10351,0.228514 -0.0234,0.09813 -0.0112,0.243277 0.0293,0.332029 0.14128,0.350851 0.25123,0.716408 0.33203,1.08593 h 0.008 c 0.23199,1.026407 0.14138,2.06726 -0.22071,2.841777 0.0223,-0.04764 -0.008,0.01131 -0.0449,0.06641 -0.037,0.05511 -0.096,0.127342 -0.16211,0.220701 -0.13228,0.186719 -0.31401,0.4419 -0.53124,0.738276 -0.43449,0.592752 -1.0018,1.359692 -1.57226,2.119126 -0.57046,0.759434 -1.14783,1.510571 -1.58788,2.082016 -0.22002,0.285736 -0.40292,0.530557 -0.53905,0.701167 -0.0681,0.0853 -0.12379,0.153863 -0.16211,0.199218 -0.01,0.01134 -0.0144,0.01317 -0.0215,0.02148 -0.0243,0.01474 -0.0934,0.03893 -0.17773,0.02344 -0.0878,-0.01625 -0.15999,-0.07176 -0.17773,-0.09765 -0.013,-0.01852 -0.0468,-0.08586 -0.0586,-0.146484 -0.0118,-0.06066 0.008,-0.115604 -0.008,-0.07422 0.0287,-0.04173 0.0751,-0.103541 0.13281,-0.183592 0.11545,-0.160065 0.28311,-0.389237 0.48828,-0.666011 0.40942,-0.552317 0.97588,-1.301558 1.58788,-2.111314 v -0.0059 c 1.1089,-1.463405 1.67042,-2.203257 1.97655,-2.6367 0.30668,-0.434221 0.38817,-0.633355 0.45117,-0.826166 0.0849,-0.260557 0.14259,-0.524186 0.16992,-0.796869 v -0.0078 -0.0078 c 0.0163,-0.23698 -0.0108,-0.563356 -0.0449,-0.8789 -0.017,-0.157771 -0.0369,-0.305711 -0.0586,-0.427732 -0.0106,-0.06101 -0.022,-0.107712 -0.0371,-0.162108 -0.008,-0.02721 -0.0134,-0.05825 -0.0293,-0.0957 -0.008,-0.01871 -0.0182,-0.03689 -0.0371,-0.06641 -0.009,-0.01478 -0.036,-0.05156 -0.0371,-0.05273 -8.1e-4,-9.32e-4 -0.0391,-0.03324 -0.0586,-0.05078 l -0.25196,0.310545 c -2.4e-4,1.1e-5 -0.14614,-0.369282 -0.14648,-0.369138 -6.9e-4,2.81e-4 -0.0888,0.04999 -0.0898,0.05078 -0.002,0.0016 -0.0403,0.03464 -0.0508,0.04492 -0.0209,0.0206 -0.0364,0.03222 -0.0527,0.05078 -0.0327,0.03715 -0.0679,0.08029 -0.11718,0.140624 -0.0985,0.120674 -0.23968,0.296853 -0.40625,0.509762 -0.33276,0.425801 -0.78482,1.016319 -1.27734,1.667957 l -1.54881,2.037095 -1.03515,-0.781244 c -0.36711,-0.278627 -0.70097,-0.534063 -0.94335,-0.724605 -0.0414,-0.03254 -0.0621,-0.05179 -0.0977,-0.08008 0.82573,-1.127909 1.66262,-2.253404 2.51756,-3.359351 1.20167,-1.581449 1.89745,-2.488784 2.30467,-3.003885 0.33674,-0.425949 0.52188,-0.579457 0.50586,-0.587887 0.0773,-0.0272 0.13847,-0.01576 0.29101,0.08594 v -0.0078 l 0.48633,0.339841 0.73046,-0.96679 h 0.008 c 0.15829,-0.220482 0.33939,-0.431323 0.52539,-0.628902 0.0496,-0.02629 0.0948,-0.03941 0.13867,-0.04101 z m -8.91009,8.900327 c -0.0121,0.0047 -0.26549,0.103387 -0.26563,0.103515 -2.8e-4,2.59e-4 -0.0168,0.02431 -0.0215,0.0293 -0.009,0.01002 -0.0176,0.0091 -0.0215,0.01367 -0.008,0.0092 -0.008,0.0218 -0.0156,0.03125 -0.0151,0.0189 -0.0413,0.03999 -0.0664,0.07227 -0.0503,0.06455 -0.12255,0.161065 -0.21484,0.281248 -0.18455,0.240368 -0.4473,0.58396 -0.77343,1.011711 -0.65226,0.855503 -1.54852,2.039403 -2.53319,3.335914 -3.16392,4.17321 -3.6216,4.795893 -3.93356,5.367149 -0.60561,1.101112 -1.24091,2.729577 -1.67577,4.230439 -0.0674,0.234031 -0.12033,0.400447 -0.15625,0.531246 -0.0359,0.130812 -0.0883,0.174333 -0.0586,0.390623 0.004,0.02721 0.008,0.05915 0.0215,0.0957 0.0134,0.03666 0.0645,0.116759 0.0664,0.11914 0.002,0.0024 0.13026,0.107938 0.13281,0.109374 0.003,0.0014 0.13742,0.04443 0.14062,0.04492 0.003,4.87e-4 0.0811,0.01046 0.11133,0.0078 0.0302,-0.003 0.0536,-0.01033 0.0742,-0.01563 0.0413,-0.01096 0.0714,-0.02615 0.0957,-0.03711 0.0971,-0.04354 0.14586,-0.08078 0.22851,-0.124999 1.19504,-0.636318 2.71727,-1.638356 3.63865,-2.414045 0.43911,-0.368471 0.73032,-0.632763 1.34374,-1.386709 0.61342,-0.753946 1.57134,-2.016613 3.41013,-4.437469 l 3.78123,-4.974574 -1.68359,-1.277335 c -0.3746,-0.283789 -0.71546,-0.536943 -0.96679,-0.724604 -0.12566,-0.09383 -0.22863,-0.174643 -0.30273,-0.228514 -0.037,-0.02695 -0.0651,-0.04931 -0.0898,-0.06641 -0.0124,-0.0085 -0.0197,-0.01185 -0.0352,-0.02148 -0.008,-0.0048 -0.0356,-0.02264 -0.0371,-0.02344 -7.6e-4,-3.93e-4 -0.0523,-0.0213 -0.0527,-0.02148 -2.4e-4,-8.5e-5 -0.0662,-0.01363 -0.0664,-0.01367 l -0.0508,-0.0078 c 0,0 -0.0109,-2.26e-4 -0.0156,0 z m 0.082,0.951165 c 0.0347,0.02582 0.0559,0.03671 0.0957,0.06641 0.24853,0.185574 0.59304,0.449266 0.96679,0.732417 l 1.04101,0.789057 -3.29881,4.339813 c -1.83873,2.42078 -2.79355,3.676745 -3.38865,4.408172 -0.59509,0.731427 -0.81003,0.922206 -1.24022,1.283194 -0.71324,0.600465 -1.91135,1.356567 -2.94529,1.957017 0.4184,-1.398027 1.00774,-2.925283 1.54296,-3.89841 0.27009,-0.494584 0.70408,-1.097402 3.86716,-5.269494 0.98449,-1.296281 1.88149,-2.475296 2.53318,-3.330054 0.32585,-0.427376 0.58996,-0.772779 0.77343,-1.011712 0.0223,-0.02899 0.0329,-0.04064 0.0527,-0.06641 z m 2.82029,4.458953 c -0.005,0.0102 -0.006,0.02004 -0.008,0.02344 h -0.008 c 0.002,-0.0031 0.0107,-0.01588 0.0156,-0.02344 z m -2.73045,5.812459 c -0.0762,0.0034 -0.15087,0.01029 -0.22656,0.02148 l -0.008,-0.0039 c -0.61611,0.16838 -1.13871,0.577724 -1.45117,1.134758 -0.11243,0.226699 -0.20694,0.461832 -0.2832,0.70312 -0.0439,0.155302 -0.0941,0.308919 -0.14843,0.460934 -0.0378,0.05291 -1.08887,0.302372 -1.70116,0.4082 -1.45136,0.253232 -1.84452,0.346227 -1.98436,0.478512 -0.27969,0.257011 -0.063,0.515728 0.33007,0.402341 0.10583,-0.03402 0.55155,-0.121673 0.98242,-0.197264 0.43087,-0.07559 1.0887,-0.20799 1.46288,-0.29492 0.23082,-0.06584 0.46778,-0.109289 0.70702,-0.128905 -0.0256,0.226661 -0.0774,0.450575 -0.15234,0.666011 l -0.17383,0.634761 -0.39648,0.169921 c -0.23848,0.105563 -0.46809,0.230113 -0.68749,0.371091 -0.49135,0.325043 -0.58991,0.733469 -0.24219,0.998039 0.18898,0.143624 0.71414,0.139845 1.04296,0 0.29103,-0.132285 0.45291,-0.31491 0.67969,-0.794916 0.12094,-0.249452 0.21346,-0.377583 0.28906,-0.396481 0.0605,-0.02268 0.57796,-0.121113 1.15624,-0.23828 l 1.17186,-0.242186 c 0.11339,-0.02646 0.12386,-0.02184 0.0899,0.08398 -0.0602,0.143095 -0.13165,0.281031 -0.21484,0.412107 -0.0875,0.131642 -0.14797,0.278363 -0.17774,0.43359 0,0.162522 0.13661,0.324777 0.25,0.283201 0.0386,-0.02003 0.0795,-0.03093 0.12305,-0.0332 0.0956,-0.04827 0.18323,-0.112613 0.25781,-0.189451 0.21543,-0.196538 0.74023,-1.149156 0.74023,-1.345694 0,-0.102048 0.0759,-0.128199 0.125,-0.04883 0.0151,0.02646 0.14102,0.07523 0.26953,0.105468 0.18897,0.04913 0.23632,0.08299 0.23632,0.169921 0,0.162522 0.2697,0.401908 0.50781,0.447262 0.23013,0.02873 0.46275,-0.0092 0.67187,-0.109374 0.0907,-0.0378 0.0947,-0.02656 0.0644,0.113281 -0.0929,0.210068 -0.20651,0.408685 -0.33984,0.595699 -0.3543,0.532768 -0.64847,1.103533 -0.87694,1.701159 -0.0869,0.309926 -0.0493,0.540779 0.11328,0.650386 0.14362,0.09449 0.38516,0.05403 0.51366,-0.08203 0.35305,-0.633835 0.66356,-1.291827 0.92968,-1.966783 0.11685,-0.344017 0.32006,-0.651158 0.58984,-0.894525 0.29481,-0.309925 0.39043,-0.38657 0.32617,-0.265623 -0.10204,0.226774 -0.0996,0.400027 0.0176,0.505856 0.24567,0.226774 0.60609,7.87e-4 0.91601,-0.55859 0.1852,-0.340162 0.3198,-0.438497 1.0039,-0.75976 l 0.35937,-0.162109 -0.0371,0.193358 c -0.0712,0.228022 -0.16356,0.448042 -0.27343,0.660152 -0.24567,0.521581 -0.29389,0.855069 -0.14649,1.134757 0.10205,0.196538 0.20762,0.199631 0.69141,0.03711 0.67276,-0.226775 1.55055,-0.748282 1.77733,-1.046868 0.30992,-0.423312 0.40382,-0.830599 0.21484,-0.962884 -0.19654,-0.143624 -0.30328,-0.08354 -0.55273,0.279295 -0.28283,0.445536 -0.67155,0.811983 -1.13281,1.068352 -0.18897,0.09827 -0.35206,0.163428 -0.36718,0.14453 0.18123,-0.570149 0.38875,-1.131133 0.62304,-1.681629 0.0438,-0.09593 0.0741,-0.198189 0.0879,-0.302732 0,-0.151183 -0.18866,-0.318357 -0.33984,-0.318357 -0.26839,0.07578 -0.52754,0.1832 -0.77148,0.318357 -0.71812,0.35906 -0.6736,0.389563 -0.49218,-0.283201 0.11338,-0.415753 0.0756,-0.526273 -0.17383,-0.55273 -0.24189,-0.02646 -0.33937,0.05809 -0.55859,0.451168 -0.18089,0.312798 -0.4147,0.591883 -0.6914,0.824213 -0.48001,0.44221 -0.49989,0.456322 -0.61328,0.376951 -0.17008,-0.120947 -0.26367,-0.102536 -0.67187,0.101561 -0.40063,0.200318 -0.53271,0.226415 -0.63476,0.105468 -0.0831,-0.09827 0.048,-0.149342 0.78125,-0.292966 0.70678,-0.136065 0.79491,-0.17486 0.79491,-0.322264 0,-0.234333 -0.18938,-0.460267 -0.5371,-0.61523 -0.60096,-0.26457 -0.66902,-0.284827 -0.93359,-0.216795 -0.28347,0.07559 -0.70319,0.481138 -0.76367,0.73437 -0.0567,0.260791 -0.23437,0.185559 -0.23437,-0.105468 -0.0288,-0.179681 -0.11043,-0.347198 -0.23437,-0.480465 -0.17764,-0.120947 -0.46828,0.143036 -0.6875,0.623042 l -0.17383,0.374997 -0.38476,0.08203 c -0.50646,0.113387 -1.97337,0.40556 -2.16991,0.443356 -0.1285,0.02268 -0.15132,0.02248 -0.12109,-0.06445 l 0.14649,-0.517575 c 0.16252,-0.650087 0.20914,-0.737156 0.44726,-0.820307 0.50366,-0.195517 0.99946,-0.408491 1.48827,-0.638667 0.18924,-0.112745 0.36669,-0.245916 0.52929,-0.394528 0.52914,-0.495125 0.61233,-0.950718 0.23437,-1.287101 -0.0923,-0.08198 -0.19413,-0.15423 -0.30273,-0.212889 -0.22164,-0.05978 -0.45124,-0.08432 -0.67968,-0.07422 z m -0.29492,0.611324 c 0.0728,-0.0045 0.15891,-0.0018 0.26758,0.0039 0.27968,0.02646 0.38937,0.04575 0.46874,0.128905 v -0.0039 c 0.10583,0.105828 0.10621,0.11218 0.0117,0.312498 -0.0992,0.162673 -0.23474,0.299662 -0.39648,0.400388 -0.32126,0.219215 -1.32352,0.624542 -1.36132,0.55273 -0.0378,-0.120946 0.28431,-0.843657 0.49219,-1.074211 0.20409,-0.232444 0.29912,-0.306845 0.51757,-0.32031 z m -2.6992,4.406219 c 0.0406,0.0043 0.0418,0.03945 0.008,0.109374 l -0.004,-0.0059 c -0.068,0.128506 -0.24548,0.225295 -0.34375,0.187499 -0.11339,-0.04913 -0.0875,-0.11254 0.0976,-0.20703 0.12095,-0.06047 0.20156,-0.08824 0.24219,-0.08398 z"
       transform="matrix(0.26458,0,0,0.26458,-31.351275,-0.26418)" />
  </g>
</svg>
