<?xml version="1.0" encoding="UTF-8" standalone="no"?>
<svg
   width="43.546024"
   height="55.538212"
   version="1.1"
   viewBox="0 0 43.546024 55.538212"
   id="svg3"
   xmlns:xlink="http://www.w3.org/1999/xlink"
   xmlns="http://www.w3.org/2000/svg"
   xmlns:svg="http://www.w3.org/2000/svg">
  <defs
     id="defs3">
    <linearGradient
       id="linearGradient34">
      <stop
         style="stop-color:#039bfc;stop-opacity:0;"
         offset="0"
         id="stop35" />
      <stop
         style="stop-color:#039bfc;stop-opacity:1;"
         offset="1"
         id="stop34" />
    </linearGradient>
    <linearGradient
       xlink:href="#linearGradient34"
       id="linearGradient35"
       x1="149.80165"
       y1="65.000099"
       x2="149.80165"
       y2="24.536331"
       gradientUnits="userSpaceOnUse" />
    <filter
       style="color-interpolation-filters:sRGB"
       id="filter35"
       x="-0.030947896"
       y="-0.023945386"
       width="1.0618958"
       height="1.0478908">
      <feGaussianBlur
         stdDeviation="0.52879393"
         id="feGaussianBlur35" />
    </filter>
  </defs>
  <g
     id="g35"
     transform="translate(-10.222995,-4.7308946)">
    <path
       id="path1"
       style="display:inline;opacity:0.6;fill:#039bfc;filter:url(#filter35)"
       d="m 151.80394,7.0001 -0.004,0.00195 -19.35351,0.00391 c -1.35355,0 -2.45703,1.1084593 -2.45703,2.4648437 V 57.533303 c 0,1.356386 1.10343,2.466797 2.45703,2.466797 h 36.09375 c 1.35354,0 2.45703,-1.110412 2.45703,-2.466797 V 26.183694 c 0,-0.440775 -0.10327,-0.93784 -0.29297,-1.464844 h 0.0606 l -0.35547,-0.722656 c -0.0256,-0.05172 -0.0587,-0.104197 -0.0859,-0.15625 l -0.0605,-0.125 h -0.008 c -0.33862,-0.618179 -0.7885,-1.252822 -1.38476,-1.84961 l -0.002,-0.002 L 156.26488,9.1524437 C 155.67159,8.4151755 155.0115,7.918962 154.36644,7.59385 154.28114,7.550863 154.19507,7.50998 154.11058,7.4727562 l -0.0859,-0.037109 -0.0312,-0.00195 C 153.20882,7.1007523 152.46804,7.0001 151.90941,7.0001 Z m 0.11523,1.0019531 c 0.37972,7.572e-4 0.91296,0.1248404 1.44727,0.3105469 v 13.935547 c 0,1.22231 0.89866,2.235584 2.06641,2.425781 0.12731,0.02382 0.25744,0.03746 0.39062,0.04102 0.0224,5.98e-4 0.0439,0.0039 0.0664,0.0039 h 13.69336 c 0.23563,0.562366 0.41406,1.117889 0.41406,1.464844 v 31.349609 c 0,0.822556 -0.64278,1.466797 -1.45703,1.466797 h -36.09375 c -0.81435,0 -1.45703,-0.644183 -1.45703,-1.466797 V 9.4708031 c 0,-0.8225555 0.64277,-1.4667967 1.45703,-1.4667969 z m 2.47071,0.9238281 c 0.38082,0.2545633 0.76637,0.4323997 1.12695,0.8886719 l 0.0176,0.021484 12.62695,12.7343749 c 0.37192,0.371984 0.57528,0.75943 0.82813,1.144532 h -13.16602 c -0.0687,0 -0.13319,-0.01063 -0.19922,-0.01953 -0.70854,-0.123274 -1.23436,-0.730184 -1.23437,-1.478515 z m 3.64062,20.9179688 -6.40429,0.818359 c 0.934,0.466 2.21542,0.34975 2.60742,1.71875 z m 1.64258,0.109375 -3.68359,2.130859 6.31836,-0.06055 z m -9.22461,2.230469 c -0.0987,-0.0024 -0.20006,-0.002 -0.30469,0.0039 -0.76,0.044 -1.67245,0.303547 -2.68945,0.810547 -3.252,1.62 -6.31284,5.101437 -6.83984,7.773437 -0.527,2.67 1.68059,3.520391 4.93359,1.900391 3.252,-1.62 6.31285,-5.092672 6.83984,-7.763672 0.33938,-1.72125 -0.45905,-2.688717 -1.93945,-2.724609 z m 5.4668,0.662109 6.50195,4.326172 0.0801,-3.910156 z m -1.39453,0.447266 c -0.01,1.211 -0.65975,3.288062 -1.34375,3.914062 v 0.002 l 7.64062,-0.111328 z m 7.54101,4.833984 -7.63086,0.117188 5.54102,3.746093 z m -9.28515,0.408203 c -4.078,5.45 -13.74408,10.950375 -13.83008,2.734375 l -0.44922,9.650391 c 0.103,0.584 0.85075,2.321016 3.34375,2.791016 6.32,0.22 10.64284,0.302187 19.33984,-0.882813 0.734,-4.066 0.68986,-8.263922 0.88086,-12.419922 -2.806,4.36 -5.9014,7.707766 -9.9414,9.759766 2.83,-2.35 5.14482,-4.920438 7.29882,-7.523438 l -6.64062,-4.109375 z"
       transform="translate(-118.4973,-1.0001)" />
    <path
       id="path34"
       style="fill:url(#linearGradient35);fill-opacity:1"
       d="m 151.80394,7.0001 -0.004,0.00195 -19.35351,0.00391 c -1.35355,0 -2.45703,1.1084593 -2.45703,2.4648437 V 57.533303 c 0,1.356386 1.10343,2.466797 2.45703,2.466797 h 36.09375 c 1.35354,0 2.45703,-1.110412 2.45703,-2.466797 V 26.183694 c 0,-0.440775 -0.10327,-0.93784 -0.29297,-1.464844 h 0.0606 l -0.35547,-0.722656 c -0.0256,-0.05172 -0.0587,-0.104197 -0.0859,-0.15625 l -0.0605,-0.125 h -0.008 c -0.33862,-0.618179 -0.7885,-1.252822 -1.38476,-1.84961 l -0.002,-0.002 L 156.26488,9.1524437 C 155.67159,8.4151755 155.0115,7.918962 154.36644,7.59385 154.28114,7.550863 154.19507,7.50998 154.11058,7.4727562 l -0.0859,-0.037109 -0.0312,-0.00195 C 153.20882,7.1007523 152.46804,7.0001 151.90941,7.0001 Z m 0.11523,1.0019531 c 0.37972,7.572e-4 0.91296,0.1248404 1.44727,0.3105469 v 13.935547 c 0,1.22231 0.89866,2.235584 2.06641,2.425781 0.12731,0.02382 0.25744,0.03746 0.39062,0.04102 0.0224,5.98e-4 0.0439,0.0039 0.0664,0.0039 h 13.69336 c 0.23563,0.562366 0.41406,1.117889 0.41406,1.464844 v 31.349609 c 0,0.822556 -0.64278,1.466797 -1.45703,1.466797 h -36.09375 c -0.81435,0 -1.45703,-0.644183 -1.45703,-1.466797 V 9.4708031 c 0,-0.8225555 0.64277,-1.4667967 1.45703,-1.4667969 z m 2.47071,0.9238281 c 0.38082,0.2545633 0.76637,0.4323997 1.12695,0.8886719 l 0.0176,0.021484 12.62695,12.7343749 c 0.37192,0.371984 0.57528,0.75943 0.82813,1.144532 h -13.16602 c -0.0687,0 -0.13319,-0.01063 -0.19922,-0.01953 -0.70854,-0.123274 -1.23436,-0.730184 -1.23437,-1.478515 z m 3.64062,20.9179688 -6.40429,0.818359 c 0.934,0.466 2.21542,0.34975 2.60742,1.71875 z m 1.64258,0.109375 -3.68359,2.130859 6.31836,-0.06055 z m -9.22461,2.230469 c -0.0987,-0.0024 -0.20006,-0.002 -0.30469,0.0039 -0.76,0.044 -1.67245,0.303547 -2.68945,0.810547 -3.252,1.62 -6.31284,5.101437 -6.83984,7.773437 -0.527,2.67 1.68059,3.520391 4.93359,1.900391 3.252,-1.62 6.31285,-5.092672 6.83984,-7.763672 0.33938,-1.72125 -0.45905,-2.688717 -1.93945,-2.724609 z m 5.4668,0.662109 6.50195,4.326172 0.0801,-3.910156 z m -1.39453,0.447266 c -0.01,1.211 -0.65975,3.288062 -1.34375,3.914062 v 0.002 l 7.64062,-0.111328 z m 7.54101,4.833984 -7.63086,0.117188 5.54102,3.746093 z m -9.28515,0.408203 c -4.078,5.45 -13.74408,10.950375 -13.83008,2.734375 l -0.44922,9.650391 c 0.103,0.584 0.85075,2.321016 3.34375,2.791016 6.32,0.22 10.64284,0.302187 19.33984,-0.882813 0.734,-4.066 0.68986,-8.263922 0.88086,-12.419922 -2.806,4.36 -5.9014,7.707766 -9.9414,9.759766 2.83,-2.35 5.14482,-4.920438 7.29882,-7.523438 l -6.64062,-4.109375 z"
       transform="translate(-118.4973,-1.0001)" />
  </g>
</svg>
