<?xml version="1.0" encoding="UTF-8" standalone="no"?>
<svg
   width="43.546024"
   height="55.538212"
   version="1.1"
   viewBox="0 0 43.546024 55.538212"
   id="svg3"
   xmlns:xlink="http://www.w3.org/1999/xlink"
   xmlns="http://www.w3.org/2000/svg"
   xmlns:svg="http://www.w3.org/2000/svg">
  <defs
     id="defs3">
    <linearGradient
       id="linearGradient4">
      <stop
         style="stop-color:#00abff;stop-opacity:0;"
         offset="0"
         id="stop5" />
      <stop
         style="stop-color:#00abff;stop-opacity:1;"
         offset="1"
         id="stop4" />
    </linearGradient>
    <linearGradient
       xlink:href="#linearGradient4"
       id="linearGradient5"
       x1="150.02776"
       y1="64.998489"
       x2="150.02776"
       y2="26.389793"
       gradientUnits="userSpaceOnUse" />
    <filter
       style="color-interpolation-filters:sRGB"
       id="filter5"
       x="-0.030947896"
       y="-0.023945386"
       width="1.0618958"
       height="1.0478908">
      <feGaussianBlur
         stdDeviation="0.52879393"
         id="feGaussianBlur5" />
    </filter>
  </defs>
  <g
     id="g5"
     transform="translate(-10.228945,-4.7328477)">
    <path
       id="path1"
       style="display:inline;fill:#00abff;fill-opacity:1;stroke:none"
       d="m 151.80402,7.0004431 -0.004,0.00195 -19.35351,0.00391 c -1.35355,0 -2.45703,1.1084593 -2.45703,2.4648438 V 57.533646 c 0,1.356386 1.10343,2.466797 2.45703,2.466797 h 36.09375 c 1.35354,0 2.45703,-1.110412 2.45703,-2.466797 V 26.184037 c 0,-0.440397 -0.10359,-0.938346 -0.29297,-1.464844 h 0.0606 l -0.35547,-0.722656 c -0.0256,-0.05172 -0.0587,-0.104197 -0.0859,-0.15625 l -0.0606,-0.125 h -0.008 c -0.33862,-0.618179 -0.7885,-1.252822 -1.38477,-1.849609 l -0.002,-0.002 -12.60351,-12.7109371 c -0.59329,-0.7372684 -1.25338,-1.2334818 -1.89844,-1.5585938 -0.0853,-0.042987 -0.17137,-0.08387 -0.25586,-0.1210937 l -0.0859,-0.037109 -0.0312,-0.00195 c -0.78437,-0.332899 -1.52515,-0.4335513 -2.08378,-0.4335513 z m 0.11523,1.0019532 c 0.37972,7.572e-4 0.91296,0.1248403 1.44727,0.3105468 V 22.24849 c 0,1.22231 0.89865,2.235584 2.0664,2.425781 0.12732,0.02382 0.25744,0.03745 0.39063,0.04102 0.0224,5.98e-4 0.0439,0.0039 0.0664,0.0039 h 13.69336 c 0.23563,0.562366 0.41406,1.117889 0.41406,1.464844 v 31.349609 c 0,0.822556 -0.64278,1.466797 -1.45703,1.466797 H 132.4466 c -0.81435,0 -1.45703,-0.644183 -1.45703,-1.466797 V 9.4711463 c 0,-0.8225555 0.64277,-1.4667969 1.45703,-1.4667969 z m 2.47071,0.9238281 c 0.38082,0.2545631 0.76637,0.4323996 1.12695,0.8886719 l 0.0176,0.021484 12.62695,12.7343757 c 0.37192,0.371983 0.57528,0.75943 0.82813,1.144531 h -13.16602 c -0.06,0 -0.11587,-0.01077 -0.17383,-0.01758 -0.72125,-0.113118 -1.25975,-0.723307 -1.25976,-1.480469 z M 136.48957,31.025834 v 2 h 28 v -2 z m 0,6 v 2 h 28 v -2 z m 0,6 v 2 h 28 v -2 z m 0,6 v 2 h 20 v -2 z"
       transform="translate(-118.49152,-0.99849)" />
    <path
       id="path4"
       style="opacity:0.6;fill:url(#linearGradient5);fill-opacity:1;stroke:none;filter:url(#filter5)"
       d="m 151.80402,7.0004431 -0.004,0.00195 -19.35351,0.00391 c -1.35355,0 -2.45703,1.1084593 -2.45703,2.4648438 V 57.533646 c 0,1.356386 1.10343,2.466797 2.45703,2.466797 h 36.09375 c 1.35354,0 2.45703,-1.110412 2.45703,-2.466797 V 26.184037 c 0,-0.440397 -0.10359,-0.938346 -0.29297,-1.464844 h 0.0606 l -0.35547,-0.722656 c -0.0256,-0.05172 -0.0587,-0.104197 -0.0859,-0.15625 l -0.0606,-0.125 h -0.008 c -0.33862,-0.618179 -0.7885,-1.252822 -1.38477,-1.849609 l -0.002,-0.002 -12.60351,-12.7109371 c -0.59329,-0.7372684 -1.25338,-1.2334818 -1.89844,-1.5585938 -0.0853,-0.042987 -0.17137,-0.08387 -0.25586,-0.1210937 l -0.0859,-0.037109 -0.0312,-0.00195 c -0.78437,-0.332899 -1.52515,-0.4335513 -2.08378,-0.4335513 z m 0.11523,1.0019532 c 0.37972,7.572e-4 0.91296,0.1248403 1.44727,0.3105468 V 22.24849 c 0,1.22231 0.89865,2.235584 2.0664,2.425781 0.12732,0.02382 0.25744,0.03745 0.39063,0.04102 0.0224,5.98e-4 0.0439,0.0039 0.0664,0.0039 h 13.69336 c 0.23563,0.562366 0.41406,1.117889 0.41406,1.464844 v 31.349609 c 0,0.822556 -0.64278,1.466797 -1.45703,1.466797 H 132.4466 c -0.81435,0 -1.45703,-0.644183 -1.45703,-1.466797 V 9.4711463 c 0,-0.8225555 0.64277,-1.4667969 1.45703,-1.4667969 z m 2.47071,0.9238281 c 0.38082,0.2545631 0.76637,0.4323996 1.12695,0.8886719 l 0.0176,0.021484 12.62695,12.7343757 c 0.37192,0.371983 0.57528,0.75943 0.82813,1.144531 h -13.16602 c -0.06,0 -0.11587,-0.01077 -0.17383,-0.01758 -0.72125,-0.113118 -1.25975,-0.723307 -1.25976,-1.480469 z M 136.48957,31.025834 v 2 h 28 v -2 z m 0,6 v 2 h 28 v -2 z m 0,6 v 2 h 28 v -2 z m 0,6 v 2 h 20 v -2 z"
       transform="translate(-118.49152,-0.99849)" />
  </g>
</svg>
