<?xml version="1.0" encoding="UTF-8" standalone="no"?>
<svg
   width="43.546024"
   height="55.538212"
   version="1.1"
   id="svg3"
   xmlns:xlink="http://www.w3.org/1999/xlink"
   xmlns="http://www.w3.org/2000/svg"
   xmlns:svg="http://www.w3.org/2000/svg">
  <defs
     id="defs3">
    <linearGradient
       id="linearGradient4">
      <stop
         style="stop-color:#00abff;stop-opacity:0;"
         offset="0"
         id="stop5" />
      <stop
         style="stop-color:#00abff;stop-opacity:1;"
         offset="1"
         id="stop4" />
    </linearGradient>
    <linearGradient
       xlink:href="#linearGradient4"
       id="linearGradient5"
       x1="149.6851"
       y1="65.000099"
       x2="149.6851"
       y2="26.623289"
       gradientUnits="userSpaceOnUse" />
    <filter
       style="color-interpolation-filters:sRGB"
       id="filter5"
       x="-0.030947896"
       y="-0.023945386"
       width="1.0618958"
       height="1.0478908">
      <feGaussianBlur
         stdDeviation="0.52879393"
         id="feGaussianBlur5" />
    </filter>
  </defs>
  <g
     id="g5"
     transform="translate(-10.224935,-4.7308946)">
    <path
       id="path1"
       style="display:inline;opacity:0.6;fill:#00abff;fill-opacity:1;stroke:none;filter:url(#filter5)"
       d="m 151.80529,7.0001 -0.004,0.00195 -19.35352,0.00391 c -1.35355,0 -2.45703,1.1084593 -2.45703,2.4648437 V 57.533303 c 0,1.356386 1.10343,2.466797 2.45703,2.466797 h 36.09375 c 1.35354,0 2.45703,-1.110412 2.45703,-2.466797 V 26.183694 c 0,-0.440775 -0.10522,-0.93784 -0.29492,-1.464844 h 0.0625 l -0.35547,-0.722656 c -0.0256,-0.05172 -0.0587,-0.104197 -0.0859,-0.15625 l -0.0605,-0.125 h -0.008 c -0.33863,-0.618179 -0.78851,-1.252822 -1.38477,-1.84961 l -0.002,-0.002 -12.60352,-12.7109373 c -0.59286,-0.7367818 -1.2538,-1.2334508 -1.89844,-1.5585937 -0.0858,-0.043269 -0.17087,-0.083655 -0.25586,-0.1210938 l -0.0859,-0.037109 -0.0312,-0.00195 C 153.21017,7.1007523 152.4694,7.0001 151.91076,7.0001 Z m 0.11524,1.0019531 c 0.37972,7.572e-4 0.91295,0.1248404 1.44726,0.3105469 v 13.935547 c 0,1.22032 0.89559,2.23319 2.06055,2.425781 0.12867,0.02428 0.26181,0.03744 0.39649,0.04102 0.0222,5.89e-4 0.0441,0.0039 0.0664,0.0039 h 13.69336 c 0.23563,0.562366 0.41406,1.117889 0.41406,1.464844 v 31.349609 c 0,0.822556 -0.64278,1.466797 -1.45703,1.466797 h -36.09375 c -0.81435,0 -1.45703,-0.644183 -1.45703,-1.466797 V 9.4708031 c 0,-0.8225555 0.64277,-1.4667968 1.45703,-1.4667969 z m 2.4707,0.9238281 c 0.38082,0.2545632 0.76637,0.4323997 1.12695,0.8886719 l 0.0176,0.021484 12.62696,12.7343749 c 0.37192,0.371986 0.57527,0.759428 0.82812,1.144532 h -13.16601 c -0.069,0 -0.13496,-0.01057 -0.20118,-0.01953 -0.70854,-0.123275 -1.23241,-0.730184 -1.23242,-1.478515 z m -3.89062,19.4746098 c -4.64668,0 -8.40039,3.753709 -8.40039,8.40039 v 3.59961 h -1 v 7.267578 l 1.125,-1.46875 0.002,-0.002 c 0.4879,-0.654723 2.04613,-1.800369 3.16992,-2.244141 v 0.002 c 0.52915,-0.20868 2.08647,-0.508137 3.80274,-0.695312 h 0.002 c 1.26632,-0.141619 3.16477,-0.157387 4.98242,-0.390625 1.81765,-0.233238 3.58663,-0.660062 4.61328,-1.800782 l 0.10352,-0.113281 v -4.154297 c 0,-4.646681 -3.75371,-8.40039 -8.40039,-8.40039 z m 0,0.800781 c 0.43793,0 0.81534,0.175994 1.23242,0.246094 -0.18383,-0.02332 -0.36977,-0.06558 -0.55274,-0.07617 -2.81663,-0.164498 -5.64611,1.374854 -6.82226,3.884765 -0.3083,0.657694 -0.48766,1.106265 -0.5332,1.44336 -0.006,0.04214 -0.0108,0.08476 -0.006,0.146484 0.005,0.06172 0.002,0.166992 0.13867,0.292969 0.0683,0.06299 0.17951,0.108538 0.26953,0.111328 0.09,0.0028 0.15269,-0.02172 0.19726,-0.04297 0.0891,-0.04249 0.12292,-0.08234 0.15625,-0.117187 0.13336,-0.139373 0.21981,-0.293452 0.36719,-0.56836 0.23691,-0.442575 0.87223,-1.285461 1.33594,-1.751953 1.57267,-1.576425 4.22551,-2.448899 6.10742,-2.076172 0.34053,0.06743 0.58855,0.100613 0.7832,0.103516 0.0973,0.0015 0.17545,0.0059 0.30079,-0.03906 0.0627,-0.02248 0.15755,-0.05994 0.23632,-0.1875 0.0788,-0.127558 0.0638,-0.322479 0.0176,-0.416015 -0.0636,-0.128658 -0.12148,-0.171797 -0.17773,-0.203125 2.66829,1.163868 4.54883,3.735743 4.54883,6.849609 v 3.794922 c -0.79797,0.809244 -2.3197,1.262599 -4.01758,1.480469 -1.7516,0.224762 -3.62603,0.23829 -4.97071,0.388672 -1.74868,0.190799 -3.25931,0.448959 -4.00781,0.74414 -1.1679,0.46119 -2.44752,1.380847 -3.20312,2.220704 v -4.228516 h 1 v -4.400391 c 0,-4.217319 3.38229,-7.599609 7.59961,-7.599609 z m -2.63672,1.691406 c -0.2638,0.135322 -0.50011,0.295604 -0.74805,0.457031 0.24437,-0.166032 0.48157,-0.324309 0.74805,-0.457031 z m 2.63672,1.507813 c -2.43068,0 -4.40039,1.969709 -4.40039,4.40039 v 4.400391 h 8.80078 v -4.400391 c 0,-2.430681 -1.96971,-4.40039 -4.40039,-4.40039 z m 0,0.800781 c 2.00132,0 3.59961,1.59829 3.59961,3.599609 v 3.59961 H 146.901 v -3.59961 c 0,-2.001319 1.59829,-3.599609 3.59961,-3.599609 z m 9.40039,7.908203 -1.72071,1.416016 -0.002,0.002 c -0.55705,0.474989 -1.46478,1.149043 -1.97851,1.46289 -0.51424,0.314204 -1.45708,0.729073 -2.34766,1.050782 -0.89058,0.321708 -1.8004,0.546875 -2.03906,0.546875 -0.18245,0 -0.33533,0.0095 -0.50586,0.08594 -0.0853,0.03824 -0.19442,0.0996 -0.26758,0.248047 -0.0732,0.148448 -0.0406,0.354494 0.0254,0.462891 l 0.002,0.002 c 0.1141,0.183922 0.24209,0.210703 0.34375,0.240234 0.10167,0.02953 0.20266,0.0434 0.31641,0.05274 0.2275,0.01869 0.50529,0.01469 0.83008,-0.0059 0.64957,-0.04103 1.47959,-0.151811 2.33398,-0.324219 0.66182,-0.132363 1.90101,-0.631328 2.94531,-1.160156 h 0.002 l 0.53125,-0.269531 c -1.79904,2.281135 -4.60176,3.586714 -8.58203,3.826172 -0.71376,0.04279 -1.17957,0.09126 -1.47657,0.15625 -0.0743,0.01625 -0.13809,0.03237 -0.20507,0.05859 -0.067,0.02623 -0.14908,0.03442 -0.25391,0.195312 -0.0524,0.08045 -0.0866,0.231525 -0.0527,0.349609 0.0339,0.118084 0.0991,0.182261 0.14649,0.220704 0.0948,0.07689 0.15457,0.08931 0.21875,0.109375 0.25672,0.08026 0.60473,0.115497 1.14453,0.15039 0.5398,0.03489 1.24418,0.05607 2.0957,0.05859 h 0.002 c 2.29823,0.003 2.91634,-0.08197 4.31445,-0.552734 0.0318,-0.01066 0.0507,-0.01493 0.082,-0.02539 -0.43161,0.330571 -0.91001,0.686953 -1.23437,0.851562 -1.75454,0.890481 -2.86633,1.123276 -6.08594,1.269532 -2.30778,0.1054 -3.25646,0.184074 -3.86328,0.519531 -0.0798,0.04383 -0.15027,0.07225 -0.25,0.173828 -0.0499,0.05079 -0.13205,0.139163 -0.13672,0.3125 -0.005,0.173337 0.11979,0.32419 0.20117,0.378906 0.16275,0.109433 0.2526,0.105512 0.39453,0.125 0.14193,0.01949 0.32101,0.03321 0.5586,0.04492 0.95032,0.04684 2.84463,0.05359 6.45703,0.05859 h 8.05664 v -9.060547 -1.267578 z m -0.80078,1.695313 v 0.845703 l -1.625,0.824218 c -0.9897,0.501173 -2.30206,1.002208 -2.74024,1.089844 h -0.002 c -0.0518,0.01046 -0.089,0.0095 -0.14063,0.01953 0.74973,-0.292013 1.52675,-0.60667 2.02344,-0.910156 0.58467,-0.357179 1.47922,-1.024707 2.07617,-1.533203 l 0.006,-0.0039 z m 0,2.496093 v 7.09961 h -7.25586 c -1.79261,-0.0025 -2.1478,-0.01912 -3.18555,-0.02734 3.1212,-0.149939 4.47639,-0.427789 6.27344,-1.339844 0.52268,-0.265251 1.17974,-0.740678 1.71679,-1.183594 0.26853,-0.221457 0.50253,-0.431011 0.67383,-0.613281 0.0857,-0.09114 0.1547,-0.170772 0.21485,-0.269531 0.0301,-0.04938 0.0624,-0.101629 0.082,-0.195313 0.0196,-0.09368 0.009,-0.284406 -0.11719,-0.410156 -6.9e-4,-6.87e-4 -0.0636,-0.05286 -0.0918,-0.06836 -0.0282,-0.0155 -0.0531,-0.02444 -0.0742,-0.03125 -0.0423,-0.01362 -0.0714,-0.01731 -0.0957,-0.01953 -0.0486,-0.0044 -0.0779,-0.0026 -0.10547,0 -0.0551,0.0052 -0.10021,0.0139 -0.15234,0.02539 -0.10426,0.02298 -0.22984,0.05707 -0.38086,0.101563 -0.30204,0.08899 -0.70031,0.21941 -1.13477,0.365234 -0.7846,0.264186 -1.64357,0.230464 -2.33593,0.292969 2.56439,-0.651297 4.5683,-1.893614 5.96875,-3.726563 z"
       transform="translate(-118.4967,-1.0001)" />
    <path
       id="path4"
       style="fill:url(#linearGradient5);fill-opacity:1;stroke:none"
       d="m 151.80529,7.0001 -0.004,0.00195 -19.35352,0.00391 c -1.35355,0 -2.45703,1.1084593 -2.45703,2.4648437 V 57.533303 c 0,1.356386 1.10343,2.466797 2.45703,2.466797 h 36.09375 c 1.35354,0 2.45703,-1.110412 2.45703,-2.466797 V 26.183694 c 0,-0.440775 -0.10522,-0.93784 -0.29492,-1.464844 h 0.0625 l -0.35547,-0.722656 c -0.0256,-0.05172 -0.0587,-0.104197 -0.0859,-0.15625 l -0.0605,-0.125 h -0.008 c -0.33863,-0.618179 -0.78851,-1.252822 -1.38477,-1.84961 l -0.002,-0.002 -12.60352,-12.7109373 c -0.59286,-0.7367818 -1.2538,-1.2334508 -1.89844,-1.5585937 -0.0858,-0.043269 -0.17087,-0.083655 -0.25586,-0.1210938 l -0.0859,-0.037109 -0.0312,-0.00195 C 153.21017,7.1007523 152.4694,7.0001 151.91076,7.0001 Z m 0.11524,1.0019531 c 0.37972,7.572e-4 0.91295,0.1248404 1.44726,0.3105469 v 13.935547 c 0,1.22032 0.89559,2.23319 2.06055,2.425781 0.12867,0.02428 0.26181,0.03744 0.39649,0.04102 0.0222,5.89e-4 0.0441,0.0039 0.0664,0.0039 h 13.69336 c 0.23563,0.562366 0.41406,1.117889 0.41406,1.464844 v 31.349609 c 0,0.822556 -0.64278,1.466797 -1.45703,1.466797 h -36.09375 c -0.81435,0 -1.45703,-0.644183 -1.45703,-1.466797 V 9.4708031 c 0,-0.8225555 0.64277,-1.4667968 1.45703,-1.4667969 z m 2.4707,0.9238281 c 0.38082,0.2545632 0.76637,0.4323997 1.12695,0.8886719 l 0.0176,0.021484 12.62696,12.7343749 c 0.37192,0.371986 0.57527,0.759428 0.82812,1.144532 h -13.16601 c -0.069,0 -0.13496,-0.01057 -0.20118,-0.01953 -0.70854,-0.123275 -1.23241,-0.730184 -1.23242,-1.478515 z m -3.89062,19.4746098 c -4.64668,0 -8.40039,3.753709 -8.40039,8.40039 v 3.59961 h -1 v 7.267578 l 1.125,-1.46875 0.002,-0.002 c 0.4879,-0.654723 2.04613,-1.800369 3.16992,-2.244141 v 0.002 c 0.52915,-0.20868 2.08647,-0.508137 3.80274,-0.695312 h 0.002 c 1.26632,-0.141619 3.16477,-0.157387 4.98242,-0.390625 1.81765,-0.233238 3.58663,-0.660062 4.61328,-1.800782 l 0.10352,-0.113281 v -4.154297 c 0,-4.646681 -3.75371,-8.40039 -8.40039,-8.40039 z m 0,0.800781 c 0.43793,0 0.81534,0.175994 1.23242,0.246094 -0.18383,-0.02332 -0.36977,-0.06558 -0.55274,-0.07617 -2.81663,-0.164498 -5.64611,1.374854 -6.82226,3.884765 -0.3083,0.657694 -0.48766,1.106265 -0.5332,1.44336 -0.006,0.04214 -0.0108,0.08476 -0.006,0.146484 0.005,0.06172 0.002,0.166992 0.13867,0.292969 0.0683,0.06299 0.17951,0.108538 0.26953,0.111328 0.09,0.0028 0.15269,-0.02172 0.19726,-0.04297 0.0891,-0.04249 0.12292,-0.08234 0.15625,-0.117187 0.13336,-0.139373 0.21981,-0.293452 0.36719,-0.56836 0.23691,-0.442575 0.87223,-1.285461 1.33594,-1.751953 1.57267,-1.576425 4.22551,-2.448899 6.10742,-2.076172 0.34053,0.06743 0.58855,0.100613 0.7832,0.103516 0.0973,0.0015 0.17545,0.0059 0.30079,-0.03906 0.0627,-0.02248 0.15755,-0.05994 0.23632,-0.1875 0.0788,-0.127558 0.0638,-0.322479 0.0176,-0.416015 -0.0636,-0.128658 -0.12148,-0.171797 -0.17773,-0.203125 2.66829,1.163868 4.54883,3.735743 4.54883,6.849609 v 3.794922 c -0.79797,0.809244 -2.3197,1.262599 -4.01758,1.480469 -1.7516,0.224762 -3.62603,0.23829 -4.97071,0.388672 -1.74868,0.190799 -3.25931,0.448959 -4.00781,0.74414 -1.1679,0.46119 -2.44752,1.380847 -3.20312,2.220704 v -4.228516 h 1 v -4.400391 c 0,-4.217319 3.38229,-7.599609 7.59961,-7.599609 z m -2.63672,1.691406 c -0.2638,0.135322 -0.50011,0.295604 -0.74805,0.457031 0.24437,-0.166032 0.48157,-0.324309 0.74805,-0.457031 z m 2.63672,1.507813 c -2.43068,0 -4.40039,1.969709 -4.40039,4.40039 v 4.400391 h 8.80078 v -4.400391 c 0,-2.430681 -1.96971,-4.40039 -4.40039,-4.40039 z m 0,0.800781 c 2.00132,0 3.59961,1.59829 3.59961,3.599609 v 3.59961 H 146.901 v -3.59961 c 0,-2.001319 1.59829,-3.599609 3.59961,-3.599609 z m 9.40039,7.908203 -1.72071,1.416016 -0.002,0.002 c -0.55705,0.474989 -1.46478,1.149043 -1.97851,1.46289 -0.51424,0.314204 -1.45708,0.729073 -2.34766,1.050782 -0.89058,0.321708 -1.8004,0.546875 -2.03906,0.546875 -0.18245,0 -0.33533,0.0095 -0.50586,0.08594 -0.0853,0.03824 -0.19442,0.0996 -0.26758,0.248047 -0.0732,0.148448 -0.0406,0.354494 0.0254,0.462891 l 0.002,0.002 c 0.1141,0.183922 0.24209,0.210703 0.34375,0.240234 0.10167,0.02953 0.20266,0.0434 0.31641,0.05274 0.2275,0.01869 0.50529,0.01469 0.83008,-0.0059 0.64957,-0.04103 1.47959,-0.151811 2.33398,-0.324219 0.66182,-0.132363 1.90101,-0.631328 2.94531,-1.160156 h 0.002 l 0.53125,-0.269531 c -1.79904,2.281135 -4.60176,3.586714 -8.58203,3.826172 -0.71376,0.04279 -1.17957,0.09126 -1.47657,0.15625 -0.0743,0.01625 -0.13809,0.03237 -0.20507,0.05859 -0.067,0.02623 -0.14908,0.03442 -0.25391,0.195312 -0.0524,0.08045 -0.0866,0.231525 -0.0527,0.349609 0.0339,0.118084 0.0991,0.182261 0.14649,0.220704 0.0948,0.07689 0.15457,0.08931 0.21875,0.109375 0.25672,0.08026 0.60473,0.115497 1.14453,0.15039 0.5398,0.03489 1.24418,0.05607 2.0957,0.05859 h 0.002 c 2.29823,0.003 2.91634,-0.08197 4.31445,-0.552734 0.0318,-0.01066 0.0507,-0.01493 0.082,-0.02539 -0.43161,0.330571 -0.91001,0.686953 -1.23437,0.851562 -1.75454,0.890481 -2.86633,1.123276 -6.08594,1.269532 -2.30778,0.1054 -3.25646,0.184074 -3.86328,0.519531 -0.0798,0.04383 -0.15027,0.07225 -0.25,0.173828 -0.0499,0.05079 -0.13205,0.139163 -0.13672,0.3125 -0.005,0.173337 0.11979,0.32419 0.20117,0.378906 0.16275,0.109433 0.2526,0.105512 0.39453,0.125 0.14193,0.01949 0.32101,0.03321 0.5586,0.04492 0.95032,0.04684 2.84463,0.05359 6.45703,0.05859 h 8.05664 v -9.060547 -1.267578 z m -0.80078,1.695313 v 0.845703 l -1.625,0.824218 c -0.9897,0.501173 -2.30206,1.002208 -2.74024,1.089844 h -0.002 c -0.0518,0.01046 -0.089,0.0095 -0.14063,0.01953 0.74973,-0.292013 1.52675,-0.60667 2.02344,-0.910156 0.58467,-0.357179 1.47922,-1.024707 2.07617,-1.533203 l 0.006,-0.0039 z m 0,2.496093 v 7.09961 h -7.25586 c -1.79261,-0.0025 -2.1478,-0.01912 -3.18555,-0.02734 3.1212,-0.149939 4.47639,-0.427789 6.27344,-1.339844 0.52268,-0.265251 1.17974,-0.740678 1.71679,-1.183594 0.26853,-0.221457 0.50253,-0.431011 0.67383,-0.613281 0.0857,-0.09114 0.1547,-0.170772 0.21485,-0.269531 0.0301,-0.04938 0.0624,-0.101629 0.082,-0.195313 0.0196,-0.09368 0.009,-0.284406 -0.11719,-0.410156 -6.9e-4,-6.87e-4 -0.0636,-0.05286 -0.0918,-0.06836 -0.0282,-0.0155 -0.0531,-0.02444 -0.0742,-0.03125 -0.0423,-0.01362 -0.0714,-0.01731 -0.0957,-0.01953 -0.0486,-0.0044 -0.0779,-0.0026 -0.10547,0 -0.0551,0.0052 -0.10021,0.0139 -0.15234,0.02539 -0.10426,0.02298 -0.22984,0.05707 -0.38086,0.101563 -0.30204,0.08899 -0.70031,0.21941 -1.13477,0.365234 -0.7846,0.264186 -1.64357,0.230464 -2.33593,0.292969 2.56439,-0.651297 4.5683,-1.893614 5.96875,-3.726563 z"
       transform="translate(-118.4967,-1.0001)" />
  </g>
</svg>
