<?xml version="1.0" encoding="UTF-8" standalone="no"?>
<svg
   width="43.546024"
   height="55.538212"
   version="1.1"
   viewBox="0 0 43.546024 55.538212"
   id="svg3"
   xmlns:xlink="http://www.w3.org/1999/xlink"
   xmlns="http://www.w3.org/2000/svg"
   xmlns:svg="http://www.w3.org/2000/svg">
  <defs
     id="defs3">
    <linearGradient
       id="linearGradient2">
      <stop
         style="stop-color:#00abff;stop-opacity:0;"
         offset="0"
         id="stop3" />
      <stop
         style="stop-color:#00abff;stop-opacity:1;"
         offset="1"
         id="stop2" />
    </linearGradient>
    <linearGradient
       xlink:href="#linearGradient2"
       id="linearGradient3"
       x1="150.26541"
       y1="65.000099"
       x2="150.26541"
       y2="23.840679"
       gradientUnits="userSpaceOnUse" />
    <filter
       style="color-interpolation-filters:sRGB"
       id="filter3"
       x="-0.030947896"
       y="-0.023945386"
       width="1.0618958"
       height="1.0478908">
      <feGaussianBlur
         stdDeviation="0.52879393"
         id="feGaussianBlur3" />
    </filter>
  </defs>
  <g
     id="g3"
     transform="translate(-10.222995,-4.7308946)">
    <path
       id="path1"
       style="display:inline;opacity:0.6;fill:#00abff;fill-opacity:1;stroke:none;filter:url(#filter3)"
       d="m 151.80394,7.0001 -0.004,0.00195 -19.35351,0.00391 c -1.35355,0 -2.45703,1.1084593 -2.45703,2.4648437 V 57.533303 c 0,1.356386 1.10343,2.466797 2.45703,2.466797 h 36.09375 c 1.35354,0 2.45703,-1.110412 2.45703,-2.466797 V 26.183694 c 0,-0.440775 -0.10327,-0.93784 -0.29297,-1.464844 h 0.0606 l -0.35547,-0.722656 c -0.0256,-0.05172 -0.0587,-0.104197 -0.0859,-0.15625 l -0.0605,-0.125 h -0.008 c -0.33862,-0.618179 -0.7885,-1.252822 -1.38476,-1.84961 l -0.002,-0.002 L 156.26488,9.1524437 C 155.67159,8.4151756 155.0115,7.918962 154.36644,7.59385 154.28114,7.550863 154.19507,7.50998 154.11058,7.4727562 l -0.0859,-0.037109 -0.0312,-0.00195 C 153.20882,7.1007523 152.46804,7.0001 151.90941,7.0001 Z m 0.11523,1.0019531 c 0.37972,7.572e-4 0.91296,0.1248404 1.44727,0.3105469 v 13.935547 c 0,1.22231 0.89866,2.235584 2.06641,2.425781 0.12731,0.02382 0.25744,0.03746 0.39062,0.04102 0.0224,5.98e-4 0.0439,0.0039 0.0664,0.0039 h 13.69336 c 0.23563,0.562366 0.41406,1.117889 0.41406,1.464844 v 31.349609 c 0,0.822556 -0.64278,1.466797 -1.45703,1.466797 h -36.09375 c -0.81435,0 -1.45703,-0.644183 -1.45703,-1.466797 V 9.4708031 c 0,-0.8225555 0.64277,-1.4667967 1.45703,-1.4667969 z m 2.47071,0.9238281 c 0.38082,0.2545634 0.76637,0.4323997 1.12695,0.8886719 l 0.0176,0.021484 12.62695,12.7343749 c 0.37192,0.371984 0.57528,0.75943 0.82813,1.144532 h -13.16602 c -0.0687,0 -0.13319,-0.01063 -0.19922,-0.01953 -0.70854,-0.123274 -1.23436,-0.730184 -1.23437,-1.478515 z M 140.97582,28.945412 c -1.75835,0 -3.17383,1.415482 -3.17383,3.173829 v 14.283203 c 0,1.758347 1.41548,3.173828 3.17383,3.173828 h 19.04296 c 1.75835,0 3.17383,-1.415481 3.17383,-3.173828 V 32.119241 c 0,-1.758347 -1.41548,-3.173829 -3.17383,-3.173829 z m 0,1.587891 h 19.04296 c 0.87918,0 1.58789,0.706764 1.58789,1.585938 v 14.283203 l -7.93554,-7.935547 -5.52149,6.347656 -4,-3.173828 -4.76172,4.761719 V 32.119241 c 0,-0.879174 0.70872,-1.585938 1.5879,-1.585938 z m 3.96679,3.173828 c -1.31468,0 -2.38086,1.066177 -2.38086,2.38086 0,1.314682 1.06618,2.378906 2.38086,2.378906 1.31468,0 2.38086,-1.064224 2.38086,-2.378906 0,-1.314683 -1.06618,-2.38086 -2.38086,-2.38086 z m 10.48828,17.972657 c -0.86718,0 -1.54036,0.244791 -2.01953,0.734375 -0.47916,0.489583 -0.71875,1.180989 -0.71875,2.074218 0,0.583334 0.10938,1.091146 0.32813,1.523438 0.22135,0.429687 0.54036,0.759114 0.95703,0.988281 0.41667,0.229167 0.91276,0.34375 1.48828,0.34375 0.49479,0 0.95312,-0.08073 1.375,-0.242187 0.42448,-0.164063 0.78255,-0.394532 1.07422,-0.691407 v -1.898437 h -2.33203 v 0.625 h 1.64453 v 0.992187 c -0.19271,0.1875 -0.44531,0.335938 -0.75781,0.445313 -0.3099,0.109375 -0.64454,0.164062 -1.00391,0.164062 -0.63021,0 -1.1237,-0.20052 -1.48047,-0.601562 -0.35677,-0.403646 -0.53516,-0.953126 -0.53516,-1.648438 0,-0.697916 0.16797,-1.238281 0.50391,-1.621093 0.33594,-0.385417 0.82162,-0.578125 1.45703,-0.578125 0.40886,-1e-6 0.75,0.07161 1.02344,0.214843 0.27604,0.143229 0.49219,0.371094 0.64844,0.683594 l 0.71093,-0.210937 c -0.20572,-0.453126 -0.49869,-0.782553 -0.8789,-0.988282 -0.38021,-0.205729 -0.875,-0.308593 -1.48438,-0.308593 z m -10.87109,0.08203 v 0.609375 h 1.05859 v 3.269531 c 0,0.359375 -0.0781,0.632813 -0.23437,0.820313 -0.15625,0.184896 -0.36979,0.277343 -0.64063,0.277343 -0.24739,0 -0.45312,-0.08463 -0.61718,-0.253906 -0.16407,-0.169271 -0.26954,-0.404948 -0.31641,-0.707031 l -0.73047,0.121094 c 0.17448,0.963541 0.72787,1.445312 1.66016,1.445312 0.5026,0 0.89843,-0.152344 1.1875,-0.457031 0.28906,-0.307292 0.43359,-0.727864 0.43359,-1.261719 v -3.863281 z m 3.05078,0 v 5.503906 h 0.74609 v -2.144531 h 1.61719 c 0.58334,0 1.04427,-0.153646 1.38281,-0.460938 0.34115,-0.307292 0.51172,-0.721354 0.51172,-1.242187 0,-0.526042 -0.16927,-0.933594 -0.50781,-1.222656 -0.33854,-0.289063 -0.81641,-0.433594 -1.43359,-0.433594 z m 0.74609,0.597656 h 1.48047 c 0.85417,0 1.28125,0.355468 1.28125,1.066406 0,0.736979 -0.41666,1.105469 -1.25,1.105469 h -1.51172 z"
       transform="translate(-118.4973,-1.0001)" />
    <path
       id="path2"
       style="fill:url(#linearGradient3);fill-opacity:1;stroke:none"
       d="m 151.80394,7.0001 -0.004,0.00195 -19.35351,0.00391 c -1.35355,0 -2.45703,1.1084593 -2.45703,2.4648437 V 57.533303 c 0,1.356386 1.10343,2.466797 2.45703,2.466797 h 36.09375 c 1.35354,0 2.45703,-1.110412 2.45703,-2.466797 V 26.183694 c 0,-0.440775 -0.10327,-0.93784 -0.29297,-1.464844 h 0.0606 l -0.35547,-0.722656 c -0.0256,-0.05172 -0.0587,-0.104197 -0.0859,-0.15625 l -0.0605,-0.125 h -0.008 c -0.33862,-0.618179 -0.7885,-1.252822 -1.38476,-1.84961 l -0.002,-0.002 L 156.26488,9.1524437 C 155.67159,8.4151756 155.0115,7.918962 154.36644,7.59385 154.28114,7.550863 154.19507,7.50998 154.11058,7.4727562 l -0.0859,-0.037109 -0.0312,-0.00195 C 153.20882,7.1007523 152.46804,7.0001 151.90941,7.0001 Z m 0.11523,1.0019531 c 0.37972,7.572e-4 0.91296,0.1248404 1.44727,0.3105469 v 13.935547 c 0,1.22231 0.89866,2.235584 2.06641,2.425781 0.12731,0.02382 0.25744,0.03746 0.39062,0.04102 0.0224,5.98e-4 0.0439,0.0039 0.0664,0.0039 h 13.69336 c 0.23563,0.562366 0.41406,1.117889 0.41406,1.464844 v 31.349609 c 0,0.822556 -0.64278,1.466797 -1.45703,1.466797 h -36.09375 c -0.81435,0 -1.45703,-0.644183 -1.45703,-1.466797 V 9.4708031 c 0,-0.8225555 0.64277,-1.4667967 1.45703,-1.4667969 z m 2.47071,0.9238281 c 0.38082,0.2545634 0.76637,0.4323997 1.12695,0.8886719 l 0.0176,0.021484 12.62695,12.7343749 c 0.37192,0.371984 0.57528,0.75943 0.82813,1.144532 h -13.16602 c -0.0687,0 -0.13319,-0.01063 -0.19922,-0.01953 -0.70854,-0.123274 -1.23436,-0.730184 -1.23437,-1.478515 z M 140.97582,28.945412 c -1.75835,0 -3.17383,1.415482 -3.17383,3.173829 v 14.283203 c 0,1.758347 1.41548,3.173828 3.17383,3.173828 h 19.04296 c 1.75835,0 3.17383,-1.415481 3.17383,-3.173828 V 32.119241 c 0,-1.758347 -1.41548,-3.173829 -3.17383,-3.173829 z m 0,1.587891 h 19.04296 c 0.87918,0 1.58789,0.706764 1.58789,1.585938 v 14.283203 l -7.93554,-7.935547 -5.52149,6.347656 -4,-3.173828 -4.76172,4.761719 V 32.119241 c 0,-0.879174 0.70872,-1.585938 1.5879,-1.585938 z m 3.96679,3.173828 c -1.31468,0 -2.38086,1.066177 -2.38086,2.38086 0,1.314682 1.06618,2.378906 2.38086,2.378906 1.31468,0 2.38086,-1.064224 2.38086,-2.378906 0,-1.314683 -1.06618,-2.38086 -2.38086,-2.38086 z m 10.48828,17.972657 c -0.86718,0 -1.54036,0.244791 -2.01953,0.734375 -0.47916,0.489583 -0.71875,1.180989 -0.71875,2.074218 0,0.583334 0.10938,1.091146 0.32813,1.523438 0.22135,0.429687 0.54036,0.759114 0.95703,0.988281 0.41667,0.229167 0.91276,0.34375 1.48828,0.34375 0.49479,0 0.95312,-0.08073 1.375,-0.242187 0.42448,-0.164063 0.78255,-0.394532 1.07422,-0.691407 v -1.898437 h -2.33203 v 0.625 h 1.64453 v 0.992187 c -0.19271,0.1875 -0.44531,0.335938 -0.75781,0.445313 -0.3099,0.109375 -0.64454,0.164062 -1.00391,0.164062 -0.63021,0 -1.1237,-0.20052 -1.48047,-0.601562 -0.35677,-0.403646 -0.53516,-0.953126 -0.53516,-1.648438 0,-0.697916 0.16797,-1.238281 0.50391,-1.621093 0.33594,-0.385417 0.82162,-0.578125 1.45703,-0.578125 0.40886,-1e-6 0.75,0.07161 1.02344,0.214843 0.27604,0.143229 0.49219,0.371094 0.64844,0.683594 l 0.71093,-0.210937 c -0.20572,-0.453126 -0.49869,-0.782553 -0.8789,-0.988282 -0.38021,-0.205729 -0.875,-0.308593 -1.48438,-0.308593 z m -10.87109,0.08203 v 0.609375 h 1.05859 v 3.269531 c 0,0.359375 -0.0781,0.632813 -0.23437,0.820313 -0.15625,0.184896 -0.36979,0.277343 -0.64063,0.277343 -0.24739,0 -0.45312,-0.08463 -0.61718,-0.253906 -0.16407,-0.169271 -0.26954,-0.404948 -0.31641,-0.707031 l -0.73047,0.121094 c 0.17448,0.963541 0.72787,1.445312 1.66016,1.445312 0.5026,0 0.89843,-0.152344 1.1875,-0.457031 0.28906,-0.307292 0.43359,-0.727864 0.43359,-1.261719 v -3.863281 z m 3.05078,0 v 5.503906 h 0.74609 v -2.144531 h 1.61719 c 0.58334,0 1.04427,-0.153646 1.38281,-0.460938 0.34115,-0.307292 0.51172,-0.721354 0.51172,-1.242187 0,-0.526042 -0.16927,-0.933594 -0.50781,-1.222656 -0.33854,-0.289063 -0.81641,-0.433594 -1.43359,-0.433594 z m 0.74609,0.597656 h 1.48047 c 0.85417,0 1.28125,0.355468 1.28125,1.066406 0,0.736979 -0.41666,1.105469 -1.25,1.105469 h -1.51172 z"
       transform="translate(-118.4973,-1.0001)" />
  </g>
</svg>
