<?xml version="1.0" encoding="UTF-8" standalone="no"?>
<svg
   width="43.546024"
   height="55.538258"
   version="1.1"
   viewBox="0 0 11.521325 14.694208"
   id="svg3"
   xmlns:xlink="http://www.w3.org/1999/xlink"
   xmlns="http://www.w3.org/2000/svg"
   xmlns:svg="http://www.w3.org/2000/svg">
  <defs
     id="defs3">
    <linearGradient
       id="linearGradient4">
      <stop
         style="stop-color:#00abff;stop-opacity:0;"
         offset="0"
         id="stop5" />
      <stop
         style="stop-color:#00abff;stop-opacity:1;"
         offset="1"
         id="stop4" />
    </linearGradient>
    <linearGradient
       xlink:href="#linearGradient4"
       id="linearGradient5"
       x1="150.26183"
       y1="64.999619"
       x2="150.26183"
       y2="26.275259"
       gradientUnits="userSpaceOnUse" />
    <filter
       style="color-interpolation-filters:sRGB"
       id="filter5"
       x="-0.030947909"
       y="-0.023945376"
       width="1.0618958"
       height="1.0478908">
      <feGaussianBlur
         stdDeviation="0.52879043"
         id="feGaussianBlur5" />
    </filter>
  </defs>
  <g
     id="g5"
     transform="translate(-2.7058125,-1.2516795)">
    <path
       id="path1"
       style="display:inline;opacity:0.6;fill:#00abff;fill-opacity:1;stroke:none;filter:url(#filter5)"
       d="m 151.80425,7.0000331 -0.004,0.00195 -19.35337,0.00391 c -1.35355,0 -2.45702,1.1084419 -2.45702,2.4648263 V 57.532878 c 0,1.356386 1.10342,2.466779 2.45702,2.466779 h 36.09349 c 1.35354,0 2.45701,-1.110394 2.45701,-2.466779 V 26.183491 c 0,-0.440775 -0.10327,-0.93783 -0.29296,-1.464833 h 0.0605 l -0.35546,-0.722652 c -0.0256,-0.05172 -0.0587,-0.104195 -0.0859,-0.156249 l -0.0605,-0.124999 h -0.008 c -0.33862,-0.618178 -0.78849,-1.252808 -1.38475,-1.849596 l -0.002,-0.002 -12.60342,-12.7108474 c -0.59287,-0.7367819 -1.2538,-1.2334398 -1.89843,-1.5585827 -0.0858,-0.043269 -0.17087,-0.083655 -0.25586,-0.1210929 L 154.0247,7.43553 153.9935,7.43358 c -0.78458,-0.3329414 -1.52534,-0.4335906 -2.08397,-0.4335906 z m 0.11523,1.001946 c 0.37972,7.572e-4 0.91295,0.1248382 1.44726,0.3105447 V 22.247972 c 0,1.22231 0.89864,2.235567 2.06639,2.425764 0.12732,0.02382 0.25744,0.03745 0.39062,0.04101 0.0224,5.98e-4 0.0439,0.0039 0.0664,0.0039 h 13.69326 c 0.23564,0.562369 0.41406,1.117876 0.41406,1.464833 v 31.349387 c 0,0.822556 -0.64277,1.466787 -1.45702,1.466787 h -36.09349 c -0.81435,0 -1.45703,-0.644173 -1.45703,-1.466787 V 9.4707187 c 0,-0.8225555 0.64277,-1.4667865 1.45703,-1.4667865 z m 2.47069,0.9238216 c 0.38082,0.2545631 0.76636,0.4323934 1.12694,0.8886656 l 0.0176,0.021484 12.62687,12.7342847 c 0.37192,0.371981 0.57527,0.759425 0.82812,1.144523 h -13.16593 c -0.067,0 -0.13091,-0.01107 -0.19531,-0.01953 -0.71046,-0.121762 -1.23826,-0.728838 -1.23827,-1.478505 z m -2.84178,18.7713513 a 0.50005,0.50005 0 0 0 -0.33398,0.173827 l -11.42765,13.531154 a 0.50005,0.50005 0 0 0 0.30273,0.812494 c 1.33463,0.214038 3.42715,1.225503 5.0195,2.767559 0.43525,0.421502 0.30043,1.113094 0.64257,1.601551 -0.86168,-0.928702 -1.99683,-1.636936 -3.21873,-2.14061 -2.03641,-0.839428 -4.03156,-0.766705 -5.66988,-0.398435 l 12.13663,-14.490131 a 0.50005,0.50005 0 0 0 -0.25781,-0.804682 c -0.35056,-0.08764 -0.69437,-0.11225 -0.99023,-0.111327 -0.24638,8.38e-4 -0.45834,0.01847 -0.61132,0.03711 -0.0765,0.0093 -0.14026,0.02147 -0.18554,0.0293 -0.0226,0.0039 -0.0385,0.0035 -0.0586,0.0078 -0.0101,0.0022 -0.0511,0.01318 -0.0527,0.01367 -4e-4,1.2e-4 -0.0368,0.01551 -0.0371,0.01562 l 0.18554,0.464841 -0.26562,-0.427731 -0.0293,0.02148 c 0,0 -0.0375,0.04944 -0.0742,0.0957 l -0.008,-0.02148 -3.51364,4.029268 c -1.9768,0.110505 -3.90939,0.245101 -5.78707,0.435544 -1.60968,0.164229 -2.88259,1.45311 -3.1074,3.123025 a 0.50005,0.50005 0 0 0 -0.008,0.01563 c -0.28284,2.573745 -0.42188,5.280922 -0.42188,8.076114 0,2.795113 0.13914,5.510084 0.42188,8.111271 a 0.50005,0.50005 0 0 0 0,0.0078 c 0.22055,1.827658 1.5616,2.844874 3.0781,3.123024 a 0.50005,0.50005 0 0 0 0.008,0 c 1.97064,0.31877 4.37075,0.342611 6.36324,-0.435544 1.96629,-0.767926 3.49466,-2.455415 3.53513,-5.189416 -0.003,0.256369 0.31351,0.40772 0.27344,0.67187 a 0.50005,0.50005 0 0 0 0.95311,0.265623 c 0.0184,-0.04407 -0.0327,-0.08855 -0.0156,-0.132811 l 0.0527,0.01563 c 0.11895,-0.784035 -0.15747,-1.460696 -0.29687,-2.177719 -0.0324,-1.314226 0.21295,-2.661787 -0.43554,-3.847629 -0.93947,-1.718089 -2.33907,-3.076771 -3.66013,-4.058565 l 9.69133,-11.57609 a 0.50005,0.50005 0 0 0 -0.0879,-0.722651 c -0.51574,-0.379735 -1.04105,-0.591574 -1.74998,-0.804682 a 0.50005,0.50005 0 0 0 -0.35938,-0.107421 z m -4.54879,1.007805 h 0.0215 l 0.0371,0.0078 h 0.0293 l 0.16992,0.07227 c 0,0 0.007,0.02864 0.008,0.03125 a 0.50005,0.50005 0 0 0 -0.26562,-0.111328 z m 4.73824,0.0957 c 0.33133,0.104286 0.59622,0.251028 0.82812,0.384763 l -9.55266,11.404216 a 0.50005,0.50005 0 0 0 0.10937,0.730463 c 0.90378,0.605583 1.76779,1.800597 2.61326,2.908183 -1.51726,-1.446504 -3.28557,-2.236138 -4.80465,-2.634747 z m -4.33981,0.642573 a 0.50005,0.50005 0 0 0 0.0137,0.0078 c -0.009,0.01145 -0.0173,0.0141 -0.0293,0.0293 a 0.50005,0.50005 0 0 0 0.0156,-0.03711 z m 0.2207,0.199218 -12.09952,14.453022 a 0.50005,0.50005 0 0 0 0.60546,0.767573 c 1.10967,-0.543476 3.77123,-0.427217 6.02535,0.50195 1.12706,0.464585 2.1601,1.116446 2.89256,1.912095 0.73246,0.79565 1.16601,1.715492 1.16601,2.806621 0,2.448182 -1.19581,3.673527 -2.92186,4.347626 -1.72604,0.674096 -3.99382,0.675563 -5.8398,0.37695 -1.22516,-0.227644 -2.07819,-0.833156 -2.25194,-2.251937 v -0.0078 c -0.27801,-2.56014 -0.41992,-5.23516 -0.41992,-7.994084 0,-2.756444 0.14251,-5.429276 0.41992,-7.958928 0.16812,-1.248748 1.08208,-2.149242 2.22264,-2.265608 1.92621,-0.195366 3.9056,-0.331381 5.94918,-0.443357 a 0.50005,0.50005 0 0 0 0.35547,-0.16992 l 3.5195,-4.044894 c 0.006,-7.98e-4 0.009,8.05e-4 0.0156,0 0.0881,-0.01073 0.22684,-0.02389 0.36132,-0.0293 z m 10.9843,3.298804 a 0.50005,0.50005 0 0 0 -0.52343,0.50195 l 0.0449,-0.205077 c 0,0 -7.13916,15.862492 -7.86323,17.517454 -1.02537,2.343447 -2.39246,3.954707 -4.31051,4.517546 a 0.50005,0.50005 0 0 0 0.11914,0.980462 c 1.85803,0.08447 3.75349,0.136915 5.63863,0.111328 3.97761,-0.05405 8.18932,-0.193403 11.94523,-0.560543 1.61533,-0.164865 2.91242,-1.481336 3.1074,-3.13865 0.31185,-2.604925 0.45702,-5.316139 0.45702,-8.111271 0,-2.795063 -0.14508,-5.506285 -0.45702,-8.083927 -0.19413,-1.6824 -1.49842,-2.966634 -3.1074,-3.130837 -1.63447,-0.169082 -3.32733,-0.313674 -5.05075,-0.398435 z m 0.28906,1.027337 c 1.58195,0.08495 3.14749,0.205048 4.65817,0.361326 1.14126,0.116467 2.07805,1.021597 2.22069,2.257796 0.30618,2.530076 0.44335,5.20522 0.44335,7.96674 0,2.761596 -0.13703,5.435354 -0.44335,7.994084 -0.14177,1.205186 -1.08661,2.144012 -2.22069,2.25975 -3.70876,0.362537 -7.89211,0.506703 -11.85538,0.560543 -1.50576,0.02041 -3.01963,-0.03852 -4.52536,-0.0957 1.64241,-0.90703 3.12408,-2.09945 4.00778,-4.119111 0.68445,-1.564387 7.46488,-16.629815 7.71479,-17.185425 z m -12.94131,10.496019 c 0.27657,0.383404 0.66145,0.570506 0.88671,0.982415 0.0555,0.10152 -0.0165,0.208043 0.0351,0.310545 -0.3128,-0.432739 -0.55077,-0.917754 -0.92186,-1.29296 z"
       transform="matrix(0.26458,0,0,0.26458,-31.351127,-0.26460001)" />
    <path
       id="path4"
       style="fill:url(#linearGradient5);fill-opacity:1;stroke:none"
       d="m 151.80425,7.0000331 -0.004,0.00195 -19.35337,0.00391 c -1.35355,0 -2.45702,1.1084419 -2.45702,2.4648263 V 57.532878 c 0,1.356386 1.10342,2.466779 2.45702,2.466779 h 36.09349 c 1.35354,0 2.45701,-1.110394 2.45701,-2.466779 V 26.183491 c 0,-0.440775 -0.10327,-0.93783 -0.29296,-1.464833 h 0.0605 l -0.35546,-0.722652 c -0.0256,-0.05172 -0.0587,-0.104195 -0.0859,-0.156249 l -0.0605,-0.124999 h -0.008 c -0.33862,-0.618178 -0.78849,-1.252808 -1.38475,-1.849596 l -0.002,-0.002 -12.60342,-12.7108474 c -0.59287,-0.7367819 -1.2538,-1.2334398 -1.89843,-1.5585827 -0.0858,-0.043269 -0.17087,-0.083655 -0.25586,-0.1210929 L 154.0247,7.43553 153.9935,7.43358 c -0.78458,-0.3329414 -1.52534,-0.4335906 -2.08397,-0.4335906 z m 0.11523,1.001946 c 0.37972,7.572e-4 0.91295,0.1248382 1.44726,0.3105447 V 22.247972 c 0,1.22231 0.89864,2.235567 2.06639,2.425764 0.12732,0.02382 0.25744,0.03745 0.39062,0.04101 0.0224,5.98e-4 0.0439,0.0039 0.0664,0.0039 h 13.69326 c 0.23564,0.562369 0.41406,1.117876 0.41406,1.464833 v 31.349387 c 0,0.822556 -0.64277,1.466787 -1.45702,1.466787 h -36.09349 c -0.81435,0 -1.45703,-0.644173 -1.45703,-1.466787 V 9.4707187 c 0,-0.8225555 0.64277,-1.4667865 1.45703,-1.4667865 z m 2.47069,0.9238216 c 0.38082,0.2545631 0.76636,0.4323934 1.12694,0.8886656 l 0.0176,0.021484 12.62687,12.7342847 c 0.37192,0.371981 0.57527,0.759425 0.82812,1.144523 h -13.16593 c -0.067,0 -0.13091,-0.01107 -0.19531,-0.01953 -0.71046,-0.121762 -1.23826,-0.728838 -1.23827,-1.478505 z m -2.84178,18.7713513 a 0.50005,0.50005 0 0 0 -0.33398,0.173827 l -11.42765,13.531154 a 0.50005,0.50005 0 0 0 0.30273,0.812494 c 1.33463,0.214038 3.42715,1.225503 5.0195,2.767559 0.43525,0.421502 0.30043,1.113094 0.64257,1.601551 -0.86168,-0.928702 -1.99683,-1.636936 -3.21873,-2.14061 -2.03641,-0.839428 -4.03156,-0.766705 -5.66988,-0.398435 l 12.13663,-14.490131 a 0.50005,0.50005 0 0 0 -0.25781,-0.804682 c -0.35056,-0.08764 -0.69437,-0.11225 -0.99023,-0.111327 -0.24638,8.38e-4 -0.45834,0.01847 -0.61132,0.03711 -0.0765,0.0093 -0.14026,0.02147 -0.18554,0.0293 -0.0226,0.0039 -0.0385,0.0035 -0.0586,0.0078 -0.0101,0.0022 -0.0511,0.01318 -0.0527,0.01367 -4e-4,1.2e-4 -0.0368,0.01551 -0.0371,0.01562 l 0.18554,0.464841 -0.26562,-0.427731 -0.0293,0.02148 c 0,0 -0.0375,0.04944 -0.0742,0.0957 l -0.008,-0.02148 -3.51364,4.029268 c -1.9768,0.110505 -3.90939,0.245101 -5.78707,0.435544 -1.60968,0.164229 -2.88259,1.45311 -3.1074,3.123025 a 0.50005,0.50005 0 0 0 -0.008,0.01563 c -0.28284,2.573745 -0.42188,5.280922 -0.42188,8.076114 0,2.795113 0.13914,5.510084 0.42188,8.111271 a 0.50005,0.50005 0 0 0 0,0.0078 c 0.22055,1.827658 1.5616,2.844874 3.0781,3.123024 a 0.50005,0.50005 0 0 0 0.008,0 c 1.97064,0.31877 4.37075,0.342611 6.36324,-0.435544 1.96629,-0.767926 3.49466,-2.455415 3.53513,-5.189416 -0.003,0.256369 0.31351,0.40772 0.27344,0.67187 a 0.50005,0.50005 0 0 0 0.95311,0.265623 c 0.0184,-0.04407 -0.0327,-0.08855 -0.0156,-0.132811 l 0.0527,0.01563 c 0.11895,-0.784035 -0.15747,-1.460696 -0.29687,-2.177719 -0.0324,-1.314226 0.21295,-2.661787 -0.43554,-3.847629 -0.93947,-1.718089 -2.33907,-3.076771 -3.66013,-4.058565 l 9.69133,-11.57609 a 0.50005,0.50005 0 0 0 -0.0879,-0.722651 c -0.51574,-0.379735 -1.04105,-0.591574 -1.74998,-0.804682 a 0.50005,0.50005 0 0 0 -0.35938,-0.107421 z m -4.54879,1.007805 h 0.0215 l 0.0371,0.0078 h 0.0293 l 0.16992,0.07227 c 0,0 0.007,0.02864 0.008,0.03125 a 0.50005,0.50005 0 0 0 -0.26562,-0.111328 z m 4.73824,0.0957 c 0.33133,0.104286 0.59622,0.251028 0.82812,0.384763 l -9.55266,11.404216 a 0.50005,0.50005 0 0 0 0.10937,0.730463 c 0.90378,0.605583 1.76779,1.800597 2.61326,2.908183 -1.51726,-1.446504 -3.28557,-2.236138 -4.80465,-2.634747 z m -4.33981,0.642573 a 0.50005,0.50005 0 0 0 0.0137,0.0078 c -0.009,0.01145 -0.0173,0.0141 -0.0293,0.0293 a 0.50005,0.50005 0 0 0 0.0156,-0.03711 z m 0.2207,0.199218 -12.09952,14.453022 a 0.50005,0.50005 0 0 0 0.60546,0.767573 c 1.10967,-0.543476 3.77123,-0.427217 6.02535,0.50195 1.12706,0.464585 2.1601,1.116446 2.89256,1.912095 0.73246,0.79565 1.16601,1.715492 1.16601,2.806621 0,2.448182 -1.19581,3.673527 -2.92186,4.347626 -1.72604,0.674096 -3.99382,0.675563 -5.8398,0.37695 -1.22516,-0.227644 -2.07819,-0.833156 -2.25194,-2.251937 v -0.0078 c -0.27801,-2.56014 -0.41992,-5.23516 -0.41992,-7.994084 0,-2.756444 0.14251,-5.429276 0.41992,-7.958928 0.16812,-1.248748 1.08208,-2.149242 2.22264,-2.265608 1.92621,-0.195366 3.9056,-0.331381 5.94918,-0.443357 a 0.50005,0.50005 0 0 0 0.35547,-0.16992 l 3.5195,-4.044894 c 0.006,-7.98e-4 0.009,8.05e-4 0.0156,0 0.0881,-0.01073 0.22684,-0.02389 0.36132,-0.0293 z m 10.9843,3.298804 a 0.50005,0.50005 0 0 0 -0.52343,0.50195 l 0.0449,-0.205077 c 0,0 -7.13916,15.862492 -7.86323,17.517454 -1.02537,2.343447 -2.39246,3.954707 -4.31051,4.517546 a 0.50005,0.50005 0 0 0 0.11914,0.980462 c 1.85803,0.08447 3.75349,0.136915 5.63863,0.111328 3.97761,-0.05405 8.18932,-0.193403 11.94523,-0.560543 1.61533,-0.164865 2.91242,-1.481336 3.1074,-3.13865 0.31185,-2.604925 0.45702,-5.316139 0.45702,-8.111271 0,-2.795063 -0.14508,-5.506285 -0.45702,-8.083927 -0.19413,-1.6824 -1.49842,-2.966634 -3.1074,-3.130837 -1.63447,-0.169082 -3.32733,-0.313674 -5.05075,-0.398435 z m 0.28906,1.027337 c 1.58195,0.08495 3.14749,0.205048 4.65817,0.361326 1.14126,0.116467 2.07805,1.021597 2.22069,2.257796 0.30618,2.530076 0.44335,5.20522 0.44335,7.96674 0,2.761596 -0.13703,5.435354 -0.44335,7.994084 -0.14177,1.205186 -1.08661,2.144012 -2.22069,2.25975 -3.70876,0.362537 -7.89211,0.506703 -11.85538,0.560543 -1.50576,0.02041 -3.01963,-0.03852 -4.52536,-0.0957 1.64241,-0.90703 3.12408,-2.09945 4.00778,-4.119111 0.68445,-1.564387 7.46488,-16.629815 7.71479,-17.185425 z m -12.94131,10.496019 c 0.27657,0.383404 0.66145,0.570506 0.88671,0.982415 0.0555,0.10152 -0.0165,0.208043 0.0351,0.310545 -0.3128,-0.432739 -0.55077,-0.917754 -0.92186,-1.29296 z"
       transform="matrix(0.26458,0,0,0.26458,-31.351127,-0.26460001)" />
  </g>
</svg>
