<?xml version="1.0" encoding="UTF-8" standalone="no"?>
<svg
   width="43.546036"
   height="55.538212"
   version="1.1"
   viewBox="0 0 11.521328 14.694196"
   id="svg3"
   xmlns:xlink="http://www.w3.org/1999/xlink"
   xmlns="http://www.w3.org/2000/svg"
   xmlns:svg="http://www.w3.org/2000/svg">
  <defs
     id="defs3">
    <linearGradient
       id="linearGradient4">
      <stop
         style="stop-color:#00abff;stop-opacity:0;"
         offset="0"
         id="stop5" />
      <stop
         style="stop-color:#00abff;stop-opacity:1;"
         offset="1"
         id="stop4" />
    </linearGradient>
    <linearGradient
       xlink:href="#linearGradient4"
       id="linearGradient5"
       x1="150.02946"
       y1="64.999619"
       x2="150.02946"
       y2="26.391199"
       gradientUnits="userSpaceOnUse" />
    <filter
       style="color-interpolation-filters:sRGB"
       id="filter5"
       x="-0.030947891"
       y="-0.023945388"
       width="1.0618958"
       height="1.0478908">
      <feGaussianBlur
         stdDeviation="0.52879024"
         id="feGaussianBlur5" />
    </filter>
  </defs>
  <g
     id="g5"
     transform="translate(-2.70581,-1.2516912)">
    <path
       id="path1"
       style="display:inline;opacity:0.6;fill:#00abff;fill-opacity:1;stroke:none;filter:url(#filter5)"
       d="m 151.80377,7.0000331 -0.004,0.00195 -19.35338,0.00391 c -1.35355,0 -2.45702,1.1084419 -2.45702,2.4648263 V 57.532878 c 0,1.356386 1.10342,2.466779 2.45702,2.466779 h 36.09349 c 1.35354,0 2.45702,-1.110394 2.45702,-2.466779 V 26.183491 c 0,-0.440775 -0.10327,-0.93783 -0.29297,-1.464833 h 0.0625 l -0.35547,-0.722652 c -0.0312,-0.06312 -0.0698,-0.127807 -0.10351,-0.191405 l -0.0449,-0.08984 h -0.006 c -0.33862,-0.618178 -0.7885,-1.252808 -1.38476,-1.849596 l -0.002,-0.002 L 156.26468,9.1523616 C 155.59294,8.3176108 154.83392,7.7914336 154.1104,7.472686 l -0.0859,-0.037109 -0.0312,-0.00195 c -0.78449,-0.3328652 -1.52539,-0.4335906 -2.08397,-0.4335906 z m 0.11524,1.001946 c 0.37972,7.572e-4 0.91294,0.1248382 1.44725,0.3105447 V 22.247972 c 0,1.22231 0.89864,2.235567 2.06639,2.425764 0.1487,0.02782 0.30051,0.04492 0.45703,0.04492 h 13.69522 c 0.23563,0.562368 0.41406,1.117877 0.41406,1.464833 v 31.349387 c 0,0.822556 -0.64278,1.466787 -1.45703,1.466787 h -36.09544 c -0.81435,0 -1.45702,-0.644173 -1.45702,-1.466787 V 9.4707187 c 0,-0.8225555 0.64276,-1.4667865 1.45702,-1.4667865 z m 2.47068,0.9238216 c 0.38082,0.2545631 0.76637,0.4323934 1.12695,0.8886656 l 0.0176,0.021484 12.62882,12.7342847 c 0.37192,0.371983 0.57527,0.759423 0.82812,1.144523 H 155.8233 c -0.0687,0 -0.13319,-0.01063 -0.19921,-0.01953 -0.70854,-0.123275 -1.23436,-0.730174 -1.23437,-1.478505 z M 144.05773,29.88659 c -1.81342,0 -3.54667,0.03272 -4.73239,0.08789 -0.17748,0 -0.30855,0.03752 -0.46484,0.111327 -0.0781,0.03689 -0.16587,0.0829 -0.25195,0.169921 -0.0861,0.08702 -0.18359,0.242671 -0.18359,0.441403 v 19.702985 c 0,0.156588 0.0447,0.379572 0.21484,0.539059 0.17014,0.159498 0.37199,0.185545 0.50781,0.185545 h 2.80662 c 0.15661,0 0.37176,-0.04469 0.53125,-0.214842 0.15949,-0.170156 0.18359,-0.373943 0.18359,-0.509762 v -6.525344 c 0.25843,0.01096 0.46585,0.02148 0.92968,0.02148 2.15195,0 4.14698,-0.514987 5.62496,-1.689441 1.47799,-1.174454 2.39256,-3.013715 2.39256,-5.462852 0,-1.879879 -0.53008,-3.616522 -1.77147,-4.873012 -1.24139,-1.256646 -3.15649,-1.984361 -5.78707,-1.984361 z m 0,0.996086 c 2.44766,0 4.05986,0.658827 5.07809,1.689441 1.01823,1.030615 1.48437,2.476587 1.48437,4.171846 0,2.207675 -0.77116,3.690774 -2.01561,4.679654 -1.24446,0.988877 -3.01465,1.476552 -5.00583,1.476552 -0.67911,0 -0.91193,-0.03711 -1.43163,-0.03711 h -0.49414 v 7.255808 h -2.24412 V 30.970566 c 1.16009,-0.05299 2.84881,-0.08789 4.62887,-0.08789 z m -0.11132,1.912096 c -0.74998,0 -1.45506,0.04015 -1.7871,0.05859 l -0.4707,0.0293 v 8.001897 l 0.45703,0.04492 c 0.44408,0.03863 0.79402,0.03711 1.52733,0.03711 1.1309,0 2.27233,-0.189323 3.17381,-0.833978 0.90147,-0.644786 1.48436,-1.75725 1.48436,-3.330055 0,-1.26784 -0.40976,-2.31552 -1.1953,-3.003885 -0.78554,-0.688365 -1.89013,-1.003899 -3.18943,-1.003899 z m 0,1.003899 c 1.1389,0 1.98305,0.271584 2.53123,0.751948 0.54817,0.480365 0.85741,1.191446 0.85741,2.251937 0,1.342192 -0.42718,2.05765 -1.0703,2.517561 -0.64312,0.459906 -1.57769,0.650386 -2.59178,0.650386 -0.50012,0 -0.7118,-0.0121 -0.98046,-0.02344 V 33.83578 c 0.36323,-0.01739 0.73326,-0.03711 1.2539,-0.03711 z m 14.01162,1.195304 c -3.41223,0 -5.56637,2.202118 -5.56637,4.828091 0,1.139757 0.31551,2.12972 0.98241,2.953104 0.6669,0.823388 1.65153,1.478998 2.98826,2.119126 0.88924,0.459369 1.42407,0.829038 1.6914,1.105461 0.26948,0.278668 0.30273,0.419057 0.30273,0.642573 0,0.290272 -0.0782,0.467458 -0.28906,0.628902 -0.2109,0.161426 -0.61498,0.302732 -1.26952,0.302732 -1.11398,0 -2.3328,-0.303747 -3.39451,-0.990227 l -0.0156,-0.0078 c -0.0719,-0.04993 -0.15449,-0.09542 -0.27344,-0.117186 -0.12554,-0.02306 -0.29492,-0.006 -0.42773,0.08008 -0.26563,0.171858 -0.29492,0.422662 -0.29492,0.597652 v 2.695294 c 0,0.09423 -0.003,0.223972 0.0664,0.384763 0.0663,0.154509 0.22514,0.285896 0.36914,0.353513 0.91745,0.524204 2.32201,0.849603 3.97068,0.849603 1.59931,0 3.0326,-0.419684 4.082,-1.271475 1.04939,-0.851788 1.68358,-2.148416 1.68358,-3.742161 0,-1.057231 -0.25948,-2.018723 -0.91405,-2.863261 -0.65182,-0.840997 -1.66361,-1.561259 -3.13084,-2.273422 l -0.0156,-0.0078 c -0.94028,-0.489145 -1.4833,-0.850305 -1.73436,-1.099602 -0.25308,-0.251304 -0.25781,-0.329497 -0.25781,-0.576167 0,-0.16615 0.0563,-0.352982 0.25,-0.517575 0.19374,-0.1646 0.55748,-0.324216 1.19726,-0.324216 1.10444,0 2.22015,0.309137 2.91599,0.751948 l 0.0586,0.03711 0.0664,0.01563 c 0.1869,0.05605 0.44671,0.06492 0.65039,-0.08789 0.20368,-0.152771 0.27148,-0.390867 0.27148,-0.568356 v -2.51756 c 0,-0.223554 -0.10169,-0.592159 -0.41992,-0.79101 l -0.0293,-0.01367 -0.0293,-0.01563 c -0.71391,-0.324417 -1.85732,-0.560543 -3.48435,-0.560543 z m 0,1.003899 c 1.47137,0 2.44213,0.232839 2.95896,0.451169 v 2.074204 c -0.86506,-0.434652 -1.86292,-0.775385 -2.95896,-0.775385 h -0.082 l -0.0117,0.0039 c -0.76154,0.01576 -1.34481,0.217367 -1.74413,0.556637 -0.41585,0.353311 -0.60547,0.838481 -0.60547,1.277335 0,0.41333 0.15498,0.890185 0.55273,1.285147 0.39776,0.394962 0.99744,0.770101 1.98632,1.283194 l 0.008,0.0078 h 0.008 c 1.401,0.678203 2.27487,1.330717 2.78905,1.994127 0.51417,0.663406 0.70116,1.345388 0.70116,2.249984 0,1.339583 -0.48148,2.298958 -1.30663,2.968729 -0.82515,0.669771 -2.02751,1.041008 -3.4531,1.041008 -1.48095,0 -2.72622,-0.325801 -3.40427,-0.695308 v -2.146469 c 1.10628,0.588488 2.28533,1.003899 3.40427,1.003899 0.79379,0 1.4213,-0.162472 1.87499,-0.509762 0.45369,-0.347305 0.67773,-0.891048 0.67773,-1.425771 0,-0.436473 -0.17778,-0.917929 -0.58203,-1.335928 -0.40425,-0.417994 -1.01561,-0.817932 -1.96483,-1.306631 l -0.008,-0.0078 c -1.26674,-0.606523 -2.12561,-1.20365 -2.65037,-1.851549 -0.52477,-0.647899 -0.75195,-1.349585 -0.75195,-2.318343 0,-2.104012 1.55781,-3.824192 4.56247,-3.824192 z m 3.3281,2.599591 0.12695,0.05078 c -0.0433,-0.02752 -0.11931,-0.01858 -0.16406,-0.04492 0.006,6.17e-4 0.0363,-0.006 0.0371,-0.0059 z"
       transform="matrix(0.26458,0,0,0.26458,-31.351,-0.26460001)" />
    <path
       id="path4"
       style="fill:url(#linearGradient5);fill-opacity:1;stroke:none"
       d="m 151.80377,7.0000331 -0.004,0.00195 -19.35338,0.00391 c -1.35355,0 -2.45702,1.1084419 -2.45702,2.4648263 V 57.532878 c 0,1.356386 1.10342,2.466779 2.45702,2.466779 h 36.09349 c 1.35354,0 2.45702,-1.110394 2.45702,-2.466779 V 26.183491 c 0,-0.440775 -0.10327,-0.93783 -0.29297,-1.464833 h 0.0625 l -0.35547,-0.722652 c -0.0312,-0.06312 -0.0698,-0.127807 -0.10351,-0.191405 l -0.0449,-0.08984 h -0.006 c -0.33862,-0.618178 -0.7885,-1.252808 -1.38476,-1.849596 l -0.002,-0.002 L 156.26468,9.1523616 C 155.59294,8.3176108 154.83392,7.7914336 154.1104,7.472686 l -0.0859,-0.037109 -0.0312,-0.00195 c -0.78449,-0.3328652 -1.52539,-0.4335906 -2.08397,-0.4335906 z m 0.11524,1.001946 c 0.37972,7.572e-4 0.91294,0.1248382 1.44725,0.3105447 V 22.247972 c 0,1.22231 0.89864,2.235567 2.06639,2.425764 0.1487,0.02782 0.30051,0.04492 0.45703,0.04492 h 13.69522 c 0.23563,0.562368 0.41406,1.117877 0.41406,1.464833 v 31.349387 c 0,0.822556 -0.64278,1.466787 -1.45703,1.466787 h -36.09544 c -0.81435,0 -1.45702,-0.644173 -1.45702,-1.466787 V 9.4707187 c 0,-0.8225555 0.64276,-1.4667865 1.45702,-1.4667865 z m 2.47068,0.9238216 c 0.38082,0.2545631 0.76637,0.4323934 1.12695,0.8886656 l 0.0176,0.021484 12.62882,12.7342847 c 0.37192,0.371983 0.57527,0.759423 0.82812,1.144523 H 155.8233 c -0.0687,0 -0.13319,-0.01063 -0.19921,-0.01953 -0.70854,-0.123275 -1.23436,-0.730174 -1.23437,-1.478505 z M 144.05773,29.88659 c -1.81342,0 -3.54667,0.03272 -4.73239,0.08789 -0.17748,0 -0.30855,0.03752 -0.46484,0.111327 -0.0781,0.03689 -0.16587,0.0829 -0.25195,0.169921 -0.0861,0.08702 -0.18359,0.242671 -0.18359,0.441403 v 19.702985 c 0,0.156588 0.0447,0.379572 0.21484,0.539059 0.17014,0.159498 0.37199,0.185545 0.50781,0.185545 h 2.80662 c 0.15661,0 0.37176,-0.04469 0.53125,-0.214842 0.15949,-0.170156 0.18359,-0.373943 0.18359,-0.509762 v -6.525344 c 0.25843,0.01096 0.46585,0.02148 0.92968,0.02148 2.15195,0 4.14698,-0.514987 5.62496,-1.689441 1.47799,-1.174454 2.39256,-3.013715 2.39256,-5.462852 0,-1.879879 -0.53008,-3.616522 -1.77147,-4.873012 -1.24139,-1.256646 -3.15649,-1.984361 -5.78707,-1.984361 z m 0,0.996086 c 2.44766,0 4.05986,0.658827 5.07809,1.689441 1.01823,1.030615 1.48437,2.476587 1.48437,4.171846 0,2.207675 -0.77116,3.690774 -2.01561,4.679654 -1.24446,0.988877 -3.01465,1.476552 -5.00583,1.476552 -0.67911,0 -0.91193,-0.03711 -1.43163,-0.03711 h -0.49414 v 7.255808 h -2.24412 V 30.970566 c 1.16009,-0.05299 2.84881,-0.08789 4.62887,-0.08789 z m -0.11132,1.912096 c -0.74998,0 -1.45506,0.04015 -1.7871,0.05859 l -0.4707,0.0293 v 8.001897 l 0.45703,0.04492 c 0.44408,0.03863 0.79402,0.03711 1.52733,0.03711 1.1309,0 2.27233,-0.189323 3.17381,-0.833978 0.90147,-0.644786 1.48436,-1.75725 1.48436,-3.330055 0,-1.26784 -0.40976,-2.31552 -1.1953,-3.003885 -0.78554,-0.688365 -1.89013,-1.003899 -3.18943,-1.003899 z m 0,1.003899 c 1.1389,0 1.98305,0.271584 2.53123,0.751948 0.54817,0.480365 0.85741,1.191446 0.85741,2.251937 0,1.342192 -0.42718,2.05765 -1.0703,2.517561 -0.64312,0.459906 -1.57769,0.650386 -2.59178,0.650386 -0.50012,0 -0.7118,-0.0121 -0.98046,-0.02344 V 33.83578 c 0.36323,-0.01739 0.73326,-0.03711 1.2539,-0.03711 z m 14.01162,1.195304 c -3.41223,0 -5.56637,2.202118 -5.56637,4.828091 0,1.139757 0.31551,2.12972 0.98241,2.953104 0.6669,0.823388 1.65153,1.478998 2.98826,2.119126 0.88924,0.459369 1.42407,0.829038 1.6914,1.105461 0.26948,0.278668 0.30273,0.419057 0.30273,0.642573 0,0.290272 -0.0782,0.467458 -0.28906,0.628902 -0.2109,0.161426 -0.61498,0.302732 -1.26952,0.302732 -1.11398,0 -2.3328,-0.303747 -3.39451,-0.990227 l -0.0156,-0.0078 c -0.0719,-0.04993 -0.15449,-0.09542 -0.27344,-0.117186 -0.12554,-0.02306 -0.29492,-0.006 -0.42773,0.08008 -0.26563,0.171858 -0.29492,0.422662 -0.29492,0.597652 v 2.695294 c 0,0.09423 -0.003,0.223972 0.0664,0.384763 0.0663,0.154509 0.22514,0.285896 0.36914,0.353513 0.91745,0.524204 2.32201,0.849603 3.97068,0.849603 1.59931,0 3.0326,-0.419684 4.082,-1.271475 1.04939,-0.851788 1.68358,-2.148416 1.68358,-3.742161 0,-1.057231 -0.25948,-2.018723 -0.91405,-2.863261 -0.65182,-0.840997 -1.66361,-1.561259 -3.13084,-2.273422 l -0.0156,-0.0078 c -0.94028,-0.489145 -1.4833,-0.850305 -1.73436,-1.099602 -0.25308,-0.251304 -0.25781,-0.329497 -0.25781,-0.576167 0,-0.16615 0.0563,-0.352982 0.25,-0.517575 0.19374,-0.1646 0.55748,-0.324216 1.19726,-0.324216 1.10444,0 2.22015,0.309137 2.91599,0.751948 l 0.0586,0.03711 0.0664,0.01563 c 0.1869,0.05605 0.44671,0.06492 0.65039,-0.08789 0.20368,-0.152771 0.27148,-0.390867 0.27148,-0.568356 v -2.51756 c 0,-0.223554 -0.10169,-0.592159 -0.41992,-0.79101 l -0.0293,-0.01367 -0.0293,-0.01563 c -0.71391,-0.324417 -1.85732,-0.560543 -3.48435,-0.560543 z m 0,1.003899 c 1.47137,0 2.44213,0.232839 2.95896,0.451169 v 2.074204 c -0.86506,-0.434652 -1.86292,-0.775385 -2.95896,-0.775385 h -0.082 l -0.0117,0.0039 c -0.76154,0.01576 -1.34481,0.217367 -1.74413,0.556637 -0.41585,0.353311 -0.60547,0.838481 -0.60547,1.277335 0,0.41333 0.15498,0.890185 0.55273,1.285147 0.39776,0.394962 0.99744,0.770101 1.98632,1.283194 l 0.008,0.0078 h 0.008 c 1.401,0.678203 2.27487,1.330717 2.78905,1.994127 0.51417,0.663406 0.70116,1.345388 0.70116,2.249984 0,1.339583 -0.48148,2.298958 -1.30663,2.968729 -0.82515,0.669771 -2.02751,1.041008 -3.4531,1.041008 -1.48095,0 -2.72622,-0.325801 -3.40427,-0.695308 v -2.146469 c 1.10628,0.588488 2.28533,1.003899 3.40427,1.003899 0.79379,0 1.4213,-0.162472 1.87499,-0.509762 0.45369,-0.347305 0.67773,-0.891048 0.67773,-1.425771 0,-0.436473 -0.17778,-0.917929 -0.58203,-1.335928 -0.40425,-0.417994 -1.01561,-0.817932 -1.96483,-1.306631 l -0.008,-0.0078 c -1.26674,-0.606523 -2.12561,-1.20365 -2.65037,-1.851549 -0.52477,-0.647899 -0.75195,-1.349585 -0.75195,-2.318343 0,-2.104012 1.55781,-3.824192 4.56247,-3.824192 z m 3.3281,2.599591 0.12695,0.05078 c -0.0433,-0.02752 -0.11931,-0.01858 -0.16406,-0.04492 0.006,6.17e-4 0.0363,-0.006 0.0371,-0.0059 z"
       transform="matrix(0.26458,0,0,0.26458,-31.351,-0.26460001)" />
  </g>
</svg>
