<?xml version="1.0" encoding="UTF-8" standalone="no"?>
<svg
   width="43.546024"
   height="55.538212"
   version="1.1"
   viewBox="0 0 11.521325 14.694196"
   id="svg3"
   xmlns:xlink="http://www.w3.org/1999/xlink"
   xmlns="http://www.w3.org/2000/svg"
   xmlns:svg="http://www.w3.org/2000/svg">
  <defs
     id="defs3">
    <linearGradient
       id="linearGradient4">
      <stop
         style="stop-color:#00abff;stop-opacity:0;"
         offset="0"
         id="stop5" />
      <stop
         style="stop-color:#00abff;stop-opacity:1;"
         offset="1"
         id="stop4" />
    </linearGradient>
    <linearGradient
       xlink:href="#linearGradient4"
       id="linearGradient5"
       x1="151.07338"
       y1="64.998032"
       x2="151.07338"
       y2="27.549025"
       gradientUnits="userSpaceOnUse" />
    <filter
       style="color-interpolation-filters:sRGB"
       id="filter5"
       x="-0.030947895"
       y="-0.023945385"
       width="1.0618958"
       height="1.0478908">
      <feGaussianBlur
         stdDeviation="0.52879019"
         id="feGaussianBlur5" />
    </filter>
  </defs>
  <g
     id="g5"
     transform="translate(-2.705813,-1.252208)">
    <path
       id="path1"
       style="display:inline;opacity:0.6;fill:#00abff;fill-opacity:1;stroke:none;filter:url(#filter5)"
       d="m 151.80421,7.0003988 -0.004,0.00195 -19.35338,0.00391 c -1.35355,0 -2.45701,1.1084419 -2.45701,2.4648263 V 57.533244 c 0,1.356386 1.10341,2.466779 2.45701,2.466779 h 36.0935 c 1.35354,0 2.45701,-1.110394 2.45701,-2.466779 V 26.183857 c 0,-0.440775 -0.10327,-0.93783 -0.29296,-1.464834 h 0.0605 l -0.35546,-0.722651 c -0.0256,-0.05172 -0.0587,-0.104196 -0.0859,-0.156249 l -0.0606,-0.124999 h -0.008 c -0.33862,-0.618179 -0.78849,-1.252809 -1.38476,-1.849596 l -0.002,-0.002 L 156.26511,9.1527273 C 155.59335,8.3178964 154.8344,7.7918168 154.11083,7.4730517 l -0.0859,-0.037109 -0.0312,-0.00195 C 153.20907,7.101048 152.46831,7.0003988 151.90968,7.0003988 Z m 0.11523,1.001946 c 0.37972,7.572e-4 0.91295,0.1248382 1.44726,0.3105447 V 22.248338 c 0,1.22231 0.89864,2.235567 2.06639,2.425764 0.1487,0.02782 0.30051,0.04492 0.45703,0.04492 h 13.69326 c 0.23563,0.562366 0.41406,1.117879 0.41406,1.464834 v 31.349387 c 0,0.822556 -0.64277,1.466786 -1.45702,1.466786 h -36.0935 c -0.81435,0 -1.45702,-0.644172 -1.45702,-1.466786 V 9.4710844 c 0,-0.8225555 0.64276,-1.4667865 1.45702,-1.4667865 z m 2.47069,0.9238216 c 0.38082,0.2545631 0.76636,0.4323933 1.12694,0.8886655 l 0.0176,0.021484 12.62686,12.7342851 c 0.37193,0.371983 0.57527,0.759422 0.82812,1.144523 h -13.16592 c -0.059,0 -0.11489,-0.011 -0.17187,-0.01758 -0.72221,-0.112338 -1.2617,-0.72263 -1.26171,-1.480458 z m -20.06236,27.0408236 -0.50195,0.50195 v 4.015596 l 0.49414,0.50195 c 8.55166,0.0102 15.46871,6.936505 15.46668,15.488172 l 0.50195,0.501949 h 4.02927 l 0.50195,-0.501949 c -0.002,-11.31338 -9.17866,-20.49912 -20.49204,-20.507668 z m 0.49414,1.107414 c 10.3494,0.284769 18.61128,8.548814 18.89049,18.898304 h -3.02537 c -0.27378,-8.671513 -7.19302,-15.59663 -15.86512,-15.878794 z m -0.50976,6.843702 0.14062,0.337888 -0.48633,-0.199217 v 0.0078 l 0.19922,0.488278 -0.34765,-0.140624 v 3.638646 l 0.50195,0.50195 c 4.37014,0 7.90619,3.543132 7.90619,7.921819 l 0.50195,0.501949 h 3.64646 l 0.50195,-0.501949 c 0,-6.930135 -5.64186,-12.556552 -12.56436,-12.556552 z m 0.50976,1.216788 c 5.91211,0.299267 10.54926,4.91813 10.84367,10.837814 h -2.64256 c -0.28817,-4.45627 -3.75107,-7.927794 -8.20111,-8.216739 z m 1.81639,6.458939 c -0.71816,-0.01209 -1.4093,0.269965 -1.9121,0.783197 -0.50615,0.496466 -0.76933,1.165096 -0.77538,1.882799 a 0.50000004,0.50000004 0 0 0 -0.008,0.0078 c -5e-5,0.0024 3e-5,0.0052 0,0.0078 -1e-5,0.0024 0,0.0032 0,0.0059 a 0.50000004,0.50000004 0 0 0 0.15625,0.355466 c 0.0808,0.561792 0.22094,1.128164 0.63476,1.527333 0.50583,0.504925 1.18989,0.788432 1.90428,0.775385 0.70167,0.0121 1.3737,-0.26899 1.86717,-0.767573 0.51283,-0.498507 0.80204,-1.183676 0.79101,-1.898424 -0.002,-0.724389 -0.26973,-1.396108 -0.77538,-1.896471 -0.49794,-0.506996 -1.15941,-0.78136 -1.87499,-0.783197 z m -0.008,0.996086 v 0.002 h 0.008 c 0.48355,0 0.83411,0.148408 1.16601,0.486324 l 0.008,0.0078 c 0.33469,0.328709 0.48047,0.693754 0.48047,1.195304 v 0.0078 c 0.007,0.439572 -0.16507,0.859752 -0.48047,1.166007 l -0.008,0.0078 c -0.30344,0.310681 -0.724,0.481335 -1.1582,0.472653 h -0.0234 c -0.44526,0.0094 -0.8723,-0.158041 -1.1875,-0.472653 l -0.008,-0.0078 c -0.31714,-0.303877 -0.4866,-0.727104 -0.47851,-1.166007 a 0.50000004,0.50000004 0 0 0 0,-0.002 0.50000004,0.50000004 0 0 0 0,-0.002 0.50000004,0.50000004 0 0 0 0,-0.002 0.50000004,0.50000004 0 0 0 0,-0.002 c 0,-0.50155 0.14875,-0.866697 0.48632,-1.195304 l 0.008,-0.0078 c 0.31192,-0.318391 0.74185,-0.497016 1.18749,-0.488278 z"
       transform="matrix(0.26458,0,0,0.26458,-31.351116,-0.26418)" />
    <path
       id="path4"
       style="fill:url(#linearGradient5);fill-opacity:1;stroke:none"
       d="m 151.80421,7.0003988 -0.004,0.00195 -19.35338,0.00391 c -1.35355,0 -2.45701,1.1084419 -2.45701,2.4648263 V 57.533244 c 0,1.356386 1.10341,2.466779 2.45701,2.466779 h 36.0935 c 1.35354,0 2.45701,-1.110394 2.45701,-2.466779 V 26.183857 c 0,-0.440775 -0.10327,-0.93783 -0.29296,-1.464834 h 0.0605 l -0.35546,-0.722651 c -0.0256,-0.05172 -0.0587,-0.104196 -0.0859,-0.156249 l -0.0606,-0.124999 h -0.008 c -0.33862,-0.618179 -0.78849,-1.252809 -1.38476,-1.849596 l -0.002,-0.002 L 156.26511,9.1527273 C 155.59335,8.3178964 154.8344,7.7918168 154.11083,7.4730517 l -0.0859,-0.037109 -0.0312,-0.00195 C 153.20907,7.101048 152.46831,7.0003988 151.90968,7.0003988 Z m 0.11523,1.001946 c 0.37972,7.572e-4 0.91295,0.1248382 1.44726,0.3105447 V 22.248338 c 0,1.22231 0.89864,2.235567 2.06639,2.425764 0.1487,0.02782 0.30051,0.04492 0.45703,0.04492 h 13.69326 c 0.23563,0.562366 0.41406,1.117879 0.41406,1.464834 v 31.349387 c 0,0.822556 -0.64277,1.466786 -1.45702,1.466786 h -36.0935 c -0.81435,0 -1.45702,-0.644172 -1.45702,-1.466786 V 9.4710844 c 0,-0.8225555 0.64276,-1.4667865 1.45702,-1.4667865 z m 2.47069,0.9238216 c 0.38082,0.2545631 0.76636,0.4323933 1.12694,0.8886655 l 0.0176,0.021484 12.62686,12.7342851 c 0.37193,0.371983 0.57527,0.759422 0.82812,1.144523 h -13.16592 c -0.059,0 -0.11489,-0.011 -0.17187,-0.01758 -0.72221,-0.112338 -1.2617,-0.72263 -1.26171,-1.480458 z m -20.06236,27.0408236 -0.50195,0.50195 v 4.015596 l 0.49414,0.50195 c 8.55166,0.0102 15.46871,6.936505 15.46668,15.488172 l 0.50195,0.501949 h 4.02927 l 0.50195,-0.501949 c -0.002,-11.31338 -9.17866,-20.49912 -20.49204,-20.507668 z m 0.49414,1.107414 c 10.3494,0.284769 18.61128,8.548814 18.89049,18.898304 h -3.02537 c -0.27378,-8.671513 -7.19302,-15.59663 -15.86512,-15.878794 z m -0.50976,6.843702 0.14062,0.337888 -0.48633,-0.199217 v 0.0078 l 0.19922,0.488278 -0.34765,-0.140624 v 3.638646 l 0.50195,0.50195 c 4.37014,0 7.90619,3.543132 7.90619,7.921819 l 0.50195,0.501949 h 3.64646 l 0.50195,-0.501949 c 0,-6.930135 -5.64186,-12.556552 -12.56436,-12.556552 z m 0.50976,1.216788 c 5.91211,0.299267 10.54926,4.91813 10.84367,10.837814 h -2.64256 c -0.28817,-4.45627 -3.75107,-7.927794 -8.20111,-8.216739 z m 1.81639,6.458939 c -0.71816,-0.01209 -1.4093,0.269965 -1.9121,0.783197 -0.50615,0.496466 -0.76933,1.165096 -0.77538,1.882799 a 0.50000004,0.50000004 0 0 0 -0.008,0.0078 c -5e-5,0.0024 3e-5,0.0052 0,0.0078 -1e-5,0.0024 0,0.0032 0,0.0059 a 0.50000004,0.50000004 0 0 0 0.15625,0.355466 c 0.0808,0.561792 0.22094,1.128164 0.63476,1.527333 0.50583,0.504925 1.18989,0.788432 1.90428,0.775385 0.70167,0.0121 1.3737,-0.26899 1.86717,-0.767573 0.51283,-0.498507 0.80204,-1.183676 0.79101,-1.898424 -0.002,-0.724389 -0.26973,-1.396108 -0.77538,-1.896471 -0.49794,-0.506996 -1.15941,-0.78136 -1.87499,-0.783197 z m -0.008,0.996086 v 0.002 h 0.008 c 0.48355,0 0.83411,0.148408 1.16601,0.486324 l 0.008,0.0078 c 0.33469,0.328709 0.48047,0.693754 0.48047,1.195304 v 0.0078 c 0.007,0.439572 -0.16507,0.859752 -0.48047,1.166007 l -0.008,0.0078 c -0.30344,0.310681 -0.724,0.481335 -1.1582,0.472653 h -0.0234 c -0.44526,0.0094 -0.8723,-0.158041 -1.1875,-0.472653 l -0.008,-0.0078 c -0.31714,-0.303877 -0.4866,-0.727104 -0.47851,-1.166007 a 0.50000004,0.50000004 0 0 0 0,-0.002 0.50000004,0.50000004 0 0 0 0,-0.002 0.50000004,0.50000004 0 0 0 0,-0.002 0.50000004,0.50000004 0 0 0 0,-0.002 c 0,-0.50155 0.14875,-0.866697 0.48632,-1.195304 l 0.008,-0.0078 c 0.31192,-0.318391 0.74185,-0.497016 1.18749,-0.488278 z"
       transform="matrix(0.26458,0,0,0.26458,-31.351116,-0.26418)" />
  </g>
</svg>
