<?xml version="1.0" encoding="UTF-8" standalone="no"?>
<svg
   width="43.546024"
   height="55.538212"
   version="1.1"
   viewBox="0 0 43.546024 55.538212"
   id="svg4"
   xmlns:xlink="http://www.w3.org/1999/xlink"
   xmlns="http://www.w3.org/2000/svg"
   xmlns:svg="http://www.w3.org/2000/svg"
   xmlns:rdf="http://www.w3.org/1999/02/22-rdf-syntax-ns#"
   xmlns:cc="http://creativecommons.org/ns#"
   xmlns:dc="http://purl.org/dc/elements/1.1/">
  <defs
     id="defs4">
    <linearGradient
       id="linearGradient5">
      <stop
         style="stop-color:#00abff;stop-opacity:0;"
         offset="0"
         id="stop6" />
      <stop
         style="stop-color:#00abff;stop-opacity:1;"
         offset="1"
         id="stop5" />
    </linearGradient>
    <linearGradient
       xlink:href="#linearGradient5"
       id="linearGradient6"
       x1="150.25916"
       y1="64.998489"
       x2="150.25916"
       y2="25.926025"
       gradientUnits="userSpaceOnUse" />
    <filter
       style="color-interpolation-filters:sRGB"
       id="filter6"
       x="-0.030947896"
       y="-0.023945386"
       width="1.0618958"
       height="1.0478908">
      <feGaussianBlur
         stdDeviation="0.52879393"
         id="feGaussianBlur6" />
    </filter>
  </defs>
  <metadata
     id="metadata1">
    <rdf:RDF>
      <cc:Work
         rdf:about="">
        <dc:format>image/svg+xml</dc:format>
        <dc:type
           rdf:resource="http://purl.org/dc/dcmitype/StillImage" />
      </cc:Work>
    </rdf:RDF>
  </metadata>
  <g
     id="g6"
     transform="translate(-10.230795,-4.7328477)">
    <path
       id="path1"
       style="display:inline;opacity:0.6;fill:#00abff;fill-opacity:1;stroke:none;filter:url(#filter6)"
       d="m 151.80549,7.0004431 -0.004,0.00195 -19.35352,0.00391 c -1.35355,0 -2.45703,1.1084593 -2.45703,2.4648438 V 57.533646 c 0,1.356386 1.10343,2.466797 2.45703,2.466797 h 36.09375 c 1.35354,0 2.45703,-1.110412 2.45703,-2.466797 V 26.184037 c 0,-0.440397 -0.10554,-0.938346 -0.29492,-1.464844 h 0.0625 l -0.35547,-0.722656 c -0.0256,-0.05172 -0.0587,-0.104197 -0.0859,-0.15625 l -0.0605,-0.125 h -0.008 c -0.33862,-0.618179 -0.7885,-1.252822 -1.38476,-1.849609 l -0.002,-0.002 L 156.26618,9.1527409 C 155.67332,8.415959 155.01237,7.91929 154.36774,7.5941471 c -0.0858,-0.043269 -0.17088,-0.083655 -0.25586,-0.1210937 l -0.0859,-0.037109 -0.0312,-0.00195 c -0.78441,-0.332899 -1.52518,-0.4335513 -2.08382,-0.4335513 z m 0.11524,1.0019532 c 0.37972,7.572e-4 0.91295,0.1248403 1.44726,0.3105468 V 22.24849 c 0,1.220321 0.89558,2.23319 2.06055,2.425781 0.12867,0.02428 0.2618,0.03744 0.39648,0.04102 0.0222,5.89e-4 0.0441,0.0039 0.0664,0.0039 h 13.69336 c 0.23563,0.562366 0.41406,1.11789 0.41406,1.464844 v 31.349609 c 0,0.822556 -0.64278,1.466797 -1.45703,1.466797 h -36.09375 c -0.81435,0 -1.45703,-0.644183 -1.45703,-1.466797 V 9.4711463 c 0,-0.8225555 0.64277,-1.4667969 1.45703,-1.4667969 z m 2.4707,0.9238281 c 0.38082,0.2545631 0.76637,0.4323996 1.12695,0.8886719 l 0.0176,0.021484 12.62695,12.7343757 c 0.37193,0.371985 0.57528,0.759427 0.82813,1.144531 h -13.16602 c -0.0603,0 -0.11757,-0.01071 -0.17578,-0.01758 -0.72125,-0.113118 -1.2578,-0.723307 -1.25781,-1.480469 z m 7.20898,21.7988286 -11.11132,0.0059 -6.16797,10.681641 -2.15821,-3.744141 h -2.77929 v 1.388672 h 1.98437 l 2.96289,5.130859 6.97071,-12.074219 h 8.91797 v 1.388672 h 1.38867 z m -6.94335,4.166015 c -2.3083,0 -4.16797,1.857616 -4.16797,4.166016 0,2.3083 1.85957,4.167969 4.16797,4.167969 1.0736,0 2.03984,-0.413662 2.77734,-1.076172 v 1.076172 h 1.38867 v -8.333985 h -1.38867 v 1.076172 c -0.7375,-0.6625 -1.70374,-1.076172 -2.77734,-1.076172 z m 0,1.388672 c 1.5389,0 2.77734,1.238444 2.77734,2.777344 0,1.5389 -1.23844,2.779297 -2.77734,2.779297 -1.5389,0 -2.77735,-1.240397 -2.77735,-2.779297 0,-1.5389 1.23845,-2.777344 2.77735,-2.777344 z m -16.6543,9.708984 c -0.008,0 -0.0137,0.30864 -0.0137,0.69336 0,0.38472 0.005,0.695312 0.0137,0.695312 h 24.97265 c 0.008,0 0.0137,-0.310592 0.0137,-0.695312 0,-0.38472 -0.005,-0.69336 -0.0137,-0.69336 z m 11.11133,4.166016 c -0.008,0 -0.0137,0.310593 -0.0137,0.695313 0,0.38472 0.005,0.693359 0.0137,0.693359 h 2.75 c 0.008,0 0.0137,-0.30864 0.0137,-0.693359 0,-0.38472 -0.005,-0.695313 -0.0137,-0.695313 z"
       transform="translate(-118.49104,-0.99849)" />
    <path
       id="path5"
       style="fill:url(#linearGradient6);fill-opacity:1;stroke:none"
       d="m 151.80549,7.0004431 -0.004,0.00195 -19.35352,0.00391 c -1.35355,0 -2.45703,1.1084593 -2.45703,2.4648438 V 57.533646 c 0,1.356386 1.10343,2.466797 2.45703,2.466797 h 36.09375 c 1.35354,0 2.45703,-1.110412 2.45703,-2.466797 V 26.184037 c 0,-0.440397 -0.10554,-0.938346 -0.29492,-1.464844 h 0.0625 l -0.35547,-0.722656 c -0.0256,-0.05172 -0.0587,-0.104197 -0.0859,-0.15625 l -0.0605,-0.125 h -0.008 c -0.33862,-0.618179 -0.7885,-1.252822 -1.38476,-1.849609 l -0.002,-0.002 L 156.26618,9.1527409 C 155.67332,8.415959 155.01237,7.91929 154.36774,7.5941471 c -0.0858,-0.043269 -0.17088,-0.083655 -0.25586,-0.1210937 l -0.0859,-0.037109 -0.0312,-0.00195 c -0.78441,-0.332899 -1.52518,-0.4335513 -2.08382,-0.4335513 z m 0.11524,1.0019532 c 0.37972,7.572e-4 0.91295,0.1248403 1.44726,0.3105468 V 22.24849 c 0,1.220321 0.89558,2.23319 2.06055,2.425781 0.12867,0.02428 0.2618,0.03744 0.39648,0.04102 0.0222,5.89e-4 0.0441,0.0039 0.0664,0.0039 h 13.69336 c 0.23563,0.562366 0.41406,1.11789 0.41406,1.464844 v 31.349609 c 0,0.822556 -0.64278,1.466797 -1.45703,1.466797 h -36.09375 c -0.81435,0 -1.45703,-0.644183 -1.45703,-1.466797 V 9.4711463 c 0,-0.8225555 0.64277,-1.4667969 1.45703,-1.4667969 z m 2.4707,0.9238281 c 0.38082,0.2545631 0.76637,0.4323996 1.12695,0.8886719 l 0.0176,0.021484 12.62695,12.7343757 c 0.37193,0.371985 0.57528,0.759427 0.82813,1.144531 h -13.16602 c -0.0603,0 -0.11757,-0.01071 -0.17578,-0.01758 -0.72125,-0.113118 -1.2578,-0.723307 -1.25781,-1.480469 z m 7.20898,21.7988286 -11.11132,0.0059 -6.16797,10.681641 -2.15821,-3.744141 h -2.77929 v 1.388672 h 1.98437 l 2.96289,5.130859 6.97071,-12.074219 h 8.91797 v 1.388672 h 1.38867 z m -6.94335,4.166015 c -2.3083,0 -4.16797,1.857616 -4.16797,4.166016 0,2.3083 1.85957,4.167969 4.16797,4.167969 1.0736,0 2.03984,-0.413662 2.77734,-1.076172 v 1.076172 h 1.38867 v -8.333985 h -1.38867 v 1.076172 c -0.7375,-0.6625 -1.70374,-1.076172 -2.77734,-1.076172 z m 0,1.388672 c 1.5389,0 2.77734,1.238444 2.77734,2.777344 0,1.5389 -1.23844,2.779297 -2.77734,2.779297 -1.5389,0 -2.77735,-1.240397 -2.77735,-2.779297 0,-1.5389 1.23845,-2.777344 2.77735,-2.777344 z m -16.6543,9.708984 c -0.008,0 -0.0137,0.30864 -0.0137,0.69336 0,0.38472 0.005,0.695312 0.0137,0.695312 h 24.97265 c 0.008,0 0.0137,-0.310592 0.0137,-0.695312 0,-0.38472 -0.005,-0.69336 -0.0137,-0.69336 z m 11.11133,4.166016 c -0.008,0 -0.0137,0.310593 -0.0137,0.695313 0,0.38472 0.005,0.693359 0.0137,0.693359 h 2.75 c 0.008,0 0.0137,-0.30864 0.0137,-0.693359 0,-0.38472 -0.005,-0.695313 -0.0137,-0.695313 z"
       transform="translate(-118.49104,-0.99849)" />
  </g>
</svg>
