<?xml version="1.0" encoding="UTF-8" standalone="no"?>
<svg
   width="43.546024"
   height="55.538212"
   version="1.1"
   viewBox="0 0 43.546024 55.538212"
   id="svg3"
   xmlns:xlink="http://www.w3.org/1999/xlink"
   xmlns="http://www.w3.org/2000/svg"
   xmlns:svg="http://www.w3.org/2000/svg">
  <defs
     id="defs3">
    <linearGradient
       id="linearGradient4">
      <stop
         style="stop-color:#00abff;stop-opacity:0;"
         offset="0"
         id="stop5" />
      <stop
         style="stop-color:#00abff;stop-opacity:1;"
         offset="1"
         id="stop4" />
    </linearGradient>
    <linearGradient
       xlink:href="#linearGradient4"
       id="linearGradient5"
       x1="150.72858"
       y1="65.000099"
       x2="150.72858"
       y2="24.072563"
       gradientUnits="userSpaceOnUse" />
    <filter
       style="color-interpolation-filters:sRGB"
       id="filter5"
       x="-0.030947896"
       y="-0.023945386"
       width="1.0618958"
       height="1.0478908">
      <feGaussianBlur
         stdDeviation="0.52879393"
         id="feGaussianBlur5" />
    </filter>
  </defs>
  <g
     id="g5"
     transform="translate(-10.224935,-4.7308946)">
    <path
       id="path1"
       style="display:inline;opacity:0.6;fill:#00abff;fill-opacity:1;stroke:none;filter:url(#filter5)"
       d="m 151.80529,7.0001 -0.004,0.00195 -19.35352,0.00391 c -1.35355,0 -2.45703,1.1084593 -2.45703,2.4648437 V 57.533303 c 0,1.356386 1.10343,2.466797 2.45703,2.466797 h 36.09375 c 1.35354,0 2.45703,-1.110412 2.45703,-2.466797 V 26.183694 c 0,-0.440775 -0.10522,-0.93784 -0.29492,-1.464844 h 0.0625 l -0.35547,-0.722656 c -0.0256,-0.05172 -0.0587,-0.104197 -0.0859,-0.15625 l -0.0605,-0.125 h -0.008 c -0.33863,-0.618179 -0.78851,-1.252822 -1.38477,-1.84961 l -0.002,-0.002 -12.60352,-12.7109373 c -0.59286,-0.7367818 -1.2538,-1.2334508 -1.89844,-1.5585937 -0.0858,-0.043269 -0.17087,-0.083655 -0.25586,-0.1210938 l -0.0859,-0.037109 -0.0312,-0.00195 C 153.21017,7.1007523 152.4694,7.0001 151.91076,7.0001 Z m 0.11524,1.0019531 c 0.37972,7.572e-4 0.91295,0.1248404 1.44726,0.3105469 v 13.935547 c 0,1.22032 0.89559,2.23319 2.06055,2.425781 0.12867,0.02428 0.26181,0.03744 0.39649,0.04102 0.0222,5.89e-4 0.0441,0.0039 0.0664,0.0039 h 13.69336 c 0.23563,0.562366 0.41406,1.117889 0.41406,1.464844 v 31.349609 c 0,0.822556 -0.64278,1.466797 -1.45703,1.466797 h -36.09375 c -0.81435,0 -1.45703,-0.644183 -1.45703,-1.466797 V 9.4708031 c 0,-0.8225555 0.64277,-1.4667968 1.45703,-1.4667969 z m 2.4707,0.9238281 c 0.38082,0.2545632 0.76637,0.4323997 1.12695,0.8886719 l 0.0176,0.021484 12.62696,12.7343749 c 0.37192,0.371986 0.57527,0.759428 0.82812,1.144532 h -13.16601 c -0.069,0 -0.13496,-0.01057 -0.20118,-0.01953 -0.70854,-0.123275 -1.23241,-0.730184 -1.23242,-1.478515 z m -3.89062,21.6445308 c -6.094,0 -11,4.906001 -11,11.000001 0,6.093999 4.906,11 11,11 6.094,0 11,-4.906 11,-11 0,-6.094 -4.906,-11.000001 -11,-11.000001 z m -0.008,0.994141 0.008,0.0059 c 1.662,0 3.22165,0.408141 4.59765,1.119141 0.004,0.04 0.003,0.06928 0,0.113281 0.058,0.026 0.0925,0.1335 0.18946,0.1875 0.036,0.02 0.0597,0.02887 0.0937,0.04687 0.058,0.032 0.10575,0.08658 0.0937,0.142579 -0.016,0.082 -0.1315,0.07867 -0.1875,0.138671 0.008,0.116 -0.0637,0.111454 -0.0937,0.189454 0.018,0.05 0.0857,0.03375 0.0937,0.09375 -0.01,0.064 -0.11775,0.07267 -0.0937,0.138671 0.108,0.084 0.22417,0.014 0.32617,0 0.224,-0.028 0.4245,0.01425 0.5625,-0.09375 -0.018,-0.106 0.15262,-0.138375 0.14062,-0.234375 -0.01,-0.072 -0.1335,-0.08867 -0.1875,-0.138671 -0.012,-0.011 -0.028,-0.03855 -0.041,-0.06055 0.165,0.108 0.32051,0.22575 0.47851,0.34375 -0.039,0.032 -0.0694,0.07184 -0.10937,0.08984 -0.042,0.018 -0.10458,0.02288 -0.14258,0.04687 -0.056,0.038 -0.0766,0.09667 -0.14063,0.138672 -0.046,0.032 -0.18637,0.140625 -0.23437,0.140625 -0.058,0 -0.1445,-0.05892 -0.1875,-0.04492 -0.06,0.018 -0.0257,0.114672 -0.0937,0.138672 -0.132,0.048 -0.37588,-0.10425 -0.42188,0.09375 0.056,0.114 0.22813,0.08058 0.32813,0.142578 0.062,0.04 0.1715,0.211297 0.1875,0.279297 0.016,0.056 0.024,0.268125 0,0.328125 -0.062,0.16 -0.23788,0.146578 -0.42188,0.142578 -0.05,0 -0.0946,0.004 -0.14062,0 -0.31,-0.02 -0.60805,-0.12825 -0.74805,0.09375 0.01,0.17 0.038,0.273875 0,0.421875 -0.028,0.108 -0.14662,0.18725 -0.14062,0.28125 0.002,0.048 0.0817,0.1215 0.0937,0.1875 0.008,0.036 -0.016,0.108625 0,0.140625 0.052,0.098 0.18925,-0.016 0.28125,0 0.088,0.014 0.1875,0.136375 0.1875,0.234375 0,0.07 -0.0517,0.21325 -0.0957,0.28125 -0.088,0.132 -0.249,0.1155 -0.375,0.1875 -0.104,0.06 -0.1255,0.179204 -0.1875,0.283204 -0.066,0.112 -0.11975,0.168124 -0.0937,0.328125 -0.09,0.178 -0.19095,0.289 -0.37695,0.375 -0.054,0.024 -0.1375,0.05775 -0.1875,0.09375 -0.04,0.028 -0.0866,0.07662 -0.14258,0.140625 -0.07,0.078 -0.1495,0.1275 -0.1875,0.1875 -0.028,0.046 -0.0169,0.127453 -0.0469,0.189453 -0.044,0.084 -0.1315,0.150375 -0.1875,0.234375 -0.026,0.04 -0.0658,0.08863 -0.0937,0.140625 -0.064,0.116 -0.15263,0.226125 -0.14063,0.328125 0.01,0.098 0.13463,0.1015 0.14063,0.1875 0.006,0.048 -0.0489,0.08667 -0.0469,0.138672 0.002,0.076 0.0409,0.129453 0.0469,0.189453 0.014,0.148 -0.0658,0.17925 -0.0937,0.28125 -0.014,0.048 0.012,0.102625 0,0.140625 -0.024,0.074 -0.14058,0.144421 -0.14258,0.232422 -0.002,0.062 0.0897,0.0995 0.0957,0.1875 0.004,0.06 -0.0589,0.133453 -0.0469,0.189453 0.022,0.108 0.24412,0.244125 0.32812,0.328125 0.114,0.114 0.23125,0.208125 0.28125,0.328125 0.042,0.102 0.0626,0.252125 0.14063,0.328125 0.058,0.056 0.16037,0.08067 0.23437,0.138672 0.07,0.054 0.15843,0.08263 0.23243,0.140625 0.12199,0.096 0.27474,0.29525 0.46875,0.28125 0.102,-0.008 0.21412,-0.07375 0.32812,-0.09375 0.118,-0.02 0.255,-0.05692 0.375,-0.04492 0.092,0.01 0.1872,0.05092 0.2832,0.04492 0.1,-0.006 0.21413,-0.04375 0.32813,-0.09375 0.198,-0.086 0.50692,-0.230454 0.79492,-0.189454 0.22,0.032 0.22295,0.277 0.37695,0.375 0.176,0.016 0.3268,-0.034 0.4668,0 0.106,0.026 0.22437,0.199204 0.23438,0.283204 0.01,0.086 -0.0817,0.178421 -0.0937,0.232421 -0.028,0.116 -0.0269,0.254125 -0.0469,0.328125 -0.016,0.058 -0.0469,0.1295 -0.0449,0.1875 0,0.052 0.0866,0.166375 0.14062,0.234375 0.066,0.084 0.15242,0.142375 0.23243,0.234375 0.14599,0.168 0.22612,0.387375 0.32812,0.609375 0.026,0.056 -0.024,0.07062 0,0.140625 -0.044,0.336 -0.155,0.5655 -0.375,0.9375 -0.104,0.12 -0.23638,0.271875 -0.23437,0.421875 -0.008,0.36 0.2025,0.540672 0.1875,0.888672 -0.036,0.468 -0.009,0.546875 -0.0449,0.796875 0.158,0.08 0.0909,0.300797 0.0449,0.466797 -0.068,0.198 -0.1495,0.244953 -0.1875,0.376953 0.12399,0.054 0.26043,0.04281 0.39843,0.0078 -1.822,1.942 -4.40797,3.15625 -7.29297,3.15625 -1.228,0 -2.39842,-0.22986 -3.48242,-0.63086 -0.04,-0.016 -0.084,-0.02487 -0.12304,-0.04687 -0.062,-0.036 -0.10176,-0.1115 -0.0937,-0.1875 0.104,-0.044 0.30095,0.09913 0.37695,-0.04687 0.038,-0.07 -0.05,-0.21125 0,-0.28125 0.036,-0.048 0.25412,-0.08175 0.32812,-0.09375 0.106,-0.018 0.22125,-0.0089 0.28125,-0.04687 0.066,-0.042 0.15263,-0.15725 0.14063,-0.28125 -0.006,-0.058 -0.0478,-0.08863 -0.0937,-0.140625 -0.038,-0.044 -0.0209,-0.09867 -0.0469,-0.138671 -0.048,-0.07 -0.12258,-0.08745 -0.14257,-0.189454 0.144,-0.028 0.35645,0.153704 0.56445,0.0957 0.098,-0.028 0.2333,-0.236125 0.2793,-0.328125 0.014,-0.028 -0.016,-0.108579 0,-0.142579 0.018,-0.038 0.0917,-0.07375 0.0977,-0.09375 0.014,-0.054 -0.012,-0.05975 0,-0.09375 0.036,-0.102 0.1275,-0.160375 0.1875,-0.234375 0.046,-0.056 0.0986,-0.1295 0.14063,-0.1875 0.048,-0.062 0.0618,-0.08662 0.0937,-0.140625 0.03,-0.182 -0.0909,-0.306797 -0.0469,-0.466796 0.048,-0.18 0.29475,-0.294954 0.46875,-0.376954 0.06,-0.028 0.13945,-0.07575 0.18945,-0.09375 0.12,-0.042 0.263,-0.0557 0.375,-0.0957 0.188,-0.068 0.23418,-0.249875 0.32618,-0.421875 0.044,-0.08 0.0897,-0.174422 0.0977,-0.232422 0.008,-0.052 -0.01,-0.08062 0,-0.140625 0.01,-0.06 0.0289,-0.1215 0.0449,-0.1875 0.022,-0.086 0.0469,-0.230171 0.0469,-0.326171 0,-0.08 -0.0449,-0.117454 -0.0469,-0.189454 -0.014,-0.26 0.0915,-0.279875 0.1875,-0.421875 0.048,-0.07 0.0598,-0.182421 0.0937,-0.232421 0.162,-0.24 0.44188,-0.341079 0.42188,-0.705079 -0.008,-0.12 -0.0507,-0.383875 -0.13867,-0.421875 -0.05,-0.022 -0.16038,-0.01692 -0.23438,-0.04492 -0.236,-0.088 -0.41025,-0.356954 -0.65625,-0.376954 -0.052,-0.002 -0.0826,0.002 -0.14062,0 -0.096,-0.002 -0.21817,-0.08175 -0.32617,-0.09375 -0.068,-0.008 -0.19438,0.02 -0.23438,0 -0.062,-0.03 -0.0437,-0.1535 -0.0937,-0.1875 -0.04,-0.028 -0.12745,-0.02487 -0.18945,-0.04687 -0.098,-0.038 -0.1653,-0.0877 -0.2793,-0.0957 -0.036,-0.002 -0.10258,0.006 -0.14258,0 -0.062,-0.01 -0.1295,-0.05775 -0.1875,-0.09375 -0.072,-0.044 -0.11062,-0.07667 -0.14062,-0.138672 0.066,-0.216 -0.1425,-0.250953 -0.1875,-0.376953 -0.02,-0.058 0.02,-0.1355 0,-0.1875 -0.026,-0.074 -0.10746,-0.1255 -0.18946,-0.1875 -0.144,-0.112 -0.26275,-0.208375 -0.46875,-0.234375 -0.092,-0.01 -0.21812,0.008 -0.32812,0 -0.116,-0.008 -0.24013,-0.0865 -0.32813,-0.1875 -0.084,-0.098 -0.1135,-0.188375 -0.1875,-0.234375 -0.07,-0.044 -0.18637,-0.04775 -0.23437,-0.09375 -0.022,-0.02 -0.0249,-0.04775 -0.0449,-0.09375 -0.036,-0.072 -0.0909,-0.101453 -0.0469,-0.189453 -0.08,-0.04 -0.0527,0.06288 -0.13867,0.04687 -0.078,-0.11 -0.15212,-0.174625 -0.32812,-0.140625 -0.08,0.016 -0.14038,0.138625 -0.23438,0.140625 -0.078,0.002 -0.13042,-0.126625 -0.23242,-0.140625 -0.078,-0.01 -0.18038,0.05888 -0.23438,0.04687 -0.086,-0.016 -0.11145,-0.08862 -0.18945,-0.140625 -0.058,-0.038 -0.1545,-0.142625 -0.1875,-0.140625 -0.1,0.002 -0.19012,0.214625 -0.32812,0.140625 -0.068,-0.086 0.12492,-0.109453 0.0449,-0.189453 -0.06,-0.06 -0.0907,0.01487 -0.13867,0.04687 -0.056,0.038 -0.1255,0.07175 -0.1875,0.09375 -0.138,0.052 -0.22013,0.0397 -0.32813,0.0957 -0.1,0.052 -0.13145,0.130422 -0.18945,0.232422 -0.046,0.084 -0.1175,0.228422 -0.1875,0.232422 -0.084,0.006 -0.15838,-0.106672 -0.23438,-0.138672 -0.23,-0.1 -0.37054,0.04292 -0.56054,0.04492 -0.176,0.002 -0.42988,-0.255875 -0.42188,-0.421875 0.006,-0.102 0.0817,-0.249 0.0937,-0.375 0.01,-0.1 0.0918,-0.191203 0.0937,-0.283203 0.002,-0.122 -0.2032,-0.218422 -0.2832,-0.232422 -0.188,-0.034 -0.4403,0.084 -0.6543,0 -0.04,-0.068 0.0697,-0.1215 0.0937,-0.1875 0.014,-0.038 -0.014,-0.0537 0,-0.0957 0.024,-0.064 0.11063,-0.1195 0.14063,-0.1875 0.022,-0.052 0.0249,-0.1235 0.0469,-0.1875 0.026,-0.072 0.0877,-0.1355 0.0937,-0.1875 0.008,-0.068 -0.0397,-0.145453 -0.0937,-0.189453 -0.166,0.01 -0.28095,0.0029 -0.37695,0.04687 -0.216,0.098 -0.157,0.40075 -0.375,0.46875 -0.074,0.024 -0.19725,0.03092 -0.28125,0.04492 -0.037,0.007 -0.0781,0.01344 -0.11914,0.02344 0.14,-0.726 0.35557,-1.423984 0.64258,-2.083984 0.048,0 0.0979,-0.006 0.13085,0 0.076,0.014 0.12346,0.08775 0.18946,0.09375 0.184,0.014 0.223,-0.154375 0.375,-0.234375 0.156,0.022 0.23495,-0.016 0.37695,0 0.096,0.01 0.20525,0.134625 0.28125,0.140625 0.064,0.002 0.0806,-0.05688 0.14063,-0.04687 0.06,0.01 0.1765,0.117453 0.1875,0.189453 0.01,0.09 -0.0729,0.18125 -0.0469,0.28125 0.094,0.096 0.28788,0.133453 0.42188,0.189453 0.088,-0.072 0.014,-0.224125 0,-0.328125 -0.002,-0.046 0.006,-0.09863 0,-0.140625 -0.01,-0.072 -0.0449,-0.127453 -0.0449,-0.189453 0,-0.286 0.22988,-0.403625 0.42188,-0.515625 0.082,-0.048 0.16237,-0.1515 0.23437,-0.1875 0.102,-0.05 0.15038,-0.04575 0.23438,-0.09375 0.152,-0.086 0.30387,-0.185203 0.42187,-0.283203 0.054,-0.13 -0.006,-0.293875 0,-0.421875 0.054,-0.034 0.0807,0.006 0.13868,0 0.092,-0.02 0.13745,-0.1355 0.18945,-0.1875 0.03,-0.03 0.10267,-0.0657 0.13867,-0.0957 0.092,-0.072 0.1075,-0.155501 0.1875,-0.1875 0.028,-0.01 0.0986,-0.03487 0.14258,-0.04687 0.06,-0.016 0.13642,-0.05975 0.23242,-0.09375 0.062,-0.022 0.21038,-0.02092 0.23438,-0.04492 0.03,-0.03 -0.008,-0.143453 0,-0.189453 0.048,-0.226 0.40737,-0.250172 0.60937,-0.326172 0.14,-0.054 0.26588,-0.170625 0.42188,-0.140625 -0.03,0.108 -0.16663,0.104375 -0.14063,0.234375 0.034,0.182 0.26413,-0.06775 0.32813,-0.09375 0.122,-0.052 0.35562,-0.08263 0.51562,-0.140625 0.14,-0.05 0.36638,-0.11925 0.23438,-0.28125 -0.11,-0.008 -0.13838,0.09867 -0.23438,0.138672 -0.066,0.01 -0.0827,-0.04092 -0.13867,-0.04492 -0.054,-0.002 -0.0866,0.05492 -0.14063,0.04492 -0.054,-0.01 -0.13457,-0.1235 -0.14257,-0.1875 -0.022,-0.168 0.16637,-0.204126 0.23437,-0.328125 -0.046,-0.152 -0.247,-0.03375 -0.375,-0.09375 0.014,-0.09 0.0805,-0.170454 0.1875,-0.189454 0.086,-0.014 0.27613,0.0029 0.32813,0.04492 0.03,0.026 -0.001,0.09863 0.0449,0.140625 0.052,0.046 0.12145,0.01 0.18945,0 0.024,-0.114 -0.16062,-0.06662 -0.14062,-0.140625 0.136,-0.088 0.3965,-0.02292 0.5625,-0.04492 0.096,-0.014 0.19525,-0.09463 0.28125,-0.140625 0.08,-0.046 0.15037,-0.120921 0.23437,-0.04492 0.024,0.082 -0.0477,0.1455 -0.0937,0.1875 -0.154,0.136 -0.30187,0.263875 -0.42187,0.421875 0.074,0.072 0.20412,0.03092 0.32812,0.04492 0.048,0.006 0.0887,0.03888 0.13867,0.04687 0.06,0.01 0.14146,-0.01 0.18946,0 0.084,0.02 0.1035,0.142579 0.1875,0.142579 0.136,0 0.12292,-0.142375 0.0449,-0.234375 0.024,-0.094 0.0809,-0.168376 0.0469,-0.234375 -0.062,-0.124 -0.31612,0.01738 -0.32812,-0.140625 -0.008,-0.1 0.10462,-0.111501 0.14062,-0.1875 -0.016,-0.192 0.15867,-0.201 0.13867,-0.375 -0.01,-0.072 -0.0887,-0.07458 -0.13867,-0.142579 -0.026,-0.036 -0.0169,-0.114625 -0.0469,-0.140625 -0.104,-0.088 -0.31613,-0.06442 -0.32813,-0.232421 -0.006,-0.1 0.014,-0.173251 0,-0.28125 -0.014,-0.102001 -0.0985,-0.403829 -0.1875,-0.423829 -0.112,-0.024 -0.19412,0.172375 -0.32812,0.234375 -0.072,0.034 -0.20725,0.06088 -0.28125,0.04687 -0.048,-0.01 -0.13463,-0.04862 -0.14063,-0.140625 -0.01,-0.106 0.0737,-0.122375 0.0937,-0.234375 0.862,-0.24 1.76703,-0.378906 2.70703,-0.378906 z m -4.02929,0.847656 c -0.029,0.411 -0.39613,0.624282 -0.82813,0.613282 -0.092,0.088 -0.0437,0.253 -0.0937,0.375 -0.042,0.102 -0.17925,0.197453 -0.28125,0.189453 -0.074,-0.006 -0.1875,-0.119453 -0.1875,-0.189453 0,-0.086 0.11892,-0.134422 0.0449,-0.232422 0.003,-0.02 0.0298,-0.0405 0.0508,-0.0625 0.414,-0.26 0.84292,-0.49536 1.29492,-0.69336 z m 8.34765,0.476563 c -0.037,0.007 -0.0568,0.02592 -0.0898,0.04492 -0.076,0.046 -0.0826,0.118625 -0.14063,0.140625 -0.082,0.03 -0.17645,0.0217 -0.18945,0.0957 -0.01,0.062 0.0489,0.08267 0.0469,0.138672 -0.03,0.074 -0.0778,0.0975 -0.0937,0.1875 0.102,0.166 0.34079,-0.0089 0.46679,-0.04492 0.056,-0.016 0.11258,-0.0029 0.14258,-0.04687 0.034,-0.054 0.0189,-0.156422 0.0449,-0.232422 0.028,-0.084 0.10375,-0.06663 0.0937,-0.140625 -0.008,-0.074 -0.15725,-0.152625 -0.28125,-0.140625 z m -10.94726,1.193359 c 0.097,0.05 0.26122,0.275469 0.0742,0.355469 -0.02,0.01 -0.28013,0.05492 -0.32813,0.04492 -0.039,-0.006 -0.0705,-0.04117 -0.10351,-0.07617 0.115,-0.112 0.23742,-0.218219 0.35742,-0.324219 z m 0.35351,0.447266 c 0.048,0.002 0.0846,0.08975 0.14063,0.09375 0.054,0.004 0.10862,-0.05688 0.14062,-0.04687 0.084,0.022 0.12492,0.172375 0.0449,0.234375 -0.066,0.008 -0.0907,-0.05492 -0.13868,-0.04492 -0.136,0.024 -0.1812,0.28925 -0.2832,0.28125 -0.096,-0.01 -0.14292,-0.21125 -0.0449,-0.28125 0.002,-0.06 -0.0509,-0.08063 -0.0469,-0.140625 0.03,-0.038 0.1075,-0.09975 0.1875,-0.09375 z m -0.4375,0.04297 c 0.006,-0.0015 0.0106,-0.0021 0.0156,0.0039 -0.014,0.106 -0.0567,0.139453 -0.13867,0.189453 -0.142,0.086 -0.23721,0.191 -0.28321,0.375 -0.014,0.054 -0.16442,0.2005 -0.23242,0.1875 -0.158,-0.034 0.0577,-0.329 0.0937,-0.375 0.04,-0.05 0.0927,-0.08463 0.13867,-0.140625 0.046,-0.056 0.0497,-0.1555 0.0937,-0.1875 0.048,-0.034 0.19921,-0.05088 0.28321,-0.04687 v -0.002 c 0.014,0 0.0228,-0.0024 0.0293,-0.0039 z m 14.11914,0.273437 c 0.063,0.07 0.12846,0.137984 0.18946,0.208985 -0.063,-0.074 -0.16646,-0.101985 -0.18946,-0.208985 z m -0.60937,0.01367 v 0.0059 c 0.158,-0.01 0.25612,0.18525 0.32812,0.28125 0.06,0.078 0.23013,0.180375 0.32813,0.234375 0.056,0.03 0.1255,0.06575 0.1875,0.09375 0.13,0.058 0.369,0.247 0.375,0.375 0.002,0.064 -0.0549,0.1275 -0.0449,0.1875 0.098,0.016 0.1845,-0.134422 0.1875,-0.232421 0,-0.023 -0.008,-0.03774 -0.0176,-0.05274 0.283,0.396 0.53772,0.810094 0.76172,1.246094 -0.088,0.026 -0.16374,0.0683 -0.17774,0.154297 -0.02,0.112 0.0743,0.26125 -0.0937,0.28125 -0.106,0.014 -0.23095,-0.108625 -0.37695,-0.140625 -0.06,-0.014 -0.14145,0.016 -0.18945,0 -0.11,-0.038 -0.0925,-0.166422 -0.1875,-0.232422 -0.054,-0.038 -0.19721,-0.08375 -0.28321,-0.09375 -0.054,-0.006 -0.0827,0.008 -0.13867,0 -0.068,-0.008 -0.17837,-0.01288 -0.23437,-0.04687 -0.054,-0.034 -0.1725,-0.09463 -0.1875,-0.140625 -0.022,-0.074 0.13467,-0.170422 0.13867,-0.232422 0.004,-0.048 -0.0349,-0.06863 -0.0449,-0.140625 -0.008,-0.044 0.01,-0.112625 0,-0.140625 -0.014,-0.052 -0.10746,-0.09175 -0.18946,-0.09375 -0.072,0 -0.1255,0.04687 -0.1875,0.04687 -0.088,0.002 -0.265,-0.05688 -0.375,-0.04687 -0.066,0.006 -0.12745,0.04287 -0.18945,0.04687 -0.174,0.014 -0.28587,-0.01 -0.42187,0 -0.098,0.006 -0.283,0.05175 -0.375,0.09375 -0.046,0.022 -0.0806,0.06375 -0.14063,0.09375 -0.028,0.014 -0.0577,0.02892 -0.0937,0.04492 -0.056,0.026 -0.1325,0.0817 -0.1875,0.0957 -0.078,0.02 -0.18612,-0.006 -0.32812,0 -0.102,0.006 -0.27925,-0.01863 -0.28125,-0.140625 -0.002,-0.186 0.33962,-0.108625 0.51562,-0.140625 0.066,-0.014 0.1075,-0.09267 0.1875,-0.138672 0.038,-0.022 0.0577,-0.02483 0.0937,-0.04883 0.06,-0.042 0.17945,-0.1395 0.18945,-0.1875 0.008,-0.044 -0.0509,-0.108625 -0.0449,-0.140625 0.008,-0.042 0.0847,-0.08467 0.13867,-0.138672 0.084,-0.084 0.13038,-0.180375 0.23438,-0.234375 0.07,-0.038 0.20042,-0.03775 0.23242,-0.09375 0.008,-0.064 -0.002,-0.08262 0,-0.140625 0.044,-0.04 0.0597,-0.08575 0.0957,-0.09375 0.108,-0.024 0.20213,0.05092 0.32813,0.04492 0.054,-0.002 0.1295,-0.0069 0.1875,-0.04492 0.048,-0.032 0.0926,-0.0717 0.14062,-0.0957 0.052,-0.028 0.0766,-0.08975 0.14063,-0.09375 z m -12.28906,0.08984 c 0.026,-0.0025 0.0466,-0.0041 0.0566,0.0059 -0.032,0.132 -0.31788,0.09488 -0.42188,0.04687 0.006,-0.04948 0.0772,-0.04128 0.14063,-0.04687 h 0.002 c 0.046,-0.002 0.0906,0 0.14063,0 0.025,0 0.056,-0.0034 0.082,-0.0059 z m 13.09765,0.111328 c 0.0548,0.06396 0.11041,0.126254 0.16407,0.191406 -0.009,-0.005 -0.0233,-0.0086 -0.0312,-0.01563 -0.0532,-0.04178 -0.0821,-0.110727 -0.13282,-0.175781 z m -0.73828,0.117187 c -0.006,0.0025 -0.0115,0.0097 -0.0215,0.01367 -0.066,0.022 -0.098,0.171453 0,0.189453 0.046,-0.028 0.0589,-0.105453 0.0469,-0.189453 -0.013,-0.014 -0.0194,-0.01617 -0.0254,-0.01367 z m -13.0039,0.0078 c 0.0153,-0.0018 0.0308,-0.0031 0.0488,0.0039 -0.092,0.078 -0.21695,0.139453 -0.37695,0.189453 -0.076,0.024 -0.17545,0.03517 -0.18945,-0.04883 -0.016,-0.104 0.0726,-0.08375 0.14062,-0.09375 0.088,-0.01 0.22417,-0.04292 0.32617,-0.04492 l 0.002,-0.002 c 0.017,0 0.0336,-0.0022 0.0488,-0.0039 z m 12.93554,0.287109 c -0.0312,0.0094 -0.0584,0.0096 -0.0918,0.04492 0.002,0.112 0.022,0.185203 0,0.283203 0.064,0.124 0.19846,0.03713 0.23046,-0.04687 0.0377,-0.206519 -0.0416,-0.305298 -0.13671,-0.28125 z m 0.88867,0.5625 c -0.088,-0.004 -0.17847,0.0029 -0.23046,0.04492 0.074,0.12 0.209,0.159453 0.375,0.189453 0.06,-0.044 0.0658,-0.156422 0.0937,-0.232422 -0.072,0 -0.14638,0.004 -0.23438,0 z m -17.57031,4.121094 c 0.11196,0.102195 0.18999,0.271273 0.32422,0.337891 0.05,0.026 0.12445,0.03483 0.18945,0.04883 0.052,0.01 0.0906,0.02892 0.14063,0.04492 0.106,0.036 0.24412,0.0577 0.32812,0.0957 0.128,0.056 0.21813,0.262172 0.32813,0.326172 0.006,0.064 -0.02,0.1395 0,0.1875 0.052,0.07 0.15037,0.09463 0.23437,0.140625 0.102,0.056 0.13447,0.188422 0.23047,0.232422 0.034,0.014 0.0906,-0.016 0.14258,0 0.132,0.04 0.16725,0.222453 0.28125,0.189453 0.074,-0.022 0.0837,-0.117453 0.0957,-0.189453 0.05,-0.054 0.1095,-0.140626 0.1875,-0.140625 0.124,-0.002 0.1415,0.161203 0.1875,0.283203 0.026,0.068 0.0757,0.1155 0.0937,0.1875 0.03,0.124 0.026,0.490453 0,0.564453 -0.032,0.092 -0.15837,0.130469 -0.23437,0.230469 -0.036,0.048 -0.0658,0.110578 -0.0937,0.142578 -0.048,0.06 -0.10267,0.08662 -0.13867,0.140625 -0.02,0.03 -0.0289,0.09667 -0.0469,0.138672 -0.06,0.128 -0.14375,0.222953 -0.0937,0.376953 0.02,0.062 0.0937,0.1135 0.0937,0.1875 0,0.088 -0.1735,0.138375 -0.1875,0.234375 -0.01,0.07 0.0717,0.18725 0.0937,0.28125 0.016,0.07 0.1445,0.1415 0.1875,0.1875 0.07,0.078 0.12545,0.183203 0.18945,0.283203 0.126,0.194 0.20218,0.419375 0.32618,0.609375 0.066,0.098 0.19037,0.17725 0.23437,0.28125 0.022,0.052 -0.02,0.1395 0,0.1875 0.072,0.162 0.4005,0.341875 0.5625,0.421875 0.076,0.038 0.16438,0.0557 0.23438,0.0957 0.106,0.06 0.321,0.18725 0.375,0.28125 0.048,0.084 0.0697,0.287875 0.0937,0.421875 0.03,0.176 -0.008,0.325625 0,0.515625 0.006,0.104 0.0469,0.17725 0.0469,0.28125 0,0.036 0.002,0.104625 0,0.140625 -0.002,0.124 0.01,0.249 0,0.375 -0.006,0.068 -0.004,0.131453 0,0.189453 0.006,0.062 0.0409,0.08467 0.0449,0.138672 0.004,0.058 -0.0509,0.143453 -0.0449,0.189453 0.014,0.126 0.11663,0.210172 0.14063,0.326172 0.02,0.092 0.0569,0.311875 0.0449,0.421875 -0.008,0.058 -0.0369,0.125453 -0.0449,0.189453 -0.006,0.05 0.008,0.09267 0,0.138672 -0.006,0.045 -0.0173,0.08209 -0.0293,0.121094 -2.782,-1.772 -4.62695,-4.874641 -4.62695,-8.431641 0,-0.479 0.0454,-0.94625 0.10937,-1.40625 z m 3.92188,1.087891 c 0.0598,0.0038 0.037,0.137937 -0.0312,0.148437 -0.074,0.01 -0.072,-0.106625 0,-0.140625 0.012,-0.0055 0.0227,-0.0084 0.0312,-0.0078 z"
       transform="translate(-118.4967,-1.0001)" />
    <path
       id="path4"
       style="fill:url(#linearGradient5);fill-opacity:1;stroke:none"
       d="m 151.80529,7.0001 -0.004,0.00195 -19.35352,0.00391 c -1.35355,0 -2.45703,1.1084593 -2.45703,2.4648437 V 57.533303 c 0,1.356386 1.10343,2.466797 2.45703,2.466797 h 36.09375 c 1.35354,0 2.45703,-1.110412 2.45703,-2.466797 V 26.183694 c 0,-0.440775 -0.10522,-0.93784 -0.29492,-1.464844 h 0.0625 l -0.35547,-0.722656 c -0.0256,-0.05172 -0.0587,-0.104197 -0.0859,-0.15625 l -0.0605,-0.125 h -0.008 c -0.33863,-0.618179 -0.78851,-1.252822 -1.38477,-1.84961 l -0.002,-0.002 -12.60352,-12.7109373 c -0.59286,-0.7367818 -1.2538,-1.2334508 -1.89844,-1.5585937 -0.0858,-0.043269 -0.17087,-0.083655 -0.25586,-0.1210938 l -0.0859,-0.037109 -0.0312,-0.00195 C 153.21017,7.1007523 152.4694,7.0001 151.91076,7.0001 Z m 0.11524,1.0019531 c 0.37972,7.572e-4 0.91295,0.1248404 1.44726,0.3105469 v 13.935547 c 0,1.22032 0.89559,2.23319 2.06055,2.425781 0.12867,0.02428 0.26181,0.03744 0.39649,0.04102 0.0222,5.89e-4 0.0441,0.0039 0.0664,0.0039 h 13.69336 c 0.23563,0.562366 0.41406,1.117889 0.41406,1.464844 v 31.349609 c 0,0.822556 -0.64278,1.466797 -1.45703,1.466797 h -36.09375 c -0.81435,0 -1.45703,-0.644183 -1.45703,-1.466797 V 9.4708031 c 0,-0.8225555 0.64277,-1.4667968 1.45703,-1.4667969 z m 2.4707,0.9238281 c 0.38082,0.2545632 0.76637,0.4323997 1.12695,0.8886719 l 0.0176,0.021484 12.62696,12.7343749 c 0.37192,0.371986 0.57527,0.759428 0.82812,1.144532 h -13.16601 c -0.069,0 -0.13496,-0.01057 -0.20118,-0.01953 -0.70854,-0.123275 -1.23241,-0.730184 -1.23242,-1.478515 z m -3.89062,21.6445308 c -6.094,0 -11,4.906001 -11,11.000001 0,6.093999 4.906,11 11,11 6.094,0 11,-4.906 11,-11 0,-6.094 -4.906,-11.000001 -11,-11.000001 z m -0.008,0.994141 0.008,0.0059 c 1.662,0 3.22165,0.408141 4.59765,1.119141 0.004,0.04 0.003,0.06928 0,0.113281 0.058,0.026 0.0925,0.1335 0.18946,0.1875 0.036,0.02 0.0597,0.02887 0.0937,0.04687 0.058,0.032 0.10575,0.08658 0.0937,0.142579 -0.016,0.082 -0.1315,0.07867 -0.1875,0.138671 0.008,0.116 -0.0637,0.111454 -0.0937,0.189454 0.018,0.05 0.0857,0.03375 0.0937,0.09375 -0.01,0.064 -0.11775,0.07267 -0.0937,0.138671 0.108,0.084 0.22417,0.014 0.32617,0 0.224,-0.028 0.4245,0.01425 0.5625,-0.09375 -0.018,-0.106 0.15262,-0.138375 0.14062,-0.234375 -0.01,-0.072 -0.1335,-0.08867 -0.1875,-0.138671 -0.012,-0.011 -0.028,-0.03855 -0.041,-0.06055 0.165,0.108 0.32051,0.22575 0.47851,0.34375 -0.039,0.032 -0.0694,0.07184 -0.10937,0.08984 -0.042,0.018 -0.10458,0.02288 -0.14258,0.04687 -0.056,0.038 -0.0766,0.09667 -0.14063,0.138672 -0.046,0.032 -0.18637,0.140625 -0.23437,0.140625 -0.058,0 -0.1445,-0.05892 -0.1875,-0.04492 -0.06,0.018 -0.0257,0.114672 -0.0937,0.138672 -0.132,0.048 -0.37588,-0.10425 -0.42188,0.09375 0.056,0.114 0.22813,0.08058 0.32813,0.142578 0.062,0.04 0.1715,0.211297 0.1875,0.279297 0.016,0.056 0.024,0.268125 0,0.328125 -0.062,0.16 -0.23788,0.146578 -0.42188,0.142578 -0.05,0 -0.0946,0.004 -0.14062,0 -0.31,-0.02 -0.60805,-0.12825 -0.74805,0.09375 0.01,0.17 0.038,0.273875 0,0.421875 -0.028,0.108 -0.14662,0.18725 -0.14062,0.28125 0.002,0.048 0.0817,0.1215 0.0937,0.1875 0.008,0.036 -0.016,0.108625 0,0.140625 0.052,0.098 0.18925,-0.016 0.28125,0 0.088,0.014 0.1875,0.136375 0.1875,0.234375 0,0.07 -0.0517,0.21325 -0.0957,0.28125 -0.088,0.132 -0.249,0.1155 -0.375,0.1875 -0.104,0.06 -0.1255,0.179204 -0.1875,0.283204 -0.066,0.112 -0.11975,0.168124 -0.0937,0.328125 -0.09,0.178 -0.19095,0.289 -0.37695,0.375 -0.054,0.024 -0.1375,0.05775 -0.1875,0.09375 -0.04,0.028 -0.0866,0.07662 -0.14258,0.140625 -0.07,0.078 -0.1495,0.1275 -0.1875,0.1875 -0.028,0.046 -0.0169,0.127453 -0.0469,0.189453 -0.044,0.084 -0.1315,0.150375 -0.1875,0.234375 -0.026,0.04 -0.0658,0.08863 -0.0937,0.140625 -0.064,0.116 -0.15263,0.226125 -0.14063,0.328125 0.01,0.098 0.13463,0.1015 0.14063,0.1875 0.006,0.048 -0.0489,0.08667 -0.0469,0.138672 0.002,0.076 0.0409,0.129453 0.0469,0.189453 0.014,0.148 -0.0658,0.17925 -0.0937,0.28125 -0.014,0.048 0.012,0.102625 0,0.140625 -0.024,0.074 -0.14058,0.144421 -0.14258,0.232422 -0.002,0.062 0.0897,0.0995 0.0957,0.1875 0.004,0.06 -0.0589,0.133453 -0.0469,0.189453 0.022,0.108 0.24412,0.244125 0.32812,0.328125 0.114,0.114 0.23125,0.208125 0.28125,0.328125 0.042,0.102 0.0626,0.252125 0.14063,0.328125 0.058,0.056 0.16037,0.08067 0.23437,0.138672 0.07,0.054 0.15843,0.08263 0.23243,0.140625 0.12199,0.096 0.27474,0.29525 0.46875,0.28125 0.102,-0.008 0.21412,-0.07375 0.32812,-0.09375 0.118,-0.02 0.255,-0.05692 0.375,-0.04492 0.092,0.01 0.1872,0.05092 0.2832,0.04492 0.1,-0.006 0.21413,-0.04375 0.32813,-0.09375 0.198,-0.086 0.50692,-0.230454 0.79492,-0.189454 0.22,0.032 0.22295,0.277 0.37695,0.375 0.176,0.016 0.3268,-0.034 0.4668,0 0.106,0.026 0.22437,0.199204 0.23438,0.283204 0.01,0.086 -0.0817,0.178421 -0.0937,0.232421 -0.028,0.116 -0.0269,0.254125 -0.0469,0.328125 -0.016,0.058 -0.0469,0.1295 -0.0449,0.1875 0,0.052 0.0866,0.166375 0.14062,0.234375 0.066,0.084 0.15242,0.142375 0.23243,0.234375 0.14599,0.168 0.22612,0.387375 0.32812,0.609375 0.026,0.056 -0.024,0.07062 0,0.140625 -0.044,0.336 -0.155,0.5655 -0.375,0.9375 -0.104,0.12 -0.23638,0.271875 -0.23437,0.421875 -0.008,0.36 0.2025,0.540672 0.1875,0.888672 -0.036,0.468 -0.009,0.546875 -0.0449,0.796875 0.158,0.08 0.0909,0.300797 0.0449,0.466797 -0.068,0.198 -0.1495,0.244953 -0.1875,0.376953 0.12399,0.054 0.26043,0.04281 0.39843,0.0078 -1.822,1.942 -4.40797,3.15625 -7.29297,3.15625 -1.228,0 -2.39842,-0.22986 -3.48242,-0.63086 -0.04,-0.016 -0.084,-0.02487 -0.12304,-0.04687 -0.062,-0.036 -0.10176,-0.1115 -0.0937,-0.1875 0.104,-0.044 0.30095,0.09913 0.37695,-0.04687 0.038,-0.07 -0.05,-0.21125 0,-0.28125 0.036,-0.048 0.25412,-0.08175 0.32812,-0.09375 0.106,-0.018 0.22125,-0.0089 0.28125,-0.04687 0.066,-0.042 0.15263,-0.15725 0.14063,-0.28125 -0.006,-0.058 -0.0478,-0.08863 -0.0937,-0.140625 -0.038,-0.044 -0.0209,-0.09867 -0.0469,-0.138671 -0.048,-0.07 -0.12258,-0.08745 -0.14257,-0.189454 0.144,-0.028 0.35645,0.153704 0.56445,0.0957 0.098,-0.028 0.2333,-0.236125 0.2793,-0.328125 0.014,-0.028 -0.016,-0.108579 0,-0.142579 0.018,-0.038 0.0917,-0.07375 0.0977,-0.09375 0.014,-0.054 -0.012,-0.05975 0,-0.09375 0.036,-0.102 0.1275,-0.160375 0.1875,-0.234375 0.046,-0.056 0.0986,-0.1295 0.14063,-0.1875 0.048,-0.062 0.0618,-0.08662 0.0937,-0.140625 0.03,-0.182 -0.0909,-0.306797 -0.0469,-0.466796 0.048,-0.18 0.29475,-0.294954 0.46875,-0.376954 0.06,-0.028 0.13945,-0.07575 0.18945,-0.09375 0.12,-0.042 0.263,-0.0557 0.375,-0.0957 0.188,-0.068 0.23418,-0.249875 0.32618,-0.421875 0.044,-0.08 0.0897,-0.174422 0.0977,-0.232422 0.008,-0.052 -0.01,-0.08062 0,-0.140625 0.01,-0.06 0.0289,-0.1215 0.0449,-0.1875 0.022,-0.086 0.0469,-0.230171 0.0469,-0.326171 0,-0.08 -0.0449,-0.117454 -0.0469,-0.189454 -0.014,-0.26 0.0915,-0.279875 0.1875,-0.421875 0.048,-0.07 0.0598,-0.182421 0.0937,-0.232421 0.162,-0.24 0.44188,-0.341079 0.42188,-0.705079 -0.008,-0.12 -0.0507,-0.383875 -0.13867,-0.421875 -0.05,-0.022 -0.16038,-0.01692 -0.23438,-0.04492 -0.236,-0.088 -0.41025,-0.356954 -0.65625,-0.376954 -0.052,-0.002 -0.0826,0.002 -0.14062,0 -0.096,-0.002 -0.21817,-0.08175 -0.32617,-0.09375 -0.068,-0.008 -0.19438,0.02 -0.23438,0 -0.062,-0.03 -0.0437,-0.1535 -0.0937,-0.1875 -0.04,-0.028 -0.12745,-0.02487 -0.18945,-0.04687 -0.098,-0.038 -0.1653,-0.0877 -0.2793,-0.0957 -0.036,-0.002 -0.10258,0.006 -0.14258,0 -0.062,-0.01 -0.1295,-0.05775 -0.1875,-0.09375 -0.072,-0.044 -0.11062,-0.07667 -0.14062,-0.138672 0.066,-0.216 -0.1425,-0.250953 -0.1875,-0.376953 -0.02,-0.058 0.02,-0.1355 0,-0.1875 -0.026,-0.074 -0.10746,-0.1255 -0.18946,-0.1875 -0.144,-0.112 -0.26275,-0.208375 -0.46875,-0.234375 -0.092,-0.01 -0.21812,0.008 -0.32812,0 -0.116,-0.008 -0.24013,-0.0865 -0.32813,-0.1875 -0.084,-0.098 -0.1135,-0.188375 -0.1875,-0.234375 -0.07,-0.044 -0.18637,-0.04775 -0.23437,-0.09375 -0.022,-0.02 -0.0249,-0.04775 -0.0449,-0.09375 -0.036,-0.072 -0.0909,-0.101453 -0.0469,-0.189453 -0.08,-0.04 -0.0527,0.06288 -0.13867,0.04687 -0.078,-0.11 -0.15212,-0.174625 -0.32812,-0.140625 -0.08,0.016 -0.14038,0.138625 -0.23438,0.140625 -0.078,0.002 -0.13042,-0.126625 -0.23242,-0.140625 -0.078,-0.01 -0.18038,0.05888 -0.23438,0.04687 -0.086,-0.016 -0.11145,-0.08862 -0.18945,-0.140625 -0.058,-0.038 -0.1545,-0.142625 -0.1875,-0.140625 -0.1,0.002 -0.19012,0.214625 -0.32812,0.140625 -0.068,-0.086 0.12492,-0.109453 0.0449,-0.189453 -0.06,-0.06 -0.0907,0.01487 -0.13867,0.04687 -0.056,0.038 -0.1255,0.07175 -0.1875,0.09375 -0.138,0.052 -0.22013,0.0397 -0.32813,0.0957 -0.1,0.052 -0.13145,0.130422 -0.18945,0.232422 -0.046,0.084 -0.1175,0.228422 -0.1875,0.232422 -0.084,0.006 -0.15838,-0.106672 -0.23438,-0.138672 -0.23,-0.1 -0.37054,0.04292 -0.56054,0.04492 -0.176,0.002 -0.42988,-0.255875 -0.42188,-0.421875 0.006,-0.102 0.0817,-0.249 0.0937,-0.375 0.01,-0.1 0.0918,-0.191203 0.0937,-0.283203 0.002,-0.122 -0.2032,-0.218422 -0.2832,-0.232422 -0.188,-0.034 -0.4403,0.084 -0.6543,0 -0.04,-0.068 0.0697,-0.1215 0.0937,-0.1875 0.014,-0.038 -0.014,-0.0537 0,-0.0957 0.024,-0.064 0.11063,-0.1195 0.14063,-0.1875 0.022,-0.052 0.0249,-0.1235 0.0469,-0.1875 0.026,-0.072 0.0877,-0.1355 0.0937,-0.1875 0.008,-0.068 -0.0397,-0.145453 -0.0937,-0.189453 -0.166,0.01 -0.28095,0.0029 -0.37695,0.04687 -0.216,0.098 -0.157,0.40075 -0.375,0.46875 -0.074,0.024 -0.19725,0.03092 -0.28125,0.04492 -0.037,0.007 -0.0781,0.01344 -0.11914,0.02344 0.14,-0.726 0.35557,-1.423984 0.64258,-2.083984 0.048,0 0.0979,-0.006 0.13085,0 0.076,0.014 0.12346,0.08775 0.18946,0.09375 0.184,0.014 0.223,-0.154375 0.375,-0.234375 0.156,0.022 0.23495,-0.016 0.37695,0 0.096,0.01 0.20525,0.134625 0.28125,0.140625 0.064,0.002 0.0806,-0.05688 0.14063,-0.04687 0.06,0.01 0.1765,0.117453 0.1875,0.189453 0.01,0.09 -0.0729,0.18125 -0.0469,0.28125 0.094,0.096 0.28788,0.133453 0.42188,0.189453 0.088,-0.072 0.014,-0.224125 0,-0.328125 -0.002,-0.046 0.006,-0.09863 0,-0.140625 -0.01,-0.072 -0.0449,-0.127453 -0.0449,-0.189453 0,-0.286 0.22988,-0.403625 0.42188,-0.515625 0.082,-0.048 0.16237,-0.1515 0.23437,-0.1875 0.102,-0.05 0.15038,-0.04575 0.23438,-0.09375 0.152,-0.086 0.30387,-0.185203 0.42187,-0.283203 0.054,-0.13 -0.006,-0.293875 0,-0.421875 0.054,-0.034 0.0807,0.006 0.13868,0 0.092,-0.02 0.13745,-0.1355 0.18945,-0.1875 0.03,-0.03 0.10267,-0.0657 0.13867,-0.0957 0.092,-0.072 0.1075,-0.155501 0.1875,-0.1875 0.028,-0.01 0.0986,-0.03487 0.14258,-0.04687 0.06,-0.016 0.13642,-0.05975 0.23242,-0.09375 0.062,-0.022 0.21038,-0.02092 0.23438,-0.04492 0.03,-0.03 -0.008,-0.143453 0,-0.189453 0.048,-0.226 0.40737,-0.250172 0.60937,-0.326172 0.14,-0.054 0.26588,-0.170625 0.42188,-0.140625 -0.03,0.108 -0.16663,0.104375 -0.14063,0.234375 0.034,0.182 0.26413,-0.06775 0.32813,-0.09375 0.122,-0.052 0.35562,-0.08263 0.51562,-0.140625 0.14,-0.05 0.36638,-0.11925 0.23438,-0.28125 -0.11,-0.008 -0.13838,0.09867 -0.23438,0.138672 -0.066,0.01 -0.0827,-0.04092 -0.13867,-0.04492 -0.054,-0.002 -0.0866,0.05492 -0.14063,0.04492 -0.054,-0.01 -0.13457,-0.1235 -0.14257,-0.1875 -0.022,-0.168 0.16637,-0.204126 0.23437,-0.328125 -0.046,-0.152 -0.247,-0.03375 -0.375,-0.09375 0.014,-0.09 0.0805,-0.170454 0.1875,-0.189454 0.086,-0.014 0.27613,0.0029 0.32813,0.04492 0.03,0.026 -0.001,0.09863 0.0449,0.140625 0.052,0.046 0.12145,0.01 0.18945,0 0.024,-0.114 -0.16062,-0.06662 -0.14062,-0.140625 0.136,-0.088 0.3965,-0.02292 0.5625,-0.04492 0.096,-0.014 0.19525,-0.09463 0.28125,-0.140625 0.08,-0.046 0.15037,-0.120921 0.23437,-0.04492 0.024,0.082 -0.0477,0.1455 -0.0937,0.1875 -0.154,0.136 -0.30187,0.263875 -0.42187,0.421875 0.074,0.072 0.20412,0.03092 0.32812,0.04492 0.048,0.006 0.0887,0.03888 0.13867,0.04687 0.06,0.01 0.14146,-0.01 0.18946,0 0.084,0.02 0.1035,0.142579 0.1875,0.142579 0.136,0 0.12292,-0.142375 0.0449,-0.234375 0.024,-0.094 0.0809,-0.168376 0.0469,-0.234375 -0.062,-0.124 -0.31612,0.01738 -0.32812,-0.140625 -0.008,-0.1 0.10462,-0.111501 0.14062,-0.1875 -0.016,-0.192 0.15867,-0.201 0.13867,-0.375 -0.01,-0.072 -0.0887,-0.07458 -0.13867,-0.142579 -0.026,-0.036 -0.0169,-0.114625 -0.0469,-0.140625 -0.104,-0.088 -0.31613,-0.06442 -0.32813,-0.232421 -0.006,-0.1 0.014,-0.173251 0,-0.28125 -0.014,-0.102001 -0.0985,-0.403829 -0.1875,-0.423829 -0.112,-0.024 -0.19412,0.172375 -0.32812,0.234375 -0.072,0.034 -0.20725,0.06088 -0.28125,0.04687 -0.048,-0.01 -0.13463,-0.04862 -0.14063,-0.140625 -0.01,-0.106 0.0737,-0.122375 0.0937,-0.234375 0.862,-0.24 1.76703,-0.378906 2.70703,-0.378906 z m -4.02929,0.847656 c -0.029,0.411 -0.39613,0.624282 -0.82813,0.613282 -0.092,0.088 -0.0437,0.253 -0.0937,0.375 -0.042,0.102 -0.17925,0.197453 -0.28125,0.189453 -0.074,-0.006 -0.1875,-0.119453 -0.1875,-0.189453 0,-0.086 0.11892,-0.134422 0.0449,-0.232422 0.003,-0.02 0.0298,-0.0405 0.0508,-0.0625 0.414,-0.26 0.84292,-0.49536 1.29492,-0.69336 z m 8.34765,0.476563 c -0.037,0.007 -0.0568,0.02592 -0.0898,0.04492 -0.076,0.046 -0.0826,0.118625 -0.14063,0.140625 -0.082,0.03 -0.17645,0.0217 -0.18945,0.0957 -0.01,0.062 0.0489,0.08267 0.0469,0.138672 -0.03,0.074 -0.0778,0.0975 -0.0937,0.1875 0.102,0.166 0.34079,-0.0089 0.46679,-0.04492 0.056,-0.016 0.11258,-0.0029 0.14258,-0.04687 0.034,-0.054 0.0189,-0.156422 0.0449,-0.232422 0.028,-0.084 0.10375,-0.06663 0.0937,-0.140625 -0.008,-0.074 -0.15725,-0.152625 -0.28125,-0.140625 z m -10.94726,1.193359 c 0.097,0.05 0.26122,0.275469 0.0742,0.355469 -0.02,0.01 -0.28013,0.05492 -0.32813,0.04492 -0.039,-0.006 -0.0705,-0.04117 -0.10351,-0.07617 0.115,-0.112 0.23742,-0.218219 0.35742,-0.324219 z m 0.35351,0.447266 c 0.048,0.002 0.0846,0.08975 0.14063,0.09375 0.054,0.004 0.10862,-0.05688 0.14062,-0.04687 0.084,0.022 0.12492,0.172375 0.0449,0.234375 -0.066,0.008 -0.0907,-0.05492 -0.13868,-0.04492 -0.136,0.024 -0.1812,0.28925 -0.2832,0.28125 -0.096,-0.01 -0.14292,-0.21125 -0.0449,-0.28125 0.002,-0.06 -0.0509,-0.08063 -0.0469,-0.140625 0.03,-0.038 0.1075,-0.09975 0.1875,-0.09375 z m -0.4375,0.04297 c 0.006,-0.0015 0.0106,-0.0021 0.0156,0.0039 -0.014,0.106 -0.0567,0.139453 -0.13867,0.189453 -0.142,0.086 -0.23721,0.191 -0.28321,0.375 -0.014,0.054 -0.16442,0.2005 -0.23242,0.1875 -0.158,-0.034 0.0577,-0.329 0.0937,-0.375 0.04,-0.05 0.0927,-0.08463 0.13867,-0.140625 0.046,-0.056 0.0497,-0.1555 0.0937,-0.1875 0.048,-0.034 0.19921,-0.05088 0.28321,-0.04687 v -0.002 c 0.014,0 0.0228,-0.0024 0.0293,-0.0039 z m 14.11914,0.273437 c 0.063,0.07 0.12846,0.137984 0.18946,0.208985 -0.063,-0.074 -0.16646,-0.101985 -0.18946,-0.208985 z m -0.60937,0.01367 v 0.0059 c 0.158,-0.01 0.25612,0.18525 0.32812,0.28125 0.06,0.078 0.23013,0.180375 0.32813,0.234375 0.056,0.03 0.1255,0.06575 0.1875,0.09375 0.13,0.058 0.369,0.247 0.375,0.375 0.002,0.064 -0.0549,0.1275 -0.0449,0.1875 0.098,0.016 0.1845,-0.134422 0.1875,-0.232421 0,-0.023 -0.008,-0.03774 -0.0176,-0.05274 0.283,0.396 0.53772,0.810094 0.76172,1.246094 -0.088,0.026 -0.16374,0.0683 -0.17774,0.154297 -0.02,0.112 0.0743,0.26125 -0.0937,0.28125 -0.106,0.014 -0.23095,-0.108625 -0.37695,-0.140625 -0.06,-0.014 -0.14145,0.016 -0.18945,0 -0.11,-0.038 -0.0925,-0.166422 -0.1875,-0.232422 -0.054,-0.038 -0.19721,-0.08375 -0.28321,-0.09375 -0.054,-0.006 -0.0827,0.008 -0.13867,0 -0.068,-0.008 -0.17837,-0.01288 -0.23437,-0.04687 -0.054,-0.034 -0.1725,-0.09463 -0.1875,-0.140625 -0.022,-0.074 0.13467,-0.170422 0.13867,-0.232422 0.004,-0.048 -0.0349,-0.06863 -0.0449,-0.140625 -0.008,-0.044 0.01,-0.112625 0,-0.140625 -0.014,-0.052 -0.10746,-0.09175 -0.18946,-0.09375 -0.072,0 -0.1255,0.04687 -0.1875,0.04687 -0.088,0.002 -0.265,-0.05688 -0.375,-0.04687 -0.066,0.006 -0.12745,0.04287 -0.18945,0.04687 -0.174,0.014 -0.28587,-0.01 -0.42187,0 -0.098,0.006 -0.283,0.05175 -0.375,0.09375 -0.046,0.022 -0.0806,0.06375 -0.14063,0.09375 -0.028,0.014 -0.0577,0.02892 -0.0937,0.04492 -0.056,0.026 -0.1325,0.0817 -0.1875,0.0957 -0.078,0.02 -0.18612,-0.006 -0.32812,0 -0.102,0.006 -0.27925,-0.01863 -0.28125,-0.140625 -0.002,-0.186 0.33962,-0.108625 0.51562,-0.140625 0.066,-0.014 0.1075,-0.09267 0.1875,-0.138672 0.038,-0.022 0.0577,-0.02483 0.0937,-0.04883 0.06,-0.042 0.17945,-0.1395 0.18945,-0.1875 0.008,-0.044 -0.0509,-0.108625 -0.0449,-0.140625 0.008,-0.042 0.0847,-0.08467 0.13867,-0.138672 0.084,-0.084 0.13038,-0.180375 0.23438,-0.234375 0.07,-0.038 0.20042,-0.03775 0.23242,-0.09375 0.008,-0.064 -0.002,-0.08262 0,-0.140625 0.044,-0.04 0.0597,-0.08575 0.0957,-0.09375 0.108,-0.024 0.20213,0.05092 0.32813,0.04492 0.054,-0.002 0.1295,-0.0069 0.1875,-0.04492 0.048,-0.032 0.0926,-0.0717 0.14062,-0.0957 0.052,-0.028 0.0766,-0.08975 0.14063,-0.09375 z m -12.28906,0.08984 c 0.026,-0.0025 0.0466,-0.0041 0.0566,0.0059 -0.032,0.132 -0.31788,0.09488 -0.42188,0.04687 0.006,-0.04948 0.0772,-0.04128 0.14063,-0.04687 h 0.002 c 0.046,-0.002 0.0906,0 0.14063,0 0.025,0 0.056,-0.0034 0.082,-0.0059 z m 13.09765,0.111328 c 0.0548,0.06396 0.11041,0.126254 0.16407,0.191406 -0.009,-0.005 -0.0233,-0.0086 -0.0312,-0.01563 -0.0532,-0.04178 -0.0821,-0.110727 -0.13282,-0.175781 z m -0.73828,0.117187 c -0.006,0.0025 -0.0115,0.0097 -0.0215,0.01367 -0.066,0.022 -0.098,0.171453 0,0.189453 0.046,-0.028 0.0589,-0.105453 0.0469,-0.189453 -0.013,-0.014 -0.0194,-0.01617 -0.0254,-0.01367 z m -13.0039,0.0078 c 0.0153,-0.0018 0.0308,-0.0031 0.0488,0.0039 -0.092,0.078 -0.21695,0.139453 -0.37695,0.189453 -0.076,0.024 -0.17545,0.03517 -0.18945,-0.04883 -0.016,-0.104 0.0726,-0.08375 0.14062,-0.09375 0.088,-0.01 0.22417,-0.04292 0.32617,-0.04492 l 0.002,-0.002 c 0.017,0 0.0336,-0.0022 0.0488,-0.0039 z m 12.93554,0.287109 c -0.0312,0.0094 -0.0584,0.0096 -0.0918,0.04492 0.002,0.112 0.022,0.185203 0,0.283203 0.064,0.124 0.19846,0.03713 0.23046,-0.04687 0.0377,-0.206519 -0.0416,-0.305298 -0.13671,-0.28125 z m 0.88867,0.5625 c -0.088,-0.004 -0.17847,0.0029 -0.23046,0.04492 0.074,0.12 0.209,0.159453 0.375,0.189453 0.06,-0.044 0.0658,-0.156422 0.0937,-0.232422 -0.072,0 -0.14638,0.004 -0.23438,0 z m -17.57031,4.121094 c 0.11196,0.102195 0.18999,0.271273 0.32422,0.337891 0.05,0.026 0.12445,0.03483 0.18945,0.04883 0.052,0.01 0.0906,0.02892 0.14063,0.04492 0.106,0.036 0.24412,0.0577 0.32812,0.0957 0.128,0.056 0.21813,0.262172 0.32813,0.326172 0.006,0.064 -0.02,0.1395 0,0.1875 0.052,0.07 0.15037,0.09463 0.23437,0.140625 0.102,0.056 0.13447,0.188422 0.23047,0.232422 0.034,0.014 0.0906,-0.016 0.14258,0 0.132,0.04 0.16725,0.222453 0.28125,0.189453 0.074,-0.022 0.0837,-0.117453 0.0957,-0.189453 0.05,-0.054 0.1095,-0.140626 0.1875,-0.140625 0.124,-0.002 0.1415,0.161203 0.1875,0.283203 0.026,0.068 0.0757,0.1155 0.0937,0.1875 0.03,0.124 0.026,0.490453 0,0.564453 -0.032,0.092 -0.15837,0.130469 -0.23437,0.230469 -0.036,0.048 -0.0658,0.110578 -0.0937,0.142578 -0.048,0.06 -0.10267,0.08662 -0.13867,0.140625 -0.02,0.03 -0.0289,0.09667 -0.0469,0.138672 -0.06,0.128 -0.14375,0.222953 -0.0937,0.376953 0.02,0.062 0.0937,0.1135 0.0937,0.1875 0,0.088 -0.1735,0.138375 -0.1875,0.234375 -0.01,0.07 0.0717,0.18725 0.0937,0.28125 0.016,0.07 0.1445,0.1415 0.1875,0.1875 0.07,0.078 0.12545,0.183203 0.18945,0.283203 0.126,0.194 0.20218,0.419375 0.32618,0.609375 0.066,0.098 0.19037,0.17725 0.23437,0.28125 0.022,0.052 -0.02,0.1395 0,0.1875 0.072,0.162 0.4005,0.341875 0.5625,0.421875 0.076,0.038 0.16438,0.0557 0.23438,0.0957 0.106,0.06 0.321,0.18725 0.375,0.28125 0.048,0.084 0.0697,0.287875 0.0937,0.421875 0.03,0.176 -0.008,0.325625 0,0.515625 0.006,0.104 0.0469,0.17725 0.0469,0.28125 0,0.036 0.002,0.104625 0,0.140625 -0.002,0.124 0.01,0.249 0,0.375 -0.006,0.068 -0.004,0.131453 0,0.189453 0.006,0.062 0.0409,0.08467 0.0449,0.138672 0.004,0.058 -0.0509,0.143453 -0.0449,0.189453 0.014,0.126 0.11663,0.210172 0.14063,0.326172 0.02,0.092 0.0569,0.311875 0.0449,0.421875 -0.008,0.058 -0.0369,0.125453 -0.0449,0.189453 -0.006,0.05 0.008,0.09267 0,0.138672 -0.006,0.045 -0.0173,0.08209 -0.0293,0.121094 -2.782,-1.772 -4.62695,-4.874641 -4.62695,-8.431641 0,-0.479 0.0454,-0.94625 0.10937,-1.40625 z m 3.92188,1.087891 c 0.0598,0.0038 0.037,0.137937 -0.0312,0.148437 -0.074,0.01 -0.072,-0.106625 0,-0.140625 0.012,-0.0055 0.0227,-0.0084 0.0312,-0.0078 z"
       transform="translate(-118.4967,-1.0001)" />
  </g>
</svg>
