<?xml version="1.0" encoding="UTF-8" standalone="no"?>
<svg
   width="43.546024"
   height="55.538212"
   version="1.1"
   viewBox="0 0 43.546024 55.538212"
   id="svg3"
   xmlns:xlink="http://www.w3.org/1999/xlink"
   xmlns="http://www.w3.org/2000/svg"
   xmlns:svg="http://www.w3.org/2000/svg">
  <defs
     id="defs3">
    <linearGradient
       id="linearGradient9">
      <stop
         style="stop-color:#00abff;stop-opacity:0;"
         offset="0"
         id="stop10" />
      <stop
         style="stop-color:#00abff;stop-opacity:1;"
         offset="1"
         id="stop9" />
    </linearGradient>
    <linearGradient
       xlink:href="#linearGradient9"
       id="linearGradient10"
       x1="150.61324"
       y1="65.000099"
       x2="150.61324"
       y2="25.231983"
       gradientUnits="userSpaceOnUse" />
    <filter
       style="color-interpolation-filters:sRGB"
       id="filter10"
       x="-0.030947896"
       y="-0.023945386"
       width="1.0618958"
       height="1.0478908">
      <feGaussianBlur
         stdDeviation="0.52879393"
         id="feGaussianBlur10" />
    </filter>
  </defs>
  <g
     id="g8"
     transform="translate(-10.222995,-4.7308946)">
    <path
       id="path7"
       style="display:inline;opacity:0.6;fill:#00abff;fill-opacity:1;stroke:none;filter:url(#filter10)"
       d="m 151.80394,7.0001 -0.004,0.00195 -19.35351,0.00391 c -1.35355,0 -2.45703,1.1084593 -2.45703,2.4648437 V 57.533303 c 0,1.356386 1.10343,2.466797 2.45703,2.466797 h 36.09375 c 1.35354,0 2.45703,-1.110412 2.45703,-2.466797 V 26.183694 c 0,-0.440775 -0.10327,-0.93784 -0.29297,-1.464844 h 0.0606 l -0.35547,-0.722656 c -0.0256,-0.05172 -0.0587,-0.104197 -0.0859,-0.15625 l -0.0605,-0.125 h -0.008 c -0.33862,-0.618179 -0.7885,-1.252822 -1.38476,-1.84961 l -0.002,-0.002 L 156.26488,9.1524437 C 155.67159,8.4151755 155.0115,7.918962 154.36644,7.59385 154.28114,7.550863 154.19507,7.50998 154.11058,7.4727562 l -0.0859,-0.037109 -0.0312,-0.00195 C 153.20882,7.1007523 152.46804,7.0001 151.90941,7.0001 Z m 0.11523,1.0019531 c 0.37972,7.572e-4 0.91296,0.1248404 1.44727,0.3105469 v 13.935547 c 0,1.22231 0.89866,2.235584 2.06641,2.425781 0.12731,0.02382 0.25744,0.03746 0.39062,0.04102 0.0224,5.98e-4 0.0439,0.0039 0.0664,0.0039 h 13.69336 c 0.23563,0.562366 0.41406,1.117889 0.41406,1.464844 v 31.349609 c 0,0.822556 -0.64278,1.466797 -1.45703,1.466797 h -36.09375 c -0.81435,0 -1.45703,-0.644183 -1.45703,-1.466797 V 9.4708031 c 0,-0.8225555 0.64277,-1.4667967 1.45703,-1.4667969 z m 2.47071,0.9238281 c 0.38082,0.2545633 0.76637,0.4323997 1.12695,0.8886719 l 0.0176,0.021484 12.62695,12.7343749 c 0.37192,0.371984 0.57528,0.75943 0.82813,1.144532 h -13.16602 c -0.0687,0 -0.13319,-0.01063 -0.19922,-0.01953 -0.70854,-0.123274 -1.23436,-0.730184 -1.23437,-1.478515 z m -4.20899,19.5175778 c -1.18331,-0.06399 -2.2864,1.162657 -3.19336,0.589844 -0.20954,0.959584 -1.24719,0.214667 -1.20117,1.015625 -1.25333,0.97525 -2.07056,2.577714 -1.97656,4.201172 -0.20563,1.275854 0.4367,2.875135 -0.36523,3.925781 -0.24969,1.231791 -0.0499,2.582792 0.36914,3.765625 0.86852,1.319917 2.21404,2.407713 2.51562,4.060547 0.14198,1.535333 -1.51584,2.392308 -2.53516,3.228516 -1.59408,1.100584 -3.28731,1.94514 -5.04687,2.74414 v 2.9375 h 23.5 v -2.9375 a 19.920167,19.920167 0 0 1 -6.37305,-4.443359 c -1.27879,-1.227875 -0.0383,-2.985344 0.77149,-4.089844 1.07316,-0.902792 1.63083,-2.223808 1.64258,-3.626953 0.35641,-1.381605 -0.71649,-2.421073 -0.4668,-3.824219 -0.0343,-1.779145 0.22662,-3.919406 -1.26367,-5.214843 -1.6783,-1.460917 -3.9424,-2.218532 -6.13868,-2.300782 -0.0796,-0.01665 -0.15939,-0.02698 -0.23828,-0.03125 z"
       transform="translate(-118.4973,-1.0001)" />
    <path
       id="path9"
       style="fill:url(#linearGradient10);fill-opacity:1;stroke:none"
       d="m 151.80394,7.0001 -0.004,0.00195 -19.35351,0.00391 c -1.35355,0 -2.45703,1.1084593 -2.45703,2.4648437 V 57.533303 c 0,1.356386 1.10343,2.466797 2.45703,2.466797 h 36.09375 c 1.35354,0 2.45703,-1.110412 2.45703,-2.466797 V 26.183694 c 0,-0.440775 -0.10327,-0.93784 -0.29297,-1.464844 h 0.0606 l -0.35547,-0.722656 c -0.0256,-0.05172 -0.0587,-0.104197 -0.0859,-0.15625 l -0.0605,-0.125 h -0.008 c -0.33862,-0.618179 -0.7885,-1.252822 -1.38476,-1.84961 l -0.002,-0.002 L 156.26488,9.1524437 C 155.67159,8.4151755 155.0115,7.918962 154.36644,7.59385 154.28114,7.550863 154.19507,7.50998 154.11058,7.4727562 l -0.0859,-0.037109 -0.0312,-0.00195 C 153.20882,7.1007523 152.46804,7.0001 151.90941,7.0001 Z m 0.11523,1.0019531 c 0.37972,7.572e-4 0.91296,0.1248404 1.44727,0.3105469 v 13.935547 c 0,1.22231 0.89866,2.235584 2.06641,2.425781 0.12731,0.02382 0.25744,0.03746 0.39062,0.04102 0.0224,5.98e-4 0.0439,0.0039 0.0664,0.0039 h 13.69336 c 0.23563,0.562366 0.41406,1.117889 0.41406,1.464844 v 31.349609 c 0,0.822556 -0.64278,1.466797 -1.45703,1.466797 h -36.09375 c -0.81435,0 -1.45703,-0.644183 -1.45703,-1.466797 V 9.4708031 c 0,-0.8225555 0.64277,-1.4667967 1.45703,-1.4667969 z m 2.47071,0.9238281 c 0.38082,0.2545633 0.76637,0.4323997 1.12695,0.8886719 l 0.0176,0.021484 12.62695,12.7343749 c 0.37192,0.371984 0.57528,0.75943 0.82813,1.144532 h -13.16602 c -0.0687,0 -0.13319,-0.01063 -0.19922,-0.01953 -0.70854,-0.123274 -1.23436,-0.730184 -1.23437,-1.478515 z m -4.20899,19.5175778 c -1.18331,-0.06399 -2.2864,1.162657 -3.19336,0.589844 -0.20954,0.959584 -1.24719,0.214667 -1.20117,1.015625 -1.25333,0.97525 -2.07056,2.577714 -1.97656,4.201172 -0.20563,1.275854 0.4367,2.875135 -0.36523,3.925781 -0.24969,1.231791 -0.0499,2.582792 0.36914,3.765625 0.86852,1.319917 2.21404,2.407713 2.51562,4.060547 0.14198,1.535333 -1.51584,2.392308 -2.53516,3.228516 -1.59408,1.100584 -3.28731,1.94514 -5.04687,2.74414 v 2.9375 h 23.5 v -2.9375 a 19.920167,19.920167 0 0 1 -6.37305,-4.443359 c -1.27879,-1.227875 -0.0383,-2.985344 0.77149,-4.089844 1.07316,-0.902792 1.63083,-2.223808 1.64258,-3.626953 0.35641,-1.381605 -0.71649,-2.421073 -0.4668,-3.824219 -0.0343,-1.779145 0.22662,-3.919406 -1.26367,-5.214843 -1.6783,-1.460917 -3.9424,-2.218532 -6.13868,-2.300782 -0.0796,-0.01665 -0.15939,-0.02698 -0.23828,-0.03125 z"
       transform="translate(-118.4973,-1.0001)" />
  </g>
</svg>
