<?xml version="1.0" encoding="UTF-8" standalone="no"?>
<svg
   width="43.546024"
   height="55.538212"
   version="1.1"
   viewBox="0 0 43.546024 55.538212"
   id="svg3"
   xmlns:xlink="http://www.w3.org/1999/xlink"
   xmlns="http://www.w3.org/2000/svg"
   xmlns:svg="http://www.w3.org/2000/svg">
  <defs
     id="defs3">
    <linearGradient
       id="linearGradient6">
      <stop
         style="stop-color:#00abff;stop-opacity:0;"
         offset="0"
         id="stop7" />
      <stop
         style="stop-color:#00abff;stop-opacity:1;"
         offset="1"
         id="stop6" />
    </linearGradient>
    <linearGradient
       xlink:href="#linearGradient6"
       id="linearGradient7"
       x1="150.4973"
       y1="65.000099"
       x2="150.4973"
       y2="24.420389"
       gradientUnits="userSpaceOnUse" />
    <filter
       style="color-interpolation-filters:sRGB"
       id="filter7"
       x="-0.030947896"
       y="-0.023945386"
       width="1.0618958"
       height="1.0478908">
      <feGaussianBlur
         stdDeviation="0.52879393"
         id="feGaussianBlur7" />
    </filter>
  </defs>
  <g
     id="g7"
     transform="translate(-10.222995,-4.7308946)">
    <path
       id="path1"
       style="display:inline;opacity:0.6;fill:#00abff;fill-opacity:1;stroke:none;filter:url(#filter7)"
       d="m 151.80394,7.0001 -0.004,0.00195 -19.35351,0.00391 c -1.35355,0 -2.45703,1.1084593 -2.45703,2.4648437 V 57.533303 c 0,1.356386 1.10343,2.466797 2.45703,2.466797 h 36.09375 c 1.35354,0 2.45703,-1.110412 2.45703,-2.466797 V 26.183694 c 0,-0.440775 -0.10327,-0.93784 -0.29297,-1.464844 h 0.0606 l -0.35547,-0.722656 c -0.0256,-0.05172 -0.0587,-0.104197 -0.0859,-0.15625 l -0.0605,-0.125 h -0.008 c -0.33862,-0.618179 -0.7885,-1.252822 -1.38476,-1.84961 l -0.002,-0.002 L 156.26488,9.1524437 C 155.67159,8.4151755 155.0115,7.918962 154.36644,7.59385 154.28114,7.550863 154.19507,7.50998 154.11058,7.4727562 l -0.0859,-0.037109 -0.0312,-0.00195 C 153.20882,7.1007523 152.46804,7.0001 151.90941,7.0001 Z m 0.11523,1.0019531 c 0.37972,7.572e-4 0.91296,0.1248404 1.44727,0.3105469 v 13.935547 c 0,1.22231 0.89866,2.235584 2.06641,2.425781 0.12731,0.02382 0.25744,0.03746 0.39062,0.04102 0.0224,5.98e-4 0.0439,0.0039 0.0664,0.0039 h 13.69336 c 0.23563,0.562366 0.41406,1.117889 0.41406,1.464844 v 31.349609 c 0,0.822556 -0.64278,1.466797 -1.45703,1.466797 h -36.09375 c -0.81435,0 -1.45703,-0.644183 -1.45703,-1.466797 V 9.4708031 c 0,-0.8225555 0.64277,-1.4667967 1.45703,-1.4667969 z m 2.47071,0.9238281 c 0.38082,0.2545633 0.76637,0.4323997 1.12695,0.8886719 l 0.0176,0.021484 12.62695,12.7343749 c 0.37192,0.371984 0.57528,0.75943 0.82813,1.144532 h -13.16602 c -0.0687,0 -0.13319,-0.01063 -0.19922,-0.01953 -0.70854,-0.123274 -1.23436,-0.730184 -1.23437,-1.478515 z m -3.71485,21.1230468 c -2.41493,0 -4.35525,0.59874 -5.82226,1.794922 -1.46702,1.196181 -2.34722,2.912107 -2.64063,5.146484 l 3.11328,0.203125 c 0.15799,-1.376737 0.69966,-2.460068 1.625,-3.25 0.92535,-0.789931 2.17796,-1.185546 3.75782,-1.185546 1.57986,0 2.8049,0.372394 3.67383,1.117187 0.8802,0.744792 1.32031,1.760415 1.32031,3.046875 0,0.665799 -0.10786,1.247612 -0.32227,1.744141 -0.20312,0.496528 -0.47396,0.940971 -0.8125,1.335937 -0.33854,0.394965 -0.72786,0.756727 -1.16797,1.083985 -0.42882,0.315972 -0.86892,0.637586 -1.32031,0.964843 -0.45139,0.315972 -0.89583,0.654514 -1.33594,1.015625 -0.4401,0.349828 -0.83572,0.749783 -1.18554,1.201172 -0.34983,0.451389 -0.63759,0.971787 -0.86328,1.558594 -0.21442,0.586806 -0.33291,1.268228 -0.35547,2.046875 h 2.96289 c 0.0113,-0.767362 0.21441,-1.472004 0.60937,-2.115234 0.39497,-0.654515 0.99805,-1.274523 1.81055,-1.861329 l 1.35351,-1 c 1.04949,-0.767361 1.80686,-1.431857 2.26954,-1.996093 0.46267,-0.564237 0.81814,-1.179904 1.0664,-1.845703 0.24827,-0.6658 0.3711,-1.421224 0.3711,-2.267579 0,-2.110245 -0.72157,-3.758462 -2.16602,-4.943359 -1.44445,-1.196182 -3.42491,-1.794922 -5.94141,-1.794922 z m -2.4707,20.804688 v 3.402343 h 3.30078 v -3.402343 z"
       transform="translate(-118.4973,-1.0001)" />
    <path
       id="path6"
       style="fill:url(#linearGradient7);fill-opacity:1;stroke:none"
       d="m 151.80394,7.0001 -0.004,0.00195 -19.35351,0.00391 c -1.35355,0 -2.45703,1.1084593 -2.45703,2.4648437 V 57.533303 c 0,1.356386 1.10343,2.466797 2.45703,2.466797 h 36.09375 c 1.35354,0 2.45703,-1.110412 2.45703,-2.466797 V 26.183694 c 0,-0.440775 -0.10327,-0.93784 -0.29297,-1.464844 h 0.0606 l -0.35547,-0.722656 c -0.0256,-0.05172 -0.0587,-0.104197 -0.0859,-0.15625 l -0.0605,-0.125 h -0.008 c -0.33862,-0.618179 -0.7885,-1.252822 -1.38476,-1.84961 l -0.002,-0.002 L 156.26488,9.1524437 C 155.67159,8.4151755 155.0115,7.918962 154.36644,7.59385 154.28114,7.550863 154.19507,7.50998 154.11058,7.4727562 l -0.0859,-0.037109 -0.0312,-0.00195 C 153.20882,7.1007523 152.46804,7.0001 151.90941,7.0001 Z m 0.11523,1.0019531 c 0.37972,7.572e-4 0.91296,0.1248404 1.44727,0.3105469 v 13.935547 c 0,1.22231 0.89866,2.235584 2.06641,2.425781 0.12731,0.02382 0.25744,0.03746 0.39062,0.04102 0.0224,5.98e-4 0.0439,0.0039 0.0664,0.0039 h 13.69336 c 0.23563,0.562366 0.41406,1.117889 0.41406,1.464844 v 31.349609 c 0,0.822556 -0.64278,1.466797 -1.45703,1.466797 h -36.09375 c -0.81435,0 -1.45703,-0.644183 -1.45703,-1.466797 V 9.4708031 c 0,-0.8225555 0.64277,-1.4667967 1.45703,-1.4667969 z m 2.47071,0.9238281 c 0.38082,0.2545633 0.76637,0.4323997 1.12695,0.8886719 l 0.0176,0.021484 12.62695,12.7343749 c 0.37192,0.371984 0.57528,0.75943 0.82813,1.144532 h -13.16602 c -0.0687,0 -0.13319,-0.01063 -0.19922,-0.01953 -0.70854,-0.123274 -1.23436,-0.730184 -1.23437,-1.478515 z m -3.71485,21.1230468 c -2.41493,0 -4.35525,0.59874 -5.82226,1.794922 -1.46702,1.196181 -2.34722,2.912107 -2.64063,5.146484 l 3.11328,0.203125 c 0.15799,-1.376737 0.69966,-2.460068 1.625,-3.25 0.92535,-0.789931 2.17796,-1.185546 3.75782,-1.185546 1.57986,0 2.8049,0.372394 3.67383,1.117187 0.8802,0.744792 1.32031,1.760415 1.32031,3.046875 0,0.665799 -0.10786,1.247612 -0.32227,1.744141 -0.20312,0.496528 -0.47396,0.940971 -0.8125,1.335937 -0.33854,0.394965 -0.72786,0.756727 -1.16797,1.083985 -0.42882,0.315972 -0.86892,0.637586 -1.32031,0.964843 -0.45139,0.315972 -0.89583,0.654514 -1.33594,1.015625 -0.4401,0.349828 -0.83572,0.749783 -1.18554,1.201172 -0.34983,0.451389 -0.63759,0.971787 -0.86328,1.558594 -0.21442,0.586806 -0.33291,1.268228 -0.35547,2.046875 h 2.96289 c 0.0113,-0.767362 0.21441,-1.472004 0.60937,-2.115234 0.39497,-0.654515 0.99805,-1.274523 1.81055,-1.861329 l 1.35351,-1 c 1.04949,-0.767361 1.80686,-1.431857 2.26954,-1.996093 0.46267,-0.564237 0.81814,-1.179904 1.0664,-1.845703 0.24827,-0.6658 0.3711,-1.421224 0.3711,-2.267579 0,-2.110245 -0.72157,-3.758462 -2.16602,-4.943359 -1.44445,-1.196182 -3.42491,-1.794922 -5.94141,-1.794922 z m -2.4707,20.804688 v 3.402343 h 3.30078 v -3.402343 z"
       transform="translate(-118.4973,-1.0001)" />
  </g>
</svg>
