<?xml version="1.0" encoding="UTF-8" standalone="no"?>
<svg
   width="43.546024"
   height="55.538212"
   version="1.1"
   viewBox="0 0 43.546024 55.538212"
   id="svg3"
   xmlns:xlink="http://www.w3.org/1999/xlink"
   xmlns="http://www.w3.org/2000/svg"
   xmlns:svg="http://www.w3.org/2000/svg">
  <defs
     id="defs3">
    <linearGradient
       id="linearGradient18">
      <stop
         style="stop-color:#039bfc;stop-opacity:0;"
         offset="0"
         id="stop19" />
      <stop
         style="stop-color:#039bfc;stop-opacity:1;"
         offset="1"
         id="stop18" />
    </linearGradient>
    <linearGradient
       xlink:href="#linearGradient18"
       id="linearGradient19"
       x1="150.96107"
       y1="65.000099"
       x2="150.96107"
       y2="22.217491"
       gradientUnits="userSpaceOnUse" />
    <filter
       style="color-interpolation-filters:sRGB"
       id="filter19"
       x="-0.030947896"
       y="-0.023945386"
       width="1.0618958"
       height="1.0478908">
      <feGaussianBlur
         stdDeviation="0.52879393"
         id="feGaussianBlur19" />
    </filter>
  </defs>
  <g
     id="g19"
     transform="translate(-10.222995,-4.7308946)">
    <path
       id="path1"
       style="display:inline;opacity:0.6;fill:#039bfc;filter:url(#filter19)"
       d="m 151.80394,7.0001 -0.004,0.00195 -19.35351,0.00391 c -1.35355,0 -2.45703,1.1084593 -2.45703,2.4648437 V 57.533303 c 0,1.356386 1.10343,2.466797 2.45703,2.466797 h 36.09375 c 1.35354,0 2.45703,-1.110412 2.45703,-2.466797 V 26.183694 c 0,-0.440775 -0.10327,-0.93784 -0.29297,-1.464844 h 0.0606 l -0.35547,-0.722656 c -0.0256,-0.05172 -0.0587,-0.104197 -0.0859,-0.15625 l -0.0605,-0.125 h -0.008 c -0.33862,-0.618179 -0.7885,-1.252822 -1.38476,-1.84961 l -0.002,-0.002 L 156.26488,9.1524437 C 155.67159,8.4151755 155.0115,7.918962 154.36644,7.59385 154.28114,7.550863 154.19507,7.50998 154.11058,7.4727562 l -0.0859,-0.037109 -0.0312,-0.00195 C 153.20882,7.1007523 152.46804,7.0001 151.90941,7.0001 Z m 0.11523,1.0019531 c 0.37972,7.572e-4 0.91296,0.1248404 1.44727,0.3105469 v 13.935547 c 0,1.22231 0.89866,2.235584 2.06641,2.425781 0.12731,0.02382 0.25744,0.03746 0.39062,0.04102 0.0224,5.98e-4 0.0439,0.0039 0.0664,0.0039 h 13.69336 c 0.23563,0.562366 0.41406,1.117889 0.41406,1.464844 v 31.349609 c 0,0.822556 -0.64278,1.466797 -1.45703,1.466797 h -36.09375 c -0.81435,0 -1.45703,-0.644183 -1.45703,-1.466797 V 9.4708031 c 0,-0.8225555 0.64277,-1.4667967 1.45703,-1.4667969 z m 2.47071,0.9238281 c 0.38082,0.2545633 0.76637,0.4323997 1.12695,0.8886719 l 0.0176,0.021484 12.62695,12.7343749 c 0.37192,0.371984 0.57528,0.75943 0.82813,1.144532 h -13.16602 c -0.0687,0 -0.13319,-0.01063 -0.19922,-0.01953 -0.70854,-0.123274 -1.23436,-0.730184 -1.23437,-1.478515 z m -7.08789,17.1640628 c -2.64789,0 -4.79492,2.147319 -4.79492,4.794922 0,2.647602 2.14717,4.794922 4.79492,4.794922 2.64788,0 4.79297,-2.14732 4.79297,-4.794922 0,-2.647603 -2.14523,-4.794922 -4.79297,-4.794922 z m 7.98437,3.109375 0.006,0.0059 c -0.6205,0 -1.20396,0.142771 -1.73242,0.380859 0.0873,0.418775 0.13477,0.85152 0.13477,1.294922 0,1.761262 -0.72695,3.363231 -1.89258,4.523438 0.73511,1.118661 2.01411,1.869141 3.48437,1.869141 2.28961,0 4.14453,-1.805794 4.14453,-4.035157 0,-2.229362 -1.85509,-4.039062 -4.14453,-4.039062 z m -7.98437,9.669922 c -9.58904,0.0054 -9.58985,6.398437 -9.58985,6.398437 v 1.597656 h 19.17774 v -1.597656 c 0,0 7.8e-4,-6.408639 -9.58789,-6.392578 z m 7.99023,0.0039 v 0.002 c -0.31339,0 -0.59548,0.02099 -0.88476,0.03516 1.11477,0.638709 1.96415,1.400359 2.5625,2.199219 1.5022,2.013606 1.51757,4.15625 1.51757,4.15625 h 4.79493 v -1.599609 c 0,0 1.5e-4,-4.792969 -7.99024,-4.792969 z M 142.218,50.058694 143.8391,55.5626 h 0.89062 c 0.66407,-2.40625 1.01953,-3.710938 1.06641,-3.914062 0.0469,-0.203126 0.10417,-0.45573 0.17187,-0.757813 0.1198,0.565104 0.21094,0.957031 0.27344,1.175781 l 0.95313,3.496094 h 0.89062 l 1.62109,-5.503906 h -0.77734 c -0.6875,2.463541 -1.05338,3.790364 -1.09766,3.980469 -0.0443,0.1875 -0.10156,0.43099 -0.17187,0.730468 l -0.0352,0.136719 c -0.0833,-0.388021 -0.19791,-0.861979 -0.34375,-1.421875 l -0.95703,-3.425781 h -0.71484 c -0.64063,2.268229 -1.00261,3.571615 -1.08594,3.910156 -0.0807,0.338542 -0.15234,0.651042 -0.21484,0.9375 -0.099,-0.463541 -0.20703,-0.914062 -0.32422,-1.351562 l -0.98828,-3.496094 z m 8.25391,0 V 55.5626 h 0.74609 v -5.503906 z m 2.14062,0 V 55.5626 h 0.7461 v -2.109375 l 0.71875,-0.546875 2.19922,2.65625 h 0.92578 l -2.65625,-3.113281 2.34375,-2.390625 h -0.87891 l -2.65234,2.757812 v -2.757812 z m 5.41797,0 V 55.5626 h 0.7461 v -5.503906 z"
       transform="translate(-118.4973,-1.0001)" />
    <path
       id="path18"
       style="fill:url(#linearGradient19);fill-opacity:1"
       d="m 151.80394,7.0001 -0.004,0.00195 -19.35351,0.00391 c -1.35355,0 -2.45703,1.1084593 -2.45703,2.4648437 V 57.533303 c 0,1.356386 1.10343,2.466797 2.45703,2.466797 h 36.09375 c 1.35354,0 2.45703,-1.110412 2.45703,-2.466797 V 26.183694 c 0,-0.440775 -0.10327,-0.93784 -0.29297,-1.464844 h 0.0606 l -0.35547,-0.722656 c -0.0256,-0.05172 -0.0587,-0.104197 -0.0859,-0.15625 l -0.0605,-0.125 h -0.008 c -0.33862,-0.618179 -0.7885,-1.252822 -1.38476,-1.84961 l -0.002,-0.002 L 156.26488,9.1524437 C 155.67159,8.4151755 155.0115,7.918962 154.36644,7.59385 154.28114,7.550863 154.19507,7.50998 154.11058,7.4727562 l -0.0859,-0.037109 -0.0312,-0.00195 C 153.20882,7.1007523 152.46804,7.0001 151.90941,7.0001 Z m 0.11523,1.0019531 c 0.37972,7.572e-4 0.91296,0.1248404 1.44727,0.3105469 v 13.935547 c 0,1.22231 0.89866,2.235584 2.06641,2.425781 0.12731,0.02382 0.25744,0.03746 0.39062,0.04102 0.0224,5.98e-4 0.0439,0.0039 0.0664,0.0039 h 13.69336 c 0.23563,0.562366 0.41406,1.117889 0.41406,1.464844 v 31.349609 c 0,0.822556 -0.64278,1.466797 -1.45703,1.466797 h -36.09375 c -0.81435,0 -1.45703,-0.644183 -1.45703,-1.466797 V 9.4708031 c 0,-0.8225555 0.64277,-1.4667967 1.45703,-1.4667969 z m 2.47071,0.9238281 c 0.38082,0.2545633 0.76637,0.4323997 1.12695,0.8886719 l 0.0176,0.021484 12.62695,12.7343749 c 0.37192,0.371984 0.57528,0.75943 0.82813,1.144532 h -13.16602 c -0.0687,0 -0.13319,-0.01063 -0.19922,-0.01953 -0.70854,-0.123274 -1.23436,-0.730184 -1.23437,-1.478515 z m -7.08789,17.1640628 c -2.64789,0 -4.79492,2.147319 -4.79492,4.794922 0,2.647602 2.14717,4.794922 4.79492,4.794922 2.64788,0 4.79297,-2.14732 4.79297,-4.794922 0,-2.647603 -2.14523,-4.794922 -4.79297,-4.794922 z m 7.98437,3.109375 0.006,0.0059 c -0.6205,0 -1.20396,0.142771 -1.73242,0.380859 0.0873,0.418775 0.13477,0.85152 0.13477,1.294922 0,1.761262 -0.72695,3.363231 -1.89258,4.523438 0.73511,1.118661 2.01411,1.869141 3.48437,1.869141 2.28961,0 4.14453,-1.805794 4.14453,-4.035157 0,-2.229362 -1.85509,-4.039062 -4.14453,-4.039062 z m -7.98437,9.669922 c -9.58904,0.0054 -9.58985,6.398437 -9.58985,6.398437 v 1.597656 h 19.17774 v -1.597656 c 0,0 7.8e-4,-6.408639 -9.58789,-6.392578 z m 7.99023,0.0039 v 0.002 c -0.31339,0 -0.59548,0.02099 -0.88476,0.03516 1.11477,0.638709 1.96415,1.400359 2.5625,2.199219 1.5022,2.013606 1.51757,4.15625 1.51757,4.15625 h 4.79493 v -1.599609 c 0,0 1.5e-4,-4.792969 -7.99024,-4.792969 z M 142.218,50.058694 143.8391,55.5626 h 0.89062 c 0.66407,-2.40625 1.01953,-3.710938 1.06641,-3.914062 0.0469,-0.203126 0.10417,-0.45573 0.17187,-0.757813 0.1198,0.565104 0.21094,0.957031 0.27344,1.175781 l 0.95313,3.496094 h 0.89062 l 1.62109,-5.503906 h -0.77734 c -0.6875,2.463541 -1.05338,3.790364 -1.09766,3.980469 -0.0443,0.1875 -0.10156,0.43099 -0.17187,0.730468 l -0.0352,0.136719 c -0.0833,-0.388021 -0.19791,-0.861979 -0.34375,-1.421875 l -0.95703,-3.425781 h -0.71484 c -0.64063,2.268229 -1.00261,3.571615 -1.08594,3.910156 -0.0807,0.338542 -0.15234,0.651042 -0.21484,0.9375 -0.099,-0.463541 -0.20703,-0.914062 -0.32422,-1.351562 l -0.98828,-3.496094 z m 8.25391,0 V 55.5626 h 0.74609 v -5.503906 z m 2.14062,0 V 55.5626 h 0.7461 v -2.109375 l 0.71875,-0.546875 2.19922,2.65625 h 0.92578 l -2.65625,-3.113281 2.34375,-2.390625 h -0.87891 l -2.65234,2.757812 v -2.757812 z m 5.41797,0 V 55.5626 h 0.7461 v -5.503906 z"
       transform="translate(-118.4973,-1.0001)" />
  </g>
</svg>
