<?xml version="1.0" encoding="UTF-8" standalone="no"?>
<svg
   width="43.546024"
   height="55.538212"
   version="1.1"
   viewBox="0 0 43.546024 55.538212"
   id="svg3"
   xmlns:xlink="http://www.w3.org/1999/xlink"
   xmlns="http://www.w3.org/2000/svg"
   xmlns:svg="http://www.w3.org/2000/svg">
  <defs
     id="defs3">
    <linearGradient
       id="linearGradient8">
      <stop
         style="stop-color:#00abff;stop-opacity:0;"
         offset="0"
         id="stop9" />
      <stop
         style="stop-color:#00abff;stop-opacity:1;"
         offset="1"
         id="stop8" />
    </linearGradient>
    <linearGradient
       xlink:href="#linearGradient8"
       id="linearGradient9"
       x1="149.45383"
       y1="65.000099"
       x2="149.45383"
       y2="25.116041"
       gradientUnits="userSpaceOnUse" />
    <filter
       style="color-interpolation-filters:sRGB"
       id="filter9"
       x="-0.030947896"
       y="-0.023945386"
       width="1.0618958"
       height="1.0478908">
      <feGaussianBlur
         stdDeviation="0.52879393"
         id="feGaussianBlur9" />
    </filter>
  </defs>
  <g
     id="g9"
     transform="translate(-10.222995,-4.7308946)">
    <path
       id="path1"
       style="display:inline;opacity:0.6;fill:#00abff;fill-opacity:1;stroke:none;filter:url(#filter9)"
       d="m 151.80394,7.0001 -0.004,0.00195 -19.35351,0.00391 c -1.35355,0 -2.45703,1.1084593 -2.45703,2.4648437 V 57.533303 c 0,1.356386 1.10343,2.466797 2.45703,2.466797 h 36.09375 c 1.35354,0 2.45703,-1.110412 2.45703,-2.466797 V 26.183694 c 0,-0.440775 -0.10327,-0.93784 -0.29297,-1.464844 h 0.0606 l -0.35547,-0.722656 c -0.0256,-0.05172 -0.0587,-0.104197 -0.0859,-0.15625 l -0.0605,-0.125 h -0.008 c -0.33862,-0.618179 -0.7885,-1.252822 -1.38476,-1.84961 l -0.002,-0.002 L 156.26488,9.1524437 C 155.67159,8.4151755 155.0115,7.918962 154.36644,7.59385 154.28114,7.550863 154.19507,7.50998 154.11058,7.4727562 l -0.0859,-0.037109 -0.0312,-0.00195 C 153.20882,7.1007523 152.46804,7.0001 151.90941,7.0001 Z m 0.11523,1.0019531 c 0.37972,7.572e-4 0.91296,0.1248404 1.44727,0.3105469 v 13.935547 c 0,1.22231 0.89866,2.235584 2.06641,2.425781 0.12731,0.02382 0.25744,0.03746 0.39062,0.04102 0.0224,5.98e-4 0.0439,0.0039 0.0664,0.0039 h 13.69336 c 0.23563,0.562366 0.41406,1.117889 0.41406,1.464844 v 31.349609 c 0,0.822556 -0.64278,1.466797 -1.45703,1.466797 h -36.09375 c -0.81435,0 -1.45703,-0.644183 -1.45703,-1.466797 V 9.4708031 c 0,-0.8225555 0.64277,-1.4667967 1.45703,-1.4667969 z m 2.47071,0.9238281 c 0.38082,0.2545633 0.76637,0.4323997 1.12695,0.8886719 l 0.0176,0.021484 12.62695,12.7343749 c 0.37192,0.371984 0.57528,0.75943 0.82813,1.144532 h -13.16602 c -0.0687,0 -0.13319,-0.01063 -0.19922,-0.01953 -0.70854,-0.123274 -1.23436,-0.730184 -1.23437,-1.478515 z M 159.468,27.435647 c -9.72213,3.56557 -13.74215,3.353875 -17.9414,3.261719 v 5.708984 c 5.99997,-0.512979 12.01238,-0.634843 17.9414,-3.261719 V 28.2501 Z m -0.81445,1.113281 v 0.002 4.015625 c -5.31329,2.228074 -10.75781,2.49644 -16.3125,2.94336 v -3.990235 c 3.76375,0.07911 7.97761,-0.04452 16.3125,-2.970703 z m 0.81445,7.857422 c -9.72213,3.56557 -13.74215,3.353876 -17.9414,3.261719 v 5.708984 c 5.99997,-0.512978 12.01238,-0.634842 17.9414,-3.261719 v -4.894531 z m -0.81445,1.115234 v 4.015625 c -5.31329,2.228074 -10.75781,2.498393 -16.3125,2.945313 v -3.992188 c 3.76375,0.07911 7.97761,-0.04256 16.3125,-2.96875 z m -18.73633,12.28711 c -0.67187,0 -1.1888,0.127604 -1.55078,0.382812 -0.35937,0.255209 -0.53906,0.61849 -0.53906,1.089844 0,0.205729 0.0339,0.388021 0.10156,0.546875 0.0703,0.158854 0.17057,0.298177 0.30078,0.417969 0.13021,0.117187 0.30729,0.223958 0.53125,0.320312 0.22656,0.09635 0.55729,0.192709 0.99219,0.289063 0.25,0.05729 0.47786,0.110677 0.68359,0.160156 0.20573,0.04948 0.38282,0.110677 0.53125,0.183594 0.14844,0.07292 0.26302,0.165364 0.34375,0.277344 0.0833,0.111979 0.125,0.257812 0.125,0.4375 0,0.320312 -0.13151,0.563802 -0.39453,0.730468 -0.26041,0.164063 -0.63151,0.246094 -1.11328,0.246094 -0.46615,0 -0.83463,-0.07682 -1.10547,-0.230469 -0.27083,-0.15625 -0.44791,-0.399739 -0.53125,-0.730468 l -0.72265,0.144531 c 0.21354,0.932291 0.99088,1.398437 2.33203,1.398437 0.72135,0 1.27994,-0.139323 1.67578,-0.417968 0.39844,-0.278646 0.59765,-0.671875 0.59765,-1.179688 0,-0.200521 -0.0286,-0.375 -0.0859,-0.523437 -0.0547,-0.148438 -0.13151,-0.277344 -0.23047,-0.386719 -0.099,-0.109375 -0.21615,-0.201823 -0.35156,-0.277344 -0.13282,-0.07552 -0.27605,-0.140625 -0.42969,-0.195312 -0.15365,-0.05729 -0.31511,-0.105469 -0.48438,-0.144532 -0.16666,-0.04167 -0.33463,-0.08203 -0.5039,-0.121093 -0.50521,-0.11198 -0.84245,-0.20573 -1.01172,-0.28125 -0.16927,-0.07813 -0.29948,-0.171875 -0.39063,-0.28125 -0.0885,-0.11198 -0.13281,-0.252605 -0.13281,-0.421875 0,-0.289063 0.11589,-0.506511 0.34766,-0.652344 0.23177,-0.145834 0.56771,-0.21875 1.00781,-0.21875 0.40104,0 0.71484,0.06641 0.94141,0.199219 0.22656,0.130208 0.3802,0.341145 0.46093,0.632812 l 0.73438,-0.128906 c -0.13281,-0.460938 -0.36459,-0.786459 -0.69531,-0.976563 -0.33073,-0.192708 -0.8086,-0.289062 -1.4336,-0.289062 z m 5.71094,0 c -0.83854,0 -1.49479,0.248698 -1.96875,0.746094 -0.47396,0.497395 -0.71094,1.184895 -0.71094,2.0625 0,0.585937 0.10547,1.09375 0.31641,1.523437 0.21354,0.427083 0.52213,0.75651 0.92578,0.988281 0.40625,0.229167 0.88672,0.34375 1.44141,0.34375 0.54166,0 1.01692,-0.123698 1.42578,-0.371093 0.41146,-0.247396 0.73047,-0.608073 0.95703,-1.082032 l -0.60938,-0.304687 c -0.38802,0.763021 -0.96744,1.144531 -1.73828,1.144531 -0.60156,0 -1.07943,-0.204427 -1.43359,-0.613281 -0.35156,-0.411459 -0.52735,-0.954427 -0.52735,-1.628906 0,-0.682292 0.16928,-1.21875 0.50782,-1.609375 0.33854,-0.39323 0.8125,-0.589844 1.42187,-0.589844 0.38802,0 0.72266,0.08463 1.00391,0.253906 0.28385,0.169271 0.48958,0.414063 0.61719,0.734375 l 0.70703,-0.234375 c -0.1849,-0.450521 -0.47396,-0.790365 -0.86719,-1.019531 -0.39323,-0.229167 -0.88281,-0.34375 -1.46875,-0.34375 z m 4.95312,0.08203 -2.24609,5.503906 h 0.77344 l 0.63281,-1.609375 h 2.50781 l 0.62891,1.609375 h 0.76172 l -2.21094,-5.503906 z m 3.73047,0 v 5.503906 h 3.52735 v -0.609375 h -2.78125 v -4.894531 z m 6.05469,0 -2.24609,5.503906 h 0.77343 l 0.63282,-1.609375 h 2.50781 l 0.62891,1.609375 h 0.76171 l -2.21093,-5.503906 z m -9.37109,0.5625 0.10547,0.324219 c 0.0729,0.226562 0.14583,0.429687 0.21875,0.609375 l 0.70703,1.816406 h -2.0586 l 0.70313,-1.808594 c 0.1276,-0.338541 0.22396,-0.615885 0.28906,-0.832031 z m 9.78515,0 0.10547,0.324219 c 0.0729,0.226562 0.14584,0.429687 0.21875,0.609375 l 0.70703,1.816406 h -2.05859 l 0.70312,-1.808594 c 0.12761,-0.338541 0.22396,-0.615885 0.28907,-0.832031 z"
       transform="translate(-118.4973,-1.0001)" />
    <path
       id="path8"
       style="fill:url(#linearGradient9);fill-opacity:1;stroke:none"
       d="m 151.80394,7.0001 -0.004,0.00195 -19.35351,0.00391 c -1.35355,0 -2.45703,1.1084593 -2.45703,2.4648437 V 57.533303 c 0,1.356386 1.10343,2.466797 2.45703,2.466797 h 36.09375 c 1.35354,0 2.45703,-1.110412 2.45703,-2.466797 V 26.183694 c 0,-0.440775 -0.10327,-0.93784 -0.29297,-1.464844 h 0.0606 l -0.35547,-0.722656 c -0.0256,-0.05172 -0.0587,-0.104197 -0.0859,-0.15625 l -0.0605,-0.125 h -0.008 c -0.33862,-0.618179 -0.7885,-1.252822 -1.38476,-1.84961 l -0.002,-0.002 L 156.26488,9.1524437 C 155.67159,8.4151755 155.0115,7.918962 154.36644,7.59385 154.28114,7.550863 154.19507,7.50998 154.11058,7.4727562 l -0.0859,-0.037109 -0.0312,-0.00195 C 153.20882,7.1007523 152.46804,7.0001 151.90941,7.0001 Z m 0.11523,1.0019531 c 0.37972,7.572e-4 0.91296,0.1248404 1.44727,0.3105469 v 13.935547 c 0,1.22231 0.89866,2.235584 2.06641,2.425781 0.12731,0.02382 0.25744,0.03746 0.39062,0.04102 0.0224,5.98e-4 0.0439,0.0039 0.0664,0.0039 h 13.69336 c 0.23563,0.562366 0.41406,1.117889 0.41406,1.464844 v 31.349609 c 0,0.822556 -0.64278,1.466797 -1.45703,1.466797 h -36.09375 c -0.81435,0 -1.45703,-0.644183 -1.45703,-1.466797 V 9.4708031 c 0,-0.8225555 0.64277,-1.4667967 1.45703,-1.4667969 z m 2.47071,0.9238281 c 0.38082,0.2545633 0.76637,0.4323997 1.12695,0.8886719 l 0.0176,0.021484 12.62695,12.7343749 c 0.37192,0.371984 0.57528,0.75943 0.82813,1.144532 h -13.16602 c -0.0687,0 -0.13319,-0.01063 -0.19922,-0.01953 -0.70854,-0.123274 -1.23436,-0.730184 -1.23437,-1.478515 z M 159.468,27.435647 c -9.72213,3.56557 -13.74215,3.353875 -17.9414,3.261719 v 5.708984 c 5.99997,-0.512979 12.01238,-0.634843 17.9414,-3.261719 V 28.2501 Z m -0.81445,1.113281 v 0.002 4.015625 c -5.31329,2.228074 -10.75781,2.49644 -16.3125,2.94336 v -3.990235 c 3.76375,0.07911 7.97761,-0.04452 16.3125,-2.970703 z m 0.81445,7.857422 c -9.72213,3.56557 -13.74215,3.353876 -17.9414,3.261719 v 5.708984 c 5.99997,-0.512978 12.01238,-0.634842 17.9414,-3.261719 v -4.894531 z m -0.81445,1.115234 v 4.015625 c -5.31329,2.228074 -10.75781,2.498393 -16.3125,2.945313 v -3.992188 c 3.76375,0.07911 7.97761,-0.04256 16.3125,-2.96875 z m -18.73633,12.28711 c -0.67187,0 -1.1888,0.127604 -1.55078,0.382812 -0.35937,0.255209 -0.53906,0.61849 -0.53906,1.089844 0,0.205729 0.0339,0.388021 0.10156,0.546875 0.0703,0.158854 0.17057,0.298177 0.30078,0.417969 0.13021,0.117187 0.30729,0.223958 0.53125,0.320312 0.22656,0.09635 0.55729,0.192709 0.99219,0.289063 0.25,0.05729 0.47786,0.110677 0.68359,0.160156 0.20573,0.04948 0.38282,0.110677 0.53125,0.183594 0.14844,0.07292 0.26302,0.165364 0.34375,0.277344 0.0833,0.111979 0.125,0.257812 0.125,0.4375 0,0.320312 -0.13151,0.563802 -0.39453,0.730468 -0.26041,0.164063 -0.63151,0.246094 -1.11328,0.246094 -0.46615,0 -0.83463,-0.07682 -1.10547,-0.230469 -0.27083,-0.15625 -0.44791,-0.399739 -0.53125,-0.730468 l -0.72265,0.144531 c 0.21354,0.932291 0.99088,1.398437 2.33203,1.398437 0.72135,0 1.27994,-0.139323 1.67578,-0.417968 0.39844,-0.278646 0.59765,-0.671875 0.59765,-1.179688 0,-0.200521 -0.0286,-0.375 -0.0859,-0.523437 -0.0547,-0.148438 -0.13151,-0.277344 -0.23047,-0.386719 -0.099,-0.109375 -0.21615,-0.201823 -0.35156,-0.277344 -0.13282,-0.07552 -0.27605,-0.140625 -0.42969,-0.195312 -0.15365,-0.05729 -0.31511,-0.105469 -0.48438,-0.144532 -0.16666,-0.04167 -0.33463,-0.08203 -0.5039,-0.121093 -0.50521,-0.11198 -0.84245,-0.20573 -1.01172,-0.28125 -0.16927,-0.07813 -0.29948,-0.171875 -0.39063,-0.28125 -0.0885,-0.11198 -0.13281,-0.252605 -0.13281,-0.421875 0,-0.289063 0.11589,-0.506511 0.34766,-0.652344 0.23177,-0.145834 0.56771,-0.21875 1.00781,-0.21875 0.40104,0 0.71484,0.06641 0.94141,0.199219 0.22656,0.130208 0.3802,0.341145 0.46093,0.632812 l 0.73438,-0.128906 c -0.13281,-0.460938 -0.36459,-0.786459 -0.69531,-0.976563 -0.33073,-0.192708 -0.8086,-0.289062 -1.4336,-0.289062 z m 5.71094,0 c -0.83854,0 -1.49479,0.248698 -1.96875,0.746094 -0.47396,0.497395 -0.71094,1.184895 -0.71094,2.0625 0,0.585937 0.10547,1.09375 0.31641,1.523437 0.21354,0.427083 0.52213,0.75651 0.92578,0.988281 0.40625,0.229167 0.88672,0.34375 1.44141,0.34375 0.54166,0 1.01692,-0.123698 1.42578,-0.371093 0.41146,-0.247396 0.73047,-0.608073 0.95703,-1.082032 l -0.60938,-0.304687 c -0.38802,0.763021 -0.96744,1.144531 -1.73828,1.144531 -0.60156,0 -1.07943,-0.204427 -1.43359,-0.613281 -0.35156,-0.411459 -0.52735,-0.954427 -0.52735,-1.628906 0,-0.682292 0.16928,-1.21875 0.50782,-1.609375 0.33854,-0.39323 0.8125,-0.589844 1.42187,-0.589844 0.38802,0 0.72266,0.08463 1.00391,0.253906 0.28385,0.169271 0.48958,0.414063 0.61719,0.734375 l 0.70703,-0.234375 c -0.1849,-0.450521 -0.47396,-0.790365 -0.86719,-1.019531 -0.39323,-0.229167 -0.88281,-0.34375 -1.46875,-0.34375 z m 4.95312,0.08203 -2.24609,5.503906 h 0.77344 l 0.63281,-1.609375 h 2.50781 l 0.62891,1.609375 h 0.76172 l -2.21094,-5.503906 z m 3.73047,0 v 5.503906 h 3.52735 v -0.609375 h -2.78125 v -4.894531 z m 6.05469,0 -2.24609,5.503906 h 0.77343 l 0.63282,-1.609375 h 2.50781 l 0.62891,1.609375 h 0.76171 l -2.21093,-5.503906 z m -9.37109,0.5625 0.10547,0.324219 c 0.0729,0.226562 0.14583,0.429687 0.21875,0.609375 l 0.70703,1.816406 h -2.0586 l 0.70313,-1.808594 c 0.1276,-0.338541 0.22396,-0.615885 0.28906,-0.832031 z m 9.78515,0 0.10547,0.324219 c 0.0729,0.226562 0.14584,0.429687 0.21875,0.609375 l 0.70703,1.816406 h -2.05859 l 0.70312,-1.808594 c 0.12761,-0.338541 0.22396,-0.615885 0.28907,-0.832031 z"
       transform="translate(-118.4973,-1.0001)" />
  </g>
</svg>
