<?xml version="1.0" encoding="UTF-8" standalone="no"?>
<svg
   width="43.546024"
   height="55.538212"
   version="1.1"
   viewBox="0 0 43.546024 55.538212"
   id="svg3"
   xmlns:xlink="http://www.w3.org/1999/xlink"
   xmlns="http://www.w3.org/2000/svg"
   xmlns:svg="http://www.w3.org/2000/svg">
  <defs
     id="defs3">
    <linearGradient
       id="linearGradient9">
      <stop
         style="stop-color:#039bfc;stop-opacity:0;"
         offset="0"
         id="stop10" />
      <stop
         style="stop-color:#039bfc;stop-opacity:1;"
         offset="1"
         id="stop9" />
    </linearGradient>
    <linearGradient
       xlink:href="#linearGradient9"
       id="linearGradient10"
       x1="150.38136"
       y1="65.000099"
       x2="150.38136"
       y2="24.652273"
       gradientUnits="userSpaceOnUse" />
    <filter
       style="color-interpolation-filters:sRGB"
       id="filter10"
       x="-0.030947896"
       y="-0.023945386"
       width="1.0618958"
       height="1.0478908">
      <feGaussianBlur
         stdDeviation="0.52879393"
         id="feGaussianBlur10" />
    </filter>
  </defs>
  <g
     id="g10"
     transform="translate(-10.222995,-4.7308946)">
    <path
       id="path1"
       style="display:inline;opacity:0.6;fill:#039bfc;filter:url(#filter10)"
       d="m 151.80394,7.0001 -0.004,0.00195 -19.35351,0.00391 c -1.35355,0 -2.45703,1.1084593 -2.45703,2.4648437 V 57.533303 c 0,1.356386 1.10343,2.466797 2.45703,2.466797 h 36.09375 c 1.35354,0 2.45703,-1.110412 2.45703,-2.466797 V 26.183694 c 0,-0.440775 -0.10327,-0.93784 -0.29297,-1.464844 h 0.0606 l -0.35547,-0.722656 c -0.0256,-0.05172 -0.0587,-0.104197 -0.0859,-0.15625 l -0.0605,-0.125 h -0.008 c -0.33862,-0.618179 -0.7885,-1.252822 -1.38476,-1.84961 l -0.002,-0.002 L 156.26488,9.1524437 C 155.67159,8.4151755 155.0115,7.918962 154.36644,7.59385 154.28114,7.550863 154.19507,7.50998 154.11058,7.4727562 l -0.0859,-0.037109 -0.0312,-0.00195 C 153.20882,7.1007523 152.46804,7.0001 151.90941,7.0001 Z m 0.11523,1.0019531 c 0.37972,7.572e-4 0.91296,0.1248404 1.44727,0.3105469 v 13.935547 c 0,1.22231 0.89866,2.235584 2.06641,2.425781 0.12731,0.02382 0.25744,0.03746 0.39062,0.04102 0.0224,5.98e-4 0.0439,0.0039 0.0664,0.0039 h 13.69336 c 0.23563,0.562366 0.41406,1.117889 0.41406,1.464844 v 31.349609 c 0,0.822556 -0.64278,1.466797 -1.45703,1.466797 h -36.09375 c -0.81435,0 -1.45703,-0.644183 -1.45703,-1.466797 V 9.4708031 c 0,-0.8225555 0.64277,-1.4667967 1.45703,-1.4667969 z m 2.47071,0.9238281 c 0.38082,0.2545633 0.76637,0.4323997 1.12695,0.8886719 l 0.0176,0.021484 12.62695,12.7343749 c 0.37192,0.371984 0.57528,0.75943 0.82813,1.144532 h -13.16602 c -0.0687,0 -0.13319,-0.01063 -0.19922,-0.01953 -0.70854,-0.123274 -1.23436,-0.730184 -1.23437,-1.478515 z M 140.4973,29.0001 c 0,0 -4,4.7e-5 -4,4 v 8 c 0,3.999952 4,4 4,4 h 6 v -2 h -6 c 0,0 -2,1.4e-5 -2,-2 v -8 c 0,-2.000014 2,-2 2,-2 h 6 v -2 z m 12,0 v 4 h -4 v 2 h 4 v 4 h -4 v 2 h 4 v 4 h 2 v -4 h 4 v 4 h 2 v -4 h 4 v -2 h -4 v -4 h 4 v -2 h -4 v -4 h -2 v 4 h -4 v -4 z m 2,6 h 4 v 4 h -4 z m -17.57617,14.443359 c -0.83854,0 -1.49479,0.248698 -1.96875,0.746094 -0.47396,0.497396 -0.71094,1.184896 -0.71094,2.0625 0,0.585938 0.10547,1.09375 0.31641,1.523438 0.21354,0.427083 0.52213,0.75651 0.92578,0.988281 0.40625,0.229167 0.88672,0.34375 1.4414,0.34375 0.54167,0 1.01693,-0.123698 1.42579,-0.371094 0.41145,-0.247396 0.73046,-0.608073 0.95703,-1.082031 l -0.60938,-0.304688 c -0.38802,0.763021 -0.96745,1.144532 -1.73828,1.144532 -0.60156,0 -1.07943,-0.204427 -1.43359,-0.613282 -0.35157,-0.411458 -0.52735,-0.954427 -0.52735,-1.628906 0,-0.682292 0.16927,-1.21875 0.50782,-1.609375 0.33854,-0.393229 0.8125,-0.589844 1.42187,-0.589844 0.38802,0 0.72266,0.08464 1.00391,0.253907 0.28385,0.16927 0.48958,0.414062 0.61718,0.734375 l 0.70704,-0.234375 c -0.1849,-0.450521 -0.47396,-0.790365 -0.86719,-1.019532 -0.39323,-0.229166 -0.88281,-0.34375 -1.46875,-0.34375 z m 5.40234,0 c -0.67187,0 -1.1888,0.127605 -1.55078,0.382813 -0.35937,0.255208 -0.53906,0.618489 -0.53906,1.089844 0,0.205729 0.0339,0.38802 0.10156,0.546875 0.0703,0.158854 0.17057,0.298177 0.30078,0.417968 0.13021,0.117188 0.30729,0.223959 0.53125,0.320313 0.22656,0.09635 0.55729,0.192708 0.99219,0.289062 0.25,0.05729 0.47786,0.110677 0.68359,0.160157 0.20573,0.04948 0.38282,0.110677 0.53125,0.183593 0.14844,0.07292 0.26302,0.165365 0.34375,0.277344 0.0833,0.111979 0.125,0.257813 0.125,0.4375 0,0.320313 -0.13151,0.563802 -0.39453,0.730469 -0.26041,0.164062 -0.63151,0.246094 -1.11328,0.246094 -0.46615,0 -0.83463,-0.07682 -1.10547,-0.230469 -0.27083,-0.15625 -0.44791,-0.39974 -0.53125,-0.730469 l -0.72265,0.144531 c 0.21354,0.932292 0.99088,1.398438 2.33203,1.398438 0.72135,0 1.27994,-0.139323 1.67578,-0.417969 0.39844,-0.278646 0.59765,-0.671875 0.59765,-1.179687 0,-0.200521 -0.0286,-0.375 -0.0859,-0.523438 -0.0547,-0.148437 -0.13151,-0.277344 -0.23047,-0.386719 -0.099,-0.109375 -0.21615,-0.201823 -0.35156,-0.277343 -0.13282,-0.07552 -0.27605,-0.140625 -0.42969,-0.195313 -0.15365,-0.05729 -0.31511,-0.105469 -0.48438,-0.144531 -0.16666,-0.04167 -0.33463,-0.08203 -0.5039,-0.121094 -0.50521,-0.111979 -0.84245,-0.205729 -1.01172,-0.28125 -0.16927,-0.07813 -0.29948,-0.171875 -0.39063,-0.28125 -0.0885,-0.111979 -0.13281,-0.252604 -0.13281,-0.421875 0,-0.289062 0.11589,-0.50651 0.34766,-0.652344 0.23177,-0.145833 0.56771,-0.21875 1.00781,-0.21875 0.40104,0 0.71484,0.06641 0.94141,0.199219 0.22656,0.130208 0.3802,0.341146 0.46093,0.632813 l 0.73438,-0.128907 c -0.13281,-0.460937 -0.36459,-0.786458 -0.69531,-0.976562 -0.33073,-0.192708 -0.8086,-0.289063 -1.4336,-0.289063 z m 3.28125,0.08203 v 5.503906 h 0.7461 v -2.550781 h 2.97656 v 2.550781 h 0.74609 v -5.503906 h -0.74609 v 2.328125 h -2.97656 v -2.328125 z m 7.38281,0 -2.24609,5.503906 h 0.77344 l 0.63281,-1.609375 h 2.50781 l 0.62891,1.609375 h 0.76172 l -2.21094,-5.503906 z m 3.73047,0 v 5.503906 h 0.7461 v -2.285156 h 1.71484 l 1.42969,2.285156 h 0.85937 l -1.5625,-2.371094 c 0.41927,-0.07292 0.7474,-0.248698 0.98438,-0.527344 0.23958,-0.278645 0.35937,-0.622395 0.35937,-1.03125 0,-0.494791 -0.16927,-0.880208 -0.50781,-1.15625 -0.33594,-0.278645 -0.8138,-0.417968 -1.43359,-0.417968 z m 5.77735,0 v 5.503906 h 0.74609 v -2.144531 h 1.61719 c 0.58333,0 1.04427,-0.153646 1.38281,-0.460938 0.34115,-0.307292 0.51172,-0.721354 0.51172,-1.242187 0,-0.526042 -0.16927,-0.933594 -0.50781,-1.222657 -0.33854,-0.289062 -0.81641,-0.433593 -1.4336,-0.433593 z m -9.09375,0.5625 0.10547,0.324218 c 0.0729,0.226563 0.14583,0.429688 0.21875,0.609375 l 0.70703,1.816407 h -2.0586 l 0.70313,-1.808594 c 0.1276,-0.338542 0.22396,-0.615886 0.28906,-0.832031 z m 4.0625,0.03516 h 1.76953 c 0.40885,0 0.72135,0.08463 0.9375,0.253906 0.21875,0.166667 0.32812,0.410156 0.32812,0.730469 0,0.330729 -0.10807,0.588542 -0.32422,0.773437 -0.21354,0.182292 -0.51692,0.273438 -0.91015,0.273438 h -1.80078 z m 5.77734,0 h 1.48047 c 0.85417,0 1.28125,0.355469 1.28125,1.066406 0,0.736979 -0.41667,1.105469 -1.25,1.105469 h -1.51172 z"
       transform="translate(-118.4973,-1.0001)" />
    <path
       id="path9"
       style="fill:url(#linearGradient10);fill-opacity:1"
       d="m 151.80394,7.0001 -0.004,0.00195 -19.35351,0.00391 c -1.35355,0 -2.45703,1.1084593 -2.45703,2.4648437 V 57.533303 c 0,1.356386 1.10343,2.466797 2.45703,2.466797 h 36.09375 c 1.35354,0 2.45703,-1.110412 2.45703,-2.466797 V 26.183694 c 0,-0.440775 -0.10327,-0.93784 -0.29297,-1.464844 h 0.0606 l -0.35547,-0.722656 c -0.0256,-0.05172 -0.0587,-0.104197 -0.0859,-0.15625 l -0.0605,-0.125 h -0.008 c -0.33862,-0.618179 -0.7885,-1.252822 -1.38476,-1.84961 l -0.002,-0.002 L 156.26488,9.1524437 C 155.67159,8.4151755 155.0115,7.918962 154.36644,7.59385 154.28114,7.550863 154.19507,7.50998 154.11058,7.4727562 l -0.0859,-0.037109 -0.0312,-0.00195 C 153.20882,7.1007523 152.46804,7.0001 151.90941,7.0001 Z m 0.11523,1.0019531 c 0.37972,7.572e-4 0.91296,0.1248404 1.44727,0.3105469 v 13.935547 c 0,1.22231 0.89866,2.235584 2.06641,2.425781 0.12731,0.02382 0.25744,0.03746 0.39062,0.04102 0.0224,5.98e-4 0.0439,0.0039 0.0664,0.0039 h 13.69336 c 0.23563,0.562366 0.41406,1.117889 0.41406,1.464844 v 31.349609 c 0,0.822556 -0.64278,1.466797 -1.45703,1.466797 h -36.09375 c -0.81435,0 -1.45703,-0.644183 -1.45703,-1.466797 V 9.4708031 c 0,-0.8225555 0.64277,-1.4667967 1.45703,-1.4667969 z m 2.47071,0.9238281 c 0.38082,0.2545633 0.76637,0.4323997 1.12695,0.8886719 l 0.0176,0.021484 12.62695,12.7343749 c 0.37192,0.371984 0.57528,0.75943 0.82813,1.144532 h -13.16602 c -0.0687,0 -0.13319,-0.01063 -0.19922,-0.01953 -0.70854,-0.123274 -1.23436,-0.730184 -1.23437,-1.478515 z M 140.4973,29.0001 c 0,0 -4,4.7e-5 -4,4 v 8 c 0,3.999952 4,4 4,4 h 6 v -2 h -6 c 0,0 -2,1.4e-5 -2,-2 v -8 c 0,-2.000014 2,-2 2,-2 h 6 v -2 z m 12,0 v 4 h -4 v 2 h 4 v 4 h -4 v 2 h 4 v 4 h 2 v -4 h 4 v 4 h 2 v -4 h 4 v -2 h -4 v -4 h 4 v -2 h -4 v -4 h -2 v 4 h -4 v -4 z m 2,6 h 4 v 4 h -4 z m -17.57617,14.443359 c -0.83854,0 -1.49479,0.248698 -1.96875,0.746094 -0.47396,0.497396 -0.71094,1.184896 -0.71094,2.0625 0,0.585938 0.10547,1.09375 0.31641,1.523438 0.21354,0.427083 0.52213,0.75651 0.92578,0.988281 0.40625,0.229167 0.88672,0.34375 1.4414,0.34375 0.54167,0 1.01693,-0.123698 1.42579,-0.371094 0.41145,-0.247396 0.73046,-0.608073 0.95703,-1.082031 l -0.60938,-0.304688 c -0.38802,0.763021 -0.96745,1.144532 -1.73828,1.144532 -0.60156,0 -1.07943,-0.204427 -1.43359,-0.613282 -0.35157,-0.411458 -0.52735,-0.954427 -0.52735,-1.628906 0,-0.682292 0.16927,-1.21875 0.50782,-1.609375 0.33854,-0.393229 0.8125,-0.589844 1.42187,-0.589844 0.38802,0 0.72266,0.08464 1.00391,0.253907 0.28385,0.16927 0.48958,0.414062 0.61718,0.734375 l 0.70704,-0.234375 c -0.1849,-0.450521 -0.47396,-0.790365 -0.86719,-1.019532 -0.39323,-0.229166 -0.88281,-0.34375 -1.46875,-0.34375 z m 5.40234,0 c -0.67187,0 -1.1888,0.127605 -1.55078,0.382813 -0.35937,0.255208 -0.53906,0.618489 -0.53906,1.089844 0,0.205729 0.0339,0.38802 0.10156,0.546875 0.0703,0.158854 0.17057,0.298177 0.30078,0.417968 0.13021,0.117188 0.30729,0.223959 0.53125,0.320313 0.22656,0.09635 0.55729,0.192708 0.99219,0.289062 0.25,0.05729 0.47786,0.110677 0.68359,0.160157 0.20573,0.04948 0.38282,0.110677 0.53125,0.183593 0.14844,0.07292 0.26302,0.165365 0.34375,0.277344 0.0833,0.111979 0.125,0.257813 0.125,0.4375 0,0.320313 -0.13151,0.563802 -0.39453,0.730469 -0.26041,0.164062 -0.63151,0.246094 -1.11328,0.246094 -0.46615,0 -0.83463,-0.07682 -1.10547,-0.230469 -0.27083,-0.15625 -0.44791,-0.39974 -0.53125,-0.730469 l -0.72265,0.144531 c 0.21354,0.932292 0.99088,1.398438 2.33203,1.398438 0.72135,0 1.27994,-0.139323 1.67578,-0.417969 0.39844,-0.278646 0.59765,-0.671875 0.59765,-1.179687 0,-0.200521 -0.0286,-0.375 -0.0859,-0.523438 -0.0547,-0.148437 -0.13151,-0.277344 -0.23047,-0.386719 -0.099,-0.109375 -0.21615,-0.201823 -0.35156,-0.277343 -0.13282,-0.07552 -0.27605,-0.140625 -0.42969,-0.195313 -0.15365,-0.05729 -0.31511,-0.105469 -0.48438,-0.144531 -0.16666,-0.04167 -0.33463,-0.08203 -0.5039,-0.121094 -0.50521,-0.111979 -0.84245,-0.205729 -1.01172,-0.28125 -0.16927,-0.07813 -0.29948,-0.171875 -0.39063,-0.28125 -0.0885,-0.111979 -0.13281,-0.252604 -0.13281,-0.421875 0,-0.289062 0.11589,-0.50651 0.34766,-0.652344 0.23177,-0.145833 0.56771,-0.21875 1.00781,-0.21875 0.40104,0 0.71484,0.06641 0.94141,0.199219 0.22656,0.130208 0.3802,0.341146 0.46093,0.632813 l 0.73438,-0.128907 c -0.13281,-0.460937 -0.36459,-0.786458 -0.69531,-0.976562 -0.33073,-0.192708 -0.8086,-0.289063 -1.4336,-0.289063 z m 3.28125,0.08203 v 5.503906 h 0.7461 v -2.550781 h 2.97656 v 2.550781 h 0.74609 v -5.503906 h -0.74609 v 2.328125 h -2.97656 v -2.328125 z m 7.38281,0 -2.24609,5.503906 h 0.77344 l 0.63281,-1.609375 h 2.50781 l 0.62891,1.609375 h 0.76172 l -2.21094,-5.503906 z m 3.73047,0 v 5.503906 h 0.7461 v -2.285156 h 1.71484 l 1.42969,2.285156 h 0.85937 l -1.5625,-2.371094 c 0.41927,-0.07292 0.7474,-0.248698 0.98438,-0.527344 0.23958,-0.278645 0.35937,-0.622395 0.35937,-1.03125 0,-0.494791 -0.16927,-0.880208 -0.50781,-1.15625 -0.33594,-0.278645 -0.8138,-0.417968 -1.43359,-0.417968 z m 5.77735,0 v 5.503906 h 0.74609 v -2.144531 h 1.61719 c 0.58333,0 1.04427,-0.153646 1.38281,-0.460938 0.34115,-0.307292 0.51172,-0.721354 0.51172,-1.242187 0,-0.526042 -0.16927,-0.933594 -0.50781,-1.222657 -0.33854,-0.289062 -0.81641,-0.433593 -1.4336,-0.433593 z m -9.09375,0.5625 0.10547,0.324218 c 0.0729,0.226563 0.14583,0.429688 0.21875,0.609375 l 0.70703,1.816407 h -2.0586 l 0.70313,-1.808594 c 0.1276,-0.338542 0.22396,-0.615886 0.28906,-0.832031 z m 4.0625,0.03516 h 1.76953 c 0.40885,0 0.72135,0.08463 0.9375,0.253906 0.21875,0.166667 0.32812,0.410156 0.32812,0.730469 0,0.330729 -0.10807,0.588542 -0.32422,0.773437 -0.21354,0.182292 -0.51692,0.273438 -0.91015,0.273438 h -1.80078 z m 5.77734,0 h 1.48047 c 0.85417,0 1.28125,0.355469 1.28125,1.066406 0,0.736979 -0.41667,1.105469 -1.25,1.105469 h -1.51172 z"
       transform="translate(-118.4973,-1.0001)" />
  </g>
</svg>
