<?xml version="1.0" encoding="UTF-8" standalone="no"?>
<svg
   width="43.546024"
   height="55.538212"
   version="1.1"
   viewBox="0 0 43.546024 55.538212"
   id="svg3"
   xmlns:xlink="http://www.w3.org/1999/xlink"
   xmlns="http://www.w3.org/2000/svg"
   xmlns:svg="http://www.w3.org/2000/svg">
  <defs
     id="defs3">
    <linearGradient
       id="linearGradient6">
      <stop
         style="stop-color:#00abff;stop-opacity:0;"
         offset="0"
         id="stop7" />
      <stop
         style="stop-color:#00abff;stop-opacity:1;"
         offset="1"
         id="stop6" />
    </linearGradient>
    <linearGradient
       xlink:href="#linearGradient6"
       id="linearGradient7"
       x1="150.84512"
       y1="65.000099"
       x2="150.84512"
       y2="25.463867"
       gradientUnits="userSpaceOnUse" />
    <filter
       style="color-interpolation-filters:sRGB"
       id="filter7"
       x="-0.030947896"
       y="-0.023945386"
       width="1.0618958"
       height="1.0478908">
      <feGaussianBlur
         stdDeviation="0.52879393"
         id="feGaussianBlur7" />
    </filter>
  </defs>
  <g
     id="g7"
     transform="translate(-10.222995,-4.7308946)">
    <path
       id="path1"
       style="display:inline;opacity:0.6;fill:#00abff;fill-opacity:1;stroke:none;filter:url(#filter7)"
       d="m 151.80394,7.0001 -0.004,0.00195 -19.35351,0.00391 c -1.35355,0 -2.45703,1.1084593 -2.45703,2.4648437 V 57.533303 c 0,1.356386 1.10343,2.466797 2.45703,2.466797 h 36.09375 c 1.35354,0 2.45703,-1.110412 2.45703,-2.466797 V 26.183694 c 0,-0.440775 -0.10327,-0.93784 -0.29297,-1.464844 h 0.0606 l -0.35547,-0.722656 c -0.0256,-0.05172 -0.0587,-0.104197 -0.0859,-0.15625 l -0.0605,-0.125 h -0.008 c -0.33862,-0.618179 -0.7885,-1.252822 -1.38476,-1.84961 l -0.002,-0.002 L 156.26488,9.1524437 C 155.67159,8.4151755 155.0115,7.918962 154.36644,7.59385 154.28114,7.550863 154.19507,7.50998 154.11058,7.4727562 l -0.0859,-0.037109 -0.0312,-0.00195 C 153.20882,7.1007523 152.46804,7.0001 151.90941,7.0001 Z m 0.11523,1.0019531 c 0.37972,7.572e-4 0.91296,0.1248404 1.44727,0.3105469 v 13.935547 c 0,1.22231 0.89866,2.235584 2.06641,2.425781 0.12731,0.02382 0.25744,0.03746 0.39062,0.04102 0.0224,5.98e-4 0.0439,0.0039 0.0664,0.0039 h 13.69336 c 0.23563,0.562366 0.41406,1.117889 0.41406,1.464844 v 31.349609 c 0,0.822556 -0.64278,1.466797 -1.45703,1.466797 h -36.09375 c -0.81435,0 -1.45703,-0.644183 -1.45703,-1.466797 V 9.4708031 c 0,-0.8225555 0.64277,-1.4667967 1.45703,-1.4667969 z m 2.47071,0.9238281 c 0.38082,0.2545633 0.76637,0.4323997 1.12695,0.8886719 l 0.0176,0.021484 12.62695,12.7343749 c 0.37192,0.371984 0.57528,0.75943 0.82813,1.144532 h -13.16602 c -0.0687,0 -0.13319,-0.01063 -0.19922,-0.01953 -0.70854,-0.123274 -1.23436,-0.730184 -1.23437,-1.478515 z m -5.12696,20.1035158 c -0.95835,0.01579 -1.99283,0.19721 -3.00976,0.558594 -1.93456,0.68784 -4.03207,1.771461 -5.54102,3.18164 -1.79267,1.676607 -2.077,3.133945 -1.96093,3.744141 0.41699,2.166683 3.40451,3.576394 4.59961,4.621094 -0.0602,0.03439 -0.1148,0.066 -0.16211,0.0918 -0.59758,0.296619 -2.87598,1.486503 -3.44336,2.746093 -0.64486,1.427275 0.10327,2.450312 0.59765,2.587891 1.53475,0.425608 3.11194,-0.339618 3.95899,-1.603516 0.8469,-1.263898 0.74275,-2.905953 0.35156,-3.658203 -0.004,-0.0086 -0.007,-0.01676 -0.0156,-0.02539 0.15476,-0.09027 0.31204,-0.185126 0.4668,-0.275391 0.30524,-0.180557 0.60731,-0.34875 0.86524,-0.486328 -0.14617,0.399809 -0.2531,0.878566 -0.30469,1.566406 -0.0645,0.808211 0.26502,1.856821 0.69922,2.269531 0.19345,0.180557 0.42219,0.183594 0.56836,0.183594 0.50728,0 0.73464,-0.42123 0.98828,-0.919922 0.30952,-0.610447 0.58984,-1.318359 0.58984,-1.318359 0,0 -0.34813,1.916015 0.59766,1.916015 0.34393,0 0.69094,-0.445984 0.8457,-0.673828 v 0.0039 c 0,0 0.0101,-0.01278 0.0273,-0.04297 0.0344,-0.05591 0.0547,-0.08984 0.0547,-0.08984 v -0.0098 c 0.13758,-0.240743 0.44821,-0.786266 0.90821,-1.693359 0.59326,-1.169325 1.16406,-2.630859 1.16406,-2.630859 0,0 0.0523,0.355951 0.22851,0.949218 0.10317,0.348215 0.3183,0.73186 0.49024,1.101563 -0.13758,0.193455 -0.22461,0.300781 -0.22461,0.300781 l 0.004,0.0039 c -0.11178,0.146169 -0.23196,0.30618 -0.36523,0.460938 -0.46859,0.558878 -1.02615,1.197974 -1.10352,1.382812 -0.0903,0.219253 -0.0685,0.378851 0.10352,0.507813 0.12468,0.09457 0.34638,0.108605 0.57422,0.0957 0.4213,-0.03011 0.71909,-0.134724 0.86523,-0.199219 0.22785,-0.08167 0.49478,-0.205759 0.74414,-0.390625 0.46,-0.339625 0.73869,-0.826272 0.71289,-1.466797 -0.0128,-0.352523 -0.12959,-0.70415 -0.27148,-1.035156 0.043,-0.06018 0.082,-0.119501 0.125,-0.179687 0.72654,-1.061852 1.29102,-2.228516 1.29102,-2.228516 0,0 0.0503,0.357933 0.22656,0.951172 0.086,0.300928 0.26321,0.627176 0.41797,0.945312 -0.68353,0.55457 -1.10541,1.199794 -1.25586,1.621094 -0.27085,0.782413 -0.06,1.135122 0.33984,1.216797 0.18056,0.03869 0.43781,-0.04723 0.62695,-0.128906 0.24075,-0.07739 0.52408,-0.210467 0.79493,-0.408203 0.45999,-0.339625 0.90272,-0.812573 0.87695,-1.453125 -0.0128,-0.292339 -0.0898,-0.58189 -0.19727,-0.861328 0.58037,-0.240743 1.32883,-0.373501 2.28321,-0.261719 2.04631,0.240742 2.45044,1.517298 2.37304,2.054687 -0.0774,0.537389 -0.50657,0.82963 -0.64843,0.919922 -0.14186,0.09027 -0.19064,0.121053 -0.17774,0.185547 0.0172,0.09457 0.0867,0.08947 0.20703,0.07227 0.16766,-0.0301 1.07459,-0.433106 1.11328,-1.421875 0.0645,-1.263898 -1.13956,-2.643759 -3.26757,-2.63086 -0.82111,0.0042 -1.53524,0.201803 -2.13282,0.494141 -0.21925,-0.434198 -0.43789,-0.821721 -0.47656,-1.105469 -0.043,-0.331035 -0.0946,-0.532232 -0.043,-0.927734 0.0516,-0.395501 0.28358,-0.958975 0.2793,-1.001953 -0.004,-0.043 -0.0505,-0.245719 -0.52344,-0.25 -0.47289,-0.0044 -0.8824,0.09212 -0.92969,0.216797 -0.0473,0.12468 -0.13708,0.406881 -0.19726,0.699218 -0.0817,0.42989 -0.94507,1.965602 -1.43945,2.769532 -0.15907,-0.313828 -0.29802,-0.589341 -0.32813,-0.808594 -0.043,-0.331035 -0.0945,-0.532234 -0.043,-0.927735 0.0516,-0.395502 0.28358,-0.958976 0.2793,-1.001953 -0.004,-0.04298 -0.0506,-0.245719 -0.52344,-0.25 -0.47289,-0.0042 -0.8824,0.09019 -0.92969,0.214844 -0.0473,0.12468 -0.0984,0.417423 -0.19726,0.701172 -0.0989,0.283748 -1.24595,2.845631 -1.54688,3.507812 -0.15476,0.339625 -0.28823,0.610085 -0.38281,0.794922 0,0 -0.005,0.01356 -0.0176,0.03516 -0.0817,0.159068 -0.1289,0.24414 -0.1289,0.24414 v 0.0039 c -0.0645,0.116063 -0.13358,0.22461 -0.16797,0.22461 -0.0258,0 -0.0719,-0.30917 0.01,-0.730469 0.17197,-0.889886 0.58049,-2.274979 0.57618,-2.322266 0,-0.02585 0.0764,-0.265945 -0.26758,-0.390625 -0.33532,-0.12468 -0.45622,0.08203 -0.48633,0.08203 -0.0301,0 -0.0508,0.07226 -0.0508,0.07226 0,0 0.37476,-1.55664 -0.71289,-1.55664 -0.67925,0 -1.61773,0.743402 -2.08203,1.414062 -0.29234,0.159068 -0.91568,0.499839 -1.58204,0.865235 -0.25364,0.14186 -0.51471,0.282745 -0.75976,0.416015 -0.0172,-0.01723 -0.0355,-0.0375 -0.0527,-0.05469 -1.31549,-1.405786 -3.74766,-2.399839 -3.64453,-4.28711 0.0387,-0.68784 0.27394,-2.493122 4.67188,-4.685547 3.61975,-1.78408 6.50128,-1.289599 7,-0.193359 0.71364,1.564826 -1.54495,4.471417 -5.28516,4.892578 -1.42727,0.159068 -2.17413,-0.391301 -2.36328,-0.597656 -0.19776,-0.214944 -0.2277,-0.228525 -0.30078,-0.185547 -0.12037,0.0645 -0.043,0.257388 0,0.369141 0.11178,0.292338 0.57151,0.808858 1.34961,1.0625 0.68784,0.223535 2.35986,0.348819 4.38476,-0.433594 2.2656,-0.877015 4.03771,-3.31528 3.51758,-5.357422 -0.35763,-1.424591 -2.0967,-2.192935 -4.20508,-2.158203 z m -0.63867,9.857422 c 0.058,0.0042 0.10224,0.0284 0.12696,0.07031 0.12468,0.219254 -0.45149,1.818575 -0.59766,2.179688 -0.23643,0.576059 -0.73035,2.050426 -1.03125,1.96875 -0.25795,-0.06878 -0.41813,-1.186186 -0.0527,-2.291016 0.18486,-0.55457 0.57684,-1.216658 0.80468,-1.474609 0.27728,-0.309532 0.5761,-0.465824 0.75,-0.453125 z m 7.64258,1.820312 c 0.043,0.137579 0.0727,0.269851 0.0684,0.394532 -0.004,0.8297 -0.59827,1.138616 -0.95508,1.267578 -0.0731,-0.0516 -0.0595,-0.222404 0.18555,-0.759766 0.0946,-0.210663 0.31857,-0.562719 0.70117,-0.902344 z m -12.35547,0.910157 c 0.30524,1.117729 0.0124,2.102783 -0.70117,2.880859 -0.67925,0.739435 -1.62477,1.019665 -2.0332,0.783203 -0.43851,-0.253641 -0.26761,-1.346493 0.5664,-2.128906 0.50729,-0.477204 1.16151,-0.920586 1.59571,-1.191406 0.0989,-0.06018 0.24562,-0.146434 0.42187,-0.253907 0.0301,-0.01723 0.0469,-0.02539 0.0469,-0.02539 0.0344,-0.02141 0.0691,-0.04293 0.10351,-0.06445 z m 9.24219,0.132812 v 0.05664 c 0,0.65776 -0.63617,1.100693 -0.91992,1.28125 -0.0989,0.0516 -0.19335,0.08635 -0.23633,0.06055 -0.0301,-0.01723 0.043,-0.08594 0.043,-0.08594 0,0 0.51084,-0.551421 0.71289,-0.800781 0.11606,-0.146169 0.25422,-0.318263 0.40039,-0.511719 z m -10.61523,8.638672 c -0.67188,0 -1.18881,0.127604 -1.55079,0.382812 -0.35937,0.255209 -0.53906,0.61849 -0.53906,1.089844 0,0.205729 0.0339,0.388021 0.10156,0.546875 0.0703,0.158854 0.17058,0.298177 0.30079,0.417969 0.1302,0.117187 0.30729,0.223958 0.53125,0.320312 0.22656,0.09636 0.55729,0.192709 0.99218,0.289063 0.25,0.05729 0.47787,0.110677 0.6836,0.160156 0.20573,0.04948 0.38281,0.110677 0.53125,0.183594 0.14843,0.07292 0.26302,0.165364 0.34375,0.277344 0.0833,0.111979 0.125,0.257812 0.125,0.4375 0,0.320312 -0.13151,0.563802 -0.39453,0.730468 -0.26042,0.164063 -0.63151,0.246094 -1.11329,0.246094 -0.46614,0 -0.83463,-0.07682 -1.10546,-0.230469 -0.27084,-0.15625 -0.44792,-0.399739 -0.53125,-0.730468 l -0.72266,0.144531 c 0.21354,0.932292 0.99088,1.398437 2.33203,1.398437 0.72135,0 1.27995,-0.139323 1.67578,-0.417968 0.39844,-0.278646 0.59766,-0.671875 0.59766,-1.179688 0,-0.200521 -0.0286,-0.375 -0.0859,-0.523437 -0.0547,-0.148438 -0.13151,-0.277344 -0.23047,-0.386719 -0.099,-0.109375 -0.21614,-0.201823 -0.35156,-0.277344 -0.13281,-0.07552 -0.27604,-0.140625 -0.42969,-0.195312 -0.15364,-0.05729 -0.3151,-0.105469 -0.48437,-0.144532 -0.16667,-0.04167 -0.33464,-0.08203 -0.50391,-0.121093 -0.50521,-0.11198 -0.84245,-0.20573 -1.01172,-0.28125 -0.16927,-0.07813 -0.29948,-0.171875 -0.39062,-0.28125 -0.0885,-0.11198 -0.13282,-0.252605 -0.13282,-0.421875 0,-0.289063 0.11589,-0.506511 0.34766,-0.652344 0.23177,-0.145833 0.56771,-0.21875 1.00781,-0.21875 0.40104,0 0.71485,0.06641 0.94141,0.199219 0.22656,0.130208 0.38021,0.341145 0.46094,0.632812 l 0.73437,-0.128906 c -0.13281,-0.460938 -0.36458,-0.786458 -0.69531,-0.976563 -0.33073,-0.192708 -0.80859,-0.289062 -1.43359,-0.289062 z m 10.67187,0 c -0.67187,0 -1.1888,0.127604 -1.55078,0.382812 -0.35938,0.255209 -0.53906,0.61849 -0.53906,1.089844 0,0.205729 0.0339,0.388021 0.10156,0.546875 0.0703,0.158854 0.17057,0.298177 0.30078,0.417969 0.13021,0.117187 0.30729,0.223958 0.53125,0.320312 0.22656,0.09636 0.55729,0.192709 0.99219,0.289063 0.25,0.05729 0.47786,0.110677 0.68359,0.160156 0.20573,0.04948 0.38281,0.110677 0.53125,0.183594 0.14844,0.07292 0.26302,0.165364 0.34375,0.277344 0.0833,0.111979 0.125,0.257812 0.125,0.4375 0,0.320312 -0.13151,0.563802 -0.39453,0.730468 -0.26042,0.164063 -0.63151,0.246094 -1.11328,0.246094 -0.46615,0 -0.83464,-0.07682 -1.10547,-0.230469 -0.27083,-0.15625 -0.44792,-0.399739 -0.53125,-0.730468 l -0.72266,0.144531 c 0.21355,0.932292 0.99089,1.398437 2.33204,1.398437 0.72135,0 1.27994,-0.139323 1.67578,-0.417968 0.39843,-0.278646 0.59765,-0.671875 0.59765,-1.179688 0,-0.200521 -0.0286,-0.375 -0.0859,-0.523437 -0.0547,-0.148438 -0.13151,-0.277344 -0.23047,-0.386719 -0.099,-0.109375 -0.21615,-0.201823 -0.35157,-0.277344 -0.13281,-0.07552 -0.27604,-0.140625 -0.42968,-0.195312 -0.15365,-0.05729 -0.31511,-0.105469 -0.48438,-0.144532 -0.16666,-0.04167 -0.33463,-0.08203 -0.5039,-0.121093 -0.50521,-0.11198 -0.84245,-0.20573 -1.01172,-0.28125 -0.16927,-0.07813 -0.29948,-0.171875 -0.39063,-0.28125 -0.0885,-0.11198 -0.13281,-0.252605 -0.13281,-0.421875 0,-0.289063 0.11588,-0.506511 0.34766,-0.652344 0.23177,-0.145833 0.5677,-0.21875 1.00781,-0.21875 0.40104,0 0.71484,0.06641 0.9414,0.199219 0.22657,0.130208 0.38021,0.341145 0.46094,0.632812 l 0.73438,-0.128906 c -0.13282,-0.460938 -0.36459,-0.786458 -0.69532,-0.976563 -0.33072,-0.192708 -0.80859,-0.289062 -1.43359,-0.289062 z m 5.33594,0 c -0.67188,0 -1.1888,0.127604 -1.55078,0.382812 -0.35938,0.255209 -0.53907,0.61849 -0.53907,1.089844 0,0.205729 0.0339,0.388021 0.10157,0.546875 0.0703,0.158854 0.17057,0.298177 0.30078,0.417969 0.13021,0.117187 0.30729,0.223958 0.53125,0.320312 0.22656,0.09636 0.55729,0.192709 0.99219,0.289063 0.25,0.05729 0.47786,0.110677 0.68359,0.160156 0.20573,0.04948 0.38281,0.110677 0.53125,0.183594 0.14844,0.07292 0.26302,0.165364 0.34375,0.277344 0.0833,0.111979 0.125,0.257812 0.125,0.4375 0,0.320312 -0.13151,0.563802 -0.39453,0.730468 -0.26042,0.164063 -0.63151,0.246094 -1.11328,0.246094 -0.46615,0 -0.83464,-0.07682 -1.10547,-0.230469 -0.27084,-0.15625 -0.44792,-0.399739 -0.53125,-0.730468 l -0.72266,0.144531 c 0.21354,0.932292 0.99089,1.398437 2.33203,1.398437 0.72136,0 1.27995,-0.139323 1.67578,-0.417968 0.39844,-0.278646 0.59766,-0.671875 0.59766,-1.179688 0,-0.200521 -0.0286,-0.375 -0.0859,-0.523437 -0.0547,-0.148438 -0.13151,-0.277344 -0.23047,-0.386719 -0.099,-0.109375 -0.21614,-0.201823 -0.35156,-0.277344 -0.13281,-0.07552 -0.27604,-0.140625 -0.42969,-0.195312 -0.15364,-0.05729 -0.3151,-0.105469 -0.48437,-0.144532 -0.16667,-0.04167 -0.33464,-0.08203 -0.50391,-0.121093 -0.50521,-0.11198 -0.84244,-0.20573 -1.01172,-0.28125 -0.16927,-0.07813 -0.29947,-0.171875 -0.39062,-0.28125 -0.0885,-0.11198 -0.13281,-0.252605 -0.13281,-0.421875 0,-0.289063 0.11588,-0.506511 0.34765,-0.652344 0.23177,-0.145833 0.56771,-0.21875 1.00782,-0.21875 0.40104,0 0.71484,0.06641 0.9414,0.199219 0.22656,0.130208 0.38021,0.341145 0.46094,0.632812 l 0.73437,-0.128906 c -0.13281,-0.460938 -0.36458,-0.786458 -0.69531,-0.976563 -0.33073,-0.192708 -0.80859,-0.289062 -1.43359,-0.289062 z m -11.1211,0.08203 -2.24609,5.503906 h 0.77344 l 0.63281,-1.609375 h 2.50781 l 0.62891,1.609375 h 0.76172 l -2.21094,-5.503906 z m 0.41407,0.5625 0.10547,0.324219 c 0.0729,0.226562 0.14583,0.429687 0.21875,0.609375 l 0.70703,1.816406 h -2.0586 l 0.70313,-1.808594 c 0.1276,-0.338541 0.22396,-0.615885 0.28906,-0.832031 z"
       transform="translate(-118.4973,-1.0001)" />
    <path
       id="path6"
       style="fill:url(#linearGradient7);fill-opacity:1;stroke:none"
       d="m 151.80394,7.0001 -0.004,0.00195 -19.35351,0.00391 c -1.35355,0 -2.45703,1.1084593 -2.45703,2.4648437 V 57.533303 c 0,1.356386 1.10343,2.466797 2.45703,2.466797 h 36.09375 c 1.35354,0 2.45703,-1.110412 2.45703,-2.466797 V 26.183694 c 0,-0.440775 -0.10327,-0.93784 -0.29297,-1.464844 h 0.0606 l -0.35547,-0.722656 c -0.0256,-0.05172 -0.0587,-0.104197 -0.0859,-0.15625 l -0.0605,-0.125 h -0.008 c -0.33862,-0.618179 -0.7885,-1.252822 -1.38476,-1.84961 l -0.002,-0.002 L 156.26488,9.1524437 C 155.67159,8.4151755 155.0115,7.918962 154.36644,7.59385 154.28114,7.550863 154.19507,7.50998 154.11058,7.4727562 l -0.0859,-0.037109 -0.0312,-0.00195 C 153.20882,7.1007523 152.46804,7.0001 151.90941,7.0001 Z m 0.11523,1.0019531 c 0.37972,7.572e-4 0.91296,0.1248404 1.44727,0.3105469 v 13.935547 c 0,1.22231 0.89866,2.235584 2.06641,2.425781 0.12731,0.02382 0.25744,0.03746 0.39062,0.04102 0.0224,5.98e-4 0.0439,0.0039 0.0664,0.0039 h 13.69336 c 0.23563,0.562366 0.41406,1.117889 0.41406,1.464844 v 31.349609 c 0,0.822556 -0.64278,1.466797 -1.45703,1.466797 h -36.09375 c -0.81435,0 -1.45703,-0.644183 -1.45703,-1.466797 V 9.4708031 c 0,-0.8225555 0.64277,-1.4667967 1.45703,-1.4667969 z m 2.47071,0.9238281 c 0.38082,0.2545633 0.76637,0.4323997 1.12695,0.8886719 l 0.0176,0.021484 12.62695,12.7343749 c 0.37192,0.371984 0.57528,0.75943 0.82813,1.144532 h -13.16602 c -0.0687,0 -0.13319,-0.01063 -0.19922,-0.01953 -0.70854,-0.123274 -1.23436,-0.730184 -1.23437,-1.478515 z m -5.12696,20.1035158 c -0.95835,0.01579 -1.99283,0.19721 -3.00976,0.558594 -1.93456,0.68784 -4.03207,1.771461 -5.54102,3.18164 -1.79267,1.676607 -2.077,3.133945 -1.96093,3.744141 0.41699,2.166683 3.40451,3.576394 4.59961,4.621094 -0.0602,0.03439 -0.1148,0.066 -0.16211,0.0918 -0.59758,0.296619 -2.87598,1.486503 -3.44336,2.746093 -0.64486,1.427275 0.10327,2.450312 0.59765,2.587891 1.53475,0.425608 3.11194,-0.339618 3.95899,-1.603516 0.8469,-1.263898 0.74275,-2.905953 0.35156,-3.658203 -0.004,-0.0086 -0.007,-0.01676 -0.0156,-0.02539 0.15476,-0.09027 0.31204,-0.185126 0.4668,-0.275391 0.30524,-0.180557 0.60731,-0.34875 0.86524,-0.486328 -0.14617,0.399809 -0.2531,0.878566 -0.30469,1.566406 -0.0645,0.808211 0.26502,1.856821 0.69922,2.269531 0.19345,0.180557 0.42219,0.183594 0.56836,0.183594 0.50728,0 0.73464,-0.42123 0.98828,-0.919922 0.30952,-0.610447 0.58984,-1.318359 0.58984,-1.318359 0,0 -0.34813,1.916015 0.59766,1.916015 0.34393,0 0.69094,-0.445984 0.8457,-0.673828 v 0.0039 c 0,0 0.0101,-0.01278 0.0273,-0.04297 0.0344,-0.05591 0.0547,-0.08984 0.0547,-0.08984 v -0.0098 c 0.13758,-0.240743 0.44821,-0.786266 0.90821,-1.693359 0.59326,-1.169325 1.16406,-2.630859 1.16406,-2.630859 0,0 0.0523,0.355951 0.22851,0.949218 0.10317,0.348215 0.3183,0.73186 0.49024,1.101563 -0.13758,0.193455 -0.22461,0.300781 -0.22461,0.300781 l 0.004,0.0039 c -0.11178,0.146169 -0.23196,0.30618 -0.36523,0.460938 -0.46859,0.558878 -1.02615,1.197974 -1.10352,1.382812 -0.0903,0.219253 -0.0685,0.378851 0.10352,0.507813 0.12468,0.09457 0.34638,0.108605 0.57422,0.0957 0.4213,-0.03011 0.71909,-0.134724 0.86523,-0.199219 0.22785,-0.08167 0.49478,-0.205759 0.74414,-0.390625 0.46,-0.339625 0.73869,-0.826272 0.71289,-1.466797 -0.0128,-0.352523 -0.12959,-0.70415 -0.27148,-1.035156 0.043,-0.06018 0.082,-0.119501 0.125,-0.179687 0.72654,-1.061852 1.29102,-2.228516 1.29102,-2.228516 0,0 0.0503,0.357933 0.22656,0.951172 0.086,0.300928 0.26321,0.627176 0.41797,0.945312 -0.68353,0.55457 -1.10541,1.199794 -1.25586,1.621094 -0.27085,0.782413 -0.06,1.135122 0.33984,1.216797 0.18056,0.03869 0.43781,-0.04723 0.62695,-0.128906 0.24075,-0.07739 0.52408,-0.210467 0.79493,-0.408203 0.45999,-0.339625 0.90272,-0.812573 0.87695,-1.453125 -0.0128,-0.292339 -0.0898,-0.58189 -0.19727,-0.861328 0.58037,-0.240743 1.32883,-0.373501 2.28321,-0.261719 2.04631,0.240742 2.45044,1.517298 2.37304,2.054687 -0.0774,0.537389 -0.50657,0.82963 -0.64843,0.919922 -0.14186,0.09027 -0.19064,0.121053 -0.17774,0.185547 0.0172,0.09457 0.0867,0.08947 0.20703,0.07227 0.16766,-0.0301 1.07459,-0.433106 1.11328,-1.421875 0.0645,-1.263898 -1.13956,-2.643759 -3.26757,-2.63086 -0.82111,0.0042 -1.53524,0.201803 -2.13282,0.494141 -0.21925,-0.434198 -0.43789,-0.821721 -0.47656,-1.105469 -0.043,-0.331035 -0.0946,-0.532232 -0.043,-0.927734 0.0516,-0.395501 0.28358,-0.958975 0.2793,-1.001953 -0.004,-0.043 -0.0505,-0.245719 -0.52344,-0.25 -0.47289,-0.0044 -0.8824,0.09212 -0.92969,0.216797 -0.0473,0.12468 -0.13708,0.406881 -0.19726,0.699218 -0.0817,0.42989 -0.94507,1.965602 -1.43945,2.769532 -0.15907,-0.313828 -0.29802,-0.589341 -0.32813,-0.808594 -0.043,-0.331035 -0.0945,-0.532234 -0.043,-0.927735 0.0516,-0.395502 0.28358,-0.958976 0.2793,-1.001953 -0.004,-0.04298 -0.0506,-0.245719 -0.52344,-0.25 -0.47289,-0.0042 -0.8824,0.09019 -0.92969,0.214844 -0.0473,0.12468 -0.0984,0.417423 -0.19726,0.701172 -0.0989,0.283748 -1.24595,2.845631 -1.54688,3.507812 -0.15476,0.339625 -0.28823,0.610085 -0.38281,0.794922 0,0 -0.005,0.01356 -0.0176,0.03516 -0.0817,0.159068 -0.1289,0.24414 -0.1289,0.24414 v 0.0039 c -0.0645,0.116063 -0.13358,0.22461 -0.16797,0.22461 -0.0258,0 -0.0719,-0.30917 0.01,-0.730469 0.17197,-0.889886 0.58049,-2.274979 0.57618,-2.322266 0,-0.02585 0.0764,-0.265945 -0.26758,-0.390625 -0.33532,-0.12468 -0.45622,0.08203 -0.48633,0.08203 -0.0301,0 -0.0508,0.07226 -0.0508,0.07226 0,0 0.37476,-1.55664 -0.71289,-1.55664 -0.67925,0 -1.61773,0.743402 -2.08203,1.414062 -0.29234,0.159068 -0.91568,0.499839 -1.58204,0.865235 -0.25364,0.14186 -0.51471,0.282745 -0.75976,0.416015 -0.0172,-0.01723 -0.0355,-0.0375 -0.0527,-0.05469 -1.31549,-1.405786 -3.74766,-2.399839 -3.64453,-4.28711 0.0387,-0.68784 0.27394,-2.493122 4.67188,-4.685547 3.61975,-1.78408 6.50128,-1.289599 7,-0.193359 0.71364,1.564826 -1.54495,4.471417 -5.28516,4.892578 -1.42727,0.159068 -2.17413,-0.391301 -2.36328,-0.597656 -0.19776,-0.214944 -0.2277,-0.228525 -0.30078,-0.185547 -0.12037,0.0645 -0.043,0.257388 0,0.369141 0.11178,0.292338 0.57151,0.808858 1.34961,1.0625 0.68784,0.223535 2.35986,0.348819 4.38476,-0.433594 2.2656,-0.877015 4.03771,-3.31528 3.51758,-5.357422 -0.35763,-1.424591 -2.0967,-2.192935 -4.20508,-2.158203 z m -0.63867,9.857422 c 0.058,0.0042 0.10224,0.0284 0.12696,0.07031 0.12468,0.219254 -0.45149,1.818575 -0.59766,2.179688 -0.23643,0.576059 -0.73035,2.050426 -1.03125,1.96875 -0.25795,-0.06878 -0.41813,-1.186186 -0.0527,-2.291016 0.18486,-0.55457 0.57684,-1.216658 0.80468,-1.474609 0.27728,-0.309532 0.5761,-0.465824 0.75,-0.453125 z m 7.64258,1.820312 c 0.043,0.137579 0.0727,0.269851 0.0684,0.394532 -0.004,0.8297 -0.59827,1.138616 -0.95508,1.267578 -0.0731,-0.0516 -0.0595,-0.222404 0.18555,-0.759766 0.0946,-0.210663 0.31857,-0.562719 0.70117,-0.902344 z m -12.35547,0.910157 c 0.30524,1.117729 0.0124,2.102783 -0.70117,2.880859 -0.67925,0.739435 -1.62477,1.019665 -2.0332,0.783203 -0.43851,-0.253641 -0.26761,-1.346493 0.5664,-2.128906 0.50729,-0.477204 1.16151,-0.920586 1.59571,-1.191406 0.0989,-0.06018 0.24562,-0.146434 0.42187,-0.253907 0.0301,-0.01723 0.0469,-0.02539 0.0469,-0.02539 0.0344,-0.02141 0.0691,-0.04293 0.10351,-0.06445 z m 9.24219,0.132812 v 0.05664 c 0,0.65776 -0.63617,1.100693 -0.91992,1.28125 -0.0989,0.0516 -0.19335,0.08635 -0.23633,0.06055 -0.0301,-0.01723 0.043,-0.08594 0.043,-0.08594 0,0 0.51084,-0.551421 0.71289,-0.800781 0.11606,-0.146169 0.25422,-0.318263 0.40039,-0.511719 z m -10.61523,8.638672 c -0.67188,0 -1.18881,0.127604 -1.55079,0.382812 -0.35937,0.255209 -0.53906,0.61849 -0.53906,1.089844 0,0.205729 0.0339,0.388021 0.10156,0.546875 0.0703,0.158854 0.17058,0.298177 0.30079,0.417969 0.1302,0.117187 0.30729,0.223958 0.53125,0.320312 0.22656,0.09636 0.55729,0.192709 0.99218,0.289063 0.25,0.05729 0.47787,0.110677 0.6836,0.160156 0.20573,0.04948 0.38281,0.110677 0.53125,0.183594 0.14843,0.07292 0.26302,0.165364 0.34375,0.277344 0.0833,0.111979 0.125,0.257812 0.125,0.4375 0,0.320312 -0.13151,0.563802 -0.39453,0.730468 -0.26042,0.164063 -0.63151,0.246094 -1.11329,0.246094 -0.46614,0 -0.83463,-0.07682 -1.10546,-0.230469 -0.27084,-0.15625 -0.44792,-0.399739 -0.53125,-0.730468 l -0.72266,0.144531 c 0.21354,0.932292 0.99088,1.398437 2.33203,1.398437 0.72135,0 1.27995,-0.139323 1.67578,-0.417968 0.39844,-0.278646 0.59766,-0.671875 0.59766,-1.179688 0,-0.200521 -0.0286,-0.375 -0.0859,-0.523437 -0.0547,-0.148438 -0.13151,-0.277344 -0.23047,-0.386719 -0.099,-0.109375 -0.21614,-0.201823 -0.35156,-0.277344 -0.13281,-0.07552 -0.27604,-0.140625 -0.42969,-0.195312 -0.15364,-0.05729 -0.3151,-0.105469 -0.48437,-0.144532 -0.16667,-0.04167 -0.33464,-0.08203 -0.50391,-0.121093 -0.50521,-0.11198 -0.84245,-0.20573 -1.01172,-0.28125 -0.16927,-0.07813 -0.29948,-0.171875 -0.39062,-0.28125 -0.0885,-0.11198 -0.13282,-0.252605 -0.13282,-0.421875 0,-0.289063 0.11589,-0.506511 0.34766,-0.652344 0.23177,-0.145833 0.56771,-0.21875 1.00781,-0.21875 0.40104,0 0.71485,0.06641 0.94141,0.199219 0.22656,0.130208 0.38021,0.341145 0.46094,0.632812 l 0.73437,-0.128906 c -0.13281,-0.460938 -0.36458,-0.786458 -0.69531,-0.976563 -0.33073,-0.192708 -0.80859,-0.289062 -1.43359,-0.289062 z m 10.67187,0 c -0.67187,0 -1.1888,0.127604 -1.55078,0.382812 -0.35938,0.255209 -0.53906,0.61849 -0.53906,1.089844 0,0.205729 0.0339,0.388021 0.10156,0.546875 0.0703,0.158854 0.17057,0.298177 0.30078,0.417969 0.13021,0.117187 0.30729,0.223958 0.53125,0.320312 0.22656,0.09636 0.55729,0.192709 0.99219,0.289063 0.25,0.05729 0.47786,0.110677 0.68359,0.160156 0.20573,0.04948 0.38281,0.110677 0.53125,0.183594 0.14844,0.07292 0.26302,0.165364 0.34375,0.277344 0.0833,0.111979 0.125,0.257812 0.125,0.4375 0,0.320312 -0.13151,0.563802 -0.39453,0.730468 -0.26042,0.164063 -0.63151,0.246094 -1.11328,0.246094 -0.46615,0 -0.83464,-0.07682 -1.10547,-0.230469 -0.27083,-0.15625 -0.44792,-0.399739 -0.53125,-0.730468 l -0.72266,0.144531 c 0.21355,0.932292 0.99089,1.398437 2.33204,1.398437 0.72135,0 1.27994,-0.139323 1.67578,-0.417968 0.39843,-0.278646 0.59765,-0.671875 0.59765,-1.179688 0,-0.200521 -0.0286,-0.375 -0.0859,-0.523437 -0.0547,-0.148438 -0.13151,-0.277344 -0.23047,-0.386719 -0.099,-0.109375 -0.21615,-0.201823 -0.35157,-0.277344 -0.13281,-0.07552 -0.27604,-0.140625 -0.42968,-0.195312 -0.15365,-0.05729 -0.31511,-0.105469 -0.48438,-0.144532 -0.16666,-0.04167 -0.33463,-0.08203 -0.5039,-0.121093 -0.50521,-0.11198 -0.84245,-0.20573 -1.01172,-0.28125 -0.16927,-0.07813 -0.29948,-0.171875 -0.39063,-0.28125 -0.0885,-0.11198 -0.13281,-0.252605 -0.13281,-0.421875 0,-0.289063 0.11588,-0.506511 0.34766,-0.652344 0.23177,-0.145833 0.5677,-0.21875 1.00781,-0.21875 0.40104,0 0.71484,0.06641 0.9414,0.199219 0.22657,0.130208 0.38021,0.341145 0.46094,0.632812 l 0.73438,-0.128906 c -0.13282,-0.460938 -0.36459,-0.786458 -0.69532,-0.976563 -0.33072,-0.192708 -0.80859,-0.289062 -1.43359,-0.289062 z m 5.33594,0 c -0.67188,0 -1.1888,0.127604 -1.55078,0.382812 -0.35938,0.255209 -0.53907,0.61849 -0.53907,1.089844 0,0.205729 0.0339,0.388021 0.10157,0.546875 0.0703,0.158854 0.17057,0.298177 0.30078,0.417969 0.13021,0.117187 0.30729,0.223958 0.53125,0.320312 0.22656,0.09636 0.55729,0.192709 0.99219,0.289063 0.25,0.05729 0.47786,0.110677 0.68359,0.160156 0.20573,0.04948 0.38281,0.110677 0.53125,0.183594 0.14844,0.07292 0.26302,0.165364 0.34375,0.277344 0.0833,0.111979 0.125,0.257812 0.125,0.4375 0,0.320312 -0.13151,0.563802 -0.39453,0.730468 -0.26042,0.164063 -0.63151,0.246094 -1.11328,0.246094 -0.46615,0 -0.83464,-0.07682 -1.10547,-0.230469 -0.27084,-0.15625 -0.44792,-0.399739 -0.53125,-0.730468 l -0.72266,0.144531 c 0.21354,0.932292 0.99089,1.398437 2.33203,1.398437 0.72136,0 1.27995,-0.139323 1.67578,-0.417968 0.39844,-0.278646 0.59766,-0.671875 0.59766,-1.179688 0,-0.200521 -0.0286,-0.375 -0.0859,-0.523437 -0.0547,-0.148438 -0.13151,-0.277344 -0.23047,-0.386719 -0.099,-0.109375 -0.21614,-0.201823 -0.35156,-0.277344 -0.13281,-0.07552 -0.27604,-0.140625 -0.42969,-0.195312 -0.15364,-0.05729 -0.3151,-0.105469 -0.48437,-0.144532 -0.16667,-0.04167 -0.33464,-0.08203 -0.50391,-0.121093 -0.50521,-0.11198 -0.84244,-0.20573 -1.01172,-0.28125 -0.16927,-0.07813 -0.29947,-0.171875 -0.39062,-0.28125 -0.0885,-0.11198 -0.13281,-0.252605 -0.13281,-0.421875 0,-0.289063 0.11588,-0.506511 0.34765,-0.652344 0.23177,-0.145833 0.56771,-0.21875 1.00782,-0.21875 0.40104,0 0.71484,0.06641 0.9414,0.199219 0.22656,0.130208 0.38021,0.341145 0.46094,0.632812 l 0.73437,-0.128906 c -0.13281,-0.460938 -0.36458,-0.786458 -0.69531,-0.976563 -0.33073,-0.192708 -0.80859,-0.289062 -1.43359,-0.289062 z m -11.1211,0.08203 -2.24609,5.503906 h 0.77344 l 0.63281,-1.609375 h 2.50781 l 0.62891,1.609375 h 0.76172 l -2.21094,-5.503906 z m 0.41407,0.5625 0.10547,0.324219 c 0.0729,0.226562 0.14583,0.429687 0.21875,0.609375 l 0.70703,1.816406 h -2.0586 l 0.70313,-1.808594 c 0.1276,-0.338541 0.22396,-0.615885 0.28906,-0.832031 z"
       transform="translate(-118.4973,-1.0001)" />
  </g>
</svg>
