<?xml version="1.0" encoding="UTF-8" standalone="no"?>
<svg
   width="43.546024"
   height="55.538212"
   version="1.1"
   viewBox="0 0 43.546024 55.538212"
   id="svg3"
   xmlns:xlink="http://www.w3.org/1999/xlink"
   xmlns="http://www.w3.org/2000/svg"
   xmlns:svg="http://www.w3.org/2000/svg">
  <defs
     id="defs3">
    <linearGradient
       id="linearGradient19">
      <stop
         style="stop-color:#039bfc;stop-opacity:0;"
         offset="0"
         id="stop20" />
      <stop
         style="stop-color:#039bfc;stop-opacity:1;"
         offset="1"
         id="stop19" />
    </linearGradient>
    <linearGradient
       xlink:href="#linearGradient19"
       id="linearGradient20"
       x1="32.115944"
       y1="64"
       x2="32.115944"
       y2="22.376812"
       gradientUnits="userSpaceOnUse" />
    <filter
       style="color-interpolation-filters:sRGB"
       id="filter20"
       x="-0.030947896"
       y="-0.023945386"
       width="1.0618958"
       height="1.0478908">
      <feGaussianBlur
         stdDeviation="0.52879393"
         id="feGaussianBlur20" />
    </filter>
  </defs>
  <g
     id="g20"
     transform="translate(-10.222995,-4.7308946)">
    <path
       id="path1"
       style="display:inline;opacity:0.6;fill:#039bfc;filter:url(#filter20)"
       d="m 151.80394,7.0001 -0.004,0.00195 -19.35351,0.00391 c -1.35355,0 -2.45703,1.1084593 -2.45703,2.4648437 V 57.533303 c 0,1.356386 1.10343,2.466797 2.45703,2.466797 h 36.09375 c 1.35354,0 2.45703,-1.110412 2.45703,-2.466797 V 26.183694 c 0,-0.440775 -0.10327,-0.93784 -0.29297,-1.464844 h 0.0606 l -0.35547,-0.722656 c -0.0256,-0.05172 -0.0587,-0.104197 -0.0859,-0.15625 l -0.0605,-0.125 h -0.008 c -0.33862,-0.618179 -0.7885,-1.252822 -1.38476,-1.84961 l -0.002,-0.002 L 156.26488,9.1524437 C 155.67159,8.4151755 155.0115,7.918962 154.36644,7.59385 154.28114,7.550863 154.19507,7.50998 154.11058,7.4727562 l -0.0859,-0.037109 -0.0312,-0.00195 C 153.20882,7.1007523 152.46804,7.0001 151.90941,7.0001 Z m 0.11523,1.0019531 c 0.37972,7.572e-4 0.91296,0.1248404 1.44727,0.3105469 v 13.935547 c 0,1.22231 0.89866,2.235584 2.06641,2.425781 0.12731,0.02382 0.25744,0.03746 0.39062,0.04102 0.0224,5.98e-4 0.0439,0.0039 0.0664,0.0039 h 13.69336 c 0.23563,0.562366 0.41406,1.117889 0.41406,1.464844 v 31.349609 c 0,0.822556 -0.64278,1.466797 -1.45703,1.466797 h -36.09375 c -0.81435,0 -1.45703,-0.644183 -1.45703,-1.466797 V 9.4708031 c 0,-0.8225555 0.64277,-1.4667967 1.45703,-1.4667969 z m 2.47071,0.9238281 c 0.38082,0.2545633 0.76637,0.4323997 1.12695,0.8886719 l 0.0176,0.021484 12.62695,12.7343749 c 0.37192,0.371984 0.57528,0.75943 0.82813,1.144532 h -13.16602 c -0.0687,0 -0.13319,-0.01063 -0.19922,-0.01953 -0.70854,-0.123274 -1.23436,-0.730184 -1.23437,-1.478515 z M 137.14964,28.826272 v 1.849609 h 5.25391 v 14.150391 h 2.25391 V 30.675881 h 5.2539 v -1.849609 z m 16.36133,0 v 16 h 10.23633 v -1.849609 h -7.9707 V 28.826272 Z m -9.98047,23.011719 c -0.57291,0 -1.01866,0.166449 -1.33984,0.498047 -0.32118,0.32986 -0.48242,0.788194 -0.48242,1.375 0,0.385416 0.0727,0.723741 0.21679,1.013671 0.1441,0.288195 0.35244,0.507379 0.625,0.660157 0.27431,0.152777 0.59983,0.230468 0.97657,0.230468 0.37326,0 0.69639,-0.07791 0.9707,-0.232421 0.27431,-0.154514 0.48503,-0.375869 0.63086,-0.664063 0.14757,-0.288194 0.2207,-0.624132 0.2207,-1.007812 0,-0.385417 -0.0729,-0.718968 -0.21875,-1.001954 -0.14409,-0.282986 -0.35265,-0.498915 -0.62695,-0.646484 -0.27431,-0.149305 -0.59939,-0.224609 -0.97266,-0.224609 z m 16.48242,0 c -0.55902,0 -0.99652,0.166449 -1.3125,0.498047 -0.31597,0.331597 -0.4746,0.78993 -0.4746,1.375 0,0.390624 0.0703,0.729166 0.21093,1.015625 0.14236,0.284722 0.34809,0.503689 0.61719,0.658203 0.27083,0.152777 0.59115,0.230468 0.96094,0.230468 0.36111,0 0.6786,-0.08312 0.95117,-0.248046 0.27431,-0.164931 0.48763,-0.404732 0.63867,-0.720704 l -0.40625,-0.203125 c -0.25868,0.508681 -0.64627,0.761719 -1.16015,0.761719 -0.40105,0 -0.71897,-0.135634 -0.95508,-0.408203 -0.23438,-0.274305 -0.35157,-0.636285 -0.35157,-1.085937 0,-0.454861 0.1122,-0.81185 0.3379,-1.072266 0.22569,-0.262153 0.54296,-0.394531 0.94921,-0.394531 0.25868,0 0.48047,0.05707 0.66797,0.169922 0.18924,0.112847 0.32704,0.276692 0.41211,0.490234 l 0.47071,-0.15625 c -0.12327,-0.300347 -0.31598,-0.52691 -0.57813,-0.679688 -0.26215,-0.152777 -0.58789,-0.230468 -0.97852,-0.230468 z m -25.54687,0.05469 v 0.40625 h 1.25977 V 55.5626 h 0.49609 v -3.263672 h 1.25976 v -0.40625 z m 3.57617,0 V 55.5626 h 0.4961 v -1.523437 h 1.14453 l 0.95312,1.523437 h 0.57227 l -1.04102,-1.580078 c 0.27952,-0.04861 0.49827,-0.165799 0.65625,-0.351563 0.15972,-0.185763 0.23828,-0.41493 0.23828,-0.6875 0,-0.329861 -0.11219,-0.587456 -0.33789,-0.771484 -0.22396,-0.185764 -0.54188,-0.279297 -0.95508,-0.279297 z m 8,0 V 55.5626 h 2.35156 v -0.40625 h -1.85546 v -3.263672 z m 2.96485,0 V 55.5626 h 2.35156 v -0.40625 h -1.85352 v -3.263672 z m 2.2539,0 v 0.40625 h 1.25977 V 55.5626 h 0.49414 v -3.263672 h 1.26172 v -0.40625 z m 3.57422,0 V 55.5626 h 2.89063 v -0.40625 h -2.39258 v -1.279297 h 2.13086 v -0.40039 h -2.13086 v -1.177735 h 2.28711 v -0.40625 z m 7.41016,0 V 55.5626 h 0.49609 v -1.701172 h 1.98438 V 55.5626 h 0.49804 v -3.669922 h -0.49804 v 1.552735 h -1.98438 v -1.552735 z m -18.71485,0.351563 c 0.41667,0 0.73937,0.130208 0.9668,0.390625 0.22917,0.260416 0.34375,0.619575 0.34375,1.076172 0,0.47743 -0.11437,0.847222 -0.3418,1.109375 -0.22569,0.260416 -0.54904,0.390625 -0.97265,0.390625 -0.41146,0 -0.73416,-0.1352 -0.9668,-0.404297 -0.2309,-0.270834 -0.3457,-0.635634 -0.3457,-1.095703 0,-0.463542 0.11458,-0.823134 0.34375,-1.080079 0.22916,-0.256944 0.55251,-0.386718 0.97265,-0.386718 z m -4.99218,0.04687 h 1.17968 c 0.27257,0 0.48091,0.05707 0.625,0.169922 0.14584,0.111111 0.21875,0.272786 0.21875,0.486328 0,0.220486 -0.0707,0.392361 -0.21484,0.515625 -0.14236,0.121527 -0.34527,0.183593 -0.60742,0.183593 h -1.20117 z"
       transform="translate(-118.4973,-1.0001)" />
    <path
       id="path19"
       style="fill:url(#linearGradient20);fill-opacity:1"
       d="m 33.30663,6 -0.0039,0.00195 -19.35351,0.00391 c -1.35355,0 -2.45703,1.1084593 -2.45703,2.4648437 V 56.533203 C 11.49218,57.889589 12.59561,59 13.94921,59 h 36.09375 c 1.35354,0 2.45703,-1.110412 2.45703,-2.466797 V 25.183594 c 0,-0.440775 -0.10327,-0.93784 -0.29297,-1.464844 h 0.06055 L 51.9121,22.996094 c -0.0256,-0.05172 -0.05866,-0.104197 -0.08594,-0.15625 l -0.06055,-0.125 h -0.0078 c -0.33862,-0.618179 -0.7885,-1.252822 -1.38476,-1.84961 l -0.002,-0.002 L 37.76757,8.1523437 C 37.17428,7.4150755 36.51419,6.918862 35.86913,6.59375 35.78384,6.550763 35.69776,6.50988 35.61327,6.4726562 l -0.08594,-0.037109 -0.03125,-0.00195 C 34.71151,6.1006523 33.97073,6 33.4121,6 Z m 0.11523,1.0019531 c 0.37972,7.572e-4 0.91296,0.1248404 1.44727,0.3105469 v 13.935547 c 0,1.22231 0.89866,2.235584 2.06641,2.425781 0.12731,0.02382 0.25744,0.03746 0.39062,0.04102 0.02237,5.98e-4 0.0439,0.0039 0.06641,0.0039 h 13.69336 c 0.23563,0.562366 0.41406,1.117889 0.41406,1.464844 V 56.533203 C 51.49999,57.355759 50.85721,58 50.04296,58 H 13.94921 c -0.81435,0 -1.45703,-0.644183 -1.45703,-1.466797 V 8.4707031 c 0,-0.8225555 0.64277,-1.4667967 1.45703,-1.4667969 z m 2.47071,0.9238281 c 0.38082,0.2545633 0.76637,0.4323997 1.12695,0.8886719 l 0.01758,0.021484 12.62695,12.7343749 c 0.37192,0.371984 0.57528,0.75943 0.82813,1.144532 H 37.32616 c -0.06875,0 -0.13319,-0.01063 -0.19922,-0.01953 C 36.4184,22.57204 35.89258,21.96513 35.89257,21.216799 Z M 18.65233,27.826172 v 1.849609 h 5.25391 v 14.150391 h 2.25391 V 29.675781 h 5.2539 v -1.849609 z m 16.36133,0 v 16 h 10.23633 v -1.849609 h -7.9707 V 27.826172 Z m -9.98047,23.011719 c -0.57291,0 -1.01866,0.166449 -1.33984,0.498047 -0.32118,0.32986 -0.48242,0.788194 -0.48242,1.375 0,0.385416 0.0727,0.723741 0.21679,1.013671 0.1441,0.288195 0.35244,0.507379 0.625,0.660157 0.27431,0.152777 0.59983,0.230468 0.97657,0.230468 0.37326,0 0.69639,-0.07791 0.9707,-0.232421 0.27431,-0.154514 0.48503,-0.375869 0.63086,-0.664063 0.14757,-0.288194 0.2207,-0.624132 0.2207,-1.007812 0,-0.385417 -0.07291,-0.718968 -0.21875,-1.001954 -0.14409,-0.282986 -0.35265,-0.498915 -0.62695,-0.646484 -0.27431,-0.149305 -0.59939,-0.224609 -0.97266,-0.224609 z m 16.48242,0 c -0.55902,0 -0.99652,0.166449 -1.3125,0.498047 -0.31597,0.331597 -0.4746,0.78993 -0.4746,1.375 0,0.390624 0.07031,0.729166 0.21093,1.015625 0.14236,0.284722 0.34809,0.503689 0.61719,0.658203 0.27083,0.152777 0.59115,0.230468 0.96094,0.230468 0.36111,0 0.6786,-0.08312 0.95117,-0.248046 0.27431,-0.164931 0.48763,-0.404732 0.63867,-0.720704 l -0.40625,-0.203125 c -0.25868,0.508681 -0.64627,0.761719 -1.16015,0.761719 -0.40105,0 -0.71897,-0.135634 -0.95508,-0.408203 -0.23438,-0.274305 -0.35157,-0.636285 -0.35157,-1.085937 0,-0.454861 0.1122,-0.81185 0.3379,-1.072266 0.22569,-0.262153 0.54296,-0.394531 0.94921,-0.394531 0.25868,0 0.48047,0.05707 0.66797,0.169922 0.18924,0.112847 0.32704,0.276692 0.41211,0.490234 l 0.47071,-0.15625 C 42.94899,51.4477 42.75628,51.221137 42.49413,51.068359 42.23198,50.915582 41.90624,50.837891 41.51561,50.837891 Z m -25.54687,0.05469 v 0.40625 h 1.25977 V 54.5625 h 0.49609 v -3.263672 h 1.25976 v -0.40625 z m 3.57617,0 V 54.5625 h 0.4961 v -1.523437 h 1.14453 l 0.95312,1.523437 h 0.57227 l -1.04102,-1.580078 c 0.27952,-0.04861 0.49827,-0.165799 0.65625,-0.351563 0.15972,-0.185763 0.23828,-0.41493 0.23828,-0.6875 0,-0.329861 -0.11219,-0.587456 -0.33789,-0.771484 -0.22396,-0.185764 -0.54188,-0.279297 -0.95508,-0.279297 z m 8,0 V 54.5625 h 2.35156 v -0.40625 h -1.85546 v -3.263672 z m 2.96485,0 V 54.5625 h 2.35156 V 54.15625 H 31.0078 v -3.263672 z m 2.2539,0 v 0.40625 h 1.25977 V 54.5625 h 0.49414 v -3.263672 h 1.26172 v -0.40625 z m 3.57422,0 V 54.5625 h 2.89063 v -0.40625 h -2.39258 v -1.279297 h 2.13086 v -0.40039 h -2.13086 v -1.177735 h 2.28711 v -0.40625 z m 7.41016,0 V 54.5625 h 0.49609 v -1.701172 h 1.98438 V 54.5625 h 0.49804 v -3.669922 h -0.49804 v 1.552735 h -1.98438 v -1.552735 z m -18.71485,0.351563 c 0.41667,0 0.73937,0.130208 0.9668,0.390625 0.22917,0.260416 0.34375,0.619575 0.34375,1.076172 0,0.47743 -0.11437,0.847222 -0.3418,1.109375 -0.22569,0.260416 -0.54904,0.390625 -0.97265,0.390625 -0.41146,0 -0.73416,-0.1352 -0.9668,-0.404297 -0.2309,-0.270834 -0.3457,-0.635634 -0.3457,-1.095703 0,-0.463542 0.11458,-0.823134 0.34375,-1.080079 0.22916,-0.256944 0.55251,-0.386718 0.97265,-0.386718 z m -4.99218,0.04687 h 1.17968 c 0.27257,0 0.48091,0.05707 0.625,0.169922 0.14584,0.111111 0.21875,0.272786 0.21875,0.486328 0,0.220486 -0.07074,0.392361 -0.21484,0.515625 -0.14236,0.121527 -0.34527,0.183593 -0.60742,0.183593 h -1.20117 z" />
  </g>
</svg>
