<?xml version="1.0" encoding="UTF-8" standalone="no"?>
<svg
   width="43.546024"
   height="55.538212"
   version="1.1"
   viewBox="0 0 43.546024 55.538212"
   id="svg3"
   xmlns:xlink="http://www.w3.org/1999/xlink"
   xmlns="http://www.w3.org/2000/svg"
   xmlns:svg="http://www.w3.org/2000/svg">
  <defs
     id="defs3">
    <linearGradient
       id="linearGradient23">
      <stop
         style="stop-color:#00abff;stop-opacity:0;"
         offset="0"
         id="stop24" />
      <stop
         style="stop-color:#00abff;stop-opacity:1;"
         offset="1"
         id="stop23" />
    </linearGradient>
    <linearGradient
       xlink:href="#linearGradient23"
       id="linearGradient24"
       x1="150.14948"
       y1="65.000099"
       x2="150.14948"
       y2="24.536331"
       gradientUnits="userSpaceOnUse" />
    <filter
       style="color-interpolation-filters:sRGB"
       id="filter24"
       x="-0.030947896"
       y="-0.023945386"
       width="1.0618958"
       height="1.0478908">
      <feGaussianBlur
         stdDeviation="0.52879393"
         id="feGaussianBlur24" />
    </filter>
  </defs>
  <g
     id="g24"
     transform="translate(-10.222995,-4.7308946)">
    <path
       id="path1"
       style="display:inline;opacity:0.6;fill:#00abff;fill-opacity:1;stroke:none;filter:url(#filter24)"
       d="m 151.80394,7.0001 -0.004,0.00195 -19.35351,0.00391 c -1.35355,0 -2.45703,1.1084593 -2.45703,2.4648437 V 57.533303 c 0,1.356386 1.10343,2.466797 2.45703,2.466797 h 36.09375 c 1.35354,0 2.45703,-1.110412 2.45703,-2.466797 V 26.183694 c 0,-0.440775 -0.10327,-0.93784 -0.29297,-1.464844 h 0.0606 l -0.35547,-0.722656 c -0.0256,-0.05172 -0.0587,-0.104197 -0.0859,-0.15625 l -0.0605,-0.125 h -0.008 c -0.33862,-0.618179 -0.7885,-1.252822 -1.38476,-1.84961 l -0.002,-0.002 L 156.26488,9.1524437 C 155.67159,8.4151755 155.0115,7.918962 154.36644,7.59385 154.28114,7.550863 154.19507,7.50998 154.11058,7.4727562 l -0.0859,-0.037109 -0.0312,-0.00195 C 153.20882,7.1007523 152.46804,7.0001 151.90941,7.0001 Z m 0.11523,1.0019531 c 0.37972,7.572e-4 0.91296,0.1248404 1.44727,0.3105469 v 13.935547 c 0,1.22231 0.89866,2.235584 2.06641,2.425781 0.12731,0.02382 0.25744,0.03746 0.39062,0.04102 0.0224,5.98e-4 0.0439,0.0039 0.0664,0.0039 h 13.69336 c 0.23563,0.562366 0.41406,1.117889 0.41406,1.464844 v 31.349609 c 0,0.822556 -0.64278,1.466797 -1.45703,1.466797 h -36.09375 c -0.81435,0 -1.45703,-0.644183 -1.45703,-1.466797 V 9.4708031 c 0,-0.8225555 0.64277,-1.4667967 1.45703,-1.4667969 z m 2.47071,0.9238281 c 0.38082,0.2545633 0.76637,0.4323997 1.12695,0.8886719 l 0.0176,0.021484 12.62695,12.7343749 c 0.37192,0.371984 0.57528,0.75943 0.82813,1.144532 h -13.16602 c -0.0687,0 -0.13319,-0.01063 -0.19922,-0.01953 -0.70854,-0.123274 -1.23436,-0.730184 -1.23437,-1.478515 z m -3.86719,18.5332028 c -1.55404,0 -2.92302,0.371963 -4.10547,1.115235 -1.18251,0.734928 -2.0892,1.782774 -2.72265,3.142578 -0.625,1.351402 -0.9375,2.930857 -0.9375,4.738281 v 0.91211 c 0,2.880018 0.69625,5.109999 2.08984,6.689453 1.39363,1.579392 3.30249,2.36914 5.72656,2.36914 1.46964,0 2.77385,-0.271952 3.91406,-0.8125 1.14872,-0.540569 2.04037,-1.299571 2.67383,-2.279297 0.63346,-0.988168 0.97994,-2.124423 1.03906,-3.408203 h -4.42187 c -0.0338,1.047327 -0.32078,1.811578 -0.86133,2.292969 -0.54055,0.48143 -1.32177,0.722656 -2.34375,0.722656 -1.20779,0 -2.06028,-0.422994 -2.55859,-1.267578 -0.48988,-0.844703 -0.73633,-2.250896 -0.73633,-4.21875 v -1.304687 c 0.0254,-1.815767 0.2973,-3.137105 0.8125,-3.964844 0.5152,-0.827737 1.3252,-1.242188 2.43164,-1.242188 1.08954,0 1.89954,0.244503 2.43164,0.734375 0.5321,0.489913 0.81583,1.296612 0.84961,2.419922 h 4.43359 c -0.18581,-2.069225 -0.95853,-3.691207 -2.31836,-4.865234 -1.35958,-1.182469 -3.15818,-1.773438 -5.39648,-1.773438 z m 11.56836,22.464844 c -0.83854,0 -1.49479,0.248698 -1.96875,0.746094 -0.47396,0.497396 -0.71094,1.184896 -0.71094,2.0625 0,0.585937 0.10547,1.09375 0.31641,1.523437 0.21354,0.427084 0.52213,0.756511 0.92578,0.988282 0.40625,0.229166 0.88672,0.34375 1.44141,0.34375 0.54166,0 1.01692,-0.123698 1.42578,-0.371094 0.41146,-0.247396 0.73047,-0.608073 0.95703,-1.082031 l -0.60938,-0.304688 c -0.38802,0.763021 -0.96744,1.144531 -1.73828,1.144531 -0.60156,0 -1.07942,-0.204427 -1.43359,-0.613281 -0.35156,-0.411458 -0.52735,-0.954427 -0.52735,-1.628906 0,-0.682292 0.16928,-1.21875 0.50782,-1.609375 0.33854,-0.393229 0.8125,-0.589844 1.42187,-0.589844 0.38802,0 0.72266,0.08464 1.00391,0.253906 0.28385,0.169271 0.48958,0.414063 0.61719,0.734375 l 0.70703,-0.234375 c -0.1849,-0.45052 -0.47396,-0.790364 -0.86719,-1.019531 -0.39323,-0.229167 -0.88281,-0.34375 -1.46875,-0.34375 z m -25.57422,0.08203 v 0.609375 h 1.89063 v 4.894532 h 0.74218 v -4.894532 h 1.89063 v -0.609375 z m 5.36328,0 v 5.503907 h 4.33594 V 54.90049 h -3.58984 v -1.917969 h 3.19531 v -0.601563 h -3.19531 v -1.765625 h 3.42968 v -0.609375 z m 5.01953,0 1.9336,2.644532 -2.09375,2.859375 h 0.82422 l 1.6875,-2.40625 1.65234,2.40625 h 0.82422 l -2.04297,-2.886719 1.88281,-2.617188 h -0.82422 l -1.48828,2.160157 -1.53125,-2.160157 z m 5.17578,0 v 0.609375 h 1.89063 v 4.894532 h 0.74219 v -4.894532 h 1.89062 v -0.609375 z m 4.6211,3.066407 v 0.625 h 1.95312 v -0.625 z"
       transform="translate(-118.4973,-1.0001)" />
    <path
       id="path23"
       style="fill:url(#linearGradient24);fill-opacity:1;stroke:none"
       d="m 151.80394,7.0001 -0.004,0.00195 -19.35351,0.00391 c -1.35355,0 -2.45703,1.1084593 -2.45703,2.4648437 V 57.533303 c 0,1.356386 1.10343,2.466797 2.45703,2.466797 h 36.09375 c 1.35354,0 2.45703,-1.110412 2.45703,-2.466797 V 26.183694 c 0,-0.440775 -0.10327,-0.93784 -0.29297,-1.464844 h 0.0606 l -0.35547,-0.722656 c -0.0256,-0.05172 -0.0587,-0.104197 -0.0859,-0.15625 l -0.0605,-0.125 h -0.008 c -0.33862,-0.618179 -0.7885,-1.252822 -1.38476,-1.84961 l -0.002,-0.002 L 156.26488,9.1524437 C 155.67159,8.4151755 155.0115,7.918962 154.36644,7.59385 154.28114,7.550863 154.19507,7.50998 154.11058,7.4727562 l -0.0859,-0.037109 -0.0312,-0.00195 C 153.20882,7.1007523 152.46804,7.0001 151.90941,7.0001 Z m 0.11523,1.0019531 c 0.37972,7.572e-4 0.91296,0.1248404 1.44727,0.3105469 v 13.935547 c 0,1.22231 0.89866,2.235584 2.06641,2.425781 0.12731,0.02382 0.25744,0.03746 0.39062,0.04102 0.0224,5.98e-4 0.0439,0.0039 0.0664,0.0039 h 13.69336 c 0.23563,0.562366 0.41406,1.117889 0.41406,1.464844 v 31.349609 c 0,0.822556 -0.64278,1.466797 -1.45703,1.466797 h -36.09375 c -0.81435,0 -1.45703,-0.644183 -1.45703,-1.466797 V 9.4708031 c 0,-0.8225555 0.64277,-1.4667967 1.45703,-1.4667969 z m 2.47071,0.9238281 c 0.38082,0.2545633 0.76637,0.4323997 1.12695,0.8886719 l 0.0176,0.021484 12.62695,12.7343749 c 0.37192,0.371984 0.57528,0.75943 0.82813,1.144532 h -13.16602 c -0.0687,0 -0.13319,-0.01063 -0.19922,-0.01953 -0.70854,-0.123274 -1.23436,-0.730184 -1.23437,-1.478515 z m -3.86719,18.5332028 c -1.55404,0 -2.92302,0.371963 -4.10547,1.115235 -1.18251,0.734928 -2.0892,1.782774 -2.72265,3.142578 -0.625,1.351402 -0.9375,2.930857 -0.9375,4.738281 v 0.91211 c 0,2.880018 0.69625,5.109999 2.08984,6.689453 1.39363,1.579392 3.30249,2.36914 5.72656,2.36914 1.46964,0 2.77385,-0.271952 3.91406,-0.8125 1.14872,-0.540569 2.04037,-1.299571 2.67383,-2.279297 0.63346,-0.988168 0.97994,-2.124423 1.03906,-3.408203 h -4.42187 c -0.0338,1.047327 -0.32078,1.811578 -0.86133,2.292969 -0.54055,0.48143 -1.32177,0.722656 -2.34375,0.722656 -1.20779,0 -2.06028,-0.422994 -2.55859,-1.267578 -0.48988,-0.844703 -0.73633,-2.250896 -0.73633,-4.21875 v -1.304687 c 0.0254,-1.815767 0.2973,-3.137105 0.8125,-3.964844 0.5152,-0.827737 1.3252,-1.242188 2.43164,-1.242188 1.08954,0 1.89954,0.244503 2.43164,0.734375 0.5321,0.489913 0.81583,1.296612 0.84961,2.419922 h 4.43359 c -0.18581,-2.069225 -0.95853,-3.691207 -2.31836,-4.865234 -1.35958,-1.182469 -3.15818,-1.773438 -5.39648,-1.773438 z m 11.56836,22.464844 c -0.83854,0 -1.49479,0.248698 -1.96875,0.746094 -0.47396,0.497396 -0.71094,1.184896 -0.71094,2.0625 0,0.585937 0.10547,1.09375 0.31641,1.523437 0.21354,0.427084 0.52213,0.756511 0.92578,0.988282 0.40625,0.229166 0.88672,0.34375 1.44141,0.34375 0.54166,0 1.01692,-0.123698 1.42578,-0.371094 0.41146,-0.247396 0.73047,-0.608073 0.95703,-1.082031 l -0.60938,-0.304688 c -0.38802,0.763021 -0.96744,1.144531 -1.73828,1.144531 -0.60156,0 -1.07942,-0.204427 -1.43359,-0.613281 -0.35156,-0.411458 -0.52735,-0.954427 -0.52735,-1.628906 0,-0.682292 0.16928,-1.21875 0.50782,-1.609375 0.33854,-0.393229 0.8125,-0.589844 1.42187,-0.589844 0.38802,0 0.72266,0.08464 1.00391,0.253906 0.28385,0.169271 0.48958,0.414063 0.61719,0.734375 l 0.70703,-0.234375 c -0.1849,-0.45052 -0.47396,-0.790364 -0.86719,-1.019531 -0.39323,-0.229167 -0.88281,-0.34375 -1.46875,-0.34375 z m -25.57422,0.08203 v 0.609375 h 1.89063 v 4.894532 h 0.74218 v -4.894532 h 1.89063 v -0.609375 z m 5.36328,0 v 5.503907 h 4.33594 V 54.90049 h -3.58984 v -1.917969 h 3.19531 v -0.601563 h -3.19531 v -1.765625 h 3.42968 v -0.609375 z m 5.01953,0 1.9336,2.644532 -2.09375,2.859375 h 0.82422 l 1.6875,-2.40625 1.65234,2.40625 h 0.82422 l -2.04297,-2.886719 1.88281,-2.617188 h -0.82422 l -1.48828,2.160157 -1.53125,-2.160157 z m 5.17578,0 v 0.609375 h 1.89063 v 4.894532 h 0.74219 v -4.894532 h 1.89062 v -0.609375 z m 4.6211,3.066407 v 0.625 h 1.95312 v -0.625 z"
       transform="translate(-118.4973,-1.0001)" />
  </g>
</svg>
