<?xml version="1.0" encoding="UTF-8" standalone="no"?>
<svg
   width="43.546024"
   height="55.538212"
   version="1.1"
   viewBox="0 0 43.546024 55.538212"
   id="svg3"
   xmlns:xlink="http://www.w3.org/1999/xlink"
   xmlns="http://www.w3.org/2000/svg"
   xmlns:svg="http://www.w3.org/2000/svg">
  <defs
     id="defs3">
    <linearGradient
       id="linearGradient11">
      <stop
         style="stop-color:#00abff;stop-opacity:0;"
         offset="0"
         id="stop12" />
      <stop
         style="stop-color:#00abff;stop-opacity:1;"
         offset="1"
         id="stop11" />
    </linearGradient>
    <linearGradient
       xlink:href="#linearGradient11"
       id="linearGradient12"
       x1="149.80165"
       y1="65.000099"
       x2="149.80165"
       y2="25.927637"
       gradientUnits="userSpaceOnUse" />
    <filter
       style="color-interpolation-filters:sRGB"
       id="filter12"
       x="-0.030947896"
       y="-0.023945386"
       width="1.0618958"
       height="1.0478908">
      <feGaussianBlur
         stdDeviation="0.52879393"
         id="feGaussianBlur12" />
    </filter>
  </defs>
  <g
     id="g12"
     transform="translate(-10.222995,-4.7308946)">
    <path
       id="path1"
       style="display:inline;opacity:0.6;fill:#00abff;fill-opacity:1;stroke:none;filter:url(#filter12)"
       d="m 151.80394,7.0001 -0.004,0.00195 -19.35351,0.00391 c -1.35355,0 -2.45703,1.1084593 -2.45703,2.4648437 V 57.533303 c 0,1.356386 1.10343,2.466797 2.45703,2.466797 h 36.09375 c 1.35354,0 2.45703,-1.110412 2.45703,-2.466797 V 26.183694 c 0,-0.440775 -0.10327,-0.93784 -0.29297,-1.464844 h 0.0606 l -0.35547,-0.722656 c -0.0256,-0.05172 -0.0587,-0.104197 -0.0859,-0.15625 l -0.0605,-0.125 h -0.008 c -0.33862,-0.618179 -0.7885,-1.252822 -1.38476,-1.84961 l -0.002,-0.002 L 156.26488,9.1524437 C 155.67159,8.4151755 155.0115,7.918962 154.36644,7.59385 154.28114,7.550863 154.19507,7.50998 154.11058,7.4727562 l -0.0859,-0.037109 -0.0312,-0.00195 C 153.20882,7.1007523 152.46804,7.0001 151.90941,7.0001 Z m 0.11523,1.0019531 c 0.37972,7.572e-4 0.91296,0.1248404 1.44727,0.3105469 v 13.935547 c 0,1.22231 0.89866,2.235584 2.06641,2.425781 0.12731,0.02382 0.25744,0.03746 0.39062,0.04102 0.0224,5.98e-4 0.0439,0.0039 0.0664,0.0039 h 13.69336 c 0.23563,0.562366 0.41406,1.117889 0.41406,1.464844 v 31.349609 c 0,0.822556 -0.64278,1.466797 -1.45703,1.466797 h -36.09375 c -0.81435,0 -1.45703,-0.644183 -1.45703,-1.466797 V 9.4708031 c 0,-0.8225555 0.64277,-1.4667967 1.45703,-1.4667969 z m 2.47071,0.9238281 c 0.38082,0.2545633 0.76637,0.4323997 1.12695,0.8886719 l 0.0176,0.021484 12.62695,12.7343749 c 0.37192,0.371984 0.57528,0.75943 0.82813,1.144532 h -13.16602 c -0.0687,0 -0.13319,-0.01063 -0.19922,-0.01953 -0.70854,-0.123274 -1.23436,-0.730184 -1.23437,-1.478515 z m -3.63086,19.4609378 c -0.669,0 -1.3408,0.08077 -2.01758,0.24414 -0.669,0.155585 -1.31516,0.378187 -1.9375,0.666016 -0.61456,0.280041 -1.19373,0.614948 -1.73828,1.003906 -0.53678,0.388964 -1.00759,0.812511 -1.41211,1.271485 -0.39675,0.458972 -0.71193,0.94557 -0.94531,1.458984 -0.2256,0.513413 -0.33789,1.033518 -0.33789,1.5625 0,0.435617 0.0532,0.802049 0.16211,1.097656 0.11668,0.295618 0.28019,0.532014 0.49023,0.710938 0.21782,0.178918 0.4877,0.310912 0.80664,0.396484 0.31893,0.07779 0.68341,0.117188 1.0957,0.117188 0,-0.04668 -0.0197,-0.10183 -0.0586,-0.164063 -0.0311,-0.06223 -0.0646,-0.146949 -0.10352,-0.255859 -0.0389,-0.116684 -0.0783,-0.268375 -0.11718,-0.455078 -0.0311,-0.194504 -0.0469,-0.442706 -0.0469,-0.746094 0,-1.33026 0.31125,-2.443297 0.9336,-3.337891 0.63012,-0.894617 1.50481,-1.55258 2.625,-1.972656 l 0.38476,16.326172 3.44336,-0.002 6.63867,-17.806641 h -1.66797 l -5.02929,14.632813 -0.21094,-14.701172 c -0.15558,-0.01555 -0.31121,-0.02738 -0.4668,-0.03516 -0.1478,-0.0078 -0.31131,-0.01172 -0.49023,-0.01172 z m -10.16797,21.630859 2.24609,5.503906 h 0.77344 l 2.24609,-5.503906 h -0.78515 l -1.51563,3.875 -0.32812,0.972656 -0.32813,-0.972656 -1.52343,-3.875 z m 6.96875,0 -2.24609,5.503906 h 0.77343 l 0.63282,-1.609375 h 2.50781 l 0.6289,1.609375 h 0.76172 l -2.21093,-5.503906 z m 3.73047,0 v 5.503906 h 3.52734 v -0.609375 h -2.78125 v -4.894531 z m 6.05469,0 -2.2461,5.503906 h 0.77344 l 0.63281,-1.609375 h 2.50781 l 0.62891,1.609375 h 0.76172 l -2.21094,-5.503906 z m -9.3711,0.5625 0.10547,0.324219 c 0.0729,0.226563 0.14583,0.429688 0.21875,0.609375 l 0.70703,1.816406 h -2.05859 l 0.70312,-1.808594 c 0.12761,-0.338542 0.22396,-0.615885 0.28907,-0.832031 z m 9.78516,0 0.10547,0.324219 c 0.0729,0.226563 0.14583,0.429688 0.21875,0.609375 l 0.70703,1.816406 h -2.0586 l 0.70313,-1.808594 c 0.1276,-0.338542 0.22396,-0.615885 0.28906,-0.832031 z"
       transform="translate(-118.4973,-1.0001)" />
    <path
       id="path11"
       style="fill:url(#linearGradient12);fill-opacity:1;stroke:none"
       d="m 151.80394,7.0001 -0.004,0.00195 -19.35351,0.00391 c -1.35355,0 -2.45703,1.1084593 -2.45703,2.4648437 V 57.533303 c 0,1.356386 1.10343,2.466797 2.45703,2.466797 h 36.09375 c 1.35354,0 2.45703,-1.110412 2.45703,-2.466797 V 26.183694 c 0,-0.440775 -0.10327,-0.93784 -0.29297,-1.464844 h 0.0606 l -0.35547,-0.722656 c -0.0256,-0.05172 -0.0587,-0.104197 -0.0859,-0.15625 l -0.0605,-0.125 h -0.008 c -0.33862,-0.618179 -0.7885,-1.252822 -1.38476,-1.84961 l -0.002,-0.002 L 156.26488,9.1524437 C 155.67159,8.4151755 155.0115,7.918962 154.36644,7.59385 154.28114,7.550863 154.19507,7.50998 154.11058,7.4727562 l -0.0859,-0.037109 -0.0312,-0.00195 C 153.20882,7.1007523 152.46804,7.0001 151.90941,7.0001 Z m 0.11523,1.0019531 c 0.37972,7.572e-4 0.91296,0.1248404 1.44727,0.3105469 v 13.935547 c 0,1.22231 0.89866,2.235584 2.06641,2.425781 0.12731,0.02382 0.25744,0.03746 0.39062,0.04102 0.0224,5.98e-4 0.0439,0.0039 0.0664,0.0039 h 13.69336 c 0.23563,0.562366 0.41406,1.117889 0.41406,1.464844 v 31.349609 c 0,0.822556 -0.64278,1.466797 -1.45703,1.466797 h -36.09375 c -0.81435,0 -1.45703,-0.644183 -1.45703,-1.466797 V 9.4708031 c 0,-0.8225555 0.64277,-1.4667967 1.45703,-1.4667969 z m 2.47071,0.9238281 c 0.38082,0.2545633 0.76637,0.4323997 1.12695,0.8886719 l 0.0176,0.021484 12.62695,12.7343749 c 0.37192,0.371984 0.57528,0.75943 0.82813,1.144532 h -13.16602 c -0.0687,0 -0.13319,-0.01063 -0.19922,-0.01953 -0.70854,-0.123274 -1.23436,-0.730184 -1.23437,-1.478515 z m -3.63086,19.4609378 c -0.669,0 -1.3408,0.08077 -2.01758,0.24414 -0.669,0.155585 -1.31516,0.378187 -1.9375,0.666016 -0.61456,0.280041 -1.19373,0.614948 -1.73828,1.003906 -0.53678,0.388964 -1.00759,0.812511 -1.41211,1.271485 -0.39675,0.458972 -0.71193,0.94557 -0.94531,1.458984 -0.2256,0.513413 -0.33789,1.033518 -0.33789,1.5625 0,0.435617 0.0532,0.802049 0.16211,1.097656 0.11668,0.295618 0.28019,0.532014 0.49023,0.710938 0.21782,0.178918 0.4877,0.310912 0.80664,0.396484 0.31893,0.07779 0.68341,0.117188 1.0957,0.117188 0,-0.04668 -0.0197,-0.10183 -0.0586,-0.164063 -0.0311,-0.06223 -0.0646,-0.146949 -0.10352,-0.255859 -0.0389,-0.116684 -0.0783,-0.268375 -0.11718,-0.455078 -0.0311,-0.194504 -0.0469,-0.442706 -0.0469,-0.746094 0,-1.33026 0.31125,-2.443297 0.9336,-3.337891 0.63012,-0.894617 1.50481,-1.55258 2.625,-1.972656 l 0.38476,16.326172 3.44336,-0.002 6.63867,-17.806641 h -1.66797 l -5.02929,14.632813 -0.21094,-14.701172 c -0.15558,-0.01555 -0.31121,-0.02738 -0.4668,-0.03516 -0.1478,-0.0078 -0.31131,-0.01172 -0.49023,-0.01172 z m -10.16797,21.630859 2.24609,5.503906 h 0.77344 l 2.24609,-5.503906 h -0.78515 l -1.51563,3.875 -0.32812,0.972656 -0.32813,-0.972656 -1.52343,-3.875 z m 6.96875,0 -2.24609,5.503906 h 0.77343 l 0.63282,-1.609375 h 2.50781 l 0.6289,1.609375 h 0.76172 l -2.21093,-5.503906 z m 3.73047,0 v 5.503906 h 3.52734 v -0.609375 h -2.78125 v -4.894531 z m 6.05469,0 -2.2461,5.503906 h 0.77344 l 0.63281,-1.609375 h 2.50781 l 0.62891,1.609375 h 0.76172 l -2.21094,-5.503906 z m -9.3711,0.5625 0.10547,0.324219 c 0.0729,0.226563 0.14583,0.429688 0.21875,0.609375 l 0.70703,1.816406 h -2.05859 l 0.70312,-1.808594 c 0.12761,-0.338542 0.22396,-0.615885 0.28907,-0.832031 z m 9.78516,0 0.10547,0.324219 c 0.0729,0.226563 0.14583,0.429688 0.21875,0.609375 l 0.70703,1.816406 h -2.0586 l 0.70313,-1.808594 c 0.1276,-0.338542 0.22396,-0.615885 0.28906,-0.832031 z"
       transform="translate(-118.4973,-1.0001)" />
  </g>
</svg>
