<?xml version="1.0" encoding="UTF-8" standalone="no"?>
<svg
   width="43.546024"
   height="55.538212"
   version="1.1"
   viewBox="0 0 43.546024 55.538212"
   id="svg3"
   xmlns:xlink="http://www.w3.org/1999/xlink"
   xmlns="http://www.w3.org/2000/svg"
   xmlns:svg="http://www.w3.org/2000/svg">
  <defs
     id="defs3">
    <linearGradient
       id="linearGradient29">
      <stop
         style="stop-color:#00abff;stop-opacity:0;"
         offset="0"
         id="stop30" />
      <stop
         style="stop-color:#00abff;stop-opacity:1;"
         offset="1"
         id="stop29" />
    </linearGradient>
    <linearGradient
       xlink:href="#linearGradient29"
       id="linearGradient30"
       x1="150.26541"
       y1="65.000099"
       x2="150.26541"
       y2="24.884157"
       gradientUnits="userSpaceOnUse" />
    <filter
       style="color-interpolation-filters:sRGB"
       id="filter30"
       x="-0.030947896"
       y="-0.023945386"
       width="1.0618958"
       height="1.0478908">
      <feGaussianBlur
         stdDeviation="0.52879393"
         id="feGaussianBlur30" />
    </filter>
  </defs>
  <g
     id="g30"
     transform="translate(-10.222995,-4.7308946)">
    <path
       id="path1"
       style="display:inline;opacity:0.6;fill:#00abff;fill-opacity:1;stroke:none;filter:url(#filter30)"
       d="m 151.80394,7.0001 -0.004,0.00195 -19.35351,0.00391 c -1.35355,0 -2.45703,1.1084593 -2.45703,2.4648437 V 57.533303 c 0,1.356386 1.10343,2.466797 2.45703,2.466797 h 36.09375 c 1.35354,0 2.45703,-1.110412 2.45703,-2.466797 V 26.183694 c 0,-0.440775 -0.10327,-0.93784 -0.29297,-1.464844 h 0.0606 l -0.35547,-0.722656 c -0.0256,-0.05172 -0.0587,-0.104197 -0.0859,-0.15625 l -0.0605,-0.125 h -0.008 c -0.33862,-0.618179 -0.7885,-1.252822 -1.38476,-1.84961 l -0.002,-0.002 L 156.26488,9.1524437 C 155.67159,8.4151755 155.0115,7.918962 154.36644,7.59385 154.28114,7.550863 154.19507,7.50998 154.11058,7.4727562 l -0.0859,-0.037109 -0.0312,-0.00195 C 153.20882,7.1007523 152.46804,7.0001 151.90941,7.0001 Z m 0.11523,1.0019531 c 0.37972,7.572e-4 0.91296,0.1248404 1.44727,0.3105469 v 13.935547 c 0,1.22231 0.89866,2.235584 2.06641,2.425781 0.12731,0.02382 0.25744,0.03746 0.39062,0.04102 0.0224,5.98e-4 0.0439,0.0039 0.0664,0.0039 h 13.69336 c 0.23563,0.562366 0.41406,1.117889 0.41406,1.464844 v 31.349609 c 0,0.822556 -0.64278,1.466797 -1.45703,1.466797 h -36.09375 c -0.81435,0 -1.45703,-0.644183 -1.45703,-1.466797 V 9.4708031 c 0,-0.8225555 0.64277,-1.4667967 1.45703,-1.4667969 z m 2.47071,0.9238281 c 0.38082,0.2545633 0.76637,0.4323997 1.12695,0.8886719 l 0.0176,0.021484 12.62695,12.7343749 c 0.37192,0.371984 0.57528,0.75943 0.82813,1.144532 h -13.16602 c -0.0687,0 -0.13319,-0.01063 -0.19922,-0.01953 -0.70854,-0.123274 -1.23436,-0.730184 -1.23437,-1.478515 z m -14.3711,18.4550778 v 20.955079 h 20.95704 L 150.4973,37.859475 160.97582,27.380959 Z m 0.95313,0.951172 h 8.57226 l -8.57226,8.574219 z m 9.91992,0 h 7.7832 l -17.70312,17.705078 v -7.785156 z m -1.06836,10.199219 8.85156,8.853516 h -17.70312 z m -5.32617,12.181641 c -0.85938,0 -1.52995,0.248698 -2.01172,0.746093 -0.48177,0.494792 -0.72266,1.182292 -0.72266,2.0625 0,0.578125 0.10808,1.084636 0.32422,1.519532 0.21615,0.432291 0.52865,0.76302 0.9375,0.992187 0.41146,0.229167 0.89974,0.34375 1.46485,0.34375 0.55989,0 1.04557,-0.115885 1.45703,-0.347656 0.41146,-0.231771 0.72656,-0.563802 0.94531,-0.996094 0.22136,-0.432292 0.33203,-0.936198 0.33203,-1.511719 0,-0.578125 -0.10937,-1.079427 -0.32812,-1.503906 -0.21615,-0.424479 -0.52995,-0.747396 -0.94141,-0.96875 -0.41146,-0.223958 -0.89713,-0.335937 -1.45703,-0.335937 z m -7.79297,0.08203 v 5.503906 h 0.74609 v -2.109375 l 0.71875,-0.546875 2.19922,2.65625 h 0.92578 l -2.65625,-3.113281 2.34375,-2.390625 h -0.8789 l -2.65235,2.757812 v -2.757812 z m 11.08203,0 v 0.609375 h 1.89063 v 4.894531 h 0.74218 v -4.894531 h 1.89063 v -0.609375 z m 5.36328,0 v 5.503906 h 3.52735 v -0.609375 h -2.78125 v -4.894531 z m 4.53125,0 v 5.503906 h 0.7461 v -5.503906 z m 2.14063,0 v 5.503906 h 0.66406 v -3.65625 l -0.0195,-0.652344 -0.0195,-0.378906 2.94531,4.6875 h 0.89844 v -5.503906 h -0.67188 v 3.609375 c 0,0.229167 0.0156,0.598958 0.0469,1.109375 l -2.97656,-4.71875 z m -15.32422,0.527344 c 0.625,0 1.10807,0.195312 1.44922,0.585937 0.34375,0.390625 0.51562,0.928386 0.51562,1.613281 0,0.716146 -0.17057,1.270834 -0.51172,1.664063 -0.33854,0.390625 -0.82552,0.585937 -1.46093,0.585937 -0.61719,0 -1.10026,-0.201823 -1.44922,-0.605468 -0.34636,-0.40625 -0.51953,-0.954427 -0.51953,-1.644532 0,-0.695312 0.17187,-1.235677 0.51562,-1.621093 0.34375,-0.385417 0.83073,-0.578125 1.46094,-0.578125 z"
       transform="translate(-118.4973,-1.0001)" />
    <path
       id="path29"
       style="fill:url(#linearGradient30);fill-opacity:1;stroke:none"
       d="m 151.80394,7.0001 -0.004,0.00195 -19.35351,0.00391 c -1.35355,0 -2.45703,1.1084593 -2.45703,2.4648437 V 57.533303 c 0,1.356386 1.10343,2.466797 2.45703,2.466797 h 36.09375 c 1.35354,0 2.45703,-1.110412 2.45703,-2.466797 V 26.183694 c 0,-0.440775 -0.10327,-0.93784 -0.29297,-1.464844 h 0.0606 l -0.35547,-0.722656 c -0.0256,-0.05172 -0.0587,-0.104197 -0.0859,-0.15625 l -0.0605,-0.125 h -0.008 c -0.33862,-0.618179 -0.7885,-1.252822 -1.38476,-1.84961 l -0.002,-0.002 L 156.26488,9.1524437 C 155.67159,8.4151755 155.0115,7.918962 154.36644,7.59385 154.28114,7.550863 154.19507,7.50998 154.11058,7.4727562 l -0.0859,-0.037109 -0.0312,-0.00195 C 153.20882,7.1007523 152.46804,7.0001 151.90941,7.0001 Z m 0.11523,1.0019531 c 0.37972,7.572e-4 0.91296,0.1248404 1.44727,0.3105469 v 13.935547 c 0,1.22231 0.89866,2.235584 2.06641,2.425781 0.12731,0.02382 0.25744,0.03746 0.39062,0.04102 0.0224,5.98e-4 0.0439,0.0039 0.0664,0.0039 h 13.69336 c 0.23563,0.562366 0.41406,1.117889 0.41406,1.464844 v 31.349609 c 0,0.822556 -0.64278,1.466797 -1.45703,1.466797 h -36.09375 c -0.81435,0 -1.45703,-0.644183 -1.45703,-1.466797 V 9.4708031 c 0,-0.8225555 0.64277,-1.4667967 1.45703,-1.4667969 z m 2.47071,0.9238281 c 0.38082,0.2545633 0.76637,0.4323997 1.12695,0.8886719 l 0.0176,0.021484 12.62695,12.7343749 c 0.37192,0.371984 0.57528,0.75943 0.82813,1.144532 h -13.16602 c -0.0687,0 -0.13319,-0.01063 -0.19922,-0.01953 -0.70854,-0.123274 -1.23436,-0.730184 -1.23437,-1.478515 z m -14.3711,18.4550778 v 20.955079 h 20.95704 L 150.4973,37.859475 160.97582,27.380959 Z m 0.95313,0.951172 h 8.57226 l -8.57226,8.574219 z m 9.91992,0 h 7.7832 l -17.70312,17.705078 v -7.785156 z m -1.06836,10.199219 8.85156,8.853516 h -17.70312 z m -5.32617,12.181641 c -0.85938,0 -1.52995,0.248698 -2.01172,0.746093 -0.48177,0.494792 -0.72266,1.182292 -0.72266,2.0625 0,0.578125 0.10808,1.084636 0.32422,1.519532 0.21615,0.432291 0.52865,0.76302 0.9375,0.992187 0.41146,0.229167 0.89974,0.34375 1.46485,0.34375 0.55989,0 1.04557,-0.115885 1.45703,-0.347656 0.41146,-0.231771 0.72656,-0.563802 0.94531,-0.996094 0.22136,-0.432292 0.33203,-0.936198 0.33203,-1.511719 0,-0.578125 -0.10937,-1.079427 -0.32812,-1.503906 -0.21615,-0.424479 -0.52995,-0.747396 -0.94141,-0.96875 -0.41146,-0.223958 -0.89713,-0.335937 -1.45703,-0.335937 z m -7.79297,0.08203 v 5.503906 h 0.74609 v -2.109375 l 0.71875,-0.546875 2.19922,2.65625 h 0.92578 l -2.65625,-3.113281 2.34375,-2.390625 h -0.8789 l -2.65235,2.757812 v -2.757812 z m 11.08203,0 v 0.609375 h 1.89063 v 4.894531 h 0.74218 v -4.894531 h 1.89063 v -0.609375 z m 5.36328,0 v 5.503906 h 3.52735 v -0.609375 h -2.78125 v -4.894531 z m 4.53125,0 v 5.503906 h 0.7461 v -5.503906 z m 2.14063,0 v 5.503906 h 0.66406 v -3.65625 l -0.0195,-0.652344 -0.0195,-0.378906 2.94531,4.6875 h 0.89844 v -5.503906 h -0.67188 v 3.609375 c 0,0.229167 0.0156,0.598958 0.0469,1.109375 l -2.97656,-4.71875 z m -15.32422,0.527344 c 0.625,0 1.10807,0.195312 1.44922,0.585937 0.34375,0.390625 0.51562,0.928386 0.51562,1.613281 0,0.716146 -0.17057,1.270834 -0.51172,1.664063 -0.33854,0.390625 -0.82552,0.585937 -1.46093,0.585937 -0.61719,0 -1.10026,-0.201823 -1.44922,-0.605468 -0.34636,-0.40625 -0.51953,-0.954427 -0.51953,-1.644532 0,-0.695312 0.17187,-1.235677 0.51562,-1.621093 0.34375,-0.385417 0.83073,-0.578125 1.46094,-0.578125 z"
       transform="translate(-118.4973,-1.0001)" />
  </g>
</svg>
