<?xml version="1.0" encoding="UTF-8" standalone="no"?>
<svg
   width="43.546024"
   height="55.538212"
   version="1.1"
   viewBox="0 0 43.546024 55.538212"
   id="svg3"
   xmlns:xlink="http://www.w3.org/1999/xlink"
   xmlns="http://www.w3.org/2000/svg"
   xmlns:svg="http://www.w3.org/2000/svg">
  <defs
     id="defs3">
    <linearGradient
       id="linearGradient14">
      <stop
         style="stop-color:#039bfc;stop-opacity:0;"
         offset="0"
         id="stop15" />
      <stop
         style="stop-color:#039bfc;stop-opacity:1;"
         offset="1"
         id="stop14" />
    </linearGradient>
    <linearGradient
       xlink:href="#linearGradient14"
       id="linearGradient15"
       x1="150.03354"
       y1="65.000099"
       x2="150.03354"
       y2="25.000099"
       gradientUnits="userSpaceOnUse" />
    <filter
       style="color-interpolation-filters:sRGB"
       id="filter15"
       x="-0.030947896"
       y="-0.023945386"
       width="1.0618958"
       height="1.0478908">
      <feGaussianBlur
         stdDeviation="0.52879393"
         id="feGaussianBlur15" />
    </filter>
  </defs>
  <g
     id="g15"
     transform="translate(-10.222995,-4.7308946)">
    <path
       id="path1"
       style="display:inline;opacity:0.6;fill:#039bfc;filter:url(#filter15)"
       d="m 151.80394,7.0001 -0.004,0.00195 -19.35351,0.00391 c -1.35355,0 -2.45703,1.1084593 -2.45703,2.4648437 V 57.533303 c 0,1.356386 1.10343,2.466797 2.45703,2.466797 h 36.09375 c 1.35354,0 2.45703,-1.110412 2.45703,-2.466797 V 26.183694 c 0,-0.440775 -0.10327,-0.93784 -0.29297,-1.464844 h 0.0606 l -0.35547,-0.722656 c -0.0256,-0.05172 -0.0587,-0.104197 -0.0859,-0.15625 l -0.0605,-0.125 h -0.008 c -0.33862,-0.618179 -0.7885,-1.252822 -1.38476,-1.84961 l -0.002,-0.002 L 156.26488,9.1524437 C 155.67159,8.4151755 155.0115,7.918962 154.36644,7.59385 154.28114,7.550863 154.19507,7.50998 154.11058,7.4727562 l -0.0859,-0.037109 -0.0312,-0.00195 C 153.20882,7.1007523 152.46804,7.0001 151.90941,7.0001 Z m 0.11523,1.0019531 c 0.37972,7.572e-4 0.91296,0.1248404 1.44727,0.3105469 v 13.935547 c 0,1.22231 0.89866,2.235584 2.06641,2.425781 0.12731,0.02382 0.25744,0.03746 0.39062,0.04102 0.0224,5.98e-4 0.0439,0.0039 0.0664,0.0039 h 13.69336 c 0.23563,0.562366 0.41406,1.117889 0.41406,1.464844 v 31.349609 c 0,0.822556 -0.64278,1.466797 -1.45703,1.466797 h -36.09375 c -0.81435,0 -1.45703,-0.644183 -1.45703,-1.466797 V 9.4708031 c 0,-0.8225555 0.64277,-1.4667967 1.45703,-1.4667969 z m 2.47071,0.9238281 c 0.38082,0.2545633 0.76637,0.4323997 1.12695,0.8886719 l 0.0176,0.021484 12.62695,12.7343749 c 0.37192,0.371984 0.57528,0.75943 0.82813,1.144532 h -13.16602 c -0.0687,0 -0.13319,-0.01063 -0.19922,-0.01953 -0.70854,-0.123274 -1.23436,-0.730184 -1.23437,-1.478515 z m -4.0918,15.9999998 v 2.427735 h -2.42773 v 0.808593 h 2.42773 v 2.427735 h 0.81055 v -2.427735 h 2.42578 v -0.808593 h -2.42578 v -2.427735 z m 6.47266,0 v 2.427735 h -2.42578 v 0.808593 h 2.42578 v 2.427735 h 0.81054 v -2.427735 h 2.42774 v -0.808593 h -2.42774 v -2.427735 z m -15.78516,0.404297 v 23.464844 h 4.0625 c 0.0147,-3.05785 -0.0308,-6.116949 0.0293,-9.173828 0.10068,-1.436038 0.17862,-3.26423 1.54687,-4.050781 0.75314,-0.43285 1.76212,-0.538866 2.5918,-0.269532 1.21596,0.394812 1.42063,1.961111 1.47266,3.089844 0.0199,3.467672 0.002,6.936462 0.008,10.404297 h 4.04687 c -0.008,-3.896995 0.0306,-7.835751 0,-11.732422 -0.042,-1.958167 -0.84538,-4.102496 -2.71875,-4.996094 -1.60118,-0.763565 -3.49628,-0.535758 -5.12109,0.08008 -0.76714,0.290744 -1.82617,1.705078 -1.82617,1.705079 -0.01,-2.840517 -0.0195,-5.680642 -0.0293,-8.521485 z m -1.45312,25.578125 c -0.69879,0 -1.24566,0.206597 -1.64063,0.621094 -0.39496,0.414497 -0.59375,0.987413 -0.59375,1.71875 0,0.488281 0.0879,0.911458 0.26367,1.269531 0.17795,0.355903 0.43512,0.631076 0.77149,0.824219 0.33854,0.190972 0.73893,0.285156 1.20117,0.285156 0.45139,0 0.84874,-0.10243 1.18945,-0.308594 0.34288,-0.206163 0.60808,-0.507378 0.79688,-0.902343 l -0.50782,-0.253907 c -0.32335,0.635851 -0.80685,0.955079 -1.44921,0.955079 -0.50131,0 -0.89822,-0.171007 -1.19336,-0.511719 -0.29297,-0.342882 -0.43946,-0.795356 -0.43946,-1.357422 0,-0.568577 0.13976,-1.016276 0.42188,-1.341797 0.28212,-0.327691 0.67773,-0.490234 1.18555,-0.490234 0.32335,0 0.60156,0.06988 0.83593,0.210937 0.23655,0.141059 0.40929,0.344401 0.51563,0.611328 l 0.58789,-0.195312 c -0.15408,-0.375434 -0.39497,-0.658637 -0.72266,-0.84961 -0.32769,-0.190972 -0.73437,-0.285156 -1.22265,-0.285156 z m 10.57617,0.06836 V 55.5626 h 0.62109 v -2.125 h 2.48047 v 2.125 h 0.62305 v -4.585937 h -0.62305 v 1.939453 h -2.48047 v -1.939453 z m 4.81445,0 V 55.5626 h 1.71484 c 0.44271,0 0.83334,-0.0944 1.17188,-0.283203 0.33854,-0.188802 0.60069,-0.46072 0.78516,-0.814453 0.18446,-0.355903 0.27734,-0.769097 0.27734,-1.242188 0,-0.718316 -0.21159,-1.271701 -0.63477,-1.660156 -0.421,-0.390625 -1.01996,-0.585937 -1.79687,-0.585937 z m 4.81445,0 V 55.5626 h 0.6211 v -1.904297 h 1.42969 l 1.1914,1.904297 h 0.7168 l -1.30274,-1.976562 c 0.3494,-0.06076 0.62283,-0.207249 0.82032,-0.439454 0.19965,-0.232205 0.29882,-0.518663 0.29882,-0.859375 0,-0.412326 -0.13975,-0.732855 -0.42187,-0.96289 -0.27995,-0.232205 -0.67882,-0.347656 -1.19531,-0.347656 z m -4.19336,0.498046 h 0.88282 c 0.59028,0 1.04123,0.14974 1.35156,0.449219 0.3125,0.297309 0.46875,0.730252 0.46875,1.298828 0,0.377605 -0.0684,0.704644 -0.20508,0.982422 -0.13672,0.277778 -0.33377,0.491102 -0.58984,0.638672 -0.25391,0.14757 -0.5484,0.220703 -0.88477,0.220703 h -1.02344 z m 4.81446,0 h 1.47461 c 0.34071,0 0.60113,0.06988 0.78125,0.210938 0.18229,0.138889 0.27343,0.342448 0.27343,0.609375 0,0.275608 -0.0894,0.490451 -0.26953,0.644531 -0.17795,0.15191 -0.43012,0.226563 -0.75781,0.226563 h -1.50195 z m -16.87891,0.240235 v 1.392578 h -1.3789 v 0.476562 h 1.3789 v 1.392579 h 0.47852 v -1.392579 h 1.38086 v -0.476562 h -1.38086 v -1.392578 z m 3.89453,0 v 1.392578 h -1.38086 v 0.476562 h 1.38086 v 1.392579 h 0.47852 v -1.392579 h 1.3789 v -0.476562 h -1.3789 v -1.392578 z"
       transform="translate(-118.4973,-1.0001)" />
    <path
       id="path14"
       style="fill:url(#linearGradient15);fill-opacity:1"
       d="m 151.80394,7.0001 -0.004,0.00195 -19.35351,0.00391 c -1.35355,0 -2.45703,1.1084593 -2.45703,2.4648437 V 57.533303 c 0,1.356386 1.10343,2.466797 2.45703,2.466797 h 36.09375 c 1.35354,0 2.45703,-1.110412 2.45703,-2.466797 V 26.183694 c 0,-0.440775 -0.10327,-0.93784 -0.29297,-1.464844 h 0.0606 l -0.35547,-0.722656 c -0.0256,-0.05172 -0.0587,-0.104197 -0.0859,-0.15625 l -0.0605,-0.125 h -0.008 c -0.33862,-0.618179 -0.7885,-1.252822 -1.38476,-1.84961 l -0.002,-0.002 L 156.26488,9.1524437 C 155.67159,8.4151755 155.0115,7.918962 154.36644,7.59385 154.28114,7.550863 154.19507,7.50998 154.11058,7.4727562 l -0.0859,-0.037109 -0.0312,-0.00195 C 153.20882,7.1007523 152.46804,7.0001 151.90941,7.0001 Z m 0.11523,1.0019531 c 0.37972,7.572e-4 0.91296,0.1248404 1.44727,0.3105469 v 13.935547 c 0,1.22231 0.89866,2.235584 2.06641,2.425781 0.12731,0.02382 0.25744,0.03746 0.39062,0.04102 0.0224,5.98e-4 0.0439,0.0039 0.0664,0.0039 h 13.69336 c 0.23563,0.562366 0.41406,1.117889 0.41406,1.464844 v 31.349609 c 0,0.822556 -0.64278,1.466797 -1.45703,1.466797 h -36.09375 c -0.81435,0 -1.45703,-0.644183 -1.45703,-1.466797 V 9.4708031 c 0,-0.8225555 0.64277,-1.4667967 1.45703,-1.4667969 z m 2.47071,0.9238281 c 0.38082,0.2545633 0.76637,0.4323997 1.12695,0.8886719 l 0.0176,0.021484 12.62695,12.7343749 c 0.37192,0.371984 0.57528,0.75943 0.82813,1.144532 h -13.16602 c -0.0687,0 -0.13319,-0.01063 -0.19922,-0.01953 -0.70854,-0.123274 -1.23436,-0.730184 -1.23437,-1.478515 z m -4.0918,15.9999998 v 2.427735 h -2.42773 v 0.808593 h 2.42773 v 2.427735 h 0.81055 v -2.427735 h 2.42578 v -0.808593 h -2.42578 v -2.427735 z m 6.47266,0 v 2.427735 h -2.42578 v 0.808593 h 2.42578 v 2.427735 h 0.81054 v -2.427735 h 2.42774 v -0.808593 h -2.42774 v -2.427735 z m -15.78516,0.404297 v 23.464844 h 4.0625 c 0.0147,-3.05785 -0.0308,-6.116949 0.0293,-9.173828 0.10068,-1.436038 0.17862,-3.26423 1.54687,-4.050781 0.75314,-0.43285 1.76212,-0.538866 2.5918,-0.269532 1.21596,0.394812 1.42063,1.961111 1.47266,3.089844 0.0199,3.467672 0.002,6.936462 0.008,10.404297 h 4.04687 c -0.008,-3.896995 0.0306,-7.835751 0,-11.732422 -0.042,-1.958167 -0.84538,-4.102496 -2.71875,-4.996094 -1.60118,-0.763565 -3.49628,-0.535758 -5.12109,0.08008 -0.76714,0.290744 -1.82617,1.705078 -1.82617,1.705079 -0.01,-2.840517 -0.0195,-5.680642 -0.0293,-8.521485 z m -1.45312,25.578125 c -0.69879,0 -1.24566,0.206597 -1.64063,0.621094 -0.39496,0.414497 -0.59375,0.987413 -0.59375,1.71875 0,0.488281 0.0879,0.911458 0.26367,1.269531 0.17795,0.355903 0.43512,0.631076 0.77149,0.824219 0.33854,0.190972 0.73893,0.285156 1.20117,0.285156 0.45139,0 0.84874,-0.10243 1.18945,-0.308594 0.34288,-0.206163 0.60808,-0.507378 0.79688,-0.902343 l -0.50782,-0.253907 c -0.32335,0.635851 -0.80685,0.955079 -1.44921,0.955079 -0.50131,0 -0.89822,-0.171007 -1.19336,-0.511719 -0.29297,-0.342882 -0.43946,-0.795356 -0.43946,-1.357422 0,-0.568577 0.13976,-1.016276 0.42188,-1.341797 0.28212,-0.327691 0.67773,-0.490234 1.18555,-0.490234 0.32335,0 0.60156,0.06988 0.83593,0.210937 0.23655,0.141059 0.40929,0.344401 0.51563,0.611328 l 0.58789,-0.195312 c -0.15408,-0.375434 -0.39497,-0.658637 -0.72266,-0.84961 -0.32769,-0.190972 -0.73437,-0.285156 -1.22265,-0.285156 z m 10.57617,0.06836 V 55.5626 h 0.62109 v -2.125 h 2.48047 v 2.125 h 0.62305 v -4.585937 h -0.62305 v 1.939453 h -2.48047 v -1.939453 z m 4.81445,0 V 55.5626 h 1.71484 c 0.44271,0 0.83334,-0.0944 1.17188,-0.283203 0.33854,-0.188802 0.60069,-0.46072 0.78516,-0.814453 0.18446,-0.355903 0.27734,-0.769097 0.27734,-1.242188 0,-0.718316 -0.21159,-1.271701 -0.63477,-1.660156 -0.421,-0.390625 -1.01996,-0.585937 -1.79687,-0.585937 z m 4.81445,0 V 55.5626 h 0.6211 v -1.904297 h 1.42969 l 1.1914,1.904297 h 0.7168 l -1.30274,-1.976562 c 0.3494,-0.06076 0.62283,-0.207249 0.82032,-0.439454 0.19965,-0.232205 0.29882,-0.518663 0.29882,-0.859375 0,-0.412326 -0.13975,-0.732855 -0.42187,-0.96289 -0.27995,-0.232205 -0.67882,-0.347656 -1.19531,-0.347656 z m -4.19336,0.498046 h 0.88282 c 0.59028,0 1.04123,0.14974 1.35156,0.449219 0.3125,0.297309 0.46875,0.730252 0.46875,1.298828 0,0.377605 -0.0684,0.704644 -0.20508,0.982422 -0.13672,0.277778 -0.33377,0.491102 -0.58984,0.638672 -0.25391,0.14757 -0.5484,0.220703 -0.88477,0.220703 h -1.02344 z m 4.81446,0 h 1.47461 c 0.34071,0 0.60113,0.06988 0.78125,0.210938 0.18229,0.138889 0.27343,0.342448 0.27343,0.609375 0,0.275608 -0.0894,0.490451 -0.26953,0.644531 -0.17795,0.15191 -0.43012,0.226563 -0.75781,0.226563 h -1.50195 z m -16.87891,0.240235 v 1.392578 h -1.3789 v 0.476562 h 1.3789 v 1.392579 h 0.47852 v -1.392579 h 1.38086 v -0.476562 h -1.38086 v -1.392578 z m 3.89453,0 v 1.392578 h -1.38086 v 0.476562 h 1.38086 v 1.392579 h 0.47852 v -1.392579 h 1.3789 v -0.476562 h -1.3789 v -1.392578 z"
       transform="translate(-118.4973,-1.0001)" />
  </g>
</svg>
