<?xml version="1.0" encoding="UTF-8" standalone="no"?>
<svg
   width="43.546024"
   height="55.538212"
   version="1.1"
   viewBox="0 0 43.546024 55.538212"
   id="svg3"
   xmlns:xlink="http://www.w3.org/1999/xlink"
   xmlns="http://www.w3.org/2000/svg"
   xmlns:svg="http://www.w3.org/2000/svg">
  <defs
     id="defs3">
    <linearGradient
       id="linearGradient16">
      <stop
         style="stop-color:#039bfc;stop-opacity:0;"
         offset="0"
         id="stop17" />
      <stop
         style="stop-color:#039bfc;stop-opacity:1;"
         offset="1"
         id="stop16" />
    </linearGradient>
    <linearGradient
       xlink:href="#linearGradient16"
       id="linearGradient17"
       x1="150.38136"
       y1="65.000099"
       x2="150.38136"
       y2="24.072563"
       gradientUnits="userSpaceOnUse" />
    <filter
       style="color-interpolation-filters:sRGB"
       id="filter17"
       x="-0.030947896"
       y="-0.023945386"
       width="1.0618958"
       height="1.0478908">
      <feGaussianBlur
         stdDeviation="0.52879393"
         id="feGaussianBlur17" />
    </filter>
  </defs>
  <g
     id="g17"
     transform="translate(-10.222995,-4.7308946)">
    <path
       id="path16"
       style="display:inline;opacity:0.6;fill:#039bfc;filter:url(#filter17)"
       d="m 151.80394,7.0001 -0.004,0.00195 -19.35351,0.00391 c -1.35355,0 -2.45703,1.1084593 -2.45703,2.4648437 V 57.533303 c 0,1.356386 1.10343,2.466797 2.45703,2.466797 h 36.09375 c 1.35354,0 2.45703,-1.110412 2.45703,-2.466797 V 26.183694 c 0,-0.440775 -0.10327,-0.93784 -0.29297,-1.464844 h 0.0606 l -0.35547,-0.722656 c -0.0256,-0.05172 -0.0587,-0.104197 -0.0859,-0.15625 l -0.0605,-0.125 h -0.008 c -0.33862,-0.618179 -0.7885,-1.252822 -1.38476,-1.84961 l -0.002,-0.002 L 156.26488,9.1524437 C 155.67159,8.4151755 155.0115,7.918962 154.36644,7.59385 154.28114,7.550863 154.19507,7.50998 154.11058,7.4727562 l -0.0859,-0.037109 -0.0312,-0.00195 C 153.20882,7.1007523 152.46804,7.0001 151.90941,7.0001 Z m 0.11523,1.0019531 c 0.37972,7.572e-4 0.91296,0.1248404 1.44727,0.3105469 v 13.935547 c 0,1.22231 0.89866,2.235584 2.06641,2.425781 0.12731,0.02382 0.25744,0.03746 0.39062,0.04102 0.0224,5.98e-4 0.0439,0.0039 0.0664,0.0039 h 13.69336 c 0.23563,0.562366 0.41406,1.117889 0.41406,1.464844 v 31.349609 c 0,0.822556 -0.64278,1.466797 -1.45703,1.466797 h -36.09375 c -0.81435,0 -1.45703,-0.644183 -1.45703,-1.466797 V 9.4708031 c 0,-0.8225555 0.64277,-1.4667967 1.45703,-1.4667969 z m 2.47071,0.9238281 c 0.38082,0.2545633 0.76637,0.4323997 1.12695,0.8886719 l 0.0176,0.021484 12.62695,12.7343749 c 0.37192,0.371984 0.57528,0.75943 0.82813,1.144532 h -13.16602 c -0.0687,0 -0.13319,-0.01063 -0.19922,-0.01953 -0.70854,-0.123274 -1.23436,-0.730184 -1.23437,-1.478515 z M 142.72972,28.029397 c -0.95618,0 -1.72461,0.770383 -1.72461,1.726562 v 15.533204 c 0,0.956179 0.76843,1.724609 1.72461,1.724609 h 15.53516 c 0.95618,0 1.72461,-0.76843 1.72461,-1.724609 V 29.755959 c 0,-0.956179 -0.76843,-1.726562 -1.72461,-1.726562 z m 0.86328,3.451172 h 0.86328 v 0.863281 h 1.72657 v -0.863281 h 0.86328 v 0.863281 h -0.86328 v 1.726563 h 0.86328 v 0.863281 h -0.86328 v -0.863281 h -1.72657 v 0.863281 H 143.593 v -0.863281 h 0.86328 V 32.34385 H 143.593 Z m 10.35547,0 h 0.86328 v 0.863281 h 1.72657 v -0.863281 h 0.86328 v 0.863281 h -0.86328 v 1.726563 h 0.86328 v 0.863281 h -0.86328 v -0.863281 h -1.72657 v 0.863281 h -0.86328 v -0.863281 h 0.86328 V 32.34385 h -0.86328 z m -6.04101,6.904297 h 5.17968 v 1.726562 h 1.72461 v 1.72461 h 1.72657 V 43.5626 h -1.72657 v -1.726562 h -1.72461 v -1.72461 h -5.17968 v 1.72461 h -1.72461 V 43.5626 h -1.72657 v -1.726562 h 1.72657 v -1.72461 h 1.72461 z m 5.41992,12.054687 c -0.85938,0 -1.52995,0.248698 -2.01172,0.746094 -0.48177,0.494792 -0.72266,1.182292 -0.72266,2.0625 0,0.578125 0.10808,1.084635 0.32422,1.519531 0.21615,0.432292 0.52865,0.763021 0.9375,0.992188 0.41146,0.229166 0.89974,0.34375 1.46485,0.34375 0.55989,0 1.04557,-0.115886 1.45703,-0.347657 0.41146,-0.23177 0.72656,-0.563802 0.94531,-0.996093 0.22135,-0.432292 0.33203,-0.936198 0.33203,-1.511719 0,-0.578125 -0.10937,-1.079427 -0.32812,-1.503906 -0.21615,-0.42448 -0.52995,-0.747396 -0.94141,-0.96875 -0.41146,-0.223959 -0.89714,-0.335938 -1.45703,-0.335938 z m -16.85938,0.08203 -2.24609,5.503907 h 0.77344 l 0.63281,-1.609375 h 2.50781 l 0.62891,1.609375 h 0.76172 l -2.21094,-5.503907 z m 3.73047,0 v 5.503907 h 0.7461 v -2.144532 h 1.61718 c 0.58334,0 1.04427,-0.153645 1.38282,-0.460937 0.34114,-0.307292 0.51171,-0.721354 0.51171,-1.242188 0,-0.526041 -0.16927,-0.933593 -0.50781,-1.222656 -0.33854,-0.289062 -0.8164,-0.433594 -1.43359,-0.433594 z m 5.33594,0 v 5.503907 h 0.74609 v -2.144532 h 1.61719 c 0.58333,0 1.04427,-0.153645 1.38281,-0.460937 0.34115,-0.307292 0.51172,-0.721354 0.51172,-1.242188 0,-0.526041 -0.16927,-0.933593 -0.50781,-1.222656 -0.33854,-0.289062 -0.81641,-0.433594 -1.43359,-0.433594 z m 11.55859,0 v 5.503907 h 0.7461 v -2.285157 h 1.71484 l 1.42969,2.285157 h 0.85937 l -1.5625,-2.371094 c 0.41927,-0.07292 0.7474,-0.248698 0.98438,-0.527344 0.23958,-0.278646 0.35937,-0.622396 0.35937,-1.03125 0,-0.494792 -0.16927,-0.880208 -0.50781,-1.15625 -0.33594,-0.278646 -0.8138,-0.417969 -1.43359,-0.417969 z m 5.15625,0 v 0.609375 h 1.89063 v 4.894532 h 0.74219 v -4.894532 h 1.89062 v -0.609375 z m -8.92187,0.527344 c 0.625,0 1.10807,0.195313 1.44922,0.585938 0.34375,0.390625 0.51562,0.928385 0.51562,1.613281 0,0.716146 -0.17057,1.270833 -0.51172,1.664062 -0.33854,0.390625 -0.82552,0.585938 -1.46093,0.585938 -0.61719,0 -1.10026,-0.201823 -1.44922,-0.605469 -0.34636,-0.40625 -0.51953,-0.954427 -0.51953,-1.644531 0,-0.695313 0.17187,-1.235677 0.51562,-1.621094 0.34375,-0.385417 0.83073,-0.578125 1.46094,-0.578125 z m -16.44531,0.03516 0.10546,0.324219 c 0.0729,0.226563 0.14584,0.429688 0.21875,0.609375 l 0.70704,1.816406 h -2.0586 l 0.70313,-1.808593 c 0.1276,-0.338542 0.22396,-0.615886 0.28906,-0.832032 z m 4.0625,0.03516 h 1.48046 c 0.85417,0 1.28125,0.355468 1.28125,1.066406 0,0.736979 -0.41666,1.105469 -1.25,1.105469 h -1.51171 z m 5.33593,0 h 1.48047 c 0.85417,0 1.28125,0.355468 1.28125,1.066406 0,0.736979 -0.41666,1.105469 -1.25,1.105469 h -1.51172 z m 11.5586,0 h 1.76953 c 0.40885,0 0.72135,0.08463 0.9375,0.253906 0.21875,0.166667 0.32812,0.410156 0.32812,0.730469 0,0.330729 -0.10807,0.588541 -0.32422,0.773437 -0.21354,0.182292 -0.51692,0.273438 -0.91015,0.273438 h -1.80078 z"
       transform="translate(-118.4973,-1.0001)" />
    <path
       id="path1"
       style="fill:url(#linearGradient17);fill-opacity:1"
       d="m 151.80394,7.0001 -0.004,0.00195 -19.35351,0.00391 c -1.35355,0 -2.45703,1.1084593 -2.45703,2.4648437 V 57.533303 c 0,1.356386 1.10343,2.466797 2.45703,2.466797 h 36.09375 c 1.35354,0 2.45703,-1.110412 2.45703,-2.466797 V 26.183694 c 0,-0.440775 -0.10327,-0.93784 -0.29297,-1.464844 h 0.0606 l -0.35547,-0.722656 c -0.0256,-0.05172 -0.0587,-0.104197 -0.0859,-0.15625 l -0.0605,-0.125 h -0.008 c -0.33862,-0.618179 -0.7885,-1.252822 -1.38476,-1.84961 l -0.002,-0.002 L 156.26488,9.1524437 C 155.67159,8.4151755 155.0115,7.918962 154.36644,7.59385 154.28114,7.550863 154.19507,7.50998 154.11058,7.4727562 l -0.0859,-0.037109 -0.0312,-0.00195 C 153.20882,7.1007523 152.46804,7.0001 151.90941,7.0001 Z m 0.11523,1.0019531 c 0.37972,7.572e-4 0.91296,0.1248404 1.44727,0.3105469 v 13.935547 c 0,1.22231 0.89866,2.235584 2.06641,2.425781 0.12731,0.02382 0.25744,0.03746 0.39062,0.04102 0.0224,5.98e-4 0.0439,0.0039 0.0664,0.0039 h 13.69336 c 0.23563,0.562366 0.41406,1.117889 0.41406,1.464844 v 31.349609 c 0,0.822556 -0.64278,1.466797 -1.45703,1.466797 h -36.09375 c -0.81435,0 -1.45703,-0.644183 -1.45703,-1.466797 V 9.4708031 c 0,-0.8225555 0.64277,-1.4667967 1.45703,-1.4667969 z m 2.47071,0.9238281 c 0.38082,0.2545633 0.76637,0.4323997 1.12695,0.8886719 l 0.0176,0.021484 12.62695,12.7343749 c 0.37192,0.371984 0.57528,0.75943 0.82813,1.144532 h -13.16602 c -0.0687,0 -0.13319,-0.01063 -0.19922,-0.01953 -0.70854,-0.123274 -1.23436,-0.730184 -1.23437,-1.478515 z M 142.72972,28.029397 c -0.95618,0 -1.72461,0.770383 -1.72461,1.726562 v 15.533204 c 0,0.956179 0.76843,1.724609 1.72461,1.724609 h 15.53516 c 0.95618,0 1.72461,-0.76843 1.72461,-1.724609 V 29.755959 c 0,-0.956179 -0.76843,-1.726562 -1.72461,-1.726562 z m 0.86328,3.451172 h 0.86328 v 0.863281 h 1.72657 v -0.863281 h 0.86328 v 0.863281 h -0.86328 v 1.726563 h 0.86328 v 0.863281 h -0.86328 v -0.863281 h -1.72657 v 0.863281 H 143.593 v -0.863281 h 0.86328 V 32.34385 H 143.593 Z m 10.35547,0 h 0.86328 v 0.863281 h 1.72657 v -0.863281 h 0.86328 v 0.863281 h -0.86328 v 1.726563 h 0.86328 v 0.863281 h -0.86328 v -0.863281 h -1.72657 v 0.863281 h -0.86328 v -0.863281 h 0.86328 V 32.34385 h -0.86328 z m -6.04101,6.904297 h 5.17968 v 1.726562 h 1.72461 v 1.72461 h 1.72657 V 43.5626 h -1.72657 v -1.726562 h -1.72461 v -1.72461 h -5.17968 v 1.72461 h -1.72461 V 43.5626 h -1.72657 v -1.726562 h 1.72657 v -1.72461 h 1.72461 z m 5.41992,12.054687 c -0.85938,0 -1.52995,0.248698 -2.01172,0.746094 -0.48177,0.494792 -0.72266,1.182292 -0.72266,2.0625 0,0.578125 0.10808,1.084635 0.32422,1.519531 0.21615,0.432292 0.52865,0.763021 0.9375,0.992188 0.41146,0.229166 0.89974,0.34375 1.46485,0.34375 0.55989,0 1.04557,-0.115886 1.45703,-0.347657 0.41146,-0.23177 0.72656,-0.563802 0.94531,-0.996093 0.22135,-0.432292 0.33203,-0.936198 0.33203,-1.511719 0,-0.578125 -0.10937,-1.079427 -0.32812,-1.503906 -0.21615,-0.42448 -0.52995,-0.747396 -0.94141,-0.96875 -0.41146,-0.223959 -0.89714,-0.335938 -1.45703,-0.335938 z m -16.85938,0.08203 -2.24609,5.503907 h 0.77344 l 0.63281,-1.609375 h 2.50781 l 0.62891,1.609375 h 0.76172 l -2.21094,-5.503907 z m 3.73047,0 v 5.503907 h 0.7461 v -2.144532 h 1.61718 c 0.58334,0 1.04427,-0.153645 1.38282,-0.460937 0.34114,-0.307292 0.51171,-0.721354 0.51171,-1.242188 0,-0.526041 -0.16927,-0.933593 -0.50781,-1.222656 -0.33854,-0.289062 -0.8164,-0.433594 -1.43359,-0.433594 z m 5.33594,0 v 5.503907 h 0.74609 v -2.144532 h 1.61719 c 0.58333,0 1.04427,-0.153645 1.38281,-0.460937 0.34115,-0.307292 0.51172,-0.721354 0.51172,-1.242188 0,-0.526041 -0.16927,-0.933593 -0.50781,-1.222656 -0.33854,-0.289062 -0.81641,-0.433594 -1.43359,-0.433594 z m 11.55859,0 v 5.503907 h 0.7461 v -2.285157 h 1.71484 l 1.42969,2.285157 h 0.85937 l -1.5625,-2.371094 c 0.41927,-0.07292 0.7474,-0.248698 0.98438,-0.527344 0.23958,-0.278646 0.35937,-0.622396 0.35937,-1.03125 0,-0.494792 -0.16927,-0.880208 -0.50781,-1.15625 -0.33594,-0.278646 -0.8138,-0.417969 -1.43359,-0.417969 z m 5.15625,0 v 0.609375 h 1.89063 v 4.894532 h 0.74219 v -4.894532 h 1.89062 v -0.609375 z m -8.92187,0.527344 c 0.625,0 1.10807,0.195313 1.44922,0.585938 0.34375,0.390625 0.51562,0.928385 0.51562,1.613281 0,0.716146 -0.17057,1.270833 -0.51172,1.664062 -0.33854,0.390625 -0.82552,0.585938 -1.46093,0.585938 -0.61719,0 -1.10026,-0.201823 -1.44922,-0.605469 -0.34636,-0.40625 -0.51953,-0.954427 -0.51953,-1.644531 0,-0.695313 0.17187,-1.235677 0.51562,-1.621094 0.34375,-0.385417 0.83073,-0.578125 1.46094,-0.578125 z m -16.44531,0.03516 0.10546,0.324219 c 0.0729,0.226563 0.14584,0.429688 0.21875,0.609375 l 0.70704,1.816406 h -2.0586 l 0.70313,-1.808593 c 0.1276,-0.338542 0.22396,-0.615886 0.28906,-0.832032 z m 4.0625,0.03516 h 1.48046 c 0.85417,0 1.28125,0.355468 1.28125,1.066406 0,0.736979 -0.41666,1.105469 -1.25,1.105469 h -1.51171 z m 5.33593,0 h 1.48047 c 0.85417,0 1.28125,0.355468 1.28125,1.066406 0,0.736979 -0.41666,1.105469 -1.25,1.105469 h -1.51172 z m 11.5586,0 h 1.76953 c 0.40885,0 0.72135,0.08463 0.9375,0.253906 0.21875,0.166667 0.32812,0.410156 0.32812,0.730469 0,0.330729 -0.10807,0.588541 -0.32422,0.773437 -0.21354,0.182292 -0.51692,0.273438 -0.91015,0.273438 h -1.80078 z"
       transform="translate(-118.4973,-1.0001)" />
  </g>
</svg>
