<?xml version="1.0" encoding="UTF-8" standalone="no"?>
<svg
   width="43.546024"
   height="55.538212"
   version="1.1"
   viewBox="0 0 43.546024 55.538212"
   id="svg3"
   xmlns:xlink="http://www.w3.org/1999/xlink"
   xmlns="http://www.w3.org/2000/svg"
   xmlns:svg="http://www.w3.org/2000/svg">
  <defs
     id="defs3">
    <linearGradient
       id="linearGradient24">
      <stop
         style="stop-color:#00abff;stop-opacity:0;"
         offset="0"
         id="stop25" />
      <stop
         style="stop-color:#00abff;stop-opacity:1;"
         offset="1"
         id="stop24" />
    </linearGradient>
    <linearGradient
       xlink:href="#linearGradient24"
       id="linearGradient25"
       x1="150.14948"
       y1="65.000099"
       x2="150.14948"
       y2="23.956621"
       gradientUnits="userSpaceOnUse" />
    <filter
       style="color-interpolation-filters:sRGB"
       id="filter25"
       x="-0.030947896"
       y="-0.023945386"
       width="1.0618958"
       height="1.0478908">
      <feGaussianBlur
         stdDeviation="0.52879393"
         id="feGaussianBlur25" />
    </filter>
  </defs>
  <g
     id="g25"
     transform="translate(-10.222995,-4.7308946)">
    <path
       id="path1"
       style="display:inline;opacity:0.6;fill:#00abff;fill-opacity:1;stroke:none;filter:url(#filter25)"
       d="m 151.80394,7.0001 -0.004,0.00195 -19.35351,0.00391 c -1.35355,0 -2.45703,1.1084593 -2.45703,2.4648437 V 57.533303 c 0,1.356386 1.10343,2.466797 2.45703,2.466797 h 36.09375 c 1.35354,0 2.45703,-1.110412 2.45703,-2.466797 V 26.183694 c 0,-0.440775 -0.10327,-0.93784 -0.29297,-1.464844 h 0.0606 l -0.35547,-0.722656 c -0.0256,-0.05172 -0.0587,-0.104197 -0.0859,-0.15625 l -0.0605,-0.125 h -0.008 c -0.33862,-0.618179 -0.7885,-1.252822 -1.38476,-1.84961 l -0.002,-0.002 L 156.26488,9.1524437 C 155.67159,8.4151755 155.0115,7.918962 154.36644,7.59385 154.28114,7.550863 154.19507,7.50998 154.11058,7.4727562 l -0.0859,-0.037109 -0.0312,-0.00195 C 153.20882,7.1007523 152.46804,7.0001 151.90941,7.0001 Z m 0.11523,1.0019531 c 0.37972,7.572e-4 0.91296,0.1248404 1.44727,0.3105469 v 13.935547 c 0,1.22231 0.89866,2.235584 2.06641,2.425781 0.12731,0.02382 0.25744,0.03746 0.39062,0.04102 0.0224,5.98e-4 0.0439,0.0039 0.0664,0.0039 h 13.69336 c 0.23563,0.562366 0.41406,1.117889 0.41406,1.464844 v 31.349609 c 0,0.822556 -0.64278,1.466797 -1.45703,1.466797 h -36.09375 c -0.81435,0 -1.45703,-0.644183 -1.45703,-1.466797 V 9.4708031 c 0,-0.8225555 0.64277,-1.4667967 1.45703,-1.4667969 z m 2.47071,0.9238281 c 0.38082,0.2545633 0.76637,0.4323997 1.12695,0.8886719 l 0.0176,0.021484 12.62695,12.7343749 c 0.37192,0.371984 0.57528,0.75943 0.82813,1.144532 h -13.16602 c -0.0687,0 -0.13319,-0.01063 -0.19922,-0.01953 -0.70854,-0.123274 -1.23436,-0.730184 -1.23437,-1.478515 z M 144.42503,26.986428 V 47.6876 h 3.58204 c 0.0129,-2.69763 -0.0276,-5.396929 0.0254,-8.09375 0.0888,-1.266853 0.15816,-2.880319 1.36523,-3.574219 0.66441,-0.381861 1.55522,-0.473932 2.28711,-0.236328 1.07274,0.348299 1.25291,1.730823 1.29883,2.726563 0.0175,3.059149 9.6e-4,6.118316 0.006,9.177734 h 3.57031 c -0.008,-3.437934 0.027,-6.911945 0,-10.349609 -0.0371,-1.727493 -0.74578,-3.619877 -2.39844,-4.408203 -1.41254,-0.673611 -3.08418,-0.472962 -4.51758,0.07031 -0.67676,0.256489 -1.61132,1.503906 -1.61132,1.503906 -0.009,-2.505864 -0.0167,-5.011499 -0.0254,-7.517578 z m -2.41406,22.9375 c -0.83854,0 -1.49479,0.248698 -1.96875,0.746094 -0.47396,0.497396 -0.71094,1.184896 -0.71094,2.0625 0,0.585937 0.10547,1.09375 0.31641,1.523437 0.21354,0.427084 0.52214,0.756511 0.92578,0.988282 0.40625,0.229166 0.88672,0.34375 1.44141,0.34375 0.54166,0 1.01693,-0.123698 1.42578,-0.371094 0.41146,-0.247396 0.73047,-0.608073 0.95703,-1.082031 l -0.60937,-0.304688 c -0.38803,0.763021 -0.96745,1.144531 -1.73829,1.144531 -0.60156,0 -1.07942,-0.204427 -1.43359,-0.613281 -0.35156,-0.411458 -0.52734,-0.954427 -0.52734,-1.628906 0,-0.682292 0.16927,-1.21875 0.50781,-1.609375 0.33854,-0.393229 0.8125,-0.589844 1.42187,-0.589844 0.38803,0 0.72266,0.08464 1.00391,0.253906 0.28385,0.169271 0.48958,0.414063 0.61719,0.734375 l 0.70703,-0.234375 c -0.1849,-0.45052 -0.47396,-0.790364 -0.86719,-1.019531 -0.39323,-0.229167 -0.88281,-0.34375 -1.46875,-0.34375 z m 3.34766,0.08203 v 5.503907 h 0.74609 v -2.550782 h 2.97656 v 2.550782 h 0.7461 v -5.503907 h -0.7461 v 2.328125 h -2.97656 v -2.328125 z m 5.77734,0 v 5.503907 h 2.0586 c 0.53125,0 1,-0.113282 1.40625,-0.339844 0.40625,-0.226563 0.72005,-0.552083 0.9414,-0.976563 0.22136,-0.427083 0.33203,-0.924479 0.33203,-1.492187 0,-0.861979 -0.2539,-1.526042 -0.76172,-1.992188 -0.5052,-0.46875 -1.22395,-0.703125 -2.15625,-0.703125 z m 5.77735,0 v 5.503907 h 0.74609 v -2.285157 h 1.71484 l 1.42969,2.285157 h 0.85938 l -1.5625,-2.371094 c 0.41927,-0.07292 0.74739,-0.248698 0.98437,-0.527344 0.23958,-0.278646 0.35938,-0.622396 0.35938,-1.03125 0,-0.494792 -0.16928,-0.880208 -0.50782,-1.15625 -0.33593,-0.278646 -0.8138,-0.417969 -1.43359,-0.417969 z m -5.03125,0.597657 h 1.05859 c 0.70833,0 1.2487,0.179687 1.62109,0.539062 0.375,0.356771 0.5625,0.876302 0.5625,1.558594 0,0.453125 -0.082,0.846354 -0.24609,1.179687 -0.16406,0.333334 -0.39974,0.588542 -0.70703,0.765625 -0.30469,0.177084 -0.65886,0.265625 -1.0625,0.265625 h -1.22656 z m 5.77734,0 h 1.76953 c 0.40885,0 0.72135,0.08463 0.9375,0.253906 0.21875,0.166667 0.32813,0.410156 0.32813,0.730469 0,0.330729 -0.10808,0.588541 -0.32422,0.773437 -0.21354,0.182292 -0.51693,0.273438 -0.91016,0.273438 h -1.80078 z"
       transform="translate(-118.4973,-1.0001)" />
    <path
       id="path24"
       style="fill:url(#linearGradient25);fill-opacity:1;stroke:none"
       d="m 151.80394,7.0001 -0.004,0.00195 -19.35351,0.00391 c -1.35355,0 -2.45703,1.1084593 -2.45703,2.4648437 V 57.533303 c 0,1.356386 1.10343,2.466797 2.45703,2.466797 h 36.09375 c 1.35354,0 2.45703,-1.110412 2.45703,-2.466797 V 26.183694 c 0,-0.440775 -0.10327,-0.93784 -0.29297,-1.464844 h 0.0606 l -0.35547,-0.722656 c -0.0256,-0.05172 -0.0587,-0.104197 -0.0859,-0.15625 l -0.0605,-0.125 h -0.008 c -0.33862,-0.618179 -0.7885,-1.252822 -1.38476,-1.84961 l -0.002,-0.002 L 156.26488,9.1524437 C 155.67159,8.4151755 155.0115,7.918962 154.36644,7.59385 154.28114,7.550863 154.19507,7.50998 154.11058,7.4727562 l -0.0859,-0.037109 -0.0312,-0.00195 C 153.20882,7.1007523 152.46804,7.0001 151.90941,7.0001 Z m 0.11523,1.0019531 c 0.37972,7.572e-4 0.91296,0.1248404 1.44727,0.3105469 v 13.935547 c 0,1.22231 0.89866,2.235584 2.06641,2.425781 0.12731,0.02382 0.25744,0.03746 0.39062,0.04102 0.0224,5.98e-4 0.0439,0.0039 0.0664,0.0039 h 13.69336 c 0.23563,0.562366 0.41406,1.117889 0.41406,1.464844 v 31.349609 c 0,0.822556 -0.64278,1.466797 -1.45703,1.466797 h -36.09375 c -0.81435,0 -1.45703,-0.644183 -1.45703,-1.466797 V 9.4708031 c 0,-0.8225555 0.64277,-1.4667967 1.45703,-1.4667969 z m 2.47071,0.9238281 c 0.38082,0.2545633 0.76637,0.4323997 1.12695,0.8886719 l 0.0176,0.021484 12.62695,12.7343749 c 0.37192,0.371984 0.57528,0.75943 0.82813,1.144532 h -13.16602 c -0.0687,0 -0.13319,-0.01063 -0.19922,-0.01953 -0.70854,-0.123274 -1.23436,-0.730184 -1.23437,-1.478515 z M 144.42503,26.986428 V 47.6876 h 3.58204 c 0.0129,-2.69763 -0.0276,-5.396929 0.0254,-8.09375 0.0888,-1.266853 0.15816,-2.880319 1.36523,-3.574219 0.66441,-0.381861 1.55522,-0.473932 2.28711,-0.236328 1.07274,0.348299 1.25291,1.730823 1.29883,2.726563 0.0175,3.059149 9.6e-4,6.118316 0.006,9.177734 h 3.57031 c -0.008,-3.437934 0.027,-6.911945 0,-10.349609 -0.0371,-1.727493 -0.74578,-3.619877 -2.39844,-4.408203 -1.41254,-0.673611 -3.08418,-0.472962 -4.51758,0.07031 -0.67676,0.256489 -1.61132,1.503906 -1.61132,1.503906 -0.009,-2.505864 -0.0167,-5.011499 -0.0254,-7.517578 z m -2.41406,22.9375 c -0.83854,0 -1.49479,0.248698 -1.96875,0.746094 -0.47396,0.497396 -0.71094,1.184896 -0.71094,2.0625 0,0.585937 0.10547,1.09375 0.31641,1.523437 0.21354,0.427084 0.52214,0.756511 0.92578,0.988282 0.40625,0.229166 0.88672,0.34375 1.44141,0.34375 0.54166,0 1.01693,-0.123698 1.42578,-0.371094 0.41146,-0.247396 0.73047,-0.608073 0.95703,-1.082031 l -0.60937,-0.304688 c -0.38803,0.763021 -0.96745,1.144531 -1.73829,1.144531 -0.60156,0 -1.07942,-0.204427 -1.43359,-0.613281 -0.35156,-0.411458 -0.52734,-0.954427 -0.52734,-1.628906 0,-0.682292 0.16927,-1.21875 0.50781,-1.609375 0.33854,-0.393229 0.8125,-0.589844 1.42187,-0.589844 0.38803,0 0.72266,0.08464 1.00391,0.253906 0.28385,0.169271 0.48958,0.414063 0.61719,0.734375 l 0.70703,-0.234375 c -0.1849,-0.45052 -0.47396,-0.790364 -0.86719,-1.019531 -0.39323,-0.229167 -0.88281,-0.34375 -1.46875,-0.34375 z m 3.34766,0.08203 v 5.503907 h 0.74609 v -2.550782 h 2.97656 v 2.550782 h 0.7461 v -5.503907 h -0.7461 v 2.328125 h -2.97656 v -2.328125 z m 5.77734,0 v 5.503907 h 2.0586 c 0.53125,0 1,-0.113282 1.40625,-0.339844 0.40625,-0.226563 0.72005,-0.552083 0.9414,-0.976563 0.22136,-0.427083 0.33203,-0.924479 0.33203,-1.492187 0,-0.861979 -0.2539,-1.526042 -0.76172,-1.992188 -0.5052,-0.46875 -1.22395,-0.703125 -2.15625,-0.703125 z m 5.77735,0 v 5.503907 h 0.74609 v -2.285157 h 1.71484 l 1.42969,2.285157 h 0.85938 l -1.5625,-2.371094 c 0.41927,-0.07292 0.74739,-0.248698 0.98437,-0.527344 0.23958,-0.278646 0.35938,-0.622396 0.35938,-1.03125 0,-0.494792 -0.16928,-0.880208 -0.50782,-1.15625 -0.33593,-0.278646 -0.8138,-0.417969 -1.43359,-0.417969 z m -5.03125,0.597657 h 1.05859 c 0.70833,0 1.2487,0.179687 1.62109,0.539062 0.375,0.356771 0.5625,0.876302 0.5625,1.558594 0,0.453125 -0.082,0.846354 -0.24609,1.179687 -0.16406,0.333334 -0.39974,0.588542 -0.70703,0.765625 -0.30469,0.177084 -0.65886,0.265625 -1.0625,0.265625 h -1.22656 z m 5.77734,0 h 1.76953 c 0.40885,0 0.72135,0.08463 0.9375,0.253906 0.21875,0.166667 0.32813,0.410156 0.32813,0.730469 0,0.330729 -0.10808,0.588541 -0.32422,0.773437 -0.21354,0.182292 -0.51693,0.273438 -0.91016,0.273438 h -1.80078 z"
       transform="translate(-118.4973,-1.0001)" />
  </g>
</svg>
