<?xml version="1.0" encoding="UTF-8" standalone="no"?>
<svg
   width="43.546024"
   height="55.538212"
   version="1.1"
   viewBox="0 0 43.546024 55.538212"
   id="svg3"
   xmlns:xlink="http://www.w3.org/1999/xlink"
   xmlns="http://www.w3.org/2000/svg"
   xmlns:svg="http://www.w3.org/2000/svg">
  <defs
     id="defs3">
    <linearGradient
       id="linearGradient28">
      <stop
         style="stop-color:#00abff;stop-opacity:0;"
         offset="0"
         id="stop29" />
      <stop
         style="stop-color:#00abff;stop-opacity:1;"
         offset="1"
         id="stop28" />
    </linearGradient>
    <linearGradient
       xlink:href="#linearGradient28"
       id="linearGradient29"
       x1="150.4973"
       y1="65.000099"
       x2="150.4973"
       y2="22.565317"
       gradientUnits="userSpaceOnUse" />
    <filter
       style="color-interpolation-filters:sRGB"
       id="filter29"
       x="-0.030947896"
       y="-0.023945386"
       width="1.0618958"
       height="1.0478908">
      <feGaussianBlur
         stdDeviation="0.52879393"
         id="feGaussianBlur29" />
    </filter>
  </defs>
  <g
     id="g29"
     transform="translate(-10.222995,-4.7308946)">
    <path
       id="path1"
       style="display:inline;opacity:0.6;fill:#00abff;fill-opacity:1;stroke:none;filter:url(#filter29)"
       d="m 151.80394,7.0001 -0.004,0.00195 -19.35351,0.00391 c -1.35355,0 -2.45703,1.1084593 -2.45703,2.4648437 V 57.533303 c 0,1.356386 1.10343,2.466797 2.45703,2.466797 h 36.09375 c 1.35354,0 2.45703,-1.110412 2.45703,-2.466797 V 26.183694 c 0,-0.440775 -0.10327,-0.93784 -0.29297,-1.464844 h 0.0606 l -0.35547,-0.722656 c -0.0256,-0.05172 -0.0587,-0.104197 -0.0859,-0.15625 l -0.0605,-0.125 h -0.008 c -0.33862,-0.618179 -0.7885,-1.252822 -1.38476,-1.84961 l -0.002,-0.002 L 156.26488,9.1524437 C 155.67159,8.4151755 155.0115,7.918962 154.36644,7.59385 154.28114,7.550863 154.19507,7.50998 154.11058,7.4727562 l -0.0859,-0.037109 -0.0312,-0.00195 C 153.20882,7.1007523 152.46804,7.0001 151.90941,7.0001 Z m 0.11523,1.0019531 c 0.37972,7.572e-4 0.91296,0.1248404 1.44727,0.3105469 v 13.935547 c 0,1.22231 0.89866,2.235584 2.06641,2.425781 0.12731,0.02382 0.25744,0.03746 0.39062,0.04102 0.0224,5.98e-4 0.0439,0.0039 0.0664,0.0039 h 13.69336 c 0.23563,0.562366 0.41406,1.117889 0.41406,1.464844 v 31.349609 c 0,0.822556 -0.64278,1.466797 -1.45703,1.466797 h -36.09375 c -0.81435,0 -1.45703,-0.644183 -1.45703,-1.466797 V 9.4708031 c 0,-0.8225555 0.64277,-1.4667967 1.45703,-1.4667969 z m 2.47071,0.9238281 c 0.38082,0.2545633 0.76637,0.4323997 1.12695,0.8886719 l 0.0176,0.021484 12.62695,12.7343749 c 0.37192,0.371984 0.57528,0.75943 0.82813,1.144532 h -13.16602 c -0.0687,0 -0.13319,-0.01063 -0.19922,-0.01953 -0.70854,-0.123274 -1.23436,-0.730184 -1.23437,-1.478515 z M 138.4973,29.0001 c -1.09071,0 -2,0.909282 -2,2 v 12.003906 c 0,1.090708 0.90928,2 2,2 h 24 c 1.09071,0 2,-0.909282 2,-2 V 31.0001 c 0,-1.090708 -0.90928,-2 -2,-2 z m 0,2 h 24 v 12.003906 h -24 z m 2.99805,2 v 8 h 2 v -4.875 l 2.5,3.125 2.5,-3.125 v 4.875 h 2 v -8 h -2 l -2.5,3.125 -2.5,-3.125 z m 14.00195,0 v 4 h -2 l 3,4 3,-4 h -2 v -4 z m 0.1875,17.984375 c -0.57292,0 -1.02062,0.16645 -1.3418,0.498047 -0.32118,0.329861 -0.48047,0.788195 -0.48047,1.375 0,0.385416 0.0708,0.723741 0.21485,1.013672 0.1441,0.288194 0.35243,0.507378 0.625,0.660156 0.2743,0.152778 0.59982,0.230469 0.97656,0.230469 0.37326,0 0.69835,-0.07791 0.97266,-0.232422 0.2743,-0.154514 0.48307,-0.375868 0.6289,-0.664063 0.14757,-0.288194 0.22266,-0.624132 0.22266,-1.007812 0,-0.385417 -0.0729,-0.718967 -0.21875,-1.001953 -0.1441,-0.282986 -0.3546,-0.498915 -0.62891,-0.646485 -0.2743,-0.149305 -0.59744,-0.224609 -0.9707,-0.224609 z m -20.89844,0.05469 v 3.669921 h 0.44336 v -2.447265 l -0.0117,-0.492188 -0.008,-0.289062 0.0859,0.285156 0.14648,0.443359 0.96094,2.5 h 0.34961 l 0.94726,-2.5 c 0.0677,-0.175347 0.14345,-0.417752 0.22852,-0.728515 -0.0156,0.25 -0.0234,0.510417 -0.0234,0.78125 v 2.447265 h 0.44922 v -3.669921 h -0.63867 l -0.95898,2.544921 c -0.0156,0.03646 -0.0447,0.125217 -0.0899,0.267579 -0.0434,0.140624 -0.072,0.246961 -0.0859,0.316406 -0.0104,-0.05208 -0.0334,-0.137587 -0.0664,-0.253906 -0.0312,-0.118056 -0.0629,-0.227648 -0.0977,-0.330079 l -0.97656,-2.544921 z m 5.51367,0 -1.49804,3.669921 h 0.51562 l 0.42188,-1.072265 h 1.67187 l 0.41992,1.072265 h 0.50782 l -1.47461,-3.669921 z m 2.48633,0 v 3.669921 h 0.49805 v -1.523437 h 1.14258 l 0.95312,1.523437 h 0.57227 l -1.04102,-1.580078 c 0.27952,-0.04861 0.49827,-0.165798 0.65625,-0.351562 0.15972,-0.185764 0.24024,-0.414931 0.24024,-0.6875 0,-0.329861 -0.11415,-0.587457 -0.33985,-0.771485 -0.22396,-0.185763 -0.54188,-0.279297 -0.95508,-0.279296 z m 3.85156,0 v 3.669921 h 0.49805 v -1.40625 l 0.47852,-0.365234 1.46679,1.771484 h 0.61719 l -1.77148,-2.076171 1.5625,-1.59375 h -0.58594 l -1.76758,1.839843 v -1.839843 z m 3.55665,0 v 3.669921 h 1.37304 c 0.35417,0 0.66667,-0.07552 0.9375,-0.226562 0.27084,-0.151042 0.47939,-0.367405 0.62696,-0.650391 0.14756,-0.284722 0.22265,-0.617622 0.22265,-0.996093 0,-0.574653 -0.16927,-1.017362 -0.50781,-1.328125 -0.33681,-0.3125 -0.81597,-0.468751 -1.4375,-0.46875 z m 7.58593,0 1.08203,3.669921 h 0.59375 c 0.44271,-1.604165 0.67969,-2.473958 0.71094,-2.609375 0.0312,-0.135416 0.0681,-0.30447 0.11328,-0.505859 0.0799,0.376736 0.14193,0.639323 0.1836,0.785156 l 0.63476,2.330078 h 0.59375 l 1.08008,-3.669921 h -0.51758 c -0.45833,1.64236 -0.70291,2.52756 -0.73242,2.654296 -0.0295,0.125 -0.0664,0.286676 -0.11328,0.486329 l -0.0234,0.0918 c -0.0555,-0.25868 -0.13324,-0.574002 -0.23047,-0.947265 l -0.63672,-2.285156 h -0.47656 c -0.42708,1.512151 -0.66905,2.381727 -0.72461,2.607421 -0.0538,0.225695 -0.10091,0.434028 -0.14258,0.625 -0.066,-0.309027 -0.13867,-0.608724 -0.21679,-0.90039 l -0.65821,-2.332031 z m 5.44922,0 v 3.669921 h 0.44141 v -2.4375 l -0.0117,-0.435546 -0.0137,-0.251954 1.96289,3.125 h 0.59961 v -3.669921 h -0.44727 v 2.40625 c 0,0.152777 0.0104,0.399956 0.0312,0.740234 l -1.98437,-3.146484 z m -7.54492,0.351562 c 0.41667,0 0.73937,0.130208 0.9668,0.390625 0.22916,0.260417 0.34375,0.619575 0.34375,1.076172 0,0.47743 -0.11437,0.847222 -0.3418,1.109375 -0.22569,0.260416 -0.551,0.390625 -0.97461,0.390625 -0.41146,0 -0.7322,-0.1352 -0.96484,-0.404297 -0.23091,-0.270833 -0.34766,-0.635634 -0.34766,-1.095703 0,-0.463542 0.11458,-0.823134 0.34375,-1.080078 0.22917,-0.256945 0.55447,-0.386719 0.97461,-0.386719 z m -15.10938,0.02344 0.0703,0.216796 c 0.0486,0.151042 0.0979,0.286459 0.14648,0.40625 l 0.4707,1.210938 h -1.37304 l 0.46875,-1.205078 c 0.0851,-0.225695 0.14995,-0.410591 0.19336,-0.554688 z m 2.70899,0.02344 h 1.17969 c 0.27257,0 0.4809,0.05707 0.625,0.169922 0.14583,0.111111 0.21875,0.272786 0.21875,0.486328 0,0.220486 -0.0727,0.392361 -0.2168,0.515625 -0.14236,0.121528 -0.34527,0.183594 -0.60742,0.183594 h -1.19922 z m 7.4082,0 h 0.70508 c 0.47222,0 0.83377,0.119792 1.08203,0.359375 0.25,0.237847 0.375,0.584202 0.375,1.039063 0,0.302083 -0.0547,0.564887 -0.16406,0.787109 -0.10938,0.222222 -0.2678,0.39171 -0.47266,0.509766 -0.20312,0.118055 -0.43793,0.177734 -0.70703,0.177734 h -0.81836 z"
       transform="translate(-118.4973,-1.0001)" />
    <path
       id="path28"
       style="fill:url(#linearGradient29);fill-opacity:1;stroke:none"
       d="m 151.80394,7.0001 -0.004,0.00195 -19.35351,0.00391 c -1.35355,0 -2.45703,1.1084593 -2.45703,2.4648437 V 57.533303 c 0,1.356386 1.10343,2.466797 2.45703,2.466797 h 36.09375 c 1.35354,0 2.45703,-1.110412 2.45703,-2.466797 V 26.183694 c 0,-0.440775 -0.10327,-0.93784 -0.29297,-1.464844 h 0.0606 l -0.35547,-0.722656 c -0.0256,-0.05172 -0.0587,-0.104197 -0.0859,-0.15625 l -0.0605,-0.125 h -0.008 c -0.33862,-0.618179 -0.7885,-1.252822 -1.38476,-1.84961 l -0.002,-0.002 L 156.26488,9.1524437 C 155.67159,8.4151755 155.0115,7.918962 154.36644,7.59385 154.28114,7.550863 154.19507,7.50998 154.11058,7.4727562 l -0.0859,-0.037109 -0.0312,-0.00195 C 153.20882,7.1007523 152.46804,7.0001 151.90941,7.0001 Z m 0.11523,1.0019531 c 0.37972,7.572e-4 0.91296,0.1248404 1.44727,0.3105469 v 13.935547 c 0,1.22231 0.89866,2.235584 2.06641,2.425781 0.12731,0.02382 0.25744,0.03746 0.39062,0.04102 0.0224,5.98e-4 0.0439,0.0039 0.0664,0.0039 h 13.69336 c 0.23563,0.562366 0.41406,1.117889 0.41406,1.464844 v 31.349609 c 0,0.822556 -0.64278,1.466797 -1.45703,1.466797 h -36.09375 c -0.81435,0 -1.45703,-0.644183 -1.45703,-1.466797 V 9.4708031 c 0,-0.8225555 0.64277,-1.4667967 1.45703,-1.4667969 z m 2.47071,0.9238281 c 0.38082,0.2545633 0.76637,0.4323997 1.12695,0.8886719 l 0.0176,0.021484 12.62695,12.7343749 c 0.37192,0.371984 0.57528,0.75943 0.82813,1.144532 h -13.16602 c -0.0687,0 -0.13319,-0.01063 -0.19922,-0.01953 -0.70854,-0.123274 -1.23436,-0.730184 -1.23437,-1.478515 z M 138.4973,29.0001 c -1.09071,0 -2,0.909282 -2,2 v 12.003906 c 0,1.090708 0.90928,2 2,2 h 24 c 1.09071,0 2,-0.909282 2,-2 V 31.0001 c 0,-1.090708 -0.90928,-2 -2,-2 z m 0,2 h 24 v 12.003906 h -24 z m 2.99805,2 v 8 h 2 v -4.875 l 2.5,3.125 2.5,-3.125 v 4.875 h 2 v -8 h -2 l -2.5,3.125 -2.5,-3.125 z m 14.00195,0 v 4 h -2 l 3,4 3,-4 h -2 v -4 z m 0.1875,17.984375 c -0.57292,0 -1.02062,0.16645 -1.3418,0.498047 -0.32118,0.329861 -0.48047,0.788195 -0.48047,1.375 0,0.385416 0.0708,0.723741 0.21485,1.013672 0.1441,0.288194 0.35243,0.507378 0.625,0.660156 0.2743,0.152778 0.59982,0.230469 0.97656,0.230469 0.37326,0 0.69835,-0.07791 0.97266,-0.232422 0.2743,-0.154514 0.48307,-0.375868 0.6289,-0.664063 0.14757,-0.288194 0.22266,-0.624132 0.22266,-1.007812 0,-0.385417 -0.0729,-0.718967 -0.21875,-1.001953 -0.1441,-0.282986 -0.3546,-0.498915 -0.62891,-0.646485 -0.2743,-0.149305 -0.59744,-0.224609 -0.9707,-0.224609 z m -20.89844,0.05469 v 3.669921 h 0.44336 v -2.447265 l -0.0117,-0.492188 -0.008,-0.289062 0.0859,0.285156 0.14648,0.443359 0.96094,2.5 h 0.34961 l 0.94726,-2.5 c 0.0677,-0.175347 0.14345,-0.417752 0.22852,-0.728515 -0.0156,0.25 -0.0234,0.510417 -0.0234,0.78125 v 2.447265 h 0.44922 v -3.669921 h -0.63867 l -0.95898,2.544921 c -0.0156,0.03646 -0.0447,0.125217 -0.0899,0.267579 -0.0434,0.140624 -0.072,0.246961 -0.0859,0.316406 -0.0104,-0.05208 -0.0334,-0.137587 -0.0664,-0.253906 -0.0312,-0.118056 -0.0629,-0.227648 -0.0977,-0.330079 l -0.97656,-2.544921 z m 5.51367,0 -1.49804,3.669921 h 0.51562 l 0.42188,-1.072265 h 1.67187 l 0.41992,1.072265 h 0.50782 l -1.47461,-3.669921 z m 2.48633,0 v 3.669921 h 0.49805 v -1.523437 h 1.14258 l 0.95312,1.523437 h 0.57227 l -1.04102,-1.580078 c 0.27952,-0.04861 0.49827,-0.165798 0.65625,-0.351562 0.15972,-0.185764 0.24024,-0.414931 0.24024,-0.6875 0,-0.329861 -0.11415,-0.587457 -0.33985,-0.771485 -0.22396,-0.185763 -0.54188,-0.279297 -0.95508,-0.279296 z m 3.85156,0 v 3.669921 h 0.49805 v -1.40625 l 0.47852,-0.365234 1.46679,1.771484 h 0.61719 l -1.77148,-2.076171 1.5625,-1.59375 h -0.58594 l -1.76758,1.839843 v -1.839843 z m 3.55665,0 v 3.669921 h 1.37304 c 0.35417,0 0.66667,-0.07552 0.9375,-0.226562 0.27084,-0.151042 0.47939,-0.367405 0.62696,-0.650391 0.14756,-0.284722 0.22265,-0.617622 0.22265,-0.996093 0,-0.574653 -0.16927,-1.017362 -0.50781,-1.328125 -0.33681,-0.3125 -0.81597,-0.468751 -1.4375,-0.46875 z m 7.58593,0 1.08203,3.669921 h 0.59375 c 0.44271,-1.604165 0.67969,-2.473958 0.71094,-2.609375 0.0312,-0.135416 0.0681,-0.30447 0.11328,-0.505859 0.0799,0.376736 0.14193,0.639323 0.1836,0.785156 l 0.63476,2.330078 h 0.59375 l 1.08008,-3.669921 h -0.51758 c -0.45833,1.64236 -0.70291,2.52756 -0.73242,2.654296 -0.0295,0.125 -0.0664,0.286676 -0.11328,0.486329 l -0.0234,0.0918 c -0.0555,-0.25868 -0.13324,-0.574002 -0.23047,-0.947265 l -0.63672,-2.285156 h -0.47656 c -0.42708,1.512151 -0.66905,2.381727 -0.72461,2.607421 -0.0538,0.225695 -0.10091,0.434028 -0.14258,0.625 -0.066,-0.309027 -0.13867,-0.608724 -0.21679,-0.90039 l -0.65821,-2.332031 z m 5.44922,0 v 3.669921 h 0.44141 v -2.4375 l -0.0117,-0.435546 -0.0137,-0.251954 1.96289,3.125 h 0.59961 v -3.669921 h -0.44727 v 2.40625 c 0,0.152777 0.0104,0.399956 0.0312,0.740234 l -1.98437,-3.146484 z m -7.54492,0.351562 c 0.41667,0 0.73937,0.130208 0.9668,0.390625 0.22916,0.260417 0.34375,0.619575 0.34375,1.076172 0,0.47743 -0.11437,0.847222 -0.3418,1.109375 -0.22569,0.260416 -0.551,0.390625 -0.97461,0.390625 -0.41146,0 -0.7322,-0.1352 -0.96484,-0.404297 -0.23091,-0.270833 -0.34766,-0.635634 -0.34766,-1.095703 0,-0.463542 0.11458,-0.823134 0.34375,-1.080078 0.22917,-0.256945 0.55447,-0.386719 0.97461,-0.386719 z m -15.10938,0.02344 0.0703,0.216796 c 0.0486,0.151042 0.0979,0.286459 0.14648,0.40625 l 0.4707,1.210938 h -1.37304 l 0.46875,-1.205078 c 0.0851,-0.225695 0.14995,-0.410591 0.19336,-0.554688 z m 2.70899,0.02344 h 1.17969 c 0.27257,0 0.4809,0.05707 0.625,0.169922 0.14583,0.111111 0.21875,0.272786 0.21875,0.486328 0,0.220486 -0.0727,0.392361 -0.2168,0.515625 -0.14236,0.121528 -0.34527,0.183594 -0.60742,0.183594 h -1.19922 z m 7.4082,0 h 0.70508 c 0.47222,0 0.83377,0.119792 1.08203,0.359375 0.25,0.237847 0.375,0.584202 0.375,1.039063 0,0.302083 -0.0547,0.564887 -0.16406,0.787109 -0.10938,0.222222 -0.2678,0.39171 -0.47266,0.509766 -0.20312,0.118055 -0.43793,0.177734 -0.70703,0.177734 h -0.81836 z"
       transform="translate(-118.4973,-1.0001)" />
  </g>
</svg>
