<?xml version="1.0" encoding="UTF-8" standalone="no"?>
<svg
   width="43.546024"
   height="55.538212"
   version="1.1"
   viewBox="0 0 43.546024 55.538212"
   id="svg3"
   xmlns:xlink="http://www.w3.org/1999/xlink"
   xmlns="http://www.w3.org/2000/svg"
   xmlns:svg="http://www.w3.org/2000/svg">
  <defs
     id="defs3">
    <linearGradient
       id="linearGradient18">
      <stop
         style="stop-color:#00abff;stop-opacity:0;"
         offset="0"
         id="stop19" />
      <stop
         style="stop-color:#00abff;stop-opacity:1;"
         offset="1"
         id="stop18" />
    </linearGradient>
    <linearGradient
       xlink:href="#linearGradient18"
       id="linearGradient19"
       x1="150.26541"
       y1="65.000099"
       x2="150.26541"
       y2="26.043579"
       gradientUnits="userSpaceOnUse" />
    <filter
       style="color-interpolation-filters:sRGB"
       id="filter19"
       x="-0.030947896"
       y="-0.023945386"
       width="1.0618958"
       height="1.0478908">
      <feGaussianBlur
         stdDeviation="0.52879393"
         id="feGaussianBlur19" />
    </filter>
  </defs>
  <g
     id="g19"
     transform="translate(-10.222995,-4.7308946)">
    <path
       id="path1"
       style="display:inline;opacity:0.6;fill:#00abff;fill-opacity:1;stroke:none;filter:url(#filter19)"
       d="m 151.80394,7.0001 -0.004,0.00195 -19.35351,0.00391 c -1.35355,0 -2.45703,1.1084593 -2.45703,2.4648437 V 57.533303 c 0,1.356386 1.10343,2.466797 2.45703,2.466797 h 36.09375 c 1.35354,0 2.45703,-1.110412 2.45703,-2.466797 V 26.183694 c 0,-0.440775 -0.10327,-0.93784 -0.29297,-1.464844 h 0.0606 l -0.35547,-0.722656 c -0.0256,-0.05172 -0.0587,-0.104197 -0.0859,-0.15625 l -0.0605,-0.125 h -0.008 c -0.33862,-0.618179 -0.7885,-1.252822 -1.38476,-1.84961 l -0.002,-0.002 L 156.26488,9.1524437 C 155.67159,8.4151755 155.0115,7.918962 154.36644,7.59385 154.28114,7.550863 154.19507,7.50998 154.11058,7.4727562 l -0.0859,-0.037109 -0.0312,-0.00195 C 153.20882,7.1007523 152.46804,7.0001 151.90941,7.0001 Z m 0.11523,1.0019531 c 0.37972,7.572e-4 0.91296,0.1248404 1.44727,0.3105469 v 13.935547 c 0,1.22231 0.89866,2.235584 2.06641,2.425781 0.12731,0.02382 0.25744,0.03746 0.39062,0.04102 0.0224,5.98e-4 0.0439,0.0039 0.0664,0.0039 h 13.69336 c 0.23563,0.562366 0.41406,1.117889 0.41406,1.464844 v 31.349609 c 0,0.822556 -0.64278,1.466797 -1.45703,1.466797 h -36.09375 c -0.81435,0 -1.45703,-0.644183 -1.45703,-1.466797 V 9.4708031 c 0,-0.8225555 0.64277,-1.4667967 1.45703,-1.4667969 z m 2.47071,0.9238281 c 0.38082,0.2545633 0.76637,0.4323997 1.12695,0.8886719 l 0.0176,0.021484 12.62695,12.7343749 c 0.37192,0.371984 0.57528,0.75943 0.82813,1.144532 h -13.16602 c -0.0687,0 -0.13319,-0.01063 -0.19922,-0.01953 -0.70854,-0.123274 -1.23436,-0.730184 -1.23437,-1.478515 z M 138.14769,29.834084 c -1.93045,0 -3.29492,1.196677 -3.29492,2.753907 0,1.389872 0.96446,2.16157 1.92969,2.560547 l 1.27539,0.541015 c 0.84937,0.360345 1.42773,0.579297 1.42773,1.28711 0,0.669216 -0.52854,1.095703 -1.51953,1.095703 -0.83651,0 -1.73595,-0.426014 -2.41797,-1.056641 l -1.09375,1.3125 c 0.92664,0.887964 2.20051,1.390625 3.47461,1.390625 2.20066,0 3.5,-1.325581 3.5,-2.882812 0,-1.377037 -0.75974,-2.111653 -1.91797,-2.587891 l -1.24805,-0.527344 c -0.81077,-0.321739 -1.49218,-0.565955 -1.49218,-1.248047 0,-0.63061 0.54044,-1.003906 1.37695,-1.003906 0.78504,0 1.41656,0.28324 2.02148,0.785156 l 0.96485,-1.197265 c -0.77217,-0.785041 -1.87958,-1.222657 -2.98633,-1.222657 z m 25.41992,0 c -2.4066,0 -4.42773,1.840338 -4.42773,4.980469 0,3.178804 1.95667,4.904297 4.36328,4.904297 1.23552,0 2.25208,-0.490545 3.03711,-1.404297 l -1.00391,-1.183594 c -0.51478,0.553391 -1.15796,0.941407 -1.96875,0.941407 -1.50572,0 -2.48437,-1.250293 -2.48437,-3.322266 0,-2.046219 1.08205,-3.28125 2.52343,-3.28125 0.72069,0 1.27385,0.333573 1.75,0.796875 l 1.00391,-1.208984 c -0.61774,-0.643479 -1.58329,-1.222657 -2.79297,-1.222657 z m -20.46484,0.181641 v 9.521484 h 1.9043 v -3.384765 h 1.27539 c 2.04622,0 3.67968,-0.977355 3.67968,-3.152344 0,-2.252167 -1.6199,-2.984375 -3.73047,-2.984375 z m 8.59765,0 v 9.521484 h 5.98243 v -1.59375 h -4.08008 v -2.548828 h 3.3457 v -1.595703 h -3.3457 v -2.201172 h 3.9375 v -1.582031 z m -6.69335,1.505859 h 1.08203 c 1.31269,0 2.00781,0.37176 2.00781,1.478516 0,1.093911 -0.63068,1.648438 -1.94336,1.648438 h -1.14648 z m -2.72071,18.634766 c -0.67187,0 -1.1888,0.127604 -1.55078,0.382813 -0.35937,0.255208 -0.53906,0.618489 -0.53906,1.089843 0,0.205729 0.0339,0.388021 0.10156,0.546875 0.0703,0.158854 0.17057,0.298177 0.30078,0.417969 0.13021,0.117187 0.30729,0.223958 0.53125,0.320313 0.22656,0.09635 0.55729,0.192708 0.99219,0.289062 0.25,0.05729 0.47786,0.110677 0.68359,0.160156 0.20573,0.04948 0.38282,0.110677 0.53125,0.183594 0.14844,0.07292 0.26302,0.165365 0.34375,0.277344 0.0833,0.111979 0.125,0.257812 0.125,0.4375 0,0.320312 -0.13151,0.563802 -0.39453,0.730469 -0.26041,0.164062 -0.63151,0.246093 -1.11328,0.246093 -0.46614,0 -0.83463,-0.07682 -1.10547,-0.230468 -0.27083,-0.15625 -0.44791,-0.39974 -0.53125,-0.730469 l -0.72265,0.144531 c 0.21354,0.932292 0.99088,1.398438 2.33203,1.398438 0.72135,-1e-6 1.27995,-0.139323 1.67578,-0.417969 0.39844,-0.278646 0.59765,-0.671875 0.59765,-1.179688 0,-0.200521 -0.0286,-0.375 -0.0859,-0.523437 -0.0547,-0.148438 -0.13151,-0.277344 -0.23047,-0.386719 -0.099,-0.109375 -0.21615,-0.201823 -0.35156,-0.277344 -0.13282,-0.07552 -0.27605,-0.140625 -0.42969,-0.195312 -0.15365,-0.05729 -0.31511,-0.105469 -0.48438,-0.144531 -0.16666,-0.04167 -0.33463,-0.08203 -0.5039,-0.121094 -0.50521,-0.111979 -0.84245,-0.205729 -1.01172,-0.28125 -0.16927,-0.07813 -0.29948,-0.171875 -0.39063,-0.28125 -0.0885,-0.111979 -0.13281,-0.252604 -0.13281,-0.421875 0,-0.289063 0.11589,-0.506511 0.34766,-0.652344 0.23177,-0.145833 0.56771,-0.21875 1.00781,-0.21875 0.40104,0 0.71484,0.06641 0.94141,0.199219 0.22656,0.130208 0.3802,0.341146 0.46093,0.632812 l 0.73438,-0.128906 c -0.13281,-0.460937 -0.36458,-0.786458 -0.69531,-0.976562 -0.33073,-0.192709 -0.8086,-0.289063 -1.4336,-0.289063 z m 16.38281,0 c -0.83854,0 -1.49479,0.248698 -1.96875,0.746094 -0.47395,0.497396 -0.71093,1.184896 -0.71093,2.0625 0,0.585937 0.10547,1.09375 0.3164,1.523437 0.21355,0.427084 0.52214,0.756511 0.92578,0.988282 0.40625,0.229166 0.88672,0.34375 1.44141,0.34375 0.54167,-1e-6 1.01693,-0.123698 1.42578,-0.371094 0.41146,-0.247396 0.73047,-0.608073 0.95703,-1.082031 L 160.44652,54.0626 c -0.38802,0.763021 -0.96745,1.144531 -1.73828,1.144531 -0.60157,0 -1.07943,-0.204427 -1.4336,-0.613281 -0.35156,-0.411458 -0.52734,-0.954427 -0.52734,-1.628906 0,-0.682292 0.16927,-1.21875 0.50781,-1.609375 0.33854,-0.393229 0.8125,-0.589844 1.42188,-0.589844 0.38802,0 0.72265,0.08463 1.0039,0.253906 0.28386,0.169271 0.48959,0.414063 0.61719,0.734375 l 0.70703,-0.234375 c -0.18489,-0.450521 -0.47396,-0.790364 -0.86719,-1.019531 -0.39322,-0.229167 -0.88281,-0.34375 -1.46875,-0.34375 z m -13.10156,0.08203 v 5.503907 h 0.7461 v -2.144532 h 1.61718 c 0.58334,0 1.04427,-0.153646 1.38282,-0.460937 0.34114,-0.307292 0.51171,-0.721354 0.51171,-1.242188 0,-0.526041 -0.16927,-0.933593 -0.50781,-1.222656 -0.33854,-0.289062 -0.8164,-0.433594 -1.43359,-0.433594 z m 5.33594,0 v 5.503907 h 4.33594 v -0.609375 h -3.58985 v -1.917969 h 3.19532 V 52.61338 h -3.19532 v -1.765625 h 3.42969 V 50.23838 Z m -4.58984,0.597657 h 1.48046 c 0.85417,0 1.28125,0.355468 1.28125,1.066406 0,0.736979 -0.41666,1.105469 -1.25,1.105469 h -1.51171 z"
       transform="translate(-118.4973,-1.0001)" />
    <path
       id="path18"
       style="fill:url(#linearGradient19);fill-opacity:1;stroke:none"
       d="m 151.80394,7.0001 -0.004,0.00195 -19.35351,0.00391 c -1.35355,0 -2.45703,1.1084593 -2.45703,2.4648437 V 57.533303 c 0,1.356386 1.10343,2.466797 2.45703,2.466797 h 36.09375 c 1.35354,0 2.45703,-1.110412 2.45703,-2.466797 V 26.183694 c 0,-0.440775 -0.10327,-0.93784 -0.29297,-1.464844 h 0.0606 l -0.35547,-0.722656 c -0.0256,-0.05172 -0.0587,-0.104197 -0.0859,-0.15625 l -0.0605,-0.125 h -0.008 c -0.33862,-0.618179 -0.7885,-1.252822 -1.38476,-1.84961 l -0.002,-0.002 L 156.26488,9.1524437 C 155.67159,8.4151755 155.0115,7.918962 154.36644,7.59385 154.28114,7.550863 154.19507,7.50998 154.11058,7.4727562 l -0.0859,-0.037109 -0.0312,-0.00195 C 153.20882,7.1007523 152.46804,7.0001 151.90941,7.0001 Z m 0.11523,1.0019531 c 0.37972,7.572e-4 0.91296,0.1248404 1.44727,0.3105469 v 13.935547 c 0,1.22231 0.89866,2.235584 2.06641,2.425781 0.12731,0.02382 0.25744,0.03746 0.39062,0.04102 0.0224,5.98e-4 0.0439,0.0039 0.0664,0.0039 h 13.69336 c 0.23563,0.562366 0.41406,1.117889 0.41406,1.464844 v 31.349609 c 0,0.822556 -0.64278,1.466797 -1.45703,1.466797 h -36.09375 c -0.81435,0 -1.45703,-0.644183 -1.45703,-1.466797 V 9.4708031 c 0,-0.8225555 0.64277,-1.4667967 1.45703,-1.4667969 z m 2.47071,0.9238281 c 0.38082,0.2545633 0.76637,0.4323997 1.12695,0.8886719 l 0.0176,0.021484 12.62695,12.7343749 c 0.37192,0.371984 0.57528,0.75943 0.82813,1.144532 h -13.16602 c -0.0687,0 -0.13319,-0.01063 -0.19922,-0.01953 -0.70854,-0.123274 -1.23436,-0.730184 -1.23437,-1.478515 z M 138.14769,29.834084 c -1.93045,0 -3.29492,1.196677 -3.29492,2.753907 0,1.389872 0.96446,2.16157 1.92969,2.560547 l 1.27539,0.541015 c 0.84937,0.360345 1.42773,0.579297 1.42773,1.28711 0,0.669216 -0.52854,1.095703 -1.51953,1.095703 -0.83651,0 -1.73595,-0.426014 -2.41797,-1.056641 l -1.09375,1.3125 c 0.92664,0.887964 2.20051,1.390625 3.47461,1.390625 2.20066,0 3.5,-1.325581 3.5,-2.882812 0,-1.377037 -0.75974,-2.111653 -1.91797,-2.587891 l -1.24805,-0.527344 c -0.81077,-0.321739 -1.49218,-0.565955 -1.49218,-1.248047 0,-0.63061 0.54044,-1.003906 1.37695,-1.003906 0.78504,0 1.41656,0.28324 2.02148,0.785156 l 0.96485,-1.197265 c -0.77217,-0.785041 -1.87958,-1.222657 -2.98633,-1.222657 z m 25.41992,0 c -2.4066,0 -4.42773,1.840338 -4.42773,4.980469 0,3.178804 1.95667,4.904297 4.36328,4.904297 1.23552,0 2.25208,-0.490545 3.03711,-1.404297 l -1.00391,-1.183594 c -0.51478,0.553391 -1.15796,0.941407 -1.96875,0.941407 -1.50572,0 -2.48437,-1.250293 -2.48437,-3.322266 0,-2.046219 1.08205,-3.28125 2.52343,-3.28125 0.72069,0 1.27385,0.333573 1.75,0.796875 l 1.00391,-1.208984 c -0.61774,-0.643479 -1.58329,-1.222657 -2.79297,-1.222657 z m -20.46484,0.181641 v 9.521484 h 1.9043 v -3.384765 h 1.27539 c 2.04622,0 3.67968,-0.977355 3.67968,-3.152344 0,-2.252167 -1.6199,-2.984375 -3.73047,-2.984375 z m 8.59765,0 v 9.521484 h 5.98243 v -1.59375 h -4.08008 v -2.548828 h 3.3457 v -1.595703 h -3.3457 v -2.201172 h 3.9375 v -1.582031 z m -6.69335,1.505859 h 1.08203 c 1.31269,0 2.00781,0.37176 2.00781,1.478516 0,1.093911 -0.63068,1.648438 -1.94336,1.648438 h -1.14648 z m -2.72071,18.634766 c -0.67187,0 -1.1888,0.127604 -1.55078,0.382813 -0.35937,0.255208 -0.53906,0.618489 -0.53906,1.089843 0,0.205729 0.0339,0.388021 0.10156,0.546875 0.0703,0.158854 0.17057,0.298177 0.30078,0.417969 0.13021,0.117187 0.30729,0.223958 0.53125,0.320313 0.22656,0.09635 0.55729,0.192708 0.99219,0.289062 0.25,0.05729 0.47786,0.110677 0.68359,0.160156 0.20573,0.04948 0.38282,0.110677 0.53125,0.183594 0.14844,0.07292 0.26302,0.165365 0.34375,0.277344 0.0833,0.111979 0.125,0.257812 0.125,0.4375 0,0.320312 -0.13151,0.563802 -0.39453,0.730469 -0.26041,0.164062 -0.63151,0.246093 -1.11328,0.246093 -0.46614,0 -0.83463,-0.07682 -1.10547,-0.230468 -0.27083,-0.15625 -0.44791,-0.39974 -0.53125,-0.730469 l -0.72265,0.144531 c 0.21354,0.932292 0.99088,1.398438 2.33203,1.398438 0.72135,-1e-6 1.27995,-0.139323 1.67578,-0.417969 0.39844,-0.278646 0.59765,-0.671875 0.59765,-1.179688 0,-0.200521 -0.0286,-0.375 -0.0859,-0.523437 -0.0547,-0.148438 -0.13151,-0.277344 -0.23047,-0.386719 -0.099,-0.109375 -0.21615,-0.201823 -0.35156,-0.277344 -0.13282,-0.07552 -0.27605,-0.140625 -0.42969,-0.195312 -0.15365,-0.05729 -0.31511,-0.105469 -0.48438,-0.144531 -0.16666,-0.04167 -0.33463,-0.08203 -0.5039,-0.121094 -0.50521,-0.111979 -0.84245,-0.205729 -1.01172,-0.28125 -0.16927,-0.07813 -0.29948,-0.171875 -0.39063,-0.28125 -0.0885,-0.111979 -0.13281,-0.252604 -0.13281,-0.421875 0,-0.289063 0.11589,-0.506511 0.34766,-0.652344 0.23177,-0.145833 0.56771,-0.21875 1.00781,-0.21875 0.40104,0 0.71484,0.06641 0.94141,0.199219 0.22656,0.130208 0.3802,0.341146 0.46093,0.632812 l 0.73438,-0.128906 c -0.13281,-0.460937 -0.36458,-0.786458 -0.69531,-0.976562 -0.33073,-0.192709 -0.8086,-0.289063 -1.4336,-0.289063 z m 16.38281,0 c -0.83854,0 -1.49479,0.248698 -1.96875,0.746094 -0.47395,0.497396 -0.71093,1.184896 -0.71093,2.0625 0,0.585937 0.10547,1.09375 0.3164,1.523437 0.21355,0.427084 0.52214,0.756511 0.92578,0.988282 0.40625,0.229166 0.88672,0.34375 1.44141,0.34375 0.54167,-1e-6 1.01693,-0.123698 1.42578,-0.371094 0.41146,-0.247396 0.73047,-0.608073 0.95703,-1.082031 L 160.44652,54.0626 c -0.38802,0.763021 -0.96745,1.144531 -1.73828,1.144531 -0.60157,0 -1.07943,-0.204427 -1.4336,-0.613281 -0.35156,-0.411458 -0.52734,-0.954427 -0.52734,-1.628906 0,-0.682292 0.16927,-1.21875 0.50781,-1.609375 0.33854,-0.393229 0.8125,-0.589844 1.42188,-0.589844 0.38802,0 0.72265,0.08463 1.0039,0.253906 0.28386,0.169271 0.48959,0.414063 0.61719,0.734375 l 0.70703,-0.234375 c -0.18489,-0.450521 -0.47396,-0.790364 -0.86719,-1.019531 -0.39322,-0.229167 -0.88281,-0.34375 -1.46875,-0.34375 z m -13.10156,0.08203 v 5.503907 h 0.7461 v -2.144532 h 1.61718 c 0.58334,0 1.04427,-0.153646 1.38282,-0.460937 0.34114,-0.307292 0.51171,-0.721354 0.51171,-1.242188 0,-0.526041 -0.16927,-0.933593 -0.50781,-1.222656 -0.33854,-0.289062 -0.8164,-0.433594 -1.43359,-0.433594 z m 5.33594,0 v 5.503907 h 4.33594 v -0.609375 h -3.58985 v -1.917969 h 3.19532 V 52.61338 h -3.19532 v -1.765625 h 3.42969 V 50.23838 Z m -4.58984,0.597657 h 1.48046 c 0.85417,0 1.28125,0.355468 1.28125,1.066406 0,0.736979 -0.41666,1.105469 -1.25,1.105469 h -1.51171 z"
       transform="translate(-118.4973,-1.0001)" />
  </g>
</svg>
