<?xml version="1.0" encoding="UTF-8" standalone="no"?>
<svg
   width="43.546024"
   height="55.538212"
   version="1.1"
   viewBox="0 0 43.546024 55.538212"
   id="svg3"
   xmlns:xlink="http://www.w3.org/1999/xlink"
   xmlns="http://www.w3.org/2000/svg"
   xmlns:svg="http://www.w3.org/2000/svg">
  <defs
     id="defs3">
    <linearGradient
       id="linearGradient21">
      <stop
         style="stop-color:#00abff;stop-opacity:0;"
         offset="0"
         id="stop22" />
      <stop
         style="stop-color:#00abff;stop-opacity:1;"
         offset="1"
         id="stop21" />
    </linearGradient>
    <linearGradient
       xlink:href="#linearGradient21"
       id="linearGradient22"
       x1="151.12476"
       y1="65.000099"
       x2="151.12476"
       y2="24.615074"
       gradientUnits="userSpaceOnUse" />
    <filter
       style="color-interpolation-filters:sRGB"
       id="filter22"
       x="-0.030947896"
       y="-0.023945386"
       width="1.0618958"
       height="1.0478908">
      <feGaussianBlur
         stdDeviation="0.52879393"
         id="feGaussianBlur22" />
    </filter>
  </defs>
  <g
     id="g22"
     transform="translate(-10.222995,-4.7308946)">
    <path
       id="path1"
       style="display:inline;opacity:0.6;fill:#00abff;fill-opacity:1;stroke:none;filter:url(#filter22)"
       d="m 151.80394,7.0001 -0.004,0.00195 -19.35351,0.00391 c -1.35355,0 -2.45703,1.1084593 -2.45703,2.4648437 V 57.533303 c 0,1.356386 1.10343,2.466797 2.45703,2.466797 h 36.09375 c 1.35354,0 2.45703,-1.110412 2.45703,-2.466797 V 26.183694 c 0,-0.440775 -0.10327,-0.93784 -0.29297,-1.464844 h 0.0606 l -0.35547,-0.722656 c -0.0256,-0.05172 -0.0587,-0.104197 -0.0859,-0.15625 l -0.0605,-0.125 h -0.008 c -0.33862,-0.618179 -0.7885,-1.252822 -1.38476,-1.84961 l -0.002,-0.002 L 156.26488,9.1524437 C 155.67159,8.4151755 155.0115,7.918962 154.36644,7.59385 154.28114,7.550863 154.19507,7.50998 154.11058,7.4727562 l -0.0859,-0.037109 -0.0312,-0.00195 C 153.20882,7.1007523 152.46804,7.0001 151.90941,7.0001 Z m 0.11523,1.0019531 c 0.37972,7.572e-4 0.91296,0.1248404 1.44727,0.3105469 v 13.935547 c 0,1.22231 0.89866,2.235584 2.06641,2.425781 0.12731,0.02382 0.25744,0.03746 0.39062,0.04102 0.0224,5.98e-4 0.0439,0.0039 0.0664,0.0039 h 13.69336 c 0.23563,0.562366 0.41406,1.117889 0.41406,1.464844 v 17.386719 h -20.97852 c -2.26771,0 -4.24307,-1.514563 -4.83007,-3.705079 -0.58709,-2.190515 0.36578,-4.490991 2.33007,-5.625 1.96432,-1.134008 4.43135,-0.808749 6.03516,0.794922 l 1.41406,-1.414062 c -1.39801,-1.39801 -3.27909,-2.100523 -5.16211,-2.044922 -1.1298,0.03336 -2.2597,0.338506 -3.28711,0.931641 -2.73982,1.581711 -4.08062,4.819379 -3.26171,7.875 0.81877,3.055622 3.59839,5.187499 6.76171,5.1875 h 20.97852 v 1.998046 h -20.97852 c -3.64092,0 -6.91874,-2.187856 -8.31445,-5.550781 -1.39561,-3.362824 -0.6297,-7.226769 1.94141,-9.804687 2.57112,-2.577918 6.43435,-3.353407 9.80078,-1.966797 l 0.76172,-1.84961 c -1.54071,-0.634635 -3.17052,-0.89737 -4.76953,-0.8125 v 0.002 c -2.66502,0.141453 -5.24777,1.24843 -7.20899,3.214844 -3.13802,3.146321 -4.0744,7.878793 -2.37109,11.982422 1.70321,4.104229 5.71672,6.785156 10.16015,6.785156 h 20.97852 v 2.001954 h -20.97852 c -4.64583,0 -8.93449,-2.476472 -11.25781,-6.5 -2.32292,-4.023527 -2.32292,-8.976471 0,-13 2.32292,-4.023528 6.61128,-6.5 11.25781,-6.500001 v -2 c -5.35753,0 -10.31221,2.860367 -12.99023,7.5 -2.67862,4.639634 -2.67862,10.359968 0,15.000001 2.67862,4.639633 7.6334,7.5 12.99023,7.5 h 20.97852 v 3.96289 c 0,0.822556 -0.64278,1.466797 -1.45703,1.466797 h -36.09375 c -0.81435,0 -1.45703,-0.644183 -1.45703,-1.466797 V 9.4708031 c 0,-0.8225555 0.64277,-1.4667967 1.45703,-1.4667969 z m 2.47071,0.9238281 c 0.38082,0.2545633 0.76637,0.4323997 1.12695,0.8886719 l 0.0176,0.021484 12.62695,12.7343749 c 0.37192,0.371984 0.57528,0.75943 0.82813,1.144532 h -13.16602 c -0.0687,0 -0.13319,-0.01063 -0.19922,-0.01953 -0.70854,-0.123274 -1.23436,-0.730184 -1.23437,-1.478515 z"
       transform="translate(-118.4973,-1.0001)" />
    <path
       id="path21"
       style="fill:url(#linearGradient22);fill-opacity:1;stroke:none"
       d="m 151.80394,7.0001 -0.004,0.00195 -19.35351,0.00391 c -1.35355,0 -2.45703,1.1084593 -2.45703,2.4648437 V 57.533303 c 0,1.356386 1.10343,2.466797 2.45703,2.466797 h 36.09375 c 1.35354,0 2.45703,-1.110412 2.45703,-2.466797 V 26.183694 c 0,-0.440775 -0.10327,-0.93784 -0.29297,-1.464844 h 0.0606 l -0.35547,-0.722656 c -0.0256,-0.05172 -0.0587,-0.104197 -0.0859,-0.15625 l -0.0605,-0.125 h -0.008 c -0.33862,-0.618179 -0.7885,-1.252822 -1.38476,-1.84961 l -0.002,-0.002 L 156.26488,9.1524437 C 155.67159,8.4151755 155.0115,7.918962 154.36644,7.59385 154.28114,7.550863 154.19507,7.50998 154.11058,7.4727562 l -0.0859,-0.037109 -0.0312,-0.00195 C 153.20882,7.1007523 152.46804,7.0001 151.90941,7.0001 Z m 0.11523,1.0019531 c 0.37972,7.572e-4 0.91296,0.1248404 1.44727,0.3105469 v 13.935547 c 0,1.22231 0.89866,2.235584 2.06641,2.425781 0.12731,0.02382 0.25744,0.03746 0.39062,0.04102 0.0224,5.98e-4 0.0439,0.0039 0.0664,0.0039 h 13.69336 c 0.23563,0.562366 0.41406,1.117889 0.41406,1.464844 v 17.386719 h -20.97852 c -2.26771,0 -4.24307,-1.514563 -4.83007,-3.705079 -0.58709,-2.190515 0.36578,-4.490991 2.33007,-5.625 1.96432,-1.134008 4.43135,-0.808749 6.03516,0.794922 l 1.41406,-1.414062 c -1.39801,-1.39801 -3.27909,-2.100523 -5.16211,-2.044922 -1.1298,0.03336 -2.2597,0.338506 -3.28711,0.931641 -2.73982,1.581711 -4.08062,4.819379 -3.26171,7.875 0.81877,3.055622 3.59839,5.187499 6.76171,5.1875 h 20.97852 v 1.998046 h -20.97852 c -3.64092,0 -6.91874,-2.187856 -8.31445,-5.550781 -1.39561,-3.362824 -0.6297,-7.226769 1.94141,-9.804687 2.57112,-2.577918 6.43435,-3.353407 9.80078,-1.966797 l 0.76172,-1.84961 c -1.54071,-0.634635 -3.17052,-0.89737 -4.76953,-0.8125 v 0.002 c -2.66502,0.141453 -5.24777,1.24843 -7.20899,3.214844 -3.13802,3.146321 -4.0744,7.878793 -2.37109,11.982422 1.70321,4.104229 5.71672,6.785156 10.16015,6.785156 h 20.97852 v 2.001954 h -20.97852 c -4.64583,0 -8.93449,-2.476472 -11.25781,-6.5 -2.32292,-4.023527 -2.32292,-8.976471 0,-13 2.32292,-4.023528 6.61128,-6.5 11.25781,-6.500001 v -2 c -5.35753,0 -10.31221,2.860367 -12.99023,7.5 -2.67862,4.639634 -2.67862,10.359968 0,15.000001 2.67862,4.639633 7.6334,7.5 12.99023,7.5 h 20.97852 v 3.96289 c 0,0.822556 -0.64278,1.466797 -1.45703,1.466797 h -36.09375 c -0.81435,0 -1.45703,-0.644183 -1.45703,-1.466797 V 9.4708031 c 0,-0.8225555 0.64277,-1.4667967 1.45703,-1.4667969 z m 2.47071,0.9238281 c 0.38082,0.2545633 0.76637,0.4323997 1.12695,0.8886719 l 0.0176,0.021484 12.62695,12.7343749 c 0.37192,0.371984 0.57528,0.75943 0.82813,1.144532 h -13.16602 c -0.0687,0 -0.13319,-0.01063 -0.19922,-0.01953 -0.70854,-0.123274 -1.23436,-0.730184 -1.23437,-1.478515 z"
       transform="translate(-118.4973,-1.0001)" />
  </g>
</svg>
