<?xml version="1.0" encoding="UTF-8" standalone="no"?>
<svg
   width="163.97461"
   height="135.96872"
   version="1.1"
   id="svg158"
   xmlns:xlink="http://www.w3.org/1999/xlink"
   xmlns="http://www.w3.org/2000/svg"
   xmlns:svg="http://www.w3.org/2000/svg"
   xmlns:rdf="http://www.w3.org/1999/02/22-rdf-syntax-ns#"
   xmlns:cc="http://creativecommons.org/ns#"
   xmlns:dc="http://purl.org/dc/elements/1.1/">
  <metadata
     id="metadata1">
    <rdf:RDF>
      <cc:Work
         rdf:about="">
        <dc:format>image/svg+xml</dc:format>
        <dc:type
           rdf:resource="http://purl.org/dc/dcmitype/StillImage" />
        <dc:title />
      </cc:Work>
    </rdf:RDF>
  </metadata>
  <defs
     id="defs54">
    <linearGradient
       id="linearGradient158">
      <stop
         style="stop-color:#00abff;stop-opacity:0;"
         offset="0"
         id="stop159" />
      <stop
         style="stop-color:#00abff;stop-opacity:1;"
         offset="1"
         id="stop158" />
    </linearGradient>
    <style
       type="text/css"
       id="style1" />
    <style
       id="current-color-scheme"
       type="text/css">.ColorScheme-Text {
        color:#4d4d4d;
      }</style>
    <style
       type="text/css"
       id="style2">.ColorScheme-Text {
        color:#4d4d4d;
      }</style>
    <style
       type="text/css"
       id="style49" />
    <style
       type="text/css"
       id="style50" />
    <linearGradient
       xlink:href="#linearGradient158"
       id="linearGradient159"
       x1="-118.55073"
       y1="200"
       x2="-118.55073"
       y2="88.4058"
       gradientUnits="userSpaceOnUse" />
    <filter
       style="color-interpolation-filters:sRGB"
       id="filter159"
       x="-0.024580925"
       y="-0.029947181"
       width="1.0491618"
       height="1.0598944">
      <feGaussianBlur
         stdDeviation="1.6007412"
         id="feGaussianBlur159" />
    </filter>
  </defs>
  <g
     id="g159"
     transform="translate(-18.015601,-29.585955)">
    <path
       id="path151"
       style="display:inline;opacity:0.6;fill:#00abff;fill-opacity:1;filter:url(#filter159)"
       d="m -191.83984,33.427734 -6.30078,6.300782 V 71.126953 L -191.00977,64 h 40 l 11.42969,-11.427734 h 90.599611 l 7.128907,7.126953 v -8.541016 l -6.298829,-6.300781 H -150.42578 v -5.128906 l -6.29883,-6.300782 z m 0.82812,2 h 33.45703 l 5.12891,5.128907 v 6.300781 h 103.445311 l 5.128907,5.128906 v 2.884766 l -4.298829,-4.298828 H -140.4082 L -151.83789,62 h -40 l -4.30273,4.300781 V 40.556641 Z M -140.41016,62.570312 -151.83984,74 h -40 l -6.30078,6.298828 -0.002,75.115232 6.30078,6.29883 h 143.687503 l 6.300781,-6.29883 V 68.871094 l -6.300781,-6.300782 z m 0.82813,2 h 90.599608 l 5.128906,5.128907 v 84.884761 l -5.128906,5.12891 H -191.01367 l -5.12891,-5.12891 0.002,-73.455074 L -191.01172,76 h 40 z m 1.94141,22.16211 c -3.0074,0 -5.42774,2.422287 -5.42774,5.429687 v 46.140621 c 0,3.0074 2.42034,5.42969 5.42774,5.42969 h 35.28515 c 3.007401,0 5.429689,-2.42229 5.429689,-5.42969 V 92.162109 c 0,-3.0074 -2.422288,-5.429687 -5.429689,-5.429687 h -8.14258 a 1.3571,1.3571 0 0 0 -1.35156,1.357422 1.3571,1.3571 0 0 0 1.35156,1.357422 1.3571,1.3571 0 0 0 0.006,0 h 8.13672 c 1.5037,0 2.714845,1.211243 2.714845,2.714843 v 46.140621 c 0,1.5037 -1.211245,2.71485 -2.714845,2.71485 h -35.28515 c -1.50371,0 -2.71485,-1.21125 -2.71485,-2.71485 V 92.162109 c 0,-1.5037 1.21124,-2.714843 2.71485,-2.714843 h 10.85156 a 1.3571,1.3571 0 0 0 0.006,0 1.3571,1.3571 0 0 0 1.35156,-1.357422 1.3571,1.3571 0 0 0 -1.35156,-1.357422 h -0.006 z m 17.63867,0 c -0.75183,0 -1.35743,0.605589 -1.35743,1.357422 v 40.146486 l -9.19921,-9.19922 c -0.53163,-0.53163 -1.38829,-0.53163 -1.91993,0 -0.53162,0.53163 -0.53162,1.38829 0,1.91992 l 11.46094,11.45899 c 0.0173,0.0196 0.0341,0.0398 0.0527,0.0586 l 0.002,0.002 0.002,0.002 c 0.46891,0.4689 1.19031,0.52232 1.71875,0.16406 l 0.002,-0.002 c 0.0694,-0.0474 0.1356,-0.10044 0.19726,-0.1621 l 11.51563,-11.51563 c 0.53163,-0.53163 0.53162,-1.38829 0,-1.91992 -0.53163,-0.53163 -1.38829,-0.53163 -1.91993,0 l -9.19921,9.19922 V 88.089844 c 0,-0.751833 -0.60364,-1.357422 -1.35547,-1.357422 z"
       transform="translate(220)" />
    <path
       id="path158"
       style="fill:url(#linearGradient159);fill-opacity:1"
       d="m -191.83984,33.427734 -6.30078,6.300782 V 71.126953 L -191.00977,64 h 40 l 11.42969,-11.427734 h 90.599611 l 7.128907,7.126953 v -8.541016 l -6.298829,-6.300781 H -150.42578 v -5.128906 l -6.29883,-6.300782 z m 0.82812,2 h 33.45703 l 5.12891,5.128907 v 6.300781 h 103.445311 l 5.128907,5.128906 v 2.884766 l -4.298829,-4.298828 H -140.4082 L -151.83789,62 h -40 l -4.30273,4.300781 V 40.556641 Z M -140.41016,62.570312 -151.83984,74 h -40 l -6.30078,6.298828 -0.002,75.115232 6.30078,6.29883 h 143.687503 l 6.300781,-6.29883 V 68.871094 l -6.300781,-6.300782 z m 0.82813,2 h 90.599608 l 5.128906,5.128907 v 84.884761 l -5.128906,5.12891 H -191.01367 l -5.12891,-5.12891 0.002,-73.455074 L -191.01172,76 h 40 z m 1.94141,22.16211 c -3.0074,0 -5.42774,2.422287 -5.42774,5.429687 v 46.140621 c 0,3.0074 2.42034,5.42969 5.42774,5.42969 h 35.28515 c 3.007401,0 5.429689,-2.42229 5.429689,-5.42969 V 92.162109 c 0,-3.0074 -2.422288,-5.429687 -5.429689,-5.429687 h -8.14258 a 1.3571,1.3571 0 0 0 -1.35156,1.357422 1.3571,1.3571 0 0 0 1.35156,1.357422 1.3571,1.3571 0 0 0 0.006,0 h 8.13672 c 1.5037,0 2.714845,1.211243 2.714845,2.714843 v 46.140621 c 0,1.5037 -1.211245,2.71485 -2.714845,2.71485 h -35.28515 c -1.50371,0 -2.71485,-1.21125 -2.71485,-2.71485 V 92.162109 c 0,-1.5037 1.21124,-2.714843 2.71485,-2.714843 h 10.85156 a 1.3571,1.3571 0 0 0 0.006,0 1.3571,1.3571 0 0 0 1.35156,-1.357422 1.3571,1.3571 0 0 0 -1.35156,-1.357422 h -0.006 z m 17.63867,0 c -0.75183,0 -1.35743,0.605589 -1.35743,1.357422 v 40.146486 l -9.19921,-9.19922 c -0.53163,-0.53163 -1.38829,-0.53163 -1.91993,0 -0.53162,0.53163 -0.53162,1.38829 0,1.91992 l 11.46094,11.45899 c 0.0173,0.0196 0.0341,0.0398 0.0527,0.0586 l 0.002,0.002 0.002,0.002 c 0.46891,0.4689 1.19031,0.52232 1.71875,0.16406 l 0.002,-0.002 c 0.0694,-0.0474 0.1356,-0.10044 0.19726,-0.1621 l 11.51563,-11.51563 c 0.53163,-0.53163 0.53162,-1.38829 0,-1.91992 -0.53163,-0.53163 -1.38829,-0.53163 -1.91993,0 l -9.19921,9.19922 V 88.089844 c 0,-0.751833 -0.60364,-1.357422 -1.35547,-1.357422 z"
       transform="translate(220)" />
  </g>
</svg>
