<?xml version="1.0" encoding="UTF-8" standalone="no"?>
<svg
   width="167.13663"
   height="139.13072"
   version="1.1"
   id="svg14"
   xmlns:xlink="http://www.w3.org/1999/xlink"
   xmlns="http://www.w3.org/2000/svg"
   xmlns:svg="http://www.w3.org/2000/svg"
   xmlns:rdf="http://www.w3.org/1999/02/22-rdf-syntax-ns#"
   xmlns:cc="http://creativecommons.org/ns#"
   xmlns:dc="http://purl.org/dc/elements/1.1/">
  <metadata
     id="metadata1">
    <rdf:RDF>
      <cc:Work
         rdf:about="">
        <dc:format>image/svg+xml</dc:format>
        <dc:type
           rdf:resource="http://purl.org/dc/dcmitype/StillImage" />
        <dc:title />
      </cc:Work>
    </rdf:RDF>
  </metadata>
  <defs
     id="defs7">
    <linearGradient
       id="linearGradient2">
      <stop
         style="stop-color:#00abff;stop-opacity:0;"
         offset="0"
         id="stop3" />
      <stop
         style="stop-color:#00abff;stop-opacity:1;"
         offset="1"
         id="stop2" />
    </linearGradient>
    <style
       type="text/css"
       id="style1" />
    <style
       id="current-color-scheme"
       type="text/css">.ColorScheme-Text {
        color:#4d4d4d;
      }</style>
    <style
       type="text/css"
       id="style2">.ColorScheme-Text {
        color:#4d4d4d;
      }</style>
    <style
       type="text/css"
       id="style3" />
    <linearGradient
       xlink:href="#linearGradient2"
       id="linearGradient3"
       x1="99.876167"
       y1="171.36412"
       x2="99.876167"
       y2="92.288826"
       gradientUnits="userSpaceOnUse" />
    <filter
       style="color-interpolation-filters:sRGB"
       id="filter3"
       x="-0.024626484"
       y="-0.029879835"
       width="1.049253"
       height="1.0597597">
      <feGaussianBlur
         stdDeviation="1.6344912"
         id="feGaussianBlur3" />
    </filter>
  </defs>
  <g
     id="g3"
     transform="translate(1.5810288,1.5809818)">
    <path
       id="path1"
       style="display:inline;opacity:0.6;fill:#00abff;fill-opacity:1;paint-order:stroke fill markers;filter:url(#filter3)"
       d="m 27.535571,31.927752 -7.177734,7.179687 v 35.638672 l 9.251953,-9.246094 h 40 L 81.037525,54.072283 H 170.3969 l 9.25,9.248047 V 50.537127 l -7.17969,-7.179688 H 71.072681 v -4.25 l -7.179688,-7.179687 z m 2.072266,5 h 32.214844 l 4.25,4.25 v 7.179687 H 170.3969 l 0.71484,0.714844 H 78.967212 L 67.539478,60.500017 h -40 l -2.181641,2.181641 V 41.177752 Z M 78.965259,61.07033 67.535571,72.500017 h -40 l -7.177734,7.177735 -0.002,76.357418 7.177734,7.17774 H 172.46526 l 7.17969,-7.17774 V 68.250017 l -7.17969,-7.179687 z m 2.070312,5 h 89.359379 l 4.25,4.25 v 83.64258 l -4.25,4.25 H 29.605884 l -4.25,-4.25 0.002,-72.212893 4.25,-4.25 h 40 z m 38.728519,17.835937 c -0.35304,-0.01751 -0.71194,0.01037 -1.06641,0.08594 l -26.658202,5.527344 h -0.002 c -2.300015,0.48095 -3.763672,2.684506 -3.763672,5.068359 v 28.34765 c -1.04736,-0.48918 -2.183906,-0.79101 -3.390625,-0.79101 -5.121525,0 -9.054688,4.79245 -9.054688,10.37891 0,5.58641 3.933557,10.37695 9.054688,10.37695 5.121031,0 9.05664,-4.79003 9.05664,-10.37695 v -26.71094 l 24.556639,-5.0918 v 15.94336 c -1.04737,-0.48918 -2.18388,-0.79102 -3.39063,-0.79102 -5.12152,0 -9.05468,4.79247 -9.05468,10.37891 0,5.58651 3.9331,10.37891 9.05468,10.37891 5.1215,0 9.05664,-4.79198 9.05664,-10.37891 V 89.056658 c 0,-1.453695 -0.53181,-2.856648 -1.55859,-3.867187 l -0.002,-0.002 c -0.76808,-0.759163 -1.77587,-1.228549 -2.83789,-1.28125 z m -1.27344,6.369141 v 4.205078 l -24.550782,5.087891 v -4.201172 z m -3.38477,31.730472 c 1.7405,0 3.39063,1.77119 3.39063,4.24804 0,2.47699 -1.64923,4.2461 -3.39063,4.2461 -1.74154,0 -3.39062,-1.76907 -3.39062,-4.2461 0,-2.47685 1.65012,-4.24804 3.39062,-4.24804 z m -30.222652,6.26562 c 1.741359,0 3.390625,1.76922 3.390625,4.2461 0,2.47684 -1.649398,4.24609 -3.390625,4.24609 -1.741362,0 -3.390625,-1.76922 -3.390625,-4.24609 0,-2.477 1.64923,-4.2461 3.390625,-4.2461 z"
       transform="translate(-18.014087,-29.585955)" />
    <path
       id="path2"
       style="fill:url(#linearGradient3);fill-opacity:1;paint-order:stroke fill markers"
       d="m 27.535571,31.927752 -7.177734,7.179687 v 35.638672 l 9.251953,-9.246094 h 40 L 81.037525,54.072283 H 170.3969 l 9.25,9.248047 V 50.537127 l -7.17969,-7.179688 H 71.072681 v -4.25 l -7.179688,-7.179687 z m 2.072266,5 h 32.214844 l 4.25,4.25 v 7.179687 H 170.3969 l 0.71484,0.714844 H 78.967212 L 67.539478,60.500017 h -40 l -2.181641,2.181641 V 41.177752 Z M 78.965259,61.07033 67.535571,72.500017 h -40 l -7.177734,7.177735 -0.002,76.357418 7.177734,7.17774 H 172.46526 l 7.17969,-7.17774 V 68.250017 l -7.17969,-7.179687 z m 2.070312,5 h 89.359379 l 4.25,4.25 v 83.64258 l -4.25,4.25 H 29.605884 l -4.25,-4.25 0.002,-72.212893 4.25,-4.25 h 40 z m 38.728519,17.835937 c -0.35304,-0.01751 -0.71194,0.01037 -1.06641,0.08594 l -26.658202,5.527344 h -0.002 c -2.300015,0.48095 -3.763672,2.684506 -3.763672,5.068359 v 28.34765 c -1.04736,-0.48918 -2.183906,-0.79101 -3.390625,-0.79101 -5.121525,0 -9.054688,4.79245 -9.054688,10.37891 0,5.58641 3.933557,10.37695 9.054688,10.37695 5.121031,0 9.05664,-4.79003 9.05664,-10.37695 v -26.71094 l 24.556639,-5.0918 v 15.94336 c -1.04737,-0.48918 -2.18388,-0.79102 -3.39063,-0.79102 -5.12152,0 -9.05468,4.79247 -9.05468,10.37891 0,5.58651 3.9331,10.37891 9.05468,10.37891 5.1215,0 9.05664,-4.79198 9.05664,-10.37891 V 89.056658 c 0,-1.453695 -0.53181,-2.856648 -1.55859,-3.867187 l -0.002,-0.002 c -0.76808,-0.759163 -1.77587,-1.228549 -2.83789,-1.28125 z m -1.27344,6.369141 v 4.205078 l -24.550782,5.087891 v -4.201172 z m -3.38477,31.730472 c 1.7405,0 3.39063,1.77119 3.39063,4.24804 0,2.47699 -1.64923,4.2461 -3.39063,4.2461 -1.74154,0 -3.39062,-1.76907 -3.39062,-4.2461 0,-2.47685 1.65012,-4.24804 3.39062,-4.24804 z m -30.222652,6.26562 c 1.741359,0 3.390625,1.76922 3.390625,4.2461 0,2.47684 -1.649398,4.24609 -3.390625,4.24609 -1.741362,0 -3.390625,-1.76922 -3.390625,-4.24609 0,-2.477 1.64923,-4.2461 3.390625,-4.2461 z"
       transform="translate(-18.014087,-29.585955)" />
  </g>
</svg>
