<?xml version="1.0" encoding="UTF-8" standalone="no"?>
<svg
   width="167.13663"
   height="139.13072"
   version="1.1"
   id="svg26"
   xmlns:xlink="http://www.w3.org/1999/xlink"
   xmlns="http://www.w3.org/2000/svg"
   xmlns:svg="http://www.w3.org/2000/svg"
   xmlns:rdf="http://www.w3.org/1999/02/22-rdf-syntax-ns#"
   xmlns:cc="http://creativecommons.org/ns#"
   xmlns:dc="http://purl.org/dc/elements/1.1/">
  <metadata
     id="metadata1">
    <rdf:RDF>
      <cc:Work
         rdf:about="">
        <dc:format>image/svg+xml</dc:format>
        <dc:type
           rdf:resource="http://purl.org/dc/dcmitype/StillImage" />
        <dc:title />
      </cc:Work>
    </rdf:RDF>
  </metadata>
  <defs
     id="defs5">
    <linearGradient
       id="linearGradient2">
      <stop
         style="stop-color:#00abff;stop-opacity:0;"
         offset="0"
         id="stop3" />
      <stop
         style="stop-color:#00abff;stop-opacity:1;"
         offset="1"
         id="stop2" />
    </linearGradient>
    <style
       id="current-color-scheme"
       type="text/css">.ColorScheme-Text {
        color:#4d4d4d;
      }</style>
    <style
       type="text/css"
       id="style1">.ColorScheme-Text {
        color:#4d4d4d;
      }</style>
    <linearGradient
       xlink:href="#linearGradient2"
       id="linearGradient3"
       x1="-93.032219"
       y1="171.71246"
       x2="-93.032219"
       y2="79.748253"
       gradientUnits="userSpaceOnUse" />
    <filter
       style="color-interpolation-filters:sRGB"
       id="filter3"
       x="-0.024626484"
       y="-0.029879835"
       width="1.049253"
       height="1.0597597">
      <feGaussianBlur
         stdDeviation="1.6344912"
         id="feGaussianBlur3" />
    </filter>
  </defs>
  <g
     id="g3"
     transform="translate(1.5810289,1.5809818)">
    <path
       id="path1"
       d="m -167.46096,31.927752 -7.17969,7.179687 v 35.638672 l 9.25195,-9.246094 h 40 l 11.42969,-11.427734 h 89.357424 l 9.25,9.248047 V 50.537127 l -7.177735,-7.179688 H -123.92581 v -4.25 l -7.17773,-7.179687 z m 2.07031,5 h 32.21484 l 4.25,4.25 v 7.179687 h 104.324224 l 0.714843,0.714844 h -92.142577 l -11.42969,11.427734 h -40 l -2.18164,2.181641 V 41.177752 Z m 49.35938,24.142578 -11.42969,11.429687 h -40 l -7.17969,7.177735 -0.002,76.357418 7.17969,7.17774 h 144.929683 l 7.179687,-7.17774 V 68.250017 l -7.179687,-7.179687 z m 2.07031,5 h 89.35742 l 4.25,4.25 v 83.64258 l -4.25,4.25 H -165.3926 l -4.25,-4.25 0.002,-72.212893 4.25,-4.25 h 40 z m 18.958983,17.382812 c -14.301393,7.03e-4 -25.927023,11.626335 -25.927733,25.927738 -4.4e-4,14.3022 11.62553,25.92897 25.927733,25.92968 h 0.0039 0.002 c 4.065147,-0.0177 8.006212,-1.13123 11.615235,-2.97265 l 6.335937,9.80664 c 0.845622,1.30903 2.644222,1.69193 3.951172,0.84766 1.30718,-0.84443 1.691163,-2.64345 0.847656,-3.94922 l -6.345703,-9.82813 c 5.926023,-4.89032 9.495472,-12.09747 9.519531,-19.83008 v -0.002 -0.002 C -69.073034,95.078763 -80.699774,83.452702 -95.001977,83.453142 Z m 0,5.714844 c 11.181444,-1.21e-4 20.213958,9.031446 20.214844,20.212894 1.18e-4,11.18216 -9.032686,20.21496 -20.214844,20.21484 -11.182153,1.3e-4 -20.214963,-9.03268 -20.214843,-20.21484 8.9e-4,-11.181449 9.0334,-20.213016 20.214843,-20.212894 z"
       transform="translate(176.9844,-29.585955)"
       style="display:inline;opacity:0.6;fill:#00abff;fill-opacity:1;filter:url(#filter3)" />
    <path
       id="path2"
       d="m -167.46096,31.927752 -7.17969,7.179687 v 35.638672 l 9.25195,-9.246094 h 40 l 11.42969,-11.427734 h 89.357424 l 9.25,9.248047 V 50.537127 l -7.177735,-7.179688 H -123.92581 v -4.25 l -7.17773,-7.179687 z m 2.07031,5 h 32.21484 l 4.25,4.25 v 7.179687 h 104.324224 l 0.714843,0.714844 h -92.142577 l -11.42969,11.427734 h -40 l -2.18164,2.181641 V 41.177752 Z m 49.35938,24.142578 -11.42969,11.429687 h -40 l -7.17969,7.177735 -0.002,76.357418 7.17969,7.17774 h 144.929683 l 7.179687,-7.17774 V 68.250017 l -7.179687,-7.179687 z m 2.07031,5 h 89.35742 l 4.25,4.25 v 83.64258 l -4.25,4.25 H -165.3926 l -4.25,-4.25 0.002,-72.212893 4.25,-4.25 h 40 z m 18.958983,17.382812 c -14.301393,7.03e-4 -25.927023,11.626335 -25.927733,25.927738 -4.4e-4,14.3022 11.62553,25.92897 25.927733,25.92968 h 0.0039 0.002 c 4.065147,-0.0177 8.006212,-1.13123 11.615235,-2.97265 l 6.335937,9.80664 c 0.845622,1.30903 2.644222,1.69193 3.951172,0.84766 1.30718,-0.84443 1.691163,-2.64345 0.847656,-3.94922 l -6.345703,-9.82813 c 5.926023,-4.89032 9.495472,-12.09747 9.519531,-19.83008 v -0.002 -0.002 C -69.073034,95.078763 -80.699774,83.452702 -95.001977,83.453142 Z m 0,5.714844 c 11.181444,-1.21e-4 20.213958,9.031446 20.214844,20.212894 1.18e-4,11.18216 -9.032686,20.21496 -20.214844,20.21484 -11.182153,1.3e-4 -20.214963,-9.03268 -20.214843,-20.21484 8.9e-4,-11.181449 9.0334,-20.213016 20.214843,-20.212894 z"
       transform="translate(176.9844,-29.585955)"
       style="fill:url(#linearGradient3);fill-opacity:1" />
  </g>
</svg>
