<?xml version="1.0" encoding="UTF-8" standalone="no"?>
<svg
   width="163.97461"
   height="135.96872"
   version="1.1"
   id="svg14"
   xmlns:xlink="http://www.w3.org/1999/xlink"
   xmlns="http://www.w3.org/2000/svg"
   xmlns:svg="http://www.w3.org/2000/svg"
   xmlns:rdf="http://www.w3.org/1999/02/22-rdf-syntax-ns#"
   xmlns:cc="http://creativecommons.org/ns#"
   xmlns:dc="http://purl.org/dc/elements/1.1/">
  <metadata
     id="metadata1">
    <rdf:RDF>
      <cc:Work
         rdf:about="">
        <dc:format>image/svg+xml</dc:format>
        <dc:type
           rdf:resource="http://purl.org/dc/dcmitype/StillImage" />
        <dc:title />
      </cc:Work>
    </rdf:RDF>
  </metadata>
  <defs
     id="defs7">
    <linearGradient
       id="linearGradient14">
      <stop
         style="stop-color:#00abff;stop-opacity:0;"
         offset="0"
         id="stop15" />
      <stop
         style="stop-color:#00abff;stop-opacity:1;"
         offset="1"
         id="stop14" />
    </linearGradient>
    <style
       type="text/css"
       id="style1" />
    <style
       id="current-color-scheme"
       type="text/css">.ColorScheme-Text {
        color:#4d4d4d;
      }</style>
    <style
       type="text/css"
       id="style2">.ColorScheme-Text {
        color:#4d4d4d;
      }</style>
    <style
       type="text/css"
       id="style3" />
    <linearGradient
       xlink:href="#linearGradient14"
       id="linearGradient15"
       x1="98.18885"
       y1="200"
       x2="98.18885"
       y2="89.492752"
       gradientUnits="userSpaceOnUse" />
    <filter
       style="color-interpolation-filters:sRGB"
       id="filter15"
       x="-0.024580924"
       y="-0.029947181"
       width="1.0491618"
       height="1.0598944">
      <feGaussianBlur
         stdDeviation="1.6007412"
         id="feGaussianBlur15" />
    </filter>
  </defs>
  <g
     transform="translate(-18.014087,-29.585955)"
     id="g9">
    <path
       id="path7"
       style="display:inline;opacity:0.6;fill:#00abff;fill-opacity:1;paint-order:stroke fill markers;filter:url(#filter15)"
       d="m 28.156694,33.427734 -6.298828,6.300782 V 71.126953 L 28.988726,64 h 40 L 80.41646,52.572266 h 90.60156 l 7.12891,7.126953 v -8.541016 l -6.30078,-6.300781 H 69.57271 v -5.128906 l -6.300781,-6.300782 z m 0.830079,2 h 33.457031 l 5.128906,5.128907 v 6.300781 h 103.44531 l 5.12891,5.128906 v 2.884766 l -4.30078,-4.298828 H 79.588335 L 68.160601,62 h -40 l -4.302735,4.300781 V 40.556641 Z M 79.586382,62.570312 68.156694,74 h -40 l -6.298828,6.298828 -0.002,75.115232 6.298828,6.29883 H 171.84419 l 6.30079,-6.29883 V 68.871094 l -6.30079,-6.300782 z m 0.828125,2 h 90.601563 l 5.12891,5.128907 v 84.884761 l -5.12891,5.12891 H 28.984819 l -5.128906,-5.12891 0.002,-73.455074 L 28.986773,76 h 40 z M 119.6899,85.404297 c -0.22536,-0.01118 -0.45316,0.0064 -0.67969,0.05469 l -26.666016,5.529297 c -1.4889,0.31134 -2.570312,1.82521 -2.570312,3.59961 v 31.179686 c -1.3194,-1.32 -3.025625,-2.12305 -4.890625,-2.12305 -4.1646,0 -7.554688,3.98521 -7.554688,8.87891 0,4.8937 3.389988,8.87695 7.554688,8.87695 4.1646,0 7.556641,-3.98315 7.556641,-8.87695 V 104.5918 l 27.556642,-5.714847 v 20.619137 c -1.3193,-1.32 -3.02553,-2.12304 -4.89063,-2.12304 -4.1646,0 -7.55468,3.9852 -7.55468,8.8789 0,4.8938 3.38998,8.87891 7.55468,8.87891 4.1646,0 7.55664,-3.98511 7.55664,-8.87891 V 89.056641 c 0,-1.0834 -0.40319,-2.103482 -1.11328,-2.800782 -0.52854,-0.52302 -1.18327,-0.818012 -1.85937,-0.851562 z m -0.0937,3.132812 c 0.11327,0.01461 0.19255,0.07664 0.23633,0.123047 0.0584,0.05644 0.1582,0.186678 0.1582,0.398438 v 6.642578 l -27.550782,5.710938 v -6.824219 c 0,-0.2553 0.153374,-0.474039 0.365234,-0.517579 L 119.4712,88.541016 c 0.045,-0.0078 0.0872,-0.0088 0.125,-0.0039 z m -4.49024,31.968751 c 2.6968,0 4.89063,2.57895 4.89063,5.74805 0,3.1692 -2.19373,5.74609 -4.89063,5.74609 -2.697,0 -4.89062,-2.57689 -4.89062,-5.74609 0,-3.1691 2.19382,-5.74805 4.89062,-5.74805 z m -30.222653,6.26562 c 2.6969,0 4.890625,2.577 4.890625,5.7461 0,3.1691 -2.193825,5.74609 -4.890625,5.74609 -2.6969,0 -4.890625,-2.57699 -4.890625,-5.74609 0,-3.1692 2.193725,-5.7461 4.890625,-5.7461 z" />
    <path
       id="path14"
       style="fill:url(#linearGradient15);fill-opacity:1;paint-order:stroke fill markers"
       d="m 28.156694,33.427734 -6.298828,6.300782 V 71.126953 L 28.988726,64 h 40 L 80.41646,52.572266 h 90.60156 l 7.12891,7.126953 v -8.541016 l -6.30078,-6.300781 H 69.57271 v -5.128906 l -6.300781,-6.300782 z m 0.830079,2 h 33.457031 l 5.128906,5.128907 v 6.300781 h 103.44531 l 5.12891,5.128906 v 2.884766 l -4.30078,-4.298828 H 79.588335 L 68.160601,62 h -40 l -4.302735,4.300781 V 40.556641 Z M 79.586382,62.570312 68.156694,74 h -40 l -6.298828,6.298828 -0.002,75.115232 6.298828,6.29883 H 171.84419 l 6.30079,-6.29883 V 68.871094 l -6.30079,-6.300782 z m 0.828125,2 h 90.601563 l 5.12891,5.128907 v 84.884761 l -5.12891,5.12891 H 28.984819 l -5.128906,-5.12891 0.002,-73.455074 L 28.986773,76 h 40 z M 119.6899,85.404297 c -0.22536,-0.01118 -0.45316,0.0064 -0.67969,0.05469 l -26.666016,5.529297 c -1.4889,0.31134 -2.570312,1.82521 -2.570312,3.59961 v 31.179686 c -1.3194,-1.32 -3.025625,-2.12305 -4.890625,-2.12305 -4.1646,0 -7.554688,3.98521 -7.554688,8.87891 0,4.8937 3.389988,8.87695 7.554688,8.87695 4.1646,0 7.556641,-3.98315 7.556641,-8.87695 V 104.5918 l 27.556642,-5.714847 v 20.619137 c -1.3193,-1.32 -3.02553,-2.12304 -4.89063,-2.12304 -4.1646,0 -7.55468,3.9852 -7.55468,8.8789 0,4.8938 3.38998,8.87891 7.55468,8.87891 4.1646,0 7.55664,-3.98511 7.55664,-8.87891 V 89.056641 c 0,-1.0834 -0.40319,-2.103482 -1.11328,-2.800782 -0.52854,-0.52302 -1.18327,-0.818012 -1.85937,-0.851562 z m -0.0937,3.132812 c 0.11327,0.01461 0.19255,0.07664 0.23633,0.123047 0.0584,0.05644 0.1582,0.186678 0.1582,0.398438 v 6.642578 l -27.550782,5.710938 v -6.824219 c 0,-0.2553 0.153374,-0.474039 0.365234,-0.517579 L 119.4712,88.541016 c 0.045,-0.0078 0.0872,-0.0088 0.125,-0.0039 z m -4.49024,31.968751 c 2.6968,0 4.89063,2.57895 4.89063,5.74805 0,3.1692 -2.19373,5.74609 -4.89063,5.74609 -2.697,0 -4.89062,-2.57689 -4.89062,-5.74609 0,-3.1691 2.19382,-5.74805 4.89062,-5.74805 z m -30.222653,6.26562 c 2.6969,0 4.890625,2.577 4.890625,5.7461 0,3.1691 -2.193825,5.74609 -4.890625,5.74609 -2.6969,0 -4.890625,-2.57699 -4.890625,-5.74609 0,-3.1692 2.193725,-5.7461 4.890625,-5.7461 z" />
  </g>
</svg>
