<?xml version="1.0" encoding="UTF-8" standalone="no"?>
<svg
   width="167.13661"
   height="139.13072"
   version="1.1"
   id="svg7"
   xmlns:xlink="http://www.w3.org/1999/xlink"
   xmlns="http://www.w3.org/2000/svg"
   xmlns:svg="http://www.w3.org/2000/svg"
   xmlns:rdf="http://www.w3.org/1999/02/22-rdf-syntax-ns#"
   xmlns:cc="http://creativecommons.org/ns#"
   xmlns:dc="http://purl.org/dc/elements/1.1/">
  <metadata
     id="metadata1">
    <rdf:RDF>
      <cc:Work
         rdf:about="">
        <dc:format>image/svg+xml</dc:format>
        <dc:type
           rdf:resource="http://purl.org/dc/dcmitype/StillImage" />
        <dc:title />
      </cc:Work>
    </rdf:RDF>
  </metadata>
  <defs
     id="defs5">
    <linearGradient
       id="linearGradient1">
      <stop
         style="stop-color:#00abff;stop-opacity:0;"
         offset="0"
         id="stop2" />
      <stop
         style="stop-color:#00abff;stop-opacity:1;"
         offset="1"
         id="stop1" />
    </linearGradient>
    <style
       id="current-color-scheme"
       type="text/css">.ColorScheme-Text {
        color:#4d4d4d;
      }</style>
    <style
       type="text/css"
       id="style1">.ColorScheme-Text {
        color:#4d4d4d;
      }</style>
    <linearGradient
       xlink:href="#linearGradient1"
       id="linearGradient2"
       x1="-124.42562"
       y1="174.49925"
       x2="-124.42562"
       y2="92.985527"
       gradientUnits="userSpaceOnUse" />
    <filter
       style="color-interpolation-filters:sRGB"
       id="filter2"
       x="-0.024626485"
       y="-0.029879836"
       width="1.049253"
       height="1.0597597">
      <feGaussianBlur
         stdDeviation="1.6344912"
         id="feGaussianBlur2" />
    </filter>
  </defs>
  <g
     transform="translate(208.5654,-28.004955)"
     fill="none"
     stroke="#059bff"
     stroke-width="2"
     id="g6">
    <path
       style="display:inline;opacity:0.6;fill:#00abff;stroke:none;filter:url(#filter2)"
       d="m -197.46094,31.927734 -7.17968,7.179688 V 74.75 l 9.25195,-9.25 h 40 l 11.42969,-11.427734 h 89.359371 l 9.248047,9.248046 V 50.537109 l -7.177735,-7.179687 H -153.92578 v -4.25 l -7.17969,-7.179688 z m 2.07032,5 h 32.21484 l 4.25,4.25 v 7.179688 h 104.326171 l 0.714843,0.714844 H -146.0293 L -157.45898,60.5 h -40 l -2.18164,2.181641 V 41.177734 Z M -146.03125,61.070312 -157.46094,72.5 h -40 l -7.17968,7.179687 -0.002,76.353513 7.17969,7.17969 h 144.929687 l 7.179687,-7.17969 V 68.25 l -7.179687,-7.179688 z m 2.07031,5 h 89.357424 l 4.25,4.25 v 83.642578 l -4.25,4.25 H -195.39258 l -4.25,-4.25 0.002,-72.21289 4.25,-4.25 h 40 z"
       id="path5" />
    <path
       style="fill:url(#linearGradient2);fill-opacity:1;stroke:none"
       d="m -197.46094,31.927734 -7.17968,7.179688 V 74.75 l 9.25195,-9.25 h 40 l 11.42969,-11.427734 h 89.359371 l 9.248047,9.248046 V 50.537109 l -7.177735,-7.179687 H -153.92578 v -4.25 l -7.17969,-7.179688 z m 2.07032,5 h 32.21484 l 4.25,4.25 v 7.179688 h 104.326171 l 0.714843,0.714844 H -146.0293 L -157.45898,60.5 h -40 l -2.18164,2.181641 V 41.177734 Z M -146.03125,61.070312 -157.46094,72.5 h -40 l -7.17968,7.179687 -0.002,76.353513 7.17969,7.17969 h 144.929687 l 7.179687,-7.17969 V 68.25 l -7.179687,-7.179688 z m 2.07031,5 h 89.357424 l 4.25,4.25 v 83.642578 l -4.25,4.25 H -195.39258 l -4.25,-4.25 0.002,-72.21289 4.25,-4.25 h 40 z"
       id="path1" />
  </g>
</svg>
