<?xml version="1.0" encoding="UTF-8" standalone="no"?>
<svg
   width="167.13663"
   height="139.13072"
   version="1.1"
   id="svg37"
   xmlns:xlink="http://www.w3.org/1999/xlink"
   xmlns="http://www.w3.org/2000/svg"
   xmlns:svg="http://www.w3.org/2000/svg"
   xmlns:rdf="http://www.w3.org/1999/02/22-rdf-syntax-ns#"
   xmlns:cc="http://creativecommons.org/ns#"
   xmlns:dc="http://purl.org/dc/elements/1.1/">
  <metadata
     id="metadata1">
    <rdf:RDF>
      <cc:Work
         rdf:about="">
        <dc:format>image/svg+xml</dc:format>
        <dc:type
           rdf:resource="http://purl.org/dc/dcmitype/StillImage" />
        <dc:title />
      </cc:Work>
    </rdf:RDF>
  </metadata>
  <defs
     id="defs10">
    <linearGradient
       id="linearGradient2">
      <stop
         style="stop-color:#00abff;stop-opacity:0;"
         offset="0"
         id="stop3" />
      <stop
         style="stop-color:#00abff;stop-opacity:1;"
         offset="1"
         id="stop2" />
    </linearGradient>
    <style
       type="text/css"
       id="style1" />
    <style
       type="text/css"
       id="style2" />
    <style
       type="text/css"
       id="style3" />
    <style
       id="current-color-scheme"
       type="text/css">.ColorScheme-Text {
        color:#4d4d4d;
      }</style>
    <style
       type="text/css"
       id="style4">.ColorScheme-Text {
        color:#4d4d4d;
      }</style>
    <style
       type="text/css"
       id="style5" />
    <style
       type="text/css"
       id="style6" />
    <linearGradient
       xlink:href="#linearGradient2"
       id="linearGradient3"
       x1="-109.77397"
       y1="173.10587"
       x2="-109.77397"
       y2="82.535049"
       gradientUnits="userSpaceOnUse" />
    <filter
       style="color-interpolation-filters:sRGB"
       id="filter3"
       x="-0.024626484"
       y="-0.029879835"
       width="1.049253"
       height="1.0597597">
      <feGaussianBlur
         stdDeviation="1.6344912"
         id="feGaussianBlur3" />
    </filter>
  </defs>
  <g
     id="g3"
     transform="translate(1.5810289,1.5809818)">
    <path
       id="path1"
       d="m -182.46096,31.927752 -7.17969,7.179687 v 35.638672 l 9.25195,-9.246094 h 40 l 11.42969,-11.427734 h 89.357424 l 9.25,9.248047 V 50.537127 l -7.177735,-7.179688 H -138.92581 v -4.25 l -7.17773,-7.179687 z m 2.07031,5 h 32.21484 l 4.25,4.25 v 7.179687 h 104.324224 l 0.714843,0.714844 h -92.142577 l -11.42969,11.427734 h -40 l -2.18164,2.181641 V 41.177752 Z m 49.35938,24.142578 -11.42969,11.429687 h -40 l -7.17969,7.177735 -0.002,76.357418 7.17969,7.17774 h 144.929683 l 7.179687,-7.17774 V 68.250017 l -7.179687,-7.179687 z m 2.07031,5 h 89.35742 l 4.25,4.25 v 83.64258 l -4.25,4.25 H -180.3926 l -4.25,-4.25 0.002,-72.212893 4.25,-4.25 h 40 z m 18.14453,16.478516 c -0.43976,0 -0.88459,0.100479 -1.29297,0.304687 l -24.61719,12.308594 c -1.14607,0.573036 -1.65983,1.800161 -1.52734,2.941406 -0.0294,0.154287 -0.0742,0.284958 -0.0742,0.46875 V 124.8301 c 0,1.01383 0.53434,1.95785 1.40234,2.48046 l 24.58985,14.80469 0.008,0.006 0.01,0.006 0.006,0.004 0.004,0.002 c 0.16672,0.10134 0.21238,0.11508 0.11914,0.0644 h 0.002 l 0.002,0.002 c 0.0237,0.0127 0.0502,0.0173 0.0742,0.0293 0.14398,0.0722 0.29192,0.13931 0.4414,0.18555 0.003,9e-4 0.003,-8.6e-4 0.006,0 l 0.002,0.002 c 0.13321,0.0408 0.19847,0.0523 0.17578,0.0469 h 0.004 l 0.004,0.002 c 0.14275,0.0337 0.28747,0.0548 0.43164,0.0664 4.5e-4,4e-5 0.003,-4e-5 0.004,0 0.0443,0.004 0.1706,0.0215 0.37304,0.0117 h 0.002 c -0.15242,0.008 -0.14764,0.009 0.0137,0 0.35649,-0.0195 0.70717,-0.10806 1.0293,-0.25391 l 0.0156,-0.008 0.0137,-0.006 c -0.002,0.001 0.0127,-0.007 0.043,-0.0215 h 0.002 c -0.056,0.0273 0.006,0.007 0.16016,-0.0801 l 26.257814,-14.82227 c 0.907584,-0.51229 1.4707,-1.48022 1.470703,-2.52148 V 106.7775 c 0,-1.58054 -1.313981,-2.89453 -2.894532,-2.89453 -1.580551,0 -2.894531,1.31399 -2.894531,2.89453 v 16.36328 l -20.468754,11.55469 v -21.30469 l 23.150395,-13.12109 c 1.942426,-1.10072 1.863688,-4.109169 -0.132813,-5.107423 L -109.52346,82.853533 c -0.40833,-0.204169 -0.85323,-0.304687 -1.29297,-0.304687 z m 0,6.130859 18.464844,9.232422 -18.464844,10.462893 -18.46484,-10.462893 z m -21.72266,14.039065 18.82813,10.67187 v 21.13867 l -18.82813,-11.33593 z m 3.79688,2.80859 c -1.02663,-0.044 -2.04932,0.46894 -2.60938,1.40234 -0.81357,1.35592 -0.36179,3.15911 0.99414,3.97266 l 8.20508,4.92383 c 1.3559,0.8135 3.15912,0.36176 3.97266,-0.99414 0.81353,-1.35591 0.36174,-3.15912 -0.99414,-3.97266 l -8.20508,-4.92383 c -0.42408,-0.25446 -0.89827,-0.38829 -1.36328,-0.4082 z"
       transform="translate(191.9844,-29.585955)"
       style="display:inline;opacity:0.6;fill:#00abff;fill-opacity:1;filter:url(#filter3)" />
    <path
       id="path2"
       d="m -182.46096,31.927752 -7.17969,7.179687 v 35.638672 l 9.25195,-9.246094 h 40 l 11.42969,-11.427734 h 89.357424 l 9.25,9.248047 V 50.537127 l -7.177735,-7.179688 H -138.92581 v -4.25 l -7.17773,-7.179687 z m 2.07031,5 h 32.21484 l 4.25,4.25 v 7.179687 h 104.324224 l 0.714843,0.714844 h -92.142577 l -11.42969,11.427734 h -40 l -2.18164,2.181641 V 41.177752 Z m 49.35938,24.142578 -11.42969,11.429687 h -40 l -7.17969,7.177735 -0.002,76.357418 7.17969,7.17774 h 144.929683 l 7.179687,-7.17774 V 68.250017 l -7.179687,-7.179687 z m 2.07031,5 h 89.35742 l 4.25,4.25 v 83.64258 l -4.25,4.25 H -180.3926 l -4.25,-4.25 0.002,-72.212893 4.25,-4.25 h 40 z m 18.14453,16.478516 c -0.43976,0 -0.88459,0.100479 -1.29297,0.304687 l -24.61719,12.308594 c -1.14607,0.573036 -1.65983,1.800161 -1.52734,2.941406 -0.0294,0.154287 -0.0742,0.284958 -0.0742,0.46875 V 124.8301 c 0,1.01383 0.53434,1.95785 1.40234,2.48046 l 24.58985,14.80469 0.008,0.006 0.01,0.006 0.006,0.004 0.004,0.002 c 0.16672,0.10134 0.21238,0.11508 0.11914,0.0644 h 0.002 l 0.002,0.002 c 0.0237,0.0127 0.0502,0.0173 0.0742,0.0293 0.14398,0.0722 0.29192,0.13931 0.4414,0.18555 0.003,9e-4 0.003,-8.6e-4 0.006,0 l 0.002,0.002 c 0.13321,0.0408 0.19847,0.0523 0.17578,0.0469 h 0.004 l 0.004,0.002 c 0.14275,0.0337 0.28747,0.0548 0.43164,0.0664 4.5e-4,4e-5 0.003,-4e-5 0.004,0 0.0443,0.004 0.1706,0.0215 0.37304,0.0117 h 0.002 c -0.15242,0.008 -0.14764,0.009 0.0137,0 0.35649,-0.0195 0.70717,-0.10806 1.0293,-0.25391 l 0.0156,-0.008 0.0137,-0.006 c -0.002,0.001 0.0127,-0.007 0.043,-0.0215 h 0.002 c -0.056,0.0273 0.006,0.007 0.16016,-0.0801 l 26.257814,-14.82227 c 0.907584,-0.51229 1.4707,-1.48022 1.470703,-2.52148 V 106.7775 c 0,-1.58054 -1.313981,-2.89453 -2.894532,-2.89453 -1.580551,0 -2.894531,1.31399 -2.894531,2.89453 v 16.36328 l -20.468754,11.55469 v -21.30469 l 23.150395,-13.12109 c 1.942426,-1.10072 1.863688,-4.109169 -0.132813,-5.107423 L -109.52346,82.853533 c -0.40833,-0.204169 -0.85323,-0.304687 -1.29297,-0.304687 z m 0,6.130859 18.464844,9.232422 -18.464844,10.462893 -18.46484,-10.462893 z m -21.72266,14.039065 18.82813,10.67187 v 21.13867 l -18.82813,-11.33593 z m 3.79688,2.80859 c -1.02663,-0.044 -2.04932,0.46894 -2.60938,1.40234 -0.81357,1.35592 -0.36179,3.15911 0.99414,3.97266 l 8.20508,4.92383 c 1.3559,0.8135 3.15912,0.36176 3.97266,-0.99414 0.81353,-1.35591 0.36174,-3.15912 -0.99414,-3.97266 l -8.20508,-4.92383 c -0.42408,-0.25446 -0.89827,-0.38829 -1.36328,-0.4082 z"
       transform="translate(191.9844,-29.585955)"
       style="fill:url(#linearGradient3);fill-opacity:1" />
  </g>
</svg>
