<?xml version="1.0" encoding="UTF-8" standalone="no"?>
<svg
   width="163.97461"
   height="135.96872"
   version="1.1"
   id="svg21"
   xmlns:xlink="http://www.w3.org/1999/xlink"
   xmlns="http://www.w3.org/2000/svg"
   xmlns:svg="http://www.w3.org/2000/svg"
   xmlns:rdf="http://www.w3.org/1999/02/22-rdf-syntax-ns#"
   xmlns:cc="http://creativecommons.org/ns#"
   xmlns:dc="http://purl.org/dc/elements/1.1/">
  <metadata
     id="metadata1">
    <rdf:RDF>
      <cc:Work
         rdf:about="">
        <dc:format>image/svg+xml</dc:format>
        <dc:type
           rdf:resource="http://purl.org/dc/dcmitype/StillImage" />
        <dc:title />
      </cc:Work>
    </rdf:RDF>
  </metadata>
  <defs
     id="defs5">
    <linearGradient
       id="linearGradient21">
      <stop
         style="stop-color:#00abff;stop-opacity:0;"
         offset="0"
         id="stop22" />
      <stop
         style="stop-color:#00abff;stop-opacity:1;"
         offset="1"
         id="stop21" />
    </linearGradient>
    <style
       id="current-color-scheme"
       type="text/css">.ColorScheme-Text {
        color:#4d4d4d;
      }</style>
    <style
       type="text/css"
       id="style1">.ColorScheme-Text {
        color:#4d4d4d;
      }</style>
    <linearGradient
       xlink:href="#linearGradient21"
       id="linearGradient22"
       x1="-113.62319"
       y1="200"
       x2="-113.62319"
       y2="88.751953"
       gradientUnits="userSpaceOnUse" />
    <filter
       style="color-interpolation-filters:sRGB"
       id="filter22"
       x="-0.024580925"
       y="-0.029947181"
       width="1.0491618"
       height="1.0598944">
      <feGaussianBlur
         stdDeviation="1.6007412"
         id="feGaussianBlur22" />
    </filter>
  </defs>
  <g
     id="g22"
     transform="translate(-18.015601,-29.585955)">
    <path
       id="path14"
       style="display:inline;opacity:0.6;fill:#00abff;fill-opacity:1;filter:url(#filter22)"
       d="m -181.83984,33.427734 -6.30078,6.300782 V 71.126953 L -181.00977,64 h 40 l 11.42969,-11.427734 h 90.599611 l 7.128907,7.126953 v -8.541016 l -6.298829,-6.300781 H -140.42578 v -5.128906 l -6.29883,-6.300782 z m 0.82812,2 h 33.45703 l 5.12891,5.128907 v 6.300781 h 103.445311 l 5.128907,5.128906 v 2.884766 l -4.298829,-4.298828 H -130.4082 L -141.83789,62 h -40 l -4.30273,4.300781 V 40.556641 Z M -130.41016,62.570312 -141.83984,74 h -40 l -6.30078,6.298828 -0.002,75.115232 6.30078,6.29883 h 143.687503 l 6.300781,-6.29883 V 68.871094 l -6.300781,-6.300782 z m 0.82813,2 h 90.599608 l 5.128906,5.128907 v 84.884761 l -5.128906,5.12891 H -181.01367 l -5.12891,-5.12891 0.002,-73.455074 L -181.01172,76 h 40 z m -8.04102,20.931641 c -3.6009,0 -6.5,2.8992 -6.5,6.5 v 42.246097 c 0,3.6009 2.8991,6.5 6.5,6.5 h 55.246097 c 3.6009,0 6.5,-2.8991 6.5,-6.5 V 92.001953 c 0,-3.6008 -2.8991,-6.5 -6.5,-6.5 z m 0,3.25 h 55.246097 c 1.8004,0 3.25,1.4496 3.25,3.25 v 42.246097 c 0,1.8004 -1.4496,3.25 -3.25,3.25 h -55.246097 c -1.8004,0 -3.25,-1.4496 -3.25,-3.25 V 92.001953 c 0,-1.8004 1.4496,-3.25 3.25,-3.25 z m 47.115238,3.25 a 6.4997,6.4997 0 0 0 -6.498047,6.5 6.4997,6.4997 0 0 0 6.498047,6.498047 6.4997,6.4997 0 0 0 6.5,-6.498047 6.4997,6.4997 0 0 0 -6.5,-6.5 z m -0.101563,3.25 a 3.2498,3.2498 0 0 1 0.101563,0 3.2498,3.2498 0 0 1 3.25,3.25 3.2498,3.2498 0 0 1 -3.25,3.249997 3.2498,3.2498 0 0 1 -3.248047,-3.249997 3.2498,3.2498 0 0 1 3.146484,-3.25 z m -34.833985,11.367187 a 1.6251,1.6251 0 0 0 -1.27148,0.625 l -13.00391,16.24024 a 1.6249,1.6249 0 0 0 0.24023,2.27929 1.6249,1.6249 0 0 0 2.30274,-0.24023 l 11.66016,-14.60938 18.25585,24.30274 a 1.6249,1.6249 0 0 0 2.2793,0.33593 1.6249,1.6249 0 0 0 0.33594,-2.27929 l -19.50391,-26.00586 a 1.6251,1.6251 0 0 0 -1.29492,-0.64844 z m 24.27734,0.0215 a 1.6251,1.6251 0 0 0 -1.19921,0.64649 l -9.74024,12.98047 a 1.6249,1.6249 0 0 0 0.33594,2.27734 1.6249,1.6249 0 0 0 2.25586,-0.31054 l 8.53906,-11.39454 18.185548,21.20704 a 1.6249,1.6249 0 0 0 2.302734,0.1914 1.6249,1.6249 0 0 0 0.167969,-2.30273 l -19.503907,-22.74414 a 1.6251,1.6251 0 0 0 -1.343754,-0.55079 z"
       transform="translate(210)" />
    <path
       id="path21"
       style="fill:url(#linearGradient22);fill-opacity:1"
       d="m -181.83984,33.427734 -6.30078,6.300782 V 71.126953 L -181.00977,64 h 40 l 11.42969,-11.427734 h 90.599611 l 7.128907,7.126953 v -8.541016 l -6.298829,-6.300781 H -140.42578 v -5.128906 l -6.29883,-6.300782 z m 0.82812,2 h 33.45703 l 5.12891,5.128907 v 6.300781 h 103.445311 l 5.128907,5.128906 v 2.884766 l -4.298829,-4.298828 H -130.4082 L -141.83789,62 h -40 l -4.30273,4.300781 V 40.556641 Z M -130.41016,62.570312 -141.83984,74 h -40 l -6.30078,6.298828 -0.002,75.115232 6.30078,6.29883 h 143.687503 l 6.300781,-6.29883 V 68.871094 l -6.300781,-6.300782 z m 0.82813,2 h 90.599608 l 5.128906,5.128907 v 84.884761 l -5.128906,5.12891 H -181.01367 l -5.12891,-5.12891 0.002,-73.455074 L -181.01172,76 h 40 z m -8.04102,20.931641 c -3.6009,0 -6.5,2.8992 -6.5,6.5 v 42.246097 c 0,3.6009 2.8991,6.5 6.5,6.5 h 55.246097 c 3.6009,0 6.5,-2.8991 6.5,-6.5 V 92.001953 c 0,-3.6008 -2.8991,-6.5 -6.5,-6.5 z m 0,3.25 h 55.246097 c 1.8004,0 3.25,1.4496 3.25,3.25 v 42.246097 c 0,1.8004 -1.4496,3.25 -3.25,3.25 h -55.246097 c -1.8004,0 -3.25,-1.4496 -3.25,-3.25 V 92.001953 c 0,-1.8004 1.4496,-3.25 3.25,-3.25 z m 47.115238,3.25 a 6.4997,6.4997 0 0 0 -6.498047,6.5 6.4997,6.4997 0 0 0 6.498047,6.498047 6.4997,6.4997 0 0 0 6.5,-6.498047 6.4997,6.4997 0 0 0 -6.5,-6.5 z m -0.101563,3.25 a 3.2498,3.2498 0 0 1 0.101563,0 3.2498,3.2498 0 0 1 3.25,3.25 3.2498,3.2498 0 0 1 -3.25,3.249997 3.2498,3.2498 0 0 1 -3.248047,-3.249997 3.2498,3.2498 0 0 1 3.146484,-3.25 z m -34.833985,11.367187 a 1.6251,1.6251 0 0 0 -1.27148,0.625 l -13.00391,16.24024 a 1.6249,1.6249 0 0 0 0.24023,2.27929 1.6249,1.6249 0 0 0 2.30274,-0.24023 l 11.66016,-14.60938 18.25585,24.30274 a 1.6249,1.6249 0 0 0 2.2793,0.33593 1.6249,1.6249 0 0 0 0.33594,-2.27929 l -19.50391,-26.00586 a 1.6251,1.6251 0 0 0 -1.29492,-0.64844 z m 24.27734,0.0215 a 1.6251,1.6251 0 0 0 -1.19921,0.64649 l -9.74024,12.98047 a 1.6249,1.6249 0 0 0 0.33594,2.27734 1.6249,1.6249 0 0 0 2.25586,-0.31054 l 8.53906,-11.39454 18.185548,21.20704 a 1.6249,1.6249 0 0 0 2.302734,0.1914 1.6249,1.6249 0 0 0 0.167969,-2.30273 l -19.503907,-22.74414 a 1.6251,1.6251 0 0 0 -1.343754,-0.55079 z"
       transform="translate(210)" />
  </g>
</svg>
