<?xml version="1.0" encoding="UTF-8" standalone="no"?>
<svg
   width="163.97464"
   height="135.96872"
   version="1.1"
   id="svg19"
   xmlns:xlink="http://www.w3.org/1999/xlink"
   xmlns="http://www.w3.org/2000/svg"
   xmlns:svg="http://www.w3.org/2000/svg"
   xmlns:rdf="http://www.w3.org/1999/02/22-rdf-syntax-ns#"
   xmlns:cc="http://creativecommons.org/ns#"
   xmlns:dc="http://purl.org/dc/elements/1.1/">
  <metadata
     id="metadata1">
    <rdf:RDF>
      <cc:Work
         rdf:about="">
        <dc:format>image/svg+xml</dc:format>
        <dc:type
           rdf:resource="http://purl.org/dc/dcmitype/StillImage" />
        <dc:title />
      </cc:Work>
    </rdf:RDF>
  </metadata>
  <defs
     id="defs5">
    <linearGradient
       id="linearGradient19">
      <stop
         style="stop-color:#00abff;stop-opacity:0;"
         offset="0"
         id="stop20" />
      <stop
         style="stop-color:#00abff;stop-opacity:1;"
         offset="1"
         id="stop19" />
    </linearGradient>
    <style
       id="current-color-scheme"
       type="text/css">.ColorScheme-Text {
        color:#4d4d4d;
      }</style>
    <style
       type="text/css"
       id="style1">.ColorScheme-Text {
        color:#4d4d4d;
      }</style>
    <linearGradient
       xlink:href="#linearGradient19"
       id="linearGradient20"
       x1="-128.73232"
       y1="200"
       x2="-128.73232"
       y2="89.492752"
       gradientUnits="userSpaceOnUse" />
    <filter
       style="color-interpolation-filters:sRGB"
       id="filter20"
       x="-0.024580925"
       y="-0.029947183"
       width="1.0491619"
       height="1.0598944">
      <feGaussianBlur
         stdDeviation="1.6007413"
         id="feGaussianBlur20" />
    </filter>
  </defs>
  <g
     id="g20"
     transform="translate(-18.015591,-29.585955)">
    <path
       id="path12"
       style="display:inline;opacity:0.6;fill:#00abff;fill-opacity:1;filter:url(#filter20)"
       d="m -200.20984,33.427734 -6.30079,6.300782 V 71.126953 L -199.37977,64 h 40 l 11.42969,-11.427734 h 90.599611 l 7.128906,7.126953 v -8.541016 l -6.300781,-6.300781 H -158.79578 v -5.128906 l -6.30078,-6.300782 z m 0.82812,2 h 33.45703 l 5.12891,5.128907 v 6.300781 h 103.445311 l 5.128906,5.128906 v 2.884766 l -4.300781,-4.298828 H -148.78016 L -160.20789,62 h -40 l -4.30274,4.300781 V 40.556641 Z M -148.78211,62.570312 -160.20984,74 h -40 l -6.30079,6.298828 -0.002,75.115232 6.30078,6.29883 h 143.687503 l 6.300781,-6.29883 V 68.871094 l -6.300781,-6.300782 z m 0.82813,2 h 90.601558 l 5.128906,5.128907 v 84.884761 l -5.128906,5.12891 H -199.38367 l -5.12891,-5.12891 0.002,-73.455074 L -199.38172,76 h 40 z M -116.995,85 a 9.7495084,9.7495084 0 0 0 -9.75,9.75 9.7495084,9.7495084 0 0 0 0.98437,4.240234 l -20.0996,11.603516 a 9.7495084,9.7495084 0 0 0 -6.88282,-2.8457 9.7495084,9.7495084 0 0 0 -9.75,9.75 9.7495084,9.7495084 0 0 0 9.75,9.75 9.7495084,9.7495084 0 0 0 8.81055,-5.59571 l 30.24023,8.10157 a 9.7495084,9.7495084 0 0 0 -0.0527,0.74414 9.7495084,9.7495084 0 0 0 9.74805,9.74804 9.7495084,9.7495084 0 0 0 9.749997,-9.74804 9.7495084,9.7495084 0 0 0 -9.749997,-9.75 9.7495084,9.7495084 0 0 0 -8.92383,5.84765 l -30.14844,-8.07617 a 9.7495084,9.7495084 0 0 0 0.0742,-1.02148 9.7495084,9.7495084 0 0 0 -0.97266,-4.24414 l 20.11328,-11.61133 a 9.7495084,9.7495084 0 0 0 6.85938,2.85547 A 9.7495084,9.7495084 0 0 0 -107.24695,94.75 9.7495084,9.7495084 0 0 0 -116.995,85 Z m 0,3.25 a 6.4996723,6.4996723 0 0 1 6.49805,6.5 6.4996723,6.4996723 0 0 1 -6.49805,6.49805 6.4996723,6.4996723 0 0 1 -6.5,-6.49805 6.4996723,6.4996723 0 0 1 6.5,-6.5 z m -35.74805,22.74805 a 6.4996723,6.4996723 0 0 1 6.49805,6.5 6.4996723,6.4996723 0 0 1 -6.49805,6.5 6.4996723,6.4996723 0 0 1 -6.5,-6.5 6.4996723,6.4996723 0 0 1 6.5,-6.5 z m 48.7461,13 a 6.4996723,6.4996723 0 0 1 6.499997,6.5 6.4996723,6.4996723 0 0 1 -6.499997,6.5 6.4996723,6.4996723 0 0 1 -6.5,-6.5 6.4996723,6.4996723 0 0 1 6.5,-6.5 z"
       transform="translate(228.37)" />
    <path
       id="path19"
       style="fill:url(#linearGradient20);fill-opacity:1"
       d="m -200.20984,33.427734 -6.30079,6.300782 V 71.126953 L -199.37977,64 h 40 l 11.42969,-11.427734 h 90.599611 l 7.128906,7.126953 v -8.541016 l -6.300781,-6.300781 H -158.79578 v -5.128906 l -6.30078,-6.300782 z m 0.82812,2 h 33.45703 l 5.12891,5.128907 v 6.300781 h 103.445311 l 5.128906,5.128906 v 2.884766 l -4.300781,-4.298828 H -148.78016 L -160.20789,62 h -40 l -4.30274,4.300781 V 40.556641 Z M -148.78211,62.570312 -160.20984,74 h -40 l -6.30079,6.298828 -0.002,75.115232 6.30078,6.29883 h 143.687503 l 6.300781,-6.29883 V 68.871094 l -6.300781,-6.300782 z m 0.82813,2 h 90.601558 l 5.128906,5.128907 v 84.884761 l -5.128906,5.12891 H -199.38367 l -5.12891,-5.12891 0.002,-73.455074 L -199.38172,76 h 40 z M -116.995,85 a 9.7495084,9.7495084 0 0 0 -9.75,9.75 9.7495084,9.7495084 0 0 0 0.98437,4.240234 l -20.0996,11.603516 a 9.7495084,9.7495084 0 0 0 -6.88282,-2.8457 9.7495084,9.7495084 0 0 0 -9.75,9.75 9.7495084,9.7495084 0 0 0 9.75,9.75 9.7495084,9.7495084 0 0 0 8.81055,-5.59571 l 30.24023,8.10157 a 9.7495084,9.7495084 0 0 0 -0.0527,0.74414 9.7495084,9.7495084 0 0 0 9.74805,9.74804 9.7495084,9.7495084 0 0 0 9.749997,-9.74804 9.7495084,9.7495084 0 0 0 -9.749997,-9.75 9.7495084,9.7495084 0 0 0 -8.92383,5.84765 l -30.14844,-8.07617 a 9.7495084,9.7495084 0 0 0 0.0742,-1.02148 9.7495084,9.7495084 0 0 0 -0.97266,-4.24414 l 20.11328,-11.61133 a 9.7495084,9.7495084 0 0 0 6.85938,2.85547 A 9.7495084,9.7495084 0 0 0 -107.24695,94.75 9.7495084,9.7495084 0 0 0 -116.995,85 Z m 0,3.25 a 6.4996723,6.4996723 0 0 1 6.49805,6.5 6.4996723,6.4996723 0 0 1 -6.49805,6.49805 6.4996723,6.4996723 0 0 1 -6.5,-6.49805 6.4996723,6.4996723 0 0 1 6.5,-6.5 z m -35.74805,22.74805 a 6.4996723,6.4996723 0 0 1 6.49805,6.5 6.4996723,6.4996723 0 0 1 -6.49805,6.5 6.4996723,6.4996723 0 0 1 -6.5,-6.5 6.4996723,6.4996723 0 0 1 6.5,-6.5 z m 48.7461,13 a 6.4996723,6.4996723 0 0 1 6.499997,6.5 6.4996723,6.4996723 0 0 1 -6.499997,6.5 6.4996723,6.4996723 0 0 1 -6.5,-6.5 6.4996723,6.4996723 0 0 1 6.5,-6.5 z"
       transform="translate(228.37)" />
  </g>
</svg>
