<?xml version="1.0" encoding="UTF-8" standalone="no"?>
<svg
   width="167.13663"
   height="139.13072"
   version="1.1"
   viewBox="0 0 167.13663 139.13072"
   id="svg21"
   xmlns:xlink="http://www.w3.org/1999/xlink"
   xmlns="http://www.w3.org/2000/svg"
   xmlns:svg="http://www.w3.org/2000/svg"
   xmlns:rdf="http://www.w3.org/1999/02/22-rdf-syntax-ns#"
   xmlns:cc="http://creativecommons.org/ns#"
   xmlns:dc="http://purl.org/dc/elements/1.1/">
  <metadata
     id="metadata1">
    <rdf:RDF>
      <cc:Work
         rdf:about="">
        <dc:format>image/svg+xml</dc:format>
        <dc:type
           rdf:resource="http://purl.org/dc/dcmitype/StillImage" />
        <dc:title />
      </cc:Work>
    </rdf:RDF>
  </metadata>
  <defs
     id="defs12">
    <linearGradient
       id="linearGradient2">
      <stop
         style="stop-color:#00abff;stop-opacity:0;"
         offset="0"
         id="stop3" />
      <stop
         style="stop-color:#00abff;stop-opacity:1;"
         offset="1"
         id="stop2" />
    </linearGradient>
    <style
       id="current-color-scheme"
       type="text/css">.ColorScheme-Text { color:#565656; } .ColorScheme-Highlight { color:#5294e2; }</style>
    <style
       type="text/css"
       id="style1" />
    <style
       type="text/css"
       id="style2">.ColorScheme-Text {
        color:#4d4d4d;
      }</style>
    <style
       type="text/css"
       id="style3">.ColorScheme-Text {
        color:#4d4d4d;
      }</style>
    <style
       type="text/css"
       id="style4" />
    <style
       type="text/css"
       id="style5">.ColorScheme-Text {
        color:#4d4d4d;
      }</style>
    <style
       type="text/css"
       id="style6">.ColorScheme-Text {
        color:#4d4d4d;
      }</style>
    <style
       type="text/css"
       id="style7">.ColorScheme-Text { color:#565656; } .ColorScheme-Highlight { color:#5294e2; }</style>
    <style
       type="text/css"
       id="style8" />
    <linearGradient
       xlink:href="#linearGradient2"
       id="linearGradient3"
       x1="-110.81883"
       y1="171.71246"
       x2="-110.81883"
       y2="86.71524"
       gradientUnits="userSpaceOnUse" />
    <filter
       style="color-interpolation-filters:sRGB"
       id="filter3"
       x="-0.024626484"
       y="-0.029879835"
       width="1.049253"
       height="1.0597597">
      <feGaussianBlur
         stdDeviation="1.6344912"
         id="feGaussianBlur3" />
    </filter>
  </defs>
  <g
     id="g3"
     transform="translate(1.5810289,1.5809818)">
    <path
       id="path1"
       d="m -182.46078,31.927752 -7.17969,7.179687 v 35.638672 l 9.25195,-9.246094 h 40 l 11.42969,-11.427734 h 89.357424 l 9.25,9.248047 V 50.537127 l -7.177735,-7.179688 H -138.92563 v -4.25 l -7.17773,-7.179687 z m 2.07031,5 h 32.21484 l 4.25,4.25 v 7.179687 h 104.324224 l 0.714843,0.714844 h -92.142577 l -11.42969,11.427734 h -40 l -2.18164,2.181641 V 41.177752 Z m 49.35938,24.142578 -11.42969,11.429687 h -40 l -7.17969,7.177735 -0.002,76.357418 7.17969,7.17774 h 144.929683 l 7.179687,-7.17774 V 68.250017 l -7.179687,-7.179687 z m 2.07031,5 h 89.35742 l 4.25,4.25 v 83.64258 l -4.25,4.25 h -140.78906 l -4.25,-4.25 0.002,-72.212893 4.25,-4.25 h 40 z m 18.96094,16.429687 c -9.06963,0 -16.4707,7.401074 -16.47071,16.470704 0,5.468509 2.76081,10.221599 6.88477,13.218749 -11.11146,3.96185 -19.10938,14.50161 -19.10938,26.94922 0,1.36295 1.13705,2.5 2.5,2.5 1.36294,0 2.5,-1.13705 2.5,-2.5 0,-13.11752 10.5778,-23.69531 23.69532,-23.69531 h 0.18164 l 0.13672,-0.0332 c 8.9209,-0.17399 16.152339,-7.47839 16.152339,-16.439449 -2.09e-4,-9.069568 -7.401069,-16.470704 -16.470699,-16.470704 z m 0,5 c 6.3679,0 11.470699,5.102804 11.470699,11.470704 0,6.367899 -5.102799,11.470699 -11.470699,11.470699 -6.3679,0 -11.47071,-5.1028 -11.47071,-11.470699 1e-5,-6.367901 5.10281,-11.470704 11.47071,-11.470704 z m 18.523434,30.619143 c -0.662429,1e-4 -1.299223,0.26397 -1.767579,0.73242 -0.963501,0.96371 -0.963501,2.57145 0,3.53516 4.444584,4.44451 6.939495,10.46834 6.939454,16.7539 -10e-7,1.36295 1.137055,2.5 2.5,2.5 1.362944,0 2.5,-1.13705 2.5,-2.5 5e-5,-7.60956 -3.023496,-14.90835 -8.404297,-20.28906 -0.468356,-0.46845 -1.105152,-0.73232 -1.767578,-0.73242 z"
       transform="translate(191.98422,-29.585955)"
       style="display:inline;opacity:0.6;fill:#00abff;fill-opacity:1;filter:url(#filter3)" />
    <path
       id="path2"
       d="m -182.46078,31.927752 -7.17969,7.179687 v 35.638672 l 9.25195,-9.246094 h 40 l 11.42969,-11.427734 h 89.357424 l 9.25,9.248047 V 50.537127 l -7.177735,-7.179688 H -138.92563 v -4.25 l -7.17773,-7.179687 z m 2.07031,5 h 32.21484 l 4.25,4.25 v 7.179687 h 104.324224 l 0.714843,0.714844 h -92.142577 l -11.42969,11.427734 h -40 l -2.18164,2.181641 V 41.177752 Z m 49.35938,24.142578 -11.42969,11.429687 h -40 l -7.17969,7.177735 -0.002,76.357418 7.17969,7.17774 h 144.929683 l 7.179687,-7.17774 V 68.250017 l -7.179687,-7.179687 z m 2.07031,5 h 89.35742 l 4.25,4.25 v 83.64258 l -4.25,4.25 h -140.78906 l -4.25,-4.25 0.002,-72.212893 4.25,-4.25 h 40 z m 18.96094,16.429687 c -9.06963,0 -16.4707,7.401074 -16.47071,16.470704 0,5.468509 2.76081,10.221599 6.88477,13.218749 -11.11146,3.96185 -19.10938,14.50161 -19.10938,26.94922 0,1.36295 1.13705,2.5 2.5,2.5 1.36294,0 2.5,-1.13705 2.5,-2.5 0,-13.11752 10.5778,-23.69531 23.69532,-23.69531 h 0.18164 l 0.13672,-0.0332 c 8.9209,-0.17399 16.152339,-7.47839 16.152339,-16.439449 -2.09e-4,-9.069568 -7.401069,-16.470704 -16.470699,-16.470704 z m 0,5 c 6.3679,0 11.470699,5.102804 11.470699,11.470704 0,6.367899 -5.102799,11.470699 -11.470699,11.470699 -6.3679,0 -11.47071,-5.1028 -11.47071,-11.470699 1e-5,-6.367901 5.10281,-11.470704 11.47071,-11.470704 z m 18.523434,30.619143 c -0.662429,1e-4 -1.299223,0.26397 -1.767579,0.73242 -0.963501,0.96371 -0.963501,2.57145 0,3.53516 4.444584,4.44451 6.939495,10.46834 6.939454,16.7539 -10e-7,1.36295 1.137055,2.5 2.5,2.5 1.362944,0 2.5,-1.13705 2.5,-2.5 5e-5,-7.60956 -3.023496,-14.90835 -8.404297,-20.28906 -0.468356,-0.46845 -1.105152,-0.73232 -1.767578,-0.73242 z"
       transform="translate(191.98422,-29.585955)"
       style="fill:url(#linearGradient3);fill-opacity:1" />
  </g>
</svg>
