<?xml version="1.0" encoding="UTF-8" standalone="no"?>
<svg
   width="163.97461"
   height="135.96872"
   version="1.1"
   viewBox="0 0 163.97461 135.96872"
   id="svg21"
   xmlns:xlink="http://www.w3.org/1999/xlink"
   xmlns="http://www.w3.org/2000/svg"
   xmlns:svg="http://www.w3.org/2000/svg"
   xmlns:rdf="http://www.w3.org/1999/02/22-rdf-syntax-ns#"
   xmlns:cc="http://creativecommons.org/ns#"
   xmlns:dc="http://purl.org/dc/elements/1.1/">
  <metadata
     id="metadata1">
    <rdf:RDF>
      <cc:Work
         rdf:about="">
        <dc:format>image/svg+xml</dc:format>
        <dc:type
           rdf:resource="http://purl.org/dc/dcmitype/StillImage" />
        <dc:title />
      </cc:Work>
    </rdf:RDF>
  </metadata>
  <defs
     id="defs12">
    <linearGradient
       id="linearGradient21">
      <stop
         style="stop-color:#00abff;stop-opacity:0;"
         offset="0"
         id="stop22" />
      <stop
         style="stop-color:#00abff;stop-opacity:1;"
         offset="1"
         id="stop21" />
    </linearGradient>
    <style
       id="current-color-scheme"
       type="text/css">.ColorScheme-Text { color:#565656; } .ColorScheme-Highlight { color:#5294e2; }</style>
    <style
       type="text/css"
       id="style1" />
    <style
       type="text/css"
       id="style2">.ColorScheme-Text {
        color:#4d4d4d;
      }</style>
    <style
       type="text/css"
       id="style3">.ColorScheme-Text {
        color:#4d4d4d;
      }</style>
    <style
       type="text/css"
       id="style4" />
    <style
       type="text/css"
       id="style5">.ColorScheme-Text {
        color:#4d4d4d;
      }</style>
    <style
       type="text/css"
       id="style6">.ColorScheme-Text {
        color:#4d4d4d;
      }</style>
    <style
       type="text/css"
       id="style7">.ColorScheme-Text { color:#565656; } .ColorScheme-Highlight { color:#5294e2; }</style>
    <style
       type="text/css"
       id="style8" />
    <linearGradient
       xlink:href="#linearGradient21"
       id="linearGradient22"
       x1="-108.54272"
       y1="200"
       x2="-108.54272"
       y2="86.080528"
       gradientUnits="userSpaceOnUse" />
    <filter
       style="color-interpolation-filters:sRGB"
       id="filter22"
       x="-0.024580924"
       y="-0.029947181"
       width="1.0491618"
       height="1.0598944">
      <feGaussianBlur
         stdDeviation="1.6007412"
         id="feGaussianBlur22" />
    </filter>
  </defs>
  <g
     id="g22"
     transform="translate(-18.007781,-29.585955)">
    <path
       id="path16"
       style="display:inline;opacity:0.6;fill:#00abff;fill-opacity:1;stroke:none;filter:url(#filter22)"
       d="m -181.83966,33.427734 -6.30078,6.300782 V 71.126953 L -181.00958,64 h 40 l 11.42969,-11.427734 h 90.599609 l 7.128906,7.126953 v -8.541016 l -6.298828,-6.300781 H -140.42559 v -5.128906 l -6.29883,-6.300782 z m 0.82813,2 h 33.45703 l 5.12891,5.128907 v 6.300781 h 103.445309 l 5.128906,5.128906 v 2.884766 l -4.298828,-4.298828 H -130.40802 L -141.8377,62 h -40 l -4.30274,4.300781 V 40.556641 Z M -130.40997,62.570312 -141.83966,74 h -40 l -6.30078,6.298828 -0.002,75.115232 6.30078,6.29883 h 143.687501 l 6.300781,-6.29883 V 68.871094 l -6.300781,-6.300782 z m 0.82813,2 h 90.599606 l 5.128906,5.128907 v 84.884761 l -5.128906,5.12891 H -181.01348 l -5.12891,-5.12891 0.002,-73.455074 L -181.01153,76 h 40 z M -109.99981,84 c -8.25641,0 -14.9707,6.714293 -14.97071,14.970703 0,6.085897 3.65024,11.329287 8.875,13.667967 -12.07654,2.77181 -21.09961,13.58857 -21.09961,26.5 a 1,1 0 0 0 1,1 1,1 0 0 0 1,-1 c 0,-13.92666 11.26866,-25.19531 25.19532,-25.19531 a 1,1 0 0 0 0.008,-0.002 c 8.25281,-0.004 14.962891,-6.71692 14.962891,-14.970707 C -95.029109,90.714293 -101.7434,84 -109.99981,84 Z m 0,2 c 7.17553,0 12.970701,5.795173 12.970701,12.970703 0,7.175527 -5.795171,12.970707 -12.970701,12.970707 -7.17553,0 -12.97071,-5.79518 -12.97071,-12.970707 C -122.97051,91.795173 -117.17534,86 -109.99981,86 Z m 18.523435,33.61914 a 1,1 0 0 0 -0.707031,0.29297 1,1 0 0 0 0,1.41406 c 4.725388,4.72531 7.37895,11.1318 7.378906,17.81445 a 1,1 0 0 0 1,1 1,1 0 0 0 1,-1 c 4.8e-5,-7.21233 -2.864916,-14.12867 -7.964844,-19.22851 a 1,1 0 0 0 -0.707031,-0.29297 z"
       transform="translate(209.992)" />
    <path
       id="path21"
       style="fill:url(#linearGradient22);fill-opacity:1;stroke:none"
       d="m -181.83966,33.427734 -6.30078,6.300782 V 71.126953 L -181.00958,64 h 40 l 11.42969,-11.427734 h 90.599609 l 7.128906,7.126953 v -8.541016 l -6.298828,-6.300781 H -140.42559 v -5.128906 l -6.29883,-6.300782 z m 0.82813,2 h 33.45703 l 5.12891,5.128907 v 6.300781 h 103.445309 l 5.128906,5.128906 v 2.884766 l -4.298828,-4.298828 H -130.40802 L -141.8377,62 h -40 l -4.30274,4.300781 V 40.556641 Z M -130.40997,62.570312 -141.83966,74 h -40 l -6.30078,6.298828 -0.002,75.115232 6.30078,6.29883 h 143.687501 l 6.300781,-6.29883 V 68.871094 l -6.300781,-6.300782 z m 0.82813,2 h 90.599606 l 5.128906,5.128907 v 84.884761 l -5.128906,5.12891 H -181.01348 l -5.12891,-5.12891 0.002,-73.455074 L -181.01153,76 h 40 z M -109.99981,84 c -8.25641,0 -14.9707,6.714293 -14.97071,14.970703 0,6.085897 3.65024,11.329287 8.875,13.667967 -12.07654,2.77181 -21.09961,13.58857 -21.09961,26.5 a 1,1 0 0 0 1,1 1,1 0 0 0 1,-1 c 0,-13.92666 11.26866,-25.19531 25.19532,-25.19531 a 1,1 0 0 0 0.008,-0.002 c 8.25281,-0.004 14.962891,-6.71692 14.962891,-14.970707 C -95.029109,90.714293 -101.7434,84 -109.99981,84 Z m 0,2 c 7.17553,0 12.970701,5.795173 12.970701,12.970703 0,7.175527 -5.795171,12.970707 -12.970701,12.970707 -7.17553,0 -12.97071,-5.79518 -12.97071,-12.970707 C -122.97051,91.795173 -117.17534,86 -109.99981,86 Z m 18.523435,33.61914 a 1,1 0 0 0 -0.707031,0.29297 1,1 0 0 0 0,1.41406 c 4.725388,4.72531 7.37895,11.1318 7.378906,17.81445 a 1,1 0 0 0 1,1 1,1 0 0 0 1,-1 c 4.8e-5,-7.21233 -2.864916,-14.12867 -7.964844,-19.22851 a 1,1 0 0 0 -0.707031,-0.29297 z"
       transform="translate(209.992)" />
  </g>
</svg>
