<?xml version="1.0" encoding="UTF-8" standalone="no"?>
<svg
   width="163.97462"
   height="135.96887"
   version="1.1"
   id="svg9"
   xmlns:xlink="http://www.w3.org/1999/xlink"
   xmlns="http://www.w3.org/2000/svg"
   xmlns:svg="http://www.w3.org/2000/svg"
   xmlns:rdf="http://www.w3.org/1999/02/22-rdf-syntax-ns#"
   xmlns:cc="http://creativecommons.org/ns#"
   xmlns:dc="http://purl.org/dc/elements/1.1/">
  <metadata
     id="metadata1">
    <rdf:RDF>
      <cc:Work
         rdf:about="">
        <dc:format>image/svg+xml</dc:format>
        <dc:type
           rdf:resource="http://purl.org/dc/dcmitype/StillImage" />
        <dc:title />
      </cc:Work>
    </rdf:RDF>
  </metadata>
  <defs
     id="defs6">
    <linearGradient
       id="linearGradient9">
      <stop
         style="stop-color:#00abff;stop-opacity:0;"
         offset="0"
         id="stop10" />
      <stop
         style="stop-color:#00abff;stop-opacity:1;"
         offset="1"
         id="stop9" />
    </linearGradient>
    <style
       type="text/css"
       id="style1" />
    <style
       id="current-color-scheme"
       type="text/css">.ColorScheme-Text {
        color:#4d4d4d;
      }</style>
    <style
       type="text/css"
       id="style2">.ColorScheme-Text {
        color:#4d4d4d;
      }</style>
    <linearGradient
       xlink:href="#linearGradient9"
       id="linearGradient10"
       x1="-119.27536"
       y1="200"
       x2="-119.27536"
       y2="84.782608"
       gradientUnits="userSpaceOnUse" />
    <filter
       style="color-interpolation-filters:sRGB"
       id="filter10"
       x="-0.024580938"
       y="-0.029947161"
       width="1.0491619"
       height="1.0598943">
      <feGaussianBlur
         stdDeviation="1.600742"
         id="feGaussianBlur10" />
    </filter>
  </defs>
  <g
     transform="translate(201.9844,-29.585953)"
     fill="none"
     stroke="#059bff"
     stroke-width="2"
     id="g8">
    <path
       id="path6"
       style="display:inline;opacity:0.6;fill:#00abff;fill-opacity:1;stroke:none;filter:url(#filter10)"
       d="m -191.83984,33.427734 -6.30078,6.300782 V 71.126953 L -191.00977,64 h 40 l 11.42969,-11.427734 h 90.599611 l 7.128907,7.126953 v -8.541016 l -6.298829,-6.300781 H -150.42578 v -5.128906 l -6.29883,-6.300782 z m 0.82812,2 h 33.45703 l 5.12891,5.128907 v 6.300781 h 103.445311 l 5.128907,5.128906 v 2.884766 l -4.298829,-4.298828 H -140.4082 L -151.83789,62 h -40 l -4.30273,4.300781 V 40.556641 Z M -140.41016,62.570312 -151.83984,74 h -40 l -6.30078,6.298828 v 36.427732 l -0.002,38.6836 v 0.002 0.002 l 6.30078,6.29688 v 0.002 h 143.687503 v -0.002 l 6.300781,-6.29688 v -0.002 -50.11523 -36.425786 l -6.300781,-6.300782 z m 0.82813,2 h 90.599608 l 5.128906,5.128907 v 33.597661 l -4.300781,-4.300786 h -92.255863 l -11.42968,11.429686 h -40 l -4.30078,4.30078 V 81.128906 L -191.01172,76 h 40 z m 0,36.425778 h 90.599608 l 5.128906,5.12891 v 48.45703 l -5.128906,5.12891 H -191.01367 l -5.12891,-5.12696 v -0.002 -0.002 l 0.002,-37.02539 5.1289,-5.12891 h 40 z" />
    <path
       id="path9"
       style="fill:url(#linearGradient10);fill-opacity:1;stroke:none"
       d="m -191.83984,33.427734 -6.30078,6.300782 V 71.126953 L -191.00977,64 h 40 l 11.42969,-11.427734 h 90.599611 l 7.128907,7.126953 v -8.541016 l -6.298829,-6.300781 H -150.42578 v -5.128906 l -6.29883,-6.300782 z m 0.82812,2 h 33.45703 l 5.12891,5.128907 v 6.300781 h 103.445311 l 5.128907,5.128906 v 2.884766 l -4.298829,-4.298828 H -140.4082 L -151.83789,62 h -40 l -4.30273,4.300781 V 40.556641 Z M -140.41016,62.570312 -151.83984,74 h -40 l -6.30078,6.298828 v 36.427732 l -0.002,38.6836 v 0.002 0.002 l 6.30078,6.29688 v 0.002 h 143.687503 v -0.002 l 6.300781,-6.29688 v -0.002 -50.11523 -36.425786 l -6.300781,-6.300782 z m 0.82813,2 h 90.599608 l 5.128906,5.128907 v 33.597661 l -4.300781,-4.300786 h -92.255863 l -11.42968,11.429686 h -40 l -4.30078,4.30078 V 81.128906 L -191.01172,76 h 40 z m 0,36.425778 h 90.599608 l 5.128906,5.12891 v 48.45703 l -5.128906,5.12891 H -191.01367 l -5.12891,-5.12696 v -0.002 -0.002 l 0.002,-37.02539 5.1289,-5.12891 h 40 z" />
  </g>
</svg>
