<?xml version="1.0" encoding="UTF-8" standalone="no"?>
<svg
   width="163.97461"
   height="135.96872"
   version="1.1"
   id="svg16"
   xmlns:xlink="http://www.w3.org/1999/xlink"
   xmlns="http://www.w3.org/2000/svg"
   xmlns:svg="http://www.w3.org/2000/svg"
   xmlns:rdf="http://www.w3.org/1999/02/22-rdf-syntax-ns#"
   xmlns:cc="http://creativecommons.org/ns#"
   xmlns:dc="http://purl.org/dc/elements/1.1/">
  <metadata
     id="metadata1">
    <rdf:RDF>
      <cc:Work
         rdf:about="">
        <dc:format>image/svg+xml</dc:format>
        <dc:type
           rdf:resource="http://purl.org/dc/dcmitype/StillImage" />
        <dc:title />
      </cc:Work>
    </rdf:RDF>
  </metadata>
  <defs
     id="defs5">
    <linearGradient
       id="linearGradient18">
      <stop
         style="stop-color:#00abff;stop-opacity:0;"
         offset="0"
         id="stop19" />
      <stop
         style="stop-color:#00abff;stop-opacity:1;"
         offset="1"
         id="stop18" />
    </linearGradient>
    <style
       id="current-color-scheme"
       type="text/css">.ColorScheme-Text {
        color:#4d4d4d;
      }</style>
    <style
       type="text/css"
       id="style1">.ColorScheme-Text {
        color:#4d4d4d;
      }</style>
    <linearGradient
       xlink:href="#linearGradient18"
       id="linearGradient19"
       x1="-110.36232"
       y1="200"
       x2="-110.36232"
       y2="85.367653"
       gradientUnits="userSpaceOnUse" />
    <filter
       style="color-interpolation-filters:sRGB"
       id="filter19"
       x="-0.024580925"
       y="-0.029947181"
       width="1.0491618"
       height="1.0598944">
      <feGaussianBlur
         stdDeviation="1.6007412"
         id="feGaussianBlur19" />
    </filter>
  </defs>
  <g
     transform="translate(191.9844,-29.585955)"
     id="g15">
    <path
       id="path18"
       style="display:inline;opacity:0.6;fill:#00abff;fill-opacity:1;filter:url(#filter19)"
       d="m -181.83984,33.427734 -6.30078,6.300782 V 71.126953 L -181.00977,64 h 40 l 11.42969,-11.427734 h 90.599611 l 7.128907,7.126953 v -8.541016 l -6.298829,-6.300781 H -140.42578 v -5.128906 l -6.29883,-6.300782 z m 0.82812,2 h 33.45703 l 5.12891,5.128907 v 6.300781 h 103.445311 l 5.128907,5.128906 v 2.884766 l -4.298829,-4.298828 H -130.4082 L -141.83789,62 h -40 l -4.30273,4.300781 V 40.556641 Z M -130.41016,62.570312 -141.83984,74 h -40 l -6.30078,6.298828 -0.002,75.115232 6.30078,6.29883 h 143.687503 l 6.300781,-6.29883 V 68.871094 l -6.300781,-6.300782 z m 0.82813,2 h 90.599608 l 5.128906,5.128907 v 84.884761 l -5.128906,5.12891 H -181.01367 l -5.12891,-5.12891 0.002,-73.455074 L -181.01172,76 h 40 z M -110,84.998047 l -29.43164,30.023433 1.63672,1.59766 4.9043,-5.00195 v 29.38086 h 29.75781 v -0.004 h 2.28906 V 124.6171 c 0,-0.96284 -0.0917,-1.84323 -0.27344,-2.64258 -0.18169,-0.7993 -0.49894,-1.4798 -0.95312,-2.04297 -0.436,-0.58135 -1.02665,-1.0271 -1.77149,-1.33594 -0.74484,-0.32707 -1.68034,-0.49023 -2.80664,-0.49023 -1.25351,0 -2.36141,0.0807 -3.32422,0.24414 -0.96281,0.16357 -1.73511,0.31771 -2.3164,0.46289 v 19.89648 h -18.30469 l -0.008,-29.42578 20.59961,-21.009762 20.603512,21.011722 v 31.71289 h 2.294922 l -0.0059,-29.37891 4.902344,5 1.636719,-1.59766 z m 16.015625,10.222656 6.875,6.867187 v -6.867187 z" />
    <path
       id="path16"
       style="display:inline;fill:url(#linearGradient19);fill-opacity:1"
       d="m -181.83984,33.427734 -6.30078,6.300782 V 71.126953 L -181.00977,64 h 40 l 11.42969,-11.427734 h 90.599611 l 7.128907,7.126953 v -8.541016 l -6.298829,-6.300781 H -140.42578 v -5.128906 l -6.29883,-6.300782 z m 0.82812,2 h 33.45703 l 5.12891,5.128907 v 6.300781 h 103.445311 l 5.128907,5.128906 v 2.884766 l -4.298829,-4.298828 H -130.4082 L -141.83789,62 h -40 l -4.30273,4.300781 V 40.556641 Z M -130.41016,62.570312 -141.83984,74 h -40 l -6.30078,6.298828 -0.002,75.115232 6.30078,6.29883 h 143.687503 l 6.300781,-6.29883 V 68.871094 l -6.300781,-6.300782 z m 0.82813,2 h 90.599608 l 5.128906,5.128907 v 84.884761 l -5.128906,5.12891 H -181.01367 l -5.12891,-5.12891 0.002,-73.455074 L -181.01172,76 h 40 z M -110,84.998047 l -29.43164,30.023433 1.63672,1.59766 4.9043,-5.00195 v 29.38086 h 29.75781 v -0.004 h 2.28906 V 124.6171 c 0,-0.96284 -0.0917,-1.84323 -0.27344,-2.64258 -0.18169,-0.7993 -0.49894,-1.4798 -0.95312,-2.04297 -0.436,-0.58135 -1.02665,-1.0271 -1.77149,-1.33594 -0.74484,-0.32707 -1.68034,-0.49023 -2.80664,-0.49023 -1.25351,0 -2.36141,0.0807 -3.32422,0.24414 -0.96281,0.16357 -1.73511,0.31771 -2.3164,0.46289 v 19.89648 h -18.30469 l -0.008,-29.42578 20.59961,-21.009762 20.603512,21.011722 v 31.71289 h 2.294922 l -0.0059,-29.37891 4.902344,5 1.636719,-1.59766 z m 16.015625,10.222656 6.875,6.867187 v -6.867187 z" />
    <g
       transform="matrix(0,-0.57203,-0.57225,0,115.1,341.19)"
       enable-background="new"
       fill="#059bff"
       id="g14" />
  </g>
</svg>
