<?xml version="1.0" encoding="UTF-8" standalone="no"?>
<svg
   width="163.97461"
   height="135.96872"
   version="1.1"
   id="svg22"
   xmlns:xlink="http://www.w3.org/1999/xlink"
   xmlns="http://www.w3.org/2000/svg"
   xmlns:svg="http://www.w3.org/2000/svg"
   xmlns:rdf="http://www.w3.org/1999/02/22-rdf-syntax-ns#"
   xmlns:cc="http://creativecommons.org/ns#"
   xmlns:dc="http://purl.org/dc/elements/1.1/">
  <metadata
     id="metadata1">
    <rdf:RDF>
      <cc:Work
         rdf:about="">
        <dc:format>image/svg+xml</dc:format>
        <dc:type
           rdf:resource="http://purl.org/dc/dcmitype/StillImage" />
        <dc:title />
      </cc:Work>
    </rdf:RDF>
  </metadata>
  <defs
     id="defs5">
    <linearGradient
       id="linearGradient22">
      <stop
         style="stop-color:#00abff;stop-opacity:0;"
         offset="0"
         id="stop23" />
      <stop
         style="stop-color:#00abff;stop-opacity:1;"
         offset="1"
         id="stop22" />
    </linearGradient>
    <style
       id="current-color-scheme"
       type="text/css">.ColorScheme-Text {
        color:#4d4d4d;
      }</style>
    <style
       type="text/css"
       id="style1">.ColorScheme-Text {
        color:#4d4d4d;
      }</style>
    <linearGradient
       xlink:href="#linearGradient22"
       id="linearGradient23"
       x1="99.638123"
       y1="200"
       x2="99.638123"
       y2="85.255424"
       gradientUnits="userSpaceOnUse" />
    <filter
       style="color-interpolation-filters:sRGB"
       id="filter23"
       x="-0.024580924"
       y="-0.029947181"
       width="1.0491618"
       height="1.0598944">
      <feGaussianBlur
         stdDeviation="1.6007412"
         id="feGaussianBlur23" />
    </filter>
  </defs>
  <g
     transform="translate(-18.014087,-29.585955)"
     id="g21">
    <path
       id="path19"
       style="display:inline;opacity:0.6;fill:#00abff;fill-opacity:1;filter:url(#filter23)"
       d="m 28.156694,33.427734 -6.298828,6.300782 V 71.126953 L 28.988726,64 h 40 L 80.41646,52.572266 h 90.60156 l 7.12891,7.126953 v -8.541016 l -6.30078,-6.300781 H 69.57271 v -5.128906 l -6.300781,-6.300782 z m 0.830079,2 h 33.457031 l 5.128906,5.128907 v 6.300781 h 103.44531 l 5.12891,5.128906 v 2.884766 l -4.30078,-4.298828 H 79.588335 L 68.160601,62 h -40 l -4.302735,4.300781 V 40.556641 Z M 79.586382,62.570312 68.156694,74 h -40 l -6.298828,6.298828 -0.002,75.115232 6.298828,6.29883 H 171.84419 l 6.30079,-6.29883 V 68.871094 l -6.30079,-6.300782 z m 0.828125,2 h 90.601563 l 5.12891,5.128907 v 84.884761 l -5.12891,5.12891 H 28.984819 l -5.128906,-5.12891 0.002,-73.455074 L 28.986773,76 h 40 z m 19.583984,20.681641 c -0.96872,0 -1.943118,0.07775 -2.886718,0.175781 a 27.441,27.441 0 0 0 -5.425782,1.050782 28.126,28.126 0 0 0 -18.460937,18.458984 27.441,27.441 0 0 0 -1.048828,5.42773 28.084,28.084 0 0 0 -0.177735,2.88672 c 0,0.96872 0.08109,1.94312 0.177735,2.88672 a 27.441,27.441 0 0 0 1.048828,5.42578 28.126,28.126 0 0 0 18.460937,18.46094 27.441,27.441 0 0 0 5.425782,1.05273 c 0.94362,0.0953 1.917818,0.17188 2.886718,0.17188 0.968929,0 1.942919,-0.0785 2.886719,-0.17578 a 27.441,27.441 0 0 0 5.42773,-1.04688 28.603,28.603 0 0 0 5.07227,-2.18945 27.949,27.949 0 0 0 13.39063,-16.27344 27.441,27.441 0 0 0 1.04687,-5.42773 c 0.0985,-0.9436 0.17578,-1.91792 0.17578,-2.88672 0,-0.96584 -0.0791,-1.94592 -0.17578,-2.88672 a 27.441,27.441 0 0 0 -1.04687,-5.42578 28.197,28.197 0 0 0 -5.16407,-9.537109 c -0.57147,-0.69153 -1.20239,-1.290082 -1.83789,-1.925782 -2.5285,-2.5284 -5.48679,-4.623009 -8.83789,-6.037109 a 29.014,29.014 0 0 0 -2.62305,-0.960938 27.441,27.441 0 0 0 -5.42578,-1.048828 28.879,28.879 0 0 0 -2.88672,-0.175781 z m -0.002,2.798828 0.002,0.002 c 4.236299,0 8.221459,1.038919 11.726559,2.886719 0.0924,0.052 0.16798,0.125461 0.25977,0.175781 0.0703,0.0928 0.0542,0.192956 0.17773,0.259766 0.0904,0.052 0.17607,0.130671 0.25977,0.175781 0.14826,0.0885 0.2927,0.20731 0.26172,0.34961 -0.0356,0.20998 -0.38057,0.197122 -0.52344,0.351562 0.0173,0.29327 -0.1,0.236857 -0.17578,0.435547 0.0443,0.12842 0.15625,0.111832 0.17578,0.263672 -0.0269,0.16225 -0.23745,0.181279 -0.17578,0.349609 0.2742,0.21257 0.52882,0.0347 0.78906,0 0.56792,-0.0694 1.04749,0.01019 1.40039,-0.261719 -0.0356,-0.218639 0.16712,-0.28045 0.25977,-0.4375 0.18789,0.131021 0.34366,0.30388 0.52539,0.4375 -0.10669,0.0433 -0.33946,0.114192 -0.4375,0.175782 -0.14017,0.0954 -0.18526,0.243749 -0.34766,0.349609 -0.11728,0.0781 -0.40372,0.349609 -0.52734,0.349609 -0.14826,0 -0.4187,-0.122843 -0.52539,-0.08984 -0.15077,0.0433 -0.092,0.290609 -0.26172,0.349609 -0.33597,0.12321 -0.9312,-0.327459 -1.04883,0.175781 0.14018,0.29067 0.61819,0.19343 0.87305,0.34961 0.15971,0.10067 0.39721,0.617049 0.43945,0.787109 a 2.0524,2.0524 0 0 1 0,0.789063 c -0.15971,0.40606 -0.582,0.358289 -1.05273,0.349609 -0.12612,0 -0.23297,0.009 -0.34766,0 -0.78929,-0.052 -1.56738,-0.303344 -1.92578,0.259766 0.0269,0.43383 0.0975,0.672441 0,1.050781 -0.0702,0.27418 -0.36375,0.461479 -0.34961,0.699219 0.006,0.1232 0.2318,0.359033 0.26172,0.527343 0.0173,0.0902 -0.0443,0.26892 0,0.34961 0.13142,0.24988 0.46574,-0.0433 0.70117,0 0.22397,0.0347 0.43555,0.363825 0.43555,0.609371 a 1.5989,1.5989 0 0 1 -0.17578,0.70118 c -0.22397,0.33579 -0.64143,0.25551 -0.96094,0.43945 -0.26631,0.15098 -0.36568,0.52161 -0.52539,0.78711 -0.16836,0.28546 -0.32682,0.38105 -0.25977,0.78711 a 1.89,1.89 0 0 1 -0.96484,0.96289 2.7664,2.7664 0 0 0 -0.4375,0.26367 2.2177,2.2177 0 0 0 -0.34766,0.34961 c -0.17895,0.19608 -0.4294,0.28197 -0.52734,0.43555 -0.0703,0.11713 -0.009,0.36769 -0.0879,0.52734 -0.11199,0.21257 -0.29744,0.39679 -0.43945,0.60938 -0.0615,0.1032 -0.19011,0.21967 -0.25977,0.35156 -0.1622,0.29673 -0.38041,0.52876 -0.34961,0.78906 0.0269,0.24989 0.33557,0.3048 0.34961,0.52344 0.0173,0.12321 -0.0918,0.21859 -0.0898,0.34961 0.008,0.19604 0.0696,0.28651 0.0898,0.4375 0.0356,0.3783 -0.19324,0.52882 -0.26367,0.78906 -0.0356,0.12059 0.026,0.25315 0,0.34766 -0.0615,0.19084 -0.34432,0.30159 -0.34961,0.52539 -0.006,0.15704 0.24498,0.30355 0.26172,0.52734 0.009,0.15185 -0.11673,0.29239 -0.0899,0.43555 0.0529,0.27412 0.57385,0.66138 0.78907,0.875 0.28843,0.29066 0.57244,0.48113 0.70117,0.78906 0.10669,0.25771 0.15027,0.68226 0.34961,0.875 0.14547,0.14061 0.42157,0.20125 0.60937,0.34961 0.17895,0.1405 0.42669,0.20125 0.61719,0.34961 0.30767,0.24297 0.72854,0.73761 1.22461,0.70117 0.25745,-0.0169 0.49413,-0.12291 0.78516,-0.17578 0.29988,-0.0519 0.65938,-0.20509 0.96484,-0.17383 0.23282,0.0264 0.45225,0.1905 0.69922,0.17578 0.25216,-0.0169 0.58471,-0.13679 0.87304,-0.26172 0.50453,-0.21871 1.28008,-0.63415 2.01368,-0.52734 0.56003,0.089 0.57113,0.71373 0.96289,0.96289 0.44804,0.0349 0.78142,-0.089 1.13672,0 0.2689,0.0699 0.58865,0.57456 0.61328,0.78711 0.0269,0.21872 -0.14479,0.38938 -0.17578,0.52734 -0.0702,0.29331 -0.12361,0.6855 -0.17383,0.87305 -0.0443,0.14835 -0.0918,0.2911 -0.0898,0.43945 0,0.13097 0.2112,0.43592 0.35157,0.60938 0.16837,0.21521 0.41035,0.379 0.61132,0.61328 0.37214,0.42862 0.52882,1.00797 0.78907,1.57617 0.0615,0.14061 -0.0615,0.1671 0,0.34766 -0.11198,0.85641 -0.40296,1.41688 -0.96289,2.36328 -0.26631,0.30806 -0.53264,0.66972 -0.52735,1.05078 -0.0173,0.91552 0.47823,1.38789 0.43946,2.27539 -0.0924,1.1899 0.003,1.37407 -0.0898,2.00977 0.40301,0.20474 0.20408,0.8036 0.0898,1.22656 -0.17366,0.50316 -0.34152,0.62888 -0.43946,0.96484 a 1.12,1.12 0 0 0 0.61328,0.0879 25.18,25.18 0 0 1 -18.199215,7.70117 25.152,25.152 0 0 1 -9.451172,-1.83789 c -0.008,-0.006 0.008,-0.0889 0,-0.0898 0.26631,-0.11188 0.771464,0.19589 0.964844,-0.17383 0.0952,-0.17876 -0.12874,-0.52047 0,-0.69922 0.0904,-0.12324 0.685347,-0.23336 0.873047,-0.26367 0.27159,-0.0433 0.547589,0.009 0.699219,-0.0898 a 0.798,0.798 0 0 0 0.351562,-0.69922 c -0.0173,-0.14835 -0.145096,-0.21976 -0.259766,-0.35156 -0.0975,-0.1119 -0.0283,-0.24975 -0.0918,-0.34961 -0.11998,-0.17876 -0.29939,-0.26514 -0.34961,-0.52539 0.36685,-0.0702 0.871651,0.41094 1.400391,0.26172 0.25216,-0.0702 0.671782,-0.55111 0.789062,-0.78711 0.0356,-0.0702 -0.0443,-0.34953 0,-0.43555 0.0443,-0.0985 0.157098,-0.12547 0.173828,-0.17578 0.0356,-0.1371 -0.026,-0.17753 0,-0.26172 0.0924,-0.26033 0.370971,-0.42512 0.525391,-0.61523 0.11467,-0.14056 0.242183,-0.28906 0.351563,-0.4375 0.11998,-0.15702 0.178575,-0.20979 0.259765,-0.34766 0.0799,-0.46507 -0.285818,-0.82015 -0.173828,-1.22656 0.11997,-0.45987 0.783166,-0.75527 1.222656,-0.96289 0.15441,-0.0703 0.311807,-0.21474 0.441407,-0.25977 0.30517,-0.10939 0.673144,-0.0699 0.958984,-0.17578 0.47883,-0.17357 0.644133,-0.70013 0.876953,-1.13672 0.11198,-0.20483 0.240326,-0.37899 0.259766,-0.52734 0.026,-0.13104 -0.026,-0.2819 0,-0.43555 0.026,-0.15095 0.0457,-0.26991 0.0918,-0.4375 a 4.452,4.452 0 0 0 0.08789,-0.87695 c 0,-0.20224 -0.08789,-0.25159 -0.08789,-0.43555 -0.0356,-0.66028 0.192133,-0.68963 0.435543,-1.05078 0.12344,-0.17876 0.17652,-0.4829 0.26368,-0.61133 0.41187,-0.60997 1.10118,-0.91114 1.05078,-1.83789 -0.0173,-0.30803 -0.12564,-0.95265 -0.34961,-1.05078 -0.12873,-0.0519 -0.42644,-0.0158 -0.61328,-0.0879 -0.60227,-0.2239 -1.036967,-0.91251 -1.664067,-0.96289 -0.13142,-0.006 -0.201449,0.006 -0.349609,0 -0.24341,-0.006 -0.512719,-0.23326 -0.787109,-0.26367 -0.17366,-0.0169 -0.510242,0.0519 -0.613282,0 -0.15692,-0.0699 -0.133635,-0.34877 -0.259765,-0.43555 -0.10381,-0.0699 -0.279743,-0.11686 -0.439453,-0.17578 a 2.086,2.086 0 0 0 -0.699219,-0.17383 c -0.0904,-0.006 -0.33696,0.0169 -0.4375,0 -0.15691,-0.0265 -0.289887,-0.17169 -0.435547,-0.26367 -0.18511,-0.11197 -0.273699,-0.19077 -0.349609,-0.34961 0.1675,-0.54837 -0.415354,-0.64166 -0.527344,-0.96094 -0.0529,-0.14834 0.0529,-0.39092 0,-0.52539 -0.0615,-0.1883 -0.22758,-0.28047 -0.4375,-0.4375 -0.36425,-0.28547 -0.698419,-0.54457 -1.224609,-0.61133 -0.23282,-0.0264 -0.505667,0.0169 -0.785157,0 a 1.3636,1.3636 0 0 1 -0.876953,-0.4375 c -0.21522,-0.25251 -0.252423,-0.49619 -0.439453,-0.61328 -0.17645,-0.1119 -0.489405,-0.14573 -0.609375,-0.26367 -0.0529,-0.0519 -0.03504,-0.14533 -0.08984,-0.25977 -0.0904,-0.1848 -0.285808,-0.21649 -0.173828,-0.43945 -0.20463,-0.10066 -0.130919,0.12817 -0.349609,0.0898 -0.19569,-0.27943 -0.33906,-0.43581 -0.78711,-0.35156 -0.20464,0.0435 -0.376031,0.34637 -0.613281,0.35156 -0.19569,0.006 -0.353131,-0.31607 -0.613281,-0.35156 -0.19569,-0.0264 -0.475355,0.20704 -0.609375,0.17578 -0.22138,-0.0349 -0.240973,-0.30643 -0.439453,-0.4375 -0.14546,-0.0986 -0.442428,-0.35565 -0.523438,-0.34961 -0.25485,0.006 -0.436362,0.53789 -0.789062,0.34961 -0.17116,-0.21872 0.293164,-0.23363 0.08984,-0.4375 -0.15441,-0.151 -0.22877,0.008 -0.34961,0.0898 -0.14297,0.0953 -0.281706,0.20678 -0.441406,0.25976 -0.3501,0.13362 -0.597987,0.12052 -0.873047,0.26367 -0.25216,0.13362 -0.29193,0.35303 -0.4375,0.61328 -0.11728,0.21257 -0.346341,0.51416 -0.525391,0.52539 -0.21252,0.0169 -0.420838,-0.26733 -0.611328,-0.35156 -0.58822,-0.25251 -0.916847,0.17059 -1.398437,0.17578 -0.44805,0.006 -1.073181,-0.71401 -1.050781,-1.13672 0.0173,-0.26024 0.143148,-0.64533 0.173828,-0.96484 0.026,-0.25251 0.256428,-0.46408 0.261718,-0.69922 0.006,-0.30803 -0.497368,-0.57768 -0.699218,-0.61328 -0.47883,-0.089 -1.120963,0.21606 -1.664063,0 -0.10063,-0.17357 0.202772,-0.26802 0.263672,-0.43555 0.0356,-0.0986 -0.0356,-0.15781 0,-0.26367 0.0615,-0.16223 0.271109,-0.26282 0.349609,-0.43554 0.0529,-0.13108 0.02639,-0.36512 0.08789,-0.52735 0.0703,-0.18134 0.246072,-0.30192 0.263672,-0.43555 0.0173,-0.17352 -0.126182,-0.41348 -0.263672,-0.52539 a 2.7271,2.7271 0 0 0 -0.962891,0.17383 c -0.54859,0.25249 -0.406197,0.96697 -0.960937,1.14063 -0.1904,0.0604 -0.486789,0.14087 -0.699219,0.17383 a 24.949,24.949 0 0 1 1.660156,-5.25 c 0.1957,0.0347 0.358874,0.15931 0.527344,0.17578 0.46738,0.0347 0.485997,-0.32063 0.873047,-0.52539 0.39773,0.0521 0.601921,-0.0347 0.962891,0 0.24341,0.0261 0.593919,0.33573 0.787109,0.34961 0.16221,0.006 0.195199,-0.20377 0.349609,-0.17774 0.15441,0.0261 0.412134,0.34515 0.439454,0.52734 0.026,0.22907 -0.153854,0.4487 -0.08984,0.70118 0.24072,0.24381 0.708981,0.38222 1.050781,0.52539 0.22397,-0.18394 0.0356,-0.61034 0,-0.87696 -0.006,-0.11713 0.0173,-0.24374 0,-0.34961 -0.026,-0.18134 -0.08789,-0.36574 -0.08789,-0.52539 0,-0.72797 0.560712,-1.02484 1.050782,-1.31054 0.20993,-0.1232 0.427088,-0.34748 0.611328,-0.43946 0.25745,-0.12581 0.398898,-0.14002 0.611328,-0.25976 0.38888,-0.21866 0.749258,-0.45128 1.048828,-0.70117 0.14018,-0.330573 -0.0173,-0.724291 0,-1.048831 0.14018,-0.0885 0.206093,0.0174 0.351563,0 0.23542,-0.052 0.30598,-0.392854 0.4375,-0.527344 0.0798,-0.0781 0.34581,-0.0983 0.4375,-0.173828 0.23543,-0.18395 0.234476,-0.445784 0.435546,-0.527344 0.0702,-0.0261 0.239583,-0.05149 0.351563,-0.08789 0.15442,-0.0433 0.367918,-0.176031 0.611328,-0.263671 0.15691,-0.052 0.552471,-0.02549 0.613281,-0.08789 0.0789,-0.0781 -0.0173,-0.409344 0,-0.527344 0.11997,-0.5744 0.971228,-0.594266 1.486328,-0.785156 0.3554,-0.14056 0.740852,-0.427052 1.138672,-0.351562 -0.0798,0.27418 -0.416022,0.1948 -0.351562,0.52539 0.0875,0.46246 0.624062,-0.111581 0.789062,-0.175781 0.30768,-0.13101 0.904417,-0.20211 1.310547,-0.349609 0.35799,-0.125821 0.949631,-0.37584 0.613281,-0.78711 -0.28035,-0.0174 -0.367271,0.24982 -0.613281,0.34961 -0.1675,0.0261 -0.206639,-0.07749 -0.349609,-0.08789 -0.13767,-0.006 -0.21194,0.111321 -0.34961,0.08789 -0.13768,-0.0261 -0.327569,-0.273297 -0.349609,-0.435547 -0.0529,-0.42862 0.437668,-0.560014 0.611328,-0.876953 -0.11728,-0.386111 -0.63529,-0.0264 -0.96289,-0.173829 0.0356,-0.22907 0.167753,-0.479633 0.439453,-0.527343 a 1.7305,1.7305 0 0 1 0.873047,0.177734 c 0.0779,0.0607 -0.02661,0.240279 0.08789,0.349609 0.13401,0.11713 0.353494,0.0261 0.527344,0 0.0615,-0.29067 -0.399829,-0.161319 -0.349609,-0.349609 0.34481,-0.22386 0.975627,-0.122214 1.398437,-0.177734 0.24341,-0.0347 0.482492,-0.23248 0.701172,-0.34961 0.20194,-0.11713 0.396845,-0.27964 0.609375,-0.08789 0.0615,0.20997 -0.145086,0.33165 -0.259766,0.4375 -0.39244,0.34793 -0.744058,0.735711 -1.048828,1.138672 0.18789,0.181349 0.468526,0.05149 0.785156,0.08789 0.12343,0.0174 0.30868,0.071 0.4375,0.0918 0.15441,0.0261 0.316884,-0.0261 0.439454,0 0.21252,0.052 0.222926,0.349609 0.435546,0.349609 0.34481,0 0.372309,-0.291343 0.173829,-0.527343 0.0615,-0.23774 0.175893,-0.441915 0.08984,-0.609375 -0.15971,-0.31669 -0.755482,0.05207 -0.789062,-0.34961 -0.0173,-0.25509 0.261612,-0.333863 0.351562,-0.527344 -0.0356,-0.487629 0.39983,-0.518517 0.34961,-0.960937 -0.026,-0.18394 -0.22347,-0.178669 -0.34961,-0.349609 -0.0615,-0.0928 -0.09768,-0.28539 -0.173828,-0.34961 -0.26631,-0.22386 -0.755492,-0.188567 -0.789062,-0.617187 -0.0173,-0.25249 0.0356,-0.421559 0,-0.699219 -0.0356,-0.25769 -0.301511,-0.996495 -0.525391,-1.046875 -0.28564,-0.0607 -0.446506,0.452335 -0.785156,0.609375 a 1.3804,1.3804 0 0 1 -0.701172,0.08984 c -0.12343,-0.0261 -0.335569,-0.1162 -0.349609,-0.34961 -0.0173,-0.13362 0.02629,-0.182102 0.08789,-0.263672 0.0173,-0.0174 -0.0173,-0.06879 0,-0.08789 a 25.396,25.396 0 0 1 7,-0.962891 z m -10.412109,2.275391 v 0.002 c -0.24601,0.79565 -0.966268,1.249809 -1.923828,1.224609 -0.23542,0.22386 -0.137732,0.652231 -0.263672,0.962891 a 0.7728,0.7728 0 0 1 -0.699219,0.435547 c -0.18789,-0.0174 -0.527344,-0.259417 -0.527344,-0.435547 0,-0.14576 0.141465,-0.311033 0.177735,-0.439453 a 24.987,24.987 0 0 1 3.236328,-1.75 z m 21.437498,0.875 0.002,0.002 a 0.76721,0.76721 0 0 0 -0.26367,0.08789 c -0.19569,0.11713 -0.20415,0.293209 -0.34961,0.349609 -0.20993,0.0781 -0.49637,0.07801 -0.52734,0.263672 -0.026,0.15705 0.18302,0.207309 0.17773,0.349609 -0.0798,0.18828 -0.2249,0.206477 -0.26367,0.435547 0.26014,0.42254 0.90452,0.0066 1.22656,-0.08789 0.14017,-0.0433 0.27185,0.02671 0.34766,-0.08789 0.0875,-0.14057 0.0167,-0.420651 0.0898,-0.613281 0.0702,-0.21257 0.28805,-0.16218 0.25977,-0.34961 -0.0173,-0.18828 -0.3826,-0.380849 -0.69922,-0.349609 z m -27.740233,3.238281 h 0.002 c 0.1879,0.22386 0.34481,0.553439 0,0.699219 -0.0529,0.0261 -0.66358,0.111574 -0.78711,0.08984 -0.0356,-0.006 -0.05329,-0.06034 -0.08789,-0.08984 0.26641,-0.2603 0.595296,-0.449329 0.873046,-0.699219 z m 0.705079,0.871094 -0.0039,0.0059 c 0.12343,0.006 0.20665,0.251956 0.34961,0.259766 0.14018,0.0174 0.356746,-0.111321 0.441406,-0.08789 0.21252,0.0521 0.291331,0.452335 0.08789,0.609375 -0.1675,0.0174 -0.224217,-0.201821 -0.347657,-0.175781 -0.3474,0.0607 -0.443722,0.720909 -0.701172,0.699219 -0.24602,-0.0261 -0.425341,-0.520479 -0.175781,-0.699219 0.006,-0.15099 -0.09789,-0.197113 -0.08789,-0.351563 0.0789,-0.0954 0.23295,-0.276255 0.4375,-0.259765 z m -1.138672,0.175781 -0.002,0.002 c 0.0703,0 0.06179,-0.0261 0.08789,0 -0.0356,0.27157 -0.139689,0.311033 -0.349609,0.439453 a 1.4336,1.4336 0 0 0 -0.701172,0.960938 c -0.0356,0.14056 -0.438305,0.560324 -0.609375,0.527344 -0.40311,-0.0885 0.167116,-0.847664 0.259766,-0.964844 0.10382,-0.12842 0.232329,-0.207309 0.349609,-0.34961 0.11728,-0.140559 0.151692,-0.44123 0.263672,-0.52539 0.12344,-0.0885 0.487782,-0.09674 0.701172,-0.08984 z m 34.474606,0.703125 c 0.40032,-0.0261 0.60147,0.456259 0.7832,0.699219 0.15442,0.19869 0.6273,0.477061 0.87696,0.613281 0.14296,0.0781 0.27975,0.190792 0.43945,0.263672 0.165,0.0694 0.41555,0.167389 0.61133,0.349609 0.19569,0.17874 0.34432,0.447125 0.34961,0.609375 0.006,0.16485 -0.11238,0.285864 -0.0879,0.439453 0.17645,0.0261 0.27036,-0.150049 0.35156,-0.349609 0.66057,0.9409 1.2209,1.945157 1.75,2.972657 a 0.33039,0.33039 0 0 0 -0.17774,0.26367 c -0.0529,0.28545 0.16789,0.65083 -0.25976,0.70117 -0.27159,0.0347 -0.59037,-0.26892 -0.96289,-0.34961 -0.15076,-0.0347 -0.40382,0.0347 -0.52735,0 -0.27949,-0.098 -0.19463,-0.44583 -0.43554,-0.61328 a 1.96,1.96 0 0 0 -0.70117,-0.25976 c -0.13768,-0.0174 -0.20664,0.0174 -0.34961,0 -0.17366,-0.0261 -0.46921,3.5e-4 -0.60938,-0.0899 -0.14018,-0.0885 -0.49107,-0.23247 -0.52734,-0.34961 -0.0529,-0.18829 0.42756,-0.45428 0.43554,-0.61132 0.009,-0.12321 -0.14638,-0.16588 -0.17187,-0.35157 -0.0173,-0.11193 0.0269,-0.277373 0,-0.347653 -0.0356,-0.13362 -0.22952,-0.258462 -0.43945,-0.263672 -0.18174,0 -0.36402,0.08984 -0.52344,0.08984 -0.22397,0.006 -0.68507,-0.113274 -0.96484,-0.08984 -0.1675,0.0174 -0.27844,0.07944 -0.43555,0.08984 -0.44275,0.0347 -0.70358,-0.0261 -1.05078,0 -0.25217,0.0174 -0.72718,0.155858 -0.96289,0.261719 -0.11728,0.052 -0.19519,0.184276 -0.34961,0.259766 -0.0702,0.0347 -0.16712,0.0449 -0.25977,0.0918 -0.14296,0.0607 -0.38967,0.22333 -0.52734,0.25977 -0.19569,0.052 -0.42652,-0.0174 -0.78711,0 -0.26015,0.0174 -0.69306,-0.0353 -0.69922,-0.34766 -0.006,-0.476355 0.86516,-0.26937 1.31055,-0.35352 0.1675,-0.0347 0.23569,-0.231173 0.43945,-0.345703 0.0952,-0.052 0.16712,-0.114182 0.25977,-0.175782 0.15441,-0.10672 0.41482,-0.31776 0.43945,-0.4375 0.0173,-0.11193 -0.10414,-0.268919 -0.0918,-0.349609 0.0173,-0.10672 0.21325,-0.212509 0.35352,-0.349609 0.21243,-0.21605 0.34663,-0.477072 0.60937,-0.613282 0.17895,-0.098 0.53228,-0.118568 0.61328,-0.261718 0.0173,-0.16225 -0.006,-0.20211 0,-0.34961 0.11199,-0.10067 0.0792,-0.154738 0.17578,-0.173828 0.2742,-0.0607 0.55318,0.102601 0.875,0.08789 0.14017,-0.006 0.28989,0.0096 0.43555,-0.08789 0.12344,-0.0885 0.23072,-0.202942 0.35156,-0.263672 0.13401,-0.0694 0.27447,-0.252402 0.43946,-0.263672 z m -31.296872,0.244141 c 0.06513,-0.0065 0.119979,-0.0065 0.146484,0.01953 -0.0875,0.33579 -0.872931,0.209371 -1.138671,0.08789 0.0079,-0.06019 0.106768,-0.07746 0.173828,-0.08789 h 0.002 c 0.07028,-0.0086 0.179624,0.0079 0.263672,0 0.11467,-0.006 0.223479,0 0.349609,0 0.06306,0 0.137993,-0.01303 0.203125,-0.01953 z m 31.419922,0.599609 c -0.007,0.0065 -0.0112,0.0245 -0.0371,0.0332 -0.1675,0.052 -0.25217,0.391287 0,0.435547 0.11728,-0.0694 0.11767,-0.222977 0.0879,-0.435547 -0.0352,-0.0347 -0.0442,-0.0397 -0.0508,-0.0332 z m -33.070313,0.01953 c 0.04341,-0.0043 0.08854,-0.0037 0.134766,0.01367 -0.23542,0.19609 -0.556891,0.307137 -0.962891,0.435547 -0.19569,0.0607 -0.491073,0.12642 -0.527343,-0.08789 -0.0356,-0.266379 0.178459,-0.238501 0.349609,-0.263671 0.22398,-0.0261 0.616803,-0.08789 0.876953,-0.08789 v 0.0039 c 0.04375,0 0.0855,-0.0093 0.128906,-0.01367 z m 32.943353,0.712891 c -0.0799,0.0261 -0.17327,-0.0066 -0.25976,0.08789 0.006,0.28545 0.0529,0.448681 0,0.701172 0.16221,0.316689 0.53087,0.126419 0.60937,-0.08789 0.0985,-0.53187 -0.10405,-0.767972 -0.34765,-0.701172 z m 2.18946,1.396484 v 0.0039 a 0.75321,0.75321 0 0 0 -0.52735,0.173828 c 0.19039,0.30802 0.54221,0.364833 0.96485,0.439453 0.15162,-0.11193 0.10314,-0.421098 0.17578,-0.617188 -0.18424,0 -0.30318,0.0174 -0.52735,0 z M 75.059038,109.92578 c 0.17895,0.2291 0.371255,0.4937 0.609375,0.61524 0.12873,0.0604 0.277243,0.0527 0.439453,0.0898 0.13141,0.0265 0.22348,0.13763 0.34961,0.17578 0.2689,0.0932 0.6617,0.0781 0.875,0.17578 0.32721,0.14062 0.506782,0.71171 0.789062,0.875 0.0173,0.16222 -0.0529,0.3158 0,0.43555 0.13142,0.17875 0.396855,0.23156 0.609375,0.34961 0.26015,0.14316 0.369971,0.50139 0.613281,0.61328 0.0875,0.0349 0.2182,-0.0349 0.34961,0 0.33587,0.10066 0.410242,0.61063 0.701172,0.52734 0.1879,-0.052 0.230938,-0.34519 0.261718,-0.52734 0.12613,-0.14061 0.23912,-0.34961 0.4375,-0.34961 0.31662,-0.006 0.408111,0.39117 0.525391,0.69922 0.0615,0.17356 0.217659,0.34169 0.261719,0.52734 a 4.592,4.592 0 0 1 0,1.40039 c -0.0798,0.23248 -0.420938,0.35517 -0.611328,0.60938 -0.0924,0.12323 -0.192159,0.26887 -0.261719,0.34961 -0.12344,0.15449 -0.258913,0.2125 -0.351563,0.34961 -0.0529,0.0784 -0.04374,0.24375 -0.08984,0.34961 -0.15076,0.32795 -0.388496,0.57142 -0.259766,0.96289 0.0529,0.15704 0.259766,0.33651 0.259766,0.52734 0,0.2238 -0.486498,0.27878 -0.523438,0.52344 -0.0269,0.17876 0.207202,0.54849 0.263672,0.78711 0.0356,0.17876 0.329617,0.32346 0.435547,0.4414 0.17894,0.19614 0.365034,0.44417 0.527344,0.69922 0.31922,0.49288 0.469283,1.09252 0.783203,1.57422 0.1675,0.25254 0.505207,0.43282 0.617187,0.69922 0.0529,0.13104 -0.0529,0.40323 0,0.52734 0.18174,0.41216 1.072875,0.84564 1.484375,1.04688 0.1957,0.0985 0.348941,0.16294 0.525391,0.26367 0.27169,0.15442 0.827844,0.46139 0.964844,0.69922 0.12343,0.21522 0.200918,0.70868 0.261718,1.05078 0.0789,0.44767 -0.0173,0.82786 0,1.3125 0.0173,0.26294 0.08789,0.43477 0.08789,0.70117 0,0.0924 0.006,0.25763 0,0.34961 -0.006,0.31672 0.026,0.64348 0,0.96289 a 3.6456,3.6456 0 0 0 0,0.52344 c 0.0173,0.15971 0.164331,0.21241 0.175781,0.34961 0.009,0.14835 -0.192521,0.32346 -0.175781,0.44141 0.0356,0.31923 0.374647,0.57874 0.435547,0.87304 0.0529,0.23514 0.118677,0.77036 0.0918,1.05078 -0.026,0.14835 -0.0716,0.36318 -0.0918,0.52539 -0.0173,0.12574 0.0173,0.23327 0,0.34766 -6.9748,-4.4804 -11.634766,-12.26478 -11.634766,-21.17578 0,-1.1424 0.115602,-2.22287 0.263672,-3.32617 z m 9.701172,2.51953 c 0.152998,0.008 0.09555,0.34253 -0.07813,0.36914 -0.18789,0.0265 -0.18173,-0.26367 0,-0.34961 0.03075,-0.014 0.05627,-0.0207 0.07813,-0.0195 z" />
    <path
       id="path22"
       style="fill:url(#linearGradient23);fill-opacity:1"
       d="m 28.156694,33.427734 -6.298828,6.300782 V 71.126953 L 28.988726,64 h 40 L 80.41646,52.572266 h 90.60156 l 7.12891,7.126953 v -8.541016 l -6.30078,-6.300781 H 69.57271 v -5.128906 l -6.300781,-6.300782 z m 0.830079,2 h 33.457031 l 5.128906,5.128907 v 6.300781 h 103.44531 l 5.12891,5.128906 v 2.884766 l -4.30078,-4.298828 H 79.588335 L 68.160601,62 h -40 l -4.302735,4.300781 V 40.556641 Z M 79.586382,62.570312 68.156694,74 h -40 l -6.298828,6.298828 -0.002,75.115232 6.298828,6.29883 H 171.84419 l 6.30079,-6.29883 V 68.871094 l -6.30079,-6.300782 z m 0.828125,2 h 90.601563 l 5.12891,5.128907 v 84.884761 l -5.12891,5.12891 H 28.984819 l -5.128906,-5.12891 0.002,-73.455074 L 28.986773,76 h 40 z m 19.583984,20.681641 c -0.96872,0 -1.943118,0.07775 -2.886718,0.175781 a 27.441,27.441 0 0 0 -5.425782,1.050782 28.126,28.126 0 0 0 -18.460937,18.458984 27.441,27.441 0 0 0 -1.048828,5.42773 28.084,28.084 0 0 0 -0.177735,2.88672 c 0,0.96872 0.08109,1.94312 0.177735,2.88672 a 27.441,27.441 0 0 0 1.048828,5.42578 28.126,28.126 0 0 0 18.460937,18.46094 27.441,27.441 0 0 0 5.425782,1.05273 c 0.94362,0.0953 1.917818,0.17188 2.886718,0.17188 0.968929,0 1.942919,-0.0785 2.886719,-0.17578 a 27.441,27.441 0 0 0 5.42773,-1.04688 28.603,28.603 0 0 0 5.07227,-2.18945 27.949,27.949 0 0 0 13.39063,-16.27344 27.441,27.441 0 0 0 1.04687,-5.42773 c 0.0985,-0.9436 0.17578,-1.91792 0.17578,-2.88672 0,-0.96584 -0.0791,-1.94592 -0.17578,-2.88672 a 27.441,27.441 0 0 0 -1.04687,-5.42578 28.197,28.197 0 0 0 -5.16407,-9.537109 c -0.57147,-0.69153 -1.20239,-1.290082 -1.83789,-1.925782 -2.5285,-2.5284 -5.48679,-4.623009 -8.83789,-6.037109 a 29.014,29.014 0 0 0 -2.62305,-0.960938 27.441,27.441 0 0 0 -5.42578,-1.048828 28.879,28.879 0 0 0 -2.88672,-0.175781 z m -0.002,2.798828 0.002,0.002 c 4.236299,0 8.221459,1.038919 11.726559,2.886719 0.0924,0.052 0.16798,0.125461 0.25977,0.175781 0.0703,0.0928 0.0542,0.192956 0.17773,0.259766 0.0904,0.052 0.17607,0.130671 0.25977,0.175781 0.14826,0.0885 0.2927,0.20731 0.26172,0.34961 -0.0356,0.20998 -0.38057,0.197122 -0.52344,0.351562 0.0173,0.29327 -0.1,0.236857 -0.17578,0.435547 0.0443,0.12842 0.15625,0.111832 0.17578,0.263672 -0.0269,0.16225 -0.23745,0.181279 -0.17578,0.349609 0.2742,0.21257 0.52882,0.0347 0.78906,0 0.56792,-0.0694 1.04749,0.01019 1.40039,-0.261719 -0.0356,-0.218639 0.16712,-0.28045 0.25977,-0.4375 0.18789,0.131021 0.34366,0.30388 0.52539,0.4375 -0.10669,0.0433 -0.33946,0.114192 -0.4375,0.175782 -0.14017,0.0954 -0.18526,0.243749 -0.34766,0.349609 -0.11728,0.0781 -0.40372,0.349609 -0.52734,0.349609 -0.14826,0 -0.4187,-0.122843 -0.52539,-0.08984 -0.15077,0.0433 -0.092,0.290609 -0.26172,0.349609 -0.33597,0.12321 -0.9312,-0.327459 -1.04883,0.175781 0.14018,0.29067 0.61819,0.19343 0.87305,0.34961 0.15971,0.10067 0.39721,0.617049 0.43945,0.787109 a 2.0524,2.0524 0 0 1 0,0.789063 c -0.15971,0.40606 -0.582,0.358289 -1.05273,0.349609 -0.12612,0 -0.23297,0.009 -0.34766,0 -0.78929,-0.052 -1.56738,-0.303344 -1.92578,0.259766 0.0269,0.43383 0.0975,0.672441 0,1.050781 -0.0702,0.27418 -0.36375,0.461479 -0.34961,0.699219 0.006,0.1232 0.2318,0.359033 0.26172,0.527343 0.0173,0.0902 -0.0443,0.26892 0,0.34961 0.13142,0.24988 0.46574,-0.0433 0.70117,0 0.22397,0.0347 0.43555,0.363825 0.43555,0.609371 a 1.5989,1.5989 0 0 1 -0.17578,0.70118 c -0.22397,0.33579 -0.64143,0.25551 -0.96094,0.43945 -0.26631,0.15098 -0.36568,0.52161 -0.52539,0.78711 -0.16836,0.28546 -0.32682,0.38105 -0.25977,0.78711 a 1.89,1.89 0 0 1 -0.96484,0.96289 2.7664,2.7664 0 0 0 -0.4375,0.26367 2.2177,2.2177 0 0 0 -0.34766,0.34961 c -0.17895,0.19608 -0.4294,0.28197 -0.52734,0.43555 -0.0703,0.11713 -0.009,0.36769 -0.0879,0.52734 -0.11199,0.21257 -0.29744,0.39679 -0.43945,0.60938 -0.0615,0.1032 -0.19011,0.21967 -0.25977,0.35156 -0.1622,0.29673 -0.38041,0.52876 -0.34961,0.78906 0.0269,0.24989 0.33557,0.3048 0.34961,0.52344 0.0173,0.12321 -0.0918,0.21859 -0.0898,0.34961 0.008,0.19604 0.0696,0.28651 0.0898,0.4375 0.0356,0.3783 -0.19324,0.52882 -0.26367,0.78906 -0.0356,0.12059 0.026,0.25315 0,0.34766 -0.0615,0.19084 -0.34432,0.30159 -0.34961,0.52539 -0.006,0.15704 0.24498,0.30355 0.26172,0.52734 0.009,0.15185 -0.11673,0.29239 -0.0899,0.43555 0.0529,0.27412 0.57385,0.66138 0.78907,0.875 0.28843,0.29066 0.57244,0.48113 0.70117,0.78906 0.10669,0.25771 0.15027,0.68226 0.34961,0.875 0.14547,0.14061 0.42157,0.20125 0.60937,0.34961 0.17895,0.1405 0.42669,0.20125 0.61719,0.34961 0.30767,0.24297 0.72854,0.73761 1.22461,0.70117 0.25745,-0.0169 0.49413,-0.12291 0.78516,-0.17578 0.29988,-0.0519 0.65938,-0.20509 0.96484,-0.17383 0.23282,0.0264 0.45225,0.1905 0.69922,0.17578 0.25216,-0.0169 0.58471,-0.13679 0.87304,-0.26172 0.50453,-0.21871 1.28008,-0.63415 2.01368,-0.52734 0.56003,0.089 0.57113,0.71373 0.96289,0.96289 0.44804,0.0349 0.78142,-0.089 1.13672,0 0.2689,0.0699 0.58865,0.57456 0.61328,0.78711 0.0269,0.21872 -0.14479,0.38938 -0.17578,0.52734 -0.0702,0.29331 -0.12361,0.6855 -0.17383,0.87305 -0.0443,0.14835 -0.0918,0.2911 -0.0898,0.43945 0,0.13097 0.2112,0.43592 0.35157,0.60938 0.16837,0.21521 0.41035,0.379 0.61132,0.61328 0.37214,0.42862 0.52882,1.00797 0.78907,1.57617 0.0615,0.14061 -0.0615,0.1671 0,0.34766 -0.11198,0.85641 -0.40296,1.41688 -0.96289,2.36328 -0.26631,0.30806 -0.53264,0.66972 -0.52735,1.05078 -0.0173,0.91552 0.47823,1.38789 0.43946,2.27539 -0.0924,1.1899 0.003,1.37407 -0.0898,2.00977 0.40301,0.20474 0.20408,0.8036 0.0898,1.22656 -0.17366,0.50316 -0.34152,0.62888 -0.43946,0.96484 a 1.12,1.12 0 0 0 0.61328,0.0879 25.18,25.18 0 0 1 -18.199215,7.70117 25.152,25.152 0 0 1 -9.451172,-1.83789 c -0.008,-0.006 0.008,-0.0889 0,-0.0898 0.26631,-0.11188 0.771464,0.19589 0.964844,-0.17383 0.0952,-0.17876 -0.12874,-0.52047 0,-0.69922 0.0904,-0.12324 0.685347,-0.23336 0.873047,-0.26367 0.27159,-0.0433 0.547589,0.009 0.699219,-0.0898 a 0.798,0.798 0 0 0 0.351562,-0.69922 c -0.0173,-0.14835 -0.145096,-0.21976 -0.259766,-0.35156 -0.0975,-0.1119 -0.0283,-0.24975 -0.0918,-0.34961 -0.11998,-0.17876 -0.29939,-0.26514 -0.34961,-0.52539 0.36685,-0.0702 0.871651,0.41094 1.400391,0.26172 0.25216,-0.0702 0.671782,-0.55111 0.789062,-0.78711 0.0356,-0.0702 -0.0443,-0.34953 0,-0.43555 0.0443,-0.0985 0.157098,-0.12547 0.173828,-0.17578 0.0356,-0.1371 -0.026,-0.17753 0,-0.26172 0.0924,-0.26033 0.370971,-0.42512 0.525391,-0.61523 0.11467,-0.14056 0.242183,-0.28906 0.351563,-0.4375 0.11998,-0.15702 0.178575,-0.20979 0.259765,-0.34766 0.0799,-0.46507 -0.285818,-0.82015 -0.173828,-1.22656 0.11997,-0.45987 0.783166,-0.75527 1.222656,-0.96289 0.15441,-0.0703 0.311807,-0.21474 0.441407,-0.25977 0.30517,-0.10939 0.673144,-0.0699 0.958984,-0.17578 0.47883,-0.17357 0.644133,-0.70013 0.876953,-1.13672 0.11198,-0.20483 0.240326,-0.37899 0.259766,-0.52734 0.026,-0.13104 -0.026,-0.2819 0,-0.43555 0.026,-0.15095 0.0457,-0.26991 0.0918,-0.4375 a 4.452,4.452 0 0 0 0.08789,-0.87695 c 0,-0.20224 -0.08789,-0.25159 -0.08789,-0.43555 -0.0356,-0.66028 0.192133,-0.68963 0.435543,-1.05078 0.12344,-0.17876 0.17652,-0.4829 0.26368,-0.61133 0.41187,-0.60997 1.10118,-0.91114 1.05078,-1.83789 -0.0173,-0.30803 -0.12564,-0.95265 -0.34961,-1.05078 -0.12873,-0.0519 -0.42644,-0.0158 -0.61328,-0.0879 -0.60227,-0.2239 -1.036967,-0.91251 -1.664067,-0.96289 -0.13142,-0.006 -0.201449,0.006 -0.349609,0 -0.24341,-0.006 -0.512719,-0.23326 -0.787109,-0.26367 -0.17366,-0.0169 -0.510242,0.0519 -0.613282,0 -0.15692,-0.0699 -0.133635,-0.34877 -0.259765,-0.43555 -0.10381,-0.0699 -0.279743,-0.11686 -0.439453,-0.17578 a 2.086,2.086 0 0 0 -0.699219,-0.17383 c -0.0904,-0.006 -0.33696,0.0169 -0.4375,0 -0.15691,-0.0265 -0.289887,-0.17169 -0.435547,-0.26367 -0.18511,-0.11197 -0.273699,-0.19077 -0.349609,-0.34961 0.1675,-0.54837 -0.415354,-0.64166 -0.527344,-0.96094 -0.0529,-0.14834 0.0529,-0.39092 0,-0.52539 -0.0615,-0.1883 -0.22758,-0.28047 -0.4375,-0.4375 -0.36425,-0.28547 -0.698419,-0.54457 -1.224609,-0.61133 -0.23282,-0.0264 -0.505667,0.0169 -0.785157,0 a 1.3636,1.3636 0 0 1 -0.876953,-0.4375 c -0.21522,-0.25251 -0.252423,-0.49619 -0.439453,-0.61328 -0.17645,-0.1119 -0.489405,-0.14573 -0.609375,-0.26367 -0.0529,-0.0519 -0.03504,-0.14533 -0.08984,-0.25977 -0.0904,-0.1848 -0.285808,-0.21649 -0.173828,-0.43945 -0.20463,-0.10066 -0.130919,0.12817 -0.349609,0.0898 -0.19569,-0.27943 -0.33906,-0.43581 -0.78711,-0.35156 -0.20464,0.0435 -0.376031,0.34637 -0.613281,0.35156 -0.19569,0.006 -0.353131,-0.31607 -0.613281,-0.35156 -0.19569,-0.0264 -0.475355,0.20704 -0.609375,0.17578 -0.22138,-0.0349 -0.240973,-0.30643 -0.439453,-0.4375 -0.14546,-0.0986 -0.442428,-0.35565 -0.523438,-0.34961 -0.25485,0.006 -0.436362,0.53789 -0.789062,0.34961 -0.17116,-0.21872 0.293164,-0.23363 0.08984,-0.4375 -0.15441,-0.151 -0.22877,0.008 -0.34961,0.0898 -0.14297,0.0953 -0.281706,0.20678 -0.441406,0.25976 -0.3501,0.13362 -0.597987,0.12052 -0.873047,0.26367 -0.25216,0.13362 -0.29193,0.35303 -0.4375,0.61328 -0.11728,0.21257 -0.346341,0.51416 -0.525391,0.52539 -0.21252,0.0169 -0.420838,-0.26733 -0.611328,-0.35156 -0.58822,-0.25251 -0.916847,0.17059 -1.398437,0.17578 -0.44805,0.006 -1.073181,-0.71401 -1.050781,-1.13672 0.0173,-0.26024 0.143148,-0.64533 0.173828,-0.96484 0.026,-0.25251 0.256428,-0.46408 0.261718,-0.69922 0.006,-0.30803 -0.497368,-0.57768 -0.699218,-0.61328 -0.47883,-0.089 -1.120963,0.21606 -1.664063,0 -0.10063,-0.17357 0.202772,-0.26802 0.263672,-0.43555 0.0356,-0.0986 -0.0356,-0.15781 0,-0.26367 0.0615,-0.16223 0.271109,-0.26282 0.349609,-0.43554 0.0529,-0.13108 0.02639,-0.36512 0.08789,-0.52735 0.0703,-0.18134 0.246072,-0.30192 0.263672,-0.43555 0.0173,-0.17352 -0.126182,-0.41348 -0.263672,-0.52539 a 2.7271,2.7271 0 0 0 -0.962891,0.17383 c -0.54859,0.25249 -0.406197,0.96697 -0.960937,1.14063 -0.1904,0.0604 -0.486789,0.14087 -0.699219,0.17383 a 24.949,24.949 0 0 1 1.660156,-5.25 c 0.1957,0.0347 0.358874,0.15931 0.527344,0.17578 0.46738,0.0347 0.485997,-0.32063 0.873047,-0.52539 0.39773,0.0521 0.601921,-0.0347 0.962891,0 0.24341,0.0261 0.593919,0.33573 0.787109,0.34961 0.16221,0.006 0.195199,-0.20377 0.349609,-0.17774 0.15441,0.0261 0.412134,0.34515 0.439454,0.52734 0.026,0.22907 -0.153854,0.4487 -0.08984,0.70118 0.24072,0.24381 0.708981,0.38222 1.050781,0.52539 0.22397,-0.18394 0.0356,-0.61034 0,-0.87696 -0.006,-0.11713 0.0173,-0.24374 0,-0.34961 -0.026,-0.18134 -0.08789,-0.36574 -0.08789,-0.52539 0,-0.72797 0.560712,-1.02484 1.050782,-1.31054 0.20993,-0.1232 0.427088,-0.34748 0.611328,-0.43946 0.25745,-0.12581 0.398898,-0.14002 0.611328,-0.25976 0.38888,-0.21866 0.749258,-0.45128 1.048828,-0.70117 0.14018,-0.330573 -0.0173,-0.724291 0,-1.048831 0.14018,-0.0885 0.206093,0.0174 0.351563,0 0.23542,-0.052 0.30598,-0.392854 0.4375,-0.527344 0.0798,-0.0781 0.34581,-0.0983 0.4375,-0.173828 0.23543,-0.18395 0.234476,-0.445784 0.435546,-0.527344 0.0702,-0.0261 0.239583,-0.05149 0.351563,-0.08789 0.15442,-0.0433 0.367918,-0.176031 0.611328,-0.263671 0.15691,-0.052 0.552471,-0.02549 0.613281,-0.08789 0.0789,-0.0781 -0.0173,-0.409344 0,-0.527344 0.11997,-0.5744 0.971228,-0.594266 1.486328,-0.785156 0.3554,-0.14056 0.740852,-0.427052 1.138672,-0.351562 -0.0798,0.27418 -0.416022,0.1948 -0.351562,0.52539 0.0875,0.46246 0.624062,-0.111581 0.789062,-0.175781 0.30768,-0.13101 0.904417,-0.20211 1.310547,-0.349609 0.35799,-0.125821 0.949631,-0.37584 0.613281,-0.78711 -0.28035,-0.0174 -0.367271,0.24982 -0.613281,0.34961 -0.1675,0.0261 -0.206639,-0.07749 -0.349609,-0.08789 -0.13767,-0.006 -0.21194,0.111321 -0.34961,0.08789 -0.13768,-0.0261 -0.327569,-0.273297 -0.349609,-0.435547 -0.0529,-0.42862 0.437668,-0.560014 0.611328,-0.876953 -0.11728,-0.386111 -0.63529,-0.0264 -0.96289,-0.173829 0.0356,-0.22907 0.167753,-0.479633 0.439453,-0.527343 a 1.7305,1.7305 0 0 1 0.873047,0.177734 c 0.0779,0.0607 -0.02661,0.240279 0.08789,0.349609 0.13401,0.11713 0.353494,0.0261 0.527344,0 0.0615,-0.29067 -0.399829,-0.161319 -0.349609,-0.349609 0.34481,-0.22386 0.975627,-0.122214 1.398437,-0.177734 0.24341,-0.0347 0.482492,-0.23248 0.701172,-0.34961 0.20194,-0.11713 0.396845,-0.27964 0.609375,-0.08789 0.0615,0.20997 -0.145086,0.33165 -0.259766,0.4375 -0.39244,0.34793 -0.744058,0.735711 -1.048828,1.138672 0.18789,0.181349 0.468526,0.05149 0.785156,0.08789 0.12343,0.0174 0.30868,0.071 0.4375,0.0918 0.15441,0.0261 0.316884,-0.0261 0.439454,0 0.21252,0.052 0.222926,0.349609 0.435546,0.349609 0.34481,0 0.372309,-0.291343 0.173829,-0.527343 0.0615,-0.23774 0.175893,-0.441915 0.08984,-0.609375 -0.15971,-0.31669 -0.755482,0.05207 -0.789062,-0.34961 -0.0173,-0.25509 0.261612,-0.333863 0.351562,-0.527344 -0.0356,-0.487629 0.39983,-0.518517 0.34961,-0.960937 -0.026,-0.18394 -0.22347,-0.178669 -0.34961,-0.349609 -0.0615,-0.0928 -0.09768,-0.28539 -0.173828,-0.34961 -0.26631,-0.22386 -0.755492,-0.188567 -0.789062,-0.617187 -0.0173,-0.25249 0.0356,-0.421559 0,-0.699219 -0.0356,-0.25769 -0.301511,-0.996495 -0.525391,-1.046875 -0.28564,-0.0607 -0.446506,0.452335 -0.785156,0.609375 a 1.3804,1.3804 0 0 1 -0.701172,0.08984 c -0.12343,-0.0261 -0.335569,-0.1162 -0.349609,-0.34961 -0.0173,-0.13362 0.02629,-0.182102 0.08789,-0.263672 0.0173,-0.0174 -0.0173,-0.06879 0,-0.08789 a 25.396,25.396 0 0 1 7,-0.962891 z m -10.412109,2.275391 v 0.002 c -0.24601,0.79565 -0.966268,1.249809 -1.923828,1.224609 -0.23542,0.22386 -0.137732,0.652231 -0.263672,0.962891 a 0.7728,0.7728 0 0 1 -0.699219,0.435547 c -0.18789,-0.0174 -0.527344,-0.259417 -0.527344,-0.435547 0,-0.14576 0.141465,-0.311033 0.177735,-0.439453 a 24.987,24.987 0 0 1 3.236328,-1.75 z m 21.437498,0.875 0.002,0.002 a 0.76721,0.76721 0 0 0 -0.26367,0.08789 c -0.19569,0.11713 -0.20415,0.293209 -0.34961,0.349609 -0.20993,0.0781 -0.49637,0.07801 -0.52734,0.263672 -0.026,0.15705 0.18302,0.207309 0.17773,0.349609 -0.0798,0.18828 -0.2249,0.206477 -0.26367,0.435547 0.26014,0.42254 0.90452,0.0066 1.22656,-0.08789 0.14017,-0.0433 0.27185,0.02671 0.34766,-0.08789 0.0875,-0.14057 0.0167,-0.420651 0.0898,-0.613281 0.0702,-0.21257 0.28805,-0.16218 0.25977,-0.34961 -0.0173,-0.18828 -0.3826,-0.380849 -0.69922,-0.349609 z m -27.740233,3.238281 h 0.002 c 0.1879,0.22386 0.34481,0.553439 0,0.699219 -0.0529,0.0261 -0.66358,0.111574 -0.78711,0.08984 -0.0356,-0.006 -0.05329,-0.06034 -0.08789,-0.08984 0.26641,-0.2603 0.595296,-0.449329 0.873046,-0.699219 z m 0.705079,0.871094 -0.0039,0.0059 c 0.12343,0.006 0.20665,0.251956 0.34961,0.259766 0.14018,0.0174 0.356746,-0.111321 0.441406,-0.08789 0.21252,0.0521 0.291331,0.452335 0.08789,0.609375 -0.1675,0.0174 -0.224217,-0.201821 -0.347657,-0.175781 -0.3474,0.0607 -0.443722,0.720909 -0.701172,0.699219 -0.24602,-0.0261 -0.425341,-0.520479 -0.175781,-0.699219 0.006,-0.15099 -0.09789,-0.197113 -0.08789,-0.351563 0.0789,-0.0954 0.23295,-0.276255 0.4375,-0.259765 z m -1.138672,0.175781 -0.002,0.002 c 0.0703,0 0.06179,-0.0261 0.08789,0 -0.0356,0.27157 -0.139689,0.311033 -0.349609,0.439453 a 1.4336,1.4336 0 0 0 -0.701172,0.960938 c -0.0356,0.14056 -0.438305,0.560324 -0.609375,0.527344 -0.40311,-0.0885 0.167116,-0.847664 0.259766,-0.964844 0.10382,-0.12842 0.232329,-0.207309 0.349609,-0.34961 0.11728,-0.140559 0.151692,-0.44123 0.263672,-0.52539 0.12344,-0.0885 0.487782,-0.09674 0.701172,-0.08984 z m 34.474606,0.703125 c 0.40032,-0.0261 0.60147,0.456259 0.7832,0.699219 0.15442,0.19869 0.6273,0.477061 0.87696,0.613281 0.14296,0.0781 0.27975,0.190792 0.43945,0.263672 0.165,0.0694 0.41555,0.167389 0.61133,0.349609 0.19569,0.17874 0.34432,0.447125 0.34961,0.609375 0.006,0.16485 -0.11238,0.285864 -0.0879,0.439453 0.17645,0.0261 0.27036,-0.150049 0.35156,-0.349609 0.66057,0.9409 1.2209,1.945157 1.75,2.972657 a 0.33039,0.33039 0 0 0 -0.17774,0.26367 c -0.0529,0.28545 0.16789,0.65083 -0.25976,0.70117 -0.27159,0.0347 -0.59037,-0.26892 -0.96289,-0.34961 -0.15076,-0.0347 -0.40382,0.0347 -0.52735,0 -0.27949,-0.098 -0.19463,-0.44583 -0.43554,-0.61328 a 1.96,1.96 0 0 0 -0.70117,-0.25976 c -0.13768,-0.0174 -0.20664,0.0174 -0.34961,0 -0.17366,-0.0261 -0.46921,3.5e-4 -0.60938,-0.0899 -0.14018,-0.0885 -0.49107,-0.23247 -0.52734,-0.34961 -0.0529,-0.18829 0.42756,-0.45428 0.43554,-0.61132 0.009,-0.12321 -0.14638,-0.16588 -0.17187,-0.35157 -0.0173,-0.11193 0.0269,-0.277373 0,-0.347653 -0.0356,-0.13362 -0.22952,-0.258462 -0.43945,-0.263672 -0.18174,0 -0.36402,0.08984 -0.52344,0.08984 -0.22397,0.006 -0.68507,-0.113274 -0.96484,-0.08984 -0.1675,0.0174 -0.27844,0.07944 -0.43555,0.08984 -0.44275,0.0347 -0.70358,-0.0261 -1.05078,0 -0.25217,0.0174 -0.72718,0.155858 -0.96289,0.261719 -0.11728,0.052 -0.19519,0.184276 -0.34961,0.259766 -0.0702,0.0347 -0.16712,0.0449 -0.25977,0.0918 -0.14296,0.0607 -0.38967,0.22333 -0.52734,0.25977 -0.19569,0.052 -0.42652,-0.0174 -0.78711,0 -0.26015,0.0174 -0.69306,-0.0353 -0.69922,-0.34766 -0.006,-0.476355 0.86516,-0.26937 1.31055,-0.35352 0.1675,-0.0347 0.23569,-0.231173 0.43945,-0.345703 0.0952,-0.052 0.16712,-0.114182 0.25977,-0.175782 0.15441,-0.10672 0.41482,-0.31776 0.43945,-0.4375 0.0173,-0.11193 -0.10414,-0.268919 -0.0918,-0.349609 0.0173,-0.10672 0.21325,-0.212509 0.35352,-0.349609 0.21243,-0.21605 0.34663,-0.477072 0.60937,-0.613282 0.17895,-0.098 0.53228,-0.118568 0.61328,-0.261718 0.0173,-0.16225 -0.006,-0.20211 0,-0.34961 0.11199,-0.10067 0.0792,-0.154738 0.17578,-0.173828 0.2742,-0.0607 0.55318,0.102601 0.875,0.08789 0.14017,-0.006 0.28989,0.0096 0.43555,-0.08789 0.12344,-0.0885 0.23072,-0.202942 0.35156,-0.263672 0.13401,-0.0694 0.27447,-0.252402 0.43946,-0.263672 z m -31.296872,0.244141 c 0.06513,-0.0065 0.119979,-0.0065 0.146484,0.01953 -0.0875,0.33579 -0.872931,0.209371 -1.138671,0.08789 0.0079,-0.06019 0.106768,-0.07746 0.173828,-0.08789 h 0.002 c 0.07028,-0.0086 0.179624,0.0079 0.263672,0 0.11467,-0.006 0.223479,0 0.349609,0 0.06306,0 0.137993,-0.01303 0.203125,-0.01953 z m 31.419922,0.599609 c -0.007,0.0065 -0.0112,0.0245 -0.0371,0.0332 -0.1675,0.052 -0.25217,0.391287 0,0.435547 0.11728,-0.0694 0.11767,-0.222977 0.0879,-0.435547 -0.0352,-0.0347 -0.0442,-0.0397 -0.0508,-0.0332 z m -33.070313,0.01953 c 0.04341,-0.0043 0.08854,-0.0037 0.134766,0.01367 -0.23542,0.19609 -0.556891,0.307137 -0.962891,0.435547 -0.19569,0.0607 -0.491073,0.12642 -0.527343,-0.08789 -0.0356,-0.266379 0.178459,-0.238501 0.349609,-0.263671 0.22398,-0.0261 0.616803,-0.08789 0.876953,-0.08789 v 0.0039 c 0.04375,0 0.0855,-0.0093 0.128906,-0.01367 z m 32.943353,0.712891 c -0.0799,0.0261 -0.17327,-0.0066 -0.25976,0.08789 0.006,0.28545 0.0529,0.448681 0,0.701172 0.16221,0.316689 0.53087,0.126419 0.60937,-0.08789 0.0985,-0.53187 -0.10405,-0.767972 -0.34765,-0.701172 z m 2.18946,1.396484 v 0.0039 a 0.75321,0.75321 0 0 0 -0.52735,0.173828 c 0.19039,0.30802 0.54221,0.364833 0.96485,0.439453 0.15162,-0.11193 0.10314,-0.421098 0.17578,-0.617188 -0.18424,0 -0.30318,0.0174 -0.52735,0 z M 75.059038,109.92578 c 0.17895,0.2291 0.371255,0.4937 0.609375,0.61524 0.12873,0.0604 0.277243,0.0527 0.439453,0.0898 0.13141,0.0265 0.22348,0.13763 0.34961,0.17578 0.2689,0.0932 0.6617,0.0781 0.875,0.17578 0.32721,0.14062 0.506782,0.71171 0.789062,0.875 0.0173,0.16222 -0.0529,0.3158 0,0.43555 0.13142,0.17875 0.396855,0.23156 0.609375,0.34961 0.26015,0.14316 0.369971,0.50139 0.613281,0.61328 0.0875,0.0349 0.2182,-0.0349 0.34961,0 0.33587,0.10066 0.410242,0.61063 0.701172,0.52734 0.1879,-0.052 0.230938,-0.34519 0.261718,-0.52734 0.12613,-0.14061 0.23912,-0.34961 0.4375,-0.34961 0.31662,-0.006 0.408111,0.39117 0.525391,0.69922 0.0615,0.17356 0.217659,0.34169 0.261719,0.52734 a 4.592,4.592 0 0 1 0,1.40039 c -0.0798,0.23248 -0.420938,0.35517 -0.611328,0.60938 -0.0924,0.12323 -0.192159,0.26887 -0.261719,0.34961 -0.12344,0.15449 -0.258913,0.2125 -0.351563,0.34961 -0.0529,0.0784 -0.04374,0.24375 -0.08984,0.34961 -0.15076,0.32795 -0.388496,0.57142 -0.259766,0.96289 0.0529,0.15704 0.259766,0.33651 0.259766,0.52734 0,0.2238 -0.486498,0.27878 -0.523438,0.52344 -0.0269,0.17876 0.207202,0.54849 0.263672,0.78711 0.0356,0.17876 0.329617,0.32346 0.435547,0.4414 0.17894,0.19614 0.365034,0.44417 0.527344,0.69922 0.31922,0.49288 0.469283,1.09252 0.783203,1.57422 0.1675,0.25254 0.505207,0.43282 0.617187,0.69922 0.0529,0.13104 -0.0529,0.40323 0,0.52734 0.18174,0.41216 1.072875,0.84564 1.484375,1.04688 0.1957,0.0985 0.348941,0.16294 0.525391,0.26367 0.27169,0.15442 0.827844,0.46139 0.964844,0.69922 0.12343,0.21522 0.200918,0.70868 0.261718,1.05078 0.0789,0.44767 -0.0173,0.82786 0,1.3125 0.0173,0.26294 0.08789,0.43477 0.08789,0.70117 0,0.0924 0.006,0.25763 0,0.34961 -0.006,0.31672 0.026,0.64348 0,0.96289 a 3.6456,3.6456 0 0 0 0,0.52344 c 0.0173,0.15971 0.164331,0.21241 0.175781,0.34961 0.009,0.14835 -0.192521,0.32346 -0.175781,0.44141 0.0356,0.31923 0.374647,0.57874 0.435547,0.87304 0.0529,0.23514 0.118677,0.77036 0.0918,1.05078 -0.026,0.14835 -0.0716,0.36318 -0.0918,0.52539 -0.0173,0.12574 0.0173,0.23327 0,0.34766 -6.9748,-4.4804 -11.634766,-12.26478 -11.634766,-21.17578 0,-1.1424 0.115602,-2.22287 0.263672,-3.32617 z m 9.701172,2.51953 c 0.152998,0.008 0.09555,0.34253 -0.07813,0.36914 -0.18789,0.0265 -0.18173,-0.26367 0,-0.34961 0.03075,-0.014 0.05627,-0.0207 0.07813,-0.0195 z" />
  </g>
</svg>
