<?xml version="1.0" encoding="UTF-8" standalone="no"?>
<svg
   width="163.97461"
   height="135.96872"
   version="1.1"
   id="svg36"
   xmlns:xlink="http://www.w3.org/1999/xlink"
   xmlns="http://www.w3.org/2000/svg"
   xmlns:svg="http://www.w3.org/2000/svg"
   xmlns:rdf="http://www.w3.org/1999/02/22-rdf-syntax-ns#"
   xmlns:cc="http://creativecommons.org/ns#"
   xmlns:dc="http://purl.org/dc/elements/1.1/">
  <metadata
     id="metadata1">
    <rdf:RDF>
      <cc:Work
         rdf:about="">
        <dc:format>image/svg+xml</dc:format>
        <dc:type
           rdf:resource="http://purl.org/dc/dcmitype/StillImage" />
        <dc:title />
      </cc:Work>
    </rdf:RDF>
  </metadata>
  <defs
     id="defs5">
    <linearGradient
       id="linearGradient36">
      <stop
         style="stop-color:#00abff;stop-opacity:0;"
         offset="0"
         id="stop37" />
      <stop
         style="stop-color:#00abff;stop-opacity:1;"
         offset="1"
         id="stop36" />
    </linearGradient>
    <style
       id="current-color-scheme"
       type="text/css">.ColorScheme-Text {
        color:#4d4d4d;
      }</style>
    <style
       type="text/css"
       id="style1">.ColorScheme-Text {
        color:#4d4d4d;
      }</style>
    <linearGradient
       xlink:href="#linearGradient36"
       id="linearGradient37"
       x1="-108.94927"
       y1="200"
       x2="-108.94927"
       y2="88.768112"
       gradientUnits="userSpaceOnUse" />
    <filter
       style="color-interpolation-filters:sRGB"
       id="filter37"
       x="-0.024580925"
       y="-0.029947181"
       width="1.0491618"
       height="1.0598944">
      <feGaussianBlur
         stdDeviation="1.6007412"
         id="feGaussianBlur37" />
    </filter>
  </defs>
  <g
     id="g37"
     transform="translate(-18.015601,-29.585955)">
    <path
       id="path20"
       style="display:inline;opacity:0.6;fill:#00abff;fill-opacity:1;filter:url(#filter37)"
       d="m -179.33984,33.427734 -6.30078,6.300782 V 71.126953 L -178.50977,64 h 40 l 11.42969,-11.427734 h 90.599611 l 7.128907,7.126953 v -8.541016 l -6.298829,-6.300781 H -137.92578 v -5.128906 l -6.29883,-6.300782 z m 0.82812,2 h 33.45703 l 5.12891,5.128907 v 6.300781 h 103.445311 l 5.128907,5.128906 v 2.884766 l -4.298829,-4.298828 H -127.9082 L -139.33789,62 h -40 l -4.30273,4.300781 V 40.556641 Z M -127.91016,62.570312 -139.33984,74 h -40 l -6.30078,6.298828 -0.002,75.115232 6.30078,6.29883 h 143.687503 l 6.300781,-6.29883 V 68.871094 l -6.300781,-6.300782 z m 0.82813,2 h 90.599608 l 5.128906,5.128907 v 84.884761 l -5.128906,5.12891 H -178.51367 l -5.12891,-5.12891 0.002,-73.455074 L -178.51172,76 h 40 z m -5.41992,20.433594 v 8 5.332032 5.333982 5.33399 5.33203 5.33203 5.33203 5.33203 10.67188 0.002 h 10 v -0.002 h 29.999997 v 0.002 h 10 v -0.002 -5.33203 -50.667974 h -7.501953 -32.498044 z m 2.5,2.666016 h 5 v 5.333984 h -5 z m 7.5,0 h 29.998044 v 24.003908 h -29.998044 z m 32.499997,0 h 5 v 5.333984 h -5 z m -39.999997,10.666016 h 5 v 5.333982 h -5 z m 39.999997,0 h 5 v 5.333982 h -5 z m -39.999997,10.667972 h 5 v 2.66992 2.66211 h -5 z m 39.999997,0 h 5 v 5.33203 h -5 z m -32.499997,5.33789 h 29.998044 v 23.99609 h -29.998044 z m -7.5,5.32617 h 5 V 125 h -5 z m 39.999997,0 h 5 V 125 h -5 z m -39.999997,10.66406 h 5 v 5.33985 h -5 z m 39.999997,0 h 5 v 5.33985 h -5 z"
       transform="translate(207.5)" />
    <path
       id="path36"
       style="fill:url(#linearGradient37);fill-opacity:1"
       d="m -179.33984,33.427734 -6.30078,6.300782 V 71.126953 L -178.50977,64 h 40 l 11.42969,-11.427734 h 90.599611 l 7.128907,7.126953 v -8.541016 l -6.298829,-6.300781 H -137.92578 v -5.128906 l -6.29883,-6.300782 z m 0.82812,2 h 33.45703 l 5.12891,5.128907 v 6.300781 h 103.445311 l 5.128907,5.128906 v 2.884766 l -4.298829,-4.298828 H -127.9082 L -139.33789,62 h -40 l -4.30273,4.300781 V 40.556641 Z M -127.91016,62.570312 -139.33984,74 h -40 l -6.30078,6.298828 -0.002,75.115232 6.30078,6.29883 h 143.687503 l 6.300781,-6.29883 V 68.871094 l -6.300781,-6.300782 z m 0.82813,2 h 90.599608 l 5.128906,5.128907 v 84.884761 l -5.128906,5.12891 H -178.51367 l -5.12891,-5.12891 0.002,-73.455074 L -178.51172,76 h 40 z m -5.41992,20.433594 v 8 5.332032 5.333982 5.33399 5.33203 5.33203 5.33203 5.33203 10.67188 0.002 h 10 v -0.002 h 29.999997 v 0.002 h 10 v -0.002 -5.33203 -50.667974 h -7.501953 -32.498044 z m 2.5,2.666016 h 5 v 5.333984 h -5 z m 7.5,0 h 29.998044 v 24.003908 h -29.998044 z m 32.499997,0 h 5 v 5.333984 h -5 z m -39.999997,10.666016 h 5 v 5.333982 h -5 z m 39.999997,0 h 5 v 5.333982 h -5 z m -39.999997,10.667972 h 5 v 2.66992 2.66211 h -5 z m 39.999997,0 h 5 v 5.33203 h -5 z m -32.499997,5.33789 h 29.998044 v 23.99609 h -29.998044 z m -7.5,5.32617 h 5 V 125 h -5 z m 39.999997,0 h 5 V 125 h -5 z m -39.999997,10.66406 h 5 v 5.33985 h -5 z m 39.999997,0 h 5 v 5.33985 h -5 z"
       transform="translate(207.5)" />
  </g>
</svg>
