<?xml version="1.0" encoding="UTF-8" standalone="no"?>
<svg
   width="167.1304"
   height="139.12453"
   version="1.1"
   viewBox="0 0 44.220197 36.810263"
   id="svg8"
   xmlns:xlink="http://www.w3.org/1999/xlink"
   xmlns="http://www.w3.org/2000/svg"
   xmlns:svg="http://www.w3.org/2000/svg"
   xmlns:rdf="http://www.w3.org/1999/02/22-rdf-syntax-ns#"
   xmlns:cc="http://creativecommons.org/ns#"
   xmlns:dc="http://purl.org/dc/elements/1.1/">
  <defs
     id="defs5">
    <linearGradient
       id="linearGradient5">
      <stop
         style="stop-color:#00abff;stop-opacity:0;"
         offset="0"
         id="stop6" />
      <stop
         style="stop-color:#00abff;stop-opacity:1;"
         offset="1"
         id="stop5" />
    </linearGradient>
    <linearGradient
       xlink:href="#linearGradient5"
       id="linearGradient6"
       x1="25.372927"
       y1="58.827114"
       x2="25.372927"
       y2="37.168293"
       gradientUnits="userSpaceOnUse" />
    <filter
       style="color-interpolation-filters:sRGB"
       id="filter6"
       x="-0.0246264"
       y="-0.02987996"
       width="1.0492528"
       height="1.0597599">
      <feGaussianBlur
         stdDeviation="0.43244437"
         id="feGaussianBlur6" />
    </filter>
  </defs>
  <metadata
     id="metadata5">
    <rdf:RDF>
      <cc:Work
         rdf:about="">
        <dc:format>image/svg+xml</dc:format>
        <dc:type
           rdf:resource="http://purl.org/dc/dcmitype/StillImage" />
        <dc:title />
      </cc:Work>
    </rdf:RDF>
  </metadata>
  <g
     id="g6"
     transform="translate(0.41826509,0.41826243)">
    <path
       id="path4"
       style="display:inline;opacity:0.6;fill:#00abff;fill-opacity:1;stroke:none;filter:url(#filter6)"
       d="M 5.7735561,20.921666 3.874952,22.82027 v 9.431526 L 6.3223633,29.802834 H 16.904213 l 3.023607,-3.023607 h 23.642634 l 2.446894,2.449478 V 25.843878 L 44.119261,23.945273 H 17.291272 V 22.82027 l -1.898604,-1.898604 z m 0.5488072,1.322409 h 8.5235647 l 1.125003,1.122936 v 1.900671 h 27.599523 l 0.189137,0.189137 H 19.38108 l -3.023607,3.023607 H 5.7756232 l -0.578263,0.578263 V 23.367011 Z M 19.38108,28.632872 16.357473,31.656479 H 5.7735561 L 3.874952,33.554567 3.872882,53.757595 5.7735532,55.656199 H 44.117194 l 1.900154,-1.898604 V 30.531476 l -1.900154,-1.898604 z m 0.548807,1.322408 h 23.640567 l 1.125003,1.122936 v 22.132639 l -1.125003,1.125003 H 6.3202962 l -1.125003,-1.125003 0.00207,-19.109548 1.122936,-1.122936 H 16.904213 Z m 5.01523,3.562079 -2.380749,6.177957 -6.605323,0.349851 5.134603,4.179617 -1.694998,6.390348 5.546467,-3.593602 5.54905,3.593602 -1.695515,-6.390348 5.133053,-4.179617 -6.605323,-0.349851 z m 0,3.648896 1.465036,3.794625 4.054558,0.212908 -3.152282,2.566268 1.041287,3.925883 -3.408599,-2.207114 -3.41015,2.207114 1.043354,-3.925883 -3.152282,-2.566268 4.056625,-0.212908 z"
       transform="translate(-3.2532806,-20.302062)" />
    <path
       id="path5"
       style="display:inline;fill:url(#linearGradient6);fill-opacity:1;stroke:none"
       d="M 5.7735561,20.921666 3.874952,22.82027 v 9.431526 L 6.3223633,29.802834 H 16.904213 l 3.023607,-3.023607 h 23.642634 l 2.446894,2.449478 V 25.843878 L 44.119261,23.945273 H 17.291272 V 22.82027 l -1.898604,-1.898604 z m 0.5488072,1.322409 h 8.5235647 l 1.125003,1.122936 v 1.900671 h 27.599523 l 0.189137,0.189137 H 19.38108 l -3.023607,3.023607 H 5.7756232 l -0.578263,0.578263 V 23.367011 Z M 19.38108,28.632872 16.357473,31.656479 H 5.7735561 L 3.874952,33.554567 3.872882,53.757595 5.7735532,55.656199 H 44.117194 l 1.900154,-1.898604 V 30.531476 l -1.900154,-1.898604 z m 0.548807,1.322408 h 23.640567 l 1.125003,1.122936 v 22.132639 l -1.125003,1.125003 H 6.3202962 l -1.125003,-1.125003 0.00207,-19.109548 1.122936,-1.122936 H 16.904213 Z m 5.01523,3.562079 -2.380749,6.177957 -6.605323,0.349851 5.134603,4.179617 -1.694998,6.390348 5.546467,-3.593602 5.54905,3.593602 -1.695515,-6.390348 5.133053,-4.179617 -6.605323,-0.349851 z m 0,3.648896 1.465036,3.794625 4.054558,0.212908 -3.152282,2.566268 1.041287,3.925883 -3.408599,-2.207114 -3.41015,2.207114 1.043354,-3.925883 -3.152282,-2.566268 4.056625,-0.212908 z"
       transform="translate(-3.2532806,-20.302062)" />
  </g>
</svg>
