<?xml version="1.0" encoding="UTF-8" standalone="no"?>
<svg
   width="163.97461"
   height="135.96872"
   version="1.1"
   id="svg7"
   xmlns:xlink="http://www.w3.org/1999/xlink"
   xmlns="http://www.w3.org/2000/svg"
   xmlns:svg="http://www.w3.org/2000/svg"
   xmlns:rdf="http://www.w3.org/1999/02/22-rdf-syntax-ns#"
   xmlns:cc="http://creativecommons.org/ns#"
   xmlns:dc="http://purl.org/dc/elements/1.1/">
  <metadata
     id="metadata1">
    <rdf:RDF>
      <cc:Work
         rdf:about="">
        <dc:format>image/svg+xml</dc:format>
        <dc:type
           rdf:resource="http://purl.org/dc/dcmitype/StillImage" />
        <dc:title />
      </cc:Work>
    </rdf:RDF>
  </metadata>
  <defs
     id="defs5">
    <linearGradient
       id="linearGradient9">
      <stop
         style="stop-color:#00abff;stop-opacity:0;"
         offset="0"
         id="stop10" />
      <stop
         style="stop-color:#00abff;stop-opacity:1;"
         offset="1"
         id="stop9" />
    </linearGradient>
    <style
       id="current-color-scheme"
       type="text/css">.ColorScheme-Text {
        color:#4d4d4d;
      }</style>
    <style
       type="text/css"
       id="style1">.ColorScheme-Text {
        color:#4d4d4d;
      }</style>
    <linearGradient
       xlink:href="#linearGradient9"
       id="linearGradient10"
       x1="-126.08696"
       y1="200"
       x2="-126.08696"
       y2="89.492752"
       gradientUnits="userSpaceOnUse" />
    <filter
       style="color-interpolation-filters:sRGB"
       id="filter10"
       x="-0.024580925"
       y="-0.029947181"
       width="1.0491618"
       height="1.0598944">
      <feGaussianBlur
         stdDeviation="1.6007412"
         id="feGaussianBlur10" />
    </filter>
  </defs>
  <g
     transform="translate(206.9844,-29.585955)"
     fill="none"
     stroke="#059bff"
     stroke-width="2"
     id="g6">
    <path
       style="display:inline;fill:#00abff;stroke:none"
       d="m -196.83984,33.427734 -6.30078,6.300782 v 31.40039 L -196.00977,64 h 40 l 11.42969,-11.427734 h 90.601564 l 7.126954,7.126953 v -8.541016 l -6.298829,-6.300781 H -155.42578 v -5.128906 l -6.30078,-6.300782 z m 0.82812,2 h 33.45703 l 5.12891,5.128907 v 6.300781 h 103.447264 l 5.126954,5.128906 v 2.884766 l -4.298829,-4.298828 H -145.4082 L -156.83789,62 h -40 l -4.30273,4.300781 V 40.556641 Z M -145.41016,62.570312 -156.83984,74 h -40 l -6.30078,6.300781 -0.002,75.111329 6.30078,6.30078 h 143.687503 l 6.300781,-6.30078 V 68.871094 l -6.300781,-6.300782 z m 0.82813,2 h 90.599608 l 5.128906,5.128907 v 84.884761 l -5.128906,5.12891 H -196.01367 l -5.12891,-5.12891 0.002,-73.455074 L -196.01172,76 h 40 z"
       id="path5" />
    <path
       style="display:inline;opacity:0.6;fill:url(#linearGradient10);fill-opacity:1;stroke:none;filter:url(#filter10)"
       d="m -196.83984,33.427734 -6.30078,6.300782 v 31.40039 L -196.00977,64 h 40 l 11.42969,-11.427734 h 90.601564 l 7.126954,7.126953 v -8.541016 l -6.298829,-6.300781 H -155.42578 v -5.128906 l -6.30078,-6.300782 z m 0.82812,2 h 33.45703 l 5.12891,5.128907 v 6.300781 h 103.447264 l 5.126954,5.128906 v 2.884766 l -4.298829,-4.298828 H -145.4082 L -156.83789,62 h -40 l -4.30273,4.300781 V 40.556641 Z M -145.41016,62.570312 -156.83984,74 h -40 l -6.30078,6.300781 -0.002,75.111329 6.30078,6.30078 h 143.687503 l 6.300781,-6.30078 V 68.871094 l -6.300781,-6.300782 z m 0.82813,2 h 90.599608 l 5.128906,5.128907 v 84.884761 l -5.128906,5.12891 H -196.01367 l -5.12891,-5.12891 0.002,-73.455074 L -196.01172,76 h 40 z"
       id="path7" />
  </g>
</svg>
