<?xml version="1.0" encoding="UTF-8" standalone="no"?>
<svg
   width="140.09286"
   height="137.09679"
   version="1.1"
   viewBox="0 0 37.065771 36.273068"
   id="svg9"
   xmlns:xlink="http://www.w3.org/1999/xlink"
   xmlns="http://www.w3.org/2000/svg"
   xmlns:svg="http://www.w3.org/2000/svg"
   xmlns:rdf="http://www.w3.org/1999/02/22-rdf-syntax-ns#"
   xmlns:cc="http://creativecommons.org/ns#"
   xmlns:dc="http://purl.org/dc/elements/1.1/">
  <metadata
     id="metadata1">
    <rdf:RDF>
      <cc:Work
         rdf:about="">
        <dc:format>image/svg+xml</dc:format>
        <dc:type
           rdf:resource="http://purl.org/dc/dcmitype/StillImage" />
        <dc:title />
      </cc:Work>
    </rdf:RDF>
  </metadata>
  <defs
     id="defs5">
    <linearGradient
       id="linearGradient3">
      <stop
         style="stop-color:#00abff;stop-opacity:0;"
         offset="0"
         id="stop4" />
      <stop
         style="stop-color:#00abff;stop-opacity:1;"
         offset="1"
         id="stop3" />
    </linearGradient>
    <style
       type="text/css"
       id="style1" />
    <linearGradient
       xlink:href="#linearGradient3"
       id="linearGradient4"
       x1="26.590912"
       y1="44.576004"
       x2="26.590912"
       y2="23.694229"
       gradientUnits="userSpaceOnUse" />
    <filter
       style="color-interpolation-filters:sRGB"
       id="filter4"
       x="-0.026695868"
       y="-0.027311142"
       width="1.0533917"
       height="1.0546223">
      <feGaussianBlur
         stdDeviation="0.3913956"
         id="feGaussianBlur4" />
    </filter>
  </defs>
  <g
     id="path9"
     transform="translate(-7.9241127,-7.6603496)">
    <path
       id="path2"
       style="display:inline;opacity:0.6;fill:#00abff;fill-opacity:1;stroke:none;filter:url(#filter4)"
       d="M 19.976339,8.5996991 V 13.097559 H 8.8634622 v 1.322383 H 21.298722 V 9.9220824 h 10.31862 V 14.419942 H 44.050535 V 13.097559 H 32.939209 V 8.5996991 Z m -6.085857,8.2009469 v 26.19342 h 25.1351 V 16.800646 H 37.703199 V 41.671682 H 15.212865 V 16.800646 Z m 6.617084,3.963015 -0.09353,15.847412 1.322383,0.0098 0.09147,-15.847412 z m 10.582167,0 -0.0956,15.847412 1.324451,0.0098 0.0956,-15.847412 z" />
    <path
       id="path3"
       style="fill:url(#linearGradient4);fill-opacity:1;stroke:none"
       d="M 19.976339,8.5996991 V 13.097559 H 8.8634622 v 1.322383 H 21.298722 V 9.9220824 h 10.31862 V 14.419942 H 44.050535 V 13.097559 H 32.939209 V 8.5996991 Z m -6.085857,8.2009469 v 26.19342 h 25.1351 V 16.800646 H 37.703199 V 41.671682 H 15.212865 V 16.800646 Z m 6.617084,3.963015 -0.09353,15.847412 1.322383,0.0098 0.09147,-15.847412 z m 10.582167,0 -0.0956,15.847412 1.324451,0.0098 0.0956,-15.847412 z" />
  </g>
</svg>
